<?xml version="1.0" encoding="UTF-8"?>
<svg id="uuid-f124e799-93e3-4ea4-984e-5bf2104b15ce" data-name="&amp;lt;Layer&amp;gt;" xmlns="http://www.w3.org/2000/svg" viewBox="0 0 451.11 451.11">
  <defs>
    <style>
      .uuid-3e6112f0-e261-4035-9bda-6649816738b3, .uuid-19e3af11-6930-425c-a112-20528774cc00, .uuid-3e53f3dc-c2c2-451d-9dd5-d6e6564716f2 {
        fill: none;
        stroke: #000;
        stroke-linecap: round;
      }

      .uuid-3e6112f0-e261-4035-9bda-6649816738b3, .uuid-3e53f3dc-c2c2-451d-9dd5-d6e6564716f2 {
        stroke-linejoin: round;
        stroke-width: 4.117px;
      }

      .uuid-19e3af11-6930-425c-a112-20528774cc00 {
        stroke-miterlimit: 10;
        stroke-width: 1.163px;
      }

      .uuid-3e53f3dc-c2c2-451d-9dd5-d6e6564716f2 {
        fill-rule: evenodd;
      }
    </style>
  </defs>
  <g>
    <path class="uuid-3e53f3dc-c2c2-451d-9dd5-d6e6564716f2" d="M196.073,239.235c-7.003,18.986-9.784,53.627,10.92,65.614,21.543,12.359,56.405-7.719,77.922-44.995,21.547-37.279,21.547-77.587,0-89.971-16.656-9.574-41.231.243-61.36,22.377"/>
    <line class="uuid-3e6112f0-e261-4035-9bda-6649816738b3" x1="341.782" y1="164.021" x2="316.527" y2="149.462"/>
    <line class="uuid-3e6112f0-e261-4035-9bda-6649816738b3" x1="137.467" y1="212.191" x2="178.312" y2="235.743"/>
    <line class="uuid-3e6112f0-e261-4035-9bda-6649816738b3" x1="109.327" y1="287.114" x2="150.147" y2="310.663"/>
    <path class="uuid-3e53f3dc-c2c2-451d-9dd5-d6e6564716f2" d="M222.674,193.187c-5.692,6.325-10.968,13.581-15.681,21.643-4.643,8.087-8.308,16.317-10.92,24.405"/>
    <polyline class="uuid-3e53f3dc-c2c2-451d-9dd5-d6e6564716f2" points="324.711 257.411 313.621 238.94 318.677 221.868 341.782 200.028"/>
    <path class="uuid-3e53f3dc-c2c2-451d-9dd5-d6e6564716f2" d="M302.701,295.493c7.377-12.654,14.68-25.359,22.01-38.082"/>
    <polyline class="uuid-3e53f3dc-c2c2-451d-9dd5-d6e6564716f2" points="261.587 338.998 268.964 308.046 281.202 295.15 302.701 295.493"/>
    <path class="uuid-3e53f3dc-c2c2-451d-9dd5-d6e6564716f2" d="M230.393,357c10.406-5.983,20.789-12.016,31.193-18.002"/>
    <polyline class="uuid-3e53f3dc-c2c2-451d-9dd5-d6e6564716f2" points="189.232 361.059 205.134 342.42 210.779 335.8 223.017 334.578 230.393 357"/>
    <path class="uuid-3e53f3dc-c2c2-451d-9dd5-d6e6564716f2" d="M167.222,348.332c7.304,4.25,14.68,8.477,22.01,12.727"/>
    <polyline class="uuid-3e53f3dc-c2c2-451d-9dd5-d6e6564716f2" points="167.222 217.273 178.312 235.743 173.256 252.816 150.147 274.656 150.147 310.663 173.256 305.85 178.312 317.039 167.222 348.332"/>
    <path class="uuid-3e53f3dc-c2c2-451d-9dd5-d6e6564716f2" d="M189.232,179.191c-7.38,12.654-14.706,25.381-22.01,38.082"/>
    <polyline class="uuid-3e53f3dc-c2c2-451d-9dd5-d6e6564716f2" points="230.393 135.683 223.017 166.634 210.779 179.534 189.232 179.191"/>
    <path class="uuid-3e53f3dc-c2c2-451d-9dd5-d6e6564716f2" d="M261.587,117.68c-10.405,6.059-20.788,12.021-31.193,18.003"/>
    <polyline class="uuid-3e53f3dc-c2c2-451d-9dd5-d6e6564716f2" points="302.701 113.625 281.154 138.884 268.964 140.106 265.594 129.895 261.587 117.68"/>
    <path class="uuid-3e53f3dc-c2c2-451d-9dd5-d6e6564716f2" d="M324.711,126.352c-7.33-4.25-14.634-8.499-22.01-12.727"/>
    <polyline class="uuid-3e53f3dc-c2c2-451d-9dd5-d6e6564716f2" points="341.782 200.028 341.782 164.021 318.677 168.834 313.621 157.645 316.527 149.462 324.711 126.352"/>
    <line class="uuid-3e6112f0-e261-4035-9bda-6649816738b3" x1="230.393" y1="357" x2="205.134" y2="342.42"/>
    <polyline class="uuid-3e53f3dc-c2c2-451d-9dd5-d6e6564716f2" points="134.586 301.722 126.378 324.784 167.222 348.332"/>
    <path class="uuid-3e53f3dc-c2c2-451d-9dd5-d6e6564716f2" d="M109.327,251.083v36.005"/>
    <line class="uuid-3e6112f0-e261-4035-9bda-6649816738b3" x1="150.147" y1="274.656" x2="109.327" y2="251.083"/>
    <polyline class="uuid-3e53f3dc-c2c2-451d-9dd5-d6e6564716f2" points="173.182 252.816 132.364 229.242 109.327 251.108"/>
    <polyline class="uuid-3e53f3dc-c2c2-451d-9dd5-d6e6564716f2" points="167.149 217.299 126.378 193.725 137.467 212.191 132.364 229.242"/>
    <polyline class="uuid-3e53f3dc-c2c2-451d-9dd5-d6e6564716f2" points="167.149 217.299 189.158 179.166 148.413 155.592 126.378 193.725"/>
    <polyline class="uuid-3e53f3dc-c2c2-451d-9dd5-d6e6564716f2" points="210.701 179.555 169.883 155.981 148.413 155.592"/>
    <polyline class="uuid-3e53f3dc-c2c2-451d-9dd5-d6e6564716f2" points="222.969 166.634 182.149 143.06 169.883 155.981"/>
    <polyline class="uuid-3e53f3dc-c2c2-451d-9dd5-d6e6564716f2" points="230.342 135.709 189.501 112.135 182.149 143.06"/>
    <polyline class="uuid-3e53f3dc-c2c2-451d-9dd5-d6e6564716f2" points="230.342 135.709 261.514 117.706 220.694 94.132 189.501 112.135"/>
    <line class="uuid-3e6112f0-e261-4035-9bda-6649816738b3" x1="281.154" y1="138.884" x2="265.594" y2="129.895"/>
    <polyline class="uuid-3e53f3dc-c2c2-451d-9dd5-d6e6564716f2" points="246.028 108.691 261.881 90.051 302.701 113.625"/>
    <path class="uuid-3e53f3dc-c2c2-451d-9dd5-d6e6564716f2" d="M252.351,185.885c-23.084,9.558-41.139,36.903-46.411,60.558-4.348,18.978-.853,35.591,10.457,42.136,16.318,9.431,42.795-5.838,59.164-34.126,5.707-10.832,8.301-17.205,11.038-29.067,1.995-10.331,1.939-22.594-3.586-31.903-8.136-11.578-18.316-11.999-30.661-7.597Z"/>
    <path class="uuid-3e53f3dc-c2c2-451d-9dd5-d6e6564716f2" d="M232.027,261.466c-7.668-4.398-7.668-18.813,0-32.172,7.723-13.291,20.203-20.546,27.875-16.098,2.326,1.217,4.514,4.511,5.056,7.105.78,2.663.861,5.7.585,8.429-.707,8.812-6.373,19.953-12.897,26.164-2.656,3.128-8.139,6.538-12.09,7.448-2.697.791-6.101.632-8.529-.876Z"/>
  </g>
  <line class="uuid-19e3af11-6930-425c-a112-20528774cc00" x1="254.505" y1="114.872" x2="225.533" y2="131.58"/>
  <line class="uuid-19e3af11-6930-425c-a112-20528774cc00" x1="243.168" y1="108.349" x2="214.245" y2="125.057"/>
  <line class="uuid-19e3af11-6930-425c-a112-20528774cc00" x1="231.905" y1="101.825" x2="202.934" y2="118.536"/>
  <line class="uuid-19e3af11-6930-425c-a112-20528774cc00" x1="224.312" y1="153.711" x2="214.197" y2="159.525"/>
  <line class="uuid-19e3af11-6930-425c-a112-20528774cc00" x1="228.414" y1="138.299" x2="202.397" y2="153.296"/>
  <line class="uuid-19e3af11-6930-425c-a112-20528774cc00" x1="219.252" y1="130.554" x2="191.087" y2="146.846"/>
  <line class="uuid-19e3af11-6930-425c-a112-20528774cc00" x1="207.747" y1="124.13" x2="185.105" y2="137.224"/>
  <line class="uuid-19e3af11-6930-425c-a112-20528774cc00" x1="195.947" y1="117.926" x2="189.232" y2="121.807"/>
  <line class="uuid-19e3af11-6930-425c-a112-20528774cc00" x1="218.84" y1="168.271" x2="206.698" y2="175.258"/>
  <line class="uuid-19e3af11-6930-425c-a112-20528774cc00" x1="209.484" y1="160.626" x2="195.315" y2="168.782"/>
  <line class="uuid-19e3af11-6930-425c-a112-20528774cc00" x1="198.169" y1="154.102" x2="184.052" y2="162.262"/>
  <line class="uuid-19e3af11-6930-425c-a112-20528774cc00" x1="186.885" y1="147.604" x2="172.914" y2="155.666"/>
  <line class="uuid-19e3af11-6930-425c-a112-20528774cc00" x1="190.38" y1="358.053" x2="174.769" y2="330.988"/>
  <line class="uuid-19e3af11-6930-425c-a112-20528774cc00" x1="160.82" y1="306.876" x2="151.952" y2="291.46"/>
  <line class="uuid-19e3af11-6930-425c-a112-20528774cc00" x1="206.868" y1="341.514" x2="161.456" y2="262.831"/>
  <line class="uuid-19e3af11-6930-425c-a112-20528774cc00" x1="238.82" y1="351.651" x2="213.902" y2="308.467"/>
  <line class="uuid-19e3af11-6930-425c-a112-20528774cc00" x1="189.401" y1="266.032" x2="177.211" y2="244.879"/>
  <line class="uuid-19e3af11-6930-425c-a112-20528774cc00" x1="258.217" y1="340.072" x2="238.234" y2="305.508"/>
  <line class="uuid-19e3af11-6930-425c-a112-20528774cc00" x1="196.827" y1="233.79" x2="177.849" y2="200.86"/>
  <line class="uuid-19e3af11-6930-425c-a112-20528774cc00" x1="266.863" y1="309.857" x2="257.922" y2="294.392"/>
  <line class="uuid-19e3af11-6930-425c-a112-20528774cc00" x1="208.968" y1="209.58" x2="192.066" y2="180.34"/>
  <line class="uuid-19e3af11-6930-425c-a112-20528774cc00" x1="283.524" y1="293.634" x2="274.413" y2="277.806"/>
  <line class="uuid-19e3af11-6930-425c-a112-20528774cc00" x1="223.649" y1="189.892" x2="215.881" y2="176.453"/>
  <line class="uuid-19e3af11-6930-425c-a112-20528774cc00" x1="306.118" y1="287.604" x2="288.115" y2="256.358"/>
  <line class="uuid-19e3af11-6930-425c-a112-20528774cc00" x1="241.263" y1="175.21" x2="228.024" y2="152.247"/>
  <line class="uuid-19e3af11-6930-425c-a112-20528774cc00" x1="319.239" y1="265.152" x2="298.815" y2="229.705"/>
  <line class="uuid-19e3af11-6930-425c-a112-20528774cc00" x1="262.176" y1="166.339" x2="241.311" y2="130.186"/>
  <line class="uuid-19e3af11-6930-425c-a112-20528774cc00" x1="319.313" y1="220.106" x2="300.132" y2="186.958"/>
  <line class="uuid-19e3af11-6930-425c-a112-20528774cc00" x1="292.537" y1="173.72" x2="273.361" y2="140.569"/>
  <line class="uuid-19e3af11-6930-425c-a112-20528774cc00" x1="337.069" y1="205.693" x2="291.073" y2="126.057"/>
  <line class="uuid-19e3af11-6930-425c-a112-20528774cc00" x1="320.751" y1="132.264" x2="315.476" y2="123.129"/>
  <line class="uuid-19e3af11-6930-425c-a112-20528774cc00" x1="223.723" y1="342.324" x2="216.176" y2="346.669"/>
  <line class="uuid-19e3af11-6930-425c-a112-20528774cc00" x1="299.256" y1="112.819" x2="268.722" y2="130.458"/>
  <line class="uuid-19e3af11-6930-425c-a112-20528774cc00" x1="287.774" y1="106.417" x2="263.736" y2="120.318"/>
  <line class="uuid-19e3af11-6930-425c-a112-20528774cc00" x1="276.389" y1="99.971" x2="255.016" y2="112.308"/>
  <line class="uuid-19e3af11-6930-425c-a112-20528774cc00" x1="264.593" y1="93.742" x2="258.217" y2="97.429"/>
  <line class="uuid-19e3af11-6930-425c-a112-20528774cc00" x1="196.951" y1="173.694" x2="190.844" y2="177.237"/>
  <line class="uuid-19e3af11-6930-425c-a112-20528774cc00" x1="185.689" y1="167.171" x2="178.948" y2="171.082"/>
  <line class="uuid-19e3af11-6930-425c-a112-20528774cc00" x1="174.404" y1="160.648" x2="167.613" y2="164.559"/>
  <line class="uuid-19e3af11-6930-425c-a112-20528774cc00" x1="156.765" y1="157.792" x2="156.597" y2="157.914"/>
  <line class="uuid-19e3af11-6930-425c-a112-20528774cc00" x1="178.19" y1="195.046" x2="154.738" y2="208.579"/>
  <line class="uuid-19e3af11-6930-425c-a112-20528774cc00" x1="185.568" y1="177.775" x2="142.817" y2="202.419"/>
  <line class="uuid-19e3af11-6930-425c-a112-20528774cc00" x1="174.231" y1="171.251" x2="131.554" y2="195.899"/>
  <line class="uuid-19e3af11-6930-425c-a112-20528774cc00" x1="162.457" y1="165.048" x2="135.977" y2="180.314"/>
  <line class="uuid-19e3af11-6930-425c-a112-20528774cc00" x1="150.368" y1="158.988" x2="148.045" y2="160.309"/>
  <line class="uuid-19e3af11-6930-425c-a112-20528774cc00" x1="168.15" y1="251.182" x2="139.984" y2="267.448"/>
  <line class="uuid-19e3af11-6930-425c-a112-20528774cc00" x1="156.865" y1="244.658" x2="128.721" y2="260.929"/>
  <line class="uuid-19e3af11-6930-425c-a112-20528774cc00" x1="145.629" y1="238.134" x2="117.437" y2="254.427"/>
  <line class="uuid-19e3af11-6930-425c-a112-20528774cc00" x1="133.486" y1="232.101" x2="130.752" y2="233.69"/>
  <line class="uuid-19e3af11-6930-425c-a112-20528774cc00" x1="148.509" y1="294.492" x2="137.029" y2="301.137"/>
  <line class="uuid-19e3af11-6930-425c-a112-20528774cc00" x1="148.851" y1="281.25" x2="125.351" y2="294.834"/>
  <line class="uuid-19e3af11-6930-425c-a112-20528774cc00" x1="142.817" y1="271.698" x2="113.92" y2="288.41"/>
  <line class="uuid-19e3af11-6930-425c-a112-20528774cc00" x1="131.264" y1="265.325" x2="110.719" y2="277.195"/>
  <line class="uuid-19e3af11-6930-425c-a112-20528774cc00" x1="119.585" y1="259.045" x2="111.112" y2="263.931"/>
  <line class="uuid-19e3af11-6930-425c-a112-20528774cc00" x1="168.54" y1="339.049" x2="161.699" y2="343.004"/>
  <line class="uuid-19e3af11-6930-425c-a112-20528774cc00" x1="174.941" y1="322.315" x2="149.804" y2="336.827"/>
  <line class="uuid-19e3af11-6930-425c-a112-20528774cc00" x1="174.231" y1="309.688" x2="138.178" y2="330.523"/>
  <line class="uuid-19e3af11-6930-425c-a112-20528774cc00" x1="148.681" y1="311.421" x2="128.721" y2="322.9"/>
  <line class="uuid-19e3af11-6930-425c-a112-20528774cc00" x1="136.783" y1="305.24" x2="135.15" y2="306.192"/>
  <line class="uuid-19e3af11-6930-425c-a112-20528774cc00" x1="167.906" y1="222.064" x2="163.215" y2="224.797"/>
  <line class="uuid-19e3af11-6930-425c-a112-20528774cc00" x1="158.624" y1="214.417" x2="151.832" y2="218.3"/>
  <line class="uuid-19e3af11-6930-425c-a112-20528774cc00" x1="147.287" y1="207.894" x2="140.569" y2="211.802"/>
  <line class="uuid-19e3af11-6930-425c-a112-20528774cc00" x1="135.856" y1="201.47" x2="134.071" y2="202.519"/>
  <line class="uuid-19e3af11-6930-425c-a112-20528774cc00" x1="175.453" y1="239.261" x2="164.316" y2="245.707"/>
  <line class="uuid-19e3af11-6930-425c-a112-20528774cc00" x1="167.097" y1="231.075" x2="152.931" y2="239.235"/>
  <line class="uuid-19e3af11-6930-425c-a112-20528774cc00" x1="155.787" y1="224.555" x2="141.67" y2="232.711"/>
  <line class="uuid-19e3af11-6930-425c-a112-20528774cc00" x1="144.333" y1="218.152" x2="136.319" y2="222.77"/>
  <line class="uuid-19e3af11-6930-425c-a112-20528774cc00" x1="329.693" y1="158.965" x2="318.893" y2="165.195"/>
  <line class="uuid-19e3af11-6930-425c-a112-20528774cc00" x1="318.017" y1="152.638" x2="317.455" y2="152.954"/>
  <line class="uuid-19e3af11-6930-425c-a112-20528774cc00" x1="226.803" y1="290.459" x2="205.892" y2="254.236"/>
  <line class="uuid-19e3af11-6930-425c-a112-20528774cc00" x1="248.344" y1="282.592" x2="237.723" y2="264.226"/>
  <line class="uuid-19e3af11-6930-425c-a112-20528774cc00" x1="225.239" y1="242.653" x2="215.297" y2="225.456"/>
  <line class="uuid-19e3af11-6930-425c-a112-20528774cc00" x1="265.226" y1="266.764" x2="256.948" y2="252.425"/>
  <line class="uuid-19e3af11-6930-425c-a112-20528774cc00" x1="237.771" y1="219.178" x2="229.462" y2="204.793"/>
  <line class="uuid-19e3af11-6930-425c-a112-20528774cc00" x1="278.832" y1="245.075" x2="267.374" y2="225.287"/>
  <line class="uuid-19e3af11-6930-425c-a112-20528774cc00" x1="259.192" y1="211.142" x2="246.954" y2="189.913"/>
  <line class="uuid-19e3af11-6930-425c-a112-20528774cc00" x1="286.308" y1="212.927" x2="270.407" y2="185.369"/>
  <line class="uuid-19e3af11-6930-425c-a112-20528774cc00" x1="245.857" y1="258.534" x2="227.778" y2="248.102"/>
  <line class="uuid-19e3af11-6930-425c-a112-20528774cc00" x1="254.894" y1="250.719" x2="229.978" y2="236.329"/>
  <line class="uuid-19e3af11-6930-425c-a112-20528774cc00" x1="260.877" y1="241.141" x2="235.28" y2="226.339"/>
  <line class="uuid-19e3af11-6930-425c-a112-20528774cc00" x1="264.005" y1="229.926" x2="243.415" y2="217.983"/>
</svg>