<?xml version="1.0" encoding="UTF-8"?>
<svg id="uuid-b84d7573-cbf5-4e33-a59d-426a8ebfd671" data-name="&amp;lt;Layer&amp;gt;" xmlns="http://www.w3.org/2000/svg" viewBox="0 0 451.11 451.11">
  <defs>
    <style>
      .uuid-6cac86e9-1eb0-4da8-843e-28c555203c92, .uuid-e0123ba6-66f0-4ce3-9480-9548858d13c9, .uuid-9d4ed1bb-eff2-4622-b040-4bd027e9112d, .uuid-f1ae8833-6544-4514-9818-df52aadc6321 {
        fill: none;
      }

      .uuid-6cac86e9-1eb0-4da8-843e-28c555203c92, .uuid-e0123ba6-66f0-4ce3-9480-9548858d13c9, .uuid-9d4ed1bb-eff2-4622-b040-4bd027e9112d, .uuid-f1ae8833-6544-4514-9818-df52aadc6321, .uuid-01de5e62-7c7f-43f4-8130-e5565818ad6d, .uuid-f1236b9e-b67e-46d7-84b6-905f6c8eb9ee {
        stroke: #000;
        stroke-linecap: round;
      }

      .uuid-6cac86e9-1eb0-4da8-843e-28c555203c92, .uuid-f1ae8833-6544-4514-9818-df52aadc6321 {
        stroke-width: 4.113px;
      }

      .uuid-6cac86e9-1eb0-4da8-843e-28c555203c92, .uuid-f1ae8833-6544-4514-9818-df52aadc6321, .uuid-f1236b9e-b67e-46d7-84b6-905f6c8eb9ee {
        stroke-linejoin: round;
      }

      .uuid-e0123ba6-66f0-4ce3-9480-9548858d13c9 {
        stroke-miterlimit: 10;
      }

      .uuid-e0123ba6-66f0-4ce3-9480-9548858d13c9, .uuid-9d4ed1bb-eff2-4622-b040-4bd027e9112d {
        stroke-width: 1.159px;
      }

      .uuid-9d4ed1bb-eff2-4622-b040-4bd027e9112d, .uuid-f1ae8833-6544-4514-9818-df52aadc6321, .uuid-01de5e62-7c7f-43f4-8130-e5565818ad6d, .uuid-f1236b9e-b67e-46d7-84b6-905f6c8eb9ee {
        fill-rule: evenodd;
      }

      .uuid-9d4ed1bb-eff2-4622-b040-4bd027e9112d, .uuid-01de5e62-7c7f-43f4-8130-e5565818ad6d {
        stroke-miterlimit: 22.926;
      }

      .uuid-01de5e62-7c7f-43f4-8130-e5565818ad6d, .uuid-f1236b9e-b67e-46d7-84b6-905f6c8eb9ee {
        fill: #1986c6;
        stroke-width: 3.289px;
      }
    </style>
  </defs>
  <path class="uuid-f1ae8833-6544-4514-9818-df52aadc6321" d="M214.806,134.581c3.422-2.493,7.083-4.886,10.748-7.034"/>
  <path class="uuid-f1ae8833-6544-4514-9818-df52aadc6321" d="M119.535,176.036c-10.747-2.2-19.055-11.726-19.055-23.11,0-13.069,10.751-23.625,23.699-23.625,1.954,0,3.664.173,5.128.562,1.221.247,2.198.537,3.176.954.732.221,1.464.562,2.196.979.247.047.489.169.736.291,3.907,2.078,7.083,5.228,9.279,8.991"/>
  <path class="uuid-f1ae8833-6544-4514-9818-df52aadc6321" d="M190.132,337.137c.489.221,1.221.391,1.711.563.489.122.975.243,1.221.365,1.464.467,2.932.857,4.396,1.173.244,0,.244.048.244.048.245.121.489.173.732.173"/>
  <path class="uuid-f1ae8833-6544-4514-9818-df52aadc6321" d="M198.437,339.459c.979.217,1.957.463,2.69.636.975.17,1.953.413,2.932.533"/>
  <polyline class="uuid-f1ae8833-6544-4514-9818-df52aadc6321" points="204.059 340.629 204.059 340.681 204.059 340.681"/>
  <path class="uuid-f1ae8833-6544-4514-9818-df52aadc6321" d="M204.059,340.681c.243,0,.243.048.485.048,1.468.291,2.932.589,4.643.758.979.243,1.955.365,2.933.415.243.048.732.048.732.048.975.122,1.711.169,2.443.243,1.221.1,2.685.221,4.154.269,1.708.124,3.419.199,5.13.199"/>
  <path class="uuid-f1ae8833-6544-4514-9818-df52aadc6321" d="M224.579,342.66h.975c1.954,0,3.907-.121,6.107-.199h.244c5.132-.269,10.014-.854,15.148-1.781.243-.052.486-.125.732-.173,1.464-.243,2.686-.537,4.15-.88.489-.121,1.221-.221,1.711-.389,1.955-.415,3.665-.953,5.619-1.538,26.87-8.062,49.833-25.6,64.735-48.759"/>
  <path class="uuid-f1ae8833-6544-4514-9818-df52aadc6321" d="M336.7,188.76c.736,2.152,1.468,4.348,1.957,6.57.485,2.2.975,4.398,1.464,6.67,0,.122.243.17.243.295.489,3.028.979,6.157,1.468,9.353"/>
  <path class="uuid-f1ae8833-6544-4514-9818-df52aadc6321" d="M341.832,211.701c.243,3.197.485,6.498.732,9.815v4.059c0,7.962-.732,15.803-2.2,23.28"/>
  <path class="uuid-f1ae8833-6544-4514-9818-df52aadc6321" d="M330.106,173.03v-.125c-.732-1.56-1.464-3.002-2.443-4.54,0-.173-.243-.269-.243-.441-.247-.291-.247-.633-.489-.953-.732-1.149-1.464-2.248-1.953-3.345-.247-.074-.247-.121-.247-.195-5.13-8.066-10.99-15.438-17.831-21.988-7.328-6.983-15.39-13.066-24.184-17.951"/>
  <path class="uuid-f1ae8833-6544-4514-9818-df52aadc6321" d="M282.716,123.44c-4.643-2.685-9.773-5.056-14.901-7.035-.732-.341-1.711-.636-2.444-.927-1.464-.537-2.928-.979-4.396-1.464-.489-.221-1.221-.395-1.953-.563"/>
  <path class="uuid-f1ae8833-6544-4514-9818-df52aadc6321" d="M110.743,247.828c-1.468-7.208-2.2-14.632-2.2-22.253,0-7.966.732-15.733,2.2-23.232.243-.463.243-.931.243-1.394.489-1.391.732-2.782,1.221-4.129,0-.805.247-1.611.489-2.417.243-.365.243-.758.489-1.123.243-1.221.489-2.417.975-3.59,1.468-4.691,3.179-9.235,5.375-13.655,6.108-13.168,14.66-25.063,25.16-34.958,13.19-12.701,29.317-22.352,47.39-27.628"/>
  <path class="uuid-f1ae8833-6544-4514-9818-df52aadc6321" d="M127.108,288.941c.489.685.979,1.391,1.468,2.075.975,1.468,1.953,2.906,2.93,4.374.736.854,1.468,1.734,2.2,2.613,12.701,16.318,29.802,29.14,49.586,36.742"/>
  <path class="uuid-f1ae8833-6544-4514-9818-df52aadc6321" d="M127.355,290.453c.243.1.489.174.732.221.243.122.243.222.489.343.975,1.468,1.953,2.906,2.93,4.374.736.854,1.468,1.734,2.2,2.613-2.2-.291-3.908-.585-5.862-1.001"/>
  <path class="uuid-f1ae8833-6544-4514-9818-df52aadc6321" d="M142.989,220.933c11.48-7.33,24.67-14.213,38.596-20.446,3.175-1.391,6.351-2.713,9.526-4.055"/>
  <path class="uuid-f1ae8833-6544-4514-9818-df52aadc6321" d="M133.216,227.603v.074c-8.794,6.203-16.124,12.701-21.742,19.199-.489.317-.489.662-.732.953-.247.1-.247.221-.489.343-1.465,1.853-2.934,3.664-3.908,5.449-3.422,4.886-5.618,9.478-6.35,13.776-1.468,6.376-.247,12.019,3.418,16.78,3.418,4.522,8.794,8.11,16.122,10.627.489.173,1.223.415,1.712.588"/>
  <path class="uuid-f1ae8833-6544-4514-9818-df52aadc6321" d="M138.345,231.61c12.948-9.115,28.582-17.761,45.926-25.38,1.711-.81,3.665-1.616,5.372-2.296"/>
  <path class="uuid-f1ae8833-6544-4514-9818-df52aadc6321" d="M129.061,238.814c-4.882,4.007-9.282,8.062-12.944,12.19-.489.71-1.221,1.464-1.711,2.175-.732.805-1.221,1.663-1.953,2.469-.736,1.001-1.468,1.979-1.957,2.928-2.198,3.638-3.666,7.013-4.398,10.089-.975,4.518,0,8.477,2.444,11.726,2.443,3.322,6.597,6.107,12.215,8.135"/>
  <path class="uuid-f1ae8833-6544-4514-9818-df52aadc6321" d="M196.729,201.023c26.139-10.405,54.473-18.172,80.859-21.373,1.464-.173,3.175-.365,4.639-.537"/>
  <path class="uuid-f1ae8833-6544-4514-9818-df52aadc6321" d="M277.588,173.325c-.247.048-.489.048-.733.096-25.652,3.08-53.254,10.405-78.66,20.277"/>
  <path class="uuid-f1ae8833-6544-4514-9818-df52aadc6321" d="M285.159,172.615c19.541-1.733,35.175-.415,46.411,3.249.247.048.489.173.733.243,7.328,2.569,12.705,6.156,16.122,10.677,3.664,4.714,4.886,10.332,3.422,16.734-.243,1.149-.489,2.318-.979,3.54-.732,2.617-2.196,5.324-3.907,8.11-1.222,2.1-2.687,4.206-4.398,6.35"/>
  <path class="uuid-f1ae8833-6544-4514-9818-df52aadc6321" d="M343.786,207.815c8.364-16.954-7.075-24.814-20.597-27.68-8.918-1.891-20.125-2.509-33.39-1.659"/>
  <path class="uuid-f1ae8833-6544-4514-9818-df52aadc6321" d="M267.083,111.934c.243,1.442.489,2.907.732,4.47-.732-.341-1.711-.636-2.444-.927-1.464-.537-2.928-.979-4.396-1.464v-.979"/>
  <path class="uuid-f1ae8833-6544-4514-9818-df52aadc6321" d="M284.912,105.609c-2.686-.415-5.618-.588-8.547-.588-3.422,0-7.082.295-10.748.806-1.953.293-4.154.636-6.107,1.125-4.154.854-8.309,2.027-12.458,3.543"/>
  <path class="uuid-f1ae8833-6544-4514-9818-df52aadc6321" d="M323.756,133.776c4.15,9.109,6.593,20.199,6.593,33.099,0,2.027,0,4.055-.243,6.155"/>
  <path class="uuid-f1ae8833-6544-4514-9818-df52aadc6321" d="M185.492,345.394c-3.664.512-7.328.732-10.747.732-10.015,0-18.812-2.148-26.627-6.324-7.573-4.181-13.922-10.336-18.567-18.42-4.15-7.182-7.082-15.902-8.303-25.991-.247-2.225-.489-4.495-.489-6.865v-10.579c.243-3.175.732-6.376.979-9.573"/>
  <path class="uuid-f1ae8833-6544-4514-9818-df52aadc6321" d="M129.061,238.766c1.221-3.712,2.691-7.376,4.155-11.089v-.074c4.886-11.557,10.748-23.037,17.829-34.079,15.392-24.405,35.668-46.753,58.631-63.071"/>
  <path class="uuid-f1ae8833-6544-4514-9818-df52aadc6321" d="M282.716,111.64c-2.2-.243-4.396-.337-6.351-.337-3.175,0-6.107.217-9.282.632-1.955.295-4.155.637-6.108,1.101-.732.121-1.221.247-1.953.415"/>
  <path class="uuid-f1ae8833-6544-4514-9818-df52aadc6321" d="M318.627,137.877c2.929,6.866,4.883,14.924,5.372,24.232.247.463.489.858.732,1.321,0,.074,0,.121.247.195.489,1.097,1.221,2.196,1.953,3.345.243.319.243.662.489.953,0,.173.243.269.243.441.979,1.538,1.711,2.98,2.443,4.54v.125"/>
  <path class="uuid-f1ae8833-6544-4514-9818-df52aadc6321" d="M184.028,339.165c-3.179.417-6.354.637-9.283.637-8.793,0-16.858-1.859-23.452-5.523-6.839-3.639-12.216-8.989-16.365-16.024-3.422-5.913-5.866-13.07-7.083-21.252-.247-2.075-.489-4.302-.489-6.55-.247-.533-.247-1.001-.247-1.512"/>
  <path class="uuid-f1ae8833-6544-4514-9818-df52aadc6321" d="M127.108,288.869v-4.566c0-3.911.247-7.918.736-11.973"/>
  <path class="uuid-f1ae8833-6544-4514-9818-df52aadc6321" d="M128.819,265.294c1.711-10.968,4.887-22.352,9.526-33.684,1.468-3.592,2.932-7.134,4.644-10.677,3.907-8.132,8.303-16.194,13.19-24.038,13.437-21.031,30.534-40.429,49.586-55.526"/>
  <path class="uuid-f1ae8833-6544-4514-9818-df52aadc6321" d="M282.716,123.492c-.489-1.931-.732-4.007-.732-6.108,0-1.979.243-3.885.732-5.744.489-2.148,1.221-4.176,2.196-6.03,4.155-7.38,11.973-12.388,21.256-12.388,13.19,0,23.938,10.799,23.938,24.162,0,6.325-2.443,12.091-6.35,16.392-1.468,1.611-3.176,3.002-5.129,4.102-3.422,2.175-7.573,3.445-11.726,3.566"/>
  <path class="uuid-f1ae8833-6544-4514-9818-df52aadc6321" d="M216.027,115.356c-4.154-1.905-8.062-3.469-11.969-4.86-10.262-3.664-20.277-5.475-29.314-5.475-10.015,0-18.812,2.152-26.627,6.281-7.573,4.176-13.922,10.379-18.567,18.467"/>
  <path class="uuid-f1ae8833-6544-4514-9818-df52aadc6321" d="M129.308,129.864c1.221.247,2.198.537,3.176.954.732.269,1.464.562,2.196.979.247.047.489.169.736.291,3.907-6.62,9.279-11.748,15.876-15.219,6.594-3.664,14.66-5.566,23.452-5.566,5.373,0,11.237.68,17.341,2.148"/>
  <path class="uuid-f1ae8833-6544-4514-9818-df52aadc6321" d="M221.647,118.141c1.221.707,2.443,1.391,3.907,2.149.489.293.979.584,1.468.879"/>
  <path class="uuid-f1ae8833-6544-4514-9818-df52aadc6321" d="M277.588,173.325c-4.644-5.692-9.526-11.167-14.66-16.317-11.48-11.509-24.184-21.621-37.375-29.461"/>
  <path class="uuid-f1ae8833-6544-4514-9818-df52aadc6321" d="M225.554,127.547c-.489-.343-.975-.637-1.707-.932-1.468-.927-3.176-1.781-4.644-2.612,0-.048-.243-.048-.243-.048"/>
  <path class="uuid-f1ae8833-6544-4514-9818-df52aadc6321" d="M180.606,285.792c-.489-.1-1.221-.295-1.711-.393-14.901-3.271-29.071-8.088-41.04-14.582-3.175-1.737-6.35-3.592-9.037-5.523-2.196-1.318-4.154-2.738-5.86-4.128-3.179-2.591-6.108-5.204-8.551-7.988"/>
  <path class="uuid-f1ae8833-6544-4514-9818-df52aadc6321" d="M180.606,292.19c-16.856-3.37-32.736-8.672-46.168-15.902-2.443-1.295-4.64-2.565-6.594-3.959-2.2-1.269-4.154-2.565-6.107-3.955-2.444-1.907-5.134-3.886-7.33-5.986-1.468-1.221-2.689-2.491-3.911-3.812"/>
  <path class="uuid-f1ae8833-6544-4514-9818-df52aadc6321" d="M110.253,248.171c-.489-.88-1.221-1.807-1.711-2.687-3.908-6.428-6.108-13.168-6.108-19.909s2.2-13.459,6.108-19.909c.732-1.173,1.468-2.274,2.2-3.323.243-.463.243-.931.243-1.394.489-1.391.732-2.782,1.221-4.129,0-.805.247-1.611.489-2.417.243-.365.243-.758.489-1.123.243-1.221.489-2.417.975-3.59,0-.343.247-.637.247-1.001-4.886,4.418-8.798,9.015-11.726,13.776-4.643,7.498-6.841,15.266-6.841,23.11,0,7.793,2.198,15.633,6.841,23.059.975,1.685,2.196,3.37,3.664,4.986"/>
  <path class="uuid-f1ae8833-6544-4514-9818-df52aadc6321" d="M329.128,268.374c2.689-1.859,5.376-3.886,7.572-5.986,4.886-4.349,8.798-8.989,11.726-13.754,4.643-7.426,6.843-15.266,6.843-23.059,0-6.255-1.468-12.484-4.4-18.519"/>
  <path class="uuid-f1ae8833-6544-4514-9818-df52aadc6321" d="M328.153,261.167c4.886-3.882,8.794-7.988,12.212-12.311.736-1.101,1.468-2.196,2.2-3.371,3.908-6.428,6.108-13.168,6.108-19.909,0-3.47-.732-6.961-1.711-10.409"/>
  <path class="uuid-f1ae8833-6544-4514-9818-df52aadc6321" d="M342.564,205.593c-.732-1.099-1.464-2.2-2.2-3.297"/>
  <path class="uuid-f1ae8833-6544-4514-9818-df52aadc6321" d="M276.609,290.896c14.412-3.349,28.091-8.234,40.064-14.608,2.439-1.295,4.639-2.565,6.594-3.959"/>
  <path class="uuid-f1ae8833-6544-4514-9818-df52aadc6321" d="M249.738,318.767c14.901,0,26.871-11.969,26.871-26.749s-11.97-26.749-26.871-26.749c-14.658,0-26.627,11.973-26.627,26.749s11.969,26.749,26.627,26.749Z"/>
  <path class="uuid-f1236b9e-b67e-46d7-84b6-905f6c8eb9ee" d="M119.046,268.764c.247.17.489.365.489.537v.879c-.243-.489-.489-.953-.489-1.416Z"/>
  <path class="uuid-01de5e62-7c7f-43f4-8130-e5565818ad6d" d="M119.046,268.69c.247.196.489.391.733.585,0,.295-.244.589-.244.931,0-.537-.243-1.027-.489-1.516Z"/>
  <path class="uuid-f1ae8833-6544-4514-9818-df52aadc6321" d="M334.993,183.999c.486,1.515,1.222,3.075,1.707,4.691"/>
  <line class="uuid-6cac86e9-1eb0-4da8-843e-28c555203c92" x1="336.7" y1="188.69" x2="336.7" y2="188.76"/>
  <path class="uuid-f1ae8833-6544-4514-9818-df52aadc6321" d="M336.7,262.388c-1.707,5.471-3.907,10.699-6.594,15.733"/>
  <path class="uuid-f1ae8833-6544-4514-9818-df52aadc6321" d="M120.758,277.947c-2.444-4.982-4.64-10.162-6.351-15.559"/>
  <path class="uuid-f1ae8833-6544-4514-9818-df52aadc6321" d="M219.202,108.685c-5.128.295-10.258.854-15.144,1.811"/>
  <path class="uuid-f1ae8833-6544-4514-9818-df52aadc6321" d="M247.052,110.496c-6.84-1.299-13.68-1.931-20.767-1.979"/>
  <line class="uuid-6cac86e9-1eb0-4da8-843e-28c555203c92" x1="129.061" y1="238.766" x2="129.061" y2="238.814"/>
  <path class="uuid-f1ae8833-6544-4514-9818-df52aadc6321" d="M204.059,340.681c-4.154,1.512-8.308,2.661-12.458,3.54"/>
  <path class="uuid-f1ae8833-6544-4514-9818-df52aadc6321" d="M247.052,110.496c-7.087,2.417-14.169,5.666-21.499,9.795"/>
  <path class="uuid-f1ae8833-6544-4514-9818-df52aadc6321" d="M122.958,261.167c1.464-7.352,3.418-14.85,6.103-22.353"/>
  <path class="uuid-f1ae8833-6544-4514-9818-df52aadc6321" d="M259.021,113.45c-8.551,2.027-17.592,5.493-27.117,10.553"/>
  <path class="uuid-f1ae8833-6544-4514-9818-df52aadc6321" d="M192.086,113.45c6.841,1.612,13.926,4.103,21.256,7.667"/>
  <path class="uuid-f1ae8833-6544-4514-9818-df52aadc6321" d="M275.633,284.641c13.677-3.198,26.382-7.793,37.619-13.824"/>
  <path class="uuid-f1ae8833-6544-4514-9818-df52aadc6321" d="M313.252,270.817c3.175-1.737,6.35-3.592,9.037-5.523"/>
  <path class="uuid-f1ae8833-6544-4514-9818-df52aadc6321" d="M223.357,296.54c-12.215-.125-24.674-1.149-36.644-3.201"/>
  <path class="uuid-f1ae8833-6544-4514-9818-df52aadc6321" d="M223.111,290.259c-12.212-.096-24.427-1.195-36.153-3.297"/>
  <path class="uuid-f1ae8833-6544-4514-9818-df52aadc6321" d="M265.618,105.827c-1.221-4.64-2.443-8.599-4.154-11.822-2.443-5.35-5.618-9.015-9.283-10.872-3.907-2.05-8.06-1.929-12.458.341-5.375,2.785-10.994,8.894-16.854,18.641-1.221,2.052-2.444,4.25-3.666,6.57-1.221,2.075-2.196,4.349-3.175,6.67-.979,1.855-1.711,3.786-2.685,5.762-1.221,2.959-2.443,6.086-3.666,9.335-1.468,3.492-2.689,7.156-3.911,10.916-4.886,14.217-9.283,30.271-12.948,47.1-.485,2.612-1.217,5.276-1.707,7.962-.489,2.495-.979,4.982-1.468,7.502-5.13,27.113-8.305,55.621-9.037,81.858v10.11c0,15.219.732,28.215,2.686,38.844.247,1.512.489,3.028.736,4.418.486,2.2.975,4.298,1.464,6.229,1.221,4.57,2.444,8.451,4.151,11.726,2.443,5.324,5.618,8.989,9.283,10.847,3.911,2.027,8.061,1.979,12.458-.343,5.375-2.737,10.994-8.893,16.858-18.591,1.217-2.075,2.439-4.298,3.662-6.572h-.244c-2.2.078-4.154.199-6.107.199"/>
  <path class="uuid-f1ae8833-6544-4514-9818-df52aadc6321" d="M224.579,342.66c-.489,1.097-1.222,2.149-1.711,3.124-5.13,8.724-10.015,14.047-14.413,16.27-2.443,1.269-4.643,1.39-6.596.341-2.443-1.221-4.643-3.885-6.598-8.014-1.464-2.854-2.685-6.203-3.66-10.162-.489-1.928-.979-3.955-1.468-6.155v-.928c-2.196-10.748-3.419-24.574-3.419-41.235v-2.563c0-2.076,0-4.228.244-6.377.489-27.455,4.154-57.6,9.771-85.939.487-2.443.976-4.882,1.465-7.325.243-1.273.489-2.617.732-3.886,4.396-20.225,9.771-39.159,15.88-55.231,1.221-3.59,2.686-7.086,4.154-10.409v-.217c.975-2.027,1.711-3.959,2.687-5.814,1.464-3.422,3.175-6.67,4.639-9.625.736-1.127,1.222-2.152,1.957-3.201,5.13-8.673,10.012-13.996,14.409-16.196,2.443-1.343,4.643-1.417,6.597-.369,2.443,1.221,4.643,3.911,6.598,7.966,1.221,2.859,2.443,6.229,3.664,10.236"/>
  <path class="uuid-f1ae8833-6544-4514-9818-df52aadc6321" d="M227.022,121.17c1.707.927,3.175,1.859,4.883,2.833,19.787,12.312,38.111,29.339,53.254,48.611,1.464,1.979,3.176,3.886,4.64,5.862,3.664,4.886,7.086,9.945,10.262,15.048,13.922,21.79,23.695,45.29,28.091,67.643.243,2.395.732,4.838.975,7.208.489,3.249.979,6.52.979,9.747.243,2.052.243,4.15.243,6.181,0,14.849-3.175,27.333-8.793,37.08-4.64,8.084-10.991,14.239-18.809,18.42-7.573,4.176-16.613,6.324-26.382,6.324-9.039,0-19.055-1.781-29.313-5.445.243-.052.486-.125.732-.173,1.464-.243,2.686-.537,4.15-.88.489-.121,1.221-.221,1.711-.389,1.955-.415,3.665-.953,5.619-1.538,5.864,1.391,11.726,2.101,17.101,2.101,8.794,0,16.856-1.859,23.45-5.523,6.839-3.639,12.215-8.989,16.369-16.024,4.396-7.841,7.083-17.635,7.815-29.314v-4.639c0-3.911-.243-7.918-.732-11.973-.243-2.322-.489-4.64-.979-7.035-3.662-22.426-13.434-46.291-27.603-68.399-3.664-6.104-8.062-12.017-12.458-17.783-1.464-1.98-2.932-3.885-4.396-5.788"/>
  <line class="uuid-e0123ba6-66f0-4ce3-9480-9548858d13c9" x1="126.133" y1="161.915" x2="102.434" y2="148.235"/>
  <line class="uuid-e0123ba6-66f0-4ce3-9480-9548858d13c9" x1="140.056" y1="143.934" x2="118.557" y2="131.528"/>
  <line class="uuid-e0123ba6-66f0-4ce3-9480-9548858d13c9" x1="212.606" y1="117.943" x2="212.121" y2="118.237"/>
  <line class="uuid-e0123ba6-66f0-4ce3-9480-9548858d13c9" x1="201.126" y1="111.545" x2="198.437" y2="113.108"/>
  <line class="uuid-e0123ba6-66f0-4ce3-9480-9548858d13c9" x1="185.003" y1="107.759" x2="181.828" y2="109.664"/>
  <line class="uuid-e0123ba6-66f0-4ce3-9480-9548858d13c9" x1="161.797" y1="108.174" x2="136.881" y2="122.561"/>
  <line class="uuid-e0123ba6-66f0-4ce3-9480-9548858d13c9" x1="213.095" y1="364.35" x2="210.899" y2="363.056"/>
  <line class="uuid-e0123ba6-66f0-4ce3-9480-9548858d13c9" x1="192.333" y1="352.333" x2="189.158" y2="350.524"/>
  <line class="uuid-e0123ba6-66f0-4ce3-9480-9548858d13c9" x1="227.264" y1="346.591" x2="225.311" y2="345.42"/>
  <line class="uuid-e0123ba6-66f0-4ce3-9480-9548858d13c9" x1="185.981" y1="322.7" x2="183.539" y2="321.261"/>
  <line class="uuid-e0123ba6-66f0-4ce3-9480-9548858d13c9" x1="184.76" y1="295.928" x2="182.56" y2="294.608"/>
  <line class="uuid-e0123ba6-66f0-4ce3-9480-9548858d13c9" x1="185.735" y1="270.35" x2="183.539" y2="269.059"/>
  <line class="uuid-e0123ba6-66f0-4ce3-9480-9548858d13c9" x1="187.936" y1="245.532" x2="185.735" y2="244.263"/>
  <line class="uuid-e0123ba6-66f0-4ce3-9480-9548858d13c9" x1="191.111" y1="221.348" x2="188.911" y2="220.104"/>
  <line class="uuid-e0123ba6-66f0-4ce3-9480-9548858d13c9" x1="195.261" y1="197.727" x2="193.307" y2="196.506"/>
  <line class="uuid-e0123ba6-66f0-4ce3-9480-9548858d13c9" x1="200.637" y1="174.616" x2="198.437" y2="173.395"/>
  <line class="uuid-e0123ba6-66f0-4ce3-9480-9548858d13c9" x1="206.744" y1="152.168" x2="204.791" y2="150.973"/>
  <line class="uuid-e0123ba6-66f0-4ce3-9480-9548858d13c9" x1="214.074" y1="130.401" x2="212.121" y2="129.254"/>
  <line class="uuid-e0123ba6-66f0-4ce3-9480-9548858d13c9" x1="223.6" y1="109.712" x2="221.403" y2="108.565"/>
  <line class="uuid-e0123ba6-66f0-4ce3-9480-9548858d13c9" x1="236.548" y1="91.146" x2="234.348" y2="89.924"/>
  <line class="uuid-e0123ba6-66f0-4ce3-9480-9548858d13c9" x1="239.722" y1="117.995" x2="238.501" y2="116.015"/>
  <line class="uuid-e0123ba6-66f0-4ce3-9480-9548858d13c9" x1="250.47" y1="113.841" x2="249.249" y2="111.84"/>
  <line class="uuid-e0123ba6-66f0-4ce3-9480-9548858d13c9" x1="261.707" y1="110.838" x2="260.485" y2="108.759"/>
  <line class="uuid-e0123ba6-66f0-4ce3-9480-9548858d13c9" x1="273.922" y1="109.345" x2="272.458" y2="107.121"/>
  <line class="uuid-e0123ba6-66f0-4ce3-9480-9548858d13c9" x1="320.58" y1="135.777" x2="282.959" y2="114.084"/>
  <line class="uuid-e0123ba6-66f0-4ce3-9480-9548858d13c9" x1="328.885" y1="114.598" x2="297.128" y2="96.179"/>
  <line class="uuid-e0123ba6-66f0-4ce3-9480-9548858d13c9" x1="349.894" y1="194.308" x2="347.205" y2="195.92"/>
  <line class="uuid-e0123ba6-66f0-4ce3-9480-9548858d13c9" x1="332.549" y1="178.282" x2="329.859" y2="179.822"/>
  <line class="uuid-e0123ba6-66f0-4ce3-9480-9548858d13c9" x1="295.174" y1="173.737" x2="290.531" y2="176.449"/>
  <line class="uuid-e0123ba6-66f0-4ce3-9480-9548858d13c9" x1="335.236" y1="261.899" x2="333.525" y2="258.969"/>
  <line class="uuid-e0123ba6-66f0-4ce3-9480-9548858d13c9" x1="343.54" y1="253.498" x2="341.343" y2="249.882"/>
  <line class="uuid-e0123ba6-66f0-4ce3-9480-9548858d13c9" x1="350.137" y1="242.747" x2="347.694" y2="238.204"/>
  <line class="uuid-e0123ba6-66f0-4ce3-9480-9548858d13c9" x1="354.048" y1="226.55" x2="349.894" y2="219.295"/>
  <line class="uuid-e0123ba6-66f0-4ce3-9480-9548858d13c9" x1="316.673" y1="325.411" x2="310.32" y2="329.003"/>
  <line class="uuid-e0123ba6-66f0-4ce3-9480-9548858d13c9" x1="291.753" y1="339.702" x2="285.159" y2="343.514"/>
  <line class="uuid-e0123ba6-66f0-4ce3-9480-9548858d13c9" x1="325.467" y1="307.313" x2="322.535" y2="309.02"/>
  <line class="uuid-e0123ba6-66f0-4ce3-9480-9548858d13c9" x1="266.84" y1="341.118" x2="263.664" y2="342.999"/>
  <line class="uuid-e0123ba6-66f0-4ce3-9480-9548858d13c9" x1="327.906" y1="292.776" x2="325.467" y2="294.192"/>
  <line class="uuid-e0123ba6-66f0-4ce3-9480-9548858d13c9" x1="328.395" y1="279.585" x2="325.953" y2="280.881"/>
  <line class="uuid-e0123ba6-66f0-4ce3-9480-9548858d13c9" x1="327.174" y1="267.248" x2="324.978" y2="268.469"/>
  <line class="uuid-e0123ba6-66f0-4ce3-9480-9548858d13c9" x1="324.978" y1="255.474" x2="322.778" y2="256.696"/>
  <line class="uuid-e0123ba6-66f0-4ce3-9480-9548858d13c9" x1="321.802" y1="244.142" x2="319.601" y2="245.484"/>
  <line class="uuid-e0123ba6-66f0-4ce3-9480-9548858d13c9" x1="318.38" y1="233.196" x2="315.694" y2="234.686"/>
  <line class="uuid-e0123ba6-66f0-4ce3-9480-9548858d13c9" x1="313.984" y1="222.595" x2="311.054" y2="224.254"/>
  <line class="uuid-e0123ba6-66f0-4ce3-9480-9548858d13c9" x1="309.343" y1="212.333" x2="306.168" y2="214.166"/>
  <line class="uuid-e0123ba6-66f0-4ce3-9480-9548858d13c9" x1="303.968" y1="202.392" x2="300.551" y2="204.345"/>
  <line class="uuid-e0123ba6-66f0-4ce3-9480-9548858d13c9" x1="298.107" y1="192.745" x2="294.442" y2="194.771"/>
  <line class="uuid-e0123ba6-66f0-4ce3-9480-9548858d13c9" x1="291.999" y1="183.241" x2="288.089" y2="185.389"/>
  <line class="uuid-e0123ba6-66f0-4ce3-9480-9548858d13c9" x1="285.402" y1="174.006" x2="281.495" y2="176.279"/>
  <line class="uuid-e0123ba6-66f0-4ce3-9480-9548858d13c9" x1="278.073" y1="165.19" x2="274.412" y2="167.29"/>
  <line class="uuid-e0123ba6-66f0-4ce3-9480-9548858d13c9" x1="270.015" y1="156.735" x2="267.083" y2="158.472"/>
  <line class="uuid-e0123ba6-66f0-4ce3-9480-9548858d13c9" x1="261.464" y1="148.651" x2="258.778" y2="150.237"/>
  <line class="uuid-e0123ba6-66f0-4ce3-9480-9548858d13c9" x1="252.423" y1="140.906" x2="249.738" y2="142.348"/>
  <line class="uuid-e0123ba6-66f0-4ce3-9480-9548858d13c9" x1="242.652" y1="133.507" x2="240.212" y2="134.871"/>
  <line class="uuid-e0123ba6-66f0-4ce3-9480-9548858d13c9" x1="232.15" y1="126.52" x2="229.95" y2="127.815"/>
  <line class="uuid-e0123ba6-66f0-4ce3-9480-9548858d13c9" x1="262.928" y1="314.443" x2="223.847" y2="291.897"/>
  <line class="uuid-e0123ba6-66f0-4ce3-9480-9548858d13c9" x1="275.633" y1="295.756" x2="233.615" y2="271.501"/>
  <line class="uuid-e0123ba6-66f0-4ce3-9480-9548858d13c9" x1="199.905" y1="293.118" x2="198.437" y2="290.627"/>
  <line class="uuid-e0123ba6-66f0-4ce3-9480-9548858d13c9" x1="213.585" y1="294.218" x2="212.121" y2="291.849"/>
  <line class="uuid-e0123ba6-66f0-4ce3-9480-9548858d13c9" x1="289.067" y1="285.572" x2="287.846" y2="283.372"/>
  <line class="uuid-e0123ba6-66f0-4ce3-9480-9548858d13c9" x1="300.061" y1="282.05" x2="298.593" y2="279.633"/>
  <line class="uuid-e0123ba6-66f0-4ce3-9480-9548858d13c9" x1="310.565" y1="277.827" x2="309.097" y2="275.141"/>
  <line class="uuid-e0123ba6-66f0-4ce3-9480-9548858d13c9" x1="320.58" y1="272.572" x2="319.112" y2="269.791"/>
  <line class="uuid-e0123ba6-66f0-4ce3-9480-9548858d13c9" x1="240.697" y1="181.166" x2="228.975" y2="187.88"/>
  <path class="uuid-9d4ed1bb-eff2-4622-b040-4bd027e9112d" d="M219.934,126.715c.736.269,1.223.563,1.712.854-.976.511-1.712.979-2.444,1.563.247-.805.489-1.637.732-2.417Z"/>
  <line class="uuid-e0123ba6-66f0-4ce3-9480-9548858d13c9" x1="328.395" y1="163.917" x2="325.71" y2="159.641"/>
  <line class="uuid-e0123ba6-66f0-4ce3-9480-9548858d13c9" x1="134.681" y1="325.706" x2="128.329" y2="314.443"/>
  <line class="uuid-e0123ba6-66f0-4ce3-9480-9548858d13c9" x1="156.911" y1="341.413" x2="154.958" y2="338.264"/>
  <line class="uuid-e0123ba6-66f0-4ce3-9480-9548858d13c9" x1="125.155" y1="286.378" x2="122.712" y2="282.271"/>
  <line class="uuid-e0123ba6-66f0-4ce3-9480-9548858d13c9" x1="171.57" y1="344.074" x2="170.102" y2="341.608"/>
  <line class="uuid-e0123ba6-66f0-4ce3-9480-9548858d13c9" x1="105.856" y1="279.88" x2="103.656" y2="281.049"/>
  <line class="uuid-e0123ba6-66f0-4ce3-9480-9548858d13c9" x1="116.85" y1="247.486" x2="110.496" y2="251.003"/>
  <line class="uuid-e0123ba6-66f0-4ce3-9480-9548858d13c9" x1="100.727" y1="227.603" x2="97.795" y2="222.739"/>
  <line class="uuid-e0123ba6-66f0-4ce3-9480-9548858d13c9" x1="103.902" y1="210.527" x2="102.192" y2="207.594"/>
  <line class="uuid-e0123ba6-66f0-4ce3-9480-9548858d13c9" x1="109.764" y1="198.116" x2="109.032" y2="197.116"/>
  <line class="uuid-e0123ba6-66f0-4ce3-9480-9548858d13c9" x1="127.844" y1="260.361" x2="125.887" y2="257.186"/>
  <line class="uuid-e0123ba6-66f0-4ce3-9480-9548858d13c9" x1="131.995" y1="245.043" x2="130.04" y2="241.868"/>
  <line class="uuid-e0123ba6-66f0-4ce3-9480-9548858d13c9" x1="137.123" y1="231.363" x2="135.17" y2="228.088"/>
  <line class="uuid-e0123ba6-66f0-4ce3-9480-9548858d13c9" x1="142.742" y1="218.783" x2="140.788" y2="215.167"/>
  <line class="uuid-e0123ba6-66f0-4ce3-9480-9548858d13c9" x1="148.85" y1="206.84" x2="146.649" y2="203.003"/>
  <line class="uuid-e0123ba6-66f0-4ce3-9480-9548858d13c9" x1="155.69" y1="195.725" x2="153.247" y2="191.813"/>
  <line class="uuid-e0123ba6-66f0-4ce3-9480-9548858d13c9" x1="162.772" y1="185.61" x2="160.329" y2="181.188"/>
  <line class="uuid-e0123ba6-66f0-4ce3-9480-9548858d13c9" x1="170.348" y1="175.889" x2="167.659" y2="171.441"/>
  <line class="uuid-e0123ba6-66f0-4ce3-9480-9548858d13c9" x1="177.921" y1="166.606" x2="175.477" y2="162.427"/>
  <line class="uuid-e0123ba6-66f0-4ce3-9480-9548858d13c9" x1="185.735" y1="157.762" x2="183.781" y2="154.1"/>
  <line class="uuid-e0123ba6-66f0-4ce3-9480-9548858d13c9" x1="194.039" y1="149.409" x2="192.333" y2="146.377"/>
  <line class="uuid-e0123ba6-66f0-4ce3-9480-9548858d13c9" x1="202.591" y1="141.543" x2="201.126" y2="139.247"/>
  <line class="uuid-e0123ba6-66f0-4ce3-9480-9548858d13c9" x1="127.597" y1="269.913" x2="124.912" y2="264.978"/>
  <line class="uuid-e0123ba6-66f0-4ce3-9480-9548858d13c9" x1="146.407" y1="279.732" x2="144.453" y2="276.214"/>
  <line class="uuid-e0123ba6-66f0-4ce3-9480-9548858d13c9" x1="162.772" y1="285.644" x2="161.065" y2="282.662"/>
  <line class="uuid-e0123ba6-66f0-4ce3-9480-9548858d13c9" x1="178.164" y1="289.553" x2="176.455" y2="286.889"/>
  <path class="uuid-9d4ed1bb-eff2-4622-b040-4bd027e9112d" d="M119.046,268.69c.247.196.489.391.733.585,0,.295-.244.589-.244.931,0-.537-.243-1.027-.489-1.516Z"/>
</svg>