<?xml version="1.0" encoding="UTF-8"?>
<svg id="uuid-0f7c2e65-053a-4825-ba87-dfb304047a52" data-name="&amp;lt;Layer&amp;gt;" xmlns="http://www.w3.org/2000/svg" viewBox="0 0 451.11 451.11">
  <defs>
    <style>
      .uuid-06b72e90-ca8c-412e-a755-112999074ced, .uuid-a379c72d-78cb-44c2-8cb3-068304dcba4e {
        stroke-width: 4.117px;
      }

      .uuid-06b72e90-ca8c-412e-a755-112999074ced, .uuid-a379c72d-78cb-44c2-8cb3-068304dcba4e, .uuid-e81af6d1-dc15-46ea-8311-4eb700c4edd5 {
        fill: none;
        stroke: #000;
        stroke-linecap: round;
        stroke-linejoin: round;
      }

      .uuid-a379c72d-78cb-44c2-8cb3-068304dcba4e {
        fill-rule: evenodd;
      }

      .uuid-e81af6d1-dc15-46ea-8311-4eb700c4edd5 {
        stroke-width: 1.163px;
      }
    </style>
  </defs>
  <path class="uuid-a379c72d-78cb-44c2-8cb3-068304dcba4e" d="M120.501,189.362c0-21.178,30.024-38.375,67.082-38.375s67.126,17.197,67.126,38.375-30.071,38.401-67.126,38.401-67.082-17.197-67.082-38.401Z"/>
  <path class="uuid-a379c72d-78cb-44c2-8cb3-068304dcba4e" d="M125.435,203.848c4.422-6.229,11.263-11.042,18.176-14.486,2.15-1.147,4.372-2.075,6.52-2.88,8.651-3.375,18.103-5.35,27.507-6.16,2.738-.243,5.523-.363,8.261-.412"/>
  <line class="uuid-06b72e90-ca8c-412e-a755-112999074ced" x1="185.898" y1="179.91" x2="187.631" y2="179.91"/>
  <path class="uuid-a379c72d-78cb-44c2-8cb3-068304dcba4e" d="M187.631,179.91c12.384.048,24.501,1.733,36.175,6.034,9.235,3.37,19.862,9.305,25.969,17.829v.074"/>
  <line class="uuid-06b72e90-ca8c-412e-a755-112999074ced" x1="90.772" y1="190.804" x2="90.772" y2="219.703"/>
  <path class="uuid-a379c72d-78cb-44c2-8cb3-068304dcba4e" d="M90.772,219.703c.588,9.183,4.007,15.88,9.53,22.594,9.452,10.92,21.716,17.64,35.075,22.668,22.231,7.941,45.757,10.163,69.206,7.867,8.941-.927,17.371-2.491,26.091-4.908"/>
  <line class="uuid-06b72e90-ca8c-412e-a755-112999074ced" x1="230.673" y1="267.925" x2="230.673" y2="239.022"/>
  <path class="uuid-a379c72d-78cb-44c2-8cb3-068304dcba4e" d="M230.673,239.022c-8.72,2.422-17.15,3.959-26.091,4.913-23.448,2.27-46.975.073-69.206-7.867-12.944-4.882-24.574-11.189-34.026-21.469-6.157-7.061-9.943-14.169-10.579-23.795"/>
  <line class="uuid-06b72e90-ca8c-412e-a755-112999074ced" x1="284.487" y1="190.194" x2="284.487" y2="219.117"/>
  <path class="uuid-a379c72d-78cb-44c2-8cb3-068304dcba4e" d="M230.673,267.925c1.394,1.268,2.737,2.222,4.396,3.175"/>
  <line class="uuid-06b72e90-ca8c-412e-a755-112999074ced" x1="235.069" y1="271.1" x2="306.328" y2="311.893"/>
  <path class="uuid-a379c72d-78cb-44c2-8cb3-068304dcba4e" d="M306.328,311.893c5.86,3.153,11.332,4.448,17.877,5.08,7.33.515,13.658-.073,20.693-2.296,6.84-2.465,14.464-6.74,15.486-14.728"/>
  <line class="uuid-06b72e90-ca8c-412e-a755-112999074ced" x1="360.385" y1="299.949" x2="360.385" y2="271.026"/>
  <path class="uuid-a379c72d-78cb-44c2-8cb3-068304dcba4e" d="M360.385,271.026c-1.023,8.014-8.646,12.289-15.486,14.732-7.035,2.244-13.363,2.83-20.693,2.318-6.546-.633-12.017-1.927-17.877-5.104"/>
  <line class="uuid-06b72e90-ca8c-412e-a755-112999074ced" x1="306.328" y1="282.972" x2="235.069" y2="242.202"/>
  <path class="uuid-a379c72d-78cb-44c2-8cb3-068304dcba4e" d="M235.069,242.202c-1.659-.979-3.002-1.907-4.396-3.18"/>
  <path class="uuid-a379c72d-78cb-44c2-8cb3-068304dcba4e" d="M90.698,189.388c0,15.292,10.873,29.14,28.412,39.155,17.54,10.041,41.746,16.248,68.473,16.248,15.486,0,30.068-2.078,43.09-5.77,1.221,1.127,2.663,2.201,4.396,3.18"/>
  <path class="uuid-a379c72d-78cb-44c2-8cb3-068304dcba4e" d="M306.328,282.972c12.384,7.057,32.536,7.057,44.847,0"/>
  <path class="uuid-a379c72d-78cb-44c2-8cb3-068304dcba4e" d="M351.175,282.972c12.315-7.038,12.315-18.591,0-25.626"/>
  <line class="uuid-06b72e90-ca8c-412e-a755-112999074ced" x1="351.175" y1="257.346" x2="279.848" y2="216.574"/>
  <path class="uuid-a379c72d-78cb-44c2-8cb3-068304dcba4e" d="M279.848,216.574c-1.686-.975-3.544-1.832-5.519-2.517,6.52-7.425,10.11-15.802,10.11-24.67,0-15.318-10.798-29.17-28.338-39.185-17.54-10.037-41.746-16.241-68.517-16.241s-50.934,6.203-68.473,16.241c-17.538,10.015-28.412,23.868-28.412,39.185"/>
  <path class="uuid-a379c72d-78cb-44c2-8cb3-068304dcba4e" d="M173.878,189.362c3.076-13.164,15.023-23.548,30.778-28.581-2.859-1.097-6.105-2.002-10.041-2.565-30.093-4.298-58.55,9.747-63.536,31.145"/>
  <line class="uuid-06b72e90-ca8c-412e-a755-112999074ced" x1="131.079" y1="189.362" x2="173.878" y2="189.362"/>
  <line class="uuid-e81af6d1-dc15-46ea-8311-4eb700c4edd5" x1="105.53" y1="218.253" x2="92.839" y2="196.231"/>
  <line class="uuid-e81af6d1-dc15-46ea-8311-4eb700c4edd5" x1="142.927" y1="237.79" x2="101.228" y2="165.593"/>
  <line class="uuid-e81af6d1-dc15-46ea-8311-4eb700c4edd5" x1="171.677" y1="242.445" x2="162.542" y2="226.642"/>
  <line class="uuid-e81af6d1-dc15-46ea-8311-4eb700c4edd5" x1="129.052" y1="168.647" x2="119.28" y2="151.745"/>
  <line class="uuid-e81af6d1-dc15-46ea-8311-4eb700c4edd5" x1="197.915" y1="242.812" x2="190.122" y2="229.327"/>
  <line class="uuid-e81af6d1-dc15-46ea-8311-4eb700c4edd5" x1="148.203" y1="156.7" x2="140.141" y2="142.678"/>
  <line class="uuid-e81af6d1-dc15-46ea-8311-4eb700c4edd5" x1="222.122" y1="239.511" x2="214.406" y2="226.2"/>
  <line class="uuid-e81af6d1-dc15-46ea-8311-4eb700c4edd5" x1="170.797" y1="150.618" x2="163.13" y2="137.332"/>
  <line class="uuid-e81af6d1-dc15-46ea-8311-4eb700c4edd5" x1="255.589" y1="252.264" x2="235.312" y2="217.234"/>
  <line class="uuid-e81af6d1-dc15-46ea-8311-4eb700c4edd5" x1="196.351" y1="149.717" x2="188.169" y2="135.548"/>
  <line class="uuid-e81af6d1-dc15-46ea-8311-4eb700c4edd5" x1="295.234" y1="275.839" x2="251.582" y2="200.257"/>
  <line class="uuid-e81af6d1-dc15-46ea-8311-4eb700c4edd5" x1="226.129" y1="156.163" x2="215.576" y2="137.818"/>
  <line class="uuid-e81af6d1-dc15-46ea-8311-4eb700c4edd5" x1="328.459" y1="288.197" x2="291.426" y2="224.073"/>
  <line class="uuid-e81af6d1-dc15-46ea-8311-4eb700c4edd5" x1="280.385" y1="204.974" x2="246.406" y2="146.125"/>
  <line class="uuid-e81af6d1-dc15-46ea-8311-4eb700c4edd5" x1="351.055" y1="282.188" x2="330.902" y2="247.331"/>
  <line class="uuid-e81af6d1-dc15-46ea-8311-4eb700c4edd5" x1="359.115" y1="300.023" x2="332.466" y2="315.409"/>
  <line class="uuid-e81af6d1-dc15-46ea-8311-4eb700c4edd5" x1="359.947" y1="286.512" x2="312.605" y2="313.847"/>
  <line class="uuid-e81af6d1-dc15-46ea-8311-4eb700c4edd5" x1="331.928" y1="289.64" x2="300.926" y2="307.521"/>
  <line class="uuid-e81af6d1-dc15-46ea-8311-4eb700c4edd5" x1="313.315" y1="287.344" x2="289.837" y2="300.902"/>
  <line class="uuid-e81af6d1-dc15-46ea-8311-4eb700c4edd5" x1="301.052" y1="281.41" x2="278.578" y2="294.404"/>
  <line class="uuid-e81af6d1-dc15-46ea-8311-4eb700c4edd5" x1="289.667" y1="274.912" x2="267.193" y2="287.906"/>
  <line class="uuid-e81af6d1-dc15-46ea-8311-4eb700c4edd5" x1="278.332" y1="268.436" x2="255.858" y2="281.41"/>
  <line class="uuid-e81af6d1-dc15-46ea-8311-4eb700c4edd5" x1="267.021" y1="261.938" x2="244.547" y2="274.934"/>
  <line class="uuid-e81af6d1-dc15-46ea-8311-4eb700c4edd5" x1="255.688" y1="255.465" x2="233.336" y2="268.388"/>
  <line class="uuid-e81af6d1-dc15-46ea-8311-4eb700c4edd5" x1="243.962" y1="249.189" x2="232.41" y2="255.856"/>
  <line class="uuid-e81af6d1-dc15-46ea-8311-4eb700c4edd5" x1="229.157" y1="260.815" x2="213.648" y2="269.756"/>
  <line class="uuid-e81af6d1-dc15-46ea-8311-4eb700c4edd5" x1="230.087" y1="247.257" x2="186.41" y2="272.442"/>
  <line class="uuid-e81af6d1-dc15-46ea-8311-4eb700c4edd5" x1="212.67" y1="244.25" x2="165.864" y2="271.294"/>
  <line class="uuid-e81af6d1-dc15-46ea-8311-4eb700c4edd5" x1="186.947" y1="246.083" x2="149.009" y2="267.971"/>
  <line class="uuid-e81af6d1-dc15-46ea-8311-4eb700c4edd5" x1="166.622" y1="244.792" x2="134.45" y2="263.354"/>
  <line class="uuid-e81af6d1-dc15-46ea-8311-4eb700c4edd5" x1="149.425" y1="241.639" x2="121.845" y2="257.567"/>
  <line class="uuid-e81af6d1-dc15-46ea-8311-4eb700c4edd5" x1="134.622" y1="237.194" x2="111.144" y2="250.726"/>
  <line class="uuid-e81af6d1-dc15-46ea-8311-4eb700c4edd5" x1="121.723" y1="231.575" x2="102.498" y2="242.688"/>
  <line class="uuid-e81af6d1-dc15-46ea-8311-4eb700c4edd5" x1="110.681" y1="224.931" x2="96.121" y2="233.334"/>
  <line class="uuid-e81af6d1-dc15-46ea-8311-4eb700c4edd5" x1="101.519" y1="217.212" x2="92.799" y2="222.219"/>
  <line class="uuid-e81af6d1-dc15-46ea-8311-4eb700c4edd5" x1="94.241" y1="208.344" x2="92.799" y2="209.172"/>
  <line class="uuid-e81af6d1-dc15-46ea-8311-4eb700c4edd5" x1="129.446" y1="197.564" x2="129.446" y2="172.827"/>
  <line class="uuid-e81af6d1-dc15-46ea-8311-4eb700c4edd5" x1="140.705" y1="170.454" x2="140.705" y2="164.155"/>
  <line class="uuid-e81af6d1-dc15-46ea-8311-4eb700c4edd5" x1="151.989" y1="162.761" x2="151.989" y2="158.948"/>
  <line class="uuid-e81af6d1-dc15-46ea-8311-4eb700c4edd5" x1="163.299" y1="158.315" x2="163.299" y2="155.626"/>
  <line class="uuid-e81af6d1-dc15-46ea-8311-4eb700c4edd5" x1="174.562" y1="156.02" x2="174.562" y2="153.698"/>
  <line class="uuid-e81af6d1-dc15-46ea-8311-4eb700c4edd5" x1="185.898" y1="178.004" x2="185.898" y2="173.534"/>
  <line class="uuid-e81af6d1-dc15-46ea-8311-4eb700c4edd5" x1="185.898" y1="155.505" x2="185.898" y2="152.988"/>
  <line class="uuid-e81af6d1-dc15-46ea-8311-4eb700c4edd5" x1="197.157" y1="178.662" x2="197.157" y2="165.593"/>
  <line class="uuid-e81af6d1-dc15-46ea-8311-4eb700c4edd5" x1="197.157" y1="156.652" x2="197.157" y2="153.377"/>
  <line class="uuid-e81af6d1-dc15-46ea-8311-4eb700c4edd5" x1="208.42" y1="180.521" x2="208.42" y2="154.113"/>
  <line class="uuid-e81af6d1-dc15-46ea-8311-4eb700c4edd5" x1="219.755" y1="183.229" x2="219.755" y2="156.947"/>
  <line class="uuid-e81af6d1-dc15-46ea-8311-4eb700c4edd5" x1="231.014" y1="187.581" x2="231.014" y2="161.539"/>
  <line class="uuid-e81af6d1-dc15-46ea-8311-4eb700c4edd5" x1="242.277" y1="194.296" x2="242.277" y2="168.964"/>
</svg>