<?xml version="1.0" encoding="UTF-8"?>
<svg id="uuid-c59a46b0-1820-4d09-bb80-dd5080ad6fa9" data-name="&amp;lt;Layer&amp;gt;" xmlns="http://www.w3.org/2000/svg" viewBox="0 0 451.11 451.11">
  <defs>
    <style>
      .uuid-e149a02e-63a3-4baa-837d-efc201015290, .uuid-285b363c-2632-4e10-b7cf-2bdc234c8afc, .uuid-09e684d8-f4f4-4062-b324-381c075b7d83 {
        fill: none;
        stroke: #000;
        stroke-linecap: round;
      }

      .uuid-e149a02e-63a3-4baa-837d-efc201015290, .uuid-09e684d8-f4f4-4062-b324-381c075b7d83 {
        stroke-linejoin: round;
        stroke-width: 4.117px;
      }

      .uuid-285b363c-2632-4e10-b7cf-2bdc234c8afc {
        stroke-miterlimit: 10;
        stroke-width: 1.163px;
      }

      .uuid-09e684d8-f4f4-4062-b324-381c075b7d83 {
        fill-rule: evenodd;
      }
    </style>
  </defs>
  <path class="uuid-09e684d8-f4f4-4062-b324-381c075b7d83" d="M300.232,236.887c2.491-1.053,4.765-1.317,6.668-.928M285.72,271.381c-.315-.347-.536-.688-.706-1.101-.121-.052-.173-.1-.121-.247-.88-1.659-1.321-3.76-1.321-6.325,0-1.147.099-2.421.269-3.638"/>
  <path class="uuid-09e684d8-f4f4-4062-b324-381c075b7d83" d="M98.312,201.001c-.417-.293-1.568-1.442-1.909-1.857-5.178-5.862-6.153-14.754-5.519-22.231.927-11.09,5.618-23.228,12.605-33.586,5.571-8.355,12.705-15.489,20.494-20.033,5.814-3.345,13.168-5.74,19.909-3.834"/>
  <polyline class="uuid-09e684d8-f4f4-4062-b324-381c075b7d83" points="143.892 119.46 145.113 119.875 160.457 128.721"/>
  <path class="uuid-09e684d8-f4f4-4062-b324-381c075b7d83" d="M160.457,128.721c.585.217,1.097.437,1.611.68.17.052.295.122.417.174"/>
  <path class="uuid-09e684d8-f4f4-4062-b324-381c075b7d83" d="M103.489,143.327c5.571-8.355,12.705-15.489,20.494-20.033,5.814-3.345,13.168-5.74,19.909-3.834"/>
  <path class="uuid-09e684d8-f4f4-4062-b324-381c075b7d83" d="M171.009,140.738c-1.664-5.35-4.813-9.183-8.942-11.337-.514-.243-1.025-.463-1.611-.68-5.766-2.152-13.142-1.173-21.13,3.466-18.42,10.627-33.299,36.422-33.299,57.6,0,9.235,2.858,16.102,7.551,20.057.243.173.463.343.706.515,4.055,2.954,9.334,3.929,15.442,2.539"/>
  <polyline class="uuid-09e684d8-f4f4-4062-b324-381c075b7d83" points="224.091 171.32 224.039 171.32 171.641 141.079 171.009 140.738 160.505 134.629 159.356 134.288"/>
  <path class="uuid-09e684d8-f4f4-4062-b324-381c075b7d83" d="M159.356,134.288c-5.938-1.759-12.484.393-17.66,3.422-6.865,3.955-13.022,10.111-17.955,17.366-6.329,9.283-10.553,20.203-11.383,30.194-.563,6.619.293,14.51,4.886,19.688.295.341,1.343,1.394,1.685,1.685"/>
  <polyline class="uuid-09e684d8-f4f4-4062-b324-381c075b7d83" points="118.927 206.642 129.726 212.897 129.797 212.897 130.359 213.265 182.22 243.164"/>
  <path class="uuid-09e684d8-f4f4-4062-b324-381c075b7d83" d="M185.836,163.775c4.055-2.37,10.675-2.37,14.802,0,4.055,2.391,4.055,6.229,0,8.55-4.128,2.366-10.747,2.366-14.802,0-4.128-2.321-4.128-6.159,0-8.55Z"/>
  <path class="uuid-09e684d8-f4f4-4062-b324-381c075b7d83" d="M211.854,265.42c-.125-.077-.199-.077-.295-.077-.927-.169-1.88-.413-2.738-.68-.537-.122-.975-.369-1.442-.541-1.343-.633-2.565-1.392-3.664-2.27"/>
  <path class="uuid-09e684d8-f4f4-4062-b324-381c075b7d83" d="M188.449,253.032c-.415-.291-1.638-1.442-1.927-1.854-2.031-2.322-3.423-5.06-4.302-8.014-1.395-4.592-1.612-9.626-1.221-14.217.953-11.116,5.57-23.254,12.605-33.59"/>
  <path class="uuid-09e684d8-f4f4-4062-b324-381c075b7d83" d="M193.604,195.31c1.173-1.685,2.396-3.37,3.666-4.934,1.048-1.343,2.148-2.615,3.249-3.838,1.39-1.512,2.832-2.954,4.348-4.296.585-.511,1.123-1.053,1.685-1.49.585-.537,1.221-1.053,1.881-1.538,1.832-1.442,3.764-2.712,5.666-3.86.832-.489,1.685-.953,2.565-1.346.393-.243.883-.461,1.346-.633.439-.247.854-.415,1.317-.588.71-.291,1.464-.537,2.149-.755.758-.245,1.468-.415,2.222-.588.051,0,.099-.048.173-.048.048,0,.122-.074.169-.074"/>
  <path class="uuid-09e684d8-f4f4-4062-b324-381c075b7d83" d="M224.091,171.32c.537-.095,1.049-.217,1.56-.291.489-.051.883-.099,1.346-.099,2.396-.247,4.714-.074,6.962.563"/>
  <polyline class="uuid-09e684d8-f4f4-4062-b324-381c075b7d83" points="233.96 171.494 235.254 171.905 250.572 180.751"/>
  <path class="uuid-09e684d8-f4f4-4062-b324-381c075b7d83" d="M250.572,180.751c.122.047.243.099.343.169.121.052.243.1.363.173"/>
  <path class="uuid-09e684d8-f4f4-4062-b324-381c075b7d83" d="M212.487,265.468c-.196,0-.417-.048-.633-.125-.077.077-.199,0-.295,0-.927-.169-1.88-.413-2.738-.68-.537-.122-.975-.369-1.442-.541-1.343-.633-2.565-1.392-3.664-2.27-2.976-2.418-5.178-6.034-6.399-10.601v-.073c-.758-2.737-1.148-5.862-1.148-9.357,0-12.237,4.982-26.065,12.775-37.571,5.57-8.403,12.705-15.559,20.498-20.033,3.127-1.807,6.203-3.076,9.061-3.786h.048c4.64-1.145,8.82-.975,12.363.489.121.052.243.1.363.173"/>
  <path class="uuid-09e684d8-f4f4-4062-b324-381c075b7d83" d="M300.404,178.134c-15.39,2.785-31.366,6.255-46.219,4.57,0,0-.122,0-.122-.048-1.099-.074-2.148-.173-3.201-.343-3.076-.537-6.62-.173-10.332,1.027"/>
  <path class="uuid-09e684d8-f4f4-4062-b324-381c075b7d83" d="M240.53,183.415c-2.2.68-4.544,1.733-6.913,3.076-17.713,10.214-32.052,35.078-32.052,55.499,0,3.543.395,6.744,1.221,9.478"/>
  <path class="uuid-09e684d8-f4f4-4062-b324-381c075b7d83" d="M202.839,251.468c1.171,4.059,3.076,7.33,5.692,9.578,1.049,1.173,2.149,2.664,3.323,4.298v.077"/>
  <path class="uuid-09e684d8-f4f4-4062-b324-381c075b7d83" d="M211.902,265.42c7.204,10.332,16.612,28.309,22.985,39.941,0,.069.074.069.074.121.293.585.584,1.221.979,1.781.291.636.632,1.221,1.049,1.859.051.121.173.315.293.489-4.713-17.662-1.464-39.845,6.914-61.097"/>
  <path class="uuid-09e684d8-f4f4-4062-b324-381c075b7d83" d="M300.817,178.014h.052q.047-.07.121-.07"/>
  <polyline class="uuid-09e684d8-f4f4-4062-b324-381c075b7d83" points="341.515 188.102 341.515 188.054 341.687 188.176"/>
  <path class="uuid-09e684d8-f4f4-4062-b324-381c075b7d83" d="M300.404,178.134c-.514.1-1.051.273-1.563.441-14.876,5.519-25.502,14.365-36.131,26.043q-.048.048-.122.096c-3.002,3.492-5.692,6.961-8.231,10.529-.832,1.197-1.638,2.366-2.443,3.588-5.862,8.724-10.505,17.761-14.586,28.339-1.269,3.712-2.443,7.328-3.418,10.92-2.954,11.038-4.177,21.836-2.785,33.979.854,4.982,1.976,9.404,3.76,13.29,0,.069.074.069.074.121.293.585.584,1.221.979,1.781.291.636.632,1.221,1.049,1.859.051.121.173.315.293.489,1.638,2.443,3.666,4.812,6.203,7.06"/>
  <polyline class="uuid-09e684d8-f4f4-4062-b324-381c075b7d83" points="243.484 316.67 245.295 318.061 261.319 327.319 261.319 327.245"/>
  <polyline class="uuid-09e684d8-f4f4-4062-b324-381c075b7d83" points="341.687 188.176 341.515 188.054 325.66 178.87"/>
  <path class="uuid-09e684d8-f4f4-4062-b324-381c075b7d83" d="M325.66,178.87c-4.808-2.027-9.231-2.836-13.58-2.711-3.54.048-7.157.684-11.042,1.785"/>
  <path class="uuid-09e684d8-f4f4-4062-b324-381c075b7d83" d="M300.404,178.134c-.514.052-1.051.273-1.563.441-14.876,5.519-25.502,14.365-36.131,26.043q-.048.048-.122.096c-3.002,3.492-5.692,6.961-8.231,10.529-.832,1.197-1.638,2.366-2.443,3.588"/>
  <path class="uuid-09e684d8-f4f4-4062-b324-381c075b7d83" d="M359.105,212.725c.17,1.005.365,2.052.537,3.079.048.122.048.295.048.463.048.417.173.88.173,1.395.048.121.048.243.048.367.148,1.097.243,2.198.317,3.297.1,1.512.169,3.076.169,4.713,0,36.275-25.502,80.368-56.916,98.545-.927.511-1.854,1.048-2.785,1.512-.463.293-.927.514-1.39.684-.88.463-1.759.879-2.565,1.221-.853.415-1.737.758-2.565,1.049-1.151.467-2.248.883-3.347,1.151-.247.122-.415.195-.585.195"/>
  <path class="uuid-09e684d8-f4f4-4062-b324-381c075b7d83" d="M290.242,330.446c-.806.221-1.564.463-2.395.637-.048.073-.173.073-.269.073h-.122c-.121.048-.243.048-.341.096"/>
  <path class="uuid-09e684d8-f4f4-4062-b324-381c075b7d83" d="M303.481,324.533c31.414-18.125,56.847-62.218,56.847-98.493s-25.433-51.006-56.847-32.878c-31.414,18.124-56.916,62.266-56.916,98.54s25.502,51.007,56.916,32.832Z"/>
  <path class="uuid-09e684d8-f4f4-4062-b324-381c075b7d83" d="M303.481,310.294c25.138-14.512,45.536-49.834,45.536-78.856s-20.398-40.819-45.536-26.308c-25.133,14.512-45.533,49.808-45.533,78.852s20.399,40.772,45.533,26.312Z"/>
  <path class="uuid-09e684d8-f4f4-4062-b324-381c075b7d83" d="M292.781,242.406c.122-.096.243-.291.415-.417.122-.095.295-.217.417-.389.221-.243.389-.415.632-.633.419-.415.81-.758,1.221-1.051"/>
  <polyline class="uuid-09e684d8-f4f4-4062-b324-381c075b7d83" points="308.54 236.496 284.378 221.106 284.33 221.106"/>
  <path class="uuid-09e684d8-f4f4-4062-b324-381c075b7d83" d="M284.33,221.106c-.195.221-.365.389-.537.633-.173.099-.295.293-.415.467"/>
  <path class="uuid-09e684d8-f4f4-4062-b324-381c075b7d83" d="M283.329,222.253c-.931,1.049-1.807,2.101-2.664,3.202-.88,1.099-1.759,2.196-2.565,3.37-.585.758-1.149,1.516-1.685,2.322-5.45,7.888-10.041,16.656-13.166,25.55-.367.931-.71,1.858-1.005,2.784-.047.048-.047.122-.047.221-.247.417-.295.832-.465,1.223"/>
  <polyline class="uuid-09e684d8-f4f4-4062-b324-381c075b7d83" points="261.734 260.925 261.782 260.925 287.921 273.357"/>
  <path class="uuid-09e684d8-f4f4-4062-b324-381c075b7d83" d="M287.921,273.357c-.122-.048-.247-.17-.343-.221-.295-.17-.537-.343-.784-.585-.389-.343-.732-.758-1.075-1.169-.363-.395-.658-.858-.827-1.347"/>
  <path class="uuid-09e684d8-f4f4-4062-b324-381c075b7d83" d="M283.841,260.071c.074-.637.247-1.221.415-1.859.074-.415.173-.831.295-1.173.169-.632.415-1.343.633-1.976,1.611-4.57,4.348-9.113,7.671-12.584.048-.121.169-.315.342-.489.122-.095.295-.217.417-.389.221-.243.389-.415.632-.633.419-.415.81-.758,1.221-1.051,1.516-1.343,3.128-2.392,4.765-3.028"/>
  <path class="uuid-09e684d8-f4f4-4062-b324-381c075b7d83" d="M287.921,273.357c2.66,1.564,6.45,1.342,10.577-1.049,8.231-4.739,14.927-16.319,14.927-25.895,0-4.761-1.711-8.062-4.374-9.648-.048,0-.122-.051-.173-.099-.218-.122-.512-.243-.806-.343-.365-.121-.754-.243-1.173-.365"/>
  <path class="uuid-09e684d8-f4f4-4062-b324-381c075b7d83" d="M114.284,210.359c-.243-.173-.463-.343-.706-.515"/>
  <line class="uuid-e149a02e-63a3-4baa-837d-efc201015290" x1="113.578" y1="209.843" x2="98.312" y2="201.001"/>
  <line class="uuid-e149a02e-63a3-4baa-837d-efc201015290" x1="203.715" y1="261.852" x2="188.449" y2="253.032"/>
  <path class="uuid-09e684d8-f4f4-4062-b324-381c075b7d83" d="M244.243,248.441c13.533-34.542,40.43-66.59,67.837-72.282"/>
  <line class="uuid-285b363c-2632-4e10-b7cf-2bdc234c8afc" x1="247.15" y1="309.705" x2="236.818" y2="291.776"/>
  <line class="uuid-285b363c-2632-4e10-b7cf-2bdc234c8afc" x1="248.371" y1="266.565" x2="242.926" y2="257.211"/>
  <line class="uuid-285b363c-2632-4e10-b7cf-2bdc234c8afc" x1="258.924" y1="239.793" x2="254.111" y2="231.364"/>
  <line class="uuid-285b363c-2632-4e10-b7cf-2bdc234c8afc" x1="272.702" y1="218.493" x2="267.939" y2="210.186"/>
  <line class="uuid-285b363c-2632-4e10-b7cf-2bdc234c8afc" x1="288.896" y1="201.418" x2="284.087" y2="193.061"/>
  <line class="uuid-285b363c-2632-4e10-b7cf-2bdc234c8afc" x1="307.782" y1="188.934" x2="303.113" y2="180.798"/>
  <line class="uuid-285b363c-2632-4e10-b7cf-2bdc234c8afc" x1="194.484" y1="240.088" x2="183.736" y2="221.449"/>
  <line class="uuid-285b363c-2632-4e10-b7cf-2bdc234c8afc" x1="203.35" y1="210.285" x2="195.068" y2="195.947"/>
  <line class="uuid-285b363c-2632-4e10-b7cf-2bdc234c8afc" x1="218.105" y1="190.667" x2="211.386" y2="178.992"/>
  <line class="uuid-285b363c-2632-4e10-b7cf-2bdc234c8afc" x1="237.281" y1="178.772" x2="234.544" y2="174.007"/>
  <line class="uuid-285b363c-2632-4e10-b7cf-2bdc234c8afc" x1="104.343" y1="188.639" x2="93.547" y2="169.882"/>
  <line class="uuid-285b363c-2632-4e10-b7cf-2bdc234c8afc" x1="113.067" y1="158.619" x2="104.758" y2="144.207"/>
  <line class="uuid-285b363c-2632-4e10-b7cf-2bdc234c8afc" x1="127.773" y1="138.931" x2="120.955" y2="127.131"/>
  <line class="uuid-285b363c-2632-4e10-b7cf-2bdc234c8afc" x1="146.872" y1="126.837" x2="143.844" y2="121.608"/>
  <line class="uuid-285b363c-2632-4e10-b7cf-2bdc234c8afc" x1="119.733" y1="209.358" x2="116.484" y2="209.358"/>
  <line class="uuid-285b363c-2632-4e10-b7cf-2bdc234c8afc" x1="111.429" y1="198.095" x2="108.934" y2="198.095"/>
  <line class="uuid-285b363c-2632-4e10-b7cf-2bdc234c8afc" x1="110.281" y1="186.832" x2="108.129" y2="186.832"/>
  <line class="uuid-285b363c-2632-4e10-b7cf-2bdc234c8afc" x1="112.062" y1="175.523" x2="110.034" y2="175.523"/>
  <line class="uuid-285b363c-2632-4e10-b7cf-2bdc234c8afc" x1="116.194" y1="164.238" x2="114.21" y2="164.238"/>
  <line class="uuid-285b363c-2632-4e10-b7cf-2bdc234c8afc" x1="122.761" y1="152.975" x2="120.613" y2="152.975"/>
  <line class="uuid-285b363c-2632-4e10-b7cf-2bdc234c8afc" x1="132.755" y1="141.665" x2="130.065" y2="141.665"/>
  <line class="uuid-285b363c-2632-4e10-b7cf-2bdc234c8afc" x1="159.456" y1="130.38" x2="148.362" y2="130.38"/>
  <line class="uuid-285b363c-2632-4e10-b7cf-2bdc234c8afc" x1="200.981" y1="252.399" x2="199.712" y2="252.399"/>
  <line class="uuid-285b363c-2632-4e10-b7cf-2bdc234c8afc" x1="199.516" y1="241.137" x2="198.122" y2="241.137"/>
  <line class="uuid-285b363c-2632-4e10-b7cf-2bdc234c8afc" x1="200.981" y1="229.874" x2="199.586" y2="229.874"/>
  <line class="uuid-285b363c-2632-4e10-b7cf-2bdc234c8afc" x1="204.694" y1="218.541" x2="203.35" y2="218.541"/>
  <line class="uuid-285b363c-2632-4e10-b7cf-2bdc234c8afc" x1="210.507" y1="207.278" x2="209.333" y2="207.278"/>
  <line class="uuid-285b363c-2632-4e10-b7cf-2bdc234c8afc" x1="218.985" y1="195.947" x2="218.057" y2="195.947"/>
  <line class="uuid-285b363c-2632-4e10-b7cf-2bdc234c8afc" x1="295.809" y1="326.565" x2="262.956" y2="326.565"/>
  <line class="uuid-285b363c-2632-4e10-b7cf-2bdc234c8afc" x1="313.765" y1="315.228" x2="297.546" y2="315.228"/>
  <line class="uuid-285b363c-2632-4e10-b7cf-2bdc234c8afc" x1="270.897" y1="315.228" x2="253.084" y2="315.228"/>
  <line class="uuid-285b363c-2632-4e10-b7cf-2bdc234c8afc" x1="325.491" y1="303.965" x2="315.449" y2="303.965"/>
  <line class="uuid-285b363c-2632-4e10-b7cf-2bdc234c8afc" x1="260.34" y1="303.965" x2="249.42" y2="303.965"/>
  <line class="uuid-285b363c-2632-4e10-b7cf-2bdc234c8afc" x1="334.604" y1="292.63" x2="326.47" y2="292.63"/>
  <line class="uuid-285b363c-2632-4e10-b7cf-2bdc234c8afc" x1="256.801" y1="292.63" x2="248.371" y2="292.63"/>
  <line class="uuid-285b363c-2632-4e10-b7cf-2bdc234c8afc" x1="341.93" y1="281.371" x2="334.726" y2="281.371"/>
  <line class="uuid-285b363c-2632-4e10-b7cf-2bdc234c8afc" x1="256.213" y1="281.371" x2="249.081" y2="281.371"/>
  <line class="uuid-285b363c-2632-4e10-b7cf-2bdc234c8afc" x1="347.796" y1="270.108" x2="340.977" y2="270.108"/>
  <line class="uuid-285b363c-2632-4e10-b7cf-2bdc234c8afc" x1="257.533" y1="270.108" x2="251.157" y2="270.108"/>
  <line class="uuid-285b363c-2632-4e10-b7cf-2bdc234c8afc" x1="352.361" y1="258.797" x2="345.742" y2="258.797"/>
  <line class="uuid-285b363c-2632-4e10-b7cf-2bdc234c8afc" x1="260.465" y1="258.797" x2="254.578" y2="258.797"/>
  <line class="uuid-285b363c-2632-4e10-b7cf-2bdc234c8afc" x1="355.732" y1="247.513" x2="349.017" y2="247.513"/>
  <line class="uuid-285b363c-2632-4e10-b7cf-2bdc234c8afc" x1="264.911" y1="247.513" x2="259.167" y2="247.513"/>
  <line class="uuid-285b363c-2632-4e10-b7cf-2bdc234c8afc" x1="357.884" y1="236.25" x2="350.628" y2="236.25"/>
  <line class="uuid-285b363c-2632-4e10-b7cf-2bdc234c8afc" x1="270.897" y1="236.25" x2="265.079" y2="236.25"/>
  <line class="uuid-285b363c-2632-4e10-b7cf-2bdc234c8afc" x1="358.517" y1="224.94" x2="350.459" y2="224.94"/>
  <line class="uuid-285b363c-2632-4e10-b7cf-2bdc234c8afc" x1="278.612" y1="224.94" x2="272.409" y2="224.94"/>
  <line class="uuid-285b363c-2632-4e10-b7cf-2bdc234c8afc" x1="357.49" y1="213.655" x2="347.674" y2="213.655"/>
  <line class="uuid-285b363c-2632-4e10-b7cf-2bdc234c8afc" x1="289.021" y1="213.655" x2="281.522" y2="213.655"/>
  <line class="uuid-285b363c-2632-4e10-b7cf-2bdc234c8afc" x1="353.656" y1="202.345" x2="339.413" y2="202.345"/>
  <line class="uuid-285b363c-2632-4e10-b7cf-2bdc234c8afc" x1="304.581" y1="202.345" x2="293.367" y2="202.345"/>
  <line class="uuid-285b363c-2632-4e10-b7cf-2bdc234c8afc" x1="343.789" y1="191.082" x2="311.2" y2="191.082"/>
  <line class="uuid-285b363c-2632-4e10-b7cf-2bdc234c8afc" x1="197.39" y1="171.737" x2="192.798" y2="163.775"/>
  <line class="uuid-285b363c-2632-4e10-b7cf-2bdc234c8afc" x1="279.834" y1="315.228" x2="259.414" y2="279.927"/>
  <line class="uuid-285b363c-2632-4e10-b7cf-2bdc234c8afc" x1="302.848" y1="309.952" x2="280.371" y2="271.087"/>
  <line class="uuid-285b363c-2632-4e10-b7cf-2bdc234c8afc" x1="320.387" y1="295.193" x2="304.923" y2="268.47"/>
  <line class="uuid-285b363c-2632-4e10-b7cf-2bdc234c8afc" x1="335.701" y1="276.558" x2="296.688" y2="209.015"/>
  <line class="uuid-285b363c-2632-4e10-b7cf-2bdc234c8afc" x1="345.937" y1="249.199" x2="317.477" y2="199.854"/>
</svg>