<?xml version="1.0" encoding="UTF-8"?>
<svg id="uuid-8b07afaf-5f6f-4489-a3f1-beb917c17d0a" data-name="&amp;lt;Layer&amp;gt;" xmlns="http://www.w3.org/2000/svg" viewBox="0 0 451.11 451.11">
  <defs>
    <style>
      .uuid-9961b956-e846-4820-b864-1ede2ec9f158, .uuid-ac83caf9-68b0-447c-8b82-2a56206c7e5a, .uuid-0445c125-55a8-439a-8bea-531d5becf86d {
        fill: none;
        stroke: #000;
        stroke-linecap: round;
      }

      .uuid-9961b956-e846-4820-b864-1ede2ec9f158, .uuid-0445c125-55a8-439a-8bea-531d5becf86d {
        stroke-linejoin: round;
        stroke-width: 4.117px;
      }

      .uuid-ac83caf9-68b0-447c-8b82-2a56206c7e5a {
        stroke-miterlimit: 10;
        stroke-width: 1.163px;
      }

      .uuid-0445c125-55a8-439a-8bea-531d5becf86d {
        fill-rule: evenodd;
      }
    </style>
  </defs>
  <path class="uuid-0445c125-55a8-439a-8bea-531d5becf86d" d="M310.959,116.674c-37.743-21.815-58.017-40.844-107.143-9.626-80.196,50.956-124.679,190.562-63.51,227.573"/>
  <path class="uuid-0445c125-55a8-439a-8bea-531d5becf86d" d="M173.917,354.04c-54.892-34.784-20.203-133.255,14.338-180.182,25.038-33.979,77.462-80.832,122.704-57.185"/>
  <path class="uuid-0445c125-55a8-439a-8bea-531d5becf86d" d="M292.907,130.279c.511.244.975.537,1.512.828,15.049,8.698,24.258,27.287,24.258,53.719s-9.209,55.698-24.258,81.638c-14.997,26.017-35.712,48.663-58.601,61.902-18.883,10.92-36.349,13.658-50.275,9.43"/>
  <path class="uuid-0445c125-55a8-439a-8bea-531d5becf86d" d="M242.437,123.466c-53.472,30.899-96.929,106.039-96.929,167.842s43.457,86.844,96.929,55.941c53.546-30.9,96.929-106.044,96.929-167.846s-43.383-86.841-96.929-55.937Z"/>
  <path class="uuid-0445c125-55a8-439a-8bea-531d5becf86d" d="M242.437,331.055c22.89-13.194,43.605-35.888,58.602-61.854,15.026-25.965,24.257-55.257,24.257-81.69s-9.231-45.017-24.257-53.667c-14.997-8.646-35.712-7.402-58.602,5.814-22.863,13.216-43.604,35.884-58.605,61.876-14.975,25.969-24.254,55.257-24.254,81.664s9.279,45.021,24.254,53.693c15.001,8.65,35.742,7.402,58.605-5.836Z"/>
  <path class="uuid-0445c125-55a8-439a-8bea-531d5becf86d" d="M246.103,216.999c9.282-4.982,16.828-8.355,22.642-10.114,5.814-1.781,10.505-1.149,14.121,1.857,3.592,3.002,5.324,9.478,5.324,19.399,0,10.11-1.269,18.83-3.808,26.064-2.615,7.252-6.696,13.702-12.216,19.417-5.523,5.718-12.948,11.508-22.352,17.418"/>
  <polyline class="uuid-0445c125-55a8-439a-8bea-531d5becf86d" points="249.815 291.039 246.103 293.191 246.103 306.823 233.839 313.858 233.839 300.252"/>
  <path class="uuid-0445c125-55a8-439a-8bea-531d5becf86d" d="M233.839,300.252c-6.377,3.686-12.069,6.424-17.124,8.231-5.056,1.759-9.404,2.321-13.19,1.685-3.642-.658-6.55-2.88-8.602-6.741-2.002-3.812-3.05-9.482-3.05-16.928"/>
  <polyline class="uuid-0445c125-55a8-439a-8bea-531d5becf86d" points="191.872 286.499 191.746 281.929 211.071 270.74"/>
  <path class="uuid-0445c125-55a8-439a-8bea-531d5becf86d" d="M211.071,270.74c0,5.666.415,9.747,1.221,12.315.758,2.564,2.028,4.003,3.786,4.418,1.733.415,3.712.147,5.986-.806,2.196-.905,6.155-2.81,11.774-5.666"/>
  <path class="uuid-0445c125-55a8-439a-8bea-531d5becf86d" d="M233.839,242.626c-7.426,3.734-13.364,6.424-17.761,8.109-4.42,1.685-8.379,2.344-11.921,1.979-3.518-.367-6.251-2.395-8.231-6.06-1.933-3.712-2.834-9.577-2.834-17.561,0-9.895,1.659-18.471,5.03-25.726,3.37-7.256,7.966-13.533,13.826-18.761,5.862-5.224,13.192-10.358,21.889-15.412"/>
  <polyline class="uuid-0445c125-55a8-439a-8bea-531d5becf86d" points="233.839 169.193 233.839 157.198 246.103 150.141 246.103 162.132"/>
  <path class="uuid-0445c125-55a8-439a-8bea-531d5becf86d" d="M246.103,162.132c9.747-5.13,17.292-8.379,22.716-9.695,5.327-1.347,9.456-.148,12.288,3.564,2.856,3.688,4.298,10.917,4.298,21.669"/>
  <path class="uuid-0445c125-55a8-439a-8bea-531d5becf86d" d="M266.475,188.565c-.1-.658-.1-1.49-.1-2.517,0-6.277-1.218-9.795-3.612-10.651-2.322-.828-6.329.367-11.899,3.616"/>
  <polyline class="uuid-0445c125-55a8-439a-8bea-531d5becf86d" points="246.103 235.565 246.103 273.941 249.815 271.792"/>
  <path class="uuid-0445c125-55a8-439a-8bea-531d5becf86d" d="M249.815,271.792c6.398-3.712,11.137-7.793,14.29-12.289,3.076-4.444,4.64-10.332,4.64-17.566,0-5.662-.879-9.279-2.686-10.916-1.733-1.663-3.981-2.053-6.718-1.147-2.786.853-7.256,2.784-13.238,5.692"/>
  <path class="uuid-0445c125-55a8-439a-8bea-531d5becf86d" d="M230.881,190.518c-4.298,2.543-7.669,4.861-10.21,6.987-2.514,2.05-4.544,4.713-5.984,7.867-1.516,3.175-2.273,7.23-2.273,12.164,0,7.035,1.809,10.821,5.353,11.431,3.54.537,8.864-1.221,16.072-5.397"/>
  <line class="uuid-9961b956-e846-4820-b864-1ede2ec9f158" x1="140.305" y1="334.621" x2="173.917" y2="354.04"/>
  <line class="uuid-9961b956-e846-4820-b864-1ede2ec9f158" x1="249.178" y1="90.899" x2="282.741" y2="110.297"/>
  <line class="uuid-9961b956-e846-4820-b864-1ede2ec9f158" x1="226.193" y1="95.47" x2="259.977" y2="115.011"/>
  <line class="uuid-9961b956-e846-4820-b864-1ede2ec9f158" x1="207.896" y1="106.364" x2="239.994" y2="124.904"/>
  <line class="uuid-9961b956-e846-4820-b864-1ede2ec9f158" x1="189.819" y1="118.039" x2="222.749" y2="137.046"/>
  <line class="uuid-9961b956-e846-4820-b864-1ede2ec9f158" x1="174.038" y1="131.991" x2="207.431" y2="151.238"/>
  <line class="uuid-9961b956-e846-4820-b864-1ede2ec9f158" x1="161.848" y1="146.034" x2="194.999" y2="165.186"/>
  <line class="uuid-9961b956-e846-4820-b864-1ede2ec9f158" x1="150.686" y1="160.741" x2="183.955" y2="179.941"/>
  <line class="uuid-9961b956-e846-4820-b864-1ede2ec9f158" x1="140.57" y1="176.032" x2="173.917" y2="195.795"/>
  <line class="uuid-9961b956-e846-4820-b864-1ede2ec9f158" x1="132.097" y1="192.229" x2="165.613" y2="211.576"/>
  <line class="uuid-9961b956-e846-4820-b864-1ede2ec9f158" x1="124.793" y1="209.133" x2="158.283" y2="228.482"/>
  <line class="uuid-9961b956-e846-4820-b864-1ede2ec9f158" x1="118.586" y1="227.673" x2="152.08" y2="247.023"/>
  <line class="uuid-9961b956-e846-4820-b864-1ede2ec9f158" x1="114.164" y1="246.555" x2="147.778" y2="265.953"/>
  <line class="uuid-9961b956-e846-4820-b864-1ede2ec9f158" x1="111.845" y1="266.905" x2="145.63" y2="286.399"/>
  <line class="uuid-9961b956-e846-4820-b864-1ede2ec9f158" x1="112.774" y1="288.328" x2="146.388" y2="307.751"/>
  <line class="uuid-9961b956-e846-4820-b864-1ede2ec9f158" x1="119.661" y1="311.754" x2="152.028" y2="330.419"/>
  <line class="uuid-9961b956-e846-4820-b864-1ede2ec9f158" x1="246.103" y1="181.75" x2="246.103" y2="216.999"/>
  <line class="uuid-9961b956-e846-4820-b864-1ede2ec9f158" x1="233.839" y1="281.002" x2="233.839" y2="242.626"/>
  <line class="uuid-9961b956-e846-4820-b864-1ede2ec9f158" x1="285.405" y1="177.671" x2="266.475" y2="188.565"/>
  <line class="uuid-9961b956-e846-4820-b864-1ede2ec9f158" x1="250.864" y1="179.013" x2="246.103" y2="181.75"/>
  <line class="uuid-9961b956-e846-4820-b864-1ede2ec9f158" x1="233.839" y1="188.807" x2="230.881" y2="190.518"/>
  <line class="uuid-9961b956-e846-4820-b864-1ede2ec9f158" x1="233.839" y1="223.57" x2="233.839" y2="188.807"/>
  <line class="uuid-ac83caf9-68b0-447c-8b82-2a56206c7e5a" x1="284.942" y1="245.922" x2="267.818" y2="275.505"/>
  <line class="uuid-ac83caf9-68b0-447c-8b82-2a56206c7e5a" x1="286.458" y1="220.664" x2="269.846" y2="249.44"/>
  <line class="uuid-ac83caf9-68b0-447c-8b82-2a56206c7e5a" x1="259.731" y1="266.928" x2="245.391" y2="291.797"/>
  <line class="uuid-ac83caf9-68b0-447c-8b82-2a56206c7e5a" x1="244.344" y1="293.556" x2="235.697" y2="308.579"/>
  <line class="uuid-ac83caf9-68b0-447c-8b82-2a56206c7e5a" x1="280.471" y1="208.499" x2="267.644" y2="230.726"/>
  <line class="uuid-ac83caf9-68b0-447c-8b82-2a56206c7e5a" x1="244.707" y1="270.423" x2="225.899" y2="303.012"/>
  <line class="uuid-ac83caf9-68b0-447c-8b82-2a56206c7e5a" x1="267.111" y1="209.059" x2="255.164" y2="229.726"/>
  <line class="uuid-ac83caf9-68b0-447c-8b82-2a56206c7e5a" x1="244.344" y1="248.413" x2="235.697" y2="263.436"/>
  <line class="uuid-ac83caf9-68b0-447c-8b82-2a56206c7e5a" x1="221.134" y1="288.647" x2="209.507" y2="308.752"/>
  <line class="uuid-ac83caf9-68b0-447c-8b82-2a56206c7e5a" x1="282.035" y1="160.62" x2="267.939" y2="184.999"/>
  <line class="uuid-ac83caf9-68b0-447c-8b82-2a56206c7e5a" x1="249.472" y1="216.973" x2="235.009" y2="242.063"/>
  <line class="uuid-ac83caf9-68b0-447c-8b82-2a56206c7e5a" x1="211.023" y1="283.613" x2="198.196" y2="305.819"/>
  <line class="uuid-ac83caf9-68b0-447c-8b82-2a56206c7e5a" x1="273.215" y1="153.29" x2="261.441" y2="173.784"/>
  <line class="uuid-ac83caf9-68b0-447c-8b82-2a56206c7e5a" x1="245.002" y1="202.218" x2="217.984" y2="248.924"/>
  <line class="uuid-ac83caf9-68b0-447c-8b82-2a56206c7e5a" x1="200.691" y1="278.874" x2="193.9" y2="290.722"/>
  <line class="uuid-ac83caf9-68b0-447c-8b82-2a56206c7e5a" x1="257.707" y1="157.614" x2="231.006" y2="203.856"/>
  <line class="uuid-ac83caf9-68b0-447c-8b82-2a56206c7e5a" x1="218.231" y1="225.987" x2="203.525" y2="251.441"/>
  <line class="uuid-ac83caf9-68b0-447c-8b82-2a56206c7e5a" x1="245.002" y1="157.051" x2="217.643" y2="204.442"/>
  <line class="uuid-ac83caf9-68b0-447c-8b82-2a56206c7e5a" x1="217.3" y1="204.982" x2="195.559" y2="242.6"/>
  <line class="uuid-ac83caf9-68b0-447c-8b82-2a56206c7e5a" x1="217.595" y1="181.946" x2="194.999" y2="221.032"/>
  <line class="uuid-ac83caf9-68b0-447c-8b82-2a56206c7e5a" x1="335.239" y1="205.91" x2="319.215" y2="233.658"/>
  <line class="uuid-ac83caf9-68b0-447c-8b82-2a56206c7e5a" x1="279.371" y1="302.643" x2="263.348" y2="330.393"/>
  <line class="uuid-ac83caf9-68b0-447c-8b82-2a56206c7e5a" x1="336.048" y1="159.347" x2="326.471" y2="175.96"/>
  <line class="uuid-ac83caf9-68b0-447c-8b82-2a56206c7e5a" x1="233.033" y1="337.771" x2="223.455" y2="354.357"/>
  <line class="uuid-ac83caf9-68b0-447c-8b82-2a56206c7e5a" x1="325.591" y1="132.329" x2="317.015" y2="147.183"/>
  <line class="uuid-ac83caf9-68b0-447c-8b82-2a56206c7e5a" x1="203.426" y1="343.926" x2="194.827" y2="358.779"/>
  <line class="uuid-ac83caf9-68b0-447c-8b82-2a56206c7e5a" x1="308.342" y1="117.016" x2="299.991" y2="131.502"/>
  <line class="uuid-ac83caf9-68b0-447c-8b82-2a56206c7e5a" x1="181.294" y1="337.064" x2="172.941" y2="351.525"/>
  <line class="uuid-ac83caf9-68b0-447c-8b82-2a56206c7e5a" x1="285.31" y1="111.788" x2="276.589" y2="126.884"/>
  <line class="uuid-ac83caf9-68b0-447c-8b82-2a56206c7e5a" x1="165.561" y1="319.182" x2="156.963" y2="334.083"/>
  <line class="uuid-ac83caf9-68b0-447c-8b82-2a56206c7e5a" x1="255.091" y1="118.944" x2="245.054" y2="136.266"/>
  <line class="uuid-ac83caf9-68b0-447c-8b82-2a56206c7e5a" x1="158.014" y1="287.109" x2="148.021" y2="304.428"/>
  <line class="uuid-ac83caf9-68b0-447c-8b82-2a56206c7e5a" x1="211.95" y1="148.456" x2="152.838" y2="250.882"/>
  <line class="uuid-ac83caf9-68b0-447c-8b82-2a56206c7e5a" x1="323.391" y1="190.496" x2="320.194" y2="196.089"/>
  <line class="uuid-ac83caf9-68b0-447c-8b82-2a56206c7e5a" x1="246.272" y1="324.043" x2="244.123" y2="327.756"/>
  <line class="uuid-ac83caf9-68b0-447c-8b82-2a56206c7e5a" x1="317.408" y1="155.759" x2="316.598" y2="157.102"/>
</svg>