<?xml version="1.0" encoding="UTF-8"?>
<svg id="uuid-3dcea181-f13e-4969-b640-730b5bca8abd" data-name="&amp;lt;Layer&amp;gt;" xmlns="http://www.w3.org/2000/svg" viewBox="0 0 451.11 451.11">
  <defs>
    <style>
      .uuid-bdd398bc-863f-4d71-a73e-f47476aba223, .uuid-a5bd2f54-cd28-4d6f-b21a-19875ad03bbc, .uuid-dfba8a2b-2567-4649-81b7-3e6af3f64380, .uuid-a9169e71-e9c4-4872-b60a-3ea12b4ace26, .uuid-0c9a6fe5-3fcd-4aba-ae07-9a384656fffe, .uuid-92981ece-0f90-4c0a-9c52-61bd1ee0fa50 {
        fill: none;
        stroke: #000;
        stroke-linecap: round;
      }

      .uuid-bdd398bc-863f-4d71-a73e-f47476aba223, .uuid-a5bd2f54-cd28-4d6f-b21a-19875ad03bbc, .uuid-0c9a6fe5-3fcd-4aba-ae07-9a384656fffe, .uuid-92981ece-0f90-4c0a-9c52-61bd1ee0fa50 {
        stroke-linejoin: round;
      }

      .uuid-bdd398bc-863f-4d71-a73e-f47476aba223, .uuid-92981ece-0f90-4c0a-9c52-61bd1ee0fa50 {
        stroke-width: 4.117px;
      }

      .uuid-a5bd2f54-cd28-4d6f-b21a-19875ad03bbc, .uuid-0c9a6fe5-3fcd-4aba-ae07-9a384656fffe {
        stroke-width: 4.113px;
      }

      .uuid-dfba8a2b-2567-4649-81b7-3e6af3f64380 {
        stroke-width: 1.163px;
      }

      .uuid-dfba8a2b-2567-4649-81b7-3e6af3f64380, .uuid-a9169e71-e9c4-4872-b60a-3ea12b4ace26 {
        stroke-miterlimit: 10;
      }

      .uuid-a9169e71-e9c4-4872-b60a-3ea12b4ace26 {
        stroke-width: 1.159px;
      }

      .uuid-0c9a6fe5-3fcd-4aba-ae07-9a384656fffe, .uuid-92981ece-0f90-4c0a-9c52-61bd1ee0fa50 {
        fill-rule: evenodd;
      }
    </style>
  </defs>
  <line class="uuid-bdd398bc-863f-4d71-a73e-f47476aba223" x1="161.622" y1="186.958" x2="144.196" y2="176.983"/>
  <path class="uuid-0c9a6fe5-3fcd-4aba-ae07-9a384656fffe" d="M212.26,183.316c-.195-.976-.243-2.027-.243-3.176,0-5.276,1.438-10.994,3.881-16.439,2.396-5.228,2.565-10.114.589-13.07-2.156-3.52-6.656-2.251-9.699-.614-6.068,3.257-14.225,9.644-20.031,13.732-8.367,5.886-17.738,11.546-22.933,20.578-.979,1.707-1.961,3.484-2.242,5.457-.095.652-.165,1.406-.213,2.24-.397,7.031.72,19.99,1.655,29.545,1.45,14.78,6.186,38.98-17.208,41.43-8.978,0-17.955,8.547-22.646,15.464-4.376,6.439-6.792,12.349-8.136,20.005-.676,6.255-.427,13.952,5.228,17.955,3.955,2.687,9.578,2.565,15.851-1.047,3.473-1.98,6.744-4.813,9.53-8.186"/>
  <path class="uuid-0c9a6fe5-3fcd-4aba-ae07-9a384656fffe" d="M252.788,272.184c1.737.706,4.007,3.833,4.64,5.401,1.913,4.374,2.182,12.256.684,17.002-1.077,4.448-3.263,8.816-1.906,13.485,1.839,5.056,6.215,5.371,10.868,2.27,9.115-6.156,18.224-12.727,27.287-19.641-12.502-63.799-65.026-87.602-129.27-54.983"/>
  <path class="uuid-0c9a6fe5-3fcd-4aba-ae07-9a384656fffe" d="M145.646,307.19c.927-1.049,1.805-2.149,2.611-3.246,3.301-4.595,7.428-7.134,10.968-6.917,4.302.243,5.276,4.206,5.276,7.671,0,7.646-.772,16.525-1.318,24.16-.11,2.1-2.042,13.974-1.986,22.407.048,8.349,2.674,12.436,11.855,8.764,12.021-4.687,23.99-9.915,35.837-15.781,3.76-1.928,7.131-5.766,9.283-10.579.975-2.222,1.572-4.356,1.773-6.306.622-6.008-3.678-8.79-3.678-16.631,0-13.654,9.577-30.193,21.351-37.032,1.001-.585,1.929-1.049,2.856-1.391"/>
  <path class="uuid-0c9a6fe5-3fcd-4aba-ae07-9a384656fffe" d="M240.231,187.249c-4.239,4.342-11.303,8.638-17.504,8.109-6.416-.776-9.727-5.393-10.467-11.969"/>
  <path class="uuid-0c9a6fe5-3fcd-4aba-ae07-9a384656fffe" d="M294.362,290.701c1.221-.927,2.443-1.858,3.664-2.784,6.451-5.008,13.07-13.876,11.9-20.568-2.737-15.097-4.424-30.656-5.35-46.732-.173-3.444.88-7.156,3.028-10.92,2.148-3.786,4.813-6.498,7.892-8.084,2.733-1.442,5.519-2.152,8.01-2.152,2.958.076,6.329-.854,9.895-2.882,11.774-6.813,21.351-23.426,21.351-37.058,0-2.565-.341-4.887-.979-6.862h0"/>
  <line class="uuid-a5bd2f54-cd28-4d6f-b21a-19875ad03bbc" x1="141.639" y1="244.775" x2="159.984" y2="255.354"/>
  <path class="uuid-0c9a6fe5-3fcd-4aba-ae07-9a384656fffe" d="M101.92,305.82c-3.423-2.587-4.644-5.688-5.35-9.795-.684-6.034.343-11.185,2.37-16.88,3.028-7.837,7.204-14.265,13.433-19.931,3.422-2.882,6.792-5.082,11.141-6.277,4.077-.953,5.986-.1,10.431-1.891,6.351-2.741,10.847-9.365,12.043-16.039.88-5.57-.415-17.001-.806-23.036-.584-8.967-1.342-17.907-2.222-26.775-.927-9.113,4.997-16.744,11.748-22.08,5.844-4.37,11.834-8.686,17.835-12.826,3.881-2.737,7.719-5.35,11.652-7.966,3.411-2.22,7.889-6.093,12.139-4.007"/>
  <line class="uuid-a5bd2f54-cd28-4d6f-b21a-19875ad03bbc" x1="120.265" y1="316.399" x2="101.92" y2="305.82"/>
  <line class="uuid-a5bd2f54-cd28-4d6f-b21a-19875ad03bbc" x1="145.229" y1="349.524" x2="163.601" y2="360.102"/>
  <path class="uuid-0c9a6fe5-3fcd-4aba-ae07-9a384656fffe" d="M145.646,307.19c-.074.757-.122,1.515-.174,2.104-.463,7.547-1.001,15.096-1.633,22.642-.463,5.056-2.786,14.17,1.39,17.588"/>
  <path class="uuid-0c9a6fe5-3fcd-4aba-ae07-9a384656fffe" d="M240.522,301.033c-2.418-1.611-3.076-4.055-3.076-6.837.243-5.522,2.906-10.577,3.275-17.201.048-1.559,0-3.123-.247-4.687,4.765-2.053,9.063-1.979,12.314-.125"/>
  <line class="uuid-a5bd2f54-cd28-4d6f-b21a-19875ad03bbc" x1="258.892" y1="311.66" x2="240.522" y2="301.033"/>
  <path class="uuid-0c9a6fe5-3fcd-4aba-ae07-9a384656fffe" d="M329.441,134.729c-4.298-1.857-8.084-1.053-12.191.754-5.228,2.543-8.183,5.254-11.211,8.746"/>
  <line class="uuid-a5bd2f54-cd28-4d6f-b21a-19875ad03bbc" x1="347.569" y1="145.23" x2="329.441" y2="134.729"/>
  <line class="uuid-a5bd2f54-cd28-4d6f-b21a-19875ad03bbc" x1="288.427" y1="90.342" x2="306.503" y2="100.821"/>
  <line class="uuid-a5bd2f54-cd28-4d6f-b21a-19875ad03bbc" x1="212.26" y1="183.316" x2="212.26" y2="183.389"/>
  <path class="uuid-92981ece-0f90-4c0a-9c52-61bd1ee0fa50" d="M212.26,183.316c15.27-6.425,30.414-32.809,21.473-49.05-3.249-5.866-2.661-10.994.206-16.796,3.679-6.877,6.46-8.172,13.205-11.543,5.35-2.664,10.795-5.253,16.266-7.767,5.008-2.295,10.041-4.521,15.1-6.693,3.371-1.442,6.277-2.443,9.917-1.125"/>
  <line class="uuid-a5bd2f54-cd28-4d6f-b21a-19875ad03bbc" x1="252.274" y1="128.037" x2="233.976" y2="117.48"/>
  <path class="uuid-0c9a6fe5-3fcd-4aba-ae07-9a384656fffe" d="M218,193.842c.585.347,1.173.589,1.737.81.463.169,1.001.365,1.464.463"/>
  <line class="uuid-a5bd2f54-cd28-4d6f-b21a-19875ad03bbc" x1="214.336" y1="148.774" x2="196.333" y2="138.317"/>
  <path class="uuid-0c9a6fe5-3fcd-4aba-ae07-9a384656fffe" d="M240.231,187.249c3.532-3.279,8.054-9.468,10.063-14.096,2.431-4.701,4.246-11.241,4.481-16.337.118-2.539-.081-5.088-.732-7.477-1.478-5.453-4.831-6.567-4.121-13.738.533-5.361,3.919-11.429,8.025-14.832,2.255-1.861,5.563-3.584,8.852-5.125,6.689-3.128,13.628-6.351,20.45-9.401,5.066-2.262,23.224-12.334,22.72,1.023-.383,10.104-2.513,22.6-3.624,33.453-.541,5.368-.957,10.888-1.233,16.237-.273,4.787,1.568,7.643,4.39,8.286,4.677,1.067,8.686-3.044,11.843-6.889,3.161-3.853,5.567-6.747,9.383-9.478,4.414-3.164,10.342-5.784,15.629-4.128,3.816,1.192,6.175,4.165,7.414,7.91h0c-9.452,7.889-19.225,14.828-29.266,20.642-5.812,3.322-11.505,6.181-17.071,8.572-24.112,10.358-46.173,12.117-64.47,6.303-.92-.279-1.825-.607-2.734-.927Z"/>
  <line class="uuid-dfba8a2b-2567-4649-81b7-3e6af3f64380" x1="119.801" y1="280.786" x2="97.791" y2="293.487"/>
  <line class="uuid-dfba8a2b-2567-4649-81b7-3e6af3f64380" x1="113.524" y1="297.443" x2="102.261" y2="303.943"/>
  <line class="uuid-dfba8a2b-2567-4649-81b7-3e6af3f64380" x1="150.237" y1="250.2" x2="99.941" y2="279.244"/>
  <line class="uuid-dfba8a2b-2567-4649-81b7-3e6af3f64380" x1="204.883" y1="145.377" x2="201.513" y2="151.195"/>
  <line class="uuid-dfba8a2b-2567-4649-81b7-3e6af3f64380" x1="195.479" y1="139.027" x2="179.33" y2="167.072"/>
  <line class="uuid-dfba8a2b-2567-4649-81b7-3e6af3f64380" x1="176.475" y1="149.384" x2="156.857" y2="183.363"/>
  <line class="uuid-dfba8a2b-2567-4649-81b7-3e6af3f64380" x1="154.94" y1="163.955" x2="147.551" y2="176.913"/>
  <line class="uuid-dfba8a2b-2567-4649-81b7-3e6af3f64380" x1="250.882" y1="168.831" x2="214.972" y2="189.545"/>
  <line class="uuid-dfba8a2b-2567-4649-81b7-3e6af3f64380" x1="253.495" y1="154.293" x2="231.533" y2="166.95"/>
  <line class="uuid-dfba8a2b-2567-4649-81b7-3e6af3f64380" x1="249.709" y1="143.449" x2="237.74" y2="150.363"/>
  <line class="uuid-dfba8a2b-2567-4649-81b7-3e6af3f64380" x1="249.414" y1="130.576" x2="236.934" y2="137.784"/>
  <line class="uuid-dfba8a2b-2567-4649-81b7-3e6af3f64380" x1="239.962" y1="123.003" x2="233.391" y2="126.79"/>
  <line class="uuid-dfba8a2b-2567-4649-81b7-3e6af3f64380" x1="291.58" y1="93.98" x2="285.008" y2="105.365"/>
  <line class="uuid-dfba8a2b-2567-4649-81b7-3e6af3f64380" x1="279.144" y1="92.931" x2="266.954" y2="114.037"/>
  <line class="uuid-dfba8a2b-2567-4649-81b7-3e6af3f64380" x1="261.604" y1="100.724" x2="248.024" y2="124.199"/>
  <line class="uuid-dfba8a2b-2567-4649-81b7-3e6af3f64380" x1="243.017" y1="110.276" x2="238.568" y2="118.07"/>
  <line class="uuid-dfba8a2b-2567-4649-81b7-3e6af3f64380" x1="345.71" y1="146.088" x2="322.992" y2="159.205"/>
  <line class="uuid-dfba8a2b-2567-4649-81b7-3e6af3f64380" x1="310.558" y1="166.386" x2="269.813" y2="189.913"/>
  <line class="uuid-dfba8a2b-2567-4649-81b7-3e6af3f64380" x1="305.871" y1="143.034" x2="250.467" y2="174.986"/>
  <line class="uuid-dfba8a2b-2567-4649-81b7-3e6af3f64380" x1="308.704" y1="115.306" x2="253.301" y2="147.284"/>
  <line class="uuid-dfba8a2b-2567-4649-81b7-3e6af3f64380" x1="326.708" y1="150.216" x2="311.147" y2="141.227"/>
  <line class="uuid-dfba8a2b-2567-4649-81b7-3e6af3f64380" x1="289.306" y1="276.169" x2="273.113" y2="304.26"/>
  <line class="uuid-dfba8a2b-2567-4649-81b7-3e6af3f64380" x1="284.324" y1="262.194" x2="257.306" y2="308.999"/>
  <line class="uuid-dfba8a2b-2567-4649-81b7-3e6af3f64380" x1="277.459" y1="251.542" x2="259.993" y2="281.76"/>
  <line class="uuid-dfba8a2b-2567-4649-81b7-3e6af3f64380" x1="269.74" y1="242.332" x2="253.079" y2="271.231"/>
  <line class="uuid-dfba8a2b-2567-4649-81b7-3e6af3f64380" x1="261.141" y1="234.591" x2="240.01" y2="271.209"/>
  <line class="uuid-dfba8a2b-2567-4649-81b7-3e6af3f64380" x1="215.267" y1="314.103" x2="194.821" y2="349.502"/>
  <line class="uuid-dfba8a2b-2567-4649-81b7-3e6af3f64380" x1="251.943" y1="227.983" x2="175.618" y2="360.201"/>
  <line class="uuid-dfba8a2b-2567-4649-81b7-3e6af3f64380" x1="241.523" y1="223.517" x2="162.121" y2="361.007"/>
  <line class="uuid-a9169e71-e9c4-4872-b60a-3ea12b4ace26" x1="229.59" y1="221.559" x2="162.721" y2="337.334"/>
  <line class="uuid-dfba8a2b-2567-4649-81b7-3e6af3f64380" x1="217.242" y1="220.374" x2="164.822" y2="311.17"/>
  <line class="uuid-dfba8a2b-2567-4649-81b7-3e6af3f64380" x1="202.955" y1="222.57" x2="159.572" y2="297.688"/>
  <line class="uuid-dfba8a2b-2567-4649-81b7-3e6af3f64380" x1="187.807" y1="226.214" x2="137.169" y2="313.955"/>
  <line class="uuid-dfba8a2b-2567-4649-81b7-3e6af3f64380" x1="169.171" y1="235.935" x2="166.555" y2="240.405"/>
  <line class="uuid-dfba8a2b-2567-4649-81b7-3e6af3f64380" x1="154.344" y1="261.583" x2="122.12" y2="317.4"/>
  <line class="uuid-dfba8a2b-2567-4649-81b7-3e6af3f64380" x1="138.731" y1="266.027" x2="116.137" y2="305.209"/>
  <line class="uuid-dfba8a2b-2567-4649-81b7-3e6af3f64380" x1="256.548" y1="293.851" x2="244.017" y2="301.107"/>
  <line class="uuid-dfba8a2b-2567-4649-81b7-3e6af3f64380" x1="256.965" y1="280.587" x2="239.547" y2="290.676"/>
  <line class="uuid-dfba8a2b-2567-4649-81b7-3e6af3f64380" x1="249.326" y1="271.97" x2="242.626" y2="275.848"/>
  <line class="uuid-dfba8a2b-2567-4649-81b7-3e6af3f64380" x1="160.058" y1="344.811" x2="150.285" y2="350.428"/>
  <line class="uuid-dfba8a2b-2567-4649-81b7-3e6af3f64380" x1="161.548" y1="330.885" x2="144.35" y2="340.804"/>
  <line class="uuid-dfba8a2b-2567-4649-81b7-3e6af3f64380" x1="162.426" y1="317.352" x2="145.818" y2="326.928"/>
  <line class="uuid-dfba8a2b-2567-4649-81b7-3e6af3f64380" x1="163.012" y1="303.965" x2="146.793" y2="313.323"/>
  <line class="uuid-dfba8a2b-2567-4649-81b7-3e6af3f64380" x1="162.938" y1="241.7" x2="151.338" y2="248.393"/>
  <line class="uuid-dfba8a2b-2567-4649-81b7-3e6af3f64380" x1="162.426" y1="228.947" x2="147.04" y2="237.84"/>
  <line class="uuid-dfba8a2b-2567-4649-81b7-3e6af3f64380" x1="161.622" y1="216.389" x2="147.72" y2="224.381"/>
  <line class="uuid-dfba8a2b-2567-4649-81b7-3e6af3f64380" x1="160.4" y1="204.031" x2="146.793" y2="211.897"/>
  <line class="uuid-dfba8a2b-2567-4649-81b7-3e6af3f64380" x1="159.642" y1="191.451" x2="145.889" y2="199.391"/>
  <line class="uuid-dfba8a2b-2567-4649-81b7-3e6af3f64380" x1="151.338" y1="183.194" x2="145.009" y2="186.832"/>
</svg>