<?xml version="1.0" encoding="UTF-8"?>
<svg id="uuid-3eaaa1b5-926a-484a-8a83-f6d5facad387" data-name="&amp;lt;Layer&amp;gt;" xmlns="http://www.w3.org/2000/svg" viewBox="0 0 451.11 451.11">
  <defs>
    <style>
      .uuid-11ffbf6b-8657-4a31-912f-320d1836c19e {
        fill: none;
        stroke-width: 1.163px;
      }

      .uuid-11ffbf6b-8657-4a31-912f-320d1836c19e, .uuid-cfec9b25-a1b4-46a9-bea9-6372ce0a77df {
        stroke: #000;
        stroke-linecap: round;
        stroke-miterlimit: 10;
      }

      .uuid-cfec9b25-a1b4-46a9-bea9-6372ce0a77df {
        fill: #3d6680;
        fill-rule: evenodd;
        stroke-width: .09px;
      }
    </style>
  </defs>
  <g>
    <path class="uuid-cfec9b25-a1b4-46a9-bea9-6372ce0a77df" d="M191.913,207.383c.066-1.133,1.041-1.998,2.174-1.931,1.133.066,1.998,1.041,1.931,2.174l-4.106-.243h0ZM194.179,223.553l-4.047-.736h0l.08-.467.084-.478.086-.467.073-.463.078-.483.074-.47.073-.475.074-.467.062-.479.07-.481.066-.467.058-.478.064-.479.058-.478.058-.489.056-.471.051-.479.056-.493.052-.474.044-.485.048-.493.047-.485.044-.483.042-.493.044-.485.032-.493.04-.5.038-.485.032-.493.034-.505.033-.496.03-.497,4.106.243-.029.511-.034.511-.032.505-.034.507-.036.515-.04.5-.041.507-.044.507-.04.493-.044.511-.048.501-.048.493-.051.5-.052.505-.055.492-.052.501-.062.5-.06.489-.058.493-.062.493-.066.493-.066.504-.07.483-.07.492-.074.497-.073.489-.082.493-.076.482-.082.493-.084.497-.084.478-.088.489h0ZM194.179,223.553c-.202,1.115-1.277,1.859-2.392,1.656-1.114-.203-1.857-1.277-1.655-2.392l4.047.736h0ZM168.07,315.876l-4.098-.36v-.012l.382-3.624.449-3.488.507-3.363.567-3.245.626-3.135.674-3.036.72-2.944.766-2.858.802-2.789.838-2.719.872-2.663.894-2.613.923-2.575.939-2.545.96-2.525.971-2.509.975-2.51.982-2.513.983-2.531.979-2.549.979-2.587.964-2.627.957-2.682.938-2.741.915-2.815.894-2.896.868-2.983.838-3.092.81-3.193.77-3.311.728-3.441.688-3.584,4.047.736-.702,3.658-.744,3.521-.791,3.392-.824,3.267-.862,3.158-.883,3.05-.916,2.961-.939,2.874-.953,2.793-.971,2.726-.979,2.665-.987,2.615-.986,2.571-.989,2.539-.983,2.513-.975,2.502-.964,2.495-.945,2.495-.924,2.509-.909,2.531-.88,2.561-.849,2.597-.818,2.653-.78,2.708-.742,2.785-.7,2.856-.658,2.946-.604,3.048-.552,3.149-.493,3.267-.441,3.399-.369,3.529v-.012h0ZM168.07,315.888c-.103,1.129-1.111,1.961-2.24,1.857-1.129-.102-1.961-1.111-1.857-2.24l4.098.383h0ZM167.32,333.358h-4.113v-.611l.004-.604.004-.604.006-.6.008-.588.008-.593.01-.592.012-.582.014-.585.014-.578.018-.578.02-.566.018-.571.022-.566.022-.555.022-.559.026-.559.026-.552.032-.552.03-.545.029-.54.034-.545.032-.53.034-.534.036-.533.038-.523.036-.526.04-.523.044-.511.04-.511.042-.514.044-.512,4.098.36-.044.497-.04.493-.04.511-.036.511-.042.507-.036.511-.036.515-.038.519-.032.518-.034.53-.032.531-.03.526-.03.537-.025.537-.026.537-.026.544-.022.545-.022.556-.022.552-.018.556-.018.566-.02.563-.014.563-.014.57-.012.574-.01.578-.008.578-.008.589-.006.585-.004.588-.004.597v.596h0ZM167.32,333.358c0,1.133-.923,2.056-2.057,2.056s-2.056-.923-2.056-2.056h4.113ZM184.035,356.291l-2.031,3.576-.01-.003-1.638-.964-1.542-.931-1.449-.916-1.358-.898-1.265-.875-1.181-.858-1.108-.846-1.023-.835-.949-.824-.876-.814-.805-.809-.744-.806-.678-.802-.614-.798-.555-.802-.501-.802-.445-.802-.389-.806-.335-.806-.295-.802-.243-.809-.202-.802-.165-.806-.132-.802-.096-.802-.074-.794-.054-.806-.038-.806-.018-.813-.01-.814-.004-.824v-.831h4.113v.824l.004.794.01.776.02.748.029.716.048.703.066.684.081.662.104.64.128.629.158.626.184.604.221.61.253.607.295.608.335.61.391.626.438.633.497.644.558.662.626.681.695.691.772.718.846.736.928.754,1.011.78,1.101.798,1.192.824,1.284.846,1.384.872,1.484.902,1.585.927-.01-.004h0ZM184.046,356.295c.983.566,1.325,1.829.758,2.811-.566.981-1.829,1.324-2.81.758l2.052-3.569h0ZM189.951,358.904l-1.406,3.871.026.006-.235-.081-.228-.084-.225-.078-.243-.092-.214-.08-.221-.081-.221-.084-.225-.09-.217-.084-.209-.084-.228-.092-.21-.088-.206-.088-.213-.088-.21-.092-.205-.092-.202-.088-.206-.095-.199-.092-.195-.092-.195-.092-.192-.092-.206-.099-.195-.1-.177-.088-.202-.102-.191-.1-.173-.092-.18-.095-.192-.108-.177-.099-.176-.1,2.031-3.576.154.084.162.092.147.078.166.088.173.092.154.084.158.081.177.088.165.084.162.078.176.084.18.084.18.084.184.086.176.081.18.08.191.086.18.077.184.081.198.082.195.081.184.078.202.077.202.084.195.074.199.078.213.081.214.081.191.07.217.078.214.077.213.074.026.008h0ZM189.926,358.896c1.071.371,1.638,1.548,1.265,2.619-.371,1.071-1.549,1.638-2.619,1.265l1.354-3.885h0ZM264.293,357.792l1.538,3.819h0l-1.976.754-2.061.702-2.144.655-2.22.607-2.284.556-2.355.511-2.406.463-2.461.419-2.51.371-2.549.324-2.583.283-2.609.232-2.637.191-2.653.148-2.66.095-2.665.056-2.671.01-2.656-.036-2.645-.078-2.627-.125-2.601-.166-2.573-.213-2.535-.257-2.495-.306-2.439-.345-2.392-.391-2.333-.437-2.259-.482-2.194-.523-2.116-.574-2.034-.618-1.943-.666,1.406-3.871,1.803.622,1.901.574,1.999.544,2.082.501,2.164.46,2.23.417,2.303.375,2.359.339,2.414.289,2.453.251,2.499.206,2.529.166,2.553.117,2.579.078,2.59.036,2.599-.01,2.597-.056,2.594-.096,2.579-.139,2.565-.184,2.535-.232,2.51-.269,2.469-.315,2.421-.357,2.373-.405,2.318-.449,2.252-.489,2.182-.533,2.108-.57,2.02-.619,1.927-.658,1.837-.702h0ZM275.534,351.265l2.435,3.319.004-.004-.349.254-.349.257-.357.257-.357.251-.35.243-.359.251-.365.25-.365.243-.357.239-.363.239-.375.243-.365.229-.365.236-.382.235-.379.228-.369.217-.383.228-.389.221-.375.209-.383.214-.391.213-.385.206-.405.21-.389.191-.387.195-.405.199-.405.188-.401.187-.405.177-.412.18-.409.174-.412.169-1.538-3.819.375-.155.371-.152.361-.158.369-.169.371-.166.361-.173.353-.169.371-.188.369-.183.345-.18.357-.192.361-.191.353-.199.361-.202.345-.199.353-.206.354-.21.349-.213.339-.206.349-.221.349-.221.339-.221.343-.225.349-.231.341-.228.335-.229.339-.235.343-.243.335-.236.327-.235.335-.243.335-.247.004-.004h0ZM275.53,351.269c.912-.674,2.204-.479,2.878.433.672.912.478,2.204-.435,2.878l-2.443-3.311h0ZM284.346,336.566l4.113.176v-.026l-.018.559-.034.548-.032.552-.056.556-.058.549-.074.552-.088.562-.106.553-.125.556-.144.556-.162.552-.18.555-.205.563-.232.559-.251.548-.275.559-.309.559-.332.552-.353.555-.389.556-.413.556-.445.556-.47.552-.505.552-.533.559-.57.559-.596.559-.637.566-.666.571-.706.574-.744.578-.78.585-2.435-3.319.72-.541.678-.526.633-.515.6-.511.562-.5.523-.493.489-.479.452-.471.423-.471.39-.456.365-.453.331-.437.301-.437.28-.431.257-.433.228-.421.209-.419.192-.423.173-.419.155-.409.136-.423.125-.426.106-.423.096-.439.084-.434.074-.437.058-.449.052-.467.04-.467.034-.479.026-.489.018-.493v-.025h0ZM284.346,336.591c.033-1.133.985-2.028,2.12-1.994,1.133.034,2.026.986,1.994,2.12l-4.113-.126h0ZM284.394,333.358h4.113v1.089l-.004.103v.413l-.004.099v.206l-.004.099v.104l-.004.099v.104l-.003.103v.1l-.004.139-.004.1-.004.103-.004.104-.004.099-.002.104-.004.103-.004.118-4.113-.176.004-.09.003-.102.004-.103.004-.1.004-.102.004-.104.004-.099.003-.066v-.1l.004-.102v-.103l.004-.1v-.102l.004-.1v-.206l.004-.099v-.413l.004-.103v-1.015h0ZM284.394,333.358c0-1.133.923-2.057,2.056-2.057s2.057.924,2.057,2.057h-4.113ZM284.394,328.471h4.113v4.887h-4.113v-4.887h0ZM284.394,328.471c0-1.133.923-2.056,2.056-2.056s2.057.923,2.057,2.056h-4.113ZM284.302,318.128l4.099-.323.006.103.008.323.01.328.008.335.008.327.006.327.008.339.004.327.008.324.002.339.004.327.004.327.004.327.004.328.004.327.003.327.004.339v.327l.004.328v.331l.004.327v.99l.004.327v2.66h-4.113v-2.638l-.004-.327v-.99l-.004-.327v-.331l-.004-.328v-.327l-.004-.317-.004-.327-.003-.327-.004-.328-.004-.327-.004-.327-.004-.327-.004-.317-.007-.324-.004-.327-.008-.309-.007-.327-.008-.328-.008-.313-.01-.327-.008-.323.008.102h0ZM284.294,318.026c-.03-1.133.864-2.086,1.998-2.116,1.133-.03,2.087.865,2.116,1.998l-4.113.118h0ZM284.125,314.548h4.113l-.012-.228.008.088.012.1.01.136.012.139.003.104.008.066.008.147.004.106.01.11.004.152.004.077.007.114.004.155.004.118.004.118.004.117.004.118.003.118.004.088.008.11.004.154.004.114.003.114.004.106.004.077.004.106.008.136v.066l.006.096.004.096.004.04.008.096-4.099.323-.008-.081-.01-.144-.004-.103-.008-.104-.008-.139v-.07l-.01-.114-.004-.144-.004-.113-.004-.114-.003-.122-.004-.08-.008-.118-.004-.154-.004-.118-.003-.117-.004-.118-.004-.118-.004-.117-.004-.082-.007-.114-.004-.143-.004-.078-.004-.103-.004-.106-.006-.066-.008-.132-.004-.096-.004-.044-.004-.048-.01-.078-.008-.073-.01-.228h0ZM284.136,314.777c-.125-1.129.688-2.149,1.819-2.274,1.129-.125,2.148.688,2.273,1.817l-4.091.457h0ZM284.055,313.824l4.106-.31-.058-.349h0l.036.154.004.026.008.03.026.158.004.029-.023-.132.012.052.026.162.018.161v.03l-.01-.11.018.166v.025l-.012-.106.018.162.004.166-.004-.112.004.03.004.162v.03l-.004-.11.004.029.004.162v.221h-4.113v-.221l.004.11-.004-.03-.004-.161v-.03l.004.11-.004-.03-.004-.161.004.106.011.11-.018-.166v-.026l.012.108-.018-.162v-.03l.01.11.018.104h-.004l-.029-.184-.004-.03.018.106-.008-.029-.003-.026.022.096-.015-.052-.059-.349h0ZM284.114,314.173c-.275-1.101.391-2.222,1.49-2.499,1.101-.275,2.222.391,2.499,1.49l-3.989,1.008h0ZM257.605,223.557l4.047-.742v.003l.592,3.032.652,2.976.714,2.926.765,2.884.818,2.841.857,2.804.905,2.766.932,2.745.967,2.715.993,2.697,1.016,2.682,1.023,2.667,1.041,2.657,1.049,2.66,1.045,2.653,1.049,2.657,1.037,2.671,1.019,2.678,1.005,2.693.983,2.715.953,2.741.916,2.767.88,2.8.834,2.834.788,2.876.728,2.918.674,2.966.606,3.016.533,3.072.461,3.132.379,3.193.297,3.259-4.106.31-.283-3.142-.365-3.076-.445-3.02-.519-2.97-.584-2.914-.652-2.87-.706-2.83-.766-2.796-.812-2.76-.858-2.734-.901-2.708-.932-2.691-.967-2.671-.99-2.664-1.011-2.649-1.031-2.649-1.041-2.649-1.045-2.652-1.049-2.661-1.049-2.678-1.037-2.691-1.023-2.704-1.009-2.741-.983-2.76-.953-2.796-.92-2.834-.879-2.87-.838-2.914-.788-2.966-.736-3.013-.673-3.072-.606-3.128v.004h0ZM257.605,223.553c-.203-1.115.54-2.188,1.655-2.391,1.115-.202,2.19.541,2.392,1.655l-4.047.736h0ZM255.764,207.748h4.113v-.096l.022.482.026.493.026.479.034.474.032.489.034.483.033.474.04.479.042.482.044.467.047.479.044.478.052.475.052.482.05.467.056.463.058.483.06.474.062.471.059.475.066.46.066.471.07.479.07.467.07.463.076.463.078.478.077.467.078.461.084.467.084.474.082.465-4.047.742-.088-.485-.086-.475-.084-.482-.084-.489-.078-.482-.076-.479-.078-.485-.077-.493-.07-.482-.07-.479-.074-.485-.066-.497-.066-.489-.062-.485-.058-.489-.058-.482-.064-.493-.051-.504-.052-.483-.052-.489-.051-.492-.048-.493-.044-.505-.04-.496-.042-.493-.04-.504-.032-.497-.034-.489-.033-.511-.026-.507-.026-.493-.03-.505v-.095h0ZM255.764,207.842c-.051-1.133.828-2.1,1.961-2.152,1.133-.052,2.101.828,2.152,1.961l-4.113.191h0ZM255.764,207.626h4.113v.004h0v.004h0v.008h0v.106h-4.113v-.106h0v-.008h0v-.004h0v-.004h0ZM255.764,207.626c0-1.133.924-2.056,2.058-2.056s2.056.923,2.056,2.056h-4.113Z"/>
    <path class="uuid-cfec9b25-a1b4-46a9-bea9-6372ce0a77df" d="M269.592,188.603c.022-1.133.964-2.038,2.098-2.016s2.038.963,2.016,2.096l-4.113-.081h0ZM253.369,212.026l-1.568-3.804h0l.862-.364.853-.379.854-.401.846-.413.835-.426.822-.449.809-.461.798-.481.784-.497.766-.511.742-.526.728-.545.704-.558.674-.578.658-.593.626-.603.604-.626.566-.628.533-.656.512-.67.475-.684.437-.692.409-.714.367-.724.328-.74.295-.766.257-.776.213-.787.174-.814.132-.831.084-.85.044-.876,4.113.081-.052,1.097-.106,1.079-.169,1.051-.218,1.027-.271,1.009-.325.983-.367.949-.417.938-.463.902-.496.883-.541.853-.578.824-.608.802-.644.78-.676.754-.7.729-.728.706-.754.68-.776.659-.8.632-.816.619-.838.592-.854.57-.865.549-.879.526-.89.511-.902.485-.909.471-.92.449-.919.43-.928.409-.927.393h0ZM227.194,217.1l-.051-4.113h-.004l.798-.014.802-.026.802-.03.798-.04.802-.048.794-.058.798-.062.796-.078.794-.081.791-.092.798-.102.792-.106.787-.118.792-.126.78-.132.776-.143.784-.151.772-.162.768-.17.774-.179.761-.188.766-.199.754-.203.75-.217.748-.221.74-.232.743-.247.732-.247.722-.257.722-.273.716-.275.71-.288,1.568,3.804-.762.31-.768.297-.774.287-.78.28-.783.269-.788.253-.79.254-.798.235-.802.232-.814.217-.802.206-.813.202-.818.187-.82.184-.824.169-.82.158-.828.158-.838.14-.828.132-.831.125-.836.114-.835.104-.842.099-.84.088-.838.078-.842.07-.846.058-.839.048-.844.048-.845.029-.84.026-.842.014h-.004ZM210.45,215.573l.861-4.025-.026-.004.479.092.474.092.479.088.475.084.482.078.489.08.489.074.485.077.479.066.496.066.497.062.482.06.493.054.501.056.493.048.504.048.497.047.5.038.497.04.5.033.507.034.493.026.505.022.511.022.511.018.504.018.497.012.504.006.511.004.507.004.505-.004.511-.004.051,4.113-.533.004-.533.004-.537-.004-.526-.004-.533-.006-.541-.012-.533-.018-.526-.018-.526-.022-.533-.022-.537-.034-.523-.033-.53-.034-.526-.04-.531-.044-.526-.048-.519-.048-.522-.055-.515-.056-.523-.054-.534-.066-.511-.07-.511-.066-.522-.074-.515-.077-.511-.082-.504-.081-.511-.084-.511-.092-.509-.088-.504-.1-.5-.099-.026-.004h0ZM210.475,215.577c-1.111-.221-1.833-1.31-1.612-2.421.221-1.111,1.31-1.833,2.421-1.612l-.809,4.033h0ZM178.181,188.644h4.113l.048,1.199.14,1.155.227,1.119.313,1.083.391,1.051.474,1.023.549.997.618.964.692.938.758.916.824.883.879.858.939.827.986.8,1.041.768,1.079.74,1.115.706,1.144.678,1.177.644,1.203.614,1.218.582,1.233.552,1.243.523,1.237.485,1.246.456,1.237.427,1.225.393,1.21.369,1.181.331,1.167.305,1.129.273,1.093.247-.861,4.025-1.167-.261-1.203-.295-1.232-.321-1.263-.353-1.284-.389-1.299-.417-1.316-.456-1.321-.485-1.332-.523-1.325-.559-1.328-.588-1.314-.633-1.299-.666-1.288-.702-1.262-.744-1.233-.78-1.202-.828-1.167-.864-1.125-.909-1.079-.953-1.027-.997-.971-1.045-.906-1.093-.845-1.145-.766-1.199-.681-1.239-.6-1.295-.5-1.346-.401-1.391-.295-1.442-.176-1.486-.062-1.524ZM178.181,188.644c0-1.133.923-2.056,2.057-2.056s2.056.923,2.056,2.056h-4.113Z"/>
    <path class="uuid-cfec9b25-a1b4-46a9-bea9-6372ce0a77df" d="M209.728,178.846c1.107.243,1.807,1.346,1.564,2.453-.243,1.108-1.347,1.807-2.455,1.564l.89-4.017h0ZM181.573,166.98l3.481-2.2.471.71.504.692.533.666.567.658.6.637.621.618.654.6.682.585.702.566.722.545.75.53.776.515.784.496.806.479.816.459.836.441.849.431.854.409.865.389.876.375.875.365.88.339.883.327.887.309.884.295.879.279.872.262.868.245.861.232.85.217.842.206.824.188-.89,4.017-.875-.202-.894-.213-.902-.232-.913-.247-.927-.261-.931-.283-.939-.295-.942-.317-.945-.331-.95-.349-.945-.369-.949-.386-.942-.405-.938-.427-.935-.445-.923-.467-.916-.486-.906-.511-.893-.53-.88-.556-.857-.575-.846-.596-.832-.626-.806-.648-.784-.672-.757-.703-.733-.72-.702-.754-.678-.778-.644-.805-.606-.84-.575-.857ZM181.573,166.98c-.606-.96-.319-2.234.641-2.84.96-.607,2.233-.321,2.84.64l-3.481,2.2Z"/>
    <path class="uuid-cfec9b25-a1b4-46a9-bea9-6372ce0a77df" d="M263.076,143.362c-.81-.728-.82-1.931-.03-2.675.79-.742,2.098-.754,2.906-.025l-2.876,2.7h0ZM272.105,163.679l-3.797-1.464.257-.592.232-.597.199-.592.173-.596.143-.596.122-.604.096-.596.066-.593.036-.604.014-.6-.014-.596-.036-.604-.066-.604-.092-.592-.122-.6-.143-.596-.176-.6-.196-.597-.227-.592-.254-.596-.283-.589-.309-.592-.339-.589-.365-.588-.393-.585-.419-.578-.449-.57-.481-.575-.511-.57-.531-.563-.57-.556-.592-.555,2.876-2.7.682.628.652.644.624.652.585.659.563.668.53.681.501.688.467.696.438.698.405.707.375.71.341.72.313.728.28.733.247.736.213.739.18.744.151.746.114.754.082.752.051.75.016.75-.016.754-.051.751-.082.754-.118.75-.15.744-.18.742-.217.744-.25.74-.283.728-.309.724ZM272.105,163.679c-.438.961-1.649,1.414-2.693,1.012-1.045-.401-1.542-1.516-1.103-2.477l3.797,1.464Z"/>
    <path class="uuid-cfec9b25-a1b4-46a9-bea9-6372ce0a77df" d="M228.744,184.552c-1.133.058-2.105-.742-2.168-1.785-.062-1.041.806-1.939,1.939-1.998l.229,3.782h0ZM260.04,171.524l2.547,2.972-.909.64-.928.611-.957.592-.967.563-.983.537-.997.515-1.016.492-1.029.471-1.038.445-1.051.423-1.06.405-1.071.379-1.073.365-1.09.341-1.092.324-1.101.305-1.101.283-1.107.273-1.103.247-1.105.232-1.111.217-1.111.203-1.107.18-1.103.169-1.101.155-1.1.136-1.086.125-1.085.114-1.081.096-1.071.084-1.056.07-1.051.062-.229-3.782,1.001-.055,1.011-.07,1.02-.078,1.023-.095,1.033-.108,1.041-.117,1.042-.13,1.041-.147,1.053-.162,1.047-.173,1.045-.188,1.045-.201,1.046-.225,1.045-.232,1.033-.25,1.034-.269,1.025-.283,1.02-.301,1.007-.321,1.001-.335.99-.357.979-.367.964-.395.957-.408.934-.427.919-.449.909-.471.894-.485.872-.504.846-.527.832-.552.813-.566ZM260.04,171.524c.89-.644,2.186-.505,2.888.315.703.822.549,2.013-.341,2.657l-2.547-2.972Z"/>
    <path class="uuid-cfec9b25-a1b4-46a9-bea9-6372ce0a77df" d="M269.566,158.296c0-1.049.924-1.902,2.057-1.902s2.056.853,2.056,1.902h-4.113ZM269.566,189.038v-30.742h4.113v30.742h-4.113ZM273.679,189.038c0,1.048-.923,1.902-2.056,1.902s-2.057-.854-2.057-1.902h4.113Z"/>
    <path class="uuid-cfec9b25-a1b4-46a9-bea9-6372ce0a77df" d="M292.356,335.874c0-1.133.923-2.057,2.056-2.057s2.057.924,2.057,2.057h-4.113ZM272.602,387.628l-1.907-3.65h.004l2.318-1.255,2.148-1.251,1.979-1.247,1.822-1.25,1.667-1.255,1.519-1.251,1.384-1.251,1.251-1.262,1.123-1.262,1.003-1.269.898-1.28.794-1.295.7-1.31.614-1.329.53-1.358.461-1.376.383-1.412.327-1.443.261-1.482.21-1.52.161-1.56.118-1.601.074-1.645.048-1.695.018-1.73-.004-1.785-.022-1.828-.03-1.881-.032-1.928-.034-1.98-.022-2.027-.01-2.086h4.113l.01,2.049.022,2.004.033,1.973.032,1.928.03,1.887.022,1.859.004,1.829-.018,1.795-.048,1.763-.081,1.739-.126,1.718-.176,1.693-.231,1.667-.291,1.652-.365,1.626-.441,1.612-.525,1.589-.619,1.564-.71,1.549-.817,1.53-.927,1.502-1.038,1.48-1.151,1.46-1.277,1.432-1.404,1.416-1.532,1.39-1.667,1.377-1.813,1.358-1.961,1.346-2.105,1.328-2.266,1.325-2.435,1.314h.004ZM272.598,387.628c-1.005.522-2.252.128-2.775-.876-.522-1.005-.128-2.252.876-2.774l1.899,3.65h0ZM154.486,356.291l4.113-.088.257,3.061.626,2.94.975,2.83,1.317,2.727,1.645,2.615,1.969,2.513,2.266,2.396,2.561,2.281,2.83,2.156,3.083,2.02,3.327,1.885,3.546,1.747,3.746,1.594,3.926,1.438,4.087,1.284,4.236,1.119,4.356.957,4.466.786,4.548.615,4.617.437,4.665.258,4.692.073,4.705-.114,4.695-.297,4.662-.493,4.621-.688,4.555-.883,4.466-1.089,4.364-1.289,4.243-1.493,4.102-1.7,3.941-1.909,1.907,3.65-4.161,2.012-4.316,1.789-4.448,1.567-4.562,1.347-4.658,1.133-4.731.92-4.799.716-4.838.509-4.865.313-4.868.113-4.853-.073-4.827-.265-4.779-.453-4.71-.636-4.629-.818-4.525-.993-4.412-1.169-4.272-1.336-4.117-1.512-3.945-1.682-3.752-1.843-3.548-2.009-3.318-2.174-3.072-2.34-2.804-2.501-2.525-2.669-2.212-2.828-1.88-2.992-1.524-3.153-1.136-3.301-.73-3.44-.301-3.569ZM154.486,356.291c-.022-1.133.879-2.079,2.012-2.101,1.133-.022,2.079.88,2.101,2.013l-4.113.088Z"/>
    <path class="uuid-cfec9b25-a1b4-46a9-bea9-6372ce0a77df" d="M178.181,169.64c0-1.133.923-2.056,2.057-2.056s2.056.923,2.056,2.056h-4.113ZM178.181,188.644v-19.004h4.113v19.004h-4.113ZM182.295,188.644c0,1.133-.923,2.057-2.056,2.057s-2.057-.924-2.057-2.057h4.113Z"/>
    <path class="uuid-cfec9b25-a1b4-46a9-bea9-6372ce0a77df" d="M185.066,179.556c.592.963.289,2.236-.674,2.83-.964.592-2.238.289-2.83-.674l3.503-2.156h0ZM178.181,171.156h4.113l.004.28.01.279.016.276.022.269.029.283.03.265.04.265.048.273.052.273.052.265.058.249.066.258.074.265.081.269.08.257.086.25.095.269.092.25.106.257.111.269.108.25.117.257.118.254.129.257.128.258.132.249.144.269.14.258.139.243.154.269.156.257.155.258-3.503,2.156-.184-.295-.169-.295-.17-.283-.176-.309-.161-.302-.158-.291-.162-.309-.151-.301-.15-.309-.148-.313-.139-.309-.144-.324-.125-.313-.13-.315-.121-.332-.118-.319-.114-.339-.103-.331-.096-.327-.096-.339-.088-.346-.08-.353-.074-.345-.066-.347-.054-.345-.056-.361-.044-.367-.036-.35-.03-.371-.022-.371-.01-.369-.004-.375ZM178.181,171.156c0-1.133.923-2.056,2.057-2.056s2.056.923,2.056,2.056h-4.113Z"/>
    <path class="uuid-cfec9b25-a1b4-46a9-bea9-6372ce0a77df" d="M181.257,165.879c0-1.133.923-2.056,2.056-2.056s2.057.923,2.057,2.056h-4.113ZM181.257,180.634v-14.754h4.113v14.754h-4.113ZM185.371,180.634c0,1.133-.924,2.057-2.057,2.057s-2.056-.924-2.056-2.057h4.113Z"/>
    <path class="uuid-cfec9b25-a1b4-46a9-bea9-6372ce0a77df" d="M272.263,177.823c0,1.133-.924,2.056-2.057,2.056s-2.056-.923-2.056-2.056h4.113ZM272.263,162.973v14.85h-4.113v-14.85h4.113ZM268.15,162.973c0-1.133.923-2.057,2.056-2.057s2.057.924,2.057,2.057h-4.113Z"/>
    <path class="uuid-cfec9b25-a1b4-46a9-bea9-6372ce0a77df" d="M259.256,173.01c0-1.133.924-2.057,2.057-2.057s2.056.924,2.056,2.057h-4.113ZM259.256,187.886v-14.875h4.113v14.875h-4.113ZM263.369,187.886c0,1.133-.923,2.057-2.056,2.057s-2.057-.924-2.057-2.057h4.113Z"/>
    <path class="uuid-cfec9b25-a1b4-46a9-bea9-6372ce0a77df" d="M230.685,197.463c0,1.133-.923,2.056-2.056,2.056s-2.057-.923-2.057-2.056h4.113ZM230.685,182.661v14.802h-4.113v-14.802h4.113ZM226.572,182.661c0-1.133.924-2.056,2.057-2.056s2.056.923,2.056,2.056h-4.113Z"/>
    <path class="uuid-cfec9b25-a1b4-46a9-bea9-6372ce0a77df" d="M212.175,198.39c-1.119-.195-1.865-1.265-1.671-2.384.196-1.118,1.265-1.865,2.384-1.671l-.714,4.055h0ZM228.545,195.406l.169,4.113-.526.019-.512.014-.523.014-.526.008-.523.004h-1.033l-.519-.008-.519-.008-.522-.014-.519-.014-.519-.022-.511-.022-.522-.03-.523-.03-.518-.032-.519-.036-.515-.044-.511-.044-.519-.044-.514-.056-.519-.052-.515-.062-.507-.058-.515-.062-.515-.07-.515-.07-.518-.078-.505-.077-.515-.082-.511-.088-.507-.084.714-4.055.486.086.483.081.486.074.489.077.481.07.485.07.487.062.485.062.493.06.485.054.489.052.485.048.489.044.497.044.485.036.49.036.489.034.485.03.493.022.496.022.489.022.489.014.493.014.489.008.489.008h.99l.493-.004.482-.008.493-.014.497-.014.489-.019ZM228.545,195.406c1.133-.044,2.096.84,2.14,1.973.044,1.133-.839,2.096-1.972,2.14l-.169-4.113Z"/>
    <path class="uuid-cfec9b25-a1b4-46a9-bea9-6372ce0a77df" d="M210.475,196.316c0-1.134.923-2.057,2.056-2.057s2.057.923,2.057,2.057h-4.113ZM210.475,196.363v-.047h4.113v.047h-4.113ZM214.589,196.363c0,1.133-.924,2.057-2.057,2.057s-2.056-.924-2.056-2.057h4.113Z"/>
    <path class="uuid-cfec9b25-a1b4-46a9-bea9-6372ce0a77df" d="M208.841,197.728c-1.101-.269-1.777-1.387-1.508-2.487.269-1.101,1.386-1.777,2.487-1.508l-.979,3.995h0ZM210.217,193.814l-.846,4.025-.136-.033.044.014-.014-.004-.014-.004-.016-.004-.014-.003-.014-.004-.016-.004.196.036h-.012l-.225-.044-.081-.022.265.056h-.014l-.012-.004h-.014l-.287-.062.297.058-.051-.004-.012-.004.022.004-.261-.048-.082-.022.265.056.023.004-.206-.038-.018-.003-.07-.016.04.008-.018-.004-.016-.004.022.004-.103-.022.979-3.995-.066-.016.058.012.016.004.018.003.07.016-.04-.008.018.004-.176-.03.05.004.287.062-.051-.014-.232-.04.052.004.011.003-.022-.003.328.066-.265-.056h.014l.01.004h.016l.287.062-.052-.014-.195-.038h.01l.225.044.015.004.014.004.014.004.016.004.014.004.014.002.074.022-.137-.032h0ZM210.354,193.846c1.093.306,1.726,1.446,1.42,2.539-.305,1.093-1.446,1.726-2.539,1.421l1.119-3.96h0ZM212.796,194.273l-.53,4.085-.084-.012-.125-.018-.09-.014-.044-.004-.129-.018-.136-.022-.04-.008-.077-.01-.132-.022-.092-.016-.084-.014-.086-.014-.084-.015-.084-.014-.084-.016-.084-.014-.126-.022-.084-.018-.044-.008-.124-.022-.086-.018-.084-.014-.117-.026-.048-.012-.092-.014-.129-.03-.034-.006-.088-.016-.125-.025-.088-.02-.086-.018-.084-.018.846-4.025.092.018.084.018.088.018.044.012.088.014.136.03.04.008.078.014.128.026.052.01.084.016.084.018.044.008.126.022.084.018.044.006.084.016.084.014.084.014.086.016.084.014.084.014.078.016.044.006.091.012.13.022.032.008.048.003.125.019.088.014.044.004.092.01ZM212.796,194.273c1.127.144,1.921,1.181,1.777,2.308-.143,1.125-1.181,1.92-2.307,1.777l.53-4.085Z"/>
    <path class="uuid-cfec9b25-a1b4-46a9-bea9-6372ce0a77df" d="M207.227,180.854c0-1.133.923-2.056,2.056-2.056s2.058.923,2.058,2.056h-4.114ZM207.227,195.731v-14.876h4.114v14.876l-2.058,2.056-2.056-2.056h0ZM211.34,195.731c0,1.133-.924,2.056-2.058,2.056s-2.056-.923-2.056-2.056h4.114ZM209.331,197.787h-.048v-4.113h.048v4.113h0ZM209.331,193.673c1.133,0,2.057.924,2.057,2.057s-.924,2.056-2.057,2.056v-4.113Z"/>
    <path class="uuid-cfec9b25-a1b4-46a9-bea9-6372ce0a77df" d="M268.168,177.996c-.148-1.123.648-2.16,1.769-2.308,1.123-.147,2.16.648,2.308,1.77l-4.077.537h0ZM269.61,188.912l-1.442-10.916,4.077-.537,1.442,10.916-4.077.537h0ZM273.687,188.375c.147,1.123-.648,2.16-1.77,2.308-1.122.147-2.16-.648-2.307-1.77l4.077-.537Z"/>
    <path class="uuid-cfec9b25-a1b4-46a9-bea9-6372ce0a77df" d="M254.779,147.825c-1.064.397-2.252-.144-2.649-1.207-.397-1.063.143-2.252,1.206-2.649l1.443,3.856h0ZM265.162,143.939l-10.383,3.886-1.443-3.856,10.384-3.885,1.442,3.855h0ZM263.719,140.084c1.063-.398,2.252.143,2.649,1.206.397,1.064-.144,2.252-1.207,2.649l-1.442-3.855Z"/>
    <path class="uuid-cfec9b25-a1b4-46a9-bea9-6372ce0a77df" d="M250.856,170.35c-1.023-.485-1.46-1.717-.975-2.74.486-1.023,1.717-1.461,2.74-.976l-1.765,3.716h0ZM260.43,174.894l-9.574-4.544,1.765-3.716,9.574,4.544-1.765,3.716h0ZM262.196,171.178c1.023.485,1.461,1.719.975,2.741-.485,1.023-1.717,1.46-2.74.975l1.765-3.716Z"/>
    <path class="uuid-cfec9b25-a1b4-46a9-bea9-6372ce0a77df" d="M227.985,177.561c-1.133.034-2.09-.857-2.123-1.99-.032-1.133.858-2.09,1.991-2.124l.132,4.113h0ZM250.551,166.81l2.377,3.363-.615.419-.626.409-.64.397-.658.387-.67.371-.68.361-.7.345-.702.332-.718.327-.732.309-.74.301-.758.291-.762.273-.772.265-.784.251-.79.239-.802.225-.814.217-.813.199-.824.192-.832.176-.842.165-.842.152-.85.139-.853.126-.866.114-.868.099-.868.088-.875.078-.88.058-.879.052-.887.032-.132-4.113.82-.032.82-.044.813-.06.818-.07.809-.081.802-.092.798-.106.796-.118.783-.125.784-.144.776-.151.766-.162.758-.177.754-.183.74-.196.736-.209.724-.217.71-.229.706-.243.696-.251.678-.254.666-.271.658-.28.644-.291.637-.301.618-.309.6-.317.588-.327.571-.335.559-.346.544-.357.527-.361ZM250.551,166.81c.927-.654,2.214-.434,2.87.493.654.928.433,2.216-.493,2.87l-2.377-3.363Z"/>
    <path class="uuid-cfec9b25-a1b4-46a9-bea9-6372ce0a77df" d="M230.675,182.433c.11,1.131-.714,2.138-1.843,2.248-1.131.11-2.138-.714-2.248-1.843l4.091-.405h0ZM229.965,175.303l.71,7.13-4.091.405-.71-7.13,4.091-.405h0ZM225.874,175.708c-.11-1.131.714-2.138,1.843-2.248,1.129-.11,2.138.714,2.248,1.843l-4.091.405Z"/>
    <path class="uuid-cfec9b25-a1b4-46a9-bea9-6372ce0a77df" d="M268.15,162.973c0-1.133.923-2.057,2.056-2.057s2.057.924,2.057,2.057h-4.113ZM268.15,177.727v-14.754h4.113v14.754h-4.113ZM272.263,177.727c0,1.133-.924,2.056-2.057,2.056s-2.056-.923-2.056-2.056h4.113Z"/>
    <path class="uuid-cfec9b25-a1b4-46a9-bea9-6372ce0a77df" d="M270.508,175.788c1.121.166,1.898,1.214,1.733,2.336-.166,1.123-1.215,1.899-2.336,1.733l.604-4.069h0ZM261.614,174.471l8.894,1.317-.604,4.069-8.894-1.318.603-4.069h0ZM261.011,178.54c-1.121-.165-1.898-1.214-1.733-2.336.166-1.122,1.215-1.898,2.336-1.733l-.603,4.069Z"/>
    <path class="uuid-cfec9b25-a1b4-46a9-bea9-6372ce0a77df" d="M260.294,171.568c0,1.133-.924,2.056-2.057,2.056s-2.056-.923-2.056-2.056h4.113ZM260.294,161.114v10.454h-4.113v-10.454h4.113ZM256.181,161.114c0-1.133.923-2.056,2.056-2.056s2.057.923,2.057,2.056h-4.113Z"/>
    <path class="uuid-cfec9b25-a1b4-46a9-bea9-6372ce0a77df" d="M256.114,160.773c0,1.133-.924,2.056-2.057,2.056s-2.058-.923-2.058-2.056h4.115ZM256.114,145.897v14.876h-4.115v-14.876h4.115ZM252,145.897c0-1.133.924-2.056,2.058-2.056s2.057.923,2.057,2.056h-4.115Z"/>
    <path class="uuid-cfec9b25-a1b4-46a9-bea9-6372ce0a77df" d="M260.136,165.548c.438,1.045-.06,2.256-1.105,2.693-1.045.437-2.255-.058-2.693-1.103l3.798-1.59h0ZM252.667,162.289l2.78-3.032.184.166.181.177.176.165.177.173.17.174.176.173.181.187.161.177.158.17.17.184.169.191.162.188.151.179.155.192.154.187.158.202.151.202.136.188.144.199.143.206.136.202.132.205.136.214.132.217.125.217.114.21.114.209.122.232.11.225.106.221.099.225.104.235-3.798,1.59-.066-.155-.077-.166-.078-.169-.073-.15-.078-.152-.092-.165-.092-.166-.088-.151-.088-.15-.091-.148-.104-.155-.106-.158-.1-.147-.113-.155-.122-.166-.106-.143-.114-.144-.118-.15-.125-.147-.136-.158-.125-.15-.126-.14-.132-.147-.143-.156-.148-.154-.129-.135-.14-.144-.154-.151-.147-.144-.155-.151-.15-.14-.155-.143ZM252.667,162.289c-.836-.766-.89-2.072-.126-2.908.766-.835,2.072-.89,2.906-.125l-2.78,3.032Z"/>
    <path class="uuid-cfec9b25-a1b4-46a9-bea9-6372ce0a77df" d="M211.697,174.206c0-1.133.923-2.056,2.056-2.056s2.057.923,2.057,2.056h-4.113ZM211.697,189.133v-14.927h4.113v14.927l-.347,1.145-3.767-1.145h0ZM215.81,189.133c0,1.133-.924,2.057-2.057,2.057s-2.056-.924-2.056-2.057h4.113ZM207.572,194.66l4.47-6.67,3.422,2.288-4.47,6.67-3.767-1.145.345-1.144h0ZM210.993,196.948c-.628.942-1.913,1.196-2.854.567-.942-.63-1.197-1.913-.567-2.856l3.422,2.288h0ZM211.34,180.876v14.927h-4.114v-14.927h4.114ZM207.227,180.876c0-1.133.923-2.056,2.056-2.056s2.058.923,2.058,2.056h-4.114Z"/>
    <path class="uuid-cfec9b25-a1b4-46a9-bea9-6372ce0a77df" d="M219.39,136.769c.467,1.033.004,2.255-1.031,2.722-1.033.467-2.255.004-2.722-1.029l3.753-1.693h0ZM216.263,129.855l3.127,6.915-3.753,1.693-3.128-6.914,3.754-1.693h0ZM212.509,131.547c-.467-1.033-.004-2.255,1.031-2.722,1.033-.467,2.256-.004,2.723,1.029l-3.754,1.693Z"/>
    <path class="uuid-cfec9b25-a1b4-46a9-bea9-6372ce0a77df" d="M244.66,138.105c1.064.393,1.608,1.578,1.215,2.641-.395,1.063-1.578,1.608-2.643,1.214l1.428-3.855h0ZM217.822,139.649l-.618-4.069.886-.128.898-.114.894-.1.894-.084.887-.074.901-.058.894-.044.898-.032.897-.016.888-.004.893.008.89.022.891.036.88.052.879.06.876.077.876.088.871.103.858.114.857.126.854.139.846.152.839.165.84.177.82.192.82.199.813.217.802.225.788.239.79.25.774.265.761.276-1.428,3.855-.695-.247-.707-.243-.71-.227-.728-.218-.736-.209-.74-.196-.754-.183-.761-.177-.766-.162-.78-.15-.78-.144-.788-.125-.798-.118-.805-.106-.806-.096-.81-.081-.816-.07-.814-.058-.827-.044-.824-.038-.824-.022-.828-.006-.836.003-.831.016-.832.032-.834.038-.828.058-.836.066-.835.078-.828.091-.824.108-.828.121ZM217.822,139.649c-1.121.17-2.174-.604-2.343-1.725-.17-1.123.604-2.175,1.725-2.344l.618,4.069Z"/>
    <path class="uuid-cfec9b25-a1b4-46a9-bea9-6372ce0a77df" d="M249.238,132.497c.842-.758,2.144-.692,2.902.151.758.842.692,2.144-.15,2.902l-2.752-3.053h0ZM242.57,138.506l6.668-6.008,2.752,3.053-6.667,6.008-2.753-3.053h0ZM245.323,141.559c-.844.758-2.146.692-2.904-.151-.758-.842-.692-2.146.151-2.902l2.753,3.053Z"/>
    <path class="uuid-cfec9b25-a1b4-46a9-bea9-6372ce0a77df" d="M214.695,132.736c-1.123.169-2.174-.604-2.344-1.726-.169-1.121.604-2.174,1.726-2.343l.618,4.069h0ZM251.327,132.096l-1.428,3.855-.964-.341-.975-.335-.993-.317-1.005-.301-1.016-.288-1.033-.271-1.049-.258-1.049-.243-1.067-.225-1.081-.209-1.086-.199-1.092-.176-1.105-.166-1.111-.147-1.115-.13-1.126-.114-1.133-.095-1.137-.084-1.137-.064-1.141-.047-1.148-.03-1.155-.014-1.149.003-1.148.022-1.155.042-1.151.055-1.153.078-1.151.091-1.151.108-1.145.128-1.14.147-1.145.166-.618-4.069,1.203-.174,1.206-.155,1.219-.135,1.21-.114,1.211-.1,1.217-.077,1.218-.064,1.215-.04,1.214-.022,1.215-.004,1.206.016,1.207.029,1.207.048,1.203.07,1.195.084,1.193.104,1.184.121,1.181.136,1.177.154,1.163.173,1.159.192,1.151.206,1.133.223,1.133.24,1.123.257,1.107.273,1.101.287,1.089.309,1.071.325,1.059.337,1.049.357,1.031.373ZM251.327,132.096c1.063.393,1.607,1.578,1.214,2.641s-1.578,1.608-2.641,1.214l1.428-3.855Z"/>
    <path class="uuid-cfec9b25-a1b4-46a9-bea9-6372ce0a77df" d="M192.693,153.072c1.133.036,2.024.993,1.986,2.126-.036,1.133-.993,2.023-2.126,1.987l.14-4.113h0ZM180.307,152.657l12.386.415-.14,4.113-12.384-.415.139-4.113h0ZM180.168,156.77c-1.133-.038-2.024-.994-1.987-2.127.036-1.133.993-2.024,2.126-1.986l-.139,4.113Z"/>
    <path class="uuid-cfec9b25-a1b4-46a9-bea9-6372ce0a77df" d="M203.886,139.517c1.027-.481,2.258-.044,2.741.983.482,1.027.044,2.258-.983,2.741l-1.759-3.724h0ZM194.672,155.324l-4.099-.391.07-.604.103-.6.126-.588.151-.582.176-.578.203-.574.225-.567.253-.563.277-.552.299-.54.319-.534.343-.531.363-.515.383-.512.405-.5.423-.489.445-.482.46-.475.483-.467.5-.457.519-.445.533-.434.552-.427.57-.419.585-.409.604-.397.618-.389.64-.379.648-.369.666-.357.674-.341.7-.343,1.759,3.724-.618.297-.607.313-.585.313-.574.324-.551.327-.538.339-.523.345-.504.351-.482.353-.471.367-.453.369-.431.371-.412.375-.393.379-.379.387-.357.393-.343.393-.317.391-.301.401-.283.404-.262.398-.239.401-.225.408-.202.405-.181.401-.165.413-.144.404-.125.417-.106.411-.088.413-.066.408-.048.413ZM194.672,155.324c-.106,1.129-1.115,1.961-2.244,1.854-1.131-.106-1.961-1.115-1.855-2.244l4.099.391Z"/>
    <path class="uuid-cfec9b25-a1b4-46a9-bea9-6372ce0a77df" d="M195.731,137.511c-.927-.654-1.147-1.942-.493-2.87.656-.927,1.943-1.147,2.87-.493l-2.377,3.363h0ZM203.577,143.06l-7.845-5.549,2.377-3.363,7.845,5.549-2.377,3.363h0ZM205.953,139.697c.927.656,1.147,1.943.493,2.87-.656.927-1.943,1.147-2.87.493l2.377-3.363Z"/>
    <path class="uuid-cfec9b25-a1b4-46a9-bea9-6372ce0a77df" d="M182.284,154.923c-.114,1.129-1.127,1.95-2.256,1.835-1.129-.114-1.95-1.125-1.837-2.255l4.093.419h0ZM196.037,133.972l1.766,3.716-.857.419-.844.435-.816.441-.798.457-.772.459-.75.475-.73.486-.71.496-.68.497-.656.511-.636.519-.608.522-.585.537-.558.537-.531.548-.511.549-.478.555-.457.566-.43.567-.405.574-.371.57-.347.575-.321.588-.297.585-.265.585-.243.592-.214.589-.18.596-.157.6-.134.596-.103.604-.077.604-4.093-.419.1-.788.132-.788.169-.78.202-.761.24-.766.271-.758.302-.746.339-.74.363-.726.395-.713.426-.714.461-.704.486-.684.512-.678.537-.662.566-.658.593-.644.618-.637.648-.618.666-.61.696-.597.71-.584.743-.578.77-.563.783-.548.81-.537.832-.527.853-.511.872-.5.898-.485.916-.471.937-.457ZM196.037,133.972c1.024-.485,2.256-.048,2.741.975.486,1.023.048,2.256-.975,2.741l-1.766-3.716Z"/>
    <path class="uuid-cfec9b25-a1b4-46a9-bea9-6372ce0a77df" d="M212.042,173.062c.629-.942,1.913-1.197,2.856-.567.942.629,1.195,1.913.566,2.856l-3.422-2.288h0ZM207.572,179.733l4.47-6.671,3.422,2.288-4.47,6.67-3.422-2.288h0ZM210.993,182.021c-.628.942-1.913,1.196-2.854.566-.942-.628-1.197-1.913-.567-2.854l3.422,2.288Z"/>
    <path class="uuid-cfec9b25-a1b4-46a9-bea9-6372ce0a77df" d="M193.12,164.451c-.641-.937-.401-2.222.536-2.862.939-.64,2.224-.401,2.863.537l-3.399,2.325h0ZM214.202,172.197l-.898,4.019-.849-.195-.842-.214-.824-.221-.814-.235-.806-.247-.79-.258-.776-.271-.766-.28-.746-.295-.736-.301-.728-.321-.703-.323-.696-.335-.684-.349-.666-.361-.644-.365-.64-.379-.618-.389-.604-.397-.582-.409-.574-.415-.553-.431-.536-.431-.523-.448-.501-.457-.481-.463-.467-.475-.445-.482-.427-.493-.404-.5-.387-.505-.371-.519,3.399-2.325.283.401.305.401.325.397.345.397.357.387.379.386.401.383.419.383.427.369.457.371.47.363.487.357.507.35.522.345.537.339.552.327.577.328.585.315.596.306.622.297.637.295.648.283.662.273.68.265.692.258.703.243.717.235.734.225.746.213.758.206.768.192.784.179ZM214.202,172.197c1.107.247,1.807,1.351,1.56,2.458s-1.35,1.807-2.458,1.56l.898-4.019Z"/>
    <path class="uuid-cfec9b25-a1b4-46a9-bea9-6372ce0a77df" d="M183.771,167.907c-1.105.25-2.212-.445-2.462-1.549-.249-1.105.445-2.212,1.55-2.462l.913,4.011h0ZM195.276,165.295l-11.505,2.612-.913-4.011,11.505-2.612.912,4.011h0ZM194.363,161.284c1.103-.25,2.21.445,2.461,1.549.251,1.105-.445,2.212-1.549,2.462l-.912-4.011Z"/>
    <path class="uuid-cfec9b25-a1b4-46a9-bea9-6372ce0a77df" d="M260.11,161.99c-.467,1.035-1.689,1.49-2.723,1.023-1.033-.467-1.49-1.689-1.023-2.723l3.746,1.7h0ZM252.681,147.402l2.752-3.062.511.479.489.478.471.493.445.497.427.504.401.515.379.519.361.53.331.534.309.537.283.54.269.557.239.558.217.567.184.559.17.57.139.578.114.574.092.585.062.585.04.578.012.585-.012.584-.04.574-.058.582-.096.593-.114.574-.136.563-.169.58-.191.563-.214.559-.239.555-3.746-1.7.174-.4.155-.413.139-.401.11-.397.1-.409.084-.405.059-.393.044-.405.026-.404.012-.401-.012-.401-.026-.409-.04-.401-.062-.393-.084-.413-.096-.401-.118-.401-.139-.412-.151-.405-.174-.397-.195-.409-.217-.409-.236-.412-.249-.401-.273-.405-.299-.408-.313-.398-.337-.401-.357-.401-.383-.397-.401-.397-.423-.389ZM252.681,147.402c-.843-.758-.913-2.065-.155-2.908.758-.842,2.064-.912,2.906-.155l-2.752,3.062Z"/>
    <path class="uuid-cfec9b25-a1b4-46a9-bea9-6372ce0a77df" d="M270.512,160.913c1.122.165,1.894,1.218,1.729,2.339-.166,1.123-1.218,1.895-2.34,1.73l.611-4.069h0ZM258.542,159.106l11.97,1.807-.611,4.069-11.969-1.807.61-4.069h0ZM257.932,163.176c-1.123-.166-1.895-1.218-1.729-2.34.165-1.123,1.218-1.895,2.339-1.729l-.61,4.069Z"/>
    <path class="uuid-cfec9b25-a1b4-46a9-bea9-6372ce0a77df" d="M190.565,155.128c0-1.133.924-2.056,2.058-2.056s2.056.923,2.056,2.056h-4.113ZM190.565,163.779v-8.651h4.113v8.651h-4.113ZM194.679,163.779c0,1.133-.923,2.056-2.056,2.056s-2.058-.923-2.058-2.056h4.113Z"/>
    <path class="uuid-cfec9b25-a1b4-46a9-bea9-6372ce0a77df" d="M183.398,167.704c1.135.044,2.017,1.008,1.973,2.142-.044,1.133-1.008,2.016-2.142,1.972l.169-4.113h0ZM180.444,167.584l2.954.121-.169,4.113-2.954-.121.084-4.113h.084ZM180.275,171.697c-1.133-.044-2.017-1.008-1.973-2.142.044-1.133,1.008-2.016,2.142-1.972l-.169,4.113h0ZM180.239,167.584h.121v4.113h-.121l-2.057-2.057,2.057-2.056h0ZM180.239,171.697c-1.134,0-2.057-.924-2.057-2.057s.923-2.056,2.057-2.056v4.113h0ZM182.295,154.713v14.927h-4.113v-14.927l2.12-2.056,1.994,2.056h0ZM178.181,154.713c0-1.133.923-2.056,2.057-2.056s2.056.923,2.056,2.056h-4.113ZM189.775,157.065l-9.6-.295.126-4.113,9.599.293h.026l-.151,4.115h0ZM189.9,152.95c1.133.034,2.028.986,1.995,2.12-.034,1.133-.986,2.027-2.12,1.995l.125-4.115h0ZM192.535,157.185l-2.785-.121.177-4.115,2.785.122-.176,4.113h0ZM192.711,153.072c1.133.048,2.016,1.011,1.968,2.146-.047,1.133-1.011,2.016-2.144,1.968l.176-4.113Z"/>
    <path class="uuid-cfec9b25-a1b4-46a9-bea9-6372ce0a77df" d="M203.864,154.426c1.019-.497,2.254-.07,2.752.949.497,1.02.07,2.256-.949,2.753l-1.803-3.702h0ZM196.843,164.963l-3.363-2.369.247-.343.262-.345.265-.331.269-.328.291-.327.283-.313.291-.305.297-.301.306-.299.309-.287.313-.283.313-.273.327-.276.327-.265.325-.257.345-.262.335-.245.339-.244.349-.239.339-.231.343-.225.349-.225.357-.221.357-.214.357-.205.353-.202.357-.199.349-.192.361-.195.365-.184.349-.177.357-.176,1.803,3.702-.321.155-.327.169-.321.162-.309.165-.327.178-.321.177-.317.179-.313.184-.305.184-.305.191-.305.196-.306.201-.309.202-.291.202-.293.214-.291.209-.273.21-.287.228-.276.221-.261.225-.269.235-.261.232-.251.235-.247.239-.239.243-.239.254-.232.247-.21.247-.217.261-.213.265-.196.258-.195.267ZM196.843,164.963c-.65.928-1.939,1.149-2.866.497-.927-.652-1.147-1.939-.497-2.866l3.363,2.369Z"/>
    <path class="uuid-cfec9b25-a1b4-46a9-bea9-6372ce0a77df" d="M202.708,141.378c0-1.133.923-2.056,2.056-2.056s2.057.923,2.057,2.056h-4.113ZM202.708,156.277v-14.898h4.113v14.898h-4.113ZM206.822,156.277c0,1.133-.924,2.056-2.057,2.056s-2.056-.923-2.056-2.056h4.113Z"/>
    <path class="uuid-cfec9b25-a1b4-46a9-bea9-6372ce0a77df" d="M194.679,155.765c0,1.133-.923,2.056-2.056,2.056s-2.058-.923-2.058-2.056h4.113ZM194.679,155.128v.637h-4.113v-.637h4.113ZM190.565,155.128c0-1.133.924-2.056,2.058-2.056s2.056.923,2.056,2.056h-4.113Z"/>
    <path class="uuid-cfec9b25-a1b4-46a9-bea9-6372ce0a77df" d="M194.632,163.827c0,1.133-.924,2.056-2.057,2.056s-2.056-.923-2.056-2.056h4.113ZM190.565,155.713l4.113.104-.003.176-.004.195-.004.203-.004.206-.004.213-.004.221-.003.225-.004.213v.236l-.004.243v.243l-.004.251v.253l-.004.254v.522l-.004.265v1.083l-.003.275v2.735h-4.113v-2.764l.003-.276v-1.081l.004-.265v-.523l.004-.253v-.254l.004-.25v-.243l.004-.243v-.235l.004-.25.003-.225.004-.221.004-.221.004-.206.004-.202.004-.202.003-.199ZM190.565,155.713c.026-1.133.976-2.031,2.109-2.005,1.133.026,2.03.975,2.004,2.109l-4.113-.104Z"/>
    <path class="uuid-cfec9b25-a1b4-46a9-bea9-6372ce0a77df" d="M219.386,151.688c.467,1.034.012,2.256-1.023,2.723-1.033.467-2.256.01-2.723-1.023l3.746-1.7h0ZM216.26,144.779l3.127,6.909-3.746,1.7-3.127-6.911-.184-.85,3.931-.849h0ZM212.513,146.478c-.467-1.033-.01-2.255,1.023-2.722,1.034-.467,2.256-.012,2.723,1.023l-3.746,1.699h0ZM216.442,130.701v14.927h-4.113v-14.927l3.934-.846.179.846h0ZM212.329,130.701c0-1.133.924-2.056,2.057-2.056s2.056.923,2.056,2.056h-4.113ZM215.638,138.462l-3.128-6.914,3.754-1.693,3.127,6.915-3.753,1.693h0ZM219.39,136.769c.467,1.033.004,2.255-1.031,2.722-1.033.467-2.255.004-2.722-1.029l3.753-1.693Z"/>
    <path class="uuid-cfec9b25-a1b4-46a9-bea9-6372ce0a77df" d="M219.571,152.538c0,1.133-.924,2.056-2.057,2.056s-2.056-.923-2.056-2.056h4.113ZM219.571,137.615v14.923h-4.113v-14.923h4.113ZM215.457,137.615c0-1.135.923-2.057,2.056-2.057s2.057.923,2.057,2.057h-4.113Z"/>
    <path class="uuid-cfec9b25-a1b4-46a9-bea9-6372ce0a77df" d="M244.641,152.998c1.067.383,1.622,1.564,1.24,2.631-.382,1.067-1.563,1.623-2.63,1.24l1.39-3.871h0ZM217.808,154.572l-.588-4.069.86-.117.861-.11.864-.096.864-.084.866-.074.864-.056.861-.051.868-.034.861-.022.872-.01.861.004.866.014.864.026.865.044.864.051.864.07.858.082.857.088.864.11.862.121.853.132.858.152.849.157.854.178.85.187.854.21.838.213.846.232.842.249.839.258.836.275.835.295-1.39,3.871-.77-.265-.768-.253-.774-.244-.776-.227-.772-.21-.788-.206-.779-.187-.784-.173-.788-.162-.791-.151-.792-.136-.794-.126-.794-.113-.792-.096-.799-.088-.798-.074-.799-.062-.806-.052-.798-.036-.806-.026-.806-.014-.802-.004-.805.01-.81.022-.802.034-.81.044-.805.054-.806.066-.806.078-.806.088-.809.103-.81.11ZM217.808,154.572c-1.121.162-2.168-.618-2.329-1.739-.162-1.123.618-2.168,1.741-2.33l.588,4.069Z"/>
    <path class="uuid-cfec9b25-a1b4-46a9-bea9-6372ce0a77df" d="M241.89,140.032c0-1.133.923-2.057,2.056-2.057s2.057.924,2.057,2.057h-4.113ZM241.89,154.933v-14.901h4.113v14.901h-4.113ZM246.003,154.933c0,1.133-.924,2.057-2.057,2.057s-2.056-.924-2.056-2.057h4.113Z"/>
    <path class="uuid-cfec9b25-a1b4-46a9-bea9-6372ce0a77df" d="M272.079,178.578c-.467,1.033-1.689,1.49-2.723,1.023-1.033-.467-1.49-1.689-1.023-2.723l3.746,1.7h0ZM269.592,171.156h4.113v.225l-.004.243-.007.243-.016.224-.01.225-.02.239-.018.247-.026.228-.025.239-.034.225-.026.225-.044.261-.036.221-.04.225-.048.24-.048.225-.052.239-.058.243-.058.221-.06.225-.062.239-.074.243-.069.217-.074.232-.078.228-.081.239-.088.229-.084.221-.092.239-.1.232-.092.217-.103.228-3.746-1.7.074-.177.084-.188.07-.173.07-.165.07-.192.066-.176.058-.165.062-.184.06-.18.055-.188.052-.169.048-.173.052-.188.044-.191.044-.17.036-.173.04-.187.034-.174.033-.187.036-.192.022-.151.026-.187.026-.188.018-.173.019-.184.018-.173.01-.173.012-.188.006-.187.008-.17.004-.169v-.188ZM269.592,171.156c0-1.133.923-2.056,2.056-2.056s2.057.923,2.057,2.056h-4.113Z"/>
    <path class="uuid-cfec9b25-a1b4-46a9-bea9-6372ce0a77df" d="M270.133,179.879c-1.134,0-2.057-.923-2.057-2.056s.923-2.057,2.057-2.057v4.113h0ZM270.206,179.879h-.073v-4.113h.073l2.057,2.057-2.057,2.056h0ZM270.206,175.766c1.133,0,2.057.924,2.057,2.057s-.924,2.056-2.057,2.056v-4.113h0ZM272.263,177.727v.096h-4.113v-.096h4.113ZM268.15,177.727c0-1.133.923-2.057,2.056-2.057s2.057.924,2.057,2.057h-4.113Z"/>
    <path class="uuid-cfec9b25-a1b4-46a9-bea9-6372ce0a77df" d="M262.619,189.498c-.927.652-2.214.431-2.866-.497-.652-.927-.431-2.214.497-2.866l2.369,3.363h0ZM268.146,177.29l3.973,1.067-.136.441-.155.419-.18.415-.199.405-.213.405-.239.407-.254.401-.261.395-.28.397-.291.393-.301.387-.309.386-.325.387-.327.383-.339.371-.335.369-.349.375-.349.357-.347.345-.357.357-.356.335-.343.327-.357.328-.349.309-.343.297-.339.291-.331.276-.323.261-.313.25-.313.239-.299.221-.291.21-2.369-3.363.231-.166.247-.183.254-.195.275-.222.288-.231.293-.247.302-.254.305-.269.313-.279.305-.283.327-.306.321-.305.313-.305.317-.325.313-.319.305-.324.305-.331.295-.335.283-.323.273-.327.265-.328.251-.327.239-.321.221-.309.202-.305.188-.299.158-.275.147-.273.125-.257.1-.232.08-.213.056-.177ZM268.146,177.29c.295-1.097,1.424-1.748,2.521-1.454,1.096.295,1.747,1.424,1.452,2.521l-3.973-1.067Z"/>
    <path class="uuid-cfec9b25-a1b4-46a9-bea9-6372ce0a77df" d="M262.34,189.67c-.983.567-2.244.225-2.811-.758-.566-.983-.224-2.244.758-2.81l2.053,3.568h0ZM262.46,189.6l-.121.07-2.053-3.568.122-.07,2.052,3.568h0ZM260.408,186.032c.981-.567,2.244-.225,2.81.758.567.981.225,2.244-.758,2.81l-2.052-3.568Z"/>
    <path class="uuid-cfec9b25-a1b4-46a9-bea9-6372ce0a77df" d="M209.283,197.787c-1.133,0-2.056-.923-2.056-2.056s.923-2.057,2.056-2.057v4.113h0ZM209.331,197.787h-.048v-4.113h.048v4.113h0ZM209.331,193.673c1.133,0,2.057.924,2.057,2.057s-.924,2.056-2.057,2.056v-4.113Z"/>
    <path class="uuid-cfec9b25-a1b4-46a9-bea9-6372ce0a77df" d="M255.028,148.554c1.001.534,1.377,1.785.842,2.786-.533,1.001-1.783,1.376-2.784.842l1.942-3.628h0ZM249.926,150.838l1.376-3.877.103.036.11.036.14.052.118.044.106.04.103.036.136.052.11.044.092.034.136.051.128.052.122.048.106.044.11.044.106.044.11.044.144.058.106.048.096.04.139.06.118.054.132.06.118.058.103.048.096.044.106.048.173.084.114.058.066.034.132.066.14.073.103.056-1.942,3.628-.104-.056-.066-.036-.08-.036-.14-.07-.092-.052-.04-.018-.106-.048-.118-.058-.102-.048-.096-.044-.081-.036-.096-.041-.081-.036-.118-.048-.106-.048-.07-.029-.11-.044-.106-.044-.11-.044-.108-.044-.099-.042-.092-.036-.077-.03-.13-.047-.11-.044-.084-.03-.118-.044-.106-.04-.102-.038-.082-.029-.11-.038-.117-.044ZM249.926,150.838c-1.071-.379-1.63-1.556-1.251-2.627.379-1.071,1.556-1.629,2.627-1.25l-1.376,3.877Z"/>
    <path class="uuid-cfec9b25-a1b4-46a9-bea9-6372ce0a77df" d="M214.099,143.564c1.122-.158,2.166.629,2.325,1.751.158,1.123-.628,2.168-1.751,2.326l-.574-4.077h0ZM205.386,149.713l-1.244-3.923.299-.096.297-.091.31-.092.309-.088.291-.086.309-.088.315-.088.298-.077.309-.084.305-.078.306-.077.313-.078.305-.076.313-.074.317-.074.313-.066.301-.066.317-.07.317-.066.313-.062.319-.062.305-.058.317-.064.321-.054.317-.06.323-.055.305-.052.321-.051.317-.052.323-.048.321-.048.313-.044.574,4.077-.305.044-.298.04-.295.048-.293.044-.299.052-.305.051-.295.048-.295.052-.291.054-.294.056-.305.058-.291.056-.291.062-.294.058-.287.064-.301.066-.291.066-.287.066-.283.066-.291.07-.291.069-.291.078-.283.07-.288.077-.289.078-.273.074-.28.081-.291.084-.279.081-.273.086-.275.084-.284.088ZM205.386,149.713c-1.081.343-2.24-.258-2.583-1.339-.341-1.081.258-2.24,1.34-2.583l1.244,3.923Z"/>
    <path class="uuid-cfec9b25-a1b4-46a9-bea9-6372ce0a77df" d="M191.909,207.453c0-1.133.923-2.057,2.057-2.057s2.056.924,2.056,2.057h-4.113ZM191.909,207.505v-.052h4.113v.052h-4.113ZM196.022,207.505c0,1.133-.923,2.056-2.056,2.056s-2.057-.923-2.057-2.056h4.113Z"/>
    <path class="uuid-cfec9b25-a1b4-46a9-bea9-6372ce0a77df" d="M284.846,318.61c-.773-.827-.725-2.134.104-2.906.827-.772,2.134-.724,2.906.103l-3.01,2.804h0ZM296.469,335.921h-4.113l-.008-.552-.018-.552-.036-.548-.052-.552-.066-.557-.078-.548-.091-.548-.112-.552-.121-.556-.132-.549-.15-.548-.166-.549-.18-.548-.195-.544-.213-.549-.225-.552-.236-.541-.257-.544-.265-.537-.291-.545-.299-.544-.313-.53-.335-.537-.341-.541-.361-.522-.379-.534-.393-.531-.405-.526-.427-.526-.435-.519-.46-.515-.471-.519,3.01-2.804.523.571.511.582.492.584.479.593.463.592.437.596.431.6.413.611.393.608.379.61.364.626.343.618.327.619.317.632.295.633.279.636.262.633.243.636.231.648.21.644.195.644.18.652.162.652.143.65.126.648.114.659.091.658.074.652.058.654.044.659.026.662.008.654h0ZM296.469,335.921c0,1.135-.924,2.057-2.057,2.057s-2.056-.923-2.056-2.057h4.113ZM275.243,365.795l-2.061-3.562-.006.004.919-.545.913-.566.91-.585.905-.61.898-.623.883-.646.879-.666.858-.685.842-.702.828-.722.809-.74.788-.761.762-.774.736-.79.714-.81.684-.827.654-.84.623-.857.588-.876.559-.89.519-.901.482-.916.441-.931.397-.946.361-.961.317-.979.273-.985.227-1.005.176-1.023.132-1.035.074-1.049.03-1.071h4.113l-.03,1.269-.095,1.255-.154,1.24-.214,1.215-.265,1.195-.323,1.177-.376,1.147-.419,1.131-.471,1.107-.514,1.085-.556,1.063-.6,1.035-.634,1.015-.67.986-.702.975-.736.942-.766.923-.788.898-.816.879-.842.854-.86.828-.884.812-.901.788-.916.762-.931.736-.938.716-.957.7-.964.674-.963.648-.975.628-.979.604-.979.581-.008.004h0ZM275.251,365.791c-.979.57-2.245.239-2.815-.74-.57-.979-.239-2.244.74-2.814l2.075,3.554h0ZM175.657,365.791l2.076-3.554.004.004,2.539,1.416,2.634,1.317,2.727,1.218,2.812,1.129,2.88,1.034,2.952.939,3.017.842,3.068.75,3.12.656,3.164.562,3.193.471,3.227.379,3.249.283,3.267.196,3.267.106,3.275.014,3.271-.073,3.257-.162,3.235-.251,3.215-.335,3.179-.423,3.143-.511,3.094-.592,3.039-.678,2.988-.758,2.91-.842,2.848-.92,2.76-1.001,2.679-1.081,2.579-1.155,2.483-1.233,2.377-1.306,2.061,3.562-2.531,1.394-2.631,1.307-2.727,1.221-2.818,1.133-2.9,1.051-2.972.964-3.043.88-3.106.787-3.164.706-3.211.615-3.253.526-3.297.439-3.325.349-3.353.257-3.366.17-3.381.073-3.385-.014-3.385-.106-3.377-.202-3.367-.299-3.345-.393-3.319-.485-3.289-.585-3.245-.684-3.201-.78-3.15-.88-3.09-.981-3.028-1.086-2.958-1.188-2.874-1.291-2.796-1.398-2.7-1.506.003.004h0ZM175.654,365.787c-.979-.574-1.307-1.835-.733-2.814.575-.979,1.837-1.307,2.815-.732l-2.082,3.546h0ZM154.486,335.921h4.113l.03,1.071.073,1.045.132,1.035.18,1.023.221,1.001.273.986.313.979.361.957.401.949.437.931.479.912.518.906.556.887.586.875.618.854.656.842.68.828.71.806.736.794.762.772.788.758.805.744.822.72.842.704.861.684.872.666.886.652.894.626.901.606.909.593.912.562.92.549-2.076,3.554-.979-.585-.979-.606-.975-.629-.967-.652-.96-.676-.953-.696-.938-.718-.928-.742-.915-.762-.902-.788-.879-.809-.862-.832-.835-.854-.816-.875-.792-.902-.762-.923-.728-.938-.706-.972-.666-.993-.629-1.011-.592-1.038-.559-1.059-.511-1.085-.467-1.105-.419-1.133-.373-1.147-.323-1.171-.265-1.199-.21-1.207-.155-1.232-.096-1.259-.029-1.269h0ZM154.486,335.921c0-1.133.923-2.056,2.056-2.056s2.057.923,2.057,2.056h-4.113ZM164.578,314.228l2.886,2.936-.556.553-.531.562-.526.571-.5.562-.475.567-.467.574-.445.574-.423.578-.409.582-.397.585-.367.578-.353.585-.335.588-.321.589-.302.588-.283.589-.265.596-.247.589-.231.588-.21.6-.199.596-.176.601-.162.588-.143.596-.13.604-.11.593-.088.596-.077.596-.06.6-.044.596-.022.6-.01.596h-4.113l.01-.713.03-.711.052-.713.066-.711.092-.713.11-.707.132-.716.151-.7.165-.706.192-.707.213-.702.229-.692.247-.696.269-.698.291-.692.309-.684.327-.685.346-.676.364-.677.387-.67.405-.672.427-.666.441-.659.46-.654.481-.652.505-.648.511-.64.54-.641.559-.628.571-.622.596-.622.614-.619ZM164.578,314.228c.81-.794,2.116-.783,2.91.026.796.81.784,2.116-.025,2.91l-2.886-2.936Z"/>
    <path class="uuid-cfec9b25-a1b4-46a9-bea9-6372ce0a77df" d="M158.6,356.247c0,1.133-.924,2.057-2.057,2.057s-2.056-.924-2.056-2.057h4.113ZM158.6,335.874v20.372h-4.113v-20.372h4.113ZM154.486,335.874c0-1.133.923-2.057,2.056-2.057s2.057.924,2.057,2.057h-4.113Z"/>
    <path class="uuid-cfec9b25-a1b4-46a9-bea9-6372ce0a77df" d="M248.556,134.024c0-1.133.924-2.057,2.057-2.057s2.056.924,2.056,2.057h-4.113ZM250.614,134.024h2.056-2.056ZM248.556,148.925v-14.901h4.113v14.901l-.68,1.528-3.433-1.528h0ZM252.67,148.925c0,1.133-.923,2.057-2.056,2.057s-2.057-.924-2.057-2.057h4.113ZM242.57,153.407l6.668-6.008,2.752,3.054-6.667,6.008-2.753-3.054h0ZM245.323,156.461c-.844.758-2.146.692-2.904-.152-.758-.842-.692-2.144.151-2.902l2.753,3.054Z"/>
    <path class="uuid-cfec9b25-a1b4-46a9-bea9-6372ce0a77df" d="M230.675,197.361c.11,1.129-.714,2.137-1.843,2.248-1.131.11-2.138-.714-2.248-1.844l4.091-.404h0ZM229.965,190.226l.71,7.135-4.091.404-.71-7.134-.012-.202,4.103-.202h0ZM225.874,190.631c-.11-1.129.714-2.138,1.843-2.248,1.129-.11,2.138.714,2.248,1.843l-4.091.405h0ZM229.975,175.505v14.923h-4.113v-14.923h4.113ZM225.862,175.505c0-1.133.924-2.057,2.057-2.057s2.056.924,2.056,2.057h-4.113Z"/>
  </g>
  <line class="uuid-11ffbf6b-8657-4a31-912f-320d1836c19e" x1="193.892" y1="147.557" x2="187.906" y2="144.113"/>
  <line class="uuid-11ffbf6b-8657-4a31-912f-320d1836c19e" x1="215.1" y1="195.358" x2="212.948" y2="194.119"/>
  <line class="uuid-11ffbf6b-8657-4a31-912f-320d1836c19e" x1="226.233" y1="188.769" x2="215.56" y2="182.587"/>
  <line class="uuid-11ffbf6b-8657-4a31-912f-320d1836c19e" x1="226.771" y1="176.039" x2="199.999" y2="160.552"/>
  <line class="uuid-11ffbf6b-8657-4a31-912f-320d1836c19e" x1="242.331" y1="171.984" x2="205.692" y2="150.832"/>
  <line class="uuid-11ffbf6b-8657-4a31-912f-320d1836c19e" x1="257.015" y1="167.391" x2="234.247" y2="154.275"/>
  <line class="uuid-11ffbf6b-8657-4a31-912f-320d1836c19e" x1="224.671" y1="135.098" x2="219.442" y2="132.07"/>
  <line class="uuid-11ffbf6b-8657-4a31-912f-320d1836c19e" x1="269.959" y1="155.081" x2="258.943" y2="148.73"/>
  <line class="uuid-11ffbf6b-8657-4a31-912f-320d1836c19e" x1="228.798" y1="150.294" x2="228.798" y2="138.737"/>
  <line class="uuid-11ffbf6b-8657-4a31-912f-320d1836c19e" x1="240.061" y1="151.953" x2="240.061" y2="140.62"/>
  <line class="uuid-11ffbf6b-8657-4a31-912f-320d1836c19e" x1="242.798" y1="178.802" x2="238.254" y2="176.185"/>
  <line class="uuid-11ffbf6b-8657-4a31-912f-320d1836c19e" x1="256.6" y1="173.72" x2="251.665" y2="170.861"/>
  <line class="uuid-11ffbf6b-8657-4a31-912f-320d1836c19e" x1="203.76" y1="177.286" x2="187.615" y2="167.955"/>
  <line class="uuid-11ffbf6b-8657-4a31-912f-320d1836c19e" x1="200.757" y1="156.497" x2="200.757" y2="145.846"/>
  <line class="uuid-11ffbf6b-8657-4a31-912f-320d1836c19e" x1="188.542" y1="201.934" x2="188.542" y2="173.084"/>
  <line class="uuid-11ffbf6b-8657-4a31-912f-320d1836c19e" x1="199.879" y1="208.969" x2="199.879" y2="179.166"/>
  <line class="uuid-11ffbf6b-8657-4a31-912f-320d1836c19e" x1="211.137" y1="211.949" x2="211.137" y2="197.732"/>
  <line class="uuid-11ffbf6b-8657-4a31-912f-320d1836c19e" x1="222.4" y1="213.317" x2="222.4" y2="199.006"/>
  <line class="uuid-11ffbf6b-8657-4a31-912f-320d1836c19e" x1="233.736" y1="213.538" x2="233.736" y2="183.367"/>
  <line class="uuid-11ffbf6b-8657-4a31-912f-320d1836c19e" x1="244.994" y1="211.508" x2="244.994" y2="181.44"/>
  <line class="uuid-11ffbf6b-8657-4a31-912f-320d1836c19e" x1="256.257" y1="207.162" x2="256.257" y2="177.381"/>
  <line class="uuid-11ffbf6b-8657-4a31-912f-320d1836c19e" x1="267.59" y1="196.437" x2="267.59" y2="184.883"/>
  <line class="uuid-11ffbf6b-8657-4a31-912f-320d1836c19e" x1="166.363" y1="374.444" x2="166.363" y2="358.98"/>
  <line class="uuid-11ffbf6b-8657-4a31-912f-320d1836c19e" x1="177.696" y1="383.164" x2="177.696" y2="366.557"/>
  <line class="uuid-11ffbf6b-8657-4a31-912f-320d1836c19e" x1="188.959" y1="388.345" x2="188.959" y2="371.248"/>
  <line class="uuid-11ffbf6b-8657-4a31-912f-320d1836c19e" x1="200.217" y1="391.668" x2="200.217" y2="374.372"/>
  <line class="uuid-11ffbf6b-8657-4a31-912f-320d1836c19e" x1="211.553" y1="393.596" x2="211.553" y2="376.325"/>
  <line class="uuid-11ffbf6b-8657-4a31-912f-320d1836c19e" x1="222.816" y1="394.405" x2="222.816" y2="377.13"/>
  <line class="uuid-11ffbf6b-8657-4a31-912f-320d1836c19e" x1="234.126" y1="394.133" x2="234.126" y2="376.841"/>
  <line class="uuid-11ffbf6b-8657-4a31-912f-320d1836c19e" x1="245.411" y1="392.764" x2="245.411" y2="375.445"/>
  <line class="uuid-11ffbf6b-8657-4a31-912f-320d1836c19e" x1="256.721" y1="390.13" x2="256.721" y2="373.002"/>
  <line class="uuid-11ffbf6b-8657-4a31-912f-320d1836c19e" x1="267.983" y1="385.902" x2="267.983" y2="369.12"/>
  <line class="uuid-11ffbf6b-8657-4a31-912f-320d1836c19e" x1="279.268" y1="379.331" x2="279.268" y2="362.987"/>
  <line class="uuid-11ffbf6b-8657-4a31-912f-320d1836c19e" x1="290.579" y1="365.187" x2="290.579" y2="352.24"/>
  <line class="uuid-11ffbf6b-8657-4a31-912f-320d1836c19e" x1="216.951" y1="373.223" x2="204.981" y2="366.31"/>
  <line class="uuid-11ffbf6b-8657-4a31-912f-320d1836c19e" x1="164.457" y1="342.93" x2="158.983" y2="339.755"/>
  <line class="uuid-11ffbf6b-8657-4a31-912f-320d1836c19e" x1="238.791" y1="372.808" x2="230.192" y2="367.826"/>
  <line class="uuid-11ffbf6b-8657-4a31-912f-320d1836c19e" x1="163.405" y1="329.277" x2="160.281" y2="327.444"/>
  <line class="uuid-11ffbf6b-8657-4a31-912f-320d1836c19e" x1="255.864" y1="369.607" x2="249.711" y2="366.067"/>
  <line class="uuid-11ffbf6b-8657-4a31-912f-320d1836c19e" x1="269.375" y1="364.403" x2="265.15" y2="361.938"/>
  <line class="uuid-11ffbf6b-8657-4a31-912f-320d1836c19e" x1="280.243" y1="357.616" x2="276.531" y2="355.488"/>
  <line class="uuid-11ffbf6b-8657-4a31-912f-320d1836c19e" x1="288.209" y1="349.185" x2="285.229" y2="347.475"/>
  <line class="uuid-11ffbf6b-8657-4a31-912f-320d1836c19e" x1="292.021" y1="338.339" x2="288.429" y2="336.264"/>
  <line class="uuid-11ffbf6b-8657-4a31-912f-320d1836c19e" x1="285.593" y1="338.023" x2="241.208" y2="363.671"/>
  <line class="uuid-11ffbf6b-8657-4a31-912f-320d1836c19e" x1="286.745" y1="324.343" x2="216.535" y2="364.868"/>
  <line class="uuid-11ffbf6b-8657-4a31-912f-320d1836c19e" x1="286.988" y1="311.177" x2="196.92" y2="363.182"/>
  <line class="uuid-11ffbf6b-8657-4a31-912f-320d1836c19e" x1="285.766" y1="298.841" x2="181.824" y2="358.837"/>
  <line class="uuid-11ffbf6b-8657-4a31-912f-320d1836c19e" x1="283.275" y1="287.262" x2="170.951" y2="352.093"/>
  <line class="uuid-11ffbf6b-8657-4a31-912f-320d1836c19e" x1="279.784" y1="276.246" x2="164.163" y2="342.956"/>
  <line class="uuid-11ffbf6b-8657-4a31-912f-320d1836c19e" x1="275.604" y1="265.594" x2="163.82" y2="330.157"/>
  <line class="uuid-11ffbf6b-8657-4a31-912f-320d1836c19e" x1="271.254" y1="255.089" x2="164.799" y2="316.524"/>
  <line class="uuid-11ffbf6b-8657-4a31-912f-320d1836c19e" x1="267.079" y1="244.464" x2="167.165" y2="302.138"/>
  <line class="uuid-11ffbf6b-8657-4a31-912f-320d1836c19e" x1="263.34" y1="233.569" x2="171.467" y2="286.604"/>
  <line class="uuid-11ffbf6b-8657-4a31-912f-320d1836c19e" x1="260.433" y1="222.233" x2="177.816" y2="269.918"/>
  <line class="uuid-11ffbf6b-8657-4a31-912f-320d1836c19e" x1="258.579" y1="210.264" x2="184.366" y2="253.088"/>
  <line class="uuid-11ffbf6b-8657-4a31-912f-320d1836c19e" x1="225.354" y1="216.394" x2="190.401" y2="236.571"/>
  <line class="uuid-11ffbf6b-8657-4a31-912f-320d1836c19e" x1="206.497" y1="214.245" x2="194.234" y2="221.331"/>
</svg>