<?xml version="1.0" encoding="UTF-8"?>
<svg id="uuid-09037251-6f8a-4122-9ea5-24a5fe2ac404" data-name="&amp;lt;Layer&amp;gt;" xmlns="http://www.w3.org/2000/svg" viewBox="0 0 451.11 451.11">
  <defs>
    <style>
      .uuid-94f4d791-0cae-4015-88c5-ebd1a3815858, .uuid-9da5c5c7-2e22-49a2-ab2b-6d8468110aff, .uuid-956f567f-e511-443d-97d1-316f4a816904 {
        fill: none;
        stroke: #000;
        stroke-linecap: round;
      }

      .uuid-94f4d791-0cae-4015-88c5-ebd1a3815858, .uuid-956f567f-e511-443d-97d1-316f4a816904 {
        stroke-linejoin: round;
        stroke-width: 4.117px;
      }

      .uuid-9da5c5c7-2e22-49a2-ab2b-6d8468110aff {
        stroke-miterlimit: 10;
        stroke-width: 1.163px;
      }

      .uuid-956f567f-e511-443d-97d1-316f4a816904 {
        fill-rule: evenodd;
      }
    </style>
  </defs>
  <path class="uuid-956f567f-e511-443d-97d1-316f4a816904" d="M317.866,243.029c7.499,2.148,14.291,2.028,20.104-.243"/>
  <polyline class="uuid-956f567f-e511-443d-97d1-316f4a816904" points="108.932 210.809 273.503 115.737 275.41 115.101"/>
  <path class="uuid-956f567f-e511-443d-97d1-316f4a816904" d="M275.41,115.101c4.08-1.173,8.672-1.221,12.848-.585,11.948,1.807,23.743,9.648,32.394,17.783,18.467,17.245,33.173,44.752,35.249,70.084.757,8.696,0,18.515-3.714,26.529-1.442,3.15-3.59,6.277-6.033,8.72"/>
  <polyline class="uuid-956f567f-e511-443d-97d1-316f4a816904" points="346.154 237.631 344.642 238.974 180.067 333.975"/>
  <path class="uuid-956f567f-e511-443d-97d1-316f4a816904" d="M180.067,333.975c1.051-.927,1.905-1.759,2.906-2.784,2.906-3.323,5.06-7.499,6.329-11.627,3.76-11.774,2.369-26.065-.758-37.864-6.325-23.448-22.231-48.491-42.336-62.413-7.719-5.35-17.488-9.989-27.065-10.163-2.664-.073-5.74.294-8.305,1.027"/>
  <path class="uuid-956f567f-e511-443d-97d1-316f4a816904" d="M266.885,119.619q-.048.073-.122.121c-4.764,3.786-8.303,9.652-10.114,17.249"/>
  <path class="uuid-956f567f-e511-443d-97d1-316f4a816904" d="M269.913,117.47c9.404-5.449,15.49-7.719,27.411-4.396,46.143,12.947,81.465,94.707,53.13,122.066-2.785,2.664-5.766,4.176-9.065,6.082"/>
  <polyline class="uuid-956f567f-e511-443d-97d1-316f4a816904" points="253.179 139.308 251.567 139.845 274.309 126.705 275.947 126.19"/>
  <path class="uuid-956f567f-e511-443d-97d1-316f4a816904" d="M275.947,126.19c3.542-1.047,7.502-1.099,11.089-.536,10.288,1.589,20.373,8.329,27.876,15.29,15.85,14.854,28.507,38.549,30.314,60.339.633,7.472.048,15.976-3.201,22.889-1.221,2.664-3.08,5.398-5.224,7.425"/>
  <polyline class="uuid-956f567f-e511-443d-97d1-316f4a816904" points="336.8 231.597 335.527 232.745 312.759 245.888"/>
  <path class="uuid-956f567f-e511-443d-97d1-316f4a816904" d="M279.197,244.766c-23.99-13.802-43.435-47.564-43.435-75.266s19.445-39.009,43.435-25.133c24.036,13.874,43.507,47.607,43.507,75.309s-19.471,38.991-43.507,25.09Z"/>
  <path class="uuid-956f567f-e511-443d-97d1-316f4a816904" d="M141.032,332.681c-27.872-16.124-50.518-55.279-50.518-87.504s22.646-45.286,50.518-29.14c27.945,16.075,50.54,55.282,50.54,87.502s-22.595,45.242-50.54,29.141Z"/>
  <path class="uuid-956f567f-e511-443d-97d1-316f4a816904" d="M141.032,316.657c-20.203-11.653-36.57-40.061-36.57-63.466s16.366-32.806,36.57-21.13c20.273,11.678,36.665,40.064,36.665,63.464s-16.391,32.81-36.665,21.131Z"/>
  <path class="uuid-956f567f-e511-443d-97d1-316f4a816904" d="M145.918,298.897c8.426-4.809,16.146-6.961,12.554-22.426-3.149-13.581-17.709-30.752-28.871-24.914"/>
  <path class="uuid-956f567f-e511-443d-97d1-316f4a816904" d="M133.654,297.675c9.6,5.57,17.367,1.053,17.367-10.037s-7.767-24.575-17.367-30.145c-9.625-5.523-17.418-1.049-17.418,10.04s7.793,24.623,17.418,30.142Z"/>
  <path class="uuid-956f567f-e511-443d-97d1-316f4a816904" d="M105.342,212.472c9.404-5.376,15.486-7.719,27.381-4.396,48.859,13.654,84.792,103.6,48.395,125.657"/>
  <path class="uuid-956f567f-e511-443d-97d1-316f4a816904" d="M176.818,336.223c24.379-15.438,13.706-55.745,3.249-76.46-11.138-22.011-36.765-51.91-63.072-50.588-4.522.169-7.719,1.269-11.652,3.297"/>
  <line class="uuid-94f4d791-0cae-4015-88c5-ebd1a3815858" x1="129.6" y1="251.557" x2="121.344" y2="256.318"/>
  <line class="uuid-9da5c5c7-2e22-49a2-ab2b-6d8468110aff" x1="180.067" y1="331.121" x2="170.246" y2="336.809"/>
  <line class="uuid-9da5c5c7-2e22-49a2-ab2b-6d8468110aff" x1="190.107" y1="312.308" x2="149.457" y2="335.782"/>
  <line class="uuid-9da5c5c7-2e22-49a2-ab2b-6d8468110aff" x1="189.765" y1="299.485" x2="178.212" y2="306.152"/>
  <line class="uuid-9da5c5c7-2e22-49a2-ab2b-6d8468110aff" x1="150.095" y1="322.349" x2="138.441" y2="329.089"/>
  <line class="uuid-9da5c5c7-2e22-49a2-ab2b-6d8468110aff" x1="187.959" y1="287.465" x2="179.433" y2="292.377"/>
  <line class="uuid-9da5c5c7-2e22-49a2-ab2b-6d8468110aff" x1="137.562" y1="316.557" x2="128.842" y2="321.617"/>
  <line class="uuid-9da5c5c7-2e22-49a2-ab2b-6d8468110aff" x1="184.878" y1="276.206" x2="177.502" y2="280.43"/>
  <line class="uuid-9da5c5c7-2e22-49a2-ab2b-6d8468110aff" x1="128.157" y1="308.938" x2="120.659" y2="313.286"/>
  <line class="uuid-9da5c5c7-2e22-49a2-ab2b-6d8468110aff" x1="180.825" y1="265.503" x2="173.91" y2="269.51"/>
  <line class="uuid-9da5c5c7-2e22-49a2-ab2b-6d8468110aff" x1="120.486" y1="300.339" x2="113.525" y2="304.346"/>
  <line class="uuid-9da5c5c7-2e22-49a2-ab2b-6d8468110aff" x1="175.647" y1="255.466" x2="168.977" y2="259.347"/>
  <line class="uuid-9da5c5c7-2e22-49a2-ab2b-6d8468110aff" x1="114.114" y1="290.983" x2="107.37" y2="294.89"/>
  <line class="uuid-9da5c5c7-2e22-49a2-ab2b-6d8468110aff" x1="169.54" y1="245.936" x2="162.821" y2="249.821"/>
  <line class="uuid-9da5c5c7-2e22-49a2-ab2b-6d8468110aff" x1="108.98" y1="280.967" x2="102.141" y2="284.9"/>
  <line class="uuid-9da5c5c7-2e22-49a2-ab2b-6d8468110aff" x1="162.527" y1="236.947" x2="155.396" y2="241.127"/>
  <line class="uuid-9da5c5c7-2e22-49a2-ab2b-6d8468110aff" x1="105.148" y1="270.098" x2="97.796" y2="274.395"/>
  <line class="uuid-9da5c5c7-2e22-49a2-ab2b-6d8468110aff" x1="154.638" y1="228.522" x2="146.33" y2="233.333"/>
  <line class="uuid-9da5c5c7-2e22-49a2-ab2b-6d8468110aff" x1="102.899" y1="258.372" x2="94.469" y2="263.233"/>
  <line class="uuid-9da5c5c7-2e22-49a2-ab2b-6d8468110aff" x1="145.402" y1="220.802" x2="134.534" y2="227.054"/>
  <line class="uuid-9da5c5c7-2e22-49a2-ab2b-6d8468110aff" x1="103.413" y1="245.057" x2="92.493" y2="251.337"/>
  <line class="uuid-9da5c5c7-2e22-49a2-ab2b-6d8468110aff" x1="134.95" y1="213.763" x2="91.615" y2="238.78"/>
  <line class="uuid-9da5c5c7-2e22-49a2-ab2b-6d8468110aff" x1="117.41" y1="210.86" x2="97.892" y2="222.119"/>
  <line class="uuid-9da5c5c7-2e22-49a2-ab2b-6d8468110aff" x1="358.464" y1="208.196" x2="358.221" y2="208.66"/>
  <line class="uuid-9da5c5c7-2e22-49a2-ab2b-6d8468110aff" x1="356.436" y1="189.094" x2="356.021" y2="189.826"/>
  <line class="uuid-9da5c5c7-2e22-49a2-ab2b-6d8468110aff" x1="351.896" y1="174.386" x2="351.503" y2="175.097"/>
  <line class="uuid-9da5c5c7-2e22-49a2-ab2b-6d8468110aff" x1="346.154" y1="161.733" x2="345.811" y2="162.443"/>
  <line class="uuid-9da5c5c7-2e22-49a2-ab2b-6d8468110aff" x1="339.582" y1="150.522" x2="339.191" y2="151.228"/>
  <line class="uuid-9da5c5c7-2e22-49a2-ab2b-6d8468110aff" x1="332.326" y1="140.581" x2="331.913" y2="141.339"/>
  <line class="uuid-9da5c5c7-2e22-49a2-ab2b-6d8468110aff" x1="324.316" y1="131.883" x2="323.901" y2="132.567"/>
  <line class="uuid-9da5c5c7-2e22-49a2-ab2b-6d8468110aff" x1="315.544" y1="124.505" x2="315.253" y2="124.969"/>
  <line class="uuid-9da5c5c7-2e22-49a2-ab2b-6d8468110aff" x1="305.92" y1="118.645" x2="305.849" y2="118.691"/>
  <line class="uuid-9da5c5c7-2e22-49a2-ab2b-6d8468110aff" x1="330.421" y1="242.518" x2="328.444" y2="239.026"/>
  <line class="uuid-9da5c5c7-2e22-49a2-ab2b-6d8468110aff" x1="265.321" y1="129.683" x2="263.345" y2="126.238"/>
  <line class="uuid-9da5c5c7-2e22-49a2-ab2b-6d8468110aff" x1="341.341" y1="238.732" x2="338.022" y2="233.04"/>
  <line class="uuid-9da5c5c7-2e22-49a2-ab2b-6d8468110aff" x1="275.314" y1="124.432" x2="271.991" y2="118.691"/>
  <line class="uuid-9da5c5c7-2e22-49a2-ab2b-6d8468110aff" x1="349.453" y1="230.302" x2="344.81" y2="222.241"/>
  <line class="uuid-9da5c5c7-2e22-49a2-ab2b-6d8468110aff" x1="288.089" y1="123.92" x2="283.45" y2="115.907"/>
  <line class="uuid-9da5c5c7-2e22-49a2-ab2b-6d8468110aff" x1="353.994" y1="215.574" x2="347.253" y2="203.947"/>
  <line class="uuid-9da5c5c7-2e22-49a2-ab2b-6d8468110aff" x1="305.165" y1="131.003" x2="298.469" y2="119.351"/>
  <line class="uuid-9da5c5c7-2e22-49a2-ab2b-6d8468110aff" x1="352.603" y1="190.583" x2="319.43" y2="133.03"/>
  <line class="uuid-9da5c5c7-2e22-49a2-ab2b-6d8468110aff" x1="344.004" y1="204.921" x2="325.585" y2="236.8"/>
  <line class="uuid-9da5c5c7-2e22-49a2-ab2b-6d8468110aff" x1="336.237" y1="173.287" x2="321.067" y2="199.476"/>
  <line class="uuid-9da5c5c7-2e22-49a2-ab2b-6d8468110aff" x1="322.8" y1="151.401" x2="309.756" y2="173.923"/>
  <line class="uuid-9da5c5c7-2e22-49a2-ab2b-6d8468110aff" x1="305.97" y1="135.378" x2="294.755" y2="154.772"/>
  <line class="uuid-9da5c5c7-2e22-49a2-ab2b-6d8468110aff" x1="284.715" y1="126.948" x2="276.531" y2="141.165"/>
  <line class="uuid-9da5c5c7-2e22-49a2-ab2b-6d8468110aff" x1="316.35" y1="239.073" x2="299.179" y2="248.942"/>
  <line class="uuid-9da5c5c7-2e22-49a2-ab2b-6d8468110aff" x1="321.825" y1="222.877" x2="282.445" y2="245.571"/>
  <line class="uuid-9da5c5c7-2e22-49a2-ab2b-6d8468110aff" x1="321.703" y1="209.929" x2="271.307" y2="239.026"/>
  <line class="uuid-9da5c5c7-2e22-49a2-ab2b-6d8468110aff" x1="319.383" y1="198.207" x2="262.292" y2="231.133"/>
  <line class="uuid-9da5c5c7-2e22-49a2-ab2b-6d8468110aff" x1="315.544" y1="187.382" x2="254.794" y2="222.461"/>
  <line class="uuid-9da5c5c7-2e22-49a2-ab2b-6d8468110aff" x1="310.562" y1="177.219" x2="248.539" y2="213.057"/>
  <line class="uuid-9da5c5c7-2e22-49a2-ab2b-6d8468110aff" x1="304.407" y1="167.767" x2="243.432" y2="202.968"/>
  <line class="uuid-9da5c5c7-2e22-49a2-ab2b-6d8468110aff" x1="297.078" y1="158.948" x2="239.478" y2="192.22"/>
  <line class="uuid-9da5c5c7-2e22-49a2-ab2b-6d8468110aff" x1="288.31" y1="150.986" x2="236.983" y2="180.594"/>
  <line class="uuid-9da5c5c7-2e22-49a2-ab2b-6d8468110aff" x1="277.463" y1="144.193" x2="236.497" y2="167.841"/>
  <line class="uuid-9da5c5c7-2e22-49a2-ab2b-6d8468110aff" x1="261.951" y1="140.14" x2="240.699" y2="152.377"/>
  <line class="uuid-9da5c5c7-2e22-49a2-ab2b-6d8468110aff" x1="193.941" y1="300.07" x2="193.598" y2="300.633"/>
  <line class="uuid-9da5c5c7-2e22-49a2-ab2b-6d8468110aff" x1="191.329" y1="281.994" x2="190.913" y2="282.751"/>
  <line class="uuid-9da5c5c7-2e22-49a2-ab2b-6d8468110aff" x1="186.637" y1="267.533" x2="186.1" y2="268.413"/>
  <line class="uuid-9da5c5c7-2e22-49a2-ab2b-6d8468110aff" x1="180.751" y1="255.097" x2="180.287" y2="255.929"/>
  <line class="uuid-9da5c5c7-2e22-49a2-ab2b-6d8468110aff" x1="174.131" y1="244.081" x2="173.617" y2="244.935"/>
  <line class="uuid-9da5c5c7-2e22-49a2-ab2b-6d8468110aff" x1="166.703" y1="234.261" x2="166.191" y2="235.188"/>
  <line class="uuid-9da5c5c7-2e22-49a2-ab2b-6d8468110aff" x1="158.642" y1="225.736" x2="158.177" y2="226.542"/>
  <line class="uuid-9da5c5c7-2e22-49a2-ab2b-6d8468110aff" x1="149.752" y1="218.528" x2="149.41" y2="219.09"/>
</svg>