<?xml version="1.0" encoding="UTF-8"?>
<svg id="uuid-52708ed8-66da-461e-95a2-529e3484c3d1" data-name="&amp;lt;Layer&amp;gt;" xmlns="http://www.w3.org/2000/svg" viewBox="0 0 451.11 451.11">
  <defs>
    <style>
      .uuid-b97d2a60-d0f1-43a7-90c8-09623a943a1f, .uuid-80233b36-078d-43f2-b8de-cbb3d79ecf29, .uuid-f052fb2b-1c9b-4260-900d-d2508bbc0669, .uuid-2679f906-623c-4665-a19e-4b654aab7996, .uuid-f4414e9d-08e6-4d90-82f2-d756571961e0 {
        fill: none;
        stroke: #000;
        stroke-linecap: round;
      }

      .uuid-b97d2a60-d0f1-43a7-90c8-09623a943a1f, .uuid-80233b36-078d-43f2-b8de-cbb3d79ecf29, .uuid-f052fb2b-1c9b-4260-900d-d2508bbc0669, .uuid-f4414e9d-08e6-4d90-82f2-d756571961e0 {
        stroke-linejoin: round;
      }

      .uuid-b97d2a60-d0f1-43a7-90c8-09623a943a1f, .uuid-f4414e9d-08e6-4d90-82f2-d756571961e0 {
        stroke-width: 4.117px;
      }

      .uuid-80233b36-078d-43f2-b8de-cbb3d79ecf29 {
        stroke-width: 4.113px;
      }

      .uuid-f052fb2b-1c9b-4260-900d-d2508bbc0669 {
        stroke-width: 4.109px;
      }

      .uuid-2679f906-623c-4665-a19e-4b654aab7996 {
        stroke-miterlimit: 10;
        stroke-width: 1.163px;
      }

      .uuid-f4414e9d-08e6-4d90-82f2-d756571961e0 {
        fill-rule: evenodd;
      }
    </style>
  </defs>
  <g>
    <line class="uuid-f052fb2b-1c9b-4260-900d-d2508bbc0669" x1="326.823" y1="166.828" x2="313.003" y2="174.78"/>
    <line class="uuid-b97d2a60-d0f1-43a7-90c8-09623a943a1f" x1="312.955" y1="174.81" x2="299.135" y2="182.76"/>
    <line class="uuid-80233b36-078d-43f2-b8de-cbb3d79ecf29" x1="299.087" y1="182.794" x2="285.268" y2="190.742"/>
    <line class="uuid-f052fb2b-1c9b-4260-900d-d2508bbc0669" x1="313.029" y1="190.726" x2="313.007" y2="174.776"/>
    <line class="uuid-f052fb2b-1c9b-4260-900d-d2508bbc0669" x1="313.003" y1="174.776" x2="326.871" y2="166.792"/>
    <line class="uuid-f052fb2b-1c9b-4260-900d-d2508bbc0669" x1="326.871" y1="166.792" x2="326.848" y2="182.782"/>
    <line class="uuid-f052fb2b-1c9b-4260-900d-d2508bbc0669" x1="326.848" y1="182.778" x2="313.029" y2="190.726"/>
    <line class="uuid-80233b36-078d-43f2-b8de-cbb3d79ecf29" x1="299.157" y1="198.711" x2="299.135" y2="182.756"/>
    <line class="uuid-80233b36-078d-43f2-b8de-cbb3d79ecf29" x1="299.135" y1="182.756" x2="313.003" y2="174.776"/>
    <line class="uuid-f052fb2b-1c9b-4260-900d-d2508bbc0669" x1="312.999" y1="174.776" x2="312.977" y2="190.764"/>
    <line class="uuid-80233b36-078d-43f2-b8de-cbb3d79ecf29" x1="312.977" y1="190.76" x2="299.157" y2="198.711"/>
    <line class="uuid-f052fb2b-1c9b-4260-900d-d2508bbc0669" x1="285.29" y1="206.691" x2="285.268" y2="190.742"/>
    <line class="uuid-f052fb2b-1c9b-4260-900d-d2508bbc0669" x1="285.268" y1="190.742" x2="299.135" y2="182.756"/>
    <line class="uuid-f052fb2b-1c9b-4260-900d-d2508bbc0669" x1="299.132" y1="182.756" x2="299.109" y2="198.744"/>
    <line class="uuid-b97d2a60-d0f1-43a7-90c8-09623a943a1f" x1="299.109" y1="198.744" x2="285.29" y2="206.691"/>
    <line class="uuid-f052fb2b-1c9b-4260-900d-d2508bbc0669" x1="313.047" y1="206.677" x2="313.025" y2="190.726"/>
    <line class="uuid-f052fb2b-1c9b-4260-900d-d2508bbc0669" x1="313.025" y1="190.726" x2="326.893" y2="182.746"/>
    <line class="uuid-f052fb2b-1c9b-4260-900d-d2508bbc0669" x1="326.889" y1="182.742" x2="326.867" y2="198.733"/>
    <line class="uuid-f052fb2b-1c9b-4260-900d-d2508bbc0669" x1="326.867" y1="198.729" x2="313.051" y2="206.68"/>
    <line class="uuid-80233b36-078d-43f2-b8de-cbb3d79ecf29" x1="299.179" y1="214.661" x2="299.157" y2="198.711"/>
    <line class="uuid-80233b36-078d-43f2-b8de-cbb3d79ecf29" x1="299.157" y1="198.707" x2="313.025" y2="190.726"/>
    <line class="uuid-f052fb2b-1c9b-4260-900d-d2508bbc0669" x1="313.021" y1="190.726" x2="312.999" y2="206.713"/>
    <line class="uuid-b97d2a60-d0f1-43a7-90c8-09623a943a1f" x1="312.999" y1="206.71" x2="299.179" y2="214.661"/>
    <line class="uuid-f052fb2b-1c9b-4260-900d-d2508bbc0669" x1="285.312" y1="222.641" x2="285.29" y2="206.691"/>
    <line class="uuid-f052fb2b-1c9b-4260-900d-d2508bbc0669" x1="285.287" y1="206.691" x2="299.154" y2="198.707"/>
    <line class="uuid-f052fb2b-1c9b-4260-900d-d2508bbc0669" x1="299.154" y1="198.707" x2="299.132" y2="214.694"/>
    <line class="uuid-80233b36-078d-43f2-b8de-cbb3d79ecf29" x1="299.132" y1="214.694" x2="285.312" y2="222.641"/>
    <line class="uuid-f052fb2b-1c9b-4260-900d-d2508bbc0669" x1="313.073" y1="222.627" x2="313.051" y2="206.677"/>
    <line class="uuid-f052fb2b-1c9b-4260-900d-d2508bbc0669" x1="313.047" y1="206.677" x2="326.915" y2="198.692"/>
    <line class="uuid-f052fb2b-1c9b-4260-900d-d2508bbc0669" x1="326.915" y1="198.692" x2="326.893" y2="214.683"/>
    <line class="uuid-f052fb2b-1c9b-4260-900d-d2508bbc0669" x1="326.893" y1="214.679" x2="313.073" y2="222.627"/>
    <line class="uuid-80233b36-078d-43f2-b8de-cbb3d79ecf29" x1="299.205" y1="230.607" x2="299.179" y2="214.657"/>
    <line class="uuid-80233b36-078d-43f2-b8de-cbb3d79ecf29" x1="299.179" y1="214.657" x2="313.047" y2="206.677"/>
    <line class="uuid-f052fb2b-1c9b-4260-900d-d2508bbc0669" x1="313.047" y1="206.677" x2="313.025" y2="222.663"/>
    <line class="uuid-80233b36-078d-43f2-b8de-cbb3d79ecf29" x1="313.025" y1="222.659" x2="299.205" y2="230.611"/>
    <line class="uuid-f052fb2b-1c9b-4260-900d-d2508bbc0669" x1="285.335" y1="238.591" x2="285.312" y2="222.641"/>
    <line class="uuid-f052fb2b-1c9b-4260-900d-d2508bbc0669" x1="285.312" y1="222.641" x2="299.179" y2="214.657"/>
    <line class="uuid-80233b36-078d-43f2-b8de-cbb3d79ecf29" x1="299.176" y1="214.657" x2="299.154" y2="230.643"/>
    <line class="uuid-80233b36-078d-43f2-b8de-cbb3d79ecf29" x1="299.154" y1="230.643" x2="285.335" y2="238.591"/>
  </g>
  <path class="uuid-f4414e9d-08e6-4d90-82f2-d756571961e0" d="M181.984,350.646v-115.2c.343-8.014,4.813-15.807,11.605-20.105"/>
  <polyline class="uuid-f4414e9d-08e6-4d90-82f2-d756571961e0" points="193.589 215.341 323.912 140.101 329.652 136.754"/>
  <path class="uuid-f4414e9d-08e6-4d90-82f2-d756571961e0" d="M193.589,361.861c-3.323,1.929-6.329,1.979-8.429.537-.295-.173-.511-.415-.733-.662-.536-.339-1.001-.901-1.294-1.56-.343-.515-.511-1.099-.685-1.685-.291-.979-.463-2.079-.463-3.375M181.984,235.446c0-.585.048-1.101.096-1.638.077-.979.247-1.979.541-2.954.047-.415.169-.758.269-1.148,0-.074,0-.126.073-.174.243-.953.585-1.805.975-2.734"/>
  <path class="uuid-f4414e9d-08e6-4d90-82f2-d756571961e0" d="M184.011,226.799v-.073c.048-.222.173-.391.269-.563.147-.247.317-.537.369-.758.293-.463.511-.953.757-1.392.17-.247.269-.54.465-.758,0-.073.047-.073.047-.121.343-.637.758-1.221,1.175-1.737.559-.832,1.221-1.512,1.853-2.222.685-.754,1.443-1.442,2.2-2.075,0-.074.07-.121.122-.121.758-.637,1.512-1.149,2.322-1.638"/>
  <path class="uuid-f4414e9d-08e6-4d90-82f2-d756571961e0" d="M329.7,136.78c.931-.511,1.809-.928,2.615-1.173.243-.096.463-.17.706-.17.585-.173,1.149-.221,1.664-.221.537,0,1.001,0,1.416.173.343.048.758.17,1.101.343.047,0,.047.048.121.048.048,0,.096,0,.17.073.047,0,.121,0,.173.048,2.27,1.101,3.664,3.712,3.664,7.546v102.04"/>
  <path class="uuid-f4414e9d-08e6-4d90-82f2-d756571961e0" d="M341.33,260.826v2.322c0,6.372-3.911,13.996-9.066,18.294"/>
  <path class="uuid-f4414e9d-08e6-4d90-82f2-d756571961e0" d="M196.323,242.285v76.315c0,1.147.806,1.611,1.785,1.048"/>
  <path class="uuid-f4414e9d-08e6-4d90-82f2-d756571961e0" d="M326.967,237.179v-9.405l-8.114,4.714M291.081,258.261v3.371l2.956-1.685M282.678,253.375v9.699l8.355-4.864"/>
  <polyline class="uuid-f4414e9d-08e6-4d90-82f2-d756571961e0" points="300.607 287.306 300.607 282.13 296.088 284.715"/>
  <path class="uuid-f4414e9d-08e6-4d90-82f2-d756571961e0" d="M103.058,176.502c-2.1,3.907-3.201,6.961-3.37,11.431v119.698c.291,3.638.463,5.128,3.37,7.498"/>
  <path class="uuid-f4414e9d-08e6-4d90-82f2-d756571961e0" d="M185.405,362.641c-2.906-2.391-3.079-3.859-3.422-7.499v-119.696c.173-4.47,1.269-7.524,3.422-11.433"/>
  <polyline class="uuid-f4414e9d-08e6-4d90-82f2-d756571961e0" points="198.938 340.853 198.938 346.765 204.848 343.343"/>
  <polyline class="uuid-f4414e9d-08e6-4d90-82f2-d756571961e0" points="314.192 271.573 282.604 253.375 318.853 232.488 350.393 250.69"/>
  <path class="uuid-f4414e9d-08e6-4d90-82f2-d756571961e0" d="M318.783,262.853c-.684.415-1.857.415-2.541,0-2.613-1.516-5.302-3.054-7.889-4.57-.71-.389-.71-1.073,0-1.464,1.833-1.075,4.176-2.417,6.008-3.47.706-.415,1.881-.415,2.565,0,2.615,1.516,5.228,3.032,7.914,4.57.684.389.684,1.051,0,1.442-1.879,1.075-4.202,2.443-6.056,3.492Z"/>
  <polyline class="uuid-f4414e9d-08e6-4d90-82f2-d756571961e0" points="233.308 359.809 199.696 340.363 296.088 284.715"/>
  <path class="uuid-f4414e9d-08e6-4d90-82f2-d756571961e0" d="M220.481,286.574c6.329-4.007,13.411-8.04,20.424-12.069,2.149-1.199,4.25-4.033,4.25-6.472v-12.241c0-1.611-2.1-2.858-4.25-1.637-6.328,3.616-11.895,6.913-16.88,10.041-2.102,1.294-3.544.393-3.544-2.05v-12.215c0-1.638,1.442-4.813,3.544-6.083,5.692-3.543,11.947-7.256,19.03-11.263"/>
  <path class="uuid-f4414e9d-08e6-4d90-82f2-d756571961e0" d="M302.536,302.207c2.321-1.342,2.321-3.495.051-4.812-2.274-1.321-5.986-1.295-8.307.047-2.318,1.343-2.366,3.492-.096,4.791,2.296,1.318,6.034,1.318,8.353-.026Z"/>
  <path class="uuid-f4414e9d-08e6-4d90-82f2-d756571961e0" d="M230.059,344.027c-2.322,1.342-6.034,1.342-8.305.048-2.274-1.317-2.2-3.467.048-4.809,2.395-1.343,6.107-1.343,8.377-.052,2.274,1.321,2.2,3.47-.121,4.813Z"/>
  <path class="uuid-f4414e9d-08e6-4d90-82f2-d756571961e0" d="M263.622,331.421c4.765-2.759,9.53-5.445,15.27-8.55,1.638-.876,1.564-2.149,0-3.05-2.028-1.221-4.643-2.737-7.256-4.254-1.049-.611-3.664-.902-5.228.026-4.176,2.443-8.941,4.886-12.605,7.013-1.564.927-3.64.927-5.228,0-2.075-1.201-6.447-3.716-9.059-5.228"/>
  <line class="uuid-b97d2a60-d0f1-43a7-90c8-09623a943a1f" x1="241.611" y1="92.565" x2="111.314" y2="167.825"/>
  <path class="uuid-f4414e9d-08e6-4d90-82f2-d756571961e0" d="M111.314,167.825c-6.817,4.302-11.285,12.095-11.626,20.109"/>
  <line class="uuid-b97d2a60-d0f1-43a7-90c8-09623a943a1f" x1="103.058" y1="315.13" x2="185.405" y2="362.641"/>
  <path class="uuid-f4414e9d-08e6-4d90-82f2-d756571961e0" d="M329.652,136.754c3.37-1.538,4.691-2.124,8.231-.802"/>
  <line class="uuid-b97d2a60-d0f1-43a7-90c8-09623a943a1f" x1="337.883" y1="135.952" x2="255.612" y2="88.436"/>
  <path class="uuid-f4414e9d-08e6-4d90-82f2-d756571961e0" d="M255.612,88.436c-3.542-1.316-4.886-.732-8.259.806"/>
  <line class="uuid-b97d2a60-d0f1-43a7-90c8-09623a943a1f" x1="247.352" y1="89.242" x2="241.611" y2="92.565"/>
  <line class="uuid-b97d2a60-d0f1-43a7-90c8-09623a943a1f" x1="215.257" y1="349.33" x2="193.589" y2="361.861"/>
  <line class="uuid-b97d2a60-d0f1-43a7-90c8-09623a943a1f" x1="332.264" y1="281.442" x2="311.476" y2="293.561"/>
  <line class="uuid-b97d2a60-d0f1-43a7-90c8-09623a943a1f" x1="198.108" y1="319.647" x2="267.508" y2="279.561"/>
  <path class="uuid-f4414e9d-08e6-4d90-82f2-d756571961e0" d="M267.508,279.561c1.001-.563,1.807-1.954,1.807-3.076"/>
  <line class="uuid-b97d2a60-d0f1-43a7-90c8-09623a943a1f" x1="269.315" y1="276.485" x2="269.315" y2="200.146"/>
  <path class="uuid-f4414e9d-08e6-4d90-82f2-d756571961e0" d="M269.315,200.146c0-1.123-.806-1.586-1.807-1.027"/>
  <line class="uuid-b97d2a60-d0f1-43a7-90c8-09623a943a1f" x1="267.508" y1="199.119" x2="198.108" y2="239.18"/>
  <path class="uuid-f4414e9d-08e6-4d90-82f2-d756571961e0" d="M198.108,239.18c-.979.588-1.785,1.979-1.785,3.105"/>
  <line class="uuid-b97d2a60-d0f1-43a7-90c8-09623a943a1f" x1="185.405" y1="224.013" x2="103.058" y2="176.502"/>
  <path class="uuid-f4414e9d-08e6-4d90-82f2-d756571961e0" d="M350.393,250.69c2.318,1.342,2.318,3.564,0,4.908"/>
  <line class="uuid-b97d2a60-d0f1-43a7-90c8-09623a943a1f" x1="350.393" y1="255.597" x2="322.691" y2="271.573"/>
  <path class="uuid-f4414e9d-08e6-4d90-82f2-d756571961e0" d="M322.691,271.573c-2.348,1.343-6.156,1.343-8.499,0"/>
  <line class="uuid-b97d2a60-d0f1-43a7-90c8-09623a943a1f" x1="296.088" y1="284.715" x2="329.773" y2="304.136"/>
  <path class="uuid-f4414e9d-08e6-4d90-82f2-d756571961e0" d="M329.773,304.136c4.007,2.321,4.007,6.081,0,8.429"/>
  <line class="uuid-b97d2a60-d0f1-43a7-90c8-09623a943a1f" x1="329.773" y1="312.565" x2="247.94" y2="359.809"/>
  <path class="uuid-f4414e9d-08e6-4d90-82f2-d756571961e0" d="M247.94,359.809c-4.055,2.321-10.625,2.321-14.632,0"/>
  <path class="uuid-f4414e9d-08e6-4d90-82f2-d756571961e0" d="M232.454,229.654v59.459"/>
  <line class="uuid-b97d2a60-d0f1-43a7-90c8-09623a943a1f" x1="238.657" y1="354.164" x2="248.821" y2="348.303"/>
  <line class="uuid-b97d2a60-d0f1-43a7-90c8-09623a943a1f" x1="309.916" y1="313.029" x2="320.074" y2="307.164"/>
  <path class="uuid-f4414e9d-08e6-4d90-82f2-d756571961e0" d="M248.109,312.417c11.973,6.668,17.712,10.479,29.683,17.441"/>
  <line class="uuid-b97d2a60-d0f1-43a7-90c8-09623a943a1f" x1="338.177" y1="252.934" x2="332.217" y2="249.493"/>
  <line class="uuid-b97d2a60-d0f1-43a7-90c8-09623a943a1f" x1="326.161" y1="245.973" x2="320.174" y2="242.528"/>
  <line class="uuid-b97d2a60-d0f1-43a7-90c8-09623a943a1f" x1="314.14" y1="239.036" x2="310.769" y2="237.105"/>
  <line class="uuid-2679f906-623c-4665-a19e-4b654aab7996" x1="145.025" y1="199.145" x2="123.383" y2="161.596"/>
  <line class="uuid-2679f906-623c-4665-a19e-4b654aab7996" x1="184.817" y1="222.888" x2="142.239" y2="149.116"/>
  <line class="uuid-2679f906-623c-4665-a19e-4b654aab7996" x1="203.699" y1="210.334" x2="161.832" y2="137.879"/>
  <line class="uuid-2679f906-623c-4665-a19e-4b654aab7996" x1="223.197" y1="199.023" x2="181.4" y2="126.57"/>
  <line class="uuid-2679f906-623c-4665-a19e-4b654aab7996" x1="242.786" y1="187.739" x2="200.966" y2="115.307"/>
  <line class="uuid-2679f906-623c-4665-a19e-4b654aab7996" x1="262.352" y1="176.451" x2="220.481" y2="104.022"/>
  <line class="uuid-2679f906-623c-4665-a19e-4b654aab7996" x1="281.871" y1="165.166" x2="240.049" y2="92.737"/>
  <line class="uuid-2679f906-623c-4665-a19e-4b654aab7996" x1="301.144" y1="153.34" x2="268.677" y2="97.087"/>
  <line class="uuid-2679f906-623c-4665-a19e-4b654aab7996" x1="320.004" y1="140.859" x2="308.448" y2="120.852"/>
  <line class="uuid-2679f906-623c-4665-a19e-4b654aab7996" x1="329.7" y1="269.572" x2="319.783" y2="286.717"/>
  <line class="uuid-2679f906-623c-4665-a19e-4b654aab7996" x1="339.693" y1="207.107" x2="328.188" y2="227.041"/>
  <line class="uuid-2679f906-623c-4665-a19e-4b654aab7996" x1="304.688" y1="267.765" x2="295.964" y2="282.762"/>
  <line class="uuid-2679f906-623c-4665-a19e-4b654aab7996" x1="339.766" y1="161.843" x2="326.281" y2="185.122"/>
  <line class="uuid-2679f906-623c-4665-a19e-4b654aab7996" x1="301.144" y1="228.654" x2="290.739" y2="246.755"/>
  <line class="uuid-2679f906-623c-4665-a19e-4b654aab7996" x1="281.625" y1="262.462" x2="256.366" y2="306.262"/>
  <line class="uuid-2679f906-623c-4665-a19e-4b654aab7996" x1="326.061" y1="140.392" x2="302.803" y2="180.626"/>
  <line class="uuid-2679f906-623c-4665-a19e-4b654aab7996" x1="284.29" y1="212.678" x2="270.999" y2="235.761"/>
  <line class="uuid-2679f906-623c-4665-a19e-4b654aab7996" x1="233.186" y1="301.18" x2="217.579" y2="328.298"/>
  <line class="uuid-2679f906-623c-4665-a19e-4b654aab7996" x1="207" y1="346.57" x2="202.405" y2="354.58"/>
  <line class="uuid-2679f906-623c-4665-a19e-4b654aab7996" x1="286.853" y1="163.138" x2="266.654" y2="198.118"/>
  <line class="uuid-2679f906-623c-4665-a19e-4b654aab7996" x1="195.91" y1="320.601" x2="183.644" y2="341.805"/>
  <line class="uuid-2679f906-623c-4665-a19e-4b654aab7996" x1="247.72" y1="185.734" x2="227.615" y2="220.566"/>
  <line class="uuid-2679f906-623c-4665-a19e-4b654aab7996" x1="194.689" y1="277.633" x2="183.721" y2="296.589"/>
  <line class="uuid-2679f906-623c-4665-a19e-4b654aab7996" x1="208.807" y1="207.987" x2="183.253" y2="252.275"/>
  <line class="uuid-2679f906-623c-4665-a19e-4b654aab7996" x1="180.225" y1="346.47" x2="170.6" y2="352.067"/>
  <line class="uuid-2679f906-623c-4665-a19e-4b654aab7996" x1="180.642" y1="333.206" x2="158.922" y2="345.76"/>
  <line class="uuid-2679f906-623c-4665-a19e-4b654aab7996" x1="181.057" y1="319.916" x2="147.199" y2="339.483"/>
  <line class="uuid-2679f906-623c-4665-a19e-4b654aab7996" x1="181.447" y1="306.653" x2="135.521" y2="333.18"/>
  <line class="uuid-2679f906-623c-4665-a19e-4b654aab7996" x1="181.863" y1="293.413" x2="123.846" y2="326.903"/>
  <line class="uuid-2679f906-623c-4665-a19e-4b654aab7996" x1="182.205" y1="280.15" x2="112.12" y2="320.601"/>
  <line class="uuid-2679f906-623c-4665-a19e-4b654aab7996" x1="182.621" y1="266.886" x2="100.737" y2="314.151"/>
  <line class="uuid-2679f906-623c-4665-a19e-4b654aab7996" x1="182.668" y1="253.813" x2="99.051" y2="302.086"/>
  <line class="uuid-2679f906-623c-4665-a19e-4b654aab7996" x1="182.668" y1="240.769" x2="99.051" y2="289.065"/>
  <line class="uuid-2679f906-623c-4665-a19e-4b654aab7996" x1="183.891" y1="227.041" x2="98.978" y2="276.021"/>
  <line class="uuid-2679f906-623c-4665-a19e-4b654aab7996" x1="176.513" y1="218.295" x2="99.271" y2="262.853"/>
  <line class="uuid-2679f906-623c-4665-a19e-4b654aab7996" x1="164.787" y1="211.994" x2="99.688" y2="249.589"/>
  <line class="uuid-2679f906-623c-4665-a19e-4b654aab7996" x1="153.109" y1="205.717" x2="100.029" y2="236.325"/>
  <line class="uuid-2679f906-623c-4665-a19e-4b654aab7996" x1="141.434" y1="199.413" x2="100.442" y2="223.082"/>
  <line class="uuid-2679f906-623c-4665-a19e-4b654aab7996" x1="129.708" y1="193.136" x2="100.832" y2="209.796"/>
  <line class="uuid-2679f906-623c-4665-a19e-4b654aab7996" x1="118.033" y1="186.833" x2="101.251" y2="196.554"/>
  <line class="uuid-2679f906-623c-4665-a19e-4b654aab7996" x1="106.307" y1="180.578" x2="102.542" y2="182.754"/>
</svg>