<?xml version="1.0" encoding="UTF-8"?>
<svg id="uuid-c6278427-b15a-4b5e-8122-9d976236694b" data-name="&amp;lt;Layer&amp;gt;" xmlns="http://www.w3.org/2000/svg" viewBox="0 0 451.11 451.11">
  <defs>
    <style>
      .uuid-39e31037-bf95-4e87-bc27-229183f51039, .uuid-905fdb72-18fe-4e3f-a89f-2e8948e89de4, .uuid-7a139338-e9aa-4621-857d-0fd8254f0b7b, .uuid-86515b2f-9991-48cd-a4ed-a8130e6e3cff {
        fill: none;
        stroke: #000;
        stroke-linecap: round;
      }

      .uuid-39e31037-bf95-4e87-bc27-229183f51039, .uuid-86515b2f-9991-48cd-a4ed-a8130e6e3cff {
        stroke-linejoin: round;
        stroke-width: 4.117px;
      }

      .uuid-905fdb72-18fe-4e3f-a89f-2e8948e89de4 {
        stroke-width: 1.163px;
      }

      .uuid-905fdb72-18fe-4e3f-a89f-2e8948e89de4, .uuid-7a139338-e9aa-4621-857d-0fd8254f0b7b {
        stroke-miterlimit: 10;
      }

      .uuid-7a139338-e9aa-4621-857d-0fd8254f0b7b {
        stroke-width: 1.159px;
      }

      .uuid-86515b2f-9991-48cd-a4ed-a8130e6e3cff {
        fill-rule: evenodd;
      }
    </style>
  </defs>
  <path class="uuid-86515b2f-9991-48cd-a4ed-a8130e6e3cff" d="M323.732,271.907c0-24.279-23.352-36.885-44.019-38.622-2.958-.339-5.228-.537-7.035-.632-.441.853-.858,1.733-1.321,2.539"/>
  <path class="uuid-86515b2f-9991-48cd-a4ed-a8130e6e3cff" d="M269.451,238.686c2.958,26.065,10.088,40.599.269,66.664-4.809,12.899-10.089,22.767-13.118,23.988-3.127,1.343-8.01-1.394-13.874-4.717-30.315-17.245-44.778-33.61-68.301-64.05-10.383,11.263-24.89,26.948-27.507,29.803-23.184,26.064-19.297,35.59-19.297,65.566,0,9.111,1.099,11.48,11.041,17.245,66.667,38.427,185.018-45.411,185.018-70.964"/>
  <path class="uuid-86515b2f-9991-48cd-a4ed-a8130e6e3cff" d="M273.336,231.358c6.377-13.802,9.915-26.407,12.532-41.161,1.295-7.256,2.27-14.413,2.565-21.79.169-4.57.169-9.114-.048-13.632-1.127-9.747-13.264-5.108-26.312-.074-15.39,5.934-31.779,12.263-38.401.173"/>
  <path class="uuid-86515b2f-9991-48cd-a4ed-a8130e6e3cff" d="M223.551,155.069c-6.62,10.38-18.931,29.729-21.422,53.715-1.905,18.055,1.685,42.214,13.996,54.989"/>
  <path class="uuid-86515b2f-9991-48cd-a4ed-a8130e6e3cff" d="M215.831,263.897c4.935,1.512,9.869,2.444,14.928,2.956,15.854,1.563,17.245.562,26.723-11.263"/>
  <path class="uuid-86515b2f-9991-48cd-a4ed-a8130e6e3cff" d="M204.79,267.485c-36.154-20.909-48.023-19.566-61.144-55.572-9.453-35.175-10.723-69.4,7.28-100.058,6.84-10.673,35.348-34.32,46.611-27.823,1.291-2.079,2.734-3.886,4.25-5.788"/>
  <polyline class="uuid-86515b2f-9991-48cd-a4ed-a8130e6e3cff" points="201.788 78.244 204.694 75.26 207.696 72.721"/>
  <path class="uuid-86515b2f-9991-48cd-a4ed-a8130e6e3cff" d="M207.696,72.721c25.285-16.686,74.334,14.56,87.283,36.518,11.556,19.57,13.536,57.14-10.211,112.592-3.127,2.808-6.913,5.814-11.211,9.011"/>
  <path class="uuid-86515b2f-9991-48cd-a4ed-a8130e6e3cff" d="M223.551,155.069c-6.62,10.38-18.931,29.729-21.422,53.715-1.905,18.055,1.685,42.214,13.996,54.989-4.422,1.737-8.231,3.032-11.335,3.712"/>
  <path class="uuid-86515b2f-9991-48cd-a4ed-a8130e6e3cff" d="M179.531,253.831c-1.612,2.344-3.834,5.349-4.982,6.792"/>
  <line class="uuid-39e31037-bf95-4e87-bc27-229183f51039" x1="174.549" y1="260.624" x2="174.549" y2="260.696"/>
  <line class="uuid-39e31037-bf95-4e87-bc27-229183f51039" x1="323.682" y1="302.222" x2="323.732" y2="271.907"/>
  <line class="uuid-39e31037-bf95-4e87-bc27-229183f51039" x1="271.357" y1="235.192" x2="269.451" y2="238.686"/>
  <path class="uuid-86515b2f-9991-48cd-a4ed-a8130e6e3cff" d="M257.482,255.59c7.009-8.672,11.825-15.881,16.074-24.748"/>
  <line class="uuid-39e31037-bf95-4e87-bc27-229183f51039" x1="273.557" y1="230.842" x2="273.336" y2="231.358"/>
  <line class="uuid-39e31037-bf95-4e87-bc27-229183f51039" x1="223.672" y1="154.874" x2="223.551" y2="155.069"/>
  <line class="uuid-905fdb72-18fe-4e3f-a89f-2e8948e89de4" x1="259.045" y1="327.066" x2="208.991" y2="298.215"/>
  <line class="uuid-905fdb72-18fe-4e3f-a89f-2e8948e89de4" x1="269.624" y1="307.16" x2="178.228" y2="254.343"/>
  <line class="uuid-905fdb72-18fe-4e3f-a89f-2e8948e89de4" x1="273.506" y1="283.292" x2="246.561" y2="267.732"/>
  <line class="uuid-905fdb72-18fe-4e3f-a89f-2e8948e89de4" x1="270.013" y1="255.225" x2="263.222" y2="251.289"/>
  <line class="uuid-905fdb72-18fe-4e3f-a89f-2e8948e89de4" x1="210.044" y1="256.908" x2="148.069" y2="221.148"/>
  <line class="uuid-905fdb72-18fe-4e3f-a89f-2e8948e89de4" x1="203.984" y1="240.372" x2="142.207" y2="204.707"/>
  <line class="uuid-905fdb72-18fe-4e3f-a89f-2e8948e89de4" x1="202.004" y1="226.202" x2="139.128" y2="189.902"/>
  <line class="uuid-905fdb72-18fe-4e3f-a89f-2e8948e89de4" x1="201.956" y1="213.134" x2="137.321" y2="175.784"/>
  <line class="uuid-905fdb72-18fe-4e3f-a89f-2e8948e89de4" x1="203.715" y1="201.113" x2="136.758" y2="162.421"/>
  <line class="uuid-905fdb72-18fe-4e3f-a89f-2e8948e89de4" x1="206.769" y1="189.902" x2="137.564" y2="149.889"/>
  <line class="uuid-905fdb72-18fe-4e3f-a89f-2e8948e89de4" x1="283.083" y1="220.853" x2="280.471" y2="219.341"/>
  <line class="uuid-905fdb72-18fe-4e3f-a89f-2e8948e89de4" x1="211.019" y1="179.276" x2="139.642" y2="138.042"/>
  <line class="uuid-905fdb72-18fe-4e3f-a89f-2e8948e89de4" x1="287.432" y1="210.348" x2="283.889" y2="208.321"/>
  <line class="uuid-905fdb72-18fe-4e3f-a89f-2e8948e89de4" x1="216.077" y1="169.165" x2="143.013" y2="126.952"/>
  <line class="uuid-905fdb72-18fe-4e3f-a89f-2e8948e89de4" x1="291.387" y1="199.601" x2="286.578" y2="196.815"/>
  <line class="uuid-905fdb72-18fe-4e3f-a89f-2e8948e89de4" x1="221.817" y1="159.419" x2="147.557" y2="116.569"/>
  <line class="uuid-905fdb72-18fe-4e3f-a89f-2e8948e89de4" x1="294.883" y1="188.559" x2="288.654" y2="184.969"/>
  <line class="uuid-905fdb72-18fe-4e3f-a89f-2e8948e89de4" x1="246.561" y1="160.688" x2="153.175" y2="106.752"/>
  <line class="uuid-905fdb72-18fe-4e3f-a89f-2e8948e89de4" x1="297.837" y1="177.249" x2="290.044" y2="172.731"/>
  <line class="uuid-905fdb72-18fe-4e3f-a89f-2e8948e89de4" x1="261.195" y1="156.096" x2="161.359" y2="98.444"/>
  <line class="uuid-905fdb72-18fe-4e3f-a89f-2e8948e89de4" x1="300.111" y1="165.523" x2="290.339" y2="159.882"/>
  <line class="uuid-905fdb72-18fe-4e3f-a89f-2e8948e89de4" x1="275.121" y1="151.062" x2="170.957" y2="90.945"/>
  <line class="uuid-7a139338-e9aa-4621-857d-0fd8254f0b7b" x1="302.628" y1="153.94" x2="181.974" y2="84.275"/>
  <line class="uuid-7a139338-e9aa-4621-857d-0fd8254f0b7b" x1="304.63" y1="142.048" x2="199.462" y2="81.339"/>
  <line class="uuid-905fdb72-18fe-4e3f-a89f-2e8948e89de4" x1="302.307" y1="127.71" x2="206.427" y2="72.306"/>
  <line class="uuid-905fdb72-18fe-4e3f-a89f-2e8948e89de4" x1="294.71" y1="110.218" x2="222.87" y2="68.766"/>
  <line class="uuid-905fdb72-18fe-4e3f-a89f-2e8948e89de4" x1="247.076" y1="265.215" x2="205.548" y2="241.299"/>
  <line class="uuid-905fdb72-18fe-4e3f-a89f-2e8948e89de4" x1="263.343" y1="248.555" x2="201.834" y2="213.06"/>
  <line class="uuid-905fdb72-18fe-4e3f-a89f-2e8948e89de4" x1="275.021" y1="229.208" x2="205.963" y2="189.317"/>
  <line class="uuid-905fdb72-18fe-4e3f-a89f-2e8948e89de4" x1="282.571" y1="207.493" x2="215.077" y2="168.528"/>
  <line class="uuid-905fdb72-18fe-4e3f-a89f-2e8948e89de4" x1="286.332" y1="183.625" x2="247.246" y2="161.104"/>
  <line class="uuid-905fdb72-18fe-4e3f-a89f-2e8948e89de4" x1="286.795" y1="157.851" x2="276.342" y2="151.748"/>
</svg>