<?xml version="1.0" encoding="UTF-8"?>
<svg id="uuid-28e2fceb-d5a9-4a29-bcbb-484dd22cfca5" data-name="&amp;lt;Layer&amp;gt;" xmlns="http://www.w3.org/2000/svg" viewBox="0 0 451.11 451.11">
  <defs>
    <style>
      .uuid-9d728113-2275-430e-982b-4c15a6b58059, .uuid-3c11dba8-c5e5-435a-a21c-8f63f937b69f, .uuid-8b3e66d8-0382-45f8-819a-07585ff125d4 {
        fill: none;
        stroke: #000;
        stroke-linecap: round;
      }

      .uuid-9d728113-2275-430e-982b-4c15a6b58059, .uuid-8b3e66d8-0382-45f8-819a-07585ff125d4 {
        stroke-linejoin: round;
        stroke-width: 4.117px;
      }

      .uuid-3c11dba8-c5e5-435a-a21c-8f63f937b69f {
        stroke-miterlimit: 10;
        stroke-width: 1.163px;
      }

      .uuid-8b3e66d8-0382-45f8-819a-07585ff125d4 {
        fill-rule: evenodd;
      }
    </style>
  </defs>
  <path class="uuid-8b3e66d8-0382-45f8-819a-07585ff125d4" d="M328.52,92.666c6.841-3.933,12.48-.732,12.48,7.208"/>
  <path class="uuid-8b3e66d8-0382-45f8-819a-07585ff125d4" d="M120.32,358.299l-6.55-3.786c-3.119-2.621-3.347-4.067-3.66-8.062l.048-120.97c.724-9.166,4.853-16.37,12.432-21.595l199.36-115.053c3.638-1.576,5.014-2.212,8.819-.806l6.568,3.786c-3.79-1.446-5.214-.806-8.816.853l-199.359,114.985c-7.388,5.17-11.764,12.212-12.434,21.593l-.073,120.967c.335,3.8.57,5.67,3.664,8.088Z"/>
  <path class="uuid-8b3e66d8-0382-45f8-819a-07585ff125d4" d="M272.947,338.657c-.369,4.007-1.59,6.692-3.908,9.895-3.642,4.344-7.182,6.789-12.19,9.282-6.502,3.028-12.267,4.468-19.277,5.446-7.597.879-13.996.758-21.62-.343-7.645-1.343-13.996-3.249-20.957-7.376-4.64-3.076-7.892-6.034-10.383-10.921-.928-2.27-1.343-3.665-1.516-6.151"/>
  <path class="uuid-8b3e66d8-0382-45f8-819a-07585ff125d4" d="M183.097,331.229c.247,2.958.758,4.717,2.152,7.33,2.539,4.348,5.571,6.965,9.747,9.698,6.863,4.055,13.19,6.035,20.957,7.425,7.623,1.101,14.022,1.174,21.62.343,7.083-.975,12.775-2.491,19.277-5.445,5.056-2.565,8.548-4.935,12.19-9.309,2.098-2.881,3.198-5.104,3.786-8.647"/>
  <path class="uuid-8b3e66d8-0382-45f8-819a-07585ff125d4" d="M243.266,306.387c2.491.463,4.885,1.099,7.256,1.857,15.266,5.108,23.448,14.582,22.347,24.158"/>
  <polyline class="uuid-8b3e66d8-0382-45f8-819a-07585ff125d4" points="195.165 319.385 195.118 336.289 201.859 340.173 201.909 315.5"/>
  <polyline class="uuid-8b3e66d8-0382-45f8-819a-07585ff125d4" points="243.266 291.632 243.266 316.306 201.909 340.173 201.909 315.5"/>
  <polyline class="uuid-8b3e66d8-0382-45f8-819a-07585ff125d4" points="340.368 225.481 340.173 225.359 116.898 352.996"/>
  <line class="uuid-9d728113-2275-430e-982b-4c15a6b58059" x1="117.704" y1="223.037" x2="340.242" y2="95.915"/>
  <line class="uuid-9d728113-2275-430e-982b-4c15a6b58059" x1="119.635" y1="218.446" x2="113.064" y2="214.685"/>
  <path class="uuid-8b3e66d8-0382-45f8-819a-07585ff125d4" d="M340.294,108.884c-2.2,1.273-4.47,2.543-6.671,3.812-2.392,1.394-4.813,2.786-7.204,4.18"/>
  <path class="uuid-8b3e66d8-0382-45f8-819a-07585ff125d4" d="M132.41,228.854c-2.565,1.512-5.13,2.955-7.673,4.419-2.686,1.564-5.349,3.08-8.01,4.644"/>
  <path class="uuid-8b3e66d8-0382-45f8-819a-07585ff125d4" d="M340.242,121.833c-2.222,1.272-4.418,2.564-6.619,3.811-2.392,1.417-4.813,2.811-7.204,4.202"/>
  <path class="uuid-8b3e66d8-0382-45f8-819a-07585ff125d4" d="M132.41,241.798c-2.565,1.516-5.13,2.958-7.673,4.422-2.686,1.564-5.349,3.08-8.01,4.644"/>
  <path class="uuid-8b3e66d8-0382-45f8-819a-07585ff125d4" d="M340.242,134.781c-2.222,1.27-4.418,2.564-6.619,3.833-2.392,1.395-4.813,2.785-7.204,4.181"/>
  <path class="uuid-8b3e66d8-0382-45f8-819a-07585ff125d4" d="M116.728,263.808c2.661-1.564,5.324-3.076,8.01-4.639,2.543-1.466,5.108-2.958,7.673-4.424"/>
  <path class="uuid-8b3e66d8-0382-45f8-819a-07585ff125d4" d="M326.42,155.742c2.391-1.395,4.812-2.785,7.204-4.18,2.2-1.27,4.397-2.565,6.619-3.834"/>
  <path class="uuid-8b3e66d8-0382-45f8-819a-07585ff125d4" d="M116.728,276.756c2.661-1.564,5.324-3.076,8.01-4.639,2.543-1.442,5.108-2.955,7.673-4.423"/>
  <path class="uuid-8b3e66d8-0382-45f8-819a-07585ff125d4" d="M340.242,160.672c-2.222,1.273-4.418,2.569-6.619,3.838-2.439,1.39-4.813,2.784-7.256,4.176"/>
  <path class="uuid-8b3e66d8-0382-45f8-819a-07585ff125d4" d="M132.41,280.642c-2.565,1.464-5.13,2.98-7.673,4.418-2.686,1.564-5.349,3.08-8.01,4.643"/>
  <path class="uuid-8b3e66d8-0382-45f8-819a-07585ff125d4" d="M340.242,173.619c-2.222,1.273-4.418,2.569-6.619,3.838-2.439,1.39-4.813,2.786-7.256,4.175"/>
  <path class="uuid-8b3e66d8-0382-45f8-819a-07585ff125d4" d="M132.41,293.585c-2.565,1.468-5.13,2.984-7.673,4.422-2.686,1.564-5.349,3.08-8.01,4.665"/>
  <path class="uuid-8b3e66d8-0382-45f8-819a-07585ff125d4" d="M340.242,186.567c-2.222,1.295-4.418,2.565-6.619,3.834-2.439,1.394-4.813,2.785-7.256,4.18"/>
  <path class="uuid-8b3e66d8-0382-45f8-819a-07585ff125d4" d="M132.41,306.559c-2.565,1.442-5.13,2.954-7.673,4.396-2.686,1.564-5.349,3.102-8.01,4.666"/>
  <path class="uuid-8b3e66d8-0382-45f8-819a-07585ff125d4" d="M340.242,199.536c-2.222,1.273-4.418,2.543-6.619,3.812-2.439,1.394-4.813,2.786-7.256,4.18"/>
  <path class="uuid-8b3e66d8-0382-45f8-819a-07585ff125d4" d="M132.41,319.506c-2.565,1.442-5.13,2.954-7.673,4.397-2.686,1.586-5.349,3.102-8.01,4.666"/>
  <path class="uuid-8b3e66d8-0382-45f8-819a-07585ff125d4" d="M340.242,212.485c-2.222,1.272-4.418,2.541-6.619,3.811-2.439,1.392-4.813,2.785-7.256,4.177"/>
  <path class="uuid-8b3e66d8-0382-45f8-819a-07585ff125d4" d="M132.41,332.45c-2.565,1.442-5.13,2.958-7.673,4.422-2.686,1.564-5.349,3.08-8.01,4.644"/>
  <polyline class="uuid-8b3e66d8-0382-45f8-819a-07585ff125d4" points="340.242 225.359 333.624 229.197 326.368 233.373"/>
  <polyline class="uuid-8b3e66d8-0382-45f8-819a-07585ff125d4" points="326.368 233.373 326.368 168.686 326.42 155.742 326.42 103.928 132.41 214.634 132.41 344.177"/>
  <polygon class="uuid-8b3e66d8-0382-45f8-819a-07585ff125d4" points="266.544 153.125 266.544 188.083 272.067 184.956 272.067 193.016 266.544 196.145 266.544 207.893 257.604 213.121 257.604 201.321 232.003 216.124 232.003 204.401 252.67 161.139 266.544 153.125"/>
  <polygon class="uuid-8b3e66d8-0382-45f8-819a-07585ff125d4" points="257.604 193.311 257.604 166.195 257.311 166.315 239.38 203.812 257.604 193.311"/>
  <polygon class="uuid-8b3e66d8-0382-45f8-819a-07585ff125d4" points="273.289 203.986 273.289 149.339 282.863 143.842 282.863 168.052 302.209 132.679 315.035 125.255 297.154 156.837 315.963 179.385 303.604 186.519 290.582 168.395 282.863 181.998 282.863 198.489 273.289 203.986"/>
  <line class="uuid-9d728113-2275-430e-982b-4c15a6b58059" x1="272.947" y1="331.354" x2="272.947" y2="338.657"/>
  <line class="uuid-9d728113-2275-430e-982b-4c15a6b58059" x1="183.097" y1="338.489" x2="183.097" y2="331.229"/>
  <line class="uuid-9d728113-2275-430e-982b-4c15a6b58059" x1="272.825" y1="332.623" x2="272.947" y2="331.354"/>
  <path class="uuid-8b3e66d8-0382-45f8-819a-07585ff125d4" d="M183.174,331.524c-.147-1.855.096-3.76.681-5.644"/>
  <line class="uuid-9d728113-2275-430e-982b-4c15a6b58059" x1="341" y1="99.873" x2="340.954" y2="220.841"/>
  <path class="uuid-8b3e66d8-0382-45f8-819a-07585ff125d4" d="M340.954,220.841c0,7.962-5.641,17.661-12.506,21.595"/>
  <line class="uuid-9d728113-2275-430e-982b-4c15a6b58059" x1="328.447" y1="242.435" x2="129.087" y2="357.419"/>
  <path class="uuid-8b3e66d8-0382-45f8-819a-07585ff125d4" d="M129.087,357.419c-6.837,4.003-12.432.758-12.432-7.208"/>
  <path class="uuid-8b3e66d8-0382-45f8-819a-07585ff125d4" d="M340.954,220.841c0,1.516-.196,3.076-.586,4.64"/>
  <line class="uuid-9d728113-2275-430e-982b-4c15a6b58059" x1="124.738" y1="219.03" x2="124.738" y2="348.599"/>
  <line class="uuid-9d728113-2275-430e-982b-4c15a6b58059" x1="333.624" y1="99.701" x2="333.624" y2="229.244"/>
  <line class="uuid-3c11dba8-c5e5-435a-a21c-8f63f937b69f" x1="279.835" y1="198.194" x2="275.192" y2="190.058"/>
  <line class="uuid-3c11dba8-c5e5-435a-a21c-8f63f937b69f" x1="282.227" y1="179.654" x2="275.07" y2="167.294"/>
  <line class="uuid-3c11dba8-c5e5-435a-a21c-8f63f937b69f" x1="288.555" y1="168.002" x2="286.771" y2="164.973"/>
  <line class="uuid-3c11dba8-c5e5-435a-a21c-8f63f937b69f" x1="280.883" y1="154.811" x2="277.586" y2="148.998"/>
  <line class="uuid-3c11dba8-c5e5-435a-a21c-8f63f937b69f" x1="309.512" y1="181.755" x2="296.105" y2="158.596"/>
  <line class="uuid-3c11dba8-c5e5-435a-a21c-8f63f937b69f" x1="295.174" y1="156.963" x2="293.099" y2="153.346"/>
  <line class="uuid-3c11dba8-c5e5-435a-a21c-8f63f937b69f" x1="301.502" y1="145.285" x2="299.476" y2="141.742"/>
  <line class="uuid-3c11dba8-c5e5-435a-a21c-8f63f937b69f" x1="307.901" y1="133.78" x2="306.948" y2="132.216"/>
  <line class="uuid-3c11dba8-c5e5-435a-a21c-8f63f937b69f" x1="240.359" y1="209.066" x2="238.379" y2="205.575"/>
  <line class="uuid-3c11dba8-c5e5-435a-a21c-8f63f937b69f" x1="237.33" y1="203.764" x2="235.767" y2="201.03"/>
  <line class="uuid-3c11dba8-c5e5-435a-a21c-8f63f937b69f" x1="250.179" y1="203.348" x2="248.589" y2="200.737"/>
  <line class="uuid-3c11dba8-c5e5-435a-a21c-8f63f937b69f" x1="243.144" y1="191.281" x2="241.702" y2="188.716"/>
  <line class="uuid-3c11dba8-c5e5-435a-a21c-8f63f937b69f" x1="264.687" y1="206.038" x2="258.241" y2="194.823"/>
  <line class="uuid-3c11dba8-c5e5-435a-a21c-8f63f937b69f" x1="249.078" y1="178.97" x2="247.615" y2="176.357"/>
  <line class="uuid-3c11dba8-c5e5-435a-a21c-8f63f937b69f" x1="269.673" y1="192.09" x2="268.182" y2="189.426"/>
  <line class="uuid-3c11dba8-c5e5-435a-a21c-8f63f937b69f" x1="264.687" y1="183.392" x2="259.462" y2="174.377"/>
  <line class="uuid-3c11dba8-c5e5-435a-a21c-8f63f937b69f" x1="254.992" y1="166.61" x2="253.476" y2="164.045"/>
  <line class="uuid-3c11dba8-c5e5-435a-a21c-8f63f937b69f" x1="264.565" y1="160.551" x2="262.784" y2="157.547"/>
  <line class="uuid-3c11dba8-c5e5-435a-a21c-8f63f937b69f" x1="329.911" y1="233.493" x2="324.734" y2="242.387"/>
  <line class="uuid-3c11dba8-c5e5-435a-a21c-8f63f937b69f" x1="290.999" y1="255.626" x2="285.648" y2="264.982"/>
  <line class="uuid-3c11dba8-c5e5-435a-a21c-8f63f937b69f" x1="252.133" y1="277.857" x2="246.563" y2="287.503"/>
  <line class="uuid-3c11dba8-c5e5-435a-a21c-8f63f937b69f" x1="213.246" y1="300.109" x2="207.428" y2="310.103"/>
  <line class="uuid-3c11dba8-c5e5-435a-a21c-8f63f937b69f" x1="174.329" y1="322.292" x2="168.343" y2="332.671"/>
  <line class="uuid-3c11dba8-c5e5-435a-a21c-8f63f937b69f" x1="135.416" y1="344.545" x2="129.26" y2="355.219"/>
  <line class="uuid-3c11dba8-c5e5-435a-a21c-8f63f937b69f" x1="212.657" y1="332.208" x2="203.668" y2="316.647"/>
  <line class="uuid-3c11dba8-c5e5-435a-a21c-8f63f937b69f" x1="222.429" y1="326.59" x2="213.168" y2="310.614"/>
  <line class="uuid-3c11dba8-c5e5-435a-a21c-8f63f937b69f" x1="232.224" y1="320.949" x2="222.993" y2="304.973"/>
  <line class="uuid-3c11dba8-c5e5-435a-a21c-8f63f937b69f" x1="241.455" y1="314.399" x2="232.761" y2="299.351"/>
  <line class="uuid-3c11dba8-c5e5-435a-a21c-8f63f937b69f" x1="199.93" y1="320.897" x2="197.097" y2="325.784"/>
  <line class="uuid-3c11dba8-c5e5-435a-a21c-8f63f937b69f" x1="266.203" y1="317.943" x2="245.757" y2="353.313"/>
  <line class="uuid-3c11dba8-c5e5-435a-a21c-8f63f937b69f" x1="238.6" y1="320.556" x2="218.643" y2="355.097"/>
  <line class="uuid-3c11dba8-c5e5-435a-a21c-8f63f937b69f" x1="200.467" y1="341.443" x2="197.097" y2="347.331"/>
  <line class="uuid-3c11dba8-c5e5-435a-a21c-8f63f937b69f" x1="208.234" y1="359.152" x2="205.986" y2="355.271"/>
  <line class="uuid-3c11dba8-c5e5-435a-a21c-8f63f937b69f" x1="222.772" y1="361.716" x2="220.67" y2="358.177"/>
  <line class="uuid-3c11dba8-c5e5-435a-a21c-8f63f937b69f" x1="235.645" y1="361.5" x2="233.788" y2="358.299"/>
  <line class="uuid-3c11dba8-c5e5-435a-a21c-8f63f937b69f" x1="247.368" y1="359.274" x2="245.757" y2="356.492"/>
  <line class="uuid-3c11dba8-c5e5-435a-a21c-8f63f937b69f" x1="258.02" y1="355.05" x2="256.677" y2="352.776"/>
  <line class="uuid-3c11dba8-c5e5-435a-a21c-8f63f937b69f" x1="266.887" y1="347.915" x2="266.302" y2="346.914"/>
  <line class="uuid-3c11dba8-c5e5-435a-a21c-8f63f937b69f" x1="114.796" y1="352.485" x2="114.748" y2="352.605"/>
  <line class="uuid-3c11dba8-c5e5-435a-a21c-8f63f937b69f" x1="114.7" y1="330.132" x2="112.085" y2="334.602"/>
  <line class="uuid-3c11dba8-c5e5-435a-a21c-8f63f937b69f" x1="114.7" y1="307.538" x2="112.085" y2="312.004"/>
  <line class="uuid-3c11dba8-c5e5-435a-a21c-8f63f937b69f" x1="114.7" y1="284.964" x2="112.085" y2="289.483"/>
  <line class="uuid-3c11dba8-c5e5-435a-a21c-8f63f937b69f" x1="114.7" y1="262.37" x2="112.137" y2="266.84"/>
  <line class="uuid-3c11dba8-c5e5-435a-a21c-8f63f937b69f" x1="114.7" y1="239.77" x2="112.137" y2="244.241"/>
  <line class="uuid-3c11dba8-c5e5-435a-a21c-8f63f937b69f" x1="114.407" y1="217.688" x2="113.016" y2="220.131"/>
  <line class="uuid-3c11dba8-c5e5-435a-a21c-8f63f937b69f" x1="121.615" y1="211.852" x2="118.462" y2="209.972"/>
  <line class="uuid-3c11dba8-c5e5-435a-a21c-8f63f937b69f" x1="142.378" y1="197.731" x2="139.765" y2="196.219"/>
  <line class="uuid-3c11dba8-c5e5-435a-a21c-8f63f937b69f" x1="164.972" y1="184.713" x2="162.36" y2="183.197"/>
  <line class="uuid-3c11dba8-c5e5-435a-a21c-8f63f937b69f" x1="187.571" y1="171.718" x2="184.955" y2="170.202"/>
  <line class="uuid-3c11dba8-c5e5-435a-a21c-8f63f937b69f" x1="210.166" y1="158.648" x2="207.55" y2="157.132"/>
  <line class="uuid-3c11dba8-c5e5-435a-a21c-8f63f937b69f" x1="232.761" y1="145.626" x2="230.148" y2="144.137"/>
  <line class="uuid-3c11dba8-c5e5-435a-a21c-8f63f937b69f" x1="255.334" y1="132.583" x2="252.718" y2="131.068"/>
  <line class="uuid-3c11dba8-c5e5-435a-a21c-8f63f937b69f" x1="277.929" y1="119.563" x2="275.312" y2="118.047"/>
  <line class="uuid-3c11dba8-c5e5-435a-a21c-8f63f937b69f" x1="300.523" y1="106.541" x2="297.912" y2="105.051"/>
  <line class="uuid-3c11dba8-c5e5-435a-a21c-8f63f937b69f" x1="323.097" y1="93.498" x2="320.481" y2="91.982"/>
  <line class="uuid-3c11dba8-c5e5-435a-a21c-8f63f937b69f" x1="332.038" y1="93.13" x2="327.519" y2="100.97"/>
  <line class="uuid-3c11dba8-c5e5-435a-a21c-8f63f937b69f" x1="293.195" y1="115.213" x2="288.603" y2="123.175"/>
  <line class="uuid-3c11dba8-c5e5-435a-a21c-8f63f937b69f" x1="254.112" y1="137.783" x2="249.716" y2="145.406"/>
  <line class="uuid-3c11dba8-c5e5-435a-a21c-8f63f937b69f" x1="215.053" y1="160.333" x2="210.803" y2="167.589"/>
  <line class="uuid-3c11dba8-c5e5-435a-a21c-8f63f937b69f" x1="175.892" y1="182.929" x2="171.959" y2="189.816"/>
  <line class="uuid-3c11dba8-c5e5-435a-a21c-8f63f937b69f" x1="136.807" y1="205.45" x2="133.046" y2="212.021"/>
</svg>