<?xml version="1.0" encoding="UTF-8"?>
<svg id="uuid-544f6ebc-e574-4cfd-8c2f-8f9ba67e2fdd" data-name="&amp;lt;Layer&amp;gt;" xmlns="http://www.w3.org/2000/svg" viewBox="0 0 451.11 451.11">
  <defs>
    <style>
      .uuid-ea9113c4-96ba-4b71-a5cb-7381bb08ed1d, .uuid-169980d6-301c-4261-90a0-cc9b1f1ae860, .uuid-0bfd53dc-e75c-4374-b78d-72f4fa41732e {
        fill: none;
        stroke: #000;
        stroke-linecap: round;
      }

      .uuid-ea9113c4-96ba-4b71-a5cb-7381bb08ed1d, .uuid-0bfd53dc-e75c-4374-b78d-72f4fa41732e {
        stroke-linejoin: round;
        stroke-width: 4.113px;
      }

      .uuid-169980d6-301c-4261-90a0-cc9b1f1ae860 {
        stroke-miterlimit: 10;
        stroke-width: 1.163px;
      }

      .uuid-0bfd53dc-e75c-4374-b78d-72f4fa41732e {
        fill-rule: evenodd;
      }
    </style>
  </defs>
  <g>
    <path class="uuid-0bfd53dc-e75c-4374-b78d-72f4fa41732e" d="M333.662,284.452c-.052-1.123-.173-2.197-.419-3.224-.754-4.106-2.613-7.182-5.152-9.061-.341-.221-.662-.441-1.001-.637"/>
    <line class="uuid-ea9113c4-96ba-4b71-a5cb-7381bb08ed1d" x1="288.416" y1="310.589" x2="333.662" y2="284.452"/>
    <path class="uuid-0bfd53dc-e75c-4374-b78d-72f4fa41732e" d="M326.575,271.26c-7.067-3.634-16.112,1.321-21.421,6.182-5.284,4.764-9.504,10.6-12.436,17.075-2.101,4.316-3.588,9.574-4.129,14.217-.081.17-.173,1.578-.173,1.833"/>
    <polyline class="uuid-0bfd53dc-e75c-4374-b78d-72f4fa41732e" points="291.912 266.621 297.774 269.991 298.995 270.724 301.49 272.166"/>
    <path class="uuid-0bfd53dc-e75c-4374-b78d-72f4fa41732e" d="M320.42,239.478c-.471,0-9.081-6.008-12.141-6.373-13.169-1.637-27.455,26.771-16.366,33.516"/>
    <path class="uuid-0bfd53dc-e75c-4374-b78d-72f4fa41732e" d="M327.04,271.507c0,.048-8.555-4.897-9.773-5.596"/>
    <line class="uuid-ea9113c4-96ba-4b71-a5cb-7381bb08ed1d" x1="278.792" y1="304.996" x2="288.416" y2="310.567"/>
    <path class="uuid-0bfd53dc-e75c-4374-b78d-72f4fa41732e" d="M297.774,269.991c-10.627,8.158-18.051,21.841-18.982,35.006"/>
    <path class="uuid-0bfd53dc-e75c-4374-b78d-72f4fa41732e" d="M172.41,377.671c-.074-1.125-.196-2.2-.417-3.201-.805-4.106-2.612-7.182-5.176-9.063-.345-.247-.684-.463-.979-.662"/>
    <line class="uuid-ea9113c4-96ba-4b71-a5cb-7381bb08ed1d" x1="127.168" y1="403.807" x2="172.41" y2="377.671"/>
    <path class="uuid-0bfd53dc-e75c-4374-b78d-72f4fa41732e" d="M165.838,364.746c-4.021-1.34-4.927-2.138-9.526-1.075-4.131.913-8.216,3.451-11.439,6.119-5.048,4.181-9.368,9.917-12.282,15.553-2.329,4.508-5.375,12.687-5.375,17.757l-.048.707"/>
    <polyline class="uuid-0bfd53dc-e75c-4374-b78d-72f4fa41732e" points="130.638 359.838 136.5 363.234 137.721 363.94 140.285 365.43"/>
    <path class="uuid-0bfd53dc-e75c-4374-b78d-72f4fa41732e" d="M159.098,332.698c-3.032-1.759-9.456-6.034-12.095-6.376-13.168-1.638-27.455,26.797-16.365,33.516"/>
    <line class="uuid-ea9113c4-96ba-4b71-a5cb-7381bb08ed1d" x1="165.764" y1="364.724" x2="156.066" y2="359.128"/>
    <line class="uuid-ea9113c4-96ba-4b71-a5cb-7381bb08ed1d" x1="117.448" y1="398.213" x2="127.168" y2="403.833"/>
    <path class="uuid-0bfd53dc-e75c-4374-b78d-72f4fa41732e" d="M136.5,363.234c-10.627,8.135-18.051,21.91-19.052,34.98"/>
    <polyline class="uuid-0bfd53dc-e75c-4374-b78d-72f4fa41732e" points="310.306 218.742 310.306 199.564 229.889 246.027 229.009 246.516 147.714 293.465 147.714 312.469"/>
    <line class="uuid-ea9113c4-96ba-4b71-a5cb-7381bb08ed1d" x1="229.009" y1="228.635" x2="229.009" y2="265.594"/>
    <path class="uuid-0bfd53dc-e75c-4374-b78d-72f4fa41732e" d="M243.469,163.436c3.544-6.133,5.692-13.022,5.692-19.251,0-5.666-1.806-9.795-4.761-12.043-.739-.552-1.515-.975-2.314-1.276M214.961,178.849c4.733,3.164,10.027,1.869,14.684-.805"/>
    <path class="uuid-0bfd53dc-e75c-4374-b78d-72f4fa41732e" d="M229.645,178.018c1.343-.758,2.687-1.66,3.908-2.686,3.072-2.539,5.052-4.865,7.376-7.915.854-1.269,1.733-2.59,2.539-3.981"/>
    <path class="uuid-0bfd53dc-e75c-4374-b78d-72f4fa41732e" d="M262.82,197.341c-.074-1.147-.174-2.27-.343-3.344-.927-6.119-3.742-12.389-9.309-15.586"/>
    <polyline class="uuid-0bfd53dc-e75c-4374-b78d-72f4fa41732e" points="196.494 235.644 197.253 235.207 262.82 197.341"/>
    <path class="uuid-0bfd53dc-e75c-4374-b78d-72f4fa41732e" d="M253.168,178.411c-1.954-1.173-4.948-1.998-7.204-2.152-5.798,0-9.702,1.009-14.161,3.311-17.949,9.254-35.308,35.812-35.308,56.074"/>
    <path class="uuid-0bfd53dc-e75c-4374-b78d-72f4fa41732e" d="M215.841,179.412c-1.292-.806-2.344-1.785-3.15-2.884-8.123-10.99,2.974-31.341,11.138-39.303,5.03-4.875,12.705-9.404,19.64-5.718"/>
    <line class="uuid-ea9113c4-96ba-4b71-a5cb-7381bb08ed1d" x1="201.602" y1="171.23" x2="215.841" y2="179.412"/>
    <path class="uuid-0bfd53dc-e75c-4374-b78d-72f4fa41732e" d="M243.469,131.507c-4.298-2.491-13.922-8.915-17.877-9.404-19.303-2.392-40.234,39.258-23.99,49.127"/>
    <path class="uuid-0bfd53dc-e75c-4374-b78d-72f4fa41732e" d="M182.326,227.462c1.442-19.273,12.315-39.355,27.923-51.276"/>
    <line class="uuid-ea9113c4-96ba-4b71-a5cb-7381bb08ed1d" x1="196.494" y1="235.67" x2="182.326" y2="227.462"/>
    <path class="uuid-0bfd53dc-e75c-4374-b78d-72f4fa41732e" d="M238.83,170.103c4.926,2.477,9.504,5.539,14.29,8.257"/>
    <path class="uuid-0bfd53dc-e75c-4374-b78d-72f4fa41732e" d="M252.925,331.061c-.051-1.123-.173-2.196-.389-3.201-.81-4.129-2.617-7.204-5.18-9.089-.343-.217-.637-.437-.979-.632"/>
    <polyline class="uuid-0bfd53dc-e75c-4374-b78d-72f4fa41732e" points="207.709 357.199 210.2 355.731 252.925 331.061"/>
    <path class="uuid-0bfd53dc-e75c-4374-b78d-72f4fa41732e" d="M246.377,318.14c-17.287-9.873-38.667,24.545-38.667,39.059"/>
    <path class="uuid-0bfd53dc-e75c-4374-b78d-72f4fa41732e" d="M211.249,313.253c-11.163-6.744,3.201-35.2,16.318-33.516,2.248.244,7.55,3.566,10.799,5.545l.169.122,1.053.636"/>
    <path class="uuid-0bfd53dc-e75c-4374-b78d-72f4fa41732e" d="M220.875,318.824c-3.209-1.859-6.421-3.706-9.626-5.571"/>
    <line class="uuid-ea9113c4-96ba-4b71-a5cb-7381bb08ed1d" x1="245.912" y1="317.871" x2="236.608" y2="312.495"/>
    <line class="uuid-ea9113c4-96ba-4b71-a5cb-7381bb08ed1d" x1="198.011" y1="351.582" x2="207.709" y2="357.199"/>
    <path class="uuid-0bfd53dc-e75c-4374-b78d-72f4fa41732e" d="M217.041,316.624c-10.603,8.109-18.055,21.888-19.03,34.958"/>
    <path class="uuid-0bfd53dc-e75c-4374-b78d-72f4fa41732e" d="M243.642,294.76c0-9.109-6.38-11.62-13.363-7.693-3.805,2.186-7.362,6.343-9.404,9.967-2.278,3.941-3.882,8.547-3.882,13.14,0,7.811,5.328,12.344,13.286,7.697,7.384-4.254,13.363-14.59,13.363-23.111Z"/>
    <path class="uuid-0bfd53dc-e75c-4374-b78d-72f4fa41732e" d="M311.016,271.286c7.527-4.29,13.359-14.846,13.359-23.11,0-3.69-1.122-6.424-2.98-7.988-2.856-2.631-7.414-1.417-10.379.269-7.149,4.161-13.316,14.345-13.316,23.11,0,8.05,5.567,12.215,13.316,7.719h0Z"/>
    <path class="uuid-0bfd53dc-e75c-4374-b78d-72f4fa41732e" d="M149.741,364.503c7.378-4.276,13.36-14.608,13.36-23.107,0-3.492-.872-6.729-3.882-8.65-5.407-2.122-9.36.295-13.437,3.908-5.014,4.723-9.404,12.98-9.404,20.129,0,8.455,6.001,12.021,13.363,7.719Z"/>
  </g>
  <line class="uuid-169980d6-301c-4261-90a0-cc9b1f1ae860" x1="300.142" y1="301.821" x2="295.283" y2="293.418"/>
  <line class="uuid-169980d6-301c-4261-90a0-cc9b1f1ae860" x1="310.037" y1="296.372" x2="302.17" y2="282.765"/>
  <line class="uuid-169980d6-301c-4261-90a0-cc9b1f1ae860" x1="319.83" y1="290.779" x2="310.773" y2="275.046"/>
  <line class="uuid-169980d6-301c-4261-90a0-cc9b1f1ae860" x1="329.603" y1="285.062" x2="321.862" y2="271.725"/>
  <line class="uuid-169980d6-301c-4261-90a0-cc9b1f1ae860" x1="287.321" y1="304.581" x2="284.63" y2="306.097"/>
  <line class="uuid-169980d6-301c-4261-90a0-cc9b1f1ae860" x1="294.455" y1="287.41" x2="282.897" y2="294.102"/>
  <line class="uuid-169980d6-301c-4261-90a0-cc9b1f1ae860" x1="295.798" y1="263.979" x2="293.572" y2="265.252"/>
  <line class="uuid-169980d6-301c-4261-90a0-cc9b1f1ae860" x1="300.948" y1="248.006" x2="290.227" y2="254.189"/>
  <line class="uuid-169980d6-301c-4261-90a0-cc9b1f1ae860" x1="126.046" y1="397.993" x2="123.555" y2="399.435"/>
  <line class="uuid-169980d6-301c-4261-90a0-cc9b1f1ae860" x1="133.081" y1="380.894" x2="121.525" y2="387.566"/>
  <line class="uuid-169980d6-301c-4261-90a0-cc9b1f1ae860" x1="134.545" y1="356.784" x2="131.933" y2="358.274"/>
  <line class="uuid-169980d6-301c-4261-90a0-cc9b1f1ae860" x1="140.164" y1="340.465" x2="129.074" y2="346.868"/>
  <line class="uuid-169980d6-301c-4261-90a0-cc9b1f1ae860" x1="139.063" y1="394.965" x2="134.133" y2="386.439"/>
  <line class="uuid-169980d6-301c-4261-90a0-cc9b1f1ae860" x1="148.932" y1="389.468" x2="141.043" y2="375.788"/>
  <line class="uuid-169980d6-301c-4261-90a0-cc9b1f1ae860" x1="158.755" y1="383.874" x2="149.69" y2="368.141"/>
  <line class="uuid-169980d6-301c-4261-90a0-cc9b1f1ae860" x1="168.502" y1="378.157" x2="160.905" y2="364.992"/>
  <line class="uuid-169980d6-301c-4261-90a0-cc9b1f1ae860" x1="197.301" y1="221.99" x2="186.796" y2="228.024"/>
  <line class="uuid-169980d6-301c-4261-90a0-cc9b1f1ae860" x1="204.678" y1="204.671" x2="186.09" y2="215.419"/>
  <line class="uuid-169980d6-301c-4261-90a0-cc9b1f1ae860" x1="220.996" y1="182.22" x2="193.294" y2="198.222"/>
  <line class="uuid-169980d6-301c-4261-90a0-cc9b1f1ae860" x1="208.684" y1="162.311" x2="199.964" y2="167.369"/>
  <line class="uuid-169980d6-301c-4261-90a0-cc9b1f1ae860" x1="214.892" y1="145.724" x2="197.595" y2="155.717"/>
  <line class="uuid-169980d6-301c-4261-90a0-cc9b1f1ae860" x1="228.961" y1="124.572" x2="203.75" y2="139.079"/>
  <line class="uuid-169980d6-301c-4261-90a0-cc9b1f1ae860" x1="207.879" y1="227.145" x2="202.481" y2="217.689"/>
  <line class="uuid-169980d6-301c-4261-90a0-cc9b1f1ae860" x1="217.799" y1="221.722" x2="208.221" y2="205.109"/>
  <line class="uuid-169980d6-301c-4261-90a0-cc9b1f1ae860" x1="227.666" y1="216.225" x2="215.304" y2="194.825"/>
  <line class="uuid-169980d6-301c-4261-90a0-cc9b1f1ae860" x1="237.487" y1="210.68" x2="223.564" y2="186.495"/>
  <line class="uuid-169980d6-301c-4261-90a0-cc9b1f1ae860" x1="247.307" y1="205.061" x2="233.016" y2="180.314"/>
  <line class="uuid-169980d6-301c-4261-90a0-cc9b1f1ae860" x1="257.002" y1="199.321" x2="244.474" y2="177.555"/>
  <line class="uuid-169980d6-301c-4261-90a0-cc9b1f1ae860" x1="206.658" y1="350.97" x2="203.75" y2="352.63"/>
  <line class="uuid-169980d6-301c-4261-90a0-cc9b1f1ae860" x1="213.914" y1="333.747" x2="202.186" y2="340.513"/>
  <line class="uuid-169980d6-301c-4261-90a0-cc9b1f1ae860" x1="215.013" y1="310.467" x2="212.739" y2="311.789"/>
  <line class="uuid-169980d6-301c-4261-90a0-cc9b1f1ae860" x1="220.41" y1="294.319" x2="209.564" y2="300.574"/>
  <line class="uuid-169980d6-301c-4261-90a0-cc9b1f1ae860" x1="219.483" y1="348.381" x2="214.62" y2="339.954"/>
  <line class="uuid-169980d6-301c-4261-90a0-cc9b1f1ae860" x1="229.378" y1="342.908" x2="221.511" y2="329.329"/>
  <line class="uuid-169980d6-301c-4261-90a0-cc9b1f1ae860" x1="239.219" y1="337.339" x2="230.11" y2="321.631"/>
  <line class="uuid-169980d6-301c-4261-90a0-cc9b1f1ae860" x1="248.918" y1="331.625" x2="241.273" y2="318.309"/>
</svg>