<?xml version="1.0" encoding="UTF-8"?>
<svg id="uuid-2667b837-c7f2-4eb4-8ba4-7c0c3def4478" data-name="&amp;lt;Layer&amp;gt;" xmlns="http://www.w3.org/2000/svg" viewBox="0 0 451.11 451.11">
  <defs>
    <style>
      .uuid-46aac055-ca49-4044-aa58-8d01354edb26, .uuid-c98034d0-c5e5-4a36-b05f-1c9813c6a12f, .uuid-72f0c66a-05dc-4f2c-8ced-da23d59028a3, .uuid-25e2ed2e-5388-464f-afe6-c82ebfd8d4ad, .uuid-534d181f-53d5-430d-9077-bf49cea53bb2, .uuid-b9619644-c336-4a9d-bd3d-36569bd68f6f, .uuid-c5278edb-46d5-43c4-bad2-bb3972f6d840, .uuid-e690c00f-db13-49f6-968d-db327501a2d3, .uuid-5af9f0a0-4665-46b1-94ca-96a4ea832beb {
        fill: none;
        stroke: #000;
        stroke-linecap: round;
      }

      .uuid-46aac055-ca49-4044-aa58-8d01354edb26, .uuid-5af9f0a0-4665-46b1-94ca-96a4ea832beb {
        stroke-linejoin: round;
        stroke-width: 4.117px;
      }

      .uuid-c98034d0-c5e5-4a36-b05f-1c9813c6a12f {
        stroke-width: 1.185px;
      }

      .uuid-c98034d0-c5e5-4a36-b05f-1c9813c6a12f, .uuid-72f0c66a-05dc-4f2c-8ced-da23d59028a3, .uuid-25e2ed2e-5388-464f-afe6-c82ebfd8d4ad, .uuid-534d181f-53d5-430d-9077-bf49cea53bb2, .uuid-b9619644-c336-4a9d-bd3d-36569bd68f6f, .uuid-c5278edb-46d5-43c4-bad2-bb3972f6d840, .uuid-e690c00f-db13-49f6-968d-db327501a2d3 {
        stroke-miterlimit: 10;
      }

      .uuid-72f0c66a-05dc-4f2c-8ced-da23d59028a3 {
        stroke-width: 1.189px;
      }

      .uuid-25e2ed2e-5388-464f-afe6-c82ebfd8d4ad {
        stroke-width: 1.163px;
      }

      .uuid-534d181f-53d5-430d-9077-bf49cea53bb2 {
        stroke-width: 1.173px;
      }

      .uuid-b9619644-c336-4a9d-bd3d-36569bd68f6f {
        stroke-width: 1.159px;
      }

      .uuid-c5278edb-46d5-43c4-bad2-bb3972f6d840 {
        stroke-width: 1.199px;
      }

      .uuid-e690c00f-db13-49f6-968d-db327501a2d3 {
        stroke-width: 1.214px;
      }

      .uuid-5af9f0a0-4665-46b1-94ca-96a4ea832beb {
        fill-rule: evenodd;
      }
    </style>
  </defs>
  <g>
    <line class="uuid-46aac055-ca49-4044-aa58-8d01354edb26" x1="277.683" y1="189.028" x2="277.683" y2="325.373"/>
    <line class="uuid-46aac055-ca49-4044-aa58-8d01354edb26" x1="246.099" y1="339.564" x2="246.099" y2="204.025"/>
    <path class="uuid-5af9f0a0-4665-46b1-94ca-96a4ea832beb" d="M213.879,202.696c3.838,0,17.275-4.948,21.3-6.741,7.671-3.3,13.606-7.306,17.318-11.604,3.375-3.885,4.861-8.014,4.129-12.021-.169-.802-.486-1.681-.828-2.491-3.117-7.26-13.378-11.403-20.498-13.36-10.968-3.031-24.67-3.885-38.498-1.98-9.323,1.277-22.65,4.747-29.435,12.264-2.1,2.322-3.079,4.765-2.738,7.083,1.171,13.72,45.448,15.582,56.21,3.543"/>
    <path class="uuid-5af9f0a0-4665-46b1-94ca-96a4ea832beb" d="M274.633,161.705c-3.201-3.297-7.208-6.447-12.021-9.231-27.776-16.024-72.723-16.024-100.425,0-4.883,2.784-8.889,5.934-12.065,9.231-2.984,3.127-5.228,6.45-6.696,9.871,5.218,11.071,15.255,18.228,26.312,22.889,13.068,5.667,28.751,8.405,44.31,8.184"/>
    <path class="uuid-5af9f0a0-4665-46b1-94ca-96a4ea832beb" d="M272.237,139.646c-2.737-2.443-5.934-4.761-9.625-6.913-27.776-16.046-72.723-16.046-100.425,0-13.874,8.014-20.837,18.47-20.837,28.971,0,3.322.685,6.622,2.075,9.871"/>
    <path class="uuid-5af9f0a0-4665-46b1-94ca-96a4ea832beb" d="M274.633,161.705c2.954,3.127,5.202,6.45,6.666,9.871,1.391-3.249,2.102-6.55,2.102-9.871,0-7.669-3.738-15.34-11.116-22.006"/>
    <line class="uuid-46aac055-ca49-4044-aa58-8d01354edb26" x1="272.237" y1="139.646" x2="272.285" y2="139.698"/>
    <path class="uuid-5af9f0a0-4665-46b1-94ca-96a4ea832beb" d="M281.299,171.576c-3.117,8.046-11.447,14.909-18.687,19.103-13.485,7.793-30.977,11.774-48.565,11.97"/>
    <line class="uuid-46aac055-ca49-4044-aa58-8d01354edb26" x1="169.738" y1="336.905" x2="169.738" y2="201.181"/>
    <path class="uuid-5af9f0a0-4665-46b1-94ca-96a4ea832beb" d="M292.853,295.107c.247,1.955.247,3.934,0,5.914-.586,5.445-2.856,10.846-6.741,15.976-2.27,2.88-5.056,5.692-8.429,8.355-8.684,7.149-20.616,11.943-31.536,14.213-13.802,3.08-29.314,3.838-43.946,2.863-10.778-.655-22.165-2.465-32.463-5.523"/>
    <line class="uuid-46aac055-ca49-4044-aa58-8d01354edb26" x1="131.704" y1="301.02" x2="131.704" y2="161.705"/>
    <path class="uuid-5af9f0a0-4665-46b1-94ca-96a4ea832beb" d="M169.738,336.905c-5.74-1.685-10.678-3.712-14.586-5.912-21.005-12.143-22.179-18.077-23.158-27.309-.122-.858-.169-1.737-.291-2.663"/>
    <line class="uuid-46aac055-ca49-4044-aa58-8d01354edb26" x1="292.853" y1="164.489" x2="292.853" y2="295.107"/>
    <line class="uuid-46aac055-ca49-4044-aa58-8d01354edb26" x1="301.039" y1="127.044" x2="281.885" y2="138.108"/>
    <path class="uuid-5af9f0a0-4665-46b1-94ca-96a4ea832beb" d="M311.197,132.88c0-5.666-3.823-9.129-9.647-6.129-.169.095-.343.169-.511.293"/>
    <path class="uuid-5af9f0a0-4665-46b1-94ca-96a4ea832beb" d="M301.039,238.191c5.607-3.344,10.158-10.924,10.158-17.492"/>
    <line class="uuid-46aac055-ca49-4044-aa58-8d01354edb26" x1="292.853" y1="242.882" x2="301.039" y2="238.191"/>
    <path class="uuid-5af9f0a0-4665-46b1-94ca-96a4ea832beb" d="M319.406,121.058c0-3.712-1.342-6.277-3.444-7.498-2.539-1.342-5.882-.742-8.182.832"/>
    <line class="uuid-46aac055-ca49-4044-aa58-8d01354edb26" x1="319.406" y1="223.021" x2="319.406" y2="121.058"/>
    <path class="uuid-5af9f0a0-4665-46b1-94ca-96a4ea832beb" d="M307.78,243.126c3.201-1.807,6.108-5.008,8.182-8.647,2.102-3.616,3.444-7.719,3.444-11.457"/>
    <line class="uuid-46aac055-ca49-4044-aa58-8d01354edb26" x1="292.853" y1="251.724" x2="307.78" y2="243.126"/>
    <path class="uuid-5af9f0a0-4665-46b1-94ca-96a4ea832beb" d="M315.962,113.559l-9.647-5.57c-3.275-1.391-5.082-.685-8.183.805l-30.954,17.911"/>
    <line class="uuid-46aac055-ca49-4044-aa58-8d01354edb26" x1="276.244" y1="132.585" x2="307.78" y2="114.391"/>
    <path class="uuid-5af9f0a0-4665-46b1-94ca-96a4ea832beb" d="M301.625,127.383v87.672c-.379,6.243-2.815,10.858-7.135,15.296"/>
    <path class="uuid-5af9f0a0-4665-46b1-94ca-96a4ea832beb" d="M311.197,132.88c0-.389,0-.78-.047-1.147"/>
    <line class="uuid-46aac055-ca49-4044-aa58-8d01354edb26" x1="311.197" y1="220.699" x2="311.197" y2="132.88"/>
    <path class="uuid-5af9f0a0-4665-46b1-94ca-96a4ea832beb" d="M155.347,128.777c-12.421,7.183-23.643,18.221-23.643,33.49.243,11.704,8.132,23.428,23.643,32.368,4.472,2.539,9.283,4.765,14.391,6.546,32.694,11.847,79.526,9.518,107.681-11.944,9.4-7.376,14.555-15.976,15.435-24.748.831-7.681-1.715-15.489-7.525-22.598-27.477-33.64-97.489-31.829-129.982-13.114Z"/>
  </g>
  <line class="uuid-b9619644-c336-4a9d-bd3d-36569bd68f6f" x1="301.382" y1="235.431" x2="295.396" y2="231.962"/>
  <line class="uuid-b9619644-c336-4a9d-bd3d-36569bd68f6f" x1="308.243" y1="226.318" x2="301.867" y2="222.606"/>
  <line class="uuid-b9619644-c336-4a9d-bd3d-36569bd68f6f" x1="309.417" y1="213.958" x2="303.53" y2="210.563"/>
  <line class="uuid-b9619644-c336-4a9d-bd3d-36569bd68f6f" x1="309.417" y1="200.912" x2="303.53" y2="197.541"/>
  <line class="uuid-b9619644-c336-4a9d-bd3d-36569bd68f6f" x1="309.417" y1="187.868" x2="303.53" y2="184.498"/>
  <line class="uuid-b9619644-c336-4a9d-bd3d-36569bd68f6f" x1="309.417" y1="174.847" x2="303.53" y2="171.476"/>
  <line class="uuid-b9619644-c336-4a9d-bd3d-36569bd68f6f" x1="309.417" y1="161.803" x2="303.53" y2="158.434"/>
  <line class="uuid-b9619644-c336-4a9d-bd3d-36569bd68f6f" x1="309.417" y1="148.76" x2="303.53" y2="145.386"/>
  <line class="uuid-b9619644-c336-4a9d-bd3d-36569bd68f6f" x1="309.417" y1="135.717" x2="303.53" y2="132.343"/>
  <line class="uuid-c98034d0-c5e5-4a36-b05f-1c9813c6a12f" x1="137.981" y1="318.615" x2="137.981" y2="180.009"/>
  <line class="uuid-c98034d0-c5e5-4a36-b05f-1c9813c6a12f" x1="149.243" y1="328.041" x2="149.243" y2="189.984"/>
  <line class="uuid-c98034d0-c5e5-4a36-b05f-1c9813c6a12f" x1="160.575" y1="334.358" x2="160.575" y2="196.279"/>
  <line class="uuid-b9619644-c336-4a9d-bd3d-36569bd68f6f" x1="281.421" y1="127.409" x2="275.56" y2="124.013"/>
  <line class="uuid-b9619644-c336-4a9d-bd3d-36569bd68f6f" x1="292.731" y1="120.885" x2="286.87" y2="117.49"/>
  <line class="uuid-b9619644-c336-4a9d-bd3d-36569bd68f6f" x1="304.068" y1="114.391" x2="298.133" y2="110.944"/>
  <line class="uuid-b9619644-c336-4a9d-bd3d-36569bd68f6f" x1="162.53" y1="150.446" x2="162.53" y2="134.396"/>
  <line class="uuid-b9619644-c336-4a9d-bd3d-36569bd68f6f" x1="185.124" y1="142.041" x2="185.124" y2="125.407"/>
  <line class="uuid-b9619644-c336-4a9d-bd3d-36569bd68f6f" x1="207.724" y1="139.061" x2="207.724" y2="122.279"/>
  <line class="uuid-b9619644-c336-4a9d-bd3d-36569bd68f6f" x1="230.318" y1="140.257" x2="230.318" y2="123.549"/>
  <line class="uuid-b9619644-c336-4a9d-bd3d-36569bd68f6f" x1="252.839" y1="146.074" x2="252.839" y2="129.679"/>
  <line class="uuid-b9619644-c336-4a9d-bd3d-36569bd68f6f" x1="275.438" y1="160.045" x2="275.438" y2="145.511"/>
  <line class="uuid-b9619644-c336-4a9d-bd3d-36569bd68f6f" x1="276.829" y1="166.396" x2="258.068" y2="177.242"/>
  <line class="uuid-b9619644-c336-4a9d-bd3d-36569bd68f6f" x1="254.233" y1="179.442" x2="218.982" y2="199.789"/>
  <line class="uuid-b9619644-c336-4a9d-bd3d-36569bd68f6f" x1="268.404" y1="158.238" x2="255.234" y2="165.836"/>
  <line class="uuid-b9619644-c336-4a9d-bd3d-36569bd68f6f" x1="257.358" y1="151.567" x2="245.536" y2="158.434"/>
  <line class="uuid-b9619644-c336-4a9d-bd3d-36569bd68f6f" x1="242.166" y1="160.361" x2="222.867" y2="171.476"/>
  <line class="uuid-b9619644-c336-4a9d-bd3d-36569bd68f6f" x1="220.498" y1="172.871" x2="202.911" y2="183.03"/>
  <line class="uuid-b9619644-c336-4a9d-bd3d-36569bd68f6f" x1="195.581" y1="187.257" x2="179.727" y2="196.372"/>
  <line class="uuid-b9619644-c336-4a9d-bd3d-36569bd68f6f" x1="243.729" y1="146.417" x2="231.172" y2="153.669"/>
  <line class="uuid-b9619644-c336-4a9d-bd3d-36569bd68f6f" x1="227.632" y1="155.696" x2="179.9" y2="183.25"/>
  <line class="uuid-b9619644-c336-4a9d-bd3d-36569bd68f6f" x1="176.599" y1="185.131" x2="166.441" y2="191.021"/>
  <line class="uuid-b9619644-c336-4a9d-bd3d-36569bd68f6f" x1="226.996" y1="143.042" x2="211.947" y2="151.689"/>
  <line class="uuid-b9619644-c336-4a9d-bd3d-36569bd68f6f" x1="206.28" y1="154.989" x2="167.195" y2="177.536"/>
  <line class="uuid-b9619644-c336-4a9d-bd3d-36569bd68f6f" x1="165.141" y1="178.732" x2="155.689" y2="184.181"/>
  <line class="uuid-25e2ed2e-5388-464f-afe6-c82ebfd8d4ad" x1="205.744" y1="142.262" x2="178.075" y2="158.213"/>
  <line class="uuid-b9619644-c336-4a9d-bd3d-36569bd68f6f" x1="170.708" y1="162.469" x2="147.385" y2="175.948"/>
  <line class="uuid-e690c00f-db13-49f6-968d-db327501a2d3" x1="180.599" y1="339.723" x2="180.599" y2="205.401"/>
  <line class="uuid-c5278edb-46d5-43c4-bad2-bb3972f6d840" x1="203.168" y1="343.27" x2="203.168" y2="208.116"/>
  <line class="uuid-72f0c66a-05dc-4f2c-8ced-da23d59028a3" x1="225.767" y1="343.87" x2="225.767" y2="207.177"/>
  <line class="uuid-534d181f-53d5-430d-9077-bf49cea53bb2" x1="285.98" y1="318.835" x2="285.98" y2="180.31"/>
</svg>