<?xml version="1.0" encoding="UTF-8"?>
<svg id="uuid-de301aaf-6da7-4a2b-99e7-9c5d3b3fca3f" data-name="&amp;lt;Layer&amp;gt;" xmlns="http://www.w3.org/2000/svg" viewBox="0 0 451.11 451.11">
  <defs>
    <style>
      .uuid-f6317b8c-3791-49e2-b93d-9f8fb08f7260, .uuid-cec6c6c4-d1e0-4c19-a2aa-0314bcc75786, .uuid-7076f52c-3a60-4017-9d16-6d7ac34aa2a1 {
        fill: none;
        stroke: #000;
        stroke-linecap: round;
      }

      .uuid-f6317b8c-3791-49e2-b93d-9f8fb08f7260, .uuid-7076f52c-3a60-4017-9d16-6d7ac34aa2a1 {
        stroke-linejoin: round;
        stroke-width: 4.117px;
      }

      .uuid-cec6c6c4-d1e0-4c19-a2aa-0314bcc75786 {
        stroke-miterlimit: 10;
        stroke-width: 1.163px;
      }

      .uuid-7076f52c-3a60-4017-9d16-6d7ac34aa2a1 {
        fill-rule: evenodd;
      }
    </style>
  </defs>
  <path class="uuid-7076f52c-3a60-4017-9d16-6d7ac34aa2a1" d="M141.362,326.455c.809-10.751,3.079-21.621,6.45-32.174,1.637-4.934,3.543-9.771,5.692-14.584,3.834-8.768,8.525-17.245,13.996-25.137,4.055-6.031,8.429-11.628,12.995-16.683,8.65-9.577,18.423-17.807,29.045-24.257,5.986-3.249,12.019-5.986,18.176-7.673.853-.217,1.733-.389,2.565-.584.562-.17,1.148-.295,1.733-.343,1.099-.243,2.152-.343,3.249-.463,2.274-.295,4.521-.343,6.744-.221.758.026,1.49.099,2.196.173,4.522.559,9.065,1.906,13.658,4.276-8.377-4.813-19.471-12.363-29.559-17.002"/>
  <path class="uuid-7076f52c-3a60-4017-9d16-6d7ac34aa2a1" d="M237.927,112.414c-8.867-5.108-28.677-18.346-36.739-19.347-39.671-4.912-82.763,80.659-49.321,100.936"/>
  <path class="uuid-7076f52c-3a60-4017-9d16-6d7ac34aa2a1" d="M266.387,215.866c-9.865-11.504-24.894-13.65-38.67-9.919-19.824,5.06-37.691,20.402-50.592,35.838-19.173,22.853-34.104,55.013-35.762,84.67"/>
  <path class="uuid-7076f52c-3a60-4017-9d16-6d7ac34aa2a1" d="M249.679,138.432c0-12.801-4.47-21.816-11.752-26.017-7.304-4.202-17.345-3.592-28.46,2.832-11.064,6.399-21.127,17.393-28.382,29.976-7.256,12.602-11.774,26.797-11.774,39.62s4.518,21.814,11.774,26.017c25.671,14.827,68.594-31.857,68.594-72.428Z"/>
  <polyline class="uuid-7076f52c-3a60-4017-9d16-6d7ac34aa2a1" points="319.127 219.58 301.93 209.637 299.85 208.953"/>
  <path class="uuid-7076f52c-3a60-4017-9d16-6d7ac34aa2a1" d="M299.85,208.953c-4.418-1.269-9.353-1.368-13.824-.684-11.799,1.833-23.478,9.089-32.293,16.83-21.256,18.543-38.207,49.564-40.529,77.803-.832,9.357,0,19.935,4.007,28.56,1.516,3.37,3.812,6.787,6.498,9.352"/>
  <polyline class="uuid-7076f52c-3a60-4017-9d16-6d7ac34aa2a1" points="223.71 340.814 225.346 342.257 242.519 352.202"/>
  <path class="uuid-7076f52c-3a60-4017-9d16-6d7ac34aa2a1" d="M242.519,352.202c-1.097-1.003-2.075-1.857-3.128-3.031-3.076-3.518-5.397-8.036-6.861-12.484-3.64-11.627-2.738-25.624,0-37.35,6.203-26.481,23.988-55.013,46.415-70.596,8.351-5.792,18.856-10.751,29.14-10.968,2.906-.048,6.203.317,8.941,1.121"/>
  <path class="uuid-7076f52c-3a60-4017-9d16-6d7ac34aa2a1" d="M284.511,350.808c30.024-17.319,54.404-59.485,54.404-94.17s-24.38-48.784-54.404-31.44c-30.019,17.345-54.399,59.555-54.399,94.244s24.38,48.711,54.399,31.366Z"/>
  <polygon class="uuid-7076f52c-3a60-4017-9d16-6d7ac34aa2a1" points="291.646 240.393 291.646 275.694 322.206 258.055 322.206 274.494 309.722 281.702 291.646 292.133 291.646 327.403 277.355 335.638 277.355 300.338 246.819 317.977 246.819 301.559 277.355 283.898 277.355 248.624 291.646 240.393"/>
  <path class="uuid-7076f52c-3a60-4017-9d16-6d7ac34aa2a1" d="M169.527,204.214c-32,24.501-54.351,65.908-57.333,105.385"/>
  <line class="uuid-f6317b8c-3791-49e2-b93d-9f8fb08f7260" x1="112.195" y1="309.599" x2="141.362" y2="326.455"/>
  <line class="uuid-f6317b8c-3791-49e2-b93d-9f8fb08f7260" x1="151.867" y1="194.004" x2="181.085" y2="210.86"/>
  <line class="uuid-f6317b8c-3791-49e2-b93d-9f8fb08f7260" x1="141.362" y1="326.455" x2="217.212" y2="282.655"/>
  <line class="uuid-cec6c6c4-d1e0-4c19-a2aa-0314bcc75786" x1="320.226" y1="272.762" x2="319.763" y2="273.566"/>
  <line class="uuid-cec6c6c4-d1e0-4c19-a2aa-0314bcc75786" x1="289.692" y1="325.649" x2="289.155" y2="326.527"/>
  <line class="uuid-cec6c6c4-d1e0-4c19-a2aa-0314bcc75786" x1="310.65" y1="266.701" x2="299.85" y2="285.463"/>
  <line class="uuid-cec6c6c4-d1e0-4c19-a2aa-0314bcc75786" x1="290.034" y1="302.491" x2="279.162" y2="321.273"/>
  <line class="uuid-cec6c6c4-d1e0-4c19-a2aa-0314bcc75786" x1="291.72" y1="276.959" x2="278.576" y2="299.728"/>
  <line class="uuid-cec6c6c4-d1e0-4c19-a2aa-0314bcc75786" x1="290.034" y1="257.344" x2="279.162" y2="276.131"/>
  <line class="uuid-cec6c6c4-d1e0-4c19-a2aa-0314bcc75786" x1="271.563" y1="289.273" x2="260.768" y2="308.01"/>
  <line class="uuid-cec6c6c4-d1e0-4c19-a2aa-0314bcc75786" x1="282.31" y1="248.087" x2="279.404" y2="253.07"/>
  <line class="uuid-cec6c6c4-d1e0-4c19-a2aa-0314bcc75786" x1="251.754" y1="301.048" x2="248.847" y2="305.983"/>
  <line class="uuid-cec6c6c4-d1e0-4c19-a2aa-0314bcc75786" x1="229.06" y1="327.502" x2="215.405" y2="319.636"/>
  <line class="uuid-cec6c6c4-d1e0-4c19-a2aa-0314bcc75786" x1="230.454" y1="302.244" x2="216.039" y2="293.94"/>
  <line class="uuid-cec6c6c4-d1e0-4c19-a2aa-0314bcc75786" x1="237.415" y1="280.186" x2="222.731" y2="271.735"/>
  <line class="uuid-cec6c6c4-d1e0-4c19-a2aa-0314bcc75786" x1="247.868" y1="260.155" x2="233.166" y2="251.704"/>
  <line class="uuid-cec6c6c4-d1e0-4c19-a2aa-0314bcc75786" x1="261.696" y1="242.1" x2="247.11" y2="233.649"/>
  <line class="uuid-cec6c6c4-d1e0-4c19-a2aa-0314bcc75786" x1="279.699" y1="226.393" x2="265.533" y2="218.237"/>
  <line class="uuid-cec6c6c4-d1e0-4c19-a2aa-0314bcc75786" x1="306.863" y1="216.014" x2="296.822" y2="210.201"/>
  <line class="uuid-cec6c6c4-d1e0-4c19-a2aa-0314bcc75786" x1="254.492" y1="207.563" x2="227.937" y2="253.537"/>
  <line class="uuid-cec6c6c4-d1e0-4c19-a2aa-0314bcc75786" x1="226.105" y1="256.734" x2="209.591" y2="285.315"/>
  <line class="uuid-cec6c6c4-d1e0-4c19-a2aa-0314bcc75786" x1="230.159" y1="204.509" x2="168.99" y2="310.427"/>
  <line class="uuid-cec6c6c4-d1e0-4c19-a2aa-0314bcc75786" x1="188.409" y1="231.67" x2="146.348" y2="304.565"/>
  <line class="uuid-cec6c6c4-d1e0-4c19-a2aa-0314bcc75786" x1="141.413" y1="316.339" x2="114.37" y2="300.728"/>
  <line class="uuid-cec6c6c4-d1e0-4c19-a2aa-0314bcc75786" x1="143.735" y1="304.661" x2="116.618" y2="289.006"/>
  <line class="uuid-cec6c6c4-d1e0-4c19-a2aa-0314bcc75786" x1="147.006" y1="293.524" x2="119.767" y2="277.791"/>
  <line class="uuid-cec6c6c4-d1e0-4c19-a2aa-0314bcc75786" x1="151.061" y1="282.824" x2="123.653" y2="267.018"/>
  <line class="uuid-cec6c6c4-d1e0-4c19-a2aa-0314bcc75786" x1="155.826" y1="272.515" x2="128.344" y2="256.686"/>
  <line class="uuid-cec6c6c4-d1e0-4c19-a2aa-0314bcc75786" x1="161.223" y1="262.62" x2="133.741" y2="246.767"/>
  <line class="uuid-cec6c6c4-d1e0-4c19-a2aa-0314bcc75786" x1="167.331" y1="253.12" x2="139.85" y2="237.266"/>
  <line class="uuid-cec6c6c4-d1e0-4c19-a2aa-0314bcc75786" x1="174.05" y1="243.985" x2="146.641" y2="228.152"/>
  <line class="uuid-cec6c6c4-d1e0-4c19-a2aa-0314bcc75786" x1="181.548" y1="235.239" x2="154.262" y2="219.48"/>
  <line class="uuid-cec6c6c4-d1e0-4c19-a2aa-0314bcc75786" x1="189.853" y1="227.004" x2="162.665" y2="211.323"/>
  <line class="uuid-cec6c6c4-d1e0-4c19-a2aa-0314bcc75786" x1="198.33" y1="218.87" x2="192.589" y2="215.551"/>
  <line class="uuid-cec6c6c4-d1e0-4c19-a2aa-0314bcc75786" x1="208.665" y1="211.787" x2="207.907" y2="211.374"/>
  <line class="uuid-cec6c6c4-d1e0-4c19-a2aa-0314bcc75786" x1="221.097" y1="205.947" x2="218.359" y2="204.362"/>
  <line class="uuid-cec6c6c4-d1e0-4c19-a2aa-0314bcc75786" x1="237.758" y1="202.503" x2="226.616" y2="196.08"/>
  <line class="uuid-cec6c6c4-d1e0-4c19-a2aa-0314bcc75786" x1="168.43" y1="192.805" x2="142.241" y2="177.686"/>
  <line class="uuid-cec6c6c4-d1e0-4c19-a2aa-0314bcc75786" x1="170.58" y1="167.987" x2="143.389" y2="152.254"/>
  <line class="uuid-cec6c6c4-d1e0-4c19-a2aa-0314bcc75786" x1="179.057" y1="146.809" x2="151.939" y2="131.102"/>
  <line class="uuid-cec6c6c4-d1e0-4c19-a2aa-0314bcc75786" x1="192.1" y1="128.294" x2="164.814" y2="112.509"/>
  <line class="uuid-cec6c6c4-d1e0-4c19-a2aa-0314bcc75786" x1="210.688" y1="112.904" x2="184.039" y2="97.512"/>
</svg>