<?xml version="1.0" encoding="UTF-8"?>
<svg id="uuid-93b2a7a0-280e-4126-bf8a-5d98fe42e951" data-name="&amp;lt;Layer&amp;gt;" xmlns="http://www.w3.org/2000/svg" viewBox="0 0 451.11 451.11">
  <defs>
    <style>
      .uuid-67732a95-54fc-442a-9740-a3cbbb31820d, .uuid-3ffb5f71-80c8-4779-a980-1e5673fcc996, .uuid-d2d2c06b-45fe-4e73-834e-bf1ee0f03f1f, .uuid-07247ce2-bb29-4682-8771-45cb2acdb8a8 {
        fill: none;
        stroke: #000;
        stroke-linecap: round;
      }

      .uuid-67732a95-54fc-442a-9740-a3cbbb31820d, .uuid-07247ce2-bb29-4682-8771-45cb2acdb8a8 {
        stroke-linejoin: round;
        stroke-width: 4.113px;
      }

      .uuid-3ffb5f71-80c8-4779-a980-1e5673fcc996 {
        stroke-miterlimit: 10;
      }

      .uuid-3ffb5f71-80c8-4779-a980-1e5673fcc996, .uuid-d2d2c06b-45fe-4e73-834e-bf1ee0f03f1f {
        stroke-width: 1.159px;
      }

      .uuid-d2d2c06b-45fe-4e73-834e-bf1ee0f03f1f {
        stroke-miterlimit: 22.926;
      }

      .uuid-d2d2c06b-45fe-4e73-834e-bf1ee0f03f1f, .uuid-07247ce2-bb29-4682-8771-45cb2acdb8a8 {
        fill-rule: evenodd;
      }
    </style>
  </defs>
  <g>
    <line class="uuid-67732a95-54fc-442a-9740-a3cbbb31820d" x1="148.592" y1="323.43" x2="148.592" y2="163.621"/>
    <path class="uuid-07247ce2-bb29-4682-8771-45cb2acdb8a8" d="M149.35,161.303c.343-.684.927-1.221,1.49-1.564"/>
    <path class="uuid-07247ce2-bb29-4682-8771-45cb2acdb8a8" d="M161.175,154.51c-.051,0-.099-.051-.173-.051,0,0-.048-.07-.099-.07"/>
    <line class="uuid-67732a95-54fc-442a-9740-a3cbbb31820d" x1="160.903" y1="154.389" x2="137.211" y2="140.636"/>
    <path class="uuid-07247ce2-bb29-4682-8771-45cb2acdb8a8" d="M137.211,140.636c-.71-.243-.931-.122-1.589.169-2.712,1.564-5.497,3.202-8.235,4.765-1.685.975-2.613,2.198-2.782,4.177"/>
    <line class="uuid-67732a95-54fc-442a-9740-a3cbbb31820d" x1="124.606" y1="149.746" x2="124.606" y2="344.977"/>
    <path class="uuid-07247ce2-bb29-4682-8771-45cb2acdb8a8" d="M124.606,344.977c.048,1.806.339,3.201,1.979,4.298"/>
    <line class="uuid-67732a95-54fc-442a-9740-a3cbbb31820d" x1="126.586" y1="349.275" x2="150.571" y2="363.101"/>
    <path class="uuid-07247ce2-bb29-4682-8771-45cb2acdb8a8" d="M150.571,363.101c-.658-.341-1.123-.927-1.464-1.685-.173-.295-.295-.637-.343-1.049-.121-.467-.173-.979-.173-1.564"/>
    <line class="uuid-67732a95-54fc-442a-9740-a3cbbb31820d" x1="148.592" y1="358.804" x2="148.592" y2="335.863"/>
    <line class="uuid-67732a95-54fc-442a-9740-a3cbbb31820d" x1="161.882" y1="343.535" x2="324.303" y2="249.729"/>
    <path class="uuid-07247ce2-bb29-4682-8771-45cb2acdb8a8" d="M324.303,249.729c.174-.095.369-.217.537-.217.173-.052.343-.122.464-.122.1,0,.221.07.39.122"/>
    <line class="uuid-67732a95-54fc-442a-9740-a3cbbb31820d" x1="325.651" y1="249.46" x2="301.904" y2="235.758"/>
    <path class="uuid-07247ce2-bb29-4682-8771-45cb2acdb8a8" d="M301.904,235.758c-.71-.295-.927-.195-1.637.096"/>
    <line class="uuid-67732a95-54fc-442a-9740-a3cbbb31820d" x1="300.267" y1="235.854" x2="294.527" y2="239.18"/>
    <path class="uuid-07247ce2-bb29-4682-8771-45cb2acdb8a8" d="M155.215,362.638c-1.858,1.075-3.496,1.173-4.717.463-1.221-.684-1.905-2.174-1.905-4.276"/>
    <line class="uuid-67732a95-54fc-442a-9740-a3cbbb31820d" x1="148.592" y1="358.826" x2="148.592" y2="163.599"/>
    <path class="uuid-07247ce2-bb29-4682-8771-45cb2acdb8a8" d="M148.592,163.599c0-1.416.979-3.153,2.2-3.86,2.954-1.685,5.862-3.396,8.82-5.08,1.221-.71,2.222-.122,2.222,1.295"/>
    <path class="uuid-07247ce2-bb29-4682-8771-45cb2acdb8a8" d="M161.834,155.953l.048,32.878M161.882,331.102l-.048,12.408,162.421-93.78"/>
    <path class="uuid-07247ce2-bb29-4682-8771-45cb2acdb8a8" d="M324.255,249.729c1.223-.706,2.248-.147,2.248,1.295v10.136c0,1.421-1.025,3.154-2.248,3.886"/>
    <line class="uuid-67732a95-54fc-442a-9740-a3cbbb31820d" x1="324.255" y1="265.046" x2="155.215" y2="362.638"/>
    <path class="uuid-07247ce2-bb29-4682-8771-45cb2acdb8a8" d="M272.69,124.829l-.052.052"/>
    <polyline class="uuid-07247ce2-bb29-4682-8771-45cb2acdb8a8" points="294.527 167.628 294.527 254.494 161.882 331.102 161.882 188.832 245.963 140.293"/>
    <line class="uuid-67732a95-54fc-442a-9740-a3cbbb31820d" x1="251.897" y1="166.236" x2="243.129" y2="161.178"/>
    <path class="uuid-07247ce2-bb29-4682-8771-45cb2acdb8a8" d="M243.129,161.178c-.537-.417-.706-.559-1.049-1.123"/>
    <line class="uuid-67732a95-54fc-442a-9740-a3cbbb31820d" x1="242.08" y1="160.055" x2="239.517" y2="155.537"/>
    <path class="uuid-07247ce2-bb29-4682-8771-45cb2acdb8a8" d="M239.517,155.537c-.979-2.027-.685-3.911-.052-6.008,1.101-3.175,2.274-4.396,4.422-6.913,3.666-4.154,7.256-8.283,10.896-12.436,6.74-7.693,13.433-15.388,20.151-23.085,5.718-6.498,11.457-13.018,17.149-19.54"/>
    <line class="uuid-67732a95-54fc-442a-9740-a3cbbb31820d" x1="292.083" y1="87.554" x2="300.851" y2="92.634"/>
    <path class="uuid-07247ce2-bb29-4682-8771-45cb2acdb8a8" d="M300.851,92.634c-4.176,4.739-8.305,9.452-12.432,14.191-7.767,8.894-15.56,17.761-23.328,26.65-3.616,4.154-7.208,8.283-10.872,12.436-2.443,2.807-4.298,4.47-5.766,7.888-.732,2.3-1.221,4.522-.169,6.818"/>
    <line class="uuid-67732a95-54fc-442a-9740-a3cbbb31820d" x1="248.285" y1="160.618" x2="250.848" y2="165.111"/>
    <path class="uuid-07247ce2-bb29-4682-8771-45cb2acdb8a8" d="M250.848,165.111c.343.563.515.736,1.049,1.125"/>
    <line class="uuid-67732a95-54fc-442a-9740-a3cbbb31820d" x1="279.773" y1="166.358" x2="286.734" y2="170.365"/>
    <path class="uuid-07247ce2-bb29-4682-8771-45cb2acdb8a8" d="M286.734,170.365c-.17-.122-.295-.247-.417-.295-.684-.463-1.147-1.221-1.39-2.322-.052-.169-.052-.337-.1-.584-.072-.173-.072-.391-.072-.637"/>
    <line class="uuid-67732a95-54fc-442a-9740-a3cbbb31820d" x1="284.755" y1="166.527" x2="284.364" y2="154.389"/>
    <path class="uuid-07247ce2-bb29-4682-8771-45cb2acdb8a8" d="M252.876,166.601h-.048"/>
    <polyline class="uuid-07247ce2-bb29-4682-8771-45cb2acdb8a8" points="252.828 166.601 244.767 187.831 209.787 208.108"/>
    <path class="uuid-07247ce2-bb29-4682-8771-45cb2acdb8a8" d="M209.787,208.108c-3.301,2.024-5.449,4.809-7.208,8.253"/>
    <line class="uuid-67732a95-54fc-442a-9740-a3cbbb31820d" x1="202.58" y1="216.361" x2="169.601" y2="284.638"/>
    <path class="uuid-07247ce2-bb29-4682-8771-45cb2acdb8a8" d="M169.601,284.638c-1.149,2.687-2.443,7.205.658,9.185"/>
    <line class="uuid-67732a95-54fc-442a-9740-a3cbbb31820d" x1="170.259" y1="293.823" x2="179.031" y2="298.881"/>
    <path class="uuid-07247ce2-bb29-4682-8771-45cb2acdb8a8" d="M179.031,298.881c-.147-.077-.195-.125-.317-.247-.221-.121-.393-.291-.563-.512-.121-.051-.173-.121-.121-.195-.221-.221-.343-.441-.467-.684-.291-.71-.463-1.516-.463-2.443,0-1.321.341-2.713.806-3.934.125-.415.293-.758.467-1.173"/>
    <line class="uuid-67732a95-54fc-442a-9740-a3cbbb31820d" x1="178.373" y1="289.694" x2="211.351" y2="221.395"/>
    <path class="uuid-07247ce2-bb29-4682-8771-45cb2acdb8a8" d="M211.351,221.395c.411-.806.879-1.612,1.39-2.418.537-.831,1.048-1.516,1.636-2.222,1.171-1.394,2.491-2.543,4.177-3.594"/>
    <polyline class="uuid-07247ce2-bb29-4682-8771-45cb2acdb8a8" points="218.555 213.16 253.539 192.887 269.026 152.237"/>
    <polyline class="uuid-07247ce2-bb29-4682-8771-45cb2acdb8a8" points="218.555 213.186 253.539 192.887 269.026 152.237 259.105 163.599"/>
    <path class="uuid-07247ce2-bb29-4682-8771-45cb2acdb8a8" d="M259.105,163.599c-3.101,3.492-6.789,4.15-8.257,1.512"/>
    <path class="uuid-07247ce2-bb29-4682-8771-45cb2acdb8a8" d="M248.285,160.618c-1.49-2.664-.221-7.671,2.81-11.167,16.587-18.93,33.148-37.887,49.756-56.817.637,20.909,1.273,41.82,1.907,62.73.198,3.86-2.491,8.698-5.91,10.799"/>
    <line class="uuid-67732a95-54fc-442a-9740-a3cbbb31820d" x1="296.848" y1="166.164" x2="291.082" y2="169.729"/>
    <path class="uuid-07247ce2-bb29-4682-8771-45cb2acdb8a8" d="M291.082,169.729c-3.347,2.078-6.207.658-6.327-3.176"/>
    <polyline class="uuid-07247ce2-bb29-4682-8771-45cb2acdb8a8" points="284.755 166.553 284.364 154.389 266.166 201.659"/>
    <path class="uuid-07247ce2-bb29-4682-8771-45cb2acdb8a8" d="M266.166,201.659c-.732,1.832-1.785,3.612-3.054,5.176-1.342,1.663-2.906,3.028-4.422,3.907"/>
    <polyline class="uuid-07247ce2-bb29-4682-8771-45cb2acdb8a8" points="258.69 210.742 222.904 231.509 192.66 294.216"/>
    <path class="uuid-07247ce2-bb29-4682-8771-45cb2acdb8a8" d="M192.66,294.216c-2.075,4.298-5.91,7.108-8.647,6.277"/>
    <line class="uuid-67732a95-54fc-442a-9740-a3cbbb31820d" x1="184.013" y1="300.494" x2="179.469" y2="299.051"/>
  </g>
  <line class="uuid-3ffb5f71-80c8-4779-a980-1e5673fcc996" x1="164.104" y1="356.214" x2="150.207" y2="332.224"/>
  <line class="uuid-3ffb5f71-80c8-4779-a980-1e5673fcc996" x1="183.381" y1="344.414" x2="178.494" y2="335.963"/>
  <line class="uuid-3ffb5f71-80c8-4779-a980-1e5673fcc996" x1="160.149" y1="304.232" x2="150.377" y2="287.277"/>
  <line class="uuid-3ffb5f71-80c8-4779-a980-1e5673fcc996" x1="202.873" y1="333.129" x2="198.01" y2="324.678"/>
  <line class="uuid-3ffb5f71-80c8-4779-a980-1e5673fcc996" x1="160.149" y1="259.064" x2="150.377" y2="242.109"/>
  <line class="uuid-3ffb5f71-80c8-4779-a980-1e5673fcc996" x1="222.466" y1="321.84" x2="217.581" y2="313.389"/>
  <line class="uuid-3ffb5f71-80c8-4779-a980-1e5673fcc996" x1="160.149" y1="213.918" x2="150.377" y2="196.966"/>
  <line class="uuid-3ffb5f71-80c8-4779-a980-1e5673fcc996" x1="242.03" y1="310.535" x2="237.143" y2="302.104"/>
  <line class="uuid-3ffb5f71-80c8-4779-a980-1e5673fcc996" x1="160.023" y1="168.506" x2="154.799" y2="159.445"/>
  <line class="uuid-3ffb5f71-80c8-4779-a980-1e5673fcc996" x1="261.523" y1="299.272" x2="256.662" y2="290.821"/>
  <line class="uuid-3ffb5f71-80c8-4779-a980-1e5673fcc996" x1="281.089" y1="287.983" x2="276.229" y2="279.51"/>
  <line class="uuid-3ffb5f71-80c8-4779-a980-1e5673fcc996" x1="300.682" y1="276.699" x2="295.796" y2="268.221"/>
  <line class="uuid-3ffb5f71-80c8-4779-a980-1e5673fcc996" x1="320.25" y1="265.388" x2="315.363" y2="256.937"/>
  <line class="uuid-3ffb5f71-80c8-4779-a980-1e5673fcc996" x1="146.907" y1="347.296" x2="136.796" y2="353.112"/>
  <line class="uuid-3ffb5f71-80c8-4779-a980-1e5673fcc996" x1="147.248" y1="334.031" x2="126.044" y2="346.271"/>
  <line class="uuid-3ffb5f71-80c8-4779-a980-1e5673fcc996" x1="147.248" y1="321.014" x2="125.997" y2="333.299"/>
  <line class="uuid-3ffb5f71-80c8-4779-a980-1e5673fcc996" x1="147.248" y1="307.966" x2="125.997" y2="320.23"/>
  <line class="uuid-3ffb5f71-80c8-4779-a980-1e5673fcc996" x1="147.248" y1="294.923" x2="125.997" y2="307.208"/>
  <line class="uuid-3ffb5f71-80c8-4779-a980-1e5673fcc996" x1="147.248" y1="281.901" x2="125.997" y2="294.19"/>
  <line class="uuid-3ffb5f71-80c8-4779-a980-1e5673fcc996" x1="147.248" y1="268.859" x2="125.997" y2="281.143"/>
  <line class="uuid-3ffb5f71-80c8-4779-a980-1e5673fcc996" x1="147.248" y1="255.815" x2="125.997" y2="268.101"/>
  <line class="uuid-3ffb5f71-80c8-4779-a980-1e5673fcc996" x1="147.248" y1="242.794" x2="125.997" y2="255.057"/>
  <line class="uuid-3ffb5f71-80c8-4779-a980-1e5673fcc996" x1="147.248" y1="229.75" x2="125.997" y2="242.036"/>
  <line class="uuid-3ffb5f71-80c8-4779-a980-1e5673fcc996" x1="147.248" y1="216.728" x2="125.997" y2="228.992"/>
  <line class="uuid-3ffb5f71-80c8-4779-a980-1e5673fcc996" x1="147.248" y1="203.685" x2="125.997" y2="215.944"/>
  <line class="uuid-3ffb5f71-80c8-4779-a980-1e5673fcc996" x1="147.248" y1="190.639" x2="125.997" y2="202.928"/>
  <line class="uuid-3ffb5f71-80c8-4779-a980-1e5673fcc996" x1="147.248" y1="177.621" x2="125.997" y2="189.881"/>
  <line class="uuid-3ffb5f71-80c8-4779-a980-1e5673fcc996" x1="147.248" y1="164.573" x2="125.997" y2="176.837"/>
  <line class="uuid-3ffb5f71-80c8-4779-a980-1e5673fcc996" x1="150.377" y1="149.724" x2="125.876" y2="163.893"/>
  <line class="uuid-3ffb5f71-80c8-4779-a980-1e5673fcc996" x1="138.775" y1="143.421" x2="126.291" y2="150.625"/>
  <line class="uuid-3ffb5f71-80c8-4779-a980-1e5673fcc996" x1="164.788" y1="339.502" x2="163.91" y2="338.991"/>
  <line class="uuid-3ffb5f71-80c8-4779-a980-1e5673fcc996" x1="176.294" y1="333.103" x2="169.211" y2="329.002"/>
  <line class="uuid-3ffb5f71-80c8-4779-a980-1e5673fcc996" x1="187.556" y1="326.579" x2="180.474" y2="322.504"/>
  <line class="uuid-3ffb5f71-80c8-4779-a980-1e5673fcc996" x1="198.819" y1="320.06" x2="191.732" y2="315.98"/>
  <line class="uuid-3ffb5f71-80c8-4779-a980-1e5673fcc996" x1="210.151" y1="313.537" x2="203.043" y2="309.46"/>
  <line class="uuid-3ffb5f71-80c8-4779-a980-1e5673fcc996" x1="221.414" y1="307.017" x2="214.332" y2="302.936"/>
  <line class="uuid-3ffb5f71-80c8-4779-a980-1e5673fcc996" x1="232.676" y1="300.516" x2="225.591" y2="296.413"/>
  <line class="uuid-3ffb5f71-80c8-4779-a980-1e5673fcc996" x1="243.983" y1="293.996" x2="236.9" y2="289.915"/>
  <line class="uuid-3ffb5f71-80c8-4779-a980-1e5673fcc996" x1="255.272" y1="287.472" x2="248.185" y2="283.369"/>
  <line class="uuid-3ffb5f71-80c8-4779-a980-1e5673fcc996" x1="266.581" y1="280.952" x2="259.5" y2="276.869"/>
  <line class="uuid-3ffb5f71-80c8-4779-a980-1e5673fcc996" x1="277.866" y1="274.45" x2="270.758" y2="270.349"/>
  <line class="uuid-3ffb5f71-80c8-4779-a980-1e5673fcc996" x1="289.129" y1="267.931" x2="282.043" y2="263.825"/>
  <line class="uuid-3ffb5f71-80c8-4779-a980-1e5673fcc996" x1="300.44" y1="261.407" x2="293.357" y2="257.305"/>
  <line class="uuid-3ffb5f71-80c8-4779-a980-1e5673fcc996" x1="311.993" y1="255.057" x2="296.09" y2="245.848"/>
  <line class="uuid-3ffb5f71-80c8-4779-a980-1e5673fcc996" x1="246.426" y1="154.241" x2="242.493" y2="147.402"/>
  <line class="uuid-3ffb5f71-80c8-4779-a980-1e5673fcc996" x1="253.539" y1="143.933" x2="250.264" y2="138.241"/>
  <line class="uuid-3ffb5f71-80c8-4779-a980-1e5673fcc996" x1="261.353" y1="134.966" x2="258.104" y2="129.277"/>
  <line class="uuid-3ffb5f71-80c8-4779-a980-1e5673fcc996" x1="269.268" y1="125.977" x2="265.945" y2="120.288"/>
  <line class="uuid-3ffb5f71-80c8-4779-a980-1e5673fcc996" x1="277.082" y1="116.989" x2="273.859" y2="111.322"/>
  <line class="uuid-3ffb5f71-80c8-4779-a980-1e5673fcc996" x1="284.927" y1="108.022" x2="281.679" y2="102.329"/>
  <line class="uuid-3ffb5f71-80c8-4779-a980-1e5673fcc996" x1="292.793" y1="99.058" x2="289.52" y2="93.366"/>
  <line class="uuid-3ffb5f71-80c8-4779-a980-1e5673fcc996" x1="174.314" y1="293.922" x2="170.602" y2="287.472"/>
  <line class="uuid-3ffb5f71-80c8-4779-a980-1e5673fcc996" x1="180.275" y1="281.61" x2="176.394" y2="274.914"/>
  <line class="uuid-3ffb5f71-80c8-4779-a980-1e5673fcc996" x1="186.213" y1="269.322" x2="182.328" y2="262.628"/>
  <line class="uuid-3ffb5f71-80c8-4779-a980-1e5673fcc996" x1="192.148" y1="257.011" x2="188.241" y2="250.318"/>
  <line class="uuid-3ffb5f71-80c8-4779-a980-1e5673fcc996" x1="198.062" y1="244.721" x2="194.223" y2="238.029"/>
  <line class="uuid-3ffb5f71-80c8-4779-a980-1e5673fcc996" x1="203.974" y1="232.436" x2="200.161" y2="225.743"/>
  <line class="uuid-3ffb5f71-80c8-4779-a980-1e5673fcc996" x1="209.956" y1="220.125" x2="206.318" y2="213.822"/>
  <line class="uuid-3ffb5f71-80c8-4779-a980-1e5673fcc996" x1="217.918" y1="211.353" x2="215.427" y2="207.03"/>
  <line class="uuid-3ffb5f71-80c8-4779-a980-1e5673fcc996" x1="227.665" y1="205.688" x2="225.174" y2="201.39"/>
  <line class="uuid-3ffb5f71-80c8-4779-a980-1e5673fcc996" x1="237.437" y1="200.043" x2="234.947" y2="195.719"/>
  <line class="uuid-3ffb5f71-80c8-4779-a980-1e5673fcc996" x1="247.184" y1="194.377" x2="244.693" y2="190.053"/>
  <line class="uuid-3ffb5f71-80c8-4779-a980-1e5673fcc996" x1="254.683" y1="184.729" x2="250.606" y2="177.691"/>
  <line class="uuid-3ffb5f71-80c8-4779-a980-1e5673fcc996" x1="259.79" y1="171.049" x2="257.715" y2="167.333"/>
  <polygon class="uuid-d2d2c06b-45fe-4e73-834e-bf1ee0f03f1f" points="282.679 164.695 282.727 165.747 282.385 165.526 282.679 164.695"/>
  <line class="uuid-3ffb5f71-80c8-4779-a980-1e5673fcc996" x1="187.898" y1="297.782" x2="181.669" y2="286.961"/>
  <line class="uuid-3ffb5f71-80c8-4779-a980-1e5673fcc996" x1="200.43" y1="274.354" x2="193.539" y2="262.335"/>
  <line class="uuid-3ffb5f71-80c8-4779-a980-1e5673fcc996" x1="212.353" y1="249.755" x2="205.365" y2="237.738"/>
  <line class="uuid-3ffb5f71-80c8-4779-a980-1e5673fcc996" x1="225.884" y1="228.013" x2="218.459" y2="215.19"/>
  <line class="uuid-3ffb5f71-80c8-4779-a980-1e5673fcc996" x1="245.403" y1="216.68" x2="237.901" y2="203.781"/>
  <line class="uuid-3ffb5f71-80c8-4779-a980-1e5673fcc996" x1="263.697" y1="203.221" x2="256.321" y2="190.444"/>
  <line class="uuid-3ffb5f71-80c8-4779-a980-1e5673fcc996" x1="274.202" y1="176.326" x2="266.655" y2="163.256"/>
  <line class="uuid-3ffb5f71-80c8-4779-a980-1e5673fcc996" x1="262.917" y1="156.758" x2="256.588" y2="145.812"/>
  <line class="uuid-3ffb5f71-80c8-4779-a980-1e5673fcc996" x1="294.795" y1="166.822" x2="271.759" y2="126.904"/>
  <line class="uuid-3ffb5f71-80c8-4779-a980-1e5673fcc996" x1="300.44" y1="131.474" x2="287.786" y2="109.563"/>
</svg>