<?xml version="1.0" encoding="UTF-8"?>
<svg id="uuid-0b324b79-d814-4154-b70b-23a8580e57d1" data-name="&amp;lt;Layer&amp;gt;" xmlns="http://www.w3.org/2000/svg" viewBox="0 0 451.11 451.11">
  <defs>
    <style>
      .uuid-7b34f435-2fe3-4c1f-aa4f-7b043422fa13, .uuid-15f87671-861e-4b87-bc80-e214e50066d0, .uuid-d53c28de-93d3-444c-ae27-0e343ed57fb2, .uuid-a61e8078-36e9-4dd1-bf3f-a077e16dc280 {
        fill: none;
        stroke: #000;
        stroke-linecap: round;
      }

      .uuid-7b34f435-2fe3-4c1f-aa4f-7b043422fa13, .uuid-a61e8078-36e9-4dd1-bf3f-a077e16dc280 {
        stroke-linejoin: round;
        stroke-width: 4.113px;
      }

      .uuid-15f87671-861e-4b87-bc80-e214e50066d0 {
        stroke-width: 1.163px;
      }

      .uuid-15f87671-861e-4b87-bc80-e214e50066d0, .uuid-d53c28de-93d3-444c-ae27-0e343ed57fb2 {
        stroke-miterlimit: 10;
      }

      .uuid-d53c28de-93d3-444c-ae27-0e343ed57fb2 {
        stroke-width: 1.159px;
      }

      .uuid-a61e8078-36e9-4dd1-bf3f-a077e16dc280 {
        fill-rule: evenodd;
      }
    </style>
  </defs>
  <path class="uuid-a61e8078-36e9-4dd1-bf3f-a077e16dc280" d="M228.348,183.17q.243,0,.487-.048c.735-.173,2.443-.858,4.396-1.785"/>
  <path class="uuid-a61e8078-36e9-4dd1-bf3f-a077e16dc280" d="M269.874,160.012c1.464-.806,2.443-1.734,3.421-2.665,3.419-3.492,4.151-7.547,5.862-11.847.247-.291.247-.633.489-.928.978-2.148,2.2-4.374,4.154-6.571.485-.342.732-.637.975-.978.491-.291.733-.659.98-.928q.243-.073.243-.121c.979-.88,2.2-1.807,3.664-2.663.489-.291.975-.659,1.464-.954,7.087-4.565,20.031-12.141,31.514-15.559,6.596-1.979,12.947-2.539,17.344-.439"/>
  <path class="uuid-a61e8078-36e9-4dd1-bf3f-a077e16dc280" d="M216.133,176.62c-.489.052-.736.173-.979.343-.243.125-.489.247-.732.367-.247.048-.489.173-.732.269-5.128,2.149-12.701,6.913-20.52,12.506-1.221.81-2.443,1.612-3.664,2.421-9.283,7.035-18.32,14.924-22.963,20.863-3.907,5.15-6.84,11.553-9.283,18.515"/>
  <path class="uuid-a61e8078-36e9-4dd1-bf3f-a077e16dc280" d="M289.904,87.436c-7.815-4.202-18.32.268-25.891,3.64-44.215,19.861-31.025,25.795-40.065,36.52-3.664,4.077-41.036,24.918-42.747,25.745-10.015-5.688-10.751-8.377-18.565-4.371-15.634,8.135-35.422,21.032-47.148,36.886-.975,1.442-1.953,2.906-2.928,4.422-.489.854-.979,1.785-1.468,2.711-.489.832-.975,1.686-1.464,2.565-.489.806-.732,1.685-.978,2.543-7.083,17.366-10.501,67.958-13.923,91.19-2.197,12.995-8.062,31.241.979,41.452.243.415.732.758,1.222,1.099.243.247.489.489.732.659,7.082,5.276,28.577,17.223,42.015,24.722,1.468,1.001,3.175,1.931,4.886,2.786,1.953,1.099,3.664,2.027,4.643,2.663"/>
  <path class="uuid-a61e8078-36e9-4dd1-bf3f-a077e16dc280" d="M148.955,362.447s0-.048-.243-.048v-.173c-.732-.413-1.221-.953-1.711-1.464-.243-.221-.489-.465-.732-.686"/>
  <path class="uuid-a61e8078-36e9-4dd1-bf3f-a077e16dc280" d="M221.994,145.11c5.618,0,10.262,2.639,10.262,5.912s-4.644,5.914-10.262,5.914-10.258-2.643-10.258-5.914,4.639-5.912,10.258-5.912Z"/>
  <path class="uuid-a61e8078-36e9-4dd1-bf3f-a077e16dc280" d="M133.079,183.339c3.418-6.446,6.839-10.427,12.458-15.166,4.883-4.254,16.12-11.631,21.737-14.586,1.711-.831,3.911-1.785,5.619-.953"/>
  <path class="uuid-a61e8078-36e9-4dd1-bf3f-a077e16dc280" d="M194.391,163.775c-2.443-.931-4.886.391-6.593,1.465-11.241,6.398-25.652,15.533-32.246,26.966"/>
  <polyline class="uuid-a61e8078-36e9-4dd1-bf3f-a077e16dc280" points="155.552 192.206 154.331 194.479 133.079 183.339"/>
  <path class="uuid-a61e8078-36e9-4dd1-bf3f-a077e16dc280" d="M154.574,194.359c4.639-9.919,13.922-17.808,33.225-29.118,5.618-3.323,7.815-1.686,8.305.536"/>
  <polyline class="uuid-a61e8078-36e9-4dd1-bf3f-a077e16dc280" points="196.103 165.777 196.835 169.832 154.574 194.359"/>
  <path class="uuid-a61e8078-36e9-4dd1-bf3f-a077e16dc280" d="M248.622,115.749c.732-6.255,3.666-10.627,9.037-13.828,6.355-3.686,21.745-12.653,29.318-11.457"/>
  <polyline class="uuid-a61e8078-36e9-4dd1-bf3f-a077e16dc280" points="286.976 90.464 289.904 91.491 311.157 102.606"/>
  <path class="uuid-a61e8078-36e9-4dd1-bf3f-a077e16dc280" d="M311.157,102.606c-1.464-.782-2.686-1.147-4.396-1.147-7.572.048-21.252,7.914-27.603,11.601-6.351,3.763-8.305,8.087-9.526,15.559"/>
  <path class="uuid-a61e8078-36e9-4dd1-bf3f-a077e16dc280" d="M270.116,124.981c.489-3.955,2.2-8.01,9.041-11.921,19.788-11.579,28.825-14.118,33.468-9.233"/>
  <polyline class="uuid-a61e8078-36e9-4dd1-bf3f-a077e16dc280" points="312.625 103.827 270.606 128.035 269.631 128.619 270.116 124.981"/>
  <path class="uuid-a61e8078-36e9-4dd1-bf3f-a077e16dc280" d="M165.568,214.753c-3.664,5.302-6.84,9.747-8.308,17.177-.243,1.49-17.341,110.024-15.876,117.865.978,5.449,3.175,9.724,7.818,12.874"/>
  <path class="uuid-a61e8078-36e9-4dd1-bf3f-a077e16dc280" d="M148.712,362.425c-15.148-8.676-38.353-19.983-51.786-30.587-.489-.341-.979-.684-1.222-1.073-9.283-10.236-3.176-28.46-.979-41.456,3.422-23.28,6.839-73.824,13.68-91.212,1.954-4.228,4.154-8.309,7.082-12.216"/>
  <path class="uuid-a61e8078-36e9-4dd1-bf3f-a077e16dc280" d="M339.984,116.359c1.221.732,2.444,1.733,3.419,3.002.243.343.489.685.732,1.101.49.758.979,1.564,1.221,2.491.247.415.489.879.732,1.346.489,1.391.979,2.907,1.468,4.592,0,.511.243,1.049.243,1.638,1.711,6.935,2.686,16.119,3.908,27.209,0,1.295.245,2.567.245,3.911,0,.463.244.975.244,1.516.243,2.122.489,4.346.732,6.666,1.468,11.774,3.421,25.211,6.839,40.061,1.957,9.53-.732,21.3-7.329,33.614-6.594,12.386-15.388,22.032-25.646,27.993"/>
  <path class="uuid-a61e8078-36e9-4dd1-bf3f-a077e16dc280" d="M326.304,271.795c-7.086,4.081-13.437,5.571-18.812,4.813-.732-.1-1.465-.221-1.955-.391-.489-.121-.975-.295-1.464-.467-.489-.121-.979-.291-1.221-.533-.489-.173-.979-.393-1.464-.736"/>
  <path class="uuid-a61e8078-36e9-4dd1-bf3f-a077e16dc280" d="M157.991,229.29v-.343c1.468-4.08,3.421-7.84,5.619-11.504,0-.052.247-.174.247-.222.489-.831.975-1.637,1.711-2.443.243-.463.485-.926.975-1.39,5.375-6.914,12.458-13.537,22.963-20.863,1.221-.809,2.443-1.611,3.664-2.421,5.376-3.566,11.237-7.278,18.077-11.285.489-.221.975-.464,1.464-.684,0-.074.247-.122.247-.169.243-.196.485-.294.732-.368.243-.096.486-.221.732-.269.242-.195.489-.317.732-.367.243-.17.489-.291.979-.343,7.572-2.565,7.572,4.302,10.505,6.159,0,0,0,.048.243,0,.489.221.732.391,1.468.391q.243,0,.487-.048c.979-.052,2.2-.463,3.664-1.343"/>
  <polyline class="uuid-a61e8078-36e9-4dd1-bf3f-a077e16dc280" points="232.499 181.779 233.231 181.337 233.967 180.922 268.653 160.769 269.874 160.012"/>
  <path class="uuid-a61e8078-36e9-4dd1-bf3f-a077e16dc280" d="M301.388,274.408c-6.771-2.697-9.125-16.988-9.53-23.28-.485-5.228-1.464-11.09-3.175-14.291-.975-1.269-2.196-2.196-3.418-2.711-.244,0-.244-.07-.244-.07-2.689-.931-6.354-.347-10.261,1.902"/>
  <polyline class="uuid-a61e8078-36e9-4dd1-bf3f-a077e16dc280" points="274.761 235.957 254.73 247.588 226.88 263.906"/>
  <path class="uuid-a61e8078-36e9-4dd1-bf3f-a077e16dc280" d="M174.362,360.251c-10.262,5.983-19.056,6.666-25.65,2.148v-.173c-.732-.463-1.221-.953-1.711-1.464-.243-.221-.489-.465-.732-.686"/>
  <polygon class="uuid-a61e8078-36e9-4dd1-bf3f-a077e16dc280" points="243.004 235.52 264.988 222.694 264.988 229.607 243.004 242.408 243.004 235.52"/>
  <polyline class="uuid-a61e8078-36e9-4dd1-bf3f-a077e16dc280" points="204.896 222.009 204.896 230.975 212.711 226.479"/>
  <polyline class="uuid-a61e8078-36e9-4dd1-bf3f-a077e16dc280" points="212.468 245.852 204.896 250.348 204.896 259.337"/>
  <polyline class="uuid-a61e8078-36e9-4dd1-bf3f-a077e16dc280" points="188.041 269.083 188.041 260.121 180.222 264.613"/>
  <polyline class="uuid-a61e8078-36e9-4dd1-bf3f-a077e16dc280" points="180.469 245.24 188.041 240.722 188.284 231.755"/>
  <path class="uuid-a61e8078-36e9-4dd1-bf3f-a077e16dc280" d="M326.058,170.052c5.619-3.227,10.262-11.093,10.262-17.539s-4.643-9.088-10.262-5.865c-5.618,3.227-10.015,11.09-10.015,17.566s4.397,9.061,10.015,5.838Z"/>
  <path class="uuid-a61e8078-36e9-4dd1-bf3f-a077e16dc280" d="M303.827,206.939c5.619-3.249,10.019-11.09,10.019-17.566s-4.4-9.089-10.019-5.84c-5.614,3.227-10.011,11.094-10.011,17.566s4.398,9.063,10.011,5.839Z"/>
  <line class="uuid-7b34f435-2fe3-4c1f-aa4f-7b043422fa13" x1="233.231" y1="181.337" x2="233.478" y2="181.095"/>
  <path class="uuid-a61e8078-36e9-4dd1-bf3f-a077e16dc280" d="M233.478,181.095c9.769-4.813,29.067-16.612,35.175-20.326"/>
  <line class="uuid-7b34f435-2fe3-4c1f-aa4f-7b043422fa13" x1="268.653" y1="160.769" x2="269.874" y2="160.012"/>
  <path class="uuid-a61e8078-36e9-4dd1-bf3f-a077e16dc280" d="M340.227,116.407c-.243,0-.243-.048-.243-.048"/>
  <line class="uuid-7b34f435-2fe3-4c1f-aa4f-7b043422fa13" x1="339.984" y1="116.359" x2="289.904" y2="87.436"/>
  <line class="uuid-7b34f435-2fe3-4c1f-aa4f-7b043422fa13" x1="149.201" y1="362.668" x2="148.955" y2="362.447"/>
  <line class="uuid-7b34f435-2fe3-4c1f-aa4f-7b043422fa13" x1="146.269" y1="360.077" x2="146.022" y2="360.004"/>
  <line class="uuid-7b34f435-2fe3-4c1f-aa4f-7b043422fa13" x1="172.894" y1="152.635" x2="194.391" y2="163.775"/>
  <line class="uuid-7b34f435-2fe3-4c1f-aa4f-7b043422fa13" x1="269.631" y1="128.619" x2="248.622" y2="115.749"/>
  <line class="uuid-7b34f435-2fe3-4c1f-aa4f-7b043422fa13" x1="115.487" y1="185.882" x2="165.568" y2="214.753"/>
  <line class="uuid-7b34f435-2fe3-4c1f-aa4f-7b043422fa13" x1="301.388" y1="274.48" x2="301.388" y2="274.408"/>
  <path class="uuid-a61e8078-36e9-4dd1-bf3f-a077e16dc280" d="M301.388,274.408c-6.598-3.762-33.468-18.515-46.658-26.819"/>
  <path class="uuid-a61e8078-36e9-4dd1-bf3f-a077e16dc280" d="M226.88,263.906c-7.818,4.518-14.412,14.287-15.633,23.229"/>
  <line class="uuid-7b34f435-2fe3-4c1f-aa4f-7b043422fa13" x1="211.247" y1="287.135" x2="207.825" y2="310.66"/>
  <path class="uuid-a61e8078-36e9-4dd1-bf3f-a077e16dc280" d="M207.825,310.66c-2.687,18.982-16.609,39.646-32.974,49.297"/>
  <line class="uuid-7b34f435-2fe3-4c1f-aa4f-7b043422fa13" x1="174.851" y1="359.956" x2="174.362" y2="360.251"/>
  <line class="uuid-7b34f435-2fe3-4c1f-aa4f-7b043422fa13" x1="194.391" y1="221.178" x2="198.789" y2="218.517"/>
  <path class="uuid-a61e8078-36e9-4dd1-bf3f-a077e16dc280" d="M198.789,218.517c3.418-1.953,6.107-.389,6.107,3.492"/>
  <path class="uuid-a61e8078-36e9-4dd1-bf3f-a077e16dc280" d="M212.711,226.479c3.175-1.953,6.108-.389,5.866,3.492"/>
  <line class="uuid-7b34f435-2fe3-4c1f-aa4f-7b043422fa13" x1="218.577" y1="229.971" x2="218.577" y2="235.251"/>
  <path class="uuid-a61e8078-36e9-4dd1-bf3f-a077e16dc280" d="M218.577,235.251c0,3.882-2.691,8.647-6.108,10.601"/>
  <path class="uuid-a61e8078-36e9-4dd1-bf3f-a077e16dc280" d="M204.896,259.337c-.247,3.881-2.932,8.624-6.35,10.577"/>
  <line class="uuid-7b34f435-2fe3-4c1f-aa4f-7b043422fa13" x1="198.546" y1="269.914" x2="194.148" y2="272.575"/>
  <path class="uuid-a61e8078-36e9-4dd1-bf3f-a077e16dc280" d="M194.148,272.575c-3.421,1.957-6.107.367-6.107-3.492"/>
  <path class="uuid-a61e8078-36e9-4dd1-bf3f-a077e16dc280" d="M180.222,264.613c-3.175,1.953-6.107.367-6.107-3.492"/>
  <line class="uuid-7b34f435-2fe3-4c1f-aa4f-7b043422fa13" x1="174.115" y1="261.121" x2="174.362" y2="255.819"/>
  <path class="uuid-a61e8078-36e9-4dd1-bf3f-a077e16dc280" d="M174.362,255.819c0-3.886,2.686-8.647,6.107-10.579"/>
  <path class="uuid-a61e8078-36e9-4dd1-bf3f-a077e16dc280" d="M188.284,231.755c0-3.859,2.689-8.62,6.107-10.578"/>
  <line class="uuid-d53c28de-93d3-444c-ae27-0e343ed57fb2" x1="357.815" y1="201.615" x2="314.578" y2="276.313"/>
  <line class="uuid-d53c28de-93d3-444c-ae27-0e343ed57fb2" x1="352.686" y1="165.215" x2="294.058" y2="266.592"/>
  <line class="uuid-d53c28de-93d3-444c-ae27-0e343ed57fb2" x1="346.335" y1="131.088" x2="336.809" y2="147.601"/>
  <line class="uuid-d53c28de-93d3-444c-ae27-0e343ed57fb2" x1="322.151" y1="173.081" x2="315.067" y2="185.27"/>
  <line class="uuid-d53c28de-93d3-444c-ae27-0e343ed57fb2" x1="301.141" y1="209.503" x2="286.976" y2="233.809"/>
  <line class="uuid-d53c28de-93d3-444c-ae27-0e343ed57fb2" x1="330.213" y1="113.891" x2="264.988" y2="226.922"/>
  <line class="uuid-d53c28de-93d3-444c-ae27-0e343ed57fb2" x1="260.833" y1="234.198" x2="253.998" y2="245.998"/>
  <line class="uuid-15f87671-861e-4b87-bc80-e214e50066d0" x1="295.067" y1="129.613" x2="158.908" y2="365.379"/>
  <line class="uuid-d53c28de-93d3-444c-ae27-0e343ed57fb2" x1="240.561" y1="178.6" x2="213.933" y2="225.137"/>
  <line class="uuid-d53c28de-93d3-444c-ae27-0e343ed57fb2" x1="188.041" y1="269.645" x2="141.873" y2="349.819"/>
  <line class="uuid-d53c28de-93d3-444c-ae27-0e343ed57fb2" x1="216.133" y1="175.988" x2="148.712" y2="292.877"/>
  <line class="uuid-d53c28de-93d3-444c-ae27-0e343ed57fb2" x1="139.429" y1="344.149" x2="129.657" y2="349.694"/>
  <line class="uuid-d53c28de-93d3-444c-ae27-0e343ed57fb2" x1="141.384" y1="330.006" x2="117.931" y2="343.465"/>
  <line class="uuid-d53c28de-93d3-444c-ae27-0e343ed57fb2" x1="144.069" y1="315.399" x2="106.452" y2="337.14"/>
  <line class="uuid-d53c28de-93d3-444c-ae27-0e343ed57fb2" x1="146.512" y1="300.987" x2="95.704" y2="330.348"/>
  <line class="uuid-d53c28de-93d3-444c-ae27-0e343ed57fb2" x1="148.712" y1="286.648" x2="91.06" y2="319.844"/>
  <line class="uuid-d53c28de-93d3-444c-ae27-0e343ed57fb2" x1="150.909" y1="272.358" x2="91.792" y2="306.41"/>
  <line class="uuid-d53c28de-93d3-444c-ae27-0e343ed57fb2" x1="152.863" y1="258.089" x2="94.726" y2="291.778"/>
  <line class="uuid-d53c28de-93d3-444c-ae27-0e343ed57fb2" x1="155.306" y1="243.776" x2="96.436" y2="277.659"/>
  <line class="uuid-d53c28de-93d3-444c-ae27-0e343ed57fb2" x1="157.506" y1="229.361" x2="98.147" y2="263.707"/>
  <line class="uuid-d53c28de-93d3-444c-ae27-0e343ed57fb2" x1="162.878" y1="213.216" x2="99.611" y2="249.859"/>
  <line class="uuid-d53c28de-93d3-444c-ae27-0e343ed57fb2" x1="151.156" y1="206.961" x2="101.808" y2="235.568"/>
  <line class="uuid-d53c28de-93d3-444c-ae27-0e343ed57fb2" x1="139.429" y1="200.71" x2="104.25" y2="221.056"/>
  <line class="uuid-d53c28de-93d3-444c-ae27-0e343ed57fb2" x1="127.703" y1="194.479" x2="107.673" y2="206.011"/>
  <line class="uuid-d53c28de-93d3-444c-ae27-0e343ed57fb2" x1="134.3" y1="194.675" x2="124.528" y2="177.772"/>
  <line class="uuid-d53c28de-93d3-444c-ae27-0e343ed57fb2" x1="168.496" y1="208.793" x2="159.459" y2="193.185"/>
  <line class="uuid-d53c28de-93d3-444c-ae27-0e343ed57fb2" x1="144.316" y1="166.753" x2="142.362" y2="163.507"/>
  <line class="uuid-d53c28de-93d3-444c-ae27-0e343ed57fb2" x1="185.598" y1="193.38" x2="179.001" y2="182.021"/>
  <line class="uuid-d53c28de-93d3-444c-ae27-0e343ed57fb2" x1="162.878" y1="153.882" x2="161.657" y2="151.756"/>
  <line class="uuid-d53c28de-93d3-444c-ae27-0e343ed57fb2" x1="204.406" y1="180.653" x2="198.546" y2="170.59"/>
  <line class="uuid-d53c28de-93d3-444c-ae27-0e343ed57fb2" x1="193.17" y1="160.965" x2="187.552" y2="151.682"/>
  <line class="uuid-d53c28de-93d3-444c-ae27-0e343ed57fb2" x1="230.792" y1="181.143" x2="217.109" y2="157.716"/>
  <line class="uuid-d53c28de-93d3-444c-ae27-0e343ed57fb2" x1="211.247" y1="147.502" x2="207.34" y2="140.566"/>
  <line class="uuid-d53c28de-93d3-444c-ae27-0e343ed57fb2" x1="250.819" y1="170.664" x2="225.416" y2="126.595"/>
  <line class="uuid-d53c28de-93d3-444c-ae27-0e343ed57fb2" x1="270.363" y1="159.644" x2="238.849" y2="104.807"/>
  <line class="uuid-d53c28de-93d3-444c-ae27-0e343ed57fb2" x1="283.064" y1="136.39" x2="277.204" y2="126.176"/>
  <line class="uuid-d53c28de-93d3-444c-ae27-0e343ed57fb2" x1="260.833" y1="97.867" x2="259.369" y2="95.398"/>
  <line class="uuid-d53c28de-93d3-444c-ae27-0e343ed57fb2" x1="301.873" y1="123.932" x2="296.745" y2="114.943"/>
  <line class="uuid-15f87671-861e-4b87-bc80-e214e50066d0" x1="281.846" y1="88.827" x2="280.198" y2="86.638"/>
  <line class="uuid-15f87671-861e-4b87-bc80-e214e50066d0" x1="322.883" y1="114.943" x2="316.349" y2="103.327"/>
  <line class="uuid-15f87671-861e-4b87-bc80-e214e50066d0" x1="306.855" y1="202.748" x2="295.618" y2="196.272"/>
  <line class="uuid-d53c28de-93d3-444c-ae27-0e343ed57fb2" x1="313.232" y1="193.498" x2="300.973" y2="186.401"/>
  <line class="uuid-d53c28de-93d3-444c-ae27-0e343ed57fb2" x1="291.94" y1="252.29" x2="277.653" y2="260.558"/>
  <line class="uuid-15f87671-861e-4b87-bc80-e214e50066d0" x1="289.573" y1="240.597" x2="265.927" y2="254.281"/>
  <line class="uuid-d53c28de-93d3-444c-ae27-0e343ed57fb2" x1="229.57" y1="153.025" x2="219.309" y2="147.164"/>
</svg>