<?xml version="1.0" encoding="UTF-8"?>
<svg id="uuid-c245cbaf-6e62-4822-b4c0-9196788703c7" data-name="&amp;lt;Layer&amp;gt;" xmlns="http://www.w3.org/2000/svg" viewBox="0 0 451.11 451.11">
  <defs>
    <style>
      .uuid-1c3f9284-1ab6-410c-8cd3-977b28dce55f {
        stroke-miterlimit: 10;
        stroke-width: 1.163px;
      }

      .uuid-1c3f9284-1ab6-410c-8cd3-977b28dce55f, .uuid-bfee3553-d175-4da6-b915-a2c6a171c0d2 {
        fill: none;
        stroke: #000;
        stroke-linecap: round;
      }

      .uuid-bfee3553-d175-4da6-b915-a2c6a171c0d2 {
        fill-rule: evenodd;
        stroke-linejoin: round;
        stroke-width: 4.113px;
      }
    </style>
  </defs>
  <path class="uuid-bfee3553-d175-4da6-b915-a2c6a171c0d2" d="M340.734,211.051v27.651M340.734,238.702c0,8.235-5.814,18.224-12.87,22.355M327.864,261.058l-169.414,97.783c-2.593,1.475-6.46,2.66-9.183.758-.975-.515-1.785-1.395-2.37-2.495-.883-2.083-1.342-3.503-1.342-5.689v-33.566M145.555,307.348v10.501c.231,1.089.552,1.247,1.464,1.809l2.852,1.604,75.074-43.353M145.555,307.348c0-1.221.927-2.785,2.027-3.444.367-.222.78-.395,1.122-.637M263.688,255.535l75.066-43.309,1.98-1.175,1.101-.636M341.834,210.415c1.122-.633,1.979-2.148,1.979-3.418M343.814,206.997v-83.033M343.814,123.964c0-4.37-1.137-6.788-3.764-8.377M330.914,116.514l-169.336,97.739c-3.732,2.343-6.991,5.762-9.111,9.647-.048.1-.121.169-.173.295M152.295,224.195c-2.068,3.771-3.592,8.058-3.592,12.406v75.557M236.791,262.57l21.962-12.727c2.785-1.589,4.935-.269,4.935,2.881v15.416c0,3.149-2.222,7.009-5.008,8.598l-21.936,12.68c-2.737,1.559-4.935.289-4.935-2.859v-15.39c.174-3.445.563-6.108,4.982-8.599h0ZM233.079,289.646c-2.178-1.232-4.562-2.425-6.498-4.017-.927-.828-1.637-1.979-1.637-3.955v-3.764l2.274-1.291v-5.571c0-1.442.169-2.737.463-3.885.927-4.029,3.297-6.45,5.571-7.915l20.909-12.019c1.221-.633,2.2-.976,3.466-.339l4.508,2.543M148.704,320.575v-17.307M330.914,116.514c4.113-2.226,5.85-2.814,9.135-.927l-42.868-24.623M297.182,90.964c-2.786-1.051-5.744-.051-8.235,1.291M288.947,92.256l-33.174,19.104M180.924,154.621l-61.312,35.422c-3.665,2.2-6.914,5.74-9.257,9.871-2.027,3.576-3.644,8.323-3.644,12.48M149.267,359.599l-38.766-22.305c-3.241-2.282-3.614-4.765-3.79-8.353v-116.547M187.253,178.512l-6.961-4.029M180.292,174.483c0-3.764-.343-14.706.217-18.346,1.173-7.328,6.229-15.364,12.679-19.177M193.187,136.96l49.421-28.482c2.539-1.173,5.273-1.564,7.815-.221l6.976,4.019M248.296,113.191l-48.148,27.802M200.148,140.993c-7.204,4.272-12.775,13.948-12.896,22.327M187.253,163.32v15.192M252.183,141.041l-6.961-4.033v-11.554M196.315,159.408v13.876l-9.063,5.228v-15.192M248.296,113.191c7.135-4.102,12.949-.754,12.949,7.451v15.197l-9.063,5.202v-13.901c0-3.123-2.2-4.422-4.934-2.858l-45.926,26.532M201.323,150.814c-2.735,1.585-5.008,5.419-5.008,8.594M110.354,199.914l41.941,24.28"/>
  <line class="uuid-1c3f9284-1ab6-410c-8cd3-977b28dce55f" x1="143.696" y1="347.629" x2="137.956" y2="350.952"/>
  <line class="uuid-1c3f9284-1ab6-410c-8cd3-977b28dce55f" x1="144.113" y1="334.34" x2="126.282" y2="344.649"/>
  <line class="uuid-1c3f9284-1ab6-410c-8cd3-977b28dce55f" x1="144.528" y1="321.076" x2="114.556" y2="338.369"/>
  <line class="uuid-1c3f9284-1ab6-410c-8cd3-977b28dce55f" x1="144.749" y1="307.933" x2="107.885" y2="329.233"/>
  <line class="uuid-1c3f9284-1ab6-410c-8cd3-977b28dce55f" x1="147.997" y1="293.031" x2="107.689" y2="316.285"/>
  <line class="uuid-1c3f9284-1ab6-410c-8cd3-977b28dce55f" x1="147.997" y1="279.988" x2="107.689" y2="303.242"/>
  <line class="uuid-1c3f9284-1ab6-410c-8cd3-977b28dce55f" x1="147.997" y1="266.942" x2="107.643" y2="290.22"/>
  <line class="uuid-1c3f9284-1ab6-410c-8cd3-977b28dce55f" x1="147.997" y1="253.898" x2="107.643" y2="277.228"/>
  <line class="uuid-1c3f9284-1ab6-410c-8cd3-977b28dce55f" x1="147.997" y1="240.877" x2="107.569" y2="264.208"/>
  <line class="uuid-1c3f9284-1ab6-410c-8cd3-977b28dce55f" x1="149.852" y1="226.76" x2="107.521" y2="251.213"/>
  <line class="uuid-1c3f9284-1ab6-410c-8cd3-977b28dce55f" x1="141.084" y1="218.796" x2="107.763" y2="238.021"/>
  <line class="uuid-1c3f9284-1ab6-410c-8cd3-977b28dce55f" x1="129.431" y1="212.491" x2="108.106" y2="224.779"/>
  <line class="uuid-1c3f9284-1ab6-410c-8cd3-977b28dce55f" x1="117.731" y1="206.191" x2="108.569" y2="211.516"/>
  <line class="uuid-1c3f9284-1ab6-410c-8cd3-977b28dce55f" x1="330.403" y1="112.238" x2="328.423" y2="115.682"/>
  <line class="uuid-1c3f9284-1ab6-410c-8cd3-977b28dce55f" x1="320.925" y1="106.009" x2="308.513" y2="127.556"/>
  <line class="uuid-1c3f9284-1ab6-410c-8cd3-977b28dce55f" x1="311.542" y1="99.78" x2="288.605" y2="139.451"/>
  <line class="uuid-1c3f9284-1ab6-410c-8cd3-977b28dce55f" x1="302.064" y1="93.577" x2="268.722" y2="151.325"/>
  <line class="uuid-1c3f9284-1ab6-410c-8cd3-977b28dce55f" x1="289.509" y1="92.771" x2="248.934" y2="163.003"/>
  <line class="uuid-1c3f9284-1ab6-410c-8cd3-977b28dce55f" x1="268.843" y1="105.961" x2="262.565" y2="116.809"/>
  <line class="uuid-1c3f9284-1ab6-410c-8cd3-977b28dce55f" x1="249.103" y1="140.135" x2="230.099" y2="173.066"/>
  <line class="uuid-1c3f9284-1ab6-410c-8cd3-977b28dce55f" x1="243.242" y1="127.777" x2="210.094" y2="185.16"/>
  <line class="uuid-1c3f9284-1ab6-410c-8cd3-977b28dce55f" x1="223.675" y1="139.061" x2="190.576" y2="196.445"/>
  <line class="uuid-1c3f9284-1ab6-410c-8cd3-977b28dce55f" x1="203.155" y1="151.935" x2="198.295" y2="160.386"/>
  <line class="uuid-1c3f9284-1ab6-410c-8cd3-977b28dce55f" x1="187.205" y1="179.589" x2="171.52" y2="206.751"/>
  <line class="uuid-1c3f9284-1ab6-410c-8cd3-977b28dce55f" x1="179.243" y1="170.891" x2="149.436" y2="222.384"/>
  <line class="uuid-1c3f9284-1ab6-410c-8cd3-977b28dce55f" x1="171.913" y1="160.998" x2="139.642" y2="216.887"/>
  <line class="uuid-1c3f9284-1ab6-410c-8cd3-977b28dce55f" x1="152.004" y1="172.87" x2="130.237" y2="210.636"/>
  <line class="uuid-1c3f9284-1ab6-410c-8cd3-977b28dce55f" x1="132.096" y1="184.767" x2="120.759" y2="204.381"/>
  <line class="uuid-1c3f9284-1ab6-410c-8cd3-977b28dce55f" x1="169.835" y1="308.129" x2="150.146" y2="296.77"/>
  <line class="uuid-1c3f9284-1ab6-410c-8cd3-977b28dce55f" x1="193.187" y1="295.522" x2="149.388" y2="270.241"/>
  <line class="uuid-1c3f9284-1ab6-410c-8cd3-977b28dce55f" x1="216.592" y1="282.943" x2="148.631" y2="243.71"/>
  <line class="uuid-1c3f9284-1ab6-410c-8cd3-977b28dce55f" x1="229.587" y1="264.377" x2="153.689" y2="220.577"/>
  <line class="uuid-1c3f9284-1ab6-410c-8cd3-977b28dce55f" x1="249.983" y1="250.112" x2="174.305" y2="206.408"/>
  <line class="uuid-1c3f9284-1ab6-410c-8cd3-977b28dce55f" x1="284.991" y1="244.225" x2="196.484" y2="193.144"/>
  <line class="uuid-1c3f9284-1ab6-410c-8cd3-977b28dce55f" x1="307.587" y1="231.204" x2="219.082" y2="180.1"/>
  <line class="uuid-1c3f9284-1ab6-410c-8cd3-977b28dce55f" x1="330.108" y1="218.16" x2="241.652" y2="167.08"/>
  <line class="uuid-1c3f9284-1ab6-410c-8cd3-977b28dce55f" x1="344.399" y1="200.352" x2="264.494" y2="154.209"/>
  <line class="uuid-1c3f9284-1ab6-410c-8cd3-977b28dce55f" x1="343.641" y1="173.823" x2="287.898" y2="141.625"/>
  <line class="uuid-1c3f9284-1ab6-410c-8cd3-977b28dce55f" x1="342.835" y1="147.27" x2="311.247" y2="129.046"/>
  <line class="uuid-1c3f9284-1ab6-410c-8cd3-977b28dce55f" x1="341.444" y1="120.421" x2="335.288" y2="116.834"/>
  <line class="uuid-1c3f9284-1ab6-410c-8cd3-977b28dce55f" x1="164.679" y1="353.539" x2="147.141" y2="343.402"/>
  <line class="uuid-1c3f9284-1ab6-410c-8cd3-977b28dce55f" x1="187.838" y1="340.838" x2="152.81" y2="320.635"/>
  <line class="uuid-1c3f9284-1ab6-410c-8cd3-977b28dce55f" x1="210.436" y1="327.817" x2="175.405" y2="307.591"/>
  <line class="uuid-1c3f9284-1ab6-410c-8cd3-977b28dce55f" x1="233.031" y1="314.799" x2="197.952" y2="294.57"/>
  <line class="uuid-1c3f9284-1ab6-410c-8cd3-977b28dce55f" x1="255.015" y1="301.41" x2="236.965" y2="291.004"/>
  <line class="uuid-1c3f9284-1ab6-410c-8cd3-977b28dce55f" x1="223.039" y1="282.968" x2="221.647" y2="282.137"/>
  <line class="uuid-1c3f9284-1ab6-410c-8cd3-977b28dce55f" x1="277.61" y1="288.389" x2="259.559" y2="277.96"/>
  <line class="uuid-1c3f9284-1ab6-410c-8cd3-977b28dce55f" x1="300.72" y1="275.666" x2="265.716" y2="255.436"/>
  <line class="uuid-1c3f9284-1ab6-410c-8cd3-977b28dce55f" x1="323.316" y1="262.644" x2="288.288" y2="242.419"/>
  <line class="uuid-1c3f9284-1ab6-410c-8cd3-977b28dce55f" x1="338.533" y1="245.347" x2="311.126" y2="229.518"/>
  <line class="uuid-1c3f9284-1ab6-410c-8cd3-977b28dce55f" x1="338.828" y1="219.456" x2="334.408" y2="216.913"/>
</svg>