<?xml version="1.0" encoding="UTF-8"?>
<svg id="uuid-59291294-b871-4bcb-b837-55e5edf0e062" data-name="&amp;lt;Layer&amp;gt;" xmlns="http://www.w3.org/2000/svg" viewBox="0 0 451.11 451.11">
  <defs>
    <style>
      .uuid-e9ebc255-9f37-4ffb-a39b-082eec9405ec, .uuid-f4f523b7-bf6f-482a-8cc4-29347c485183, .uuid-5bfe794f-25a8-4682-9362-0f6a568d13f7 {
        fill: none;
        stroke: #000;
        stroke-linecap: round;
      }

      .uuid-e9ebc255-9f37-4ffb-a39b-082eec9405ec, .uuid-5bfe794f-25a8-4682-9362-0f6a568d13f7 {
        stroke-linejoin: round;
        stroke-width: 4.117px;
      }

      .uuid-f4f523b7-bf6f-482a-8cc4-29347c485183 {
        stroke-miterlimit: 10;
        stroke-width: 1.163px;
      }

      .uuid-5bfe794f-25a8-4682-9362-0f6a568d13f7 {
        fill-rule: evenodd;
      }
    </style>
  </defs>
  <g>
    <path class="uuid-5bfe794f-25a8-4682-9362-0f6a568d13f7" d="M196.071,239.235c-7.003,18.986-9.784,53.627,10.92,65.614,21.543,12.36,56.405-7.719,77.925-44.995,21.543-37.279,21.543-77.587,0-89.971-16.66-9.574-41.235.243-61.364,22.377"/>
    <line class="uuid-e9ebc255-9f37-4ffb-a39b-082eec9405ec" x1="341.784" y1="164.021" x2="316.525" y2="149.462"/>
    <line class="uuid-e9ebc255-9f37-4ffb-a39b-082eec9405ec" x1="137.469" y1="212.191" x2="178.31" y2="235.744"/>
    <line class="uuid-e9ebc255-9f37-4ffb-a39b-082eec9405ec" x1="109.325" y1="287.114" x2="150.145" y2="310.663"/>
    <path class="uuid-5bfe794f-25a8-4682-9362-0f6a568d13f7" d="M222.672,193.187c-5.692,6.325-10.968,13.581-15.681,21.643-4.643,8.087-8.309,16.317-10.92,24.405"/>
    <polyline class="uuid-5bfe794f-25a8-4682-9362-0f6a568d13f7" points="324.709 257.411 313.619 238.941 318.675 221.868 341.784 200.028"/>
    <path class="uuid-5bfe794f-25a8-4682-9362-0f6a568d13f7" d="M302.699,295.493c7.377-12.654,14.68-25.359,22.01-38.082"/>
    <polyline class="uuid-5bfe794f-25a8-4682-9362-0f6a568d13f7" points="261.585 338.998 268.963 308.046 281.204 295.15 302.699 295.493"/>
    <path class="uuid-5bfe794f-25a8-4682-9362-0f6a568d13f7" d="M230.391,357c10.406-5.983,20.789-12.017,31.193-18.002"/>
    <polyline class="uuid-5bfe794f-25a8-4682-9362-0f6a568d13f7" points="189.23 361.059 205.132 342.42 210.777 335.8 223.015 334.578 230.391 357"/>
    <path class="uuid-5bfe794f-25a8-4682-9362-0f6a568d13f7" d="M167.22,348.332c7.304,4.25,14.682,8.477,22.01,12.727"/>
    <polyline class="uuid-5bfe794f-25a8-4682-9362-0f6a568d13f7" points="167.22 217.273 178.31 235.744 173.254 252.816 150.145 274.656 150.145 310.663 173.254 305.85 178.31 317.039 167.22 348.332"/>
    <path class="uuid-5bfe794f-25a8-4682-9362-0f6a568d13f7" d="M189.23,179.191c-7.376,12.654-14.706,25.381-22.01,38.082"/>
    <polyline class="uuid-5bfe794f-25a8-4682-9362-0f6a568d13f7" points="230.391 135.683 223.015 166.634 210.777 179.534 189.23 179.191"/>
    <path class="uuid-5bfe794f-25a8-4682-9362-0f6a568d13f7" d="M261.585,117.68c-10.405,6.059-20.787,12.021-31.193,18.003"/>
    <polyline class="uuid-5bfe794f-25a8-4682-9362-0f6a568d13f7" points="302.699 113.625 281.152 138.884 268.963 140.106 265.592 129.896 261.585 117.68"/>
    <path class="uuid-5bfe794f-25a8-4682-9362-0f6a568d13f7" d="M324.709,126.352c-7.33-4.25-14.634-8.499-22.01-12.727"/>
    <polyline class="uuid-5bfe794f-25a8-4682-9362-0f6a568d13f7" points="341.784 200.028 341.784 164.021 318.675 168.834 313.619 157.645 316.525 149.462 324.709 126.352"/>
    <line class="uuid-e9ebc255-9f37-4ffb-a39b-082eec9405ec" x1="230.391" y1="357" x2="205.132" y2="342.42"/>
    <polyline class="uuid-5bfe794f-25a8-4682-9362-0f6a568d13f7" points="134.584 301.722 126.376 324.784 167.22 348.332"/>
    <path class="uuid-5bfe794f-25a8-4682-9362-0f6a568d13f7" d="M109.325,251.082v36.007"/>
    <line class="uuid-e9ebc255-9f37-4ffb-a39b-082eec9405ec" x1="150.145" y1="274.656" x2="109.325" y2="251.082"/>
    <polyline class="uuid-5bfe794f-25a8-4682-9362-0f6a568d13f7" points="173.181 252.816 132.362 229.242 109.325 251.108"/>
    <polyline class="uuid-5bfe794f-25a8-4682-9362-0f6a568d13f7" points="167.147 217.299 126.376 193.725 137.469 212.191 132.362 229.242"/>
    <polyline class="uuid-5bfe794f-25a8-4682-9362-0f6a568d13f7" points="167.147 217.299 189.156 179.166 148.412 155.592 126.376 193.725"/>
    <polyline class="uuid-5bfe794f-25a8-4682-9362-0f6a568d13f7" points="210.703 179.556 169.885 155.981 148.412 155.592"/>
    <polyline class="uuid-5bfe794f-25a8-4682-9362-0f6a568d13f7" points="222.967 166.634 182.147 143.06 169.885 155.981"/>
    <polyline class="uuid-5bfe794f-25a8-4682-9362-0f6a568d13f7" points="230.343 135.709 189.499 112.135 182.147 143.06"/>
    <polyline class="uuid-5bfe794f-25a8-4682-9362-0f6a568d13f7" points="230.343 135.709 261.512 117.706 220.692 94.132 189.499 112.135"/>
    <line class="uuid-e9ebc255-9f37-4ffb-a39b-082eec9405ec" x1="281.152" y1="138.884" x2="265.592" y2="129.896"/>
    <polyline class="uuid-5bfe794f-25a8-4682-9362-0f6a568d13f7" points="246.026 108.691 261.879 90.051 302.699 113.625"/>
    <path class="uuid-5bfe794f-25a8-4682-9362-0f6a568d13f7" d="M252.353,185.885c-23.088,9.559-41.143,36.904-46.415,60.558-4.348,18.978-.853,35.591,10.457,42.136,16.318,9.431,42.799-5.838,59.164-34.126,5.707-10.832,8.301-17.205,11.042-29.067,1.991-10.331,1.935-22.594-3.59-31.904-8.136-11.579-18.316-11.999-30.657-7.597Z"/>
    <path class="uuid-5bfe794f-25a8-4682-9362-0f6a568d13f7" d="M232.029,261.466c-7.671-4.398-7.671-18.813,0-32.172,7.719-13.29,20.203-20.546,27.871-16.098,2.326,1.218,4.518,4.511,5.056,7.109.78,2.66.861,5.696.589,8.425-.711,8.812-6.377,19.953-12.901,26.164-2.653,3.128-8.138,6.538-12.09,7.451-2.697.788-6.097.629-8.525-.879Z"/>
  </g>
  <line class="uuid-f4f523b7-bf6f-482a-8cc4-29347c485183" x1="254.503" y1="114.872" x2="225.531" y2="131.58"/>
  <line class="uuid-f4f523b7-bf6f-482a-8cc4-29347c485183" x1="243.166" y1="108.349" x2="214.243" y2="125.057"/>
  <line class="uuid-f4f523b7-bf6f-482a-8cc4-29347c485183" x1="231.907" y1="101.825" x2="202.932" y2="118.537"/>
  <line class="uuid-f4f523b7-bf6f-482a-8cc4-29347c485183" x1="224.31" y1="153.711" x2="214.195" y2="159.525"/>
  <line class="uuid-f4f523b7-bf6f-482a-8cc4-29347c485183" x1="228.412" y1="138.299" x2="202.398" y2="153.296"/>
  <line class="uuid-f4f523b7-bf6f-482a-8cc4-29347c485183" x1="219.25" y1="130.554" x2="191.089" y2="146.846"/>
  <line class="uuid-f4f523b7-bf6f-482a-8cc4-29347c485183" x1="207.749" y1="124.13" x2="185.103" y2="137.224"/>
  <line class="uuid-f4f523b7-bf6f-482a-8cc4-29347c485183" x1="195.949" y1="117.927" x2="189.23" y2="121.808"/>
  <line class="uuid-f4f523b7-bf6f-482a-8cc4-29347c485183" x1="218.839" y1="168.271" x2="206.696" y2="175.258"/>
  <line class="uuid-f4f523b7-bf6f-482a-8cc4-29347c485183" x1="209.482" y1="160.626" x2="195.313" y2="168.782"/>
  <line class="uuid-f4f523b7-bf6f-482a-8cc4-29347c485183" x1="198.171" y1="154.102" x2="184.05" y2="162.262"/>
  <line class="uuid-f4f523b7-bf6f-482a-8cc4-29347c485183" x1="186.883" y1="147.604" x2="172.912" y2="155.666"/>
  <line class="uuid-f4f523b7-bf6f-482a-8cc4-29347c485183" x1="190.379" y1="358.053" x2="174.771" y2="330.987"/>
  <line class="uuid-f4f523b7-bf6f-482a-8cc4-29347c485183" x1="160.818" y1="306.877" x2="151.954" y2="291.46"/>
  <line class="uuid-f4f523b7-bf6f-482a-8cc4-29347c485183" x1="206.866" y1="341.514" x2="161.454" y2="262.832"/>
  <line class="uuid-f4f523b7-bf6f-482a-8cc4-29347c485183" x1="238.822" y1="351.651" x2="213.9" y2="308.467"/>
  <line class="uuid-f4f523b7-bf6f-482a-8cc4-29347c485183" x1="189.4" y1="266.032" x2="177.209" y2="244.879"/>
  <line class="uuid-f4f523b7-bf6f-482a-8cc4-29347c485183" x1="258.215" y1="340.072" x2="238.232" y2="305.508"/>
  <line class="uuid-f4f523b7-bf6f-482a-8cc4-29347c485183" x1="196.829" y1="233.79" x2="177.847" y2="200.86"/>
  <line class="uuid-f4f523b7-bf6f-482a-8cc4-29347c485183" x1="266.861" y1="309.857" x2="257.92" y2="294.392"/>
  <line class="uuid-f4f523b7-bf6f-482a-8cc4-29347c485183" x1="208.97" y1="209.58" x2="192.064" y2="180.34"/>
  <line class="uuid-f4f523b7-bf6f-482a-8cc4-29347c485183" x1="283.522" y1="293.634" x2="274.412" y2="277.806"/>
  <line class="uuid-f4f523b7-bf6f-482a-8cc4-29347c485183" x1="223.647" y1="189.892" x2="215.88" y2="176.454"/>
  <line class="uuid-f4f523b7-bf6f-482a-8cc4-29347c485183" x1="306.116" y1="287.604" x2="288.113" y2="256.358"/>
  <line class="uuid-f4f523b7-bf6f-482a-8cc4-29347c485183" x1="241.264" y1="175.21" x2="228.022" y2="152.247"/>
  <line class="uuid-f4f523b7-bf6f-482a-8cc4-29347c485183" x1="319.238" y1="265.152" x2="298.813" y2="229.705"/>
  <line class="uuid-f4f523b7-bf6f-482a-8cc4-29347c485183" x1="262.174" y1="166.339" x2="241.313" y2="130.186"/>
  <line class="uuid-f4f523b7-bf6f-482a-8cc4-29347c485183" x1="319.311" y1="220.107" x2="300.134" y2="186.958"/>
  <line class="uuid-f4f523b7-bf6f-482a-8cc4-29347c485183" x1="292.535" y1="173.72" x2="273.359" y2="140.569"/>
  <line class="uuid-f4f523b7-bf6f-482a-8cc4-29347c485183" x1="337.067" y1="205.694" x2="291.071" y2="126.057"/>
  <line class="uuid-f4f523b7-bf6f-482a-8cc4-29347c485183" x1="320.75" y1="132.264" x2="315.474" y2="123.129"/>
  <line class="uuid-f4f523b7-bf6f-482a-8cc4-29347c485183" x1="223.725" y1="342.324" x2="216.174" y2="346.669"/>
  <line class="uuid-f4f523b7-bf6f-482a-8cc4-29347c485183" x1="299.255" y1="112.819" x2="268.72" y2="130.458"/>
  <line class="uuid-f4f523b7-bf6f-482a-8cc4-29347c485183" x1="287.774" y1="106.417" x2="263.734" y2="120.318"/>
  <line class="uuid-f4f523b7-bf6f-482a-8cc4-29347c485183" x1="276.387" y1="99.971" x2="255.014" y2="112.308"/>
  <line class="uuid-f4f523b7-bf6f-482a-8cc4-29347c485183" x1="264.591" y1="93.742" x2="258.215" y2="97.429"/>
  <line class="uuid-f4f523b7-bf6f-482a-8cc4-29347c485183" x1="196.95" y1="173.694" x2="190.842" y2="177.237"/>
  <line class="uuid-f4f523b7-bf6f-482a-8cc4-29347c485183" x1="185.687" y1="167.172" x2="178.946" y2="171.082"/>
  <line class="uuid-f4f523b7-bf6f-482a-8cc4-29347c485183" x1="174.403" y1="160.648" x2="167.611" y2="164.559"/>
  <line class="uuid-f4f523b7-bf6f-482a-8cc4-29347c485183" x1="156.763" y1="157.792" x2="156.595" y2="157.914"/>
  <line class="uuid-f4f523b7-bf6f-482a-8cc4-29347c485183" x1="178.188" y1="195.046" x2="154.736" y2="208.579"/>
  <line class="uuid-f4f523b7-bf6f-482a-8cc4-29347c485183" x1="185.566" y1="177.775" x2="142.819" y2="202.419"/>
  <line class="uuid-f4f523b7-bf6f-482a-8cc4-29347c485183" x1="174.229" y1="171.251" x2="131.556" y2="195.899"/>
  <line class="uuid-f4f523b7-bf6f-482a-8cc4-29347c485183" x1="162.455" y1="165.048" x2="135.975" y2="180.314"/>
  <line class="uuid-f4f523b7-bf6f-482a-8cc4-29347c485183" x1="150.366" y1="158.988" x2="148.043" y2="160.309"/>
  <line class="uuid-f4f523b7-bf6f-482a-8cc4-29347c485183" x1="168.148" y1="251.182" x2="139.982" y2="267.448"/>
  <line class="uuid-f4f523b7-bf6f-482a-8cc4-29347c485183" x1="156.863" y1="244.658" x2="128.723" y2="260.929"/>
  <line class="uuid-f4f523b7-bf6f-482a-8cc4-29347c485183" x1="145.627" y1="238.134" x2="117.435" y2="254.427"/>
  <line class="uuid-f4f523b7-bf6f-482a-8cc4-29347c485183" x1="133.484" y1="232.101" x2="130.75" y2="233.69"/>
  <line class="uuid-f4f523b7-bf6f-482a-8cc4-29347c485183" x1="148.507" y1="294.492" x2="137.027" y2="301.137"/>
  <line class="uuid-f4f523b7-bf6f-482a-8cc4-29347c485183" x1="148.849" y1="281.25" x2="125.349" y2="294.834"/>
  <line class="uuid-f4f523b7-bf6f-482a-8cc4-29347c485183" x1="142.819" y1="271.698" x2="113.918" y2="288.41"/>
  <line class="uuid-f4f523b7-bf6f-482a-8cc4-29347c485183" x1="131.262" y1="265.325" x2="110.717" y2="277.195"/>
  <line class="uuid-f4f523b7-bf6f-482a-8cc4-29347c485183" x1="119.587" y1="259.045" x2="111.11" y2="263.931"/>
  <line class="uuid-f4f523b7-bf6f-482a-8cc4-29347c485183" x1="168.541" y1="339.049" x2="161.701" y2="343.004"/>
  <line class="uuid-f4f523b7-bf6f-482a-8cc4-29347c485183" x1="174.939" y1="322.315" x2="149.802" y2="336.827"/>
  <line class="uuid-f4f523b7-bf6f-482a-8cc4-29347c485183" x1="174.229" y1="309.688" x2="138.176" y2="330.524"/>
  <line class="uuid-f4f523b7-bf6f-482a-8cc4-29347c485183" x1="148.681" y1="311.421" x2="128.723" y2="322.9"/>
  <line class="uuid-f4f523b7-bf6f-482a-8cc4-29347c485183" x1="136.781" y1="305.24" x2="135.148" y2="306.193"/>
  <line class="uuid-f4f523b7-bf6f-482a-8cc4-29347c485183" x1="167.905" y1="222.064" x2="163.213" y2="224.798"/>
  <line class="uuid-f4f523b7-bf6f-482a-8cc4-29347c485183" x1="158.622" y1="214.417" x2="151.83" y2="218.3"/>
  <line class="uuid-f4f523b7-bf6f-482a-8cc4-29347c485183" x1="147.285" y1="207.894" x2="140.567" y2="211.802"/>
  <line class="uuid-f4f523b7-bf6f-482a-8cc4-29347c485183" x1="135.854" y1="201.47" x2="134.073" y2="202.519"/>
  <line class="uuid-f4f523b7-bf6f-482a-8cc4-29347c485183" x1="175.451" y1="239.261" x2="164.314" y2="245.707"/>
  <line class="uuid-f4f523b7-bf6f-482a-8cc4-29347c485183" x1="167.099" y1="231.075" x2="152.93" y2="239.235"/>
  <line class="uuid-f4f523b7-bf6f-482a-8cc4-29347c485183" x1="155.789" y1="224.555" x2="141.668" y2="232.711"/>
  <line class="uuid-f4f523b7-bf6f-482a-8cc4-29347c485183" x1="144.331" y1="218.152" x2="136.317" y2="222.77"/>
  <line class="uuid-f4f523b7-bf6f-482a-8cc4-29347c485183" x1="329.695" y1="158.966" x2="318.895" y2="165.195"/>
  <line class="uuid-f4f523b7-bf6f-482a-8cc4-29347c485183" x1="318.015" y1="152.638" x2="317.453" y2="152.953"/>
  <line class="uuid-f4f523b7-bf6f-482a-8cc4-29347c485183" x1="226.801" y1="290.459" x2="205.89" y2="254.236"/>
  <line class="uuid-f4f523b7-bf6f-482a-8cc4-29347c485183" x1="248.346" y1="282.592" x2="237.721" y2="264.226"/>
  <line class="uuid-f4f523b7-bf6f-482a-8cc4-29347c485183" x1="225.237" y1="242.653" x2="215.295" y2="225.456"/>
  <line class="uuid-f4f523b7-bf6f-482a-8cc4-29347c485183" x1="265.224" y1="266.764" x2="256.946" y2="252.425"/>
  <line class="uuid-f4f523b7-bf6f-482a-8cc4-29347c485183" x1="237.769" y1="219.178" x2="229.464" y2="204.793"/>
  <line class="uuid-f4f523b7-bf6f-482a-8cc4-29347c485183" x1="278.83" y1="245.075" x2="267.376" y2="225.287"/>
  <line class="uuid-f4f523b7-bf6f-482a-8cc4-29347c485183" x1="259.194" y1="211.143" x2="246.952" y2="189.914"/>
  <line class="uuid-f4f523b7-bf6f-482a-8cc4-29347c485183" x1="286.306" y1="212.927" x2="270.405" y2="185.369"/>
  <line class="uuid-f4f523b7-bf6f-482a-8cc4-29347c485183" x1="245.856" y1="258.534" x2="227.776" y2="248.102"/>
  <line class="uuid-f4f523b7-bf6f-482a-8cc4-29347c485183" x1="254.892" y1="250.719" x2="229.976" y2="236.329"/>
  <line class="uuid-f4f523b7-bf6f-482a-8cc4-29347c485183" x1="260.879" y1="241.141" x2="235.278" y2="226.34"/>
  <line class="uuid-f4f523b7-bf6f-482a-8cc4-29347c485183" x1="264.003" y1="229.926" x2="243.413" y2="217.983"/>
</svg>