<?xml version="1.0" encoding="UTF-8"?>
<svg id="uuid-3e625978-7d32-4955-be83-5429a86b4632" data-name="&amp;lt;Layer&amp;gt;" xmlns="http://www.w3.org/2000/svg" viewBox="0 0 451.11 451.11">
  <defs>
    <style>
      .uuid-3108252b-7692-4d63-9e3a-123d0f8f7181, .uuid-4765ac84-66f5-46a7-a09b-af5d768fd1c3, .uuid-8444ccea-82c4-4e27-a1ab-2c697db479c5, .uuid-7a34bb26-328d-4668-95b5-d61c95917965 {
        stroke: #000;
        stroke-linecap: round;
      }

      .uuid-3108252b-7692-4d63-9e3a-123d0f8f7181, .uuid-4765ac84-66f5-46a7-a09b-af5d768fd1c3, .uuid-7a34bb26-328d-4668-95b5-d61c95917965 {
        stroke-linejoin: round;
      }

      .uuid-3108252b-7692-4d63-9e3a-123d0f8f7181, .uuid-8444ccea-82c4-4e27-a1ab-2c697db479c5, .uuid-7a34bb26-328d-4668-95b5-d61c95917965 {
        fill: none;
      }

      .uuid-3108252b-7692-4d63-9e3a-123d0f8f7181, .uuid-7a34bb26-328d-4668-95b5-d61c95917965 {
        stroke-width: 4.117px;
      }

      .uuid-4765ac84-66f5-46a7-a09b-af5d768fd1c3 {
        fill: #1986c6;
        stroke-width: .317px;
      }

      .uuid-4765ac84-66f5-46a7-a09b-af5d768fd1c3, .uuid-7a34bb26-328d-4668-95b5-d61c95917965 {
        fill-rule: evenodd;
      }

      .uuid-8444ccea-82c4-4e27-a1ab-2c697db479c5 {
        stroke-miterlimit: 10;
        stroke-width: 1.163px;
      }
    </style>
  </defs>
  <path class="uuid-7a34bb26-328d-4668-95b5-d61c95917965" d="M261.918,309.065c0-7.236,3.44-14.4,9.795-18.076,7.976-4.64,10.714,2.226,8.087,9.356-.67,2.547-3.594,5.824-5.449,7.426-2.214,2.068-4.856,3.414-7.208,4.665"/>
  <path class="uuid-7a34bb26-328d-4668-95b5-d61c95917965" d="M253.318,358.482c-5.18-3.664-5.764-10.11-5.764-16.022"/>
  <path class="uuid-7a34bb26-328d-4668-95b5-d61c95917965" d="M285.833,306.548c.53-.217,1.707-.221,2.27-.221,1.255,0,2.105.21,3.201.758,2.955,1.442,4.566,5.008,4.566,10.457,0,3.949-.794,8.029-2.075,11.726-3.616,10.579-11.678,20.542-22.083,26.599-3.138,1.784-6.881,3.521-10.452,4.007-3.176.467-5.914-.07-8.062-1.464"/>
  <path class="uuid-7a34bb26-328d-4668-95b5-d61c95917965" d="M342.749,255.814c-2.98-1.273-6.987-.637-12.141,2.196"/>
  <polyline class="uuid-7a34bb26-328d-4668-95b5-d61c95917965" points="180.964 246.211 108.606 287.983 108.311 288.155"/>
  <polyline class="uuid-7a34bb26-328d-4668-95b5-d61c95917965" points="87.817 300.004 188.389 358.067 188.389 358.141 200.457 365.102 209.177 370.088 229.966 358.067 241.299 351.569"/>
  <polyline class="uuid-7a34bb26-328d-4668-95b5-d61c95917965" points="236.538 246.748 266.825 264.24 266.899 264.288"/>
  <polyline class="uuid-7a34bb26-328d-4668-95b5-d61c95917965" points="208.299 99.18 87.817 168.748 87.744 168.748 87.744 300.004 87.817 300.004"/>
  <polyline class="uuid-7a34bb26-328d-4668-95b5-d61c95917965" points="329.729 227.28 329.729 169.29 305.691 155.389 298.266 151.114 231.015 112.248"/>
  <polyline class="uuid-7a34bb26-328d-4668-95b5-d61c95917965" points="309.819 234.731 309.819 204.464 236.538 246.748 229.966 250.538 229.966 332.296"/>
  <path class="uuid-7a34bb26-328d-4668-95b5-d61c95917965" d="M262.772,320.618c-.221.515-.465,1.052-.685,1.564-.169.515-.463,1.053-.758,1.564-.632,1.099-1.342,2.27-2.148,3.322-.585.806-1.295,1.564-1.979,2.322-.122.099-.217.243-.339.343-.758.757-1.589,1.39-2.443,1.979"/>
  <polyline class="uuid-7a34bb26-328d-4668-95b5-d61c95917965" points="329.729 169.29 216.018 234.899 209.177 238.858 209.177 370.088 229.966 358.067 241.299 351.569"/>
  <polygon class="uuid-7a34bb26-328d-4668-95b5-d61c95917965" points="201.458 234.388 87.817 168.748 87.744 168.748 87.744 192.447 87.817 192.447 87.817 276.307 87.744 276.307 87.744 300.004 87.817 300.004 188.389 358.067 188.389 358.141 200.457 365.102 209.177 370.088 209.177 238.858 201.458 234.388"/>
  <polygon class="uuid-7a34bb26-328d-4668-95b5-d61c95917965" points="188.389 334.446 108.606 288.324 108.606 204.464 180.964 246.211 188.389 250.538 188.389 334.446"/>
  <polyline class="uuid-7a34bb26-328d-4668-95b5-d61c95917965" points="216.018 234.899 209.177 238.858 201.458 234.388"/>
  <path class="uuid-7a34bb26-328d-4668-95b5-d61c95917965" d="M212.717,158.59c1.394.342,2.689.875,3.786,1.513,4.47,2.565,4.47,6.792,0,9.404-1.291.706-2.808,1.222-4.418,1.564-1.223.243-2.491.365-3.786.365-1.1,0-2.2-.122-3.249-.291-1.785-.295-3.47-.832-4.865-1.638-4.492-2.611-4.492-6.839,0-9.404,1.564-.927,3.47-1.513,5.497-1.781"/>
  <polygon class="uuid-7a34bb26-328d-4668-95b5-d61c95917965" points="180.912 246.211 108.532 204.416 108.241 288.155 180.912 246.211"/>
  <polygon class="uuid-7a34bb26-328d-4668-95b5-d61c95917965" points="180.912 246.211 188.389 250.538 188.389 334.372 108.241 288.155 180.912 246.211"/>
  <polyline class="uuid-7a34bb26-328d-4668-95b5-d61c95917965" points="345.119 309.53 359.237 317.664 280.31 363.247 269.563 357.018"/>
  <polyline class="uuid-7a34bb26-328d-4668-95b5-d61c95917965" points="269.563 357.018 280.31 363.247 280.31 370.842 261.26 359.874"/>
  <polyline class="uuid-7a34bb26-328d-4668-95b5-d61c95917965" points="280.31 363.247 280.31 370.842 359.237 325.261 359.237 317.664"/>
  <path class="uuid-7a34bb26-328d-4668-95b5-d61c95917965" d="M262.602,343.555c.048,0,.122.052.122.052.048.074.169.122.221.169"/>
  <path class="uuid-7a34bb26-328d-4668-95b5-d61c95917965" d="M264.703,344.777c.169.052.341.122.563.122h.169c.537.052,1.121.052,1.759-.07,1.685-.221,3.544-1.053,5.349-2.322.391-.293.806-.584,1.223-.927.341-.295.684-.588,1.025-.879.244-.221.465-.391.708-.685.463-.415.879-.805,1.269-1.342.415-.467.809-.931,1.173-1.395.758-.975,1.39-2.026,1.979-3.127.221-.343.389-.706.563-1.049,0-.048.069-.121.069-.121,0-.052.052-.052.052-.126"/>
  <polyline class="uuid-7a34bb26-328d-4668-95b5-d61c95917965" points="252.734 314.804 252.782 314.804 258.301 318.054 262.772 320.618 267.142 323.161 267.142 312.436 262.307 309.65 262.26 309.576 261.844 309.408"/>
  <path class="uuid-7a34bb26-328d-4668-95b5-d61c95917965" d="M330.365,258.179c.242,3.496-.1,7.035-.441,9.895-.07.341-.148.684-.195.979-1.27,8.694-4.813,15.854-10.796,21.495"/>
  <polyline class="uuid-7a34bb26-328d-4668-95b5-d61c95917965" points="318.934 313.242 324.11 310.286 328.216 307.843 328.923 307.428"/>
  <path class="uuid-7a34bb26-328d-4668-95b5-d61c95917965" d="M337.4,301.151c.415-.269.758-.612,1.099-1.027.463-.463.928-1,1.391-1.516"/>
  <polygon class="uuid-7a34bb26-328d-4668-95b5-d61c95917965" points="260.328 335.082 241.887 324.457 229.156 331.833 247.554 342.46 260.328 335.082"/>
  <polyline class="uuid-7a34bb26-328d-4668-95b5-d61c95917965" points="293.795 329.268 304.521 335.473 304.521 259.063 286.124 248.385 286.124 275.086"/>
  <polyline class="uuid-7a34bb26-328d-4668-95b5-d61c95917965" points="312.825 232.924 286.076 248.385 304.521 259.011 331.318 243.547"/>
  <polyline class="uuid-7a34bb26-328d-4668-95b5-d61c95917965" points="267.142 312.436 262.307 309.65 262.26 309.576 261.844 309.408"/>
  <path class="uuid-7a34bb26-328d-4668-95b5-d61c95917965" d="M285.245,274.917s-.048-.052-.096,0c-.369-.052-.71-.124-1.125-.124-.511,0-1.097,0-1.734.072-.047,0-.173,0-.221.052-.243,0-.536,0-.758.122-.121,0-.169,0-.291.046-.367,0-.71.048-1.001.17-.172,0-.393.125-.636.173-.806.243-1.685.463-2.565.832-.857.341-1.737.754-2.663,1.221-.806.341-1.612.754-2.369,1.196-2.15,1.123-4.129,2.513-5.936,3.955-1.221,1.053-2.369,2.101-3.47,3.253-1.979,1.976-3.738,4.176-5.302,6.52-.584.927-1.147,1.833-1.659,2.786-.415.632-.758,1.269-1.052,1.979-.363.559-.584,1.195-.879,1.781"/>
  <path class="uuid-7a34bb26-328d-4668-95b5-d61c95917965" d="M253.488,299.003c-.291.584-.511,1.169-.806,1.759-.074.169-.121.389-.195.584-.048.048-.048.17-.096.221-.247.637-.467,1.269-.636,1.979-.122.122-.122.291-.196.465-.341.975-.636,2.026-.857,3.075-.291,1.101-.533,2.149-.706,3.201-.172.928-.295,1.855-.391,2.713-.073.173-.073.363-.073.536-.1,1.1-.174,2.201-.221,3.297"/>
  <path class="uuid-7a34bb26-328d-4668-95b5-d61c95917965" d="M230.845,306.159c.343-7.962,2.197-15.049,6.277-21.962,5.619-9.625,19.321-21.421,29.703-19.957"/>
  <path class="uuid-7a34bb26-328d-4668-95b5-d61c95917965" d="M266.899,264.288c.173,0,.415,0,.589.05,2.612.465,13.064,6.741,18.635,10.111,1.101.636,2.028,1.222,2.664,1.564-.221-.122-.389-.174-.636-.295-.048,0-.048-.048-.122-.048-.217-.121-.511-.243-.805-.291-.17-.125-.342-.125-.511-.173-.174-.074-.417-.074-.59-.122-.221-.046-.415-.124-.632-.124h-.122"/>
  <polyline class="uuid-7a34bb26-328d-4668-95b5-d61c95917965" points="331.318 243.598 330.608 244.014 329.729 244.478 329.729 244.552 326.48 246.409 326.189 246.579 309.819 255.983 304.521 259.063 304.521 335.473 331.318 320.033"/>
  <path class="uuid-7a34bb26-328d-4668-95b5-d61c95917965" d="M331.318,320.033c5.152-2.954,9.795-6.498,13.802-10.503,11.8-11.848,18.246-27.872,18.246-46.217,0-12.558-2.954-20.52-8.599-23.696"/>
  <path class="uuid-7a34bb26-328d-4668-95b5-d61c95917965" d="M291.232,278.408c1.464,1.98,2.222,4.813,2.222,8.404,0,4.424-1.295,9.011-3.566,13.018-.857,1.616-1.905,3.176-3.175,4.57-.174.243-.369.489-.59.71-.585.633-1.173,1.218-1.807,1.807.537-.173,1.001-.295,1.443-.369"/>
  <polyline class="uuid-7a34bb26-328d-4668-95b5-d61c95917965" points="247.627 342.507 254.124 338.746 260.328 335.13"/>
  <path class="uuid-7a34bb26-328d-4668-95b5-d61c95917965" d="M260.328,335.13c0,1.979.247,3.664.663,5.056.337,1.442.853,2.567,1.611,3.369.048,0,.122.052.122.052.048.074.169.122.221.169.537.538,1.099.832,1.759,1.001.169.052.341.122.563.122h.169c.537.052,1.121.052,1.759-.07"/>
  <path class="uuid-7a34bb26-328d-4668-95b5-d61c95917965" d="M272.543,342.507c.391-.293.806-.584,1.223-.927.341-.295.684-.588,1.025-.879.244-.221.465-.391.708-.685.463-.415.879-.805,1.269-1.342.415-.467.809-.931,1.173-1.395"/>
  <path class="uuid-7a34bb26-328d-4668-95b5-d61c95917965" d="M291.184,278.284c-.832-1.097-1.811-1.977-3.032-2.565-.048,0-.048-.048-.122-.048-.217-.121-.511-.243-.805-.291-.17-.125-.342-.125-.511-.173-.174-.074-.369-.122-.59-.169-.221-.078-.463-.078-.706-.122"/>
  <polyline class="uuid-7a34bb26-328d-4668-95b5-d61c95917965" points="249.313 316.832 252.734 314.804 252.782 314.804 261.844 309.576 261.844 309.408"/>
  <path class="uuid-7a34bb26-328d-4668-95b5-d61c95917965" d="M267.142,323.161c1.273-.854,1.859-1.221,3.253-1.953,3.466-2.053,6.788-3.08,8.989-2.101.295.122.537.291.806.537.585.389,1.053,1.023,1.343,1.905.121.291.243.559.293.88.243.853.343,1.902.343,3.123,0,.806-.052,1.638-.173,2.495v.048c-.291,1.586-.754,3.201-1.391,4.761,0,.074-.052.074-.052.126,0,0-.069.072-.069.121-.174.343-.343.706-.563,1.049"/>
  <polyline class="uuid-7a34bb26-328d-4668-95b5-d61c95917965" points="329.559 258.599 318.934 264.703 318.934 313.242 324.11 310.286 328.216 307.843 328.923 307.428 329.559 307.085"/>
  <path class="uuid-7a34bb26-328d-4668-95b5-d61c95917965" d="M329.559,307.085c1.928-1.095,3.664-2.27,5.225-3.54.931-.758,1.811-1.515,2.617-2.395.415-.269.758-.612,1.099-1.027.463-.463.928-1,1.391-1.516,2.1-2.443,3.786-5.102,5.106-7.962.417-.975.828-1.979,1.221-2.954"/>
  <path class="uuid-7a34bb26-328d-4668-95b5-d61c95917965" d="M298.266,151.114c-2.148-20.568-5.765-34.983-10.283-44.826-5.398-11.921-12.143-17.025-19.104-18.665-4.835-1.144-11.215.758-17.955,5.06-6.961,4.418-13.996,11.21-19.909,19.566-.122.196-.243.295-.343.465-5.592,8.014-10.284,17.492-13.606,27.238-2.076,6.229-3.592,12.553-4.35,18.639-.411,3.076-.632,6.105-.632,9.059"/>
  <path class="uuid-7a34bb26-328d-4668-95b5-d61c95917965" d="M212.085,171.071c-1.223.243-2.491.365-3.786.365-1.1,0-2.2-.122-3.249-.291"/>
  <path class="uuid-7a34bb26-328d-4668-95b5-d61c95917965" d="M205.122,167.649c0-3.076.17-6.152.559-9.327.537-4.422,1.395-8.967,2.617-13.437.658-2.37,1.342-4.765,2.148-7.135,3.492-10.453,8.551-20.494,14.412-29.044,6.55-9.405,14.512-17.003,22.353-21.936,8.257-5.299,16.612-7.621,23.28-5.986,8.941,2.078,17.37,8.307,23.868,22.572,5.176,11.336,9.183,27.948,11.333,52.034"/>
  <polygon class="uuid-4765ac84-66f5-46a7-a09b-af5d768fd1c3" points="253.488 333.518 253.488 333.518 253.488 333.518 253.488 333.518"/>
  <line class="uuid-3108252b-7692-4d63-9e3a-123d0f8f7181" x1="224.858" y1="108.706" x2="208.299" y2="99.18"/>
  <line class="uuid-3108252b-7692-4d63-9e3a-123d0f8f7181" x1="229.966" y1="332.296" x2="229.966" y2="300.64"/>
  <line class="uuid-3108252b-7692-4d63-9e3a-123d0f8f7181" x1="249.069" y1="352.791" x2="249.018" y2="352.791"/>
  <line class="uuid-3108252b-7692-4d63-9e3a-123d0f8f7181" x1="247.554" y1="342.46" x2="229.156" y2="331.833"/>
  <path class="uuid-7a34bb26-328d-4668-95b5-d61c95917965" d="M229.156,331.833c0,5.519.589,12.701,5.744,16.024"/>
  <line class="uuid-3108252b-7692-4d63-9e3a-123d0f8f7181" x1="234.9" y1="347.857" x2="253.318" y2="358.482"/>
  <line class="uuid-3108252b-7692-4d63-9e3a-123d0f8f7181" x1="355.061" y1="239.713" x2="336.594" y2="229.039"/>
  <path class="uuid-7a34bb26-328d-4668-95b5-d61c95917965" d="M336.594,229.039c-7.793-4.227-16.66-.048-23.769,3.885"/>
  <path class="uuid-7a34bb26-328d-4668-95b5-d61c95917965" d="M331.318,243.547c7.009-3.93,15.902-8.058,23.743-3.834"/>
  <line class="uuid-3108252b-7692-4d63-9e3a-123d0f8f7181" x1="249.313" y1="316.832" x2="230.845" y2="306.159"/>
  <line class="uuid-3108252b-7692-4d63-9e3a-123d0f8f7181" x1="212.085" y1="167.649" x2="212.085" y2="171.071"/>
  <line class="uuid-3108252b-7692-4d63-9e3a-123d0f8f7181" x1="205.05" y1="171.145" x2="205.122" y2="167.649"/>
  <path class="uuid-7a34bb26-328d-4668-95b5-d61c95917965" d="M344.997,290.646c2.385-5.593,3.287-9.938,3.712-16.074.399-4.964-.025-16.573-5.96-18.757"/>
  <line class="uuid-8444ccea-82c4-4e27-a1ab-2c697db479c5" x1="124.339" y1="319.323" x2="106.747" y2="288.913"/>
  <line class="uuid-8444ccea-82c4-4e27-a1ab-2c697db479c5" x1="106.921" y1="289.204" x2="89.259" y2="258.643"/>
  <line class="uuid-8444ccea-82c4-4e27-a1ab-2c697db479c5" x1="163.424" y1="341.922" x2="145.886" y2="311.556"/>
  <line class="uuid-8444ccea-82c4-4e27-a1ab-2c697db479c5" x1="107.09" y1="244.43" x2="89.259" y2="213.479"/>
  <line class="uuid-8444ccea-82c4-4e27-a1ab-2c697db479c5" x1="202.559" y1="364.565" x2="185.019" y2="334.151"/>
  <line class="uuid-8444ccea-82c4-4e27-a1ab-2c697db479c5" x1="109.532" y1="203.438" x2="91.824" y2="172.707"/>
  <line class="uuid-8444ccea-82c4-4e27-a1ab-2c697db479c5" x1="207.661" y1="328.29" x2="189.854" y2="297.387"/>
  <line class="uuid-8444ccea-82c4-4e27-a1ab-2c697db479c5" x1="148.497" y1="225.79" x2="130.911" y2="195.303"/>
  <line class="uuid-8444ccea-82c4-4e27-a1ab-2c697db479c5" x1="207.661" y1="283.1" x2="189.854" y2="252.197"/>
  <line class="uuid-8444ccea-82c4-4e27-a1ab-2c697db479c5" x1="187.584" y1="248.312" x2="170.044" y2="217.949"/>
  <line class="uuid-8444ccea-82c4-4e27-a1ab-2c697db479c5" x1="301.809" y1="356.113" x2="300.514" y2="353.769"/>
  <line class="uuid-8444ccea-82c4-4e27-a1ab-2c697db479c5" x1="321.373" y1="344.777" x2="320.029" y2="342.507"/>
  <line class="uuid-8444ccea-82c4-4e27-a1ab-2c697db479c5" x1="340.944" y1="333.518" x2="339.6" y2="331.197"/>
  <line class="uuid-8444ccea-82c4-4e27-a1ab-2c697db479c5" x1="256.104" y1="335.13" x2="255.979" y2="334.961"/>
  <line class="uuid-8444ccea-82c4-4e27-a1ab-2c697db479c5" x1="307.892" y1="227.987" x2="303.031" y2="236.365"/>
  <line class="uuid-8444ccea-82c4-4e27-a1ab-2c697db479c5" x1="284.097" y1="269.221" x2="283.391" y2="270.443"/>
  <line class="uuid-8444ccea-82c4-4e27-a1ab-2c697db479c5" x1="306.865" y1="207.202" x2="272.47" y2="266.731"/>
  <line class="uuid-8444ccea-82c4-4e27-a1ab-2c697db479c5" x1="286.982" y1="219.046" x2="262.602" y2="261.212"/>
  <line class="uuid-8444ccea-82c4-4e27-a1ab-2c697db479c5" x1="267.072" y1="230.893" x2="253.198" y2="254.982"/>
  <line class="uuid-8444ccea-82c4-4e27-a1ab-2c697db479c5" x1="247.211" y1="242.793" x2="243.72" y2="248.775"/>
  <line class="uuid-8444ccea-82c4-4e27-a1ab-2c697db479c5" x1="236.829" y1="281.242" x2="231.821" y2="272.595"/>
  <line class="uuid-8444ccea-82c4-4e27-a1ab-2c697db479c5" x1="244.941" y1="272.691" x2="232.162" y2="250.585"/>
  <line class="uuid-8444ccea-82c4-4e27-a1ab-2c697db479c5" x1="253.878" y1="265.63" x2="248.043" y2="255.52"/>
  <line class="uuid-8444ccea-82c4-4e27-a1ab-2c697db479c5" x1="335.836" y1="300.588" x2="326.189" y2="283.854"/>
  <line class="uuid-8444ccea-82c4-4e27-a1ab-2c697db479c5" x1="346.974" y1="274.744" x2="336.716" y2="256.958"/>
  <line class="uuid-8444ccea-82c4-4e27-a1ab-2c697db479c5" x1="313.068" y1="252.197" x2="305.475" y2="238.981"/>
  <line class="uuid-8444ccea-82c4-4e27-a1ab-2c697db479c5" x1="332.639" y1="240.934" x2="325.895" y2="229.26"/>
  <line class="uuid-8444ccea-82c4-4e27-a1ab-2c697db479c5" x1="285.027" y1="358.41" x2="280.896" y2="351.349"/>
  <line class="uuid-8444ccea-82c4-4e27-a1ab-2c697db479c5" x1="294.844" y1="352.913" x2="288.788" y2="342.46"/>
  <line class="uuid-8444ccea-82c4-4e27-a1ab-2c697db479c5" x1="304.691" y1="347.394" x2="296.239" y2="332.687"/>
  <line class="uuid-8444ccea-82c4-4e27-a1ab-2c697db479c5" x1="314.289" y1="341.459" x2="310.114" y2="334.25"/>
  <line class="uuid-8444ccea-82c4-4e27-a1ab-2c697db479c5" x1="324.11" y1="335.84" x2="319.934" y2="328.632"/>
  <line class="uuid-8444ccea-82c4-4e27-a1ab-2c697db479c5" x1="333.857" y1="330.196" x2="329.681" y2="322.941"/>
  <line class="uuid-8444ccea-82c4-4e27-a1ab-2c697db479c5" x1="343.677" y1="324.551" x2="339.254" y2="316.906"/>
  <line class="uuid-8444ccea-82c4-4e27-a1ab-2c697db479c5" x1="353.376" y1="318.763" x2="351.397" y2="315.442"/>
  <line class="uuid-8444ccea-82c4-4e27-a1ab-2c697db479c5" x1="250.581" y1="301.857" x2="239.613" y2="282.805"/>
  <line class="uuid-8444ccea-82c4-4e27-a1ab-2c697db479c5" x1="264.872" y1="281.411" x2="256.91" y2="267.657"/>
  <line class="uuid-8444ccea-82c4-4e27-a1ab-2c697db479c5" x1="241.056" y1="323.109" x2="233.289" y2="309.65"/>
  <line class="uuid-8444ccea-82c4-4e27-a1ab-2c697db479c5" x1="256.567" y1="327.459" x2="250.998" y2="317.76"/>
  <line class="uuid-8444ccea-82c4-4e27-a1ab-2c697db479c5" x1="277.941" y1="334.203" x2="271.201" y2="322.524"/>
  <line class="uuid-8444ccea-82c4-4e27-a1ab-2c697db479c5" x1="302.737" y1="295.949" x2="294.896" y2="282.464"/>
  <line class="uuid-8444ccea-82c4-4e27-a1ab-2c697db479c5" x1="290.474" y1="274.792" x2="288.104" y2="270.616"/>
  <line class="uuid-8444ccea-82c4-4e27-a1ab-2c697db479c5" x1="214.748" y1="140.708" x2="212.669" y2="137.166"/>
  <line class="uuid-8444ccea-82c4-4e27-a1ab-2c697db479c5" x1="226.302" y1="115.693" x2="224.569" y2="112.613"/>
  <line class="uuid-8444ccea-82c4-4e27-a1ab-2c697db479c5" x1="241.766" y1="97.152" x2="240.124" y2="94.415"/>
  <line class="uuid-8444ccea-82c4-4e27-a1ab-2c697db479c5" x1="261.26" y1="85.841" x2="259.696" y2="83.104"/>
  <line class="uuid-8444ccea-82c4-4e27-a1ab-2c697db479c5" x1="176.494" y1="245.942" x2="176.078" y2="246.626"/>
  <line class="uuid-8444ccea-82c4-4e27-a1ab-2c697db479c5" x1="167.012" y1="239.713" x2="156.168" y2="258.474"/>
  <line class="uuid-8444ccea-82c4-4e27-a1ab-2c697db479c5" x1="157.608" y1="233.51" x2="136.308" y2="270.395"/>
  <line class="uuid-8444ccea-82c4-4e27-a1ab-2c697db479c5" x1="148.13" y1="227.228" x2="116.373" y2="282.243"/>
  <line class="uuid-8444ccea-82c4-4e27-a1ab-2c697db479c5" x1="138.287" y1="221.783" x2="109.706" y2="271.301"/>
  <line class="uuid-8444ccea-82c4-4e27-a1ab-2c697db479c5" x1="128.173" y1="216.727" x2="110.048" y2="248.142"/>
  <line class="uuid-8444ccea-82c4-4e27-a1ab-2c697db479c5" x1="118.058" y1="211.672" x2="110.39" y2="224.984"/>
  <line class="uuid-8444ccea-82c4-4e27-a1ab-2c697db479c5" x1="129.1" y1="298.097" x2="120.258" y2="282.853"/>
  <line class="uuid-8444ccea-82c4-4e27-a1ab-2c697db479c5" x1="148.961" y1="309.993" x2="129.736" y2="276.65"/>
  <line class="uuid-8444ccea-82c4-4e27-a1ab-2c697db479c5" x1="168.871" y1="321.888" x2="139.141" y2="270.443"/>
  <line class="uuid-8444ccea-82c4-4e27-a1ab-2c697db479c5" x1="187.584" y1="331.712" x2="148.619" y2="264.24"/>
  <line class="uuid-8444ccea-82c4-4e27-a1ab-2c697db479c5" x1="187.215" y1="308.528" x2="158.781" y2="259.184"/>
  <line class="uuid-8444ccea-82c4-4e27-a1ab-2c697db479c5" x1="186.874" y1="285.37" x2="168.871" y2="254.176"/>
  <line class="uuid-8444ccea-82c4-4e27-a1ab-2c697db479c5" x1="186.531" y1="262.186" x2="178.985" y2="249.143"/>
</svg>