<?xml version="1.0" encoding="UTF-8"?>
<svg id="uuid-7bbe0b39-85a1-47c9-a291-9052f0764fd7" data-name="&amp;lt;Layer&amp;gt;" xmlns="http://www.w3.org/2000/svg" viewBox="0 0 451.11 451.11">
  <defs>
    <style>
      .uuid-701f80af-12aa-448a-a5d8-b2797cee56c3, .uuid-19b7853e-d5b9-41df-b653-89fe83adf96f, .uuid-c9096621-7011-49a4-85e9-cea003bd3ed2 {
        fill: none;
        stroke: #000;
        stroke-linecap: round;
      }

      .uuid-701f80af-12aa-448a-a5d8-b2797cee56c3, .uuid-c9096621-7011-49a4-85e9-cea003bd3ed2 {
        stroke-linejoin: round;
        stroke-width: 4.113px;
      }

      .uuid-19b7853e-d5b9-41df-b653-89fe83adf96f {
        stroke-miterlimit: 10;
        stroke-width: 1.163px;
      }

      .uuid-c9096621-7011-49a4-85e9-cea003bd3ed2 {
        fill-rule: evenodd;
      }
    </style>
  </defs>
  <polyline class="uuid-c9096621-7011-49a4-85e9-cea003bd3ed2" points="299.939 267.973 299.939 287.37 283.326 277.671"/>
  <polygon class="uuid-c9096621-7011-49a4-85e9-cea003bd3ed2" points="299.939 100.131 280.641 88.916 280.641 105.139 299.939 116.35 299.939 100.131"/>
  <polyline class="uuid-c9096621-7011-49a4-85e9-cea003bd3ed2" points="165.094 171.875 280.641 105.161 299.939 116.35 170.469 191.148"/>
  <polygon class="uuid-c9096621-7011-49a4-85e9-cea003bd3ed2" points="342.932 75.357 323.634 64.147 280.641 88.916 299.939 100.131 342.932 75.357"/>
  <polygon class="uuid-c9096621-7011-49a4-85e9-cea003bd3ed2" points="170.469 362.195 170.469 342.822 299.939 267.999 299.939 287.37 342.932 262.576 342.932 75.357 299.939 100.131 299.939 116.35 170.469 191.173 170.469 174.952 127.475 199.72 127.475 386.963 170.469 362.195"/>
  <polygon class="uuid-c9096621-7011-49a4-85e9-cea003bd3ed2" points="174.133 203.974 295.295 133.963 295.295 255.761 174.133 325.747 174.133 203.974"/>
  <polygon class="uuid-c9096621-7011-49a4-85e9-cea003bd3ed2" points="204.179 204.581 279.666 203.974 204.179 290.424 204.179 204.581"/>
  <polyline class="uuid-c9096621-7011-49a4-85e9-cea003bd3ed2" points="310.197 255.051 310.197 255.051 310.197 243.766"/>
  <path class="uuid-c9096621-7011-49a4-85e9-cea003bd3ed2" d="M310.197,243.766c0-3.128,2.2-6.939,5.132-8.477,3.907-2.392,8.062-4.787,12.212-7.157,2.689-1.563,4.887-.293,4.887,2.834"/>
  <polyline class="uuid-c9096621-7011-49a4-85e9-cea003bd3ed2" points="332.428 230.966 332.428 230.94 332.428 242.25"/>
  <path class="uuid-c9096621-7011-49a4-85e9-cea003bd3ed2" d="M310.197,115.838c0-3.127,2.2-6.939,5.132-8.477,3.907-2.395,8.062-4.791,12.212-7.16,2.689-1.564,4.887-.317,4.887,2.811"/>
  <path class="uuid-c9096621-7011-49a4-85e9-cea003bd3ed2" d="M332.428,199.599c0,3.105-2.198,6.913-4.887,8.477-4.15,2.395-8.305,4.765-12.212,7.156-2.932,1.564-5.132.295-5.132-2.832h0v-11.285c0-3.128,2.2-6.937,5.132-8.477,3.907-2.396,8.062-4.765,12.212-7.157,2.689-1.563,4.887-.315,4.887,2.834"/>
  <path class="uuid-c9096621-7011-49a4-85e9-cea003bd3ed2" d="M332.428,156.948c0,3.127-2.198,6.939-4.887,8.502-4.15,2.37-8.305,4.762-12.212,7.131-2.932,1.564-5.132.295-5.132-2.808"/>
  <path class="uuid-c9096621-7011-49a4-85e9-cea003bd3ed2" d="M310.197,169.774v-11.311c0-3.101,2.2-6.913,5.132-8.477,3.907-2.369,8.062-4.764,12.212-7.156,2.689-1.564,4.887-.295,4.887,2.834"/>
  <polygon class="uuid-c9096621-7011-49a4-85e9-cea003bd3ed2" points="127.475 199.72 108.178 188.509 108.178 375.748 127.475 386.963 127.475 199.72"/>
  <polygon class="uuid-c9096621-7011-49a4-85e9-cea003bd3ed2" points="170.469 174.952 150.928 163.739 108.178 188.509 127.475 199.72 170.469 174.952"/>
  <path class="uuid-c9096621-7011-49a4-85e9-cea003bd3ed2" d="M137.737,215.427c0-3.123,2.196-6.909,4.887-8.473,4.15-2.395,8.303-4.765,12.454-7.16,2.689-1.564,4.886-.291,4.886,2.834"/>
  <path class="uuid-c9096621-7011-49a4-85e9-cea003bd3ed2" d="M137.737,343.359c0-3.102,2.196-6.939,4.887-8.477,4.15-2.395,8.303-4.787,12.454-7.156,2.689-1.564,4.886-.295,4.886,2.832"/>
  <path class="uuid-c9096621-7011-49a4-85e9-cea003bd3ed2" d="M159.964,299.192c0,3.102-2.196,6.939-4.886,8.477-4.151,2.395-8.305,4.791-12.454,7.156-2.691,1.564-4.887.295-4.887-2.806"/>
  <path class="uuid-c9096621-7011-49a4-85e9-cea003bd3ed2" d="M137.737,312.019v-11.311c0-3.128,2.196-6.913,4.887-8.477,4.15-2.395,8.303-4.761,12.454-7.157,2.689-1.563,4.886-.293,4.886,2.834"/>
  <path class="uuid-c9096621-7011-49a4-85e9-cea003bd3ed2" d="M159.964,256.541c0,3.127-2.196,6.939-4.886,8.503-4.151,2.369-8.305,4.761-12.454,7.156-2.691,1.538-4.887.295-4.887-2.834"/>
  <path class="uuid-c9096621-7011-49a4-85e9-cea003bd3ed2" d="M137.737,269.367v-11.309c0-3.102,2.196-6.914,4.887-8.477,4.15-2.37,8.303-4.765,12.454-7.157,2.689-1.541,4.886-.295,4.886,2.834h0v11.285"/>
  <path class="uuid-c9096621-7011-49a4-85e9-cea003bd3ed2" d="M332.428,242.25c0,3.105-2.198,6.913-4.887,8.477"/>
  <line class="uuid-701f80af-12aa-448a-a5d8-b2797cee56c3" x1="327.541" y1="250.728" x2="315.33" y2="257.887"/>
  <path class="uuid-c9096621-7011-49a4-85e9-cea003bd3ed2" d="M315.33,257.887c-2.932,1.538-5.132.291-5.132-2.836"/>
  <path class="uuid-c9096621-7011-49a4-85e9-cea003bd3ed2" d="M332.428,114.322c0,3.102-2.198,6.914-4.887,8.477"/>
  <line class="uuid-701f80af-12aa-448a-a5d8-b2797cee56c3" x1="327.541" y1="122.799" x2="315.33" y2="129.956"/>
  <path class="uuid-c9096621-7011-49a4-85e9-cea003bd3ed2" d="M315.33,129.956c-2.932,1.563-5.132.293-5.132-2.833"/>
  <line class="uuid-701f80af-12aa-448a-a5d8-b2797cee56c3" x1="310.197" y1="127.123" x2="310.197" y2="115.838"/>
  <line class="uuid-701f80af-12aa-448a-a5d8-b2797cee56c3" x1="332.428" y1="103.013" x2="332.428" y2="114.322"/>
  <path class="uuid-c9096621-7011-49a4-85e9-cea003bd3ed2" d="M332.428,188.315v11.285"/>
  <path class="uuid-c9096621-7011-49a4-85e9-cea003bd3ed2" d="M332.428,145.664v11.285"/>
  <path class="uuid-c9096621-7011-49a4-85e9-cea003bd3ed2" d="M159.964,213.915c0,3.102-2.196,6.915-4.886,8.475"/>
  <line class="uuid-701f80af-12aa-448a-a5d8-b2797cee56c3" x1="155.079" y1="222.39" x2="142.624" y2="229.549"/>
  <path class="uuid-c9096621-7011-49a4-85e9-cea003bd3ed2" d="M142.624,229.549c-2.691,1.564-4.887.295-4.887-2.834"/>
  <line class="uuid-701f80af-12aa-448a-a5d8-b2797cee56c3" x1="137.737" y1="226.716" x2="137.737" y2="215.427"/>
  <line class="uuid-701f80af-12aa-448a-a5d8-b2797cee56c3" x1="159.964" y1="202.628" x2="159.964" y2="213.915"/>
  <path class="uuid-c9096621-7011-49a4-85e9-cea003bd3ed2" d="M159.964,341.843c0,3.102-2.196,6.915-4.886,8.477"/>
  <line class="uuid-701f80af-12aa-448a-a5d8-b2797cee56c3" x1="155.079" y1="350.321" x2="142.624" y2="357.478"/>
  <path class="uuid-c9096621-7011-49a4-85e9-cea003bd3ed2" d="M142.624,357.478c-2.691,1.563-4.887.293-4.887-2.833"/>
  <line class="uuid-701f80af-12aa-448a-a5d8-b2797cee56c3" x1="137.737" y1="354.644" x2="137.737" y2="343.359"/>
  <line class="uuid-701f80af-12aa-448a-a5d8-b2797cee56c3" x1="159.964" y1="330.558" x2="159.964" y2="341.843"/>
  <path class="uuid-c9096621-7011-49a4-85e9-cea003bd3ed2" d="M159.964,287.907v11.285"/>
  <line class="uuid-19b7853e-d5b9-41df-b653-89fe83adf96f" x1="151.902" y1="371.378" x2="128.943" y2="358.066"/>
  <line class="uuid-19b7853e-d5b9-41df-b653-89fe83adf96f" x1="168.758" y1="355.011" x2="158.743" y2="349.272"/>
  <line class="uuid-19b7853e-d5b9-41df-b653-89fe83adf96f" x1="137.98" y1="337.252" x2="129.429" y2="332.269"/>
  <line class="uuid-19b7853e-d5b9-41df-b653-89fe83adf96f" x1="180.731" y1="335.883" x2="144.331" y2="314.877"/>
  <line class="uuid-19b7853e-d5b9-41df-b653-89fe83adf96f" x1="136.027" y1="310.04" x2="129.429" y2="306.253"/>
  <line class="uuid-19b7853e-d5b9-41df-b653-89fe83adf96f" x1="202.469" y1="322.328" x2="192.943" y2="316.905"/>
  <line class="uuid-19b7853e-d5b9-41df-b653-89fe83adf96f" x1="172.423" y1="305.032" x2="161.675" y2="298.828"/>
  <line class="uuid-19b7853e-d5b9-41df-b653-89fe83adf96f" x1="145.067" y1="289.151" x2="129.186" y2="280.016"/>
  <line class="uuid-19b7853e-d5b9-41df-b653-89fe83adf96f" x1="224.946" y1="309.306" x2="215.663" y2="303.857"/>
  <line class="uuid-19b7853e-d5b9-41df-b653-89fe83adf96f" x1="172.669" y1="279.136" x2="153.125" y2="267.804"/>
  <line class="uuid-19b7853e-d5b9-41df-b653-89fe83adf96f" x1="136.027" y1="257.909" x2="129.429" y2="254.123"/>
  <line class="uuid-19b7853e-d5b9-41df-b653-89fe83adf96f" x1="247.662" y1="296.238" x2="238.136" y2="290.793"/>
  <line class="uuid-19b7853e-d5b9-41df-b653-89fe83adf96f" x1="172.423" y1="252.854" x2="161.675" y2="246.647"/>
  <line class="uuid-19b7853e-d5b9-41df-b653-89fe83adf96f" x1="153.614" y1="241.908" x2="128.943" y2="227.669"/>
  <line class="uuid-19b7853e-d5b9-41df-b653-89fe83adf96f" x1="270.136" y1="283.194" x2="260.853" y2="277.745"/>
  <line class="uuid-19b7853e-d5b9-41df-b653-89fe83adf96f" x1="172.423" y1="226.838" x2="159.964" y2="219.534"/>
  <line class="uuid-19b7853e-d5b9-41df-b653-89fe83adf96f" x1="139.202" y1="207.635" x2="129.429" y2="201.873"/>
  <line class="uuid-19b7853e-d5b9-41df-b653-89fe83adf96f" x1="309.465" y1="279.824" x2="301.893" y2="275.401"/>
  <line class="uuid-19b7853e-d5b9-41df-b653-89fe83adf96f" x1="292.856" y1="270.173" x2="283.326" y2="264.75"/>
  <line class="uuid-19b7853e-d5b9-41df-b653-89fe83adf96f" x1="174.867" y1="202.116" x2="150.438" y2="187.998"/>
  <line class="uuid-19b7853e-d5b9-41df-b653-89fe83adf96f" x1="332.184" y1="266.924" x2="317.526" y2="258.421"/>
  <line class="uuid-19b7853e-d5b9-41df-b653-89fe83adf96f" x1="308.732" y1="253.318" x2="297.006" y2="246.6"/>
  <line class="uuid-19b7853e-d5b9-41df-b653-89fe83adf96f" x1="197.096" y1="188.804" x2="187.571" y2="183.333"/>
  <line class="uuid-19b7853e-d5b9-41df-b653-89fe83adf96f" x1="341.221" y1="245.966" x2="334.382" y2="242.104"/>
  <line class="uuid-19b7853e-d5b9-41df-b653-89fe83adf96f" x1="317.526" y1="232.335" x2="296.763" y2="220.366"/>
  <line class="uuid-19b7853e-d5b9-41df-b653-89fe83adf96f" x1="219.57" y1="175.782" x2="210.045" y2="170.311"/>
  <line class="uuid-19b7853e-d5b9-41df-b653-89fe83adf96f" x1="341.468" y1="220.071" x2="325.588" y2="210.983"/>
  <line class="uuid-19b7853e-d5b9-41df-b653-89fe83adf96f" x1="308.732" y1="201.188" x2="297.006" y2="194.47"/>
  <line class="uuid-19b7853e-d5b9-41df-b653-89fe83adf96f" x1="242.043" y1="162.739" x2="232.519" y2="157.268"/>
  <line class="uuid-19b7853e-d5b9-41df-b653-89fe83adf96f" x1="341.221" y1="193.76" x2="334.382" y2="189.927"/>
  <line class="uuid-19b7853e-d5b9-41df-b653-89fe83adf96f" x1="326.077" y1="185.088" x2="296.517" y2="168.015"/>
  <line class="uuid-19b7853e-d5b9-41df-b653-89fe83adf96f" x1="264.761" y1="149.693" x2="255.235" y2="144.221"/>
  <line class="uuid-19b7853e-d5b9-41df-b653-89fe83adf96f" x1="341.221" y1="167.72" x2="332.674" y2="162.761"/>
  <line class="uuid-19b7853e-d5b9-41df-b653-89fe83adf96f" x1="311.908" y1="150.84" x2="297.006" y2="142.22"/>
  <line class="uuid-19b7853e-d5b9-41df-b653-89fe83adf96f" x1="287.237" y1="136.649" x2="277.955" y2="131.178"/>
  <line class="uuid-19b7853e-d5b9-41df-b653-89fe83adf96f" x1="341.71" y1="141.951" x2="319.483" y2="129.124"/>
  <line class="uuid-19b7853e-d5b9-41df-b653-89fe83adf96f" x1="308.489" y1="122.869" x2="300.429" y2="118.182"/>
  <line class="uuid-19b7853e-d5b9-41df-b653-89fe83adf96f" x1="341.221" y1="115.591" x2="334.382" y2="111.733"/>
  <line class="uuid-19b7853e-d5b9-41df-b653-89fe83adf96f" x1="319.237" y1="102.987" x2="308.976" y2="96.978"/>
  <line class="uuid-19b7853e-d5b9-41df-b653-89fe83adf96f" x1="341.221" y1="89.6" x2="331.452" y2="83.983"/>
  <line class="uuid-19b7853e-d5b9-41df-b653-89fe83adf96f" x1="151.902" y1="265.019" x2="139.448" y2="257.887"/>
  <line class="uuid-19b7853e-d5b9-41df-b653-89fe83adf96f" x1="158.254" y1="255.735" x2="147.021" y2="249.115"/>
  <line class="uuid-19b7853e-d5b9-41df-b653-89fe83adf96f" x1="151.902" y1="307.67" x2="139.448" y2="300.514"/>
  <line class="uuid-19b7853e-d5b9-41df-b653-89fe83adf96f" x1="158.254" y1="298.364" x2="147.021" y2="291.768"/>
  <line class="uuid-19b7853e-d5b9-41df-b653-89fe83adf96f" x1="151.902" y1="350.295" x2="139.448" y2="343.165"/>
  <line class="uuid-19b7853e-d5b9-41df-b653-89fe83adf96f" x1="158.254" y1="340.99" x2="147.021" y2="334.397"/>
  <line class="uuid-19b7853e-d5b9-41df-b653-89fe83adf96f" x1="151.902" y1="222.368" x2="139.448" y2="215.232"/>
  <line class="uuid-19b7853e-d5b9-41df-b653-89fe83adf96f" x1="158.254" y1="213.084" x2="147.021" y2="206.464"/>
  <line class="uuid-19b7853e-d5b9-41df-b653-89fe83adf96f" x1="157.279" y1="168.895" x2="147.021" y2="186.434"/>
  <line class="uuid-19b7853e-d5b9-41df-b653-89fe83adf96f" x1="143.846" y1="169.774" x2="127.233" y2="198.087"/>
  <line class="uuid-19b7853e-d5b9-41df-b653-89fe83adf96f" x1="123.811" y1="181.622" x2="117.703" y2="192.127"/>
  <line class="uuid-19b7853e-d5b9-41df-b653-89fe83adf96f" x1="288.213" y1="111.221" x2="279.909" y2="125.975"/>
  <line class="uuid-19b7853e-d5b9-41df-b653-89fe83adf96f" x1="276.49" y1="109.388" x2="260.121" y2="137.576"/>
  <line class="uuid-19b7853e-d5b9-41df-b653-89fe83adf96f" x1="256.699" y1="120.747" x2="240.579" y2="148.96"/>
  <line class="uuid-19b7853e-d5b9-41df-b653-89fe83adf96f" x1="237.404" y1="131.958" x2="221.035" y2="160.175"/>
  <line class="uuid-19b7853e-d5b9-41df-b653-89fe83adf96f" x1="217.616" y1="143.293" x2="201.494" y2="171.507"/>
  <line class="uuid-19b7853e-d5b9-41df-b653-89fe83adf96f" x1="198.075" y1="154.578" x2="181.706" y2="182.817"/>
  <line class="uuid-19b7853e-d5b9-41df-b653-89fe83adf96f" x1="178.288" y1="166.426" x2="172.423" y2="176.662"/>
  <line class="uuid-19b7853e-d5b9-41df-b653-89fe83adf96f" x1="329.499" y1="69.08" x2="318.994" y2="87.28"/>
  <line class="uuid-19b7853e-d5b9-41df-b653-89fe83adf96f" x1="315.572" y1="70.498" x2="299.45" y2="98.541"/>
  <line class="uuid-19b7853e-d5b9-41df-b653-89fe83adf96f" x1="295.784" y1="82.393" x2="289.924" y2="92.338"/>
  <line class="uuid-19b7853e-d5b9-41df-b653-89fe83adf96f" x1="298.718" y1="109.19" x2="282.109" y2="99.764"/>
  <line class="uuid-19b7853e-d5b9-41df-b653-89fe83adf96f" x1="298.229" y1="277.429" x2="292.856" y2="274.326"/>
  <line class="uuid-19b7853e-d5b9-41df-b653-89fe83adf96f" x1="125.522" y1="381.419" x2="123.811" y2="382.446"/>
  <line class="uuid-19b7853e-d5b9-41df-b653-89fe83adf96f" x1="126.011" y1="368.129" x2="112.085" y2="376.143"/>
  <line class="uuid-19b7853e-d5b9-41df-b653-89fe83adf96f" x1="126.011" y1="355.059" x2="109.646" y2="364.512"/>
  <line class="uuid-19b7853e-d5b9-41df-b653-89fe83adf96f" x1="126.011" y1="342.042" x2="109.646" y2="351.494"/>
  <line class="uuid-19b7853e-d5b9-41df-b653-89fe83adf96f" x1="126.011" y1="328.996" x2="109.646" y2="338.426"/>
  <line class="uuid-19b7853e-d5b9-41df-b653-89fe83adf96f" x1="126.011" y1="315.952" x2="109.646" y2="325.404"/>
  <line class="uuid-19b7853e-d5b9-41df-b653-89fe83adf96f" x1="126.011" y1="302.931" x2="109.646" y2="312.383"/>
  <line class="uuid-19b7853e-d5b9-41df-b653-89fe83adf96f" x1="126.011" y1="289.913" x2="109.646" y2="299.365"/>
  <line class="uuid-19b7853e-d5b9-41df-b653-89fe83adf96f" x1="126.011" y1="276.865" x2="109.646" y2="286.319"/>
  <line class="uuid-19b7853e-d5b9-41df-b653-89fe83adf96f" x1="126.011" y1="263.848" x2="109.646" y2="273.301"/>
  <line class="uuid-19b7853e-d5b9-41df-b653-89fe83adf96f" x1="126.011" y1="250.802" x2="109.646" y2="260.254"/>
  <line class="uuid-19b7853e-d5b9-41df-b653-89fe83adf96f" x1="126.011" y1="237.732" x2="109.646" y2="247.184"/>
  <line class="uuid-19b7853e-d5b9-41df-b653-89fe83adf96f" x1="126.011" y1="224.71" x2="109.646" y2="234.166"/>
  <line class="uuid-19b7853e-d5b9-41df-b653-89fe83adf96f" x1="126.011" y1="211.667" x2="109.646" y2="221.12"/>
  <line class="uuid-19b7853e-d5b9-41df-b653-89fe83adf96f" x1="124.3" y1="199.651" x2="109.646" y2="208.077"/>
  <line class="uuid-19b7853e-d5b9-41df-b653-89fe83adf96f" x1="112.574" y1="193.37" x2="110.132" y2="194.79"/>
  <line class="uuid-19b7853e-d5b9-41df-b653-89fe83adf96f" x1="324.366" y1="165.378" x2="311.908" y2="158.17"/>
  <line class="uuid-19b7853e-d5b9-41df-b653-89fe83adf96f" x1="330.716" y1="156.046" x2="319.483" y2="149.497"/>
  <line class="uuid-19b7853e-d5b9-41df-b653-89fe83adf96f" x1="324.366" y1="208.029" x2="311.908" y2="200.821"/>
  <line class="uuid-19b7853e-d5b9-41df-b653-89fe83adf96f" x1="330.716" y1="198.697" x2="319.483" y2="192.149"/>
  <line class="uuid-19b7853e-d5b9-41df-b653-89fe83adf96f" x1="324.366" y1="122.749" x2="311.908" y2="115.517"/>
  <line class="uuid-19b7853e-d5b9-41df-b653-89fe83adf96f" x1="330.716" y1="113.395" x2="319.483" y2="106.872"/>
  <line class="uuid-19b7853e-d5b9-41df-b653-89fe83adf96f" x1="324.366" y1="250.68" x2="311.908" y2="243.446"/>
  <line class="uuid-19b7853e-d5b9-41df-b653-89fe83adf96f" x1="330.716" y1="241.35" x2="319.483" y2="234.8"/>
</svg>