<?xml version="1.0" encoding="UTF-8"?>
<svg id="uuid-7d327e9a-ac0c-4355-9007-0907ba0d9dd4" data-name="&amp;lt;Layer&amp;gt;" xmlns="http://www.w3.org/2000/svg" viewBox="0 0 451.11 451.11">
  <defs>
    <style>
      .uuid-64d56039-d574-4836-93b8-113be289e16a, .uuid-4b1ae4c5-8a26-4095-b851-50d855935461, .uuid-22e44192-363e-4cbe-ab86-0c45281f258b, .uuid-20d78fcb-6aa8-495e-b51c-4655f90abc28, .uuid-7e44a034-6956-427f-be59-e360f38e0e1b {
        fill: none;
        stroke: #000;
        stroke-linecap: round;
      }

      .uuid-64d56039-d574-4836-93b8-113be289e16a, .uuid-20d78fcb-6aa8-495e-b51c-4655f90abc28, .uuid-7e44a034-6956-427f-be59-e360f38e0e1b {
        stroke-linejoin: round;
      }

      .uuid-64d56039-d574-4836-93b8-113be289e16a, .uuid-7e44a034-6956-427f-be59-e360f38e0e1b {
        stroke-width: 4.117px;
      }

      .uuid-4b1ae4c5-8a26-4095-b851-50d855935461 {
        stroke-width: 1.163px;
      }

      .uuid-4b1ae4c5-8a26-4095-b851-50d855935461, .uuid-22e44192-363e-4cbe-ab86-0c45281f258b {
        stroke-miterlimit: 10;
      }

      .uuid-22e44192-363e-4cbe-ab86-0c45281f258b {
        stroke-width: 1.159px;
      }

      .uuid-20d78fcb-6aa8-495e-b51c-4655f90abc28 {
        stroke-width: 4.113px;
      }

      .uuid-20d78fcb-6aa8-495e-b51c-4655f90abc28, .uuid-7e44a034-6956-427f-be59-e360f38e0e1b {
        fill-rule: evenodd;
      }
    </style>
  </defs>
  <line class="uuid-64d56039-d574-4836-93b8-113be289e16a" x1="161.622" y1="186.96" x2="144.196" y2="176.983"/>
  <path class="uuid-20d78fcb-6aa8-495e-b51c-4655f90abc28" d="M212.26,183.314c-.195-.975-.243-2.028-.243-3.175,0-5.272,1.438-10.99,3.882-16.439,2.395-5.23,2.564-10.111.588-13.07-2.156-3.521-6.656-2.252-9.699-.615-6.067,3.261-14.225,9.648-20.031,13.732-8.367,5.892-17.738,11.546-22.933,20.582-.979,1.708-1.961,3.485-2.24,5.453-.096.656-.166,1.406-.214,2.244-.397,7.031.722,19.987,1.656,29.543,1.45,14.78,6.185,38.983-17.209,41.429-8.977,0-17.955,8.547-22.646,15.464-4.376,6.439-6.792,12.348-8.136,20.009-.676,6.255-.426,13.952,5.228,17.955,3.956,2.686,9.578,2.565,15.851-1.053,3.473-1.979,6.744-4.813,9.53-8.183"/>
  <path class="uuid-7e44a034-6956-427f-be59-e360f38e0e1b" d="M252.789,272.186c1.737.702,4.007,3.83,4.639,5.397,1.913,4.376,2.182,12.261.684,17.002-1.077,4.448-3.263,8.82-1.905,13.485,1.839,5.056,6.215,5.376,10.869,2.27,9.113-6.155,18.224-12.727,27.285-19.636-12.506-63.801-65.025-87.606-129.27-54.985"/>
  <path class="uuid-7e44a034-6956-427f-be59-e360f38e0e1b" d="M145.646,307.191c.927-1.053,1.807-2.149,2.612-3.249,3.301-4.592,7.43-7.135,10.969-6.913,4.3.243,5.275,4.206,5.275,7.671,0,7.641-.772,16.523-1.316,24.158-.11,2.101-2.043,13.974-1.987,22.403.048,8.349,2.675,12.436,11.855,8.768,12.021-4.691,23.99-9.919,35.838-15.784,3.76-1.929,7.13-5.762,9.282-10.575.976-2.222,1.572-4.36,1.774-6.311.622-6.008-3.68-8.786-3.68-16.626,0-13.659,9.578-30.197,21.351-37.037,1.002-.585,1.929-1.049,2.856-1.39"/>
  <path class="uuid-20d78fcb-6aa8-495e-b51c-4655f90abc28" d="M240.231,187.247c-4.238,4.346-11.303,8.643-17.502,8.114-6.417-.776-9.728-5.398-10.468-11.969"/>
  <path class="uuid-7e44a034-6956-427f-be59-e360f38e0e1b" d="M294.362,290.704c1.221-.931,2.444-1.859,3.666-2.785,6.45-5.008,13.068-13.874,11.899-20.572-2.737-15.096-4.422-30.656-5.35-46.731-.173-3.445.88-7.157,3.028-10.917,2.15-3.786,4.813-6.498,7.893-8.087,2.734-1.44,5.519-2.15,8.01-2.15,2.958.074,6.328-.853,9.893-2.88,11.774-6.818,21.351-23.426,21.351-37.059,0-2.565-.345-4.886-.979-6.865h0"/>
  <line class="uuid-64d56039-d574-4836-93b8-113be289e16a" x1="141.639" y1="244.778" x2="159.984" y2="255.353"/>
  <path class="uuid-20d78fcb-6aa8-495e-b51c-4655f90abc28" d="M101.92,305.822c-3.422-2.59-4.643-5.692-5.35-9.793-.684-6.034.343-11.19,2.37-16.882,3.028-7.84,7.204-14.265,13.433-19.935,3.421-2.88,6.792-5.078,11.141-6.277,4.077-.953,5.986-.096,10.432-1.891,6.35-2.737,10.846-9.364,12.042-16.038.88-5.567-.415-17.003-.805-23.037-.585-8.963-1.343-17.904-2.222-26.771-.928-9.113,4.996-16.748,11.748-22.083,5.842-4.372,11.833-8.684,17.833-12.827,3.882-2.734,7.719-5.349,11.652-7.962,3.411-2.219,7.889-6.093,12.139-4.007"/>
  <line class="uuid-64d56039-d574-4836-93b8-113be289e16a" x1="120.265" y1="316.401" x2="101.92" y2="305.822"/>
  <line class="uuid-64d56039-d574-4836-93b8-113be289e16a" x1="145.23" y1="349.526" x2="163.601" y2="360.101"/>
  <path class="uuid-7e44a034-6956-427f-be59-e360f38e0e1b" d="M145.646,307.191c-.074.758-.122,1.512-.173,2.1-.465,7.547-1.001,15.097-1.634,22.644-.463,5.058-2.785,14.169,1.391,17.591"/>
  <path class="uuid-7e44a034-6956-427f-be59-e360f38e0e1b" d="M240.522,301.035c-2.417-1.615-3.076-4.054-3.076-6.839.243-5.523,2.908-10.579,3.275-17.197.048-1.564,0-3.128-.247-4.691,4.765-2.05,9.063-1.979,12.315-.122"/>
  <line class="uuid-64d56039-d574-4836-93b8-113be289e16a" x1="258.892" y1="311.662" x2="240.522" y2="301.035"/>
  <path class="uuid-7e44a034-6956-427f-be59-e360f38e0e1b" d="M329.441,134.729c-4.298-1.855-8.084-1.049-12.189.757-5.228,2.539-8.184,5.25-11.211,8.746"/>
  <line class="uuid-64d56039-d574-4836-93b8-113be289e16a" x1="347.569" y1="145.232" x2="329.441" y2="134.729"/>
  <line class="uuid-64d56039-d574-4836-93b8-113be289e16a" x1="288.427" y1="90.344" x2="306.504" y2="100.822"/>
  <line class="uuid-64d56039-d574-4836-93b8-113be289e16a" x1="212.26" y1="183.314" x2="212.26" y2="183.392"/>
  <path class="uuid-7e44a034-6956-427f-be59-e360f38e0e1b" d="M212.26,183.314c15.27-6.424,30.413-32.806,21.473-49.05-3.249-5.865-2.663-10.994.206-16.792,3.679-6.881,6.46-8.172,13.205-11.542,5.35-2.665,10.795-5.254,16.266-7.771,5.008-2.296,10.041-4.518,15.097-6.692,3.373-1.442,6.281-2.443,9.919-1.123"/>
  <line class="uuid-64d56039-d574-4836-93b8-113be289e16a" x1="252.274" y1="128.035" x2="233.976" y2="117.483"/>
  <path class="uuid-7e44a034-6956-427f-be59-e360f38e0e1b" d="M218,193.845c.585.342,1.173.584,1.737.806.463.173,1.001.367,1.464.463"/>
  <line class="uuid-64d56039-d574-4836-93b8-113be289e16a" x1="214.336" y1="148.776" x2="196.333" y2="138.319"/>
  <path class="uuid-7e44a034-6956-427f-be59-e360f38e0e1b" d="M240.231,187.247c3.532-3.278,8.054-9.466,10.063-14.091,2.432-4.707,4.246-11.241,4.481-16.337.118-2.543-.08-5.092-.732-7.476-1.478-5.453-4.831-6.572-4.12-13.74.533-5.364,3.917-11.431,8.024-14.835,2.256-1.861,5.563-3.584,8.852-5.122,6.689-3.131,13.629-6.354,20.45-9.404,5.066-2.26,23.224-12.333,22.72,1.023-.383,10.106-2.513,22.602-3.624,33.456-.541,5.368-.957,10.888-1.233,16.237-.273,4.787,1.568,7.642,4.39,8.286,4.677,1.063,8.684-3.046,11.844-6.887,3.161-3.852,5.567-6.752,9.382-9.482,4.416-3.164,10.342-5.781,15.63-4.129,3.815,1.193,6.173,4.169,7.413,7.911h0c-9.452,7.892-19.225,14.827-29.265,20.645-5.814,3.319-11.505,6.177-17.073,8.573-24.112,10.357-46.172,12.116-64.47,6.302-.919-.279-1.825-.61-2.733-.931Z"/>
  <line class="uuid-4b1ae4c5-8a26-4095-b851-50d855935461" x1="119.801" y1="280.785" x2="97.791" y2="293.486"/>
  <line class="uuid-4b1ae4c5-8a26-4095-b851-50d855935461" x1="113.524" y1="297.445" x2="102.263" y2="303.943"/>
  <line class="uuid-4b1ae4c5-8a26-4095-b851-50d855935461" x1="150.237" y1="250.202" x2="99.941" y2="279.247"/>
  <line class="uuid-4b1ae4c5-8a26-4095-b851-50d855935461" x1="204.884" y1="145.38" x2="201.513" y2="151.194"/>
  <line class="uuid-4b1ae4c5-8a26-4095-b851-50d855935461" x1="195.479" y1="139.029" x2="179.33" y2="167.074"/>
  <line class="uuid-4b1ae4c5-8a26-4095-b851-50d855935461" x1="176.475" y1="149.387" x2="156.857" y2="183.366"/>
  <line class="uuid-22e44192-363e-4cbe-ab86-0c45281f258b" x1="154.94" y1="163.957" x2="147.551" y2="176.916"/>
  <line class="uuid-4b1ae4c5-8a26-4095-b851-50d855935461" x1="250.882" y1="168.829" x2="214.972" y2="189.543"/>
  <line class="uuid-4b1ae4c5-8a26-4095-b851-50d855935461" x1="253.495" y1="154.295" x2="231.533" y2="166.949"/>
  <line class="uuid-4b1ae4c5-8a26-4095-b851-50d855935461" x1="249.709" y1="143.449" x2="237.74" y2="150.362"/>
  <line class="uuid-4b1ae4c5-8a26-4095-b851-50d855935461" x1="249.414" y1="130.574" x2="236.934" y2="137.782"/>
  <line class="uuid-4b1ae4c5-8a26-4095-b851-50d855935461" x1="239.962" y1="123.001" x2="233.391" y2="126.788"/>
  <line class="uuid-4b1ae4c5-8a26-4095-b851-50d855935461" x1="291.58" y1="93.983" x2="285.01" y2="105.367"/>
  <line class="uuid-4b1ae4c5-8a26-4095-b851-50d855935461" x1="279.144" y1="92.931" x2="266.954" y2="114.039"/>
  <line class="uuid-4b1ae4c5-8a26-4095-b851-50d855935461" x1="261.605" y1="100.724" x2="248.024" y2="124.202"/>
  <line class="uuid-4b1ae4c5-8a26-4095-b851-50d855935461" x1="243.017" y1="110.275" x2="238.568" y2="118.067"/>
  <line class="uuid-4b1ae4c5-8a26-4095-b851-50d855935461" x1="345.712" y1="146.086" x2="322.992" y2="159.204"/>
  <line class="uuid-4b1ae4c5-8a26-4095-b851-50d855935461" x1="310.559" y1="166.386" x2="269.814" y2="189.912"/>
  <line class="uuid-4b1ae4c5-8a26-4095-b851-50d855935461" x1="305.871" y1="143.032" x2="250.467" y2="174.988"/>
  <line class="uuid-4b1ae4c5-8a26-4095-b851-50d855935461" x1="308.704" y1="115.308" x2="253.301" y2="147.282"/>
  <line class="uuid-4b1ae4c5-8a26-4095-b851-50d855935461" x1="326.708" y1="150.215" x2="311.147" y2="141.225"/>
  <line class="uuid-4b1ae4c5-8a26-4095-b851-50d855935461" x1="289.307" y1="276.167" x2="273.109" y2="304.259"/>
  <line class="uuid-4b1ae4c5-8a26-4095-b851-50d855935461" x1="284.324" y1="262.196" x2="257.308" y2="308.998"/>
  <line class="uuid-4b1ae4c5-8a26-4095-b851-50d855935461" x1="277.459" y1="251.545" x2="259.993" y2="281.76"/>
  <line class="uuid-4b1ae4c5-8a26-4095-b851-50d855935461" x1="269.74" y1="242.336" x2="253.08" y2="271.233"/>
  <line class="uuid-4b1ae4c5-8a26-4095-b851-50d855935461" x1="261.141" y1="234.59" x2="240.01" y2="271.207"/>
  <line class="uuid-4b1ae4c5-8a26-4095-b851-50d855935461" x1="215.267" y1="314.104" x2="194.821" y2="349.5"/>
  <line class="uuid-4b1ae4c5-8a26-4095-b851-50d855935461" x1="251.943" y1="227.982" x2="175.618" y2="360.201"/>
  <line class="uuid-4b1ae4c5-8a26-4095-b851-50d855935461" x1="241.523" y1="223.519" x2="162.121" y2="361.005"/>
  <line class="uuid-4b1ae4c5-8a26-4095-b851-50d855935461" x1="229.59" y1="221.557" x2="162.721" y2="337.336"/>
  <line class="uuid-4b1ae4c5-8a26-4095-b851-50d855935461" x1="217.242" y1="220.373" x2="164.822" y2="311.172"/>
  <line class="uuid-4b1ae4c5-8a26-4095-b851-50d855935461" x1="202.955" y1="222.574" x2="159.568" y2="297.688"/>
  <line class="uuid-4b1ae4c5-8a26-4095-b851-50d855935461" x1="187.807" y1="226.212" x2="137.169" y2="313.958"/>
  <line class="uuid-4b1ae4c5-8a26-4095-b851-50d855935461" x1="169.172" y1="235.933" x2="166.555" y2="240.407"/>
  <line class="uuid-4b1ae4c5-8a26-4095-b851-50d855935461" x1="154.344" y1="261.585" x2="122.12" y2="317.401"/>
  <line class="uuid-4b1ae4c5-8a26-4095-b851-50d855935461" x1="138.733" y1="266.031" x2="116.137" y2="305.212"/>
  <line class="uuid-4b1ae4c5-8a26-4095-b851-50d855935461" x1="256.55" y1="293.853" x2="244.017" y2="301.109"/>
  <line class="uuid-4b1ae4c5-8a26-4095-b851-50d855935461" x1="256.965" y1="280.589" x2="239.547" y2="290.678"/>
  <line class="uuid-4b1ae4c5-8a26-4095-b851-50d855935461" x1="249.326" y1="271.973" x2="242.626" y2="275.85"/>
  <line class="uuid-4b1ae4c5-8a26-4095-b851-50d855935461" x1="160.058" y1="344.809" x2="150.285" y2="350.428"/>
  <line class="uuid-4b1ae4c5-8a26-4095-b851-50d855935461" x1="161.548" y1="330.886" x2="144.35" y2="340.806"/>
  <line class="uuid-4b1ae4c5-8a26-4095-b851-50d855935461" x1="162.428" y1="317.354" x2="145.818" y2="326.928"/>
  <line class="uuid-4b1ae4c5-8a26-4095-b851-50d855935461" x1="163.012" y1="303.969" x2="146.793" y2="313.321"/>
  <line class="uuid-4b1ae4c5-8a26-4095-b851-50d855935461" x1="162.939" y1="241.698" x2="151.338" y2="248.391"/>
  <line class="uuid-4b1ae4c5-8a26-4095-b851-50d855935461" x1="162.428" y1="228.949" x2="147.036" y2="237.839"/>
  <line class="uuid-4b1ae4c5-8a26-4095-b851-50d855935461" x1="161.622" y1="216.391" x2="147.721" y2="224.379"/>
  <line class="uuid-4b1ae4c5-8a26-4095-b851-50d855935461" x1="160.4" y1="204.029" x2="146.793" y2="211.899"/>
  <line class="uuid-4b1ae4c5-8a26-4095-b851-50d855935461" x1="159.642" y1="191.449" x2="145.889" y2="199.39"/>
  <line class="uuid-4b1ae4c5-8a26-4095-b851-50d855935461" x1="151.338" y1="183.192" x2="145.009" y2="186.835"/>
</svg>