<?xml version="1.0" encoding="UTF-8"?>
<svg id="uuid-637a76d8-d570-49b8-b611-2bfcc42f47a2" data-name="&amp;lt;Layer&amp;gt;" xmlns="http://www.w3.org/2000/svg" viewBox="0 0 451.11 451.11">
  <defs>
    <style>
      .uuid-380c525a-bc59-4b78-8de9-ebe81acb88b4, .uuid-6cc56e6f-e40d-481c-a2c4-9e76708886e2, .uuid-2b065bb2-0ea1-4c7e-8452-379296b18bd7 {
        fill: none;
        stroke: #000;
        stroke-linecap: round;
      }

      .uuid-380c525a-bc59-4b78-8de9-ebe81acb88b4, .uuid-2b065bb2-0ea1-4c7e-8452-379296b18bd7 {
        stroke-linejoin: round;
        stroke-width: 4.117px;
      }

      .uuid-6cc56e6f-e40d-481c-a2c4-9e76708886e2 {
        stroke-miterlimit: 10;
        stroke-width: 1.163px;
      }

      .uuid-2b065bb2-0ea1-4c7e-8452-379296b18bd7 {
        fill-rule: evenodd;
      }
    </style>
  </defs>
  <path class="uuid-2b065bb2-0ea1-4c7e-8452-379296b18bd7" d="M242.525,123.532c-53.498,30.873-96.859,105.969-96.859,167.746s43.361,86.792,96.859,55.915c53.472-30.877,96.803-105.992,96.803-167.746s-43.331-86.796-96.803-55.915Z"/>
  <path class="uuid-2b065bb2-0ea1-4c7e-8452-379296b18bd7" d="M311.043,116.739c-37.787-21.793-58.065-40.844-107.191-9.625-80.148,50.956-124.679,190.561-63.536,227.572"/>
  <line class="uuid-380c525a-bc59-4b78-8de9-ebe81acb88b4" x1="140.315" y1="334.686" x2="174" y2="354.132"/>
  <path class="uuid-2b065bb2-0ea1-4c7e-8452-379296b18bd7" d="M174,354.132c-54.888-34.81-20.273-133.255,14.343-180.208,25.013-33.979,77.462-80.832,122.7-57.185"/>
  <path class="uuid-2b065bb2-0ea1-4c7e-8452-379296b18bd7" d="M242.525,331.143c22.885-13.216,43.6-35.91,58.601-61.876,14.975-25.969,24.258-55.257,24.258-81.686s-9.283-45.024-24.258-53.671c-15.001-8.672-35.716-7.402-58.601,5.814-22.89,13.216-43.605,35.884-58.653,61.854-14.975,25.991-24.284,55.279-24.284,81.712s9.309,44.995,24.284,53.645c15.048,8.672,35.762,7.425,58.653-5.792Z"/>
  <path class="uuid-2b065bb2-0ea1-4c7e-8452-379296b18bd7" d="M292.821,130.294c.559.295,1.097.636,1.686.931,14.971,8.646,24.254,27.238,24.254,53.641s-9.283,55.698-24.254,81.716c-15.001,25.965-35.738,48.611-58.606,61.85-19.004,10.968-36.517,13.706-50.517,9.305"/>
  <line class="uuid-380c525a-bc59-4b78-8de9-ebe81acb88b4" x1="249.266" y1="90.965" x2="282.829" y2="110.362"/>
  <line class="uuid-380c525a-bc59-4b78-8de9-ebe81acb88b4" x1="226.207" y1="95.535" x2="259.987" y2="115.076"/>
  <line class="uuid-380c525a-bc59-4b78-8de9-ebe81acb88b4" x1="207.957" y1="106.455" x2="240.082" y2="124.97"/>
  <line class="uuid-380c525a-bc59-4b78-8de9-ebe81acb88b4" x1="189.907" y1="118.083" x2="222.833" y2="137.111"/>
  <line class="uuid-380c525a-bc59-4b78-8de9-ebe81acb88b4" x1="174.1" y1="132.057" x2="207.445" y2="151.304"/>
  <line class="uuid-380c525a-bc59-4b78-8de9-ebe81acb88b4" x1="161.91" y1="146.126" x2="195.009" y2="165.252"/>
  <line class="uuid-380c525a-bc59-4b78-8de9-ebe81acb88b4" x1="150.772" y1="160.806" x2="183.993" y2="180.006"/>
  <line class="uuid-380c525a-bc59-4b78-8de9-ebe81acb88b4" x1="140.658" y1="176.098" x2="174" y2="195.86"/>
  <line class="uuid-380c525a-bc59-4b78-8de9-ebe81acb88b4" x1="132.133" y1="192.294" x2="165.696" y2="211.641"/>
  <line class="uuid-380c525a-bc59-4b78-8de9-ebe81acb88b4" x1="124.877" y1="209.198" x2="158.371" y2="228.544"/>
  <line class="uuid-380c525a-bc59-4b78-8de9-ebe81acb88b4" x1="118.648" y1="227.764" x2="152.163" y2="247.084"/>
  <line class="uuid-380c525a-bc59-4b78-8de9-ebe81acb88b4" x1="114.252" y1="246.647" x2="147.866" y2="266.044"/>
  <line class="uuid-380c525a-bc59-4b78-8de9-ebe81acb88b4" x1="111.903" y1="266.971" x2="145.666" y2="286.464"/>
  <line class="uuid-380c525a-bc59-4b78-8de9-ebe81acb88b4" x1="112.856" y1="288.393" x2="146.472" y2="307.838"/>
  <line class="uuid-380c525a-bc59-4b78-8de9-ebe81acb88b4" x1="119.749" y1="311.819" x2="152.115" y2="330.485"/>
  <path class="uuid-2b065bb2-0ea1-4c7e-8452-379296b18bd7" d="M247.801,176.757c-4.398,2.541-8.405,5.475-12.069,8.771-3.616,3.297-6.865,6.962-9.773,10.991"/>
  <line class="uuid-380c525a-bc59-4b78-8de9-ebe81acb88b4" x1="225.96" y1="196.519" x2="225.96" y2="196.57"/>
  <path class="uuid-2b065bb2-0ea1-4c7e-8452-379296b18bd7" d="M225.96,196.57c-1.733,2.37-3.347,5.008-4.934,7.889-1.564,2.932-3.08,6.155-4.518,9.651-1.221,3.002-3.786,9.843-4.301,12.801"/>
  <polyline class="uuid-2b065bb2-0ea1-4c7e-8452-379296b18bd7" points="212.207 226.911 265.462 196.177 268.196 194.591 267.658 198.01 265.462 212.082 265.047 214.379 263.262 215.427 210.401 245.941"/>
  <path class="uuid-2b065bb2-0ea1-4c7e-8452-379296b18bd7" d="M210.401,245.941c-.465,4.076-.758,8.255-.758,11.795"/>
  <polyline class="uuid-2b065bb2-0ea1-4c7e-8452-379296b18bd7" points="209.643 257.736 260.354 228.496 263.092 226.911 262.556 230.328 260.234 244.471 259.891 246.768 258.034 247.82 211.964 274.397"/>
  <path class="uuid-2b065bb2-0ea1-4c7e-8452-379296b18bd7" d="M211.964,274.397c1.123,4.934,3.151,6.546,5.35,9.378"/>
  <line class="uuid-380c525a-bc59-4b78-8de9-ebe81acb88b4" x1="217.314" y1="283.775" x2="217.314" y2="283.801"/>
  <path class="uuid-2b065bb2-0ea1-4c7e-8452-379296b18bd7" d="M217.314,283.801c2.565,3.275,5.934,5.154,9.941,5.619,3.006.341,6.083.099,9.283-.733,3.201-.805,6.498-2.222,9.989-4.224,4.86-2.832,9.235-6.059,12.948-9.651,3.665-3.566,6.84-7.524,9.452-11.895"/>
  <polyline class="uuid-2b065bb2-0ea1-4c7e-8452-379296b18bd7" points="268.928 262.917 272.714 256.688 272.714 283.801 271.371 285.243"/>
  <path class="uuid-2b065bb2-0ea1-4c7e-8452-379296b18bd7" d="M271.371,285.243c-3.518,3.981-7.303,7.573-11.259,10.821-3.885,3.227-8.012,6.06-12.31,8.525-12.779,7.403-23.526,10.505-32.224,9.334-8.72-1.151-15.388-6.622-19.931-16.369"/>
  <path class="uuid-2b065bb2-0ea1-4c7e-8452-379296b18bd7" d="M195.646,297.554c-.854-1.881-4.177-9.161-4.57-11.064"/>
  <polyline class="uuid-2b065bb2-0ea1-4c7e-8452-379296b18bd7" points="191.076 286.49 180.377 292.669 177.595 294.232 178.181 290.814 180.45 276.692 180.792 274.423 182.651 273.37 188.806 269.804"/>
  <path class="uuid-2b065bb2-0ea1-4c7e-8452-379296b18bd7" d="M188.806,269.804c-.122-3.834.122-6.987.636-11.774"/>
  <polyline class="uuid-2b065bb2-0ea1-4c7e-8452-379296b18bd7" points="189.442 258.03 181.087 262.869 178.349 264.454 178.865 261.011 181.208 246.916 181.55 244.619 183.357 243.567 191.006 239.148"/>
  <path class="uuid-2b065bb2-0ea1-4c7e-8452-379296b18bd7" d="M191.006,239.148c1.807-10.773,4.466-18.713,8.768-28.339,4.64-10.379,10.699-20.077,18.125-29.044,4.591-5.519,9.356-10.454,14.39-14.802,5.056-4.35,10.331-8.11,15.803-11.263,5.228-3.028,10.114-5.176,14.584-6.424,4.518-1.243,8.599-1.59,12.237-1.001"/>
  <polyline class="uuid-2b065bb2-0ea1-4c7e-8452-379296b18bd7" points="274.914 148.275 276.257 148.47 275.915 150.424 272.666 169.869 271.912 174.461 269.054 173.412"/>
  <path class="uuid-2b065bb2-0ea1-4c7e-8452-379296b18bd7" d="M269.054,173.412c-3.128-1.173-6.497-1.49-10.041-.927-3.496.559-7.256,1.975-11.211,4.272"/>
  <line class="uuid-6cc56e6f-e40d-481c-a2c4-9e76708886e2" x1="335.374" y1="205.243" x2="319.692" y2="232.308"/>
  <line class="uuid-6cc56e6f-e40d-481c-a2c4-9e76708886e2" x1="278.458" y1="303.784" x2="262.897" y2="330.753"/>
  <line class="uuid-6cc56e6f-e40d-481c-a2c4-9e76708886e2" x1="335.963" y1="159.001" x2="326.433" y2="175.488"/>
  <line class="uuid-6cc56e6f-e40d-481c-a2c4-9e76708886e2" x1="232.606" y1="338.031" x2="223.175" y2="354.4"/>
  <line class="uuid-6cc56e6f-e40d-481c-a2c4-9e76708886e2" x1="325.384" y1="132.152" x2="316.859" y2="146.98"/>
  <line class="uuid-6cc56e6f-e40d-481c-a2c4-9e76708886e2" x1="203.097" y1="343.992" x2="194.62" y2="358.672"/>
  <line class="uuid-6cc56e6f-e40d-481c-a2c4-9e76708886e2" x1="308.087" y1="116.982" x2="299.732" y2="131.445"/>
  <line class="uuid-6cc56e6f-e40d-481c-a2c4-9e76708886e2" x1="181.087" y1="336.934" x2="172.778" y2="351.346"/>
  <line class="uuid-6cc56e6f-e40d-481c-a2c4-9e76708886e2" x1="284.977" y1="111.853" x2="276.257" y2="126.971"/>
  <line class="uuid-6cc56e6f-e40d-481c-a2c4-9e76708886e2" x1="165.453" y1="318.931" x2="156.877" y2="333.808"/>
  <line class="uuid-6cc56e6f-e40d-481c-a2c4-9e76708886e2" x1="254.663" y1="119.23" x2="244.601" y2="136.597"/>
  <line class="uuid-6cc56e6f-e40d-481c-a2c4-9e76708886e2" x1="158.024" y1="286.612" x2="148.035" y2="303.858"/>
  <line class="uuid-6cc56e6f-e40d-481c-a2c4-9e76708886e2" x1="211.111" y1="149.519" x2="153.385" y2="249.432"/>
  <line class="uuid-6cc56e6f-e40d-481c-a2c4-9e76708886e2" x1="271.033" y1="275.228" x2="260.649" y2="293.331"/>
  <line class="uuid-6cc56e6f-e40d-481c-a2c4-9e76708886e2" x1="254.59" y1="281.188" x2="239.493" y2="307.301"/>
  <line class="uuid-6cc56e6f-e40d-481c-a2c4-9e76708886e2" x1="236.292" y1="290.251" x2="223.469" y2="312.455"/>
  <line class="uuid-6cc56e6f-e40d-481c-a2c4-9e76708886e2" x1="256.521" y1="232.651" x2="244.258" y2="253.877"/>
  <line class="uuid-6cc56e6f-e40d-481c-a2c4-9e76708886e2" x1="223.517" y1="289.813" x2="210.985" y2="311.503"/>
  <line class="uuid-6cc56e6f-e40d-481c-a2c4-9e76708886e2" x1="262.43" y1="199.867" x2="250.192" y2="221.097"/>
  <line class="uuid-6cc56e6f-e40d-481c-a2c4-9e76708886e2" x1="236.954" y1="243.935" x2="224.691" y2="265.187"/>
  <line class="uuid-6cc56e6f-e40d-481c-a2c4-9e76708886e2" x1="214.697" y1="282.483" x2="201.754" y2="304.884"/>
  <line class="uuid-6cc56e6f-e40d-481c-a2c4-9e76708886e2" x1="272.423" y1="159.927" x2="266.146" y2="170.844"/>
  <line class="uuid-6cc56e6f-e40d-481c-a2c4-9e76708886e2" x1="242.864" y1="211.13" x2="230.626" y2="232.382"/>
  <line class="uuid-6cc56e6f-e40d-481c-a2c4-9e76708886e2" x1="217.777" y1="254.635" x2="195.083" y2="293.963"/>
  <line class="uuid-6cc56e6f-e40d-481c-a2c4-9e76708886e2" x1="265.047" y1="150.155" x2="251.804" y2="173.045"/>
  <line class="uuid-6cc56e6f-e40d-481c-a2c4-9e76708886e2" x1="223.3" y1="222.44" x2="211.059" y2="243.667"/>
  <line class="uuid-6cc56e6f-e40d-481c-a2c4-9e76708886e2" x1="208.91" y1="247.431" x2="185.262" y2="288.393"/>
  <line class="uuid-6cc56e6f-e40d-481c-a2c4-9e76708886e2" x1="247.701" y1="157.705" x2="229.235" y2="189.583"/>
  <line class="uuid-6cc56e6f-e40d-481c-a2c4-9e76708886e2" x1="213.722" y1="216.527" x2="189.907" y2="257.689"/>
  <line class="uuid-6cc56e6f-e40d-481c-a2c4-9e76708886e2" x1="221.732" y1="180.032" x2="196.816" y2="223.147"/>
  <line class="uuid-6cc56e6f-e40d-481c-a2c4-9e76708886e2" x1="183.824" y1="245.668" x2="183.405" y2="246.452"/>
  <line class="uuid-6cc56e6f-e40d-481c-a2c4-9e76708886e2" x1="242.278" y1="328.969" x2="240.546" y2="327.968"/>
  <line class="uuid-6cc56e6f-e40d-481c-a2c4-9e76708886e2" x1="262.261" y1="314.435" x2="259.987" y2="313.115"/>
  <line class="uuid-6cc56e6f-e40d-481c-a2c4-9e76708886e2" x1="278.652" y1="297.823" x2="276.135" y2="296.359"/>
  <line class="uuid-6cc56e6f-e40d-481c-a2c4-9e76708886e2" x1="292.406" y1="279.673" x2="289.668" y2="278.113"/>
  <line class="uuid-6cc56e6f-e40d-481c-a2c4-9e76708886e2" x1="303.911" y1="260.252" x2="301.053" y2="258.616"/>
  <line class="uuid-6cc56e6f-e40d-481c-a2c4-9e76708886e2" x1="313.195" y1="239.538" x2="310.287" y2="237.853"/>
  <line class="uuid-6cc56e6f-e40d-481c-a2c4-9e76708886e2" x1="319.935" y1="217.359" x2="317.029" y2="215.696"/>
  <line class="uuid-6cc56e6f-e40d-481c-a2c4-9e76708886e2" x1="323.353" y1="193.248" x2="320.571" y2="191.636"/>
  <line class="uuid-6cc56e6f-e40d-481c-a2c4-9e76708886e2" x1="320.914" y1="165.767" x2="318.714" y2="164.494"/>
</svg>