<?xml version="1.0" encoding="UTF-8"?>
<svg id="uuid-f7f1c836-a641-4f89-9a27-74354f824b0a" data-name="&amp;lt;Layer&amp;gt;" xmlns="http://www.w3.org/2000/svg" viewBox="0 0 451.11 451.11">
  <defs>
    <style>
      .uuid-1c3a60ee-e117-422d-ade2-c9c0d0896225, .uuid-aee26d9a-faaa-4f19-9f80-e2c9c39c7629, .uuid-df648796-d1b0-4713-9152-5efaff9572bd {
        fill: none;
        stroke: #000;
        stroke-linecap: round;
      }

      .uuid-1c3a60ee-e117-422d-ade2-c9c0d0896225, .uuid-df648796-d1b0-4713-9152-5efaff9572bd {
        stroke-linejoin: round;
        stroke-width: 4.113px;
      }

      .uuid-aee26d9a-faaa-4f19-9f80-e2c9c39c7629 {
        stroke-miterlimit: 10;
        stroke-width: 1.159px;
      }

      .uuid-df648796-d1b0-4713-9152-5efaff9572bd {
        fill-rule: evenodd;
      }
    </style>
  </defs>
  <path class="uuid-df648796-d1b0-4713-9152-5efaff9572bd" d="M324.201,114.731c11.237,3.712,19.788,12.532,24.428,26.308.489,1.025.489,2.248-.244,3.763-.489,1.44-1.221,2.661-2.443,3.666"/>
  <path class="uuid-df648796-d1b0-4713-9152-5efaff9572bd" d="M340.814,152.985c-1.464,1.342-2.932,1.637-3.908.879-.247-.121-.247-.243-.489-.463,0-.173-.247-.343-.247-.636-.732-1.807-1.464-3.323-2.196-4.813-.243-.758-.732-1.464-.979-2.222-.485-.563-.732-1.221-1.221-1.859,0-.243-.243-.412-.243-.632-.489-.585-.975-1.101-1.221-1.638-.489-.515-.975-1.027-1.464-1.563-.247-.515-.732-.979-1.221-1.392-.979-.93-1.712-1.736-2.687-2.491-.489-.419-.979-.758-1.711-1.101-.489-.415-.979-.757-1.711-1.099-.489-.415-1.221-.758-1.711-1.101"/>
  <polyline class="uuid-df648796-d1b0-4713-9152-5efaff9572bd" points="336.906 153.864 336.659 153.691 301.238 133.297"/>
  <path class="uuid-df648796-d1b0-4713-9152-5efaff9572bd" d="M303.682,161.485v.051c.735.391,1.711.806,2.443,1.343,0,.048.247.096.247.221.732.511,1.464,1.049,2.196,1.733.736.659,1.221,1.391,1.953,2.222.489.854,1.221,1.733,1.711,2.665.247.537.489,1.049.732,1.611.247.365.247.586.489.88,0,.169.247.341.247.584v.174c.243.411.732.805,1.221,1.099"/>
  <path class="uuid-df648796-d1b0-4713-9152-5efaff9572bd" d="M229.91,142.358c-.489-2.711,1.221-5.79,3.175-7.498,1.221-.857,2.2-1.737,3.421-2.543"/>
  <path class="uuid-df648796-d1b0-4713-9152-5efaff9572bd" d="M266.064,163.221c-.243-.663-.243-1.343,0-2.102,0-.221,0-.463.247-.684,0-.295,0-.589.243-.88,0-.221,0-.463.243-.71v-.095c.247-.537.489-1.001.979-1.468v-.048c.243-.463.732-.88.979-1.222"/>
  <path class="uuid-df648796-d1b0-4713-9152-5efaff9572bd" d="M271.44,153.938c.732-.489,1.221-.953,1.953-1.343,1.221-.831,2.196-1.516,3.418-2.226"/>
  <path class="uuid-df648796-d1b0-4713-9152-5efaff9572bd" d="M276.811,150.32c.247-.121.489-.221.736-.341h0c.975-.633,1.953-1.222,3.175-1.807.243-.122.487-.295.976-.463,1.468-.806,3.175-1.468,4.643-2.028.975-.415,1.707-.758,2.686-1.052.975-.291,1.953-.584,2.93-.758.735-.243,1.468-.463,2.443-.584,1.711-.343,3.421-.563,4.886-.563,3.421-.195,6.84.099,9.773,1.053,1.221.341,2.443.78,3.422,1.316"/>
  <path class="uuid-df648796-d1b0-4713-9152-5efaff9572bd" d="M326.158,115.389c-7.328-2.59-12.215-3.028-19.787-2.465-1.711.169-4.644.633-6.108,1.001-14.169,3.054-26.138,10.579-37.132,19.373-1.707,1.39-3.175,3.881-3.175,6.103"/>
  <polyline class="uuid-df648796-d1b0-4713-9152-5efaff9572bd" points="259.956 139.4 259.956 140.722 261.424 145.828"/>
  <path class="uuid-df648796-d1b0-4713-9152-5efaff9572bd" d="M313.7,172.794c-6.354-15.976-23.942-17.561-41.771-3.76-1.955,1.564-3.912,1.247-4.398-.732"/>
  <path class="uuid-df648796-d1b0-4713-9152-5efaff9572bd" d="M266.064,163.195c-.243-1.101-.243-2.443.489-3.933.489-1.465,1.464-2.687,2.686-3.566,24.428-19.225,48.613-17.029,56.92,5.128.487,1.027.487,2.296-.247,3.786-.489,1.49-1.221,2.759-2.443,3.76"/>
  <path class="uuid-df648796-d1b0-4713-9152-5efaff9572bd" d="M336.17,152.742c-9.769-28.118-40.06-30.83-70.106-6.303-2.196,1.685-4.154,1.39-4.639-.611"/>
  <path class="uuid-df648796-d1b0-4713-9152-5efaff9572bd" d="M259.956,140.722c-.243-1.101,0-2.418.489-3.86.732-1.464,1.464-2.664,2.686-3.564,36.885-30.219,73.774-26.923,85.498,7.719.489,1.025.245,2.295-.244,3.76-.489,1.464-1.221,2.686-2.443,3.664"/>
  <polyline class="uuid-df648796-d1b0-4713-9152-5efaff9572bd" points="148.321 356.811 148.321 356.811 112.409 336.001"/>
  <path class="uuid-df648796-d1b0-4713-9152-5efaff9572bd" d="M112.409,336.001c-2.196-1.247-3.664-2.69-5.128-4.618-5.862-7.499-5.862-18.86-4.154-27.75,2.932-17.023,13.68-35.273,27.116-46.143"/>
  <path class="uuid-df648796-d1b0-4713-9152-5efaff9572bd" d="M131.954,256.268c.243-1.932.489-3.738.732-5.67,4.887-27.702,23.938-58.726,48.613-72.992,9.525-5.593,22.227-9.378,32.977-4.665"/>
  <polyline class="uuid-df648796-d1b0-4713-9152-5efaff9572bd" points="214.276 172.942 215.256 173.457 222.827 177.755"/>
  <path class="uuid-df648796-d1b0-4713-9152-5efaff9572bd" d="M222.827,177.755c6.594-5.961,15.877-11.627,25.16-11.459,2.196.026,4.396.464,6.593,1.295"/>
  <polyline class="uuid-df648796-d1b0-4713-9152-5efaff9572bd" points="254.58 167.591 255.559 168.055 271.196 177.118 272.904 176.776"/>
  <polyline class="uuid-df648796-d1b0-4713-9152-5efaff9572bd" points="283.898 177.707 285.119 178.218 321.026 199.032"/>
  <path class="uuid-df648796-d1b0-4713-9152-5efaff9572bd" d="M321.026,199.032c6.84,3.397,11.237,11.458,11.237,23.181,0,22.326-15.633,49.421-34.932,60.558"/>
  <path class="uuid-df648796-d1b0-4713-9152-5efaff9572bd" d="M172.994,354.393c-19.056,11.142-34.932,2.075-34.932-20.225.243-20.225,12.944-44.436,29.798-57.063,3.18-30.124,24.186-64.051,49.591-78.683,16.612-9.699,31.51-8.673,40.55.853,3.176-2.906,6.598-5.423,10.015-7.402,15.392-8.842,28.335-4.956,32.978,8.208,17.592-7.962,31.268,1.296,31.268,22.132,0,22.326-15.633,49.421-34.932,60.558"/>
  <line class="uuid-1c3a60ee-e117-422d-ade2-c9c0d0896225" x1="345.942" y1="148.467" x2="340.814" y2="152.985"/>
  <path class="uuid-df648796-d1b0-4713-9152-5efaff9572bd" d="M301.238,133.297c-.732-.395-.732-.515-1.221-1.395"/>
  <line class="uuid-1c3a60ee-e117-422d-ade2-c9c0d0896225" x1="314.922" y1="174.067" x2="314.432" y2="173.847"/>
  <line class="uuid-1c3a60ee-e117-422d-ade2-c9c0d0896225" x1="314.186" y1="173.674" x2="290.737" y2="160.067"/>
  <line class="uuid-1c3a60ee-e117-422d-ade2-c9c0d0896225" x1="268.264" y1="169.671" x2="268.264" y2="169.593"/>
  <line class="uuid-1c3a60ee-e117-422d-ade2-c9c0d0896225" x1="268.264" y1="169.593" x2="232.596" y2="148.978"/>
  <path class="uuid-df648796-d1b0-4713-9152-5efaff9572bd" d="M232.596,148.978c-.732-.511-.975-.633-1.217-1.516"/>
  <line class="uuid-1c3a60ee-e117-422d-ade2-c9c0d0896225" x1="231.378" y1="147.462" x2="229.91" y2="142.358"/>
  <line class="uuid-1c3a60ee-e117-422d-ade2-c9c0d0896225" x1="267.532" y1="168.324" x2="266.064" y2="163.221"/>
  <line class="uuid-1c3a60ee-e117-422d-ade2-c9c0d0896225" x1="312.479" y1="145.092" x2="290.491" y2="132.317"/>
  <path class="uuid-df648796-d1b0-4713-9152-5efaff9572bd" d="M230.4,109.749c16.854-12.779,38.596-22.72,59.602-15.196"/>
  <line class="uuid-1c3a60ee-e117-422d-ade2-c9c0d0896225" x1="290.001" y1="94.553" x2="326.158" y2="115.389"/>
  <line class="uuid-1c3a60ee-e117-422d-ade2-c9c0d0896225" x1="262.646" y1="147.34" x2="226.493" y2="126.531"/>
  <path class="uuid-df648796-d1b0-4713-9152-5efaff9572bd" d="M226.493,126.531c-.733-.515-.733-.685-1.223-1.542"/>
  <line class="uuid-1c3a60ee-e117-422d-ade2-c9c0d0896225" x1="225.27" y1="124.989" x2="223.802" y2="119.47"/>
  <path class="uuid-df648796-d1b0-4713-9152-5efaff9572bd" d="M223.802,119.47c-.732-4.544,3.665-7.33,6.598-9.721"/>
  <line class="uuid-1c3a60ee-e117-422d-ade2-c9c0d0896225" x1="323.469" y1="168.372" x2="318.34" y2="172.894"/>
  <path class="uuid-df648796-d1b0-4713-9152-5efaff9572bd" d="M318.34,172.894c-1.953,1.758-3.908,1.707-4.64-.1"/>
  <path class="uuid-df648796-d1b0-4713-9152-5efaff9572bd" d="M172.994,354.393c-9.53,5.571-18.324,6.082-24.674,2.418"/>
  <line class="uuid-1c3a60ee-e117-422d-ade2-c9c0d0896225" x1="130.243" y1="257.49" x2="131.954" y2="256.268"/>
  <path class="uuid-df648796-d1b0-4713-9152-5efaff9572bd" d="M272.904,176.776c3.664-.611,7.571-.439,10.994.931"/>
  <line class="uuid-1c3a60ee-e117-422d-ade2-c9c0d0896225" x1="297.331" y1="282.771" x2="172.994" y2="354.393"/>
  <line class="uuid-1c3a60ee-e117-422d-ade2-c9c0d0896225" x1="167.861" y1="277.105" x2="131.954" y2="256.268"/>
  <line class="uuid-1c3a60ee-e117-422d-ade2-c9c0d0896225" x1="258.491" y1="198.422" x2="222.827" y2="177.755"/>
  <line class="uuid-1c3a60ee-e117-422d-ade2-c9c0d0896225" x1="291.712" y1="188.918" x2="271.196" y2="177.118"/>
  <line class="uuid-aee26d9a-faaa-4f19-9f80-e2c9c39c7629" x1="117.785" y1="337.244" x2="103.863" y2="313.064"/>
  <line class="uuid-aee26d9a-faaa-4f19-9f80-e2c9c39c7629" x1="137.816" y1="326.886" x2="111.677" y2="281.501"/>
  <line class="uuid-aee26d9a-faaa-4f19-9f80-e2c9c39c7629" x1="147.831" y1="298.989" x2="126.579" y2="261.835"/>
  <line class="uuid-aee26d9a-faaa-4f19-9f80-e2c9c39c7629" x1="162.49" y1="279.205" x2="160.047" y2="274.709"/>
  <line class="uuid-aee26d9a-faaa-4f19-9f80-e2c9c39c7629" x1="156.381" y1="268.77" x2="137.573" y2="236.139"/>
  <line class="uuid-aee26d9a-faaa-4f19-9f80-e2c9c39c7629" x1="173.237" y1="252.604" x2="149.299" y2="210.976"/>
  <line class="uuid-aee26d9a-faaa-4f19-9f80-e2c9c39c7629" x1="185.453" y1="228.809" x2="164.196" y2="192.019"/>
  <line class="uuid-aee26d9a-faaa-4f19-9f80-e2c9c39c7629" x1="200.839" y1="210.048" x2="182.52" y2="178.048"/>
  <line class="uuid-aee26d9a-faaa-4f19-9f80-e2c9c39c7629" x1="218.916" y1="196.268" x2="204.994" y2="172.088"/>
  <line class="uuid-aee26d9a-faaa-4f19-9f80-e2c9c39c7629" x1="238.215" y1="184.52" x2="231.621" y2="173.115"/>
  <line class="uuid-aee26d9a-faaa-4f19-9f80-e2c9c39c7629" x1="267.774" y1="190.629" x2="255.802" y2="170.204"/>
  <line class="uuid-aee26d9a-faaa-4f19-9f80-e2c9c39c7629" x1="303.438" y1="197.273" x2="298.31" y2="188.064"/>
  <line class="uuid-aee26d9a-faaa-4f19-9f80-e2c9c39c7629" x1="327.624" y1="146.267" x2="321.762" y2="136.299"/>
  <line class="uuid-aee26d9a-faaa-4f19-9f80-e2c9c39c7629" x1="254.58" y1="159.725" x2="241.636" y2="137.009"/>
  <line class="uuid-aee26d9a-faaa-4f19-9f80-e2c9c39c7629" x1="274.615" y1="149.516" x2="271.683" y2="144.408"/>
  <line class="uuid-aee26d9a-faaa-4f19-9f80-e2c9c39c7629" x1="296.11" y1="141.063" x2="293.177" y2="136.177"/>
  <line class="uuid-aee26d9a-faaa-4f19-9f80-e2c9c39c7629" x1="248.72" y1="137.619" x2="232.596" y2="109.406"/>
  <line class="uuid-aee26d9a-faaa-4f19-9f80-e2c9c39c7629" x1="269.238" y1="127.554" x2="252.141" y2="97.971"/>
  <line class="uuid-aee26d9a-faaa-4f19-9f80-e2c9c39c7629" x1="288.78" y1="116.319" x2="275.347" y2="93.184"/>
  <line class="uuid-aee26d9a-faaa-4f19-9f80-e2c9c39c7629" x1="311.5" y1="110.724" x2="310.036" y2="108.45"/>
</svg>