<?xml version="1.0" encoding="UTF-8"?>
<svg id="uuid-b9b1ba79-4d87-484d-820e-44f7ac41609d" data-name="&amp;lt;Layer&amp;gt;" xmlns="http://www.w3.org/2000/svg" viewBox="0 0 451.11 451.11">
  <defs>
    <style>
      .uuid-28ebc42e-bff6-45aa-abb7-fbae3ae8291a, .uuid-bb23fad8-d0d7-412f-93d7-3b6d240ea83e, .uuid-32466005-baf9-411e-9032-2c0fd15006e6 {
        fill: none;
        stroke: #000;
        stroke-linecap: round;
      }

      .uuid-28ebc42e-bff6-45aa-abb7-fbae3ae8291a, .uuid-32466005-baf9-411e-9032-2c0fd15006e6 {
        stroke-linejoin: round;
        stroke-width: 3.871px;
      }

      .uuid-bb23fad8-d0d7-412f-93d7-3b6d240ea83e {
        stroke-miterlimit: 10;
        stroke-width: 1.093px;
      }

      .uuid-32466005-baf9-411e-9032-2c0fd15006e6 {
        fill-rule: evenodd;
      }
    </style>
  </defs>
  <path class="uuid-32466005-baf9-411e-9032-2c0fd15006e6" d="M232.334,241.659c4.368,2.573,10.457,2.182,17.171-1.703,3.22-1.863,6.273-4.368,9.081-7.264,5.258-5.545,10.972-15.368,13.146-22.459,1.311-4.161,2.046-8.297,2.046-12.3,0-7.697-2.756-13.168-7.126-15.677"/>
  <path class="uuid-32466005-baf9-411e-9032-2c0fd15006e6" d="M158.794,262.853c-2.138.989-3.724,2.575-4.827,4.595-1.079,1.979-1.634,4.53-1.634,7.428"/>
  <polyline class="uuid-32466005-baf9-411e-9032-2c0fd15006e6" points="152.333 274.876 152.333 286.735 182.887 296.14"/>
  <path class="uuid-32466005-baf9-411e-9032-2c0fd15006e6" d="M294.424,269.196c2.068.989,3.723,2.575,4.801,4.599,1.107,1.954,1.655,4.529,1.655,7.425"/>
  <polyline class="uuid-32466005-baf9-411e-9032-2c0fd15006e6" points="300.88 281.22 300.88 293.082 271.641 302.093"/>
  <polyline class="uuid-32466005-baf9-411e-9032-2c0fd15006e6" points="181.621 255.752 182.887 296.14 183.045 300.46"/>
  <polyline class="uuid-32466005-baf9-411e-9032-2c0fd15006e6" points="200.427 283.564 200.427 283.634 198.955 285.816 198.955 285.864 183.321 309.632 183.321 309.68 160.59 344.391"/>
  <path class="uuid-32466005-baf9-411e-9032-2c0fd15006e6" d="M160.59,344.391c-2.072,3.401-3.727,6.848-4.805,10.111-.117.323-.231.67-.275.993-.99,3.265-1.311,6.387-1.358,9.997-.07,2.944,0,6.229,0,10.206"/>
  <polyline class="uuid-32466005-baf9-411e-9032-2c0fd15006e6" points="155.277 342.875 183.045 300.46 185.393 296.898 195.14 282.048 200.427 283.564"/>
  <polyline class="uuid-32466005-baf9-411e-9032-2c0fd15006e6" points="200.427 283.634 200.427 336.573 154.152 375.698 154.152 363.836"/>
  <path class="uuid-32466005-baf9-411e-9032-2c0fd15006e6" d="M154.152,363.836c0-2.619.415-5.401,1.358-8.341.044-.323.158-.67.275-.993,1.079-3.263,2.734-6.711,4.805-10.111"/>
  <polyline class="uuid-32466005-baf9-411e-9032-2c0fd15006e6" points="302.238 358.387 302.238 370.183 296.009 371.928 296.009 360.135"/>
  <path class="uuid-32466005-baf9-411e-9032-2c0fd15006e6" d="M296.009,360.135c0-.872-.069-1.748-.161-2.689-.114-.872-.232-1.745-.391-2.551-.275-1.332-.596-2.738-1.081-4.117-1.105-3.263-2.734-6.711-4.827-10.088"/>
  <polyline class="uuid-32466005-baf9-411e-9032-2c0fd15006e6" points="289.549 340.69 265.525 303.955 258.241 292.851 254.264 286.805 249.734 279.862 254.264 278.6 255.963 278.119 258.516 282.048 271.641 302.093 295.778 338.92"/>
  <polyline class="uuid-32466005-baf9-411e-9032-2c0fd15006e6" points="296.009 360.135 296.009 371.928 249.734 332.805 249.734 279.862 254.264 286.805 258.241 292.851 265.525 303.955 289.549 340.69"/>
  <path class="uuid-32466005-baf9-411e-9032-2c0fd15006e6" d="M264.632,241.773c-.21,4.32-2.116,8.139-4.919,11.241-.162.228-.325.389-.487.552-1.033,1.103-2.181,2.138-3.377,3.058-.504.389-1.033.827-1.585,1.103-14.439,10.276-37.494,11.583-54.114,7.22-.389-.118-.758-.232-1.195-.325-5.677-1.699-12.3-4.595-17.333-8.871-.92-.692-1.747-1.52-2.505-2.348-3.01-3.215-5.033-7.101-5.24-11.63"/>
  <path class="uuid-32466005-baf9-411e-9032-2c0fd15006e6" d="M171.138,147.224c-.066-.162-.066-.319-.066-.482v-.946"/>
  <path class="uuid-32466005-baf9-411e-9032-2c0fd15006e6" d="M262.288,131.822c3.562,4.644,5.423,9.173,5.126,14.851-.254,6.023-4.46,10.439-9.221,13.952-1.468,1.125-3.124,2.234-4.919,3.263-18.802,10.876-49.285,10.876-68.091,0-1.791-1.029-3.447-2.138-4.871-3.263-4.757-3.514-8.941-7.929-9.287-13.952-.275-5.678,1.586-10.206,5.148-14.851"/>
  <path class="uuid-32466005-baf9-411e-9032-2c0fd15006e6" d="M249.435,192.532c-9.286,5.357-16.758,18.415-16.758,29.126s7.473,15.033,16.758,9.677c9.309-5.357,16.852-18.367,16.852-29.078s-7.543-15.078-16.852-9.725Z"/>
  <path class="uuid-32466005-baf9-411e-9032-2c0fd15006e6" d="M264.907,181.432c-3.057-1.082-5.725-.968-8.782-.276-3.448.872-6.229,2.344-9.147,4.32-3.036,2.186-5.567,4.486-8.024,7.264-2.944,3.403-5.288,6.785-7.426,10.714-2.461,4.644-4.254,9.125-5.401,14.277-1.059,4.963-1.31,9.769-.184,14.757.872,3.102,2.09,5.563,4.434,7.745-5.559-3.171-9.629-9.286-10.825-15.515-3.285-16.62,13.334-34.16,27.011-42.781,4.021-2.575,9.725-4.481,14.253-2.896"/>
  <polyline class="uuid-32466005-baf9-411e-9032-2c0fd15006e6" points="260.768 191.061 261.022 191.153 261.089 191.223"/>
  <path class="uuid-32466005-baf9-411e-9032-2c0fd15006e6" d="M261.089,191.223c.117.044.162.114.275.162.096.044.254.161.395.275.412.206.802.552,1.195.99.158.088.321.249.482.482.228.228.391.435.552.714q.045.044.045.114c.117.044.183.092.231.206.044.113.114.161.158.275.048.114.118.229.162.321.114.114.161.275.205.389.276.556.556,1.151.736,1.749.096.275.162.552.21.827.044.162.114.325.114.483q.044.07.044.118"/>
  <path class="uuid-32466005-baf9-411e-9032-2c0fd15006e6" d="M256.54,190.28c1.215,2.3,1.608,5.082,1.538,7.771-.114,3.724-.92,6.943-2.23,10.435-1.424,3.61-3.171,6.715-5.471,9.839-1.861,2.413-3.771,4.414-6.115,6.277-2.734,2.138-5.629,3.723-9.125,4.231-.345.044-.6.044-.942.044"/>
  <line class="uuid-28ebc42e-bff6-45aa-abb7-fbae3ae8291a" x1="179.116" y1="253.403" x2="158.794" y2="262.853"/>
  <line class="uuid-28ebc42e-bff6-45aa-abb7-fbae3ae8291a" x1="259.713" y1="253.014" x2="294.424" y2="269.196"/>
  <path class="uuid-32466005-baf9-411e-9032-2c0fd15006e6" d="M200.427,329.309c15.468,5.585,37.537,4.047,49.307-4.757"/>
  <line class="uuid-28ebc42e-bff6-45aa-abb7-fbae3ae8291a" x1="259.226" y1="253.566" x2="258.516" y2="282.048"/>
  <line class="uuid-28ebc42e-bff6-45aa-abb7-fbae3ae8291a" x1="154.152" y1="375.698" x2="148.912" y2="374.136"/>
  <path class="uuid-32466005-baf9-411e-9032-2c0fd15006e6" d="M148.912,374.136c0-13.563-.942-19.078,6.365-31.261"/>
  <path class="uuid-32466005-baf9-411e-9032-2c0fd15006e6" d="M295.778,338.92c3.679,6.068,6.299,12.253,6.46,19.467"/>
  <path class="uuid-32466005-baf9-411e-9032-2c0fd15006e6" d="M265.184,223.888v.07"/>
  <line class="uuid-28ebc42e-bff6-45aa-abb7-fbae3ae8291a" x1="265.184" y1="223.958" x2="264.632" y2="241.773"/>
  <line class="uuid-28ebc42e-bff6-45aa-abb7-fbae3ae8291a" x1="173.876" y1="241.773" x2="171.138" y2="147.224"/>
  <line class="uuid-28ebc42e-bff6-45aa-abb7-fbae3ae8291a" x1="267.414" y1="146.743" x2="266.401" y2="182.142"/>
  <line class="uuid-28ebc42e-bff6-45aa-abb7-fbae3ae8291a" x1="219.228" y1="75.411" x2="262.288" y2="131.822"/>
  <line class="uuid-28ebc42e-bff6-45aa-abb7-fbae3ae8291a" x1="176.172" y1="131.822" x2="219.228" y2="75.411"/>
  <line class="uuid-28ebc42e-bff6-45aa-abb7-fbae3ae8291a" x1="260.816" y1="179.04" x2="264.907" y2="181.432"/>
  <line class="uuid-bb23fad8-d0d7-412f-93d7-3b6d240ea83e" x1="199.827" y1="298.944" x2="158.357" y2="370.732"/>
  <line class="uuid-bb23fad8-d0d7-412f-93d7-3b6d240ea83e" x1="293.985" y1="269.866" x2="277.112" y2="299.149"/>
  <line class="uuid-bb23fad8-d0d7-412f-93d7-3b6d240ea83e" x1="274.536" y1="261.06" x2="261.251" y2="284.067"/>
  <line class="uuid-bb23fad8-d0d7-412f-93d7-3b6d240ea83e" x1="290.652" y1="345.767" x2="282.995" y2="359.035"/>
  <line class="uuid-bb23fad8-d0d7-412f-93d7-3b6d240ea83e" x1="277.965" y1="325.262" x2="266.401" y2="345.311"/>
  <line class="uuid-bb23fad8-d0d7-412f-93d7-3b6d240ea83e" x1="265.022" y1="305.221" x2="251.206" y2="329.147"/>
  <line class="uuid-bb23fad8-d0d7-412f-93d7-3b6d240ea83e" x1="180.382" y1="257.013" x2="161.966" y2="288.873"/>
  <line class="uuid-bb23fad8-d0d7-412f-93d7-3b6d240ea83e" x1="248.196" y1="307.84" x2="235.781" y2="329.309"/>
  <line class="uuid-bb23fad8-d0d7-412f-93d7-3b6d240ea83e" x1="256.931" y1="271.381" x2="253.825" y2="276.805"/>
  <line class="uuid-bb23fad8-d0d7-412f-93d7-3b6d240ea83e" x1="248.63" y1="285.75" x2="221.895" y2="332.091"/>
  <line class="uuid-bb23fad8-d0d7-412f-93d7-3b6d240ea83e" x1="251.043" y1="260.346" x2="209.551" y2="332.275"/>
  <line class="uuid-bb23fad8-d0d7-412f-93d7-3b6d240ea83e" x1="235.619" y1="265.818" x2="201.255" y2="325.38"/>
  <line class="uuid-bb23fad8-d0d7-412f-93d7-3b6d240ea83e" x1="222.058" y1="268.003" x2="201.688" y2="303.354"/>
  <line class="uuid-bb23fad8-d0d7-412f-93d7-3b6d240ea83e" x1="209.714" y1="268.162" x2="201.413" y2="282.529"/>
  <line class="uuid-bb23fad8-d0d7-412f-93d7-3b6d240ea83e" x1="198.955" y1="265.586" x2="184.152" y2="291.173"/>
  <line class="uuid-bb23fad8-d0d7-412f-93d7-3b6d240ea83e" x1="188.634" y1="262.209" x2="183.877" y2="270.51"/>
  <line class="uuid-bb23fad8-d0d7-412f-93d7-3b6d240ea83e" x1="263.712" y1="135.594" x2="246.172" y2="165.982"/>
  <line class="uuid-bb23fad8-d0d7-412f-93d7-3b6d240ea83e" x1="257.158" y1="125.708" x2="231.253" y2="170.559"/>
  <line class="uuid-bb23fad8-d0d7-412f-93d7-3b6d240ea83e" x1="250.377" y1="116.193" x2="218.194" y2="171.982"/>
  <line class="uuid-bb23fad8-d0d7-412f-93d7-3b6d240ea83e" x1="243.549" y1="106.744" x2="206.288" y2="171.383"/>
  <line class="uuid-bb23fad8-d0d7-412f-93d7-3b6d240ea83e" x1="236.702" y1="97.388" x2="195.301" y2="169.132"/>
  <line class="uuid-bb23fad8-d0d7-412f-93d7-3b6d240ea83e" x1="229.829" y1="88.053" x2="185.345" y2="165.11"/>
  <line class="uuid-bb23fad8-d0d7-412f-93d7-3b6d240ea83e" x1="222.886" y1="78.815" x2="176.658" y2="158.925"/>
  <line class="uuid-bb23fad8-d0d7-412f-93d7-3b6d240ea83e" x1="190.716" y1="113.293" x2="172.61" y2="144.605"/>
  <line class="uuid-bb23fad8-d0d7-412f-93d7-3b6d240ea83e" x1="235.781" y1="241.384" x2="226.885" y2="225.978"/>
  <line class="uuid-bb23fad8-d0d7-412f-93d7-3b6d240ea83e" x1="246.882" y1="239.315" x2="244.469" y2="235.155"/>
  <line class="uuid-bb23fad8-d0d7-412f-93d7-3b6d240ea83e" x1="232.011" y1="213.568" x2="230.262" y2="210.554"/>
  <line class="uuid-bb23fad8-d0d7-412f-93d7-3b6d240ea83e" x1="255.503" y1="233.083" x2="253.987" y2="230.392"/>
  <line class="uuid-bb23fad8-d0d7-412f-93d7-3b6d240ea83e" x1="237.482" y1="201.82" x2="236.102" y2="199.475"/>
  <line class="uuid-bb23fad8-d0d7-412f-93d7-3b6d240ea83e" x1="262.721" y1="224.278" x2="261.412" y2="222.096"/>
  <line class="uuid-bb23fad8-d0d7-412f-93d7-3b6d240ea83e" x1="244.906" y1="193.453" x2="243.39" y2="190.788"/>
  <line class="uuid-bb23fad8-d0d7-412f-93d7-3b6d240ea83e" x1="268.631" y1="213.291" x2="266.927" y2="210.347"/>
  <line class="uuid-bb23fad8-d0d7-412f-93d7-3b6d240ea83e" x1="254.425" y1="188.716" x2="252.056" y2="184.555"/>
  <line class="uuid-bb23fad8-d0d7-412f-93d7-3b6d240ea83e" x1="272.123" y1="198.052" x2="263.112" y2="182.418"/>
  <line class="uuid-bb23fad8-d0d7-412f-93d7-3b6d240ea83e" x1="258.678" y1="219.797" x2="253.506" y2="216.787"/>
  <line class="uuid-bb23fad8-d0d7-412f-93d7-3b6d240ea83e" x1="264.032" y1="198.372" x2="259.827" y2="195.984"/>
  <line class="uuid-bb23fad8-d0d7-412f-93d7-3b6d240ea83e" x1="250.058" y1="216.301" x2="241.573" y2="201.613"/>
  <line class="uuid-bb23fad8-d0d7-412f-93d7-3b6d240ea83e" x1="223.323" y1="227.177" x2="222.403" y2="227.725"/>
  <line class="uuid-bb23fad8-d0d7-412f-93d7-3b6d240ea83e" x1="225.229" y1="213.795" x2="221.366" y2="216.025"/>
  <line class="uuid-bb23fad8-d0d7-412f-93d7-3b6d240ea83e" x1="233.391" y1="196.856" x2="230.425" y2="198.533"/>
</svg>