<?xml version="1.0" encoding="UTF-8"?>
<svg id="uuid-e53ef7ac-968f-40ed-a59b-ee79ed259087" data-name="&amp;lt;Layer&amp;gt;" xmlns="http://www.w3.org/2000/svg" viewBox="0 0 451.11 451.11">
  <defs>
    <style>
      .uuid-4ef28c94-8522-4b5e-9469-844d4bede65f, .uuid-cc1acc72-2d2b-487e-a266-f001efa16574, .uuid-2bafeb1e-79ff-4ff9-854c-dacecbc57f7c, .uuid-93934a5f-d515-4736-b2e3-15894f93c4b1 {
        fill: none;
        stroke: #000;
        stroke-linecap: round;
      }

      .uuid-4ef28c94-8522-4b5e-9469-844d4bede65f, .uuid-2bafeb1e-79ff-4ff9-854c-dacecbc57f7c, .uuid-93934a5f-d515-4736-b2e3-15894f93c4b1 {
        stroke-linejoin: round;
      }

      .uuid-4ef28c94-8522-4b5e-9469-844d4bede65f, .uuid-93934a5f-d515-4736-b2e3-15894f93c4b1 {
        stroke-width: 4.117px;
      }

      .uuid-cc1acc72-2d2b-487e-a266-f001efa16574 {
        stroke-miterlimit: 10;
        stroke-width: 1.159px;
      }

      .uuid-2bafeb1e-79ff-4ff9-854c-dacecbc57f7c {
        stroke-width: 4.113px;
      }

      .uuid-2bafeb1e-79ff-4ff9-854c-dacecbc57f7c, .uuid-93934a5f-d515-4736-b2e3-15894f93c4b1 {
        fill-rule: evenodd;
      }
    </style>
  </defs>
  <g>
    <polyline class="uuid-93934a5f-d515-4736-b2e3-15894f93c4b1" points="191.49 243.103 168.994 256.076 133.547 276.57"/>
    <path class="uuid-93934a5f-d515-4736-b2e3-15894f93c4b1" d="M155.726,263.795c12.727,7.37,25.472,14.706,38.207,22.058"/>
    <path class="uuid-93934a5f-d515-4736-b2e3-15894f93c4b1" d="M262.063,80.975c2.288,1.436,3.08,4.099,3.08,6.668"/>
    <line class="uuid-4ef28c94-8522-4b5e-9469-844d4bede65f" x1="109.314" y1="256.271" x2="109.314" y2="177.609"/>
    <path class="uuid-93934a5f-d515-4736-b2e3-15894f93c4b1" d="M109.314,177.609c.846-6.857,3.897-14.382,10.284-17.829"/>
    <path class="uuid-93934a5f-d515-4736-b2e3-15894f93c4b1" d="M119.598,159.78l36.127-20.837M218.091,102.933l27.361-15.755M163.397,134.521l47.101-27.187"/>
    <path class="uuid-93934a5f-d515-4736-b2e3-15894f93c4b1" d="M111.536,273.201c-1.825-1.656-2.015-3.676-2.222-5.986"/>
    <path class="uuid-93934a5f-d515-4736-b2e3-15894f93c4b1" d="M93.876,258.272c.121,2.834.584,4.935,3.028,6.598"/>
    <line class="uuid-4ef28c94-8522-4b5e-9469-844d4bede65f" x1="96.904" y1="264.87" x2="112.1" y2="273.638"/>
    <path class="uuid-93934a5f-d515-4736-b2e3-15894f93c4b1" d="M119.598,273.127c-4.478,2.634-5.902,1.394-7.256.684"/>
    <path class="uuid-93934a5f-d515-4736-b2e3-15894f93c4b1" d="M226.985,247.062c-1.171.637-3.028.684-4.177,0-1.125-.636-1.125-1.737.048-2.395,1.149-.684,3.028-.684,4.176-.048,1.175.706,1.175,1.733-.047,2.443Z"/>
    <path class="uuid-93934a5f-d515-4736-b2e3-15894f93c4b1" d="M208.687,255.244c-1.101-.71-3.028-.71-4.176,0-1.175.685-1.175,1.734,0,2.392,1.099.684,3.005.684,4.176,0,1.173-.706,1.173-1.755,0-2.392Z"/>
    <path class="uuid-93934a5f-d515-4736-b2e3-15894f93c4b1" d="M158.732,284.043c-1.147-.632-3.006-.632-4.176.078-1.149.632-1.149,1.733-.052,2.365,1.151.688,3.006.637,4.18,0,1.169-.706,1.221-1.733.048-2.443Z"/>
    <path class="uuid-93934a5f-d515-4736-b2e3-15894f93c4b1" d="M199.919,241.127c-.125-.295-.173-.636-.221-.979"/>
    <path class="uuid-93934a5f-d515-4736-b2e3-15894f93c4b1" d="M199.698,242.297c.806.174,1.49.463,2.148.806-.953-.585-1.633-1.099-1.927-1.976"/>
    <line class="uuid-4ef28c94-8522-4b5e-9469-844d4bede65f" x1="207.516" y1="277.962" x2="170.067" y2="256.345"/>
    <path class="uuid-93934a5f-d515-4736-b2e3-15894f93c4b1" d="M171.753,298.628c-1.464.787-3.142,1.221-4.813,1.221"/>
    <line class="uuid-4ef28c94-8522-4b5e-9469-844d4bede65f" x1="166.94" y1="299.85" x2="166.355" y2="299.85"/>
    <path class="uuid-93934a5f-d515-4736-b2e3-15894f93c4b1" d="M166.355,299.85c-1.677,0-3.447-.431-4.938-1.221"/>
    <polyline class="uuid-93934a5f-d515-4736-b2e3-15894f93c4b1" points="161.417 298.628 138.101 285.144 133.547 282.531"/>
    <path class="uuid-93934a5f-d515-4736-b2e3-15894f93c4b1" d="M133.547,282.531c-1.171-.758-1.98-1.442-2.15-2.834"/>
    <polyline class="uuid-93934a5f-d515-4736-b2e3-15894f93c4b1" points="131.397 279.697 131.397 289.028 129.002 290.445 131.397 291.766 166.94 312.334 169.6 313.85 174.539 316.682 197.255 329.8"/>
    <path class="uuid-93934a5f-d515-4736-b2e3-15894f93c4b1" d="M197.255,329.8c.684.415,1.49.758,2.248,1.049.536.173,1.047.341,1.589.463.633.247,1.269.415,1.976.467.685.121,1.395.243,2.075.291,1.568.173,3.253.173,4.817,0,.463,0,.878-.048,1.291-.17,1.151-.173,2.248-.415,3.373-.805,1.075-.295,2.124-.758,3.127-1.295"/>
    <polyline class="uuid-93934a5f-d515-4736-b2e3-15894f93c4b1" points="217.752 329.8 231.381 321.908 245.72 313.676 253.88 308.963 253.928 308.913 261.526 304.493 267.855 300.903 267.925 300.903 270.073 299.607 273.422 297.628 299.682 282.479 308.622 277.302 314.023 274.226 316.245 272.954 338.352 260.179 343.58 257.151"/>
    <path class="uuid-93934a5f-d515-4736-b2e3-15894f93c4b1" d="M262.236,246.426c-12.749-7.358-25.486-14.722-38.231-22.084"/>
    <polyline class="uuid-93934a5f-d515-4736-b2e3-15894f93c4b1" points="230.406 220.629 234.07 218.554 235.045 217.969 237.658 216.453 238.368 216.037 259.793 203.675"/>
    <path class="uuid-93934a5f-d515-4736-b2e3-15894f93c4b1" d="M259.793,203.675c2.856-1.612,7.473-1.612,10.332,0"/>
    <line class="uuid-4ef28c94-8522-4b5e-9469-844d4bede65f" x1="270.125" y1="203.675" x2="297.995" y2="219.775"/>
    <path class="uuid-93934a5f-d515-4736-b2e3-15894f93c4b1" d="M297.995,219.775c1.395.806,2.15,1.907,2.15,2.956"/>
    <line class="uuid-4ef28c94-8522-4b5e-9469-844d4bede65f" x1="300.145" y1="222.731" x2="300.145" y2="224.931"/>
    <path class="uuid-93934a5f-d515-4736-b2e3-15894f93c4b1" d="M300.145,224.931c2.689-.81,5.986-.463,8.182.806"/>
    <line class="uuid-4ef28c94-8522-4b5e-9469-844d4bede65f" x1="308.328" y1="225.737" x2="336.202" y2="241.833"/>
    <path class="uuid-93934a5f-d515-4736-b2e3-15894f93c4b1" d="M336.202,241.833c1.391.806,2.15,1.907,2.15,2.954"/>
    <line class="uuid-4ef28c94-8522-4b5e-9469-844d4bede65f" x1="338.352" y1="244.787" x2="338.352" y2="254.145"/>
    <line class="uuid-4ef28c94-8522-4b5e-9469-844d4bede65f" x1="224.005" y1="224.341" x2="201.846" y2="237.12"/>
    <path class="uuid-93934a5f-d515-4736-b2e3-15894f93c4b1" d="M201.846,237.12c-1.416.832-2.148,1.927-2.148,3.028.048.343.096.684.221.979"/>
    <polyline class="uuid-93934a5f-d515-4736-b2e3-15894f93c4b1" points="201.846 243.103 206.365 245.719 206.417 245.719 229.722 259.178"/>
    <path class="uuid-93934a5f-d515-4736-b2e3-15894f93c4b1" d="M229.722,259.178c1.456.916,3.863,1.31,5.493,1.244"/>
    <line class="uuid-4ef28c94-8522-4b5e-9469-844d4bede65f" x1="235.215" y1="260.422" x2="235.508" y2="260.422"/>
    <path class="uuid-93934a5f-d515-4736-b2e3-15894f93c4b1" d="M235.508,260.422c.343,0,.637-.07,1.001-.122,1.223-.121,2.371-.463,3.543-1.121"/>
    <line class="uuid-4ef28c94-8522-4b5e-9469-844d4bede65f" x1="240.053" y1="259.178" x2="262.236" y2="246.426"/>
    <line class="uuid-4ef28c94-8522-4b5e-9469-844d4bede65f" x1="131.397" y1="289.028" x2="129.002" y2="290.445"/>
    <path class="uuid-93934a5f-d515-4736-b2e3-15894f93c4b1" d="M115.371,279.061c0-2.148,1.442-4.298,4.228-5.934"/>
    <line class="uuid-4ef28c94-8522-4b5e-9469-844d4bede65f" x1="119.598" y1="273.127" x2="254.855" y2="195.029"/>
    <path class="uuid-93934a5f-d515-4736-b2e3-15894f93c4b1" d="M254.855,195.029c5.619-3.249,14.853-3.249,20.546,0"/>
    <line class="uuid-4ef28c94-8522-4b5e-9469-844d4bede65f" x1="275.401" y1="195.029" x2="352.984" y2="239.854"/>
    <path class="uuid-93934a5f-d515-4736-b2e3-15894f93c4b1" d="M352.984,239.854c2.86,1.638,4.25,3.786,4.25,5.912"/>
    <line class="uuid-4ef28c94-8522-4b5e-9469-844d4bede65f" x1="352.984" y1="251.702" x2="343.58" y2="257.151"/>
    <path class="uuid-93934a5f-d515-4736-b2e3-15894f93c4b1" d="M237.658,216.453c-4.548,2.634-9.099,5.265-13.653,7.888"/>
    <line class="uuid-4ef28c94-8522-4b5e-9469-844d4bede65f" x1="237.658" y1="216.453" x2="238.368" y2="216.037"/>
    <line class="uuid-4ef28c94-8522-4b5e-9469-844d4bede65f" x1="237.658" y1="216.453" x2="259.793" y2="203.675"/>
    <path class="uuid-93934a5f-d515-4736-b2e3-15894f93c4b1" d="M276.913,218.186c1.173-.659,1.221-1.733.077-2.392-1.173-.662-3.031-.662-4.18,0-1.169.682-1.169,1.755-.074,2.444,1.175.632,3.032.632,4.177-.052Z"/>
    <line class="uuid-4ef28c94-8522-4b5e-9469-844d4bede65f" x1="237.658" y1="216.453" x2="275.817" y2="238.536"/>
    <path class="uuid-93934a5f-d515-4736-b2e3-15894f93c4b1" d="M201.846,243.103c-.658-.343-1.342-.632-2.148-.806"/>
    <polyline class="uuid-93934a5f-d515-4736-b2e3-15894f93c4b1" points="300.145 224.931 300.145 222.731 300.097 223.12 300.023 223.535 299.854 223.952 297.995 225.737"/>
    <line class="uuid-4ef28c94-8522-4b5e-9469-844d4bede65f" x1="229.722" y1="265.187" x2="217.848" y2="272.026"/>
    <line class="uuid-4ef28c94-8522-4b5e-9469-844d4bede65f" x1="233.651" y1="254.487" x2="240.69" y2="250.432"/>
    <line class="uuid-4ef28c94-8522-4b5e-9469-844d4bede65f" x1="209.96" y1="240.784" x2="216.995" y2="236.753"/>
    <line class="uuid-4ef28c94-8522-4b5e-9469-844d4bede65f" x1="259.083" y1="212.42" x2="266.118" y2="208.366"/>
    <line class="uuid-4ef28c94-8522-4b5e-9469-844d4bede65f" x1="282.778" y1="226.126" x2="289.813" y2="222.071"/>
    <path class="uuid-93934a5f-d515-4736-b2e3-15894f93c4b1" d="M229.722,259.178c1.39.831,2.123,1.879,2.123,2.98"/>
    <path class="uuid-93934a5f-d515-4736-b2e3-15894f93c4b1" d="M201.846,243.103c-.658-.343-1.342-.632-2.148-.806-2.686-.758-5.986-.463-8.208.806"/>
    <path class="uuid-93934a5f-d515-4736-b2e3-15894f93c4b1" d="M133.547,276.57c-1.465.806-2.15,1.905-2.15,3.006v.121c.17,1.391.979,2.075,2.15,2.834"/>
    <path class="uuid-93934a5f-d515-4736-b2e3-15894f93c4b1" d="M231.845,262.159c-.048.636-.217,1.147-.512,1.563"/>
    <path class="uuid-93934a5f-d515-4736-b2e3-15894f93c4b1" d="M229.722,265.187l-11.874,6.839-10.332,5.936M193.932,285.854l-22.179,12.775"/>
    <line class="uuid-4ef28c94-8522-4b5e-9469-844d4bede65f" x1="131.397" y1="279.697" x2="131.397" y2="291.766"/>
    <line class="uuid-4ef28c94-8522-4b5e-9469-844d4bede65f" x1="166.355" y1="299.85" x2="166.94" y2="299.85"/>
    <line class="uuid-4ef28c94-8522-4b5e-9469-844d4bede65f" x1="165.376" y1="293.915" x2="172.385" y2="289.86"/>
    <line class="uuid-4ef28c94-8522-4b5e-9469-844d4bede65f" x1="141.681" y1="280.235" x2="148.695" y2="276.181"/>
    <line class="uuid-4ef28c94-8522-4b5e-9469-844d4bede65f" x1="190.805" y1="251.849" x2="197.817" y2="247.82"/>
    <line class="uuid-4ef28c94-8522-4b5e-9469-844d4bede65f" x1="214.478" y1="265.55" x2="221.512" y2="261.499"/>
    <path class="uuid-93934a5f-d515-4736-b2e3-15894f93c4b1" d="M338.134,245.888c-.544.89-1.041,1.365-1.931,1.931l-4.396,2.539-15.984,9.195"/>
    <line class="uuid-4ef28c94-8522-4b5e-9469-844d4bede65f" x1="297.787" y1="269.962" x2="278.259" y2="281.257"/>
    <path class="uuid-93934a5f-d515-4736-b2e3-15894f93c4b1" d="M278.259,281.257c-1.564.81-3.079,1.153-4.838,1.221"/>
    <polyline class="uuid-93934a5f-d515-4736-b2e3-15894f93c4b1" points="267.925 281.257 251.901 272.026 240.053 265.187"/>
    <path class="uuid-93934a5f-d515-4736-b2e3-15894f93c4b1" d="M237.905,262.159c0-1.101.755-2.149,2.148-2.98"/>
    <path class="uuid-93934a5f-d515-4736-b2e3-15894f93c4b1" d="M240.053,259.178l22.106-12.779M275.817,238.536l17.757-10.236,4.422-2.564"/>
    <path class="uuid-93934a5f-d515-4736-b2e3-15894f93c4b1" d="M297.995,225.737c.637-.343,1.343-.637,2.15-.806,2.689-.81,5.986-.463,8.182.806"/>
    <path class="uuid-93934a5f-d515-4736-b2e3-15894f93c4b1" d="M315.12,240.269c1.173-.684,1.221-1.759.073-2.443-1.169-.658-3.028-.632-4.176.048-1.173.662-1.173,1.737-.074,2.395,1.171.659,3.028.659,4.177,0Z"/>
    <path class="uuid-93934a5f-d515-4736-b2e3-15894f93c4b1" d="M265.191,269.094c-1.149.684-3.032.684-4.177.026-1.173-.659-1.099-1.737.048-2.417,1.173-.663,3.028-.685,4.175-.026,1.127.684,1.127,1.759-.047,2.417Z"/>
    <polygon class="uuid-93934a5f-d515-4736-b2e3-15894f93c4b1" points="314.023 260.594 300.392 268.46 262.159 246.4 275.817 238.536 314.023 260.594"/>
    <line class="uuid-4ef28c94-8522-4b5e-9469-844d4bede65f" x1="267.925" y1="300.903" x2="267.855" y2="300.903"/>
    <line class="uuid-4ef28c94-8522-4b5e-9469-844d4bede65f" x1="256.129" y1="294.11" x2="256.077" y2="294.11"/>
    <path class="uuid-93934a5f-d515-4736-b2e3-15894f93c4b1" d="M237.905,262.159c-.088,1.807.916,2.258,2.148,3.028"/>
    <line class="uuid-4ef28c94-8522-4b5e-9469-844d4bede65f" x1="338.352" y1="244.787" x2="338.352" y2="260.179"/>
    <line class="uuid-4ef28c94-8522-4b5e-9469-844d4bede65f" x1="313.851" y1="280.334" x2="313.899" y2="280.334"/>
    <path class="uuid-93934a5f-d515-4736-b2e3-15894f93c4b1" d="M267.925,281.257c.394.174.736.346,1.147.515.074,0,.125.074.247.074.122.048.221.121.343.121.758.222,1.513.391,2.321.443.464.069.928.069,1.44.069"/>
    <line class="uuid-4ef28c94-8522-4b5e-9469-844d4bede65f" x1="273.422" y1="282.479" x2="273.422" y2="297.628"/>
    <line class="uuid-4ef28c94-8522-4b5e-9469-844d4bede65f" x1="314.023" y1="274.226" x2="314.023" y2="260.594"/>
    <line class="uuid-4ef28c94-8522-4b5e-9469-844d4bede65f" x1="299.682" y1="271.217" x2="299.682" y2="282.479"/>
    <line class="uuid-4ef28c94-8522-4b5e-9469-844d4bede65f" x1="308.622" y1="283.411" x2="308.622" y2="283.363"/>
    <line class="uuid-4ef28c94-8522-4b5e-9469-844d4bede65f" x1="271.858" y1="276.544" x2="278.893" y2="272.489"/>
    <line class="uuid-4ef28c94-8522-4b5e-9469-844d4bede65f" x1="248.163" y1="262.865" x2="255.198" y2="258.81"/>
    <line class="uuid-4ef28c94-8522-4b5e-9469-844d4bede65f" x1="297.316" y1="234.479" x2="304.325" y2="230.428"/>
    <line class="uuid-4ef28c94-8522-4b5e-9469-844d4bede65f" x1="321.006" y1="248.162" x2="328.02" y2="244.103"/>
    <line class="uuid-4ef28c94-8522-4b5e-9469-844d4bede65f" x1="224.54" y1="287.759" x2="245.72" y2="300.019"/>
    <path class="uuid-93934a5f-d515-4736-b2e3-15894f93c4b1" d="M270.073,284.215c0-1.099-.754-2.148-2.148-2.958"/>
    <path class="uuid-93934a5f-d515-4736-b2e3-15894f93c4b1" d="M240.053,265.187c-1.442-.906-3.167-1.163-4.838-1.295-1.771,0-3.981.309-5.493,1.295"/>
    <path class="uuid-93934a5f-d515-4736-b2e3-15894f93c4b1" d="M171.753,298.628c-1.395.806-2.153,1.905-2.153,2.954"/>
    <path class="uuid-93934a5f-d515-4736-b2e3-15894f93c4b1" d="M205.143,321.908c2.583-.254,2.627-.313,4.817-1.223l35.77-20.645"/>
    <path class="uuid-93934a5f-d515-4736-b2e3-15894f93c4b1" d="M231.381,308.327c.295-.173.537-.295.784-.463"/>
    <line class="uuid-4ef28c94-8522-4b5e-9469-844d4bede65f" x1="232.165" y1="307.864" x2="210.961" y2="295.674"/>
    <path class="uuid-93934a5f-d515-4736-b2e3-15894f93c4b1" d="M246.845,279.697c1.147-.684,1.221-1.757.048-2.417-1.173-.662-3.006-.662-4.176.022-1.175.659-1.223,1.759-.052,2.395,1.151.685,3.006.659,4.18,0Z"/>
    <path class="uuid-93934a5f-d515-4736-b2e3-15894f93c4b1" d="M196.886,308.544c-1.143.662-3.076.662-4.176,0-1.149-.654-1.149-1.733.052-2.417,1.169-.659,3.027-.681,4.198-.022,1.099.684,1.099,1.759-.074,2.439Z"/>
    <polyline class="uuid-93934a5f-d515-4736-b2e3-15894f93c4b1" points="224.54 287.759 207.516 277.962 193.932 285.854 210.961 295.674"/>
    <line class="uuid-4ef28c94-8522-4b5e-9469-844d4bede65f" x1="169.6" y1="313.85" x2="169.6" y2="301.583"/>
    <path class="uuid-93934a5f-d515-4736-b2e3-15894f93c4b1" d="M169.6,301.583c.052.758.295,1.299.637,1.737.415.463.927.879,1.516,1.295"/>
    <polyline class="uuid-93934a5f-d515-4736-b2e3-15894f93c4b1" points="245.72 300.019 256.077 294.11 256.129 294.11 267.925 287.244"/>
    <path class="uuid-93934a5f-d515-4736-b2e3-15894f93c4b1" d="M267.925,287.244c1.21-.861,1.968-1.42,2.148-3.028"/>
    <line class="uuid-4ef28c94-8522-4b5e-9469-844d4bede65f" x1="270.073" y1="284.215" x2="270.073" y2="299.607"/>
    <path class="uuid-93934a5f-d515-4736-b2e3-15894f93c4b1" d="M171.753,304.615l11.847,6.839,16.024,9.231c2.27.939,2.944,1.223,5.519,1.223v10.162"/>
    <line class="uuid-4ef28c94-8522-4b5e-9469-844d4bede65f" x1="231.381" y1="321.908" x2="231.381" y2="308.327"/>
    <line class="uuid-4ef28c94-8522-4b5e-9469-844d4bede65f" x1="245.72" y1="300.019" x2="245.72" y2="313.676"/>
    <line class="uuid-4ef28c94-8522-4b5e-9469-844d4bede65f" x1="203.583" y1="315.972" x2="210.618" y2="311.917"/>
    <line class="uuid-4ef28c94-8522-4b5e-9469-844d4bede65f" x1="179.888" y1="302.293" x2="186.923" y2="298.238"/>
    <line class="uuid-4ef28c94-8522-4b5e-9469-844d4bede65f" x1="229.011" y1="273.907" x2="236.046" y2="269.878"/>
    <line class="uuid-4ef28c94-8522-4b5e-9469-844d4bede65f" x1="252.707" y1="287.612" x2="259.716" y2="283.531"/>
    <line class="uuid-4ef28c94-8522-4b5e-9469-844d4bede65f" x1="263.748" y1="321.153" x2="217.752" y2="347.707"/>
    <path class="uuid-93934a5f-d515-4736-b2e3-15894f93c4b1" d="M217.752,347.707c-5.986,3.245-14.51,3.245-20.497,0"/>
    <line class="uuid-4ef28c94-8522-4b5e-9469-844d4bede65f" x1="197.255" y1="347.707" x2="119.598" y2="302.882"/>
    <path class="uuid-93934a5f-d515-4736-b2e3-15894f93c4b1" d="M119.598,302.882c-2.37-1.542-4.007-2.984-4.228-5.94"/>
    <line class="uuid-4ef28c94-8522-4b5e-9469-844d4bede65f" x1="115.371" y1="296.942" x2="115.371" y2="279.061"/>
    <path class="uuid-93934a5f-d515-4736-b2e3-15894f93c4b1" d="M115.371,279.061c.051.563.173,1.149.269,1.612q.073.073.073.121c.126.343.294.71.467,1.053.754,1.269,1.903,2.196,3.419,3.127"/>
    <polyline class="uuid-93934a5f-d515-4736-b2e3-15894f93c4b1" points="119.598 284.974 129.002 290.445 131.397 291.766 166.94 312.334 169.6 313.85 174.539 316.682 197.255 329.8"/>
    <path class="uuid-93934a5f-d515-4736-b2e3-15894f93c4b1" d="M217.752,329.8l13.629-7.892,14.339-8.232,8.208-4.764M316.245,272.954l22.106-12.775,5.228-3.028,9.404-5.449M261.526,304.493l6.329-3.59h.07l2.148-1.295,3.349-1.979,26.26-15.149,8.941-5.176"/>
    <path class="uuid-93934a5f-d515-4736-b2e3-15894f93c4b1" d="M352.984,251.702c2.414-1.704,3.995-2.819,4.25-5.936"/>
    <line class="uuid-4ef28c94-8522-4b5e-9469-844d4bede65f" x1="357.234" y1="245.766" x2="357.234" y2="263.675"/>
    <path class="uuid-93934a5f-d515-4736-b2e3-15894f93c4b1" d="M357.234,263.675c-.243,2.954-1.855,4.396-4.25,5.909"/>
    <line class="uuid-4ef28c94-8522-4b5e-9469-844d4bede65f" x1="352.984" y1="269.583" x2="330.805" y2="282.41"/>
    <line class="uuid-4ef28c94-8522-4b5e-9469-844d4bede65f" x1="265.143" y1="87.642" x2="265.143" y2="177.246"/>
    <path class="uuid-93934a5f-d515-4736-b2e3-15894f93c4b1" d="M265.143,177.246c0,6.57-4.669,14.534-10.288,17.783"/>
    <path class="uuid-93934a5f-d515-4736-b2e3-15894f93c4b1" d="M254.855,81.729c2.318-1.155,4.231-1.737,6.792-1.001"/>
    <polyline class="uuid-93934a5f-d515-4736-b2e3-15894f93c4b1" points="261.648 80.728 262.063 80.975 262.063 80.975"/>
    <polyline class="uuid-93934a5f-d515-4736-b2e3-15894f93c4b1" points="109.314 267.214 109.314 256.271 239.589 181.153"/>
    <path class="uuid-93934a5f-d515-4736-b2e3-15894f93c4b1" d="M239.589,181.153c3.418-2.222,5.692-6.107,5.862-10.162"/>
    <polyline class="uuid-93934a5f-d515-4736-b2e3-15894f93c4b1" points="245.451 170.991 245.451 87.178 254.855 81.729"/>
    <line class="uuid-4ef28c94-8522-4b5e-9469-844d4bede65f" x1="262.063" y1="80.975" x2="246.599" y2="72.082"/>
    <path class="uuid-93934a5f-d515-4736-b2e3-15894f93c4b1" d="M246.599,72.082c-2.66-1.269-4.687-.633-7.204.684"/>
    <line class="uuid-4ef28c94-8522-4b5e-9469-844d4bede65f" x1="239.395" y1="72.766" x2="217.164" y2="85.615"/>
    <line class="uuid-4ef28c94-8522-4b5e-9469-844d4bede65f" x1="150.085" y1="124.359" x2="104.086" y2="150.886"/>
    <path class="uuid-93934a5f-d515-4736-b2e3-15894f93c4b1" d="M104.086,150.886c-5.788,3.543-10.089,10.921-10.21,17.761"/>
    <line class="uuid-4ef28c94-8522-4b5e-9469-844d4bede65f" x1="93.876" y1="168.647" x2="93.876" y2="258.272"/>
    <line class="uuid-4ef28c94-8522-4b5e-9469-844d4bede65f" x1="155.726" y1="138.917" x2="150.085" y2="135.668"/>
    <path class="uuid-93934a5f-d515-4736-b2e3-15894f93c4b1" d="M150.085,135.668c0-2.2-.121-7.376,0-11.309,0-1.686.122-3.202.244-4.129.979-6.155,5.106-13.19,11.604-16.734"/>
    <line class="uuid-4ef28c94-8522-4b5e-9469-844d4bede65f" x1="161.933" y1="103.496" x2="202.704" y2="80.048"/>
    <path class="uuid-2bafeb1e-79ff-4ff9-854c-dacecbc57f7c" d="M202.704,80.048c2.866-1.317,7.727.03,11.078,2.186,3.506,2.255,4.308,5.353,4.308,9.279v11.42l-7.593,4.402v-11.704"/>
    <line class="uuid-4ef28c94-8522-4b5e-9469-844d4bede65f" x1="166.646" y1="107.282" x2="207.245" y2="83.882"/>
    <path class="uuid-93934a5f-d515-4736-b2e3-15894f93c4b1" d="M207.245,83.882c2.314-1.402,5.096-2.12,7.601-.758"/>
    <polyline class="uuid-93934a5f-d515-4736-b2e3-15894f93c4b1" points="205.143 93.92 205.143 104.254 210.497 107.334"/>
    <polyline class="uuid-93934a5f-d515-4736-b2e3-15894f93c4b1" points="163.397 122.821 163.397 134.521 155.726 138.943 155.726 126.118"/>
    <path class="uuid-93934a5f-d515-4736-b2e3-15894f93c4b1" d="M155.726,126.118c0-7.889,3.664-14.66,10.872-18.809"/>
    <path class="uuid-93934a5f-d515-4736-b2e3-15894f93c4b1" d="M210.497,95.63c0-2.661-1.933-3.76-4.203-2.418"/>
    <line class="uuid-4ef28c94-8522-4b5e-9469-844d4bede65f" x1="206.294" y1="93.212" x2="167.576" y2="115.565"/>
    <path class="uuid-93934a5f-d515-4736-b2e3-15894f93c4b1" d="M167.576,115.565c-2.321,1.342-4.18,4.591-4.18,7.256"/>
    <line class="uuid-4ef28c94-8522-4b5e-9469-844d4bede65f" x1="286.737" y1="315.336" x2="327.335" y2="291.888"/>
    <path class="uuid-93934a5f-d515-4736-b2e3-15894f93c4b1" d="M331.806,285.607c0,4.717.684,9.187-3.444,12.093"/>
    <line class="uuid-4ef28c94-8522-4b5e-9469-844d4bede65f" x1="328.362" y1="297.7" x2="287.665" y2="321.275"/>
    <path class="uuid-93934a5f-d515-4736-b2e3-15894f93c4b1" d="M287.665,321.275c-6.329,3.882-14.413,3.955-20.277,1.685-.854-.367-2.149-.979-3.64-1.807-3.492-1.906-7.962-4.643-9.867-5.742"/>
    <line class="uuid-4ef28c94-8522-4b5e-9469-844d4bede65f" x1="253.88" y1="315.41" x2="253.88" y2="308.963"/>
    <path class="uuid-93934a5f-d515-4736-b2e3-15894f93c4b1" d="M320.348,284.923c-.17-.633-.685-1.221-1.564-1.733"/>
    <polyline class="uuid-93934a5f-d515-4736-b2e3-15894f93c4b1" points="308.622 277.302 308.622 283.531 317.563 288.687"/>
    <path class="uuid-93934a5f-d515-4736-b2e3-15894f93c4b1" d="M331.806,285.607c0,.71-.122,1.346-.463,2.031-.126.316-.247.584-.417.879-.121.291-.293.511-.515.754-.706.931-1.757,1.859-3.075,2.617"/>
    <path class="uuid-93934a5f-d515-4736-b2e3-15894f93c4b1" d="M286.737,315.336c-5.475,3.153-11.263,3.786-16.734,2.152-1.736-.463-3.422-1.221-5.033-2.152"/>
    <polyline class="uuid-93934a5f-d515-4736-b2e3-15894f93c4b1" points="264.97 315.336 259.083 311.991 253.928 308.913 261.526 304.493 271.689 310.355"/>
    <path class="uuid-93934a5f-d515-4736-b2e3-15894f93c4b1" d="M271.689,310.355c2.27,1.342,6.055,1.342,8.351,0"/>
    <polyline class="uuid-93934a5f-d515-4736-b2e3-15894f93c4b1" points="280.04 310.355 317.563 288.687 318.785 288.002"/>
    <path class="uuid-93934a5f-d515-4736-b2e3-15894f93c4b1" d="M318.785,288.002c1.394-.828,1.979-1.979,1.564-3.079-.17-.633-.685-1.221-1.564-1.733"/>
    <polyline class="uuid-93934a5f-d515-4736-b2e3-15894f93c4b1" points="318.785 283.19 313.899 280.334 313.851 280.334 308.622 277.302 314.023 274.226 316.245 272.954 327.335 279.356"/>
    <path class="uuid-93934a5f-d515-4736-b2e3-15894f93c4b1" d="M327.335,279.356c1.563.854,2.712,1.953,3.47,3.054.632,1.049,1.001,2.174,1.001,3.197"/>
  </g>
  <line class="uuid-cc1acc72-2d2b-487e-a266-f001efa16574" x1="244.818" y1="129.219" x2="203.168" y2="201.356"/>
  <line class="uuid-cc1acc72-2d2b-487e-a266-f001efa16574" x1="242.375" y1="88.327" x2="162.813" y2="226.078"/>
  <line class="uuid-cc1acc72-2d2b-487e-a266-f001efa16574" x1="203.241" y1="110.874" x2="123.726" y2="248.626"/>
  <line class="uuid-cc1acc72-2d2b-487e-a266-f001efa16574" x1="163.276" y1="134.958" x2="109.682" y2="227.785"/>
  <line class="uuid-cc1acc72-2d2b-487e-a266-f001efa16574" x1="122.8" y1="159.853" x2="111.025" y2="180.274"/>
  <line class="uuid-cc1acc72-2d2b-487e-a266-f001efa16574" x1="239.052" y1="88.937" x2="233.018" y2="78.411"/>
  <line class="uuid-cc1acc72-2d2b-487e-a266-f001efa16574" x1="184.822" y1="120.182" x2="179.373" y2="110.726"/>
  <line class="uuid-cc1acc72-2d2b-487e-a266-f001efa16574" x1="204.389" y1="108.895" x2="198.918" y2="99.441"/>
  <line class="uuid-cc1acc72-2d2b-487e-a266-f001efa16574" x1="100.863" y1="264.966" x2="95.807" y2="256.245"/>
  <line class="uuid-cc1acc72-2d2b-487e-a266-f001efa16574" x1="107.702" y1="231.719" x2="95.561" y2="210.688"/>
  <line class="uuid-cc1acc72-2d2b-487e-a266-f001efa16574" x1="107.702" y1="186.503" x2="95.807" y2="165.861"/>
  <line class="uuid-cc1acc72-2d2b-487e-a266-f001efa16574" x1="117.814" y1="158.926" x2="111.757" y2="148.395"/>
  <line class="uuid-cc1acc72-2d2b-487e-a266-f001efa16574" x1="137.384" y1="147.613" x2="131.347" y2="137.111"/>
  <line class="uuid-cc1acc72-2d2b-487e-a266-f001efa16574" x1="124.899" y1="268.362" x2="116.522" y2="253.876"/>
  <line class="uuid-cc1acc72-2d2b-487e-a266-f001efa16574" x1="144.467" y1="257.051" x2="136.112" y2="242.591"/>
  <line class="uuid-cc1acc72-2d2b-487e-a266-f001efa16574" x1="163.982" y1="245.766" x2="155.656" y2="231.328"/>
  <line class="uuid-cc1acc72-2d2b-487e-a266-f001efa16574" x1="183.552" y1="234.479" x2="175.171" y2="220.019"/>
  <line class="uuid-cc1acc72-2d2b-487e-a266-f001efa16574" x1="203.12" y1="223.194" x2="194.742" y2="208.756"/>
  <line class="uuid-cc1acc72-2d2b-487e-a266-f001efa16574" x1="222.613" y1="211.887" x2="214.304" y2="197.471"/>
  <line class="uuid-cc1acc72-2d2b-487e-a266-f001efa16574" x1="242.18" y1="200.598" x2="233.898" y2="186.187"/>
  <line class="uuid-cc1acc72-2d2b-487e-a266-f001efa16574" x1="260.595" y1="187.382" x2="247.062" y2="163.93"/>
  <line class="uuid-cc1acc72-2d2b-487e-a266-f001efa16574" x1="263.675" y1="147.469" x2="247.014" y2="118.593"/>
  <line class="uuid-cc1acc72-2d2b-487e-a266-f001efa16574" x1="263.457" y1="101.958" x2="253.221" y2="84.272"/>
  <line class="uuid-cc1acc72-2d2b-487e-a266-f001efa16574" x1="288.08" y1="303.783" x2="282.682" y2="294.357"/>
  <line class="uuid-cc1acc72-2d2b-487e-a266-f001efa16574" x1="307.648" y1="292.498" x2="302.175" y2="283.042"/>
  <line class="uuid-cc1acc72-2d2b-487e-a266-f001efa16574" x1="285.295" y1="213.815" x2="272.858" y2="235.335"/>
  <line class="uuid-cc1acc72-2d2b-487e-a266-f001efa16574" x1="265.017" y1="203.847" x2="253.343" y2="224"/>
  <line class="uuid-cc1acc72-2d2b-487e-a266-f001efa16574" x1="244.28" y1="237.463" x2="232.017" y2="258.762"/>
  <line class="uuid-cc1acc72-2d2b-487e-a266-f001efa16574" x1="224.783" y1="226.174" x2="212.351" y2="247.673"/>
  <line class="uuid-cc1acc72-2d2b-487e-a266-f001efa16574" x1="323.427" y1="235.873" x2="311.017" y2="257.368"/>
  <line class="uuid-cc1acc72-2d2b-487e-a266-f001efa16574" x1="303.103" y1="225.905" x2="291.425" y2="246.035"/>
  <line class="uuid-cc1acc72-2d2b-487e-a266-f001efa16574" x1="282.73" y1="259.668" x2="270.54" y2="280.846"/>
  <line class="uuid-cc1acc72-2d2b-487e-a266-f001efa16574" x1="263.212" y1="248.357" x2="250.778" y2="269.852"/>
  <line class="uuid-cc1acc72-2d2b-487e-a266-f001efa16574" x1="255.198" y1="275.323" x2="242.764" y2="296.796"/>
  <line class="uuid-cc1acc72-2d2b-487e-a266-f001efa16574" x1="234.872" y1="265.308" x2="223.198" y2="285.485"/>
  <line class="uuid-cc1acc72-2d2b-487e-a266-f001efa16574" x1="240.395" y1="314.677" x2="240.395" y2="305.152"/>
  <line class="uuid-cc1acc72-2d2b-487e-a266-f001efa16574" x1="254.686" y1="306.4" x2="254.686" y2="296.968"/>
  <line class="uuid-cc1acc72-2d2b-487e-a266-f001efa16574" x1="265.945" y1="299.924" x2="265.945" y2="290.471"/>
  <line class="uuid-cc1acc72-2d2b-487e-a266-f001efa16574" x1="282.142" y1="290.545" x2="282.142" y2="281.089"/>
  <line class="uuid-cc1acc72-2d2b-487e-a266-f001efa16574" x1="293.404" y1="284.021" x2="293.404" y2="274.591"/>
  <line class="uuid-cc1acc72-2d2b-487e-a266-f001efa16574" x1="309.038" y1="274.984" x2="309.038" y2="265.576"/>
  <line class="uuid-cc1acc72-2d2b-487e-a266-f001efa16574" x1="322.839" y1="267.044" x2="322.839" y2="257.588"/>
  <line class="uuid-cc1acc72-2d2b-487e-a266-f001efa16574" x1="334.127" y1="260.52" x2="334.127" y2="251.116"/>
  <line class="uuid-cc1acc72-2d2b-487e-a266-f001efa16574" x1="342.431" y1="273.785" x2="336.372" y2="263.232"/>
  <line class="uuid-cc1acc72-2d2b-487e-a266-f001efa16574" x1="215.062" y1="329.09" x2="215.062" y2="319.833"/>
  <line class="uuid-cc1acc72-2d2b-487e-a266-f001efa16574" x1="226.347" y1="322.787" x2="226.347" y2="313.309"/>
  <line class="uuid-cc1acc72-2d2b-487e-a266-f001efa16574" x1="152.481" y1="319.881" x2="140.291" y2="298.797"/>
  <line class="uuid-cc1acc72-2d2b-487e-a266-f001efa16574" x1="191.562" y1="342.453" x2="179.424" y2="321.397"/>
  <line class="uuid-cc1acc72-2d2b-487e-a266-f001efa16574" x1="219.143" y1="345.044" x2="212.403" y2="333.39"/>
  <line class="uuid-cc1acc72-2d2b-487e-a266-f001efa16574" x1="238.659" y1="333.733" x2="232.554" y2="323.178"/>
  <line class="uuid-cc1acc72-2d2b-487e-a266-f001efa16574" x1="258.104" y1="322.201" x2="256.297" y2="319.149"/>
  <line class="uuid-cc1acc72-2d2b-487e-a266-f001efa16574" x1="214.21" y1="298.945" x2="201.946" y2="320.2"/>
  <line class="uuid-cc1acc72-2d2b-487e-a266-f001efa16574" x1="194.642" y1="287.66" x2="182.206" y2="309.181"/>
  <line class="uuid-cc1acc72-2d2b-487e-a266-f001efa16574" x1="176.224" y1="277.06" x2="163.982" y2="298.238"/>
  <line class="uuid-cc1acc72-2d2b-487e-a266-f001efa16574" x1="156.704" y1="265.749" x2="144.294" y2="287.244"/>
  <line class="uuid-cc1acc72-2d2b-487e-a266-f001efa16574" x1="217.042" y1="253.265" x2="204.632" y2="274.811"/>
  <line class="uuid-cc1acc72-2d2b-487e-a266-f001efa16574" x1="196.766" y1="243.275" x2="185.117" y2="263.476"/>
  <line class="uuid-cc1acc72-2d2b-487e-a266-f001efa16574" x1="133.768" y1="274.322" x2="130.639" y2="268.899"/>
  <line class="uuid-cc1acc72-2d2b-487e-a266-f001efa16574" x1="153.283" y1="263.037" x2="150.158" y2="257.614"/>
  <line class="uuid-cc1acc72-2d2b-487e-a266-f001efa16574" x1="172.853" y1="251.728" x2="169.726" y2="246.329"/>
  <line class="uuid-cc1acc72-2d2b-487e-a266-f001efa16574" x1="192.541" y1="240.638" x2="189.292" y2="235.041"/>
  <line class="uuid-cc1acc72-2d2b-487e-a266-f001efa16574" x1="211.935" y1="229.08" x2="208.859" y2="223.731"/>
  <line class="uuid-cc1acc72-2d2b-487e-a266-f001efa16574" x1="231.503" y1="217.87" x2="228.379" y2="212.446"/>
  <line class="uuid-cc1acc72-2d2b-487e-a266-f001efa16574" x1="251.069" y1="206.581" x2="247.942" y2="201.162"/>
  <line class="uuid-cc1acc72-2d2b-487e-a266-f001efa16574" x1="276.232" y1="205.022" x2="270.419" y2="194.981"/>
  <line class="uuid-cc1acc72-2d2b-487e-a266-f001efa16574" x1="315.413" y1="227.664" x2="308.964" y2="216.501"/>
  <line class="uuid-cc1acc72-2d2b-487e-a266-f001efa16574" x1="353.816" y1="249.041" x2="348.123" y2="239.174"/>
</svg>