<?xml version="1.0" encoding="UTF-8"?>
<svg id="uuid-63512008-03c4-4bd7-b177-41ab2d4fd3f6" data-name="&amp;lt;Layer&amp;gt;" xmlns="http://www.w3.org/2000/svg" viewBox="0 0 451.11 451.11">
  <defs>
    <style>
      .uuid-df73a8e1-9609-4cf6-b5a8-64c50aea3965, .uuid-89b06d41-318f-4380-b066-6dedc193b27d, .uuid-26647616-99df-4af1-8a80-7ae966fa3d7a, .uuid-f1458bc4-b8b1-40af-82c2-5f80142b3eb5, .uuid-bd170735-ca4b-4aba-92cf-cff603fd7f91, .uuid-034cb6be-8161-4906-99c9-2006571f1050 {
        fill: none;
        stroke: #000;
        stroke-linecap: round;
      }

      .uuid-df73a8e1-9609-4cf6-b5a8-64c50aea3965, .uuid-89b06d41-318f-4380-b066-6dedc193b27d, .uuid-bd170735-ca4b-4aba-92cf-cff603fd7f91, .uuid-034cb6be-8161-4906-99c9-2006571f1050 {
        stroke-linejoin: round;
      }

      .uuid-df73a8e1-9609-4cf6-b5a8-64c50aea3965, .uuid-034cb6be-8161-4906-99c9-2006571f1050 {
        stroke-width: 4.117px;
      }

      .uuid-89b06d41-318f-4380-b066-6dedc193b27d, .uuid-bd170735-ca4b-4aba-92cf-cff603fd7f91 {
        stroke-width: 4.113px;
      }

      .uuid-26647616-99df-4af1-8a80-7ae966fa3d7a {
        stroke-width: 1.163px;
      }

      .uuid-26647616-99df-4af1-8a80-7ae966fa3d7a, .uuid-f1458bc4-b8b1-40af-82c2-5f80142b3eb5 {
        stroke-miterlimit: 10;
      }

      .uuid-f1458bc4-b8b1-40af-82c2-5f80142b3eb5 {
        stroke-width: 1.159px;
      }

      .uuid-bd170735-ca4b-4aba-92cf-cff603fd7f91, .uuid-034cb6be-8161-4906-99c9-2006571f1050 {
        fill-rule: evenodd;
      }
    </style>
  </defs>
  <line class="uuid-df73a8e1-9609-4cf6-b5a8-64c50aea3965" x1="303.278" y1="222.61" x2="352.817" y2="251.166"/>
  <path class="uuid-034cb6be-8161-4906-99c9-2006571f1050" d="M352.817,251.166c3.592,2.104,5.398,4.838,5.398,7.549,0,.832-.17,1.638-.511,2.444-.836,2.218-2.873,3.937-4.887,5.102"/>
  <line class="uuid-df73a8e1-9609-4cf6-b5a8-64c50aea3965" x1="352.817" y1="266.261" x2="206.466" y2="350.762"/>
  <path class="uuid-034cb6be-8161-4906-99c9-2006571f1050" d="M206.466,350.762c-3.638,2.049-7.593,3.101-12.237,3.101"/>
  <line class="uuid-df73a8e1-9609-4cf6-b5a8-64c50aea3965" x1="180.402" y1="350.762" x2="110.027" y2="310.113"/>
  <path class="uuid-034cb6be-8161-4906-99c9-2006571f1050" d="M110.027,310.113c-2.705-1.458-5.351-4.32-5.351-7.55,0-2.712,1.807-5.398,5.351-7.473"/>
  <line class="uuid-df73a8e1-9609-4cf6-b5a8-64c50aea3965" x1="110.027" y1="295.09" x2="149.55" y2="272.248"/>
  <path class="uuid-034cb6be-8161-4906-99c9-2006571f1050" d="M295.265,227.252c16.196,9.357,32.341,18.689,48.537,27.993,2.613,1.516,2.859,3.886.417,5.276-19.982,11.557-39.893,23.063-59.874,34.568"/>
  <line class="uuid-df73a8e1-9609-4cf6-b5a8-64c50aea3965" x1="284.345" y1="295.09" x2="281.806" y2="293.626"/>
  <path class="uuid-034cb6be-8161-4906-99c9-2006571f1050" d="M281.806,293.626c3.418-9.702-3.371-21.599-19.224-30.782-5.108-2.954-10.747-5.35-16.561-7.208"/>
  <path class="uuid-034cb6be-8161-4906-99c9-2006571f1050" d="M186.509,287.249c3.297,4.003,8.062,7.889,14.096,11.381,15.854,9.161,36.47,13.046,53.252,11.093"/>
  <line class="uuid-df73a8e1-9609-4cf6-b5a8-64c50aea3965" x1="253.857" y1="309.722" x2="256.473" y2="311.208"/>
  <path class="uuid-034cb6be-8161-4906-99c9-2006571f1050" d="M256.473,311.208c-19.983,11.509-39.965,23.063-59.874,34.568-2.443,1.394-6.497,1.269-9.183-.243-22.647-13.121-45.412-26.19-68.106-39.307-2.615-1.512-2.784-3.881-.341-5.276,13.363-7.719,26.697-15.464,40.108-23.18"/>
  <path class="uuid-034cb6be-8161-4906-99c9-2006571f1050" d="M301.592,248.358c4.077-2.344,4.129-6.082.17-8.353-3.933-2.299-10.43-2.252-14.512.07-4.007,2.348-4.055,6.082-.122,8.379,3.959,2.273,10.41,2.248,14.464-.096Z"/>
  <path class="uuid-034cb6be-8161-4906-99c9-2006571f1050" d="M175.468,321.176c-4.004,2.348-10.505,2.37-14.461.1-3.959-2.296-3.907-6.034.122-8.379,4.055-2.321,10.553-2.343,14.512-.073,3.955,2.296,3.881,6.034-.173,8.351Z"/>
  <line class="uuid-df73a8e1-9609-4cf6-b5a8-64c50aea3965" x1="358.215" y1="258.715" x2="358.093" y2="270.589"/>
  <path class="uuid-034cb6be-8161-4906-99c9-2006571f1050" d="M358.093,270.589c-.463,2.954-2.834,5.056-5.276,6.52"/>
  <line class="uuid-df73a8e1-9609-4cf6-b5a8-64c50aea3965" x1="352.817" y1="277.109" x2="206.466" y2="361.605"/>
  <path class="uuid-034cb6be-8161-4906-99c9-2006571f1050" d="M206.466,361.605c-7.351,4.155-18.684,4.155-26.064,0"/>
  <line class="uuid-df73a8e1-9609-4cf6-b5a8-64c50aea3965" x1="180.402" y1="361.605" x2="108.732" y2="320.175"/>
  <path class="uuid-034cb6be-8161-4906-99c9-2006571f1050" d="M108.732,320.175c-2.248-1.659-4.007-3.833-4.103-6.74"/>
  <line class="uuid-df73a8e1-9609-4cf6-b5a8-64c50aea3965" x1="104.629" y1="313.434" x2="104.629" y2="302.588"/>
  <path class="uuid-034cb6be-8161-4906-99c9-2006571f1050" d="M180.402,350.736c3.885,2.2,8.893,3.249,13.827,3.127"/>
  <line class="uuid-df73a8e1-9609-4cf6-b5a8-64c50aea3965" x1="194.229" y1="353.863" x2="194.229" y2="364.707"/>
  <line class="uuid-df73a8e1-9609-4cf6-b5a8-64c50aea3965" x1="190.443" y1="338.862" x2="208.156" y2="328.628"/>
  <line class="uuid-df73a8e1-9609-4cf6-b5a8-64c50aea3965" x1="130.568" y1="304.299" x2="148.28" y2="294.063"/>
  <line class="uuid-df73a8e1-9609-4cf6-b5a8-64c50aea3965" x1="314.489" y1="267.214" x2="332.198" y2="257.004"/>
  <path class="uuid-034cb6be-8161-4906-99c9-2006571f1050" d="M236.662,299.365c4.492-2.543,8.89-5.108,13.655-7.72,3.37-1.905,6.913-3.885,10.747-5.912,2.615-1.39,2.564-3.421.051-4.886-3.299-1.975-7.476-4.35-11.604-6.792-1.685-.975-5.864-1.464-8.356,0-3.443,1.979-7.034,3.933-10.577,5.864-3.419,1.859-6.74,3.714-9.648,5.398-2.491,1.442-5.86,1.442-8.355,0-2.785-1.612-5.567-3.249-8.893-5.228"/>
  <path class="uuid-034cb6be-8161-4906-99c9-2006571f1050" d="M259.306,296.921c-3.006-1.733-6.008-3.517-8.989-5.276-6.62-3.933-13.168-7.844-19.74-11.726-4.42-2.563-8.768-5.154-13.19-7.719"/>
  <line class="uuid-f1458bc4-b8b1-40af-82c2-5f80142b3eb5" x1="205.443" y1="360.068" x2="205.443" y2="353.326"/>
  <line class="uuid-f1458bc4-b8b1-40af-82c2-5f80142b3eb5" x1="228.013" y1="347.024" x2="228.013" y2="340.5"/>
  <line class="uuid-f1458bc4-b8b1-40af-82c2-5f80142b3eb5" x1="250.612" y1="334.003" x2="250.612" y2="327.457"/>
  <line class="uuid-f1458bc4-b8b1-40af-82c2-5f80142b3eb5" x1="273.206" y1="320.955" x2="273.206" y2="314.409"/>
  <line class="uuid-f1458bc4-b8b1-40af-82c2-5f80142b3eb5" x1="295.776" y1="307.911" x2="295.776" y2="301.392"/>
  <line class="uuid-f1458bc4-b8b1-40af-82c2-5f80142b3eb5" x1="318.374" y1="294.891" x2="318.374" y2="288.345"/>
  <line class="uuid-f1458bc4-b8b1-40af-82c2-5f80142b3eb5" x1="340.922" y1="281.848" x2="340.922" y2="275.302"/>
  <line class="uuid-f1458bc4-b8b1-40af-82c2-5f80142b3eb5" x1="110.294" y1="318.859" x2="110.294" y2="312.408"/>
  <line class="uuid-f1458bc4-b8b1-40af-82c2-5f80142b3eb5" x1="121.579" y1="325.379" x2="121.579" y2="318.931"/>
  <line class="uuid-f1458bc4-b8b1-40af-82c2-5f80142b3eb5" x1="132.89" y1="331.927" x2="132.89" y2="325.451"/>
  <line class="uuid-f1458bc4-b8b1-40af-82c2-5f80142b3eb5" x1="144.153" y1="338.425" x2="144.153" y2="331.949"/>
  <line class="uuid-f1458bc4-b8b1-40af-82c2-5f80142b3eb5" x1="155.438" y1="344.971" x2="155.438" y2="338.495"/>
  <line class="uuid-f1458bc4-b8b1-40af-82c2-5f80142b3eb5" x1="166.747" y1="351.494" x2="166.747" y2="344.997"/>
  <line class="uuid-f1458bc4-b8b1-40af-82c2-5f80142b3eb5" x1="178.01" y1="358.014" x2="178.01" y2="351.542"/>
  <line class="uuid-f1458bc4-b8b1-40af-82c2-5f80142b3eb5" x1="189.295" y1="362.536" x2="189.295" y2="355.401"/>
  <line class="uuid-f1458bc4-b8b1-40af-82c2-5f80142b3eb5" x1="244.283" y1="312.066" x2="240.862" y2="317.979"/>
  <line class="uuid-f1458bc4-b8b1-40af-82c2-5f80142b3eb5" x1="220.709" y1="307.717" x2="201.193" y2="341.501"/>
  <line class="uuid-f1458bc4-b8b1-40af-82c2-5f80142b3eb5" x1="199.799" y1="298.754" x2="176.736" y2="338.694"/>
  <line class="uuid-f1458bc4-b8b1-40af-82c2-5f80142b3eb5" x1="179.648" y1="288.518" x2="167.406" y2="309.796"/>
  <line class="uuid-f1458bc4-b8b1-40af-82c2-5f80142b3eb5" x1="159.86" y1="322.788" x2="157.88" y2="326.235"/>
  <line class="uuid-f1458bc4-b8b1-40af-82c2-5f80142b3eb5" x1="158.734" y1="279.551" x2="137.729" y2="316.025"/>
  <line class="uuid-f1458bc4-b8b1-40af-82c2-5f80142b3eb5" x1="339.869" y1="254.952" x2="334.763" y2="263.818"/>
  <line class="uuid-f1458bc4-b8b1-40af-82c2-5f80142b3eb5" x1="320.987" y1="242.492" x2="294.97" y2="287.565"/>
  <line class="uuid-f1458bc4-b8b1-40af-82c2-5f80142b3eb5" x1="300.662" y1="232.551" x2="298.293" y2="236.73"/>
  <line class="uuid-f1458bc4-b8b1-40af-82c2-5f80142b3eb5" x1="290.109" y1="250.897" x2="277.335" y2="272.98"/>
  <line class="uuid-f1458bc4-b8b1-40af-82c2-5f80142b3eb5" x1="267.051" y1="245.624" x2="259.206" y2="259.278"/>
  <g>
    <path class="uuid-bd170735-ca4b-4aba-92cf-cff603fd7f91" d="M98.69,175.83l57.122-32.974M190.961,122.549l57.122-32.974"/>
    <path class="uuid-bd170735-ca4b-4aba-92cf-cff603fd7f91" d="M248.084,89.575c7.352-4.268,19.303-4.231,26.653.01"/>
    <line class="uuid-89b06d41-318f-4380-b066-6dedc193b27d" x1="274.737" y1="89.585" x2="346.581" y2="131.067"/>
    <path class="uuid-bd170735-ca4b-4aba-92cf-cff603fd7f91" d="M346.581,131.067c7.332,4.231,7.358,11.108.007,15.38"/>
    <path class="uuid-bd170735-ca4b-4aba-92cf-cff603fd7f91" d="M346.588,146.447l-57.141,32.963M254.298,199.717l-57.126,32.974"/>
    <path class="uuid-bd170735-ca4b-4aba-92cf-cff603fd7f91" d="M197.172,232.691c-7.33,4.235-19.301,4.231-26.631,0"/>
    <line class="uuid-89b06d41-318f-4380-b066-6dedc193b27d" x1="170.541" y1="232.691" x2="98.694" y2="191.21"/>
    <path class="uuid-bd170735-ca4b-4aba-92cf-cff603fd7f91" d="M98.694,191.21c-7.348-4.242-7.356-11.155-.004-15.38"/>
    <path class="uuid-bd170735-ca4b-4aba-92cf-cff603fd7f91" d="M225.088,182.806c-9.251-.652-18.71-3.249-26.43-7.709-7.701-4.444-12.182-9.897-13.315-15.24"/>
    <path class="uuid-bd170735-ca4b-4aba-92cf-cff603fd7f91" d="M274.821,170.966c1.078-9.177-6.037-19.728-20.383-28.011-14.405-8.316-32.633-12.396-48.502-11.76"/>
    <path class="uuid-bd170735-ca4b-4aba-92cf-cff603fd7f91" d="M280.005,173.958c19.273-11.112,38.572-22.261,57.826-33.379,2.457-1.395,2.274-3.848-.413-5.398-23.176-13.381-46.375-26.775-69.569-40.168-2.685-1.549-6.866-1.615-9.324-.225-19.254,11.124-38.553,22.272-57.825,33.383"/>
    <path class="uuid-bd170735-ca4b-4aba-92cf-cff603fd7f91" d="M260.251,162.555c-1.133-5.346-5.614-10.795-13.371-15.274-7.645-4.415-17.123-7.024-26.374-7.675"/>
    <path class="uuid-bd170735-ca4b-4aba-92cf-cff603fd7f91" d="M170.774,151.447c-1.061,9.187,6.055,19.736,20.402,28.019,14.346,8.286,32.577,12.366,48.483,11.752"/>
    <path class="uuid-bd170735-ca4b-4aba-92cf-cff603fd7f91" d="M165.589,148.456c-19.254,11.119-38.553,22.267-57.826,33.378-2.443,1.406-2.274,3.85.413,5.398,23.176,13.382,46.371,26.775,69.569,40.164,2.645,1.53,6.862,1.619,9.324.224,19.255-11.119,38.553-22.267,57.825-33.379"/>
    <path class="uuid-bd170735-ca4b-4aba-92cf-cff603fd7f91" d="M294.292,128.175c4.137-2.373,4.203-6.211.17-8.54-4.037-2.33-10.677-2.288-14.795.099-4.125,2.356-4.191,6.193-.136,8.533,4.033,2.329,10.655,2.278,14.761-.092Z"/>
    <path class="uuid-bd170735-ca4b-4aba-92cf-cff603fd7f91" d="M165.522,202.52c-4.124,2.358-10.747,2.41-14.779.08-4.037-2.329-3.971-6.167.136-8.536,4.139-2.377,10.758-2.425,14.813-.084,4.033,2.329,3.951,6.151-.17,8.54Z"/>
    <polyline class="uuid-bd170735-ca4b-4aba-92cf-cff603fd7f91" points="260.892 195.901 254.298 199.721 155.813 142.859 162.409 139.04 190.961 122.549 289.447 179.407 282.847 183.226"/>
    <line class="uuid-89b06d41-318f-4380-b066-6dedc193b27d" x1="162.409" y1="139.04" x2="260.895" y2="195.901"/>
    <line class="uuid-89b06d41-318f-4380-b066-6dedc193b27d" x1="184.365" y1="126.368" x2="282.847" y2="183.226"/>
    <path class="uuid-bd170735-ca4b-4aba-92cf-cff603fd7f91" d="M352,190.47c-.479,3.006-2.936,5.17-5.391,6.638"/>
    <path class="uuid-bd170735-ca4b-4aba-92cf-cff603fd7f91" d="M346.61,197.108l-63.759,36.819M260.895,246.599l-63.719,36.793M275.701,238.019l-7.649,4.44"/>
    <path class="uuid-bd170735-ca4b-4aba-92cf-cff603fd7f91" d="M197.176,283.392c-7.521,4.221-19.082,4.235-26.649-.01-8.004-4.57-71.881-41.08-74.236-43.204-1.837-1.603-3.006-3.514-3.117-5.971"/>
    <line class="uuid-89b06d41-318f-4380-b066-6dedc193b27d" x1="93.175" y1="234.207" x2="93.189" y2="183.516"/>
    <path class="uuid-bd170735-ca4b-4aba-92cf-cff603fd7f91" d="M93.189,183.516c.283,3.742,2.326,5.81,5.505,7.693"/>
    <path class="uuid-bd170735-ca4b-4aba-92cf-cff603fd7f91" d="M346.588,146.447c3.16-1.927,5.188-3.989,5.501-7.735"/>
    <line class="uuid-89b06d41-318f-4380-b066-6dedc193b27d" x1="352.088" y1="138.712" x2="352" y2="190.47"/>
    <path class="uuid-bd170735-ca4b-4aba-92cf-cff603fd7f91" d="M184.7,286.531c-4.927.066-9.839-.694-14.173-3.149"/>
    <line class="uuid-89b06d41-318f-4380-b066-6dedc193b27d" x1="170.527" y1="283.382" x2="98.698" y2="241.912"/>
    <path class="uuid-bd170735-ca4b-4aba-92cf-cff603fd7f91" d="M98.698,241.912c-2.911-1.803-5.369-4.085-5.523-7.705"/>
    <path class="uuid-bd170735-ca4b-4aba-92cf-cff603fd7f91" d="M170.541,232.691c4.352,2.465,9.18,3.253,14.155,3.187"/>
    <line class="uuid-89b06d41-318f-4380-b066-6dedc193b27d" x1="184.696" y1="235.878" x2="184.7" y2="286.531"/>
    <polyline class="uuid-bd170735-ca4b-4aba-92cf-cff603fd7f91" points="352.133 169.887 352.066 170.392 352.026 170.888"/>
    <path class="uuid-bd170735-ca4b-4aba-92cf-cff603fd7f91" d="M352.014,172.625c-.478,3.054-2.932,5.166-5.389,6.686"/>
    <line class="uuid-89b06d41-318f-4380-b066-6dedc193b27d" x1="346.625" y1="179.311" x2="289.411" y2="212.355"/>
    <line class="uuid-89b06d41-318f-4380-b066-6dedc193b27d" x1="252.447" y1="233.666" x2="197.208" y2="265.555"/>
    <path class="uuid-bd170735-ca4b-4aba-92cf-cff603fd7f91" d="M197.208,265.555c-3.56,2.068-8.042,3.032-12.513,3.168-5.088.173-10.174-.89-14.159-3.139"/>
    <line class="uuid-89b06d41-318f-4380-b066-6dedc193b27d" x1="170.537" y1="265.585" x2="98.672" y2="224.092"/>
    <path class="uuid-bd170735-ca4b-4aba-92cf-cff603fd7f91" d="M98.672,224.092c-3.109-1.92-5.162-3.965-5.483-7.685"/>
    <line class="uuid-89b06d41-318f-4380-b066-6dedc193b27d" x1="352.103" y1="149.802" x2="352.07" y2="149.86"/>
    <path class="uuid-bd170735-ca4b-4aba-92cf-cff603fd7f91" d="M352.074,157.138c-.299,3.676-2.326,5.74-5.469,7.628"/>
    <line class="uuid-89b06d41-318f-4380-b066-6dedc193b27d" x1="346.606" y1="164.767" x2="289.425" y2="197.755"/>
    <line class="uuid-89b06d41-318f-4380-b066-6dedc193b27d" x1="252.451" y1="219.132" x2="197.162" y2="251.066"/>
    <path class="uuid-bd170735-ca4b-4aba-92cf-cff603fd7f91" d="M197.162,251.066c-.704.409-1.41.692-2.132,1.041-1.994.802-3.716,1.263-5.768,1.656-1.219.184-2.366.339-3.569.409-.327.054-.68.025-.978.025-1.2.074-2.345.004-3.584-.069-3.819-.401-7.16-1.197-10.589-3.08"/>
    <line class="uuid-89b06d41-318f-4380-b066-6dedc193b27d" x1="170.541" y1="251.047" x2="98.712" y2="209.581"/>
    <line class="uuid-89b06d41-318f-4380-b066-6dedc193b27d" x1="289.447" y1="179.409" x2="289.447" y2="230.108"/>
    <path class="uuid-bd170735-ca4b-4aba-92cf-cff603fd7f91" d="M289.447,230.108c-20.366,11.762-16.616,9.584-36.992,21.366"/>
    <line class="uuid-89b06d41-318f-4380-b066-6dedc193b27d" x1="252.455" y1="251.474" x2="252.451" y2="200.776"/>
    <path class="uuid-bd170735-ca4b-4aba-92cf-cff603fd7f91" d="M252.451,200.776c20.368-11.766,16.627-9.603,36.996-21.366"/>
    <line class="uuid-89b06d41-318f-4380-b066-6dedc193b27d" x1="180.807" y1="220.552" x2="198.883" y2="210.107"/>
    <line class="uuid-89b06d41-318f-4380-b066-6dedc193b27d" x1="119.7" y1="185.271" x2="137.776" y2="174.825"/>
    <line class="uuid-89b06d41-318f-4380-b066-6dedc193b27d" x1="246.395" y1="112.125" x2="264.472" y2="101.676"/>
    <line class="uuid-89b06d41-318f-4380-b066-6dedc193b27d" x1="307.484" y1="147.396" x2="325.578" y2="136.957"/>
    <line class="uuid-89b06d41-318f-4380-b066-6dedc193b27d" x1="260.895" y1="246.599" x2="260.895" y2="195.901"/>
    <line class="uuid-89b06d41-318f-4380-b066-6dedc193b27d" x1="282.851" y1="233.927" x2="282.847" y2="183.226"/>
    <line class="uuid-26647616-99df-4af1-8a80-7ae966fa3d7a" x1="144.273" y1="218.416" x2="102.859" y2="242.316"/>
    <line class="uuid-26647616-99df-4af1-8a80-7ae966fa3d7a" x1="154.977" y1="223.625" x2="112.705" y2="248.001"/>
    <line class="uuid-26647616-99df-4af1-8a80-7ae966fa3d7a" x1="164.655" y1="229.453" x2="122.592" y2="253.707"/>
    <line class="uuid-26647616-99df-4af1-8a80-7ae966fa3d7a" x1="173.816" y1="235.557" x2="132.459" y2="259.403"/>
    <line class="uuid-26647616-99df-4af1-8a80-7ae966fa3d7a" x1="183.43" y1="241.423" x2="142.342" y2="265.11"/>
    <line class="uuid-26647616-99df-4af1-8a80-7ae966fa3d7a" x1="183.537" y1="252.75" x2="152.233" y2="270.82"/>
    <line class="uuid-26647616-99df-4af1-8a80-7ae966fa3d7a" x1="183.968" y1="263.918" x2="162.096" y2="276.515"/>
    <line class="uuid-26647616-99df-4af1-8a80-7ae966fa3d7a" x1="184.471" y1="275.025" x2="171.943" y2="282.249"/>
    <line class="uuid-26647616-99df-4af1-8a80-7ae966fa3d7a" x1="199.2" y1="231.418" x2="199.111" y2="280.339"/>
    <line class="uuid-26647616-99df-4af1-8a80-7ae966fa3d7a" x1="218.972" y1="220.001" x2="218.855" y2="268.929"/>
    <line class="uuid-26647616-99df-4af1-8a80-7ae966fa3d7a" x1="238.734" y1="208.603" x2="238.628" y2="257.511"/>
    <line class="uuid-26647616-99df-4af1-8a80-7ae966fa3d7a" x1="303.373" y1="171.283" x2="303.289" y2="220.203"/>
    <line class="uuid-26647616-99df-4af1-8a80-7ae966fa3d7a" x1="323.129" y1="159.858" x2="323.063" y2="208.786"/>
    <line class="uuid-26647616-99df-4af1-8a80-7ae966fa3d7a" x1="342.901" y1="148.44" x2="342.801" y2="197.38"/>
    <line class="uuid-26647616-99df-4af1-8a80-7ae966fa3d7a" x1="211.07" y1="124.013" x2="214.315" y2="129.639"/>
    <line class="uuid-26647616-99df-4af1-8a80-7ae966fa3d7a" x1="227.87" y1="113.645" x2="240.309" y2="135.144"/>
    <line class="uuid-26647616-99df-4af1-8a80-7ae966fa3d7a" x1="244.055" y1="102.158" x2="284.568" y2="172.298"/>
    <line class="uuid-26647616-99df-4af1-8a80-7ae966fa3d7a" x1="262.591" y1="94.719" x2="277.39" y2="120.341"/>
    <line class="uuid-26647616-99df-4af1-8a80-7ae966fa3d7a" x1="283.214" y1="130.519" x2="300.923" y2="161.153"/>
    <line class="uuid-26647616-99df-4af1-8a80-7ae966fa3d7a" x1="295.467" y1="112.121" x2="318.202" y2="151.531"/>
    <line class="uuid-26647616-99df-4af1-8a80-7ae966fa3d7a" x1="330.255" y1="132.922" x2="334.707" y2="140.647"/>
    <line class="uuid-26647616-99df-4af1-8a80-7ae966fa3d7a" x1="113.838" y1="179.814" x2="121.535" y2="193.119"/>
    <line class="uuid-26647616-99df-4af1-8a80-7ae966fa3d7a" x1="130.646" y1="169.476" x2="146.828" y2="197.454"/>
    <line class="uuid-26647616-99df-4af1-8a80-7ae966fa3d7a" x1="150.853" y1="204.419" x2="155.64" y2="212.712"/>
    <line class="uuid-26647616-99df-4af1-8a80-7ae966fa3d7a" x1="147.677" y1="159.338" x2="167.425" y2="193.624"/>
    <line class="uuid-26647616-99df-4af1-8a80-7ae966fa3d7a" x1="169.901" y1="197.888" x2="186.712" y2="226.995"/>
    <line class="uuid-26647616-99df-4af1-8a80-7ae966fa3d7a" x1="165.272" y1="150.369" x2="169.673" y2="157.97"/>
    <line class="uuid-26647616-99df-4af1-8a80-7ae966fa3d7a" x1="176.159" y1="169.218" x2="204.199" y2="217.742"/>
    <line class="uuid-26647616-99df-4af1-8a80-7ae966fa3d7a" x1="210.314" y1="188.815" x2="220.743" y2="206.88"/>
    <line class="uuid-26647616-99df-4af1-8a80-7ae966fa3d7a" x1="235.475" y1="192.898" x2="237.575" y2="196.53"/>
    <line class="uuid-26647616-99df-4af1-8a80-7ae966fa3d7a" x1="259.272" y1="211.457" x2="254.084" y2="214.459"/>
    <line class="uuid-26647616-99df-4af1-8a80-7ae966fa3d7a" x1="259.276" y1="234.24" x2="254.096" y2="237.224"/>
    <line class="uuid-26647616-99df-4af1-8a80-7ae966fa3d7a" x1="193.706" y1="132.027" x2="173.712" y2="143.565"/>
    <line class="uuid-26647616-99df-4af1-8a80-7ae966fa3d7a" x1="213.457" y1="143.433" x2="193.482" y2="154.979"/>
    <line class="uuid-26647616-99df-4af1-8a80-7ae966fa3d7a" x1="233.211" y1="154.836" x2="213.232" y2="166.381"/>
    <line class="uuid-26647616-99df-4af1-8a80-7ae966fa3d7a" x1="252.963" y1="166.241" x2="232.988" y2="177.787"/>
    <line class="uuid-26647616-99df-4af1-8a80-7ae966fa3d7a" x1="272.732" y1="177.655" x2="252.738" y2="189.19"/>
    <line class="uuid-26647616-99df-4af1-8a80-7ae966fa3d7a" x1="282.851" y1="197.98" x2="262.11" y2="209.979"/>
    <line class="uuid-26647616-99df-4af1-8a80-7ae966fa3d7a" x1="282.847" y1="220.81" x2="262.11" y2="232.761"/>
    <line class="uuid-26647616-99df-4af1-8a80-7ae966fa3d7a" x1="287.788" y1="195.191" x2="284.605" y2="197.031"/>
    <line class="uuid-26647616-99df-4af1-8a80-7ae966fa3d7a" x1="287.798" y1="218.003" x2="284.583" y2="219.85"/>
    <line class="uuid-26647616-99df-4af1-8a80-7ae966fa3d7a" x1="104.783" y1="195.618" x2="92.895" y2="202.472"/>
    <line class="uuid-26647616-99df-4af1-8a80-7ae966fa3d7a" x1="115.49" y1="200.824" x2="93.175" y2="213.679"/>
    <line class="uuid-26647616-99df-4af1-8a80-7ae966fa3d7a" x1="125.167" y1="206.656" x2="93.171" y2="225.096"/>
    <line class="uuid-26647616-99df-4af1-8a80-7ae966fa3d7a" x1="134.326" y1="212.756" x2="92.973" y2="236.606"/>
    <path class="uuid-bd170735-ca4b-4aba-92cf-cff603fd7f91" d="M98.712,209.578c-3.109-1.917-5.162-3.967-5.485-7.683"/>
  </g>
</svg>