<?xml version="1.0" encoding="UTF-8"?>
<svg id="uuid-43555c54-f721-41f6-866e-5c6c62320899" data-name="&amp;lt;Layer&amp;gt;" xmlns="http://www.w3.org/2000/svg" viewBox="0 0 451.11 451.11">
  <defs>
    <style>
      .uuid-97ba3e3e-337a-444f-957c-327f49c2ecb5, .uuid-fc646c0e-42d1-4e25-b054-62456b15deb3, .uuid-6bf1b061-ccc0-4ec3-ab89-9493a2cec474 {
        fill: none;
        stroke: #000;
        stroke-linecap: round;
      }

      .uuid-97ba3e3e-337a-444f-957c-327f49c2ecb5, .uuid-6bf1b061-ccc0-4ec3-ab89-9493a2cec474 {
        stroke-linejoin: round;
        stroke-width: 4.117px;
      }

      .uuid-fc646c0e-42d1-4e25-b054-62456b15deb3 {
        stroke-miterlimit: 10;
        stroke-width: 1.163px;
      }

      .uuid-6bf1b061-ccc0-4ec3-ab89-9493a2cec474 {
        fill-rule: evenodd;
      }
    </style>
  </defs>
  <path class="uuid-6bf1b061-ccc0-4ec3-ab89-9493a2cec474" d="M181.632,279.392c.07.048.118.048.188.118.448.379.827.732,1.181,1.111.165.236.261.449.448.615.214.283.379.64.497,1.015.096.239.166.497.283.732.497,1.63.567,3.712.118,6.123"/>
  <path class="uuid-6bf1b061-ccc0-4ec3-ab89-9493a2cec474" d="M169.222,375.63c-.166.85-.166,1.586-.048,2.197,0,.283.048.496.165.732,0,.213.096.379.214.544.07.24.191.405.357.523.096.165.213.283.379.401.07.048.118.096.165.165"/>
  <path class="uuid-6bf1b061-ccc0-4ec3-ab89-9493a2cec474" d="M353.944,126.526c2.366-3.779,2.083-7.535.122-8.554-.405-.162-.78-.283-1.111-.283-.567,0-1.133.191-1.822.448"/>
  <path class="uuid-6bf1b061-ccc0-4ec3-ab89-9493a2cec474" d="M282.384,150.328c-1.468.684-2.767.967-3.925.967-.471,0-.968-.044-1.49-.235h-.044"/>
  <path class="uuid-6bf1b061-ccc0-4ec3-ab89-9493a2cec474" d="M99.999,226.122c-1.56,1.134-2.528,2.314-3.355,4.019-1.016,2.104-2.079,5.717.165,7.421"/>
  <path class="uuid-6bf1b061-ccc0-4ec3-ab89-9493a2cec474" d="M128.76,255.996c-2.362-1.773-1.108-5.722,0-7.845.902-1.515,1.751-2.553,3.216-3.594"/>
  <line class="uuid-97ba3e3e-337a-444f-957c-327f49c2ecb5" x1="184.348" y1="289.107" x2="169.222" y2="375.63"/>
  <line class="uuid-97ba3e3e-337a-444f-957c-327f49c2ecb5" x1="170.454" y1="380.192" x2="138.547" y2="361.712"/>
  <path class="uuid-6bf1b061-ccc0-4ec3-ab89-9493a2cec474" d="M138.547,361.712c-1.512-1.015-1.512-2.862-1.298-4.514"/>
  <line class="uuid-97ba3e3e-337a-444f-957c-327f49c2ecb5" x1="137.249" y1="357.197" x2="152.418" y2="270.624"/>
  <path class="uuid-6bf1b061-ccc0-4ec3-ab89-9493a2cec474" d="M152.418,270.624c.235-1.394.357-2.814.235-4.039"/>
  <line class="uuid-97ba3e3e-337a-444f-957c-327f49c2ecb5" x1="263.049" y1="126.008" x2="319.181" y2="99.726"/>
  <path class="uuid-6bf1b061-ccc0-4ec3-ab89-9493a2cec474" d="M319.181,99.726c1.111-.519,2.079-.754,3.212-.07"/>
  <line class="uuid-97ba3e3e-337a-444f-957c-327f49c2ecb5" x1="322.394" y1="99.656" x2="354.067" y2="117.972"/>
  <path class="uuid-6bf1b061-ccc0-4ec3-ab89-9493a2cec474" d="M170.289,380.027c1.464,1.111,3.992.449,6.284-2.436"/>
  <line class="uuid-97ba3e3e-337a-444f-957c-327f49c2ecb5" x1="176.573" y1="377.591" x2="236.035" y2="302.65"/>
  <path class="uuid-6bf1b061-ccc0-4ec3-ab89-9493a2cec474" d="M236.035,302.65c3.473-4.326,7.517-6.689,10.942-6.287"/>
  <line class="uuid-97ba3e3e-337a-444f-957c-327f49c2ecb5" x1="246.978" y1="296.362" x2="306.37" y2="302.72"/>
  <path class="uuid-6bf1b061-ccc0-4ec3-ab89-9493a2cec474" d="M306.37,302.72c3.83.379,8.367-6.075,7.422-10.467"/>
  <line class="uuid-97ba3e3e-337a-444f-957c-327f49c2ecb5" x1="313.792" y1="292.253" x2="298.739" y2="223.098"/>
  <path class="uuid-6bf1b061-ccc0-4ec3-ab89-9493a2cec474" d="M298.739,223.098c-.923-3.995.375-9.172,3.356-13.944"/>
  <line class="uuid-97ba3e3e-337a-444f-957c-327f49c2ecb5" x1="302.095" y1="209.154" x2="353.944" y2="126.526"/>
  <line class="uuid-97ba3e3e-337a-444f-957c-327f49c2ecb5" x1="351.133" y1="118.137" x2="282.384" y2="150.328"/>
  <line class="uuid-97ba3e3e-337a-444f-957c-327f49c2ecb5" x1="168.773" y1="178.971" x2="99.999" y2="226.122"/>
  <line class="uuid-97ba3e3e-337a-444f-957c-327f49c2ecb5" x1="96.808" y1="237.562" x2="128.76" y2="255.996"/>
  <line class="uuid-97ba3e3e-337a-444f-957c-327f49c2ecb5" x1="131.976" y1="244.557" x2="200.751" y2="197.431"/>
  <path class="uuid-6bf1b061-ccc0-4ec3-ab89-9493a2cec474" d="M200.751,197.431c4.444-3.239,7.138-7.33,8.816-12.55"/>
  <line class="uuid-97ba3e3e-337a-444f-957c-327f49c2ecb5" x1="209.567" y1="184.881" x2="236.982" y2="95.851"/>
  <path class="uuid-6bf1b061-ccc0-4ec3-ab89-9493a2cec474" d="M236.982,95.851c.971-2.671,4.54-8.389,8.153-6.476"/>
  <line class="uuid-97ba3e3e-337a-444f-957c-327f49c2ecb5" x1="245.134" y1="89.376" x2="213.157" y2="70.941"/>
  <path class="uuid-6bf1b061-ccc0-4ec3-ab89-9493a2cec474" d="M213.157,70.941c-3.543-1.869-7.182,3.736-8.08,6.454"/>
  <line class="uuid-97ba3e3e-337a-444f-957c-327f49c2ecb5" x1="205.077" y1="77.395" x2="177.662" y2="166.447"/>
  <path class="uuid-6bf1b061-ccc0-4ec3-ab89-9493a2cec474" d="M177.662,166.447c-1.751,5.2-4.444,9.313-8.889,12.524"/>
  <line class="uuid-97ba3e3e-337a-444f-957c-327f49c2ecb5" x1="129.165" y1="256.184" x2="180.97" y2="279.039"/>
  <path class="uuid-6bf1b061-ccc0-4ec3-ab89-9493a2cec474" d="M169.174,375.652c-.92,5.461,3.594,6.69,7.399,1.939"/>
  <path class="uuid-6bf1b061-ccc0-4ec3-ab89-9493a2cec474" d="M282.384,150.328c-4.065,1.891-7.186.967-8.889-2.314"/>
  <line class="uuid-97ba3e3e-337a-444f-957c-327f49c2ecb5" x1="273.496" y1="148.014" x2="246.129" y2="90.583"/>
  <path class="uuid-6bf1b061-ccc0-4ec3-ab89-9493a2cec474" d="M203.539,195.043c2.93-3.094,4.681-6.123,6.028-10.162"/>
  <path class="uuid-6bf1b061-ccc0-4ec3-ab89-9493a2cec474" d="M177.662,166.447c-1.35,4.063-3.097,7.043-6.027,10.137"/>
  <line class="uuid-97ba3e3e-337a-444f-957c-327f49c2ecb5" x1="171.635" y1="176.584" x2="203.539" y2="195.043"/>
  <line class="uuid-fc646c0e-42d1-4e25-b054-62456b15deb3" x1="120.68" y1="249.568" x2="105.624" y2="223.521"/>
  <line class="uuid-fc646c0e-42d1-4e25-b054-62456b15deb3" x1="139.397" y1="238.342" x2="123.657" y2="211.093"/>
  <line class="uuid-fc646c0e-42d1-4e25-b054-62456b15deb3" x1="157.478" y1="225.958" x2="141.759" y2="198.709"/>
  <line class="uuid-fc646c0e-42d1-4e25-b054-62456b15deb3" x1="175.58" y1="213.547" x2="159.839" y2="186.323"/>
  <line class="uuid-fc646c0e-42d1-4e25-b054-62456b15deb3" x1="193.377" y1="200.739" x2="185.01" y2="186.249"/>
  <line class="uuid-fc646c0e-42d1-4e25-b054-62456b15deb3" x1="288.669" y1="146.193" x2="274.585" y2="121.802"/>
  <line class="uuid-fc646c0e-42d1-4e25-b054-62456b15deb3" x1="308.57" y1="136.902" x2="294.46" y2="112.511"/>
  <line class="uuid-fc646c0e-42d1-4e25-b054-62456b15deb3" x1="328.398" y1="127.615" x2="314.288" y2="103.203"/>
  <line class="uuid-fc646c0e-42d1-4e25-b054-62456b15deb3" x1="347.848" y1="117.571" x2="346.998" y2="116.107"/>
  <line class="uuid-fc646c0e-42d1-4e25-b054-62456b15deb3" x1="167.827" y1="372.842" x2="164.732" y2="374.637"/>
  <line class="uuid-fc646c0e-42d1-4e25-b054-62456b15deb3" x1="170.738" y1="358.565" x2="153.319" y2="368.61"/>
  <line class="uuid-fc646c0e-42d1-4e25-b054-62456b15deb3" x1="173.667" y1="344.267" x2="141.972" y2="362.562"/>
  <line class="uuid-fc646c0e-42d1-4e25-b054-62456b15deb3" x1="176.312" y1="330.113" x2="139.232" y2="351.523"/>
  <line class="uuid-fc646c0e-42d1-4e25-b054-62456b15deb3" x1="178.726" y1="316.099" x2="141.689" y2="337.487"/>
  <line class="uuid-fc646c0e-42d1-4e25-b054-62456b15deb3" x1="181.183" y1="302.084" x2="144.172" y2="323.472"/>
  <line class="uuid-fc646c0e-42d1-4e25-b054-62456b15deb3" x1="183.616" y1="288.066" x2="146.582" y2="309.431"/>
  <line class="uuid-fc646c0e-42d1-4e25-b054-62456b15deb3" x1="177.754" y1="278.826" x2="149.346" y2="295.229"/>
  <line class="uuid-fc646c0e-42d1-4e25-b054-62456b15deb3" x1="164.851" y1="273.675" x2="152.3" y2="280.905"/>
  <line class="uuid-fc646c0e-42d1-4e25-b054-62456b15deb3" x1="207.204" y1="186.227" x2="199.569" y2="190.647"/>
  <line class="uuid-fc646c0e-42d1-4e25-b054-62456b15deb3" x1="212.661" y1="170.439" x2="188.06" y2="184.645"/>
  <line class="uuid-fc646c0e-42d1-4e25-b054-62456b15deb3" x1="217.934" y1="154.795" x2="176.573" y2="178.666"/>
  <line class="uuid-fc646c0e-42d1-4e25-b054-62456b15deb3" x1="222.705" y1="139.433" x2="179.174" y2="164.578"/>
  <line class="uuid-fc646c0e-42d1-4e25-b054-62456b15deb3" x1="227.434" y1="124.094" x2="183.877" y2="149.217"/>
  <line class="uuid-fc646c0e-42d1-4e25-b054-62456b15deb3" x1="232.209" y1="108.732" x2="188.676" y2="133.855"/>
  <line class="uuid-fc646c0e-42d1-4e25-b054-62456b15deb3" x1="237.098" y1="93.298" x2="193.377" y2="118.542"/>
  <line class="uuid-fc646c0e-42d1-4e25-b054-62456b15deb3" x1="232.776" y1="83.205" x2="198.388" y2="103.011"/>
  <line class="uuid-fc646c0e-42d1-4e25-b054-62456b15deb3" x1="221.241" y1="77.204" x2="203.657" y2="87.366"/>
</svg>