<?xml version="1.0" encoding="UTF-8"?>
<svg id="uuid-f29df892-2a36-4658-a799-b7b1008b346e" data-name="&amp;lt;Layer&amp;gt;" xmlns="http://www.w3.org/2000/svg" viewBox="0 0 451.11 451.11">
  <defs>
    <style>
      .uuid-9d0242e2-0020-4a86-9241-b53c58b5e078, .uuid-323c9d03-774c-43ab-a57d-acd833d94f5a, .uuid-6eda8b20-4715-43d3-bab4-68e409454842 {
        fill: none;
        stroke: #000;
        stroke-linecap: round;
      }

      .uuid-9d0242e2-0020-4a86-9241-b53c58b5e078, .uuid-6eda8b20-4715-43d3-bab4-68e409454842 {
        stroke-linejoin: round;
        stroke-width: 4.117px;
      }

      .uuid-323c9d03-774c-43ab-a57d-acd833d94f5a {
        stroke-miterlimit: 10;
        stroke-width: 1.163px;
      }

      .uuid-6eda8b20-4715-43d3-bab4-68e409454842 {
        fill-rule: evenodd;
      }
    </style>
  </defs>
  <path class="uuid-6eda8b20-4715-43d3-bab4-68e409454842" d="M230.685,302.093c-.247-.125-.736-.125-.979.096-.243.195-.732.563-.979.953-.243.415-.243.854-.243,1.269s0,.71.243.832c.247.147.736.121.979-.074.243-.221.732-.563.979-.979.243-.389.243-.854.243-1.243,0-.415,0-.71-.243-.854Z"/>
  <polygon class="uuid-6eda8b20-4715-43d3-bab4-68e409454842" points="160.086 221.919 299.327 141.475 299.327 237.502 160.086 317.944 160.086 221.919"/>
  <polygon class="uuid-6eda8b20-4715-43d3-bab4-68e409454842" points="160.086 221.919 299.327 141.475 299.327 127.625 160.086 208.067 160.086 221.919"/>
  <line class="uuid-9d0242e2-0020-4a86-9241-b53c58b5e078" x1="124.175" y1="368.194" x2="117.092" y2="364.039"/>
  <path class="uuid-6eda8b20-4715-43d3-bab4-68e409454842" d="M117.092,364.039c-3.418-2.782-3.664-4.54-3.907-8.841"/>
  <line class="uuid-9d0242e2-0020-4a86-9241-b53c58b5e078" x1="113.185" y1="355.198" x2="113.185" y2="217.202"/>
  <path class="uuid-6eda8b20-4715-43d3-bab4-68e409454842" d="M113.185,217.202c.732-10.21,5.128-17.829,13.68-23.669"/>
  <line class="uuid-9d0242e2-0020-4a86-9241-b53c58b5e078" x1="126.865" y1="193.533" x2="317.158" y2="83.778"/>
  <path class="uuid-6eda8b20-4715-43d3-bab4-68e409454842" d="M317.158,83.778c3.911-1.785,5.376-2.47,9.53-.906"/>
  <line class="uuid-9d0242e2-0020-4a86-9241-b53c58b5e078" x1="326.688" y1="82.872" x2="334.014" y2="87.001"/>
  <path class="uuid-6eda8b20-4715-43d3-bab4-68e409454842" d="M334.014,87.001c-4.151-1.538-5.862-.854-9.769.931"/>
  <line class="uuid-9d0242e2-0020-4a86-9241-b53c58b5e078" x1="324.245" y1="87.932" x2="133.948" y2="197.687"/>
  <path class="uuid-6eda8b20-4715-43d3-bab4-68e409454842" d="M133.948,197.687c-8.062,5.715-12.701,13.214-13.68,23.67"/>
  <line class="uuid-9d0242e2-0020-4a86-9241-b53c58b5e078" x1="120.268" y1="221.357" x2="120.268" y2="359.374"/>
  <path class="uuid-6eda8b20-4715-43d3-bab4-68e409454842" d="M120.268,359.374c.489,4.276.732,6.034,3.907,8.82"/>
  <line class="uuid-9d0242e2-0020-4a86-9241-b53c58b5e078" x1="134.927" y1="208.115" x2="323.266" y2="99.51"/>
  <path class="uuid-6eda8b20-4715-43d3-bab4-68e409454842" d="M323.266,99.51c3.422-1.954,6.107-.367,6.107,3.566"/>
  <line class="uuid-9d0242e2-0020-4a86-9241-b53c58b5e078" x1="329.373" y1="103.076" x2="329.373" y2="230.934"/>
  <path class="uuid-6eda8b20-4715-43d3-bab4-68e409454842" d="M329.373,230.934c0,3.908-2.685,8.669-6.107,10.627"/>
  <line class="uuid-9d0242e2-0020-4a86-9241-b53c58b5e078" x1="323.266" y1="241.561" x2="134.927" y2="350.142"/>
  <path class="uuid-6eda8b20-4715-43d3-bab4-68e409454842" d="M134.927,350.142c-3.422,1.954-6.108.364-6.108-3.543"/>
  <line class="uuid-9d0242e2-0020-4a86-9241-b53c58b5e078" x1="128.818" y1="346.599" x2="128.818" y2="218.744"/>
  <path class="uuid-6eda8b20-4715-43d3-bab4-68e409454842" d="M128.818,218.744c0-3.911,2.687-8.676,6.108-10.629"/>
  <path class="uuid-6eda8b20-4715-43d3-bab4-68e409454842" d="M324.245,87.932c7.571-4.328,13.68-.758,13.68,7.914"/>
  <line class="uuid-9d0242e2-0020-4a86-9241-b53c58b5e078" x1="337.925" y1="95.846" x2="337.925" y2="233.864"/>
  <path class="uuid-6eda8b20-4715-43d3-bab4-68e409454842" d="M337.925,233.864c0,8.672-6.351,19.345-13.68,23.669"/>
  <line class="uuid-9d0242e2-0020-4a86-9241-b53c58b5e078" x1="324.245" y1="257.533" x2="133.948" y2="367.266"/>
  <path class="uuid-6eda8b20-4715-43d3-bab4-68e409454842" d="M133.948,367.266c-7.573,4.324-13.68.78-13.68-7.892"/>
  <path class="uuid-6eda8b20-4715-43d3-bab4-68e409454842" d="M195.507,226.118c.979-.611,1.711-.096,1.711,1.125"/>
  <path class="uuid-6eda8b20-4715-43d3-bab4-68e409454842" d="M197.218,227.244c0,1.221-.732,2.711-1.711,3.323"/>
  <path class="uuid-6eda8b20-4715-43d3-bab4-68e409454842" d="M195.507,230.567c-1.221.61-1.954.121-1.954-1.127"/>
  <path class="uuid-6eda8b20-4715-43d3-bab4-68e409454842" d="M193.553,229.44c0-1.195.732-2.712,1.954-3.322"/>
  <path class="uuid-6eda8b20-4715-43d3-bab4-68e409454842" d="M195.507,247.323c.979-.611,1.711-.122,1.711,1.099"/>
  <path class="uuid-6eda8b20-4715-43d3-bab4-68e409454842" d="M197.218,248.422c0,1.221-.732,2.737-1.711,3.349"/>
  <path class="uuid-6eda8b20-4715-43d3-bab4-68e409454842" d="M195.507,251.771c-1.221.61-1.954.095-1.954-1.127"/>
  <path class="uuid-6eda8b20-4715-43d3-bab4-68e409454842" d="M193.553,250.644c0-1.221.732-2.712,1.954-3.322"/>
  <path class="uuid-6eda8b20-4715-43d3-bab4-68e409454842" d="M195.507,269.822c.979-.585,1.711-.1,1.711,1.122"/>
  <path class="uuid-6eda8b20-4715-43d3-bab4-68e409454842" d="M197.218,270.944c0,1.221-.732,2.737-1.711,3.323"/>
  <path class="uuid-6eda8b20-4715-43d3-bab4-68e409454842" d="M195.507,274.266c-1.221.61-1.954.121-1.954-1.101"/>
  <path class="uuid-6eda8b20-4715-43d3-bab4-68e409454842" d="M193.553,273.166c0-1.218.732-2.708,1.954-3.344"/>
  <line class="uuid-9d0242e2-0020-4a86-9241-b53c58b5e078" x1="208.697" y1="241.924" x2="262.927" y2="210.462"/>
  <line class="uuid-9d0242e2-0020-4a86-9241-b53c58b5e078" x1="208.697" y1="220.746" x2="262.927" y2="189.284"/>
  <line class="uuid-9d0242e2-0020-4a86-9241-b53c58b5e078" x1="208.697" y1="264.45" x2="252.669" y2="239.018"/>
  <line class="uuid-323c9d03-774c-43ab-a57d-acd833d94f5a" x1="147.385" y1="357.541" x2="136.391" y2="351.239"/>
  <line class="uuid-323c9d03-774c-43ab-a57d-acd833d94f5a" x1="127.107" y1="345.793" x2="122.222" y2="343.055"/>
  <line class="uuid-323c9d03-774c-43ab-a57d-acd833d94f5a" x1="169.858" y1="344.523" x2="159.111" y2="338.196"/>
  <line class="uuid-323c9d03-774c-43ab-a57d-acd833d94f5a" x1="127.107" y1="319.729" x2="122.222" y2="317.017"/>
  <line class="uuid-323c9d03-774c-43ab-a57d-acd833d94f5a" x1="192.575" y1="331.477" x2="181.584" y2="325.152"/>
  <line class="uuid-323c9d03-774c-43ab-a57d-acd833d94f5a" x1="127.107" y1="293.638" x2="122.222" y2="290.904"/>
  <line class="uuid-323c9d03-774c-43ab-a57d-acd833d94f5a" x1="215.048" y1="318.459" x2="204.301" y2="312.156"/>
  <line class="uuid-323c9d03-774c-43ab-a57d-acd833d94f5a" x1="127.107" y1="267.599" x2="122.222" y2="264.861"/>
  <line class="uuid-323c9d03-774c-43ab-a57d-acd833d94f5a" x1="237.768" y1="305.438" x2="226.774" y2="299.135"/>
  <line class="uuid-323c9d03-774c-43ab-a57d-acd833d94f5a" x1="127.107" y1="241.535" x2="122.222" y2="238.797"/>
  <line class="uuid-323c9d03-774c-43ab-a57d-acd833d94f5a" x1="260.242" y1="292.394" x2="249.494" y2="286.091"/>
  <line class="uuid-323c9d03-774c-43ab-a57d-acd833d94f5a" x1="127.35" y1="215.69" x2="123.932" y2="213.638"/>
  <line class="uuid-323c9d03-774c-43ab-a57d-acd833d94f5a" x1="282.962" y1="279.373" x2="271.968" y2="273.096"/>
  <line class="uuid-323c9d03-774c-43ab-a57d-acd833d94f5a" x1="145.431" y1="200.031" x2="139.566" y2="196.658"/>
  <line class="uuid-323c9d03-774c-43ab-a57d-acd833d94f5a" x1="305.432" y1="266.351" x2="294.684" y2="260.053"/>
  <line class="uuid-323c9d03-774c-43ab-a57d-acd833d94f5a" x1="168.148" y1="186.962" x2="162.286" y2="183.592"/>
  <line class="uuid-323c9d03-774c-43ab-a57d-acd833d94f5a" x1="327.42" y1="252.892" x2="317.158" y2="247.006"/>
  <line class="uuid-323c9d03-774c-43ab-a57d-acd833d94f5a" x1="190.621" y1="173.919" x2="184.759" y2="170.57"/>
  <line class="uuid-323c9d03-774c-43ab-a57d-acd833d94f5a" x1="335.971" y1="231.736" x2="331.327" y2="229.125"/>
  <line class="uuid-323c9d03-774c-43ab-a57d-acd833d94f5a" x1="213.337" y1="160.898" x2="207.476" y2="157.549"/>
  <line class="uuid-323c9d03-774c-43ab-a57d-acd833d94f5a" x1="335.971" y1="205.697" x2="331.327" y2="203.085"/>
  <line class="uuid-323c9d03-774c-43ab-a57d-acd833d94f5a" x1="235.815" y1="147.876" x2="229.949" y2="144.527"/>
  <line class="uuid-323c9d03-774c-43ab-a57d-acd833d94f5a" x1="335.971" y1="179.681" x2="331.327" y2="177.02"/>
  <line class="uuid-323c9d03-774c-43ab-a57d-acd833d94f5a" x1="258.288" y1="134.855" x2="252.669" y2="131.51"/>
  <line class="uuid-323c9d03-774c-43ab-a57d-acd833d94f5a" x1="335.971" y1="153.642" x2="331.327" y2="150.977"/>
  <line class="uuid-323c9d03-774c-43ab-a57d-acd833d94f5a" x1="281.005" y1="121.811" x2="275.143" y2="118.49"/>
  <line class="uuid-323c9d03-774c-43ab-a57d-acd833d94f5a" x1="336.214" y1="127.625" x2="331.327" y2="124.913"/>
  <line class="uuid-323c9d03-774c-43ab-a57d-acd833d94f5a" x1="303.478" y1="108.79" x2="297.617" y2="105.472"/>
  <line class="uuid-323c9d03-774c-43ab-a57d-acd833d94f5a" x1="336.457" y1="101.756" x2="320.09" y2="92.23"/>
  <line class="uuid-323c9d03-774c-43ab-a57d-acd833d94f5a" x1="175.719" y1="210.853" x2="167.415" y2="205.966"/>
  <line class="uuid-323c9d03-774c-43ab-a57d-acd833d94f5a" x1="198.439" y1="197.809" x2="189.889" y2="192.948"/>
  <line class="uuid-323c9d03-774c-43ab-a57d-acd833d94f5a" x1="220.913" y1="184.713" x2="212.605" y2="179.854"/>
  <line class="uuid-323c9d03-774c-43ab-a57d-acd833d94f5a" x1="243.63" y1="171.693" x2="235.083" y2="166.806"/>
  <line class="uuid-323c9d03-774c-43ab-a57d-acd833d94f5a" x1="266.104" y1="158.65" x2="257.799" y2="153.789"/>
  <line class="uuid-323c9d03-774c-43ab-a57d-acd833d94f5a" x1="288.58" y1="145.628" x2="280.273" y2="140.742"/>
  <line class="uuid-323c9d03-774c-43ab-a57d-acd833d94f5a" x1="118.313" y1="353.145" x2="115.138" y2="351.29"/>
  <line class="uuid-323c9d03-774c-43ab-a57d-acd833d94f5a" x1="118.313" y1="340.127" x2="115.138" y2="338.268"/>
  <line class="uuid-323c9d03-774c-43ab-a57d-acd833d94f5a" x1="118.313" y1="327.105" x2="115.138" y2="325.226"/>
  <line class="uuid-323c9d03-774c-43ab-a57d-acd833d94f5a" x1="118.313" y1="314.062" x2="115.138" y2="312.204"/>
  <line class="uuid-323c9d03-774c-43ab-a57d-acd833d94f5a" x1="118.313" y1="301.042" x2="115.138" y2="299.183"/>
  <line class="uuid-323c9d03-774c-43ab-a57d-acd833d94f5a" x1="118.313" y1="288.02" x2="115.138" y2="286.139"/>
  <line class="uuid-323c9d03-774c-43ab-a57d-acd833d94f5a" x1="118.313" y1="274.976" x2="115.138" y2="273.118"/>
  <line class="uuid-323c9d03-774c-43ab-a57d-acd833d94f5a" x1="118.313" y1="261.885" x2="115.138" y2="260.027"/>
  <line class="uuid-323c9d03-774c-43ab-a57d-acd833d94f5a" x1="118.313" y1="248.863" x2="115.138" y2="247.006"/>
  <line class="uuid-323c9d03-774c-43ab-a57d-acd833d94f5a" x1="118.313" y1="235.843" x2="115.138" y2="233.988"/>
  <line class="uuid-323c9d03-774c-43ab-a57d-acd833d94f5a" x1="118.313" y1="222.799" x2="115.138" y2="220.941"/>
  <line class="uuid-323c9d03-774c-43ab-a57d-acd833d94f5a" x1="120.758" y1="211.121" x2="116.849" y2="208.898"/>
  <line class="uuid-323c9d03-774c-43ab-a57d-acd833d94f5a" x1="126.618" y1="201.495" x2="122.954" y2="199.347"/>
  <line class="uuid-323c9d03-774c-43ab-a57d-acd833d94f5a" x1="136.391" y1="194.093" x2="132.973" y2="192.19"/>
  <line class="uuid-323c9d03-774c-43ab-a57d-acd833d94f5a" x1="147.627" y1="187.599" x2="144.453" y2="185.69"/>
  <line class="uuid-323c9d03-774c-43ab-a57d-acd833d94f5a" x1="158.864" y1="181.101" x2="155.689" y2="179.17"/>
  <line class="uuid-323c9d03-774c-43ab-a57d-acd833d94f5a" x1="170.344" y1="174.577" x2="166.926" y2="172.672"/>
  <line class="uuid-323c9d03-774c-43ab-a57d-acd833d94f5a" x1="181.584" y1="168.054" x2="178.163" y2="166.148"/>
  <line class="uuid-323c9d03-774c-43ab-a57d-acd833d94f5a" x1="192.821" y1="161.556" x2="189.4" y2="159.624"/>
  <line class="uuid-323c9d03-774c-43ab-a57d-acd833d94f5a" x1="204.058" y1="155.036" x2="200.883" y2="153.131"/>
  <line class="uuid-323c9d03-774c-43ab-a57d-acd833d94f5a" x1="215.537" y1="148.534" x2="212.12" y2="146.607"/>
  <line class="uuid-323c9d03-774c-43ab-a57d-acd833d94f5a" x1="226.774" y1="141.964" x2="223.357" y2="140.061"/>
  <line class="uuid-323c9d03-774c-43ab-a57d-acd833d94f5a" x1="238.011" y1="135.466" x2="234.593" y2="133.537"/>
  <line class="uuid-323c9d03-774c-43ab-a57d-acd833d94f5a" x1="249.248" y1="128.971" x2="246.073" y2="127.039"/>
  <line class="uuid-323c9d03-774c-43ab-a57d-acd833d94f5a" x1="260.727" y1="122.422" x2="257.31" y2="120.494"/>
  <line class="uuid-323c9d03-774c-43ab-a57d-acd833d94f5a" x1="271.968" y1="115.925" x2="268.546" y2="113.971"/>
  <line class="uuid-323c9d03-774c-43ab-a57d-acd833d94f5a" x1="283.205" y1="109.401" x2="279.783" y2="107.473"/>
  <line class="uuid-323c9d03-774c-43ab-a57d-acd833d94f5a" x1="294.442" y1="102.881" x2="291.267" y2="100.95"/>
  <line class="uuid-323c9d03-774c-43ab-a57d-acd833d94f5a" x1="305.678" y1="96.383" x2="302.503" y2="94.452"/>
  <line class="uuid-323c9d03-774c-43ab-a57d-acd833d94f5a" x1="317.158" y1="89.886" x2="313.74" y2="87.932"/>
</svg>