<?xml version="1.0" encoding="UTF-8"?>
<svg id="uuid-1b930138-f8c2-4f40-97fb-32afd818093d" data-name="&amp;lt;Layer&amp;gt;" xmlns="http://www.w3.org/2000/svg" viewBox="0 0 451.11 451.11">
  <defs>
    <style>
      .uuid-789023a0-c603-4cc2-9188-3069d2ba06f1 {
        stroke-miterlimit: 10;
        stroke-width: 1.163px;
      }

      .uuid-789023a0-c603-4cc2-9188-3069d2ba06f1, .uuid-93f65c60-ed77-47e4-b84f-dae5fa27b894 {
        fill: none;
        stroke: #000;
        stroke-linecap: round;
      }

      .uuid-93f65c60-ed77-47e4-b84f-dae5fa27b894 {
        fill-rule: evenodd;
        stroke-linejoin: round;
        stroke-width: 4.117px;
      }
    </style>
  </defs>
  <path class="uuid-93f65c60-ed77-47e4-b84f-dae5fa27b894" d="M260.635,83.774l-.659.341-84.301,48.733M175.674,132.849c-7.33,4.324-12.359,14.387-12.436,22.742M163.238,155.591l.077,194.128M163.315,349.719c.048,3.275.633,6.354,3.245,8.602M166.56,358.321l15.392,8.89M181.951,367.211c-2.639-2.248-3.201-5.324-3.271-8.599M178.68,358.611v-2.369M178.628,164.481c.052-8.353,5.108-18.441,12.436-22.764M191.064,141.717l84.325-48.737M275.389,92.98c2.369-1.343,4.691-2.028,7.428-1.169M282.817,91.81l-15.392-8.894M191.112,367.016l84.323-48.733M275.436,318.282c6.841-3.959,12.436-14.169,12.436-22.768M287.872,295.514v-2.322M287.799,101.383c0-8.572-5.571-12.336-12.41-8.403M178.68,358.611c0,8.573,5.592,12.363,12.432,8.404M287.872,293.192l-.073-191.809M178.628,164.481l.052,191.761,109.192-63.05M166.148,143.865c-1.811,3.688-2.833,7.624-2.91,11.726M178.628,164.481c.052-4.324,1.101-7.841,2.906-11.726M181.534,152.755l-15.386-8.89M171.204,227.409v-19.493M171.204,195.089v-19.515M227.534,337.116l16.88-9.771M271.675,104.168c-1.221.71-2.222,2.539-2.222,4.055M269.453,108.223c0,1.538,1.001,2.2,2.222,1.516M271.675,109.739c1.197-.71,2.198-2.543,2.198-4.081M273.873,105.658c0-1.516-1.001-2.196-2.198-1.49M205.524,293.561c4.761-2.738,10.627-6.13,16.539-9.526M205.524,317.719c4.761-2.712,10.627-6.107,16.539-9.526M250.519,267.69c4.717-2.712,10.629-6.107,16.565-9.525M250.519,291.876c4.717-2.737,10.629-6.13,16.565-9.526M214.881,176.059l15.266-8.815M230.147,167.245c.463-.269.879-.052.879.511M231.026,167.756v10.625M231.026,178.381c0,.563-.415,1.221-.879,1.516M230.147,179.898l-14.413,8.305M215.734,188.202c-.463.269-.853.953-.853,1.516M214.881,189.718v10.551M214.881,200.27c0,.563.389.806.853.511M215.734,200.781l15.292-8.819M239.212,187.223c-.467.295-.883.077-.883-.511M238.33,186.712v-23.181M238.33,163.531c0-.562.415-1.246.883-1.515,4.809-2.785,9.574-5.545,14.387-8.309.463-.291.879-.048.879.515M254.478,154.223v23.18M254.478,177.403c0,.563-.415,1.247-.879,1.516-4.813,2.785-9.578,5.545-14.387,8.305M192.677,157.398c1.39-.78,3.149-1.785,4.886-2.785M202.449,151.827c1.39-.805,3.123-1.806,4.882-2.806M212.196,146.209c1.39-.806,3.123-1.807,4.882-2.785M205.524,269.376c4.761-2.711,10.627-6.13,16.539-9.526M250.519,243.532c4.717-2.738,10.629-6.133,16.565-9.53M230.147,218.542c.463-.295.879-.048.879.511M231.026,219.053v10.605M231.026,229.658c0,.559-.415,1.247-.879,1.538M230.147,231.196l-14.413,8.281M214.881,214.709l15.266-8.82M230.147,205.889c.463-.269.879-.048.879.511M231.026,206.4v10.603M230.147,218.542l-14.413,8.305M238.33,202.176l15.27-8.82M253.599,193.356c.463-.269.879-.048.879.511M254.478,193.868v10.605M254.478,204.473c0,.558-.415,1.269-.879,1.537M253.599,206.009l-14.387,8.283M239.212,214.292c-.467.295-.883.975-.883,1.538M238.33,215.83v10.553M238.33,226.383c0,.563.415.784.883.515M239.212,226.898l15.266-8.82M267.426,82.916c-2.028-.879-4.934-.147-6.791.858"/>
  <line class="uuid-789023a0-c603-4cc2-9188-3069d2ba06f1" x1="269.064" y1="306.019" x2="256.8" y2="327.149"/>
  <line class="uuid-789023a0-c603-4cc2-9188-3069d2ba06f1" x1="229.904" y1="328.591" x2="217.714" y2="349.745"/>
  <line class="uuid-789023a0-c603-4cc2-9188-3069d2ba06f1" x1="190.649" y1="351.455" x2="182.513" y2="365.526"/>
  <line class="uuid-789023a0-c603-4cc2-9188-3069d2ba06f1" x1="177.016" y1="350.308" x2="166.854" y2="356.194"/>
  <line class="uuid-789023a0-c603-4cc2-9188-3069d2ba06f1" x1="177.064" y1="337.264" x2="165.047" y2="344.2"/>
  <line class="uuid-789023a0-c603-4cc2-9188-3069d2ba06f1" x1="177.064" y1="324.217" x2="165.047" y2="331.156"/>
  <line class="uuid-789023a0-c603-4cc2-9188-3069d2ba06f1" x1="177.064" y1="311.173" x2="164.975" y2="318.135"/>
  <line class="uuid-789023a0-c603-4cc2-9188-3069d2ba06f1" x1="177.064" y1="298.152" x2="164.975" y2="305.114"/>
  <line class="uuid-789023a0-c603-4cc2-9188-3069d2ba06f1" x1="177.064" y1="285.109" x2="164.975" y2="292.071"/>
  <line class="uuid-789023a0-c603-4cc2-9188-3069d2ba06f1" x1="177.064" y1="272.088" x2="164.975" y2="279.049"/>
  <line class="uuid-789023a0-c603-4cc2-9188-3069d2ba06f1" x1="177.064" y1="259.066" x2="164.975" y2="266.031"/>
  <line class="uuid-789023a0-c603-4cc2-9188-3069d2ba06f1" x1="177.064" y1="246.023" x2="164.975" y2="252.984"/>
  <line class="uuid-789023a0-c603-4cc2-9188-3069d2ba06f1" x1="177.016" y1="232.979" x2="164.975" y2="239.942"/>
  <line class="uuid-789023a0-c603-4cc2-9188-3069d2ba06f1" x1="177.016" y1="219.959" x2="164.975" y2="226.92"/>
  <line class="uuid-789023a0-c603-4cc2-9188-3069d2ba06f1" x1="177.016" y1="206.915" x2="164.975" y2="213.877"/>
  <line class="uuid-789023a0-c603-4cc2-9188-3069d2ba06f1" x1="177.016" y1="193.894" x2="164.975" y2="200.855"/>
  <line class="uuid-789023a0-c603-4cc2-9188-3069d2ba06f1" x1="177.016" y1="180.85" x2="164.927" y2="187.811"/>
  <line class="uuid-789023a0-c603-4cc2-9188-3069d2ba06f1" x1="177.016" y1="167.829" x2="164.927" y2="174.79"/>
  <line class="uuid-789023a0-c603-4cc2-9188-3069d2ba06f1" x1="179.46" y1="153.365" x2="164.875" y2="161.794"/>
  <line class="uuid-789023a0-c603-4cc2-9188-3069d2ba06f1" x1="167.759" y1="147.088" x2="166.902" y2="147.603"/>
  <line class="uuid-789023a0-c603-4cc2-9188-3069d2ba06f1" x1="186.594" y1="143.181" x2="174.11" y2="135.973"/>
  <line class="uuid-789023a0-c603-4cc2-9188-3069d2ba06f1" x1="208.48" y1="129.744" x2="196.411" y2="122.783"/>
  <line class="uuid-789023a0-c603-4cc2-9188-3069d2ba06f1" x1="231.078" y1="116.7" x2="218.983" y2="109.739"/>
  <line class="uuid-789023a0-c603-4cc2-9188-3069d2ba06f1" x1="253.599" y1="103.657" x2="241.531" y2="96.696"/>
  <line class="uuid-789023a0-c603-4cc2-9188-3069d2ba06f1" x1="276.246" y1="90.635" x2="265.398" y2="84.382"/>
</svg>