<?xml version="1.0" encoding="UTF-8"?>
<svg id="uuid-02fe4541-30f1-4f6a-b9ff-521984e43f9e" data-name="&amp;lt;Layer&amp;gt;" xmlns="http://www.w3.org/2000/svg" viewBox="0 0 451.11 451.11">
  <defs>
    <style>
      .uuid-1040c4fa-f6b6-4721-97f0-88656dade68b, .uuid-f5c6822e-6efc-492a-a1fe-5b575c3008be, .uuid-25df8dba-0d43-495f-875c-98785eba5f22 {
        fill: none;
        stroke: #000;
        stroke-linecap: round;
      }

      .uuid-1040c4fa-f6b6-4721-97f0-88656dade68b, .uuid-25df8dba-0d43-495f-875c-98785eba5f22 {
        stroke-linejoin: round;
        stroke-width: 4.113px;
      }

      .uuid-f5c6822e-6efc-492a-a1fe-5b575c3008be {
        stroke-miterlimit: 10;
        stroke-width: 1.163px;
      }

      .uuid-25df8dba-0d43-495f-875c-98785eba5f22 {
        fill-rule: evenodd;
      }
    </style>
  </defs>
  <path class="uuid-25df8dba-0d43-495f-875c-98785eba5f22" d="M324.203,114.731c11.237,3.713,19.784,12.532,24.427,26.308.489,1.027.489,2.248-.247,3.764-.485,1.438-1.217,2.66-2.439,3.664"/>
  <path class="uuid-25df8dba-0d43-495f-875c-98785eba5f22" d="M340.812,152.986c-1.466,1.343-2.93,1.634-3.908.88-.243-.126-.243-.247-.489-.467,0-.17-.243-.339-.243-.633-.732-1.811-1.464-3.323-2.196-4.813-.247-.758-.736-1.464-.979-2.222-.489-.562-.732-1.221-1.221-1.857,0-.243-.243-.413-.243-.634-.489-.588-.979-1.099-1.223-1.637-.489-.515-.979-1.027-1.468-1.564-.243-.515-.732-.979-1.221-1.394-.975-.928-1.707-1.733-2.685-2.491-.489-.417-.979-.754-1.711-1.097-.489-.419-.975-.758-1.711-1.101-.485-.415-1.221-.758-1.707-1.099"/>
  <polyline class="uuid-25df8dba-0d43-495f-875c-98785eba5f22" points="336.904 153.866 336.661 153.692 301.24 133.294"/>
  <path class="uuid-25df8dba-0d43-495f-875c-98785eba5f22" d="M303.683,161.485v.048c.732.391,1.707.81,2.443,1.343,0,.051.243.099.243.221.733.515,1.465,1.053,2.198,1.737.736.658,1.221,1.39,1.957,2.222.485.854,1.217,1.733,1.707,2.66.247.541.489,1.053.732,1.616.247.363.247.584.489.879,0,.17.247.343.247.585v.173c.243.413.732.806,1.221,1.097"/>
  <path class="uuid-25df8dba-0d43-495f-875c-98785eba5f22" d="M229.909,142.36c-.487-2.711,1.221-5.792,3.179-7.502,1.221-.854,2.196-1.733,3.418-2.539"/>
  <path class="uuid-25df8dba-0d43-495f-875c-98785eba5f22" d="M266.062,163.222c-.243-.662-.243-1.346,0-2.1,0-.221,0-.467.247-.685,0-.293,0-.588.243-.879,0-.221,0-.467.243-.71v-.1c.247-.533.489-1.001.979-1.464v-.048c.243-.463.732-.879.979-1.221"/>
  <path class="uuid-25df8dba-0d43-495f-875c-98785eba5f22" d="M271.437,153.939c.732-.489,1.221-.953,1.954-1.342,1.223-.832,2.201-1.516,3.423-2.226"/>
  <path class="uuid-25df8dba-0d43-495f-875c-98785eba5f22" d="M276.813,150.322c.243-.122.486-.221.732-.343h0c.975-.636,1.953-1.221,3.175-1.807.243-.121.489-.293.979-.463,1.464-.809,3.175-1.468,4.64-2.028.979-.415,1.711-.757,2.686-1.051.979-.295,1.957-.585,2.932-.758.732-.243,1.464-.463,2.443-.585,1.711-.343,3.419-.563,4.887-.563,3.418-.195,6.839.1,9.769,1.053,1.221.343,2.443.78,3.422,1.317"/>
  <path class="uuid-25df8dba-0d43-495f-875c-98785eba5f22" d="M326.157,115.391c-7.328-2.591-12.216-3.028-19.788-2.469-1.711.173-4.639.636-6.107,1.001-14.165,3.054-26.138,10.577-37.128,19.371-1.712,1.395-3.18,3.886-3.18,6.108"/>
  <polyline class="uuid-25df8dba-0d43-495f-875c-98785eba5f22" points="259.954 139.402 259.954 140.722 261.422 145.826"/>
  <path class="uuid-25df8dba-0d43-495f-875c-98785eba5f22" d="M313.699,172.796c-6.354-15.976-23.938-17.566-41.772-3.76-1.953,1.564-3.911,1.244-4.396-.732"/>
  <path class="uuid-25df8dba-0d43-495f-875c-98785eba5f22" d="M266.062,163.196c-.243-1.099-.243-2.443.489-3.933.489-1.464,1.464-2.686,2.686-3.568,24.431-19.226,48.613-17.025,56.92,5.132.489,1.027.489,2.296-.243,3.786-.489,1.49-1.221,2.76-2.443,3.76"/>
  <path class="uuid-25df8dba-0d43-495f-875c-98785eba5f22" d="M336.172,152.739c-9.773-28.117-40.061-30.825-70.11-6.302-2.196,1.685-4.151,1.394-4.64-.611"/>
  <path class="uuid-25df8dba-0d43-495f-875c-98785eba5f22" d="M259.954,140.722c-.243-1.099,0-2.421.489-3.859.732-1.464,1.468-2.664,2.691-3.57,36.885-30.215,73.771-26.918,85.497,7.723.489,1.023.243,2.296-.247,3.76-.485,1.464-1.217,2.685-2.439,3.664"/>
  <polyline class="uuid-25df8dba-0d43-495f-875c-98785eba5f22" points="148.322 356.812 148.322 356.812 112.411 335.997"/>
  <path class="uuid-25df8dba-0d43-495f-875c-98785eba5f22" d="M112.411,335.997c-2.2-1.243-3.664-2.685-5.128-4.613-5.866-7.499-5.866-18.861-4.155-27.75,2.932-17.029,13.68-35.274,27.114-46.147"/>
  <path class="uuid-25df8dba-0d43-495f-875c-98785eba5f22" d="M131.953,256.266c.243-1.929.489-3.738.732-5.667,4.886-27.702,23.942-58.725,48.611-72.99,9.53-5.597,22.231-9.383,32.978-4.666"/>
  <polyline class="uuid-25df8dba-0d43-495f-875c-98785eba5f22" points="214.274 172.943 215.253 173.454 222.826 177.756"/>
  <path class="uuid-25df8dba-0d43-495f-875c-98785eba5f22" d="M222.826,177.756c6.596-5.961,15.88-11.626,25.159-11.458,2.2.026,4.398.463,6.598,1.295"/>
  <polyline class="uuid-25df8dba-0d43-495f-875c-98785eba5f22" points="254.582 167.593 255.557 168.057 271.194 177.119 272.901 176.777"/>
  <polyline class="uuid-25df8dba-0d43-495f-875c-98785eba5f22" points="283.895 177.707 285.118 178.219 321.028 199.034"/>
  <path class="uuid-25df8dba-0d43-495f-875c-98785eba5f22" d="M321.028,199.034c6.839,3.396,11.237,11.453,11.237,23.18,0,22.327-15.638,49.417-34.932,60.559"/>
  <path class="uuid-25df8dba-0d43-495f-875c-98785eba5f22" d="M172.993,354.395c-19.052,11.141-34.933,2.074-34.933-20.229.243-20.226,12.949-44.432,29.803-57.06,3.175-30.123,24.184-64.054,49.587-78.683,16.612-9.699,31.513-8.672,40.55.854,3.175-2.906,6.598-5.423,10.015-7.403,15.39-8.842,28.339-4.957,32.978,8.209,17.591-7.962,31.272,1.294,31.272,22.131,0,22.327-15.638,49.417-34.932,60.559"/>
  <line class="uuid-1040c4fa-f6b6-4721-97f0-88656dade68b" x1="345.945" y1="148.467" x2="340.812" y2="152.986"/>
  <path class="uuid-25df8dba-0d43-495f-875c-98785eba5f22" d="M301.24,133.294c-.732-.389-.732-.511-1.221-1.39"/>
  <line class="uuid-1040c4fa-f6b6-4721-97f0-88656dade68b" x1="314.92" y1="174.065" x2="314.431" y2="173.845"/>
  <line class="uuid-1040c4fa-f6b6-4721-97f0-88656dade68b" x1="314.184" y1="173.675" x2="290.736" y2="160.069"/>
  <line class="uuid-1040c4fa-f6b6-4721-97f0-88656dade68b" x1="268.262" y1="169.668" x2="268.262" y2="169.595"/>
  <line class="uuid-1040c4fa-f6b6-4721-97f0-88656dade68b" x1="268.262" y1="169.595" x2="232.598" y2="148.979"/>
  <path class="uuid-25df8dba-0d43-495f-875c-98785eba5f22" d="M232.598,148.979c-.732-.511-.979-.636-1.221-1.516"/>
  <line class="uuid-1040c4fa-f6b6-4721-97f0-88656dade68b" x1="231.377" y1="147.463" x2="229.909" y2="142.36"/>
  <line class="uuid-1040c4fa-f6b6-4721-97f0-88656dade68b" x1="267.53" y1="168.326" x2="266.062" y2="163.222"/>
  <line class="uuid-1040c4fa-f6b6-4721-97f0-88656dade68b" x1="312.477" y1="145.094" x2="290.493" y2="132.319"/>
  <path class="uuid-25df8dba-0d43-495f-875c-98785eba5f22" d="M230.398,109.746c16.855-12.774,38.596-22.716,59.606-15.196"/>
  <line class="uuid-1040c4fa-f6b6-4721-97f0-88656dade68b" x1="290.004" y1="94.55" x2="326.157" y2="115.391"/>
  <line class="uuid-1040c4fa-f6b6-4721-97f0-88656dade68b" x1="262.643" y1="147.342" x2="226.49" y2="126.531"/>
  <path class="uuid-25df8dba-0d43-495f-875c-98785eba5f22" d="M226.49,126.531c-.732-.515-.732-.688-1.221-1.542"/>
  <line class="uuid-1040c4fa-f6b6-4721-97f0-88656dade68b" x1="225.268" y1="124.989" x2="223.8" y2="119.47"/>
  <path class="uuid-25df8dba-0d43-495f-875c-98785eba5f22" d="M223.8,119.47c-.732-4.543,3.664-7.328,6.598-9.725"/>
  <line class="uuid-1040c4fa-f6b6-4721-97f0-88656dade68b" x1="323.471" y1="168.374" x2="318.339" y2="172.895"/>
  <path class="uuid-25df8dba-0d43-495f-875c-98785eba5f22" d="M318.339,172.895c-1.955,1.759-3.908,1.708-4.64-.099"/>
  <path class="uuid-25df8dba-0d43-495f-875c-98785eba5f22" d="M172.993,354.395c-9.526,5.57-18.32,6.081-24.671,2.417"/>
  <line class="uuid-1040c4fa-f6b6-4721-97f0-88656dade68b" x1="130.242" y1="257.488" x2="131.953" y2="256.266"/>
  <path class="uuid-25df8dba-0d43-495f-875c-98785eba5f22" d="M272.901,176.777c3.666-.611,7.576-.438,10.994.931"/>
  <line class="uuid-1040c4fa-f6b6-4721-97f0-88656dade68b" x1="297.333" y1="282.773" x2="172.993" y2="354.395"/>
  <line class="uuid-1040c4fa-f6b6-4721-97f0-88656dade68b" x1="167.863" y1="277.106" x2="131.953" y2="256.266"/>
  <line class="uuid-1040c4fa-f6b6-4721-97f0-88656dade68b" x1="258.489" y1="198.422" x2="222.826" y2="177.756"/>
  <line class="uuid-1040c4fa-f6b6-4721-97f0-88656dade68b" x1="291.714" y1="188.918" x2="271.194" y2="177.119"/>
  <line class="uuid-f5c6822e-6efc-492a-a1fe-5b575c3008be" x1="117.784" y1="337.245" x2="103.86" y2="313.06"/>
  <line class="uuid-f5c6822e-6efc-492a-a1fe-5b575c3008be" x1="137.817" y1="326.888" x2="111.679" y2="281.503"/>
  <line class="uuid-f5c6822e-6efc-492a-a1fe-5b575c3008be" x1="147.832" y1="298.991" x2="126.576" y2="261.836"/>
  <line class="uuid-f5c6822e-6efc-492a-a1fe-5b575c3008be" x1="162.488" y1="279.203" x2="160.044" y2="274.711"/>
  <line class="uuid-f5c6822e-6efc-492a-a1fe-5b575c3008be" x1="156.38" y1="268.773" x2="137.57" y2="236.14"/>
  <line class="uuid-f5c6822e-6efc-492a-a1fe-5b575c3008be" x1="173.235" y1="252.605" x2="149.296" y2="210.977"/>
  <line class="uuid-f5c6822e-6efc-492a-a1fe-5b575c3008be" x1="185.451" y1="228.811" x2="164.199" y2="192.021"/>
  <line class="uuid-f5c6822e-6efc-492a-a1fe-5b575c3008be" x1="200.841" y1="210.05" x2="182.517" y2="178.05"/>
  <line class="uuid-f5c6822e-6efc-492a-a1fe-5b575c3008be" x1="218.919" y1="196.27" x2="204.991" y2="172.09"/>
  <line class="uuid-f5c6822e-6efc-492a-a1fe-5b575c3008be" x1="238.216" y1="184.522" x2="231.619" y2="173.113"/>
  <line class="uuid-f5c6822e-6efc-492a-a1fe-5b575c3008be" x1="267.773" y1="190.629" x2="255.804" y2="170.205"/>
  <line class="uuid-f5c6822e-6efc-492a-a1fe-5b575c3008be" x1="303.437" y1="197.275" x2="298.308" y2="188.066"/>
  <line class="uuid-f5c6822e-6efc-492a-a1fe-5b575c3008be" x1="327.621" y1="146.267" x2="321.76" y2="136.3"/>
  <line class="uuid-f5c6822e-6efc-492a-a1fe-5b575c3008be" x1="254.582" y1="159.726" x2="241.635" y2="137.01"/>
  <line class="uuid-f5c6822e-6efc-492a-a1fe-5b575c3008be" x1="274.613" y1="149.516" x2="271.68" y2="144.41"/>
  <line class="uuid-f5c6822e-6efc-492a-a1fe-5b575c3008be" x1="296.111" y1="141.065" x2="293.178" y2="136.179"/>
  <line class="uuid-f5c6822e-6efc-492a-a1fe-5b575c3008be" x1="248.721" y1="137.621" x2="232.598" y2="109.404"/>
  <line class="uuid-f5c6822e-6efc-492a-a1fe-5b575c3008be" x1="269.237" y1="127.554" x2="252.14" y2="97.973"/>
  <line class="uuid-f5c6822e-6efc-492a-a1fe-5b575c3008be" x1="288.782" y1="116.317" x2="275.345" y2="93.186"/>
  <line class="uuid-f5c6822e-6efc-492a-a1fe-5b575c3008be" x1="311.498" y1="110.724" x2="310.034" y2="108.451"/>
</svg>