<?xml version="1.0" encoding="UTF-8"?>
<svg id="uuid-ce193206-f7f7-4c4c-b44e-2b3b7737c3d7" data-name="&amp;lt;Layer&amp;gt;" xmlns="http://www.w3.org/2000/svg" viewBox="0 0 451.11 451.11">
  <defs>
    <style>
      .uuid-8cf0c165-bdd4-4049-8a23-04c90a1af3a8, .uuid-5a139c5e-12a9-43cd-a3f8-735d6f33f3ad, .uuid-50189cc1-f1ab-493b-ac50-90615c4d1b63 {
        fill: none;
        stroke: #000;
        stroke-linecap: round;
      }

      .uuid-8cf0c165-bdd4-4049-8a23-04c90a1af3a8, .uuid-50189cc1-f1ab-493b-ac50-90615c4d1b63 {
        stroke-linejoin: round;
        stroke-width: 4.117px;
      }

      .uuid-5a139c5e-12a9-43cd-a3f8-735d6f33f3ad {
        stroke-miterlimit: 10;
        stroke-width: 1.163px;
      }

      .uuid-50189cc1-f1ab-493b-ac50-90615c4d1b63 {
        fill-rule: evenodd;
      }
    </style>
  </defs>
  <path class="uuid-50189cc1-f1ab-493b-ac50-90615c4d1b63" d="M264.475,176.154c6.933-2.244,15.207-.192,21.499,2.954,13.018,5.84,25.915,20.38,32.806,32.636,3.885,5.825,8.116,16.525,9.919,23.404,3.915,13.401,4.57,33.078-7.013,43.142"/>
  <path class="uuid-50189cc1-f1ab-493b-ac50-90615c4d1b63" d="M289.514,180.915c-.291-.195-.537-.291-.806-.413"/>
  <path class="uuid-50189cc1-f1ab-493b-ac50-90615c4d1b63" d="M123.6,261.799h.122c3.995.5,8.503,1.578,12.021,3.492,7.524,3.219,13.565,8.584,19.345,14.217,7.547,7.737,13.728,17.219,18.346,26.944,6.259,14.11,12.101,35.278,4.761,49.955"/>
  <path class="uuid-50189cc1-f1ab-493b-ac50-90615c4d1b63" d="M200.672,342.925c1.902-1.859,3.54-4.302,4.639-6.67,2.834-6.108,3.422-13.655,2.834-20.321-1.638-19.397-12.823-40.481-26.992-53.719-5.401-5.058-12.436-9.993-19.814-12.311"/>
  <polyline class="uuid-50189cc1-f1ab-493b-ac50-90615c4d1b63" points="321.686 278.29 343.528 265.706 344.749 264.584"/>
  <path class="uuid-50189cc1-f1ab-493b-ac50-90615c4d1b63" d="M344.749,264.584c2.028-1.979,3.808-4.592,4.982-7.183,3.079-6.618,3.664-14.706,3.079-21.914-1.737-20.835-13.874-43.6-29.096-57.817-5.056-4.717-11.333-9.357-18.124-12.215"/>
  <path class="uuid-50189cc1-f1ab-493b-ac50-90615c4d1b63" d="M248.405,197.332c0-.169.047-.342.095-.511.122-.931.294-1.811.585-2.663,0-.295.121-.659.247-.928.169-.758.389-1.516.684-2.273.413-1.27.927-2.491,1.512-3.665.221-.512.541-1.049.88-1.563.173-.412.393-.755.684-1.096.295-.537.636-.931,1.053-1.396,1.563-2.1,3.418-3.785,5.566-5.006.369-.295.758-.465,1.127-.637.636-.339,1.269-.68,1.954-.927.074,0,.169-.048.294-.122.048,0,.121,0,.169-.048"/>
  <polyline class="uuid-50189cc1-f1ab-493b-ac50-90615c4d1b63" points="130.267 253.2 113.317 263.02 114.023 262.8 114.88 262.505"/>
  <path class="uuid-50189cc1-f1ab-493b-ac50-90615c4d1b63" d="M114.88,262.505c2.399-.629,5.156-.92,7.621-.754"/>
  <path class="uuid-50189cc1-f1ab-493b-ac50-90615c4d1b63" d="M178.125,356.458c-.883,2.027-1.957,3.76-3.249,5.349-.125.17-.295.391-.467.585-.221.221-.413.441-.633.636-.588.559-1.173,1.148-1.809,1.686"/>
  <polyline class="uuid-50189cc1-f1ab-493b-ac50-90615c4d1b63" points="171.966 364.715 193.806 352.108 195.027 351.009"/>
  <path class="uuid-50189cc1-f1ab-493b-ac50-90615c4d1b63" d="M195.027,351.009c2.102-1.977,3.834-4.592,5.056-7.205.122-.121.17-.293.17-.463q.05-.077.05-.121c2.907-6.45,3.422-14.343,2.785-21.256-1.737-20.91-13.806-43.674-29.023-57.895-3.612-3.371-7.84-6.62-12.432-9.279"/>
  <path class="uuid-50189cc1-f1ab-493b-ac50-90615c4d1b63" d="M114.023,262.8c-9.696,3.249-15.925,13.337-15.925,28.629,0,26.581,18.711,58.947,41.698,72.238,12.945,7.494,24.575,7.304,32.17,1.049.636-.538,1.221-1.127,1.809-1.686.413-.415.755-.831,1.101-1.221.806-1.005,1.564-2.1,2.196-3.322.417-.637.758-1.269,1.053-2.027"/>
  <path class="uuid-50189cc1-f1ab-493b-ac50-90615c4d1b63" d="M262.865,111.345c15.364,3.47,25.895,17.245,27.58,39.087.122,1.979.217,20.125.217,22.301,0,2.884-.095,5.449-.389,8.403"/>
  <path class="uuid-50189cc1-f1ab-493b-ac50-90615c4d1b63" d="M266.04,87.066c-15.097-7.893-28.629-6.108-44.189-.343-31.831,13.706-54.451,40.403-71.085,70.132-11.826,22.547-18.982,43.457-20.594,69.011-.074,9.231,0,18.22.096,27.333v4.202c5.008.391,10.505,2.198,16.27,5.571-.048-1.295-.122-2.568-.17-3.911-.052-.975-.052-1.953-.052-2.954-.073-2.274-.073-4.519,0-6.792v-.17c0-1.147,0-2.321.052-3.494v-.291"/>
  <path class="uuid-50189cc1-f1ab-493b-ac50-90615c4d1b63" d="M284.043,275.795c-20.836-12.017-37.743-41.283-37.743-65.393s16.907-33.858,37.743-21.841c20.862,12.047,37.816,41.359,37.816,65.471s-16.954,33.857-37.816,21.764Z"/>
  <path class="uuid-50189cc1-f1ab-493b-ac50-90615c4d1b63" d="M284.043,264.364c-15.388-8.894-27.872-30.487-27.872-48.27s12.484-24.968,27.872-16.076c15.391,8.894,27.875,30.487,27.875,48.248s-12.484,24.991-27.875,16.098Z"/>
  <polyline class="uuid-50189cc1-f1ab-493b-ac50-90615c4d1b63" points="305.662 148.036 305.59 165.455 305.59 167.504"/>
  <path class="uuid-50189cc1-f1ab-493b-ac50-90615c4d1b63" d="M290.272,181.379c.295-3.028.389-5.641.389-8.595,0-2.226-.047-20.324-.217-22.351-.121-1.59-.295-3.154-.515-4.644-.147-.706-.195-1.342-.363-1.975-.052-.54-.174-1.051-.295-1.563-.048-.711-.221-1.421-.39-2.053-.073-.122-.073-.295-.121-.391-.125-.658-.294-1.173-.467-1.759-.122-.514-.243-.979-.413-1.442-.173-.636-.393-1.295-.636-1.928-.247-.758-.515-1.49-.806-2.2-.073-.174-.121-.295-.173-.343-.365-1-.828-1.855-1.221-2.737-.463-.975-1.001-1.902-1.586-2.782-.269-.588-.636-1.099-1.027-1.641-.415-.681-.931-1.317-1.416-1.903-.516-.758-1.075-1.464-1.737-2.1-.633-.758-1.27-1.395-1.954-2.027"/>
  <path class="uuid-50189cc1-f1ab-493b-ac50-90615c4d1b63" d="M277.251,118.892c-.291-.291-.512-.533-.802-.706-.71-.636-1.442-1.221-2.226-1.737-.853-.633-1.781-1.221-2.785-1.807-.438-.217-.975-.512-1.49-.758-.489-.29-.927-.511-1.464-.68-.048,0-.099-.052-.099-.052-1.759-.706-3.54-1.291-5.424-1.711-10.453-2.439-23.206-.048-36.982,7.918-34.372,19.858-62.486,67.005-64.513,107.312-.126,1.564-.174,19.225-.174,20.789,0,.806,0,1.612.048,2.443.074,1.612.126,3.249.294,4.887"/>
  <polyline class="uuid-50189cc1-f1ab-493b-ac50-90615c4d1b63" points="161.634 254.79 160.534 255.596 146.538 262.972"/>
  <path class="uuid-50189cc1-f1ab-493b-ac50-90615c4d1b63" d="M146.538,262.972c-.048-1.295-.122-2.568-.17-3.911-.052-.975-.052-1.953-.052-2.954"/>
  <path class="uuid-50189cc1-f1ab-493b-ac50-90615c4d1b63" d="M148.638,354.21c10.725,1.195,18.346-6.524,18.346-20.741,0-18.589-13.069-41.235-29.218-50.54-12.19-7.013-22.644-4.396-27.066,5.35"/>
  <path class="uuid-50189cc1-f1ab-493b-ac50-90615c4d1b63" d="M110.7,288.327c-1.39,3.149-2.148,6.987-2.148,11.457,0,18.635,13.069,41.235,29.214,50.517,3.764,2.198,7.428,3.492,10.751,3.835"/>
  <line class="uuid-8cf0c165-bdd4-4049-8a23-04c90a1af3a8" x1="263.085" y1="176.544" x2="264.475" y2="176.154"/>
  <line class="uuid-8cf0c165-bdd4-4049-8a23-04c90a1af3a8" x1="263.254" y1="176.496" x2="273.954" y2="170.289"/>
  <path class="uuid-50189cc1-f1ab-493b-ac50-90615c4d1b63" d="M272.391,129.812c-1.929-6.692-4.714-13.433-9.6-18.467"/>
  <line class="uuid-8cf0c165-bdd4-4049-8a23-04c90a1af3a8" x1="262.791" y1="111.345" x2="262.865" y2="111.345"/>
  <path class="uuid-50189cc1-f1ab-493b-ac50-90615c4d1b63" d="M273.123,175.322c2.321-10.383,1.685-34.711-.732-45.51"/>
  <line class="uuid-8cf0c165-bdd4-4049-8a23-04c90a1af3a8" x1="281.209" y1="95.833" x2="266.04" y2="87.066"/>
  <path class="uuid-50189cc1-f1ab-493b-ac50-90615c4d1b63" d="M305.59,167.504c0,1.858-.1,3.3-.221,5.158"/>
  <line class="uuid-8cf0c165-bdd4-4049-8a23-04c90a1af3a8" x1="305.369" y1="172.663" x2="290.272" y2="181.379"/>
  <path class="uuid-50189cc1-f1ab-493b-ac50-90615c4d1b63" d="M296.99,280.729h.074c9.82,3.665,18.467,2.565,24.622-2.439"/>
  <path class="uuid-50189cc1-f1ab-493b-ac50-90615c4d1b63" d="M146.711,231.775c-.052-.048,0-.169,0-.243v-1.147c0-.243.048-.515.12-.758,0-.511.096-1.048.17-1.612.073-1.173.243-2.322.415-3.495.173-1.39.343-2.782.636-4.176.243-1.634.511-3.249.854-4.887.585-3.127,1.296-6.276,2.174-9.404.391-1.564.854-3.197,1.317-4.761.343-1.151.71-2.322,1.053-3.469.121-.367.221-.758.341-1.126.711-2.075,1.391-4.103,2.224-6.204.853-2.443,1.858-4.885,2.884-7.256.585-1.514,1.221-2.954,1.927-4.422,3.371-7.304,7.208-14.581,11.605-21.958,4.47-7.134,9.478-14.169,14.923-20.887,1.343-1.685,2.737-3.323,4.18-4.934,1.391-1.638,2.856-3.275,4.372-4.839,1.317-1.391,2.612-2.708,3.933-4.003,1.101-1.149,2.322-2.322,3.54-3.371,7.503-7.013,15.759-13.168,24.748-17.929.121-.074.243-.125.341-.247,1.049-.586,2.054-1.099,3.076-1.564,1.931-.927,3.838-1.805,5.818-2.612,3.786-1.516,7.593-2.785,11.6-3.835.122,0,.243-.052.295-.052.122-.072.295-.072.415-.12.417-.048.755-.122,1.101-.173.169-.048.413-.048.585-.122.511-.12,1.049-.169,1.563-.221,2.149-.342,4.177-.585,6.157-.706,1.855-.122,3.664-.122,5.445,0,1.005.048,2.053.173,2.98.295,1.516.243,3.006.463,4.522.879,2.491.634,5.008,1.564,7.598,2.708.875.42,1.806.884,2.686,1.347-.343-.221-.758-.463-1.1-.637"/>
  <path class="uuid-50189cc1-f1ab-493b-ac50-90615c4d1b63" d="M146.368,245.65v-.291c.173-19.718,2.2-36.047,9.648-54.868,6.619-18.922,18.716-39.35,31.34-54.523,1.343-1.685,2.737-3.323,4.18-4.934,10.465-12.853,29.994-28.758,45.827-34.564,13.533-5.696,31.981-8.353,44.947,0,14.412,8.305,23.352,26.138,23.352,51.566"/>
  <line class="uuid-5a139c5e-12a9-43cd-a3f8-735d6f33f3ad" x1="176.093" y1="358.437" x2="134.226" y2="358.437"/>
  <line class="uuid-5a139c5e-12a9-43cd-a3f8-735d6f33f3ad" x1="179.637" y1="335.838" x2="168.547" y2="335.838"/>
  <line class="uuid-5a139c5e-12a9-43cd-a3f8-735d6f33f3ad" x1="119.641" y1="335.838" x2="114.607" y2="335.838"/>
  <line class="uuid-5a139c5e-12a9-43cd-a3f8-735d6f33f3ad" x1="174.409" y1="313.318" x2="164.467" y2="313.318"/>
  <line class="uuid-5a139c5e-12a9-43cd-a3f8-735d6f33f3ad" x1="108.625" y1="313.318" x2="103.739" y2="313.318"/>
  <line class="uuid-5a139c5e-12a9-43cd-a3f8-735d6f33f3ad" x1="162.145" y1="290.722" x2="150.202" y2="290.722"/>
  <line class="uuid-5a139c5e-12a9-43cd-a3f8-735d6f33f3ad" x1="107.915" y1="290.722" x2="99.905" y2="290.722"/>
  <line class="uuid-5a139c5e-12a9-43cd-a3f8-735d6f33f3ad" x1="137.939" y1="268.124" x2="107.624" y2="268.124"/>
  <line class="uuid-5a139c5e-12a9-43cd-a3f8-735d6f33f3ad" x1="275.227" y1="267.491" x2="249.085" y2="222.201"/>
  <line class="uuid-5a139c5e-12a9-43cd-a3f8-735d6f33f3ad" x1="294.499" y1="278.29" x2="288.928" y2="268.587"/>
  <line class="uuid-5a139c5e-12a9-43cd-a3f8-735d6f33f3ad" x1="254.949" y1="209.765" x2="249.332" y2="200.07"/>
  <line class="uuid-5a139c5e-12a9-43cd-a3f8-735d6f33f3ad" x1="307.469" y1="278.116" x2="302.167" y2="268.955"/>
  <line class="uuid-5a139c5e-12a9-43cd-a3f8-735d6f33f3ad" x1="261.275" y1="198.164" x2="255.95" y2="188.929"/>
  <line class="uuid-5a139c5e-12a9-43cd-a3f8-735d6f33f3ad" x1="316.167" y1="270.617" x2="310.818" y2="261.335"/>
  <line class="uuid-5a139c5e-12a9-43cd-a3f8-735d6f33f3ad" x1="272.148" y1="194.451" x2="266.798" y2="185.143"/>
  <line class="uuid-5a139c5e-12a9-43cd-a3f8-735d6f33f3ad" x1="320.001" y1="254.664" x2="313.552" y2="243.501"/>
  <line class="uuid-5a139c5e-12a9-43cd-a3f8-735d6f33f3ad" x1="288.976" y1="200.997" x2="282.553" y2="189.782"/>
  <line class="uuid-5a139c5e-12a9-43cd-a3f8-735d6f33f3ad" x1="283.359" y1="175.959" x2="276.202" y2="163.596"/>
  <line class="uuid-5a139c5e-12a9-43cd-a3f8-735d6f33f3ad" x1="288.976" y1="163.133" x2="275.518" y2="139.805"/>
  <line class="uuid-5a139c5e-12a9-43cd-a3f8-735d6f33f3ad" x1="287.031" y1="137.134" x2="276.949" y2="119.73"/>
  <line class="uuid-5a139c5e-12a9-43cd-a3f8-735d6f33f3ad" x1="325.619" y1="270.228" x2="320.513" y2="270.228"/>
  <line class="uuid-5a139c5e-12a9-43cd-a3f8-735d6f33f3ad" x1="328.99" y1="247.63" x2="323.298" y2="247.63"/>
  <line class="uuid-5a139c5e-12a9-43cd-a3f8-735d6f33f3ad" x1="323.25" y1="225.034" x2="316.973" y2="225.034"/>
  <line class="uuid-5a139c5e-12a9-43cd-a3f8-735d6f33f3ad" x1="310.351" y1="202.436" x2="302.977" y2="202.436"/>
  <line class="uuid-5a139c5e-12a9-43cd-a3f8-735d6f33f3ad" x1="283.531" y1="179.866" x2="260.127" y2="179.866"/>
  <line class="uuid-5a139c5e-12a9-43cd-a3f8-735d6f33f3ad" x1="159.606" y1="245.065" x2="148.053" y2="245.065"/>
  <line class="uuid-5a139c5e-12a9-43cd-a3f8-735d6f33f3ad" x1="160.023" y1="222.495" x2="149.37" y2="222.495"/>
  <line class="uuid-5a139c5e-12a9-43cd-a3f8-735d6f33f3ad" x1="164.419" y1="199.97" x2="154.598" y2="199.97"/>
  <line class="uuid-5a139c5e-12a9-43cd-a3f8-735d6f33f3ad" x1="292.983" y1="177.376" x2="292.594" y2="177.376"/>
  <line class="uuid-5a139c5e-12a9-43cd-a3f8-735d6f33f3ad" x1="173.139" y1="177.376" x2="163.44" y2="177.376"/>
  <line class="uuid-5a139c5e-12a9-43cd-a3f8-735d6f33f3ad" x1="303.977" y1="154.78" x2="292.225" y2="154.78"/>
  <line class="uuid-5a139c5e-12a9-43cd-a3f8-735d6f33f3ad" x1="186.378" y1="154.78" x2="175.803" y2="154.78"/>
  <line class="uuid-5a139c5e-12a9-43cd-a3f8-735d6f33f3ad" x1="302.756" y1="132.182" x2="288.05" y2="132.182"/>
  <line class="uuid-5a139c5e-12a9-43cd-a3f8-735d6f33f3ad" x1="205.897" y1="132.182" x2="192.757" y2="132.182"/>
  <line class="uuid-5a139c5e-12a9-43cd-a3f8-735d6f33f3ad" x1="294.499" y1="109.586" x2="256.153" y2="109.586"/>
  <line class="uuid-5a139c5e-12a9-43cd-a3f8-735d6f33f3ad" x1="254.302" y1="109.586" x2="217.085" y2="109.586"/>
  <line class="uuid-5a139c5e-12a9-43cd-a3f8-735d6f33f3ad" x1="206.29" y1="319.767" x2="205.069" y2="321.842"/>
  <line class="uuid-5a139c5e-12a9-43cd-a3f8-735d6f33f3ad" x1="203.454" y1="302.103" x2="201.768" y2="305.134"/>
  <line class="uuid-5a139c5e-12a9-43cd-a3f8-735d6f33f3ad" x1="198.155" y1="288.691" x2="196.419" y2="291.697"/>
  <line class="uuid-5a139c5e-12a9-43cd-a3f8-735d6f33f3ad" x1="191.606" y1="277.48" x2="190.02" y2="280.217"/>
  <line class="uuid-5a139c5e-12a9-43cd-a3f8-735d6f33f3ad" x1="184.059" y1="267.954" x2="182.717" y2="270.35"/>
  <line class="uuid-5a139c5e-12a9-43cd-a3f8-735d6f33f3ad" x1="175.63" y1="260.062" x2="174.581" y2="261.799"/>
  <line class="uuid-5a139c5e-12a9-43cd-a3f8-735d6f33f3ad" x1="166.056" y1="254.032" x2="165.592" y2="254.838"/>
  <line class="uuid-5a139c5e-12a9-43cd-a3f8-735d6f33f3ad" x1="133.464" y1="256.883" x2="131.639" y2="253.42"/>
  <line class="uuid-5a139c5e-12a9-43cd-a3f8-735d6f33f3ad" x1="144.631" y1="253.49" x2="131.735" y2="231.189"/>
  <line class="uuid-5a139c5e-12a9-43cd-a3f8-735d6f33f3ad" x1="145.094" y1="231.727" x2="133.298" y2="211.355"/>
  <line class="uuid-5a139c5e-12a9-43cd-a3f8-735d6f33f3ad" x1="147.637" y1="213.603" x2="136.838" y2="194.89"/>
  <line class="uuid-5a139c5e-12a9-43cd-a3f8-735d6f33f3ad" x1="151.692" y1="198.042" x2="141.603" y2="180.502"/>
  <line class="uuid-5a139c5e-12a9-43cd-a3f8-735d6f33f3ad" x1="156.748" y1="184.215" x2="147.122" y2="167.555"/>
  <line class="uuid-5a139c5e-12a9-43cd-a3f8-735d6f33f3ad" x1="162.514" y1="171.562" x2="153.204" y2="155.586"/>
  <line class="uuid-5a139c5e-12a9-43cd-a3f8-735d6f33f3ad" x1="168.79" y1="159.884" x2="159.949" y2="144.566"/>
  <line class="uuid-5a139c5e-12a9-43cd-a3f8-735d6f33f3ad" x1="175.582" y1="149.036" x2="167.032" y2="134.283"/>
  <line class="uuid-5a139c5e-12a9-43cd-a3f8-735d6f33f3ad" x1="182.838" y1="139.047" x2="174.581" y2="124.757"/>
  <line class="uuid-5a139c5e-12a9-43cd-a3f8-735d6f33f3ad" x1="190.506" y1="129.739" x2="182.543" y2="116.037"/>
  <line class="uuid-5a139c5e-12a9-43cd-a3f8-735d6f33f3ad" x1="198.571" y1="121.144" x2="191.02" y2="108.096"/>
  <line class="uuid-5a139c5e-12a9-43cd-a3f8-735d6f33f3ad" x1="207.096" y1="113.373" x2="199.962" y2="101.014"/>
  <line class="uuid-5a139c5e-12a9-43cd-a3f8-735d6f33f3ad" x1="216.107" y1="106.411" x2="209.44" y2="94.785"/>
  <line class="uuid-5a139c5e-12a9-43cd-a3f8-735d6f33f3ad" x1="225.637" y1="100.304" x2="219.434" y2="89.557"/>
  <line class="uuid-5a139c5e-12a9-43cd-a3f8-735d6f33f3ad" x1="235.751" y1="95.249" x2="230.203" y2="85.719"/>
  <line class="uuid-5a139c5e-12a9-43cd-a3f8-735d6f33f3ad" x1="246.546" y1="91.362" x2="242.076" y2="83.57"/>
  <line class="uuid-5a139c5e-12a9-43cd-a3f8-735d6f33f3ad" x1="258.394" y1="89.335" x2="255.95" y2="85.085"/>
</svg>