<?xml version="1.0" encoding="UTF-8"?>
<svg id="uuid-f7da1b00-3a93-42b0-84f1-98c54a6d62ec" data-name="&amp;lt;Layer&amp;gt;" xmlns="http://www.w3.org/2000/svg" viewBox="0 0 451.11 451.11">
  <defs>
    <style>
      .uuid-559d886f-b1a9-43cb-9cea-1cd146340aa5, .uuid-c7064c8e-39c7-4035-8b53-2323598283ea, .uuid-0cf51db0-50f6-4fc5-9559-8f21cefaae3e {
        fill: none;
        stroke: #000;
        stroke-linecap: round;
      }

      .uuid-559d886f-b1a9-43cb-9cea-1cd146340aa5, .uuid-0cf51db0-50f6-4fc5-9559-8f21cefaae3e {
        stroke-linejoin: round;
        stroke-width: 4.113px;
      }

      .uuid-c7064c8e-39c7-4035-8b53-2323598283ea {
        stroke-miterlimit: 10;
        stroke-width: 1.159px;
      }

      .uuid-0cf51db0-50f6-4fc5-9559-8f21cefaae3e {
        fill-rule: evenodd;
      }
    </style>
  </defs>
  <path class="uuid-0cf51db0-50f6-4fc5-9559-8f21cefaae3e" d="M99.769,248.057c-.121-.122-.242-.243-.294-.295-11.6-13.143-11.847-34.442-8.937-50.761,6.031-33.61,29.214-71.185,58.601-89.015"/>
  <path class="uuid-0cf51db0-50f6-4fc5-9559-8f21cefaae3e" d="M150.703,107.056c6.329-3.612,12.654-6.398,19.81-7.719,4.643-.828,9.408-1.001,14.048-.121"/>
  <path class="uuid-0cf51db0-50f6-4fc5-9559-8f21cefaae3e" d="M115.159,252.064q.048,0,0,.047s.048,0,.048.048"/>
  <polyline class="uuid-0cf51db0-50f6-4fc5-9559-8f21cefaae3e" points="124.685 276.734 124.613 276.734 112.327 269.603"/>
  <path class="uuid-0cf51db0-50f6-4fc5-9559-8f21cefaae3e" d="M112.327,269.603c-.537-.367-2.517-2.443-3.028-2.984-4.643-5.272-7.671-11.674-9.53-18.561-3.418-12.727-2.858-27.14-.632-39.208,6.861-38.156,33.173-80.881,66.614-101.157"/>
  <path class="uuid-0cf51db0-50f6-4fc5-9559-8f21cefaae3e" d="M167.532,106.644c5.523-3.128,11.042-5.744,17.028-7.428,1.733-.585,3.59-1.001,5.445-1.343,6.913-1.269,14.169-1.222,20.861,1.053"/>
  <polyline class="uuid-0cf51db0-50f6-4fc5-9559-8f21cefaae3e" points="210.867 98.925 212.215 99.388 222.594 105.371"/>
  <path class="uuid-0cf51db0-50f6-4fc5-9559-8f21cefaae3e" d="M194.597,320.169c-16.144-9.063-62.192-34.322-67.369-40.186-.905-1.049-1.785-2.149-2.543-3.249"/>
  <path class="uuid-0cf51db0-50f6-4fc5-9559-8f21cefaae3e" d="M117.309,261.98c-.295-1.101-.636-2.196-.88-3.297-.514-2.148-.927-4.25-1.221-6.45"/>
  <path class="uuid-0cf51db0-50f6-4fc5-9559-8f21cefaae3e" d="M115.207,252.159c0-.048-.048-.048-.048-.048q.048-.047,0-.047c-.636-4.887-.805-9.947-.463-15.097,1.564-32.467,19.81-69.815,38.034-91.826,5.276-6.377,11.895-13.168,19.519-19.445"/>
  <path class="uuid-0cf51db0-50f6-4fc5-9559-8f21cefaae3e" d="M172.297,125.696c5.397-4.424,11.263-8.551,17.37-11.848,1.903-1.123,3.882-2.102,5.862-2.954.073-.074.121-.074.243-.074,2.321-1.099,4.691-2.027,7.086-2.786,2.028-.706,4.007-1.221,6.034-1.61"/>
  <path class="uuid-0cf51db0-50f6-4fc5-9559-8f21cefaae3e" d="M208.94,106.423c4.544-1.053,9.063-1.417,13.654-1.053l.048.052c3.08.243,6.159.806,9.187,1.807"/>
  <path class="uuid-0cf51db0-50f6-4fc5-9559-8f21cefaae3e" d="M300.862,146.778c-.391-.195-.854-.295-1.269-.415-.122,0-.221-.048-.342-.122"/>
  <path class="uuid-0cf51db0-50f6-4fc5-9559-8f21cefaae3e" d="M313.541,156.23c-3.907-4.47-8.551-7.84-13.949-9.867-.122,0-.221-.048-.342-.122-12.484-4.691-28.46-2.541-45.948,7.499-5.034,2.907-9.993,6.329-14.732,10.21-6.033,4.935-11.799,10.579-17.197,16.782-6.277,7.16-12.021,15.049-17.075,23.354-4.592,7.549-8.647,15.438-12.065,23.525-7.16,17.124-11.337,34.958-11.337,51.497,0,18.294,5.056,32.29,13.702,41.062"/>
  <path class="uuid-0cf51db0-50f6-4fc5-9559-8f21cefaae3e" d="M194.675,320.243c3.466,3.59,7.645,6.324,12.311,8.01,0,0,0,.051.048.051"/>
  <path class="uuid-0cf51db0-50f6-4fc5-9559-8f21cefaae3e" d="M205.007,325.809c-11.675-15.508-11.8-38.913-8.551-57.085,7.035-39.307,34.2-83.326,68.568-104.237"/>
  <path class="uuid-0cf51db0-50f6-4fc5-9559-8f21cefaae3e" d="M266.957,163.391c7.377-4.133,14.754-7.452,23.18-9.015,4.128-.758,8.403-1.053,12.653-.637"/>
  <path class="uuid-0cf51db0-50f6-4fc5-9559-8f21cefaae3e" d="M334.083,168.957c.415.122.758.221,1.174.342.1.052.17.052.294.122.563.173,1.148.341,1.785.584"/>
  <polyline class="uuid-0cf51db0-50f6-4fc5-9559-8f21cefaae3e" points="337.336 170.006 313.541 156.23 312.955 155.889 311.561 155.426"/>
  <path class="uuid-0cf51db0-50f6-4fc5-9559-8f21cefaae3e" d="M311.561,155.426c-2.858-.928-5.814-1.516-8.772-1.686-4.25-.415-8.525-.121-12.653.637-8.425,1.563-15.803,4.882-23.18,9.015"/>
  <path class="uuid-0cf51db0-50f6-4fc5-9559-8f21cefaae3e" d="M265.024,164.487c-34.369,20.911-61.533,64.93-68.568,104.237-3.249,18.172-3.124,41.576,8.551,57.085.636.858,1.269,1.689,1.979,2.444,0,0,0,.051.048.051.584.633,2.491,2.613,3.005,3.028"/>
  <path class="uuid-0cf51db0-50f6-4fc5-9559-8f21cefaae3e" d="M334.55,210.829c-.467-.806-.858-1.686-1.394-2.444,0-.047-.048-.047-.048-.125-.247-.339-.463-.68-.71-.975-.048-.122-.096-.17-.17-.291-.173-.295-.341-.515-.588-.758-.17-.295-.391-.516-.559-.758-.343-.463-.758-.927-1.173-1.346"/>
  <path class="uuid-0cf51db0-50f6-4fc5-9559-8f21cefaae3e" d="M328.395,202.693c-.272-.295-.515-.537-.806-.758-.637-.511-1.347-1.049-2.031-1.442"/>
  <path class="uuid-0cf51db0-50f6-4fc5-9559-8f21cefaae3e" d="M325.487,200.423q-.052-.051-.099-.099c-.122-.074-.243-.196-.369-.247-.048-.048-.169-.122-.217-.17-.125-.047-.294-.173-.415-.243-.806-.463-1.737-.931-2.617-1.272-.512-.218-1.1-.465-1.611-.633-.538-.173-1.001-.295-1.516-.467-.048,0-.17-.07-.243-.07-1.101-.269-2.248-.515-3.423-.636-.632-.096-1.217-.096-1.853-.17-1.049-.099-2.076-.099-3.128-.051"/>
  <path class="uuid-0cf51db0-50f6-4fc5-9559-8f21cefaae3e" d="M309.876,196.366c-.88,0-1.685.125-2.565.221h-.393c-1.001.121-1.929.295-2.908.537-.754.099-1.464.341-2.196.514-1.343.343-2.686.806-4.081,1.343-.927.291-1.854.684-2.832,1.147-1.98.828-4.003,1.859-6.057,3.028-27.628,15.976-50.055,54.816-50.055,86.771,0,1.147.074,2.318.122,3.418,0,.758.048,1.564.169,2.322.126,1.855.421,3.664.758,5.349.052.391.174.806.247,1.223.217.974.439,1.953.732,2.832.295,1.001.585,1.906.928,2.785.293.758.588,1.464.953,2.101.221.562.441,1.147.758,1.685.048.048.048.096.095.169"/>
  <path class="uuid-0cf51db0-50f6-4fc5-9559-8f21cefaae3e" d="M243.629,311.812c.339.806.854,1.638,1.39,2.37.343.588.733,1.1,1.148,1.637.243.417.515.758.879,1.101.928,1.173,1.979,2.196,3.128,3.149,0,0,.074.052.121.1,0,0,.048,0,.048.074.589.389,1.173.853,1.859,1.316"/>
  <path class="uuid-0cf51db0-50f6-4fc5-9559-8f21cefaae3e" d="M252.275,321.559c0,.074.048.074.048.074.417.269.806.516,1.221.758,1.101.632,2.274,1.221,3.543,1.663.291.122.585.192.88.291.758.243,1.49.489,2.248.659.29.051.632.099.953.172.048,0,.095.048.169.048.511.12,1.101.172,1.685.221.221.073.439.073.685.073h.243c.806.122,1.615.17,2.417.17,6.819,0,14.416-2.198,22.478-6.84,3.881-2.222,7.667-4.96,11.259-7.914.415-.291.758-.633,1.125-.927,1.269-1.149,2.491-2.322,3.714-3.493"/>
  <path class="uuid-0cf51db0-50f6-4fc5-9559-8f21cefaae3e" d="M334.255,259.194c.659-1.807,1.171-3.664,1.685-5.445.465-1.859.954-3.666,1.295-5.523.1-.243.17-.537.17-.754"/>
  <path class="uuid-0cf51db0-50f6-4fc5-9559-8f21cefaae3e" d="M250.175,320.069s.074.052.121.1c0,0,.048,0,.048.074"/>
  <path class="uuid-0cf51db0-50f6-4fc5-9559-8f21cefaae3e" d="M300.104,310.934c.415-.291.758-.633,1.125-.927,1.269-1.149,2.491-2.322,3.714-3.493,12.653-12.653,23.4-29.95,29.313-47.32.659-1.807,1.171-3.664,1.685-5.445.465-1.859.954-3.666,1.295-5.523.1-.243.17-.537.17-.754,2.958-12.948,2.615-25.333-2.101-35.152-.217-.515-.511-.979-.754-1.49-.467-.806-.858-1.686-1.394-2.444,0-.047-.048-.047-.048-.125-.247-.339-.463-.68-.71-.975-.048-.122-.096-.17-.17-.291-.173-.295-.341-.515-.588-.758-.17-.295-.391-.516-.559-.758-.343-.463-.758-.927-1.173-1.346"/>
  <path class="uuid-0cf51db0-50f6-4fc5-9559-8f21cefaae3e" d="M264.683,325.64c-.339-.074-.633-.074-.975-.122-.247,0-.464,0-.685-.073-.584-.048-1.174-.1-1.685-.221-.074,0-.121-.048-.169-.048-.321-.074-.663-.122-.953-.172-.758-.17-1.49-.417-2.248-.659"/>
  <path class="uuid-0cf51db0-50f6-4fc5-9559-8f21cefaae3e" d="M243.629,311.812c25.355-.632,52.078-32.978,62.361-56.573,5.156-11.899,8.404-24.21,8.529-37.276-.052-7.476-1.221-15.148-4.595-21.597"/>
  <path class="uuid-0cf51db0-50f6-4fc5-9559-8f21cefaae3e" d="M335.551,169.422c-.125-.07-.195-.07-.294-.122-.415-.122-.758-.221-1.174-.342-4.224-1.39-8.816-1.979-13.753-1.805-9.232.341-19.638,3.542-30.558,9.819-.173.096-.393.217-.562.343-38.866,22.764-70.449,76.704-71.792,122.066-.052.975-.052,1.979-.052,2.954,0,11.164,1.859,20.741,5.35,28.46,2.152,5.008,4.986,9.235,8.403,12.654q.074.073.122.073c13.12,13.29,34.446,14.582,58.483.685,40.014-23.037,72.404-79.199,72.404-125.367.073-26.139-10.332-43.431-26.577-49.417Z"/>
  <path class="uuid-0cf51db0-50f6-4fc5-9559-8f21cefaae3e" d="M335.304,212.319c-.217-.515-.511-.979-.754-1.49-.467-.806-.858-1.686-1.394-2.444,0-.047-.048-.047-.048-.125-.247-.339-.463-.68-.71-.975-.048-.122-.096-.17-.17-.291-.173-.295-.341-.515-.588-.758-.17-.295-.391-.516-.559-.758-.343-.463-.758-.927-1.173-1.346"/>
  <polyline class="uuid-0cf51db0-50f6-4fc5-9559-8f21cefaae3e" points="126.492 189.672 131.769 192.7 192.232 227.61"/>
  <polyline class="uuid-0cf51db0-50f6-4fc5-9559-8f21cefaae3e" points="139.54 166.735 143.715 169.178 204.297 204.085"/>
  <line class="uuid-559d886f-b1a9-43cb-9cea-1cd146340aa5" x1="149.139" y1="107.986" x2="150.703" y2="107.056"/>
  <path class="uuid-0cf51db0-50f6-4fc5-9559-8f21cefaae3e" d="M195.772,110.82c-.122,0-.17,0-.243.074"/>
  <line class="uuid-559d886f-b1a9-43cb-9cea-1cd146340aa5" x1="124.222" y1="215.884" x2="124.222" y2="215.811"/>
  <line class="uuid-559d886f-b1a9-43cb-9cea-1cd146340aa5" x1="165.752" y1="107.693" x2="167.532" y2="106.644"/>
  <path class="uuid-0cf51db0-50f6-4fc5-9559-8f21cefaae3e" d="M222.594,105.371l.048.052"/>
  <line class="uuid-559d886f-b1a9-43cb-9cea-1cd146340aa5" x1="194.675" y1="320.243" x2="194.597" y2="320.169"/>
  <line class="uuid-559d886f-b1a9-43cb-9cea-1cd146340aa5" x1="124.685" y1="276.734" x2="124.613" y2="276.734"/>
  <path class="uuid-0cf51db0-50f6-4fc5-9559-8f21cefaae3e" d="M124.613,276.734c-3.249-4.47-5.667-9.353-7.256-14.68"/>
  <line class="uuid-559d886f-b1a9-43cb-9cea-1cd146340aa5" x1="117.357" y1="262.054" x2="117.309" y2="261.98"/>
  <line class="uuid-559d886f-b1a9-43cb-9cea-1cd146340aa5" x1="172.249" y1="125.696" x2="172.297" y2="125.696"/>
  <line class="uuid-559d886f-b1a9-43cb-9cea-1cd146340aa5" x1="208.892" y1="106.423" x2="208.94" y2="106.423"/>
  <line class="uuid-559d886f-b1a9-43cb-9cea-1cd146340aa5" x1="231.829" y1="107.229" x2="300.862" y2="146.778"/>
  <line class="uuid-559d886f-b1a9-43cb-9cea-1cd146340aa5" x1="143.715" y1="169.178" x2="204.297" y2="204.085"/>
  <path class="uuid-0cf51db0-50f6-4fc5-9559-8f21cefaae3e" d="M204.297,204.085c-4.592,7.549-8.647,15.438-12.065,23.525"/>
  <line class="uuid-559d886f-b1a9-43cb-9cea-1cd146340aa5" x1="192.232" y1="227.61" x2="131.769" y2="192.7"/>
  <line class="uuid-559d886f-b1a9-43cb-9cea-1cd146340aa5" x1="325.557" y1="200.493" x2="325.557" y2="200.423"/>
  <line class="uuid-559d886f-b1a9-43cb-9cea-1cd146340aa5" x1="252.275" y1="321.559" x2="252.202" y2="321.559"/>
  <line class="uuid-559d886f-b1a9-43cb-9cea-1cd146340aa5" x1="265.024" y1="164.487" x2="266.957" y2="163.391"/>
  <line class="uuid-559d886f-b1a9-43cb-9cea-1cd146340aa5" x1="210.039" y1="331.332" x2="231.119" y2="343.449"/>
  <path class="uuid-0cf51db0-50f6-4fc5-9559-8f21cefaae3e" d="M231.119,343.449q.074.073.122.073"/>
  <line class="uuid-559d886f-b1a9-43cb-9cea-1cd146340aa5" x1="329.907" y1="204.133" x2="329.859" y2="204.085"/>
  <path class="uuid-0cf51db0-50f6-4fc5-9559-8f21cefaae3e" d="M329.859,204.085c-.463-.537-.88-.975-1.395-1.343"/>
  <line class="uuid-559d886f-b1a9-43cb-9cea-1cd146340aa5" x1="309.997" y1="196.366" x2="309.876" y2="196.366"/>
  <line class="uuid-559d886f-b1a9-43cb-9cea-1cd146340aa5" x1="243.551" y1="311.812" x2="243.629" y2="311.812"/>
  <line class="uuid-559d886f-b1a9-43cb-9cea-1cd146340aa5" x1="208.84" y1="106.349" x2="275.091" y2="144.63"/>
  <line class="uuid-559d886f-b1a9-43cb-9cea-1cd146340aa5" x1="189.615" y1="113.774" x2="256.035" y2="152.177"/>
  <line class="uuid-559d886f-b1a9-43cb-9cea-1cd146340aa5" x1="172.249" y1="125.696" x2="238.497" y2="163.949"/>
  <line class="uuid-559d886f-b1a9-43cb-9cea-1cd146340aa5" x1="155.295" y1="142.577" x2="221.324" y2="180.683"/>
  <line class="uuid-559d886f-b1a9-43cb-9cea-1cd146340aa5" x1="180.775" y1="275.1" x2="114.571" y2="236.893"/>
  <line class="uuid-559d886f-b1a9-43cb-9cea-1cd146340aa5" x1="184.024" y1="250.378" x2="119.214" y2="212.977"/>
  <line class="uuid-559d886f-b1a9-43cb-9cea-1cd146340aa5" x1="182.754" y1="299.796" x2="117.309" y2="261.98"/>
  <line class="uuid-c7064c8e-39c7-4035-8b53-2323598283ea" x1="341.585" y1="286.09" x2="308.533" y2="305.12"/>
  <line class="uuid-c7064c8e-39c7-4035-8b53-2323598283ea" x1="270.916" y1="326.909" x2="236.469" y2="346.77"/>
  <line class="uuid-c7064c8e-39c7-4035-8b53-2323598283ea" x1="355.676" y1="251.89" x2="333.961" y2="264.422"/>
  <line class="uuid-c7064c8e-39c7-4035-8b53-2323598283ea" x1="244.704" y1="315.919" x2="223.057" y2="328.426"/>
  <line class="uuid-c7064c8e-39c7-4035-8b53-2323598283ea" x1="360.637" y1="222.971" x2="340.655" y2="234.524"/>
  <line class="uuid-c7064c8e-39c7-4035-8b53-2323598283ea" x1="237.47" y1="294.03" x2="218.807" y2="304.851"/>
  <line class="uuid-c7064c8e-39c7-4035-8b53-2323598283ea" x1="358.293" y1="198.223" x2="336.062" y2="211.046"/>
  <line class="uuid-c7064c8e-39c7-4035-8b53-2323598283ea" x1="240.818" y1="266.061" x2="221.836" y2="277.029"/>
  <line class="uuid-c7064c8e-39c7-4035-8b53-2323598283ea" x1="347.616" y1="178.289" x2="317.548" y2="195.658"/>
  <line class="uuid-c7064c8e-39c7-4035-8b53-2323598283ea" x1="258.357" y1="229.858" x2="233.146" y2="244.44"/>
  <line class="uuid-c7064c8e-39c7-4035-8b53-2323598283ea" x1="319.918" y1="168.199" x2="261.264" y2="202.109"/>
  <line class="uuid-c7064c8e-39c7-4035-8b53-2323598283ea" x1="264.929" y1="323.955" x2="257.088" y2="310.249"/>
  <line class="uuid-c7064c8e-39c7-4035-8b53-2323598283ea" x1="277.167" y1="322.49" x2="266.957" y2="304.851"/>
  <line class="uuid-c7064c8e-39c7-4035-8b53-2323598283ea" x1="287.571" y1="318.017" x2="275.971" y2="297.938"/>
  <line class="uuid-c7064c8e-39c7-4035-8b53-2323598283ea" x1="297.049" y1="311.74" x2="284.326" y2="289.756"/>
  <line class="uuid-c7064c8e-39c7-4035-8b53-2323598283ea" x1="305.627" y1="304.021" x2="292.042" y2="280.571"/>
  <line class="uuid-c7064c8e-39c7-4035-8b53-2323598283ea" x1="313.42" y1="295.032" x2="299.202" y2="270.335"/>
  <line class="uuid-c7064c8e-39c7-4035-8b53-2323598283ea" x1="320.55" y1="284.796" x2="305.627" y2="258.903"/>
  <line class="uuid-c7064c8e-39c7-4035-8b53-2323598283ea" x1="327" y1="273.363" x2="310.976" y2="245.613"/>
  <line class="uuid-c7064c8e-39c7-4035-8b53-2323598283ea" x1="332.571" y1="260.345" x2="314.858" y2="229.807"/>
  <line class="uuid-c7064c8e-39c7-4035-8b53-2323598283ea" x1="336.746" y1="245.077" x2="315.153" y2="207.701"/>
  <line class="uuid-c7064c8e-39c7-4035-8b53-2323598283ea" x1="336.648" y1="222.309" x2="324.972" y2="202.109"/>
  <line class="uuid-c7064c8e-39c7-4035-8b53-2323598283ea" x1="256.035" y1="307.928" x2="240.723" y2="281.425"/>
  <line class="uuid-c7064c8e-39c7-4035-8b53-2323598283ea" x1="275.434" y1="296.348" x2="248.953" y2="250.5"/>
  <line class="uuid-c7064c8e-39c7-4035-8b53-2323598283ea" x1="291.482" y1="278.934" x2="262.022" y2="228.027"/>
  <line class="uuid-c7064c8e-39c7-4035-8b53-2323598283ea" x1="304.6" y1="256.581" x2="278.288" y2="210.998"/>
  <line class="uuid-c7064c8e-39c7-4035-8b53-2323598283ea" x1="312.614" y1="225.289" x2="298.028" y2="200.03"/>
  <line class="uuid-c7064c8e-39c7-4035-8b53-2323598283ea" x1="146.866" y1="290.977" x2="138.318" y2="276.149"/>
  <line class="uuid-c7064c8e-39c7-4035-8b53-2323598283ea" x1="166.51" y1="302.334" x2="157.906" y2="287.411"/>
  <line class="uuid-c7064c8e-39c7-4035-8b53-2323598283ea" x1="185.831" y1="313.208" x2="177.478" y2="298.744"/>
  <line class="uuid-c7064c8e-39c7-4035-8b53-2323598283ea" x1="113.769" y1="253.844" x2="101.161" y2="246.592"/>
  <line class="uuid-c7064c8e-39c7-4035-8b53-2323598283ea" x1="113.938" y1="227.953" x2="99.258" y2="219.427"/>
  <line class="uuid-c7064c8e-39c7-4035-8b53-2323598283ea" x1="119.214" y1="204.891" x2="103.655" y2="195.901"/>
  <line class="uuid-c7064c8e-39c7-4035-8b53-2323598283ea" x1="127.471" y1="183.591" x2="111.569" y2="174.404"/>
  <line class="uuid-c7064c8e-39c7-4035-8b53-2323598283ea" x1="137.976" y1="163.608" x2="122.243" y2="154.497"/>
  <line class="uuid-c7064c8e-39c7-4035-8b53-2323598283ea" x1="150.873" y1="144.971" x2="135.607" y2="136.153"/>
  <line class="uuid-c7064c8e-39c7-4035-8b53-2323598283ea" x1="166.973" y1="128.139" x2="151.972" y2="119.54"/>
  <line class="uuid-c7064c8e-39c7-4035-8b53-2323598283ea" x1="186.831" y1="113.557" x2="172.882" y2="105.543"/>
  <line class="uuid-c7064c8e-39c7-4035-8b53-2323598283ea" x1="214.58" y1="103.516" x2="209.283" y2="100.485"/>
  <line class="uuid-c7064c8e-39c7-4035-8b53-2323598283ea" x1="95.594" y1="222.43" x2="90.88" y2="214.247"/>
  <line class="uuid-c7064c8e-39c7-4035-8b53-2323598283ea" x1="98.132" y1="204.258" x2="92.734" y2="194.926"/>
  <line class="uuid-c7064c8e-39c7-4035-8b53-2323598283ea" x1="102.382" y1="188.988" x2="96.911" y2="179.51"/>
  <line class="uuid-c7064c8e-39c7-4035-8b53-2323598283ea" x1="107.562" y1="175.408" x2="102.212" y2="166.173"/>
  <line class="uuid-c7064c8e-39c7-4035-8b53-2323598283ea" x1="113.549" y1="163.145" x2="108.368" y2="154.203"/>
  <line class="uuid-c7064c8e-39c7-4035-8b53-2323598283ea" x1="120.094" y1="151.932" x2="115.207" y2="143.455"/>
  <line class="uuid-c7064c8e-39c7-4035-8b53-2323598283ea" x1="127.13" y1="141.598" x2="122.585" y2="133.757"/>
  <line class="uuid-c7064c8e-39c7-4035-8b53-2323598283ea" x1="134.727" y1="132.146" x2="130.599" y2="124.989"/>
  <line class="uuid-c7064c8e-39c7-4035-8b53-2323598283ea" x1="142.737" y1="123.473" x2="139.149" y2="117.266"/>
  <line class="uuid-c7064c8e-39c7-4035-8b53-2323598283ea" x1="151.288" y1="115.707" x2="148.382" y2="110.599"/>
  <line class="uuid-c7064c8e-39c7-4035-8b53-2323598283ea" x1="160.351" y1="108.792" x2="158.301" y2="105.249"/>
  <line class="uuid-c7064c8e-39c7-4035-8b53-2323598283ea" x1="170.023" y1="102.98" x2="169.221" y2="101.584"/>
  <line class="uuid-c7064c8e-39c7-4035-8b53-2323598283ea" x1="223.231" y1="112.384" x2="220.199" y2="107.107"/>
  <line class="uuid-c7064c8e-39c7-4035-8b53-2323598283ea" x1="242.919" y1="123.889" x2="235.836" y2="111.578"/>
  <line class="uuid-c7064c8e-39c7-4035-8b53-2323598283ea" x1="262.486" y1="135.2" x2="255.277" y2="122.716"/>
  <line class="uuid-c7064c8e-39c7-4035-8b53-2323598283ea" x1="279.732" y1="142.477" x2="274.845" y2="134.003"/>
  <line class="uuid-c7064c8e-39c7-4035-8b53-2323598283ea" x1="122.365" y1="262.69" x2="117.478" y2="254.212"/>
  <line class="uuid-c7064c8e-39c7-4035-8b53-2323598283ea" x1="142.325" y1="274.707" x2="124.928" y2="244.514"/>
  <line class="uuid-c7064c8e-39c7-4035-8b53-2323598283ea" x1="161.841" y1="285.969" x2="144.422" y2="255.824"/>
  <line class="uuid-c7064c8e-39c7-4035-8b53-2323598283ea" x1="180.895" y1="296.348" x2="164.067" y2="267.16"/>
  <line class="uuid-c7064c8e-39c7-4035-8b53-2323598283ea" x1="123.123" y1="239.631" x2="117.187" y2="229.344"/>
  <line class="uuid-c7064c8e-39c7-4035-8b53-2323598283ea" x1="143.152" y1="251.77" x2="122.88" y2="216.642"/>
  <line class="uuid-c7064c8e-39c7-4035-8b53-2323598283ea" x1="162.719" y1="263.032" x2="142.468" y2="227.953"/>
  <line class="uuid-c7064c8e-39c7-4035-8b53-2323598283ea" x1="179.921" y1="270.236" x2="162.087" y2="239.336"/>
  <line class="uuid-c7064c8e-39c7-4035-8b53-2323598283ea" x1="182.239" y1="251.722" x2="182.165" y2="251.648"/>
  <line class="uuid-c7064c8e-39c7-4035-8b53-2323598283ea" x1="127.766" y1="215.689" x2="122.243" y2="206.163"/>
  <line class="uuid-c7064c8e-39c7-4035-8b53-2323598283ea" x1="147.796" y1="227.832" x2="126.761" y2="191.43"/>
  <line class="uuid-c7064c8e-39c7-4035-8b53-2323598283ea" x1="167.362" y1="239.163" x2="146.281" y2="202.693"/>
  <line class="uuid-c7064c8e-39c7-4035-8b53-2323598283ea" x1="184.509" y1="246.176" x2="165.968" y2="214.078"/>
  <line class="uuid-c7064c8e-39c7-4035-8b53-2323598283ea" x1="188.785" y1="231.029" x2="186.003" y2="226.268"/>
  <line class="uuid-c7064c8e-39c7-4035-8b53-2323598283ea" x1="135.948" y1="192.947" x2="130.842" y2="184.054"/>
  <line class="uuid-c7064c8e-39c7-4035-8b53-2323598283ea" x1="155.979" y1="205.016" x2="136.412" y2="171.157"/>
  <line class="uuid-c7064c8e-39c7-4035-8b53-2323598283ea" x1="175.667" y1="216.569" x2="151.851" y2="175.286"/>
  <line class="uuid-c7064c8e-39c7-4035-8b53-2323598283ea" x1="192.864" y1="223.777" x2="171.491" y2="186.718"/>
  <line class="uuid-c7064c8e-39c7-4035-8b53-2323598283ea" x1="198.435" y1="210.829" x2="191.474" y2="198.809"/>
  <line class="uuid-c7064c8e-39c7-4035-8b53-2323598283ea" x1="148.26" y1="169.594" x2="143.374" y2="161.069"/>
  <line class="uuid-c7064c8e-39c7-4035-8b53-2323598283ea" x1="168.29" y1="181.611" x2="150.067" y2="150.027"/>
  <line class="uuid-c7064c8e-39c7-4035-8b53-2323598283ea" x1="188.103" y1="193.338" x2="161.671" y2="147.632"/>
  <line class="uuid-c7064c8e-39c7-4035-8b53-2323598283ea" x1="205.518" y1="200.957" x2="181.312" y2="159.016"/>
  <line class="uuid-c7064c8e-39c7-4035-8b53-2323598283ea" x1="212.215" y1="189.919" x2="201.342" y2="171.107"/>
  <line class="uuid-c7064c8e-39c7-4035-8b53-2323598283ea" x1="165.383" y1="146.193" x2="160.987" y2="138.522"/>
  <line class="uuid-c7064c8e-39c7-4035-8b53-2323598283ea" x1="185.366" y1="158.137" x2="169" y2="129.75"/>
  <line class="uuid-c7064c8e-39c7-4035-8b53-2323598283ea" x1="205.055" y1="169.715" x2="184.73" y2="134.515"/>
  <line class="uuid-c7064c8e-39c7-4035-8b53-2323598283ea" x1="222.764" y1="177.777" x2="204.37" y2="145.9"/>
  <line class="uuid-c7064c8e-39c7-4035-8b53-2323598283ea" x1="230.607" y1="168.788" x2="224.326" y2="157.868"/>
  <line class="uuid-c7064c8e-39c7-4035-8b53-2323598283ea" x1="201.979" y1="118.661" x2="197.972" y2="111.746"/>
  <line class="uuid-c7064c8e-39c7-4035-8b53-2323598283ea" x1="221.836" y1="130.508" x2="209.061" y2="108.329"/>
  <line class="uuid-c7064c8e-39c7-4035-8b53-2323598283ea" x1="241.403" y1="141.771" x2="228.628" y2="119.662"/>
  <line class="uuid-c7064c8e-39c7-4035-8b53-2323598283ea" x1="258.773" y1="149.317" x2="248.195" y2="131.019"/>
  <line class="uuid-c7064c8e-39c7-4035-8b53-2323598283ea" x1="269.057" y1="144.552" x2="268.056" y2="142.867"/>
  <line class="uuid-c7064c8e-39c7-4035-8b53-2323598283ea" x1="183.217" y1="129.824" x2="179.163" y2="122.716"/>
  <line class="uuid-c7064c8e-39c7-4035-8b53-2323598283ea" x1="203.2" y1="141.719" x2="188.273" y2="115.875"/>
  <line class="uuid-c7064c8e-39c7-4035-8b53-2323598283ea" x1="222.764" y1="153.033" x2="206.864" y2="125.526"/>
  <line class="uuid-c7064c8e-39c7-4035-8b53-2323598283ea" x1="240.428" y1="161.069" x2="226.428" y2="136.907"/>
  <line class="uuid-c7064c8e-39c7-4035-8b53-2323598283ea" x1="249.295" y1="153.909" x2="246.337" y2="148.806"/>
  <line class="uuid-c7064c8e-39c7-4035-8b53-2323598283ea" x1="194.134" y1="303.556" x2="184.902" y2="298.281"/>
  <line class="uuid-c7064c8e-39c7-4035-8b53-2323598283ea" x1="193.55" y1="277.197" x2="182.923" y2="271.042"/>
  <line class="uuid-c7064c8e-39c7-4035-8b53-2323598283ea" x1="198.263" y1="253.844" x2="187.099" y2="247.398"/>
  <line class="uuid-c7064c8e-39c7-4035-8b53-2323598283ea" x1="206.228" y1="232.371" x2="194.771" y2="225.752"/>
  <line class="uuid-c7064c8e-39c7-4035-8b53-2323598283ea" x1="216.781" y1="212.392" x2="205.176" y2="205.648"/>
  <line class="uuid-c7064c8e-39c7-4035-8b53-2323598283ea" x1="229.924" y1="193.875" x2="218.123" y2="187.06"/>
  <line class="uuid-c7064c8e-39c7-4035-8b53-2323598283ea" x1="245.753" y1="176.971" x2="233.857" y2="170.106"/>
  <line class="uuid-c7064c8e-39c7-4035-8b53-2323598283ea" x1="265.441" y1="162.264" x2="253.618" y2="155.426"/>
  <line class="uuid-c7064c8e-39c7-4035-8b53-2323598283ea" x1="292.922" y1="152.055" x2="282.052" y2="145.774"/>
</svg>