<?xml version="1.0" encoding="UTF-8"?>
<svg id="uuid-a7cdfe97-d2d5-4c36-8514-a8349fa32f75" data-name="&amp;lt;Layer&amp;gt;" xmlns="http://www.w3.org/2000/svg" viewBox="0 0 451.11 451.11">
  <defs>
    <style>
      .uuid-5b3a118b-4e9c-4336-8d34-1be894ffb23a, .uuid-8d19ed5c-8a5f-4626-8728-9e655666cdba, .uuid-7dbfb125-5a99-482d-af85-50b2e489c89d {
        fill: none;
        stroke: #000;
        stroke-linecap: round;
      }

      .uuid-5b3a118b-4e9c-4336-8d34-1be894ffb23a, .uuid-7dbfb125-5a99-482d-af85-50b2e489c89d {
        stroke-linejoin: round;
        stroke-width: 4.113px;
      }

      .uuid-8d19ed5c-8a5f-4626-8728-9e655666cdba {
        stroke-miterlimit: 10;
        stroke-width: 1.163px;
      }

      .uuid-7dbfb125-5a99-482d-af85-50b2e489c89d {
        fill-rule: evenodd;
      }
    </style>
  </defs>
  <polyline class="uuid-7dbfb125-5a99-482d-af85-50b2e489c89d" points="252.218 97.28 240.837 90.713 232.434 95.573 164.987 134.463"/>
  <polyline class="uuid-7dbfb125-5a99-482d-af85-50b2e489c89d" points="176.37 141.031 243.814 102.145 252.218 97.28"/>
  <polyline class="uuid-7dbfb125-5a99-482d-af85-50b2e489c89d" points="299.78 271.575 299.828 134.559 299.828 124.839 252.218 97.28 243.814 102.145 176.37 141.031"/>
  <polygon class="uuid-7dbfb125-5a99-482d-af85-50b2e489c89d" points="273.985 274.483 188.461 323.852 188.461 242.826 273.985 193.455 273.985 274.483"/>
  <polygon class="uuid-7dbfb125-5a99-482d-af85-50b2e489c89d" points="273.985 247.465 252.633 259.802 252.633 286.819 273.985 274.483 273.985 247.465"/>
  <polygon class="uuid-7dbfb125-5a99-482d-af85-50b2e489c89d" points="231.26 272.164 252.633 259.802 252.633 286.819 231.26 299.156 231.26 272.164"/>
  <polygon class="uuid-7dbfb125-5a99-482d-af85-50b2e489c89d" points="188.461 296.834 209.835 284.498 209.835 311.516 188.461 323.852 188.461 296.834"/>
  <polygon class="uuid-7dbfb125-5a99-482d-af85-50b2e489c89d" points="231.26 272.164 209.835 284.498 209.835 311.516 231.26 299.156 231.26 272.164"/>
  <polygon class="uuid-7dbfb125-5a99-482d-af85-50b2e489c89d" points="273.985 193.455 252.633 205.792 252.633 232.81 273.985 220.447 273.985 193.455"/>
  <polygon class="uuid-7dbfb125-5a99-482d-af85-50b2e489c89d" points="231.26 218.129 252.633 205.792 252.633 232.81 231.26 245.146 231.26 218.129"/>
  <polygon class="uuid-7dbfb125-5a99-482d-af85-50b2e489c89d" points="231.26 218.129 209.835 230.488 209.835 257.506 231.26 245.146 231.26 218.129"/>
  <path class="uuid-7dbfb125-5a99-482d-af85-50b2e489c89d" d="M164.987,134.463c-8.014,5.078-13.216,14.166-13.632,23.622"/>
  <line class="uuid-5b3a118b-4e9c-4336-8d34-1be894ffb23a" x1="151.355" y1="158.085" x2="151.281" y2="344.077"/>
  <path class="uuid-7dbfb125-5a99-482d-af85-50b2e489c89d" d="M151.281,344.077c.415,4.276.585,6.038,4.007,8.82"/>
  <line class="uuid-5b3a118b-4e9c-4336-8d34-1be894ffb23a" x1="155.288" y1="352.897" x2="166.698" y2="359.494"/>
  <path class="uuid-7dbfb125-5a99-482d-af85-50b2e489c89d" d="M166.698,359.494c-3.444-2.806-3.616-4.543-4.033-8.819"/>
  <line class="uuid-5b3a118b-4e9c-4336-8d34-1be894ffb23a" x1="162.665" y1="350.675" x2="162.739" y2="164.653"/>
  <path class="uuid-7dbfb125-5a99-482d-af85-50b2e489c89d" d="M162.739,164.653c.415-9.453,5.692-18.54,13.631-23.622"/>
  <line class="uuid-5b3a118b-4e9c-4336-8d34-1be894ffb23a" x1="176.32" y1="358.541" x2="286.127" y2="295.175"/>
  <path class="uuid-7dbfb125-5a99-482d-af85-50b2e489c89d" d="M286.127,295.175c7.547-4.324,13.654-14.927,13.654-23.6"/>
  <path class="uuid-7dbfb125-5a99-482d-af85-50b2e489c89d" d="M162.665,350.675c0,8.646,6.108,12.216,13.655,7.866"/>
  <line class="uuid-5b3a118b-4e9c-4336-8d34-1be894ffb23a" x1="165.402" y1="153.858" x2="154.019" y2="147.286"/>
  <path class="uuid-7dbfb125-5a99-482d-af85-50b2e489c89d" d="M154.019,147.286c-1.685,3.592-2.491,6.866-2.663,10.799"/>
  <path class="uuid-7dbfb125-5a99-482d-af85-50b2e489c89d" d="M162.739,164.653c.173-3.93.979-7.23,2.663-10.795"/>
  <line class="uuid-8d19ed5c-8a5f-4626-8728-9e655666cdba" x1="266.559" y1="253.672" x2="254.37" y2="274.898"/>
  <line class="uuid-8d19ed5c-8a5f-4626-8728-9e655666cdba" x1="245.061" y1="266.082" x2="232.945" y2="287.113"/>
  <line class="uuid-8d19ed5c-8a5f-4626-8728-9e655666cdba" x1="223.834" y1="278.368" x2="211.572" y2="299.593"/>
  <line class="uuid-8d19ed5c-8a5f-4626-8728-9e655666cdba" x1="202.384" y1="290.753" x2="190.198" y2="311.861"/>
  <line class="uuid-8d19ed5c-8a5f-4626-8728-9e655666cdba" x1="256.592" y1="232.125" x2="235.951" y2="267.863"/>
  <line class="uuid-8d19ed5c-8a5f-4626-8728-9e655666cdba" x1="217.507" y1="254.698" x2="196.818" y2="290.436"/>
  <line class="uuid-8d19ed5c-8a5f-4626-8728-9e655666cdba" x1="201.457" y1="237.307" x2="190.198" y2="256.774"/>
  <line class="uuid-8d19ed5c-8a5f-4626-8728-9e655666cdba" x1="223.882" y1="224.307" x2="211.572" y2="245.658"/>
  <line class="uuid-8d19ed5c-8a5f-4626-8728-9e655666cdba" x1="245.135" y1="212.047" x2="232.945" y2="233.2"/>
  <line class="uuid-8d19ed5c-8a5f-4626-8728-9e655666cdba" x1="266.681" y1="199.611" x2="254.37" y2="220.936"/>
  <line class="uuid-8d19ed5c-8a5f-4626-8728-9e655666cdba" x1="160.932" y1="348.5" x2="153.165" y2="335.015"/>
  <line class="uuid-8d19ed5c-8a5f-4626-8728-9e655666cdba" x1="160.932" y1="325.928" x2="153.165" y2="312.446"/>
  <line class="uuid-8d19ed5c-8a5f-4626-8728-9e655666cdba" x1="160.98" y1="303.38" x2="153.213" y2="289.899"/>
  <line class="uuid-8d19ed5c-8a5f-4626-8728-9e655666cdba" x1="160.98" y1="280.836" x2="153.213" y2="267.351"/>
  <line class="uuid-8d19ed5c-8a5f-4626-8728-9e655666cdba" x1="160.98" y1="258.264" x2="153.213" y2="244.779"/>
  <line class="uuid-8d19ed5c-8a5f-4626-8728-9e655666cdba" x1="160.98" y1="235.691" x2="153.213" y2="222.21"/>
  <line class="uuid-8d19ed5c-8a5f-4626-8728-9e655666cdba" x1="160.98" y1="213.143" x2="153.213" y2="199.662"/>
  <line class="uuid-8d19ed5c-8a5f-4626-8728-9e655666cdba" x1="160.98" y1="190.574" x2="153.213" y2="177.09"/>
  <line class="uuid-8d19ed5c-8a5f-4626-8728-9e655666cdba" x1="160.98" y1="168.001" x2="153.507" y2="155.006"/>
  <line class="uuid-8d19ed5c-8a5f-4626-8728-9e655666cdba" x1="175.514" y1="139.471" x2="171.679" y2="132.727"/>
  <line class="uuid-8d19ed5c-8a5f-4626-8728-9e655666cdba" x1="195.081" y1="128.184" x2="191.247" y2="121.443"/>
  <line class="uuid-8d19ed5c-8a5f-4626-8728-9e655666cdba" x1="214.651" y1="116.899" x2="210.766" y2="110.18"/>
  <line class="uuid-8d19ed5c-8a5f-4626-8728-9e655666cdba" x1="234.214" y1="105.636" x2="230.332" y2="98.896"/>
</svg>