<?xml version="1.0" encoding="UTF-8"?>
<svg id="uuid-de07e8dd-862e-4ce4-9b5b-819454954e6b" data-name="&amp;lt;Layer&amp;gt;" xmlns="http://www.w3.org/2000/svg" viewBox="0 0 451.11 451.11">
  <defs>
    <style>
      .uuid-c6425b0d-62f2-49af-9dfb-5d24028b8872 {
        stroke-width: 4.117px;
      }

      .uuid-c6425b0d-62f2-49af-9dfb-5d24028b8872, .uuid-d145c240-8697-4047-a007-07faf6348845, .uuid-6f3e0015-0fdc-4c31-9c51-b05a5f13171c, .uuid-3cf7be62-8760-4968-80a5-faa4c7809434, .uuid-27b440bd-8316-42fa-9d53-0573cfc30f51 {
        fill: none;
        stroke: #000;
        stroke-linecap: round;
      }

      .uuid-c6425b0d-62f2-49af-9dfb-5d24028b8872, .uuid-d145c240-8697-4047-a007-07faf6348845, .uuid-27b440bd-8316-42fa-9d53-0573cfc30f51 {
        stroke-linejoin: round;
      }

      .uuid-d145c240-8697-4047-a007-07faf6348845, .uuid-27b440bd-8316-42fa-9d53-0573cfc30f51 {
        stroke-width: 4.113px;
      }

      .uuid-6f3e0015-0fdc-4c31-9c51-b05a5f13171c {
        stroke-width: 1.163px;
      }

      .uuid-6f3e0015-0fdc-4c31-9c51-b05a5f13171c, .uuid-3cf7be62-8760-4968-80a5-faa4c7809434 {
        stroke-miterlimit: 10;
      }

      .uuid-3cf7be62-8760-4968-80a5-faa4c7809434 {
        stroke-width: 1.159px;
      }

      .uuid-27b440bd-8316-42fa-9d53-0573cfc30f51 {
        fill-rule: evenodd;
      }
    </style>
  </defs>
  <line class="uuid-c6425b0d-62f2-49af-9dfb-5d24028b8872" x1="161.622" y1="186.96" x2="144.197" y2="176.983"/>
  <path class="uuid-27b440bd-8316-42fa-9d53-0573cfc30f51" d="M212.262,183.314c-.196-.975-.243-2.027-.243-3.175,0-5.273,1.438-10.99,3.881-16.439,2.395-5.23,2.565-10.111.586-13.069-2.153-3.521-6.652-2.252-9.696-.615-6.067,3.261-14.227,9.648-20.033,13.731-8.363,5.892-17.738,11.546-22.93,20.582-.979,1.708-1.961,3.485-2.244,5.453-.092.655-.162,1.406-.209,2.244-.401,7.031.72,19.987,1.655,29.542,1.45,14.78,6.185,38.983-17.211,41.429-8.974,0-17.953,8.547-22.643,15.464-4.378,6.439-6.791,12.348-8.135,20.009-.678,6.255-.427,13.952,5.224,17.955,3.959,2.686,9.578,2.565,15.855-1.053,3.469-1.979,6.744-4.813,9.529-8.183"/>
  <path class="uuid-27b440bd-8316-42fa-9d53-0573cfc30f51" d="M252.786,272.186c1.741.702,4.011,3.83,4.644,5.397,1.909,4.376,2.182,12.261.684,17.002-1.078,4.448-3.267,8.82-1.905,13.485,1.839,5.056,6.214,5.376,10.868,2.27,9.114-6.155,18.224-12.727,27.286-19.636-12.506-63.801-65.026-87.606-129.272-54.985"/>
  <path class="uuid-27b440bd-8316-42fa-9d53-0573cfc30f51" d="M145.646,307.192c.928-1.053,1.807-2.149,2.613-3.249,3.297-4.592,7.424-7.135,10.968-6.913,4.298.243,5.276,4.205,5.276,7.671,0,7.641-.776,16.523-1.317,24.158-.11,2.101-2.042,13.974-1.99,22.403.051,8.349,2.678,12.436,11.859,8.768,12.017-4.691,23.988-9.919,35.836-15.784,3.76-1.929,7.131-5.762,9.283-10.575.975-2.222,1.571-4.36,1.773-6.311.622-6.008-3.678-8.786-3.678-16.626,0-13.659,9.573-30.197,21.351-37.037,1.001-.585,1.927-1.049,2.856-1.39"/>
  <path class="uuid-27b440bd-8316-42fa-9d53-0573cfc30f51" d="M240.233,187.247c-4.239,4.346-11.307,8.643-17.503,8.114-6.416-.776-9.729-5.398-10.467-11.969"/>
  <path class="uuid-27b440bd-8316-42fa-9d53-0573cfc30f51" d="M294.363,290.704c1.221-.931,2.443-1.859,3.664-2.785,6.45-5.008,13.07-13.874,11.896-20.572-2.735-15.096-4.42-30.656-5.35-46.731-.169-3.445.883-7.157,3.032-10.917,2.148-3.786,4.811-6.498,7.888-8.086,2.737-1.439,5.519-2.149,8.014-2.149,2.954.074,6.329-.853,9.893-2.88,11.774-6.818,21.348-23.426,21.348-37.059,0-2.565-.343-4.886-.975-6.865h0"/>
  <line class="uuid-d145c240-8697-4047-a007-07faf6348845" x1="141.64" y1="244.779" x2="159.985" y2="255.353"/>
  <path class="uuid-27b440bd-8316-42fa-9d53-0573cfc30f51" d="M101.921,305.822c-3.422-2.589-4.643-5.692-5.349-9.793-.684-6.034.341-11.19,2.366-16.882,3.031-7.84,7.208-14.265,13.437-19.935,3.421-2.88,6.791-5.078,11.141-6.277,4.077-.953,5.982-.096,10.431-1.891,6.351-2.737,10.847-9.364,12.043-16.038.879-5.567-.415-17.002-.806-23.037-.588-8.963-1.342-17.903-2.222-26.771-.927-9.113,4.993-16.748,11.748-22.083,5.842-4.372,11.833-8.684,17.831-12.827,3.885-2.734,7.723-5.349,11.652-7.962,3.411-2.218,7.892-6.093,12.141-4.007"/>
  <line class="uuid-d145c240-8697-4047-a007-07faf6348845" x1="120.263" y1="316.401" x2="101.921" y2="305.822"/>
  <line class="uuid-d145c240-8697-4047-a007-07faf6348845" x1="145.231" y1="349.526" x2="163.602" y2="360.101"/>
  <path class="uuid-27b440bd-8316-42fa-9d53-0573cfc30f51" d="M145.646,307.192c-.073.758-.121,1.512-.173,2.1-.463,7.547-1.001,15.097-1.633,22.644-.467,5.058-2.785,14.169,1.39,17.59"/>
  <path class="uuid-27b440bd-8316-42fa-9d53-0573cfc30f51" d="M240.524,301.036c-2.418-1.616-3.076-4.055-3.076-6.841.243-5.523,2.906-10.579,3.271-17.197.051-1.564,0-3.128-.243-4.691,4.765-2.05,9.061-1.979,12.31-.122"/>
  <line class="uuid-d145c240-8697-4047-a007-07faf6348845" x1="258.894" y1="311.662" x2="240.524" y2="301.036"/>
  <path class="uuid-27b440bd-8316-42fa-9d53-0573cfc30f51" d="M329.442,134.729c-4.296-1.855-8.083-1.049-12.189.757-5.228,2.539-8.183,5.25-11.211,8.746"/>
  <line class="uuid-d145c240-8697-4047-a007-07faf6348845" x1="347.567" y1="145.232" x2="329.442" y2="134.729"/>
  <line class="uuid-d145c240-8697-4047-a007-07faf6348845" x1="288.429" y1="90.344" x2="306.505" y2="100.823"/>
  <line class="uuid-d145c240-8697-4047-a007-07faf6348845" x1="212.262" y1="183.314" x2="212.262" y2="183.392"/>
  <path class="uuid-27b440bd-8316-42fa-9d53-0573cfc30f51" d="M212.262,183.314c15.268-6.424,30.413-32.806,21.473-49.05-3.249-5.864-2.665-10.994.205-16.792,3.68-6.881,6.461-8.172,13.206-11.542,5.349-2.665,10.795-5.254,16.266-7.771,5.008-2.296,10.041-4.518,15.096-6.692,3.375-1.442,6.281-2.443,9.921-1.123"/>
  <line class="uuid-d145c240-8697-4047-a007-07faf6348845" x1="252.275" y1="128.035" x2="233.978" y2="117.484"/>
  <path class="uuid-27b440bd-8316-42fa-9d53-0573cfc30f51" d="M218.002,193.845c.584.341,1.173.584,1.737.806.463.173,1.001.367,1.464.463"/>
  <line class="uuid-d145c240-8697-4047-a007-07faf6348845" x1="214.337" y1="148.776" x2="196.333" y2="138.319"/>
  <path class="uuid-27b440bd-8316-42fa-9d53-0573cfc30f51" d="M240.233,187.247c3.532-3.277,8.054-9.466,10.062-14.091,2.433-4.706,4.247-11.241,4.482-16.337.118-2.543-.084-5.092-.732-7.476-1.484-5.453-4.831-6.572-4.125-13.739.537-5.365,3.923-11.431,8.026-14.835,2.258-1.861,5.566-3.584,8.856-5.122,6.689-3.131,13.628-6.354,20.45-9.404,5.066-2.26,23.224-12.334,22.719,1.023-.382,10.106-2.513,22.602-3.624,33.456-.54,5.369-.957,10.888-1.232,16.237-.276,4.787,1.567,7.643,4.388,8.286,4.673,1.063,8.684-3.046,11.84-6.887,3.161-3.852,5.567-6.752,9.387-9.482,4.411-3.165,10.342-5.78,15.629-4.129,3.816,1.193,6.175,4.169,7.414,7.911h0c-9.452,7.892-19.225,14.827-29.266,20.645-5.814,3.319-11.505,6.177-17.075,8.573-24.112,10.357-46.17,12.115-64.466,6.302-.92-.279-1.825-.61-2.734-.931Z"/>
  <line class="uuid-6f3e0015-0fdc-4c31-9c51-b05a5f13171c" x1="119.803" y1="280.785" x2="97.793" y2="293.486"/>
  <line class="uuid-6f3e0015-0fdc-4c31-9c51-b05a5f13171c" x1="113.522" y1="297.445" x2="102.263" y2="303.943"/>
  <line class="uuid-6f3e0015-0fdc-4c31-9c51-b05a5f13171c" x1="150.239" y1="250.202" x2="99.941" y2="279.247"/>
  <line class="uuid-6f3e0015-0fdc-4c31-9c51-b05a5f13171c" x1="204.885" y1="145.38" x2="201.511" y2="151.194"/>
  <line class="uuid-6f3e0015-0fdc-4c31-9c51-b05a5f13171c" x1="195.481" y1="139.029" x2="179.332" y2="167.074"/>
  <line class="uuid-6f3e0015-0fdc-4c31-9c51-b05a5f13171c" x1="176.477" y1="149.387" x2="156.857" y2="183.366"/>
  <line class="uuid-6f3e0015-0fdc-4c31-9c51-b05a5f13171c" x1="154.938" y1="163.957" x2="147.549" y2="176.917"/>
  <line class="uuid-6f3e0015-0fdc-4c31-9c51-b05a5f13171c" x1="250.884" y1="168.829" x2="214.974" y2="189.543"/>
  <line class="uuid-6f3e0015-0fdc-4c31-9c51-b05a5f13171c" x1="253.496" y1="154.295" x2="231.534" y2="166.949"/>
  <line class="uuid-6f3e0015-0fdc-4c31-9c51-b05a5f13171c" x1="249.711" y1="143.449" x2="237.742" y2="150.362"/>
  <line class="uuid-6f3e0015-0fdc-4c31-9c51-b05a5f13171c" x1="249.417" y1="130.574" x2="236.932" y2="137.782"/>
  <line class="uuid-6f3e0015-0fdc-4c31-9c51-b05a5f13171c" x1="239.964" y1="123.003" x2="233.393" y2="126.788"/>
  <line class="uuid-6f3e0015-0fdc-4c31-9c51-b05a5f13171c" x1="291.582" y1="93.983" x2="285.01" y2="105.367"/>
  <line class="uuid-6f3e0015-0fdc-4c31-9c51-b05a5f13171c" x1="279.146" y1="92.931" x2="266.956" y2="114.039"/>
  <line class="uuid-6f3e0015-0fdc-4c31-9c51-b05a5f13171c" x1="261.606" y1="100.724" x2="248.025" y2="124.202"/>
  <line class="uuid-6f3e0015-0fdc-4c31-9c51-b05a5f13171c" x1="243.017" y1="110.275" x2="238.569" y2="118.068"/>
  <line class="uuid-6f3e0015-0fdc-4c31-9c51-b05a5f13171c" x1="345.712" y1="146.086" x2="322.992" y2="159.204"/>
  <line class="uuid-6f3e0015-0fdc-4c31-9c51-b05a5f13171c" x1="310.56" y1="166.386" x2="269.814" y2="189.912"/>
  <line class="uuid-6f3e0015-0fdc-4c31-9c51-b05a5f13171c" x1="305.869" y1="143.032" x2="250.465" y2="174.988"/>
  <line class="uuid-6f3e0015-0fdc-4c31-9c51-b05a5f13171c" x1="308.701" y1="115.308" x2="253.301" y2="147.282"/>
  <line class="uuid-6f3e0015-0fdc-4c31-9c51-b05a5f13171c" x1="326.708" y1="150.215" x2="311.145" y2="141.227"/>
  <line class="uuid-6f3e0015-0fdc-4c31-9c51-b05a5f13171c" x1="289.308" y1="276.167" x2="273.111" y2="304.259"/>
  <line class="uuid-6f3e0015-0fdc-4c31-9c51-b05a5f13171c" x1="284.322" y1="262.196" x2="257.304" y2="308.998"/>
  <line class="uuid-6f3e0015-0fdc-4c31-9c51-b05a5f13171c" x1="277.461" y1="251.545" x2="259.994" y2="281.76"/>
  <line class="uuid-6f3e0015-0fdc-4c31-9c51-b05a5f13171c" x1="269.74" y1="242.336" x2="253.081" y2="271.233"/>
  <line class="uuid-6f3e0015-0fdc-4c31-9c51-b05a5f13171c" x1="261.142" y1="234.591" x2="240.011" y2="271.207"/>
  <line class="uuid-6f3e0015-0fdc-4c31-9c51-b05a5f13171c" x1="215.265" y1="314.105" x2="194.819" y2="349.5"/>
  <line class="uuid-6f3e0015-0fdc-4c31-9c51-b05a5f13171c" x1="251.94" y1="227.982" x2="175.619" y2="360.201"/>
  <line class="uuid-3cf7be62-8760-4968-80a5-faa4c7809434" x1="241.525" y1="223.519" x2="162.119" y2="361.005"/>
  <line class="uuid-6f3e0015-0fdc-4c31-9c51-b05a5f13171c" x1="229.592" y1="221.557" x2="162.723" y2="337.336"/>
  <line class="uuid-6f3e0015-0fdc-4c31-9c51-b05a5f13171c" x1="217.244" y1="220.374" x2="164.82" y2="311.173"/>
  <line class="uuid-6f3e0015-0fdc-4c31-9c51-b05a5f13171c" x1="202.953" y1="222.574" x2="159.57" y2="297.688"/>
  <line class="uuid-6f3e0015-0fdc-4c31-9c51-b05a5f13171c" x1="187.809" y1="226.212" x2="137.169" y2="313.958"/>
  <line class="uuid-6f3e0015-0fdc-4c31-9c51-b05a5f13171c" x1="169.173" y1="235.933" x2="166.557" y2="240.407"/>
  <line class="uuid-6f3e0015-0fdc-4c31-9c51-b05a5f13171c" x1="154.342" y1="261.585" x2="122.122" y2="317.402"/>
  <line class="uuid-6f3e0015-0fdc-4c31-9c51-b05a5f13171c" x1="138.733" y1="266.031" x2="116.138" y2="305.212"/>
  <line class="uuid-6f3e0015-0fdc-4c31-9c51-b05a5f13171c" x1="256.55" y1="293.853" x2="244.018" y2="301.109"/>
  <line class="uuid-6f3e0015-0fdc-4c31-9c51-b05a5f13171c" x1="256.967" y1="280.589" x2="239.548" y2="290.678"/>
  <line class="uuid-6f3e0015-0fdc-4c31-9c51-b05a5f13171c" x1="249.328" y1="271.973" x2="242.628" y2="275.85"/>
  <line class="uuid-6f3e0015-0fdc-4c31-9c51-b05a5f13171c" x1="160.059" y1="344.809" x2="150.287" y2="350.428"/>
  <line class="uuid-6f3e0015-0fdc-4c31-9c51-b05a5f13171c" x1="161.55" y1="330.887" x2="144.352" y2="340.806"/>
  <line class="uuid-6f3e0015-0fdc-4c31-9c51-b05a5f13171c" x1="162.428" y1="317.354" x2="145.816" y2="326.928"/>
  <line class="uuid-6f3e0015-0fdc-4c31-9c51-b05a5f13171c" x1="163.014" y1="303.969" x2="146.795" y2="313.321"/>
  <line class="uuid-6f3e0015-0fdc-4c31-9c51-b05a5f13171c" x1="162.94" y1="241.698" x2="151.34" y2="248.391"/>
  <line class="uuid-6f3e0015-0fdc-4c31-9c51-b05a5f13171c" x1="162.428" y1="228.949" x2="147.038" y2="237.839"/>
  <line class="uuid-6f3e0015-0fdc-4c31-9c51-b05a5f13171c" x1="161.622" y1="216.391" x2="147.722" y2="224.379"/>
  <line class="uuid-6f3e0015-0fdc-4c31-9c51-b05a5f13171c" x1="160.401" y1="204.029" x2="146.795" y2="211.899"/>
  <line class="uuid-6f3e0015-0fdc-4c31-9c51-b05a5f13171c" x1="159.643" y1="191.449" x2="145.889" y2="199.39"/>
  <line class="uuid-6f3e0015-0fdc-4c31-9c51-b05a5f13171c" x1="151.34" y1="183.192" x2="145.01" y2="186.836"/>
</svg>