<?xml version="1.0" encoding="UTF-8"?>
<svg id="uuid-3eda3b2b-dc24-4917-b9c3-44d9a680b05e" data-name="&amp;lt;Layer&amp;gt;" xmlns="http://www.w3.org/2000/svg" viewBox="0 0 451.11 451.11">
  <defs>
    <style>
      .uuid-00260803-5de8-4648-9c18-96ff63943b72, .uuid-f31901f9-6d79-46bc-bf3f-8b0642c44eff, .uuid-2d26b6ec-7f6f-4db3-b43c-9a53a15eaa74 {
        fill: none;
        stroke: #000;
        stroke-linecap: round;
      }

      .uuid-00260803-5de8-4648-9c18-96ff63943b72, .uuid-2d26b6ec-7f6f-4db3-b43c-9a53a15eaa74 {
        stroke-linejoin: round;
        stroke-width: 4.117px;
      }

      .uuid-f31901f9-6d79-46bc-bf3f-8b0642c44eff {
        stroke-miterlimit: 10;
        stroke-width: 1.163px;
      }

      .uuid-2d26b6ec-7f6f-4db3-b43c-9a53a15eaa74 {
        fill-rule: evenodd;
      }
    </style>
  </defs>
  <polyline class="uuid-2d26b6ec-7f6f-4db3-b43c-9a53a15eaa74" points="269.482 312.091 268.971 309.428 268.971 303.345"/>
  <polyline class="uuid-2d26b6ec-7f6f-4db3-b43c-9a53a15eaa74" points="262.473 307.105 262.689 308.28 264.084 309.674 270.313 313.262"/>
  <path class="uuid-2d26b6ec-7f6f-4db3-b43c-9a53a15eaa74" d="M270.313,313.262c.17.125.343.247.511.345,3.496,1.512,10.336-4.254,10.384-11.215"/>
  <polyline class="uuid-2d26b6ec-7f6f-4db3-b43c-9a53a15eaa74" points="222.849 329.926 222.849 336.029 223.386 338.815 224.729 340.206"/>
  <polyline class="uuid-2d26b6ec-7f6f-4db3-b43c-9a53a15eaa74" points="224.192 339.867 217.989 336.251 216.598 334.856 216.351 333.634"/>
  <polyline class="uuid-2d26b6ec-7f6f-4db3-b43c-9a53a15eaa74" points="178.535 366.811 177.217 365.417 176.702 362.683 176.702 356.523"/>
  <path class="uuid-2d26b6ec-7f6f-4db3-b43c-9a53a15eaa74" d="M188.944,355.596c0,7.035-6.913,12.705-10.409,11.215-.169-.074-.343-.173-.511-.343"/>
  <polyline class="uuid-2d26b6ec-7f6f-4db3-b43c-9a53a15eaa74" points="178.024 366.468 171.82 362.9 170.473 361.509 170.256 360.239"/>
  <path class="uuid-2d26b6ec-7f6f-4db3-b43c-9a53a15eaa74" d="M188.944,355.596c0,7.035-6.913,12.705-10.409,11.215-.169-.074-.343-.173-.511-.343-.291-.245-.589-.588-.806-1.051-.341-.706-.515-1.564-.515-2.734"/>
  <path class="uuid-2d26b6ec-7f6f-4db3-b43c-9a53a15eaa74" d="M222.849,336.029c0,1.149.17,2.079.537,2.785.221.463.515.806.806,1.052.173.122.343.217.537.339,3.47,1.516,10.332-4.177,10.332-11.211"/>
  <path class="uuid-2d26b6ec-7f6f-4db3-b43c-9a53a15eaa74" d="M281.208,302.393c-.048,6.961-6.888,12.727-10.384,11.215-.169-.099-.341-.221-.511-.345-.315-.243-.537-.585-.758-.976,0,0-.073-.073-.073-.195-.342-.636-.511-1.563-.511-2.664"/>
  <polyline class="uuid-2d26b6ec-7f6f-4db3-b43c-9a53a15eaa74" points="314.724 117.667 319.999 114.59 322.612 113.663"/>
  <polyline class="uuid-2d26b6ec-7f6f-4db3-b43c-9a53a15eaa74" points="324.128 113.954 317.803 110.242 315.897 109.727 314.724 110.12"/>
  <polyline class="uuid-2d26b6ec-7f6f-4db3-b43c-9a53a15eaa74" points="314.724 170.922 319.999 167.842 322.347 167.036"/>
  <path class="uuid-2d26b6ec-7f6f-4db3-b43c-9a53a15eaa74" d="M322.347,167.036c.048-.048.096-.048.169-.048.048-.073.096-.073.174-.073"/>
  <polyline class="uuid-2d26b6ec-7f6f-4db3-b43c-9a53a15eaa74" points="322.69 166.915 324.422 167.453 324.495 167.453"/>
  <polyline class="uuid-2d26b6ec-7f6f-4db3-b43c-9a53a15eaa74" points="314.724 163.446 315.897 163.033 317.751 163.544 324.128 167.209"/>
  <polyline class="uuid-2d26b6ec-7f6f-4db3-b43c-9a53a15eaa74" points="314.676 224.176 319.952 221.17 322.564 220.24"/>
  <polyline class="uuid-2d26b6ec-7f6f-4db3-b43c-9a53a15eaa74" points="322.69 220.24 324.37 220.681 324.422 220.755"/>
  <path class="uuid-2d26b6ec-7f6f-4db3-b43c-9a53a15eaa74" d="M319.952,235.267c6.103-3.469,7.619-12.363,4.543-14.512h-.073"/>
  <polyline class="uuid-2d26b6ec-7f6f-4db3-b43c-9a53a15eaa74" points="324.322 220.582 324.202 220.582 317.751 216.796 315.823 216.284 314.676 216.7"/>
  <path class="uuid-2d26b6ec-7f6f-4db3-b43c-9a53a15eaa74" d="M319.952,221.17c1.001-.588,1.853-.879,2.612-.931h.126c.632-.07,1.096.052,1.512.343"/>
  <path class="uuid-2d26b6ec-7f6f-4db3-b43c-9a53a15eaa74" d="M324.422,167.453c-.1-.122-.174-.17-.295-.244-.391-.221-.927-.293-1.438-.293-.078,0-.126,0-.174.073-.073,0-.121,0-.169.048-.637.048-1.468.343-2.348.806"/>
  <path class="uuid-2d26b6ec-7f6f-4db3-b43c-9a53a15eaa74" d="M319.999,114.59c1.001-.563,1.881-.857,2.613-.927h.125c.537-.052,1.001.07,1.391.291.121,0,.195.073.295.173"/>
  <path class="uuid-2d26b6ec-7f6f-4db3-b43c-9a53a15eaa74" d="M313.918,96.587c-.463-.173-.758-.173-1.101-.051-.195.051-.363.124-.586.221"/>
  <path class="uuid-2d26b6ec-7f6f-4db3-b43c-9a53a15eaa74" d="M159.972,184.624c-.415.295-.71.537-.931.758-.365.367-.585.71-.828,1.099-.221.489-.393.832-.515,1.175-.048.169-.095.389-.095.584-.074.221-.074.391-.148.684"/>
  <path class="uuid-2d26b6ec-7f6f-4db3-b43c-9a53a15eaa74" d="M157.408,364.758c.048.659.122.954.364,1.295.1.048.221.17.343.295"/>
  <path class="uuid-2d26b6ec-7f6f-4db3-b43c-9a53a15eaa74" d="M159.898,366.223c-.393.245-.805.341-1.147.341-.247,0-.415-.048-.589-.169"/>
  <polyline class="uuid-2d26b6ec-7f6f-4db3-b43c-9a53a15eaa74" points="158.162 366.396 158.115 366.348 158.041 366.348"/>
  <polyline class="uuid-2d26b6ec-7f6f-4db3-b43c-9a53a15eaa74" points="157.941 366.223 157.872 366.149 157.772 366.101 144.287 358.382"/>
  <polyline class="uuid-2d26b6ec-7f6f-4db3-b43c-9a53a15eaa74" points="170.01 162.786 170.01 162.86 146.098 176.614"/>
  <path class="uuid-2d26b6ec-7f6f-4db3-b43c-9a53a15eaa74" d="M146.098,176.614c-.637.463-.88.706-1.42,1.269-.681,1.121-.976,1.758-1.097,3.028"/>
  <path class="uuid-2d26b6ec-7f6f-4db3-b43c-9a53a15eaa74" d="M314.724,98.225c0-.295-.048-.589-.122-.81-.048-.195-.169-.365-.269-.463-.074-.195-.247-.291-.415-.365"/>
  <polyline class="uuid-2d26b6ec-7f6f-4db3-b43c-9a53a15eaa74" points="235.16 125.217 262.277 109.605 262.277 109.535"/>
  <polyline class="uuid-2d26b6ec-7f6f-4db3-b43c-9a53a15eaa74" points="176.754 166.741 169.962 162.786 169.962 148.521"/>
  <polyline class="uuid-2d26b6ec-7f6f-4db3-b43c-9a53a15eaa74" points="188.992 145.368 188.992 159.659 176.754 166.741"/>
  <path class="uuid-2d26b6ec-7f6f-4db3-b43c-9a53a15eaa74" d="M157.455,188.924c.074-.293.074-.463.148-.684,0-.195.047-.415.095-.584.122-.343.295-.685.515-1.175"/>
  <polyline class="uuid-2d26b6ec-7f6f-4db3-b43c-9a53a15eaa74" points="131.171 322.203 143.533 315.072 150.322 318.958 137.962 326.088"/>
  <polyline class="uuid-2d26b6ec-7f6f-4db3-b43c-9a53a15eaa74" points="131.171 268.903 143.581 261.743 150.322 265.702 137.962 272.833"/>
  <polyline class="uuid-2d26b6ec-7f6f-4db3-b43c-9a53a15eaa74" points="131.218 215.648 143.581 208.491 150.396 212.4 137.962 219.534"/>
  <polyline class="uuid-2d26b6ec-7f6f-4db3-b43c-9a53a15eaa74" points="137.962 219.534 150.396 212.4 150.322 226.495"/>
  <polyline class="uuid-2d26b6ec-7f6f-4db3-b43c-9a53a15eaa74" points="137.962 272.833 150.322 265.702 150.322 279.82"/>
  <polyline class="uuid-2d26b6ec-7f6f-4db3-b43c-9a53a15eaa74" points="137.962 326.088 150.322 318.958 150.322 333.049"/>
  <polyline class="uuid-2d26b6ec-7f6f-4db3-b43c-9a53a15eaa74" points="269.019 113.491 262.226 109.605 262.226 95.318"/>
  <polyline class="uuid-2d26b6ec-7f6f-4db3-b43c-9a53a15eaa74" points="281.281 92.117 281.281 106.482 269.019 113.491"/>
  <polyline class="uuid-2d26b6ec-7f6f-4db3-b43c-9a53a15eaa74" points="222.849 140.092 216.13 136.211 216.13 121.916"/>
  <polyline class="uuid-2d26b6ec-7f6f-4db3-b43c-9a53a15eaa74" points="235.112 118.792 235.112 133.057 222.849 140.092"/>
  <line class="uuid-00260803-5de8-4648-9c18-96ff63943b72" x1="270.824" y1="313.607" x2="269.555" y2="312.286"/>
  <path class="uuid-2d26b6ec-7f6f-4db3-b43c-9a53a15eaa74" d="M269.555,312.286s-.073-.073-.073-.195"/>
  <line class="uuid-00260803-5de8-4648-9c18-96ff63943b72" x1="266.821" y1="293.867" x2="266.77" y2="293.867"/>
  <line class="uuid-00260803-5de8-4648-9c18-96ff63943b72" x1="281.208" y1="302.393" x2="281.208" y2="296.238"/>
  <path class="uuid-2d26b6ec-7f6f-4db3-b43c-9a53a15eaa74" d="M224.729,340.206c-.195-.122-.365-.217-.537-.339"/>
  <line class="uuid-00260803-5de8-4648-9c18-96ff63943b72" x1="188.944" y1="349.489" x2="188.944" y2="355.596"/>
  <line class="uuid-00260803-5de8-4648-9c18-96ff63943b72" x1="176.702" y1="362.683" x2="176.702" y2="356.523"/>
  <line class="uuid-00260803-5de8-4648-9c18-96ff63943b72" x1="222.849" y1="329.926" x2="222.849" y2="336.029"/>
  <line class="uuid-00260803-5de8-4648-9c18-96ff63943b72" x1="235.062" y1="328.995" x2="235.062" y2="322.887"/>
  <line class="uuid-00260803-5de8-4648-9c18-96ff63943b72" x1="268.971" y1="309.428" x2="268.971" y2="303.345"/>
  <path class="uuid-2d26b6ec-7f6f-4db3-b43c-9a53a15eaa74" d="M322.612,113.663h.125"/>
  <line class="uuid-00260803-5de8-4648-9c18-96ff63943b72" x1="322.736" y1="113.663" x2="324.422" y2="114.127"/>
  <line class="uuid-00260803-5de8-4648-9c18-96ff63943b72" x1="314.724" y1="131.787" x2="319.999" y2="128.708"/>
  <path class="uuid-2d26b6ec-7f6f-4db3-b43c-9a53a15eaa74" d="M319.999,128.708c6.108-3.492,7.621-12.48,4.496-14.507"/>
  <line class="uuid-00260803-5de8-4648-9c18-96ff63943b72" x1="324.495" y1="114.201" x2="324.422" y2="114.127"/>
  <path class="uuid-2d26b6ec-7f6f-4db3-b43c-9a53a15eaa74" d="M324.495,167.453c3.124,2.074,1.612,10.968-4.496,14.51"/>
  <line class="uuid-00260803-5de8-4648-9c18-96ff63943b72" x1="319.999" y1="181.963" x2="314.724" y2="185.039"/>
  <path class="uuid-2d26b6ec-7f6f-4db3-b43c-9a53a15eaa74" d="M322.564,220.24h.126"/>
  <path class="uuid-2d26b6ec-7f6f-4db3-b43c-9a53a15eaa74" d="M324.422,220.755h.073"/>
  <line class="uuid-00260803-5de8-4648-9c18-96ff63943b72" x1="314.676" y1="238.295" x2="319.952" y2="235.267"/>
  <line class="uuid-00260803-5de8-4648-9c18-96ff63943b72" x1="314.676" y1="224.176" x2="319.952" y2="221.17"/>
  <line class="uuid-00260803-5de8-4648-9c18-96ff63943b72" x1="319.999" y1="167.842" x2="314.724" y2="170.922"/>
  <line class="uuid-00260803-5de8-4648-9c18-96ff63943b72" x1="314.724" y1="117.667" x2="319.999" y2="114.59"/>
  <line class="uuid-00260803-5de8-4648-9c18-96ff63943b72" x1="312.232" y1="96.757" x2="159.972" y2="184.624"/>
  <line class="uuid-00260803-5de8-4648-9c18-96ff63943b72" x1="157.455" y1="188.924" x2="157.408" y2="364.758"/>
  <line class="uuid-00260803-5de8-4648-9c18-96ff63943b72" x1="143.581" y1="261.82" x2="143.581" y2="230.502"/>
  <line class="uuid-00260803-5de8-4648-9c18-96ff63943b72" x1="170.256" y1="360.239" x2="159.898" y2="366.223"/>
  <path class="uuid-2d26b6ec-7f6f-4db3-b43c-9a53a15eaa74" d="M144.287,358.382c-.633-.515-.633-.854-.754-1.564"/>
  <line class="uuid-00260803-5de8-4648-9c18-96ff63943b72" x1="143.533" y1="356.818" x2="143.533" y2="337.008"/>
  <line class="uuid-00260803-5de8-4648-9c18-96ff63943b72" x1="143.533" y1="283.753" x2="143.533" y2="315.12"/>
  <line class="uuid-00260803-5de8-4648-9c18-96ff63943b72" x1="143.533" y1="322.961" x2="143.533" y2="322.887"/>
  <line class="uuid-00260803-5de8-4648-9c18-96ff63943b72" x1="143.581" y1="180.912" x2="143.581" y2="208.491"/>
  <line class="uuid-00260803-5de8-4648-9c18-96ff63943b72" x1="216.13" y1="136.211" x2="188.992" y2="151.892"/>
  <line class="uuid-00260803-5de8-4648-9c18-96ff63943b72" x1="314.724" y1="110.12" x2="314.724" y2="98.225"/>
  <line class="uuid-00260803-5de8-4648-9c18-96ff63943b72" x1="313.918" y1="96.587" x2="300.138" y2="88.573"/>
  <path class="uuid-2d26b6ec-7f6f-4db3-b43c-9a53a15eaa74" d="M300.138,88.573c-.732-.221-1.023-.121-1.781.196"/>
  <line class="uuid-00260803-5de8-4648-9c18-96ff63943b72" x1="298.357" y1="88.769" x2="281.281" y2="98.637"/>
  <line class="uuid-00260803-5de8-4648-9c18-96ff63943b72" x1="314.602" y1="274.055" x2="314.724" y2="98.225"/>
  <path class="uuid-2d26b6ec-7f6f-4db3-b43c-9a53a15eaa74" d="M314.724,98.225c0-1.638-1.149-2.274-2.492-1.468"/>
  <path class="uuid-2d26b6ec-7f6f-4db3-b43c-9a53a15eaa74" d="M157.408,364.758c0,1.59,1.097,2.224,2.444,1.466"/>
  <line class="uuid-00260803-5de8-4648-9c18-96ff63943b72" x1="159.852" y1="366.223" x2="312.181" y2="278.355"/>
  <path class="uuid-2d26b6ec-7f6f-4db3-b43c-9a53a15eaa74" d="M312.181,278.355c1.32-.758,2.421-2.711,2.421-4.3"/>
  <path class="uuid-2d26b6ec-7f6f-4db3-b43c-9a53a15eaa74" d="M169.962,148.521c0-5.471,3.812-11.799,10.336-11.215"/>
  <line class="uuid-00260803-5de8-4648-9c18-96ff63943b72" x1="180.298" y1="137.307" x2="187.086" y2="141.239"/>
  <path class="uuid-2d26b6ec-7f6f-4db3-b43c-9a53a15eaa74" d="M187.086,141.239c-6.498-.632-10.332,5.645-10.332,11.164"/>
  <line class="uuid-00260803-5de8-4648-9c18-96ff63943b72" x1="176.754" y1="152.404" x2="176.754" y2="166.741"/>
  <path class="uuid-2d26b6ec-7f6f-4db3-b43c-9a53a15eaa74" d="M176.754,152.404c0-9.283,12.238-16.392,12.238-7.035"/>
  <line class="uuid-00260803-5de8-4648-9c18-96ff63943b72" x1="304.977" y1="125.043" x2="298.578" y2="121.331"/>
  <path class="uuid-2d26b6ec-7f6f-4db3-b43c-9a53a15eaa74" d="M298.578,121.331c-.636-.243-.883-.095-1.49.173"/>
  <line class="uuid-00260803-5de8-4648-9c18-96ff63943b72" x1="297.088" y1="121.503" x2="173.674" y2="192.638"/>
  <path class="uuid-2d26b6ec-7f6f-4db3-b43c-9a53a15eaa74" d="M173.674,192.638c-1.342,1.001-2.1,2.222-2.196,3.833"/>
  <line class="uuid-00260803-5de8-4648-9c18-96ff63943b72" x1="171.478" y1="196.471" x2="171.404" y2="338.984"/>
  <path class="uuid-2d26b6ec-7f6f-4db3-b43c-9a53a15eaa74" d="M171.404,338.984c.074.688.122,1.005.633,1.394"/>
  <line class="uuid-00260803-5de8-4648-9c18-96ff63943b72" x1="172.037" y1="340.379" x2="178.439" y2="344.091"/>
  <path class="uuid-2d26b6ec-7f6f-4db3-b43c-9a53a15eaa74" d="M178.439,344.091c-.584-.463-.584-.758-.658-1.442"/>
  <line class="uuid-00260803-5de8-4648-9c18-96ff63943b72" x1="177.781" y1="342.649" x2="177.855" y2="200.136"/>
  <path class="uuid-2d26b6ec-7f6f-4db3-b43c-9a53a15eaa74" d="M177.855,200.136c.121-1.612.801-2.834,2.196-3.76"/>
  <line class="uuid-00260803-5de8-4648-9c18-96ff63943b72" x1="180.051" y1="196.376" x2="303.413" y2="125.169"/>
  <path class="uuid-2d26b6ec-7f6f-4db3-b43c-9a53a15eaa74" d="M303.413,125.169c.636-.295.927-.417,1.564-.126"/>
  <path class="uuid-2d26b6ec-7f6f-4db3-b43c-9a53a15eaa74" d="M177.781,342.649c0,1.394,1.001,1.953,2.222,1.273"/>
  <line class="uuid-00260803-5de8-4648-9c18-96ff63943b72" x1="180.003" y1="343.922" x2="303.339" y2="272.785"/>
  <path class="uuid-2d26b6ec-7f6f-4db3-b43c-9a53a15eaa74" d="M303.339,272.785c1.221-.707,2.222-2.44,2.222-3.834"/>
  <line class="uuid-00260803-5de8-4648-9c18-96ff63943b72" x1="305.561" y1="268.951" x2="305.613" y2="126.438"/>
  <path class="uuid-2d26b6ec-7f6f-4db3-b43c-9a53a15eaa74" d="M305.613,126.438c0-1.395-.979-1.979-2.2-1.269"/>
  <line class="uuid-00260803-5de8-4648-9c18-96ff63943b72" x1="282.793" y1="161.734" x2="200.67" y2="209.125"/>
  <path class="uuid-2d26b6ec-7f6f-4db3-b43c-9a53a15eaa74" d="M200.67,209.125c-.809.467-1.442,1.589-1.442,2.564"/>
  <line class="uuid-00260803-5de8-4648-9c18-96ff63943b72" x1="199.228" y1="211.688" x2="199.154" y2="306.474"/>
  <path class="uuid-2d26b6ec-7f6f-4db3-b43c-9a53a15eaa74" d="M199.154,306.474c0,.927.66,1.317,1.464.852"/>
  <line class="uuid-00260803-5de8-4648-9c18-96ff63943b72" x1="200.618" y1="307.326" x2="282.724" y2="259.936"/>
  <path class="uuid-2d26b6ec-7f6f-4db3-b43c-9a53a15eaa74" d="M282.724,259.936c.827-.437,1.464-1.564,1.464-2.49"/>
  <line class="uuid-00260803-5de8-4648-9c18-96ff63943b72" x1="284.188" y1="257.446" x2="284.236" y2="162.614"/>
  <path class="uuid-2d26b6ec-7f6f-4db3-b43c-9a53a15eaa74" d="M284.236,162.614c0-.927-.685-1.317-1.443-.88"/>
  <line class="uuid-00260803-5de8-4648-9c18-96ff63943b72" x1="158.213" y1="186.481" x2="144.678" y2="177.883"/>
  <path class="uuid-2d26b6ec-7f6f-4db3-b43c-9a53a15eaa74" d="M144.678,177.883c-.681,1.121-.976,1.758-1.097,3.028"/>
  <line class="uuid-00260803-5de8-4648-9c18-96ff63943b72" x1="133.371" y1="340.625" x2="126.627" y2="336.714"/>
  <path class="uuid-2d26b6ec-7f6f-4db3-b43c-9a53a15eaa74" d="M126.627,336.714c-3.764-5.276-.291-11.726,4.544-14.512"/>
  <path class="uuid-2d26b6ec-7f6f-4db3-b43c-9a53a15eaa74" d="M137.962,326.088c-4.838,2.785-8.307,9.235-4.591,14.538"/>
  <line class="uuid-00260803-5de8-4648-9c18-96ff63943b72" x1="133.419" y1="287.37" x2="126.627" y2="283.463"/>
  <path class="uuid-2d26b6ec-7f6f-4db3-b43c-9a53a15eaa74" d="M126.627,283.463c-3.764-5.324-.221-11.774,4.544-14.56"/>
  <path class="uuid-2d26b6ec-7f6f-4db3-b43c-9a53a15eaa74" d="M137.962,272.833c-4.765,2.737-8.307,9.235-4.543,14.536"/>
  <line class="uuid-00260803-5de8-4648-9c18-96ff63943b72" x1="133.419" y1="234.045" x2="126.627" y2="230.159"/>
  <path class="uuid-2d26b6ec-7f6f-4db3-b43c-9a53a15eaa74" d="M126.627,230.159c-3.712-5.276-.221-11.799,4.591-14.511"/>
  <path class="uuid-2d26b6ec-7f6f-4db3-b43c-9a53a15eaa74" d="M137.962,219.534c-4.765,2.785-8.257,9.231-4.543,14.512"/>
  <line class="uuid-00260803-5de8-4648-9c18-96ff63943b72" x1="150.322" y1="226.495" x2="137.962" y2="233.651"/>
  <path class="uuid-2d26b6ec-7f6f-4db3-b43c-9a53a15eaa74" d="M137.962,233.651c-8.061,4.692-8.061-9.474,0-14.117"/>
  <line class="uuid-00260803-5de8-4648-9c18-96ff63943b72" x1="150.322" y1="279.82" x2="137.962" y2="286.954"/>
  <path class="uuid-2d26b6ec-7f6f-4db3-b43c-9a53a15eaa74" d="M137.962,286.954c-8.061,4.639-8.061-9.478,0-14.121"/>
  <line class="uuid-00260803-5de8-4648-9c18-96ff63943b72" x1="150.322" y1="333.049" x2="137.962" y2="340.206"/>
  <path class="uuid-2d26b6ec-7f6f-4db3-b43c-9a53a15eaa74" d="M137.962,340.206c-8.061,4.717-8.061-9.478,0-14.118"/>
  <path class="uuid-2d26b6ec-7f6f-4db3-b43c-9a53a15eaa74" d="M262.226,95.318c0-5.523,3.837-11.847,10.335-11.215"/>
  <line class="uuid-00260803-5de8-4648-9c18-96ff63943b72" x1="272.561" y1="84.103" x2="279.353" y2="87.989"/>
  <path class="uuid-2d26b6ec-7f6f-4db3-b43c-9a53a15eaa74" d="M279.353,87.989c-6.501-.563-10.335,5.64-10.335,11.211"/>
  <line class="uuid-00260803-5de8-4648-9c18-96ff63943b72" x1="269.019" y1="99.2" x2="269.019" y2="113.491"/>
  <path class="uuid-2d26b6ec-7f6f-4db3-b43c-9a53a15eaa74" d="M269.019,99.2c0-9.331,12.262-16.367,12.262-7.083"/>
  <path class="uuid-2d26b6ec-7f6f-4db3-b43c-9a53a15eaa74" d="M216.13,121.916c0-5.445,3.764-11.844,10.336-11.211"/>
  <line class="uuid-00260803-5de8-4648-9c18-96ff63943b72" x1="226.466" y1="110.705" x2="233.181" y2="114.59"/>
  <path class="uuid-2d26b6ec-7f6f-4db3-b43c-9a53a15eaa74" d="M233.181,114.59c-6.424-.563-10.258,5.692-10.258,11.21"/>
  <line class="uuid-00260803-5de8-4648-9c18-96ff63943b72" x1="222.923" y1="125.801" x2="222.849" y2="140.092"/>
  <path class="uuid-2d26b6ec-7f6f-4db3-b43c-9a53a15eaa74" d="M222.923,125.801c0-9.33,12.189-16.365,12.189-7.009"/>
  <line class="uuid-f31901f9-6d79-46bc-bf3f-8b0642c44eff" x1="155.428" y1="354.838" x2="152.058" y2="360.704"/>
  <line class="uuid-f31901f9-6d79-46bc-bf3f-8b0642c44eff" x1="155.671" y1="331.853" x2="145.218" y2="349.905"/>
  <line class="uuid-f31901f9-6d79-46bc-bf3f-8b0642c44eff" x1="155.502" y1="309.6" x2="151.032" y2="317.316"/>
  <line class="uuid-f31901f9-6d79-46bc-bf3f-8b0642c44eff" x1="155.719" y1="286.612" x2="145.218" y2="304.787"/>
  <line class="uuid-f31901f9-6d79-46bc-bf3f-8b0642c44eff" x1="155.502" y1="264.433" x2="152.301" y2="269.926"/>
  <line class="uuid-f31901f9-6d79-46bc-bf3f-8b0642c44eff" x1="155.719" y1="241.496" x2="145.266" y2="259.547"/>
  <line class="uuid-f31901f9-6d79-46bc-bf3f-8b0642c44eff" x1="155.502" y1="219.239" x2="152.301" y2="224.762"/>
  <line class="uuid-f31901f9-6d79-46bc-bf3f-8b0642c44eff" x1="149.858" y1="229.012" x2="145.509" y2="236.61"/>
  <line class="uuid-f31901f9-6d79-46bc-bf3f-8b0642c44eff" x1="155.624" y1="196.424" x2="148.172" y2="209.323"/>
  <line class="uuid-f31901f9-6d79-46bc-bf3f-8b0642c44eff" x1="150.149" y1="183.402" x2="145.461" y2="191.489"/>
  <line class="uuid-f31901f9-6d79-46bc-bf3f-8b0642c44eff" x1="133.955" y1="273.469" x2="132.196" y2="270.515"/>
  <line class="uuid-f31901f9-6d79-46bc-bf3f-8b0642c44eff" x1="143.408" y1="267.387" x2="142.017" y2="264.944"/>
  <line class="uuid-f31901f9-6d79-46bc-bf3f-8b0642c44eff" x1="133.908" y1="220.292" x2="132.15" y2="217.311"/>
  <line class="uuid-f31901f9-6d79-46bc-bf3f-8b0642c44eff" x1="143.36" y1="214.133" x2="141.965" y2="211.688"/>
  <line class="uuid-f31901f9-6d79-46bc-bf3f-8b0642c44eff" x1="170.132" y1="176.734" x2="164.906" y2="167.72"/>
  <line class="uuid-f31901f9-6d79-46bc-bf3f-8b0642c44eff" x1="189.577" y1="165.229" x2="188.013" y2="162.518"/>
  <line class="uuid-f31901f9-6d79-46bc-bf3f-8b0642c44eff" x1="209.269" y1="154.14" x2="204.041" y2="145.074"/>
  <line class="uuid-f31901f9-6d79-46bc-bf3f-8b0642c44eff" x1="228.736" y1="142.631" x2="227.098" y2="139.923"/>
  <line class="uuid-f31901f9-6d79-46bc-bf3f-8b0642c44eff" x1="248.35" y1="131.615" x2="243.126" y2="122.552"/>
  <line class="uuid-f31901f9-6d79-46bc-bf3f-8b0642c44eff" x1="267.918" y1="120.282" x2="263.399" y2="112.39"/>
  <line class="uuid-f31901f9-6d79-46bc-bf3f-8b0642c44eff" x1="287.437" y1="108.972" x2="283.188" y2="101.543"/>
  <line class="uuid-f31901f9-6d79-46bc-bf3f-8b0642c44eff" x1="306.956" y1="97.588" x2="304.512" y2="93.386"/>
  <line class="uuid-f31901f9-6d79-46bc-bf3f-8b0642c44eff" x1="170.89" y1="357.919" x2="159.042" y2="351.052"/>
  <line class="uuid-f31901f9-6d79-46bc-bf3f-8b0642c44eff" x1="182.616" y1="351.593" x2="158.677" y2="337.814"/>
  <line class="uuid-f31901f9-6d79-46bc-bf3f-8b0642c44eff" x1="193.289" y1="344.75" x2="187.77" y2="341.6"/>
  <line class="uuid-f31901f9-6d79-46bc-bf3f-8b0642c44eff" x1="169.719" y1="331.143" x2="159.094" y2="325.061"/>
  <line class="uuid-f31901f9-6d79-46bc-bf3f-8b0642c44eff" x1="204.578" y1="338.23" x2="199.059" y2="335.028"/>
  <line class="uuid-f31901f9-6d79-46bc-bf3f-8b0642c44eff" x1="169.719" y1="318.074" x2="159.094" y2="311.971"/>
  <line class="uuid-f31901f9-6d79-46bc-bf3f-8b0642c44eff" x1="215.888" y1="331.733" x2="210.365" y2="328.53"/>
  <line class="uuid-f31901f9-6d79-46bc-bf3f-8b0642c44eff" x1="169.719" y1="305.078" x2="159.094" y2="298.975"/>
  <line class="uuid-f31901f9-6d79-46bc-bf3f-8b0642c44eff" x1="227.146" y1="325.235" x2="221.627" y2="322.032"/>
  <line class="uuid-f31901f9-6d79-46bc-bf3f-8b0642c44eff" x1="169.719" y1="292.061" x2="159.164" y2="285.905"/>
  <line class="uuid-f31901f9-6d79-46bc-bf3f-8b0642c44eff" x1="238.483" y1="318.711" x2="232.964" y2="315.535"/>
  <line class="uuid-f31901f9-6d79-46bc-bf3f-8b0642c44eff" x1="169.719" y1="278.992" x2="159.164" y2="272.91"/>
  <line class="uuid-f31901f9-6d79-46bc-bf3f-8b0642c44eff" x1="249.746" y1="312.165" x2="244.223" y2="309.012"/>
  <line class="uuid-f31901f9-6d79-46bc-bf3f-8b0642c44eff" x1="169.719" y1="265.997" x2="159.164" y2="259.888"/>
  <line class="uuid-f31901f9-6d79-46bc-bf3f-8b0642c44eff" x1="261.055" y1="305.668" x2="255.558" y2="302.467"/>
  <line class="uuid-f31901f9-6d79-46bc-bf3f-8b0642c44eff" x1="169.719" y1="252.927" x2="159.164" y2="246.82"/>
  <line class="uuid-f31901f9-6d79-46bc-bf3f-8b0642c44eff" x1="272.34" y1="299.144" x2="266.821" y2="295.969"/>
  <line class="uuid-f31901f9-6d79-46bc-bf3f-8b0642c44eff" x1="169.719" y1="239.906" x2="159.164" y2="233.825"/>
  <line class="uuid-f31901f9-6d79-46bc-bf3f-8b0642c44eff" x1="283.651" y1="292.646" x2="278.154" y2="289.445"/>
  <line class="uuid-f31901f9-6d79-46bc-bf3f-8b0642c44eff" x1="169.719" y1="226.863" x2="159.164" y2="220.755"/>
  <line class="uuid-f31901f9-6d79-46bc-bf3f-8b0642c44eff" x1="294.914" y1="286.148" x2="289.417" y2="282.947"/>
  <line class="uuid-f31901f9-6d79-46bc-bf3f-8b0642c44eff" x1="169.719" y1="213.842" x2="159.164" y2="207.733"/>
  <line class="uuid-f31901f9-6d79-46bc-bf3f-8b0642c44eff" x1="306.245" y1="279.624" x2="300.727" y2="276.45"/>
  <line class="uuid-f31901f9-6d79-46bc-bf3f-8b0642c44eff" x1="169.719" y1="200.82" x2="159.214" y2="194.738"/>
  <line class="uuid-f31901f9-6d79-46bc-bf3f-8b0642c44eff" x1="312.743" y1="270.345" x2="307.42" y2="267.266"/>
  <line class="uuid-f31901f9-6d79-46bc-bf3f-8b0642c44eff" x1="174.259" y1="190.319" x2="163.807" y2="184.333"/>
  <line class="uuid-f31901f9-6d79-46bc-bf3f-8b0642c44eff" x1="312.743" y1="257.273" x2="307.468" y2="254.271"/>
  <line class="uuid-f31901f9-6d79-46bc-bf3f-8b0642c44eff" x1="185.522" y1="183.818" x2="175.117" y2="177.835"/>
  <line class="uuid-f31901f9-6d79-46bc-bf3f-8b0642c44eff" x1="312.743" y1="244.281" x2="307.468" y2="241.201"/>
  <line class="uuid-f31901f9-6d79-46bc-bf3f-8b0642c44eff" x1="196.785" y1="177.32" x2="186.379" y2="171.338"/>
  <line class="uuid-f31901f9-6d79-46bc-bf3f-8b0642c44eff" x1="312.743" y1="231.26" x2="307.468" y2="228.18"/>
  <line class="uuid-f31901f9-6d79-46bc-bf3f-8b0642c44eff" x1="208.116" y1="170.822" x2="197.664" y2="164.84"/>
  <line class="uuid-f31901f9-6d79-46bc-bf3f-8b0642c44eff" x1="312.743" y1="218.19" x2="307.468" y2="215.111"/>
  <line class="uuid-f31901f9-6d79-46bc-bf3f-8b0642c44eff" x1="219.379" y1="164.298" x2="208.974" y2="158.268"/>
  <line class="uuid-f31901f9-6d79-46bc-bf3f-8b0642c44eff" x1="312.743" y1="205.195" x2="307.468" y2="202.116"/>
  <line class="uuid-f31901f9-6d79-46bc-bf3f-8b0642c44eff" x1="230.69" y1="157.805" x2="220.307" y2="151.77"/>
  <line class="uuid-f31901f9-6d79-46bc-bf3f-8b0642c44eff" x1="312.743" y1="192.126" x2="307.468" y2="189.098"/>
  <line class="uuid-f31901f9-6d79-46bc-bf3f-8b0642c44eff" x1="241.953" y1="151.233" x2="231.57" y2="145.246"/>
  <line class="uuid-f31901f9-6d79-46bc-bf3f-8b0642c44eff" x1="312.817" y1="179.105" x2="307.468" y2="176.051"/>
  <line class="uuid-f31901f9-6d79-46bc-bf3f-8b0642c44eff" x1="253.288" y1="144.735" x2="242.879" y2="138.749"/>
  <line class="uuid-f31901f9-6d79-46bc-bf3f-8b0642c44eff" x1="312.817" y1="166.061" x2="307.468" y2="163.033"/>
  <line class="uuid-f31901f9-6d79-46bc-bf3f-8b0642c44eff" x1="264.547" y1="138.235" x2="254.164" y2="132.204"/>
  <line class="uuid-f31901f9-6d79-46bc-bf3f-8b0642c44eff" x1="312.817" y1="153.04" x2="307.468" y2="149.961"/>
  <line class="uuid-f31901f9-6d79-46bc-bf3f-8b0642c44eff" x1="275.884" y1="131.739" x2="265.475" y2="125.68"/>
  <line class="uuid-f31901f9-6d79-46bc-bf3f-8b0642c44eff" x1="312.817" y1="140.018" x2="307.468" y2="136.965"/>
  <line class="uuid-f31901f9-6d79-46bc-bf3f-8b0642c44eff" x1="287.146" y1="125.217" x2="276.762" y2="119.183"/>
  <line class="uuid-f31901f9-6d79-46bc-bf3f-8b0642c44eff" x1="313.454" y1="127.365" x2="287.536" y2="112.39"/>
  <line class="uuid-f31901f9-6d79-46bc-bf3f-8b0642c44eff" x1="313.112" y1="114.075" x2="299.236" y2="106.113"/>
  <line class="uuid-f31901f9-6d79-46bc-bf3f-8b0642c44eff" x1="312.696" y1="100.837" x2="310.889" y2="99.788"/>
  <line class="uuid-f31901f9-6d79-46bc-bf3f-8b0642c44eff" x1="133.834" y1="326.846" x2="132.15" y2="323.888"/>
  <line class="uuid-f31901f9-6d79-46bc-bf3f-8b0642c44eff" x1="143.36" y1="320.691" x2="141.897" y2="318.27"/>
  <line class="uuid-f31901f9-6d79-46bc-bf3f-8b0642c44eff" x1="174.823" y1="151.77" x2="172.037" y2="147.005"/>
  <line class="uuid-f31901f9-6d79-46bc-bf3f-8b0642c44eff" x1="181.272" y1="140.387" x2="181.1" y2="140.14"/>
  <line class="uuid-f31901f9-6d79-46bc-bf3f-8b0642c44eff" x1="220.995" y1="124.822" x2="218.21" y2="120.061"/>
  <line class="uuid-f31901f9-6d79-46bc-bf3f-8b0642c44eff" x1="267.112" y1="98.442" x2="264.326" y2="93.703"/>
  <line class="uuid-f31901f9-6d79-46bc-bf3f-8b0642c44eff" x1="273.562" y1="87.135" x2="273.489" y2="86.962"/>
  <line class="uuid-f31901f9-6d79-46bc-bf3f-8b0642c44eff" x1="175.823" y1="332.364" x2="173.383" y2="328.189"/>
  <line class="uuid-f31901f9-6d79-46bc-bf3f-8b0642c44eff" x1="175.823" y1="287.249" x2="173.431" y2="283.069"/>
  <line class="uuid-f31901f9-6d79-46bc-bf3f-8b0642c44eff" x1="175.823" y1="242.128" x2="173.431" y2="237.952"/>
  <line class="uuid-f31901f9-6d79-46bc-bf3f-8b0642c44eff" x1="176.339" y1="197.866" x2="174.432" y2="194.517"/>
  <line class="uuid-f31901f9-6d79-46bc-bf3f-8b0642c44eff" x1="195.147" y1="185.26" x2="193.999" y2="183.232"/>
  <line class="uuid-f31901f9-6d79-46bc-bf3f-8b0642c44eff" x1="214.74" y1="173.997" x2="213.567" y2="171.97"/>
  <line class="uuid-f31901f9-6d79-46bc-bf3f-8b0642c44eff" x1="234.306" y1="162.738" x2="233.085" y2="160.66"/>
  <line class="uuid-f31901f9-6d79-46bc-bf3f-8b0642c44eff" x1="253.873" y1="151.475" x2="252.652" y2="149.375"/>
  <line class="uuid-f31901f9-6d79-46bc-bf3f-8b0642c44eff" x1="273.441" y1="140.14" x2="272.219" y2="138.113"/>
  <line class="uuid-f31901f9-6d79-46bc-bf3f-8b0642c44eff" x1="292.96" y1="128.881" x2="291.785" y2="126.854"/>
  <line class="uuid-f31901f9-6d79-46bc-bf3f-8b0642c44eff" x1="212.591" y1="298.46" x2="200.84" y2="291.645"/>
  <line class="uuid-f31901f9-6d79-46bc-bf3f-8b0642c44eff" x1="224.314" y1="292.183" x2="200.449" y2="278.429"/>
  <line class="uuid-f31901f9-6d79-46bc-bf3f-8b0642c44eff" x1="235.992" y1="285.905" x2="200.082" y2="265.165"/>
  <line class="uuid-f31901f9-6d79-46bc-bf3f-8b0642c44eff" x1="247.671" y1="279.624" x2="199.691" y2="251.948"/>
  <line class="uuid-f31901f9-6d79-46bc-bf3f-8b0642c44eff" x1="259.393" y1="273.301" x2="199.276" y2="238.636"/>
  <line class="uuid-f31901f9-6d79-46bc-bf3f-8b0642c44eff" x1="271.045" y1="267.046" x2="198.933" y2="225.395"/>
  <line class="uuid-f31901f9-6d79-46bc-bf3f-8b0642c44eff" x1="282.724" y1="260.768" x2="198.518" y2="212.109"/>
  <line class="uuid-f31901f9-6d79-46bc-bf3f-8b0642c44eff" x1="284.652" y1="248.799" x2="207.827" y2="204.437"/>
  <line class="uuid-f31901f9-6d79-46bc-bf3f-8b0642c44eff" x1="284.236" y1="235.557" x2="219.553" y2="198.157"/>
  <line class="uuid-f31901f9-6d79-46bc-bf3f-8b0642c44eff" x1="283.894" y1="222.267" x2="231.227" y2="191.88"/>
  <line class="uuid-f31901f9-6d79-46bc-bf3f-8b0642c44eff" x1="283.482" y1="209.029" x2="242.879" y2="185.625"/>
  <line class="uuid-f31901f9-6d79-46bc-bf3f-8b0642c44eff" x1="283.088" y1="195.791" x2="254.558" y2="179.273"/>
  <line class="uuid-f31901f9-6d79-46bc-bf3f-8b0642c44eff" x1="282.724" y1="182.474" x2="266.306" y2="173.022"/>
  <line class="uuid-f31901f9-6d79-46bc-bf3f-8b0642c44eff" x1="282.33" y1="169.236" x2="277.959" y2="166.741"/>
</svg>