<?xml version="1.0" encoding="UTF-8"?>
<svg id="uuid-a0dc31ec-36e0-40ea-9235-5fdf0aab3fb7" data-name="&amp;lt;Layer&amp;gt;" xmlns="http://www.w3.org/2000/svg" viewBox="0 0 451.11 451.11">
  <defs>
    <style>
      .uuid-d0760bf5-71cb-427e-8107-1a53ce390af8, .uuid-b5d16326-23d1-4d1b-a668-327bafefdebd, .uuid-7dd0e193-922d-4dc1-9b69-09c64a1c61e1, .uuid-521aedd5-3ab8-4004-92c6-f0a39cd27cdc, .uuid-0da737de-cd4b-4612-bfa1-2301d8e0381c, .uuid-22facd42-2aaa-453c-8500-5ed0eca01703 {
        fill: none;
        stroke: #000;
        stroke-linecap: round;
      }

      .uuid-d0760bf5-71cb-427e-8107-1a53ce390af8, .uuid-b5d16326-23d1-4d1b-a668-327bafefdebd, .uuid-22facd42-2aaa-453c-8500-5ed0eca01703 {
        stroke-linejoin: round;
      }

      .uuid-d0760bf5-71cb-427e-8107-1a53ce390af8, .uuid-22facd42-2aaa-453c-8500-5ed0eca01703 {
        stroke-width: 4.117px;
      }

      .uuid-b5d16326-23d1-4d1b-a668-327bafefdebd {
        stroke-width: 4.113px;
      }

      .uuid-7dd0e193-922d-4dc1-9b69-09c64a1c61e1 {
        stroke-width: 1.163px;
      }

      .uuid-7dd0e193-922d-4dc1-9b69-09c64a1c61e1, .uuid-521aedd5-3ab8-4004-92c6-f0a39cd27cdc, .uuid-0da737de-cd4b-4612-bfa1-2301d8e0381c {
        stroke-miterlimit: 10;
      }

      .uuid-521aedd5-3ab8-4004-92c6-f0a39cd27cdc {
        stroke-width: 1.167px;
      }

      .uuid-0da737de-cd4b-4612-bfa1-2301d8e0381c {
        stroke-width: 1.159px;
      }

      .uuid-22facd42-2aaa-453c-8500-5ed0eca01703 {
        fill-rule: evenodd;
      }
    </style>
  </defs>
  <line class="uuid-d0760bf5-71cb-427e-8107-1a53ce390af8" x1="97.828" y1="293.836" x2="91.502" y2="289.535"/>
  <path class="uuid-22facd42-2aaa-453c-8500-5ed0eca01703" d="M91.502,289.535c-1.005-1.712-1.299-3.176-1.299-5.13"/>
  <line class="uuid-d0760bf5-71cb-427e-8107-1a53ce390af8" x1="90.203" y1="284.406" x2="90.203" y2="182.2"/>
  <path class="uuid-22facd42-2aaa-453c-8500-5ed0eca01703" d="M90.203,182.2c.199-7.108,4.643-14.831,10.703-18.517"/>
  <line class="uuid-d0760bf5-71cb-427e-8107-1a53ce390af8" x1="100.906" y1="163.682" x2="244.909" y2="80.627"/>
  <path class="uuid-22facd42-2aaa-453c-8500-5ed0eca01703" d="M244.909,80.627c2.44-1.321,5.008-2.101,7.547-.736"/>
  <line class="uuid-d0760bf5-71cb-427e-8107-1a53ce390af8" x1="252.456" y1="79.891" x2="258.785" y2="84.193"/>
  <path class="uuid-22facd42-2aaa-453c-8500-5ed0eca01703" d="M258.785,84.193c-2.613-1.369-5.108-.585-7.55.732"/>
  <line class="uuid-d0760bf5-71cb-427e-8107-1a53ce390af8" x1="251.234" y1="84.925" x2="107.232" y2="167.979"/>
  <path class="uuid-22facd42-2aaa-453c-8500-5ed0eca01703" d="M107.232,167.979c-6.06,3.692-10.505,11.483-10.673,18.519"/>
  <line class="uuid-d0760bf5-71cb-427e-8107-1a53ce390af8" x1="96.558" y1="186.497" x2="96.484" y2="288.703"/>
  <path class="uuid-22facd42-2aaa-453c-8500-5ed0eca01703" d="M96.484,288.703c.074,1.953.291,3.421,1.343,5.132"/>
  <path class="uuid-22facd42-2aaa-453c-8500-5ed0eca01703" d="M251.234,84.925c5.888-3.396,10.699-.611,10.699,6.181"/>
  <line class="uuid-d0760bf5-71cb-427e-8107-1a53ce390af8" x1="261.934" y1="91.106" x2="261.887" y2="193.312"/>
  <path class="uuid-22facd42-2aaa-453c-8500-5ed0eca01703" d="M261.887,193.312c0,6.792-4.835,15.122-10.701,18.519"/>
  <line class="uuid-d0760bf5-71cb-427e-8107-1a53ce390af8" x1="251.186" y1="211.831" x2="246.301" y2="214.347"/>
  <path class="uuid-22facd42-2aaa-453c-8500-5ed0eca01703" d="M107.117,294.697c-5.862,3.392-10.633.798-10.633-5.994"/>
  <polyline class="uuid-22facd42-2aaa-453c-8500-5ed0eca01703" points="107.868 175.651 145.78 153.788 250.602 93.328"/>
  <path class="uuid-22facd42-2aaa-453c-8500-5ed0eca01703" d="M250.602,93.328c2.686-1.538,4.882-.295,4.882,2.834"/>
  <line class="uuid-d0760bf5-71cb-427e-8107-1a53ce390af8" x1="255.484" y1="96.162" x2="255.414" y2="195.685"/>
  <path class="uuid-22facd42-2aaa-453c-8500-5ed0eca01703" d="M255.414,195.685c0,3.124-2.126,6.911-4.864,8.473"/>
  <polyline class="uuid-22facd42-2aaa-453c-8500-5ed0eca01703" points="250.55 204.158 132.321 272.363 107.868 286.481"/>
  <path class="uuid-22facd42-2aaa-453c-8500-5ed0eca01703" d="M107.868,286.481c-2.737,1.542-4.934.295-4.934-2.834"/>
  <line class="uuid-d0760bf5-71cb-427e-8107-1a53ce390af8" x1="102.934" y1="283.648" x2="102.982" y2="184.129"/>
  <path class="uuid-22facd42-2aaa-453c-8500-5ed0eca01703" d="M102.982,184.129c0-3.102,2.196-6.914,4.886-8.477"/>
  <polyline class="uuid-22facd42-2aaa-453c-8500-5ed0eca01703" points="228.713 131.388 228.713 199.615 129.757 256.778 129.757 188.525"/>
  <polygon class="uuid-22facd42-2aaa-453c-8500-5ed0eca01703" points="129.757 188.525 228.713 131.388 228.713 121.542 129.757 178.704 129.757 188.525"/>
  <path class="uuid-22facd42-2aaa-453c-8500-5ed0eca01703" d="M154.842,190.31c1.343-.784,2.443-.148,2.443,1.416"/>
  <path class="uuid-22facd42-2aaa-453c-8500-5ed0eca01703" d="M157.285,191.726c0,1.538-1.099,3.419-2.443,4.177"/>
  <path class="uuid-22facd42-2aaa-453c-8500-5ed0eca01703" d="M154.842,195.903c-1.32.783-2.443.147-2.443-1.391"/>
  <path class="uuid-22facd42-2aaa-453c-8500-5ed0eca01703" d="M152.399,194.511c0-1.542,1.123-3.422,2.443-4.202"/>
  <path class="uuid-22facd42-2aaa-453c-8500-5ed0eca01703" d="M154.842,205.381c1.343-.78,2.443-.148,2.443,1.394"/>
  <path class="uuid-22facd42-2aaa-453c-8500-5ed0eca01703" d="M157.285,206.775c0,1.538-1.099,3.418-2.443,4.198"/>
  <path class="uuid-22facd42-2aaa-453c-8500-5ed0eca01703" d="M154.842,210.973c-1.32.758-2.443.148-2.443-1.39"/>
  <path class="uuid-22facd42-2aaa-453c-8500-5ed0eca01703" d="M152.399,209.582c0-1.564,1.123-3.444,2.443-4.202"/>
  <path class="uuid-22facd42-2aaa-453c-8500-5ed0eca01703" d="M154.842,221.381c1.343-.783,2.443-.147,2.443,1.392"/>
  <path class="uuid-22facd42-2aaa-453c-8500-5ed0eca01703" d="M157.285,222.773c0,1.542-1.099,3.421-2.443,4.202"/>
  <path class="uuid-22facd42-2aaa-453c-8500-5ed0eca01703" d="M154.842,226.974c-1.32.758-2.443.147-2.443-1.416"/>
  <path class="uuid-22facd42-2aaa-453c-8500-5ed0eca01703" d="M152.399,225.558c0-1.516,1.123-3.419,2.443-4.177"/>
  <line class="uuid-d0760bf5-71cb-427e-8107-1a53ce390af8" x1="360.77" y1="273.169" x2="360.77" y2="280.962"/>
  <path class="uuid-22facd42-2aaa-453c-8500-5ed0eca01703" d="M360.77,280.962c-.707,2.369-2.27,3.712-4.298,4.96"/>
  <line class="uuid-d0760bf5-71cb-427e-8107-1a53ce390af8" x1="356.472" y1="285.922" x2="211.932" y2="369.392"/>
  <path class="uuid-22facd42-2aaa-453c-8500-5ed0eca01703" d="M211.932,369.392c-3.202,1.759-6.377,2.391-9.993,2.539"/>
  <line class="uuid-d0760bf5-71cb-427e-8107-1a53ce390af8" x1="190.506" y1="369.392" x2="101.713" y2="318.02"/>
  <path class="uuid-22facd42-2aaa-453c-8500-5ed0eca01703" d="M101.713,318.02c-2.028-1.221-3.592-2.59-4.25-4.938"/>
  <line class="uuid-d0760bf5-71cb-427e-8107-1a53ce390af8" x1="97.463" y1="313.082" x2="97.463" y2="305.268"/>
  <path class="uuid-22facd42-2aaa-453c-8500-5ed0eca01703" d="M97.463,305.268c.658,2.343,2.222,3.712,4.25,4.96"/>
  <line class="uuid-d0760bf5-71cb-427e-8107-1a53ce390af8" x1="101.713" y1="310.228" x2="190.506" y2="361.547"/>
  <path class="uuid-22facd42-2aaa-453c-8500-5ed0eca01703" d="M201.939,364.116c3.616-.148,6.791-.784,9.993-2.543"/>
  <line class="uuid-d0760bf5-71cb-427e-8107-1a53ce390af8" x1="211.932" y1="361.573" x2="356.472" y2="278.077"/>
  <path class="uuid-22facd42-2aaa-453c-8500-5ed0eca01703" d="M356.472,278.077c2.027-1.221,3.59-2.564,4.298-4.908"/>
  <line class="uuid-d0760bf5-71cb-427e-8107-1a53ce390af8" x1="101.713" y1="297.817" x2="246.301" y2="214.347"/>
  <path class="uuid-22facd42-2aaa-453c-8500-5ed0eca01703" d="M246.301,214.347c5.864-3.423,15.512-3.423,21.451,0"/>
  <line class="uuid-d0760bf5-71cb-427e-8107-1a53ce390af8" x1="267.751" y1="214.347" x2="356.472" y2="265.692"/>
  <path class="uuid-22facd42-2aaa-453c-8500-5ed0eca01703" d="M356.472,265.692c5.912,3.396,5.912,8.989,0,12.384"/>
  <path class="uuid-22facd42-2aaa-453c-8500-5ed0eca01703" d="M101.713,310.228c-5.866-3.423-5.866-9.015,0-12.411"/>
  <polygon class="uuid-22facd42-2aaa-453c-8500-5ed0eca01703" points="257.122 327.009 296.649 304.142 266.404 286.654 226.855 309.518 257.122 327.009"/>
  <path class="uuid-22facd42-2aaa-453c-8500-5ed0eca01703" d="M119.836,300.724c43.778-25.307,87.551-50.617,131.398-75.924,3.154-1.807,8.305-1.807,11.457.026"/>
  <line class="uuid-d0760bf5-71cb-427e-8107-1a53ce390af8" x1="262.692" y1="224.826" x2="307.47" y2="250.717"/>
  <path class="uuid-22facd42-2aaa-453c-8500-5ed0eca01703" d="M307.47,250.717c3.175,1.811,3.127,4.813,0,6.622-43.802,25.281-87.576,50.614-131.424,75.899-3.153,1.832-8.305,1.806-11.457,0"/>
  <line class="uuid-d0760bf5-71cb-427e-8107-1a53ce390af8" x1="164.589" y1="333.239" x2="119.836" y2="307.317"/>
  <path class="uuid-22facd42-2aaa-453c-8500-5ed0eca01703" d="M119.836,307.317c-3.149-1.806-3.149-4.786,0-6.593"/>
  <polyline class="uuid-22facd42-2aaa-453c-8500-5ed0eca01703" points="202.063 371.931 202.063 364.116 201.939 364.116"/>
  <path class="uuid-22facd42-2aaa-453c-8500-5ed0eca01703" d="M201.939,364.116c-4.055.048-7.841-.563-11.433-2.569"/>
  <path class="uuid-22facd42-2aaa-453c-8500-5ed0eca01703" d="M190.506,369.392c3.592,1.979,7.378,2.59,11.433,2.539"/>
  <line class="uuid-d0760bf5-71cb-427e-8107-1a53ce390af8" x1="201.939" y1="371.931" x2="202.063" y2="371.931"/>
  <line class="uuid-d0760bf5-71cb-427e-8107-1a53ce390af8" x1="164.2" y1="202.768" x2="202.944" y2="180.415"/>
  <line class="uuid-d0760bf5-71cb-427e-8107-1a53ce390af8" x1="164.2" y1="187.693" x2="202.944" y2="165.345"/>
  <line class="uuid-d0760bf5-71cb-427e-8107-1a53ce390af8" x1="164.2" y1="218.766" x2="195.492" y2="200.692"/>
  <line class="uuid-b5d16326-23d1-4d1b-a668-327bafefdebd" x1="161.256" y1="301.46" x2="147.454" y2="309.454"/>
  <line class="uuid-b5d16326-23d1-4d1b-a668-327bafefdebd" x1="147.454" y1="309.454" x2="133.606" y2="301.438"/>
  <line class="uuid-b5d16326-23d1-4d1b-a668-327bafefdebd" x1="133.606" y1="301.438" x2="147.466" y2="293.464"/>
  <line class="uuid-d0760bf5-71cb-427e-8107-1a53ce390af8" x1="147.462" y1="293.464" x2="161.256" y2="301.46"/>
  <line class="uuid-b5d16326-23d1-4d1b-a668-327bafefdebd" x1="175.101" y1="309.476" x2="161.3" y2="317.472"/>
  <line class="uuid-b5d16326-23d1-4d1b-a668-327bafefdebd" x1="161.3" y1="317.476" x2="147.454" y2="309.458"/>
  <line class="uuid-b5d16326-23d1-4d1b-a668-327bafefdebd" x1="147.454" y1="309.458" x2="161.311" y2="301.486"/>
  <line class="uuid-d0760bf5-71cb-427e-8107-1a53ce390af8" x1="161.308" y1="301.486" x2="175.101" y2="309.476"/>
  <line class="uuid-b5d16326-23d1-4d1b-a668-327bafefdebd" x1="188.947" y1="317.498" x2="175.146" y2="325.494"/>
  <line class="uuid-b5d16326-23d1-4d1b-a668-327bafefdebd" x1="175.146" y1="325.494" x2="161.3" y2="317.476"/>
  <line class="uuid-b5d16326-23d1-4d1b-a668-327bafefdebd" x1="161.3" y1="317.476" x2="175.156" y2="309.502"/>
  <line class="uuid-b5d16326-23d1-4d1b-a668-327bafefdebd" x1="175.156" y1="309.502" x2="188.947" y2="317.498"/>
  <line class="uuid-b5d16326-23d1-4d1b-a668-327bafefdebd" x1="175.057" y1="293.464" x2="161.256" y2="301.46"/>
  <line class="uuid-b5d16326-23d1-4d1b-a668-327bafefdebd" x1="161.256" y1="301.46" x2="147.406" y2="293.442"/>
  <line class="uuid-b5d16326-23d1-4d1b-a668-327bafefdebd" x1="147.406" y1="293.442" x2="161.263" y2="285.469"/>
  <line class="uuid-d0760bf5-71cb-427e-8107-1a53ce390af8" x1="161.263" y1="285.469" x2="175.057" y2="293.464"/>
  <line class="uuid-b5d16326-23d1-4d1b-a668-327bafefdebd" x1="188.903" y1="301.482" x2="175.101" y2="309.476"/>
  <line class="uuid-b5d16326-23d1-4d1b-a668-327bafefdebd" x1="175.101" y1="309.48" x2="161.256" y2="301.464"/>
  <line class="uuid-b5d16326-23d1-4d1b-a668-327bafefdebd" x1="161.256" y1="301.464" x2="175.112" y2="293.49"/>
  <line class="uuid-d0760bf5-71cb-427e-8107-1a53ce390af8" x1="175.108" y1="293.49" x2="188.903" y2="301.482"/>
  <line class="uuid-b5d16326-23d1-4d1b-a668-327bafefdebd" x1="202.748" y1="309.502" x2="188.947" y2="317.498"/>
  <line class="uuid-b5d16326-23d1-4d1b-a668-327bafefdebd" x1="188.947" y1="317.498" x2="175.101" y2="309.48"/>
  <line class="uuid-b5d16326-23d1-4d1b-a668-327bafefdebd" x1="175.101" y1="309.48" x2="188.958" y2="301.508"/>
  <line class="uuid-b5d16326-23d1-4d1b-a668-327bafefdebd" x1="188.859" y1="285.469" x2="175.057" y2="293.464"/>
  <line class="uuid-b5d16326-23d1-4d1b-a668-327bafefdebd" x1="175.057" y1="293.468" x2="161.212" y2="285.447"/>
  <line class="uuid-b5d16326-23d1-4d1b-a668-327bafefdebd" x1="161.212" y1="285.45" x2="175.068" y2="277.474"/>
  <line class="uuid-b5d16326-23d1-4d1b-a668-327bafefdebd" x1="175.068" y1="277.477" x2="188.859" y2="285.469"/>
  <line class="uuid-b5d16326-23d1-4d1b-a668-327bafefdebd" x1="202.703" y1="293.49" x2="188.903" y2="301.486"/>
  <line class="uuid-b5d16326-23d1-4d1b-a668-327bafefdebd" x1="188.903" y1="301.486" x2="175.057" y2="293.468"/>
  <line class="uuid-b5d16326-23d1-4d1b-a668-327bafefdebd" x1="175.057" y1="293.468" x2="188.913" y2="285.495"/>
  <line class="uuid-b5d16326-23d1-4d1b-a668-327bafefdebd" x1="188.913" y1="285.495" x2="202.707" y2="293.49"/>
  <line class="uuid-b5d16326-23d1-4d1b-a668-327bafefdebd" x1="216.553" y1="301.508" x2="202.748" y2="309.502"/>
  <line class="uuid-b5d16326-23d1-4d1b-a668-327bafefdebd" x1="188.903" y1="301.489" x2="202.759" y2="293.516"/>
  <line class="uuid-b5d16326-23d1-4d1b-a668-327bafefdebd" x1="202.659" y1="277.474" x2="188.859" y2="285.469"/>
  <line class="uuid-b5d16326-23d1-4d1b-a668-327bafefdebd" x1="188.859" y1="285.473" x2="175.013" y2="277.452"/>
  <line class="uuid-b5d16326-23d1-4d1b-a668-327bafefdebd" x1="175.013" y1="277.455" x2="188.869" y2="269.479"/>
  <line class="uuid-b5d16326-23d1-4d1b-a668-327bafefdebd" x1="188.865" y1="269.482" x2="202.659" y2="277.474"/>
  <line class="uuid-b5d16326-23d1-4d1b-a668-327bafefdebd" x1="216.505" y1="285.495" x2="202.703" y2="293.49"/>
  <line class="uuid-b5d16326-23d1-4d1b-a668-327bafefdebd" x1="202.703" y1="293.49" x2="188.859" y2="285.473"/>
  <line class="uuid-b5d16326-23d1-4d1b-a668-327bafefdebd" x1="188.859" y1="285.473" x2="202.715" y2="277.499"/>
  <line class="uuid-b5d16326-23d1-4d1b-a668-327bafefdebd" x1="202.715" y1="277.499" x2="216.509" y2="285.495"/>
  <line class="uuid-b5d16326-23d1-4d1b-a668-327bafefdebd" x1="230.355" y1="293.516" x2="216.549" y2="301.508"/>
  <line class="uuid-b5d16326-23d1-4d1b-a668-327bafefdebd" x1="202.703" y1="293.494" x2="216.561" y2="285.521"/>
  <line class="uuid-b5d16326-23d1-4d1b-a668-327bafefdebd" x1="216.561" y1="285.521" x2="230.355" y2="293.512"/>
  <line class="uuid-d0760bf5-71cb-427e-8107-1a53ce390af8" x1="211.03" y1="256.649" x2="224.824" y2="264.64"/>
  <line class="uuid-d0760bf5-71cb-427e-8107-1a53ce390af8" x1="224.876" y1="264.666" x2="238.67" y2="272.661"/>
  <line class="uuid-b5d16326-23d1-4d1b-a668-327bafefdebd" x1="238.724" y1="272.687" x2="252.515" y2="280.679"/>
  <line class="uuid-b5d16326-23d1-4d1b-a668-327bafefdebd" x1="238.626" y1="256.645" x2="224.824" y2="264.64"/>
  <line class="uuid-b5d16326-23d1-4d1b-a668-327bafefdebd" x1="224.824" y1="264.644" x2="210.976" y2="256.623"/>
  <line class="uuid-b5d16326-23d1-4d1b-a668-327bafefdebd" x1="210.976" y1="256.627" x2="224.836" y2="248.65"/>
  <line class="uuid-d0760bf5-71cb-427e-8107-1a53ce390af8" x1="224.832" y1="248.653" x2="238.626" y2="256.645"/>
  <line class="uuid-b5d16326-23d1-4d1b-a668-327bafefdebd" x1="252.471" y1="264.666" x2="238.67" y2="272.661"/>
  <line class="uuid-b5d16326-23d1-4d1b-a668-327bafefdebd" x1="238.67" y1="272.661" x2="224.824" y2="264.644"/>
  <line class="uuid-b5d16326-23d1-4d1b-a668-327bafefdebd" x1="224.824" y1="264.644" x2="238.68" y2="256.671"/>
  <line class="uuid-d0760bf5-71cb-427e-8107-1a53ce390af8" x1="238.677" y1="256.671" x2="252.471" y2="264.666"/>
  <line class="uuid-b5d16326-23d1-4d1b-a668-327bafefdebd" x1="266.316" y1="272.687" x2="252.515" y2="280.679"/>
  <line class="uuid-b5d16326-23d1-4d1b-a668-327bafefdebd" x1="252.515" y1="280.682" x2="238.67" y2="272.665"/>
  <line class="uuid-b5d16326-23d1-4d1b-a668-327bafefdebd" x1="238.67" y1="272.665" x2="252.526" y2="264.692"/>
  <line class="uuid-b5d16326-23d1-4d1b-a668-327bafefdebd" x1="252.526" y1="264.692" x2="266.316" y2="272.683"/>
  <line class="uuid-b5d16326-23d1-4d1b-a668-327bafefdebd" x1="252.427" y1="248.653" x2="238.626" y2="256.649"/>
  <line class="uuid-b5d16326-23d1-4d1b-a668-327bafefdebd" x1="238.626" y1="256.649" x2="224.78" y2="248.631"/>
  <line class="uuid-b5d16326-23d1-4d1b-a668-327bafefdebd" x1="224.78" y1="248.631" x2="238.636" y2="240.658"/>
  <line class="uuid-b5d16326-23d1-4d1b-a668-327bafefdebd" x1="238.636" y1="240.658" x2="252.427" y2="248.653"/>
  <line class="uuid-b5d16326-23d1-4d1b-a668-327bafefdebd" x1="266.272" y1="256.671" x2="252.471" y2="264.666"/>
  <line class="uuid-b5d16326-23d1-4d1b-a668-327bafefdebd" x1="252.471" y1="264.669" x2="238.626" y2="256.652"/>
  <line class="uuid-b5d16326-23d1-4d1b-a668-327bafefdebd" x1="238.626" y1="256.652" x2="252.482" y2="248.679"/>
  <line class="uuid-b5d16326-23d1-4d1b-a668-327bafefdebd" x1="252.482" y1="248.679" x2="266.276" y2="256.671"/>
  <line class="uuid-b5d16326-23d1-4d1b-a668-327bafefdebd" x1="280.121" y1="264.692" x2="266.316" y2="272.687"/>
  <line class="uuid-b5d16326-23d1-4d1b-a668-327bafefdebd" x1="266.32" y1="272.687" x2="252.471" y2="264.669"/>
  <line class="uuid-b5d16326-23d1-4d1b-a668-327bafefdebd" x1="252.471" y1="264.673" x2="266.327" y2="256.696"/>
  <line class="uuid-d0760bf5-71cb-427e-8107-1a53ce390af8" x1="266.327" y1="256.696" x2="280.121" y2="264.692"/>
  <line class="uuid-b5d16326-23d1-4d1b-a668-327bafefdebd" x1="266.228" y1="240.658" x2="252.427" y2="248.653"/>
  <line class="uuid-b5d16326-23d1-4d1b-a668-327bafefdebd" x1="252.427" y1="248.653" x2="238.581" y2="240.636"/>
  <line class="uuid-b5d16326-23d1-4d1b-a668-327bafefdebd" x1="238.581" y1="240.636" x2="252.438" y2="232.662"/>
  <line class="uuid-b5d16326-23d1-4d1b-a668-327bafefdebd" x1="252.434" y1="232.662" x2="266.228" y2="240.658"/>
  <line class="uuid-b5d16326-23d1-4d1b-a668-327bafefdebd" x1="280.073" y1="248.676" x2="266.272" y2="256.671"/>
  <line class="uuid-b5d16326-23d1-4d1b-a668-327bafefdebd" x1="266.272" y1="256.674" x2="252.427" y2="248.657"/>
  <line class="uuid-b5d16326-23d1-4d1b-a668-327bafefdebd" x1="252.427" y1="248.657" x2="266.283" y2="240.684"/>
  <line class="uuid-b5d16326-23d1-4d1b-a668-327bafefdebd" x1="266.283" y1="240.684" x2="280.077" y2="248.676"/>
  <line class="uuid-b5d16326-23d1-4d1b-a668-327bafefdebd" x1="293.923" y1="256.696" x2="280.117" y2="264.692"/>
  <line class="uuid-b5d16326-23d1-4d1b-a668-327bafefdebd" x1="280.121" y1="264.692" x2="266.272" y2="256.674"/>
  <line class="uuid-b5d16326-23d1-4d1b-a668-327bafefdebd" x1="266.272" y1="256.678" x2="280.129" y2="248.701"/>
  <line class="uuid-b5d16326-23d1-4d1b-a668-327bafefdebd" x1="280.129" y1="248.701" x2="293.923" y2="256.696"/>
  <line class="uuid-b5d16326-23d1-4d1b-a668-327bafefdebd" x1="188.865" y1="269.482" x2="202.659" y2="277.477"/>
  <line class="uuid-b5d16326-23d1-4d1b-a668-327bafefdebd" x1="202.715" y1="277.503" x2="216.509" y2="285.495"/>
  <line class="uuid-b5d16326-23d1-4d1b-a668-327bafefdebd" x1="216.561" y1="285.521" x2="230.355" y2="293.516"/>
  <line class="uuid-b5d16326-23d1-4d1b-a668-327bafefdebd" x1="216.461" y1="269.482" x2="202.659" y2="277.477"/>
  <line class="uuid-b5d16326-23d1-4d1b-a668-327bafefdebd" x1="202.659" y1="277.477" x2="188.813" y2="269.46"/>
  <line class="uuid-b5d16326-23d1-4d1b-a668-327bafefdebd" x1="188.813" y1="269.46" x2="202.671" y2="261.487"/>
  <line class="uuid-d0760bf5-71cb-427e-8107-1a53ce390af8" x1="202.667" y1="261.487" x2="216.461" y2="269.482"/>
  <line class="uuid-b5d16326-23d1-4d1b-a668-327bafefdebd" x1="230.307" y1="277.499" x2="216.505" y2="285.495"/>
  <line class="uuid-b5d16326-23d1-4d1b-a668-327bafefdebd" x1="216.505" y1="285.498" x2="202.659" y2="277.477"/>
  <line class="uuid-b5d16326-23d1-4d1b-a668-327bafefdebd" x1="202.659" y1="277.481" x2="216.517" y2="269.505"/>
  <line class="uuid-b5d16326-23d1-4d1b-a668-327bafefdebd" x1="216.517" y1="269.508" x2="230.311" y2="277.499"/>
  <line class="uuid-b5d16326-23d1-4d1b-a668-327bafefdebd" x1="244.155" y1="285.521" x2="230.351" y2="293.516"/>
  <line class="uuid-b5d16326-23d1-4d1b-a668-327bafefdebd" x1="230.355" y1="293.516" x2="216.505" y2="285.498"/>
  <line class="uuid-b5d16326-23d1-4d1b-a668-327bafefdebd" x1="216.505" y1="285.498" x2="230.361" y2="277.525"/>
  <line class="uuid-b5d16326-23d1-4d1b-a668-327bafefdebd" x1="230.361" y1="277.525" x2="244.155" y2="285.521"/>
  <line class="uuid-7dd0e193-922d-4dc1-9b69-09c64a1c61e1" x1="109.722" y1="312.719" x2="102.055" y2="299.455"/>
  <line class="uuid-7dd0e193-922d-4dc1-9b69-09c64a1c61e1" x1="148.86" y1="335.387" x2="140.92" y2="321.56"/>
  <line class="uuid-7dd0e193-922d-4dc1-9b69-09c64a1c61e1" x1="125.702" y1="295.275" x2="121.864" y2="288.559"/>
  <line class="uuid-7dd0e193-922d-4dc1-9b69-09c64a1c61e1" x1="188.189" y1="358.324" x2="174.825" y2="335.118"/>
  <line class="uuid-7dd0e193-922d-4dc1-9b69-09c64a1c61e1" x1="145.266" y1="283.964" x2="141.383" y2="277.272"/>
  <line class="uuid-7dd0e193-922d-4dc1-9b69-09c64a1c61e1" x1="214.716" y1="359.156" x2="194.22" y2="323.613"/>
  <line class="uuid-7dd0e193-922d-4dc1-9b69-09c64a1c61e1" x1="164.836" y1="272.679" x2="160.951" y2="265.987"/>
  <line class="uuid-7dd0e193-922d-4dc1-9b69-09c64a1c61e1" x1="234.284" y1="347.871" x2="213.79" y2="312.324"/>
  <line class="uuid-7dd0e193-922d-4dc1-9b69-09c64a1c61e1" x1="184.351" y1="261.369" x2="180.517" y2="254.702"/>
  <line class="uuid-7dd0e193-922d-4dc1-9b69-09c64a1c61e1" x1="253.456" y1="335.851" x2="245.667" y2="322.418"/>
  <line class="uuid-7dd0e193-922d-4dc1-9b69-09c64a1c61e1" x1="234.358" y1="302.846" x2="234.015" y2="302.166"/>
  <line class="uuid-7dd0e193-922d-4dc1-9b69-09c64a1c61e1" x1="203.918" y1="250.085" x2="200.084" y2="243.439"/>
  <line class="uuid-7dd0e193-922d-4dc1-9b69-09c64a1c61e1" x1="272.781" y1="324.198" x2="271.048" y2="321.218"/>
  <line class="uuid-7dd0e193-922d-4dc1-9b69-09c64a1c61e1" x1="253.921" y1="291.539" x2="253.508" y2="290.877"/>
  <line class="uuid-7dd0e193-922d-4dc1-9b69-09c64a1c61e1" x1="223.484" y1="238.774" x2="219.651" y2="232.155"/>
  <line class="uuid-7dd0e193-922d-4dc1-9b69-09c64a1c61e1" x1="292.3" y1="312.936" x2="290.614" y2="309.933"/>
  <line class="uuid-7dd0e193-922d-4dc1-9b69-09c64a1c61e1" x1="280.695" y1="292.809" x2="272.855" y2="279.155"/>
  <line class="uuid-7dd0e193-922d-4dc1-9b69-09c64a1c61e1" x1="243.004" y1="227.49" x2="239.167" y2="220.867"/>
  <line class="uuid-7dd0e193-922d-4dc1-9b69-09c64a1c61e1" x1="312.526" y1="302.703" x2="291.958" y2="267.134"/>
  <line class="uuid-7dd0e193-922d-4dc1-9b69-09c64a1c61e1" x1="270.802" y1="230.452" x2="261.228" y2="213.858"/>
  <line class="uuid-7dd0e193-922d-4dc1-9b69-09c64a1c61e1" x1="332.07" y1="291.467" x2="310.888" y2="254.724"/>
  <line class="uuid-7dd0e193-922d-4dc1-9b69-09c64a1c61e1" x1="308.78" y1="251.034" x2="299.262" y2="234.597"/>
  <line class="uuid-7dd0e193-922d-4dc1-9b69-09c64a1c61e1" x1="351.365" y1="279.689" x2="338.248" y2="256.972"/>
  <line class="uuid-7dd0e193-922d-4dc1-9b69-09c64a1c61e1" x1="282.554" y1="297.475" x2="271.339" y2="316.869"/>
  <line class="uuid-7dd0e193-922d-4dc1-9b69-09c64a1c61e1" x1="259.248" y1="292.636" x2="244.395" y2="318.363"/>
  <line class="uuid-7dd0e193-922d-4dc1-9b69-09c64a1c61e1" x1="214.375" y1="365.753" x2="214.375" y2="362.453"/>
  <line class="uuid-7dd0e193-922d-4dc1-9b69-09c64a1c61e1" x1="225.634" y1="359.229" x2="225.634" y2="355.955"/>
  <line class="uuid-7dd0e193-922d-4dc1-9b69-09c64a1c61e1" x1="236.969" y1="352.706" x2="236.969" y2="349.435"/>
  <line class="uuid-7dd0e193-922d-4dc1-9b69-09c64a1c61e1" x1="248.232" y1="346.209" x2="248.232" y2="342.912"/>
  <line class="uuid-7dd0e193-922d-4dc1-9b69-09c64a1c61e1" x1="259.539" y1="339.689" x2="259.539" y2="336.388"/>
  <line class="uuid-7dd0e193-922d-4dc1-9b69-09c64a1c61e1" x1="270.828" y1="333.165" x2="270.828" y2="329.864"/>
  <line class="uuid-7dd0e193-922d-4dc1-9b69-09c64a1c61e1" x1="282.09" y1="326.641" x2="282.09" y2="323.344"/>
  <line class="uuid-7dd0e193-922d-4dc1-9b69-09c64a1c61e1" x1="293.396" y1="320.117" x2="293.396" y2="316.846"/>
  <line class="uuid-7dd0e193-922d-4dc1-9b69-09c64a1c61e1" x1="304.659" y1="313.598" x2="304.659" y2="310.323"/>
  <line class="uuid-7dd0e193-922d-4dc1-9b69-09c64a1c61e1" x1="315.944" y1="307.074" x2="315.944" y2="303.8"/>
  <line class="uuid-7dd0e193-922d-4dc1-9b69-09c64a1c61e1" x1="327.254" y1="300.554" x2="327.254" y2="297.28"/>
  <line class="uuid-7dd0e193-922d-4dc1-9b69-09c64a1c61e1" x1="338.517" y1="294.032" x2="338.517" y2="290.783"/>
  <line class="uuid-7dd0e193-922d-4dc1-9b69-09c64a1c61e1" x1="349.852" y1="287.508" x2="349.852" y2="284.237"/>
  <line class="uuid-7dd0e193-922d-4dc1-9b69-09c64a1c61e1" x1="94.625" y1="279.59" x2="92.235" y2="280.954"/>
  <line class="uuid-7dd0e193-922d-4dc1-9b69-09c64a1c61e1" x1="94.625" y1="266.543" x2="92.235" y2="267.911"/>
  <line class="uuid-7dd0e193-922d-4dc1-9b69-09c64a1c61e1" x1="94.625" y1="253.525" x2="92.235" y2="254.89"/>
  <line class="uuid-7dd0e193-922d-4dc1-9b69-09c64a1c61e1" x1="94.625" y1="240.451" x2="92.235" y2="241.821"/>
  <line class="uuid-7dd0e193-922d-4dc1-9b69-09c64a1c61e1" x1="94.625" y1="227.434" x2="92.235" y2="228.803"/>
  <line class="uuid-7dd0e193-922d-4dc1-9b69-09c64a1c61e1" x1="94.625" y1="214.388" x2="92.235" y2="215.756"/>
  <line class="uuid-7dd0e193-922d-4dc1-9b69-09c64a1c61e1" x1="94.625" y1="201.37" x2="92.235" y2="202.738"/>
  <line class="uuid-7dd0e193-922d-4dc1-9b69-09c64a1c61e1" x1="94.625" y1="188.322" x2="92.235" y2="189.692"/>
  <line class="uuid-7dd0e193-922d-4dc1-9b69-09c64a1c61e1" x1="106.301" y1="168.546" x2="91.539" y2="177.086"/>
  <line class="uuid-7dd0e193-922d-4dc1-9b69-09c64a1c61e1" x1="260.945" y1="177.218" x2="256.525" y2="184.953"/>
  <line class="uuid-7dd0e193-922d-4dc1-9b69-09c64a1c61e1" x1="242.721" y1="208.74" x2="236.253" y2="220.123"/>
  <line class="uuid-7dd0e193-922d-4dc1-9b69-09c64a1c61e1" x1="261.029" y1="131.976" x2="256.493" y2="139.762"/>
  <line class="uuid-7dd0e193-922d-4dc1-9b69-09c64a1c61e1" x1="202.988" y1="232.479" x2="197.766" y2="241.552"/>
  <line class="uuid-7dd0e193-922d-4dc1-9b69-09c64a1c61e1" x1="260.794" y1="87.225" x2="256.091" y2="95.356"/>
  <line class="uuid-7dd0e193-922d-4dc1-9b69-09c64a1c61e1" x1="163.846" y1="255.125" x2="158.739" y2="263.996"/>
  <line class="uuid-7dd0e193-922d-4dc1-9b69-09c64a1c61e1" x1="227.602" y1="99.473" x2="222.275" y2="108.826"/>
  <line class="uuid-7dd0e193-922d-4dc1-9b69-09c64a1c61e1" x1="125.279" y1="276.793" x2="119.086" y2="287.474"/>
  <line class="uuid-7dd0e193-922d-4dc1-9b69-09c64a1c61e1" x1="188.836" y1="121.52" x2="182.895" y2="131.874"/>
  <line class="uuid-7dd0e193-922d-4dc1-9b69-09c64a1c61e1" x1="102.629" y1="270.696" x2="96.959" y2="280.77"/>
  <line class="uuid-0da737de-cd4b-4612-bfa1-2301d8e0381c" x1="149.754" y1="144.059" x2="144.04" y2="154.016"/>
  <line class="uuid-7dd0e193-922d-4dc1-9b69-09c64a1c61e1" x1="102.683" y1="225.617" x2="96.974" y2="235.466"/>
  <line class="uuid-7dd0e193-922d-4dc1-9b69-09c64a1c61e1" x1="109.899" y1="167.961" x2="105.447" y2="175.698"/>
  <line class="uuid-0da737de-cd4b-4612-bfa1-2301d8e0381c" x1="102.092" y1="181.464" x2="97.617" y2="189.161"/>
  <line class="uuid-7dd0e193-922d-4dc1-9b69-09c64a1c61e1" x1="200.206" y1="366.069" x2="194.93" y2="369.123"/>
  <line class="uuid-7dd0e193-922d-4dc1-9b69-09c64a1c61e1" x1="186.036" y1="361.208" x2="183.178" y2="362.846"/>
  <line class="uuid-7dd0e193-922d-4dc1-9b69-09c64a1c61e1" x1="174.777" y1="354.686" x2="171.919" y2="356.323"/>
  <line class="uuid-7dd0e193-922d-4dc1-9b69-09c64a1c61e1" x1="163.514" y1="348.162" x2="160.656" y2="349.799"/>
  <line class="uuid-7dd0e193-922d-4dc1-9b69-09c64a1c61e1" x1="152.231" y1="341.642" x2="149.393" y2="343.275"/>
  <line class="uuid-7dd0e193-922d-4dc1-9b69-09c64a1c61e1" x1="140.92" y1="335.118" x2="138.06" y2="336.755"/>
  <line class="uuid-7dd0e193-922d-4dc1-9b69-09c64a1c61e1" x1="129.657" y1="328.595" x2="126.799" y2="330.233"/>
  <line class="uuid-7dd0e193-922d-4dc1-9b69-09c64a1c61e1" x1="118.372" y1="322.071" x2="115.536" y2="323.713"/>
  <line class="uuid-7dd0e193-922d-4dc1-9b69-09c64a1c61e1" x1="107.11" y1="315.551" x2="104.277" y2="317.189"/>
  <line class="uuid-521aedd5-3ab8-4004-92c6-f0a39cd27cdc" x1="203.289" y1="136.326" x2="194.852" y2="150.926"/>
  <line class="uuid-7dd0e193-922d-4dc1-9b69-09c64a1c61e1" x1="164.751" y1="157.993" x2="155.169" y2="174.4"/>
</svg>