<?xml version="1.0" encoding="UTF-8"?>
<svg id="uuid-a62ae40b-73df-4488-9a79-1bcc7e523692" data-name="&amp;lt;Layer&amp;gt;" xmlns="http://www.w3.org/2000/svg" viewBox="0 0 451.11 451.11">
  <defs>
    <style>
      .uuid-13ba896b-d0ea-4d53-88a5-77c0c08dac94, .uuid-63e179c5-411b-4652-9017-8d6ac4072de2, .uuid-1d46123e-cbb1-4b34-b63c-97025f14e403, .uuid-ce331fe3-482f-44b0-b451-fd44d994e197, .uuid-60cce7c4-c082-42b8-9854-ef6409c880b0 {
        stroke: #000;
        stroke-linecap: round;
      }

      .uuid-13ba896b-d0ea-4d53-88a5-77c0c08dac94, .uuid-63e179c5-411b-4652-9017-8d6ac4072de2, .uuid-60cce7c4-c082-42b8-9854-ef6409c880b0 {
        stroke-linejoin: round;
      }

      .uuid-13ba896b-d0ea-4d53-88a5-77c0c08dac94, .uuid-1d46123e-cbb1-4b34-b63c-97025f14e403, .uuid-ce331fe3-482f-44b0-b451-fd44d994e197, .uuid-60cce7c4-c082-42b8-9854-ef6409c880b0 {
        fill: none;
      }

      .uuid-13ba896b-d0ea-4d53-88a5-77c0c08dac94, .uuid-60cce7c4-c082-42b8-9854-ef6409c880b0 {
        stroke-width: 4.113px;
      }

      .uuid-63e179c5-411b-4652-9017-8d6ac4072de2 {
        fill: #1986c6;
        stroke-width: .317px;
      }

      .uuid-63e179c5-411b-4652-9017-8d6ac4072de2, .uuid-ce331fe3-482f-44b0-b451-fd44d994e197, .uuid-60cce7c4-c082-42b8-9854-ef6409c880b0 {
        fill-rule: evenodd;
      }

      .uuid-1d46123e-cbb1-4b34-b63c-97025f14e403 {
        stroke-miterlimit: 10;
      }

      .uuid-1d46123e-cbb1-4b34-b63c-97025f14e403, .uuid-ce331fe3-482f-44b0-b451-fd44d994e197 {
        stroke-width: 1.163px;
      }

      .uuid-ce331fe3-482f-44b0-b451-fd44d994e197 {
        stroke-miterlimit: 22.926;
      }
    </style>
  </defs>
  <path class="uuid-60cce7c4-c082-42b8-9854-ef6409c880b0" d="M118.084,237.713c-.806.437-1.564,1.023-2.248,1.733-.415.341-.758.732-1.099,1.221-.122.048-.196.169-.244.269-.341.463-.684.879-.927,1.464-.125.052-.125.122-.125.173-.17.291-.339.585-.463.806-.048.122-.122.243-.122.343-.173.415-.389.828-.441,1.221-.195.295-.317.658-.365.953-.048.217-.169.437-.221.684-.074.17-.074.343-.121.511,0,0-.074,0,0,.074-.074.389-.174.706-.247,1.049-.218,1.564-.391,3.006-.438,4.765,0,.511-.195.927-.49,1.099"/>
  <path class="uuid-60cce7c4-c082-42b8-9854-ef6409c880b0" d="M149.399,258.502c-3.712-6.451-8.89-12.069-14.508-15.37-5.718-3.271-10.873-3.59-14.586-1.438"/>
  <path class="uuid-60cce7c4-c082-42b8-9854-ef6409c880b0" d="M120.306,241.694c-3.786,2.148-6.059,6.788-6.059,13.337s2.273,13.85,6.059,20.325c3.712,6.446,8.868,12.091,14.586,15.362,5.618,3.274,10.795,3.594,14.508,1.442,3.764-2.149,6.034-6.766,6.034-13.338s-2.27-13.848-6.034-20.298"/>
  <path class="uuid-60cce7c4-c082-42b8-9854-ef6409c880b0" d="M142.902,262.309c2.027,3.566,3.299,7.573,3.299,11.19s-1.272,6.155-3.299,7.328c-2.102,1.195-4.957,1.023-8.01-.784-3.154-1.832-5.986-4.908-8.04-8.473"/>
  <path class="uuid-60cce7c4-c082-42b8-9854-ef6409c880b0" d="M126.756,271.371c-1.979-3.492-3.251-7.424-3.251-10.968,0-3.588,1.272-6.155,3.347-7.33"/>
  <path class="uuid-60cce7c4-c082-42b8-9854-ef6409c880b0" d="M126.852,253.051c2.053-1.173,4.886-1.001,8.04.806,3.053,1.807,5.908,4.912,8.01,8.451"/>
  <path class="uuid-60cce7c4-c082-42b8-9854-ef6409c880b0" d="M251.072,334.031c0,3.614-1.273,6.155-3.349,7.33-2.053,1.195-4.886,1.023-8.014-.758-3.101-1.859-5.934-4.934-8.036-8.477"/>
  <path class="uuid-60cce7c4-c082-42b8-9854-ef6409c880b0" d="M231.625,331.955c-2.026-3.542-3.249-7.501-3.249-11.041,0-3.618,1.269-6.108,3.371-7.308.048-.07.099-.07.169-.144,2.031-1.025,4.817-.809,7.793.954,3.128,1.805,5.96,4.86,8.014,8.403,2.075,3.614,3.349,7.619,3.349,11.211"/>
  <path class="uuid-60cce7c4-c082-42b8-9854-ef6409c880b0" d="M254.272,319.056c-3.716-6.472-8.894-12.116-14.564-15.39-5.713-3.271-10.868-3.592-14.582-1.44"/>
  <path class="uuid-60cce7c4-c082-42b8-9854-ef6409c880b0" d="M225.127,302.226c-3.712,2.172-6.059,6.789-6.059,13.338s2.346,13.85,6.059,20.325c3.714,6.446,8.868,12.09,14.582,15.361,5.67,3.301,10.847,3.595,14.564,1.442,3.708-2.148,6.03-6.765,6.03-13.337s-2.322-13.85-6.03-20.299"/>
  <path class="uuid-60cce7c4-c082-42b8-9854-ef6409c880b0" d="M247.723,322.842c2.001,3.566,3.297,7.573,3.297,11.189s-1.295,6.155-3.297,7.33c-2.053,1.195-4.886,1.023-8.014-.81-3.149-1.781-5.982-4.882-8.036-8.447"/>
  <path class="uuid-60cce7c4-c082-42b8-9854-ef6409c880b0" d="M231.574,331.931c-1.976-3.518-3.198-7.452-3.198-10.994,0-3.588,1.269-6.13,3.297-7.33"/>
  <path class="uuid-60cce7c4-c082-42b8-9854-ef6409c880b0" d="M231.673,313.607c2.054-1.195,4.887-1.023,8.036.784,3.128,1.807,5.96,4.912,8.014,8.451"/>
  <path class="uuid-60cce7c4-c082-42b8-9854-ef6409c880b0" d="M215.892,313.707c0-1.686.122-3.249.395-4.692.07-.411.169-.827.243-1.221.221-.927.511-1.88.879-2.734.343-.931.806-1.857,1.392-2.785.221-.415.516-.806.857-1.173.243-.343.464-.633.758-.854.122-.173.217-.367.413-.415.221-.243.515-.463.809-.71.391-.343.802-.633,1.221-.854"/>
  <polyline class="uuid-60cce7c4-c082-42b8-9854-ef6409c880b0" points="272.518 347.516 354.62 300.174 354.866 300 354.914 299.879 355.035 299.783 355.083 299.416 355.135 299.025 354.914 299.121"/>
  <polygon class="uuid-60cce7c4-c082-42b8-9854-ef6409c880b0" points="214.207 314.685 214.134 314.758 214.134 314.685 214.207 314.685 215.892 313.707 215.892 313.779 214.207 314.685"/>
  <polyline class="uuid-60cce7c4-c082-42b8-9854-ef6409c880b0" points="243.178 232.627 240.858 228.526 323.205 181.014"/>
  <path class="uuid-60cce7c4-c082-42b8-9854-ef6409c880b0" d="M343.577,286.567c-3.638,2.127-6.619.415-6.619-3.834,0-4.228,2.98-9.382,6.619-11.482,3.664-2.123,6.696-.417,6.696,3.837,0,4.224-3.032,9.379-6.696,11.479Z"/>
  <polyline class="uuid-60cce7c4-c082-42b8-9854-ef6409c880b0" points="272.518 347.442 272.518 335.89 272.787 335.716 354.914 288.278"/>
  <polyline class="uuid-60cce7c4-c082-42b8-9854-ef6409c880b0" points="98.127 230.894 95.975 229.625 95.975 220.438 98.127 221.737"/>
  <polyline class="uuid-60cce7c4-c082-42b8-9854-ef6409c880b0" points="272.518 335.89 272.787 297.218 272.787 296.63"/>
  <path class="uuid-60cce7c4-c082-42b8-9854-ef6409c880b0" d="M272.787,296.63c0-.463-.052-.927-.269-1.391-.074-.169-.122-.389-.247-.562-.511-.88-1.512-1.807-3.419-2.98"/>
  <polyline class="uuid-60cce7c4-c082-42b8-9854-ef6409c880b0" points="268.853 291.697 268.658 291.575 257.421 285.029"/>
  <path class="uuid-60cce7c4-c082-42b8-9854-ef6409c880b0" d="M243.178,232.627c-.636-1.39-1.438-2.782-2.321-4.102-.88-1.295-1.855-2.444-2.856-3.445-.048-.047-.1-.047-.1-.095-1.122-1.053-2.27-1.931-3.492-2.617"/>
  <path class="uuid-60cce7c4-c082-42b8-9854-ef6409c880b0" d="M98.127,145.713v73.503M98.127,221.737v13.58c0,3.371,1.196,7.083,3.124,10.454,1.906,3.299,4.591,6.207,7.501,7.892"/>
  <path class="uuid-60cce7c4-c082-42b8-9854-ef6409c880b0" d="M109.264,253.953c.537.295.928.343,1.269.125.295-.173.49-.588.49-1.099,0-1.686.17-3.323.438-4.765.073-.343.125-.754.247-1.049"/>
  <path class="uuid-60cce7c4-c082-42b8-9854-ef6409c880b0" d="M118.084,237.713c2.906-1.638,6.571-2.053,10.699-.88,1.903.463,4.003,1.391,6.108,2.613,6.546,3.76,12.458,10.21,16.782,17.635,4.274,7.382,6.961,15.685,7.009,23.235"/>
  <path class="uuid-60cce7c4-c082-42b8-9854-ef6409c880b0" d="M158.683,280.486c0,1.095.805,2.491,1.809,3.027.634.343,1.266.758,2.024,1.175,12.143,7.06,39.671,23.158,51.619,30.071"/>
  <polyline class="uuid-60cce7c4-c082-42b8-9854-ef6409c880b0" points="214.134 314.758 214.134 314.685 214.207 314.685"/>
  <path class="uuid-60cce7c4-c082-42b8-9854-ef6409c880b0" d="M214.207,314.685c.463.315.858.315,1.149.195.172-.195.293-.295.415-.537.048-.1.12-.343.12-.563"/>
  <path class="uuid-60cce7c4-c082-42b8-9854-ef6409c880b0" d="M215.892,313.707c0-.854.048-1.686.122-2.444.052-.805.1-1.563.273-2.248M222.857,298.267c2.956-1.685,6.616-2.028,10.747-.879,1.907.463,4.004,1.343,6.104,2.565,2.37,1.394,4.619,3.079,6.84,5.054"/>
  <path class="uuid-60cce7c4-c082-42b8-9854-ef6409c880b0" d="M256.589,317.712c2.224,3.834,3.956,7.889,5.178,12.017,1.151,3.886,1.785,7.793,1.785,11.509,0,1.097.831,2.487,1.759,3.076"/>
  <path class="uuid-60cce7c4-c082-42b8-9854-ef6409c880b0" d="M284.634,320.472c-3.638,2.127-6.618.391-6.618-3.833,0-4.25,2.98-9.383,6.618-11.506,3.738-2.127,6.693-.395,6.693,3.834s-2.954,9.382-6.693,11.504Z"/>
  <polygon class="uuid-60cce7c4-c082-42b8-9854-ef6409c880b0" points="250.092 233.459 320.346 192.908 329.412 235.585 259.203 276.136 250.092 233.459"/>
  <polyline class="uuid-60cce7c4-c082-42b8-9854-ef6409c880b0" points="256.711 264.509 292.084 244.501 298.753 232.627 317.097 222.222 327.09 224.713"/>
  <path class="uuid-60cce7c4-c082-42b8-9854-ef6409c880b0" d="M235.754,239.835c-.415-1.781-1.173-3.542-2.222-5.054-1.027-1.564-2.37-2.833-3.764-3.591"/>
  <polygon class="uuid-60cce7c4-c082-42b8-9854-ef6409c880b0" points="244.058 281.316 244.058 261.698 236.438 266.095 236.438 285.736 244.058 281.316"/>
  <path class="uuid-60cce7c4-c082-42b8-9854-ef6409c880b0" d="M269.707,176.275c-.096-5.104-4.346-9.235-9.452-9.235-5.18,0-9.405,4.131-9.526,9.235"/>
  <polyline class="uuid-60cce7c4-c082-42b8-9854-ef6409c880b0" points="250.729 176.275 250.729 176.275 250.777 186.437"/>
  <path class="uuid-60cce7c4-c082-42b8-9854-ef6409c880b0" d="M250.777,186.437c.121,1.295,1.051,2.587,2.734,3.592,3.738,2.122,9.699,2.122,13.411,0,1.737-1.005,2.689-2.296,2.785-3.592"/>
  <polygon class="uuid-60cce7c4-c082-42b8-9854-ef6409c880b0" points="343.361 223.738 343.361 204.119 335.689 208.521 335.689 228.161 343.361 223.738"/>
  <path class="uuid-60cce7c4-c082-42b8-9854-ef6409c880b0" d="M265.311,344.289c-1.001-.563-1.759-1.927-1.759-3.05,0-3.716-.633-7.623-1.785-11.509"/>
  <path class="uuid-60cce7c4-c082-42b8-9854-ef6409c880b0" d="M125.119,207.663c4.348,2.495,8.646,5.034,13.701,8.16,1.468.854,2.443.269,2.443-1.368,0-2.2.052-4.934.052-7.693,0-1.101-.979-3.301-2.369-4.129-3.886-2.222-7.966-4.838-11.337-6.766-1.442-.831-2.417-2.495-2.37-4.128v-7.135c0-1.663,1.049-2.295,2.444-1.368,3.885,2.638,8.183,5.228,12.484,7.719"/>
  <path class="uuid-63e179c5-411b-4652-9017-8d6ac4072de2" d="M114.614,244.917c0-.074,0-.122.048-.195l.074-.173.051-.048-.051.099-.074.217c-.048.026-.048.074-.048.1Z"/>
  <polygon class="uuid-63e179c5-411b-4652-9017-8d6ac4072de2" points="219.947 304.471 219.947 304.471 219.947 304.471 219.947 304.471"/>
  <path class="uuid-63e179c5-411b-4652-9017-8d6ac4072de2" d="M114.614,244.917c.048-.074.048-.122.122-.221l.051-.169.048-.026-.048.073-.051.243c-.074.026-.074.074-.122.1Z"/>
  <polygon class="uuid-63e179c5-411b-4652-9017-8d6ac4072de2" points="220.021 304.449 220.021 304.449 220.021 304.449 220.021 304.449"/>
  <line class="uuid-13ba896b-d0ea-4d53-88a5-77c0c08dac94" x1="267.168" y1="345.368" x2="271.05" y2="347.564"/>
  <path class="uuid-60cce7c4-c082-42b8-9854-ef6409c880b0" d="M244.621,237.175c-.341-1.638-.857-3.08-1.442-4.548"/>
  <path class="uuid-60cce7c4-c082-42b8-9854-ef6409c880b0" d="M323.205,181.014c1.858,2.734,3.006,5.397,3.786,8.646"/>
  <line class="uuid-13ba896b-d0ea-4d53-88a5-77c0c08dac94" x1="326.992" y1="189.659" x2="336.105" y2="232.458"/>
  <path class="uuid-60cce7c4-c082-42b8-9854-ef6409c880b0" d="M336.105,232.458c.463,2.148,1.685,3.907,3.592,5.008"/>
  <line class="uuid-13ba896b-d0ea-4d53-88a5-77c0c08dac94" x1="339.696" y1="237.466" x2="348.976" y2="242.863"/>
  <path class="uuid-60cce7c4-c082-42b8-9854-ef6409c880b0" d="M348.976,242.863c5.301,3.08,6.159,5.28,6.159,6.792"/>
  <line class="uuid-13ba896b-d0ea-4d53-88a5-77c0c08dac94" x1="355.135" y1="249.656" x2="355.135" y2="299.025"/>
  <path class="uuid-60cce7c4-c082-42b8-9854-ef6409c880b0" d="M316.758,174.81c2.661,1.633,4.588,3.612,6.399,6.177"/>
  <line class="uuid-13ba896b-d0ea-4d53-88a5-77c0c08dac94" x1="323.157" y1="180.988" x2="240.788" y2="228.526"/>
  <path class="uuid-60cce7c4-c082-42b8-9854-ef6409c880b0" d="M240.788,228.526c-1.664-2.444-3.764-4.666-6.377-6.178"/>
  <path class="uuid-60cce7c4-c082-42b8-9854-ef6409c880b0" d="M99.86,144.664c-.221-.125-.464-.195-.636-.221"/>
  <line class="uuid-13ba896b-d0ea-4d53-88a5-77c0c08dac94" x1="99.224" y1="144.444" x2="179.934" y2="97.838"/>
  <path class="uuid-60cce7c4-c082-42b8-9854-ef6409c880b0" d="M179.934,97.838c1.443-.832,1.443-1.151,3.028-.273"/>
  <line class="uuid-13ba896b-d0ea-4d53-88a5-77c0c08dac94" x1="182.962" y1="97.565" x2="316.758" y2="174.81"/>
  <path class="uuid-60cce7c4-c082-42b8-9854-ef6409c880b0" d="M98.127,219.216v1.346"/>
  <path class="uuid-60cce7c4-c082-42b8-9854-ef6409c880b0" d="M257.421,285.029c-1.979-1.173-3.201-2.858-3.664-5.058"/>
  <line class="uuid-13ba896b-d0ea-4d53-88a5-77c0c08dac94" x1="253.757" y1="279.97" x2="244.621" y2="237.175"/>
  <line class="uuid-13ba896b-d0ea-4d53-88a5-77c0c08dac94" x1="234.411" y1="222.369" x2="99.908" y2="144.664"/>
  <line class="uuid-13ba896b-d0ea-4d53-88a5-77c0c08dac94" x1="108.752" y1="253.663" x2="110.533" y2="254.078"/>
  <path class="uuid-60cce7c4-c082-42b8-9854-ef6409c880b0" d="M246.549,305.059c3.764,3.492,7.208,7.793,9.919,12.554"/>
  <line class="uuid-13ba896b-d0ea-4d53-88a5-77c0c08dac94" x1="240.788" y1="263.604" x2="235.754" y2="239.835"/>
  <line class="uuid-13ba896b-d0ea-4d53-88a5-77c0c08dac94" x1="229.768" y1="231.189" x2="199.28" y2="213.528"/>
  <path class="uuid-60cce7c4-c082-42b8-9854-ef6409c880b0" d="M199.28,213.528c-.927-.515-1.755-.052-1.755,1.049"/>
  <line class="uuid-13ba896b-d0ea-4d53-88a5-77c0c08dac94" x1="197.525" y1="214.577" x2="197.525" y2="251.561"/>
  <path class="uuid-60cce7c4-c082-42b8-9854-ef6409c880b0" d="M197.525,251.561c0,1.171.828,2.517,1.755,3.102"/>
  <line class="uuid-13ba896b-d0ea-4d53-88a5-77c0c08dac94" x1="199.28" y1="254.663" x2="236.438" y2="276.088"/>
  <line class="uuid-13ba896b-d0ea-4d53-88a5-77c0c08dac94" x1="244.058" y1="281.316" x2="247.891" y2="279.142"/>
  <path class="uuid-60cce7c4-c082-42b8-9854-ef6409c880b0" d="M110.95,218.827c23.28,13.437,126.879,73.237,150.158,86.696"/>
  <line class="uuid-13ba896b-d0ea-4d53-88a5-77c0c08dac94" x1="269.707" y1="186.437" x2="269.707" y2="176.275"/>
  <line class="uuid-13ba896b-d0ea-4d53-88a5-77c0c08dac94" x1="298.63" y1="311.579" x2="298.63" y2="291.965"/>
  <line class="uuid-13ba896b-d0ea-4d53-88a5-77c0c08dac94" x1="306.129" y1="287.642" x2="306.129" y2="307.234"/>
  <line class="uuid-13ba896b-d0ea-4d53-88a5-77c0c08dac94" x1="314.021" y1="302.715" x2="314.021" y2="283.097"/>
  <line class="uuid-13ba896b-d0ea-4d53-88a5-77c0c08dac94" x1="321.689" y1="278.653" x2="321.689" y2="298.267"/>
  <line class="uuid-13ba896b-d0ea-4d53-88a5-77c0c08dac94" x1="329.776" y1="293.628" x2="329.776" y2="274.01"/>
  <path class="uuid-60cce7c4-c082-42b8-9854-ef6409c880b0" d="M272.444,347.538c-.295.343-.806.393-1.442.052"/>
  <line class="uuid-13ba896b-d0ea-4d53-88a5-77c0c08dac94" x1="267.168" y1="345.368" x2="265.311" y2="344.289"/>
  <line class="uuid-13ba896b-d0ea-4d53-88a5-77c0c08dac94" x1="261.767" y1="329.729" x2="272.444" y2="335.912"/>
  <line class="uuid-13ba896b-d0ea-4d53-88a5-77c0c08dac94" x1="194.862" y1="259.866" x2="208.1" y2="267.512"/>
  <line class="uuid-13ba896b-d0ea-4d53-88a5-77c0c08dac94" x1="164.423" y1="236.734" x2="181.207" y2="246.459"/>
  <path class="uuid-60cce7c4-c082-42b8-9854-ef6409c880b0" d="M181.207,246.459c1.171.632,2.05-.052,2.05-1.542"/>
  <line class="uuid-13ba896b-d0ea-4d53-88a5-77c0c08dac94" x1="183.257" y1="244.917" x2="183.257" y2="236.101"/>
  <path class="uuid-60cce7c4-c082-42b8-9854-ef6409c880b0" d="M183.257,236.101c0-1.468-.879-3.201-2.05-3.863"/>
  <line class="uuid-13ba896b-d0ea-4d53-88a5-77c0c08dac94" x1="181.207" y1="232.238" x2="164.423" y2="222.543"/>
  <path class="uuid-60cce7c4-c082-42b8-9854-ef6409c880b0" d="M164.423,222.543c-1.097-.637-2.028.047-2.028,1.512"/>
  <line class="uuid-13ba896b-d0ea-4d53-88a5-77c0c08dac94" x1="162.395" y1="224.055" x2="162.395" y2="232.874"/>
  <path class="uuid-60cce7c4-c082-42b8-9854-ef6409c880b0" d="M162.395,232.874c0,1.49.931,3.227,2.028,3.86"/>
  <path class="uuid-60cce7c4-c082-42b8-9854-ef6409c880b0" d="M132.96,180.771c.221,12.506-.122,24.718-.174,37.371"/>
  <path class="uuid-60cce7c4-c082-42b8-9854-ef6409c880b0" d="M162.516,284.687c-4.588,2.711-10.968,6.251-13.068,7.473"/>
  <path class="uuid-60cce7c4-c082-42b8-9854-ef6409c880b0" d="M267.168,345.368c-4.544,2.734-10.872,6.151-12.896,7.303"/>
  <line class="uuid-1d46123e-cbb1-4b34-b63c-97025f14e403" x1="258.227" y1="334.811" x2="247.991" y2="352.571"/>
  <line class="uuid-1d46123e-cbb1-4b34-b63c-97025f14e403" x1="253.172" y1="321.057" x2="250.898" y2="324.896"/>
  <line class="uuid-1d46123e-cbb1-4b34-b63c-97025f14e403" x1="240.441" y1="343.045" x2="237.781" y2="347.71"/>
  <line class="uuid-1d46123e-cbb1-4b34-b63c-97025f14e403" x1="245.842" y1="311.116" x2="243.694" y2="314.88"/>
  <line class="uuid-1d46123e-cbb1-4b34-b63c-97025f14e403" x1="231.673" y1="335.643" x2="229.645" y2="339.207"/>
  <line class="uuid-1d46123e-cbb1-4b34-b63c-97025f14e403" x1="236.781" y1="304.205" x2="232.774" y2="311.19"/>
  <line class="uuid-1d46123e-cbb1-4b34-b63c-97025f14e403" x1="226.445" y1="322.11" x2="223.322" y2="327.507"/>
  <line class="uuid-1d46123e-cbb1-4b34-b63c-97025f14e403" x1="238.83" y1="315.686" x2="231.625" y2="328.118"/>
  <line class="uuid-1d46123e-cbb1-4b34-b63c-97025f14e403" x1="271.175" y1="298.562" x2="259.154" y2="319.398"/>
  <line class="uuid-1d46123e-cbb1-4b34-b63c-97025f14e403" x1="253.757" y1="283.587" x2="243.764" y2="300.906"/>
  <line class="uuid-1d46123e-cbb1-4b34-b63c-97025f14e403" x1="245.916" y1="252" x2="241.788" y2="259.112"/>
  <line class="uuid-1d46123e-cbb1-4b34-b63c-97025f14e403" x1="232.553" y1="275.109" x2="218.384" y2="299.732"/>
  <line class="uuid-1d46123e-cbb1-4b34-b63c-97025f14e403" x1="215.186" y1="305.206" x2="211.69" y2="311.215"/>
  <line class="uuid-1d46123e-cbb1-4b34-b63c-97025f14e403" x1="235.29" y1="225.255" x2="232.21" y2="230.578"/>
  <line class="uuid-1d46123e-cbb1-4b34-b63c-97025f14e403" x1="213.28" y1="263.431" x2="191.613" y2="300.884"/>
  <line class="uuid-1d46123e-cbb1-4b34-b63c-97025f14e403" x1="215.892" y1="213.745" x2="212.743" y2="219.172"/>
  <line class="uuid-1d46123e-cbb1-4b34-b63c-97025f14e403" x1="196.326" y1="247.602" x2="172.045" y2="289.643"/>
  <line class="uuid-1d46123e-cbb1-4b34-b63c-97025f14e403" x1="196.789" y1="201.702" x2="180.18" y2="230.457"/>
  <line class="uuid-1d46123e-cbb1-4b34-b63c-97025f14e403" x1="172.972" y1="242.889" x2="158.171" y2="268.516"/>
  <line class="uuid-1d46123e-cbb1-4b34-b63c-97025f14e403" x1="177.737" y1="189.465" x2="144.392" y2="247.191"/>
  <line class="uuid-1d46123e-cbb1-4b34-b63c-97025f14e403" x1="158.218" y1="178.154" x2="124.776" y2="236.075"/>
  <line class="uuid-1d46123e-cbb1-4b34-b63c-97025f14e403" x1="138.895" y1="166.502" x2="98.881" y2="235.707"/>
  <line class="uuid-1d46123e-cbb1-4b34-b63c-97025f14e403" x1="118.621" y1="156.39" x2="99.565" y2="189.366"/>
  <line class="uuid-1d46123e-cbb1-4b34-b63c-97025f14e403" x1="176.638" y1="231.604" x2="172.266" y2="239.177"/>
  <line class="uuid-1d46123e-cbb1-4b34-b63c-97025f14e403" x1="166.817" y1="226.081" x2="164.423" y2="230.162"/>
  <line class="uuid-1d46123e-cbb1-4b34-b63c-97025f14e403" x1="266.631" y1="171.61" x2="256.248" y2="189.634"/>
  <line class="uuid-1d46123e-cbb1-4b34-b63c-97025f14e403" x1="237.954" y1="258.328" x2="230.694" y2="270.882"/>
  <line class="uuid-1d46123e-cbb1-4b34-b63c-97025f14e403" x1="234.653" y1="241.473" x2="220.705" y2="265.631"/>
  <line class="uuid-1d46123e-cbb1-4b34-b63c-97025f14e403" x1="227.618" y1="231.016" x2="210.837" y2="260.16"/>
  <line class="uuid-1d46123e-cbb1-4b34-b63c-97025f14e403" x1="217.847" y1="225.375" x2="201.017" y2="254.541"/>
  <line class="uuid-1d46123e-cbb1-4b34-b63c-97025f14e403" x1="207.805" y1="220.195" x2="199.332" y2="234.853"/>
  <line class="uuid-1d46123e-cbb1-4b34-b63c-97025f14e403" x1="278.648" y1="262.846" x2="274.887" y2="256.348"/>
  <line class="uuid-1d46123e-cbb1-4b34-b63c-97025f14e403" x1="298.241" y1="251.561" x2="294.16" y2="244.626"/>
  <line class="uuid-1d46123e-cbb1-4b34-b63c-97025f14e403" x1="317.855" y1="240.472" x2="310.551" y2="227.793"/>
  <line class="uuid-1d46123e-cbb1-4b34-b63c-97025f14e403" x1="262.624" y1="259.402" x2="254.732" y2="245.749"/>
  <line class="uuid-1d46123e-cbb1-4b34-b63c-97025f14e403" x1="272.687" y1="254.2" x2="258.643" y2="229.868"/>
  <line class="uuid-1d46123e-cbb1-4b34-b63c-97025f14e403" x1="282.482" y1="248.655" x2="268.389" y2="224.224"/>
  <line class="uuid-1d46123e-cbb1-4b34-b63c-97025f14e403" x1="291.916" y1="242.326" x2="278.21" y2="218.609"/>
  <line class="uuid-1d46123e-cbb1-4b34-b63c-97025f14e403" x1="298.462" y1="231.189" x2="288.078" y2="213.16"/>
  <line class="uuid-1d46123e-cbb1-4b34-b63c-97025f14e403" x1="308.329" y1="225.666" x2="297.824" y2="207.494"/>
  <line class="uuid-1d46123e-cbb1-4b34-b63c-97025f14e403" x1="318.661" y1="221.001" x2="307.571" y2="201.824"/>
  <line class="uuid-1d46123e-cbb1-4b34-b63c-97025f14e403" x1="320.004" y1="200.75" x2="317.686" y2="196.673"/>
  <line class="uuid-1d46123e-cbb1-4b34-b63c-97025f14e403" x1="288.468" y1="313.264" x2="284.925" y2="307.161"/>
  <line class="uuid-1d46123e-cbb1-4b34-b63c-97025f14e403" x1="284.171" y1="338.649" x2="280.996" y2="333.152"/>
  <line class="uuid-1d46123e-cbb1-4b34-b63c-97025f14e403" x1="293.939" y1="333.004" x2="290.742" y2="327.507"/>
  <line class="uuid-1d46123e-cbb1-4b34-b63c-97025f14e403" x1="303.686" y1="327.338" x2="300.562" y2="321.841"/>
  <line class="uuid-1d46123e-cbb1-4b34-b63c-97025f14e403" x1="313.507" y1="321.695" x2="310.308" y2="316.198"/>
  <line class="uuid-1d46123e-cbb1-4b34-b63c-97025f14e403" x1="323.256" y1="316.05" x2="320.055" y2="310.557"/>
  <line class="uuid-1d46123e-cbb1-4b34-b63c-97025f14e403" x1="333.003" y1="310.41" x2="329.872" y2="304.913"/>
  <line class="uuid-1d46123e-cbb1-4b34-b63c-97025f14e403" x1="342.823" y1="304.739" x2="339.645" y2="299.246"/>
  <line class="uuid-1d46123e-cbb1-4b34-b63c-97025f14e403" x1="352.592" y1="299.121" x2="349.391" y2="293.628"/>
  <line class="uuid-1d46123e-cbb1-4b34-b63c-97025f14e403" x1="265.189" y1="334.005" x2="265.02" y2="334.348"/>
  <line class="uuid-1d46123e-cbb1-4b34-b63c-97025f14e403" x1="153.455" y1="274.598" x2="143.417" y2="292.038"/>
  <line class="uuid-1d46123e-cbb1-4b34-b63c-97025f14e403" x1="148.471" y1="260.698" x2="146.201" y2="264.583"/>
  <line class="uuid-1d46123e-cbb1-4b34-b63c-97025f14e403" x1="135.792" y1="282.586" x2="133.129" y2="287.277"/>
  <line class="uuid-1d46123e-cbb1-4b34-b63c-97025f14e403" x1="141.143" y1="250.708" x2="138.993" y2="254.469"/>
  <line class="uuid-1d46123e-cbb1-4b34-b63c-97025f14e403" x1="126.976" y1="275.256" x2="124.946" y2="278.822"/>
  <line class="uuid-1d46123e-cbb1-4b34-b63c-97025f14e403" x1="132.154" y1="243.743" x2="128.199" y2="250.586"/>
  <line class="uuid-1d46123e-cbb1-4b34-b63c-97025f14e403" x1="121.697" y1="261.871" x2="118.621" y2="267.196"/>
  <path class="uuid-ce331fe3-482f-44b0-b451-fd44d994e197" d="M114.614,244.917c.048-.074.048-.122.122-.221l.051-.169.048-.026-.048.073-.051.243c-.074.026-.074.074-.122.1Z"/>
  <line class="uuid-1d46123e-cbb1-4b34-b63c-97025f14e403" x1="347.242" y1="279.706" x2="343.651" y2="273.425"/>
  <line class="uuid-1d46123e-cbb1-4b34-b63c-97025f14e403" x1="133.839" y1="255.053" x2="126.756" y2="267.364"/>
</svg>