<?xml version="1.0" encoding="UTF-8"?>
<svg id="uuid-f0754c32-1431-45dd-97ae-8a5c96e0518f" data-name="&amp;lt;Layer&amp;gt;" xmlns="http://www.w3.org/2000/svg" viewBox="0 0 451.11 451.11">
  <defs>
    <style>
      .uuid-db31110b-cebe-482e-8779-08a85f34de06, .uuid-6fe29925-76c5-4a04-b78c-ddf3199d5382, .uuid-95b5e794-8b87-4745-bad0-ebb561957a3f, .uuid-819e6472-a2af-451a-a48a-7be1a648e6f9 {
        fill: none;
        stroke: #000;
        stroke-linecap: round;
      }

      .uuid-db31110b-cebe-482e-8779-08a85f34de06, .uuid-819e6472-a2af-451a-a48a-7be1a648e6f9 {
        stroke-linejoin: round;
        stroke-width: 4.117px;
      }

      .uuid-6fe29925-76c5-4a04-b78c-ddf3199d5382 {
        stroke-width: 1.163px;
      }

      .uuid-6fe29925-76c5-4a04-b78c-ddf3199d5382, .uuid-95b5e794-8b87-4745-bad0-ebb561957a3f {
        stroke-miterlimit: 10;
      }

      .uuid-95b5e794-8b87-4745-bad0-ebb561957a3f {
        stroke-width: 1.159px;
      }

      .uuid-819e6472-a2af-451a-a48a-7be1a648e6f9 {
        fill-rule: evenodd;
      }
    </style>
  </defs>
  <g>
    <line class="uuid-db31110b-cebe-482e-8779-08a85f34de06" x1="101.912" y1="268.052" x2="102.548" y2="149.425"/>
    <line class="uuid-db31110b-cebe-482e-8779-08a85f34de06" x1="193.616" y1="190.175" x2="105.502" y2="139.314"/>
    <path class="uuid-819e6472-a2af-451a-a48a-7be1a648e6f9" d="M102.548,149.425c.343-4.372.975-6.225,2.954-10.111"/>
    <path class="uuid-819e6472-a2af-451a-a48a-7be1a648e6f9" d="M105.502,139.314c2.396-3.664,3.666-5.154,7.282-7.671,46.265-26.723,92.555-53.472,138.848-80.196"/>
    <path class="uuid-819e6472-a2af-451a-a48a-7be1a648e6f9" d="M251.632,51.447c3.525-1.619,5.038-1.917,7.286-.692l88.058,50.867"/>
    <path class="uuid-819e6472-a2af-451a-a48a-7be1a648e6f9" d="M346.976,101.623c1.855,1.071,3.028,3.345,3.028,6.62M200.235,324.92c-2.86,1.634-5.398,1.781-7.208.68"/>
    <line class="uuid-db31110b-cebe-482e-8779-08a85f34de06" x1="193.028" y1="325.6" x2="104.87" y2="274.745"/>
    <path class="uuid-819e6472-a2af-451a-a48a-7be1a648e6f9" d="M104.87,274.745c-2.543-2.126-2.665-3.495-2.958-6.692"/>
    <path class="uuid-819e6472-a2af-451a-a48a-7be1a648e6f9" d="M350.004,108.242v118.402c0,6.498-4.592,14.46-10.236,17.709-27.919,16.123-111.61,64.418-139.532,80.567-5.692,3.271-10.236.559-10.236-5.986"/>
    <line class="uuid-db31110b-cebe-482e-8779-08a85f34de06" x1="189.999" y1="318.934" x2="190.635" y2="200.311"/>
    <path class="uuid-819e6472-a2af-451a-a48a-7be1a648e6f9" d="M190.635,200.311c0-6.546,4.544-14.512,10.236-17.783,27.698-16.002,111.194-64.198,138.896-80.2,5.644-3.249,10.236-.61,10.236,5.914"/>
    <line class="uuid-db31110b-cebe-482e-8779-08a85f34de06" x1="337.572" y1="208.784" x2="337.572" y2="229.772"/>
    <path class="uuid-819e6472-a2af-451a-a48a-7be1a648e6f9" d="M337.572,229.772c0,1.101-.758,2.491-1.759,3.054"/>
    <line class="uuid-db31110b-cebe-482e-8779-08a85f34de06" x1="335.813" y1="232.826" x2="203.116" y2="309.43"/>
    <path class="uuid-819e6472-a2af-451a-a48a-7be1a648e6f9" d="M203.116,309.43c-.975.585-1.781.122-1.781-.975v-110.002c0-1.101.806-2.444,1.781-3.002"/>
    <line class="uuid-db31110b-cebe-482e-8779-08a85f34de06" x1="203.116" y1="195.451" x2="335.813" y2="118.795"/>
    <path class="uuid-819e6472-a2af-451a-a48a-7be1a648e6f9" d="M335.813,118.795c1.001-.537,1.759-.074,1.759,1.047"/>
    <line class="uuid-db31110b-cebe-482e-8779-08a85f34de06" x1="337.572" y1="119.843" x2="337.572" y2="150.721"/>
    <line class="uuid-db31110b-cebe-482e-8779-08a85f34de06" x1="280.483" y1="193.007" x2="280.435" y2="193.007"/>
    <line class="uuid-db31110b-cebe-482e-8779-08a85f34de06" x1="285.244" y1="195.792" x2="286.686" y2="196.599"/>
    <line class="uuid-db31110b-cebe-482e-8779-08a85f34de06" x1="279.334" y1="196.157" x2="273.175" y2="192.618"/>
    <path class="uuid-819e6472-a2af-451a-a48a-7be1a648e6f9" d="M273.175,192.618c-15.924,4.665-29.041,33.806-16.439,42.552"/>
    <line class="uuid-db31110b-cebe-482e-8779-08a85f34de06" x1="256.736" y1="235.17" x2="262.895" y2="238.712"/>
    <path class="uuid-819e6472-a2af-451a-a48a-7be1a648e6f9" d="M262.895,238.712c-13.585-11.189,2.565-38.475,16.439-42.555"/>
    <polyline class="uuid-819e6472-a2af-451a-a48a-7be1a648e6f9" points="275.301 186.557 273.175 192.618 279.334 196.157"/>
    <path class="uuid-819e6472-a2af-451a-a48a-7be1a648e6f9" d="M281.458,190.123c.758-1.881,2.906-5.152,5.349-3.808"/>
    <line class="uuid-db31110b-cebe-482e-8779-08a85f34de06" x1="286.807" y1="186.314" x2="280.652" y2="182.771"/>
    <path class="uuid-819e6472-a2af-451a-a48a-7be1a648e6f9" d="M280.652,182.771c-2.443-1.342-4.592,1.929-5.35,3.786"/>
    <line class="uuid-db31110b-cebe-482e-8779-08a85f34de06" x1="285.196" y1="196.035" x2="287.223" y2="190.175"/>
    <path class="uuid-819e6472-a2af-451a-a48a-7be1a648e6f9" d="M287.223,190.175c.805-2.296.173-4.203-1.391-4.203"/>
    <line class="uuid-db31110b-cebe-482e-8779-08a85f34de06" x1="281.458" y1="190.123" x2="279.334" y2="196.157"/>
    <path class="uuid-819e6472-a2af-451a-a48a-7be1a648e6f9" d="M279.334,196.157c-1.394.393-2.858,1.005-4.374,1.88-9.405,5.449-17.073,18.687-17.073,29.609s7.667,15.342,17.073,9.893c9.482-5.471,17.149-18.735,17.149-29.629,0-6.498-2.738-10.701-6.913-11.874"/>
    <path class="uuid-819e6472-a2af-451a-a48a-7be1a648e6f9" d="M279.334,196.157c2.028-.243,4.007-.295,5.862-.122"/>
    <path class="uuid-819e6472-a2af-451a-a48a-7be1a648e6f9" d="M346.976,101.623c-3.079-1.173-4.3-.636-7.208.706-46.269,26.727-92.558,53.45-138.896,80.2-3.594,2.491-4.886,4.003-7.256,7.646"/>
    <line class="uuid-db31110b-cebe-482e-8779-08a85f34de06" x1="342.505" y1="153.557" x2="337.572" y2="150.721"/>
    <path class="uuid-819e6472-a2af-451a-a48a-7be1a648e6f9" d="M337.572,150.721c-1.173-.417-2.737.099-4.253,1.125-4.007,2.786-4.518,5.13-4.518,9.5"/>
    <line class="uuid-db31110b-cebe-482e-8779-08a85f34de06" x1="328.8" y1="161.346" x2="328.8" y2="204.44"/>
    <path class="uuid-819e6472-a2af-451a-a48a-7be1a648e6f9" d="M328.8,204.44c.122,1.001.169,1.416.979,2.074"/>
    <line class="uuid-db31110b-cebe-482e-8779-08a85f34de06" x1="329.778" y1="206.514" x2="334.664" y2="209.347"/>
    <path class="uuid-819e6472-a2af-451a-a48a-7be1a648e6f9" d="M334.664,209.347c-.588-.343-.931-1.049-.931-2.076"/>
    <line class="uuid-db31110b-cebe-482e-8779-08a85f34de06" x1="333.733" y1="207.272" x2="333.733" y2="161.225"/>
    <path class="uuid-819e6472-a2af-451a-a48a-7be1a648e6f9" d="M340.231,153.8c.88-.511,1.638-.562,2.274-.243"/>
    <line class="uuid-db31110b-cebe-482e-8779-08a85f34de06" x1="343.432" y1="201.68" x2="343.432" y2="155.632"/>
    <path class="uuid-819e6472-a2af-451a-a48a-7be1a648e6f9" d="M343.432,155.632c0-2.028-1.464-2.86-3.201-1.833-.169.074-3.127,1.785-3.297,1.881-1.733,1.027-3.201,3.518-3.201,5.545"/>
    <path class="uuid-819e6472-a2af-451a-a48a-7be1a648e6f9" d="M333.733,207.272c0,2.028,1.468,2.86,3.201,1.859.17-.1,3.128-1.811,3.297-1.907,1.737-1.003,3.201-3.492,3.201-5.544"/>
    <line class="uuid-db31110b-cebe-482e-8779-08a85f34de06" x1="269.441" y1="179.913" x2="269.441" y2="175.758"/>
    <line class="uuid-db31110b-cebe-482e-8779-08a85f34de06" x1="299.118" y1="197.062" x2="302.735" y2="194.962"/>
    <line class="uuid-db31110b-cebe-482e-8779-08a85f34de06" x1="239.784" y1="231.31" x2="236.168" y2="233.385"/>
    <line class="uuid-db31110b-cebe-482e-8779-08a85f34de06" x1="269.441" y1="248.433" x2="269.441" y2="252.61"/>
  </g>
  <line class="uuid-6fe29925-76c5-4a04-b78c-ddf3199d5382" x1="216.726" y1="313.363" x2="208.297" y2="308.503"/>
  <line class="uuid-6fe29925-76c5-4a04-b78c-ddf3199d5382" x1="199.529" y1="303.443" x2="191.979" y2="299.073"/>
  <line class="uuid-6fe29925-76c5-4a04-b78c-ddf3199d5382" x1="239.321" y1="300.345" x2="230.892" y2="295.481"/>
  <line class="uuid-6fe29925-76c5-4a04-b78c-ddf3199d5382" x1="199.529" y1="277.38" x2="192.148" y2="273.108"/>
  <line class="uuid-6fe29925-76c5-4a04-b78c-ddf3199d5382" x1="261.89" y1="287.299" x2="253.491" y2="282.438"/>
  <line class="uuid-6fe29925-76c5-4a04-b78c-ddf3199d5382" x1="199.529" y1="251.292" x2="192.27" y2="247.117"/>
  <line class="uuid-6fe29925-76c5-4a04-b78c-ddf3199d5382" x1="284.442" y1="274.255" x2="276.059" y2="269.416"/>
  <line class="uuid-6fe29925-76c5-4a04-b78c-ddf3199d5382" x1="199.529" y1="225.227" x2="192.442" y2="221.126"/>
  <line class="uuid-6fe29925-76c5-4a04-b78c-ddf3199d5382" x1="307.032" y1="261.234" x2="298.607" y2="256.374"/>
  <line class="uuid-6fe29925-76c5-4a04-b78c-ddf3199d5382" x1="199.529" y1="199.137" x2="193.322" y2="195.572"/>
  <line class="uuid-6fe29925-76c5-4a04-b78c-ddf3199d5382" x1="329.606" y1="248.19" x2="321.202" y2="243.33"/>
  <line class="uuid-6fe29925-76c5-4a04-b78c-ddf3199d5382" x1="218.923" y1="184.283" x2="210.155" y2="179.229"/>
  <line class="uuid-6fe29925-76c5-4a04-b78c-ddf3199d5382" x1="347.196" y1="232.262" x2="339.426" y2="227.766"/>
  <line class="uuid-6fe29925-76c5-4a04-b78c-ddf3199d5382" x1="241.518" y1="171.241" x2="232.75" y2="166.185"/>
  <line class="uuid-6fe29925-76c5-4a04-b78c-ddf3199d5382" x1="348.149" y1="206.735" x2="344.775" y2="204.781"/>
  <line class="uuid-6fe29925-76c5-4a04-b78c-ddf3199d5382" x1="264.039" y1="158.197" x2="255.345" y2="153.164"/>
  <line class="uuid-6fe29925-76c5-4a04-b78c-ddf3199d5382" x1="348.072" y1="180.645" x2="345.46" y2="179.133"/>
  <line class="uuid-6fe29925-76c5-4a04-b78c-ddf3199d5382" x1="286.638" y1="145.176" x2="277.94" y2="140.12"/>
  <line class="uuid-95b5e794-8b87-4745-bad0-ebb561957a3f" x1="348.149" y1="154.606" x2="337.572" y2="148.476"/>
  <line class="uuid-6fe29925-76c5-4a04-b78c-ddf3199d5382" x1="309.232" y1="132.132" x2="300.462" y2="127.098"/>
  <line class="uuid-6fe29925-76c5-4a04-b78c-ddf3199d5382" x1="348.319" y1="128.614" x2="339.378" y2="123.46"/>
  <line class="uuid-6fe29925-76c5-4a04-b78c-ddf3199d5382" x1="331.754" y1="119.088" x2="323.06" y2="114.055"/>
  <line class="uuid-6fe29925-76c5-4a04-b78c-ddf3199d5382" x1="214.404" y1="300.979" x2="203.069" y2="294.407"/>
  <line class="uuid-6fe29925-76c5-4a04-b78c-ddf3199d5382" x1="226.127" y1="294.675" x2="202.678" y2="281.142"/>
  <line class="uuid-6fe29925-76c5-4a04-b78c-ddf3199d5382" x1="237.805" y1="288.398" x2="202.263" y2="267.88"/>
  <line class="uuid-6fe29925-76c5-4a04-b78c-ddf3199d5382" x1="249.484" y1="282.096" x2="201.846" y2="254.589"/>
  <line class="uuid-6fe29925-76c5-4a04-b78c-ddf3199d5382" x1="261.132" y1="275.819" x2="201.457" y2="241.351"/>
  <line class="uuid-6fe29925-76c5-4a04-b78c-ddf3199d5382" x1="272.862" y1="269.516" x2="201.089" y2="228.087"/>
  <line class="uuid-6fe29925-76c5-4a04-b78c-ddf3199d5382" x1="284.563" y1="263.235" x2="200.699" y2="214.796"/>
  <line class="uuid-6fe29925-76c5-4a04-b78c-ddf3199d5382" x1="293.894" y1="255.59" x2="268.977" y2="241.229"/>
  <line class="uuid-6fe29925-76c5-4a04-b78c-ddf3199d5382" x1="252.537" y1="231.725" x2="201.725" y2="202.412"/>
  <line class="uuid-6fe29925-76c5-4a04-b78c-ddf3199d5382" x1="305.157" y1="249.092" x2="280.556" y2="234.875"/>
  <line class="uuid-6fe29925-76c5-4a04-b78c-ddf3199d5382" x1="251.901" y1="218.34" x2="208.344" y2="193.177"/>
  <line class="uuid-6fe29925-76c5-4a04-b78c-ddf3199d5382" x1="316.61" y1="242.642" x2="287.565" y2="225.861"/>
  <line class="uuid-6fe29925-76c5-4a04-b78c-ddf3199d5382" x1="255.856" y1="207.589" x2="219.923" y2="186.804"/>
  <line class="uuid-6fe29925-76c5-4a04-b78c-ddf3199d5382" x1="328.168" y1="236.269" x2="291.792" y2="215.312"/>
  <line class="uuid-6fe29925-76c5-4a04-b78c-ddf3199d5382" x1="262.526" y1="198.383" x2="231.355" y2="180.376"/>
  <line class="uuid-6fe29925-76c5-4a04-b78c-ddf3199d5382" x1="337.034" y1="228.355" x2="292.278" y2="202.533"/>
  <line class="uuid-6fe29925-76c5-4a04-b78c-ddf3199d5382" x1="272.69" y1="191.248" x2="242.618" y2="173.878"/>
  <line class="uuid-6fe29925-76c5-4a04-b78c-ddf3199d5382" x1="337.156" y1="215.408" x2="288.102" y2="187.069"/>
  <line class="uuid-6fe29925-76c5-4a04-b78c-ddf3199d5382" x1="278.209" y1="181.377" x2="254.123" y2="167.455"/>
  <line class="uuid-6fe29925-76c5-4a04-b78c-ddf3199d5382" x1="328.968" y1="197.625" x2="264.09" y2="160.173"/>
  <line class="uuid-6fe29925-76c5-4a04-b78c-ddf3199d5382" x1="328.579" y1="184.361" x2="275.791" y2="153.874"/>
  <line class="uuid-6fe29925-76c5-4a04-b78c-ddf3199d5382" x1="328.168" y1="171.097" x2="287.444" y2="147.596"/>
  <line class="uuid-6fe29925-76c5-4a04-b78c-ddf3199d5382" x1="328.042" y1="158.001" x2="299.118" y2="141.291"/>
  <line class="uuid-6fe29925-76c5-4a04-b78c-ddf3199d5382" x1="335.592" y1="149.329" x2="310.506" y2="134.844"/>
  <line class="uuid-6fe29925-76c5-4a04-b78c-ddf3199d5382" x1="336.007" y1="136.528" x2="322.181" y2="128.541"/>
  <line class="uuid-6fe29925-76c5-4a04-b78c-ddf3199d5382" x1="335.592" y1="123.265" x2="333.855" y2="122.239"/>
  <line class="uuid-6fe29925-76c5-4a04-b78c-ddf3199d5382" x1="340.271" y1="97.501" x2="335.839" y2="105.11"/>
  <line class="uuid-6fe29925-76c5-4a04-b78c-ddf3199d5382" x1="320.322" y1="86.938" x2="298.533" y2="124.608"/>
  <line class="uuid-6fe29925-76c5-4a04-b78c-ddf3199d5382" x1="301.392" y1="74.484" x2="258.766" y2="148.377"/>
  <line class="uuid-6fe29925-76c5-4a04-b78c-ddf3199d5382" x1="281.59" y1="63.641" x2="218.997" y2="172.12"/>
  <line class="uuid-6fe29925-76c5-4a04-b78c-ddf3199d5382" x1="261.886" y1="52.643" x2="184.889" y2="185.969"/>
  <line class="uuid-6fe29925-76c5-4a04-b78c-ddf3199d5382" x1="228.986" y1="64.517" x2="166.142" y2="173.311"/>
  <line class="uuid-6fe29925-76c5-4a04-b78c-ddf3199d5382" x1="189.145" y1="88.282" x2="145.81" y2="163.426"/>
  <line class="uuid-6fe29925-76c5-4a04-b78c-ddf3199d5382" x1="149.354" y1="112.051" x2="126.876" y2="150.941"/>
  <line class="uuid-6fe29925-76c5-4a04-b78c-ddf3199d5382" x1="188.387" y1="309.676" x2="178.689" y2="315.295"/>
  <line class="uuid-6fe29925-76c5-4a04-b78c-ddf3199d5382" x1="188.851" y1="296.386" x2="166.962" y2="308.992"/>
  <line class="uuid-6fe29925-76c5-4a04-b78c-ddf3199d5382" x1="189.315" y1="283.071" x2="155.288" y2="302.711"/>
  <line class="uuid-6fe29925-76c5-4a04-b78c-ddf3199d5382" x1="189.783" y1="269.759" x2="143.61" y2="296.434"/>
  <line class="uuid-6fe29925-76c5-4a04-b78c-ddf3199d5382" x1="190.246" y1="256.447" x2="131.884" y2="290.131"/>
  <line class="uuid-6fe29925-76c5-4a04-b78c-ddf3199d5382" x1="190.705" y1="243.158" x2="120.208" y2="283.855"/>
  <line class="uuid-6fe29925-76c5-4a04-b78c-ddf3199d5382" x1="191.221" y1="229.846" x2="108.534" y2="277.578"/>
  <line class="uuid-6fe29925-76c5-4a04-b78c-ddf3199d5382" x1="191.515" y1="216.603" x2="101.106" y2="268.854"/>
  <line class="uuid-6fe29925-76c5-4a04-b78c-ddf3199d5382" x1="191.563" y1="203.534" x2="101.154" y2="255.763"/>
  <line class="uuid-6fe29925-76c5-4a04-b78c-ddf3199d5382" x1="193.906" y1="189.17" x2="101.106" y2="242.741"/>
  <line class="uuid-6fe29925-76c5-4a04-b78c-ddf3199d5382" x1="182.232" y1="182.871" x2="101.621" y2="229.429"/>
  <line class="uuid-6fe29925-76c5-4a04-b78c-ddf3199d5382" x1="170.554" y1="176.59" x2="102.085" y2="216.114"/>
  <line class="uuid-6fe29925-76c5-4a04-b78c-ddf3199d5382" x1="158.832" y1="170.313" x2="102.548" y2="202.828"/>
  <line class="uuid-6fe29925-76c5-4a04-b78c-ddf3199d5382" x1="147.152" y1="164.01" x2="103.011" y2="189.511"/>
  <line class="uuid-6fe29925-76c5-4a04-b78c-ddf3199d5382" x1="135.478" y1="157.734" x2="103.475" y2="176.2"/>
  <line class="uuid-6fe29925-76c5-4a04-b78c-ddf3199d5382" x1="123.8" y1="151.431" x2="103.939" y2="162.91"/>
  <line class="uuid-6fe29925-76c5-4a04-b78c-ddf3199d5382" x1="112.122" y1="145.154" x2="104.407" y2="149.598"/>
</svg>