<?xml version="1.0" encoding="UTF-8"?>
<svg id="uuid-4d9ef991-df26-48aa-82a5-b16eacd7c372" data-name="&amp;lt;Layer&amp;gt;" xmlns="http://www.w3.org/2000/svg" viewBox="0 0 451.11 451.11">
  <defs>
    <style>
      .uuid-4559f11f-be97-4722-8c60-ec4e360e8d47, .uuid-7bd0157b-6e0e-46dd-b358-f2495f3b7b7b, .uuid-2740cf9c-3c74-48db-894e-99b9f151a4ca {
        fill: none;
        stroke: #000;
        stroke-linecap: round;
      }

      .uuid-4559f11f-be97-4722-8c60-ec4e360e8d47, .uuid-2740cf9c-3c74-48db-894e-99b9f151a4ca {
        stroke-linejoin: round;
        stroke-width: 4.113px;
      }

      .uuid-7bd0157b-6e0e-46dd-b358-f2495f3b7b7b {
        stroke-miterlimit: 10;
        stroke-width: 1.163px;
      }

      .uuid-2740cf9c-3c74-48db-894e-99b9f151a4ca {
        fill-rule: evenodd;
      }
    </style>
  </defs>
  <path class="uuid-2740cf9c-3c74-48db-894e-99b9f151a4ca" d="M322.358,115.665c-48.027-26.41-106.507,18.882-136.357,53.789-37.059,43.261-68.351,110.856-63.588,168.456.637,7.719,3.006,14.534,9.747,18.882-5.228-3.028-27.235-15.096-30.413-18.124-9.183-8.82-7.45-30.315-6.52-41.698,6.034-71.6,54.716-152.263,116.791-188.954"/>
  <path class="uuid-2740cf9c-3c74-48db-894e-99b9f151a4ca" d="M239.373,123.869c32.393-18.709,61.707-20.446,82.985-8.205,21.178,12.26,34.296,38.57,34.296,76.041,0,3.591-.17,7.55-.439,11.311-.706,10.677-4.765,22.01-10.872,32.003-6.03,9.989-14.166,18.589-22.985,23.695"/>
  <path class="uuid-2740cf9c-3c74-48db-894e-99b9f151a4ca" d="M285.593,279.893c-4.934,9.941-11.09,19.467-18.051,27.824-8.429,10.162-18.076,18.761-28.239,24.622-10.162,5.866-19.787,8.429-28.217,7.966-6.961-.341-13.116-2.737-18.002-7.038"/>
  <path class="uuid-2740cf9c-3c74-48db-894e-99b9f151a4ca" d="M156.319,354.471c-8.89,5.106-16.95,5.864-23.059,2.906-6.082-2.976-10.089-9.647-10.847-19.467-.243-3.492-.415-7.256-.415-10.92.074-37.398,13.19-78.853,34.446-115.617,21.2-36.765,50.566-68.864,82.929-87.503"/>
  <path class="uuid-2740cf9c-3c74-48db-894e-99b9f151a4ca" d="M307.652,141.041c-17.466-10.084-41.626-8.646-68.279,6.744-26.649,15.392-50.834,41.82-68.296,72.065-17.492,30.265-28.291,64.415-28.291,95.195,0,3.176.074,6.034.295,9.111.291,3.76,1.853,6.402,4.175,7.55,2.395,1.147,5.571.806,9.063-1.149"/>
  <polyline class="uuid-2740cf9c-3c74-48db-894e-99b9f151a4ca" points="156.319 330.558 198.312 306.325 198.312 306.325"/>
  <path class="uuid-2740cf9c-3c74-48db-894e-99b9f151a4ca" d="M198.312,306.325c3.37-1.905,6.67-1.905,8.646.465,3.543,4.176,8.381,6.57,14,6.861,5.397.269,11.674-1.39,18.345-5.298,6.74-3.837,12.948-9.356,18.346-15.854,5.471-6.546,10.11-14.169,13.606-22.062,1.734-4.713,5.152-9.183,9.037-11.431"/>
  <path class="uuid-2740cf9c-3c74-48db-894e-99b9f151a4ca" d="M322.358,234.773c3.47-2.027,6.667-5.397,8.989-9.231,2.373-3.885,3.959-8.305,4.25-12.484.221-3.297.295-6.277.295-9.404.047-30.83-10.747-52.498-28.239-62.613"/>
  <path class="uuid-2740cf9c-3c74-48db-894e-99b9f151a4ca" d="M237.861,282.458c7.009-1.855,14.169-10.799,16.076-19.983,1.685-8.305-2.958-14.923-9.283-13.238-6.961,1.855-14.169,10.869-16.1,20.031-1.855,9.135,2.273,15.045,9.308,13.19Z"/>
  <path class="uuid-2740cf9c-3c74-48db-894e-99b9f151a4ca" d="M212.018,108.016c25.258-14.166,55.915-23.402,82.933-8.136"/>
  <line class="uuid-4559f11f-be97-4722-8c60-ec4e360e8d47" x1="294.951" y1="99.88" x2="322.358" y2="115.665"/>
  <line class="uuid-4559f11f-be97-4722-8c60-ec4e360e8d47" x1="322.358" y1="258.715" x2="285.593" y2="279.893"/>
  <line class="uuid-4559f11f-be97-4722-8c60-ec4e360e8d47" x1="193.084" y1="333.267" x2="156.319" y2="354.471"/>
  <line class="uuid-4559f11f-be97-4722-8c60-ec4e360e8d47" x1="280.291" y1="259.005" x2="322.358" y2="234.773"/>
  <line class="uuid-4559f11f-be97-4722-8c60-ec4e360e8d47" x1="314.396" y1="216.549" x2="325.607" y2="210.103"/>
  <line class="uuid-4559f11f-be97-4722-8c60-ec4e360e8d47" x1="292.434" y1="167.938" x2="300.348" y2="154.235"/>
  <line class="uuid-4559f11f-be97-4722-8c60-ec4e360e8d47" x1="239.373" y1="173.166" x2="239.373" y2="160.221"/>
  <line class="uuid-4559f11f-be97-4722-8c60-ec4e360e8d47" x1="186.295" y1="229.155" x2="178.38" y2="224.563"/>
  <line class="uuid-4559f11f-be97-4722-8c60-ec4e360e8d47" x1="164.285" y1="303.124" x2="153.07" y2="309.574"/>
  <line class="uuid-4559f11f-be97-4722-8c60-ec4e360e8d47" x1="312.294" y1="177.466" x2="252.2" y2="251.97"/>
  <line class="uuid-7bd0157b-6e0e-46dd-b358-f2495f3b7b7b" x1="154.707" y1="354.18" x2="123.391" y2="336.051"/>
  <line class="uuid-7bd0157b-6e0e-46dd-b358-f2495f3b7b7b" x1="176.886" y1="340.89" x2="159.105" y2="330.606"/>
  <line class="uuid-7bd0157b-6e0e-46dd-b358-f2495f3b7b7b" x1="141.348" y1="320.37" x2="124.319" y2="310.575"/>
  <line class="uuid-7bd0157b-6e0e-46dd-b358-f2495f3b7b7b" x1="218.295" y1="338.742" x2="181.067" y2="317.243"/>
  <line class="uuid-7bd0157b-6e0e-46dd-b358-f2495f3b7b7b" x1="142.617" y1="295.064" x2="128.226" y2="286.707"/>
  <line class="uuid-7bd0157b-6e0e-46dd-b358-f2495f3b7b7b" x1="244.238" y1="327.625" x2="222.812" y2="315.263"/>
  <line class="uuid-7bd0157b-6e0e-46dd-b358-f2495f3b7b7b" x1="147.378" y1="271.71" x2="134.433" y2="264.234"/>
  <line class="uuid-7bd0157b-6e0e-46dd-b358-f2495f3b7b7b" x1="261.946" y1="311.796" x2="248.365" y2="304.004"/>
  <line class="uuid-7bd0157b-6e0e-46dd-b358-f2495f3b7b7b" x1="154.707" y1="249.895" x2="142.569" y2="242.861"/>
  <line class="uuid-7bd0157b-6e0e-46dd-b358-f2495f3b7b7b" x1="275.847" y1="293.72" x2="263.926" y2="286.88"/>
  <line class="uuid-7bd0157b-6e0e-46dd-b358-f2495f3b7b7b" x1="164.112" y1="229.206" x2="152.386" y2="222.462"/>
  <line class="uuid-7bd0157b-6e0e-46dd-b358-f2495f3b7b7b" x1="289.696" y1="275.717" x2="274.551" y2="266.945"/>
  <line class="uuid-7bd0157b-6e0e-46dd-b358-f2495f3b7b7b" x1="175.374" y1="209.687" x2="163.648" y2="202.895"/>
  <line class="uuid-7bd0157b-6e0e-46dd-b358-f2495f3b7b7b" x1="312.417" y1="262.722" x2="294.582" y2="252.438"/>
  <line class="uuid-7bd0157b-6e0e-46dd-b358-f2495f3b7b7b" x1="188.491" y1="191.172" x2="176.352" y2="184.207"/>
  <line class="uuid-7bd0157b-6e0e-46dd-b358-f2495f3b7b7b" x1="332.983" y1="248.553" x2="317.228" y2="239.416"/>
  <line class="uuid-7bd0157b-6e0e-46dd-b358-f2495f3b7b7b" x1="203.709" y1="173.924" x2="190.761" y2="166.426"/>
  <line class="uuid-7bd0157b-6e0e-46dd-b358-f2495f3b7b7b" x1="346.322" y1="230.134" x2="334.425" y2="223.268"/>
  <line class="uuid-7bd0157b-6e0e-46dd-b358-f2495f3b7b7b" x1="221.496" y1="158.069" x2="207.131" y2="149.765"/>
  <line class="uuid-7bd0157b-6e0e-46dd-b358-f2495f3b7b7b" x1="354.115" y1="208.587" x2="337.333" y2="198.889"/>
  <line class="uuid-7bd0157b-6e0e-46dd-b358-f2495f3b7b7b" x1="242.674" y1="144.243" x2="225.719" y2="134.426"/>
  <line class="uuid-7bd0157b-6e0e-46dd-b358-f2495f3b7b7b" x1="355.09" y1="183.107" x2="332.153" y2="169.843"/>
  <line class="uuid-7bd0157b-6e0e-46dd-b358-f2495f3b7b7b" x1="270.424" y1="134.205" x2="247.487" y2="120.963"/>
  <line class="uuid-7bd0157b-6e0e-46dd-b358-f2495f3b7b7b" x1="351.502" y1="154.92" x2="273.699" y2="109.995"/>
  <line class="uuid-7bd0157b-6e0e-46dd-b358-f2495f3b7b7b" x1="244.601" y1="276.423" x2="230.362" y2="268.241"/>
  <line class="uuid-7bd0157b-6e0e-46dd-b358-f2495f3b7b7b" x1="250.93" y1="267.071" x2="235.344" y2="258.079"/>
  <line class="uuid-7bd0157b-6e0e-46dd-b358-f2495f3b7b7b" x1="251.32" y1="254.292" x2="245.628" y2="250.97"/>
  <line class="uuid-7bd0157b-6e0e-46dd-b358-f2495f3b7b7b" x1="123.098" y1="350.342" x2="95.86" y2="303.124"/>
  <line class="uuid-7bd0157b-6e0e-46dd-b358-f2495f3b7b7b" x1="120.78" y1="323.693" x2="97.913" y2="284.094"/>
  <line class="uuid-7bd0157b-6e0e-46dd-b358-f2495f3b7b7b" x1="122.34" y1="303.831" x2="101.162" y2="267.115"/>
  <line class="uuid-7bd0157b-6e0e-46dd-b358-f2495f3b7b7b" x1="125.419" y1="286.633" x2="105.264" y2="251.728"/>
  <line class="uuid-7bd0157b-6e0e-46dd-b358-f2495f3b7b7b" x1="129.496" y1="271.026" x2="110.102" y2="237.511"/>
  <line class="uuid-7bd0157b-6e0e-46dd-b358-f2495f3b7b7b" x1="134.187" y1="256.687" x2="115.426" y2="224.22"/>
  <line class="uuid-7bd0157b-6e0e-46dd-b358-f2495f3b7b7b" x1="139.489" y1="243.152" x2="121.313" y2="211.714"/>
  <line class="uuid-7bd0157b-6e0e-46dd-b358-f2495f3b7b7b" x1="145.108" y1="230.427" x2="127.52" y2="199.94"/>
  <line class="uuid-7bd0157b-6e0e-46dd-b358-f2495f3b7b7b" x1="151.215" y1="218.408" x2="134.092" y2="188.729"/>
  <line class="uuid-7bd0157b-6e0e-46dd-b358-f2495f3b7b7b" x1="157.713" y1="207.023" x2="141.053" y2="178.174"/>
  <line class="uuid-7bd0157b-6e0e-46dd-b358-f2495f3b7b7b" x1="164.506" y1="196.224" x2="148.235" y2="168.11"/>
  <line class="uuid-7bd0157b-6e0e-46dd-b358-f2495f3b7b7b" x1="171.589" y1="185.992" x2="155.808" y2="158.581"/>
  <line class="uuid-7bd0157b-6e0e-46dd-b358-f2495f3b7b7b" x1="179.039" y1="176.245" x2="163.648" y2="149.592"/>
  <line class="uuid-7bd0157b-6e0e-46dd-b358-f2495f3b7b7b" x1="186.684" y1="166.889" x2="171.757" y2="141.041"/>
  <line class="uuid-7bd0157b-6e0e-46dd-b358-f2495f3b7b7b" x1="194.698" y1="158.191" x2="180.187" y2="133.031"/>
  <line class="uuid-7bd0157b-6e0e-46dd-b358-f2495f3b7b7b" x1="203.003" y1="149.985" x2="188.907" y2="125.606"/>
  <line class="uuid-7bd0157b-6e0e-46dd-b358-f2495f3b7b7b" x1="211.553" y1="142.263" x2="197.969" y2="118.693"/>
  <line class="uuid-7bd0157b-6e0e-46dd-b358-f2495f3b7b7b" x1="220.491" y1="135.132" x2="207.301" y2="112.316"/>
  <line class="uuid-7bd0157b-6e0e-46dd-b358-f2495f3b7b7b" x1="229.678" y1="128.512" x2="217.072" y2="106.672"/>
  <line class="uuid-7bd0157b-6e0e-46dd-b358-f2495f3b7b7b" x1="239.252" y1="122.479" x2="227.283" y2="101.787"/>
  <line class="uuid-7bd0157b-6e0e-46dd-b358-f2495f3b7b7b" x1="249.171" y1="117.129" x2="238.031" y2="97.782"/>
  <line class="uuid-7bd0157b-6e0e-46dd-b358-f2495f3b7b7b" x1="259.628" y1="112.611" x2="249.418" y2="94.898"/>
  <line class="uuid-7bd0157b-6e0e-46dd-b358-f2495f3b7b7b" x1="270.544" y1="109.067" x2="261.652" y2="93.555"/>
  <line class="uuid-7bd0157b-6e0e-46dd-b358-f2495f3b7b7b" x1="282.27" y1="106.724" x2="275.309" y2="94.603"/>
  <line class="uuid-7bd0157b-6e0e-46dd-b358-f2495f3b7b7b" x1="294.951" y1="105.988" x2="291.58" y2="100.299"/>
</svg>