<?xml version="1.0" encoding="UTF-8"?>
<svg id="uuid-d8574247-3c41-4be1-9d5f-f8a4d96f2104" data-name="&amp;lt;Layer&amp;gt;" xmlns="http://www.w3.org/2000/svg" viewBox="0 0 451.11 451.11">
  <defs>
    <style>
      .uuid-0bdb94ec-502c-4709-8565-cfebba976bba, .uuid-107d91bd-1272-4e92-b50d-154a6afc4765, .uuid-cab99ac2-d422-4362-bd05-d596547b76da {
        fill: none;
        stroke: #000;
        stroke-linecap: round;
      }

      .uuid-0bdb94ec-502c-4709-8565-cfebba976bba, .uuid-cab99ac2-d422-4362-bd05-d596547b76da {
        stroke-linejoin: round;
        stroke-width: 4.117px;
      }

      .uuid-107d91bd-1272-4e92-b50d-154a6afc4765 {
        stroke-miterlimit: 10;
        stroke-width: 1.163px;
      }

      .uuid-cab99ac2-d422-4362-bd05-d596547b76da {
        fill-rule: evenodd;
      }
    </style>
  </defs>
  <path class="uuid-cab99ac2-d422-4362-bd05-d596547b76da" d="M151.243,211.629c3.249,106.36-13.754,171.241,86.303,141.267,99.984-85.424,83.033-130.692,86.403-240.886,1.053-35.226-173.758,65.588-172.705,99.619Z"/>
  <polyline class="uuid-cab99ac2-d422-4362-bd05-d596547b76da" points="237.545 241.675 237.471 352.896 237.545 352.896"/>
  <polyline class="uuid-cab99ac2-d422-4362-bd05-d596547b76da" points="152.294 290.872 237.545 241.675 237.597 135.875"/>
  <path class="uuid-cab99ac2-d422-4362-bd05-d596547b76da" d="M127.157,193.965c.391-1.707.927-3.638,1.564-5.714,8.058-16.834,45.922-44.925,84.203-66.615"/>
  <polyline class="uuid-cab99ac2-d422-4362-bd05-d596547b76da" points="212.924 121.636 227.482 130.062 237.597 135.875"/>
  <path class="uuid-cab99ac2-d422-4362-bd05-d596547b76da" d="M129.136,296.807c.732,39.869,14.902,40.845,44.701,58.017-16.56-11.528-19.273-30.678-20.862-50.368"/>
  <path class="uuid-cab99ac2-d422-4362-bd05-d596547b76da" d="M152.975,304.456l-.681-13.584M152.243,290.383l.515-5.593"/>
  <polyline class="uuid-cab99ac2-d422-4362-bd05-d596547b76da" points="128.721 277.093 152.294 290.898 152.294 290.872 152.243 290.383"/>
  <polyline class="uuid-cab99ac2-d422-4362-bd05-d596547b76da" points="152.759 284.79 151.658 208.234 127.157 194.089 128.721 277.093"/>
  <line class="uuid-0bdb94ec-502c-4709-8565-cfebba976bba" x1="319.893" y1="105.535" x2="295.367" y2="91.37"/>
  <path class="uuid-cab99ac2-d422-4362-bd05-d596547b76da" d="M295.367,91.37c-14.114-3.371-49.116,11.221-83.555,30.863"/>
  <line class="uuid-0bdb94ec-502c-4709-8565-cfebba976bba" x1="127.157" y1="194.089" x2="151.658" y2="208.234"/>
  <path class="uuid-cab99ac2-d422-4362-bd05-d596547b76da" d="M237.545,352.896c71.648-61.218,83.276-101.794,85.306-160.417"/>
  <line class="uuid-0bdb94ec-502c-4709-8565-cfebba976bba" x1="322.851" y1="192.479" x2="237.545" y2="241.675"/>
  <line class="uuid-0bdb94ec-502c-4709-8565-cfebba976bba" x1="128.721" y1="277.093" x2="129.136" y2="296.807"/>
  <line class="uuid-107d91bd-1272-4e92-b50d-154a6afc4765" x1="157.35" y1="335.651" x2="134.803" y2="322.629"/>
  <line class="uuid-107d91bd-1272-4e92-b50d-154a6afc4765" x1="151.827" y1="306.385" x2="130.528" y2="294.047"/>
  <line class="uuid-107d91bd-1272-4e92-b50d-154a6afc4765" x1="240.162" y1="132.895" x2="218.2" y2="120.219"/>
  <line class="uuid-107d91bd-1272-4e92-b50d-154a6afc4765" x1="263.61" y1="120.367" x2="242.138" y2="107.955"/>
  <line class="uuid-107d91bd-1272-4e92-b50d-154a6afc4765" x1="289.163" y1="109.056" x2="268.496" y2="97.109"/>
  <line class="uuid-107d91bd-1272-4e92-b50d-154a6afc4765" x1="163.263" y1="282.862" x2="154.319" y2="267.42"/>
  <line class="uuid-107d91bd-1272-4e92-b50d-154a6afc4765" x1="183.536" y1="272.795" x2="152.975" y2="219.886"/>
  <line class="uuid-107d91bd-1272-4e92-b50d-154a6afc4765" x1="203.471" y1="262.121" x2="162.331" y2="190.985"/>
  <line class="uuid-107d91bd-1272-4e92-b50d-154a6afc4765" x1="223.086" y1="251.007" x2="179.113" y2="174.887"/>
  <line class="uuid-107d91bd-1272-4e92-b50d-154a6afc4765" x1="236.839" y1="229.681" x2="197.289" y2="161.207"/>
  <line class="uuid-107d91bd-1272-4e92-b50d-154a6afc4765" x1="236.203" y1="183.412" x2="216.684" y2="149.581"/>
  <line class="uuid-107d91bd-1272-4e92-b50d-154a6afc4765" x1="154.738" y1="199.362" x2="131.432" y2="185.907"/>
  <line class="uuid-107d91bd-1272-4e92-b50d-154a6afc4765" x1="161.82" y1="190.373" x2="138.588" y2="176.988"/>
  <line class="uuid-107d91bd-1272-4e92-b50d-154a6afc4765" x1="169.882" y1="182.022" x2="147.015" y2="168.806"/>
  <line class="uuid-107d91bd-1272-4e92-b50d-154a6afc4765" x1="178.724" y1="174.107" x2="156.176" y2="161.061"/>
  <line class="uuid-107d91bd-1272-4e92-b50d-154a6afc4765" x1="188.228" y1="166.558" x2="165.827" y2="153.613"/>
  <line class="uuid-107d91bd-1272-4e92-b50d-154a6afc4765" x1="198.217" y1="159.28" x2="175.864" y2="146.38"/>
  <line class="uuid-107d91bd-1272-4e92-b50d-154a6afc4765" x1="208.622" y1="152.244" x2="186.321" y2="139.371"/>
  <line class="uuid-107d91bd-1272-4e92-b50d-154a6afc4765" x1="219.299" y1="145.378" x2="197.068" y2="132.556"/>
  <line class="uuid-107d91bd-1272-4e92-b50d-154a6afc4765" x1="230.293" y1="138.66" x2="208.159" y2="125.908"/>
  <line class="uuid-107d91bd-1272-4e92-b50d-154a6afc4765" x1="150.264" y1="276.924" x2="141.032" y2="282.251"/>
  <line class="uuid-107d91bd-1272-4e92-b50d-154a6afc4765" x1="150.533" y1="263.734" x2="130.159" y2="275.506"/>
  <line class="uuid-107d91bd-1272-4e92-b50d-154a6afc4765" x1="150.485" y1="250.738" x2="129.868" y2="262.633"/>
  <line class="uuid-107d91bd-1272-4e92-b50d-154a6afc4765" x1="150.437" y1="237.742" x2="129.648" y2="249.737"/>
  <line class="uuid-107d91bd-1272-4e92-b50d-154a6afc4765" x1="150.264" y1="224.772" x2="129.405" y2="236.836"/>
  <line class="uuid-107d91bd-1272-4e92-b50d-154a6afc4765" x1="149.973" y1="211.92" x2="129.184" y2="223.941"/>
  <line class="uuid-107d91bd-1272-4e92-b50d-154a6afc4765" x1="141.079" y1="204.006" x2="129.184" y2="210.893"/>
  <line class="uuid-107d91bd-1272-4e92-b50d-154a6afc4765" x1="129.405" y1="197.729" x2="129.353" y2="197.777"/>
  <line class="uuid-107d91bd-1272-4e92-b50d-154a6afc4765" x1="246.903" y1="342.612" x2="239.404" y2="329.642"/>
  <line class="uuid-107d91bd-1272-4e92-b50d-154a6afc4765" x1="264.32" y1="327.611" x2="238.819" y2="283.472"/>
  <line class="uuid-107d91bd-1272-4e92-b50d-154a6afc4765" x1="280.812" y1="311.028" x2="239.695" y2="239.792"/>
  <line class="uuid-107d91bd-1272-4e92-b50d-154a6afc4765" x1="295.319" y1="290.993" x2="259.387" y2="228.801"/>
  <line class="uuid-107d91bd-1272-4e92-b50d-154a6afc4765" x1="307.678" y1="267.298" x2="279.171" y2="217.932"/>
  <line class="uuid-107d91bd-1272-4e92-b50d-154a6afc4765" x1="316.571" y1="237.569" x2="299.106" y2="207.255"/>
  <line class="uuid-107d91bd-1272-4e92-b50d-154a6afc4765" x1="320.578" y1="199.34" x2="319.187" y2="196.875"/>
</svg>