<?xml version="1.0" encoding="UTF-8"?>
<svg id="uuid-6fc5265a-72ca-477a-9d18-b2fbcb74d06a" data-name="&amp;lt;Layer&amp;gt;" xmlns="http://www.w3.org/2000/svg" viewBox="0 0 451.11 451.11">
  <defs>
    <style>
      .uuid-045de58e-2ea8-4e52-8439-d8b0481bced7 {
        stroke-miterlimit: 10;
        stroke-width: 1.163px;
      }

      .uuid-045de58e-2ea8-4e52-8439-d8b0481bced7, .uuid-4e8f5d7f-15de-4b54-ad7b-881e2bc68ea8 {
        fill: none;
        stroke: #000;
        stroke-linecap: round;
      }

      .uuid-4e8f5d7f-15de-4b54-ad7b-881e2bc68ea8 {
        fill-rule: evenodd;
        stroke-linejoin: round;
        stroke-width: 4.117px;
      }
    </style>
  </defs>
  <path class="uuid-4e8f5d7f-15de-4b54-ad7b-881e2bc68ea8" d="M340.734,211.052v27.65M340.734,238.702c0,8.235-5.814,18.228-12.875,22.357M327.859,261.059l-169.408,97.782c-2.595,1.476-6.462,2.661-9.185.758-.979-.515-1.785-1.394-2.369-2.491-.884-2.086-1.343-3.506-1.343-5.692v-33.564M145.554,307.348v10.505c.228,1.086.552,1.244,1.464,1.807l2.852,1.604,75.074-43.355M145.554,307.348c0-1.221.927-2.784,2.028-3.444.365-.221.78-.393,1.123-.636M263.687,255.536l75.066-43.31,1.981-1.173,1.099-.636M341.834,210.416c1.123-.633,1.976-2.149,1.976-3.419M343.809,206.997v-83.032M343.809,123.965c0-4.372-1.133-6.789-3.76-8.379M330.913,116.515l-169.336,97.738c-3.734,2.344-6.991,5.762-9.113,9.648-.048.099-.122.173-.17.293M152.294,224.194c-2.068,3.772-3.59,8.058-3.59,12.411v75.551M236.792,262.571l21.962-12.727c2.785-1.59,4.934-.269,4.934,2.88v15.416c0,3.15-2.222,7.009-5.008,8.599l-21.936,12.679c-2.737,1.56-4.934.291-4.934-2.858v-15.392c.169-3.444.559-6.107,4.982-8.598h0ZM233.079,289.647c-2.182-1.233-4.562-2.425-6.498-4.017-.928-.828-1.638-1.977-1.638-3.956v-3.764l2.274-1.291v-5.57c0-1.442.169-2.737.463-3.886.928-4.029,3.297-6.446,5.567-7.914l20.914-12.021c1.217-.632,2.196-.975,3.466-.337l4.504,2.545M148.704,320.576v-17.308M330.913,116.515c4.113-2.226,5.85-2.815,9.135-.928l-42.871-24.622M297.177,90.965c-2.786-1.053-5.74-.052-8.231,1.292M288.947,92.256l-33.173,19.103M180.924,154.621l-61.313,35.421c-3.664,2.2-6.913,5.744-9.261,9.873-2.024,3.576-3.638,8.323-3.638,12.48M149.266,359.599l-38.766-22.304c-3.241-2.278-3.612-4.765-3.789-8.353v-116.548M187.252,178.511l-6.961-4.028M180.291,174.483c0-3.764-.343-14.708.217-18.346,1.173-7.33,6.229-15.364,12.679-19.177M193.187,136.961l49.419-28.482c2.542-1.173,5.275-1.564,7.818-.221l6.977,4.017M248.297,113.192l-48.148,27.802M200.149,140.994c-7.205,4.272-12.775,13.948-12.897,22.326M187.252,163.319v15.192M252.182,141.04l-6.961-4.032v-11.553M196.315,159.408v13.878l-9.063,5.224v-15.192M248.297,113.192c7.134-4.103,12.948-.754,12.948,7.45v15.196l-9.063,5.202v-13.9c0-3.123-2.2-4.422-4.938-2.856l-45.922,26.529M201.322,150.813c-2.737,1.586-5.008,5.421-5.008,8.595M110.35,199.915l41.945,24.279"/>
  <line class="uuid-045de58e-2ea8-4e52-8439-d8b0481bced7" x1="143.696" y1="347.63" x2="137.957" y2="350.953"/>
  <line class="uuid-045de58e-2ea8-4e52-8439-d8b0481bced7" x1="144.112" y1="334.34" x2="126.277" y2="344.65"/>
  <line class="uuid-045de58e-2ea8-4e52-8439-d8b0481bced7" x1="144.527" y1="321.075" x2="114.551" y2="338.369"/>
  <line class="uuid-045de58e-2ea8-4e52-8439-d8b0481bced7" x1="144.748" y1="307.933" x2="107.885" y2="329.233"/>
  <line class="uuid-045de58e-2ea8-4e52-8439-d8b0481bced7" x1="147.997" y1="293.032" x2="107.69" y2="316.29"/>
  <line class="uuid-045de58e-2ea8-4e52-8439-d8b0481bced7" x1="147.997" y1="279.989" x2="107.69" y2="303.242"/>
  <line class="uuid-045de58e-2ea8-4e52-8439-d8b0481bced7" x1="147.997" y1="266.941" x2="107.638" y2="290.225"/>
  <line class="uuid-045de58e-2ea8-4e52-8439-d8b0481bced7" x1="147.997" y1="253.899" x2="107.638" y2="277.229"/>
  <line class="uuid-045de58e-2ea8-4e52-8439-d8b0481bced7" x1="147.997" y1="240.877" x2="107.568" y2="264.207"/>
  <line class="uuid-045de58e-2ea8-4e52-8439-d8b0481bced7" x1="149.852" y1="226.759" x2="107.517" y2="251.212"/>
  <line class="uuid-045de58e-2ea8-4e52-8439-d8b0481bced7" x1="141.084" y1="218.797" x2="107.763" y2="238.022"/>
  <line class="uuid-045de58e-2ea8-4e52-8439-d8b0481bced7" x1="129.431" y1="212.494" x2="108.105" y2="224.779"/>
  <line class="uuid-045de58e-2ea8-4e52-8439-d8b0481bced7" x1="117.73" y1="206.192" x2="108.569" y2="211.515"/>
  <line class="uuid-045de58e-2ea8-4e52-8439-d8b0481bced7" x1="330.402" y1="112.239" x2="328.423" y2="115.683"/>
  <line class="uuid-045de58e-2ea8-4e52-8439-d8b0481bced7" x1="320.92" y1="106.01" x2="308.514" y2="127.555"/>
  <line class="uuid-045de58e-2ea8-4e52-8439-d8b0481bced7" x1="311.541" y1="99.781" x2="288.604" y2="139.451"/>
  <line class="uuid-045de58e-2ea8-4e52-8439-d8b0481bced7" x1="302.063" y1="93.578" x2="268.721" y2="151.324"/>
  <line class="uuid-045de58e-2ea8-4e52-8439-d8b0481bced7" x1="289.506" y1="92.772" x2="248.933" y2="163.002"/>
  <line class="uuid-045de58e-2ea8-4e52-8439-d8b0481bced7" x1="268.842" y1="105.962" x2="262.562" y2="116.808"/>
  <line class="uuid-045de58e-2ea8-4e52-8439-d8b0481bced7" x1="249.103" y1="140.136" x2="230.099" y2="173.066"/>
  <line class="uuid-045de58e-2ea8-4e52-8439-d8b0481bced7" x1="243.241" y1="127.777" x2="210.09" y2="185.161"/>
  <line class="uuid-045de58e-2ea8-4e52-8439-d8b0481bced7" x1="223.674" y1="139.061" x2="190.575" y2="196.445"/>
  <line class="uuid-045de58e-2ea8-4e52-8439-d8b0481bced7" x1="203.154" y1="151.936" x2="198.294" y2="160.387"/>
  <line class="uuid-045de58e-2ea8-4e52-8439-d8b0481bced7" x1="187.2" y1="179.59" x2="171.519" y2="206.75"/>
  <line class="uuid-045de58e-2ea8-4e52-8439-d8b0481bced7" x1="179.238" y1="170.892" x2="149.436" y2="222.385"/>
  <line class="uuid-045de58e-2ea8-4e52-8439-d8b0481bced7" x1="171.91" y1="160.998" x2="139.641" y2="216.891"/>
  <line class="uuid-045de58e-2ea8-4e52-8439-d8b0481bced7" x1="152" y1="172.871" x2="130.236" y2="210.636"/>
  <line class="uuid-045de58e-2ea8-4e52-8439-d8b0481bced7" x1="132.091" y1="184.766" x2="120.758" y2="204.381"/>
  <line class="uuid-045de58e-2ea8-4e52-8439-d8b0481bced7" x1="169.834" y1="308.128" x2="150.146" y2="296.77"/>
  <line class="uuid-045de58e-2ea8-4e52-8439-d8b0481bced7" x1="193.187" y1="295.523" x2="149.388" y2="270.242"/>
  <line class="uuid-045de58e-2ea8-4e52-8439-d8b0481bced7" x1="216.592" y1="282.943" x2="148.63" y2="243.709"/>
  <line class="uuid-045de58e-2ea8-4e52-8439-d8b0481bced7" x1="229.584" y1="264.377" x2="153.686" y2="220.578"/>
  <line class="uuid-045de58e-2ea8-4e52-8439-d8b0481bced7" x1="249.982" y1="250.112" x2="174.305" y2="206.409"/>
  <line class="uuid-045de58e-2ea8-4e52-8439-d8b0481bced7" x1="284.988" y1="244.225" x2="196.484" y2="193.145"/>
  <line class="uuid-045de58e-2ea8-4e52-8439-d8b0481bced7" x1="307.586" y1="231.203" x2="219.083" y2="180.101"/>
  <line class="uuid-045de58e-2ea8-4e52-8439-d8b0481bced7" x1="330.108" y1="218.161" x2="241.651" y2="167.079"/>
  <line class="uuid-045de58e-2ea8-4e52-8439-d8b0481bced7" x1="344.398" y1="200.352" x2="264.494" y2="154.21"/>
  <line class="uuid-045de58e-2ea8-4e52-8439-d8b0481bced7" x1="343.64" y1="173.824" x2="287.894" y2="141.626"/>
  <line class="uuid-045de58e-2ea8-4e52-8439-d8b0481bced7" x1="342.834" y1="147.269" x2="311.248" y2="129.045"/>
  <line class="uuid-045de58e-2ea8-4e52-8439-d8b0481bced7" x1="341.44" y1="120.422" x2="335.284" y2="116.834"/>
  <line class="uuid-045de58e-2ea8-4e52-8439-d8b0481bced7" x1="164.68" y1="353.542" x2="147.14" y2="343.402"/>
  <line class="uuid-045de58e-2ea8-4e52-8439-d8b0481bced7" x1="187.838" y1="340.837" x2="152.806" y2="320.638"/>
  <line class="uuid-045de58e-2ea8-4e52-8439-d8b0481bced7" x1="210.432" y1="327.82" x2="175.405" y2="307.592"/>
  <line class="uuid-045de58e-2ea8-4e52-8439-d8b0481bced7" x1="233.031" y1="314.8" x2="197.952" y2="294.574"/>
  <line class="uuid-045de58e-2ea8-4e52-8439-d8b0481bced7" x1="255.016" y1="301.409" x2="236.964" y2="291.005"/>
  <line class="uuid-045de58e-2ea8-4e52-8439-d8b0481bced7" x1="223.038" y1="282.969" x2="221.647" y2="282.137"/>
  <line class="uuid-045de58e-2ea8-4e52-8439-d8b0481bced7" x1="277.61" y1="288.392" x2="259.56" y2="277.961"/>
  <line class="uuid-045de58e-2ea8-4e52-8439-d8b0481bced7" x1="300.721" y1="275.665" x2="265.715" y2="255.436"/>
  <line class="uuid-045de58e-2ea8-4e52-8439-d8b0481bced7" x1="323.315" y1="262.643" x2="288.285" y2="242.418"/>
  <line class="uuid-045de58e-2ea8-4e52-8439-d8b0481bced7" x1="338.533" y1="245.351" x2="311.125" y2="229.518"/>
  <line class="uuid-045de58e-2ea8-4e52-8439-d8b0481bced7" x1="338.827" y1="219.455" x2="334.409" y2="216.914"/>
</svg>