<?xml version="1.0" encoding="UTF-8"?>
<svg id="uuid-d4785e49-f200-4bb1-a9c3-a627db6da156" data-name="&amp;lt;Layer&amp;gt;" xmlns="http://www.w3.org/2000/svg" viewBox="0 0 451.11 451.11">
  <defs>
    <style>
      .uuid-9c0e6920-4ab3-4f0e-a3a7-d2e1ae4af2a7, .uuid-9841f162-69c5-4cbb-8c15-336b03988123, .uuid-d75d8c88-3c20-41e2-b346-020a911bad91, .uuid-a9ed5d97-73a4-4afd-85a6-5e36d5213182 {
        stroke-linecap: round;
      }

      .uuid-9c0e6920-4ab3-4f0e-a3a7-d2e1ae4af2a7, .uuid-9841f162-69c5-4cbb-8c15-336b03988123, .uuid-d75d8c88-3c20-41e2-b346-020a911bad91, .uuid-a9ed5d97-73a4-4afd-85a6-5e36d5213182, .uuid-429e7c6a-08a1-4a9b-a4c2-25ede1b8fc25, .uuid-859823be-13d1-4dda-a907-4b54da57c14c, .uuid-f63a3760-3ac7-48fb-a2dc-0f0a57f56383, .uuid-8caad178-8971-4447-9de7-f5c2aea3dcb9, .uuid-be86b516-3afb-4ca9-bc00-616247fb09da, .uuid-3f366252-b686-430c-bc92-bdac9cf59cbd {
        fill: none;
        stroke: #000;
      }

      .uuid-9c0e6920-4ab3-4f0e-a3a7-d2e1ae4af2a7, .uuid-a9ed5d97-73a4-4afd-85a6-5e36d5213182 {
        stroke-linejoin: round;
      }

      .uuid-9c0e6920-4ab3-4f0e-a3a7-d2e1ae4af2a7, .uuid-a9ed5d97-73a4-4afd-85a6-5e36d5213182, .uuid-859823be-13d1-4dda-a907-4b54da57c14c, .uuid-be86b516-3afb-4ca9-bc00-616247fb09da {
        stroke-width: 4.117px;
      }

      .uuid-9841f162-69c5-4cbb-8c15-336b03988123 {
        stroke-width: 1.163px;
      }

      .uuid-9841f162-69c5-4cbb-8c15-336b03988123, .uuid-d75d8c88-3c20-41e2-b346-020a911bad91 {
        stroke-miterlimit: 10;
      }

      .uuid-d75d8c88-3c20-41e2-b346-020a911bad91 {
        stroke-width: 1.159px;
      }

      .uuid-a9ed5d97-73a4-4afd-85a6-5e36d5213182, .uuid-429e7c6a-08a1-4a9b-a4c2-25ede1b8fc25, .uuid-859823be-13d1-4dda-a907-4b54da57c14c, .uuid-f63a3760-3ac7-48fb-a2dc-0f0a57f56383, .uuid-8caad178-8971-4447-9de7-f5c2aea3dcb9 {
        fill-rule: evenodd;
      }

      .uuid-429e7c6a-08a1-4a9b-a4c2-25ede1b8fc25, .uuid-859823be-13d1-4dda-a907-4b54da57c14c, .uuid-f63a3760-3ac7-48fb-a2dc-0f0a57f56383, .uuid-3f366252-b686-430c-bc92-bdac9cf59cbd {
        stroke-miterlimit: 22.926;
      }

      .uuid-429e7c6a-08a1-4a9b-a4c2-25ede1b8fc25, .uuid-8caad178-8971-4447-9de7-f5c2aea3dcb9, .uuid-3f366252-b686-430c-bc92-bdac9cf59cbd {
        stroke-width: 4.113px;
      }

      .uuid-f63a3760-3ac7-48fb-a2dc-0f0a57f56383 {
        stroke-width: 5.818px;
      }

      .uuid-8caad178-8971-4447-9de7-f5c2aea3dcb9, .uuid-be86b516-3afb-4ca9-bc00-616247fb09da {
        stroke-linejoin: bevel;
      }
    </style>
  </defs>
  <path class="uuid-8caad178-8971-4447-9de7-f5c2aea3dcb9" d="M96.743,199.6l-.628-.63-.607-.662c-10.181-11.972-8.397-30.678-4.496-44.766,5.515-18.769,16.343-36.356,31.23-49.127l1.079-.89c5.515-4.416,11.178-7.933,17.855-10.31,6.561-2.142,12.646-2.8,19.255-.475l1.829,1.057"/>
  <path class="uuid-8caad178-8971-4447-9de7-f5c2aea3dcb9" d="M114.618,359.34l-15.041-8.688-.453-.389-.367-.504.022-67.645c0-3.573,1.741-6.289,4.743-8.142l43.258-24.95"/>
  <path class="uuid-f63a3760-3ac7-48fb-a2dc-0f0a57f56383" d="M187.672,272.668l-.008,28.42M166.6,331.381l-48.16,27.771c-2.06,1.189-3.863.85-4.739-.644l.022-67.004c0-3.551,1.111-6.686,4.743-8.784l43.365-25.008"/>
  <line class="uuid-be86b516-3afb-4ca9-bc00-616247fb09da" x1="99.721" y1="277.948" x2="114.795" y2="286.654"/>
  <path class="uuid-859823be-13d1-4dda-a907-4b54da57c14c" d="M155.709,325.24c-3.418,1.111-5.21.095-7.218-1.558l-6.763-3.903-.435-.387-.411-.43-.379-.467-.353-.505-.324-.544-.295-.581-.265-.618-.227-.656-.2-.688-.165-.724-.128-.762-.092-.795-.058-.828-.019-.862.019-.883.058-.894.092-.901.128-.909.165-.916.2-.916.227-.924.265-.919.295-.92.324-.919.353-.913.379-.91.411-.901.435-.89.459-.883.489-.868.508-.854.534-.842.555-.82.574-.806.597-.784.614-.765.633-.74.65-.714.666-.688.682-.659.695-.632.71-.6.724-.567.732-.53.748-.497.754-.456.758-.415.742-.365.736-.317.722-.269.71-.221.698-.173.681-.129.666-.082.652-.036.632.01.615.052.596.096.574.143.556.18,6.762,3.905"/>
  <path class="uuid-f63a3760-3ac7-48fb-a2dc-0f0a57f56383" d="M155.783,324.993c-6.145,1.527-10.645-2.41-10.645-10.159,0-9.356,6.572-20.737,14.678-25.417,6.57-3.793,12.134-2.02,14.003,3.776"/>
  <path class="uuid-429e7c6a-08a1-4a9b-a4c2-25ede1b8fc25" d="M179.644,338.89l-33.375-19.273M164.603,287.857l25.145,14.518"/>
  <path class="uuid-859823be-13d1-4dda-a907-4b54da57c14c" d="M196.312,298.932c-11.256,3.973-19.321,14.71-19.321,27.327,0,16.002,12.97,28.971,28.967,28.971s28.971-12.97,28.971-28.971c0-3.61-.658-7.065-1.865-10.252"/>
  <path class="uuid-429e7c6a-08a1-4a9b-a4c2-25ede1b8fc25" d="M232.898,299.672v17.446c2.525,25.057-39.192,25.391-36.672,0v-39.659"/>
  <path class="uuid-8caad178-8971-4447-9de7-f5c2aea3dcb9" d="M225.867,294.678c-17.234-9.949-99.982-57.722-117.217-67.675-4.061-3.775-6.343-7.465-8.429-12.575-2.88-7.849-3.554-15.009-3.281-23.324.957-17.742,6.666-34.005,15.184-49.483,8.489-14.979,19.044-28.019,32.948-38.292,11.962-8.528,27.405-15.511,42.169-10.291,17.235,9.953,102.57,59.219,119.812,69.172"/>
  <line class="uuid-3f366252-b686-430c-bc92-bdac9cf59cbd" x1="227.692" y1="216.053" x2="109.007" y2="147.529"/>
  <path class="uuid-859823be-13d1-4dda-a907-4b54da57c14c" d="M325.931,196.678c-1.276-33.207-25.502-46.291-55.216-29.152-30.543,17.618-55.312,60.493-55.327,95.767-.014,34.285,23.372,48.767,52.73,33.373"/>
  <path class="uuid-a9ed5d97-73a4-4afd-85a6-5e36d5213182" d="M313.469,237.526c-6.081,5.759-11.688,13.857-14.931,21.536-2.325,5.261-4.194,11.586-4.657,17.344,0,.14-.062.28-.062.423-.174,2.362-.188,8.621.831,11.163.475,1.961,1.089,2.9,1.74,4.6"/>
  <path class="uuid-a9ed5d97-73a4-4afd-85a6-5e36d5213182" d="M328.845,199.544c.387.082.77.18,1.093.324.347.058.589.202.976.283"/>
  <polyline class="uuid-a9ed5d97-73a4-4afd-85a6-5e36d5213182" points="330.914 200.151 323.253 195.773 301.151 183.153"/>
  <path class="uuid-a9ed5d97-73a4-4afd-85a6-5e36d5213182" d="M301.151,183.153c-15.983-5.247-34.155,9.019-43.979,20.482-16.226,18.96-32.254,58.304-15.358,77.488,2.027,2.351,12.866,8.511,21.477,13.331,2.894,1.6,5.489,3.08,7.473,4.131,0,0,0,.064.04.064"/>
  <path class="uuid-a9ed5d97-73a4-4afd-85a6-5e36d5213182" d="M276.153,302.456c-1.964-.971-3.807-2.229-5.349-3.807-.04,0-.04-.064-.04-.064-1.682-1.681-3.138-3.646-4.294-5.953-2.31-4.64-3.606-10.453-3.606-17.382,0-26.216,18.393-58.043,41.083-71.151,6.991-4.029,13.573-5.773,19.307-5.531,1.964.04,3.849.387,5.592.975.387.082.77.18,1.093.324,3.142,1.155,5.898,3.039,8.066,5.651"/>
  <path class="uuid-a9ed5d97-73a4-4afd-85a6-5e36d5213182" d="M330.873,227.563c.607,2.308.95,4.919.95,7.797,0,18.113-12.702,40.174-28.401,49.229-3.08,1.785-6.038,2.896-8.772,3.403"/>
  <path class="uuid-a9ed5d97-73a4-4afd-85a6-5e36d5213182" d="M277.412,303.653c-.207-.144-.832-.729-1.259-1.197-.201-.243-.382-.445-.486-.544-2.796-3.223-4.617-7.112-5.714-11.307-2.024-7.72-1.456-16.469,0-23.703,4.316-21.858,19.449-46.169,38.656-57.839"/>
  <path class="uuid-a9ed5d97-73a4-4afd-85a6-5e36d5213182" d="M309.662,208.438c3.907-2.208,7.759-3.93,12.196-4.905.443-.099.91-.202,1.395-.243,3.849-.666,7.944-.626,11.71.67"/>
  <polyline class="uuid-a9ed5d97-73a4-4afd-85a6-5e36d5213182" points="334.964 203.96 335.734 204.203 338.004 205.52 338.044 205.56 349.59 212.205"/>
  <path class="uuid-a9ed5d97-73a4-4afd-85a6-5e36d5213182" d="M349.59,212.205c-.323-.103-.666-.243-.993-.283-.302-.102-.585-.202-.868-.305"/>
  <path class="uuid-a9ed5d97-73a4-4afd-85a6-5e36d5213182" d="M334.133,227.136c-7.675.298-15.063,5.159-20.462,10.252-.058.04-.103.099-.139.139"/>
  <path class="uuid-a9ed5d97-73a4-4afd-85a6-5e36d5213182" d="M296.39,292.633c0,.04.04.04.04.099,2.93,5.435,8.375,8.212,14.445,7.698,16.142-.483,30.933-21.801,36.121-35.15,3.209-9.372,6.045-22.993.102-31.499-2.822-4.243-6.865-6.646-12.237-6.646"/>
  <path class="uuid-a9ed5d97-73a4-4afd-85a6-5e36d5213182" d="M304.231,299.561c.143.04.243.099.385.139.202.104.383.162.567.206.058,0,.162.036.203.036.243.104.485.144.728.206,1.057.221,2.168.325,3.323.325.485,0,.953,0,1.438-.044"/>
  <path class="uuid-a9ed5d97-73a4-4afd-85a6-5e36d5213182" d="M301.64,298.365c.221.144.463.284.706.387.104.036.202.099.306.14.179.139.423.243.668.323"/>
  <path class="uuid-a9ed5d97-73a4-4afd-85a6-5e36d5213182" d="M348.597,211.922c-.302-.102-.585-.202-.868-.305-1.987-.67-4.091-1.012-6.321-1.012-5.431-.143-11.649,1.538-18.213,5.206-.183.104-.363.243-.566.347-.103.04-.243.14-.327.18-21.595,12.665-39.161,42.198-40.657,67.523-.04.485-.04,1.012-.04,1.498-.06.629-.06,1.258-.06,1.865,0,6.887,1.255,12.683,3.566,17.26,1.155,2.388,2.613,4.416,4.294,6.119,0,0,0,.04.04.04,7.414,7.514,19.509,8.184,33.144.325,22.69-13.048,41.061-44.873,41.061-71.067,0-14.85-5.872-24.656-15.052-27.978Z"/>
  <path class="uuid-a9ed5d97-73a4-4afd-85a6-5e36d5213182" d="M309.437,300.474c-1.155,0-2.266-.104-3.323-.325-.243-.062-.485-.102-.728-.206-.04,0-.144-.036-.203-.036-.184-.044-.365-.103-.567-.206-.143-.04-.243-.099-.385-.139"/>
  <path class="uuid-a9ed5d97-73a4-4afd-85a6-5e36d5213182" d="M289.443,310.642c-.04,0-.04-.04-.04-.04"/>
  <line class="uuid-9c0e6920-4ab3-4f0e-a3a7-d2e1ae4af2a7" x1="289.403" y1="310.602" x2="277.412" y2="303.653"/>
  <line class="uuid-9841f162-69c5-4cbb-8c15-336b03988123" x1="298.885" y1="314.915" x2="282.699" y2="286.897"/>
  <line class="uuid-9841f162-69c5-4cbb-8c15-336b03988123" x1="318.577" y1="311.552" x2="312.801" y2="301.585"/>
  <line class="uuid-9841f162-69c5-4cbb-8c15-336b03988123" x1="293.737" y1="268.503" x2="288.773" y2="259.975"/>
  <line class="uuid-9841f162-69c5-4cbb-8c15-336b03988123" x1="333.89" y1="300.675" x2="329.475" y2="293.016"/>
  <line class="uuid-9841f162-69c5-4cbb-8c15-336b03988123" x1="303.178" y1="247.493" x2="299.268" y2="240.669"/>
  <line class="uuid-9841f162-69c5-4cbb-8c15-336b03988123" x1="346.712" y1="285.399" x2="342.378" y2="277.882"/>
  <line class="uuid-9841f162-69c5-4cbb-8c15-336b03988123" x1="316.469" y1="233.049" x2="312.233" y2="225.635"/>
  <line class="uuid-9841f162-69c5-4cbb-8c15-336b03988123" x1="357.026" y1="265.81" x2="351.19" y2="255.681"/>
  <line class="uuid-9841f162-69c5-4cbb-8c15-336b03988123" x1="333.89" y1="225.778" x2="327.69" y2="214.98"/>
  <line class="uuid-9841f162-69c5-4cbb-8c15-336b03988123" x1="362.313" y1="237.526" x2="348.111" y2="212.934"/>
  <line class="uuid-9841f162-69c5-4cbb-8c15-336b03988123" x1="300.04" y1="294.939" x2="296.755" y2="289.207"/>
  <line class="uuid-9841f162-69c5-4cbb-8c15-336b03988123" x1="313.146" y1="298.932" x2="305.044" y2="284.914"/>
  <line class="uuid-9841f162-69c5-4cbb-8c15-336b03988123" x1="321.958" y1="295.469" x2="312.516" y2="279.1"/>
  <line class="uuid-9841f162-69c5-4cbb-8c15-336b03988123" x1="329.475" y1="289.733" x2="319.121" y2="271.786"/>
  <line class="uuid-9841f162-69c5-4cbb-8c15-336b03988123" x1="336.121" y1="282.561" x2="324.836" y2="263.013"/>
  <line class="uuid-9841f162-69c5-4cbb-8c15-336b03988123" x1="341.893" y1="273.791" x2="329.655" y2="252.601"/>
  <line class="uuid-9841f162-69c5-4cbb-8c15-336b03988123" x1="346.573" y1="263.198" x2="332.798" y2="239.311"/>
  <line class="uuid-9841f162-69c5-4cbb-8c15-336b03988123" x1="349.167" y1="248.955" x2="337.316" y2="228.431"/>
  <line class="uuid-9841f162-69c5-4cbb-8c15-336b03988123" x1="307.697" y1="280.355" x2="298.012" y2="263.539"/>
  <line class="uuid-9841f162-69c5-4cbb-8c15-336b03988123" x1="320.883" y1="265.707" x2="308.507" y2="244.334"/>
  <line class="uuid-9841f162-69c5-4cbb-8c15-336b03988123" x1="329.615" y1="243.362" x2="323.011" y2="231.956"/>
  <line class="uuid-9841f162-69c5-4cbb-8c15-336b03988123" x1="280.204" y1="290.02" x2="270.237" y2="284.306"/>
  <line class="uuid-9841f162-69c5-4cbb-8c15-336b03988123" x1="282.614" y1="269.802" x2="272.021" y2="263.683"/>
  <line class="uuid-9841f162-69c5-4cbb-8c15-336b03988123" x1="289.341" y1="252.034" x2="278.523" y2="245.816"/>
  <line class="uuid-9841f162-69c5-4cbb-8c15-336b03988123" x1="299.128" y1="236.088" x2="288.288" y2="229.829"/>
  <line class="uuid-9841f162-69c5-4cbb-8c15-336b03988123" x1="312.134" y1="221.971" x2="301.434" y2="215.811"/>
  <line class="uuid-9841f162-69c5-4cbb-8c15-336b03988123" x1="330.469" y1="210.947" x2="320.663" y2="205.255"/>
  <line class="uuid-9841f162-69c5-4cbb-8c15-336b03988123" x1="244.853" y1="281.649" x2="237.057" y2="268.198"/>
  <line class="uuid-9841f162-69c5-4cbb-8c15-336b03988123" x1="262.032" y1="292.773" x2="236.225" y2="248.083"/>
  <line class="uuid-9841f162-69c5-4cbb-8c15-336b03988123" x1="261.892" y1="273.791" x2="239.749" y2="235.422"/>
  <line class="uuid-9841f162-69c5-4cbb-8c15-336b03988123" x1="264.16" y1="258.963" x2="244.327" y2="224.623"/>
  <line class="uuid-9841f162-69c5-4cbb-8c15-336b03988123" x1="268.07" y1="247.008" x2="249.614" y2="215.101"/>
  <line class="uuid-9841f162-69c5-4cbb-8c15-336b03988123" x1="272.934" y1="236.758" x2="255.548" y2="206.613"/>
  <line class="uuid-9841f162-69c5-4cbb-8c15-336b03988123" x1="278.523" y1="227.663" x2="262.094" y2="199.239"/>
  <line class="uuid-9841f162-69c5-4cbb-8c15-336b03988123" x1="284.682" y1="219.579" x2="269.306" y2="192.98"/>
  <line class="uuid-9841f162-69c5-4cbb-8c15-336b03988123" x1="291.368" y1="212.489" x2="277.107" y2="187.793"/>
  <line class="uuid-9841f162-69c5-4cbb-8c15-336b03988123" x1="298.7" y1="206.41" x2="285.797" y2="184.128"/>
  <line class="uuid-9841f162-69c5-4cbb-8c15-336b03988123" x1="306.64" y1="201.469" x2="296.089" y2="183.153"/>
  <line class="uuid-9841f162-69c5-4cbb-8c15-336b03988123" x1="315.394" y1="197.944" x2="311.221" y2="190.67"/>
  <line class="uuid-9841f162-69c5-4cbb-8c15-336b03988123" x1="109.177" y1="356.584" x2="97.943" y2="337.094"/>
  <line class="uuid-d75d8c88-3c20-41e2-b346-020a911bad91" x1="113.194" y1="340.799" x2="98.767" y2="315.842"/>
  <line class="uuid-9841f162-69c5-4cbb-8c15-336b03988123" x1="113.798" y1="319.294" x2="98.775" y2="293.273"/>
  <line class="uuid-9841f162-69c5-4cbb-8c15-336b03988123" x1="113.83" y1="296.79" x2="104.841" y2="281.241"/>
  <line class="uuid-9841f162-69c5-4cbb-8c15-336b03988123" x1="124.118" y1="280.903" x2="115.998" y2="266.836"/>
  <line class="uuid-9841f162-69c5-4cbb-8c15-336b03988123" x1="143.685" y1="269.57" x2="135.479" y2="255.371"/>
  <line class="uuid-9841f162-69c5-4cbb-8c15-336b03988123" x1="145.05" y1="315.559" x2="139.226" y2="305.452"/>
  <line class="uuid-9841f162-69c5-4cbb-8c15-336b03988123" x1="149.83" y1="301.132" x2="144.582" y2="292.055"/>
  <line class="uuid-9841f162-69c5-4cbb-8c15-336b03988123" x1="157.357" y1="291.602" x2="153.565" y2="285.034"/>
  <line class="uuid-9841f162-69c5-4cbb-8c15-336b03988123" x1="196.404" y1="353.949" x2="177.524" y2="321.229"/>
  <line class="uuid-d75d8c88-3c20-41e2-b346-020a911bad91" x1="210.09" y1="354.957" x2="182.877" y2="307.832"/>
  <line class="uuid-9841f162-69c5-4cbb-8c15-336b03988123" x1="195.656" y1="307.379" x2="191.863" y2="300.811"/>
  <line class="uuid-9841f162-69c5-4cbb-8c15-336b03988123" x1="221.07" y1="351.388" x2="211.544" y2="334.894"/>
  <line class="uuid-9841f162-69c5-4cbb-8c15-336b03988123" x1="229.936" y1="344.174" x2="223.616" y2="333.224"/>
  <line class="uuid-9841f162-69c5-4cbb-8c15-336b03988123" x1="97.034" y1="188.135" x2="87.461" y2="171.563"/>
  <line class="uuid-9841f162-69c5-4cbb-8c15-336b03988123" x1="100.393" y1="175.217" x2="90.095" y2="157.368"/>
  <line class="uuid-9841f162-69c5-4cbb-8c15-336b03988123" x1="102.66" y1="160.385" x2="93.631" y2="144.752"/>
  <line class="uuid-9841f162-69c5-4cbb-8c15-336b03988123" x1="106.572" y1="148.434" x2="98.804" y2="135.005"/>
  <line class="uuid-9841f162-69c5-4cbb-8c15-336b03988123" x1="111.435" y1="138.184" x2="103.885" y2="125.092"/>
  <line class="uuid-9841f162-69c5-4cbb-8c15-336b03988123" x1="117.025" y1="129.089" x2="110.236" y2="117.344"/>
  <line class="uuid-d75d8c88-3c20-41e2-b346-020a911bad91" x1="123.184" y1="121.005" x2="116.134" y2="108.811"/>
  <line class="uuid-d75d8c88-3c20-41e2-b346-020a911bad91" x1="129.87" y1="113.915" x2="123.757" y2="103.329"/>
  <line class="uuid-9841f162-69c5-4cbb-8c15-336b03988123" x1="137.202" y1="107.836" x2="131.197" y2="97.464"/>
  <line class="uuid-9841f162-69c5-4cbb-8c15-336b03988123" x1="145.142" y1="102.891" x2="139.819" y2="93.652"/>
  <line class="uuid-d75d8c88-3c20-41e2-b346-020a911bad91" x1="153.895" y1="99.366" x2="149.722" y2="92.096"/>
  <line class="uuid-9841f162-69c5-4cbb-8c15-336b03988123" x1="121.433" y1="234.483" x2="96.332" y2="191.019"/>
  <line class="uuid-9841f162-69c5-4cbb-8c15-336b03988123" x1="160.058" y1="256.259" x2="104.96" y2="160.82"/>
  <line class="uuid-9841f162-69c5-4cbb-8c15-336b03988123" x1="198.482" y1="277.672" x2="130.285" y2="159.506"/>
  <line class="uuid-9841f162-69c5-4cbb-8c15-336b03988123" x1="215.186" y1="261.52" x2="169.481" y2="182.303"/>
  <line class="uuid-9841f162-69c5-4cbb-8c15-336b03988123" x1="221.214" y1="226.738" x2="208.681" y2="205.031"/>
</svg>