<?xml version="1.0" encoding="UTF-8"?>
<svg id="uuid-746ace7c-5e36-4945-ab9d-06d64b61ff97" data-name="&amp;lt;Layer&amp;gt;" xmlns="http://www.w3.org/2000/svg" viewBox="0 0 451.11 451.11">
  <defs>
    <style>
      .uuid-de1e7cb8-d7dd-4b28-9958-71a33e028026, .uuid-9476d375-d1d4-45d2-8141-76c33e17ca7b, .uuid-07b1a621-b048-442c-bb62-fd84d43c1f3a {
        fill: none;
        stroke: #000;
        stroke-linecap: round;
      }

      .uuid-de1e7cb8-d7dd-4b28-9958-71a33e028026, .uuid-07b1a621-b048-442c-bb62-fd84d43c1f3a {
        stroke-linejoin: round;
        stroke-width: 4.117px;
      }

      .uuid-9476d375-d1d4-45d2-8141-76c33e17ca7b {
        stroke-miterlimit: 10;
        stroke-width: 1.163px;
      }

      .uuid-07b1a621-b048-442c-bb62-fd84d43c1f3a {
        fill-rule: evenodd;
      }
    </style>
  </defs>
  <path class="uuid-07b1a621-b048-442c-bb62-fd84d43c1f3a" d="M151.243,211.629c3.249,106.359-13.754,171.242,86.303,141.266,99.984-85.424,83.033-130.692,86.403-240.885,1.053-35.226-173.758,65.589-172.705,99.619Z"/>
  <polyline class="uuid-07b1a621-b048-442c-bb62-fd84d43c1f3a" points="237.545 241.675 237.476 352.895 237.545 352.895"/>
  <polyline class="uuid-07b1a621-b048-442c-bb62-fd84d43c1f3a" points="152.295 290.872 237.545 241.675 237.597 135.875"/>
  <path class="uuid-07b1a621-b048-442c-bb62-fd84d43c1f3a" d="M127.157,193.965c.391-1.707.928-3.638,1.564-5.714,8.058-16.834,45.922-44.925,84.203-66.619"/>
  <polyline class="uuid-07b1a621-b048-442c-bb62-fd84d43c1f3a" points="212.924 121.632 227.483 130.061 237.597 135.875"/>
  <path class="uuid-07b1a621-b048-442c-bb62-fd84d43c1f3a" d="M129.136,296.806c.732,39.871,14.902,40.846,44.702,58.017-16.561-11.528-19.273-30.678-20.863-50.366"/>
  <path class="uuid-07b1a621-b048-442c-bb62-fd84d43c1f3a" d="M152.975,304.457l-.68-13.585M152.243,290.383l.515-5.593"/>
  <polyline class="uuid-07b1a621-b048-442c-bb62-fd84d43c1f3a" points="128.721 277.092 152.295 290.898 152.295 290.872 152.243 290.383"/>
  <polyline class="uuid-07b1a621-b048-442c-bb62-fd84d43c1f3a" points="152.759 284.789 151.658 208.233 127.157 194.09 128.721 277.092"/>
  <line class="uuid-de1e7cb8-d7dd-4b28-9958-71a33e028026" x1="319.894" y1="105.534" x2="295.367" y2="91.369"/>
  <path class="uuid-07b1a621-b048-442c-bb62-fd84d43c1f3a" d="M295.367,91.369c-14.114-3.371-49.116,11.222-83.555,30.862"/>
  <line class="uuid-de1e7cb8-d7dd-4b28-9958-71a33e028026" x1="127.157" y1="194.09" x2="151.658" y2="208.233"/>
  <path class="uuid-07b1a621-b048-442c-bb62-fd84d43c1f3a" d="M237.545,352.895c71.648-61.218,83.276-101.794,85.307-160.417"/>
  <line class="uuid-de1e7cb8-d7dd-4b28-9958-71a33e028026" x1="322.852" y1="192.478" x2="237.545" y2="241.675"/>
  <line class="uuid-de1e7cb8-d7dd-4b28-9958-71a33e028026" x1="128.721" y1="277.092" x2="129.136" y2="296.806"/>
  <line class="uuid-9476d375-d1d4-45d2-8141-76c33e17ca7b" x1="157.35" y1="335.65" x2="134.803" y2="322.629"/>
  <line class="uuid-9476d375-d1d4-45d2-8141-76c33e17ca7b" x1="151.828" y1="306.384" x2="130.528" y2="294.047"/>
  <line class="uuid-9476d375-d1d4-45d2-8141-76c33e17ca7b" x1="240.162" y1="132.895" x2="218.2" y2="120.219"/>
  <line class="uuid-9476d375-d1d4-45d2-8141-76c33e17ca7b" x1="263.61" y1="120.367" x2="242.138" y2="107.955"/>
  <line class="uuid-9476d375-d1d4-45d2-8141-76c33e17ca7b" x1="289.164" y1="109.052" x2="268.496" y2="97.109"/>
  <line class="uuid-9476d375-d1d4-45d2-8141-76c33e17ca7b" x1="163.263" y1="282.862" x2="154.319" y2="267.42"/>
  <line class="uuid-9476d375-d1d4-45d2-8141-76c33e17ca7b" x1="183.537" y1="272.795" x2="152.975" y2="219.886"/>
  <line class="uuid-9476d375-d1d4-45d2-8141-76c33e17ca7b" x1="203.471" y1="262.121" x2="162.333" y2="190.984"/>
  <line class="uuid-9476d375-d1d4-45d2-8141-76c33e17ca7b" x1="223.086" y1="251.006" x2="179.117" y2="174.887"/>
  <line class="uuid-9476d375-d1d4-45d2-8141-76c33e17ca7b" x1="236.839" y1="229.68" x2="197.29" y2="161.207"/>
  <line class="uuid-9476d375-d1d4-45d2-8141-76c33e17ca7b" x1="236.203" y1="183.412" x2="216.684" y2="149.581"/>
  <line class="uuid-9476d375-d1d4-45d2-8141-76c33e17ca7b" x1="154.738" y1="199.363" x2="131.432" y2="185.907"/>
  <line class="uuid-9476d375-d1d4-45d2-8141-76c33e17ca7b" x1="161.821" y1="190.374" x2="138.59" y2="176.988"/>
  <line class="uuid-9476d375-d1d4-45d2-8141-76c33e17ca7b" x1="169.882" y1="182.022" x2="147.015" y2="168.805"/>
  <line class="uuid-9476d375-d1d4-45d2-8141-76c33e17ca7b" x1="178.724" y1="174.108" x2="156.176" y2="161.06"/>
  <line class="uuid-9476d375-d1d4-45d2-8141-76c33e17ca7b" x1="188.228" y1="166.557" x2="165.827" y2="153.614"/>
  <line class="uuid-9476d375-d1d4-45d2-8141-76c33e17ca7b" x1="198.217" y1="159.275" x2="175.864" y2="146.38"/>
  <line class="uuid-9476d375-d1d4-45d2-8141-76c33e17ca7b" x1="208.622" y1="152.244" x2="186.321" y2="139.371"/>
  <line class="uuid-9476d375-d1d4-45d2-8141-76c33e17ca7b" x1="219.299" y1="145.379" x2="197.068" y2="132.552"/>
  <line class="uuid-9476d375-d1d4-45d2-8141-76c33e17ca7b" x1="230.293" y1="138.661" x2="208.159" y2="125.908"/>
  <line class="uuid-9476d375-d1d4-45d2-8141-76c33e17ca7b" x1="150.264" y1="276.924" x2="141.032" y2="282.251"/>
  <line class="uuid-9476d375-d1d4-45d2-8141-76c33e17ca7b" x1="150.533" y1="263.733" x2="130.159" y2="275.507"/>
  <line class="uuid-9476d375-d1d4-45d2-8141-76c33e17ca7b" x1="150.485" y1="250.738" x2="129.868" y2="262.633"/>
  <line class="uuid-9476d375-d1d4-45d2-8141-76c33e17ca7b" x1="150.437" y1="237.742" x2="129.648" y2="249.737"/>
  <line class="uuid-9476d375-d1d4-45d2-8141-76c33e17ca7b" x1="150.264" y1="224.773" x2="129.405" y2="236.836"/>
  <line class="uuid-9476d375-d1d4-45d2-8141-76c33e17ca7b" x1="149.973" y1="211.92" x2="129.184" y2="223.941"/>
  <line class="uuid-9476d375-d1d4-45d2-8141-76c33e17ca7b" x1="141.081" y1="204.006" x2="129.184" y2="210.893"/>
  <line class="uuid-9476d375-d1d4-45d2-8141-76c33e17ca7b" x1="129.405" y1="197.729" x2="129.354" y2="197.777"/>
  <line class="uuid-9476d375-d1d4-45d2-8141-76c33e17ca7b" x1="246.903" y1="342.611" x2="239.404" y2="329.642"/>
  <line class="uuid-9476d375-d1d4-45d2-8141-76c33e17ca7b" x1="264.32" y1="327.61" x2="238.819" y2="283.473"/>
  <line class="uuid-9476d375-d1d4-45d2-8141-76c33e17ca7b" x1="280.811" y1="311.027" x2="239.695" y2="239.792"/>
  <line class="uuid-9476d375-d1d4-45d2-8141-76c33e17ca7b" x1="295.319" y1="290.994" x2="259.387" y2="228.802"/>
  <line class="uuid-9476d375-d1d4-45d2-8141-76c33e17ca7b" x1="307.679" y1="267.298" x2="279.171" y2="217.932"/>
  <line class="uuid-9476d375-d1d4-45d2-8141-76c33e17ca7b" x1="316.571" y1="237.57" x2="299.106" y2="207.255"/>
  <line class="uuid-9476d375-d1d4-45d2-8141-76c33e17ca7b" x1="320.578" y1="199.341" x2="319.187" y2="196.875"/>
</svg>