<?xml version="1.0" encoding="UTF-8"?>
<svg id="uuid-b5cd1b16-b686-4c2a-9d4f-11d379bf0bea" data-name="&amp;lt;Layer&amp;gt;" xmlns="http://www.w3.org/2000/svg" viewBox="0 0 451.11 451.11">
  <defs>
    <style>
      .uuid-88ff67e4-4f55-4fe0-937b-8fb9486438da, .uuid-7d34222f-b185-4181-9b57-54817a777a8f, .uuid-bb639cf1-a1b3-4395-a9cd-5a42436ea85c, .uuid-8d32ed1c-0d87-4a45-93f1-ba01723e5e1f, .uuid-6bc77b2e-ab35-4074-8dfd-157e5c8a7462 {
        stroke: #000;
        stroke-linecap: round;
      }

      .uuid-88ff67e4-4f55-4fe0-937b-8fb9486438da, .uuid-7d34222f-b185-4181-9b57-54817a777a8f, .uuid-6bc77b2e-ab35-4074-8dfd-157e5c8a7462 {
        stroke-linejoin: round;
      }

      .uuid-88ff67e4-4f55-4fe0-937b-8fb9486438da, .uuid-bb639cf1-a1b3-4395-a9cd-5a42436ea85c, .uuid-8d32ed1c-0d87-4a45-93f1-ba01723e5e1f, .uuid-6bc77b2e-ab35-4074-8dfd-157e5c8a7462 {
        fill: none;
      }

      .uuid-88ff67e4-4f55-4fe0-937b-8fb9486438da, .uuid-6bc77b2e-ab35-4074-8dfd-157e5c8a7462 {
        stroke-width: 4.113px;
      }

      .uuid-7d34222f-b185-4181-9b57-54817a777a8f {
        fill: #1986c6;
        stroke-width: .317px;
      }

      .uuid-7d34222f-b185-4181-9b57-54817a777a8f, .uuid-8d32ed1c-0d87-4a45-93f1-ba01723e5e1f, .uuid-6bc77b2e-ab35-4074-8dfd-157e5c8a7462 {
        fill-rule: evenodd;
      }

      .uuid-bb639cf1-a1b3-4395-a9cd-5a42436ea85c {
        stroke-miterlimit: 10;
      }

      .uuid-bb639cf1-a1b3-4395-a9cd-5a42436ea85c, .uuid-8d32ed1c-0d87-4a45-93f1-ba01723e5e1f {
        stroke-width: 1.163px;
      }

      .uuid-8d32ed1c-0d87-4a45-93f1-ba01723e5e1f {
        stroke-miterlimit: 22.926;
      }
    </style>
  </defs>
  <path class="uuid-6bc77b2e-ab35-4074-8dfd-157e5c8a7462" d="M145.473,223.331c-17.297,4.176-32.467,11.602-42.555,21.716-9.357,9.331-13.07,19.688-11.676,29.655,4.32,33.991,56.39,46.934,84.276,47.464,18.481.527,42.894-2.796,59.922-11.042,14.626-6.207,31.314-19.644,33.562-36.053v-.295c2.617-19.103-13.532-38.401-44.262-48.611-3.249-1.101-6.62-2.028-9.967-2.907"/>
  <path class="uuid-6bc77b2e-ab35-4074-8dfd-157e5c8a7462" d="M258.5,159.427c5.154-2.591,11.262,2.322,14.39,6.107,4.128,4.931,7.623,12.871,6.155,19.321-.389,1.928-1.394,3.712-3.079,4.813"/>
  <path class="uuid-6bc77b2e-ab35-4074-8dfd-157e5c8a7462" d="M356.75,143.035c3.249-1.979,3.712-6.696,3.249-10.136-.927-7.38-5.814-15.296-12.19-19.155"/>
  <path class="uuid-6bc77b2e-ab35-4074-8dfd-157e5c8a7462" d="M260.994,167.221c1.223-.685,2.833-.589,4.688.463.879.537,1.689,1.221,2.443,2.1.879.806,1.637,1.855,2.274,2.956.169.291.341.632.463,1.001.295.463.511.905.636,1.442.585,1.39.88,2.786.88,4.128,0,1.391-.295,2.491-.931,3.297-.243.415-.585.758-1.001,1.053"/>
  <polyline class="uuid-6bc77b2e-ab35-4074-8dfd-157e5c8a7462" points="214.775 215.78 264.461 187.151 270.399 183.66 270.447 183.66"/>
  <path class="uuid-6bc77b2e-ab35-4074-8dfd-157e5c8a7462" d="M270.447,183.66c.293-.173.584-.415.758-.684.121-.122.243-.295.293-.443.07-.047.07-.095.07-.147.173-.195.221-.411.343-.633.415-1.051.467-2.273.341-3.322v-.295c0-.048,0-.122-.073-.169,0-.391-.096-.81-.218-1.221-.125-.515-.293-1.053-.463-1.564-.173-.537-.393-.979-.636-1.442-.247-.489-.463-.88-.71-1.344-.269-.463-.633-.927-.975-1.391-.343-.463-.685-.879-1.053-1.221-.754-.758-1.564-1.394-2.37-1.931"/>
  <polyline class="uuid-6bc77b2e-ab35-4074-8dfd-157e5c8a7462" points="260.994 167.221 260.821 167.341 254.961 170.712 213.895 194.407"/>
  <path class="uuid-6bc77b2e-ab35-4074-8dfd-157e5c8a7462" d="M214.653,275.608c-1.053,8.425-10.579,13.75-17.831,16.048-13.242,4.177-31.834,3.249-43.339-4.717-4.103-2.854-7.841-7.13-8.058-12.406"/>
  <path class="uuid-6bc77b2e-ab35-4074-8dfd-157e5c8a7462" d="M145.425,255.868c.291,3.712,1.733,6.498,4.298,9.209,8.014,8.451,23.354,10.994,34.442,10.236,9.626-.633,22.596-4.202,28.265-12.631"/>
  <path class="uuid-6bc77b2e-ab35-4074-8dfd-157e5c8a7462" d="M214.775,255.988c0,2.811.099,18.103-.122,19.619-.927,7.377-8.377,12.384-15.097,15.048"/>
  <path class="uuid-6bc77b2e-ab35-4074-8dfd-157e5c8a7462" d="M199.556,271.99c5.23-2.028,9.991-5.034,12.875-9.308,1.464-2.172,2.1-4.103,2.344-6.694"/>
  <path class="uuid-6bc77b2e-ab35-4074-8dfd-157e5c8a7462" d="M153.14,242.945c-.169.122-.341.222-.511.365-.927.688-1.759,1.394-2.491,2.127-3.322,3.322-4.765,6.913-4.665,10.457,0,.073,0,.121.074.195v.269c.048.636.095,1.342.291,1.928.051.173.051.343.173.467,0,.048.048.169.048.221.121.585.367,1.049.588,1.56.291.71.707,1.394,1.171,2.102"/>
  <path class="uuid-6bc77b2e-ab35-4074-8dfd-157e5c8a7462" d="M207.666,255.966c-.343,6.668-7.477,11.138-13.116,13.118-1.101.341-2.201.71-3.371.979-.736.169-1.564.364-2.37.534-.073,0-.173.052-.245.052-.685.121-1.488.221-2.198.293-.048.074-.173.074-.243.074-.221.048-.393.048-.636.048h-.221"/>
  <path class="uuid-6bc77b2e-ab35-4074-8dfd-157e5c8a7462" d="M185.266,271.111c-9.185.979-19.347-.637-26.26-5.398-3.301-2.274-6.207-5.644-6.377-9.819"/>
  <path class="uuid-6bc77b2e-ab35-4074-8dfd-157e5c8a7462" d="M198.213,247.441c-13.411,4.761-32.857,3.981-44.73-4.228-4.103-2.858-7.841-7.13-8.058-12.384"/>
  <path class="uuid-6bc77b2e-ab35-4074-8dfd-157e5c8a7462" d="M145.425,199.293c.343,3.712,1.733,6.498,4.298,9.209,8.014,8.453,23.354,10.994,34.442,10.236,9.626-.662,22.596-4.228,28.265-12.631"/>
  <path class="uuid-6bc77b2e-ab35-4074-8dfd-157e5c8a7462" d="M199.556,215.413c5.23-2.024,9.991-5.03,12.875-9.305,1.464-2.196,2.1-4.103,2.344-6.715"/>
  <path class="uuid-6bc77b2e-ab35-4074-8dfd-157e5c8a7462" d="M153.804,185.93c-.417.221-.832.515-1.175.806-.927.684-1.759,1.39-2.491,2.148-3.322,3.301-4.838,6.965-4.665,10.579.074.684.169,1.442.365,2.152,0,.048.051.096.051.169,0,.048,0,.174.048.221,0,.074,0,.122.074.17.121.463.295.927.511,1.394"/>
  <path class="uuid-6bc77b2e-ab35-4074-8dfd-157e5c8a7462" d="M205.297,212.631c.243-.173.463-.295.71-.463.341-.221.684-.465.975-.637.173-.169.341-.295.515-.415.463-.343.927-.684,1.342-1.101.417-.291.758-.632,1.101-.975.074-.073.121-.121.169-.173.832-.758,1.468-1.56,2.053-2.392.269-.463.56-.857.806-1.272.221-.413.463-.802.632-1.27.221-.463.463-1.001.589-1.464.048-.122.121-.222.121-.343.174-.463.221-.88.269-1.343.074-.389.122-.758.122-1.099.074-.122.074-.17.074-.291.047-1.689-.244-3.375-.88-4.986-1.097-2.785-3.197-5.398-6.229-7.719-.389-.295-.806-.585-1.221-.832"/>
  <path class="uuid-6bc77b2e-ab35-4074-8dfd-157e5c8a7462" d="M152.629,199.341c.17,4.176,3.076,7.547,6.377,9.821,5.228,3.59,12.384,5.449,19.519,5.618"/>
  <path class="uuid-6bc77b2e-ab35-4074-8dfd-157e5c8a7462" d="M185.266,214.489h.221c1.928-.173,3.907-.515,5.692-.979,1.169-.293,2.27-.636,3.371-1.001,5.64-1.957,12.774-6.424,13.116-13.116"/>
  <path class="uuid-6bc77b2e-ab35-4074-8dfd-157e5c8a7462" d="M214.653,174.377c-1.053,8.425-10.579,13.75-17.831,16.05-13.242,4.176-31.834,3.249-43.339-4.691-4.103-2.882-7.841-7.157-8.058-12.408"/>
  <path class="uuid-6bc77b2e-ab35-4074-8dfd-157e5c8a7462" d="M145.425,154.662c.291,3.69,1.733,6.498,4.298,9.183,8.014,8.477,23.354,11.016,34.442,10.236,9.626-.658,22.596-4.202,28.265-12.605"/>
  <path class="uuid-6bc77b2e-ab35-4074-8dfd-157e5c8a7462" d="M214.775,154.759c0,2.81.099,18.102-.122,19.618-.927,7.399-8.377,12.384-15.097,15.049"/>
  <path class="uuid-6bc77b2e-ab35-4074-8dfd-157e5c8a7462" d="M199.556,170.76c5.23-2.002,9.991-5.034,12.875-9.283,1.464-2.198,2.1-4.129,2.344-6.718"/>
  <path class="uuid-6bc77b2e-ab35-4074-8dfd-157e5c8a7462" d="M162.792,171.543c-16.613-5.522-22.253-17.761-12.727-27.333,9.577-9.556,30.777-12.827,47.39-7.308,16.539,5.497,22.253,17.76,12.653,27.312-9.577,9.577-30.778,12.848-47.316,7.328Z"/>
  <path class="uuid-6bc77b2e-ab35-4074-8dfd-157e5c8a7462" d="M268.957,272.285c0,4.007.221,16.123-.196,19.371-2.832,21.595-27.238,35.2-45.874,41.114-33.835,10.721-81.469,8.351-110.956-12.069-10.651-7.33-20.151-18.324-20.689-31.808"/>
  <polygon class="uuid-7d34222f-b185-4181-9b57-54817a777a8f" points="187.075 272.943 186.608 272.969 186.708 272.969 187.075 272.943"/>
  <polygon class="uuid-7d34222f-b185-4181-9b57-54817a777a8f" points="188.687 272.7 188.172 272.77 188.563 272.7 188.687 272.7"/>
  <path class="uuid-7d34222f-b185-4181-9b57-54817a777a8f" d="M183.459,273.285c-.173,0-.343,0-.515.026l.979-.074-.463.048Z"/>
  <polygon class="uuid-7d34222f-b185-4181-9b57-54817a777a8f" points="187.123 272.917 186.608 272.969 186.778 272.969 187.123 272.917"/>
  <polygon class="uuid-7d34222f-b185-4181-9b57-54817a777a8f" points="188.515 272.7 187.929 272.77 188.341 272.7 188.515 272.7"/>
  <path class="uuid-7d34222f-b185-4181-9b57-54817a777a8f" d="M183.58,273.285c-.243,0-.415,0-.636.026l1.053-.074-.417.048Z"/>
  <path class="uuid-6bc77b2e-ab35-4074-8dfd-157e5c8a7462" d="M347.809,113.744c-2.513-1.391-5.814-2.443-8.547-.975"/>
  <line class="uuid-88ff67e4-4f55-4fe0-937b-8fb9486438da" x1="339.262" y1="112.77" x2="258.5" y2="159.427"/>
  <line class="uuid-88ff67e4-4f55-4fe0-937b-8fb9486438da" x1="275.966" y1="189.668" x2="356.75" y2="143.035"/>
  <line class="uuid-88ff67e4-4f55-4fe0-937b-8fb9486438da" x1="145.425" y1="274.533" x2="145.425" y2="255.868"/>
  <line class="uuid-88ff67e4-4f55-4fe0-937b-8fb9486438da" x1="199.556" y1="290.655" x2="199.556" y2="271.99"/>
  <line class="uuid-88ff67e4-4f55-4fe0-937b-8fb9486438da" x1="199.556" y1="271.99" x2="199.604" y2="271.99"/>
  <line class="uuid-88ff67e4-4f55-4fe0-937b-8fb9486438da" x1="207.666" y1="242.481" x2="207.666" y2="255.966"/>
  <line class="uuid-88ff67e4-4f55-4fe0-937b-8fb9486438da" x1="185.266" y1="271.063" x2="185.266" y2="271.111"/>
  <line class="uuid-88ff67e4-4f55-4fe0-937b-8fb9486438da" x1="152.629" y1="255.894" x2="152.629" y2="242.555"/>
  <line class="uuid-88ff67e4-4f55-4fe0-937b-8fb9486438da" x1="185.266" y1="250.154" x2="185.266" y2="271.111"/>
  <line class="uuid-88ff67e4-4f55-4fe0-937b-8fb9486438da" x1="214.775" y1="199.393" x2="214.775" y2="230.929"/>
  <line class="uuid-88ff67e4-4f55-4fe0-937b-8fb9486438da" x1="145.425" y1="230.829" x2="145.425" y2="199.293"/>
  <path class="uuid-6bc77b2e-ab35-4074-8dfd-157e5c8a7462" d="M214.775,230.929c-.365,7.914-8.379,13.311-15.219,16.022"/>
  <line class="uuid-88ff67e4-4f55-4fe0-937b-8fb9486438da" x1="199.556" y1="246.952" x2="199.556" y2="215.413"/>
  <line class="uuid-88ff67e4-4f55-4fe0-937b-8fb9486438da" x1="152.629" y1="185.05" x2="152.629" y2="199.341"/>
  <path class="uuid-6bc77b2e-ab35-4074-8dfd-157e5c8a7462" d="M178.573,214.779c2.269.122,4.495,0,6.693-.221"/>
  <line class="uuid-88ff67e4-4f55-4fe0-937b-8fb9486438da" x1="185.266" y1="214.559" x2="185.266" y2="214.489"/>
  <line class="uuid-88ff67e4-4f55-4fe0-937b-8fb9486438da" x1="207.666" y1="199.393" x2="207.666" y2="185.002"/>
  <line class="uuid-88ff67e4-4f55-4fe0-937b-8fb9486438da" x1="199.604" y1="185.172" x2="199.604" y2="185.124"/>
  <line class="uuid-88ff67e4-4f55-4fe0-937b-8fb9486438da" x1="185.266" y1="214.559" x2="185.266" y2="192.6"/>
  <line class="uuid-88ff67e4-4f55-4fe0-937b-8fb9486438da" x1="145.425" y1="173.328" x2="145.425" y2="154.662"/>
  <line class="uuid-88ff67e4-4f55-4fe0-937b-8fb9486438da" x1="199.556" y1="189.426" x2="199.556" y2="170.76"/>
  <line class="uuid-88ff67e4-4f55-4fe0-937b-8fb9486438da" x1="91.243" y1="288.894" x2="91.243" y2="272.016"/>
  <path class="uuid-6bc77b2e-ab35-4074-8dfd-157e5c8a7462" d="M254.961,170.712c-.174-1.127-.321-2.149-.321-3.201,0-3.956,1.416-6.672,3.664-7.963M276.017,189.646c-.051.044-.173.121-.221.169-2.274,1.269-5.349,1.097-8.772-.879-.875-.511-1.733-1.101-2.564-1.785"/>
  <path class="uuid-6bc77b2e-ab35-4074-8dfd-157e5c8a7462" d="M214.775,255.966c.173-4.544-2.27-9.015-7.109-12.605-.169-.195-.343-.295-.563-.417"/>
  <line class="uuid-bb639cf1-a1b3-4395-a9cd-5a42436ea85c" x1="166.625" y1="215.1" x2="165.871" y2="214.681"/>
  <line class="uuid-bb639cf1-a1b3-4395-a9cd-5a42436ea85c" x1="154.951" y1="208.382" x2="149.845" y2="205.401"/>
  <line class="uuid-bb639cf1-a1b3-4395-a9cd-5a42436ea85c" x1="150.65" y1="192.843" x2="149.892" y2="192.402"/>
  <line class="uuid-bb639cf1-a1b3-4395-a9cd-5a42436ea85c" x1="155.294" y1="184.903" x2="155.294" y2="170.027"/>
  <line class="uuid-bb639cf1-a1b3-4395-a9cd-5a42436ea85c" x1="166.625" y1="189.69" x2="166.625" y2="174.204"/>
  <line class="uuid-bb639cf1-a1b3-4395-a9cd-5a42436ea85c" x1="177.888" y1="191.257" x2="177.888" y2="175.694"/>
  <line class="uuid-bb639cf1-a1b3-4395-a9cd-5a42436ea85c" x1="189.221" y1="190.595" x2="189.221" y2="175.083"/>
  <line class="uuid-bb639cf1-a1b3-4395-a9cd-5a42436ea85c" x1="182.358" y1="172.812" x2="146.596" y2="152.146"/>
  <line class="uuid-bb639cf1-a1b3-4395-a9cd-5a42436ea85c" x1="199.898" y1="169.88" x2="152.629" y2="142.594"/>
  <line class="uuid-bb639cf1-a1b3-4395-a9cd-5a42436ea85c" x1="210.698" y1="163.092" x2="165.452" y2="136.95"/>
  <line class="uuid-bb639cf1-a1b3-4395-a9cd-5a42436ea85c" x1="213.089" y1="151.44" x2="186.708" y2="136.218"/>
  <line class="uuid-bb639cf1-a1b3-4395-a9cd-5a42436ea85c" x1="201.047" y1="212.926" x2="199.946" y2="212.314"/>
  <line class="uuid-bb639cf1-a1b3-4395-a9cd-5a42436ea85c" x1="210.988" y1="205.666" x2="208.424" y2="204.154"/>
  <line class="uuid-bb639cf1-a1b3-4395-a9cd-5a42436ea85c" x1="210.403" y1="192.258" x2="209.767" y2="191.89"/>
  <line class="uuid-bb639cf1-a1b3-4395-a9cd-5a42436ea85c" x1="275.333" y1="173.03" x2="273.817" y2="175.646"/>
  <line class="uuid-bb639cf1-a1b3-4395-a9cd-5a42436ea85c" x1="267.904" y1="163.308" x2="266.44" y2="165.825"/>
  <line class="uuid-bb639cf1-a1b3-4395-a9cd-5a42436ea85c" x1="320.791" y1="162.382" x2="271.278" y2="162.382"/>
  <line class="uuid-bb639cf1-a1b3-4395-a9cd-5a42436ea85c" x1="359.241" y1="139.787" x2="294.484" y2="139.787"/>
  <line class="uuid-bb639cf1-a1b3-4395-a9cd-5a42436ea85c" x1="349.667" y1="117.24" x2="335.255" y2="117.24"/>
  <line class="uuid-bb639cf1-a1b3-4395-a9cd-5a42436ea85c" x1="233.414" y1="202.958" x2="216.337" y2="202.958"/>
  <line class="uuid-bb639cf1-a1b3-4395-a9cd-5a42436ea85c" x1="253.445" y1="191.67" x2="221.736" y2="191.67"/>
  <line class="uuid-bb639cf1-a1b3-4395-a9cd-5a42436ea85c" x1="271.205" y1="180.385" x2="241.35" y2="180.385"/>
  <line class="uuid-bb639cf1-a1b3-4395-a9cd-5a42436ea85c" x1="263.729" y1="169.1" x2="261.848" y2="169.1"/>
  <polygon class="uuid-8d32ed1c-0d87-4a45-93f1-ba01723e5e1f" points="187.123 272.917 186.608 272.969 186.778 272.969 187.123 272.917"/>
  <polygon class="uuid-8d32ed1c-0d87-4a45-93f1-ba01723e5e1f" points="188.515 272.7 187.929 272.77 188.341 272.7 188.515 272.7"/>
  <line class="uuid-bb639cf1-a1b3-4395-a9cd-5a42436ea85c" x1="203.269" y1="268.572" x2="201.83" y2="267.74"/>
  <line class="uuid-bb639cf1-a1b3-4395-a9cd-5a42436ea85c" x1="212.04" y1="260.607" x2="209.134" y2="258.92"/>
  <path class="uuid-8d32ed1c-0d87-4a45-93f1-ba01723e5e1f" d="M183.58,273.285c-.243,0-.415,0-.636.026l1.053-.074-.417.048Z"/>
  <line class="uuid-bb639cf1-a1b3-4395-a9cd-5a42436ea85c" x1="161.571" y1="265.396" x2="161.571" y2="248.832"/>
  <line class="uuid-bb639cf1-a1b3-4395-a9cd-5a42436ea85c" x1="172.832" y1="269.278" x2="172.832" y2="251.444"/>
  <polygon class="uuid-8d32ed1c-0d87-4a45-93f1-ba01723e5e1f" points="175.225 216.612 174.934 216.564 175.397 216.612 175.225 216.612"/>
  <line class="uuid-bb639cf1-a1b3-4395-a9cd-5a42436ea85c" x1="161.154" y1="208.624" x2="161.154" y2="191.11"/>
  <line class="uuid-bb639cf1-a1b3-4395-a9cd-5a42436ea85c" x1="172.417" y1="212.727" x2="172.417" y2="193.77"/>
  <line class="uuid-bb639cf1-a1b3-4395-a9cd-5a42436ea85c" x1="151.702" y1="239.918" x2="151.702" y2="211.921"/>
  <line class="uuid-bb639cf1-a1b3-4395-a9cd-5a42436ea85c" x1="162.965" y1="246.584" x2="162.965" y2="217.444"/>
  <line class="uuid-bb639cf1-a1b3-4395-a9cd-5a42436ea85c" x1="174.224" y1="248.979" x2="174.224" y2="219.64"/>
  <line class="uuid-bb639cf1-a1b3-4395-a9cd-5a42436ea85c" x1="185.559" y1="248.979" x2="185.559" y2="219.714"/>
  <line class="uuid-bb639cf1-a1b3-4395-a9cd-5a42436ea85c" x1="196.822" y1="246.705" x2="196.822" y2="217.565"/>
  <line class="uuid-bb639cf1-a1b3-4395-a9cd-5a42436ea85c" x1="165.578" y1="271.453" x2="164.186" y2="270.622"/>
  <line class="uuid-bb639cf1-a1b3-4395-a9cd-5a42436ea85c" x1="156" y1="265.908" x2="150.356" y2="262.634"/>
  <line class="uuid-bb639cf1-a1b3-4395-a9cd-5a42436ea85c" x1="150.65" y1="249.785" x2="149.649" y2="249.222"/>
  <line class="uuid-bb639cf1-a1b3-4395-a9cd-5a42436ea85c" x1="155.242" y1="286.06" x2="155.242" y2="271.184"/>
  <line class="uuid-bb639cf1-a1b3-4395-a9cd-5a42436ea85c" x1="166.505" y1="290.92" x2="166.505" y2="275.412"/>
  <line class="uuid-bb639cf1-a1b3-4395-a9cd-5a42436ea85c" x1="177.767" y1="292.51" x2="177.767" y2="276.902"/>
  <line class="uuid-bb639cf1-a1b3-4395-a9cd-5a42436ea85c" x1="189.099" y1="291.826" x2="189.099" y2="276.366"/>
  <line class="uuid-bb639cf1-a1b3-4395-a9cd-5a42436ea85c" x1="263.729" y1="303.232" x2="208.961" y2="334.844"/>
  <line class="uuid-bb639cf1-a1b3-4395-a9cd-5a42436ea85c" x1="266.978" y1="288.334" x2="266.098" y2="288.846"/>
  <line class="uuid-bb639cf1-a1b3-4395-a9cd-5a42436ea85c" x1="210.866" y1="320.723" x2="181.847" y2="337.483"/>
  <line class="uuid-bb639cf1-a1b3-4395-a9cd-5a42436ea85c" x1="182.823" y1="323.876" x2="161.228" y2="336.334"/>
  <line class="uuid-bb639cf1-a1b3-4395-a9cd-5a42436ea85c" x1="162.034" y1="322.825" x2="144.204" y2="333.16"/>
  <line class="uuid-bb639cf1-a1b3-4395-a9cd-5a42436ea85c" x1="144.91" y1="319.697" x2="129.814" y2="328.421"/>
  <line class="uuid-bb639cf1-a1b3-4395-a9cd-5a42436ea85c" x1="130.155" y1="315.204" x2="117.671" y2="322.386"/>
  <line class="uuid-bb639cf1-a1b3-4395-a9cd-5a42436ea85c" x1="117.551" y1="309.413" x2="107.561" y2="315.156"/>
  <line class="uuid-bb639cf1-a1b3-4395-a9cd-5a42436ea85c" x1="106.972" y1="302.477" x2="99.72" y2="306.653"/>
  <line class="uuid-bb639cf1-a1b3-4395-a9cd-5a42436ea85c" x1="98.447" y1="294.39" x2="94.614" y2="296.591"/>
</svg>