<?xml version="1.0" encoding="UTF-8"?>
<svg id="uuid-89b4c811-5112-4f71-bec2-1a3eca721a42" data-name="&amp;lt;Layer&amp;gt;" xmlns="http://www.w3.org/2000/svg" viewBox="0 0 451.11 451.11">
  <defs>
    <style>
      .uuid-55f8b07c-6826-4706-9781-e71ed5f5b147, .uuid-b2adb5af-afe3-4230-b3f8-9465585ef008, .uuid-89ad4cdc-4e92-40e2-b924-fdb4aa862be2, .uuid-f0e1bab5-3849-4a7d-b1de-aa0b872f70ca {
        fill: none;
        stroke: #000;
        stroke-linecap: round;
      }

      .uuid-55f8b07c-6826-4706-9781-e71ed5f5b147, .uuid-89ad4cdc-4e92-40e2-b924-fdb4aa862be2 {
        stroke-width: 4.113px;
      }

      .uuid-55f8b07c-6826-4706-9781-e71ed5f5b147, .uuid-89ad4cdc-4e92-40e2-b924-fdb4aa862be2, .uuid-f0e1bab5-3849-4a7d-b1de-aa0b872f70ca {
        stroke-linejoin: round;
      }

      .uuid-b2adb5af-afe3-4230-b3f8-9465585ef008 {
        stroke-miterlimit: 10;
        stroke-width: 1.167px;
      }

      .uuid-89ad4cdc-4e92-40e2-b924-fdb4aa862be2, .uuid-f0e1bab5-3849-4a7d-b1de-aa0b872f70ca {
        fill-rule: evenodd;
      }

      .uuid-f0e1bab5-3849-4a7d-b1de-aa0b872f70ca {
        stroke-width: 4.109px;
      }
    </style>
  </defs>
  <path class="uuid-89ad4cdc-4e92-40e2-b924-fdb4aa862be2" d="M224.911,342.57c65.121,0,117.434-52.306,117.434-116.893s-52.313-116.902-117.434-116.902c-64.055,0-116.364,52.313-116.364,116.902s52.309,116.893,116.364,116.893Z"/>
  <path class="uuid-89ad4cdc-4e92-40e2-b924-fdb4aa862be2" d="M119.5,176.112c-10.733-2.196-19.026-11.708-19.026-23.077,0-13.046,10.733-23.585,23.659-23.585,1.953,0,3.66.174,5.122.563,1.221.243,2.196.537,3.171.949.732.221,1.464.563,2.196.979.243.048.485.17.732.291,3.9,2.075,7.073,5.222,9.269,8.978"/>
  <path class="uuid-89ad4cdc-4e92-40e2-b924-fdb4aa862be2" d="M133.643,297.895c-2.192-.295-3.899-.584-5.85-1.001"/>
  <path class="uuid-f0e1bab5-3849-4a7d-b1de-aa0b872f70ca" d="M342.186,221.526c1.707-2.144,3.172-4.242,4.394-6.335,1.707-2.789,3.171-5.497,3.903-8.106.479-1.221.729-2.385.972-3.528,5.574-24.351-26.308-30.616-43.447-31.458-22.683-1.097-48.667,3.289-70.349,8.874-32.294,8.333-66.041,22.002-94.222,39.903-12.344,7.833-24.008,16.758-31.992,25.965-.479.319-.479.662-.728.953-.243.099-.243.221-.483.339-1.464,1.857-2.928,3.66-3.903,5.445-3.419,4.875-5.615,9.46-6.347,13.75-1.464,6.369-.239,12.005,3.422,16.76,3.407,4.511,8.772,8.102,16.094,10.611.482.169,7.804,2.023,8.293,2.196"/>
  <path class="uuid-89ad4cdc-4e92-40e2-b924-fdb4aa862be2" d="M284.623,105.792c-2.682-.413-5.607-.585-8.536-.585-3.415,0-7.072.295-10.729.806-1.953.293-4.151.632-6.101,1.121-4.147.854-8.293,2.024-12.436,3.536"/>
  <path class="uuid-89ad4cdc-4e92-40e2-b924-fdb4aa862be2" d="M323.403,133.914c4.147,9.099,6.586,20.174,6.586,33.051,0,2.024,0,4.047-.243,6.149"/>
  <path class="uuid-89ad4cdc-4e92-40e2-b924-fdb4aa862be2" d="M185.353,345.212c-3.656.511-7.318.732-10.732.732-9.997,0-18.78-2.15-26.584-6.321-7.561-4.169-13.904-10.316-18.539-18.39-4.143-7.17-7.073-15.876-8.29-25.95-.247-2.22-.489-4.49-.489-6.855v-10.561c.243-3.171.732-6.365.975-9.562"/>
  <path class="uuid-89ad4cdc-4e92-40e2-b924-fdb4aa862be2" d="M282.43,123.648c-.489-1.927-.732-3.999-.732-6.097,0-1.976.243-3.881.732-5.732.485-2.149,1.217-4.173,2.192-6.027,4.147-7.366,11.955-12.367,21.222-12.367,13.169,0,23.901,10.781,23.901,24.126,0,6.314-2.439,12.073-6.343,16.363-1.46,1.611-3.167,3.002-5.122,4.099-3.414,2.17-7.557,3.44-11.704,3.56"/>
  <path class="uuid-f0e1bab5-3849-4a7d-b1de-aa0b872f70ca" d="M129.5,129.917c4.633-8.076,10.972-14.272,18.534-18.445,7.811-4.121,16.586-6.266,26.583-6.266,42.615,0,86.439,37.166,110.248,67.491,1.462,1.976,3.179,3.881,4.633,5.857,3.662,4.875,7.079,9.921,10.248,15.023,13.9,21.753,23.657,45.22,28.051,67.531.239,2.4.732,4.835.971,7.201.493,3.241.986,6.508.986,9.729.239,2.046.239,4.154.239,6.169,0,14.832-3.167,27.298-8.786,37.025-4.632,8.074-10.972,14.221-18.783,18.39-7.55,4.172-16.575,6.321-26.333,6.321-9.03,0-19.026-1.789-29.278-5.439.255-.048.493-.129.732-.169"/>
  <path class="uuid-89ad4cdc-4e92-40e2-b924-fdb4aa862be2" d="M180.475,292.089c-16.826-3.37-32.684-8.654-46.102-15.876-11.421-6.068-25.293-16.557-31.698-27.607-4.636-7.421-6.833-15.254-6.833-23.029,0-7.83,2.196-15.593,6.833-23.073,2.918-4.753,6.829-9.35,11.7-13.76"/>
  <path class="uuid-89ad4cdc-4e92-40e2-b924-fdb4aa862be2" d="M276.33,290.794c33.957-7.87,96.727-37.246,74.153-83.709"/>
  <path class="uuid-89ad4cdc-4e92-40e2-b924-fdb4aa862be2" d="M249.503,318.626c14.876,0,26.831-11.951,26.831-26.709s-11.955-26.709-26.831-26.709c-14.636,0-26.587,11.955-26.587,26.709s11.951,26.709,26.587,26.709Z"/>
  <line class="uuid-55f8b07c-6826-4706-9781-e71ed5f5b147" x1="129.011" y1="238.745" x2="129.011" y2="238.793"/>
  <path class="uuid-89ad4cdc-4e92-40e2-b924-fdb4aa862be2" d="M203.121,340.518c-4.753,1.475-14.081,3.921-17.771,4.695"/>
  <path class="uuid-89ad4cdc-4e92-40e2-b924-fdb4aa862be2" d="M129.008,238.745c1.225-3.708,2.689-7.369,4.154-11.071v-.07c4.871-11.542,10.729-23.007,17.801-34.027,20.829-33.044,57.233-69.709,95.851-82.907"/>
  <path class="uuid-89ad4cdc-4e92-40e2-b924-fdb4aa862be2" d="M121.696,268.31c1.464-7.34,4.633-22.032,7.312-29.513"/>
  <path class="uuid-89ad4cdc-4e92-40e2-b924-fdb4aa862be2" d="M223.158,296.431c-12.196-.122-30.73-2.285-42.683-4.342"/>
  <path class="uuid-89ad4cdc-4e92-40e2-b924-fdb4aa862be2" d="M265.358,106.013c-1.221-4.637-2.439-8.585-4.151-11.808-2.435-5.339-5.607-8.999-9.268-10.854-3.9-2.046-8.046-1.924-12.436.343-5.369,2.782-10.976,8.878-16.834,18.609-1.218,2.05-2.435,4.246-3.657,6.564-1.219,2.072-2.194,4.338-3.172,6.656-.975,1.855-1.707,3.782-2.682,5.758-1.217,2.952-2.44,6.072-3.658,9.317-1.464,3.488-2.682,7.145-3.903,10.902-4.879,14.195-9.269,30.223-12.926,47.025-.489,2.609-1.223,5.27-1.708,7.952-.489,2.487-.975,4.974-1.464,7.488-5.122,27.072-8.293,55.536-9.025,81.732v10.097c0,15.196.732,28.173,2.685,38.784.243,1.512.485,3.024.728,4.411.489,2.198.979,4.294,1.464,6.223,1.219,4.559,2.44,8.437,4.147,11.708,2.439,5.317,5.611,8.973,9.269,10.828,3.903,2.024,8.05,1.976,12.439-.343,5.365-2.73,10.976-8.878,16.83-18.561,1.218-2.072,2.44-4.291,3.658-6.561h-.243"/>
  <line class="uuid-b2adb5af-afe3-4230-b3f8-9465585ef008" x1="126.086" y1="162.013" x2="102.424" y2="148.355"/>
  <line class="uuid-b2adb5af-afe3-4230-b3f8-9465585ef008" x1="139.986" y1="144.061" x2="118.521" y2="131.672"/>
  <line class="uuid-b2adb5af-afe3-4230-b3f8-9465585ef008" x1="320.236" y1="135.915" x2="282.673" y2="114.254"/>
  <line class="uuid-b2adb5af-afe3-4230-b3f8-9465585ef008" x1="328.529" y1="114.769" x2="296.82" y2="96.381"/>
  <line class="uuid-b2adb5af-afe3-4230-b3f8-9465585ef008" x1="262.672" y1="314.31" x2="223.648" y2="291.795"/>
  <line class="uuid-b2adb5af-afe3-4230-b3f8-9465585ef008" x1="275.355" y1="295.647" x2="233.402" y2="271.43"/>
  <line class="uuid-b2adb5af-afe3-4230-b3f8-9465585ef008" x1="125.108" y1="286.283" x2="122.669" y2="282.184"/>
</svg>