<?xml version="1.0" encoding="UTF-8"?>
<svg id="uuid-525a5bfd-eb49-46a1-b34d-598e8af3dbf4" data-name="&amp;lt;Layer&amp;gt;" xmlns="http://www.w3.org/2000/svg" viewBox="0 0 451.11 451.11">
  <defs>
    <style>
      .uuid-a3dd46fa-6bad-4939-8252-42a192fbc60b, .uuid-fb3e6713-69f7-4eac-9967-7519c27b16f7, .uuid-32d8847b-f106-4975-97ee-d1e515b82760 {
        fill: none;
        stroke: #000;
        stroke-linecap: round;
      }

      .uuid-a3dd46fa-6bad-4939-8252-42a192fbc60b, .uuid-32d8847b-f106-4975-97ee-d1e515b82760 {
        stroke-linejoin: round;
        stroke-width: 4.117px;
      }

      .uuid-fb3e6713-69f7-4eac-9967-7519c27b16f7 {
        stroke-miterlimit: 10;
        stroke-width: 1.163px;
      }

      .uuid-32d8847b-f106-4975-97ee-d1e515b82760 {
        fill-rule: evenodd;
      }
    </style>
  </defs>
  <path class="uuid-32d8847b-f106-4975-97ee-d1e515b82760" d="M155.617,176.736l-10.916-6.277c-1.807,3.955-2.579,6.303-2.785,10.674l-.078,167.308c.347,3.853.597,5.564,3.666,8.062l10.872,6.277c-3.094-2.595-3.311-4.113-3.664-8.062l.048-167.308c.199-4.099,1.051-7.001,2.858-10.673Z"/>
  <polyline class="uuid-32d8847b-f106-4975-97ee-d1e515b82760" points="230.93 115.396 231.004 115.396 232.494 114.469 236.402 112.195 240.283 109.999 244.242 107.725 248.128 105.48 252.013 103.206 255.38 101.275"/>
  <polyline class="uuid-32d8847b-f106-4975-97ee-d1e515b82760" points="268.964 93.46 269.038 93.46 271.529 91.992 275.414 89.721 279.37 87.473 290.216 93.728"/>
  <path class="uuid-32d8847b-f106-4975-97ee-d1e515b82760" d="M290.216,93.728c-3.466,2.05-7.009,4.081-10.505,6.056-4.518,2.663-9.109,5.276-13.632,7.892-8.132,4.714-16.266,9.405-24.449,14.044-15.513,9.015-31.077,17.955-46.633,26.944-9.871,5.693-19.813,11.458-29.681,17.129-1.685,1.001-3.373,2.343-4.812,3.955"/>
  <polyline class="uuid-32d8847b-f106-4975-97ee-d1e515b82760" points="160.504 169.748 160.43 169.748 159.33 170.97 158.355 172.313"/>
  <path class="uuid-32d8847b-f106-4975-97ee-d1e515b82760" d="M158.355,172.313c-.415.514-.758,1.051-1.099,1.611-.295.415-.537.832-.758,1.222-.295.463-.585,1.005-.88,1.59"/>
  <path class="uuid-32d8847b-f106-4975-97ee-d1e515b82760" d="M309.272,104.771c0,53.204,0,106.459-.052,159.637,0,7.966-5.64,17.713-12.48,21.668"/>
  <path class="uuid-32d8847b-f106-4975-97ee-d1e515b82760" d="M152.759,187.409c0-7.888,5.644-17.661,12.509-21.616,41.626-24.038,83.276-48.079,124.9-72.065"/>
  <polygon class="uuid-32d8847b-f106-4975-97ee-d1e515b82760" points="241.677 121.5 226.07 112.489 179.312 139.46 194.925 148.448 241.677 121.5"/>
  <polygon class="uuid-32d8847b-f106-4975-97ee-d1e515b82760" points="279.663 99.616 264.03 90.602 250.449 98.441 266.08 107.434 279.663 99.616"/>
  <polyline class="uuid-32d8847b-f106-4975-97ee-d1e515b82760" points="241.631 171.091 241.677 121.5 194.925 148.448 194.925 204.949"/>
  <polyline class="uuid-32d8847b-f106-4975-97ee-d1e515b82760" points="279.663 156.047 279.663 99.616 266.08 107.434 266.01 157.047"/>
  <path class="uuid-32d8847b-f106-4975-97ee-d1e515b82760" d="M266.01,157.047c0,4.054-2.859,8.989-6.376,11.016-3.834,2.27-7.721,4.47-11.628,6.743-3.47,2.025-6.376.339-6.376-3.716"/>
  <polyline class="uuid-32d8847b-f106-4975-97ee-d1e515b82760" points="266.08 107.434 250.449 98.441 250.449 102.28"/>
  <line class="uuid-a3dd46fa-6bad-4939-8252-42a192fbc60b" x1="290.168" y1="93.728" x2="309.272" y2="104.771"/>
  <line class="uuid-a3dd46fa-6bad-4939-8252-42a192fbc60b" x1="296.74" y1="286.075" x2="165.195" y2="361.925"/>
  <path class="uuid-32d8847b-f106-4975-97ee-d1e515b82760" d="M165.195,361.925c-3.477,2.035-6.642,2.19-8.916.81"/>
  <path class="uuid-32d8847b-f106-4975-97ee-d1e515b82760" d="M290.679,258.325c0,6.034-4.276,13.459-9.5,16.487"/>
  <line class="uuid-a3dd46fa-6bad-4939-8252-42a192fbc60b" x1="281.179" y1="274.812" x2="180.828" y2="332.707"/>
  <path class="uuid-32d8847b-f106-4975-97ee-d1e515b82760" d="M180.828,332.707c-5.302,3.006-9.577.511-9.577-5.519"/>
  <line class="uuid-a3dd46fa-6bad-4939-8252-42a192fbc60b" x1="171.252" y1="327.188" x2="171.298" y2="261.622"/>
  <path class="uuid-32d8847b-f106-4975-97ee-d1e515b82760" d="M171.298,261.622c0-6.108,4.302-13.459,9.53-16.535"/>
  <line class="uuid-a3dd46fa-6bad-4939-8252-42a192fbc60b" x1="180.828" y1="245.087" x2="281.179" y2="187.24"/>
  <path class="uuid-32d8847b-f106-4975-97ee-d1e515b82760" d="M281.179,187.24c5.276-3.08,9.574-.589,9.5,5.519"/>
  <line class="uuid-a3dd46fa-6bad-4939-8252-42a192fbc60b" x1="290.679" y1="192.759" x2="290.679" y2="258.325"/>
  <line class="uuid-a3dd46fa-6bad-4939-8252-42a192fbc60b" x1="179.312" y1="139.46" x2="179.312" y2="143.268"/>
  <path class="uuid-32d8847b-f106-4975-97ee-d1e515b82760" d="M194.925,204.949c0,6.034,4.296,8.525,9.526,5.523"/>
  <line class="uuid-a3dd46fa-6bad-4939-8252-42a192fbc60b" x1="204.451" y1="210.472" x2="270.087" y2="172.607"/>
  <path class="uuid-32d8847b-f106-4975-97ee-d1e515b82760" d="M270.087,172.607c5.276-3.028,9.577-10.457,9.577-16.56"/>
  <line class="uuid-a3dd46fa-6bad-4939-8252-42a192fbc60b" x1="190.818" y1="307.205" x2="271.186" y2="260.864"/>
  <line class="uuid-a3dd46fa-6bad-4939-8252-42a192fbc60b" x1="190.818" y1="283.121" x2="271.186" y2="236.778"/>
  <line class="uuid-a3dd46fa-6bad-4939-8252-42a192fbc60b" x1="190.818" y1="259.009" x2="271.186" y2="212.668"/>
  <path class="uuid-32d8847b-f106-4975-97ee-d1e515b82760" d="M144.771,170.334c2.391-4.486,5.309-8.054,9.625-10.795l3.959-2.27c7.797-4.515,15.609-9.007,23.4-13.533l2.543-1.442"/>
  <line class="uuid-fb3e6713-69f7-4eac-9967-7519c27b16f7" x1="166.585" y1="162.908" x2="163.042" y2="156.801"/>
  <line class="uuid-fb3e6713-69f7-4eac-9967-7519c27b16f7" x1="186.153" y1="151.649" x2="182.561" y2="145.368"/>
  <line class="uuid-fb3e6713-69f7-4eac-9967-7519c27b16f7" x1="256.263" y1="111.168" x2="252.647" y2="104.939"/>
  <line class="uuid-fb3e6713-69f7-4eac-9967-7519c27b16f7" x1="264.494" y1="144.952" x2="248.419" y2="172.777"/>
  <line class="uuid-fb3e6713-69f7-4eac-9967-7519c27b16f7" x1="255.258" y1="115.812" x2="243.315" y2="136.475"/>
  <line class="uuid-fb3e6713-69f7-4eac-9967-7519c27b16f7" x1="306.829" y1="268.487" x2="299.062" y2="281.899"/>
  <line class="uuid-fb3e6713-69f7-4eac-9967-7519c27b16f7" x1="307.708" y1="221.851" x2="292.243" y2="248.553"/>
  <line class="uuid-fb3e6713-69f7-4eac-9967-7519c27b16f7" x1="273.508" y1="281.019" x2="259.169" y2="305.863"/>
  <line class="uuid-fb3e6713-69f7-4eac-9967-7519c27b16f7" x1="307.708" y1="176.614" x2="292.243" y2="203.385"/>
  <line class="uuid-fb3e6713-69f7-4eac-9967-7519c27b16f7" x1="234.423" y1="303.615" x2="220.084" y2="328.457"/>
  <line class="uuid-fb3e6713-69f7-4eac-9967-7519c27b16f7" x1="211.191" y1="208.37" x2="196.094" y2="234.458"/>
  <line class="uuid-fb3e6713-69f7-4eac-9967-7519c27b16f7" x1="169.714" y1="280.141" x2="154.274" y2="306.912"/>
  <line class="uuid-fb3e6713-69f7-4eac-9967-7519c27b16f7" x1="308.341" y1="130.371" x2="273.677" y2="190.437"/>
  <line class="uuid-fb3e6713-69f7-4eac-9967-7519c27b16f7" x1="195.336" y1="326.137" x2="180.997" y2="351.005"/>
  <line class="uuid-fb3e6713-69f7-4eac-9967-7519c27b16f7" x1="299.694" y1="100.176" x2="281.107" y2="132.42"/>
  <line class="uuid-fb3e6713-69f7-4eac-9967-7519c27b16f7" x1="250.277" y1="185.776" x2="235.18" y2="211.91"/>
  <line class="uuid-fb3e6713-69f7-4eac-9967-7519c27b16f7" x1="169.714" y1="325.331" x2="154.274" y2="352.106"/>
  <line class="uuid-fb3e6713-69f7-4eac-9967-7519c27b16f7" x1="194.239" y1="192.589" x2="153.469" y2="263.138"/>
  <line class="uuid-fb3e6713-69f7-4eac-9967-7519c27b16f7" x1="192.013" y1="151.282" x2="153.59" y2="217.774"/>
  <line class="uuid-fb3e6713-69f7-4eac-9967-7519c27b16f7" x1="150.93" y1="341.184" x2="143.648" y2="328.7"/>
  <line class="uuid-fb3e6713-69f7-4eac-9967-7519c27b16f7" x1="150.93" y1="318.638" x2="143.648" y2="306.106"/>
  <line class="uuid-fb3e6713-69f7-4eac-9967-7519c27b16f7" x1="150.93" y1="296.116" x2="143.648" y2="283.584"/>
  <line class="uuid-fb3e6713-69f7-4eac-9967-7519c27b16f7" x1="150.93" y1="273.543" x2="143.723" y2="260.986"/>
  <line class="uuid-fb3e6713-69f7-4eac-9967-7519c27b16f7" x1="150.93" y1="250.949" x2="143.723" y2="238.391"/>
  <line class="uuid-fb3e6713-69f7-4eac-9967-7519c27b16f7" x1="150.974" y1="228.401" x2="143.723" y2="215.869"/>
  <line class="uuid-fb3e6713-69f7-4eac-9967-7519c27b16f7" x1="150.974" y1="205.88" x2="143.723" y2="193.321"/>
  <line class="uuid-fb3e6713-69f7-4eac-9967-7519c27b16f7" x1="151.32" y1="183.865" x2="145.333" y2="173.534"/>
</svg>