<?xml version="1.0" encoding="UTF-8"?>
<svg id="uuid-d7af0609-e68d-4c33-b196-d10dfdec2d71" data-name="&amp;lt;Layer&amp;gt;" xmlns="http://www.w3.org/2000/svg" viewBox="0 0 451.11 451.11">
  <defs>
    <style>
      .uuid-94dba0b5-2055-4b21-9e86-d5103bbf2cf0, .uuid-aa679a49-0472-48c2-b99e-adbf171bb554, .uuid-44092b25-4b4a-498c-93b4-ad09e5c68c98 {
        fill: none;
        stroke: #000;
        stroke-linecap: round;
      }

      .uuid-94dba0b5-2055-4b21-9e86-d5103bbf2cf0, .uuid-44092b25-4b4a-498c-93b4-ad09e5c68c98 {
        stroke-linejoin: round;
        stroke-width: 4.113px;
      }

      .uuid-aa679a49-0472-48c2-b99e-adbf171bb554 {
        stroke-miterlimit: 10;
        stroke-width: 1.163px;
      }

      .uuid-44092b25-4b4a-498c-93b4-ad09e5c68c98 {
        fill-rule: evenodd;
      }
    </style>
  </defs>
  <polyline class="uuid-44092b25-4b4a-498c-93b4-ad09e5c68c98" points="274.912 104.661 274.912 104.613 309.649 84.583 301.098 79.696"/>
  <polyline class="uuid-44092b25-4b4a-498c-93b4-ad09e5c68c98" points="309.649 84.583 274.912 104.613 274.912 104.661"/>
  <path class="uuid-44092b25-4b4a-498c-93b4-ad09e5c68c98" d="M294.6,117.509c.854-3.955,1.733-7.841,2.076-11.453.074-.758.122-1.49.122-2.2"/>
  <path class="uuid-44092b25-4b4a-498c-93b4-ad09e5c68c98" d="M302.905,306.463c0,4.592.221,26.893-.195,29.631-2.027,16.075-20.251,26.237-34.127,30.656-25.258,7.966-60.753,6.207-82.811-9.015-7.914-5.445-14.975-13.654-15.39-23.743"/>
  <path class="uuid-44092b25-4b4a-498c-93b4-ad09e5c68c98" d="M170.381,306.243c.588,7.087,3.249,12.41,8.186,17.588,15.34,16.197,44.604,21.082,65.857,19.64,18.394-1.295,43.14-8.084,54.01-24.158,2.834-4.177,4.055-7.915,4.47-12.849"/>
  <path class="uuid-44092b25-4b4a-498c-93b4-ad09e5c68c98" d="M298.312,122.274c.637.806,1.101,1.615,1.516,2.491,1.221,2.031,2.075,4.179,2.613,6.45"/>
  <path class="uuid-44092b25-4b4a-498c-93b4-ad09e5c68c98" d="M302.441,131.263c.463,2.031.636,4.128.515,6.328-1.175,20.031-17.128,73.286-36.644,84.545-1.173.71-2.273,1.343-3.252,2.028-.17.147-.365.195-.533.319-31.54,20.837,18.467,29.557-6.962,44.289,0,.074-.051.074-.051.074-.074,0-.074.048-.122.048-1.147.754-1.857,1.805-1.809,3.127"/>
  <path class="uuid-44092b25-4b4a-498c-93b4-ad09e5c68c98" d="M253.583,272.849c0,1.685,1.099,3.079,2.737,3.469,9.183,2.274,17.245,6.229,22.594,11.626,13.364,13.29,5.449,30.315-17.609,37.986-14.975,4.986-33.199,4.986-48.2,0-22.985-7.671-30.874-24.696-17.588-37.986,5.398-5.397,13.411-9.352,22.595-11.626,1.615-.391,2.712-1.855,2.712-3.469"/>
  <path class="uuid-44092b25-4b4a-498c-93b4-ad09e5c68c98" d="M220.826,272.021c.073-1.321-.611-2.373-1.781-3.127-.052,0-.052-.048-.122-.048-.051-.074-.173-.126-.221-.174-18.761-10.993,4.47-18.713,4.007-30.608,0-.633-.125-1.295-.295-1.931-.367-1.266-1.001-2.613-1.979-4.051-.221-.347-.463-.71-.805-1.053-.196-.221-.417-.511-.637-.758-.121-.121-.243-.221-.365-.341"/>
  <path class="uuid-44092b25-4b4a-498c-93b4-ad09e5c68c98" d="M178.979,171.865c6.672,21.009,17.249,43.431,29.145,50.272,1.979,1.125,3.664,2.222,5.154,3.249"/>
  <path class="uuid-44092b25-4b4a-498c-93b4-ad09e5c68c98" d="M173.925,153.151c-.806-3.712-1.465-7.134-1.859-10.162-.07-.048-.07-.122-.07-.17"/>
  <polyline class="uuid-44092b25-4b4a-498c-93b4-ad09e5c68c98" points="145.88 189.33 146.734 193.043 152.256 213.733"/>
  <polyline class="uuid-44092b25-4b4a-498c-93b4-ad09e5c68c98" points="159.975 216.176 154.406 194.217 149.935 176.726"/>
  <path class="uuid-44092b25-4b4a-498c-93b4-ad09e5c68c98" d="M302.905,331.965c-.415,2.102-4.202,7.377-5.814,9.235-8.893,9.989-23.062,15.902-35.836,18.857"/>
  <path class="uuid-44092b25-4b4a-498c-93b4-ad09e5c68c98" d="M201.627,236.257c.169,0,.269-.048.463-.048,5.397-1.173,10.846-3.616,16.538-6.28"/>
  <path class="uuid-44092b25-4b4a-498c-93b4-ad09e5c68c98" d="M220.609,228.929c-1.223-.443-2.444-.928-3.666-1.49-1.099-.537-2.148-1.175-3.664-2.053-.052.074-.172.125-.221.125-5.276,3.076-9.452,4.592-19.151,6.351-4.496.684-8.768-.126-12.897-1.711"/>
  <polyline class="uuid-44092b25-4b4a-498c-93b4-ad09e5c68c98" points="182.964 157.696 149.986 176.726 141.461 171.865"/>
  <path class="uuid-44092b25-4b4a-498c-93b4-ad09e5c68c98" d="M141.461,171.865c12.311-7.086,20.738-11.973,32.464-18.713.927-.563,1.858-1.099,2.832-1.685.048.074.048.121.126.121"/>
  <polyline class="uuid-44092b25-4b4a-498c-93b4-ad09e5c68c98" points="160.049 216.226 154.406 194.264 149.986 176.726 182.964 157.696"/>
  <path class="uuid-44092b25-4b4a-498c-93b4-ad09e5c68c98" d="M182.964,157.696h.07c.295,4.348,1.101,7.304,2.322,10.505"/>
  <polyline class="uuid-44092b25-4b4a-498c-93b4-ad09e5c68c98" points="185.356 168.2 181.228 170.569 178.979 171.865 162.64 181.317"/>
  <path class="uuid-44092b25-4b4a-498c-93b4-ad09e5c68c98" d="M181.011,230.15c4.346,3.907,9.747,6.229,16.12,6.35,1.541,0,2.98-.073,4.496-.243.169,0,.269-.048.463-.048"/>
  <path class="uuid-44092b25-4b4a-498c-93b4-ad09e5c68c98" d="M264.161,101c-24.327-6.428-54.01-3.886-74.087,7.667-16.101,9.309-22.135,22.205-18.077,34.152,0,.048,0,.122.07.17.979,2.906,2.543,5.766,4.691,8.477.048.074.048.121.126.121"/>
  <path class="uuid-44092b25-4b4a-498c-93b4-ad09e5c68c98" d="M274.912,104.661c2.954,1.127,5.74,2.517,8.353,4.007.879.537,1.733,1.053,2.564,1.564,3.495,2.27,6.451,4.713,8.772,7.278,1.49,1.494,2.711,3.127,3.712,4.765.637.806,1.101,1.615,1.516,2.491,1.221,2.321,2.028,4.765,2.44,7.134.979,5.986-.487,12.095-4.372,17.712"/>
  <path class="uuid-44092b25-4b4a-498c-93b4-ad09e5c68c98" d="M297.897,149.66c-.221.317-.389.537-.632.828v.051c-3.202,4.372-7.893,8.427-14,11.97-25.722,14.801-67.469,14.801-93.191,0-2.617-1.516-4.934-3.128-7.039-4.813h-.07"/>
  <path class="uuid-44092b25-4b4a-498c-93b4-ad09e5c68c98" d="M274.665,114.654c-21.009-11.556-55.035-11.556-75.994,0-21.034,11.553-21.034,30.267-.073,41.82,21.031,11.553,55.057,11.553,76.067,0,21.032-11.554,20.987-30.267,0-41.82Z"/>
  <path class="uuid-44092b25-4b4a-498c-93b4-ad09e5c68c98" d="M216.137,227.022c.291.173.511.295.806.417,1.221.562,2.443,1.047,3.666,1.49,13.752,4.838,27.87,2.806,41.919-4.446.169-.125.363-.173.533-.319"/>
  <path class="uuid-44092b25-4b4a-498c-93b4-ad09e5c68c98" d="M301.098,79.696c-12.826,7.378-24.331,13.996-36.937,21.304"/>
  <path class="uuid-44092b25-4b4a-498c-93b4-ad09e5c68c98" d="M302.441,131.215c4.055-18.077,6.887-36.006,7.208-46.632"/>
  <line class="uuid-94dba0b5-2055-4b21-9e86-d5103bbf2cf0" x1="296.797" y1="103.856" x2="285.828" y2="110.232"/>
  <line class="uuid-94dba0b5-2055-4b21-9e86-d5103bbf2cf0" x1="170.381" y1="333.993" x2="170.381" y2="306.243"/>
  <path class="uuid-44092b25-4b4a-498c-93b4-ad09e5c68c98" d="M141.461,171.865c1.686,5.814,3.076,11.553,4.42,17.466"/>
  <path class="uuid-44092b25-4b4a-498c-93b4-ad09e5c68c98" d="M152.256,213.733c5.814,21.718,18.934,28.29,38.281,31.344"/>
  <path class="uuid-44092b25-4b4a-498c-93b4-ad09e5c68c98" d="M190.537,245.077c-14.243-2.495-26.506-12.948-30.561-28.901"/>
  <line class="uuid-94dba0b5-2055-4b21-9e86-d5103bbf2cf0" x1="261.254" y1="360.058" x2="261.254" y2="346.94"/>
  <path class="uuid-44092b25-4b4a-498c-93b4-ad09e5c68c98" d="M261.254,346.94c15.637-3.664,34.615-12.021,41.407-27.628"/>
  <line class="uuid-94dba0b5-2055-4b21-9e86-d5103bbf2cf0" x1="302.662" y1="319.312" x2="302.905" y2="331.965"/>
  <line class="uuid-94dba0b5-2055-4b21-9e86-d5103bbf2cf0" x1="181.011" y1="230.15" x2="180.959" y2="230.15"/>
  <path class="uuid-44092b25-4b4a-498c-93b4-ad09e5c68c98" d="M162.64,181.317c.831,3.201,1.39,6.961,2.443,10.968"/>
  <line class="uuid-94dba0b5-2055-4b21-9e86-d5103bbf2cf0" x1="165.083" y1="192.285" x2="170.259" y2="211.463"/>
  <path class="uuid-44092b25-4b4a-498c-93b4-ad09e5c68c98" d="M170.259,211.463c1.979,7.549,5.645,14.169,10.699,18.687"/>
  <path class="uuid-44092b25-4b4a-498c-93b4-ad09e5c68c98" d="M219.045,268.894c11.895,7.254,24.038,6.155,36.348,0"/>
  <path class="uuid-44092b25-4b4a-498c-93b4-ad09e5c68c98" d="M219.045,277.077c11.895,7.256,24.038,6.155,36.348,0"/>
  <path class="uuid-44092b25-4b4a-498c-93b4-ad09e5c68c98" d="M218.702,268.672c-16.096,2.617-30.439,8.647-39.454,17.636-6.494,6.524-9.279,13.658-8.816,20.619M302.905,307.049c.979-13.776-10.994-27.361-33.099-34.737-4.592-1.512-9.357-2.734-14.24-3.54"/>
  <path class="uuid-44092b25-4b4a-498c-93b4-ad09e5c68c98" d="M222.709,238.064c-11.056,5.467-20.821,9.562-33.566,6.792"/>
  <line class="uuid-aa679a49-0472-48c2-b99e-adbf171bb554" x1="300.462" y1="138.592" x2="291.521" y2="154.078"/>
  <line class="uuid-aa679a49-0472-48c2-b99e-adbf171bb554" x1="288.371" y1="114.313" x2="285.122" y2="120.004"/>
  <line class="uuid-aa679a49-0472-48c2-b99e-adbf171bb554" x1="259.57" y1="164.241" x2="256.273" y2="169.933"/>
  <line class="uuid-aa679a49-0472-48c2-b99e-adbf171bb554" x1="271.122" y1="99.091" x2="265.504" y2="108.793"/>
  <line class="uuid-aa679a49-0472-48c2-b99e-adbf171bb554" x1="231.988" y1="166.857" x2="229.329" y2="171.449"/>
  <line class="uuid-aa679a49-0472-48c2-b99e-adbf171bb554" x1="244.719" y1="99.727" x2="242.104" y2="104.245"/>
  <line class="uuid-aa679a49-0472-48c2-b99e-adbf171bb554" x1="208.345" y1="162.677" x2="205.728" y2="167.2"/>
  <line class="uuid-aa679a49-0472-48c2-b99e-adbf171bb554" x1="217.871" y1="101.07" x2="214.622" y2="106.64"/>
  <line class="uuid-aa679a49-0472-48c2-b99e-adbf171bb554" x1="188.678" y1="151.587" x2="185.407" y2="157.232"/>
  <line class="uuid-aa679a49-0472-48c2-b99e-adbf171bb554" x1="183.55" y1="115.364" x2="172.533" y2="134.39"/>
  <line class="uuid-aa679a49-0472-48c2-b99e-adbf171bb554" x1="153.772" y1="166.931" x2="149.471" y2="174.355"/>
  <line class="uuid-aa679a49-0472-48c2-b99e-adbf171bb554" x1="193.37" y1="332.892" x2="172.924" y2="297.475"/>
  <line class="uuid-aa679a49-0472-48c2-b99e-adbf171bb554" x1="209.809" y1="338.706" x2="199.893" y2="321.56"/>
  <line class="uuid-aa679a49-0472-48c2-b99e-adbf171bb554" x1="187.384" y1="299.891" x2="180.253" y2="287.529"/>
  <line class="uuid-aa679a49-0472-48c2-b99e-adbf171bb554" x1="224.273" y1="341.248" x2="217.113" y2="328.889"/>
  <line class="uuid-aa679a49-0472-48c2-b99e-adbf171bb554" x1="193.322" y1="287.603" x2="189.315" y2="280.693"/>
  <line class="uuid-aa679a49-0472-48c2-b99e-adbf171bb554" x1="237.732" y1="341.958" x2="231.525" y2="331.133"/>
  <line class="uuid-aa679a49-0472-48c2-b99e-adbf171bb554" x1="202.263" y1="280.52" x2="199.525" y2="275.755"/>
  <line class="uuid-aa679a49-0472-48c2-b99e-adbf171bb554" x1="250.286" y1="341.078" x2="244.472" y2="331.038"/>
  <line class="uuid-aa679a49-0472-48c2-b99e-adbf171bb554" x1="212.595" y1="275.855" x2="210.567" y2="272.264"/>
  <line class="uuid-aa679a49-0472-48c2-b99e-adbf171bb554" x1="262.06" y1="338.926" x2="256.367" y2="329.059"/>
  <line class="uuid-aa679a49-0472-48c2-b99e-adbf171bb554" x1="273.101" y1="335.509" x2="267.289" y2="325.393"/>
  <line class="uuid-aa679a49-0472-48c2-b99e-adbf171bb554" x1="283.337" y1="330.622" x2="276.987" y2="319.654"/>
  <line class="uuid-aa679a49-0472-48c2-b99e-adbf171bb554" x1="292.5" y1="323.881" x2="284.781" y2="310.592"/>
  <line class="uuid-aa679a49-0472-48c2-b99e-adbf171bb554" x1="265.504" y1="277.197" x2="262.648" y2="272.19"/>
  <line class="uuid-aa679a49-0472-48c2-b99e-adbf171bb554" x1="300.049" y1="314.425" x2="278.576" y2="277.197"/>
  <line class="uuid-aa679a49-0472-48c2-b99e-adbf171bb554" x1="283.385" y1="353.975" x2="280.016" y2="359.888"/>
  <line class="uuid-aa679a49-0472-48c2-b99e-adbf171bb554" x1="280.553" y1="336.361" x2="279.258" y2="338.515"/>
  <line class="uuid-aa679a49-0472-48c2-b99e-adbf171bb554" x1="266.483" y1="360.642" x2="263.282" y2="366.287"/>
  <line class="uuid-aa679a49-0472-48c2-b99e-adbf171bb554" x1="264.04" y1="342.348" x2="262.818" y2="344.497"/>
  <line class="uuid-aa679a49-0472-48c2-b99e-adbf171bb554" x1="259.57" y1="350.067" x2="248.479" y2="369.293"/>
  <line class="uuid-aa679a49-0472-48c2-b99e-adbf171bb554" x1="249.996" y1="344.155" x2="234.946" y2="370.172"/>
  <line class="uuid-aa679a49-0472-48c2-b99e-adbf171bb554" x1="236.533" y1="344.913" x2="222.414" y2="369.366"/>
  <line class="uuid-aa679a49-0472-48c2-b99e-adbf171bb554" x1="223.858" y1="344.229" x2="210.615" y2="367.166"/>
  <line class="uuid-aa679a49-0472-48c2-b99e-adbf171bb554" x1="212.009" y1="342.175" x2="199.573" y2="363.6"/>
  <line class="uuid-aa679a49-0472-48c2-b99e-adbf171bb554" x1="200.795" y1="338.974" x2="189.484" y2="358.568"/>
  <line class="uuid-aa679a49-0472-48c2-b99e-adbf171bb554" x1="190.415" y1="334.408" x2="180.543" y2="351.532"/>
  <line class="uuid-aa679a49-0472-48c2-b99e-adbf171bb554" x1="180.959" y1="328.253" x2="173.582" y2="341.028"/>
  <line class="uuid-aa679a49-0472-48c2-b99e-adbf171bb554" x1="172.754" y1="319.824" x2="172.409" y2="320.412"/>
  <line class="uuid-aa679a49-0472-48c2-b99e-adbf171bb554" x1="206.145" y1="233.008" x2="203.775" y2="231.614"/>
  <line class="uuid-aa679a49-0472-48c2-b99e-adbf171bb554" x1="158.364" y1="217.496" x2="154.821" y2="215.396"/>
  <line class="uuid-aa679a49-0472-48c2-b99e-adbf171bb554" x1="154.406" y1="202.179" x2="150.645" y2="199.957"/>
  <line class="uuid-aa679a49-0472-48c2-b99e-adbf171bb554" x1="150.523" y1="186.888" x2="146.859" y2="184.736"/>
  <line class="uuid-aa679a49-0472-48c2-b99e-adbf171bb554" x1="208.466" y1="159.48" x2="188.02" y2="124.18"/>
  <line class="uuid-aa679a49-0472-48c2-b99e-adbf171bb554" x1="223.858" y1="163.682" x2="196.497" y2="116.218"/>
  <line class="uuid-aa679a49-0472-48c2-b99e-adbf171bb554" x1="237.632" y1="164.829" x2="206.612" y2="111.11"/>
  <line class="uuid-aa679a49-0472-48c2-b99e-adbf171bb554" x1="250.238" y1="164.071" x2="217.771" y2="107.861"/>
  <line class="uuid-aa679a49-0472-48c2-b99e-adbf171bb554" x1="261.84" y1="161.629" x2="229.913" y2="106.349"/>
  <line class="uuid-aa679a49-0472-48c2-b99e-adbf171bb554" x1="272.469" y1="157.449" x2="243.129" y2="106.64"/>
  <line class="uuid-aa679a49-0472-48c2-b99e-adbf171bb554" x1="281.752" y1="151.003" x2="257.663" y2="109.257"/>
  <line class="uuid-aa679a49-0472-48c2-b99e-adbf171bb554" x1="288.371" y1="139.865" x2="275.008" y2="116.681"/>
</svg>