<?xml version="1.0" encoding="UTF-8"?>
<svg id="uuid-dc30bacd-019b-4f6d-9188-74442fcc2664" data-name="&amp;lt;Layer&amp;gt;" xmlns="http://www.w3.org/2000/svg" viewBox="0 0 451.11 451.11">
  <defs>
    <style>
      .uuid-89d2bd1e-85f9-471a-a18f-477c231e70e5, .uuid-3f7a370f-9c28-47b3-9c04-c25c3911aed4, .uuid-fd8500da-9db5-400a-b38f-8c92ea7dca05 {
        fill: none;
        stroke: #000;
        stroke-linecap: round;
      }

      .uuid-89d2bd1e-85f9-471a-a18f-477c231e70e5, .uuid-fd8500da-9db5-400a-b38f-8c92ea7dca05 {
        stroke-linejoin: round;
        stroke-width: 4.117px;
      }

      .uuid-3f7a370f-9c28-47b3-9c04-c25c3911aed4 {
        stroke-miterlimit: 10;
        stroke-width: 1.163px;
      }

      .uuid-fd8500da-9db5-400a-b38f-8c92ea7dca05 {
        fill-rule: evenodd;
      }
    </style>
  </defs>
  <polyline class="uuid-fd8500da-9db5-400a-b38f-8c92ea7dca05" points="274.912 104.664 274.912 104.616 309.649 84.581 301.098 79.695"/>
  <polyline class="uuid-fd8500da-9db5-400a-b38f-8c92ea7dca05" points="309.649 84.581 274.912 104.616 274.912 104.664"/>
  <path class="uuid-fd8500da-9db5-400a-b38f-8c92ea7dca05" d="M294.6,117.513c.857-3.96,1.733-7.841,2.079-11.455.069-.758.121-1.494.121-2.2"/>
  <path class="uuid-fd8500da-9db5-400a-b38f-8c92ea7dca05" d="M302.905,306.466c0,4.591.221,26.892-.195,29.629-2.027,16.072-20.251,26.234-34.127,30.656-25.259,7.963-60.75,6.207-82.811-9.013-7.914-5.446-14.971-13.655-15.388-23.743"/>
  <path class="uuid-fd8500da-9db5-400a-b38f-8c92ea7dca05" d="M170.384,306.246c.585,7.082,3.249,12.406,8.184,17.587,15.338,16.197,44.604,21.083,65.857,19.641,18.397-1.296,43.14-8.088,54.01-24.162,2.836-4.177,4.058-7.915,4.47-12.845"/>
  <path class="uuid-fd8500da-9db5-400a-b38f-8c92ea7dca05" d="M298.312,122.276c.637.806,1.101,1.612,1.516,2.491,1.221,2.027,2.076,4.177,2.613,6.451"/>
  <path class="uuid-fd8500da-9db5-400a-b38f-8c92ea7dca05" d="M302.441,131.265c.463,2.027.636,4.129.514,6.329-1.173,20.031-17.123,73.282-36.643,84.545-1.173.706-2.274,1.342-3.249,2.026-.173.148-.367.196-.537.317-31.535,20.841,18.467,29.561-6.961,44.289,0,.074-.051.074-.051.074-.074,0-.074.047-.122.047-1.147.758-1.855,1.807-1.807,3.128"/>
  <path class="uuid-fd8500da-9db5-400a-b38f-8c92ea7dca05" d="M253.586,272.851c0,1.686,1.101,3.076,2.737,3.471,9.183,2.269,17.245,6.229,22.596,11.626,13.363,13.29,5.445,30.315-17.614,37.986-14.975,4.982-33.199,4.982-48.196,0-22.989-7.671-30.877-24.696-17.591-37.986,5.401-5.397,13.411-9.357,22.598-11.626,1.612-.395,2.711-1.859,2.711-3.471"/>
  <path class="uuid-fd8500da-9db5-400a-b38f-8c92ea7dca05" d="M220.828,272.02c.074-1.321-.61-2.37-1.783-3.128-.048,0-.048-.047-.122-.047-.052-.074-.173-.122-.221-.17-18.761-10.994,4.47-18.713,4.007-30.608,0-.638-.122-1.295-.295-1.931-.367-1.27-1.001-2.613-1.98-4.055-.217-.343-.463-.71-.806-1.049-.195-.221-.411-.515-.632-.758-.126-.125-.247-.221-.369-.343"/>
  <path class="uuid-fd8500da-9db5-400a-b38f-8c92ea7dca05" d="M178.983,171.864c6.667,21.009,17.245,43.435,29.14,50.275,1.979,1.122,3.665,2.222,5.156,3.249"/>
  <path class="uuid-fd8500da-9db5-400a-b38f-8c92ea7dca05" d="M173.924,153.154c-.806-3.712-1.464-7.135-1.854-10.163-.074-.047-.074-.121-.074-.173"/>
  <polyline class="uuid-fd8500da-9db5-400a-b38f-8c92ea7dca05" points="145.883 189.33 146.737 193.046 152.256 213.735"/>
  <polyline class="uuid-fd8500da-9db5-400a-b38f-8c92ea7dca05" points="159.979 216.178 154.408 194.215 149.934 176.727"/>
  <path class="uuid-fd8500da-9db5-400a-b38f-8c92ea7dca05" d="M302.905,331.968c-.413,2.1-4.202,7.377-5.814,9.231-8.893,9.993-23.059,15.905-35.834,18.86"/>
  <path class="uuid-fd8500da-9db5-400a-b38f-8c92ea7dca05" d="M201.626,236.256c.174,0,.269-.048.463-.048,5.402-1.173,10.847-3.616,16.539-6.277"/>
  <path class="uuid-fd8500da-9db5-400a-b38f-8c92ea7dca05" d="M220.607,228.927c-1.221-.438-2.443-.927-3.664-1.49-1.101-.534-2.148-1.17-3.664-2.048-.048.073-.17.121-.221.121-5.276,3.08-9.453,4.592-19.152,6.351-4.496.684-8.768-.122-12.896-1.711"/>
  <polyline class="uuid-fd8500da-9db5-400a-b38f-8c92ea7dca05" points="182.964 157.699 149.986 176.727 141.461 171.864"/>
  <path class="uuid-fd8500da-9db5-400a-b38f-8c92ea7dca05" d="M141.461,171.864c12.311-7.083,20.741-11.969,32.463-18.709.931-.563,1.859-1.101,2.837-1.686.048.07.048.122.121.122"/>
  <polyline class="uuid-fd8500da-9db5-400a-b38f-8c92ea7dca05" points="160.049 216.226 154.408 194.267 149.986 176.727 182.964 157.699"/>
  <path class="uuid-fd8500da-9db5-400a-b38f-8c92ea7dca05" d="M182.964,157.699h.074c.291,4.344,1.099,7.302,2.321,10.503"/>
  <polyline class="uuid-fd8500da-9db5-400a-b38f-8c92ea7dca05" points="185.359 168.202 181.227 170.568 178.983 171.864 162.639 181.32"/>
  <path class="uuid-fd8500da-9db5-400a-b38f-8c92ea7dca05" d="M181.011,230.149c4.348,3.911,9.747,6.232,16.122,6.354,1.538,0,2.98-.074,4.492-.247.174,0,.269-.048.463-.048"/>
  <path class="uuid-fd8500da-9db5-400a-b38f-8c92ea7dca05" d="M264.164,101c-24.332-6.425-54.014-3.886-74.091,7.671-16.098,9.305-22.132,22.205-18.077,34.147,0,.052,0,.126.074.173.975,2.908,2.539,5.763,4.691,8.477.048.07.048.122.121.122"/>
  <path class="uuid-fd8500da-9db5-400a-b38f-8c92ea7dca05" d="M274.912,104.664c2.954,1.123,5.74,2.517,8.355,4.007.88.537,1.733,1.048,2.565,1.564,3.492,2.27,6.45,4.713,8.768,7.278,1.49,1.49,2.712,3.127,3.712,4.764.637.806,1.101,1.612,1.516,2.491,1.221,2.322,2.028,4.765,2.443,7.135.979,5.983-.489,12.09-4.374,17.709"/>
  <path class="uuid-fd8500da-9db5-400a-b38f-8c92ea7dca05" d="M297.897,149.659c-.217.317-.391.538-.633.831v.048c-3.201,4.375-7.892,8.429-13.996,11.969-25.722,14.806-67.471,14.806-93.194,0-2.617-1.512-4.935-3.123-7.035-4.808h-.074"/>
  <path class="uuid-fd8500da-9db5-400a-b38f-8c92ea7dca05" d="M274.665,114.653c-21.006-11.554-55.037-11.554-75.994,0-21.031,11.557-21.031,30.271-.074,41.823,21.031,11.553,55.062,11.553,76.068,0,21.035-11.552,20.987-30.265,0-41.823Z"/>
  <path class="uuid-fd8500da-9db5-400a-b38f-8c92ea7dca05" d="M216.137,227.025c.295.169.511.291.806.412,1.221.563,2.443,1.053,3.664,1.49,13.754,4.839,27.872,2.811,41.919-4.444.17-.121.365-.169.537-.317"/>
  <path class="uuid-fd8500da-9db5-400a-b38f-8c92ea7dca05" d="M301.098,79.695c-12.823,7.38-24.332,14-36.933,21.304"/>
  <path class="uuid-fd8500da-9db5-400a-b38f-8c92ea7dca05" d="M302.441,131.218c4.054-18.077,6.891-36.006,7.208-46.637"/>
  <line class="uuid-89d2bd1e-85f9-471a-a18f-477c231e70e5" x1="296.8" y1="103.858" x2="285.832" y2="110.235"/>
  <line class="uuid-89d2bd1e-85f9-471a-a18f-477c231e70e5" x1="170.384" y1="333.996" x2="170.384" y2="306.246"/>
  <path class="uuid-fd8500da-9db5-400a-b38f-8c92ea7dca05" d="M141.461,171.864c1.685,5.818,3.076,11.557,4.422,17.466"/>
  <path class="uuid-fd8500da-9db5-400a-b38f-8c92ea7dca05" d="M152.256,213.735c5.818,21.715,18.934,28.287,38.281,31.341"/>
  <path class="uuid-fd8500da-9db5-400a-b38f-8c92ea7dca05" d="M190.537,245.076c-14.239-2.491-26.503-12.948-30.557-28.899"/>
  <line class="uuid-89d2bd1e-85f9-471a-a18f-477c231e70e5" x1="261.257" y1="360.06" x2="261.257" y2="346.939"/>
  <path class="uuid-fd8500da-9db5-400a-b38f-8c92ea7dca05" d="M261.257,346.939c15.634-3.662,34.612-12.017,41.405-27.628"/>
  <line class="uuid-89d2bd1e-85f9-471a-a18f-477c231e70e5" x1="302.662" y1="319.311" x2="302.905" y2="331.968"/>
  <line class="uuid-89d2bd1e-85f9-471a-a18f-477c231e70e5" x1="181.011" y1="230.149" x2="180.963" y2="230.149"/>
  <path class="uuid-fd8500da-9db5-400a-b38f-8c92ea7dca05" d="M162.639,181.32c.832,3.201,1.395,6.961,2.444,10.968"/>
  <line class="uuid-89d2bd1e-85f9-471a-a18f-477c231e70e5" x1="165.083" y1="192.288" x2="170.259" y2="211.465"/>
  <path class="uuid-fd8500da-9db5-400a-b38f-8c92ea7dca05" d="M170.259,211.465c1.979,7.546,5.644,14.166,10.703,18.685"/>
  <path class="uuid-fd8500da-9db5-400a-b38f-8c92ea7dca05" d="M219.045,268.892c11.895,7.256,24.036,6.156,36.348,0"/>
  <path class="uuid-fd8500da-9db5-400a-b38f-8c92ea7dca05" d="M219.045,277.078c11.895,7.253,24.036,6.153,36.348,0"/>
  <path class="uuid-fd8500da-9db5-400a-b38f-8c92ea7dca05" d="M218.702,268.675c-16.098,2.613-30.435,8.647-39.45,17.636-6.498,6.523-9.283,13.654-8.82,20.619M302.905,307.051c.979-13.778-10.99-27.359-33.1-34.736-4.591-1.516-9.356-2.738-14.239-3.544"/>
  <path class="uuid-fd8500da-9db5-400a-b38f-8c92ea7dca05" d="M222.709,238.067c-11.052,5.463-20.821,9.562-33.564,6.789"/>
  <line class="uuid-3f7a370f-9c28-47b3-9c04-c25c3911aed4" x1="300.464" y1="138.595" x2="291.524" y2="154.081"/>
  <line class="uuid-3f7a370f-9c28-47b3-9c04-c25c3911aed4" x1="288.371" y1="114.311" x2="285.122" y2="120.004"/>
  <line class="uuid-3f7a370f-9c28-47b3-9c04-c25c3911aed4" x1="259.568" y1="164.243" x2="256.271" y2="169.936"/>
  <line class="uuid-3f7a370f-9c28-47b3-9c04-c25c3911aed4" x1="271.126" y1="99.093" x2="265.507" y2="108.791"/>
  <line class="uuid-3f7a370f-9c28-47b3-9c04-c25c3911aed4" x1="231.992" y1="166.856" x2="229.327" y2="171.451"/>
  <line class="uuid-3f7a370f-9c28-47b3-9c04-c25c3911aed4" x1="244.719" y1="99.73" x2="242.106" y2="104.248"/>
  <line class="uuid-3f7a370f-9c28-47b3-9c04-c25c3911aed4" x1="208.344" y1="162.68" x2="205.729" y2="167.199"/>
  <line class="uuid-3f7a370f-9c28-47b3-9c04-c25c3911aed4" x1="217.87" y1="101.072" x2="214.621" y2="106.643"/>
  <line class="uuid-3f7a370f-9c28-47b3-9c04-c25c3911aed4" x1="188.678" y1="151.59" x2="185.407" y2="157.234"/>
  <line class="uuid-3f7a370f-9c28-47b3-9c04-c25c3911aed4" x1="183.55" y1="115.363" x2="172.533" y2="134.393"/>
  <line class="uuid-3f7a370f-9c28-47b3-9c04-c25c3911aed4" x1="153.772" y1="166.93" x2="149.475" y2="174.355"/>
  <line class="uuid-3f7a370f-9c28-47b3-9c04-c25c3911aed4" x1="193.369" y1="332.895" x2="172.923" y2="297.474"/>
  <line class="uuid-3f7a370f-9c28-47b3-9c04-c25c3911aed4" x1="209.812" y1="338.709" x2="199.893" y2="321.562"/>
  <line class="uuid-3f7a370f-9c28-47b3-9c04-c25c3911aed4" x1="187.386" y1="299.895" x2="180.253" y2="287.532"/>
  <line class="uuid-3f7a370f-9c28-47b3-9c04-c25c3911aed4" x1="224.273" y1="341.252" x2="217.116" y2="328.888"/>
  <line class="uuid-3f7a370f-9c28-47b3-9c04-c25c3911aed4" x1="193.322" y1="287.605" x2="189.315" y2="280.692"/>
  <line class="uuid-3f7a370f-9c28-47b3-9c04-c25c3911aed4" x1="237.732" y1="341.957" x2="231.528" y2="331.136"/>
  <line class="uuid-3f7a370f-9c28-47b3-9c04-c25c3911aed4" x1="202.263" y1="280.523" x2="199.525" y2="275.758"/>
  <line class="uuid-3f7a370f-9c28-47b3-9c04-c25c3911aed4" x1="250.289" y1="341.078" x2="244.473" y2="331.04"/>
  <line class="uuid-3f7a370f-9c28-47b3-9c04-c25c3911aed4" x1="212.594" y1="275.857" x2="210.567" y2="272.263"/>
  <line class="uuid-3f7a370f-9c28-47b3-9c04-c25c3911aed4" x1="262.063" y1="338.929" x2="256.371" y2="329.061"/>
  <line class="uuid-3f7a370f-9c28-47b3-9c04-c25c3911aed4" x1="273.101" y1="335.508" x2="267.291" y2="325.396"/>
  <line class="uuid-3f7a370f-9c28-47b3-9c04-c25c3911aed4" x1="283.337" y1="330.621" x2="276.987" y2="319.653"/>
  <line class="uuid-3f7a370f-9c28-47b3-9c04-c25c3911aed4" x1="292.499" y1="323.88" x2="284.779" y2="310.594"/>
  <line class="uuid-3f7a370f-9c28-47b3-9c04-c25c3911aed4" x1="265.507" y1="277.2" x2="262.648" y2="272.193"/>
  <line class="uuid-3f7a370f-9c28-47b3-9c04-c25c3911aed4" x1="300.049" y1="314.428" x2="278.576" y2="277.2"/>
  <line class="uuid-3f7a370f-9c28-47b3-9c04-c25c3911aed4" x1="283.389" y1="353.978" x2="280.014" y2="359.887"/>
  <line class="uuid-3f7a370f-9c28-47b3-9c04-c25c3911aed4" x1="280.556" y1="336.365" x2="279.26" y2="338.514"/>
  <line class="uuid-3f7a370f-9c28-47b3-9c04-c25c3911aed4" x1="266.483" y1="360.645" x2="263.284" y2="366.289"/>
  <line class="uuid-3f7a370f-9c28-47b3-9c04-c25c3911aed4" x1="264.039" y1="342.347" x2="262.821" y2="344.5"/>
  <line class="uuid-3f7a370f-9c28-47b3-9c04-c25c3911aed4" x1="259.568" y1="350.07" x2="248.479" y2="369.295"/>
  <line class="uuid-3f7a370f-9c28-47b3-9c04-c25c3911aed4" x1="249.996" y1="344.154" x2="234.947" y2="370.175"/>
  <line class="uuid-3f7a370f-9c28-47b3-9c04-c25c3911aed4" x1="236.535" y1="344.916" x2="222.414" y2="369.365"/>
  <line class="uuid-3f7a370f-9c28-47b3-9c04-c25c3911aed4" x1="223.856" y1="344.232" x2="210.614" y2="367.169"/>
  <line class="uuid-3f7a370f-9c28-47b3-9c04-c25c3911aed4" x1="212.01" y1="342.178" x2="199.576" y2="363.603"/>
  <line class="uuid-3f7a370f-9c28-47b3-9c04-c25c3911aed4" x1="200.799" y1="338.977" x2="189.488" y2="358.569"/>
  <line class="uuid-3f7a370f-9c28-47b3-9c04-c25c3911aed4" x1="190.415" y1="334.407" x2="180.547" y2="351.534"/>
  <line class="uuid-3f7a370f-9c28-47b3-9c04-c25c3911aed4" x1="180.963" y1="328.256" x2="173.582" y2="341.03"/>
  <line class="uuid-3f7a370f-9c28-47b3-9c04-c25c3911aed4" x1="172.754" y1="319.825" x2="172.411" y2="320.411"/>
  <line class="uuid-3f7a370f-9c28-47b3-9c04-c25c3911aed4" x1="206.148" y1="233.007" x2="203.775" y2="231.617"/>
  <line class="uuid-3f7a370f-9c28-47b3-9c04-c25c3911aed4" x1="158.365" y1="217.495" x2="154.821" y2="215.395"/>
  <line class="uuid-3f7a370f-9c28-47b3-9c04-c25c3911aed4" x1="154.408" y1="202.181" x2="150.644" y2="199.959"/>
  <line class="uuid-3f7a370f-9c28-47b3-9c04-c25c3911aed4" x1="150.523" y1="186.887" x2="146.859" y2="184.737"/>
  <line class="uuid-3f7a370f-9c28-47b3-9c04-c25c3911aed4" x1="208.466" y1="159.48" x2="188.02" y2="124.183"/>
  <line class="uuid-3f7a370f-9c28-47b3-9c04-c25c3911aed4" x1="223.856" y1="163.681" x2="196.497" y2="116.217"/>
  <line class="uuid-3f7a370f-9c28-47b3-9c04-c25c3911aed4" x1="237.632" y1="164.829" x2="206.611" y2="111.11"/>
  <line class="uuid-3f7a370f-9c28-47b3-9c04-c25c3911aed4" x1="250.238" y1="164.071" x2="217.775" y2="107.865"/>
  <line class="uuid-3f7a370f-9c28-47b3-9c04-c25c3911aed4" x1="261.842" y1="161.632" x2="229.917" y2="106.349"/>
  <line class="uuid-3f7a370f-9c28-47b3-9c04-c25c3911aed4" x1="272.469" y1="157.452" x2="243.129" y2="106.643"/>
  <line class="uuid-3f7a370f-9c28-47b3-9c04-c25c3911aed4" x1="281.751" y1="151.005" x2="257.667" y2="109.256"/>
  <line class="uuid-3f7a370f-9c28-47b3-9c04-c25c3911aed4" x1="288.371" y1="139.864" x2="275.008" y2="116.681"/>
</svg>