<?xml version="1.0" encoding="UTF-8"?>
<svg id="uuid-a92b73bd-5df9-4d70-b658-ed1b3f3dd894" data-name="&amp;lt;Layer&amp;gt;" xmlns="http://www.w3.org/2000/svg" viewBox="0 0 451.11 451.11">
  <defs>
    <style>
      .uuid-747b213e-a6c2-4ee1-968b-d45c1267f970, .uuid-be72cd23-d064-4c38-aee3-3452dc95cd71, .uuid-3015ea37-91f8-4b89-a42e-e938671cf628 {
        fill: none;
        stroke: #000;
        stroke-linecap: round;
      }

      .uuid-747b213e-a6c2-4ee1-968b-d45c1267f970, .uuid-3015ea37-91f8-4b89-a42e-e938671cf628 {
        stroke-linejoin: round;
        stroke-width: 4.113px;
      }

      .uuid-be72cd23-d064-4c38-aee3-3452dc95cd71 {
        stroke-miterlimit: 10;
        stroke-width: 1.163px;
      }

      .uuid-3015ea37-91f8-4b89-a42e-e938671cf628 {
        fill-rule: evenodd;
      }
    </style>
  </defs>
  <path class="uuid-3015ea37-91f8-4b89-a42e-e938671cf628" d="M239.584,289.35c-.636-2.436-3.072-4.522-5.626-4.238-1.295,0-2.738.463-4.25,1.342-2.786,1.638-5.35,4.422-7.208,7.599-1.855,3.201-2.954,6.813-2.954,10.062,0,4.427,2.487,8.298,7.302,7.013.243-.051.417-.099.663-.173"/>
  <polygon class="uuid-3015ea37-91f8-4b89-a42e-e938671cf628" points="227.513 363.647 222.917 360.298 196.315 329.006 200.906 332.354 227.513 363.647"/>
  <polyline class="uuid-3015ea37-91f8-4b89-a42e-e938671cf628" points="203.471 274.485 196.315 329.006 200.958 332.332"/>
  <path class="uuid-3015ea37-91f8-4b89-a42e-e938671cf628" d="M231.909,361.108l-5.06-2.884M227.513,310.955l-.663-5.423"/>
  <path class="uuid-3015ea37-91f8-4b89-a42e-e938671cf628" d="M233.959,285.112c1.027,1.928,1.027,4.296.684,6.813-1.049,5.398-3.544,9.919-7.793,13.585"/>
  <path class="uuid-3015ea37-91f8-4b89-a42e-e938671cf628" d="M231.909,308.412c5.475-4.555,9.107-12.001,7.675-19.062"/>
  <polyline class="uuid-3015ea37-91f8-4b89-a42e-e938671cf628" points="254.038 270.257 258.508 299.107 231.909 361.13 231.909 308.412"/>
  <polyline class="uuid-3015ea37-91f8-4b89-a42e-e938671cf628" points="227.513 310.955 227.513 363.621 200.958 332.332 208.236 276.34"/>
  <path class="uuid-3015ea37-91f8-4b89-a42e-e938671cf628" d="M258.923,204.279v-.052c.173-.584.221-1.221.295-1.854"/>
  <polyline class="uuid-3015ea37-91f8-4b89-a42e-e938671cf628" points="259.218 202.079 259.218 260.047 259.144 260.489"/>
  <path class="uuid-3015ea37-91f8-4b89-a42e-e938671cf628" d="M259.144,260.489c-.096.953-.295,1.807-.511,2.613-.173.584-.343,1.121-.636,1.685,0,0,0,.074-.074.121-.221.637-.585,1.273-.979,1.859-.291.511-.68,1.101-1.097,1.564-.173.169-.295.341-.463.537-.343.463-.758.853-1.221,1.268,0,.074-.074.074-.125.074"/>
  <path class="uuid-3015ea37-91f8-4b89-a42e-e938671cf628" d="M236.376,277.976c-9.205,1.737-19.688,1.173-28.139-1.637-1.711-.511-3.275-1.149-4.765-1.855-6.398-3.08-10.869-7.719-11.505-13.996"/>
  <path class="uuid-3015ea37-91f8-4b89-a42e-e938671cf628" d="M192.433,204.985c.732,2.785,2.366,5.156,4.592,7.208,9.452,8.699,26.575,10.432,38.887,8.184"/>
  <path class="uuid-3015ea37-91f8-4b89-a42e-e938671cf628" d="M254.038,270.257c-1.734,1.612-3.834,3.006-6.277,4.176-.685.343-1.443.685-2.248.979-2.513,1.053-5.224,1.859-8.084,2.396-.169.048-.343.121-.512.121-.173.048-.345.048-.541.1"/>
  <path class="uuid-3015ea37-91f8-4b89-a42e-e938671cf628" d="M191.966,109.399c.048.806.173,1.564.391,2.322.125.632.293,1.221.636,1.854M215.881,127.328c.806.126,1.638.247,2.444.369.636.096,1.316.169,2.026.221.637.07,1.269.121,1.979.121,1.097.048,2.149.122,3.249.122M203.913,123.568c2.734,1.317,5.766,2.37,9.015,3.128M193.53,114.627c.295.585.636,1.101,1.053,1.685.342.511.757.976,1.221,1.44,1.512,1.689,3.518,3.299,5.956,4.695"/>
  <path class="uuid-3015ea37-91f8-4b89-a42e-e938671cf628" d="M225.628,128.16c1.053,0,2.102-.074,3.154-.122,1.095-.051,2.074-.121,3.127-.245h.122c1.099-.096,2.148-.269,3.123-.465"/>
  <path class="uuid-3015ea37-91f8-4b89-a42e-e938671cf628" d="M255.31,117.751c.365-.291.585-.585.88-.928.169-.169.29-.415.415-.584.17-.221.338-.463.463-.684.269-.417.511-.832.685-1.223.121-.169.243-.341.291-.511.173-.415.341-.783.463-1.173.051-.048.051-.121.051-.169.122-.295.17-.589.243-.88.048-.173.122-.341.122-.463.052-.052.052-.173.052-.247.073-.269.121-.563.121-.853"/>
  <path class="uuid-3015ea37-91f8-4b89-a42e-e938671cf628" d="M259.218,202.079c-.074.758-.122,1.442-.295,2.148v.052c-1.169,4.887-5.397,8.599-9.6,11.09-3.006,1.685-6.324,2.954-9.868,3.955-.806.173-1.612.415-2.443.515-.174.074-.391.121-.637.121"/>
  <path class="uuid-3015ea37-91f8-4b89-a42e-e938671cf628" d="M192.433,204.985c-.125-.463-.247-.879-.295-1.342-.048-.291-.125-.585-.125-.88,0-.099-.048-.269-.048-.389v-.295"/>
  <path class="uuid-3015ea37-91f8-4b89-a42e-e938671cf628" d="M247.127,93.838c.758.343,1.512.733,2.197,1.149,6.571,3.786,9.894,8.768,9.894,13.776,0,.393,0,.736-.122,1.151.048.07.048.169,0,.243,0,.221-.048.391-.121.633q.073.051,0,.099c0,.074,0,.195-.052.247-.074.511-.243,1.097-.463,1.685-.074.17-.17.413-.295.633,0,.121-.07.221-.121.367-.048.096-.122.17-.17.269,0,.074-.048.17-.121.243-.174.391-.417.806-.685,1.223-.125.221-.293.463-.463.684-.342.537-.831,1.001-1.296,1.512"/>
  <path class="uuid-3015ea37-91f8-4b89-a42e-e938671cf628" d="M225.533,118.219c6.839,0,13.628-1.49,18.856-4.496,5.181-3.006,7.793-6.935,7.793-10.869s-2.612-7.892-7.793-10.894c-5.228-2.98-12.017-4.496-18.856-4.496-6.792,0-13.659,1.516-18.835,4.496-5.202,3.002-7.819,6.961-7.819,10.894s2.617,7.863,7.819,10.869c5.176,3.006,12.043,4.496,18.835,4.496Z"/>
  <line class="uuid-747b213e-a6c2-4ee1-968b-d45c1267f970" x1="226.85" y1="310.612" x2="222.501" y2="308.049"/>
  <path class="uuid-3015ea37-91f8-4b89-a42e-e938671cf628" d="M222.501,308.049c-.758.195-1.439.363-2.028.363"/>
  <line class="uuid-747b213e-a6c2-4ee1-968b-d45c1267f970" x1="226.85" y1="305.51" x2="231.909" y2="308.412"/>
  <line class="uuid-747b213e-a6c2-4ee1-968b-d45c1267f970" x1="191.966" y1="260.489" x2="191.966" y2="202.079"/>
  <line class="uuid-747b213e-a6c2-4ee1-968b-d45c1267f970" x1="236.376" y1="278.028" x2="236.376" y2="220.008"/>
  <line class="uuid-747b213e-a6c2-4ee1-968b-d45c1267f970" x1="255.31" y1="117.802" x2="255.31" y2="117.751"/>
  <line class="uuid-747b213e-a6c2-4ee1-968b-d45c1267f970" x1="259.096" y1="110.036" x2="259.096" y2="109.984"/>
  <line class="uuid-747b213e-a6c2-4ee1-968b-d45c1267f970" x1="259.218" y1="109.204" x2="259.218" y2="202.079"/>
  <line class="uuid-747b213e-a6c2-4ee1-968b-d45c1267f970" x1="236.376" y1="219.96" x2="236.376" y2="220.008"/>
  <line class="uuid-747b213e-a6c2-4ee1-968b-d45c1267f970" x1="191.966" y1="202.079" x2="191.966" y2="109.399"/>
  <path class="uuid-3015ea37-91f8-4b89-a42e-e938671cf628" d="M249.324,215.343c4.765-2.808,9.652-7.304,9.82-13.264"/>
  <path class="uuid-3015ea37-91f8-4b89-a42e-e938671cf628" d="M259.144,109.204c-.636,10.651-13.701,16.122-22.768,17.903"/>
  <line class="uuid-747b213e-a6c2-4ee1-968b-d45c1267f970" x1="236.376" y1="127.107" x2="236.376" y2="220.008"/>
  <path class="uuid-3015ea37-91f8-4b89-a42e-e938671cf628" d="M236.376,220.008c4.644-.927,9.067-2.465,12.948-4.665"/>
  <path class="uuid-3015ea37-91f8-4b89-a42e-e938671cf628" d="M215.881,127.328c-6.191-1.007-12.186-3.23-17.245-6.961-3.584-2.675-6.745-6.931-6.745-11.604,0-6.829,6.381-12.51,12.263-14.997"/>
  <line class="uuid-be72cd23-d064-4c38-aee3-3452dc95cd71" x1="200.664" y1="319.189" x2="199.737" y2="318.674"/>
  <line class="uuid-be72cd23-d064-4c38-aee3-3452dc95cd71" x1="202.25" y1="307.07" x2="201.37" y2="306.536"/>
  <line class="uuid-be72cd23-d064-4c38-aee3-3452dc95cd71" x1="203.814" y1="294.931" x2="202.934" y2="294.416"/>
  <line class="uuid-be72cd23-d064-4c38-aee3-3452dc95cd71" x1="205.377" y1="282.789" x2="204.498" y2="282.3"/>
  <line class="uuid-be72cd23-d064-4c38-aee3-3452dc95cd71" x1="237.013" y1="297.301" x2="235.523" y2="296.421"/>
  <line class="uuid-be72cd23-d064-4c38-aee3-3452dc95cd71" x1="198.295" y1="270.331" x2="198.295" y2="213.951"/>
  <line class="uuid-be72cd23-d064-4c38-aee3-3452dc95cd71" x1="220.863" y1="278.54" x2="220.863" y2="221.207"/>
  <line class="uuid-be72cd23-d064-4c38-aee3-3452dc95cd71" x1="257.58" y1="108.494" x2="246.028" y2="115.164"/>
  <line class="uuid-be72cd23-d064-4c38-aee3-3452dc95cd71" x1="245.148" y1="115.654" x2="226.629" y2="126.375"/>
  <line class="uuid-be72cd23-d064-4c38-aee3-3452dc95cd71" x1="203.401" y1="113.722" x2="197.709" y2="116.997"/>
  <line class="uuid-be72cd23-d064-4c38-aee3-3452dc95cd71" x1="248.639" y1="96.282" x2="214.955" y2="115.728"/>
  <line class="uuid-be72cd23-d064-4c38-aee3-3452dc95cd71" x1="236.792" y1="90.075" x2="202.813" y2="109.667"/>
  <line class="uuid-be72cd23-d064-4c38-aee3-3452dc95cd71" x1="209.141" y1="93.008" x2="206.941" y2="94.277"/>
  <line class="uuid-be72cd23-d064-4c38-aee3-3452dc95cd71" x1="235.058" y1="206.649" x2="214.369" y2="218.592"/>
  <line class="uuid-be72cd23-d064-4c38-aee3-3452dc95cd71" x1="235.523" y1="193.333" x2="200.322" y2="213.684"/>
  <line class="uuid-be72cd23-d064-4c38-aee3-3452dc95cd71" x1="235.744" y1="180.168" x2="192.944" y2="204.864"/>
  <line class="uuid-be72cd23-d064-4c38-aee3-3452dc95cd71" x1="235.792" y1="167.121" x2="192.65" y2="192.015"/>
  <line class="uuid-be72cd23-d064-4c38-aee3-3452dc95cd71" x1="235.792" y1="154.077" x2="192.65" y2="178.994"/>
  <line class="uuid-be72cd23-d064-4c38-aee3-3452dc95cd71" x1="235.792" y1="141.034" x2="192.65" y2="165.951"/>
  <line class="uuid-be72cd23-d064-4c38-aee3-3452dc95cd71" x1="234.007" y1="129.014" x2="192.724" y2="152.856"/>
  <line class="uuid-be72cd23-d064-4c38-aee3-3452dc95cd71" x1="212.806" y1="128.234" x2="193.408" y2="139.423"/>
  <line class="uuid-be72cd23-d064-4c38-aee3-3452dc95cd71" x1="199.222" y1="123.056" x2="193.871" y2="126.133"/>
  <line class="uuid-be72cd23-d064-4c38-aee3-3452dc95cd71" x1="242.605" y1="219.228" x2="242.605" y2="124.522"/>
</svg>