<?xml version="1.0" encoding="UTF-8"?>
<svg id="uuid-2cb9a789-37dc-4f27-b940-7cda8ae7b660" data-name="&amp;lt;Layer&amp;gt;" xmlns="http://www.w3.org/2000/svg" viewBox="0 0 451.11 451.11">
  <defs>
    <style>
      .uuid-37e1341a-7e90-493f-bdff-98b4d4081ba5, .uuid-997fab3b-ee3b-4ec8-9248-d72de81c2738, .uuid-7782f818-4333-4aa0-b1d5-bebbb1ea23cf, .uuid-50259de5-7eed-4197-a758-91dc2f2bd81f, .uuid-b2b1a7d0-39d7-41fd-9193-9581542d2725, .uuid-a0916bc8-3532-469a-908d-98b471281656 {
        fill: none;
        stroke: #000;
        stroke-linecap: round;
      }

      .uuid-37e1341a-7e90-493f-bdff-98b4d4081ba5, .uuid-997fab3b-ee3b-4ec8-9248-d72de81c2738, .uuid-b2b1a7d0-39d7-41fd-9193-9581542d2725, .uuid-a0916bc8-3532-469a-908d-98b471281656 {
        stroke-linejoin: round;
      }

      .uuid-37e1341a-7e90-493f-bdff-98b4d4081ba5, .uuid-a0916bc8-3532-469a-908d-98b471281656 {
        stroke-width: 4.113px;
      }

      .uuid-997fab3b-ee3b-4ec8-9248-d72de81c2738, .uuid-b2b1a7d0-39d7-41fd-9193-9581542d2725 {
        stroke-width: 4.938px;
      }

      .uuid-7782f818-4333-4aa0-b1d5-bebbb1ea23cf {
        stroke-width: 1.163px;
      }

      .uuid-7782f818-4333-4aa0-b1d5-bebbb1ea23cf, .uuid-50259de5-7eed-4197-a758-91dc2f2bd81f {
        stroke-miterlimit: 10;
      }

      .uuid-50259de5-7eed-4197-a758-91dc2f2bd81f {
        stroke-width: 1.159px;
      }

      .uuid-b2b1a7d0-39d7-41fd-9193-9581542d2725, .uuid-a0916bc8-3532-469a-908d-98b471281656 {
        fill-rule: evenodd;
      }
    </style>
  </defs>
  <path class="uuid-a0916bc8-3532-469a-908d-98b471281656" d="M237.463,305.676c.566,11.752,4.474,25.41,15.559,31.466,9.626,5.567,22.941,4.761,37.622-3.716,14.706-8.473,27.993-23.059,37.617-39.719,9.648-16.686,15.586-35.495,15.586-52.446s-5.938-28.923-16.076-34.727c-2.509-1.651-7.296-2.818-10.184-3.137-41.834-3.762-82.937,63.494-80.125,102.279Z"/>
  <path class="uuid-a0916bc8-3532-469a-908d-98b471281656" d="M316.147,216.466c7.888,4.47,12.826,14.166,12.826,27.993,0,27.411-19.225,60.802-42.972,74.508-12.017,6.913-22.889,7.477-30.656,2.832"/>
  <path class="uuid-a0916bc8-3532-469a-908d-98b471281656" d="M333.101,258.507c-1.325,9.761-6.712,22.783-11.678,31.245-.294.534-.633,1.049-.976,1.56-.809,1.515-1.761,2.98-2.737,4.374-7.517,11.469-20.39,24.983-34.744,30.263-13.497,4.967-26.422,1.979-32.555-11.528-11.277-24.347,6.682-61.501,23.573-79.32,10.936-11.565,31.827-26.021,47.957-16.164,2.996,1.837,5.505,4.39,7.392,7.532,5.262,8.764,6.067,22.805,3.768,32.036Z"/>
  <line class="uuid-37e1341a-7e90-493f-bdff-98b4d4081ba5" x1="130.956" y1="236.302" x2="130.956" y2="354.167"/>
  <path class="uuid-a0916bc8-3532-469a-908d-98b471281656" d="M130.956,354.167c.052,3.101.637,5.912,3.249,7.866"/>
  <line class="uuid-37e1341a-7e90-493f-bdff-98b4d4081ba5" x1="134.205" y1="362.033" x2="111.783" y2="349.111"/>
  <path class="uuid-a0916bc8-3532-469a-908d-98b471281656" d="M111.783,349.111c-2.543-1.979-3.175-4.787-3.253-7.914"/>
  <line class="uuid-37e1341a-7e90-493f-bdff-98b4d4081ba5" x1="108.53" y1="341.197" x2="107.261" y2="222.622"/>
  <line class="uuid-37e1341a-7e90-493f-bdff-98b4d4081ba5" x1="279.798" y1="199.979" x2="281.189" y2="149.583"/>
  <line class="uuid-37e1341a-7e90-493f-bdff-98b4d4081ba5" x1="225.446" y1="312.564" x2="142.219" y2="360.665"/>
  <path class="uuid-a0916bc8-3532-469a-908d-98b471281656" d="M142.219,360.665c-3.127,1.785-5.912,2.148-8.135,1.222"/>
  <line class="uuid-37e1341a-7e90-493f-bdff-98b4d4081ba5" x1="134.084" y1="361.886" x2="134.036" y2="361.886"/>
  <path class="uuid-a0916bc8-3532-469a-908d-98b471281656" d="M143.61,176.258c60.801-35.104,106.385-61.412,124.903-72.111"/>
  <path class="uuid-a0916bc8-3532-469a-908d-98b471281656" d="M277.455,103.266c2.269,1.317,3.735,4.151,3.735,8.158"/>
  <polyline class="uuid-a0916bc8-3532-469a-908d-98b471281656" points="281.189 111.424 281.189 149.583 130.956 236.302"/>
  <path class="uuid-a0916bc8-3532-469a-908d-98b471281656" d="M130.956,198.168c0-4.028,1.442-8.502,3.716-12.483,2.271-3.956,5.471-7.426,8.938-9.428"/>
  <path class="uuid-a0916bc8-3532-469a-908d-98b471281656" d="M119.918,162.552c41.622-24.038,83.272-48.074,124.85-72.112,2.737-1.49,5.521-2.37,8.55-1.101"/>
  <line class="uuid-37e1341a-7e90-493f-bdff-98b4d4081ba5" x1="253.317" y1="89.34" x2="277.012" y2="103.046"/>
  <path class="uuid-a0916bc8-3532-469a-908d-98b471281656" d="M277.012,103.046c-3.028-1.269-5.765-.415-8.499,1.101"/>
  <polyline class="uuid-a0916bc8-3532-469a-908d-98b471281656" points="268.513 104.146 266.655 105.195 264.702 106.342"/>
  <path class="uuid-a0916bc8-3532-469a-908d-98b471281656" d="M264.702,106.342c-40.378,23.28-80.737,46.611-121.092,69.915-7.083,4.272-12.554,13.485-12.654,21.91"/>
  <polyline class="uuid-a0916bc8-3532-469a-908d-98b471281656" points="130.956 198.168 130.956 236.302 107.261 222.622 107.261 184.463"/>
  <path class="uuid-a0916bc8-3532-469a-908d-98b471281656" d="M107.261,184.463c.048-8.403,5.571-17.609,12.657-21.91"/>
  <line class="uuid-997fab3b-ee3b-4ec8-9248-d72de81c2738" x1="159.927" y1="250.86" x2="199.307" y2="228.118"/>
  <path class="uuid-b2b1a7d0-39d7-41fd-9193-9581542d2725" d="M199.307,228.118c1.269-.732,2.318-.147,2.318,1.317"/>
  <line class="uuid-997fab3b-ee3b-4ec8-9248-d72de81c2738" x1="201.626" y1="229.436" x2="201.626" y2="256.822"/>
  <path class="uuid-b2b1a7d0-39d7-41fd-9193-9581542d2725" d="M201.626,256.822c0,1.438-1.049,3.223-2.318,3.933"/>
  <line class="uuid-997fab3b-ee3b-4ec8-9248-d72de81c2738" x1="199.307" y1="260.755" x2="162.202" y2="282.176"/>
  <path class="uuid-b2b1a7d0-39d7-41fd-9193-9581542d2725" d="M162.202,282.176c-1.296.732-2.274,2.491-2.274,3.959"/>
  <line class="uuid-997fab3b-ee3b-4ec8-9248-d72de81c2738" x1="159.927" y1="286.135" x2="159.927" y2="313.348"/>
  <path class="uuid-b2b1a7d0-39d7-41fd-9193-9581542d2725" d="M159.927,313.348c0,1.439.979,2.05,2.274,1.317"/>
  <line class="uuid-997fab3b-ee3b-4ec8-9248-d72de81c2738" x1="162.202" y1="314.665" x2="201.626" y2="291.901"/>
  <line class="uuid-997fab3b-ee3b-4ec8-9248-d72de81c2738" x1="252.196" y1="221.327" x2="252.196" y2="200.196"/>
  <path class="uuid-b2b1a7d0-39d7-41fd-9193-9581542d2725" d="M252.196,200.196c0-1.438-1.053-2.028-2.248-1.269-12.436,7.135-24.796,14.291-37.18,21.422-1.221.71-2.274,2.494-2.274,3.959"/>
  <line class="uuid-997fab3b-ee3b-4ec8-9248-d72de81c2738" x1="210.493" y1="224.307" x2="210.493" y2="284.181"/>
  <path class="uuid-b2b1a7d0-39d7-41fd-9193-9581542d2725" d="M210.493,284.181c0,1.442,1.053,2.028,2.274,1.269,3.785-2.2,7.549-4.35,11.383-6.572"/>
  <line class="uuid-997fab3b-ee3b-4ec8-9248-d72de81c2738" x1="240.542" y1="236.839" x2="210.493" y2="254.205"/>
  <line class="uuid-37e1341a-7e90-493f-bdff-98b4d4081ba5" x1="242.323" y1="160.816" x2="228.232" y2="168.952"/>
  <path class="uuid-a0916bc8-3532-469a-908d-98b471281656" d="M228.232,168.952c-.416.245-.758.05-.758-.413"/>
  <line class="uuid-37e1341a-7e90-493f-bdff-98b4d4081ba5" x1="227.474" y1="168.539" x2="227.474" y2="144.475"/>
  <path class="uuid-a0916bc8-3532-469a-908d-98b471281656" d="M227.474,144.475c0-.463.342-1.047.758-1.294"/>
  <line class="uuid-37e1341a-7e90-493f-bdff-98b4d4081ba5" x1="228.232" y1="143.181" x2="242.202" y2="135.119"/>
  <line class="uuid-37e1341a-7e90-493f-bdff-98b4d4081ba5" x1="241.348" y1="147.824" x2="227.474" y2="155.834"/>
  <polyline class="uuid-a0916bc8-3532-469a-908d-98b471281656" points="221.44 147.066 221.608 172.788 205.879 156.081 205.879 181.851"/>
  <line class="uuid-37e1341a-7e90-493f-bdff-98b4d4081ba5" x1="182.99" y1="168.807" x2="182.99" y2="184.805"/>
  <path class="uuid-a0916bc8-3532-469a-908d-98b471281656" d="M182.99,184.805c0,6.718,2.906,8.551,8.768,5.18,5.792-3.322,8.576-8.525,8.576-15.17"/>
  <line class="uuid-37e1341a-7e90-493f-bdff-98b4d4081ba5" x1="200.334" y1="174.816" x2="200.334" y2="158.74"/>
  <path class="uuid-a0916bc8-3532-469a-908d-98b471281656" d="M164.398,198.39c0,5.03,1.737,6.887,6.403,4.176,4.444-2.543,6.324-6.498,6.324-11.189"/>
  <line class="uuid-37e1341a-7e90-493f-bdff-98b4d4081ba5" x1="177.124" y1="191.377" x2="177.124" y2="172.545"/>
  <line class="uuid-37e1341a-7e90-493f-bdff-98b4d4081ba5" x1="135.769" y1="183.927" x2="112.074" y2="170.25"/>
  <path class="uuid-a0916bc8-3532-469a-908d-98b471281656" d="M112.074,170.25c-2.785,4.103-4.813,9.205-4.813,14.213"/>
  <path class="uuid-a0916bc8-3532-469a-908d-98b471281656" d="M130.956,198.168c.052-5.032,2.028-10.114,4.813-14.241"/>
  <path class="uuid-a0916bc8-3532-469a-908d-98b471281656" d="M252.096,336.601c-3.492-2.024-13.776-7.645-16.487-9.673-4.885-3.738-8.135-8.72-10.162-14.365-3.666-10.258-3.253-22.764-1.295-33.684.706-3.933,1.637-7.645,2.686-11.016,3.249-10.747,8.235-21.546,14.634-31.539,3.249-5.056,6.839-9.869,10.725-14.339,6.909-7.962,14.875-14.802,23.647-19.983,1.27-.706,2.613-1.39,3.955-2.024,10.162-5.012,22.401-7.793,32.806-2.226"/>
  <line class="uuid-37e1341a-7e90-493f-bdff-98b4d4081ba5" x1="312.603" y1="197.753" x2="327.288" y2="206.304"/>
  <polygon class="uuid-a0916bc8-3532-469a-908d-98b471281656" points="294.943 270.502 291.108 278.684 263.701 270.865 267.534 262.683 294.943 270.502"/>
  <line class="uuid-37e1341a-7e90-493f-bdff-98b4d4081ba5" x1="284.779" y1="283.961" x2="316.54" y2="228.898"/>
  <path class="uuid-a0916bc8-3532-469a-908d-98b471281656" d="M118.355,352.898c-2.617-1.979-3.202-4.813-3.253-7.914"/>
  <line class="uuid-37e1341a-7e90-493f-bdff-98b4d4081ba5" x1="115.102" y1="344.984" x2="115.102" y2="227.117"/>
  <path class="uuid-a0916bc8-3532-469a-908d-98b471281656" d="M125.264,356.853c-2.613-1.954-3.249-4.787-3.323-7.888"/>
  <line class="uuid-37e1341a-7e90-493f-bdff-98b4d4081ba5" x1="121.941" y1="348.965" x2="121.941" y2="231.096"/>
  <line class="uuid-7782f818-4333-4aa0-b1d5-bebbb1ea23cf" x1="280.736" y1="143.655" x2="275.835" y2="152.11"/>
  <line class="uuid-7782f818-4333-4aa0-b1d5-bebbb1ea23cf" x1="278.161" y1="102.925" x2="236.926" y2="174.304"/>
  <line class="uuid-7782f818-4333-4aa0-b1d5-bebbb1ea23cf" x1="242.202" y1="120.022" x2="197.745" y2="197.069"/>
  <line class="uuid-7782f818-4333-4aa0-b1d5-bebbb1ea23cf" x1="203.068" y1="142.622" x2="158.658" y2="219.641"/>
  <line class="uuid-7782f818-4333-4aa0-b1d5-bebbb1ea23cf" x1="163.593" y1="165.923" x2="132.057" y2="220.569"/>
  <line class="uuid-7782f818-4333-4aa0-b1d5-bebbb1ea23cf" x1="129.271" y1="222.449" x2="119.918" y2="227.876"/>
  <line class="uuid-7782f818-4333-4aa0-b1d5-bebbb1ea23cf" x1="129.614" y1="209.21" x2="108.652" y2="221.305"/>
  <line class="uuid-7782f818-4333-4aa0-b1d5-bebbb1ea23cf" x1="129.735" y1="196.142" x2="108.652" y2="208.258"/>
  <line class="uuid-7782f818-4333-4aa0-b1d5-bebbb1ea23cf" x1="130.713" y1="182.509" x2="108.652" y2="195.236"/>
  <line class="uuid-7782f818-4333-4aa0-b1d5-bebbb1ea23cf" x1="118.987" y1="176.232" x2="109.288" y2="181.851"/>
  <line class="uuid-7782f818-4333-4aa0-b1d5-bebbb1ea23cf" x1="265.729" y1="98.527" x2="261.379" y2="106.074"/>
  <line class="uuid-7782f818-4333-4aa0-b1d5-bebbb1ea23cf" x1="256.271" y1="92.298" x2="241.471" y2="117.948"/>
  <line class="uuid-7782f818-4333-4aa0-b1d5-bebbb1ea23cf" x1="242.692" y1="93.274" x2="221.708" y2="129.6"/>
  <line class="uuid-7782f818-4333-4aa0-b1d5-bebbb1ea23cf" x1="223.102" y1="104.562" x2="202.141" y2="140.885"/>
  <line class="uuid-7782f818-4333-4aa0-b1d5-bebbb1ea23cf" x1="203.605" y1="115.846" x2="182.622" y2="152.17"/>
  <line class="uuid-7782f818-4333-4aa0-b1d5-bebbb1ea23cf" x1="184.017" y1="127.131" x2="163.055" y2="163.457"/>
  <line class="uuid-7782f818-4333-4aa0-b1d5-bebbb1ea23cf" x1="164.446" y1="138.442" x2="143.488" y2="174.768"/>
  <line class="uuid-7782f818-4333-4aa0-b1d5-bebbb1ea23cf" x1="144.761" y1="149.972" x2="128.344" y2="178.454"/>
  <line class="uuid-7782f818-4333-4aa0-b1d5-bebbb1ea23cf" x1="124.899" y1="161.868" x2="118.939" y2="172.225"/>
  <line class="uuid-7782f818-4333-4aa0-b1d5-bebbb1ea23cf" x1="239.541" y1="324.047" x2="230.818" y2="319.039"/>
  <line class="uuid-7782f818-4333-4aa0-b1d5-bebbb1ea23cf" x1="235.947" y1="308.925" x2="224.909" y2="302.574"/>
  <line class="uuid-7782f818-4333-4aa0-b1d5-bebbb1ea23cf" x1="235.947" y1="295.93" x2="224.566" y2="289.332"/>
  <line class="uuid-7782f818-4333-4aa0-b1d5-bebbb1ea23cf" x1="237.927" y1="284.009" x2="226.201" y2="277.242"/>
  <line class="uuid-7782f818-4333-4aa0-b1d5-bebbb1ea23cf" x1="241.128" y1="272.823" x2="229.159" y2="265.91"/>
  <line class="uuid-7782f818-4333-4aa0-b1d5-bebbb1ea23cf" x1="245.303" y1="262.219" x2="233.214" y2="255.232"/>
  <line class="uuid-7782f818-4333-4aa0-b1d5-bebbb1ea23cf" x1="250.337" y1="252.057" x2="238.2" y2="245.048"/>
  <line class="uuid-7782f818-4333-4aa0-b1d5-bebbb1ea23cf" x1="256.103" y1="242.383" x2="244.009" y2="235.396"/>
  <line class="uuid-7782f818-4333-4aa0-b1d5-bebbb1ea23cf" x1="262.722" y1="233.148" x2="250.752" y2="226.235"/>
  <line class="uuid-7782f818-4333-4aa0-b1d5-bebbb1ea23cf" x1="270.32" y1="224.502" x2="258.473" y2="217.662"/>
  <line class="uuid-7782f818-4333-4aa0-b1d5-bebbb1ea23cf" x1="279.04" y1="216.514" x2="267.366" y2="209.774"/>
  <line class="uuid-7782f818-4333-4aa0-b1d5-bebbb1ea23cf" x1="289.324" y1="209.405" x2="277.94" y2="202.834"/>
  <line class="uuid-7782f818-4333-4aa0-b1d5-bebbb1ea23cf" x1="301.808" y1="203.567" x2="291.351" y2="197.558"/>
  <line class="uuid-50259de5-7eed-4197-a758-91dc2f2bd81f" x1="339.914" y1="264.949" x2="309.258" y2="318.09"/>
  <line class="uuid-7782f818-4333-4aa0-b1d5-bebbb1ea23cf" x1="338.741" y1="221.911" x2="333.513" y2="230.926"/>
  <line class="uuid-7782f818-4333-4aa0-b1d5-bebbb1ea23cf" x1="276.549" y1="329.566" x2="271.368" y2="338.581"/>
  <line class="uuid-7782f818-4333-4aa0-b1d5-bebbb1ea23cf" x1="321.839" y1="206.009" x2="316.709" y2="214.855"/>
  <line class="uuid-7782f818-4333-4aa0-b1d5-bebbb1ea23cf" x1="254.245" y1="323.094" x2="249.116" y2="331.988"/>
  <line class="uuid-7782f818-4333-4aa0-b1d5-bebbb1ea23cf" x1="293.806" y1="209.421" x2="285.284" y2="224.097"/>
  <line class="uuid-7782f818-4333-4aa0-b1d5-bebbb1ea23cf" x1="288.445" y1="321.215" x2="287.274" y2="320.555"/>
  <line class="uuid-7782f818-4333-4aa0-b1d5-bebbb1ea23cf" x1="298.728" y1="314.128" x2="297.337" y2="313.322"/>
  <line class="uuid-7782f818-4333-4aa0-b1d5-bebbb1ea23cf" x1="307.205" y1="305.993" x2="305.693" y2="305.117"/>
  <line class="uuid-7782f818-4333-4aa0-b1d5-bebbb1ea23cf" x1="314.34" y1="297.055" x2="312.776" y2="296.172"/>
  <line class="uuid-7782f818-4333-4aa0-b1d5-bebbb1ea23cf" x1="320.37" y1="287.5" x2="318.81" y2="286.598"/>
  <line class="uuid-7782f818-4333-4aa0-b1d5-bebbb1ea23cf" x1="325.429" y1="277.415" x2="323.818" y2="276.462"/>
  <line class="uuid-7782f818-4333-4aa0-b1d5-bebbb1ea23cf" x1="329.263" y1="266.543" x2="327.699" y2="265.689"/>
  <line class="uuid-7782f818-4333-4aa0-b1d5-bebbb1ea23cf" x1="331.637" y1="254.889" x2="330.316" y2="254.131"/>
  <line class="uuid-7782f818-4333-4aa0-b1d5-bebbb1ea23cf" x1="331.927" y1="242.02" x2="330.948" y2="241.479"/>
  <line class="uuid-7782f818-4333-4aa0-b1d5-bebbb1ea23cf" x1="270.151" y1="265.372" x2="267.534" y2="269.96"/>
  <line class="uuid-7782f818-4333-4aa0-b1d5-bebbb1ea23cf" x1="113.173" y1="331.766" x2="109.244" y2="329.489"/>
  <line class="uuid-7782f818-4333-4aa0-b1d5-bebbb1ea23cf" x1="113.173" y1="305.702" x2="109.679" y2="303.711"/>
  <line class="uuid-7782f818-4333-4aa0-b1d5-bebbb1ea23cf" x1="113.173" y1="279.637" x2="109.896" y2="277.739"/>
  <line class="uuid-7782f818-4333-4aa0-b1d5-bebbb1ea23cf" x1="113.173" y1="253.547" x2="107.935" y2="250.511"/>
  <line class="uuid-7782f818-4333-4aa0-b1d5-bebbb1ea23cf" x1="130.258" y1="342.102" x2="123.921" y2="338.434"/>
  <line class="uuid-7782f818-4333-4aa0-b1d5-bebbb1ea23cf" x1="129.933" y1="315.85" x2="123.921" y2="312.369"/>
  <line class="uuid-7782f818-4333-4aa0-b1d5-bebbb1ea23cf" x1="130.258" y1="289.973" x2="123.921" y2="286.305"/>
  <line class="uuid-7782f818-4333-4aa0-b1d5-bebbb1ea23cf" x1="129.606" y1="263.507" x2="123.921" y2="260.214"/>
  <line class="uuid-7782f818-4333-4aa0-b1d5-bebbb1ea23cf" x1="120.04" y1="335.648" x2="117.056" y2="333.942"/>
  <line class="uuid-7782f818-4333-4aa0-b1d5-bebbb1ea23cf" x1="120.04" y1="309.561" x2="117.056" y2="307.876"/>
  <line class="uuid-7782f818-4333-4aa0-b1d5-bebbb1ea23cf" x1="120.04" y1="283.497" x2="117.056" y2="281.787"/>
  <line class="uuid-7782f818-4333-4aa0-b1d5-bebbb1ea23cf" x1="120.04" y1="257.432" x2="117.056" y2="255.721"/>
</svg>