<?xml version="1.0" encoding="UTF-8"?>
<svg id="uuid-694ff6af-97cf-426a-b0eb-1fcbc14c15c8" data-name="&amp;lt;Layer&amp;gt;" xmlns="http://www.w3.org/2000/svg" viewBox="0 0 451.11 451.11">
  <defs>
    <style>
      .uuid-e37aec69-72a5-4224-87c0-06feb58caf3f, .uuid-fb2fa81e-0509-4b13-8518-87de159cc2b5, .uuid-376cc855-90a4-4d8c-b8a5-cc84d3d9e83a, .uuid-2efc1398-da0f-44f8-91cb-cdf0a0c01089 {
        fill: none;
      }

      .uuid-e37aec69-72a5-4224-87c0-06feb58caf3f, .uuid-fb2fa81e-0509-4b13-8518-87de159cc2b5, .uuid-376cc855-90a4-4d8c-b8a5-cc84d3d9e83a, .uuid-2efc1398-da0f-44f8-91cb-cdf0a0c01089, .uuid-d3b00dff-d17e-4b7d-9009-68d8540755f1, .uuid-eafadced-5352-4354-9d53-7086ac417705 {
        stroke: #000;
        stroke-linecap: round;
      }

      .uuid-e37aec69-72a5-4224-87c0-06feb58caf3f, .uuid-2efc1398-da0f-44f8-91cb-cdf0a0c01089 {
        stroke-width: 4.113px;
      }

      .uuid-e37aec69-72a5-4224-87c0-06feb58caf3f, .uuid-2efc1398-da0f-44f8-91cb-cdf0a0c01089, .uuid-eafadced-5352-4354-9d53-7086ac417705 {
        stroke-linejoin: round;
      }

      .uuid-fb2fa81e-0509-4b13-8518-87de159cc2b5 {
        stroke-miterlimit: 10;
      }

      .uuid-fb2fa81e-0509-4b13-8518-87de159cc2b5, .uuid-376cc855-90a4-4d8c-b8a5-cc84d3d9e83a {
        stroke-width: 1.163px;
      }

      .uuid-376cc855-90a4-4d8c-b8a5-cc84d3d9e83a, .uuid-2efc1398-da0f-44f8-91cb-cdf0a0c01089, .uuid-d3b00dff-d17e-4b7d-9009-68d8540755f1, .uuid-eafadced-5352-4354-9d53-7086ac417705 {
        fill-rule: evenodd;
      }

      .uuid-376cc855-90a4-4d8c-b8a5-cc84d3d9e83a, .uuid-d3b00dff-d17e-4b7d-9009-68d8540755f1 {
        stroke-miterlimit: 22.926;
      }

      .uuid-d3b00dff-d17e-4b7d-9009-68d8540755f1, .uuid-eafadced-5352-4354-9d53-7086ac417705 {
        fill: #1986c6;
        stroke-width: 3.293px;
      }
    </style>
  </defs>
  <path class="uuid-2efc1398-da0f-44f8-91cb-cdf0a0c01089" d="M156.623,118.946c-.685-.71-1.516-1.294-2.374-1.759-.585-.341-1.221-.684-1.88-.927-.563-.221-1.075-.467-1.66-.563-.71-.247-1.39-.367-2.1-.489-.221-.047-.511-.095-.806-.095-1.053-.126-2.101-.126-3.201-.074-10.579.706-28.556,3.664-39.087,9.941-.341.17-.584.391-.927.637"/>
  <path class="uuid-2efc1398-da0f-44f8-91cb-cdf0a0c01089" d="M104.54,125.618c-7.039,4.713-12.263,13.702-13.363,21.884-1.859,13.485,5.449,27.066,11.383,39.159,1.101,2.244,3.418,5.91,7.424,8.183,1.933,1.101,4.254,1.855,7.035,1.977"/>
  <path class="uuid-2efc1398-da0f-44f8-91cb-cdf0a0c01089" d="M109.985,194.844c-4.007-2.273-6.324-5.938-7.424-8.183-5.934-12.093-13.242-25.674-11.383-39.159,1.099-8.183,6.324-17.171,13.363-21.884"/>
  <path class="uuid-2efc1398-da0f-44f8-91cb-cdf0a0c01089" d="M104.588,125.618c.343-.247.585-.467.927-.637,10.531-6.277,28.508-9.235,39.087-9.941,1.099-.052,2.148-.052,3.201.074.295,0,.585.048.806.095.71.122,1.39.243,2.1.489.585.096,1.097.343,1.66.563.658.243,1.294.585,1.88.927"/>
  <path class="uuid-2efc1398-da0f-44f8-91cb-cdf0a0c01089" d="M162.02,123.759c-1.442-2.1-3.249-3.712-5.397-4.813-.932-.536-1.907-.953-2.959-1.173-5.275-1.564-11.847-.463-18.93,3.592-5.058,2.98-9.867,7.16-14.169,12.093-10.332,11.969-17.418,28.383-17.418,42.673,0,8.551,2.543,14.975,6.839,18.713"/>
  <path class="uuid-2efc1398-da0f-44f8-91cb-cdf0a0c01089" d="M156.96,125.687h-.048c-3.197-1.711-6.372-2.1-9.525-1.633-3.371.411-6.672,1.807-9.921,3.54-4.298,2.615-7.667,5.397-10.868,8.819-1.149,1.27-2.322,2.613-3.492,4.081-6.159,8.135-10.21,16.366-12.363,26.406-.758,4.129-1.049,7.451-.758,11.628.71,5.692,2.222,10.457,6.744,13.802"/>
  <path class="uuid-2efc1398-da0f-44f8-91cb-cdf0a0c01089" d="M135.417,267.005c1.634,12.8,2.908,13.19,7.963,15.707,6.207,3.127,8.256,3.59,17.538-1.295,1.053-.511,2.2-1.097,3.419-1.807,7.45-4.055,7.623-8.477,7.038-15.266"/>
  <path class="uuid-2efc1398-da0f-44f8-91cb-cdf0a0c01089" d="M171.376,264.344c.585,6.789.413,11.211-7.038,15.266-1.219.758-2.366,1.416-3.419,1.807-6.67,3.127-10.162.879-11.089-6.961"/>
  <path class="uuid-2efc1398-da0f-44f8-91cb-cdf0a0c01089" d="M165.217,238.229c.052,2.491-1.049,5.276-2.734,6.891-1.027.927-2.075,1.292-2.954,1.001"/>
  <polyline class="uuid-2efc1398-da0f-44f8-91cb-cdf0a0c01089" points="159.698 233.394 160.335 233.394 160.504 233.464 162.774 234.152 163.068 234.274 163.119 234.274"/>
  <polyline class="uuid-2efc1398-da0f-44f8-91cb-cdf0a0c01089" points="200.543 213.411 200.543 213.359 200.591 213.312"/>
  <path class="uuid-2efc1398-da0f-44f8-91cb-cdf0a0c01089" d="M211.437,143.621h-.173q-.048-.174-.122-.174c-.048-.048-.095-.121-.169-.121-.052-.048-.1-.122-.221-.17"/>
  <path class="uuid-2efc1398-da0f-44f8-91cb-cdf0a0c01089" d="M209.995,142.569c-.463-.295-1.001-.585-1.464-.806-.052,0-.1,0-.1-.074-.121-.051-.243-.095-.341-.173-.413-.217-.88-.389-1.343-.559"/>
  <polyline class="uuid-2efc1398-da0f-44f8-91cb-cdf0a0c01089" points="125.034 213.359 128.873 215.56 143.674 224.158 154.937 230.678"/>
  <path class="uuid-2efc1398-da0f-44f8-91cb-cdf0a0c01089" d="M154.937,230.678c1.464,1.151,3.028,2.079,4.713,2.715h.048"/>
  <path class="uuid-2efc1398-da0f-44f8-91cb-cdf0a0c01089" d="M176.822,123.685c-1.149-.389-2.248-.684-3.345-.853-.125,0-.199-.078-.295-.078-1.173-.169-2.395-.265-3.492-.265-.857,0-1.809.048-2.663.17-.415.047-.832.095-1.295.173-.221.048-.463.048-.758.121-.341.096-.684.17-1.099.291-.56.1-1.197.269-1.855.515-.122,0-.173,0-.221.048-.343.074-.659.169-.927.295-.074,0-.174.048-.247.121-.511.122-1.049.295-1.612.511-.706.295-1.39.637-2.054.953h-.048c-4.006,1.955-7.204,4.059-10.92,6.962-5.102,4.348-8.941,8.477-12.992,13.804"/>
  <path class="uuid-2efc1398-da0f-44f8-91cb-cdf0a0c01089" d="M159.698,233.394h-.048c-1.685-.636-3.249-1.564-4.713-2.715-4.765-3.955-7.771-10.647-8.235-19.589-.121-.805-.121-1.685-.121-2.612,0-14.754,6.498-31.466,16.317-44.752,5.862-7.914,12.897-14.586,20.447-18.934,9.525-5.519,18.172-6.329,24.744-3.275.099.078.221.122.341.173,0,.074.048.074.1.074.463.221,1.001.511,1.464.806"/>
  <path class="uuid-2efc1398-da0f-44f8-91cb-cdf0a0c01089" d="M163.068,234.274c-1.171-2.102-2.318-3.912-3.492-5.402-3.419-4.344-5.328-10.625-5.328-18.587,0-22.842,15.976-50.592,35.768-61.976,6.568-3.834,12.775-5.324,18.073-4.813.905.126,1.953.126,3.175.126h.173c17.834-.417,60.508-13.29,79.099-14.928.17-.047.343-.047.463-.047h.17c.199,0,.415-.074.588-.074.291-.048.585-.048.876-.048-.534.048-1.049.122-1.512.169"/>
  <polyline class="uuid-2efc1398-da0f-44f8-91cb-cdf0a0c01089" points="215.051 186.589 215.051 186.662 214.981 186.662"/>
  <path class="uuid-2efc1398-da0f-44f8-91cb-cdf0a0c01089" d="M214.981,186.662c-4.949,7.749-9.739,15.954-13.411,24.427-.343.758-.685,1.516-.979,2.224"/>
  <path class="uuid-2efc1398-da0f-44f8-91cb-cdf0a0c01089" d="M200.543,213.411c-4.938,12.855-8.588,22.113-11.116,35.959-2.082,13.007-2.866,25.105-.048,38.155,1.911,8.772,4.051,13.242,8.72,20.616.048.052.096.099.17.173"/>
  <path class="uuid-2efc1398-da0f-44f8-91cb-cdf0a0c01089" d="M198.49,308.704c-.122-.096-.169-.269-.221-.391-.074-.074-.122-.121-.17-.173-.658-.876-1.221-1.733-1.711-2.613-.221-.243-.341-.463-.437-.706-.247-.389-.463-.758-.758-1.221"/>
  <path class="uuid-2efc1398-da0f-44f8-91cb-cdf0a0c01089" d="M195.193,303.548c-.125-.243-.247-.411-.367-.584-8.768-15.097-17.71-39.381-25.77-56.917v-.051c-1.343-2.785-2.565-5.398-3.838-7.767"/>
  <path class="uuid-2efc1398-da0f-44f8-91cb-cdf0a0c01089" d="M314.058,131.942c-6.034-2.564-11.8-3.59-17.488-3.59-1.321,0-2.591.048-3.937.173-.291,0-.585,0-.876.048-.173,0-.389.074-.588.074"/>
  <path class="uuid-2efc1398-da0f-44f8-91cb-cdf0a0c01089" d="M195.193,303.6c.169.411.391.754.758,1.221.096.243.217.463.437.706.489.88,1.053,1.737,1.711,2.613.048.052.096.099.17.173,2.274,3.128,5.106,5.912,8.941,8.768"/>
  <polyline class="uuid-2efc1398-da0f-44f8-91cb-cdf0a0c01089" points="207.21 317.081 217.592 323.115 228.514 329.443 228.586 329.322"/>
  <path class="uuid-2efc1398-da0f-44f8-91cb-cdf0a0c01089" d="M215.051,186.589c.702-1.09,1.715-2.643,2.541-3.592,16.745-23.125,43.425-51.593,74.165-54.425,7.252-.758,14.582.121,22.301,3.37"/>
  <path class="uuid-2efc1398-da0f-44f8-91cb-cdf0a0c01089" d="M284.624,325.757c41.746-24.136,75.603-82.763,75.603-131.033s-33.857-67.836-75.603-43.704c-41.82,24.11-75.677,82.811-75.677,131.081s33.857,67.789,75.677,43.656Z"/>
  <path class="uuid-2efc1398-da0f-44f8-91cb-cdf0a0c01089" d="M284.624,306.749c33.442-19.273,60.558-66.224,60.558-104.843s-27.116-54.281-60.558-34.984c-33.468,19.299-60.58,66.277-60.58,104.895s27.113,54.256,60.58,34.932Z"/>
  <path class="uuid-2efc1398-da0f-44f8-91cb-cdf0a0c01089" d="M314.742,158.787c-8.867-.754-19.151,1.811-30.119,8.135-33.468,19.299-60.58,66.277-60.58,104.895,0,12.36,2.784,22.379,7.667,29.609,8.893.78,19.177-1.785,30.145-8.136,33.442-19.297,60.559-66.225,60.559-104.847,0-12.38-2.785-22.374-7.672-29.655Z"/>
  <path class="uuid-2efc1398-da0f-44f8-91cb-cdf0a0c01089" d="M273.752,248.17c-8.353,4.839-15.218.905-15.218-8.794s6.865-21.495,15.218-26.359c8.429-4.861,15.222-.902,15.222,8.797s-6.792,21.495-15.222,26.356Z"/>
  <polygon class="uuid-eafadced-5352-4354-9d53-7086ac417705" points="195.241 299.203 195.241 299.178 195.193 299.152 195.193 299.129 195.241 299.203"/>
  <polygon class="uuid-d3b00dff-d17e-4b7d-9009-68d8540755f1" points="195.241 299.081 195.241 299.03 195.193 299.004 195.241 299.081"/>
  <line class="uuid-e37aec69-72a5-4224-87c0-06feb58caf3f" x1="128.873" y1="215.56" x2="135.417" y2="267.005"/>
  <line class="uuid-e37aec69-72a5-4224-87c0-06feb58caf3f" x1="171.376" y1="264.344" x2="169.055" y2="246.046"/>
  <line class="uuid-e37aec69-72a5-4224-87c0-06feb58caf3f" x1="149.83" y1="274.456" x2="143.674" y2="224.158"/>
  <line class="uuid-e37aec69-72a5-4224-87c0-06feb58caf3f" x1="206.746" y1="140.956" x2="176.822" y2="123.685"/>
  <path class="uuid-2efc1398-da0f-44f8-91cb-cdf0a0c01089" d="M165.217,238.155c-.706-1.343-1.39-2.613-2.024-3.76"/>
  <line class="uuid-e37aec69-72a5-4224-87c0-06feb58caf3f" x1="335.19" y1="144.205" x2="314.058" y2="131.942"/>
  <line class="uuid-e37aec69-72a5-4224-87c0-06feb58caf3f" x1="263.004" y1="249.223" x2="231.42" y2="234.222"/>
  <path class="uuid-2efc1398-da0f-44f8-91cb-cdf0a0c01089" d="M159.529,246.12l-.295-.125-2.322-.707-.169-.047c-.838-.339-1.133-.924-1.516-1.686l-.048-.221c-.61-2.052-.291-4.172.511-6.107.758-1.362,2.116-3.834,3.959-3.834"/>
  <line class="uuid-e37aec69-72a5-4224-87c0-06feb58caf3f" x1="254.82" y1="193.159" x2="284.502" y2="211.969"/>
  <path class="uuid-2efc1398-da0f-44f8-91cb-cdf0a0c01089" d="M176.822,123.685c-36.408-10.814-78.419,65.707-51.788,89.674"/>
  <line class="uuid-fb2fa81e-0509-4b13-8518-87de159cc2b5" x1="239.308" y1="333.719" x2="210.164" y2="283.226"/>
  <line class="uuid-fb2fa81e-0509-4b13-8518-87de159cc2b5" x1="252.967" y1="334.793" x2="239.482" y2="311.488"/>
  <line class="uuid-fb2fa81e-0509-4b13-8518-87de159cc2b5" x1="223.285" y1="283.444" x2="212.095" y2="264.024"/>
  <line class="uuid-fb2fa81e-0509-4b13-8518-87de159cc2b5" x1="264.737" y1="332.667" x2="255.458" y2="316.543"/>
  <line class="uuid-fb2fa81e-0509-4b13-8518-87de159cc2b5" x1="223.065" y1="260.507" x2="215.809" y2="247.853"/>
  <line class="uuid-fb2fa81e-0509-4b13-8518-87de159cc2b5" x1="275.488" y1="328.686" x2="267.842" y2="315.4"/>
  <line class="uuid-fb2fa81e-0509-4b13-8518-87de159cc2b5" x1="226.486" y1="243.798" x2="220.548" y2="233.61"/>
  <line class="uuid-fb2fa81e-0509-4b13-8518-87de159cc2b5" x1="285.478" y1="323.384" x2="278.689" y2="311.662"/>
  <line class="uuid-fb2fa81e-0509-4b13-8518-87de159cc2b5" x1="231.368" y1="229.729" x2="226.192" y2="220.715"/>
  <line class="uuid-fb2fa81e-0509-4b13-8518-87de159cc2b5" x1="294.834" y1="317.011" x2="288.631" y2="306.311"/>
  <line class="uuid-fb2fa81e-0509-4b13-8518-87de159cc2b5" x1="237.186" y1="217.171" x2="232.421" y2="208.915"/>
  <line class="uuid-fb2fa81e-0509-4b13-8518-87de159cc2b5" x1="303.654" y1="309.755" x2="297.862" y2="299.693"/>
  <line class="uuid-fb2fa81e-0509-4b13-8518-87de159cc2b5" x1="243.679" y1="205.836" x2="239.139" y2="198.02"/>
  <line class="uuid-fb2fa81e-0509-4b13-8518-87de159cc2b5" x1="312.031" y1="301.62" x2="306.464" y2="291.97"/>
  <line class="uuid-fb2fa81e-0509-4b13-8518-87de159cc2b5" x1="250.813" y1="195.624" x2="246.395" y2="187.979"/>
  <line class="uuid-fb2fa81e-0509-4b13-8518-87de159cc2b5" x1="319.876" y1="292.702" x2="314.401" y2="283.248"/>
  <line class="uuid-fb2fa81e-0509-4b13-8518-87de159cc2b5" x1="258.486" y1="186.342" x2="254.062" y2="178.722"/>
  <line class="uuid-fb2fa81e-0509-4b13-8518-87de159cc2b5" x1="327.301" y1="282.981" x2="321.852" y2="273.528"/>
  <line class="uuid-fb2fa81e-0509-4b13-8518-87de159cc2b5" x1="266.716" y1="178.064" x2="262.272" y2="170.271"/>
  <line class="uuid-fb2fa81e-0509-4b13-8518-87de159cc2b5" x1="334.262" y1="272.428" x2="328.692" y2="262.828"/>
  <line class="uuid-fb2fa81e-0509-4b13-8518-87de159cc2b5" x1="275.609" y1="170.782" x2="270.896" y2="162.65"/>
  <line class="uuid-fb2fa81e-0509-4b13-8518-87de159cc2b5" x1="340.711" y1="261.019" x2="334.895" y2="251.004"/>
  <line class="uuid-fb2fa81e-0509-4b13-8518-87de159cc2b5" x1="285.087" y1="164.7" x2="280.031" y2="155.906"/>
  <line class="uuid-fb2fa81e-0509-4b13-8518-87de159cc2b5" x1="346.573" y1="248.585" x2="340.296" y2="237.79"/>
  <line class="uuid-fb2fa81e-0509-4b13-8518-87de159cc2b5" x1="295.419" y1="160.034" x2="289.727" y2="150.141"/>
  <line class="uuid-fb2fa81e-0509-4b13-8518-87de159cc2b5" x1="351.68" y1="234.906" x2="344.594" y2="222.642"/>
  <line class="uuid-fb2fa81e-0509-4b13-8518-87de159cc2b5" x1="306.928" y1="157.349" x2="300.136" y2="145.597"/>
  <line class="uuid-fb2fa81e-0509-4b13-8518-87de159cc2b5" x1="355.879" y1="219.588" x2="346.941" y2="204.08"/>
  <line class="uuid-fb2fa81e-0509-4b13-8518-87de159cc2b5" x1="320.387" y1="158.129" x2="311.493" y2="142.667"/>
  <line class="uuid-fb2fa81e-0509-4b13-8518-87de159cc2b5" x1="359.226" y1="202.807" x2="323.636" y2="141.177"/>
  <line class="uuid-fb2fa81e-0509-4b13-8518-87de159cc2b5" x1="356.346" y1="175.178" x2="342.177" y2="150.63"/>
  <line class="uuid-fb2fa81e-0509-4b13-8518-87de159cc2b5" x1="257.558" y1="313.346" x2="239.43" y2="302.868"/>
  <line class="uuid-fb2fa81e-0509-4b13-8518-87de159cc2b5" x1="274.51" y1="310.072" x2="254.577" y2="298.592"/>
  <line class="uuid-fb2fa81e-0509-4b13-8518-87de159cc2b5" x1="286.529" y1="304.011" x2="266.205" y2="292.263"/>
  <line class="uuid-fb2fa81e-0509-4b13-8518-87de159cc2b5" x1="296.57" y1="296.807" x2="276.072" y2="284.935"/>
  <line class="uuid-fb2fa81e-0509-4b13-8518-87de159cc2b5" x1="305.338" y1="288.794" x2="284.672" y2="276.851"/>
  <line class="uuid-fb2fa81e-0509-4b13-8518-87de159cc2b5" x1="313.084" y1="280.222" x2="292.343" y2="268.251"/>
  <line class="uuid-fb2fa81e-0509-4b13-8518-87de159cc2b5" x1="319.92" y1="271.133" x2="299.183" y2="259.164"/>
  <line class="uuid-fb2fa81e-0509-4b13-8518-87de159cc2b5" x1="326.027" y1="261.607" x2="305.242" y2="249.638"/>
  <line class="uuid-fb2fa81e-0509-4b13-8518-87de159cc2b5" x1="331.307" y1="251.64" x2="310.567" y2="239.693"/>
  <line class="uuid-fb2fa81e-0509-4b13-8518-87de159cc2b5" x1="335.826" y1="241.235" x2="315.207" y2="229.313"/>
  <line class="uuid-fb2fa81e-0509-4b13-8518-87de159cc2b5" x1="339.56" y1="230.339" x2="318.992" y2="218.467"/>
  <line class="uuid-fb2fa81e-0509-4b13-8518-87de159cc2b5" x1="342.276" y1="218.856" x2="321.9" y2="207.082"/>
  <line class="uuid-fb2fa81e-0509-4b13-8518-87de159cc2b5" x1="343.74" y1="206.644" x2="323.584" y2="195.04"/>
  <line class="uuid-fb2fa81e-0509-4b13-8518-87de159cc2b5" x1="343.276" y1="193.38" x2="323.636" y2="182.045"/>
  <line class="uuid-fb2fa81e-0509-4b13-8518-87de159cc2b5" x1="338.806" y1="177.747" x2="320.678" y2="167.264"/>
  <line class="uuid-fb2fa81e-0509-4b13-8518-87de159cc2b5" x1="242.336" y1="299.814" x2="225.68" y2="270.912"/>
  <line class="uuid-fb2fa81e-0509-4b13-8518-87de159cc2b5" x1="263.935" y1="292.142" x2="231.42" y2="235.764"/>
  <line class="uuid-fb2fa81e-0509-4b13-8518-87de159cc2b5" x1="281.253" y1="276.925" x2="266.546" y2="251.471"/>
  <line class="uuid-fb2fa81e-0509-4b13-8518-87de159cc2b5" x1="296.57" y1="258.332" x2="285.209" y2="238.596"/>
  <line class="uuid-fb2fa81e-0509-4b13-8518-87de159cc2b5" x1="259.122" y1="193.428" x2="258.364" y2="192.159"/>
  <line class="uuid-fb2fa81e-0509-4b13-8518-87de159cc2b5" x1="310.394" y1="237.058" x2="273.924" y2="173.883"/>
  <line class="uuid-fb2fa81e-0509-4b13-8518-87de159cc2b5" x1="319.457" y1="207.645" x2="293.664" y2="162.989"/>
  <line class="uuid-fb2fa81e-0509-4b13-8518-87de159cc2b5" x1="240.531" y1="236.448" x2="235.838" y2="228.261"/>
  <line class="uuid-fb2fa81e-0509-4b13-8518-87de159cc2b5" x1="257.311" y1="242.946" x2="241.409" y2="215.364"/>
  <line class="uuid-fb2fa81e-0509-4b13-8518-87de159cc2b5" x1="260.634" y1="226.064" x2="248.202" y2="204.518"/>
  <line class="uuid-fb2fa81e-0509-4b13-8518-87de159cc2b5" x1="267.89" y1="216.024" x2="256.336" y2="196.089"/>
  <line class="uuid-fb2fa81e-0509-4b13-8518-87de159cc2b5" x1="280.031" y1="241.061" x2="268.012" y2="220.151"/>
  <line class="uuid-fb2fa81e-0509-4b13-8518-87de159cc2b5" x1="103.904" y1="160.913" x2="93.741" y2="143.375"/>
  <line class="uuid-fb2fa81e-0509-4b13-8518-87de159cc2b5" x1="115.924" y1="136.634" x2="109.133" y2="124.86"/>
  <line class="uuid-fb2fa81e-0509-4b13-8518-87de159cc2b5" x1="132.581" y1="120.364" x2="131.654" y2="118.653"/>
  <line class="uuid-fb2fa81e-0509-4b13-8518-87de159cc2b5" x1="135.708" y1="217.783" x2="118.294" y2="187.564"/>
  <line class="uuid-fb2fa81e-0509-4b13-8518-87de159cc2b5" x1="147.556" y1="193.159" x2="127.062" y2="157.642"/>
  <line class="uuid-fb2fa81e-0509-4b13-8518-87de159cc2b5" x1="158.94" y1="167.658" x2="141.768" y2="137.902"/>
  <line class="uuid-fb2fa81e-0509-4b13-8518-87de159cc2b5" x1="174.574" y1="149.578" x2="160.626" y2="125.444"/>
  <line class="uuid-fb2fa81e-0509-4b13-8518-87de159cc2b5" x1="194.192" y1="138.462" x2="192.04" y2="134.701"/>
  <polygon class="uuid-376cc855-90a4-4d8c-b8a5-cc84d3d9e83a" points="195.241 299.081 195.241 299.03 195.193 299.004 195.241 299.081"/>
  <line class="uuid-fb2fa81e-0509-4b13-8518-87de159cc2b5" x1="207.504" y1="282.955" x2="190.307" y2="253.178"/>
  <line class="uuid-fb2fa81e-0509-4b13-8518-87de159cc2b5" x1="212.829" y1="247.047" x2="198.442" y2="222.105"/>
  <line class="uuid-fb2fa81e-0509-4b13-8518-87de159cc2b5" x1="223.185" y1="219.835" x2="210.12" y2="197.214"/>
  <line class="uuid-fb2fa81e-0509-4b13-8518-87de159cc2b5" x1="236.133" y1="197.02" x2="224.286" y2="176.548"/>
  <line class="uuid-fb2fa81e-0509-4b13-8518-87de159cc2b5" x1="250.939" y1="177.599" x2="239.845" y2="158.374"/>
  <line class="uuid-fb2fa81e-0509-4b13-8518-87de159cc2b5" x1="267.599" y1="161.282" x2="257.558" y2="143.911"/>
  <line class="uuid-fb2fa81e-0509-4b13-8518-87de159cc2b5" x1="286.236" y1="148.407" x2="277.636" y2="133.58"/>
  <line class="uuid-fb2fa81e-0509-4b13-8518-87de159cc2b5" x1="307.487" y1="140.15" x2="301.917" y2="130.452"/>
  <line class="uuid-fb2fa81e-0509-4b13-8518-87de159cc2b5" x1="168.882" y1="255.743" x2="150.294" y2="266.468"/>
  <line class="uuid-fb2fa81e-0509-4b13-8518-87de159cc2b5" x1="153.248" y1="238.692" x2="147.755" y2="241.867"/>
  <line class="uuid-fb2fa81e-0509-4b13-8518-87de159cc2b5" x1="152.564" y1="205.302" x2="149.319" y2="199.605"/>
  <line class="uuid-fb2fa81e-0509-4b13-8518-87de159cc2b5" x1="156.228" y1="189.054" x2="153.59" y2="184.462"/>
  <line class="uuid-fb2fa81e-0509-4b13-8518-87de159cc2b5" x1="161.898" y1="176.231" x2="159.577" y2="172.25"/>
  <line class="uuid-fb2fa81e-0509-4b13-8518-87de159cc2b5" x1="168.712" y1="165.506" x2="166.659" y2="162.014"/>
  <line class="uuid-fb2fa81e-0509-4b13-8518-87de159cc2b5" x1="176.479" y1="156.421" x2="174.795" y2="153.463"/>
  <line class="uuid-fb2fa81e-0509-4b13-8518-87de159cc2b5" x1="185.251" y1="149.018" x2="183.908" y2="146.744"/>
  <line class="uuid-fb2fa81e-0509-4b13-8518-87de159cc2b5" x1="195.193" y1="143.621" x2="194.483" y2="142.421"/>
  <line class="uuid-fb2fa81e-0509-4b13-8518-87de159cc2b5" x1="147.923" y1="273.086" x2="139.667" y2="277.825"/>
  <line class="uuid-fb2fa81e-0509-4b13-8518-87de159cc2b5" x1="146.455" y1="260.875" x2="137.103" y2="266.272"/>
  <line class="uuid-fb2fa81e-0509-4b13-8518-87de159cc2b5" x1="144.943" y1="248.685" x2="135.539" y2="254.13"/>
  <line class="uuid-fb2fa81e-0509-4b13-8518-87de159cc2b5" x1="143.501" y1="236.518" x2="134.023" y2="241.993"/>
  <line class="uuid-fb2fa81e-0509-4b13-8518-87de159cc2b5" x1="141.231" y1="224.77" x2="132.459" y2="229.824"/>
  <line class="uuid-fb2fa81e-0509-4b13-8518-87de159cc2b5" x1="113.188" y1="194.308" x2="105.346" y2="180.723"/>
  <line class="uuid-fb2fa81e-0509-4b13-8518-87de159cc2b5" x1="109.231" y1="164.872" x2="107.326" y2="161.645"/>
  <line class="uuid-fb2fa81e-0509-4b13-8518-87de159cc2b5" x1="114.239" y1="151.02" x2="112.723" y2="148.429"/>
  <line class="uuid-fb2fa81e-0509-4b13-8518-87de159cc2b5" x1="120.98" y1="140.104" x2="119.637" y2="137.756"/>
  <line class="uuid-fb2fa81e-0509-4b13-8518-87de159cc2b5" x1="128.993" y1="131.38" x2="127.651" y2="129.084"/>
  <line class="uuid-fb2fa81e-0509-4b13-8518-87de159cc2b5" x1="138.325" y1="124.955" x2="136.883" y2="122.464"/>
  <line class="uuid-fb2fa81e-0509-4b13-8518-87de159cc2b5" x1="149.587" y1="121.902" x2="147.923" y2="119.068"/>
</svg>