<?xml version="1.0" encoding="UTF-8"?>
<svg id="uuid-4ef9f40e-9968-464d-94ac-e1a926d54e3a" data-name="&amp;lt;Layer&amp;gt;" xmlns="http://www.w3.org/2000/svg" viewBox="0 0 451.11 451.11">
  <defs>
    <style>
      .uuid-64aba6e5-b861-4887-8503-5676d4f961b2, .uuid-0a074e37-7ad3-4cea-96bd-308e005f841d, .uuid-5b2b9cc2-ffcc-4be8-b8f6-a0d5bad05e4f {
        fill: none;
        stroke: #000;
        stroke-linecap: round;
      }

      .uuid-64aba6e5-b861-4887-8503-5676d4f961b2, .uuid-5b2b9cc2-ffcc-4be8-b8f6-a0d5bad05e4f {
        stroke-linejoin: round;
        stroke-width: 4.113px;
      }

      .uuid-0a074e37-7ad3-4cea-96bd-308e005f841d {
        stroke-miterlimit: 10;
        stroke-width: 1.163px;
      }

      .uuid-5b2b9cc2-ffcc-4be8-b8f6-a0d5bad05e4f {
        fill-rule: evenodd;
      }
    </style>
  </defs>
  <polyline class="uuid-5b2b9cc2-ffcc-4be8-b8f6-a0d5bad05e4f" points="306.656 184.417 317.161 190.524 166.195 277.56 133.949 258.921 144.454 252.887"/>
  <polygon class="uuid-5b2b9cc2-ffcc-4be8-b8f6-a0d5bad05e4f" points="166.195 277.56 133.949 258.921 133.949 275.607 166.195 294.242 166.195 277.56"/>
  <polygon class="uuid-5b2b9cc2-ffcc-4be8-b8f6-a0d5bad05e4f" points="317.161 190.498 166.195 277.56 166.195 294.242 317.161 207.208 317.161 190.498"/>
  <polyline class="uuid-5b2b9cc2-ffcc-4be8-b8f6-a0d5bad05e4f" points="306.656 155.615 317.161 161.697 166.195 248.758 133.949 230.122 144.454 224.084"/>
  <polygon class="uuid-5b2b9cc2-ffcc-4be8-b8f6-a0d5bad05e4f" points="166.195 248.736 133.949 230.096 133.949 246.804 166.195 265.443 166.195 248.736"/>
  <polygon class="uuid-5b2b9cc2-ffcc-4be8-b8f6-a0d5bad05e4f" points="317.161 161.671 166.195 248.736 166.195 265.443 317.161 178.383 317.161 161.671"/>
  <polyline class="uuid-5b2b9cc2-ffcc-4be8-b8f6-a0d5bad05e4f" points="147.386 193.575 147.386 193.575 133.949 201.32 158.867 215.707 166.195 219.886 292 147.259 317.161 132.846 303.726 125.175"/>
  <polygon class="uuid-5b2b9cc2-ffcc-4be8-b8f6-a0d5bad05e4f" points="166.195 219.934 133.949 201.294 133.949 217.98 166.195 236.616 166.195 219.934"/>
  <polygon class="uuid-5b2b9cc2-ffcc-4be8-b8f6-a0d5bad05e4f" points="317.161 132.872 166.195 219.934 166.195 236.616 317.161 149.556 317.161 132.872"/>
  <polyline class="uuid-5b2b9cc2-ffcc-4be8-b8f6-a0d5bad05e4f" points="306.656 94.74 317.161 100.848 247.053 141.277 214.808 122.636 225.311 116.602"/>
  <polyline class="uuid-5b2b9cc2-ffcc-4be8-b8f6-a0d5bad05e4f" points="214.808 123.273 214.808 122.636 247.053 141.277 247.053 157.933 227.998 146.965 223.358 144.352"/>
  <polygon class="uuid-5b2b9cc2-ffcc-4be8-b8f6-a0d5bad05e4f" points="317.161 100.848 247.053 141.251 247.053 157.933 317.161 117.53 317.161 100.848"/>
  <polyline class="uuid-5b2b9cc2-ffcc-4be8-b8f6-a0d5bad05e4f" points="306.656 65.937 317.161 72.045 292.243 86.457 292 86.457 247.053 112.4 239.724 108.225 214.808 93.761 225.311 87.731"/>
  <polygon class="uuid-5b2b9cc2-ffcc-4be8-b8f6-a0d5bad05e4f" points="247.053 112.426 214.808 93.787 214.808 110.495 247.053 129.108 247.053 112.426"/>
  <polygon class="uuid-5b2b9cc2-ffcc-4be8-b8f6-a0d5bad05e4f" points="317.161 72.023 247.053 112.426 247.053 129.108 317.161 88.731 317.161 72.023"/>
  <polygon class="uuid-5b2b9cc2-ffcc-4be8-b8f6-a0d5bad05e4f" points="317.161 43.195 284.672 24.556 214.808 64.962 247.053 83.599 317.161 43.195"/>
  <polygon class="uuid-5b2b9cc2-ffcc-4be8-b8f6-a0d5bad05e4f" points="247.053 83.599 214.808 64.962 214.808 81.645 247.053 100.285 247.053 83.599"/>
  <polygon class="uuid-5b2b9cc2-ffcc-4be8-b8f6-a0d5bad05e4f" points="317.161 43.195 247.053 83.599 247.053 100.285 317.161 59.882 317.161 43.195"/>
  <path class="uuid-5b2b9cc2-ffcc-4be8-b8f6-a0d5bad05e4f" d="M206.014,106.025c0-.074.243-.122.489-.17.243-.12.489-.12.732,0q0-.072,0,0"/>
  <polyline class="uuid-5b2b9cc2-ffcc-4be8-b8f6-a0d5bad05e4f" points="136.883 187.662 147.386 193.575 147.386 193.575 168.881 206.081"/>
  <polyline class="uuid-5b2b9cc2-ffcc-4be8-b8f6-a0d5bad05e4f" points="168.395 203.762 176.211 176.867 176.211 176.867 183.541 151.85"/>
  <path class="uuid-5b2b9cc2-ffcc-4be8-b8f6-a0d5bad05e4f" d="M232.637,166.583c0,.243.247.537.247.88,0,1.269-.979,2.906-2.2,3.543"/>
  <path class="uuid-5b2b9cc2-ffcc-4be8-b8f6-a0d5bad05e4f" d="M221.647,176.231c-.489.341-.979.393-1.464.121,0,0,0-.07-.247-.07"/>
  <polyline class="uuid-5b2b9cc2-ffcc-4be8-b8f6-a0d5bad05e4f" points="219.936 176.281 219.936 176.183 201.37 165.483"/>
  <path class="uuid-5b2b9cc2-ffcc-4be8-b8f6-a0d5bad05e4f" d="M219.694,175.814c0,.052,0,.126.243.174v.195"/>
  <polyline class="uuid-5b2b9cc2-ffcc-4be8-b8f6-a0d5bad05e4f" points="203.082 132.898 203.082 133.02 209.189 148.065"/>
  <polyline class="uuid-5b2b9cc2-ffcc-4be8-b8f6-a0d5bad05e4f" points="170.349 205.912 170.349 205.912 180.118 200.293"/>
  <polyline class="uuid-5b2b9cc2-ffcc-4be8-b8f6-a0d5bad05e4f" points="181.83 197.508 188.912 172.565 213.096 158.544 219.694 175.792"/>
  <path class="uuid-5b2b9cc2-ffcc-4be8-b8f6-a0d5bad05e4f" d="M193.067,157.347c2.685-9.963,5.618-20.005,8.061-29.924.732,1.833,1.221,3.664,1.955,5.475"/>
  <line class="uuid-64aba6e5-b861-4887-8503-5676d4f961b2" x1="192.334" y1="122.221" x2="194.777" y2="114.159"/>
  <path class="uuid-5b2b9cc2-ffcc-4be8-b8f6-a0d5bad05e4f" d="M194.777,114.159c0-1.051.975-2.148,1.707-2.685"/>
  <line class="uuid-64aba6e5-b861-4887-8503-5676d4f961b2" x1="196.484" y1="111.474" x2="206.014" y2="106.025"/>
  <line class="uuid-64aba6e5-b861-4887-8503-5676d4f961b2" x1="214.808" y1="123.273" x2="207.968" y2="106.492"/>
  <line class="uuid-64aba6e5-b861-4887-8503-5676d4f961b2" x1="207.235" y1="105.854" x2="175.479" y2="87.51"/>
  <path class="uuid-5b2b9cc2-ffcc-4be8-b8f6-a0d5bad05e4f" d="M175.479,87.51c-.489-.247-.732-.125-1.468.169"/>
  <line class="uuid-64aba6e5-b861-4887-8503-5676d4f961b2" x1="174.011" y1="87.679" x2="164.731" y2="93.081"/>
  <path class="uuid-5b2b9cc2-ffcc-4be8-b8f6-a0d5bad05e4f" d="M164.731,93.081c-.979.68-1.468,1.486-1.954,2.708"/>
  <line class="uuid-64aba6e5-b861-4887-8503-5676d4f961b2" x1="162.778" y1="95.788" x2="136.636" y2="185.344"/>
  <path class="uuid-5b2b9cc2-ffcc-4be8-b8f6-a0d5bad05e4f" d="M136.636,185.344c-.243.88-.487,1.685.247,2.318"/>
  <line class="uuid-64aba6e5-b861-4887-8503-5676d4f961b2" x1="225.311" y1="148.653" x2="232.637" y2="166.583"/>
  <line class="uuid-64aba6e5-b861-4887-8503-5676d4f961b2" x1="230.684" y1="171.006" x2="221.647" y2="176.231"/>
  <line class="uuid-64aba6e5-b861-4887-8503-5676d4f961b2" x1="232.637" y1="166.583" x2="207.968" y2="106.466"/>
  <line class="uuid-64aba6e5-b861-4887-8503-5676d4f961b2" x1="194.531" y1="114.159" x2="168.395" y2="203.738"/>
  <path class="uuid-5b2b9cc2-ffcc-4be8-b8f6-a0d5bad05e4f" d="M180.118,200.293c.733-.537,1.712-1.685,1.712-2.785"/>
  <line class="uuid-64aba6e5-b861-4887-8503-5676d4f961b2" x1="209.189" y1="148.09" x2="193.067" y2="157.347"/>
  <line class="uuid-0a074e37-7ad3-4cea-96bd-308e005f841d" x1="163.02" y1="273.579" x2="156.18" y2="261.727"/>
  <line class="uuid-0a074e37-7ad3-4cea-96bd-308e005f841d" x1="184.273" y1="265.102" x2="180.607" y2="259.164"/>
  <line class="uuid-0a074e37-7ad3-4cea-96bd-308e005f841d" x1="203.814" y1="253.791" x2="200.395" y2="247.853"/>
  <line class="uuid-0a074e37-7ad3-4cea-96bd-308e005f841d" x1="223.358" y1="242.481" x2="219.936" y2="236.546"/>
  <line class="uuid-0a074e37-7ad3-4cea-96bd-308e005f841d" x1="242.899" y1="231.244" x2="239.478" y2="225.283"/>
  <line class="uuid-0a074e37-7ad3-4cea-96bd-308e005f841d" x1="262.441" y1="219.982" x2="259.022" y2="214.021"/>
  <line class="uuid-0a074e37-7ad3-4cea-96bd-308e005f841d" x1="281.985" y1="208.672" x2="278.563" y2="202.711"/>
  <line class="uuid-0a074e37-7ad3-4cea-96bd-308e005f841d" x1="301.526" y1="197.361" x2="298.108" y2="191.4"/>
  <line class="uuid-0a074e37-7ad3-4cea-96bd-308e005f841d" x1="139.811" y1="247.952" x2="135.904" y2="241.139"/>
  <line class="uuid-0a074e37-7ad3-4cea-96bd-308e005f841d" x1="159.846" y1="259.752" x2="148.851" y2="240.575"/>
  <line class="uuid-0a074e37-7ad3-4cea-96bd-308e005f841d" x1="162.778" y1="244.582" x2="155.691" y2="232.709"/>
  <line class="uuid-0a074e37-7ad3-4cea-96bd-308e005f841d" x1="184.026" y1="236.326" x2="180.607" y2="230.413"/>
  <line class="uuid-0a074e37-7ad3-4cea-96bd-308e005f841d" x1="203.571" y1="225.088" x2="200.148" y2="219.154"/>
  <line class="uuid-0a074e37-7ad3-4cea-96bd-308e005f841d" x1="223.111" y1="213.778" x2="219.694" y2="207.818"/>
  <line class="uuid-0a074e37-7ad3-4cea-96bd-308e005f841d" x1="242.657" y1="202.515" x2="239.235" y2="196.555"/>
  <line class="uuid-0a074e37-7ad3-4cea-96bd-308e005f841d" x1="262.198" y1="191.206" x2="258.779" y2="185.245"/>
  <line class="uuid-0a074e37-7ad3-4cea-96bd-308e005f841d" x1="281.739" y1="179.895" x2="278.32" y2="173.96"/>
  <line class="uuid-0a074e37-7ad3-4cea-96bd-308e005f841d" x1="301.283" y1="168.636" x2="297.862" y2="162.698"/>
  <line class="uuid-0a074e37-7ad3-4cea-96bd-308e005f841d" x1="139.811" y1="219.154" x2="135.904" y2="212.262"/>
  <line class="uuid-0a074e37-7ad3-4cea-96bd-308e005f841d" x1="159.846" y1="230.925" x2="148.851" y2="211.726"/>
  <line class="uuid-0a074e37-7ad3-4cea-96bd-308e005f841d" x1="148.362" y1="192.059" x2="140.3" y2="178.309"/>
  <line class="uuid-0a074e37-7ad3-4cea-96bd-308e005f841d" x1="167.417" y1="203.126" x2="144.207" y2="162.628"/>
  <line class="uuid-0a074e37-7ad3-4cea-96bd-308e005f841d" x1="172.057" y1="188.03" x2="148.609" y2="147.576"/>
  <line class="uuid-0a074e37-7ad3-4cea-96bd-308e005f841d" x1="176.453" y1="173.129" x2="153.005" y2="132.505"/>
  <line class="uuid-0a074e37-7ad3-4cea-96bd-308e005f841d" x1="180.851" y1="158.301" x2="157.401" y2="117.725"/>
  <line class="uuid-0a074e37-7ad3-4cea-96bd-308e005f841d" x1="185.247" y1="143.23" x2="161.799" y2="102.68"/>
  <line class="uuid-0a074e37-7ad3-4cea-96bd-308e005f841d" x1="189.644" y1="128.159" x2="168.395" y2="91.759"/>
  <line class="uuid-0a074e37-7ad3-4cea-96bd-308e005f841d" x1="193.556" y1="112.769" x2="182.562" y2="93.396"/>
  <line class="uuid-0a074e37-7ad3-4cea-96bd-308e005f841d" x1="202.591" y1="105.634" x2="202.591" y2="105.34"/>
  <line class="uuid-0a074e37-7ad3-4cea-96bd-308e005f841d" x1="243.631" y1="137.122" x2="236.792" y2="125.249"/>
  <line class="uuid-0a074e37-7ad3-4cea-96bd-308e005f841d" x1="264.884" y1="128.891" x2="261.466" y2="122.953"/>
  <line class="uuid-0a074e37-7ad3-4cea-96bd-308e005f841d" x1="284.429" y1="117.655" x2="281.006" y2="111.668"/>
  <line class="uuid-0a074e37-7ad3-4cea-96bd-308e005f841d" x1="303.969" y1="106.392" x2="300.305" y2="100.405"/>
  <line class="uuid-0a074e37-7ad3-4cea-96bd-308e005f841d" x1="220.668" y1="111.573" x2="216.762" y2="104.902"/>
  <line class="uuid-0a074e37-7ad3-4cea-96bd-308e005f841d" x1="240.457" y1="123.273" x2="229.22" y2="104.049"/>
  <line class="uuid-0a074e37-7ad3-4cea-96bd-308e005f841d" x1="243.631" y1="108.273" x2="236.792" y2="96.425"/>
  <line class="uuid-0a074e37-7ad3-4cea-96bd-308e005f841d" x1="264.884" y1="100.064" x2="261.466" y2="94.104"/>
  <line class="uuid-0a074e37-7ad3-4cea-96bd-308e005f841d" x1="284.429" y1="88.805" x2="281.006" y2="82.845"/>
  <line class="uuid-0a074e37-7ad3-4cea-96bd-308e005f841d" x1="303.969" y1="77.543" x2="300.305" y2="71.582"/>
  <line class="uuid-0a074e37-7ad3-4cea-96bd-308e005f841d" x1="220.668" y1="82.793" x2="216.762" y2="76.052"/>
  <line class="uuid-0a074e37-7ad3-4cea-96bd-308e005f841d" x1="240.457" y1="94.445" x2="229.22" y2="75.246"/>
  <line class="uuid-0a074e37-7ad3-4cea-96bd-308e005f841d" x1="243.878" y1="79.865" x2="230.684" y2="57.144"/>
  <line class="uuid-0a074e37-7ad3-4cea-96bd-308e005f841d" x1="265.373" y1="71.899" x2="250.229" y2="45.76"/>
  <line class="uuid-0a074e37-7ad3-4cea-96bd-308e005f841d" x1="284.914" y1="60.588" x2="269.769" y2="34.475"/>
  <line class="uuid-0a074e37-7ad3-4cea-96bd-308e005f841d" x1="304.216" y1="49.009" x2="294.444" y2="32.106"/>
  <line class="uuid-0a074e37-7ad3-4cea-96bd-308e005f841d" x1="243.142" y1="153.709" x2="232.152" y2="134.51"/>
  <line class="uuid-0a074e37-7ad3-4cea-96bd-308e005f841d" x1="181.83" y1="191.18" x2="176.7" y2="182.121"/>
  <line class="uuid-0a074e37-7ad3-4cea-96bd-308e005f841d" x1="194.531" y1="167.731" x2="185.247" y2="152.049"/>
  <line class="uuid-0a074e37-7ad3-4cea-96bd-308e005f841d" x1="223.843" y1="173.228" x2="215.787" y2="159.449"/>
  <line class="uuid-0a074e37-7ad3-4cea-96bd-308e005f841d" x1="214.319" y1="156.984" x2="210.168" y2="149.628"/>
  <line class="uuid-0a074e37-7ad3-4cea-96bd-308e005f841d" x1="198.684" y1="130.014" x2="194.288" y2="122.321"/>
  <line class="uuid-0a074e37-7ad3-4cea-96bd-308e005f841d" x1="162.778" y1="215.927" x2="153.005" y2="198.903"/>
  <line class="uuid-0a074e37-7ad3-4cea-96bd-308e005f841d" x1="184.026" y1="207.45" x2="180.851" y2="201.931"/>
  <line class="uuid-0a074e37-7ad3-4cea-96bd-308e005f841d" x1="204.061" y1="196.775" x2="190.38" y2="173.154"/>
  <line class="uuid-0a074e37-7ad3-4cea-96bd-308e005f841d" x1="223.111" y1="184.977" x2="218.962" y2="177.916"/>
  <line class="uuid-0a074e37-7ad3-4cea-96bd-308e005f841d" x1="243.142" y1="174.251" x2="228.488" y2="149.044"/>
  <line class="uuid-0a074e37-7ad3-4cea-96bd-308e005f841d" x1="262.441" y1="162.407" x2="257.558" y2="153.978"/>
  <line class="uuid-0a074e37-7ad3-4cea-96bd-308e005f841d" x1="281.985" y1="151.144" x2="277.099" y2="142.715"/>
  <line class="uuid-0a074e37-7ad3-4cea-96bd-308e005f841d" x1="301.283" y1="139.882" x2="296.64" y2="131.43"/>
  <line class="uuid-0a074e37-7ad3-4cea-96bd-308e005f841d" x1="139.811" y1="276.754" x2="135.904" y2="269.962"/>
  <line class="uuid-0a074e37-7ad3-4cea-96bd-308e005f841d" x1="159.846" y1="288.551" x2="148.609" y2="269.352"/>
  <line class="uuid-0a074e37-7ad3-4cea-96bd-308e005f841d" x1="205.035" y1="148.555" x2="199.906" y2="139.834"/>
</svg>