<?xml version="1.0" encoding="UTF-8"?>
<svg id="uuid-ea1069ad-52c3-43f1-a421-63d51780782e" data-name="&amp;lt;Layer&amp;gt;" xmlns="http://www.w3.org/2000/svg" viewBox="0 0 451.11 451.11">
  <defs>
    <style>
      .uuid-bcdd6d47-2f22-4891-8132-22420d66610b {
        stroke-width: 4.117px;
      }

      .uuid-bcdd6d47-2f22-4891-8132-22420d66610b, .uuid-a87e85d2-866d-42df-8013-96c6a11524e9, .uuid-6e570dba-f3e9-441b-98cc-a7e5e0b78abb, .uuid-4f8389c3-0945-4b8c-b27f-787feb225fea, .uuid-17a9bcff-eaba-4840-a5fb-7baf23934d4b {
        fill: none;
        stroke: #000;
        stroke-linecap: round;
      }

      .uuid-bcdd6d47-2f22-4891-8132-22420d66610b, .uuid-a87e85d2-866d-42df-8013-96c6a11524e9, .uuid-17a9bcff-eaba-4840-a5fb-7baf23934d4b {
        stroke-linejoin: round;
      }

      .uuid-a87e85d2-866d-42df-8013-96c6a11524e9, .uuid-17a9bcff-eaba-4840-a5fb-7baf23934d4b {
        stroke-width: 4.113px;
      }

      .uuid-6e570dba-f3e9-441b-98cc-a7e5e0b78abb {
        stroke-width: 1.163px;
      }

      .uuid-6e570dba-f3e9-441b-98cc-a7e5e0b78abb, .uuid-4f8389c3-0945-4b8c-b27f-787feb225fea {
        stroke-miterlimit: 10;
      }

      .uuid-4f8389c3-0945-4b8c-b27f-787feb225fea {
        stroke-width: 1.159px;
      }

      .uuid-17a9bcff-eaba-4840-a5fb-7baf23934d4b {
        fill-rule: evenodd;
      }
    </style>
  </defs>
  <line class="uuid-a87e85d2-866d-42df-8013-96c6a11524e9" x1="97.825" y1="293.836" x2="91.5" y2="289.535"/>
  <path class="uuid-17a9bcff-eaba-4840-a5fb-7baf23934d4b" d="M91.5,289.535c-1.005-1.711-1.295-3.175-1.295-5.128"/>
  <line class="uuid-a87e85d2-866d-42df-8013-96c6a11524e9" x1="90.205" y1="284.406" x2="90.205" y2="182.2"/>
  <path class="uuid-17a9bcff-eaba-4840-a5fb-7baf23934d4b" d="M90.205,182.2c.195-7.109,4.64-14.832,10.7-18.518"/>
  <line class="uuid-a87e85d2-866d-42df-8013-96c6a11524e9" x1="100.904" y1="163.682" x2="244.908" y2="80.628"/>
  <path class="uuid-17a9bcff-eaba-4840-a5fb-7baf23934d4b" d="M244.908,80.628c2.443-1.321,5.008-2.101,7.549-.736"/>
  <line class="uuid-a87e85d2-866d-42df-8013-96c6a11524e9" x1="252.457" y1="79.892" x2="258.782" y2="84.192"/>
  <path class="uuid-17a9bcff-eaba-4840-a5fb-7baf23934d4b" d="M258.782,84.192c-2.613-1.368-5.104-.584-7.547.732"/>
  <line class="uuid-a87e85d2-866d-42df-8013-96c6a11524e9" x1="251.236" y1="84.924" x2="107.233" y2="167.979"/>
  <path class="uuid-17a9bcff-eaba-4840-a5fb-7baf23934d4b" d="M107.233,167.979c-6.06,3.69-10.505,11.483-10.677,18.519"/>
  <line class="uuid-a87e85d2-866d-42df-8013-96c6a11524e9" x1="96.556" y1="186.498" x2="96.482" y2="288.703"/>
  <path class="uuid-17a9bcff-eaba-4840-a5fb-7baf23934d4b" d="M96.482,288.703c.074,1.955.295,3.423,1.344,5.134"/>
  <path class="uuid-17a9bcff-eaba-4840-a5fb-7baf23934d4b" d="M251.236,84.924c5.888-3.396,10.699-.61,10.699,6.182"/>
  <line class="uuid-a87e85d2-866d-42df-8013-96c6a11524e9" x1="261.935" y1="91.106" x2="261.885" y2="193.311"/>
  <path class="uuid-17a9bcff-eaba-4840-a5fb-7baf23934d4b" d="M261.885,193.311c0,6.793-4.835,15.123-10.699,18.519"/>
  <line class="uuid-a87e85d2-866d-42df-8013-96c6a11524e9" x1="251.185" y1="211.83" x2="246.298" y2="214.347"/>
  <path class="uuid-17a9bcff-eaba-4840-a5fb-7baf23934d4b" d="M107.115,294.697c-5.86,3.393-10.633.798-10.633-5.994"/>
  <polyline class="uuid-17a9bcff-eaba-4840-a5fb-7baf23934d4b" points="107.865 175.651 145.778 153.788 250.6 93.329"/>
  <path class="uuid-17a9bcff-eaba-4840-a5fb-7baf23934d4b" d="M250.6,93.329c2.69-1.538,4.886-.295,4.886,2.832"/>
  <line class="uuid-a87e85d2-866d-42df-8013-96c6a11524e9" x1="255.485" y1="96.161" x2="255.413" y2="195.685"/>
  <path class="uuid-17a9bcff-eaba-4840-a5fb-7baf23934d4b" d="M255.413,195.685c0,3.123-2.123,6.909-4.861,8.473"/>
  <polyline class="uuid-17a9bcff-eaba-4840-a5fb-7baf23934d4b" points="250.552 204.159 132.318 272.363 107.865 286.48"/>
  <path class="uuid-17a9bcff-eaba-4840-a5fb-7baf23934d4b" d="M107.865,286.48c-2.737,1.542-4.934.295-4.934-2.832"/>
  <line class="uuid-a87e85d2-866d-42df-8013-96c6a11524e9" x1="102.931" y1="283.648" x2="102.979" y2="184.128"/>
  <path class="uuid-17a9bcff-eaba-4840-a5fb-7baf23934d4b" d="M102.979,184.128c0-3.101,2.2-6.913,4.886-8.477"/>
  <polyline class="uuid-17a9bcff-eaba-4840-a5fb-7baf23934d4b" points="228.71 131.388 228.71 199.614 129.755 256.777 129.755 188.526"/>
  <polygon class="uuid-17a9bcff-eaba-4840-a5fb-7baf23934d4b" points="129.755 188.526 228.71 131.388 228.71 121.542 129.755 178.705 129.755 188.526"/>
  <path class="uuid-17a9bcff-eaba-4840-a5fb-7baf23934d4b" d="M154.84,190.309c1.347-.783,2.444-.147,2.444,1.417"/>
  <path class="uuid-17a9bcff-eaba-4840-a5fb-7baf23934d4b" d="M157.284,191.726c0,1.538-1.097,3.418-2.444,4.176"/>
  <path class="uuid-17a9bcff-eaba-4840-a5fb-7baf23934d4b" d="M154.84,195.902c-1.316.784-2.443.147-2.443-1.391"/>
  <path class="uuid-17a9bcff-eaba-4840-a5fb-7baf23934d4b" d="M152.397,194.511c0-1.541,1.127-3.422,2.443-4.202"/>
  <path class="uuid-17a9bcff-eaba-4840-a5fb-7baf23934d4b" d="M154.84,205.38c1.347-.78,2.444-.147,2.444,1.394"/>
  <path class="uuid-17a9bcff-eaba-4840-a5fb-7baf23934d4b" d="M157.284,206.774c0,1.538-1.097,3.419-2.444,4.199"/>
  <path class="uuid-17a9bcff-eaba-4840-a5fb-7baf23934d4b" d="M154.84,210.973c-1.316.758-2.443.146-2.443-1.391"/>
  <path class="uuid-17a9bcff-eaba-4840-a5fb-7baf23934d4b" d="M152.397,209.582c0-1.564,1.127-3.444,2.443-4.202"/>
  <path class="uuid-17a9bcff-eaba-4840-a5fb-7baf23934d4b" d="M154.84,221.382c1.347-.784,2.444-.147,2.444,1.39"/>
  <path class="uuid-17a9bcff-eaba-4840-a5fb-7baf23934d4b" d="M157.284,222.772c0,1.542-1.097,3.423-2.444,4.203"/>
  <path class="uuid-17a9bcff-eaba-4840-a5fb-7baf23934d4b" d="M154.84,226.975c-1.316.758-2.443.147-2.443-1.417"/>
  <path class="uuid-17a9bcff-eaba-4840-a5fb-7baf23934d4b" d="M152.397,225.557c0-1.516,1.127-3.418,2.443-4.176"/>
  <line class="uuid-a87e85d2-866d-42df-8013-96c6a11524e9" x1="360.771" y1="273.169" x2="360.771" y2="280.961"/>
  <path class="uuid-17a9bcff-eaba-4840-a5fb-7baf23934d4b" d="M360.771,280.961c-.71,2.37-2.274,3.712-4.298,4.96"/>
  <line class="uuid-a87e85d2-866d-42df-8013-96c6a11524e9" x1="356.474" y1="285.921" x2="211.93" y2="369.391"/>
  <path class="uuid-17a9bcff-eaba-4840-a5fb-7baf23934d4b" d="M211.93,369.391c-3.198,1.758-6.377,2.392-9.989,2.539"/>
  <line class="uuid-a87e85d2-866d-42df-8013-96c6a11524e9" x1="190.505" y1="369.391" x2="101.71" y2="318.02"/>
  <path class="uuid-17a9bcff-eaba-4840-a5fb-7baf23934d4b" d="M101.71,318.02c-2.028-1.221-3.592-2.591-4.25-4.938"/>
  <line class="uuid-a87e85d2-866d-42df-8013-96c6a11524e9" x1="97.46" y1="313.083" x2="97.46" y2="305.268"/>
  <path class="uuid-17a9bcff-eaba-4840-a5fb-7baf23934d4b" d="M97.46,305.268c.658,2.344,2.222,3.712,4.25,4.96"/>
  <line class="uuid-a87e85d2-866d-42df-8013-96c6a11524e9" x1="101.71" y1="310.227" x2="190.505" y2="361.548"/>
  <path class="uuid-17a9bcff-eaba-4840-a5fb-7baf23934d4b" d="M201.94,364.115c3.612-.146,6.791-.782,9.989-2.541"/>
  <line class="uuid-a87e85d2-866d-42df-8013-96c6a11524e9" x1="211.93" y1="361.574" x2="356.474" y2="278.077"/>
  <path class="uuid-17a9bcff-eaba-4840-a5fb-7baf23934d4b" d="M356.474,278.077c2.024-1.221,3.588-2.565,4.298-4.908"/>
  <line class="uuid-a87e85d2-866d-42df-8013-96c6a11524e9" x1="101.71" y1="297.817" x2="246.298" y2="214.347"/>
  <path class="uuid-17a9bcff-eaba-4840-a5fb-7baf23934d4b" d="M246.298,214.347c5.866-3.422,15.516-3.422,21.451,0"/>
  <line class="uuid-a87e85d2-866d-42df-8013-96c6a11524e9" x1="267.749" y1="214.347" x2="356.474" y2="265.693"/>
  <path class="uuid-17a9bcff-eaba-4840-a5fb-7baf23934d4b" d="M356.474,265.693c5.909,3.395,5.909,8.989,0,12.384"/>
  <path class="uuid-17a9bcff-eaba-4840-a5fb-7baf23934d4b" d="M101.71,310.227c-5.864-3.422-5.864-9.015,0-12.41"/>
  <polygon class="uuid-17a9bcff-eaba-4840-a5fb-7baf23934d4b" points="257.123 327.009 296.646 304.142 266.403 286.654 226.857 309.517 257.123 327.009"/>
  <path class="uuid-17a9bcff-eaba-4840-a5fb-7baf23934d4b" d="M119.834,300.723c43.778-25.306,87.551-50.617,131.402-75.924,3.15-1.807,8.305-1.807,11.457.026"/>
  <line class="uuid-a87e85d2-866d-42df-8013-96c6a11524e9" x1="262.693" y1="224.825" x2="307.468" y2="250.718"/>
  <path class="uuid-17a9bcff-eaba-4840-a5fb-7baf23934d4b" d="M307.468,250.718c3.175,1.81,3.128,4.812,0,6.622-43.8,25.281-87.572,50.613-131.424,75.898-3.149,1.833-8.303,1.807-11.457,0"/>
  <line class="uuid-a87e85d2-866d-42df-8013-96c6a11524e9" x1="164.586" y1="333.238" x2="119.834" y2="307.317"/>
  <path class="uuid-17a9bcff-eaba-4840-a5fb-7baf23934d4b" d="M119.834,307.317c-3.149-1.807-3.149-4.787,0-6.594"/>
  <polyline class="uuid-17a9bcff-eaba-4840-a5fb-7baf23934d4b" points="202.061 371.93 202.061 364.115 201.94 364.115"/>
  <path class="uuid-17a9bcff-eaba-4840-a5fb-7baf23934d4b" d="M201.94,364.115c-4.055.048-7.841-.562-11.435-2.567"/>
  <path class="uuid-17a9bcff-eaba-4840-a5fb-7baf23934d4b" d="M190.505,369.391c3.594,1.979,7.38,2.591,11.435,2.539"/>
  <line class="uuid-a87e85d2-866d-42df-8013-96c6a11524e9" x1="201.94" y1="371.93" x2="202.061" y2="371.93"/>
  <line class="uuid-a87e85d2-866d-42df-8013-96c6a11524e9" x1="164.197" y1="202.767" x2="202.941" y2="180.416"/>
  <line class="uuid-a87e85d2-866d-42df-8013-96c6a11524e9" x1="164.197" y1="187.694" x2="202.941" y2="165.345"/>
  <line class="uuid-a87e85d2-866d-42df-8013-96c6a11524e9" x1="164.197" y1="218.765" x2="195.489" y2="200.693"/>
  <line class="uuid-a87e85d2-866d-42df-8013-96c6a11524e9" x1="161.253" y1="301.459" x2="147.452" y2="309.455"/>
  <line class="uuid-a87e85d2-866d-42df-8013-96c6a11524e9" x1="147.452" y1="309.455" x2="133.607" y2="301.437"/>
  <line class="uuid-a87e85d2-866d-42df-8013-96c6a11524e9" x1="133.607" y1="301.437" x2="147.463" y2="293.464"/>
  <line class="uuid-a87e85d2-866d-42df-8013-96c6a11524e9" x1="147.463" y1="293.464" x2="161.253" y2="301.459"/>
  <line class="uuid-a87e85d2-866d-42df-8013-96c6a11524e9" x1="175.099" y1="309.477" x2="161.297" y2="317.473"/>
  <line class="uuid-a87e85d2-866d-42df-8013-96c6a11524e9" x1="161.297" y1="317.475" x2="147.452" y2="309.459"/>
  <line class="uuid-a87e85d2-866d-42df-8013-96c6a11524e9" x1="147.452" y1="309.459" x2="161.309" y2="301.485"/>
  <line class="uuid-a87e85d2-866d-42df-8013-96c6a11524e9" x1="161.309" y1="301.485" x2="175.103" y2="309.477"/>
  <line class="uuid-a87e85d2-866d-42df-8013-96c6a11524e9" x1="188.947" y1="317.497" x2="175.143" y2="325.493"/>
  <line class="uuid-a87e85d2-866d-42df-8013-96c6a11524e9" x1="175.147" y1="325.493" x2="161.297" y2="317.475"/>
  <line class="uuid-a87e85d2-866d-42df-8013-96c6a11524e9" x1="161.297" y1="317.475" x2="175.153" y2="309.503"/>
  <line class="uuid-bcdd6d47-2f22-4891-8132-22420d66610b" x1="175.153" y1="309.503" x2="188.947" y2="317.497"/>
  <line class="uuid-a87e85d2-866d-42df-8013-96c6a11524e9" x1="175.055" y1="293.464" x2="161.253" y2="301.459"/>
  <line class="uuid-a87e85d2-866d-42df-8013-96c6a11524e9" x1="161.253" y1="301.459" x2="147.407" y2="293.442"/>
  <line class="uuid-a87e85d2-866d-42df-8013-96c6a11524e9" x1="147.407" y1="293.442" x2="161.265" y2="285.469"/>
  <line class="uuid-a87e85d2-866d-42df-8013-96c6a11524e9" x1="161.261" y1="285.469" x2="175.055" y2="293.464"/>
  <line class="uuid-a87e85d2-866d-42df-8013-96c6a11524e9" x1="188.901" y1="301.481" x2="175.099" y2="309.477"/>
  <line class="uuid-a87e85d2-866d-42df-8013-96c6a11524e9" x1="175.099" y1="309.481" x2="161.253" y2="301.463"/>
  <line class="uuid-a87e85d2-866d-42df-8013-96c6a11524e9" x1="161.253" y1="301.463" x2="175.109" y2="293.49"/>
  <line class="uuid-a87e85d2-866d-42df-8013-96c6a11524e9" x1="175.109" y1="293.49" x2="188.903" y2="301.481"/>
  <line class="uuid-a87e85d2-866d-42df-8013-96c6a11524e9" x1="202.749" y1="309.503" x2="188.945" y2="317.497"/>
  <line class="uuid-a87e85d2-866d-42df-8013-96c6a11524e9" x1="188.947" y1="317.497" x2="175.099" y2="309.481"/>
  <line class="uuid-a87e85d2-866d-42df-8013-96c6a11524e9" x1="175.099" y1="309.481" x2="188.955" y2="301.507"/>
  <line class="uuid-a87e85d2-866d-42df-8013-96c6a11524e9" x1="188.859" y1="285.469" x2="175.055" y2="293.464"/>
  <line class="uuid-a87e85d2-866d-42df-8013-96c6a11524e9" x1="175.059" y1="293.468" x2="161.209" y2="285.447"/>
  <line class="uuid-a87e85d2-866d-42df-8013-96c6a11524e9" x1="161.209" y1="285.451" x2="175.065" y2="277.473"/>
  <line class="uuid-a87e85d2-866d-42df-8013-96c6a11524e9" x1="175.065" y1="277.477" x2="188.859" y2="285.469"/>
  <line class="uuid-a87e85d2-866d-42df-8013-96c6a11524e9" x1="202.705" y1="293.49" x2="188.903" y2="301.485"/>
  <line class="uuid-a87e85d2-866d-42df-8013-96c6a11524e9" x1="188.903" y1="301.485" x2="175.055" y2="293.468"/>
  <line class="uuid-a87e85d2-866d-42df-8013-96c6a11524e9" x1="175.055" y1="293.468" x2="188.911" y2="285.495"/>
  <line class="uuid-bcdd6d47-2f22-4891-8132-22420d66610b" x1="188.911" y1="285.495" x2="202.705" y2="293.49"/>
  <line class="uuid-a87e85d2-866d-42df-8013-96c6a11524e9" x1="216.551" y1="301.507" x2="202.749" y2="309.503"/>
  <line class="uuid-a87e85d2-866d-42df-8013-96c6a11524e9" x1="188.903" y1="301.489" x2="202.761" y2="293.516"/>
  <line class="uuid-a87e85d2-866d-42df-8013-96c6a11524e9" x1="202.661" y1="277.473" x2="188.857" y2="285.469"/>
  <line class="uuid-a87e85d2-866d-42df-8013-96c6a11524e9" x1="188.859" y1="285.473" x2="175.011" y2="277.451"/>
  <line class="uuid-a87e85d2-866d-42df-8013-96c6a11524e9" x1="175.011" y1="277.455" x2="188.867" y2="269.478"/>
  <line class="uuid-a87e85d2-866d-42df-8013-96c6a11524e9" x1="188.867" y1="269.482" x2="202.661" y2="277.473"/>
  <line class="uuid-a87e85d2-866d-42df-8013-96c6a11524e9" x1="216.506" y1="285.495" x2="202.705" y2="293.49"/>
  <line class="uuid-a87e85d2-866d-42df-8013-96c6a11524e9" x1="202.705" y1="293.49" x2="188.857" y2="285.473"/>
  <line class="uuid-a87e85d2-866d-42df-8013-96c6a11524e9" x1="188.857" y1="285.473" x2="202.713" y2="277.499"/>
  <line class="uuid-bcdd6d47-2f22-4891-8132-22420d66610b" x1="202.713" y1="277.499" x2="216.506" y2="285.495"/>
  <line class="uuid-a87e85d2-866d-42df-8013-96c6a11524e9" x1="230.352" y1="293.516" x2="216.551" y2="301.507"/>
  <line class="uuid-a87e85d2-866d-42df-8013-96c6a11524e9" x1="202.705" y1="293.493" x2="216.561" y2="285.52"/>
  <line class="uuid-bcdd6d47-2f22-4891-8132-22420d66610b" x1="216.558" y1="285.52" x2="230.352" y2="293.512"/>
  <line class="uuid-a87e85d2-866d-42df-8013-96c6a11524e9" x1="211.031" y1="256.648" x2="224.821" y2="264.64"/>
  <line class="uuid-a87e85d2-866d-42df-8013-96c6a11524e9" x1="224.877" y1="264.666" x2="238.671" y2="272.661"/>
  <line class="uuid-bcdd6d47-2f22-4891-8132-22420d66610b" x1="238.723" y1="272.687" x2="252.517" y2="280.678"/>
  <line class="uuid-a87e85d2-866d-42df-8013-96c6a11524e9" x1="238.623" y1="256.645" x2="224.821" y2="264.64"/>
  <line class="uuid-a87e85d2-866d-42df-8013-96c6a11524e9" x1="224.821" y1="264.644" x2="210.976" y2="256.622"/>
  <line class="uuid-a87e85d2-866d-42df-8013-96c6a11524e9" x1="210.976" y1="256.626" x2="224.833" y2="248.649"/>
  <line class="uuid-a87e85d2-866d-42df-8013-96c6a11524e9" x1="224.833" y1="248.653" x2="238.623" y2="256.645"/>
  <line class="uuid-a87e85d2-866d-42df-8013-96c6a11524e9" x1="252.469" y1="264.666" x2="238.667" y2="272.661"/>
  <line class="uuid-a87e85d2-866d-42df-8013-96c6a11524e9" x1="238.667" y1="272.661" x2="224.821" y2="264.644"/>
  <line class="uuid-a87e85d2-866d-42df-8013-96c6a11524e9" x1="224.821" y1="264.644" x2="238.679" y2="256.671"/>
  <line class="uuid-a87e85d2-866d-42df-8013-96c6a11524e9" x1="238.679" y1="256.671" x2="252.473" y2="264.666"/>
  <line class="uuid-a87e85d2-866d-42df-8013-96c6a11524e9" x1="266.317" y1="272.687" x2="252.513" y2="280.678"/>
  <line class="uuid-a87e85d2-866d-42df-8013-96c6a11524e9" x1="252.517" y1="280.682" x2="238.667" y2="272.664"/>
  <line class="uuid-a87e85d2-866d-42df-8013-96c6a11524e9" x1="238.667" y1="272.664" x2="252.524" y2="264.692"/>
  <line class="uuid-a87e85d2-866d-42df-8013-96c6a11524e9" x1="252.524" y1="264.692" x2="266.317" y2="272.683"/>
  <line class="uuid-a87e85d2-866d-42df-8013-96c6a11524e9" x1="252.429" y1="248.653" x2="238.623" y2="256.648"/>
  <line class="uuid-a87e85d2-866d-42df-8013-96c6a11524e9" x1="238.627" y1="256.648" x2="224.777" y2="248.631"/>
  <line class="uuid-a87e85d2-866d-42df-8013-96c6a11524e9" x1="224.777" y1="248.631" x2="238.635" y2="240.658"/>
  <line class="uuid-a87e85d2-866d-42df-8013-96c6a11524e9" x1="238.635" y1="240.658" x2="252.429" y2="248.653"/>
  <line class="uuid-a87e85d2-866d-42df-8013-96c6a11524e9" x1="266.273" y1="256.671" x2="252.473" y2="264.666"/>
  <line class="uuid-a87e85d2-866d-42df-8013-96c6a11524e9" x1="252.473" y1="264.67" x2="238.623" y2="256.652"/>
  <line class="uuid-a87e85d2-866d-42df-8013-96c6a11524e9" x1="238.623" y1="256.652" x2="252.479" y2="248.679"/>
  <line class="uuid-bcdd6d47-2f22-4891-8132-22420d66610b" x1="252.479" y1="248.679" x2="266.273" y2="256.671"/>
  <line class="uuid-a87e85d2-866d-42df-8013-96c6a11524e9" x1="280.119" y1="264.692" x2="266.317" y2="272.687"/>
  <line class="uuid-a87e85d2-866d-42df-8013-96c6a11524e9" x1="266.317" y1="272.687" x2="252.473" y2="264.67"/>
  <line class="uuid-a87e85d2-866d-42df-8013-96c6a11524e9" x1="252.473" y1="264.673" x2="266.329" y2="256.696"/>
  <line class="uuid-bcdd6d47-2f22-4891-8132-22420d66610b" x1="266.325" y1="256.696" x2="280.119" y2="264.692"/>
  <line class="uuid-a87e85d2-866d-42df-8013-96c6a11524e9" x1="266.229" y1="240.658" x2="252.425" y2="248.653"/>
  <line class="uuid-a87e85d2-866d-42df-8013-96c6a11524e9" x1="252.429" y1="248.653" x2="238.579" y2="240.636"/>
  <line class="uuid-a87e85d2-866d-42df-8013-96c6a11524e9" x1="238.579" y1="240.636" x2="252.435" y2="232.663"/>
  <line class="uuid-a87e85d2-866d-42df-8013-96c6a11524e9" x1="252.435" y1="232.663" x2="266.229" y2="240.658"/>
  <line class="uuid-a87e85d2-866d-42df-8013-96c6a11524e9" x1="280.075" y1="248.675" x2="266.273" y2="256.671"/>
  <line class="uuid-a87e85d2-866d-42df-8013-96c6a11524e9" x1="266.273" y1="256.674" x2="252.425" y2="248.657"/>
  <line class="uuid-a87e85d2-866d-42df-8013-96c6a11524e9" x1="252.425" y1="248.657" x2="266.281" y2="240.683"/>
  <line class="uuid-bcdd6d47-2f22-4891-8132-22420d66610b" x1="266.281" y1="240.683" x2="280.075" y2="248.675"/>
  <line class="uuid-a87e85d2-866d-42df-8013-96c6a11524e9" x1="293.92" y1="256.696" x2="280.119" y2="264.692"/>
  <line class="uuid-a87e85d2-866d-42df-8013-96c6a11524e9" x1="280.119" y1="264.692" x2="266.273" y2="256.674"/>
  <line class="uuid-a87e85d2-866d-42df-8013-96c6a11524e9" x1="266.273" y1="256.678" x2="280.131" y2="248.701"/>
  <line class="uuid-bcdd6d47-2f22-4891-8132-22420d66610b" x1="280.127" y1="248.701" x2="293.92" y2="256.696"/>
  <line class="uuid-a87e85d2-866d-42df-8013-96c6a11524e9" x1="188.867" y1="269.482" x2="202.661" y2="277.477"/>
  <line class="uuid-bcdd6d47-2f22-4891-8132-22420d66610b" x1="202.713" y1="277.503" x2="216.506" y2="285.495"/>
  <line class="uuid-bcdd6d47-2f22-4891-8132-22420d66610b" x1="216.558" y1="285.52" x2="230.352" y2="293.516"/>
  <line class="uuid-a87e85d2-866d-42df-8013-96c6a11524e9" x1="216.458" y1="269.482" x2="202.657" y2="277.477"/>
  <line class="uuid-a87e85d2-866d-42df-8013-96c6a11524e9" x1="202.657" y1="277.477" x2="188.812" y2="269.46"/>
  <line class="uuid-a87e85d2-866d-42df-8013-96c6a11524e9" x1="188.812" y1="269.46" x2="202.668" y2="261.487"/>
  <line class="uuid-a87e85d2-866d-42df-8013-96c6a11524e9" x1="202.668" y1="261.487" x2="216.462" y2="269.482"/>
  <line class="uuid-a87e85d2-866d-42df-8013-96c6a11524e9" x1="230.308" y1="277.499" x2="216.506" y2="285.495"/>
  <line class="uuid-a87e85d2-866d-42df-8013-96c6a11524e9" x1="216.506" y1="285.498" x2="202.657" y2="277.477"/>
  <line class="uuid-a87e85d2-866d-42df-8013-96c6a11524e9" x1="202.657" y1="277.481" x2="216.514" y2="269.504"/>
  <line class="uuid-bcdd6d47-2f22-4891-8132-22420d66610b" x1="216.514" y1="269.508" x2="230.308" y2="277.499"/>
  <line class="uuid-a87e85d2-866d-42df-8013-96c6a11524e9" x1="244.153" y1="285.52" x2="230.352" y2="293.516"/>
  <line class="uuid-a87e85d2-866d-42df-8013-96c6a11524e9" x1="230.352" y1="293.516" x2="216.503" y2="285.498"/>
  <line class="uuid-a87e85d2-866d-42df-8013-96c6a11524e9" x1="216.503" y1="285.498" x2="230.363" y2="277.525"/>
  <line class="uuid-bcdd6d47-2f22-4891-8132-22420d66610b" x1="230.359" y1="277.525" x2="244.153" y2="285.52"/>
  <line class="uuid-4f8389c3-0945-4b8c-b27f-787feb225fea" x1="109.724" y1="312.718" x2="102.053" y2="299.454"/>
  <line class="uuid-4f8389c3-0945-4b8c-b27f-787feb225fea" x1="148.857" y1="335.386" x2="140.917" y2="321.56"/>
  <line class="uuid-4f8389c3-0945-4b8c-b27f-787feb225fea" x1="125.7" y1="295.274" x2="121.865" y2="288.56"/>
  <line class="uuid-4f8389c3-0945-4b8c-b27f-787feb225fea" x1="188.187" y1="358.325" x2="174.822" y2="335.117"/>
  <line class="uuid-4f8389c3-0945-4b8c-b27f-787feb225fea" x1="145.267" y1="283.963" x2="141.381" y2="277.271"/>
  <line class="uuid-4f8389c3-0945-4b8c-b27f-787feb225fea" x1="214.714" y1="359.155" x2="194.221" y2="323.614"/>
  <line class="uuid-4f8389c3-0945-4b8c-b27f-787feb225fea" x1="164.833" y1="272.68" x2="160.948" y2="265.986"/>
  <line class="uuid-4f8389c3-0945-4b8c-b27f-787feb225fea" x1="234.281" y1="347.871" x2="213.787" y2="312.325"/>
  <line class="uuid-4f8389c3-0945-4b8c-b27f-787feb225fea" x1="184.353" y1="261.369" x2="180.514" y2="254.701"/>
  <line class="uuid-4f8389c3-0945-4b8c-b27f-787feb225fea" x1="253.458" y1="335.851" x2="245.666" y2="322.417"/>
  <line class="uuid-4f8389c3-0945-4b8c-b27f-787feb225fea" x1="234.355" y1="302.847" x2="234.013" y2="302.165"/>
  <line class="uuid-4f8389c3-0945-4b8c-b27f-787feb225fea" x1="203.916" y1="250.084" x2="200.082" y2="243.44"/>
  <line class="uuid-4f8389c3-0945-4b8c-b27f-787feb225fea" x1="272.783" y1="324.198" x2="271.046" y2="321.217"/>
  <line class="uuid-4f8389c3-0945-4b8c-b27f-787feb225fea" x1="253.921" y1="291.54" x2="253.506" y2="290.878"/>
  <line class="uuid-4f8389c3-0945-4b8c-b27f-787feb225fea" x1="223.486" y1="238.774" x2="219.649" y2="232.155"/>
  <line class="uuid-4f8389c3-0945-4b8c-b27f-787feb225fea" x1="292.298" y1="312.935" x2="290.613" y2="309.933"/>
  <line class="uuid-4f8389c3-0945-4b8c-b27f-787feb225fea" x1="280.696" y1="292.809" x2="272.853" y2="279.156"/>
  <line class="uuid-4f8389c3-0945-4b8c-b27f-787feb225fea" x1="243.001" y1="227.489" x2="239.168" y2="220.866"/>
  <line class="uuid-4f8389c3-0945-4b8c-b27f-787feb225fea" x1="312.523" y1="302.703" x2="291.955" y2="267.135"/>
  <line class="uuid-6e570dba-f3e9-441b-98cc-a7e5e0b78abb" x1="270.803" y1="230.451" x2="261.225" y2="213.857"/>
  <line class="uuid-4f8389c3-0945-4b8c-b27f-787feb225fea" x1="332.069" y1="291.466" x2="310.889" y2="254.724"/>
  <line class="uuid-6e570dba-f3e9-441b-98cc-a7e5e0b78abb" x1="308.781" y1="251.033" x2="299.259" y2="234.598"/>
  <line class="uuid-4f8389c3-0945-4b8c-b27f-787feb225fea" x1="351.366" y1="279.689" x2="338.246" y2="256.972"/>
  <line class="uuid-4f8389c3-0945-4b8c-b27f-787feb225fea" x1="282.551" y1="297.474" x2="271.34" y2="316.869"/>
  <line class="uuid-4f8389c3-0945-4b8c-b27f-787feb225fea" x1="259.246" y1="292.637" x2="244.397" y2="318.362"/>
  <line class="uuid-4f8389c3-0945-4b8c-b27f-787feb225fea" x1="214.373" y1="365.753" x2="214.373" y2="362.452"/>
  <line class="uuid-4f8389c3-0945-4b8c-b27f-787feb225fea" x1="225.635" y1="359.229" x2="225.635" y2="355.955"/>
  <line class="uuid-4f8389c3-0945-4b8c-b27f-787feb225fea" x1="236.971" y1="352.705" x2="236.971" y2="349.434"/>
  <line class="uuid-4f8389c3-0945-4b8c-b27f-787feb225fea" x1="248.23" y1="346.208" x2="248.23" y2="342.911"/>
  <line class="uuid-4f8389c3-0945-4b8c-b27f-787feb225fea" x1="259.54" y1="339.688" x2="259.54" y2="336.387"/>
  <line class="uuid-4f8389c3-0945-4b8c-b27f-787feb225fea" x1="270.825" y1="333.164" x2="270.825" y2="329.865"/>
  <line class="uuid-4f8389c3-0945-4b8c-b27f-787feb225fea" x1="282.088" y1="326.641" x2="282.088" y2="323.345"/>
  <line class="uuid-4f8389c3-0945-4b8c-b27f-787feb225fea" x1="293.398" y1="320.118" x2="293.398" y2="316.847"/>
  <line class="uuid-4f8389c3-0945-4b8c-b27f-787feb225fea" x1="304.656" y1="313.598" x2="304.656" y2="310.323"/>
  <line class="uuid-4f8389c3-0945-4b8c-b27f-787feb225fea" x1="315.945" y1="307.074" x2="315.945" y2="303.8"/>
  <line class="uuid-4f8389c3-0945-4b8c-b27f-787feb225fea" x1="327.256" y1="300.555" x2="327.256" y2="297.28"/>
  <line class="uuid-4f8389c3-0945-4b8c-b27f-787feb225fea" x1="338.515" y1="294.031" x2="338.515" y2="290.782"/>
  <line class="uuid-4f8389c3-0945-4b8c-b27f-787feb225fea" x1="349.85" y1="287.507" x2="349.85" y2="284.236"/>
  <line class="uuid-4f8389c3-0945-4b8c-b27f-787feb225fea" x1="94.627" y1="279.589" x2="92.232" y2="280.955"/>
  <line class="uuid-4f8389c3-0945-4b8c-b27f-787feb225fea" x1="94.627" y1="266.542" x2="92.232" y2="267.911"/>
  <line class="uuid-4f8389c3-0945-4b8c-b27f-787feb225fea" x1="94.627" y1="253.524" x2="92.232" y2="254.89"/>
  <line class="uuid-4f8389c3-0945-4b8c-b27f-787feb225fea" x1="94.627" y1="240.452" x2="92.232" y2="241.82"/>
  <line class="uuid-4f8389c3-0945-4b8c-b27f-787feb225fea" x1="94.627" y1="227.434" x2="92.232" y2="228.802"/>
  <line class="uuid-4f8389c3-0945-4b8c-b27f-787feb225fea" x1="94.627" y1="214.387" x2="92.232" y2="215.756"/>
  <line class="uuid-4f8389c3-0945-4b8c-b27f-787feb225fea" x1="94.627" y1="201.369" x2="92.232" y2="202.739"/>
  <line class="uuid-4f8389c3-0945-4b8c-b27f-787feb225fea" x1="94.627" y1="188.323" x2="92.232" y2="189.691"/>
  <line class="uuid-4f8389c3-0945-4b8c-b27f-787feb225fea" x1="106.302" y1="168.545" x2="91.54" y2="177.086"/>
  <line class="uuid-6e570dba-f3e9-441b-98cc-a7e5e0b78abb" x1="260.946" y1="177.219" x2="256.524" y2="184.952"/>
  <line class="uuid-6e570dba-f3e9-441b-98cc-a7e5e0b78abb" x1="242.718" y1="208.739" x2="236.25" y2="220.123"/>
  <line class="uuid-6e570dba-f3e9-441b-98cc-a7e5e0b78abb" x1="261.027" y1="131.977" x2="256.49" y2="139.762"/>
  <line class="uuid-6e570dba-f3e9-441b-98cc-a7e5e0b78abb" x1="202.988" y1="232.478" x2="197.763" y2="241.551"/>
  <line class="uuid-6e570dba-f3e9-441b-98cc-a7e5e0b78abb" x1="260.795" y1="87.224" x2="256.089" y2="95.356"/>
  <line class="uuid-6e570dba-f3e9-441b-98cc-a7e5e0b78abb" x1="163.844" y1="255.125" x2="158.736" y2="263.996"/>
  <line class="uuid-4f8389c3-0945-4b8c-b27f-787feb225fea" x1="227.599" y1="99.474" x2="222.276" y2="108.826"/>
  <line class="uuid-6e570dba-f3e9-441b-98cc-a7e5e0b78abb" x1="125.277" y1="276.793" x2="119.084" y2="287.475"/>
  <line class="uuid-6e570dba-f3e9-441b-98cc-a7e5e0b78abb" x1="188.837" y1="121.52" x2="182.895" y2="131.873"/>
  <line class="uuid-6e570dba-f3e9-441b-98cc-a7e5e0b78abb" x1="102.626" y1="270.697" x2="96.957" y2="280.77"/>
  <line class="uuid-6e570dba-f3e9-441b-98cc-a7e5e0b78abb" x1="149.755" y1="144.06" x2="144.042" y2="154.016"/>
  <line class="uuid-4f8389c3-0945-4b8c-b27f-787feb225fea" x1="102.685" y1="225.617" x2="96.975" y2="235.466"/>
  <line class="uuid-6e570dba-f3e9-441b-98cc-a7e5e0b78abb" x1="109.897" y1="167.961" x2="105.444" y2="175.699"/>
  <line class="uuid-6e570dba-f3e9-441b-98cc-a7e5e0b78abb" x1="102.093" y1="181.464" x2="97.615" y2="189.162"/>
  <line class="uuid-4f8389c3-0945-4b8c-b27f-787feb225fea" x1="200.204" y1="366.07" x2="194.927" y2="369.123"/>
  <line class="uuid-4f8389c3-0945-4b8c-b27f-787feb225fea" x1="186.037" y1="361.209" x2="183.179" y2="362.846"/>
  <line class="uuid-4f8389c3-0945-4b8c-b27f-787feb225fea" x1="174.774" y1="354.685" x2="171.916" y2="356.323"/>
  <line class="uuid-4f8389c3-0945-4b8c-b27f-787feb225fea" x1="163.513" y1="348.161" x2="160.654" y2="349.799"/>
  <line class="uuid-4f8389c3-0945-4b8c-b27f-787feb225fea" x1="152.228" y1="341.641" x2="149.395" y2="343.276"/>
  <line class="uuid-4f8389c3-0945-4b8c-b27f-787feb225fea" x1="140.917" y1="335.117" x2="138.058" y2="336.756"/>
  <line class="uuid-4f8389c3-0945-4b8c-b27f-787feb225fea" x1="129.659" y1="328.595" x2="126.796" y2="330.232"/>
  <line class="uuid-4f8389c3-0945-4b8c-b27f-787feb225fea" x1="118.37" y1="322.072" x2="115.538" y2="323.712"/>
  <line class="uuid-4f8389c3-0945-4b8c-b27f-787feb225fea" x1="107.111" y1="315.552" x2="104.275" y2="317.188"/>
  <line class="uuid-6e570dba-f3e9-441b-98cc-a7e5e0b78abb" x1="203.286" y1="136.325" x2="194.849" y2="150.925"/>
  <line class="uuid-6e570dba-f3e9-441b-98cc-a7e5e0b78abb" x1="164.749" y1="157.994" x2="155.168" y2="174.399"/>
</svg>