<?xml version="1.0" encoding="UTF-8"?>
<svg id="uuid-b8d08e84-79ff-4586-b656-841278a990b7" data-name="&amp;lt;Layer&amp;gt;" xmlns="http://www.w3.org/2000/svg" viewBox="0 0 451.11 451.11">
  <defs>
    <style>
      .uuid-a31faaa8-6fa7-4acd-90c4-7550dc8322e9, .uuid-97850fff-6782-40e8-a455-1175ff3c12a2, .uuid-2dfd6583-8d9e-43a2-9541-1343b0efa64f {
        fill: none;
        stroke: #000;
        stroke-linecap: round;
      }

      .uuid-a31faaa8-6fa7-4acd-90c4-7550dc8322e9, .uuid-2dfd6583-8d9e-43a2-9541-1343b0efa64f {
        stroke-linejoin: round;
        stroke-width: 4.113px;
      }

      .uuid-97850fff-6782-40e8-a455-1175ff3c12a2 {
        stroke-miterlimit: 10;
        stroke-width: 1.163px;
      }

      .uuid-2dfd6583-8d9e-43a2-9541-1343b0efa64f {
        fill-rule: evenodd;
      }
    </style>
  </defs>
  <path class="uuid-2dfd6583-8d9e-43a2-9541-1343b0efa64f" d="M172.423,359.779c0-.143-.247-.195-.247-.243-.975-.927-1.953-1.733-2.443-2.565,0-.121,0-.221-.243-.341,0-.17,0-.415-.243-.585,0-.099,0-.295-.247-.415,0-.221,0-.511-.243-.806v-.173c0-.291-.247-.633-.247-.975v-.467c-.243-.755-.243-1.634-.243-2.613-.243-.122-.243-.243-.243-.415"/>
  <path class="uuid-2dfd6583-8d9e-43a2-9541-1343b0efa64f" d="M168.027,270.326c.243-1.783.485-3.594.975-5.375,0-.489,0-.88.247-1.343.243-.758.243-1.516.732-2.274v-.243c.243-.632.489-1.221.732-1.783v-.343c.732-1.391,1.464-2.782,2.2-4.077.485-.931,1.221-1.809,1.707-2.663.736-1.049,1.711-2.027,2.443-2.98,1.959-1.905,3.912-3.592,6.108-4.982"/>
  <path class="uuid-2dfd6583-8d9e-43a2-9541-1343b0efa64f" d="M302.868,175.273c1.221-.585,2.443-1.097,3.421-1.464.486-.169.975-.295,1.464-.391,1.711-.293,3.175-.125,5.376.685"/>
  <polyline class="uuid-2dfd6583-8d9e-43a2-9541-1343b0efa64f" points="313.13 174.104 312.884 173.93 292.61 162.157"/>
  <path class="uuid-2dfd6583-8d9e-43a2-9541-1343b0efa64f" d="M313.13,174.104c.489.195.975.463,1.222.758.489.291.732.706,1.221,1.095.243.537.732,1.175,1.221,1.933,0,.463.243.975.485,1.512.247.684.489,1.394.489,2.126,0,.758.247,1.538.247,2.395"/>
  <path class="uuid-2dfd6583-8d9e-43a2-9541-1343b0efa64f" d="M183.171,358.826c-2.928,1.763-5.862,2.348-8.305,1.859,0,0-.247-.048-.489-.096-.732-.199-1.221-.419-1.711-.71l-.243-.048"/>
  <polyline class="uuid-2dfd6583-8d9e-43a2-9541-1343b0efa64f" points="172.423 359.831 172.423 359.779 137.734 339.8 137.491 339.675"/>
  <path class="uuid-2dfd6583-8d9e-43a2-9541-1343b0efa64f" d="M243.019,235.589c8.551-4.886,15.392-.931,15.392,8.842,0,5.934-2.687,12.653-6.598,18.103"/>
  <path class="uuid-2dfd6583-8d9e-43a2-9541-1343b0efa64f" d="M233.982,272.77c-3.664-.954-6.35-4.739-6.35-10.679,0-9.769,6.839-21.616,15.386-26.502"/>
  <path class="uuid-2dfd6583-8d9e-43a2-9541-1343b0efa64f" d="M266.471,126.981c-1.711-5.128-3.911-10.214-7.571-14.095.486.195,1.221.317,1.953.511,10.994,3.301,19.788,13.537,19.788,29.365"/>
  <polyline class="uuid-2dfd6583-8d9e-43a2-9541-1343b0efa64f" points="280.641 142.762 280.641 173.346 267.692 165.869 267.936 142.222"/>
  <path class="uuid-2dfd6583-8d9e-43a2-9541-1343b0efa64f" d="M261.339,94.32c-9.769-5.008-17.831-4.886-28.578-2.321-8.55,2.615-14.658,5.692-21.988,10.577-9.278,6.498-16.119,12.779-23.448,21.252-6.596,7.845-11.483,15.023-16.612,23.795-5.376,10.114-9.283,18.882-12.458,30.145-2.198,7.889-3.666,14.46-3.666,22.642"/>
  <polyline class="uuid-2dfd6583-8d9e-43a2-9541-1343b0efa64f" points="154.589 200.411 154.589 220.515 154.589 231.361 167.293 238.813 167.537 213.017"/>
  <path class="uuid-2dfd6583-8d9e-43a2-9541-1343b0efa64f" d="M220.302,111.908c1.711-1.269,3.665-2.491,5.372-3.588.979-.588,1.711-1.099,2.69-1.641,2.685-1.49,5.375-2.882,8.062-4.176.975-.465,1.953-.88,2.932-1.223.975-.341,1.954-.754,2.928-1.099q.247-.048.489-.122c2.443-.754,4.887-1.39,7.33-1.854.243-.052.243-.122.485-.052,1.221-.243,2.443-.413,3.664-.537,1.221-.096,2.444-.169,3.665-.169"/>
  <path class="uuid-2dfd6583-8d9e-43a2-9541-1343b0efa64f" d="M257.921,97.448c.979,0,1.954.073,2.932.121.243.048.732.048,1.221.122.732.051,1.464.173,2.443.393.485.07.975.169,1.464.317,2.687.636,5.376,1.659,8.062,3.054"/>
  <polyline class="uuid-2dfd6583-8d9e-43a2-9541-1343b0efa64f" points="292.61 140.931 292.61 166.505 280.641 173.346 280.641 142.762"/>
  <path class="uuid-2dfd6583-8d9e-43a2-9541-1343b0efa64f" d="M280.641,142.762c-.247-28.091-24.186-38.718-50.813-23.769-27.113,15.171-50.808,51.202-50.808,82.054"/>
  <polyline class="uuid-2dfd6583-8d9e-43a2-9541-1343b0efa64f" points="179.021 201.048 179.264 231.973 167.293 238.791 167.293 205.444"/>
  <polyline class="uuid-2dfd6583-8d9e-43a2-9541-1343b0efa64f" points="233.982 300.42 233.982 294.558 246.442 301.593"/>
  <path class="uuid-2dfd6583-8d9e-43a2-9541-1343b0efa64f" d="M243.019,235.589c8.551-4.886,15.392-.931,15.392,8.842,0,3.812-1.221,7.966-2.934,11.874"/>
  <polyline class="uuid-2dfd6583-8d9e-43a2-9541-1343b0efa64f" points="255.477 256.305 251.813 262.534 230.561 250.223"/>
  <line class="uuid-a31faaa8-6fa7-4acd-90c4-7550dc8322e9" x1="168.027" y1="350.18" x2="168.027" y2="270.326"/>
  <line class="uuid-a31faaa8-6fa7-4acd-90c4-7550dc8322e9" x1="183.171" y1="244.262" x2="302.868" y2="175.273"/>
  <line class="uuid-a31faaa8-6fa7-4acd-90c4-7550dc8322e9" x1="267.936" y1="155.122" x2="179.021" y2="206.276"/>
  <line class="uuid-a31faaa8-6fa7-4acd-90c4-7550dc8322e9" x1="318.016" y1="183.923" x2="318.016" y2="263.73"/>
  <path class="uuid-2dfd6583-8d9e-43a2-9541-1343b0efa64f" d="M318.016,263.73c0,9.574-6.84,21.3-15.148,26.064"/>
  <line class="uuid-a31faaa8-6fa7-4acd-90c4-7550dc8322e9" x1="302.868" y1="289.793" x2="183.171" y2="358.826"/>
  <path class="uuid-2dfd6583-8d9e-43a2-9541-1343b0efa64f" d="M137.491,339.675c-3.664-3.076-3.908-4.982-4.398-9.696"/>
  <line class="uuid-a31faaa8-6fa7-4acd-90c4-7550dc8322e9" x1="133.094" y1="329.979" x2="133.338" y2="250.123"/>
  <path class="uuid-2dfd6583-8d9e-43a2-9541-1343b0efa64f" d="M133.338,250.123c.245-10.405,6.107-20.372,14.901-26.016"/>
  <line class="uuid-a31faaa8-6fa7-4acd-90c4-7550dc8322e9" x1="148.239" y1="224.107" x2="154.589" y2="220.515"/>
  <path class="uuid-2dfd6583-8d9e-43a2-9541-1343b0efa64f" d="M168.027,350.132c0,9.526,6.839,13.433,15.144,8.672"/>
  <path class="uuid-2dfd6583-8d9e-43a2-9541-1343b0efa64f" d="M318.016,183.949c0-9.555-6.84-13.463-15.148-8.698"/>
  <line class="uuid-a31faaa8-6fa7-4acd-90c4-7550dc8322e9" x1="251.813" y1="262.534" x2="251.813" y2="290.21"/>
  <path class="uuid-2dfd6583-8d9e-43a2-9541-1343b0efa64f" d="M251.813,290.21c0,4.665-3.175,10.379-7.326,12.701"/>
  <line class="uuid-a31faaa8-6fa7-4acd-90c4-7550dc8322e9" x1="244.487" y1="302.911" x2="241.312" y2="304.674"/>
  <path class="uuid-2dfd6583-8d9e-43a2-9541-1343b0efa64f" d="M241.312,304.674c-3.911,2.343-7.33.411-7.33-4.254"/>
  <line class="uuid-a31faaa8-6fa7-4acd-90c4-7550dc8322e9" x1="233.982" y1="300.42" x2="233.982" y2="272.77"/>
  <path class="uuid-2dfd6583-8d9e-43a2-9541-1343b0efa64f" d="M267.936,142.222c0-6.447-.733-12.213-1.465-15.241"/>
  <line class="uuid-a31faaa8-6fa7-4acd-90c4-7550dc8322e9" x1="292.61" y1="162.157" x2="292.61" y2="140.956"/>
  <path class="uuid-2dfd6583-8d9e-43a2-9541-1343b0efa64f" d="M292.61,140.956c0-19.449-7.083-33.177-18.567-39.501"/>
  <line class="uuid-a31faaa8-6fa7-4acd-90c4-7550dc8322e9" x1="274.044" y1="101.455" x2="261.339" y2="94.32"/>
  <path class="uuid-2dfd6583-8d9e-43a2-9541-1343b0efa64f" d="M229.828,105.777c34.689-19.419,62.782-3.686,62.782,35.154"/>
  <path class="uuid-2dfd6583-8d9e-43a2-9541-1343b0efa64f" d="M167.293,205.444c0-37.717,29.803-81.225,62.535-99.667"/>
  <path class="uuid-2dfd6583-8d9e-43a2-9541-1343b0efa64f" d="M246.442,301.593c-.733.511-1.223.953-1.955,1.317"/>
  <path class="uuid-2dfd6583-8d9e-43a2-9541-1343b0efa64f" d="M230.561,250.223c2.689-6.108,7.33-11.678,12.458-14.634"/>
  <line class="uuid-a31faaa8-6fa7-4acd-90c4-7550dc8322e9" x1="135.781" y1="239.254" x2="135.781" y2="239.545"/>
  <path class="uuid-2dfd6583-8d9e-43a2-9541-1343b0efa64f" d="M135.781,239.545c-1.711,4.032-2.197,6.891-2.443,11.237"/>
  <path class="uuid-2dfd6583-8d9e-43a2-9541-1343b0efa64f" d="M168.027,270.837c.243-3.885.975-7.988,2.686-11.53"/>
  <line class="uuid-a31faaa8-6fa7-4acd-90c4-7550dc8322e9" x1="170.712" y1="259.307" x2="135.781" y2="239.254"/>
  <line class="uuid-97850fff-6782-40e8-a455-1175ff3c12a2" x1="242.287" y1="254.715" x2="236.183" y2="244.188"/>
  <line class="uuid-97850fff-6782-40e8-a455-1175ff3c12a2" x1="254.745" y1="253.935" x2="244.487" y2="236.322"/>
  <line class="uuid-97850fff-6782-40e8-a455-1175ff3c12a2" x1="248.638" y1="296.682" x2="235.694" y2="274.525"/>
  <line class="uuid-97850fff-6782-40e8-a455-1175ff3c12a2" x1="233.25" y1="270.348" x2="229.828" y2="264.315"/>
  <line class="uuid-97850fff-6782-40e8-a455-1175ff3c12a2" x1="250.349" y1="277.066" x2="238.622" y2="256.742"/>
  <line class="uuid-97850fff-6782-40e8-a455-1175ff3c12a2" x1="161.429" y1="252.15" x2="146.775" y2="226.55"/>
  <line class="uuid-97850fff-6782-40e8-a455-1175ff3c12a2" x1="182.196" y1="242.794" x2="177.552" y2="234.905"/>
  <line class="uuid-97850fff-6782-40e8-a455-1175ff3c12a2" x1="202.226" y1="232.193" x2="185.613" y2="203.659"/>
  <line class="uuid-97850fff-6782-40e8-a455-1175ff3c12a2" x1="221.767" y1="220.957" x2="205.155" y2="192.376"/>
  <line class="uuid-97850fff-6782-40e8-a455-1175ff3c12a2" x1="241.312" y1="209.694" x2="224.7" y2="181.113"/>
  <line class="uuid-97850fff-6782-40e8-a455-1175ff3c12a2" x1="260.853" y1="198.384" x2="244.24" y2="169.802"/>
  <line class="uuid-97850fff-6782-40e8-a455-1175ff3c12a2" x1="280.152" y1="186.731" x2="270.137" y2="169.169"/>
  <line class="uuid-97850fff-6782-40e8-a455-1175ff3c12a2" x1="265.739" y1="161.67" x2="264.518" y2="159.324"/>
  <line class="uuid-97850fff-6782-40e8-a455-1175ff3c12a2" x1="299.692" y1="175.203" x2="294.564" y2="166.385"/>
  <line class="uuid-97850fff-6782-40e8-a455-1175ff3c12a2" x1="158.011" y1="230.998" x2="156.543" y2="228.577"/>
  <line class="uuid-97850fff-6782-40e8-a455-1175ff3c12a2" x1="165.583" y1="221.909" x2="156.301" y2="205.518"/>
  <line class="uuid-97850fff-6782-40e8-a455-1175ff3c12a2" x1="165.825" y1="199.558" x2="158.011" y2="185.804"/>
  <line class="uuid-97850fff-6782-40e8-a455-1175ff3c12a2" x1="169.002" y1="182.455" x2="162.161" y2="170.855"/>
  <line class="uuid-97850fff-6782-40e8-a455-1175ff3c12a2" x1="173.887" y1="168.242" x2="167.78" y2="157.491"/>
  <line class="uuid-97850fff-6782-40e8-a455-1175ff3c12a2" x1="179.753" y1="155.854" x2="173.887" y2="145.548"/>
  <line class="uuid-97850fff-6782-40e8-a455-1175ff3c12a2" x1="186.345" y1="144.959" x2="180.728" y2="135.091"/>
  <line class="uuid-97850fff-6782-40e8-a455-1175ff3c12a2" x1="193.675" y1="134.945" x2="188.303" y2="125.441"/>
  <line class="uuid-97850fff-6782-40e8-a455-1175ff3c12a2" x1="201.737" y1="125.981" x2="196.365" y2="116.767"/>
  <line class="uuid-97850fff-6782-40e8-a455-1175ff3c12a2" x1="210.04" y1="117.968" x2="204.912" y2="109.122"/>
  <line class="uuid-97850fff-6782-40e8-a455-1175ff3c12a2" x1="218.834" y1="110.785" x2="214.195" y2="102.456"/>
  <line class="uuid-97850fff-6782-40e8-a455-1175ff3c12a2" x1="228.364" y1="104.656" x2="223.968" y2="97.153"/>
  <line class="uuid-97850fff-6782-40e8-a455-1175ff3c12a2" x1="238.622" y1="99.67" x2="234.961" y2="93.393"/>
  <line class="uuid-97850fff-6782-40e8-a455-1175ff3c12a2" x1="249.616" y1="96.321" x2="247.416" y2="92.292"/>
  <line class="uuid-97850fff-6782-40e8-a455-1175ff3c12a2" x1="278.929" y1="166.211" x2="269.647" y2="149.872"/>
  <line class="uuid-97850fff-6782-40e8-a455-1175ff3c12a2" x1="278.929" y1="143.665" x2="267.447" y2="123.806"/>
  <line class="uuid-97850fff-6782-40e8-a455-1175ff3c12a2" x1="177.552" y1="229.165" x2="169.248" y2="224.4"/>
  <line class="uuid-97850fff-6782-40e8-a455-1175ff3c12a2" x1="177.309" y1="216.097" x2="169.248" y2="211.306"/>
  <line class="uuid-97850fff-6782-40e8-a455-1175ff3c12a2" x1="177.309" y1="203.001" x2="169.491" y2="198.505"/>
  <line class="uuid-97850fff-6782-40e8-a455-1175ff3c12a2" x1="178.285" y1="190.469" x2="171.691" y2="186.683"/>
  <line class="uuid-97850fff-6782-40e8-a455-1175ff3c12a2" x1="180.728" y1="179.012" x2="174.866" y2="175.616"/>
  <line class="uuid-97850fff-6782-40e8-a455-1175ff3c12a2" x1="184.881" y1="168.264" x2="179.506" y2="165.111"/>
  <line class="uuid-97850fff-6782-40e8-a455-1175ff3c12a2" x1="190.011" y1="158.15" x2="184.639" y2="155.1"/>
  <line class="uuid-97850fff-6782-40e8-a455-1175ff3c12a2" x1="195.875" y1="148.528" x2="190.747" y2="145.496"/>
  <line class="uuid-97850fff-6782-40e8-a455-1175ff3c12a2" x1="202.959" y1="139.514" x2="197.34" y2="136.387"/>
  <line class="uuid-97850fff-6782-40e8-a455-1175ff3c12a2" x1="210.773" y1="131.062" x2="205.155" y2="127.761"/>
  <line class="uuid-97850fff-6782-40e8-a455-1175ff3c12a2" x1="290.899" y1="164.331" x2="282.595" y2="159.47"/>
  <line class="uuid-97850fff-6782-40e8-a455-1175ff3c12a2" x1="219.813" y1="123.317" x2="213.706" y2="119.631"/>
  <line class="uuid-97850fff-6782-40e8-a455-1175ff3c12a2" x1="290.899" y1="151.314" x2="282.595" y2="146.45"/>
  <line class="uuid-97850fff-6782-40e8-a455-1175ff3c12a2" x1="230.561" y1="116.503" x2="223.232" y2="112.154"/>
  <line class="uuid-97850fff-6782-40e8-a455-1175ff3c12a2" x1="290.899" y1="138.24" x2="281.373" y2="132.696"/>
  <line class="uuid-97850fff-6782-40e8-a455-1175ff3c12a2" x1="244.487" y1="111.396" x2="234.226" y2="105.509"/>
  <line class="uuid-97850fff-6782-40e8-a455-1175ff3c12a2" x1="289.677" y1="124.561" x2="246.931" y2="99.865"/>
  <line class="uuid-97850fff-6782-40e8-a455-1175ff3c12a2" x1="167.293" y1="351.596" x2="134.559" y2="294.827"/>
  <line class="uuid-97850fff-6782-40e8-a455-1175ff3c12a2" x1="167.293" y1="306.429" x2="134.559" y2="249.681"/>
  <line class="uuid-97850fff-6782-40e8-a455-1175ff3c12a2" x1="167.78" y1="262.045" x2="165.825" y2="258.696"/>
</svg>