<?xml version="1.0" encoding="UTF-8"?>
<svg id="uuid-16ce06ac-5517-4710-b234-0a542c9f66df" data-name="&amp;lt;Layer&amp;gt;" xmlns="http://www.w3.org/2000/svg" viewBox="0 0 451.11 451.11">
  <defs>
    <style>
      .uuid-d6d70c82-1380-4696-be72-04dfa9c5dec1, .uuid-cde03e68-c8dc-4cc0-bc54-827f4f60624f, .uuid-260c7363-bed5-48c6-a648-bdd94a662839, .uuid-fe6700d2-443e-4922-9d25-9bf0c92a6c3e {
        fill: none;
        stroke: #000;
        stroke-linecap: round;
      }

      .uuid-d6d70c82-1380-4696-be72-04dfa9c5dec1, .uuid-fe6700d2-443e-4922-9d25-9bf0c92a6c3e {
        stroke-linejoin: round;
        stroke-width: 4.113px;
      }

      .uuid-cde03e68-c8dc-4cc0-bc54-827f4f60624f {
        stroke-width: 1.163px;
      }

      .uuid-cde03e68-c8dc-4cc0-bc54-827f4f60624f, .uuid-260c7363-bed5-48c6-a648-bdd94a662839 {
        stroke-miterlimit: 10;
      }

      .uuid-260c7363-bed5-48c6-a648-bdd94a662839 {
        stroke-width: 1.159px;
      }

      .uuid-fe6700d2-443e-4922-9d25-9bf0c92a6c3e {
        fill-rule: evenodd;
      }
    </style>
  </defs>
  <path class="uuid-fe6700d2-443e-4922-9d25-9bf0c92a6c3e" d="M338.646,255.424c0-25.795-31.761-35.152-53.719-37.007-1.857,3.786-3.764,7.62-5.74,11.212"/>
  <path class="uuid-fe6700d2-443e-4922-9d25-9bf0c92a6c3e" d="M278.599,230.799c5.692,13.632-14.508,33.662-35.421,41.456-15.388,5.744-31.879,3.543-46.854-2.27-15.876-6.13-25.55-14.901-24.06-22.768-11.019,14.243-26.236,24.916-38.452,38.229-11.601,12.999-20.716,25.311-21.348,43.361v26.212c0,9.674,1.221,12.238,11.726,18.346,81.343,46.927,214.404-66.737,214.456-85.719"/>
  <path class="uuid-fe6700d2-443e-4922-9d25-9bf0c92a6c3e" d="M338.646,255.424c0-23.304-25.969-33.173-47.147-36.253,2.027,2.444,3.297,5.645,4.128,9.063,3.076,13.754-2.493,25.848-11.383,36.01-19.935,22.764-49.297,32.806-78.804,26.26-5.228-1.221-10.336-2.811-15.222-4.717-11.896-4.592-25.377-12.187-31.705-23.743-8.234,7.767-17.076,15.096-24.7,23.4-11.601,12.999-20.716,25.311-21.348,43.361v26.212c0,9.674,1.221,12.238,11.726,18.346,81.343,46.927,214.404-66.737,214.456-85.719"/>
  <path class="uuid-fe6700d2-443e-4922-9d25-9bf0c92a6c3e" d="M183.476,226.722c-.122-.052-.17-.173-.221-.221-.074.391-.122.806-.122,1.221-.463,4.298-.585,6.034-2.954,10.162-1.343,2.198-6.229,7.209-7.841,9.331-1.564,7.914,8.11,16.638,24.038,22.768,14.975,5.814,31.414,8.084,46.802,2.318,18.517-6.889,36.422-23.28,36.422-36.397,0-1.733-.291-3.422-1.001-5.054-.221.463-.463.879-.758,1.269"/>
  <path class="uuid-fe6700d2-443e-4922-9d25-9bf0c92a6c3e" d="M266.165,248.389c8.475-8.183,15.392-22.988,21.962-36.521,9.059-18.541,8.599-39.624,8.721-56.625"/>
  <path class="uuid-fe6700d2-443e-4922-9d25-9bf0c92a6c3e" d="M293.769,145.132c-1.17-4.176-1.221-8.599-1.295-12.827-.121-5.519-.217-10.625-3.076-13.238-4.521-4.202-11.774,2.198-20.203,9.699-5.812,5.104-12.017,10.627-18.882,14.582-8.82,5.034-27.165,8.136-33.49,13.459-6.402,5.35-6.108,9.699-5.986,17.371.122,7.208.463,14.338-3.959,29.729-1.097-7.893-4.394-19.567-12.897-22.522-12.777-4.548-18.393,11.895-16,22.4,1.147,5.176,4.054,11.09,6.376,15.508.758,1.442-.243,5.35-.879,7.429,16.222,18.372,39.721,30.951,58.432,30.9,8.355,0,18.176-3.371,24.257-9.233"/>
  <path class="uuid-fe6700d2-443e-4922-9d25-9bf0c92a6c3e" d="M162.808,109.294c-14.923,27.36-5.519,102.332,20.251,118.598.537-1.392,2.274-6.789,1.295-8.599-2.322-4.418-5.228-10.332-6.376-15.508-5.641-24.674,23.794-36.301,28.897.122,4.422-15.392,4.081-22.522,3.959-29.729-.122-7.672-.415-12.021,5.986-17.371,4.055-3.492,9.111-4.812,14.68-6.325"/>
  <path class="uuid-fe6700d2-443e-4922-9d25-9bf0c92a6c3e" d="M231.502,150.481c5.74-1.563,12.017-3.249,18.809-7.134,6.865-3.955,13.07-9.478,18.882-14.582,8.429-7.501,15.682-13.9,20.203-9.699,2.859,2.613,2.955,7.719,3.076,13.238.074,4.228.126,8.651,1.295,12.827"/>
  <path class="uuid-fe6700d2-443e-4922-9d25-9bf0c92a6c3e" d="M296.849,155.244c.853-13.36.558-28.751-1.295-41.405-3.592-24.501-14.512-25.428-44.704-41.356-4.839-2.543-11.042-6.792-20.398-7.083-22.695-.688-56.428,25.793-67.643,43.894"/>
  <line class="uuid-d6d70c82-1380-4696-be72-04dfa9c5dec1" x1="338.646" y1="287.645" x2="338.646" y2="255.424"/>
  <line class="uuid-d6d70c82-1380-4696-be72-04dfa9c5dec1" x1="279.187" y1="229.629" x2="278.599" y2="230.799"/>
  <path class="uuid-fe6700d2-443e-4922-9d25-9bf0c92a6c3e" d="M185.797,229.213c-.853-.806-1.563-1.659-2.321-2.417"/>
  <line class="uuid-d6d70c82-1380-4696-be72-04dfa9c5dec1" x1="183.476" y1="226.796" x2="183.476" y2="226.722"/>
  <line class="uuid-d6d70c82-1380-4696-be72-04dfa9c5dec1" x1="296.849" y1="155.244" x2="293.769" y2="145.132"/>
  <line class="uuid-260c7363-bed5-48c6-a648-bdd94a662839" x1="337.593" y1="270.4" x2="308.28" y2="321.16"/>
  <line class="uuid-260c7363-bed5-48c6-a648-bdd94a662839" x1="337.884" y1="247.29" x2="283.827" y2="340.896"/>
  <line class="uuid-cde03e68-c8dc-4cc0-bc54-827f4f60624f" x1="330.934" y1="236.733" x2="262.501" y2="355.239"/>
  <line class="uuid-cde03e68-c8dc-4cc0-bc54-827f4f60624f" x1="322.347" y1="229.004" x2="243.178" y2="366.156"/>
  <line class="uuid-cde03e68-c8dc-4cc0-bc54-827f4f60624f" x1="311.89" y1="224.54" x2="225.295" y2="374.585"/>
  <line class="uuid-260c7363-bed5-48c6-a648-bdd94a662839" x1="299.851" y1="222.837" x2="297.36" y2="227.135"/>
  <line class="uuid-260c7363-bed5-48c6-a648-bdd94a662839" x1="266.923" y1="279.852" x2="209.857" y2="378.688"/>
  <line class="uuid-260c7363-bed5-48c6-a648-bdd94a662839" x1="249.285" y1="287.887" x2="194.565" y2="382.647"/>
  <line class="uuid-260c7363-bed5-48c6-a648-bdd94a662839" x1="234.41" y1="291.016" x2="180.179" y2="384.967"/>
  <line class="uuid-260c7363-bed5-48c6-a648-bdd94a662839" x1="221.168" y1="291.405" x2="166.694" y2="385.723"/>
  <line class="uuid-260c7363-bed5-48c6-a648-bdd94a662839" x1="208.978" y1="289.919" x2="154.162" y2="384.917"/>
  <line class="uuid-260c7363-bed5-48c6-a648-bdd94a662839" x1="197.645" y1="286.961" x2="142.414" y2="382.647"/>
  <line class="uuid-260c7363-bed5-48c6-a648-bdd94a662839" x1="186.97" y1="282.88" x2="131.567" y2="378.882"/>
  <line class="uuid-260c7363-bed5-48c6-a648-bdd94a662839" x1="176.93" y1="277.729" x2="121.527" y2="373.654"/>
  <line class="uuid-260c7363-bed5-48c6-a648-bdd94a662839" x1="167.669" y1="271.158" x2="113.318" y2="365.229"/>
  <line class="uuid-260c7363-bed5-48c6-a648-bdd94a662839" x1="159.317" y1="263.023" x2="113.049" y2="343.219"/>
  <line class="uuid-260c7363-bed5-48c6-a648-bdd94a662839" x1="130.331" y1="290.637" x2="113.874" y2="319.147"/>
  <line class="uuid-260c7363-bed5-48c6-a648-bdd94a662839" x1="240.222" y1="272.964" x2="179.811" y2="238.103"/>
  <line class="uuid-260c7363-bed5-48c6-a648-bdd94a662839" x1="262.06" y1="259.479" x2="256.93" y2="256.573"/>
  <line class="uuid-260c7363-bed5-48c6-a648-bdd94a662839" x1="276.401" y1="241.719" x2="274.933" y2="240.888"/>
  <line class="uuid-260c7363-bed5-48c6-a648-bdd94a662839" x1="179.59" y1="213.848" x2="169.771" y2="208.131"/>
  <line class="uuid-260c7363-bed5-48c6-a648-bdd94a662839" x1="175.635" y1="198.505" x2="163.494" y2="191.469"/>
  <line class="uuid-260c7363-bed5-48c6-a648-bdd94a662839" x1="178.541" y1="187.173" x2="159.854" y2="176.326"/>
  <line class="uuid-260c7363-bed5-48c6-a648-bdd94a662839" x1="207.976" y1="191.132" x2="204.632" y2="189.199"/>
  <line class="uuid-260c7363-bed5-48c6-a648-bdd94a662839" x1="187.947" y1="179.575" x2="157.51" y2="161.987"/>
  <line class="uuid-260c7363-bed5-48c6-a648-bdd94a662839" x1="210.667" y1="179.623" x2="156.02" y2="148.112"/>
  <line class="uuid-260c7363-bed5-48c6-a648-bdd94a662839" x1="210.957" y1="166.752" x2="156.41" y2="135.337"/>
  <line class="uuid-260c7363-bed5-48c6-a648-bdd94a662839" x1="216.7" y1="157.053" x2="157.999" y2="123.122"/>
  <line class="uuid-260c7363-bed5-48c6-a648-bdd94a662839" x1="228.959" y1="151.115" x2="161.075" y2="111.907"/>
  <line class="uuid-260c7363-bed5-48c6-a648-bdd94a662839" x1="243.714" y1="146.596" x2="166.989" y2="102.285"/>
  <line class="uuid-260c7363-bed5-48c6-a648-bdd94a662839" x1="256.003" y1="140.61" x2="174.781" y2="93.735"/>
  <line class="uuid-260c7363-bed5-48c6-a648-bdd94a662839" x1="265.651" y1="133.185" x2="183.723" y2="85.842"/>
  <line class="uuid-260c7363-bed5-48c6-a648-bdd94a662839" x1="295.259" y1="137.24" x2="294.699" y2="136.898"/>
  <line class="uuid-260c7363-bed5-48c6-a648-bdd94a662839" x1="274.592" y1="125.27" x2="193.759" y2="78.638"/>
  <line class="uuid-260c7363-bed5-48c6-a648-bdd94a662839" x1="294.699" y1="123.828" x2="293.821" y2="123.365"/>
  <line class="uuid-260c7363-bed5-48c6-a648-bdd94a662839" x1="284.754" y1="118.14" x2="205.144" y2="72.14"/>
  <line class="uuid-260c7363-bed5-48c6-a648-bdd94a662839" x1="295.259" y1="111.175" x2="219.018" y2="67.155"/>
  <line class="uuid-260c7363-bed5-48c6-a648-bdd94a662839" x1="261.522" y1="252.86" x2="178.078" y2="204.664"/>
  <line class="uuid-260c7363-bed5-48c6-a648-bdd94a662839" x1="276.571" y1="235.49" x2="208.565" y2="196.184"/>
  <line class="uuid-260c7363-bed5-48c6-a648-bdd94a662839" x1="202.067" y1="192.474" x2="186.382" y2="183.409"/>
  <line class="uuid-260c7363-bed5-48c6-a648-bdd94a662839" x1="287.319" y1="215.633" x2="210.42" y2="171.219"/>
  <line class="uuid-260c7363-bed5-48c6-a648-bdd94a662839" x1="294.699" y1="193.792" x2="224.074" y2="153.046"/>
  <line class="uuid-260c7363-bed5-48c6-a648-bdd94a662839" x1="296.137" y1="168.532" x2="252.07" y2="143.105"/>
  <line class="uuid-260c7363-bed5-48c6-a648-bdd94a662839" x1="291.376" y1="139.734" x2="271.758" y2="128.398"/>
</svg>