<?xml version="1.0" encoding="UTF-8"?>
<svg id="uuid-ef9f9f10-37f2-44e2-9eb0-835f19fa3549" data-name="&amp;lt;Layer&amp;gt;" xmlns="http://www.w3.org/2000/svg" viewBox="0 0 451.11 451.11">
  <defs>
    <style>
      .uuid-bcef2363-8cb7-4672-8c33-f144e7f362b0, .uuid-04941097-aa74-4c71-880a-be1ef8dbacb0, .uuid-3669810e-bb3b-4b1d-8b10-01e3a7bb57f3, .uuid-4865b2af-fb5e-4558-82c4-cee4b9651e02 {
        fill: none;
        stroke: #000;
        stroke-linecap: round;
      }

      .uuid-bcef2363-8cb7-4672-8c33-f144e7f362b0, .uuid-3669810e-bb3b-4b1d-8b10-01e3a7bb57f3 {
        stroke-width: 4.113px;
      }

      .uuid-bcef2363-8cb7-4672-8c33-f144e7f362b0, .uuid-3669810e-bb3b-4b1d-8b10-01e3a7bb57f3, .uuid-4865b2af-fb5e-4558-82c4-cee4b9651e02 {
        stroke-linejoin: round;
      }

      .uuid-04941097-aa74-4c71-880a-be1ef8dbacb0 {
        stroke-miterlimit: 10;
        stroke-width: 1.163px;
      }

      .uuid-3669810e-bb3b-4b1d-8b10-01e3a7bb57f3, .uuid-4865b2af-fb5e-4558-82c4-cee4b9651e02 {
        fill-rule: evenodd;
      }

      .uuid-4865b2af-fb5e-4558-82c4-cee4b9651e02 {
        stroke-width: 4.117px;
      }
    </style>
  </defs>
  <line class="uuid-bcef2363-8cb7-4672-8c33-f144e7f362b0" x1="241.958" y1="365.919" x2="239.588" y2="370.532"/>
  <line class="uuid-bcef2363-8cb7-4672-8c33-f144e7f362b0" x1="326.576" y1="222.479" x2="375.287" y2="222.479"/>
  <line class="uuid-bcef2363-8cb7-4672-8c33-f144e7f362b0" x1="299.804" y1="148.604" x2="334.638" y2="113.819"/>
  <line class="uuid-bcef2363-8cb7-4672-8c33-f144e7f362b0" x1="124.604" y1="222.479" x2="75.823" y2="222.479"/>
  <line class="uuid-bcef2363-8cb7-4672-8c33-f144e7f362b0" x1="151.353" y1="148.604" x2="116.52" y2="113.819"/>
  <line class="uuid-bcef2363-8cb7-4672-8c33-f144e7f362b0" x1="225.518" y1="123.957" x2="225.518" y2="74.296"/>
  <line class="uuid-bcef2363-8cb7-4672-8c33-f144e7f362b0" x1="245.965" y1="210.823" x2="244.864" y2="217.736"/>
  <path class="uuid-3669810e-bb3b-4b1d-8b10-01e3a7bb57f3" d="M238.292,214.878c.465-2.976,2.639-6.299,4.714-7.426,2.152-1.121,3.496.395,2.958,3.371"/>
  <line class="uuid-bcef2363-8cb7-4672-8c33-f144e7f362b0" x1="237.145" y1="221.769" x2="238.292" y2="214.878"/>
  <path class="uuid-3669810e-bb3b-4b1d-8b10-01e3a7bb57f3" d="M244.864,217.736c-.515,2.98-2.611,6.303-4.765,7.428-2.1,1.101-3.418-.415-2.954-3.396"/>
  <line class="uuid-bcef2363-8cb7-4672-8c33-f144e7f362b0" x1="237.145" y1="221.769" x2="236.802" y2="223.87"/>
  <line class="uuid-bcef2363-8cb7-4672-8c33-f144e7f362b0" x1="238.661" y1="212.706" x2="238.292" y2="214.878"/>
  <path class="uuid-3669810e-bb3b-4b1d-8b10-01e3a7bb57f3" d="M230.938,216.783c.515-2.98,2.615-6.303,4.743-7.425,2.098-1.123,3.444.389,2.98,3.348"/>
  <line class="uuid-bcef2363-8cb7-4672-8c33-f144e7f362b0" x1="229.131" y1="227.924" x2="230.938" y2="216.783"/>
  <path class="uuid-3669810e-bb3b-4b1d-8b10-01e3a7bb57f3" d="M236.802,223.87c-.463,2.98-2.564,6.324-4.713,7.424-2.078,1.123-3.422-.391-2.958-3.371"/>
  <line class="uuid-bcef2363-8cb7-4672-8c33-f144e7f362b0" x1="229.131" y1="227.924" x2="228.593" y2="231.026"/>
  <path class="uuid-3669810e-bb3b-4b1d-8b10-01e3a7bb57f3" d="M223.439,219.693c.515-2.984,2.615-6.28,4.765-7.428,2.078-1.1,3.421.391,2.954,3.371"/>
  <line class="uuid-bcef2363-8cb7-4672-8c33-f144e7f362b0" x1="220.948" y1="235.081" x2="223.439" y2="219.693"/>
  <path class="uuid-3669810e-bb3b-4b1d-8b10-01e3a7bb57f3" d="M228.593,231.026c-.463,2.954-2.586,6.303-4.691,7.425-2.148,1.101-3.444-.411-2.954-3.37"/>
  <line class="uuid-bcef2363-8cb7-4672-8c33-f144e7f362b0" x1="223.024" y1="222.38" x2="221.169" y2="233.543"/>
  <path class="uuid-3669810e-bb3b-4b1d-8b10-01e3a7bb57f3" d="M215.307,226.434c.534-2.98,2.613-6.302,4.761-7.428,2.102-1.122,3.423.419,2.956,3.375"/>
  <line class="uuid-bcef2363-8cb7-4672-8c33-f144e7f362b0" x1="213.498" y1="237.576" x2="215.307" y2="226.434"/>
  <path class="uuid-3669810e-bb3b-4b1d-8b10-01e3a7bb57f3" d="M221.169,233.543c-.463,2.98-2.613,6.303-4.691,7.399-2.174,1.127-3.444-.389-2.98-3.366"/>
  <line class="uuid-bcef2363-8cb7-4672-8c33-f144e7f362b0" x1="214.84" y1="229.241" x2="213.744" y2="236.18"/>
  <path class="uuid-3669810e-bb3b-4b1d-8b10-01e3a7bb57f3" d="M207.173,233.3c.463-2.984,2.613-6.281,4.713-7.428,2.149-1.097,3.469.393,2.954,3.37"/>
  <line class="uuid-bcef2363-8cb7-4672-8c33-f144e7f362b0" x1="206.072" y1="240.209" x2="207.173" y2="233.3"/>
  <path class="uuid-3669810e-bb3b-4b1d-8b10-01e3a7bb57f3" d="M213.744,236.18c-.467,2.956-2.617,6.277-4.717,7.404-2.149,1.122-3.492-.391-2.956-3.375"/>
  <path class="uuid-3669810e-bb3b-4b1d-8b10-01e3a7bb57f3" d="M244.401,219.153c-.122.393-.243.758-.343,1.151-5.812,21.274-11.552,48.487-12.557,69.058-.048.928-.096,1.807-.096,2.661-.074,1.125-.074,2.174-.074,3.201"/>
  <path class="uuid-3669810e-bb3b-4b1d-8b10-01e3a7bb57f3" d="M206.072,239.82c0,.048.048.048.048.121.537,1.273,1.053,2.617,1.516,3.959,5.35,14.096,8.842,30.367,10.163,45.533.341,3.375.536,6.671.536,9.919.096,1.175.096,2.27.096,3.371"/>
  <path class="uuid-3669810e-bb3b-4b1d-8b10-01e3a7bb57f3" d="M230.621,292.218c.247-.122.489-.195.784-.195.437-.048.975,0,1.391.195"/>
  <polyline class="uuid-3669810e-bb3b-4b1d-8b10-01e3a7bb57f3" points="211.47 303.308 218.335 299.351 230.621 292.218"/>
  <line class="uuid-bcef2363-8cb7-4672-8c33-f144e7f362b0" x1="218.678" y1="307.487" x2="237.829" y2="296.397"/>
  <path class="uuid-3669810e-bb3b-4b1d-8b10-01e3a7bb57f3" d="M216.53,307.487c.047.048.121.048.217.096"/>
  <polyline class="uuid-3669810e-bb3b-4b1d-8b10-01e3a7bb57f3" points="211.47 304.529 215.014 306.607 216.404 307.413 216.53 307.487"/>
  <path class="uuid-4865b2af-fb5e-4558-82c4-cee4b9651e02" d="M193.172,322.336c8.65,7.657,22.098,10.391,33.192,10.119,11.129-.273,33.526-4.953,36.087-19.644"/>
  <path class="uuid-3669810e-bb3b-4b1d-8b10-01e3a7bb57f3" d="M187.433,311.763c0,.121.048.315.048.411.68,4.254,2.601,7.245,5.692,10.162"/>
  <polyline class="uuid-3669810e-bb3b-4b1d-8b10-01e3a7bb57f3" points="187.555 325.88 187.433 324.853 187.433 311.763"/>
  <path class="uuid-3669810e-bb3b-4b1d-8b10-01e3a7bb57f3" d="M262.573,324.853c-.121,1.737-.684,3.543-1.563,5.156,0,0,.051.073,0,.073-.343.685-.755,1.321-1.145,1.907-.71.927-1.468,1.857-2.274,2.663-.758.828-1.589,1.512-2.443,2.222-5.593,4.224-13.142,6.668-19.468,7.767-12.289,2.101-27.875.585-38.6-6.255-.754-.489-1.512-1.001-2.224-1.586-.875-.684-1.685-1.39-2.439-2.148-1.394-1.394-2.543-2.906-3.422-4.57-.585-1.107-1.063-2.292-1.328-3.558-.042-.209-.082-.427-.114-.644"/>
  <line class="uuid-bcef2363-8cb7-4672-8c33-f144e7f362b0" x1="262.573" y1="311.763" x2="262.573" y2="324.853"/>
  <polyline class="uuid-3669810e-bb3b-4b1d-8b10-01e3a7bb57f3" points="238.292 295.856 238.292 307.241 238.245 307.315 238.245 307.413 238.119 307.535 238.071 307.656 237.951 307.704 237.829 307.778 224.418 315.497 218.678 318.798 218.556 318.871 218.431 318.919 218.335 318.967 218.215 319.041 218.042 319.041 217.92 319.091 217.335 319.091 217.162 319.041 217.041 319.041 216.871 318.967 216.747 318.919 216.651 318.871 216.404 318.746 215.014 317.94 211.47 315.916 211.348 315.839 211.25 315.792 211.179 315.67 211.08 315.549 211.08 315.427"/>
  <path class="uuid-3669810e-bb3b-4b1d-8b10-01e3a7bb57f3" d="M217.799,289.432c4.543-.485,9.183-.537,13.702-.07"/>
  <line class="uuid-bcef2363-8cb7-4672-8c33-f144e7f362b0" x1="211.08" y1="315.549" x2="211.007" y2="303.992"/>
  <path class="uuid-3669810e-bb3b-4b1d-8b10-01e3a7bb57f3" d="M189.165,341.05c-1.733-3.616-1.733-7.377-.169-10.968"/>
  <path class="uuid-3669810e-bb3b-4b1d-8b10-01e3a7bb57f3" d="M261.01,330.082c1.637,3.592,1.563,7.426-.17,11.016-1.637,3.496-4.765,6.792-9.526,9.53-14.512,8.353-38.085,8.353-52.57,0-4.761-2.737-7.936-6.034-9.578-9.53"/>
  <path class="uuid-3669810e-bb3b-4b1d-8b10-01e3a7bb57f3" d="M217.799,289.432c-7.087.578-13.88,2.649-19.399,5.96-7.767,4.544-11.432,10.531-10.968,16.392"/>
  <line class="uuid-bcef2363-8cb7-4672-8c33-f144e7f362b0" x1="211.47" y1="303.308" x2="218.335" y2="299.351"/>
  <path class="uuid-3669810e-bb3b-4b1d-8b10-01e3a7bb57f3" d="M211.007,303.992c0-.217.121-.511.463-.684"/>
  <polyline class="uuid-3669810e-bb3b-4b1d-8b10-01e3a7bb57f3" points="238.292 295.856 238.292 307.241 238.245 307.315 238.245 307.413 238.119 307.535 238.071 307.656 237.951 307.704 237.829 307.778 224.418 315.497 218.678 318.798 218.556 318.871 218.431 318.919 218.335 318.967 218.215 319.041 218.042 319.041 217.92 319.091 217.335 319.091 217.162 319.041 217.041 319.041 216.871 318.967 216.747 318.919 216.651 318.871 216.404 318.746 215.014 317.94 211.47 315.916 211.348 315.839 211.25 315.792 211.179 315.67 211.08 315.549 211.08 315.427 211.007 315.375 211.007 303.992"/>
  <path class="uuid-3669810e-bb3b-4b1d-8b10-01e3a7bb57f3" d="M237.829,295.176c.369.169.463.463.463.68"/>
  <line class="uuid-bcef2363-8cb7-4672-8c33-f144e7f362b0" x1="232.796" y1="292.218" x2="237.829" y2="295.176"/>
  <path class="uuid-3669810e-bb3b-4b1d-8b10-01e3a7bb57f3" d="M262.573,311.785c.467-5.862-3.197-11.848-10.964-16.392-5.696-3.297-12.731-5.276-20.107-6.03"/>
  <path class="uuid-3669810e-bb3b-4b1d-8b10-01e3a7bb57f3" d="M257.274,322.065c2.429-.475,4.055-2.451,5.298-3.732,6.867-7.134,6.034-13.926,8.477-22.646,4.129-14.584,9.405-16.365,16.904-29.144,11.851-20.321,23.282-42.92,12.778-76.02-10.747-34.027-43.261-51.054-75.728-51.054s-64.93,17.027-75.725,51.054c-10.505,33.1.927,55.698,12.775,76.02,7.499,12.779,12.775,14.56,16.903,29.144,2.443,8.72,2.152,15.049,8.477,22.646,1.516,1.807,3.544,3.357,5.74,4.003"/>
  <line class="uuid-bcef2363-8cb7-4672-8c33-f144e7f362b0" x1="189.165" y1="341.098" x2="189.165" y2="341.05"/>
  <path class="uuid-4865b2af-fb5e-4558-82c4-cee4b9651e02" d="M260.84,341.098c3.422,7.208.221,15.27-9.526,20.911-2.858,1.637-5.986,2.91-9.356,3.899-6.223,1.851-13.154,2.617-20.233,2.282-4.585-.391-9.272-.832-13.676-2.296-3.367-.975-6.494-2.248-9.305-3.885-9.795-5.641-12.996-13.703-9.578-20.911"/>
  <polyline class="uuid-3669810e-bb3b-4b1d-8b10-01e3a7bb57f3" points="241.958 365.893 241.958 365.967 241.906 365.967"/>
  <line class="uuid-bcef2363-8cb7-4672-8c33-f144e7f362b0" x1="210.37" y1="370.532" x2="207.979" y2="365.919"/>
  <path class="uuid-3669810e-bb3b-4b1d-8b10-01e3a7bb57f3" d="M239.588,370.532c-2.027,3.643-6.398,5.182-10.284,5.914-3.716.588-7.034.489-10.747-.439-3.201-.931-6.5-2.443-8.186-5.475"/>
  <line class="uuid-04941097-aa74-4c71-880a-be1ef8dbacb0" x1="256.538" y1="338.243" x2="250.214" y2="349.137"/>
  <line class="uuid-04941097-aa74-4c71-880a-be1ef8dbacb0" x1="246.965" y1="354.757" x2="241.567" y2="364.135"/>
  <line class="uuid-04941097-aa74-4c71-880a-be1ef8dbacb0" x1="248.113" y1="330.182" x2="241.615" y2="341.44"/>
  <line class="uuid-04941097-aa74-4c71-880a-be1ef8dbacb0" x1="239.124" y1="345.789" x2="234.116" y2="354.436"/>
  <line class="uuid-04941097-aa74-4c71-880a-be1ef8dbacb0" x1="231.842" y1="358.321" x2="227.277" y2="366.357"/>
  <line class="uuid-04941097-aa74-4c71-880a-be1ef8dbacb0" x1="225.003" y1="370.195" x2="222.39" y2="374.76"/>
  <line class="uuid-04941097-aa74-4c71-880a-be1ef8dbacb0" x1="232.674" y1="334.405" x2="227.277" y2="343.714"/>
  <line class="uuid-04941097-aa74-4c71-880a-be1ef8dbacb0" x1="225.176" y1="347.305" x2="220.779" y2="354.973"/>
  <line class="uuid-04941097-aa74-4c71-880a-be1ef8dbacb0" x1="218.8" y1="358.369" x2="214.671" y2="365.577"/>
  <line class="uuid-04941097-aa74-4c71-880a-be1ef8dbacb0" x1="212.644" y1="369.094" x2="212.276" y2="369.658"/>
  <line class="uuid-04941097-aa74-4c71-880a-be1ef8dbacb0" x1="219.362" y1="334.846" x2="214.719" y2="342.882"/>
  <line class="uuid-04941097-aa74-4c71-880a-be1ef8dbacb0" x1="212.814" y1="346.205" x2="208.905" y2="352.898"/>
  <line class="uuid-04941097-aa74-4c71-880a-be1ef8dbacb0" x1="207.074" y1="356.125" x2="203.508" y2="362.328"/>
  <line class="uuid-04941097-aa74-4c71-880a-be1ef8dbacb0" x1="207.515" y1="332.768" x2="203.508" y2="339.682"/>
  <line class="uuid-04941097-aa74-4c71-880a-be1ef8dbacb0" x1="201.65" y1="342.882" x2="198.523" y2="348.331"/>
  <line class="uuid-04941097-aa74-4c71-880a-be1ef8dbacb0" x1="196.668" y1="351.554" x2="194.052" y2="356.099"/>
  <line class="uuid-04941097-aa74-4c71-880a-be1ef8dbacb0" x1="196.959" y1="328.445" x2="194.052" y2="333.551"/>
  <line class="uuid-04941097-aa74-4c71-880a-be1ef8dbacb0" x1="192.077" y1="336.97" x2="190.633" y2="339.413"/>
  <line class="uuid-04941097-aa74-4c71-880a-be1ef8dbacb0" x1="223.024" y1="330.936" x2="188.363" y2="310.931"/>
  <line class="uuid-04941097-aa74-4c71-880a-be1ef8dbacb0" x1="241.663" y1="328.639" x2="223.148" y2="317.94"/>
  <line class="uuid-04941097-aa74-4c71-880a-be1ef8dbacb0" x1="209.491" y1="310.077" x2="193.589" y2="300.89"/>
  <line class="uuid-04941097-aa74-4c71-880a-be1ef8dbacb0" x1="254.147" y1="322.801" x2="234.411" y2="311.42"/>
  <line class="uuid-04941097-aa74-4c71-880a-be1ef8dbacb0" x1="214.208" y1="299.72" x2="204.851" y2="294.319"/>
  <line class="uuid-04941097-aa74-4c71-880a-be1ef8dbacb0" x1="260.936" y1="313.716" x2="239.71" y2="301.427"/>
  <line class="uuid-04941097-aa74-4c71-880a-be1ef8dbacb0" x1="225.345" y1="301.353" x2="222.049" y2="299.473"/>
  <line class="uuid-04941097-aa74-4c71-880a-be1ef8dbacb0" x1="221.291" y1="315.181" x2="221.291" y2="308.123"/>
  <line class="uuid-04941097-aa74-4c71-880a-be1ef8dbacb0" x1="232.552" y1="308.683" x2="232.552" y2="301.6"/>
</svg>