<?xml version="1.0" encoding="UTF-8"?>
<svg id="uuid-c22d428f-e709-4854-8c39-810b690b198b" data-name="&amp;lt;Layer&amp;gt;" xmlns="http://www.w3.org/2000/svg" viewBox="0 0 451.11 451.11">
  <defs>
    <style>
      .uuid-e28143ce-0fc5-486b-9322-0ad6ed2cd696, .uuid-a9713813-77a3-403d-9d9b-5f391a488cd5, .uuid-c1ed63c6-11ab-4ea8-be67-f5c23f752540 {
        fill: none;
        stroke: #000;
        stroke-linecap: round;
      }

      .uuid-e28143ce-0fc5-486b-9322-0ad6ed2cd696, .uuid-c1ed63c6-11ab-4ea8-be67-f5c23f752540 {
        stroke-linejoin: round;
        stroke-width: 4.113px;
      }

      .uuid-a9713813-77a3-403d-9d9b-5f391a488cd5 {
        stroke-miterlimit: 10;
        stroke-width: 1.163px;
      }

      .uuid-c1ed63c6-11ab-4ea8-be67-f5c23f752540 {
        fill-rule: evenodd;
      }
    </style>
  </defs>
  <path class="uuid-c1ed63c6-11ab-4ea8-be67-f5c23f752540" d="M218.344,252.312c2.737,1.169,5.523,1.755,8.477,1.269,0,0,0,.073.048,0,.074.073.122.073.199,0,.265-.048.611-.174.928-.222,4.102-.805,8.524-3.664,13.411-9.819.927-1.101,1.855-2.322,2.66-3.592,2.616-4.007,5.28-9.574,6.571-15.218.295-1.27.464-2.543.563-3.834.073-.688.121-1.346.121-2.03v-.242c0-.858-.048-1.734-.121-2.491-.048-.637-.17-1.273-.268-1.907-.243-.927-.49-1.809-.832-2.565-.927-2.026-2.318-3.885-4.348-5.275-.17-.174-.413-.244-.633-.343"/>
  <path class="uuid-c1ed63c6-11ab-4ea8-be67-f5c23f752540" d="M306.678,100.928c-21.329-12.264-33.64-19.515-61.39-11.748-96.001,26.771-169.335,196.817-110.513,253.733,6.501,6.255,15.39,10.673,23.283,15.196-50.055-31.757-29.097-114.789-6.718-158.978,23.158-45.779,76.339-107.901,131.107-105.116,9.352.463,16.097,2.663,24.231,6.913Z"/>
  <path class="uuid-c1ed63c6-11ab-4ea8-be67-f5c23f752540" d="M232.392,108.231c-58.017,33.468-105.042,114.863-105.042,181.893-.07,66.957,46.975,94.122,104.92,60.676,58.017-33.438,105.065-114.859,105.113-181.816,0-67.03-46.975-94.194-104.991-60.753Z"/>
  <path class="uuid-c1ed63c6-11ab-4ea8-be67-f5c23f752540" d="M232.34,190.653c18.641-10.747,33.736-2.049,33.736,19.445-.048,21.499-15.144,47.611-33.736,58.358-18.635,10.748-33.684,2.028-33.684-19.519s15.097-47.611,33.684-58.284Z"/>
  <path class="uuid-c1ed63c6-11ab-4ea8-be67-f5c23f752540" d="M289.992,94.893c-.341-.07-.636-.121-.979-.169-.121,0-.217-.074-.338-.074-.417-.074-.832-.121-1.273-.173-.585-.122-1.171-.17-1.807-.17-.295-.073-.537-.121-.806-.121-.537-.052-1.001-.052-1.516-.122-1.049-.051-2.148-.121-3.197-.121h-.81c-1.121,0-2.27.07-3.418.121-1.343.07-2.69.17-4.033.291-2.244.221-4.566.637-6.961,1.101-1.221.242-2.491.537-3.76.878-2.27.515-4.496,1.175-6.792,1.98-1.637.511-3.271,1.101-4.956,1.732"/>
  <path class="uuid-c1ed63c6-11ab-4ea8-be67-f5c23f752540" d="M175.204,364.289c1.273.217,2.617.391,3.933.511.463.048.931.122,1.395.122,1.633.173,3.273.221,4.934.221h.173c1.123,0,2.222-.048,3.319-.1,1.221-.073,2.495-.121,3.838-.315,1.047-.096,2.074-.222,3.201-.391.095,0,.217-.048.389-.048,1.049-.199,2.098-.367,3.197-.588,1.223-.243,2.444-.537,3.666-.806,1.221-.295,2.443-.637,3.716-1.001.975-.295,2.024-.586,3.002-.927,1.538-.516,3.101-1.053,4.591-1.638"/>
  <path class="uuid-c1ed63c6-11ab-4ea8-be67-f5c23f752540" d="M232.34,189.994c18.934-10.846,34.2-2.027,34.2,19.81s-15.338,48.318-34.2,59.238c-18.882,10.92-34.196,2.03-34.196-19.81s15.314-48.318,34.196-59.238Z"/>
  <path class="uuid-c1ed63c6-11ab-4ea8-be67-f5c23f752540" d="M232.34,207.656c10.457-6.034,18.934-1.101,18.934,10.968s-8.477,26.723-18.934,32.756c-10.453,6.034-18.93,1.175-18.93-10.92s8.477-26.771,18.93-32.804Z"/>
  <path class="uuid-c1ed63c6-11ab-4ea8-be67-f5c23f752540" d="M232.34,280.72c-24.501,14.095-44.31,2.613-44.31-25.627s19.861-62.583,44.362-76.704c24.449-14.118,44.263-2.665,44.263,25.6s-19.884,62.609-44.315,76.73Z"/>
  <path class="uuid-c1ed63c6-11ab-4ea8-be67-f5c23f752540" d="M237.278,205.628c3.956,13.58-9.456,36.811-23.158,40.134"/>
  <line class="uuid-e28143ce-0fc5-486b-9322-0ad6ed2cd696" x1="259.505" y1="173.503" x2="289.992" y2="94.893"/>
  <line class="uuid-e28143ce-0fc5-486b-9322-0ad6ed2cd696" x1="249.347" y1="100.047" x2="232.683" y2="178.22"/>
  <line class="uuid-e28143ce-0fc5-486b-9322-0ad6ed2cd696" x1="205.743" y1="285.776" x2="175.204" y2="364.289"/>
  <line class="uuid-e28143ce-0fc5-486b-9322-0ad6ed2cd696" x1="214.558" y1="359.329" x2="231.245" y2="281.352"/>
  <line class="uuid-a9713813-77a3-403d-9d9b-5f391a488cd5" x1="210.382" y1="285.702" x2="189.593" y2="249.647"/>
  <line class="uuid-a9713813-77a3-403d-9d9b-5f391a488cd5" x1="222.06" y1="283.383" x2="217.517" y2="275.492"/>
  <line class="uuid-a9713813-77a3-403d-9d9b-5f391a488cd5" x1="197.092" y1="240.071" x2="193.38" y2="233.621"/>
  <line class="uuid-a9713813-77a3-403d-9d9b-5f391a488cd5" x1="232.34" y1="278.568" x2="228.971" y2="272.828"/>
  <line class="uuid-a9713813-77a3-403d-9d9b-5f391a488cd5" x1="201.441" y1="225.025" x2="198.608" y2="220.138"/>
  <line class="uuid-a9713813-77a3-403d-9d9b-5f391a488cd5" x1="241.503" y1="271.874" x2="238.717" y2="267.066"/>
  <line class="uuid-a9713813-77a3-403d-9d9b-5f391a488cd5" x1="207.476" y1="213.005" x2="204.985" y2="208.582"/>
  <line class="uuid-a9713813-77a3-403d-9d9b-5f391a488cd5" x1="249.81" y1="263.692" x2="247.267" y2="259.295"/>
  <line class="uuid-a9713813-77a3-403d-9d9b-5f391a488cd5" x1="214.68" y1="202.891" x2="212.189" y2="198.541"/>
  <line class="uuid-a9713813-77a3-403d-9d9b-5f391a488cd5" x1="257.309" y1="254.117" x2="254.818" y2="249.743"/>
  <line class="uuid-a9713813-77a3-403d-9d9b-5f391a488cd5" x1="222.936" y1="194.486" x2="220.251" y2="189.895"/>
  <line class="uuid-a9713813-77a3-403d-9d9b-5f391a488cd5" x1="263.977" y1="243.149" x2="261.316" y2="238.432"/>
  <line class="uuid-a9713813-77a3-403d-9d9b-5f391a488cd5" x1="232.172" y1="187.966" x2="229.095" y2="182.617"/>
  <line class="uuid-a9713813-77a3-403d-9d9b-5f391a488cd5" x1="269.668" y1="230.374" x2="266.371" y2="224.657"/>
  <line class="uuid-a9713813-77a3-403d-9d9b-5f391a488cd5" x1="242.897" y1="183.959" x2="238.89" y2="177.046"/>
  <line class="uuid-a9713813-77a3-403d-9d9b-5f391a488cd5" x1="273.87" y1="215.032" x2="268.229" y2="205.285"/>
  <line class="uuid-a9713813-77a3-403d-9d9b-5f391a488cd5" x1="256.967" y1="185.766" x2="250.175" y2="174.04"/>
  <line class="uuid-a9713813-77a3-403d-9d9b-5f391a488cd5" x1="272.917" y1="190.826" x2="266.666" y2="179.952"/>
  <line class="uuid-a9713813-77a3-403d-9d9b-5f391a488cd5" x1="222.23" y1="271.705" x2="201.515" y2="235.821"/>
  <line class="uuid-a9713813-77a3-403d-9d9b-5f391a488cd5" x1="241.285" y1="259.564" x2="236.399" y2="251.091"/>
  <line class="uuid-a9713813-77a3-403d-9d9b-5f391a488cd5" x1="218.224" y1="219.624" x2="213.41" y2="211.32"/>
  <line class="uuid-a9713813-77a3-403d-9d9b-5f391a488cd5" x1="256.039" y1="239.948" x2="250.69" y2="230.643"/>
  <line class="uuid-a9713813-77a3-403d-9d9b-5f391a488cd5" x1="235.541" y1="204.406" x2="229.655" y2="194.317"/>
  <line class="uuid-a9713813-77a3-403d-9d9b-5f391a488cd5" x1="264.344" y1="209.218" x2="252.202" y2="188.209"/>
  <line class="uuid-a9713813-77a3-403d-9d9b-5f391a488cd5" x1="126.765" y1="307.075" x2="115.55" y2="287.681"/>
  <line class="uuid-a9713813-77a3-403d-9d9b-5f391a488cd5" x1="125.786" y1="282.868" x2="116.433" y2="266.65"/>
  <line class="uuid-a9713813-77a3-403d-9d9b-5f391a488cd5" x1="127.866" y1="263.938" x2="119.34" y2="249.059"/>
  <line class="uuid-a9713813-77a3-403d-9d9b-5f391a488cd5" x1="131.357" y1="247.374" x2="123.343" y2="233.425"/>
  <line class="uuid-a9713813-77a3-403d-9d9b-5f391a488cd5" x1="135.78" y1="232.45" x2="128.082" y2="219.087"/>
  <line class="uuid-a9713813-77a3-403d-9d9b-5f391a488cd5" x1="140.813" y1="218.624" x2="133.431" y2="205.797"/>
  <line class="uuid-a9713813-77a3-403d-9d9b-5f391a488cd5" x1="146.379" y1="205.628" x2="139.297" y2="193.317"/>
  <line class="uuid-a9713813-77a3-403d-9d9b-5f391a488cd5" x1="152.436" y1="193.485" x2="145.526" y2="181.59"/>
  <line class="uuid-a9713813-77a3-403d-9d9b-5f391a488cd5" x1="158.937" y1="182.223" x2="152.145" y2="170.428"/>
  <line class="uuid-a9713813-77a3-403d-9d9b-5f391a488cd5" x1="165.726" y1="171.475" x2="159.059" y2="159.923"/>
  <line class="uuid-a9713813-77a3-403d-9d9b-5f391a488cd5" x1="172.934" y1="161.317" x2="166.362" y2="149.929"/>
  <line class="uuid-a9713813-77a3-403d-9d9b-5f391a488cd5" x1="180.432" y1="151.692" x2="173.982" y2="140.576"/>
  <line class="uuid-a9713813-77a3-403d-9d9b-5f391a488cd5" x1="188.203" y1="142.678" x2="181.996" y2="131.804"/>
  <line class="uuid-a9713813-77a3-403d-9d9b-5f391a488cd5" x1="196.386" y1="134.2" x2="190.301" y2="123.622"/>
  <line class="uuid-a9713813-77a3-403d-9d9b-5f391a488cd5" x1="204.863" y1="126.307" x2="198.951" y2="116.071"/>
  <line class="uuid-a9713813-77a3-403d-9d9b-5f391a488cd5" x1="213.631" y1="118.979" x2="208.013" y2="109.232"/>
  <line class="uuid-a9713813-77a3-403d-9d9b-5f391a488cd5" x1="222.742" y1="112.19" x2="217.517" y2="103.08"/>
  <line class="uuid-a9713813-77a3-403d-9d9b-5f391a488cd5" x1="232.27" y1="106.082" x2="227.507" y2="97.777"/>
  <line class="uuid-a9713813-77a3-403d-9d9b-5f391a488cd5" x1="242.334" y1="100.879" x2="238.036" y2="93.381"/>
  <line class="uuid-a9713813-77a3-403d-9d9b-5f391a488cd5" x1="252.886" y1="96.556" x2="249.126" y2="90.058"/>
  <line class="uuid-a9713813-77a3-403d-9d9b-5f391a488cd5" x1="264.149" y1="93.55" x2="260.974" y2="88.032"/>
  <line class="uuid-a9713813-77a3-403d-9d9b-5f391a488cd5" x1="276.291" y1="92.038" x2="274.381" y2="88.664"/>
  <line class="uuid-a9713813-77a3-403d-9d9b-5f391a488cd5" x1="253.545" y1="171.012" x2="240.527" y2="148.49"/>
  <line class="uuid-a9713813-77a3-403d-9d9b-5f391a488cd5" x1="267.471" y1="149.98" x2="247.315" y2="115.096"/>
  <line class="uuid-a9713813-77a3-403d-9d9b-5f391a488cd5" x1="277.755" y1="122.695" x2="262.95" y2="96.973"/>
  <line class="uuid-a9713813-77a3-403d-9d9b-5f391a488cd5" x1="197.777" y1="362.652" x2="185.586" y2="341.448"/>
  <line class="uuid-a9713813-77a3-403d-9d9b-5f391a488cd5" x1="215.684" y1="348.409" x2="195.798" y2="314.04"/>
  <line class="uuid-a9713813-77a3-403d-9d9b-5f391a488cd5" x1="222.572" y1="315.262" x2="206.449" y2="287.266"/>
  <line class="uuid-a9713813-77a3-403d-9d9b-5f391a488cd5" x1="226.601" y1="251.796" x2="222.01" y2="243.831"/>
  <line class="uuid-a9713813-77a3-403d-9d9b-5f391a488cd5" x1="236.448" y1="246.274" x2="230.244" y2="235.6"/>
  <line class="uuid-a9713813-77a3-403d-9d9b-5f391a488cd5" x1="244.018" y1="236.796" x2="236.764" y2="224.215"/>
  <line class="uuid-a9713813-77a3-403d-9d9b-5f391a488cd5" x1="249.174" y1="223.167" x2="239.648" y2="206.727"/>
</svg>