<?xml version="1.0" encoding="UTF-8"?>
<svg id="uuid-b1228e87-181a-4fce-bf77-4be1d63ac786" data-name="&amp;lt;Layer&amp;gt;" xmlns="http://www.w3.org/2000/svg" viewBox="0 0 451.11 451.11">
  <defs>
    <style>
      .uuid-05355a30-91b9-41ac-9f49-30916a11eb3b, .uuid-e997447e-118b-43db-9351-e79c8e2417bf, .uuid-7a84194c-9c69-4400-88ac-26f25fc6c612 {
        fill: none;
        stroke: #000;
        stroke-linecap: round;
      }

      .uuid-05355a30-91b9-41ac-9f49-30916a11eb3b, .uuid-7a84194c-9c69-4400-88ac-26f25fc6c612 {
        stroke-linejoin: round;
        stroke-width: 4.117px;
      }

      .uuid-e997447e-118b-43db-9351-e79c8e2417bf {
        stroke-miterlimit: 10;
        stroke-width: 1.163px;
      }

      .uuid-7a84194c-9c69-4400-88ac-26f25fc6c612 {
        fill-rule: evenodd;
      }
    </style>
  </defs>
  <path class="uuid-7a84194c-9c69-4400-88ac-26f25fc6c612" d="M166.439,219.785c8.01,1.049,15.611,3.371,21.814,6.961,9.989,5.74,14.413,13.533,13.144,21.005"/>
  <polyline class="uuid-7a84194c-9c69-4400-88ac-26f25fc6c612" points="201.345 247.752 201.345 262.701 201.102 263.901"/>
  <path class="uuid-7a84194c-9c69-4400-88ac-26f25fc6c612" d="M201.102,263.901c-.636,2.687-2.101,5.177-3.712,7.33-4.813,5.982-12.827,9.941-20.105,12.139-15.854,4.812-36.642,3.959-51.449-3.786-4.344-2.248-8.768-5.446-11.6-9.574-1.295-1.737-2.322-3.933-2.908-6.108"/>
  <polyline class="uuid-7a84194c-9c69-4400-88ac-26f25fc6c612" points="111.329 263.901 111.084 262.701 111.084 247.752"/>
  <path class="uuid-7a84194c-9c69-4400-88ac-26f25fc6c612" d="M111.084,247.752c.199.883.367,1.638.636,2.517.879,2.615,2.517,5.108,4.37,7.134,5.28,5.814,13.585,9.6,21.009,11.627,15.464,4.128,35.204,3.08,49.491-4.372,4.765-2.491,9.578-6.085,12.41-10.725.88-1.464,1.686-3.249,2.101-4.96"/>
  <path class="uuid-7a84194c-9c69-4400-88ac-26f25fc6c612" d="M299.937,139.465c1.101-1.321,1.807-2.274,2.226-3.249.633-1.274.732-2.565.732-4.813"/>
  <path class="uuid-7a84194c-9c69-4400-88ac-26f25fc6c612" d="M302.896,89.41c10.284,1.859,13.876,5.156,22.89,10.332-.343-.17-.758-.339-1.153-.511-1.707-.71-3.097-1.123-4.713-1.391-.537-.121-1.099-.173-1.759-.293-.438-.074-.901-.074-1.39-.122"/>
  <path class="uuid-7a84194c-9c69-4400-88ac-26f25fc6c612" d="M316.771,140.929c0,.515,0,.927-.052,1.269.052.173.052.389-.048.564-.074.536-.243,1.001-.537,1.537-.221.343-.515.81-.853,1.273-.369.463-.832.975-1.295,1.612"/>
  <path class="uuid-7a84194c-9c69-4400-88ac-26f25fc6c612" d="M297.447,166.92c-.341.537-.71.879-1.001,1.221-.173.172-.341.367-.515.537-.338.295-.632.463-1.049.636"/>
  <path class="uuid-7a84194c-9c69-4400-88ac-26f25fc6c612" d="M274.678,169.073c-.121,0-.221,0-.341-.052-.122-.047-.291-.121-.463-.169-.074,0-.122-.052-.122-.052"/>
  <path class="uuid-7a84194c-9c69-4400-88ac-26f25fc6c612" d="M271.014,359.781c.125.17.247.291.415.487.295.345.637.636.979.809"/>
  <polyline class="uuid-7a84194c-9c69-4400-88ac-26f25fc6c612" points="255.748 346.908 255.748 206.886 249.545 203.294"/>
  <path class="uuid-7a84194c-9c69-4400-88ac-26f25fc6c612" d="M249.545,203.294c-7.039-4.08-10.751-10.699-12.51-18.419-5.15-23.4,7.282-51.86,22.305-70.328"/>
  <path class="uuid-7a84194c-9c69-4400-88ac-26f25fc6c612" d="M273.236,122.561c-1.169,1.391-2.27,2.808-3.319,4.25-1.737,2.322-3.373,4.688-4.886,7.205-.806,1.199-1.564,2.421-2.274,3.712-1.023,1.809-2.028,3.594-2.88,5.449-3.908,7.914-7.378,17.66-9.111,27.529-.078.051-.078.173-.078.293-.169.685-.289,1.443-.289,2.149-.048.099-.1.247-.048.343-.126.927-.221,1.931-.295,2.858-.122.927-.169,1.859-.243,2.711-.1,1.98-.173,3.835,0,5.766.074.975.195,1.953.243,2.906.463,5.398,1.931,10.505,4.717,14.975.217.512.585.976.923,1.44,0,.073.052.073.052.073.637.932,1.343,1.785,2.101,2.617,2.785,2.539,6.887,3.881,11.067,6.619"/>
  <path class="uuid-7a84194c-9c69-4400-88ac-26f25fc6c612" d="M268.987,213.504c.122.122.295.221.343.417.121.169.173.389.173.684.291,1.342.074,3.37.074,4.765v115.911"/>
  <path class="uuid-7a84194c-9c69-4400-88ac-26f25fc6c612" d="M308.831,295.559c.463.293.757.537.805.636.074,0,.074.074.074.074"/>
  <polyline class="uuid-7a84194c-9c69-4400-88ac-26f25fc6c612" points="309.879 325.24 308.415 328.662 281.593 344.122"/>
  <polygon class="uuid-7a84194c-9c69-4400-88ac-26f25fc6c612" points="152.784 250.026 146.04 246.141 146.04 155.856 152.832 159.739 152.784 250.026"/>
  <polygon class="uuid-7a84194c-9c69-4400-88ac-26f25fc6c612" points="145.482 156.247 138.737 152.361 142.987 102.31 149.706 106.192 145.482 156.247"/>
  <polygon class="uuid-7a84194c-9c69-4400-88ac-26f25fc6c612" points="149.706 106.192 142.987 102.31 162.774 90.852 169.566 94.761 149.706 106.192"/>
  <polygon class="uuid-7a84194c-9c69-4400-88ac-26f25fc6c612" points="152.784 250.026 152.832 159.739 145.482 156.247 149.706 106.192 169.566 94.761 173.743 139.929 166.439 151.897 166.365 186.44 166.365 242.185 152.784 250.026"/>
  <path class="uuid-7a84194c-9c69-4400-88ac-26f25fc6c612" d="M319.557,186.34c0-.879.363-1.976,1.001-2.856.632-.979,1.221-1.222,2.443-3.031,5.056-7.546,9.231-15.829,12.19-24.206,3.197-8.942,5.008-18.055,5.008-26.65,0-10.457-2.69-18.639-7.282-24.162-4.055-4.886-9.625-7.671-16.196-8.01"/>
  <path class="uuid-7a84194c-9c69-4400-88ac-26f25fc6c612" d="M316.719,140.855c0,.637.052,1.516-.122,2.222-.169.732-.511,1.616-1.147,2.296"/>
  <path class="uuid-7a84194c-9c69-4400-88ac-26f25fc6c612" d="M273.166,122.511c-6.5,7.94-12.067,17.197-16.148,26.774-8.768,20.668-9.625,41.114-2.322,53.424,3.253,5.446,8.014,9.062,13.78,10.579.343.048.633.269.854.633.295.514.247,1.32.247,2.148v138.778"/>
  <path class="uuid-7a84194c-9c69-4400-88ac-26f25fc6c612" d="M269.576,354.847c0,3.028,1.049,5.178,2.785,6.229,1.733.975,4.128.854,6.787-.71"/>
  <path class="uuid-7a84194c-9c69-4400-88ac-26f25fc6c612" d="M310.737,342.142c1.343-.758,2.565-1.758,3.664-2.906,1.149-1.222,2.196-2.613,3.128-4.298.953-1.564,1.633-3.201,2.096-4.813.467-1.589.688-3.079.688-4.665-.221-43.946-.441-87.967-.688-131.939,0-2.369,0-4.809-.069-7.182"/>
  <line class="uuid-05355a30-91b9-41ac-9f49-30916a11eb3b" x1="196.217" y1="272.5" x2="196.217" y2="331.104"/>
  <path class="uuid-7a84194c-9c69-4400-88ac-26f25fc6c612" d="M196.217,331.104c0,39.546-80.196,39.889-80.196.29"/>
  <line class="uuid-05355a30-91b9-41ac-9f49-30916a11eb3b" x1="116.021" y1="331.395" x2="116.021" y2="272.327"/>
  <line class="uuid-05355a30-91b9-41ac-9f49-30916a11eb3b" x1="273.236" y1="161.522" x2="277.074" y2="161.692"/>
  <path class="uuid-7a84194c-9c69-4400-88ac-26f25fc6c612" d="M277.074,161.692c3.223.125,4.055.199,6.203-2.366"/>
  <line class="uuid-05355a30-91b9-41ac-9f49-30916a11eb3b" x1="283.278" y1="159.326" x2="299.937" y2="139.465"/>
  <line class="uuid-05355a30-91b9-41ac-9f49-30916a11eb3b" x1="302.896" y1="131.403" x2="302.896" y2="89.41"/>
  <line class="uuid-05355a30-91b9-41ac-9f49-30916a11eb3b" x1="316.771" y1="97.424" x2="316.771" y2="140.929"/>
  <line class="uuid-05355a30-91b9-41ac-9f49-30916a11eb3b" x1="313.986" y1="147.184" x2="312.885" y2="148.526"/>
  <path class="uuid-7a84194c-9c69-4400-88ac-26f25fc6c612" d="M312.885,148.526c-4.007,4.983-10.625,12.727-14.338,17.124"/>
  <line class="uuid-05355a30-91b9-41ac-9f49-30916a11eb3b" x1="298.547" y1="165.651" x2="297.447" y2="166.92"/>
  <line class="uuid-05355a30-91b9-41ac-9f49-30916a11eb3b" x1="294.882" y1="169.315" x2="294.835" y2="169.315"/>
  <path class="uuid-7a84194c-9c69-4400-88ac-26f25fc6c612" d="M294.835,169.315c-.711.17-1.564.295-2.837.221"/>
  <line class="uuid-05355a30-91b9-41ac-9f49-30916a11eb3b" x1="291.998" y1="169.536" x2="274.678" y2="169.073"/>
  <line class="uuid-05355a30-91b9-41ac-9f49-30916a11eb3b" x1="296.056" y1="302.424" x2="296.056" y2="317.274"/>
  <path class="uuid-7a84194c-9c69-4400-88ac-26f25fc6c612" d="M296.056,317.274c-.174,1.689-.931,3.201-2.396,4.131"/>
  <line class="uuid-05355a30-91b9-41ac-9f49-30916a11eb3b" x1="293.66" y1="321.406" x2="280.077" y2="329.247"/>
  <path class="uuid-7a84194c-9c69-4400-88ac-26f25fc6c612" d="M269.576,337.552v17.366"/>
  <line class="uuid-05355a30-91b9-41ac-9f49-30916a11eb3b" x1="269.576" y1="354.918" x2="269.745" y2="356.776"/>
  <path class="uuid-7a84194c-9c69-4400-88ac-26f25fc6c612" d="M269.745,356.776c0,.173.048.341.122.514"/>
  <line class="uuid-05355a30-91b9-41ac-9f49-30916a11eb3b" x1="269.867" y1="357.29" x2="271.014" y2="359.781"/>
  <line class="uuid-05355a30-91b9-41ac-9f49-30916a11eb3b" x1="272.408" y1="361.077" x2="258.534" y2="353.063"/>
  <path class="uuid-7a84194c-9c69-4400-88ac-26f25fc6c612" d="M258.534,353.063c-2.274-1.39-2.663-3.738-2.785-6.155"/>
  <line class="uuid-05355a30-91b9-41ac-9f49-30916a11eb3b" x1="259.34" y1="114.547" x2="273.236" y2="122.561"/>
  <line class="uuid-05355a30-91b9-41ac-9f49-30916a11eb3b" x1="268.916" y1="213.456" x2="268.987" y2="213.504"/>
  <path class="uuid-7a84194c-9c69-4400-88ac-26f25fc6c612" d="M281.593,344.122c-.074.048-.122.048-.17.048"/>
  <line class="uuid-05355a30-91b9-41ac-9f49-30916a11eb3b" x1="273.166" y1="167.336" x2="273.166" y2="122.511"/>
  <line class="uuid-05355a30-91b9-41ac-9f49-30916a11eb3b" x1="279.149" y1="360.366" x2="310.737" y2="342.142"/>
  <path class="uuid-7a84194c-9c69-4400-88ac-26f25fc6c612" d="M282.471,343.805c-1.342.755-2.395.144-2.395-1.394"/>
  <line class="uuid-05355a30-91b9-41ac-9f49-30916a11eb3b" x1="280.077" y1="342.411" x2="280.077" y2="314.367"/>
  <path class="uuid-7a84194c-9c69-4400-88ac-26f25fc6c612" d="M280.077,314.367c0-1.49,1.053-3.344,2.395-4.102"/>
  <line class="uuid-05355a30-91b9-41ac-9f49-30916a11eb3b" x1="282.471" y1="310.265" x2="307.488" y2="295.779"/>
  <path class="uuid-7a84194c-9c69-4400-88ac-26f25fc6c612" d="M307.488,295.779c1.269-.732,2.391-.096,2.391,1.39"/>
  <line class="uuid-05355a30-91b9-41ac-9f49-30916a11eb3b" x1="309.879" y1="297.17" x2="309.879" y2="325.24"/>
  <path class="uuid-7a84194c-9c69-4400-88ac-26f25fc6c612" d="M309.879,325.24c0,1.516-1.122,3.37-2.391,4.128"/>
  <path class="uuid-7a84194c-9c69-4400-88ac-26f25fc6c612" d="M187.57,336.844v-57.825"/>
  <path class="uuid-7a84194c-9c69-4400-88ac-26f25fc6c612" d="M163.654,353.233v-66.785"/>
  <line class="uuid-05355a30-91b9-41ac-9f49-30916a11eb3b" x1="176.601" y1="347.08" x2="176.601" y2="283.957"/>
  <path class="uuid-7a84194c-9c69-4400-88ac-26f25fc6c612" d="M124.615,336.844v-57.825"/>
  <path class="uuid-7a84194c-9c69-4400-88ac-26f25fc6c612" d="M148.557,353.233v-66.785"/>
  <line class="uuid-05355a30-91b9-41ac-9f49-30916a11eb3b" x1="135.609" y1="347.08" x2="135.609" y2="283.957"/>
  <line class="uuid-05355a30-91b9-41ac-9f49-30916a11eb3b" x1="308.489" y1="327.388" x2="295.762" y2="320.011"/>
  <line class="uuid-05355a30-91b9-41ac-9f49-30916a11eb3b" x1="316.208" y1="144.299" x2="302.163" y2="136.164"/>
  <line class="uuid-05355a30-91b9-41ac-9f49-30916a11eb3b" x1="294.835" y1="169.263" x2="281.35" y2="161.475"/>
  <line class="uuid-05355a30-91b9-41ac-9f49-30916a11eb3b" x1="316.719" y1="97.424" x2="303.555" y2="89.753"/>
  <path class="uuid-7a84194c-9c69-4400-88ac-26f25fc6c612" d="M111.72,250.269c-2.711-8.257,1.394-17.123,12.506-23.522,6.207-3.59,13.802-5.912,21.814-6.961"/>
  <line class="uuid-e997447e-118b-43db-9351-e79c8e2417bf" x1="267.839" y1="348.398" x2="257.433" y2="330.468"/>
  <line class="uuid-e997447e-118b-43db-9351-e79c8e2417bf" x1="267.839" y1="325.876" x2="257.433" y2="307.869"/>
  <line class="uuid-e997447e-118b-43db-9351-e79c8e2417bf" x1="267.839" y1="303.278" x2="257.433" y2="285.349"/>
  <line class="uuid-e997447e-118b-43db-9351-e79c8e2417bf" x1="267.839" y1="280.756" x2="257.433" y2="262.753"/>
  <line class="uuid-e997447e-118b-43db-9351-e79c8e2417bf" x1="267.839" y1="258.161" x2="257.433" y2="240.157"/>
  <line class="uuid-e997447e-118b-43db-9351-e79c8e2417bf" x1="267.839" y1="235.563" x2="257.433" y2="217.585"/>
  <line class="uuid-e997447e-118b-43db-9351-e79c8e2417bf" x1="251.789" y1="202.709" x2="237.745" y2="178.378"/>
  <line class="uuid-e997447e-118b-43db-9351-e79c8e2417bf" x1="248.492" y1="174.419" x2="239.257" y2="158.469"/>
  <line class="uuid-e997447e-118b-43db-9351-e79c8e2417bf" x1="252.036" y1="158.052" x2="243.901" y2="143.887"/>
  <line class="uuid-e997447e-118b-43db-9351-e79c8e2417bf" x1="257.36" y1="144.642" x2="249.814" y2="131.576"/>
  <line class="uuid-e997447e-118b-43db-9351-e79c8e2417bf" x1="263.71" y1="133.015" x2="256.628" y2="120.778"/>
  <line class="uuid-e997447e-118b-43db-9351-e79c8e2417bf" x1="296.056" y1="166.018" x2="289.433" y2="154.513"/>
  <line class="uuid-e997447e-118b-43db-9351-e79c8e2417bf" x1="303.776" y1="156.758" x2="297.152" y2="145.326"/>
  <line class="uuid-e997447e-118b-43db-9351-e79c8e2417bf" x1="311.369" y1="147.353" x2="308.172" y2="141.908"/>
  <line class="uuid-e997447e-118b-43db-9351-e79c8e2417bf" x1="304.65" y1="135.215" x2="304.65" y2="135.163"/>
  <line class="uuid-e997447e-118b-43db-9351-e79c8e2417bf" x1="315.034" y1="130.645" x2="304.582" y2="112.568"/>
  <line class="uuid-e997447e-118b-43db-9351-e79c8e2417bf" x1="314.986" y1="107.929" x2="306.73" y2="93.634"/>
  <line class="uuid-e997447e-118b-43db-9351-e79c8e2417bf" x1="307.024" y1="324.482" x2="297.789" y2="308.458"/>
  <line class="uuid-e997447e-118b-43db-9351-e79c8e2417bf" x1="307.731" y1="303.156" x2="305.46" y2="299.149"/>
  <line class="uuid-e997447e-118b-43db-9351-e79c8e2417bf" x1="291.512" y1="336.377" x2="286.404" y2="327.51"/>
  <line class="uuid-e997447e-118b-43db-9351-e79c8e2417bf" x1="301.281" y1="330.685" x2="296.616" y2="322.749"/>
  <line class="uuid-e997447e-118b-43db-9351-e79c8e2417bf" x1="136.295" y1="281.904" x2="128.038" y2="267.639"/>
  <line class="uuid-e997447e-118b-43db-9351-e79c8e2417bf" x1="150.805" y1="284.469" x2="143.671" y2="272.11"/>
  <line class="uuid-e997447e-118b-43db-9351-e79c8e2417bf" x1="163.753" y1="284.3" x2="157.255" y2="273.037"/>
  <line class="uuid-e997447e-118b-43db-9351-e79c8e2417bf" x1="175.502" y1="282.1" x2="169.64" y2="271.936"/>
  <line class="uuid-e997447e-118b-43db-9351-e79c8e2417bf" x1="186.127" y1="277.897" x2="180.951" y2="268.956"/>
  <line class="uuid-e997447e-118b-43db-9351-e79c8e2417bf" x1="195.19" y1="271.01" x2="191.187" y2="264.023"/>
  <line class="uuid-e997447e-118b-43db-9351-e79c8e2417bf" x1="141.353" y1="268.15" x2="114.748" y2="252.812"/>
  <line class="uuid-e997447e-118b-43db-9351-e79c8e2417bf" x1="181.756" y1="265.487" x2="155.103" y2="250.1"/>
  <line class="uuid-e997447e-118b-43db-9351-e79c8e2417bf" x1="144.772" y1="244.114" x2="120.907" y2="230.36"/>
  <line class="uuid-e997447e-118b-43db-9351-e79c8e2417bf" x1="199.955" y1="249.857" x2="167.366" y2="231.044"/>
  <line class="uuid-e997447e-118b-43db-9351-e79c8e2417bf" x1="142.402" y1="152.118" x2="140.934" y2="149.627"/>
  <line class="uuid-e997447e-118b-43db-9351-e79c8e2417bf" x1="145.356" y1="134.652" x2="142.574" y2="129.813"/>
  <line class="uuid-e997447e-118b-43db-9351-e79c8e2417bf" x1="147.042" y1="114.964" x2="144.26" y2="110.125"/>
  <line class="uuid-e997447e-118b-43db-9351-e79c8e2417bf" x1="157.329" y1="99.526" x2="155.935" y2="97.082"/>
  <line class="uuid-e997447e-118b-43db-9351-e79c8e2417bf" x1="149.826" y1="246.019" x2="148.021" y2="242.892"/>
  <line class="uuid-e997447e-118b-43db-9351-e79c8e2417bf" x1="150.879" y1="225.23" x2="148.021" y2="220.297"/>
  <line class="uuid-e997447e-118b-43db-9351-e79c8e2417bf" x1="150.879" y1="202.658" x2="148.021" y2="197.723"/>
  <line class="uuid-e997447e-118b-43db-9351-e79c8e2417bf" x1="150.879" y1="180.063" x2="148.021" y2="175.181"/>
  <line class="uuid-e997447e-118b-43db-9351-e79c8e2417bf" x1="139.959" y1="356.776" x2="135.367" y2="348.887"/>
  <line class="uuid-e997447e-118b-43db-9351-e79c8e2417bf" x1="133.802" y1="346.15" x2="126.426" y2="333.375"/>
  <line class="uuid-e997447e-118b-43db-9351-e79c8e2417bf" x1="122.714" y1="326.925" x2="117.875" y2="318.548"/>
  <line class="uuid-e997447e-118b-43db-9351-e79c8e2417bf" x1="154.297" y1="359.049" x2="150.536" y2="352.479"/>
  <line class="uuid-e997447e-118b-43db-9351-e79c8e2417bf" x1="146.798" y1="346.075" x2="137.394" y2="329.758"/>
  <line class="uuid-e997447e-118b-43db-9351-e79c8e2417bf" x1="133.802" y1="323.555" x2="126.426" y2="310.827"/>
  <line class="uuid-e997447e-118b-43db-9351-e79c8e2417bf" x1="122.714" y1="304.331" x2="117.875" y2="296.026"/>
  <line class="uuid-e997447e-118b-43db-9351-e79c8e2417bf" x1="166.734" y1="357.924" x2="164.875" y2="354.727"/>
  <line class="uuid-e997447e-118b-43db-9351-e79c8e2417bf" x1="161.969" y1="349.741" x2="150.217" y2="329.464"/>
  <line class="uuid-e997447e-118b-43db-9351-e79c8e2417bf" x1="146.798" y1="323.481" x2="137.394" y2="307.163"/>
  <line class="uuid-e997447e-118b-43db-9351-e79c8e2417bf" x1="133.802" y1="300.956" x2="126.426" y2="288.233"/>
  <line class="uuid-e997447e-118b-43db-9351-e79c8e2417bf" x1="122.592" y1="281.635" x2="121.198" y2="279.192"/>
  <line class="uuid-e997447e-118b-43db-9351-e79c8e2417bf" x1="178.092" y1="355.09" x2="165.266" y2="332.911"/>
  <line class="uuid-e997447e-118b-43db-9351-e79c8e2417bf" x1="161.969" y1="327.146" x2="150.217" y2="306.894"/>
  <line class="uuid-e997447e-118b-43db-9351-e79c8e2417bf" x1="146.798" y1="300.908" x2="138.027" y2="285.764"/>
  <line class="uuid-e997447e-118b-43db-9351-e79c8e2417bf" x1="187.349" y1="348.566" x2="178.334" y2="333.007"/>
  <line class="uuid-e997447e-118b-43db-9351-e79c8e2417bf" x1="174.869" y1="326.925" x2="165.391" y2="310.486"/>
  <line class="uuid-e997447e-118b-43db-9351-e79c8e2417bf" x1="161.895" y1="304.451" x2="152.196" y2="287.669"/>
  <line class="uuid-e997447e-118b-43db-9351-e79c8e2417bf" x1="193.678" y1="336.914" x2="189.475" y2="329.71"/>
  <line class="uuid-e997447e-118b-43db-9351-e79c8e2417bf" x1="185.785" y1="323.213" x2="178.408" y2="310.534"/>
  <line class="uuid-e997447e-118b-43db-9351-e79c8e2417bf" x1="174.869" y1="304.331" x2="165.391" y2="287.964"/>
  <line class="uuid-e997447e-118b-43db-9351-e79c8e2417bf" x1="194.31" y1="315.467" x2="189.475" y2="307.115"/>
  <line class="uuid-e997447e-118b-43db-9351-e79c8e2417bf" x1="185.785" y1="300.665" x2="178.408" y2="287.964"/>
  <line class="uuid-e997447e-118b-43db-9351-e79c8e2417bf" x1="194.31" y1="292.825" x2="189.475" y2="284.543"/>
</svg>