<?xml version="1.0" encoding="UTF-8"?>
<svg id="uuid-5d792f6a-130d-47e0-a03a-89c672632991" data-name="&amp;lt;Layer&amp;gt;" xmlns="http://www.w3.org/2000/svg" viewBox="0 0 451.11 451.11">
  <defs>
    <style>
      .uuid-83df7e02-680d-4909-ab4d-85af97ebb2c8, .uuid-7d983efe-8b1a-446a-8bb1-96a8c4793c7d, .uuid-a2ca5b5f-d659-43b2-8440-4ae0aef28e1e {
        fill: none;
        stroke: #000;
        stroke-linecap: round;
      }

      .uuid-83df7e02-680d-4909-ab4d-85af97ebb2c8, .uuid-a2ca5b5f-d659-43b2-8440-4ae0aef28e1e {
        stroke-linejoin: round;
        stroke-width: 4.113px;
      }

      .uuid-7d983efe-8b1a-446a-8bb1-96a8c4793c7d {
        stroke-miterlimit: 10;
        stroke-width: 1.163px;
      }

      .uuid-a2ca5b5f-d659-43b2-8440-4ae0aef28e1e {
        fill-rule: evenodd;
      }
    </style>
  </defs>
  <path class="uuid-a2ca5b5f-d659-43b2-8440-4ae0aef28e1e" d="M336.949,258.966q-.247-.052-.489-.052c-.247-.121-.732-.191-1.221-.047-.247,0-.489.047-.732.173-.489.096-.736.269-1.221.512"/>
  <path class="uuid-a2ca5b5f-d659-43b2-8440-4ae0aef28e1e" d="M338.657,262.704c0-1.737-.487-2.98-1.465-3.543-.979-.562-2.443-.489-3.907.391"/>
  <path class="uuid-a2ca5b5f-d659-43b2-8440-4ae0aef28e1e" d="M226.043,362.54c0,1.759.489,2.98,1.711,3.543.979.585,2.2.511,3.664-.367"/>
  <polygon class="uuid-a2ca5b5f-d659-43b2-8440-4ae0aef28e1e" points="322.78 296.978 332.549 291.308 332.549 279.997 322.78 285.641 322.78 296.978"/>
  <polygon class="uuid-a2ca5b5f-d659-43b2-8440-4ae0aef28e1e" points="306.415 306.382 316.184 300.738 316.184 289.401 306.415 295.072 306.415 306.382"/>
  <path class="uuid-a2ca5b5f-d659-43b2-8440-4ae0aef28e1e" d="M337.192,205.762c-.243-.099-.489-.173-.732-.269-.979-.173-1.953.048-3.175.681"/>
  <polyline class="uuid-a2ca5b5f-d659-43b2-8440-4ae0aef28e1e" points="333.285 206.175 289.313 231.559 231.661 264.876"/>
  <polyline class="uuid-a2ca5b5f-d659-43b2-8440-4ae0aef28e1e" points="227.754 269.029 158.868 229.186 114.164 203.466"/>
  <path class="uuid-a2ca5b5f-d659-43b2-8440-4ae0aef28e1e" d="M338.657,209.354c0-1.759-.487-2.98-1.465-3.57-.979-.559-2.443-.489-3.907.391"/>
  <path class="uuid-a2ca5b5f-d659-43b2-8440-4ae0aef28e1e" d="M226.043,309.167c0,1.733.489,2.976,1.711,3.566.979.563,2.2.489,3.664-.391"/>
  <polygon class="uuid-a2ca5b5f-d659-43b2-8440-4ae0aef28e1e" points="322.78 243.627 332.549 237.956 332.549 226.621 322.78 232.291 322.78 243.627"/>
  <polygon class="uuid-a2ca5b5f-d659-43b2-8440-4ae0aef28e1e" points="306.415 253.031 316.184 247.362 316.184 236.029 306.415 241.695 306.415 253.031"/>
  <path class="uuid-a2ca5b5f-d659-43b2-8440-4ae0aef28e1e" d="M338.657,154.903c0-1.737-.487-2.98-1.465-3.543-.979-.585-2.443-.512-3.907.369"/>
  <path class="uuid-a2ca5b5f-d659-43b2-8440-4ae0aef28e1e" d="M226.043,254.716c0,1.755.489,3.002,1.711,3.566.979.585,2.2.489,3.664-.391"/>
  <polygon class="uuid-a2ca5b5f-d659-43b2-8440-4ae0aef28e1e" points="322.78 189.176 332.549 183.505 332.549 172.174 322.78 177.866 322.78 189.176"/>
  <polygon class="uuid-a2ca5b5f-d659-43b2-8440-4ae0aef28e1e" points="306.415 198.58 316.184 192.911 316.184 181.578 306.415 187.244 306.415 198.58"/>
  <line class="uuid-83df7e02-680d-4909-ab4d-85af97ebb2c8" x1="336.949" y1="258.966" x2="330.353" y2="255.254"/>
  <line class="uuid-83df7e02-680d-4909-ab4d-85af97ebb2c8" x1="337.192" y1="259.136" x2="336.949" y2="258.966"/>
  <line class="uuid-83df7e02-680d-4909-ab4d-85af97ebb2c8" x1="333.285" y1="259.551" x2="231.661" y2="318.252"/>
  <path class="uuid-a2ca5b5f-d659-43b2-8440-4ae0aef28e1e" d="M231.661,318.252c-1.707.879-2.928,2.395-3.907,4.128"/>
  <line class="uuid-83df7e02-680d-4909-ab4d-85af97ebb2c8" x1="227.754" y1="322.38" x2="114.164" y2="256.818"/>
  <path class="uuid-a2ca5b5f-d659-43b2-8440-4ae0aef28e1e" d="M114.164,256.818c.979-1.785,2.2-2.958,3.907-4.133"/>
  <line class="uuid-83df7e02-680d-4909-ab4d-85af97ebb2c8" x1="118.071" y1="252.685" x2="121.004" y2="251.074"/>
  <path class="uuid-a2ca5b5f-d659-43b2-8440-4ae0aef28e1e" d="M227.754,322.38c-1.221,1.711-1.711,3.666-1.711,5.402"/>
  <line class="uuid-83df7e02-680d-4909-ab4d-85af97ebb2c8" x1="226.043" y1="327.782" x2="226.043" y2="362.54"/>
  <line class="uuid-83df7e02-680d-4909-ab4d-85af97ebb2c8" x1="231.418" y1="365.716" x2="333.285" y2="306.993"/>
  <path class="uuid-a2ca5b5f-d659-43b2-8440-4ae0aef28e1e" d="M333.285,306.993c2.928-1.759,5.372-6.034,5.372-9.53"/>
  <line class="uuid-83df7e02-680d-4909-ab4d-85af97ebb2c8" x1="338.657" y1="297.463" x2="338.657" y2="262.704"/>
  <path class="uuid-a2ca5b5f-d659-43b2-8440-4ae0aef28e1e" d="M114.164,256.818c-.976,1.854-1.465,3.271-1.712,5.397"/>
  <line class="uuid-83df7e02-680d-4909-ab4d-85af97ebb2c8" x1="112.452" y1="262.215" x2="112.452" y2="296.978"/>
  <path class="uuid-a2ca5b5f-d659-43b2-8440-4ae0aef28e1e" d="M112.452,296.978c.247,1.538.489,2.634,1.712,3.566"/>
  <line class="uuid-83df7e02-680d-4909-ab4d-85af97ebb2c8" x1="114.164" y1="300.543" x2="227.754" y2="366.083"/>
  <line class="uuid-83df7e02-680d-4909-ab4d-85af97ebb2c8" x1="329.374" y1="201.366" x2="337.192" y2="205.762"/>
  <path class="uuid-a2ca5b5f-d659-43b2-8440-4ae0aef28e1e" d="M231.661,264.876c-1.707.879-2.928,2.395-3.907,4.154"/>
  <path class="uuid-a2ca5b5f-d659-43b2-8440-4ae0aef28e1e" d="M114.164,203.466c.979-1.809,2.2-2.98,3.907-4.132"/>
  <line class="uuid-83df7e02-680d-4909-ab4d-85af97ebb2c8" x1="118.071" y1="199.334" x2="121.736" y2="197.112"/>
  <line class="uuid-83df7e02-680d-4909-ab4d-85af97ebb2c8" x1="227.754" y1="268.981" x2="227.754" y2="269.007"/>
  <path class="uuid-a2ca5b5f-d659-43b2-8440-4ae0aef28e1e" d="M227.754,269.007c-1.221,1.707-1.711,3.66-1.711,5.423"/>
  <line class="uuid-83df7e02-680d-4909-ab4d-85af97ebb2c8" x1="226.043" y1="274.43" x2="226.043" y2="309.167"/>
  <line class="uuid-83df7e02-680d-4909-ab4d-85af97ebb2c8" x1="231.418" y1="312.342" x2="333.285" y2="253.617"/>
  <path class="uuid-a2ca5b5f-d659-43b2-8440-4ae0aef28e1e" d="M333.285,253.617c1.464-.88,2.928-2.396,3.907-4.081"/>
  <line class="uuid-83df7e02-680d-4909-ab4d-85af97ebb2c8" x1="337.192" y1="249.536" x2="337.192" y2="249.51"/>
  <path class="uuid-a2ca5b5f-d659-43b2-8440-4ae0aef28e1e" d="M337.192,249.51c.979-1.733,1.465-3.66,1.465-5.419"/>
  <line class="uuid-83df7e02-680d-4909-ab4d-85af97ebb2c8" x1="338.657" y1="244.091" x2="338.657" y2="209.354"/>
  <path class="uuid-a2ca5b5f-d659-43b2-8440-4ae0aef28e1e" d="M114.164,203.441c-.976,1.854-1.465,3.296-1.712,5.423"/>
  <line class="uuid-83df7e02-680d-4909-ab4d-85af97ebb2c8" x1="112.452" y1="208.864" x2="112.452" y2="243.601"/>
  <path class="uuid-a2ca5b5f-d659-43b2-8440-4ae0aef28e1e" d="M112.452,243.601c.247,1.538.489,2.66,1.712,3.564"/>
  <line class="uuid-83df7e02-680d-4909-ab4d-85af97ebb2c8" x1="114.164" y1="247.166" x2="227.754" y2="312.733"/>
  <path class="uuid-a2ca5b5f-d659-43b2-8440-4ae0aef28e1e" d="M227.754,312.733c-1.464-.905-1.711-2.053-1.711-3.566"/>
  <line class="uuid-83df7e02-680d-4909-ab4d-85af97ebb2c8" x1="337.192" y1="151.359" x2="223.603" y2="85.793"/>
  <path class="uuid-a2ca5b5f-d659-43b2-8440-4ae0aef28e1e" d="M223.603,85.793c-1.468-.681-2.443-.317-3.911.393"/>
  <line class="uuid-83df7e02-680d-4909-ab4d-85af97ebb2c8" x1="219.692" y1="86.187" x2="118.071" y2="144.887"/>
  <path class="uuid-a2ca5b5f-d659-43b2-8440-4ae0aef28e1e" d="M118.071,144.887c-1.953,1.147-2.928,2.318-3.907,4.103"/>
  <line class="uuid-83df7e02-680d-4909-ab4d-85af97ebb2c8" x1="114.164" y1="148.99" x2="227.754" y2="214.556"/>
  <path class="uuid-a2ca5b5f-d659-43b2-8440-4ae0aef28e1e" d="M227.754,214.556c.979-1.811,1.953-2.954,3.664-4.106"/>
  <line class="uuid-83df7e02-680d-4909-ab4d-85af97ebb2c8" x1="231.418" y1="210.451" x2="333.285" y2="151.728"/>
  <path class="uuid-a2ca5b5f-d659-43b2-8440-4ae0aef28e1e" d="M227.754,214.556c-1.221,1.733-1.711,3.664-1.711,5.423"/>
  <line class="uuid-83df7e02-680d-4909-ab4d-85af97ebb2c8" x1="226.043" y1="219.979" x2="226.043" y2="254.716"/>
  <line class="uuid-83df7e02-680d-4909-ab4d-85af97ebb2c8" x1="231.418" y1="257.891" x2="333.285" y2="199.192"/>
  <path class="uuid-a2ca5b5f-d659-43b2-8440-4ae0aef28e1e" d="M333.285,199.192c1.464-.88,2.928-2.396,3.907-4.107"/>
  <path class="uuid-a2ca5b5f-d659-43b2-8440-4ae0aef28e1e" d="M337.192,195.085c.979-1.733,1.465-3.664,1.465-5.419"/>
  <line class="uuid-83df7e02-680d-4909-ab4d-85af97ebb2c8" x1="338.657" y1="189.666" x2="338.657" y2="154.903"/>
  <path class="uuid-a2ca5b5f-d659-43b2-8440-4ae0aef28e1e" d="M114.164,149.015c-.976,1.855-1.465,3.271-1.712,5.424"/>
  <line class="uuid-83df7e02-680d-4909-ab4d-85af97ebb2c8" x1="112.452" y1="154.439" x2="112.452" y2="189.176"/>
  <path class="uuid-a2ca5b5f-d659-43b2-8440-4ae0aef28e1e" d="M112.452,189.176c.247,1.512.489,2.638,1.712,3.564"/>
  <line class="uuid-83df7e02-680d-4909-ab4d-85af97ebb2c8" x1="114.164" y1="192.741" x2="227.754" y2="258.282"/>
  <path class="uuid-a2ca5b5f-d659-43b2-8440-4ae0aef28e1e" d="M227.754,258.282c-1.464-.905-1.711-2.028-1.711-3.566"/>
  <line class="uuid-83df7e02-680d-4909-ab4d-85af97ebb2c8" x1="236.058" y1="231.607" x2="297.132" y2="196.258"/>
  <line class="uuid-83df7e02-680d-4909-ab4d-85af97ebb2c8" x1="236.058" y1="286.058" x2="297.132" y2="250.709"/>
  <line class="uuid-83df7e02-680d-4909-ab4d-85af97ebb2c8" x1="236.058" y1="339.43" x2="297.132" y2="304.083"/>
  <line class="uuid-7d983efe-8b1a-446a-8bb1-96a8c4793c7d" x1="313.008" y1="267.66" x2="312.033" y2="269.519"/>
  <line class="uuid-7d983efe-8b1a-446a-8bb1-96a8c4793c7d" x1="293.71" y1="278.85" x2="292.734" y2="280.729"/>
  <line class="uuid-7d983efe-8b1a-446a-8bb1-96a8c4793c7d" x1="273.922" y1="290.185" x2="272.948" y2="292.091"/>
  <line class="uuid-7d983efe-8b1a-446a-8bb1-96a8c4793c7d" x1="254.627" y1="301.348" x2="253.649" y2="303.255"/>
  <line class="uuid-7d983efe-8b1a-446a-8bb1-96a8c4793c7d" x1="235.082" y1="312.707" x2="233.861" y2="314.638"/>
  <line class="uuid-7d983efe-8b1a-446a-8bb1-96a8c4793c7d" x1="222.381" y1="311.901" x2="220.181" y2="315.787"/>
  <line class="uuid-7d983efe-8b1a-446a-8bb1-96a8c4793c7d" x1="212.609" y1="306.257" x2="210.412" y2="310.142"/>
  <line class="uuid-7d983efe-8b1a-446a-8bb1-96a8c4793c7d" x1="202.837" y1="300.566" x2="200.64" y2="304.476"/>
  <line class="uuid-7d983efe-8b1a-446a-8bb1-96a8c4793c7d" x1="193.069" y1="294.946" x2="190.867" y2="298.857"/>
  <line class="uuid-7d983efe-8b1a-446a-8bb1-96a8c4793c7d" x1="183.296" y1="289.307" x2="181.096" y2="293.214"/>
  <line class="uuid-7d983efe-8b1a-446a-8bb1-96a8c4793c7d" x1="173.523" y1="283.614" x2="171.327" y2="287.548"/>
  <line class="uuid-7d983efe-8b1a-446a-8bb1-96a8c4793c7d" x1="163.754" y1="278.018" x2="161.554" y2="281.977"/>
  <line class="uuid-7d983efe-8b1a-446a-8bb1-96a8c4793c7d" x1="153.982" y1="272.326" x2="151.782" y2="276.311"/>
  <line class="uuid-7d983efe-8b1a-446a-8bb1-96a8c4793c7d" x1="144.209" y1="266.637" x2="141.766" y2="270.618"/>
  <line class="uuid-7d983efe-8b1a-446a-8bb1-96a8c4793c7d" x1="134.437" y1="261.041" x2="132.24" y2="265.022"/>
  <line class="uuid-7d983efe-8b1a-446a-8bb1-96a8c4793c7d" x1="124.668" y1="255.376" x2="122.468" y2="259.335"/>
  <line class="uuid-7d983efe-8b1a-446a-8bb1-96a8c4793c7d" x1="115.143" y1="245.286" x2="114.654" y2="244.528"/>
  <line class="uuid-7d983efe-8b1a-446a-8bb1-96a8c4793c7d" x1="135.415" y1="257.818" x2="113.92" y2="220.565"/>
  <line class="uuid-7d983efe-8b1a-446a-8bb1-96a8c4793c7d" x1="155.446" y1="269.934" x2="119.293" y2="207.422"/>
  <line class="uuid-7d983efe-8b1a-446a-8bb1-96a8c4793c7d" x1="174.991" y1="281.319" x2="138.834" y2="218.784"/>
  <line class="uuid-7d983efe-8b1a-446a-8bb1-96a8c4793c7d" x1="194.533" y1="292.556" x2="158.625" y2="230.117"/>
  <line class="uuid-7d983efe-8b1a-446a-8bb1-96a8c4793c7d" x1="214.074" y1="303.887" x2="177.92" y2="241.353"/>
  <line class="uuid-7d983efe-8b1a-446a-8bb1-96a8c4793c7d" x1="224.824" y1="300.079" x2="197.708" y2="253.102"/>
  <line class="uuid-7d983efe-8b1a-446a-8bb1-96a8c4793c7d" x1="224.088" y1="276.211" x2="217.985" y2="265.586"/>
  <line class="uuid-7d983efe-8b1a-446a-8bb1-96a8c4793c7d" x1="331.574" y1="204.783" x2="331.328" y2="204.978"/>
  <line class="uuid-7d983efe-8b1a-446a-8bb1-96a8c4793c7d" x1="313.986" y1="212.603" x2="312.033" y2="216.241"/>
  <line class="uuid-7d983efe-8b1a-446a-8bb1-96a8c4793c7d" x1="294.442" y1="223.96" x2="292.245" y2="227.552"/>
  <line class="uuid-7d983efe-8b1a-446a-8bb1-96a8c4793c7d" x1="274.901" y1="235.149" x2="272.948" y2="238.74"/>
  <line class="uuid-7d983efe-8b1a-446a-8bb1-96a8c4793c7d" x1="255.36" y1="246.508" x2="253.159" y2="250.099"/>
  <line class="uuid-7d983efe-8b1a-446a-8bb1-96a8c4793c7d" x1="235.572" y1="257.866" x2="233.618" y2="261.483"/>
  <line class="uuid-7d983efe-8b1a-446a-8bb1-96a8c4793c7d" x1="222.867" y1="257.598" x2="220.181" y2="262.387"/>
  <line class="uuid-7d983efe-8b1a-446a-8bb1-96a8c4793c7d" x1="213.098" y1="251.931" x2="210.412" y2="256.718"/>
  <line class="uuid-7d983efe-8b1a-446a-8bb1-96a8c4793c7d" x1="203.327" y1="246.239" x2="200.393" y2="251.052"/>
  <line class="uuid-7d983efe-8b1a-446a-8bb1-96a8c4793c7d" x1="193.554" y1="240.668" x2="190.867" y2="245.459"/>
  <line class="uuid-7d983efe-8b1a-446a-8bb1-96a8c4793c7d" x1="183.785" y1="234.976" x2="180.853" y2="239.789"/>
  <line class="uuid-7d983efe-8b1a-446a-8bb1-96a8c4793c7d" x1="174.013" y1="229.333" x2="171.08" y2="234.146"/>
  <line class="uuid-7d983efe-8b1a-446a-8bb1-96a8c4793c7d" x1="164.244" y1="223.739" x2="161.312" y2="228.53"/>
  <line class="uuid-7d983efe-8b1a-446a-8bb1-96a8c4793c7d" x1="154.225" y1="218.048" x2="151.539" y2="222.861"/>
  <line class="uuid-7d983efe-8b1a-446a-8bb1-96a8c4793c7d" x1="144.699" y1="212.477" x2="142.009" y2="217.268"/>
  <line class="uuid-7d983efe-8b1a-446a-8bb1-96a8c4793c7d" x1="134.926" y1="206.785" x2="131.998" y2="211.602"/>
  <line class="uuid-7d983efe-8b1a-446a-8bb1-96a8c4793c7d" x1="124.912" y1="201.119" x2="122.225" y2="205.906"/>
  <line class="uuid-7d983efe-8b1a-446a-8bb1-96a8c4793c7d" x1="135.415" y1="203.415" x2="113.92" y2="166.286"/>
  <line class="uuid-7d983efe-8b1a-446a-8bb1-96a8c4793c7d" x1="155.446" y1="215.509" x2="119.05" y2="152.897"/>
  <line class="uuid-7d983efe-8b1a-446a-8bb1-96a8c4793c7d" x1="174.745" y1="226.768" x2="138.834" y2="164.234"/>
  <line class="uuid-7d983efe-8b1a-446a-8bb1-96a8c4793c7d" x1="194.533" y1="238.104" x2="158.378" y2="175.569"/>
  <line class="uuid-7d983efe-8b1a-446a-8bb1-96a8c4793c7d" x1="214.074" y1="249.414" x2="177.92" y2="186.802"/>
  <line class="uuid-7d983efe-8b1a-446a-8bb1-96a8c4793c7d" x1="224.824" y1="245.724" x2="197.708" y2="198.58"/>
  <line class="uuid-7d983efe-8b1a-446a-8bb1-96a8c4793c7d" x1="224.088" y1="221.786" x2="217.985" y2="211.113"/>
  <line class="uuid-7d983efe-8b1a-446a-8bb1-96a8c4793c7d" x1="319.848" y1="142.665" x2="306.901" y2="165.187"/>
  <line class="uuid-7d983efe-8b1a-446a-8bb1-96a8c4793c7d" x1="301.039" y1="130.207" x2="267.082" y2="188.882"/>
  <line class="uuid-7d983efe-8b1a-446a-8bb1-96a8c4793c7d" x1="282.229" y1="117.749" x2="227.264" y2="213.014"/>
  <line class="uuid-7d983efe-8b1a-446a-8bb1-96a8c4793c7d" x1="262.685" y1="106.412" x2="206.259" y2="203.953"/>
  <line class="uuid-7d983efe-8b1a-446a-8bb1-96a8c4793c7d" x1="242.901" y1="95.077" x2="186.713" y2="192.668"/>
  <line class="uuid-7d983efe-8b1a-446a-8bb1-96a8c4793c7d" x1="222.867" y1="84.648" x2="167.172" y2="181.383"/>
  <line class="uuid-7d983efe-8b1a-446a-8bb1-96a8c4793c7d" x1="183.296" y1="108.271" x2="148.364" y2="168.951"/>
  <line class="uuid-7d983efe-8b1a-446a-8bb1-96a8c4793c7d" x1="143.477" y1="132.038" x2="129.308" y2="156.441"/>
  <line class="uuid-7d983efe-8b1a-446a-8bb1-96a8c4793c7d" x1="135.173" y1="311.07" x2="113.92" y2="274.158"/>
  <line class="uuid-7d983efe-8b1a-446a-8bb1-96a8c4793c7d" x1="155.203" y1="323.212" x2="119.05" y2="260.677"/>
  <line class="uuid-7d983efe-8b1a-446a-8bb1-96a8c4793c7d" x1="174.745" y1="334.474" x2="138.834" y2="272.01"/>
  <line class="uuid-7d983efe-8b1a-446a-8bb1-96a8c4793c7d" x1="194.29" y1="345.832" x2="158.378" y2="283.346"/>
  <line class="uuid-7d983efe-8b1a-446a-8bb1-96a8c4793c7d" x1="214.074" y1="357.191" x2="177.92" y2="294.605"/>
  <line class="uuid-7d983efe-8b1a-446a-8bb1-96a8c4793c7d" x1="224.824" y1="353.573" x2="197.708" y2="306.382"/>
  <line class="uuid-7d983efe-8b1a-446a-8bb1-96a8c4793c7d" x1="224.088" y1="329.661" x2="217.985" y2="318.936"/>
</svg>