<?xml version="1.0" encoding="UTF-8"?>
<svg id="uuid-2d470721-992f-4470-9d20-d631e9e3ad5c" data-name="&amp;lt;Layer&amp;gt;" xmlns="http://www.w3.org/2000/svg" viewBox="0 0 451.11 451.11">
  <defs>
    <style>
      .uuid-7a347b8a-4dd1-4654-84fa-9b4e744ab0a5 {
        stroke-miterlimit: 10;
        stroke-width: 1.163px;
      }

      .uuid-7a347b8a-4dd1-4654-84fa-9b4e744ab0a5, .uuid-23b9b4a7-2fb1-4ac7-a6a8-ae3ae8cf0896 {
        fill: none;
        stroke: #000;
        stroke-linecap: round;
      }

      .uuid-23b9b4a7-2fb1-4ac7-a6a8-ae3ae8cf0896 {
        fill-rule: evenodd;
        stroke-linejoin: round;
        stroke-width: 4.117px;
      }
    </style>
  </defs>
  <path class="uuid-23b9b4a7-2fb1-4ac7-a6a8-ae3ae8cf0896" d="M260.636,83.773l-.663.343-84.301,48.733M175.671,132.849c-7.326,4.322-12.36,14.386-12.432,22.742M163.239,155.591l.073,194.13M163.312,349.721c.048,3.275.633,6.351,3.249,8.599M166.561,358.321l15.392,8.889M181.952,367.209c-2.639-2.244-3.201-5.323-3.275-8.594M178.678,358.615v-2.374M178.63,164.484c.048-8.356,5.106-18.445,12.432-22.768M191.062,141.715l84.327-48.733M275.389,92.982c2.37-1.342,4.692-2.028,7.426-1.173M282.815,91.809l-15.388-8.893M191.11,367.018l84.327-48.737M275.437,318.281c6.841-3.955,12.434-14.169,12.434-22.764M287.871,295.517v-2.321M287.8,101.386c0-8.577-5.571-12.337-12.411-8.404M178.678,358.615c0,8.572,5.592,12.358,12.432,8.403M287.871,293.196l-.07-191.81M178.63,164.484l.048,191.757,109.193-63.045M166.145,143.868c-1.807,3.688-2.834,7.621-2.906,11.723M178.63,164.484c.048-4.324,1.101-7.841,2.906-11.726M181.536,152.758l-15.39-8.89M171.205,227.408v-19.493M171.205,195.092v-19.518M227.532,337.116l16.882-9.772M271.677,104.171c-1.221.707-2.226,2.539-2.226,4.055M269.451,108.226c0,1.538,1.005,2.196,2.226,1.512M271.677,109.738c1.197-.706,2.198-2.539,2.198-4.08M273.874,105.658c0-1.512-1.001-2.198-2.198-1.488M205.525,293.559c4.761-2.734,10.627-6.129,16.535-9.526M205.525,317.722c4.761-2.711,10.627-6.107,16.535-9.529M250.521,267.69c4.717-2.709,10.627-6.105,16.565-9.526M250.521,291.875c4.717-2.738,10.627-6.13,16.565-9.526M214.879,176.063l15.27-8.82M230.148,167.243c.464-.269.879-.048.879.515M231.027,167.759v10.622M231.027,178.38c0,.563-.415,1.223-.879,1.516M230.148,179.896l-14.413,8.308M215.735,188.205c-.463.269-.857.949-.857,1.512M214.879,189.717v10.553M214.879,200.27c0,.562.393.805.857.515M215.735,200.785l15.292-8.82M239.21,187.226c-.463.291-.879.074-.879-.515M238.331,186.711v-23.18M238.331,163.531c0-.563.415-1.247.879-1.516,4.813-2.785,9.578-5.545,14.387-8.305.467-.295.879-.052.879.515M254.476,154.226v23.18M254.476,177.405c0,.563-.411,1.244-.879,1.516-4.809,2.782-9.574,5.545-14.387,8.305M192.674,157.401c1.394-.784,3.153-1.785,4.886-2.785M202.447,151.831c1.394-.806,3.127-1.811,4.886-2.811M212.193,146.212c1.394-.81,3.127-1.811,4.886-2.785M205.525,269.375c4.761-2.708,10.627-6.129,16.535-9.526M250.521,243.53c4.717-2.733,10.627-6.129,16.565-9.524M230.148,218.544c.464-.293.879-.05.879.512M231.027,219.056v10.601M231.027,229.656c0,.563-.415,1.247-.879,1.542M230.148,231.198l-14.413,8.279M214.879,214.707l15.27-8.82M230.148,205.887c.464-.269.879-.048.879.515M231.027,206.403v10.601M230.148,218.544l-14.413,8.305M238.331,202.175l15.266-8.82M253.597,193.355c.467-.269.879-.047.879.515M254.476,193.87v10.601M254.476,204.471c0,.563-.411,1.273-.879,1.542M253.597,206.013l-14.387,8.279M239.21,214.292c-.463.293-.879.979-.879,1.537M238.331,215.829v10.553M238.331,226.381c0,.563.415.784.879.515M239.21,226.897l15.266-8.82M267.427,82.916c-2.03-.88-4.938-.148-6.791.857"/>
  <line class="uuid-7a347b8a-4dd1-4654-84fa-9b4e744ab0a5" x1="269.061" y1="306.018" x2="256.798" y2="327.149"/>
  <line class="uuid-7a347b8a-4dd1-4654-84fa-9b4e744ab0a5" x1="229.906" y1="328.591" x2="217.715" y2="349.747"/>
  <line class="uuid-7a347b8a-4dd1-4654-84fa-9b4e744ab0a5" x1="190.647" y1="351.454" x2="182.514" y2="365.524"/>
  <line class="uuid-7a347b8a-4dd1-4654-84fa-9b4e744ab0a5" x1="177.018" y1="350.307" x2="166.855" y2="356.193"/>
  <line class="uuid-7a347b8a-4dd1-4654-84fa-9b4e744ab0a5" x1="177.065" y1="337.263" x2="165.045" y2="344.198"/>
  <line class="uuid-7a347b8a-4dd1-4654-84fa-9b4e744ab0a5" x1="177.065" y1="324.216" x2="165.045" y2="331.156"/>
  <line class="uuid-7a347b8a-4dd1-4654-84fa-9b4e744ab0a5" x1="177.065" y1="311.173" x2="164.976" y2="318.135"/>
  <line class="uuid-7a347b8a-4dd1-4654-84fa-9b4e744ab0a5" x1="177.065" y1="298.152" x2="164.976" y2="305.117"/>
  <line class="uuid-7a347b8a-4dd1-4654-84fa-9b4e744ab0a5" x1="177.065" y1="285.108" x2="164.976" y2="292.069"/>
  <line class="uuid-7a347b8a-4dd1-4654-84fa-9b4e744ab0a5" x1="177.065" y1="272.086" x2="164.976" y2="279.052"/>
  <line class="uuid-7a347b8a-4dd1-4654-84fa-9b4e744ab0a5" x1="177.065" y1="259.069" x2="164.976" y2="266.03"/>
  <line class="uuid-7a347b8a-4dd1-4654-84fa-9b4e744ab0a5" x1="177.065" y1="246.023" x2="164.976" y2="252.988"/>
  <line class="uuid-7a347b8a-4dd1-4654-84fa-9b4e744ab0a5" x1="177.018" y1="232.979" x2="164.976" y2="239.94"/>
  <line class="uuid-7a347b8a-4dd1-4654-84fa-9b4e744ab0a5" x1="177.018" y1="219.958" x2="164.976" y2="226.923"/>
  <line class="uuid-7a347b8a-4dd1-4654-84fa-9b4e744ab0a5" x1="177.018" y1="206.914" x2="164.976" y2="213.875"/>
  <line class="uuid-7a347b8a-4dd1-4654-84fa-9b4e744ab0a5" x1="177.018" y1="193.893" x2="164.976" y2="200.858"/>
  <line class="uuid-7a347b8a-4dd1-4654-84fa-9b4e744ab0a5" x1="177.018" y1="180.849" x2="164.924" y2="187.811"/>
  <line class="uuid-7a347b8a-4dd1-4654-84fa-9b4e744ab0a5" x1="177.018" y1="167.829" x2="164.924" y2="174.794"/>
  <line class="uuid-7a347b8a-4dd1-4654-84fa-9b4e744ab0a5" x1="179.462" y1="153.368" x2="164.876" y2="161.798"/>
  <line class="uuid-7a347b8a-4dd1-4654-84fa-9b4e744ab0a5" x1="167.758" y1="147.088" x2="166.903" y2="147.603"/>
  <line class="uuid-7a347b8a-4dd1-4654-84fa-9b4e744ab0a5" x1="186.591" y1="143.18" x2="174.111" y2="135.976"/>
  <line class="uuid-7a347b8a-4dd1-4654-84fa-9b4e744ab0a5" x1="208.48" y1="129.747" x2="196.412" y2="122.786"/>
  <line class="uuid-7a347b8a-4dd1-4654-84fa-9b4e744ab0a5" x1="231.075" y1="116.703" x2="218.984" y2="109.738"/>
  <line class="uuid-7a347b8a-4dd1-4654-84fa-9b4e744ab0a5" x1="253.597" y1="103.657" x2="241.532" y2="96.694"/>
  <line class="uuid-7a347b8a-4dd1-4654-84fa-9b4e744ab0a5" x1="276.243" y1="90.639" x2="265.397" y2="84.384"/>
</svg>