<?xml version="1.0" encoding="UTF-8"?>
<svg id="uuid-dd1082b7-89de-4404-aeb0-10e7746c70dd" data-name="&amp;lt;Layer&amp;gt;" xmlns="http://www.w3.org/2000/svg" viewBox="0 0 451.11 451.11">
  <defs>
    <style>
      .uuid-08bc77ad-38fe-4516-9214-74a44e657c16, .uuid-fb7fbf93-35f4-4ecf-8ae4-8e993a2ee13b, .uuid-e21cb50a-ba84-4622-9a64-8b268e5ecd08 {
        fill: none;
        stroke: #000;
        stroke-linecap: round;
      }

      .uuid-08bc77ad-38fe-4516-9214-74a44e657c16, .uuid-e21cb50a-ba84-4622-9a64-8b268e5ecd08 {
        stroke-linejoin: round;
        stroke-width: 4.117px;
      }

      .uuid-fb7fbf93-35f4-4ecf-8ae4-8e993a2ee13b {
        stroke-miterlimit: 10;
        stroke-width: 1.163px;
      }

      .uuid-e21cb50a-ba84-4622-9a64-8b268e5ecd08 {
        fill-rule: evenodd;
      }
    </style>
  </defs>
  <path class="uuid-e21cb50a-ba84-4622-9a64-8b268e5ecd08" d="M308.109,228.29l30.414,17.614M112.635,300.598l31.757-18.346"/>
  <polyline class="uuid-e21cb50a-ba84-4622-9a64-8b268e5ecd08" points="178.15 359.397 112.587 321.508 112.587 300.62 178.15 338.484"/>
  <polygon class="uuid-e21cb50a-ba84-4622-9a64-8b268e5ecd08" points="178.15 338.484 338.523 245.926 338.523 266.814 178.15 359.397 178.15 338.484"/>
  <line class="uuid-08bc77ad-38fe-4516-9214-74a44e657c16" x1="186.969" y1="116.287" x2="186.969" y2="204.084"/>
  <polyline class="uuid-e21cb50a-ba84-4622-9a64-8b268e5ecd08" points="222.976 137.076 186.969 116.313 229.547 91.712 265.532 112.501"/>
  <polyline class="uuid-e21cb50a-ba84-4622-9a64-8b268e5ecd08" points="222.976 224.847 186.969 204.058 144.392 228.633"/>
  <polyline class="uuid-e21cb50a-ba84-4622-9a64-8b268e5ecd08" points="180.399 249.422 144.392 228.633 144.392 300.135 180.399 320.944"/>
  <line class="uuid-08bc77ad-38fe-4516-9214-74a44e657c16" x1="265.532" y1="271.795" x2="265.532" y2="167.953"/>
  <polyline class="uuid-e21cb50a-ba84-4622-9a64-8b268e5ecd08" points="265.532 126.401 272.102 122.616 308.109 143.404"/>
  <polyline class="uuid-e21cb50a-ba84-4622-9a64-8b268e5ecd08" points="265.532 167.975 308.109 143.404 308.109 247.2 265.532 271.769"/>
  <polyline class="uuid-e21cb50a-ba84-4622-9a64-8b268e5ecd08" points="222.976 224.847 180.399 249.422 180.399 320.944 222.976 296.348"/>
  <polygon class="uuid-e21cb50a-ba84-4622-9a64-8b268e5ecd08" points="222.976 296.348 222.976 137.076 265.532 112.501 265.532 271.769 222.976 296.348"/>
  <line class="uuid-fb7fbf93-35f4-4ecf-8ae4-8e993a2ee13b" x1="123.898" y1="304.826" x2="120.134" y2="298.376"/>
  <line class="uuid-fb7fbf93-35f4-4ecf-8ae4-8e993a2ee13b" x1="143.759" y1="316.72" x2="129.59" y2="292.121"/>
  <line class="uuid-fb7fbf93-35f4-4ecf-8ae4-8e993a2ee13b" x1="163.274" y1="327.931" x2="150.253" y2="305.363"/>
  <line class="uuid-fb7fbf93-35f4-4ecf-8ae4-8e993a2ee13b" x1="142.487" y1="291.878" x2="139.701" y2="287.139"/>
  <line class="uuid-fb7fbf93-35f4-4ecf-8ae4-8e993a2ee13b" x1="180.693" y1="335.478" x2="169.894" y2="316.794"/>
  <line class="uuid-fb7fbf93-35f4-4ecf-8ae4-8e993a2ee13b" x1="190.292" y1="329.521" x2="184.943" y2="320.286"/>
  <line class="uuid-fb7fbf93-35f4-4ecf-8ae4-8e993a2ee13b" x1="200.039" y1="323.878" x2="194.736" y2="314.668"/>
  <line class="uuid-fb7fbf93-35f4-4ecf-8ae4-8e993a2ee13b" x1="209.833" y1="318.237" x2="204.509" y2="309.023"/>
  <line class="uuid-fb7fbf93-35f4-4ecf-8ae4-8e993a2ee13b" x1="219.606" y1="312.593" x2="214.256" y2="303.358"/>
  <line class="uuid-fb7fbf93-35f4-4ecf-8ae4-8e993a2ee13b" x1="229.426" y1="306.948" x2="224.076" y2="297.739"/>
  <line class="uuid-fb7fbf93-35f4-4ecf-8ae4-8e993a2ee13b" x1="239.172" y1="301.308" x2="233.823" y2="292.073"/>
  <line class="uuid-fb7fbf93-35f4-4ecf-8ae4-8e993a2ee13b" x1="248.919" y1="295.664" x2="243.642" y2="286.429"/>
  <line class="uuid-fb7fbf93-35f4-4ecf-8ae4-8e993a2ee13b" x1="258.739" y1="290.019" x2="253.415" y2="280.784"/>
  <line class="uuid-fb7fbf93-35f4-4ecf-8ae4-8e993a2ee13b" x1="268.512" y1="284.38" x2="263.162" y2="275.144"/>
  <line class="uuid-fb7fbf93-35f4-4ecf-8ae4-8e993a2ee13b" x1="278.259" y1="278.735" x2="272.909" y2="269.477"/>
  <line class="uuid-fb7fbf93-35f4-4ecf-8ae4-8e993a2ee13b" x1="288.078" y1="273.091" x2="282.729" y2="263.833"/>
  <line class="uuid-fb7fbf93-35f4-4ecf-8ae4-8e993a2ee13b" x1="297.825" y1="267.451" x2="292.476" y2="258.216"/>
  <line class="uuid-fb7fbf93-35f4-4ecf-8ae4-8e993a2ee13b" x1="307.597" y1="261.78" x2="302.296" y2="252.549"/>
  <line class="uuid-fb7fbf93-35f4-4ecf-8ae4-8e993a2ee13b" x1="317.44" y1="256.261" x2="309.964" y2="243.313"/>
  <line class="uuid-fb7fbf93-35f4-4ecf-8ae4-8e993a2ee13b" x1="327.261" y1="250.665" x2="319.251" y2="236.79"/>
  <line class="uuid-fb7fbf93-35f4-4ecf-8ae4-8e993a2ee13b" x1="181.867" y1="354.975" x2="180.229" y2="354.048"/>
  <line class="uuid-fb7fbf93-35f4-4ecf-8ae4-8e993a2ee13b" x1="193.515" y1="348.698" x2="179.813" y2="340.784"/>
  <line class="uuid-fb7fbf93-35f4-4ecf-8ae4-8e993a2ee13b" x1="204.852" y1="342.196" x2="189.927" y2="333.55"/>
  <line class="uuid-fb7fbf93-35f4-4ecf-8ae4-8e993a2ee13b" x1="216.187" y1="335.676" x2="201.186" y2="327.053"/>
  <line class="uuid-fb7fbf93-35f4-4ecf-8ae4-8e993a2ee13b" x1="227.446" y1="329.154" x2="212.523" y2="320.533"/>
  <line class="uuid-fb7fbf93-35f4-4ecf-8ae4-8e993a2ee13b" x1="238.761" y1="322.634" x2="223.786" y2="314.009"/>
  <line class="uuid-fb7fbf93-35f4-4ecf-8ae4-8e993a2ee13b" x1="250.045" y1="316.11" x2="235.044" y2="307.485"/>
  <line class="uuid-fb7fbf93-35f4-4ecf-8ae4-8e993a2ee13b" x1="261.305" y1="309.613" x2="246.38" y2="300.965"/>
  <line class="uuid-fb7fbf93-35f4-4ecf-8ae4-8e993a2ee13b" x1="272.614" y1="303.089" x2="257.643" y2="294.442"/>
  <line class="uuid-fb7fbf93-35f4-4ecf-8ae4-8e993a2ee13b" x1="283.898" y1="296.569" x2="268.901" y2="287.919"/>
  <line class="uuid-fb7fbf93-35f4-4ecf-8ae4-8e993a2ee13b" x1="295.161" y1="290.045" x2="280.238" y2="281.421"/>
  <line class="uuid-fb7fbf93-35f4-4ecf-8ae4-8e993a2ee13b" x1="306.472" y1="283.547" x2="291.501" y2="274.898"/>
  <line class="uuid-fb7fbf93-35f4-4ecf-8ae4-8e993a2ee13b" x1="317.757" y1="276.998" x2="302.832" y2="268.378"/>
  <line class="uuid-fb7fbf93-35f4-4ecf-8ae4-8e993a2ee13b" x1="329.066" y1="270.504" x2="314.095" y2="261.854"/>
  <line class="uuid-fb7fbf93-35f4-4ecf-8ae4-8e993a2ee13b" x1="336.859" y1="261.976" x2="325.48" y2="255.404"/>
  <line class="uuid-fb7fbf93-35f4-4ecf-8ae4-8e993a2ee13b" x1="176.466" y1="345.766" x2="167.281" y2="351.042"/>
  <line class="uuid-fb7fbf93-35f4-4ecf-8ae4-8e993a2ee13b" x1="170.776" y1="335.993" x2="155.849" y2="344.64"/>
  <line class="uuid-fb7fbf93-35f4-4ecf-8ae4-8e993a2ee13b" x1="159.488" y1="329.495" x2="144.513" y2="338.121"/>
  <line class="uuid-fb7fbf93-35f4-4ecf-8ae4-8e993a2ee13b" x1="148.251" y1="322.976" x2="133.254" y2="331.597"/>
  <line class="uuid-fb7fbf93-35f4-4ecf-8ae4-8e993a2ee13b" x1="136.919" y1="316.452" x2="121.992" y2="325.077"/>
  <line class="uuid-fb7fbf93-35f4-4ecf-8ae4-8e993a2ee13b" x1="125.532" y1="310.002" x2="114.32" y2="316.452"/>
  <line class="uuid-fb7fbf93-35f4-4ecf-8ae4-8e993a2ee13b" x1="252.073" y1="106.272" x2="241.616" y2="124.371"/>
  <line class="uuid-fb7fbf93-35f4-4ecf-8ae4-8e993a2ee13b" x1="232.848" y1="94.424" x2="212.276" y2="130.041"/>
  <line class="uuid-fb7fbf93-35f4-4ecf-8ae4-8e993a2ee13b" x1="195.741" y1="113.55" x2="193.298" y2="117.703"/>
  <line class="uuid-fb7fbf93-35f4-4ecf-8ae4-8e993a2ee13b" x1="276.404" y1="160.013" x2="267.339" y2="144.332"/>
  <line class="uuid-fb7fbf93-35f4-4ecf-8ae4-8e993a2ee13b" x1="286.441" y1="154.837" x2="269.365" y2="125.28"/>
  <line class="uuid-fb7fbf93-35f4-4ecf-8ae4-8e993a2ee13b" x1="295.967" y1="148.728" x2="286.953" y2="133.194"/>
  <line class="uuid-fb7fbf93-35f4-4ecf-8ae4-8e993a2ee13b" x1="277.625" y1="262.833" x2="267.291" y2="256.894"/>
  <line class="uuid-fb7fbf93-35f4-4ecf-8ae4-8e993a2ee13b" x1="289.301" y1="256.552" x2="266.922" y2="243.656"/>
  <line class="uuid-fb7fbf93-35f4-4ecf-8ae4-8e993a2ee13b" x1="300.953" y1="250.275" x2="266.532" y2="230.392"/>
  <line class="uuid-fb7fbf93-35f4-4ecf-8ae4-8e993a2ee13b" x1="307.477" y1="240.993" x2="266.29" y2="217.224"/>
  <line class="uuid-fb7fbf93-35f4-4ecf-8ae4-8e993a2ee13b" x1="307.477" y1="227.949" x2="266.29" y2="204.18"/>
  <line class="uuid-fb7fbf93-35f4-4ecf-8ae4-8e993a2ee13b" x1="307.477" y1="214.905" x2="266.29" y2="191.158"/>
  <line class="uuid-fb7fbf93-35f4-4ecf-8ae4-8e993a2ee13b" x1="307.477" y1="201.884" x2="266.29" y2="178.115"/>
  <line class="uuid-fb7fbf93-35f4-4ecf-8ae4-8e993a2ee13b" x1="307.351" y1="188.767" x2="269.244" y2="166.779"/>
  <line class="uuid-fb7fbf93-35f4-4ecf-8ae4-8e993a2ee13b" x1="306.935" y1="175.503" x2="280.922" y2="160.48"/>
  <line class="uuid-fb7fbf93-35f4-4ecf-8ae4-8e993a2ee13b" x1="306.546" y1="162.235" x2="292.596" y2="154.199"/>
  <line class="uuid-fb7fbf93-35f4-4ecf-8ae4-8e993a2ee13b" x1="306.129" y1="148.997" x2="304.276" y2="147.922"/>
  <line class="uuid-fb7fbf93-35f4-4ecf-8ae4-8e993a2ee13b" x1="243.691" y1="282.764" x2="224.418" y2="271.649"/>
  <line class="uuid-fb7fbf93-35f4-4ecf-8ae4-8e993a2ee13b" x1="264.848" y1="268.915" x2="223.734" y2="245.172"/>
  <line class="uuid-fb7fbf93-35f4-4ecf-8ae4-8e993a2ee13b" x1="264.848" y1="242.85" x2="223.734" y2="219.107"/>
  <line class="uuid-fb7fbf93-35f4-4ecf-8ae4-8e993a2ee13b" x1="264.848" y1="216.785" x2="223.734" y2="193.039"/>
  <line class="uuid-fb7fbf93-35f4-4ecf-8ae4-8e993a2ee13b" x1="264.848" y1="190.721" x2="223.734" y2="166.952"/>
  <line class="uuid-fb7fbf93-35f4-4ecf-8ae4-8e993a2ee13b" x1="264.894" y1="164.656" x2="223.734" y2="140.887"/>
  <line class="uuid-fb7fbf93-35f4-4ecf-8ae4-8e993a2ee13b" x1="264.214" y1="138.175" x2="244.059" y2="126.545"/>
  <line class="uuid-fb7fbf93-35f4-4ecf-8ae4-8e993a2ee13b" x1="221.706" y1="196.483" x2="199.112" y2="209.53"/>
  <line class="uuid-fb7fbf93-35f4-4ecf-8ae4-8e993a2ee13b" x1="222.049" y1="170.201" x2="187.948" y2="189.911"/>
  <line class="uuid-fb7fbf93-35f4-4ecf-8ae4-8e993a2ee13b" x1="222.049" y1="144.136" x2="187.948" y2="163.847"/>
  <line class="uuid-fb7fbf93-35f4-4ecf-8ae4-8e993a2ee13b" x1="204.557" y1="128.182" x2="188.533" y2="137.417"/>
</svg>