<?xml version="1.0" encoding="UTF-8"?>
<svg id="uuid-ed5445e0-c2fd-403c-ad0b-74bbc240c710" data-name="&amp;lt;Layer&amp;gt;" xmlns="http://www.w3.org/2000/svg" viewBox="0 0 451.11 451.11">
  <defs>
    <style>
      .uuid-6dfc09ff-2cbd-412c-bc60-6777d2fba35d, .uuid-afc29d7f-6cbc-42b8-b09f-3d60549fa8e7, .uuid-c806526f-ff8b-4959-9b70-423cb62dba4b, .uuid-88c26e7d-6a42-4a13-a9bd-276f7490991e, .uuid-0bc8f62a-f704-4ed7-8dfe-d95b1cf2c7db {
        fill: none;
      }

      .uuid-6dfc09ff-2cbd-412c-bc60-6777d2fba35d, .uuid-afc29d7f-6cbc-42b8-b09f-3d60549fa8e7, .uuid-c806526f-ff8b-4959-9b70-423cb62dba4b, .uuid-88c26e7d-6a42-4a13-a9bd-276f7490991e, .uuid-0bc8f62a-f704-4ed7-8dfe-d95b1cf2c7db, .uuid-4b8b4971-683e-4a46-94a7-0510ac25805e, .uuid-602edefe-85a9-48d4-9a64-592a5bf9668a, .uuid-7e36f533-4337-4d1b-b7d2-145261cc30bb, .uuid-888173a9-6ba9-4fb4-b67c-eed90728b37f, .uuid-e363da45-f397-4230-9a2f-b90cdc9ad932 {
        stroke: #000;
        stroke-linecap: round;
      }

      .uuid-6dfc09ff-2cbd-412c-bc60-6777d2fba35d, .uuid-0bc8f62a-f704-4ed7-8dfe-d95b1cf2c7db, .uuid-4b8b4971-683e-4a46-94a7-0510ac25805e, .uuid-602edefe-85a9-48d4-9a64-592a5bf9668a, .uuid-7e36f533-4337-4d1b-b7d2-145261cc30bb, .uuid-888173a9-6ba9-4fb4-b67c-eed90728b37f, .uuid-e363da45-f397-4230-9a2f-b90cdc9ad932 {
        stroke-width: 4.117px;
      }

      .uuid-6dfc09ff-2cbd-412c-bc60-6777d2fba35d, .uuid-0bc8f62a-f704-4ed7-8dfe-d95b1cf2c7db, .uuid-888173a9-6ba9-4fb4-b67c-eed90728b37f, .uuid-e363da45-f397-4230-9a2f-b90cdc9ad932 {
        stroke-linejoin: round;
      }

      .uuid-afc29d7f-6cbc-42b8-b09f-3d60549fa8e7, .uuid-c806526f-ff8b-4959-9b70-423cb62dba4b, .uuid-88c26e7d-6a42-4a13-a9bd-276f7490991e {
        stroke-width: 1.163px;
      }

      .uuid-afc29d7f-6cbc-42b8-b09f-3d60549fa8e7, .uuid-88c26e7d-6a42-4a13-a9bd-276f7490991e, .uuid-4b8b4971-683e-4a46-94a7-0510ac25805e, .uuid-7e36f533-4337-4d1b-b7d2-145261cc30bb {
        stroke-miterlimit: 22.926;
      }

      .uuid-c806526f-ff8b-4959-9b70-423cb62dba4b, .uuid-602edefe-85a9-48d4-9a64-592a5bf9668a {
        stroke-miterlimit: 10;
      }

      .uuid-88c26e7d-6a42-4a13-a9bd-276f7490991e, .uuid-0bc8f62a-f704-4ed7-8dfe-d95b1cf2c7db, .uuid-602edefe-85a9-48d4-9a64-592a5bf9668a, .uuid-7e36f533-4337-4d1b-b7d2-145261cc30bb, .uuid-888173a9-6ba9-4fb4-b67c-eed90728b37f {
        fill-rule: evenodd;
      }

      .uuid-4b8b4971-683e-4a46-94a7-0510ac25805e, .uuid-602edefe-85a9-48d4-9a64-592a5bf9668a, .uuid-7e36f533-4337-4d1b-b7d2-145261cc30bb, .uuid-888173a9-6ba9-4fb4-b67c-eed90728b37f, .uuid-e363da45-f397-4230-9a2f-b90cdc9ad932 {
        fill: #1986c6;
      }
    </style>
  </defs>
  <polyline class="uuid-0bc8f62a-f704-4ed7-8dfe-d95b1cf2c7db" points="294.999 108.834 295.168 286.963 294.436 287.426 294.362 287.426 179.33 354.383"/>
  <polyline class="uuid-0bc8f62a-f704-4ed7-8dfe-d95b1cf2c7db" points="287.725 138.019 281.787 134.575 275.582 138.187"/>
  <polyline class="uuid-0bc8f62a-f704-4ed7-8dfe-d95b1cf2c7db" points="239.455 165.889 239.529 165.889 245.438 162.398"/>
  <path class="uuid-0bc8f62a-f704-4ed7-8dfe-d95b1cf2c7db" d="M176.159,195.546l15.438-8.916M198.294,182.793l2.734-1.586"/>
  <polyline class="uuid-0bc8f62a-f704-4ed7-8dfe-d95b1cf2c7db" points="287.725 192.076 281.787 188.657 275.582 192.249"/>
  <path class="uuid-0bc8f62a-f704-4ed7-8dfe-d95b1cf2c7db" d="M188.08,296.824l-2.76,1.59M178.723,302.295l-2.564,1.395"/>
  <path class="uuid-0bc8f62a-f704-4ed7-8dfe-d95b1cf2c7db" d="M222.916,276.698l8.062-4.544M237.719,268.268l2.37-1.563"/>
  <polyline class="uuid-0bc8f62a-f704-4ed7-8dfe-d95b1cf2c7db" points="287.725 246.137 281.787 242.715 275.536 246.309"/>
  <polyline class="uuid-0bc8f62a-f704-4ed7-8dfe-d95b1cf2c7db" points="279.126 251.07 287.725 246.137 287.725 254.784"/>
  <polyline class="uuid-0bc8f62a-f704-4ed7-8dfe-d95b1cf2c7db" points="279.174 142.952 287.725 138.019 287.725 146.665"/>
  <polyline class="uuid-0bc8f62a-f704-4ed7-8dfe-d95b1cf2c7db" points="279.174 197.014 287.725 192.076 287.725 200.726"/>
  <path class="uuid-0bc8f62a-f704-4ed7-8dfe-d95b1cf2c7db" d="M162.406,364.539c.099,1.394.221,2.495.467,3.422.048.365.169.633.341,1.001.122.221.221.463.343.684.343.711.754,1.343,1.269,1.638.243.169.415.343.658.585.048,0,.048.051.1.051,2.17,1.512,5.224,1.391,8.598-.588"/>
  <path class="uuid-0bc8f62a-f704-4ed7-8dfe-d95b1cf2c7db" d="M176.159,333.713v-7.328M176.159,319.177v-142.735"/>
  <polyline class="uuid-0bc8f62a-f704-4ed7-8dfe-d95b1cf2c7db" points="177.969 173.44 274.483 117.741 291.853 107.704"/>
  <polyline class="uuid-0bc8f62a-f704-4ed7-8dfe-d95b1cf2c7db" points="217.908 306.99 218.078 306.891 218.325 306.769"/>
  <path class="uuid-0bc8f62a-f704-4ed7-8dfe-d95b1cf2c7db" d="M237.843,283.707c1.391,1.394,2.833,2.612,4.42,3.492,3.421,1.979,6.498,2.152,8.698.809.295-.121.463-.293.684-.415"/>
  <path class="uuid-0bc8f62a-f704-4ed7-8dfe-d95b1cf2c7db" d="M253.109,138.53c1.785-1.023,8.82-5.298,10.336-5.74,7.204-2.05,15.096,7.62,17.757,14.291,1.927,4.691,3.443,13.12-1.785,16.295"/>
  <path class="uuid-0bc8f62a-f704-4ed7-8dfe-d95b1cf2c7db" d="M270.476,168.528c7.086-4.47,2.443-17.367-2.318-23.426-3.201-4.081-9.53-9.427-15.049-6.572"/>
  <polyline class="uuid-0bc8f62a-f704-4ed7-8dfe-d95b1cf2c7db" points="262.587 161.176 262.855 161.004 265.3 159.565"/>
  <path class="uuid-0bc8f62a-f704-4ed7-8dfe-d95b1cf2c7db" d="M265.3,159.565c.879-.537,1.464-1.638,1.464-3.201,0-1.686-.659-3.591-1.759-5.228-.806-1.391-1.98-2.565-3.201-3.249-.633-.417-1.27-.659-1.833-.707h-.316c-1.027,0-1.906.511-2.318,1.464,0,0-.051.048-.051.1"/>
  <path class="uuid-0bc8f62a-f704-4ed7-8dfe-d95b1cf2c7db" d="M263.32,168.506c2.858,1.147,5.349,1.097,7.208,0,.047,0,.121-.074.169-.122.074,0,.122-.051.173-.125.122-.048.242-.122.342-.169.07-.052.195-.122.195-.247.122-.048.221-.096.221-.218.343-.293.585-.588.806-.931.243-.291.411-.584.537-.879.221-.463.463-.975.632-1.486.295-1.127.465-2.348.465-3.738,0-.467,0-.979-.048-1.443,0-.293-.074-.588-.122-.879,0-.1,0-.173-.074-.295-.046-.389-.098-.853-.221-1.269-.046-.588-.169-1.099-.341-1.685-.659-2.248-1.634-4.47-2.908-6.62,0-.125-.047-.173-.12-.293"/>
  <path class="uuid-0bc8f62a-f704-4ed7-8dfe-d95b1cf2c7db" d="M270.185,148.108c-.467-.88-1.001-1.686-1.637-2.491-.295-.343-.563-.758-.854-1.101-.295-.415-.662-.758-1.004-1.101-.217-.289-.512-.584-.806-.805"/>
  <path class="uuid-0bc8f62a-f704-4ed7-8dfe-d95b1cf2c7db" d="M264.71,141.488c-.169-.173-.389-.343-.633-.515-.684-.584-1.49-1.096-2.273-1.563-.391-.244-.854-.465-1.27-.659-.633-.295-1.149-.511-1.733-.632"/>
  <polyline class="uuid-0bc8f62a-f704-4ed7-8dfe-d95b1cf2c7db" points="258.802 138.119 258.75 138.067 258.68 138.067"/>
  <path class="uuid-0bc8f62a-f704-4ed7-8dfe-d95b1cf2c7db" d="M257.701,137.846c-.463-.07-.927-.122-1.343-.122-.514,0-.979.052-1.394.173-.463.048-.927.222-1.343.391h-.047l-.122.122c-2.028,1.001-3.418,3.153-3.76,6.276"/>
  <path class="uuid-0bc8f62a-f704-4ed7-8dfe-d95b1cf2c7db" d="M233.543,149.845c1.733-1.005,8.768-5.306,10.284-5.718,7.182-2.075,15.096,7.593,17.807,14.264,1.855,4.692,3.371,13.118-1.854,16.296"/>
  <path class="uuid-0bc8f62a-f704-4ed7-8dfe-d95b1cf2c7db" d="M250.836,179.863c7.086-4.495,2.443-17.366-2.318-23.426-3.201-4.105-9.53-9.43-14.975-6.592"/>
  <path class="uuid-0bc8f62a-f704-4ed7-8dfe-d95b1cf2c7db" d="M237.67,160.077c.391-.975,1.269-1.564,2.37-1.564h.295c.584.048,1.221.295,1.854.684,1.221.71,2.37,1.859,3.249,3.201,1.053,1.612,1.685,3.592,1.685,5.276,0,1.586-.511,2.687-1.438,3.201"/>
  <polyline class="uuid-0bc8f62a-f704-4ed7-8dfe-d95b1cf2c7db" points="245.684 170.875 243.925 171.924 242.483 172.73"/>
  <path class="uuid-0bc8f62a-f704-4ed7-8dfe-d95b1cf2c7db" d="M229.999,156.459c.295-3.344,1.737-5.666,3.838-6.715q.046-.074.094-.121h.074c1.147-.515,2.491-.711,4.007-.467"/>
  <path class="uuid-0bc8f62a-f704-4ed7-8dfe-d95b1cf2c7db" d="M239.403,149.45c.052.048.126.048.221.122.365.099.711.273,1.101.393.486.243,1.001.463,1.464.754.415.247.88.515,1.273.81.365.243.754.585,1.169.879.269.218.585.463.854.754.074.048.199.122.247.174.173.169.389.341.585.584.121.1.293.295.389.417.125.095.247.221.295.341"/>
  <path class="uuid-0bc8f62a-f704-4ed7-8dfe-d95b1cf2c7db" d="M247.076,154.678c.636.758,1.269,1.516,1.858,2.27.758.979,1.391,1.953,1.903,2.958.419.633.758,1.317,1.051,2.027.048.122.122.17.122.291.221.463.467.979.636,1.442.416.88.684,1.733.975,2.617.295,1.049.541,2.1.637,3.149"/>
  <path class="uuid-0bc8f62a-f704-4ed7-8dfe-d95b1cf2c7db" d="M254.257,169.481c.074.295.074.636.121,1.001.074.441.074.979.074,1.442,0,.685-.074,1.343-.121,1.953-.122.663-.244,1.247-.343,1.759-.17.515-.415,1.053-.659,1.516-.173.391-.389.758-.684,1.101-.221.343-.538.632-.879.927,0,.074-.122.122-.172.243-.218.1-.339.273-.634.395"/>
  <path class="uuid-0bc8f62a-f704-4ed7-8dfe-d95b1cf2c7db" d="M213.512,161.445c1.733-1.051,8.768-5.327,10.258-5.74,7.208-2.075,15.122,7.595,17.787,14.265,1.905,4.691,3.418,13.118-1.811,16.296"/>
  <path class="uuid-0bc8f62a-f704-4ed7-8dfe-d95b1cf2c7db" d="M230.805,191.443c7.086-4.496,2.443-17.366-2.318-23.426-3.201-4.081-9.53-9.456-14.975-6.572"/>
  <path class="uuid-0bc8f62a-f704-4ed7-8dfe-d95b1cf2c7db" d="M225.627,182.428c.88-.463,1.466-1.564,1.466-3.127,0-1.686-.637-3.666-1.733-5.302-.832-1.317-1.981-2.539-3.202-3.249-.632-.389-1.342-.633-1.928-.633-1.221-.121-2.152.417-2.615,1.516"/>
  <path class="uuid-0bc8f62a-f704-4ed7-8dfe-d95b1cf2c7db" d="M230.853,191.369c.077,0,.077-.047.077-.047.048,0,.048-.074.122-.074.048,0,.169-.052.221-.1.121-.073.243-.121.291-.169.048-.074.121-.125.173-.173.415-.365.758-.754,1.049-1.221.221-.243.389-.537.511-.88.247-.463.467-.927.636-1.438.122-.589.247-1.173.369-1.759.048-.637.095-1.273.095-1.979,0-.463,0-.979-.047-1.442-.048-.369-.048-.707-.122-1.001-.048-.515-.173-.979-.295-1.49-.048-.589-.217-1.101-.389-1.686-.048-.195-.048-.295-.195-.467-.174-.706-.391-1.464-.733-2.144-.54-1.468-1.222-2.984-2.052-4.302-.637-1.049-1.269-2.028-2.075-2.958-.295-.485-.636-.876-1.053-1.292"/>
  <path class="uuid-0bc8f62a-f704-4ed7-8dfe-d95b1cf2c7db" d="M226.971,166.232c-.169-.291-.464-.585-.758-.758-.411-.511-.853-.927-1.317-1.292-.489-.393-1.005-.806-1.468-1.075-.412-.319-.853-.588-1.27-.831-.415-.221-.879-.463-1.269-.637-.658-.293-1.173-.511-1.759-.636"/>
  <polyline class="uuid-0bc8f62a-f704-4ed7-8dfe-d95b1cf2c7db" points="219.13 161.004 219.083 160.933 219.009 160.933"/>
  <path class="uuid-0bc8f62a-f704-4ed7-8dfe-d95b1cf2c7db" d="M218.03,160.713c-1.516-.221-2.906-.048-4.055.463h-.074q-.047.048-.099.122c-1.927.927-3.319,2.954-3.734,5.912"/>
  <path class="uuid-0bc8f62a-f704-4ed7-8dfe-d95b1cf2c7db" d="M194.213,172.513c1.759-1.053,8.768-5.328,10.284-5.74,7.204-2.079,15.097,7.593,17.783,14.265,1.905,4.687,3.422,13.116-1.807,16.292"/>
  <path class="uuid-0bc8f62a-f704-4ed7-8dfe-d95b1cf2c7db" d="M211.532,202.507c7.086-4.492,2.443-17.367-2.322-23.448-3.201-4.081-9.526-9.405-14.997-6.546"/>
  <path class="uuid-0bc8f62a-f704-4ed7-8dfe-d95b1cf2c7db" d="M202.861,173.366c6.744,3.908,12.264,13.386,12.264,21.205s-5.519,10.968-12.264,7.082c-1.564-.901-3.054-2.1-4.398-3.492"/>
  <path class="uuid-0bc8f62a-f704-4ed7-8dfe-d95b1cf2c7db" d="M206.352,193.518c.879-.511,1.394-1.612,1.394-3.175,0-3.128-2.2-6.962-4.886-8.525-2.075-1.197-3.882-.732-4.566.975"/>
  <path class="uuid-0bc8f62a-f704-4ed7-8dfe-d95b1cf2c7db" d="M191.598,186.63c-.633-2.1-.975-4.202-.975-6.203,0-7.793,5.449-10.968,12.238-7.061"/>
  <path class="uuid-0bc8f62a-f704-4ed7-8dfe-d95b1cf2c7db" d="M253.157,192.59c1.807-1.051,8.846-5.323,10.332-5.74,7.208-2.078,15.1,7.62,17.786,14.265,1.905,4.692,3.418,13.118-1.811,16.292"/>
  <path class="uuid-0bc8f62a-f704-4ed7-8dfe-d95b1cf2c7db" d="M270.528,222.588c7.034-4.496,2.443-17.37-2.322-23.426-3.201-4.08-9.526-9.43-15.049-6.572"/>
  <polyline class="uuid-0bc8f62a-f704-4ed7-8dfe-d95b1cf2c7db" points="256.016 203.584 257.336 202.826 257.406 202.754"/>
  <path class="uuid-0bc8f62a-f704-4ed7-8dfe-d95b1cf2c7db" d="M260.023,201.238c.584.074,1.221.295,1.854.636,1.221.71,2.37,1.931,3.253,3.275,1.049,1.612,1.682,3.588,1.682,5.276,0,1.564-.585,2.66-1.439,3.197"/>
  <path class="uuid-0bc8f62a-f704-4ed7-8dfe-d95b1cf2c7db" d="M263.32,222.516c2.784,1.195,5.275,1.147,7.208.048.632-.365,1.221-.828,1.685-1.439.343-.367.585-.831.806-1.221.463-.953.805-2.053,1.001-3.275.048-.636.121-1.269.121-1.979,0-.463,0-.975-.073-1.442-.048-.343-.048-.684-.122-.975-.048-.537-.169-1.001-.291-1.516-.052-.585-.221-1.101-.393-1.685,0-.174-.07-.343-.17-.463-.173-.711-.489-1.443-.758-2.149-.463-1.346-1.173-2.663-1.928-3.959,0-.096-.052-.173-.172-.269-.217-.537-.586-1.001-.927-1.464-.295-.515-.711-1.053-1.101-1.564-.415-.537-.806-.979-1.221-1.464"/>
  <path class="uuid-0bc8f62a-f704-4ed7-8dfe-d95b1cf2c7db" d="M266.642,197.355c-.169-.221-.463-.514-.71-.71-.291-.341-.632-.632-.927-.853-.217-.247-.463-.417-.684-.589-.755-.684-1.564-1.269-2.444-1.733-.412-.243-.875-.463-1.27-.633-.536-.247-1.047-.467-1.464-.588-.121-.048-.221-.048-.295-.122-.047,0-.099-.051-.169-.051-.052,0-.121,0-.173-.048-.291,0-.585-.074-.88-.144-1.316-.221-2.539-.099-3.59.365"/>
  <polyline class="uuid-0bc8f62a-f704-4ed7-8dfe-d95b1cf2c7db" points="253.499 192.418 253.451 192.54 253.399 192.54"/>
  <path class="uuid-0bc8f62a-f704-4ed7-8dfe-d95b1cf2c7db" d="M253.399,192.54q-.07,0-.121.051c-1.903,1.002-3.198,3.15-3.54,6.108"/>
  <path class="uuid-0bc8f62a-f704-4ed7-8dfe-d95b1cf2c7db" d="M233.543,203.901c1.785-1.027,8.819-5.324,10.331-5.74,7.209-2.078,15.097,7.621,17.761,14.291,1.931,4.687,3.422,13.116-1.784,16.293"/>
  <path class="uuid-0bc8f62a-f704-4ed7-8dfe-d95b1cf2c7db" d="M250.887,233.899c7.109-4.496,2.443-17.37-2.321-23.426-3.176-4.081-9.5-9.43-15.023-6.572"/>
  <path class="uuid-0bc8f62a-f704-4ed7-8dfe-d95b1cf2c7db" d="M230.051,210.547c.291-3.375,1.685-5.693,3.833-6.742q.048-.051.122-.125h.048c.342-.173.758-.343,1.173-.415.295-.048.563-.096.854-.096.636-.121,1.294-.074,2.03.048"/>
  <path class="uuid-0bc8f62a-f704-4ed7-8dfe-d95b1cf2c7db" d="M245.732,224.933c.879-.511,1.438-1.612,1.438-3.197,0-1.664-.632-3.643-1.685-5.276-.854-1.321-2.024-2.543-3.223-3.253-.659-.343-1.295-.585-1.881-.633"/>
  <path class="uuid-0bc8f62a-f704-4ed7-8dfe-d95b1cf2c7db" d="M240.335,212.573h-.295c-1.053,0-1.859.511-2.27,1.512"/>
  <polyline class="uuid-0bc8f62a-f704-4ed7-8dfe-d95b1cf2c7db" points="237.771 214.085 237.719 214.137 235.912 215.138"/>
  <path class="uuid-0bc8f62a-f704-4ed7-8dfe-d95b1cf2c7db" d="M213.512,215.481c1.781-1.027,8.816-5.302,10.332-5.74,7.208-2.079,15.096,7.619,17.759,14.291,1.907,4.687,3.445,13.116-1.783,16.266"/>
  <path class="uuid-0bc8f62a-f704-4ed7-8dfe-d95b1cf2c7db" d="M230.853,245.479c7.038-4.47,2.443-17.371-2.318-23.426-3.175-4.081-9.526-9.431-15.023-6.572"/>
  <polyline class="uuid-0bc8f62a-f704-4ed7-8dfe-d95b1cf2c7db" points="216.687 226.276 217.688 225.691 217.736 225.643"/>
  <path class="uuid-0bc8f62a-f704-4ed7-8dfe-d95b1cf2c7db" d="M217.736,225.643c.463-1.053,1.394-1.564,2.569-1.468.584,0,1.269.247,1.902.662,1.222.685,2.322,1.855,3.201,3.176,1.049,1.637,1.737,3.542,1.737,5.301,0,1.564-.588,2.661-1.442,3.176"/>
  <polyline class="uuid-0bc8f62a-f704-4ed7-8dfe-d95b1cf2c7db" points="213.733 215.407 213.803 215.407 213.803 215.359 213.855 215.308"/>
  <path class="uuid-0bc8f62a-f704-4ed7-8dfe-d95b1cf2c7db" d="M213.855,215.308c.047,0,.121,0,.121-.07.096-.052.221-.1.391-.1,1.051-.489,2.273-.585,3.616-.363.269.069.585.121.854.121.073.048.121.048.173.048.074,0,.121.074.169.074.538.169,1.175.389,1.759.684.417.195.858.415,1.269.658.81.439,1.685,1.027,2.443,1.733.247.174.465.343.711.589.267.221.61.511.927.854.099.047.221.169.341.367.174.096.295.221.391.343v.048c.588.584,1.053,1.173,1.516,1.733.415.537.806,1.051,1.097,1.589"/>
  <path class="uuid-0bc8f62a-f704-4ed7-8dfe-d95b1cf2c7db" d="M230.635,225.055c.048.125.122.173.122.293.758,1.343,1.442,2.665,1.905,4.007.343.707.585,1.391.758,2.101.122.169.17.341.17.512.172.588.341,1.147.415,1.689.172.511.221,1.049.294,1.56.048.295.048.588.095.883.074.463.074.975.074,1.44,0,2.1-.415,3.833-1.122,5.228-.1.243-.222.463-.343.636-.1.243-.269.411-.463.585v.048c-.269.367-.589.636-.931.953-.218.147-.465.341-.758.511-1.781,1.051-4.177,1.099-6.837,0"/>
  <path class="uuid-0bc8f62a-f704-4ed7-8dfe-d95b1cf2c7db" d="M194.213,226.545c1.807-1.023,8.842-5.298,10.358-5.74,7.182-2.053,15.096,7.623,17.757,14.29,1.906,4.691,3.422,13.118-1.807,16.27"/>
  <path class="uuid-0bc8f62a-f704-4ed7-8dfe-d95b1cf2c7db" d="M211.581,256.545c7.086-4.474,2.443-17.37-2.318-23.43-3.201-4.077-9.53-9.426-15.049-6.57"/>
  <path class="uuid-0bc8f62a-f704-4ed7-8dfe-d95b1cf2c7db" d="M202.933,227.401c6.74,3.907,12.191,13.411,12.191,21.226s-5.45,10.972-12.191,7.061c-1.563-.88-3.075-2.075-4.418-3.47"/>
  <path class="uuid-0bc8f62a-f704-4ed7-8dfe-d95b1cf2c7db" d="M206.352,247.579c.931-.515,1.468-1.611,1.468-3.201,0-3.127-2.222-6.935-4.887-8.525-2.1-1.195-3.885-.71-4.591,1.001"/>
  <path class="uuid-0bc8f62a-f704-4ed7-8dfe-d95b1cf2c7db" d="M191.67,240.692c-.632-2.105-1.001-4.228-1.001-6.233,0-7.789,5.472-10.968,12.264-7.057"/>
  <path class="uuid-0bc8f62a-f704-4ed7-8dfe-d95b1cf2c7db" d="M253.742,246.431c2.322-1.394,8.429-4.982,9.747-5.471,3.786-1.053,7.723,1.049,10.994,4.298.393.367.684.71,1.053,1.051,1.39,1.512,2.612,3.124,3.59,4.761.928,1.468,1.685,2.859,2.196,4.177.369.809.637,1.761.88,2.737,1.346,4.713,1.612,10.92-2.737,13.583"/>
  <path class="uuid-0bc8f62a-f704-4ed7-8dfe-d95b1cf2c7db" d="M270.528,276.746c.291-.196.511-.369.754-.537.345-.269.636-.563.931-.906v-.073c.169-.17.291-.343.463-.585.122-.169.243-.391.343-.636.173-.343.363-.685.463-1.097.341-.81.537-1.638.585-2.565.073-.515.073-1.027.073-1.564,0-.467,0-.979-.073-1.442-.048-.295-.048-.585-.122-.879-.048-.511-.122-1.053-.291-1.564-.098-.585-.273-1.173-.463-1.733,0-.126-.052-.295-.1-.467-.247-.706-.489-1.417-.758-2.098-.463-1.346-1.173-2.663-1.928-4.007,0-.125-.099-.221-.172-.367"/>
  <path class="uuid-0bc8f62a-f704-4ed7-8dfe-d95b1cf2c7db" d="M253.499,246.552c.173-.073.319-.121.537-.173,4.522-2.104,10.126,2.712,11.979,4.444"/>
  <path class="uuid-0bc8f62a-f704-4ed7-8dfe-d95b1cf2c7db" d="M257.458,256.763c.415-.88,1.221-1.391,2.27-1.391h.295c.584.048,1.221.291,1.854.684,1.221.707,2.322,1.807,3.128,3.15"/>
  <path class="uuid-0bc8f62a-f704-4ed7-8dfe-d95b1cf2c7db" d="M265.056,259.206c1.049,1.611,1.756,3.59,1.756,5.349,0,1.269-.339,2.2-1.001,2.785-.048.096-.17.173-.269.221-.074.122-.122.122-.17.17"/>
  <path class="uuid-0bc8f62a-f704-4ed7-8dfe-d95b1cf2c7db" d="M234.006,257.815h.048c-.048.048-.122.048-.17.122-.121,0-.169.048-.293.096.124-.048.247-.096.415-.218Z"/>
  <path class="uuid-0bc8f62a-f704-4ed7-8dfe-d95b1cf2c7db" d="M251.645,287.592c-.221.122-.389.295-.684.415.758-.467,1.39-1.099,1.906-1.809.242-.291.412-.559.533-.88.273-.437.515-.975.637-1.486.515-1.564.584-3.325.415-5.18,0-.295-.074-.563-.121-.88-.074-.511-.17-1.074-.295-1.611-.122-.589-.295-1.101-.463-1.685,0-.174-.074-.295-.122-.467-.684-2.149-1.612-4.25-2.664-6.082,0-.122-.122-.243-.17-.365"/>
  <path class="uuid-0bc8f62a-f704-4ed7-8dfe-d95b1cf2c7db" d="M234.054,257.815c2.274-1.394,8.477-5.106,9.819-5.523,1.907-.511,3.96-.243,5.866.589,2.196.975,4.348,2.711,6.203,4.739,0,0,0,.07.074.07,1.32,1.468,2.543,3.079,3.543,4.717.853,1.442,1.611,2.834,2.148,4.176.343.806.636,1.733.879,2.737"/>
  <path class="uuid-0bc8f62a-f704-4ed7-8dfe-d95b1cf2c7db" d="M254.5,280.116c0,1.394-.169,2.615-.463,3.716-.17.511-.417,1.049-.637,1.486-.121.321-.291.589-.533.88-.342.537-.758,1.001-1.222,1.394-.221.122-.389.295-.684.415-2.2,1.343-5.276,1.171-8.698-.809-1.586-.88-3.028-2.097-4.42-3.492"/>
  <path class="uuid-0bc8f62a-f704-4ed7-8dfe-d95b1cf2c7db" d="M245.732,279.067c.048-.074.121-.074.173-.173.122-.074.217-.122.291-.243.636-.563.975-1.516.975-2.785,0-1.733-.68-3.664-1.733-5.276-.878-1.342-1.976-2.491-3.175-3.201-.659-.415-1.295-.633-1.881-.684h-.095"/>
  <path class="uuid-0bc8f62a-f704-4ed7-8dfe-d95b1cf2c7db" d="M240.088,266.705c-1.023,0-1.855.515-2.245,1.394-.072.048-.124.096-.124.169"/>
  <path class="uuid-0bc8f62a-f704-4ed7-8dfe-d95b1cf2c7db" d="M230.978,272.154v-.122c-.636-2.03-.979-4.106-.979-6.033,0-4.129,1.516-6.914,3.885-8.062q.048-.074.122-.122h.048c.415-.195.831-.295,1.273-.415.463-.122.953-.173,1.39-.173.463,0,.953.051,1.394.121.365.052.707.1,1.049.221.585.199,1.175.417,1.807.71.415.17.88.391,1.295.633.511.295.979.636,1.49.979.415.295.806.658,1.222.927.463.417.93.832,1.343,1.295"/>
  <path class="uuid-0bc8f62a-f704-4ed7-8dfe-d95b1cf2c7db" d="M247.076,262.797c.173.17.341.369.463.537.341.463.684.854,1.027,1.27.368.467.758.979,1.125,1.564.343.463.633.927.927,1.394.048.122.17.243.17.365,1.222,1.953,2.078,4.007,2.664,6.082.122.125.169.293.169.467.199.584.369,1.096.417,1.685.125.537.221,1.099.295,1.611.047.317.047.585.121.88.048.463.048,1.001.048,1.464"/>
  <path class="uuid-0bc8f62a-f704-4ed7-8dfe-d95b1cf2c7db" d="M200.954,276.793h.074c-.074.074-.122.074-.195.126-.1,0-.172.048-.295.121.122-.073.247-.121.415-.247Z"/>
  <path class="uuid-0bc8f62a-f704-4ed7-8dfe-d95b1cf2c7db" d="M218.618,306.596c-.125.048-.173.1-.293.173.169-.125.293-.247.463-.341.389-.417.758-.832,1.049-1.223.221-.293.393-.536.515-.879.289-.467.536-.931.632-1.468.247-.563.369-1.147.369-1.733.173-1.053.173-2.27.047-3.47,0-.291-.047-.585-.121-.88,0-.121,0-.169-.048-.291-.074-.415-.125-.809-.247-1.272-.096-.585-.217-1.123-.463-1.634-.636-2.322-1.612-4.595-2.785-6.622,0-.096-.048-.17-.169-.291v-.052c-.589-1.049-1.269-2.028-2.027-2.954-.463-.637-.979-1.295-1.516-1.807"/>
  <path class="uuid-0bc8f62a-f704-4ed7-8dfe-d95b1cf2c7db" d="M213.975,281.853c-.173-.295-.415-.537-.706-.758-.295-.295-.589-.636-.931-.879-.221-.221-.463-.391-.707-.563-.735-.706-1.615-1.295-2.421-1.759-.415-.221-.878-.463-1.295-.633-.558-.293-1.147-.514-1.733-.636"/>
  <polyline class="uuid-0bc8f62a-f704-4ed7-8dfe-d95b1cf2c7db" points="206.182 276.624 206.134 276.55 206.061 276.55"/>
  <path class="uuid-0bc8f62a-f704-4ed7-8dfe-d95b1cf2c7db" d="M201.028,276.793c2.322-1.316,8.451-5.054,9.799-5.445,4.176-1.221,8.594,1.512,12.09,5.35,1.391,1.442,2.613,3.127,3.592,4.739.879,1.464,1.637,2.854,2.148,4.202.343.806.637,1.733.88,2.782,1.318,4.691,1.611,10.846-2.686,13.463"/>
  <path class="uuid-0bc8f62a-f704-4ed7-8dfe-d95b1cf2c7db" d="M204.666,287.25c.465-1.051,1.395-1.611,2.565-1.442.637,0,1.273.17,1.979.563,1.221.706,2.37,1.928,3.201,3.271,1.101,1.615,1.734,3.594,1.734,5.28,0,1.563-.585,2.66-1.465,3.197"/>
  <path class="uuid-0bc8f62a-f704-4ed7-8dfe-d95b1cf2c7db" d="M206.061,276.55c-.269-.099-.585-.173-.854-.221h-.125c-.463-.048-.928-.121-1.392-.121s-.927.073-1.39.169c-.467.125-.88.247-1.273.415h-.074q-.048.074-.121.126c-1.907.975-3.297,3.002-3.712,5.934"/>
  <path class="uuid-0bc8f62a-f704-4ed7-8dfe-d95b1cf2c7db" d="M181.681,287.887h.048c-.048.07-.121.07-.169.121-.122,0-.173.048-.295.122.122-.074.243-.122.415-.243Z"/>
  <path class="uuid-0bc8f62a-f704-4ed7-8dfe-d95b1cf2c7db" d="M181.729,287.887c2.322-1.395,8.477-5.108,9.821-5.523,1.858-.511,3.712-.269,5.571.489,2.317.979,4.591,2.786,6.57,4.908"/>
  <path class="uuid-0bc8f62a-f704-4ed7-8dfe-d95b1cf2c7db" d="M203.691,287.835c1.392,1.516,2.613,3.128,3.592,4.765.879,1.39,1.564,2.785,2.1,4.055.342.879.633,1.807.854,2.858.71,2.37,1.123,5.034.758,7.546"/>
  <path class="uuid-0bc8f62a-f704-4ed7-8dfe-d95b1cf2c7db" d="M202.175,310.188c0,1.39-.169,2.612-.463,3.712-.169.515-.415,1.051-.632,1.516-.126.291-.295.584-.541.853-.339.537-.732,1.001-1.221,1.417-.217.099-.391.293-.681.393-2.2,1.343-5.279,1.169-8.723-.81-1.564-.879-3.004-2.096-4.398-3.492"/>
  <polyline class="uuid-0bc8f62a-f704-4ed7-8dfe-d95b1cf2c7db" points="185.515 313.778 190.914 310.651 193.407 309.139"/>
  <path class="uuid-0bc8f62a-f704-4ed7-8dfe-d95b1cf2c7db" d="M193.407,309.139c.88-.515,1.465-1.616,1.465-3.179,0-1.708-.659-3.614-1.686-5.226-.879-1.394-2.052-2.567-3.273-3.274-.686-.391-1.318-.637-1.833-.637-1.291-.169-2.27.419-2.76,1.59"/>
  <polyline class="uuid-0bc8f62a-f704-4ed7-8dfe-d95b1cf2c7db" points="185.321 298.414 178.723 302.295 178.723 302.225"/>
  <path class="uuid-0bc8f62a-f704-4ed7-8dfe-d95b1cf2c7db" d="M178.723,302.225c-.706-2.152-1.049-4.18-1.049-6.155,0-4.106,1.492-6.891,3.886-8.062q.048-.051.121-.121h.048c1.175-.515,2.565-.688,4.081-.467.343.074.684.121,1.049.247.562.169,1.147.389,1.785.684.415.169.879.411,1.27.633.756.467,1.588,1.001,2.273,1.589.243.17.465.343.633.511.415.343.832.71,1.173,1.101.295.243.585.511.806.831.684.685,1.273,1.442,1.857,2.198.708.931,1.344,1.857,1.807,2.784,1.269,2.149,2.27,4.35,2.908,6.62.293,1.101.511,2.152.636,3.249.048.295.122.588.122.879.047.467.047.979.047,1.443"/>
  <polygon class="uuid-888173a9-6ba9-4fb4-b67c-eed90728b37f" points="268.548 203.412 268.548 203.386 268.717 203.632 268.548 203.412"/>
  <rect class="uuid-e363da45-f397-4230-9a2f-b90cdc9ad932" x="268.548" y="203.338" height=".048"/>
  <polygon class="uuid-888173a9-6ba9-4fb4-b67c-eed90728b37f" points="268.548 203.338 268.548 203.364 267.911 202.363 267.911 202.363 267.985 202.363 267.985 202.363 268.326 203.022 268.548 203.338"/>
  <polygon class="uuid-602edefe-85a9-48d4-9a64-592a5bf9668a" points="268.717 203.658 268.717 203.632 268.916 203.875 268.717 203.658"/>
  <rect class="uuid-4b8b4971-683e-4a46-94a7-0510ac25805e" x="268.595" y="203.338" height=".048"/>
  <polygon class="uuid-7e36f533-4337-4d1b-b7d2-145261cc30bb" points="268.595 203.364 268.595 203.386 267.985 202.312 267.985 202.337 268.375 203.022 268.595 203.364"/>
  <line class="uuid-6dfc09ff-2cbd-412c-bc60-6777d2fba35d" x1="274.483" y1="137.018" x2="274.483" y2="117.741"/>
  <line class="uuid-6dfc09ff-2cbd-412c-bc60-6777d2fba35d" x1="274.483" y1="191.076" x2="274.483" y2="166.232"/>
  <line class="uuid-6dfc09ff-2cbd-412c-bc60-6777d2fba35d" x1="274.483" y1="245.258" x2="274.483" y2="220.294"/>
  <path class="uuid-0bc8f62a-f704-4ed7-8dfe-d95b1cf2c7db" d="M177.969,354.159c-.537.222-.758.343-1.269.17"/>
  <line class="uuid-6dfc09ff-2cbd-412c-bc60-6777d2fba35d" x1="293.343" y1="286.666" x2="274.704" y2="275.94"/>
  <path class="uuid-0bc8f62a-f704-4ed7-8dfe-d95b1cf2c7db" d="M274.704,275.94c-.048.099-.169.221-.221.341"/>
  <line class="uuid-6dfc09ff-2cbd-412c-bc60-6777d2fba35d" x1="165.827" y1="372.184" x2="147.188" y2="361.415"/>
  <path class="uuid-0bc8f62a-f704-4ed7-8dfe-d95b1cf2c7db" d="M147.188,361.415c-2.956-2.421-3.124-3.937-3.492-7.623"/>
  <line class="uuid-6dfc09ff-2cbd-412c-bc60-6777d2fba35d" x1="143.696" y1="353.792" x2="143.696" y2="170.265"/>
  <path class="uuid-0bc8f62a-f704-4ed7-8dfe-d95b1cf2c7db" d="M143.696,170.265c.757-8.846,4.543-15.39,11.799-20.446"/>
  <line class="uuid-6dfc09ff-2cbd-412c-bc60-6777d2fba35d" x1="155.495" y1="149.819" x2="276.926" y2="79.709"/>
  <path class="uuid-0bc8f62a-f704-4ed7-8dfe-d95b1cf2c7db" d="M276.926,79.709c3.371-1.538,4.765-2.149,8.357-.806"/>
  <line class="uuid-6dfc09ff-2cbd-412c-bc60-6777d2fba35d" x1="285.282" y1="78.902" x2="303.918" y2="89.65"/>
  <path class="uuid-0bc8f62a-f704-4ed7-8dfe-d95b1cf2c7db" d="M303.918,89.65c-3.614-1.317-5.004-.732-8.353.831"/>
  <line class="uuid-6dfc09ff-2cbd-412c-bc60-6777d2fba35d" x1="295.565" y1="90.481" x2="174.136" y2="160.566"/>
  <path class="uuid-0bc8f62a-f704-4ed7-8dfe-d95b1cf2c7db" d="M174.136,160.566c-7.26,5.056-11.046,11.626-11.8,20.446"/>
  <line class="uuid-6dfc09ff-2cbd-412c-bc60-6777d2fba35d" x1="162.336" y1="181.012" x2="162.336" y2="364.565"/>
  <path class="uuid-0bc8f62a-f704-4ed7-8dfe-d95b1cf2c7db" d="M162.336,364.565c.341,3.69.537,5.202,3.492,7.619"/>
  <path class="uuid-0bc8f62a-f704-4ed7-8dfe-d95b1cf2c7db" d="M143.696,170.265c.289-3.712.757-5.302,2.026-8.798"/>
  <line class="uuid-6dfc09ff-2cbd-412c-bc60-6777d2fba35d" x1="145.723" y1="161.467" x2="164.385" y2="172.244"/>
  <path class="uuid-0bc8f62a-f704-4ed7-8dfe-d95b1cf2c7db" d="M164.385,172.244c-1.295,3.466-1.708,5.056-2.05,8.768"/>
  <line class="uuid-6dfc09ff-2cbd-412c-bc60-6777d2fba35d" x1="206.134" y1="185.092" x2="176.159" y2="202.411"/>
  <line class="uuid-6dfc09ff-2cbd-412c-bc60-6777d2fba35d" x1="225.36" y1="173.999" x2="220.23" y2="176.983"/>
  <line class="uuid-6dfc09ff-2cbd-412c-bc60-6777d2fba35d" x1="265.005" y1="151.136" x2="259.56" y2="154.263"/>
  <line class="uuid-6dfc09ff-2cbd-412c-bc60-6777d2fba35d" x1="259.971" y1="147.18" x2="257.336" y2="148.644"/>
  <line class="uuid-6dfc09ff-2cbd-412c-bc60-6777d2fba35d" x1="240.335" y1="158.513" x2="237.67" y2="160.077"/>
  <line class="uuid-6dfc09ff-2cbd-412c-bc60-6777d2fba35d" x1="201.08" y1="235.269" x2="198.342" y2="236.853"/>
  <path class="uuid-0bc8f62a-f704-4ed7-8dfe-d95b1cf2c7db" d="M198.415,236.781c-.073,0-.073.073-.073.073"/>
  <line class="uuid-6dfc09ff-2cbd-412c-bc60-6777d2fba35d" x1="191.67" y1="240.692" x2="176.159" y2="249.632"/>
  <line class="uuid-6dfc09ff-2cbd-412c-bc60-6777d2fba35d" x1="206.182" y1="239.176" x2="176.159" y2="256.469"/>
  <line class="uuid-6dfc09ff-2cbd-412c-bc60-6777d2fba35d" x1="217.736" y1="225.643" x2="220.304" y2="224.175"/>
  <line class="uuid-6dfc09ff-2cbd-412c-bc60-6777d2fba35d" x1="225.407" y1="228.013" x2="220.23" y2="231.041"/>
  <line class="uuid-6dfc09ff-2cbd-412c-bc60-6777d2fba35d" x1="265.13" y1="205.149" x2="259.56" y2="208.345"/>
  <line class="uuid-6dfc09ff-2cbd-412c-bc60-6777d2fba35d" x1="257.406" y1="202.754" x2="259.971" y2="201.238"/>
  <line class="uuid-6dfc09ff-2cbd-412c-bc60-6777d2fba35d" x1="245.486" y1="216.459" x2="239.529" y2="219.903"/>
  <line class="uuid-6dfc09ff-2cbd-412c-bc60-6777d2fba35d" x1="240.382" y1="212.573" x2="237.719" y2="214.137"/>
  <line class="uuid-6dfc09ff-2cbd-412c-bc60-6777d2fba35d" x1="212.411" y1="289.642" x2="207.283" y2="292.6"/>
  <line class="uuid-6dfc09ff-2cbd-412c-bc60-6777d2fba35d" x1="203.691" y1="287.835" x2="207.231" y2="285.808"/>
  <line class="uuid-6dfc09ff-2cbd-412c-bc60-6777d2fba35d" x1="245.438" y1="270.59" x2="226.508" y2="281.437"/>
  <line class="uuid-6dfc09ff-2cbd-412c-bc60-6777d2fba35d" x1="259.56" y1="262.407" x2="265.005" y2="259.206"/>
  <line class="uuid-6dfc09ff-2cbd-412c-bc60-6777d2fba35d" x1="256.016" y1="257.69" x2="259.85" y2="255.372"/>
  <line class="uuid-6dfc09ff-2cbd-412c-bc60-6777d2fba35d" x1="193.187" y1="300.735" x2="176.159" y2="310.555"/>
  <path class="uuid-0bc8f62a-f704-4ed7-8dfe-d95b1cf2c7db" d="M287.725,254.784c-1.859,1.099-3.738,2.152-5.523,3.201"/>
  <path class="uuid-0bc8f62a-f704-4ed7-8dfe-d95b1cf2c7db" d="M287.725,146.665c-1.931,1.101-3.786,2.201-5.571,3.249"/>
  <line class="uuid-6dfc09ff-2cbd-412c-bc60-6777d2fba35d" x1="243.925" y1="171.924" x2="242.483" y2="172.73"/>
  <line class="uuid-6dfc09ff-2cbd-412c-bc60-6777d2fba35d" x1="225.627" y1="182.428" x2="223.185" y2="183.892"/>
  <path class="uuid-0bc8f62a-f704-4ed7-8dfe-d95b1cf2c7db" d="M176.159,211.058c8.477-4.861,15.733-9.111,22.303-12.875"/>
  <line class="uuid-6dfc09ff-2cbd-412c-bc60-6777d2fba35d" x1="198.463" y1="198.183" x2="202.642" y2="195.741"/>
  <path class="uuid-0bc8f62a-f704-4ed7-8dfe-d95b1cf2c7db" d="M176.159,265.141c8.477-4.886,15.854-9.135,22.355-12.896"/>
  <line class="uuid-6dfc09ff-2cbd-412c-bc60-6777d2fba35d" x1="198.515" y1="252.245" x2="202.642" y2="249.849"/>
  <line class="uuid-6dfc09ff-2cbd-412c-bc60-6777d2fba35d" x1="225.701" y1="236.49" x2="223.333" y2="237.88"/>
  <line class="uuid-6dfc09ff-2cbd-412c-bc60-6777d2fba35d" x1="245.732" y1="224.933" x2="242.531" y2="226.791"/>
  <path class="uuid-0bc8f62a-f704-4ed7-8dfe-d95b1cf2c7db" d="M287.725,200.726c-1.931,1.099-3.786,2.148-5.523,3.201"/>
  <line class="uuid-6dfc09ff-2cbd-412c-bc60-6777d2fba35d" x1="190.914" y1="310.651" x2="185.515" y2="313.778"/>
  <line class="uuid-6dfc09ff-2cbd-412c-bc60-6777d2fba35d" x1="212.68" y1="298.119" x2="210.237" y2="299.513"/>
  <path class="uuid-0bc8f62a-f704-4ed7-8dfe-d95b1cf2c7db" d="M245.905,278.894c.122-.074.217-.122.291-.243"/>
  <path class="uuid-0bc8f62a-f704-4ed7-8dfe-d95b1cf2c7db" d="M265.542,267.562c-1.001.633-1.977,1.173-2.956,1.759"/>
  <line class="uuid-6dfc09ff-2cbd-412c-bc60-6777d2fba35d" x1="174.183" y1="371.331" x2="295.613" y2="301.246"/>
  <path class="uuid-0bc8f62a-f704-4ed7-8dfe-d95b1cf2c7db" d="M295.613,301.246c6.498-3.712,11.8-12.896,11.8-20.446"/>
  <line class="uuid-6dfc09ff-2cbd-412c-bc60-6777d2fba35d" x1="307.413" y1="280.8" x2="307.413" y2="97.295"/>
  <path class="uuid-0bc8f62a-f704-4ed7-8dfe-d95b1cf2c7db" d="M307.413,97.295c0-3.955-1.464-6.667-3.838-7.793"/>
  <line class="uuid-6dfc09ff-2cbd-412c-bc60-6777d2fba35d" x1="176.159" y1="353.228" x2="176.159" y2="333.713"/>
  <path class="uuid-0bc8f62a-f704-4ed7-8dfe-d95b1cf2c7db" d="M176.159,333.713v-.125"/>
  <path class="uuid-0bc8f62a-f704-4ed7-8dfe-d95b1cf2c7db" d="M176.159,176.442c0-1.095.809-2.443,1.809-3.002"/>
  <line class="uuid-6dfc09ff-2cbd-412c-bc60-6777d2fba35d" x1="273.191" y1="277.673" x2="176.159" y2="333.713"/>
  <path class="uuid-0bc8f62a-f704-4ed7-8dfe-d95b1cf2c7db" d="M176.159,333.713v-7.328"/>
  <line class="uuid-6dfc09ff-2cbd-412c-bc60-6777d2fba35d" x1="176.159" y1="326.384" x2="176.159" y2="319.177"/>
  <path class="uuid-0bc8f62a-f704-4ed7-8dfe-d95b1cf2c7db" d="M176.159,319.177c3.251-1.829,6.328-3.64,9.356-5.398"/>
  <line class="uuid-6dfc09ff-2cbd-412c-bc60-6777d2fba35d" x1="199.317" y1="317.686" x2="207.574" y2="312.972"/>
  <path class="uuid-0bc8f62a-f704-4ed7-8dfe-d95b1cf2c7db" d="M210.995,307.06c2.685,1.101,5.056,1.053,6.865,0"/>
  <line class="uuid-6dfc09ff-2cbd-412c-bc60-6777d2fba35d" x1="218.618" y1="306.596" x2="226.85" y2="301.883"/>
  <path class="uuid-0bc8f62a-f704-4ed7-8dfe-d95b1cf2c7db" d="M229.536,288.42c5.154-3.028,10.625-6.153,16.369-9.526"/>
  <line class="uuid-6dfc09ff-2cbd-412c-bc60-6777d2fba35d" x1="245.732" y1="279.067" x2="237.843" y2="283.707"/>
  <line class="uuid-6dfc09ff-2cbd-412c-bc60-6777d2fba35d" x1="251.645" y1="287.592" x2="259.901" y2="282.901"/>
  <path class="uuid-0bc8f62a-f704-4ed7-8dfe-d95b1cf2c7db" d="M263.32,276.624c2.784,1.221,5.275,1.221,7.208.122"/>
  <line class="uuid-6dfc09ff-2cbd-412c-bc60-6777d2fba35d" x1="270.528" y1="276.746" x2="274.483" y2="274.476"/>
  <line class="uuid-6dfc09ff-2cbd-412c-bc60-6777d2fba35d" x1="279.417" y1="163.376" x2="270.476" y2="168.528"/>
  <line class="uuid-6dfc09ff-2cbd-412c-bc60-6777d2fba35d" x1="259.78" y1="174.687" x2="250.836" y2="179.863"/>
  <line class="uuid-6dfc09ff-2cbd-412c-bc60-6777d2fba35d" x1="235.912" y1="161.055" x2="237.67" y2="160.077"/>
  <line class="uuid-6dfc09ff-2cbd-412c-bc60-6777d2fba35d" x1="250.961" y1="179.817" x2="250.887" y2="179.817"/>
  <path class="uuid-0bc8f62a-f704-4ed7-8dfe-d95b1cf2c7db" d="M250.887,179.817c-1.953,1.169-4.643,1.169-7.597-.221"/>
  <line class="uuid-6dfc09ff-2cbd-412c-bc60-6777d2fba35d" x1="239.746" y1="186.267" x2="230.805" y2="191.443"/>
  <path class="uuid-0bc8f62a-f704-4ed7-8dfe-d95b1cf2c7db" d="M223.969,191.417c2.66,1.123,5.03,1.053,6.837,0"/>
  <line class="uuid-6dfc09ff-2cbd-412c-bc60-6777d2fba35d" x1="230.805" y1="191.417" x2="230.853" y2="191.369"/>
  <line class="uuid-6dfc09ff-2cbd-412c-bc60-6777d2fba35d" x1="220.473" y1="197.331" x2="211.532" y2="202.507"/>
  <line class="uuid-6dfc09ff-2cbd-412c-bc60-6777d2fba35d" x1="198.463" y1="198.161" x2="206.352" y2="193.518"/>
  <line class="uuid-6dfc09ff-2cbd-412c-bc60-6777d2fba35d" x1="198.294" y1="182.793" x2="191.598" y2="186.63"/>
  <line class="uuid-6dfc09ff-2cbd-412c-bc60-6777d2fba35d" x1="279.465" y1="217.408" x2="270.528" y2="222.588"/>
  <line class="uuid-6dfc09ff-2cbd-412c-bc60-6777d2fba35d" x1="259.971" y1="201.238" x2="260.023" y2="201.238"/>
  <line class="uuid-6dfc09ff-2cbd-412c-bc60-6777d2fba35d" x1="259.85" y1="228.745" x2="250.887" y2="233.899"/>
  <line class="uuid-6dfc09ff-2cbd-412c-bc60-6777d2fba35d" x1="239.82" y1="240.298" x2="230.853" y2="245.479"/>
  <path class="uuid-0bc8f62a-f704-4ed7-8dfe-d95b1cf2c7db" d="M210.138,221.294c.393-2.859,1.615-4.835,3.472-5.814"/>
  <line class="uuid-6dfc09ff-2cbd-412c-bc60-6777d2fba35d" x1="220.521" y1="251.365" x2="211.581" y2="256.545"/>
  <line class="uuid-6dfc09ff-2cbd-412c-bc60-6777d2fba35d" x1="198.515" y1="252.219" x2="206.352" y2="247.579"/>
  <line class="uuid-6dfc09ff-2cbd-412c-bc60-6777d2fba35d" x1="198.342" y1="236.853" x2="191.67" y2="240.692"/>
  <path class="uuid-0bc8f62a-f704-4ed7-8dfe-d95b1cf2c7db" d="M253.399,246.648s0-.048.052-.048"/>
  <line class="uuid-6dfc09ff-2cbd-412c-bc60-6777d2fba35d" x1="279.465" y1="271.568" x2="274.483" y2="274.476"/>
  <path class="uuid-0bc8f62a-f704-4ed7-8dfe-d95b1cf2c7db" d="M249.739,252.881c.341-3.032,1.637-5.106,3.54-6.159"/>
  <line class="uuid-6dfc09ff-2cbd-412c-bc60-6777d2fba35d" x1="256.016" y1="257.69" x2="257.336" y2="256.936"/>
  <line class="uuid-6dfc09ff-2cbd-412c-bc60-6777d2fba35d" x1="265.005" y1="259.206" x2="265.056" y2="259.206"/>
  <path class="uuid-0bc8f62a-f704-4ed7-8dfe-d95b1cf2c7db" d="M263.32,276.624c-.17,2.565-1.149,4.886-3.419,6.277"/>
  <line class="uuid-6dfc09ff-2cbd-412c-bc60-6777d2fba35d" x1="262.587" y1="269.32" x2="262.587" y2="269.368"/>
  <path class="uuid-0bc8f62a-f704-4ed7-8dfe-d95b1cf2c7db" d="M262.587,269.368c.638,2.274,1.027,4.886.733,7.256"/>
  <line class="uuid-6dfc09ff-2cbd-412c-bc60-6777d2fba35d" x1="240.287" y1="266.705" x2="240.088" y2="266.705"/>
  <line class="uuid-6dfc09ff-2cbd-412c-bc60-6777d2fba35d" x1="237.719" y1="268.268" x2="230.978" y2="272.154"/>
  <line class="uuid-6dfc09ff-2cbd-412c-bc60-6777d2fba35d" x1="203.691" y1="287.835" x2="204.666" y2="287.25"/>
  <path class="uuid-0bc8f62a-f704-4ed7-8dfe-d95b1cf2c7db" d="M210.995,307.06c-.295,2.443-1.27,4.57-3.422,5.912"/>
  <path class="uuid-0bc8f62a-f704-4ed7-8dfe-d95b1cf2c7db" d="M250.887,233.873c-1.953,1.173-4.569,1.173-7.549-.217"/>
  <path class="uuid-0bc8f62a-f704-4ed7-8dfe-d95b1cf2c7db" d="M270.406,256.593c-.445-1.063-2.862-4.083-4.39-5.77"/>
  <line class="uuid-c806526f-ff8b-4959-9b70-423cb62dba4b" x1="305.728" y1="241.424" x2="295.565" y2="259.012"/>
  <line class="uuid-c806526f-ff8b-4959-9b70-423cb62dba4b" x1="270.185" y1="302.932" x2="260.659" y2="319.423"/>
  <line class="uuid-c806526f-ff8b-4959-9b70-423cb62dba4b" x1="305.728" y1="196.256" x2="295.493" y2="213.965"/>
  <line class="uuid-c806526f-ff8b-4959-9b70-423cb62dba4b" x1="231.1" y1="325.504" x2="221.574" y2="341.991"/>
  <line class="uuid-c806526f-ff8b-4959-9b70-423cb62dba4b" x1="305.728" y1="151.11" x2="295.444" y2="168.895"/>
  <line class="uuid-c806526f-ff8b-4959-9b70-423cb62dba4b" x1="192.013" y1="348.074" x2="182.487" y2="364.539"/>
  <line class="uuid-c806526f-ff8b-4959-9b70-423cb62dba4b" x1="305.728" y1="105.92" x2="295.444" y2="123.802"/>
  <line class="uuid-c806526f-ff8b-4959-9b70-423cb62dba4b" x1="174.473" y1="333.272" x2="164.143" y2="351.154"/>
  <line class="uuid-c806526f-ff8b-4959-9b70-423cb62dba4b" x1="283.303" y1="99.643" x2="273.777" y2="116.156"/>
  <line class="uuid-c806526f-ff8b-4959-9b70-423cb62dba4b" x1="174.473" y1="288.104" x2="164.143" y2="305.985"/>
  <line class="uuid-c806526f-ff8b-4959-9b70-423cb62dba4b" x1="244.216" y1="122.212" x2="234.69" y2="138.703"/>
  <line class="uuid-c806526f-ff8b-4959-9b70-423cb62dba4b" x1="174.473" y1="242.962" x2="164.143" y2="260.843"/>
  <line class="uuid-c806526f-ff8b-4959-9b70-423cb62dba4b" x1="205.083" y1="144.759" x2="195.557" y2="161.276"/>
  <line class="uuid-c806526f-ff8b-4959-9b70-423cb62dba4b" x1="174.473" y1="197.794" x2="164.143" y2="215.675"/>
  <line class="uuid-c806526f-ff8b-4959-9b70-423cb62dba4b" x1="255.722" y1="151.967" x2="250.034" y2="155.264"/>
  <line class="uuid-c806526f-ff8b-4959-9b70-423cb62dba4b" x1="216.345" y1="174.61" x2="210.7" y2="177.862"/>
  <line class="uuid-c806526f-ff8b-4959-9b70-423cb62dba4b" x1="255.652" y1="205.951" x2="250.034" y2="209.203"/>
  <line class="uuid-c806526f-ff8b-4959-9b70-423cb62dba4b" x1="216.297" y1="228.549" x2="210.652" y2="231.798"/>
  <line class="uuid-c806526f-ff8b-4959-9b70-423cb62dba4b" x1="242.774" y1="261.553" x2="240.847" y2="264.824"/>
  <line class="uuid-c806526f-ff8b-4959-9b70-423cb62dba4b" x1="255.6" y1="259.938" x2="249.908" y2="263.239"/>
  <line class="uuid-c806526f-ff8b-4959-9b70-423cb62dba4b" x1="236.718" y1="273.301" x2="234.885" y2="272.228"/>
  <line class="uuid-c806526f-ff8b-4959-9b70-423cb62dba4b" x1="270.016" y1="151.989" x2="268.595" y2="154.458"/>
  <line class="uuid-c806526f-ff8b-4959-9b70-423cb62dba4b" x1="262.635" y1="142.242" x2="260.781" y2="145.37"/>
  <line class="uuid-c806526f-ff8b-4959-9b70-423cb62dba4b" x1="250.371" y1="163.278" x2="248.981" y2="165.72"/>
  <line class="uuid-c806526f-ff8b-4959-9b70-423cb62dba4b" x1="242.947" y1="153.531" x2="241.089" y2="156.68"/>
  <line class="uuid-c806526f-ff8b-4959-9b70-423cb62dba4b" x1="230.342" y1="174.904" x2="228.95" y2="177.322"/>
  <line class="uuid-c806526f-ff8b-4959-9b70-423cb62dba4b" x1="222.916" y1="165.132" x2="221.157" y2="168.237"/>
  <line class="uuid-c806526f-ff8b-4959-9b70-423cb62dba4b" x1="275.34" y1="194.644" x2="269.648" y2="197.941"/>
  <line class="uuid-c806526f-ff8b-4959-9b70-423cb62dba4b" x1="210.995" y1="185.847" x2="209.605" y2="188.268"/>
  <line class="uuid-c806526f-ff8b-4959-9b70-423cb62dba4b" x1="204.62" y1="196.914" x2="203.103" y2="199.479"/>
  <line class="uuid-c806526f-ff8b-4959-9b70-423cb62dba4b" x1="203.567" y1="176.125" x2="201.76" y2="179.301"/>
  <line class="uuid-c806526f-ff8b-4959-9b70-423cb62dba4b" x1="275.167" y1="248.676" x2="269.549" y2="251.928"/>
  <line class="uuid-c806526f-ff8b-4959-9b70-423cb62dba4b" x1="210.947" y1="239.713" x2="209.605" y2="242.082"/>
  <line class="uuid-c806526f-ff8b-4959-9b70-423cb62dba4b" x1="204.399" y1="251.096" x2="203.055" y2="253.419"/>
  <line class="uuid-c806526f-ff8b-4959-9b70-423cb62dba4b" x1="203.519" y1="230.062" x2="201.591" y2="233.314"/>
  <line class="uuid-c806526f-ff8b-4959-9b70-423cb62dba4b" x1="270.061" y1="260.185" x2="268.669" y2="262.65"/>
  <line class="uuid-c806526f-ff8b-4959-9b70-423cb62dba4b" x1="262.687" y1="250.438" x2="260.876" y2="253.561"/>
  <line class="uuid-c806526f-ff8b-4959-9b70-423cb62dba4b" x1="250.251" y1="271.201" x2="248.933" y2="273.57"/>
  <line class="uuid-c806526f-ff8b-4959-9b70-423cb62dba4b" x1="243.753" y1="282.585" x2="242.361" y2="284.929"/>
  <line class="uuid-c806526f-ff8b-4959-9b70-423cb62dba4b" x1="209.894" y1="280.653" x2="208.041" y2="283.88"/>
  <line class="uuid-c806526f-ff8b-4959-9b70-423cb62dba4b" x1="203.228" y1="290.083" x2="197.657" y2="293.306"/>
  <line class="uuid-c806526f-ff8b-4959-9b70-423cb62dba4b" x1="198.096" y1="301.563" x2="196.704" y2="303.983"/>
  <line class="uuid-c806526f-ff8b-4959-9b70-423cb62dba4b" x1="191.77" y1="312.483" x2="190.206" y2="315.173"/>
  <line class="uuid-c806526f-ff8b-4959-9b70-423cb62dba4b" x1="190.67" y1="291.816" x2="188.889" y2="294.922"/>
  <line class="uuid-c806526f-ff8b-4959-9b70-423cb62dba4b" x1="160.062" y1="167.601" x2="152.467" y2="154.41"/>
  <line class="uuid-c806526f-ff8b-4959-9b70-423cb62dba4b" x1="169.834" y1="161.934" x2="161.773" y2="147.986"/>
  <line class="uuid-c806526f-ff8b-4959-9b70-423cb62dba4b" x1="179.361" y1="155.827" x2="171.567" y2="142.368"/>
  <line class="uuid-c806526f-ff8b-4959-9b70-423cb62dba4b" x1="189.107" y1="150.182" x2="181.34" y2="136.723"/>
  <line class="uuid-c806526f-ff8b-4959-9b70-423cb62dba4b" x1="198.854" y1="144.538" x2="191.086" y2="131.083"/>
  <line class="uuid-c806526f-ff8b-4959-9b70-423cb62dba4b" x1="208.673" y1="138.899" x2="200.906" y2="125.414"/>
  <line class="uuid-c806526f-ff8b-4959-9b70-423cb62dba4b" x1="218.446" y1="133.254" x2="210.652" y2="119.773"/>
  <line class="uuid-c806526f-ff8b-4959-9b70-423cb62dba4b" x1="228.192" y1="127.61" x2="220.399" y2="114.129"/>
  <line class="uuid-c806526f-ff8b-4959-9b70-423cb62dba4b" x1="238.013" y1="121.969" x2="230.22" y2="108.484"/>
  <line class="uuid-c806526f-ff8b-4959-9b70-423cb62dba4b" x1="247.76" y1="116.325" x2="239.989" y2="102.844"/>
  <line class="uuid-c806526f-ff8b-4959-9b70-423cb62dba4b" x1="257.579" y1="110.681" x2="249.787" y2="97.199"/>
  <line class="uuid-c806526f-ff8b-4959-9b70-423cb62dba4b" x1="267.326" y1="105.04" x2="259.56" y2="91.555"/>
  <line class="uuid-c806526f-ff8b-4959-9b70-423cb62dba4b" x1="277.098" y1="99.375" x2="269.306" y2="85.916"/>
  <line class="uuid-c806526f-ff8b-4959-9b70-423cb62dba4b" x1="286.893" y1="93.755" x2="279.174" y2="80.419"/>
  <line class="uuid-c806526f-ff8b-4959-9b70-423cb62dba4b" x1="296.493" y1="87.843" x2="296.419" y2="87.648"/>
  <line class="uuid-c806526f-ff8b-4959-9b70-423cb62dba4b" x1="160.184" y1="367.104" x2="145.333" y2="341.381"/>
  <line class="uuid-c806526f-ff8b-4959-9b70-423cb62dba4b" x1="160.894" y1="345.708" x2="145.333" y2="318.76"/>
  <line class="uuid-c806526f-ff8b-4959-9b70-423cb62dba4b" x1="160.894" y1="323.161" x2="145.333" y2="296.192"/>
  <line class="uuid-c806526f-ff8b-4959-9b70-423cb62dba4b" x1="160.894" y1="300.562" x2="145.333" y2="273.618"/>
  <line class="uuid-c806526f-ff8b-4959-9b70-423cb62dba4b" x1="160.894" y1="277.968" x2="145.333" y2="251.048"/>
  <line class="uuid-c806526f-ff8b-4959-9b70-423cb62dba4b" x1="160.894" y1="255.372" x2="145.333" y2="228.45"/>
  <line class="uuid-c806526f-ff8b-4959-9b70-423cb62dba4b" x1="160.894" y1="232.8" x2="145.333" y2="205.881"/>
  <line class="uuid-c806526f-ff8b-4959-9b70-423cb62dba4b" x1="160.894" y1="210.226" x2="145.333" y2="183.282"/>
  <line class="uuid-c806526f-ff8b-4959-9b70-423cb62dba4b" x1="160.772" y1="187.51" x2="147.361" y2="164.23"/>
  <line class="uuid-c806526f-ff8b-4959-9b70-423cb62dba4b" x1="187.764" y1="346.708" x2="180.044" y2="333.272"/>
  <line class="uuid-c806526f-ff8b-4959-9b70-423cb62dba4b" x1="197.584" y1="341.065" x2="189.817" y2="327.628"/>
  <line class="uuid-c806526f-ff8b-4959-9b70-423cb62dba4b" x1="207.357" y1="335.421" x2="199.564" y2="321.987"/>
  <line class="uuid-c806526f-ff8b-4959-9b70-423cb62dba4b" x1="217.104" y1="329.728" x2="209.383" y2="316.317"/>
  <line class="uuid-c806526f-ff8b-4959-9b70-423cb62dba4b" x1="226.85" y1="324.04" x2="219.13" y2="310.677"/>
  <line class="uuid-c806526f-ff8b-4959-9b70-423cb62dba4b" x1="236.622" y1="318.348" x2="228.95" y2="305.032"/>
  <line class="uuid-c806526f-ff8b-4959-9b70-423cb62dba4b" x1="246.368" y1="312.653" x2="238.697" y2="299.389"/>
  <line class="uuid-c806526f-ff8b-4959-9b70-423cb62dba4b" x1="256.064" y1="306.964" x2="248.47" y2="293.747"/>
  <line class="uuid-c806526f-ff8b-4959-9b70-423cb62dba4b" x1="265.811" y1="301.272" x2="258.216" y2="288.104"/>
  <line class="uuid-c806526f-ff8b-4959-9b70-423cb62dba4b" x1="275.582" y1="295.58" x2="268.033" y2="282.464"/>
  <line class="uuid-c806526f-ff8b-4959-9b70-423cb62dba4b" x1="285.208" y1="289.716" x2="280.469" y2="281.389"/>
  <line class="uuid-c806526f-ff8b-4959-9b70-423cb62dba4b" x1="188.47" y1="301.151" x2="186.542" y2="300.025"/>
  <line class="uuid-c806526f-ff8b-4959-9b70-423cb62dba4b" x1="184.246" y1="254.077" x2="180.63" y2="260.332"/>
  <line class="uuid-c806526f-ff8b-4959-9b70-423cb62dba4b" x1="187.374" y1="247.723" x2="185.467" y2="246.6"/>
  <line class="uuid-c806526f-ff8b-4959-9b70-423cb62dba4b" x1="198.684" y1="241.203" x2="196.778" y2="240.08"/>
  <line class="uuid-c806526f-ff8b-4959-9b70-423cb62dba4b" x1="184.416" y1="199.894" x2="180.802" y2="206.149"/>
  <line class="uuid-c806526f-ff8b-4959-9b70-423cb62dba4b" x1="187.595" y1="193.496" x2="185.688" y2="192.396"/>
  <line class="uuid-c806526f-ff8b-4959-9b70-423cb62dba4b" x1="198.926" y1="186.973" x2="197.021" y2="185.872"/>
  <line class="uuid-c806526f-ff8b-4959-9b70-423cb62dba4b" x1="283.129" y1="278.504" x2="280.175" y2="273.323"/>
  <line class="uuid-c806526f-ff8b-4959-9b70-423cb62dba4b" x1="291.853" y1="271.005" x2="284.571" y2="258.426"/>
  <line class="uuid-c806526f-ff8b-4959-9b70-423cb62dba4b" x1="292.121" y1="248.922" x2="276.047" y2="221"/>
  <line class="uuid-c806526f-ff8b-4959-9b70-423cb62dba4b" x1="291.853" y1="225.837" x2="284.476" y2="213.012"/>
  <line class="uuid-c806526f-ff8b-4959-9b70-423cb62dba4b" x1="291.68" y1="202.948" x2="289.753" y2="199.6"/>
  <line class="uuid-c806526f-ff8b-4959-9b70-423cb62dba4b" x1="282.423" y1="186.973" x2="276.34" y2="176.42"/>
  <line class="uuid-c806526f-ff8b-4959-9b70-423cb62dba4b" x1="291.949" y1="180.84" x2="281.859" y2="163.3"/>
  <line class="uuid-c806526f-ff8b-4959-9b70-423cb62dba4b" x1="291.78" y1="157.949" x2="286.724" y2="149.233"/>
  <line class="uuid-c806526f-ff8b-4959-9b70-423cb62dba4b" x1="278.199" y1="134.427" x2="276.51" y2="131.495"/>
  <line class="uuid-c806526f-ff8b-4959-9b70-423cb62dba4b" x1="292.023" y1="135.744" x2="280.469" y2="115.788"/>
  <line class="uuid-c806526f-ff8b-4959-9b70-423cb62dba4b" x1="291.68" y1="112.591" x2="290.557" y2="110.732"/>
  <line class="uuid-c806526f-ff8b-4959-9b70-423cb62dba4b" x1="250.325" y1="217.139" x2="248.981" y2="219.513"/>
  <line class="uuid-c806526f-ff8b-4959-9b70-423cb62dba4b" x1="242.899" y1="207.515" x2="241.042" y2="210.69"/>
  <line class="uuid-c806526f-ff8b-4959-9b70-423cb62dba4b" x1="222.916" y1="219.119" x2="221.059" y2="222.269"/>
  <polygon class="uuid-88c26e7d-6a42-4a13-a9bd-276f7490991e" points="268.717 203.658 268.717 203.632 268.916 203.875 268.717 203.658"/>
  <rect class="uuid-afc29d7f-6cbc-42b8-b09f-3d60549fa8e7" x="268.595" y="203.338" height=".048"/>
  <polygon class="uuid-88c26e7d-6a42-4a13-a9bd-276f7490991e" points="268.595 203.364 268.595 203.386 267.985 202.312 267.985 202.337 268.375 203.022 268.595 203.364"/>
  <line class="uuid-c806526f-ff8b-4959-9b70-423cb62dba4b" x1="275.414" y1="140.682" x2="269.718" y2="143.979"/>
  <line class="uuid-c806526f-ff8b-4959-9b70-423cb62dba4b" x1="270.575" y1="206.075" x2="268.794" y2="209.252"/>
  <line class="uuid-c806526f-ff8b-4959-9b70-423cb62dba4b" x1="263.272" y1="196.156" x2="261.293" y2="199.553"/>
</svg>