<?xml version="1.0" encoding="UTF-8"?>
<svg id="uuid-8acb229a-32d1-4503-8731-359cddc59737" data-name="&amp;lt;Layer&amp;gt;" xmlns="http://www.w3.org/2000/svg" viewBox="0 0 451.11 451.11">
  <defs>
    <style>
      .uuid-d5d66119-9128-4b7e-a765-903018f9b520, .uuid-b892af4d-fe73-4c07-94f6-e796898ccfd6, .uuid-50c73f9f-45c3-4ff1-a3ee-5c1614a4315f {
        fill: none;
        stroke: #000;
        stroke-linecap: round;
      }

      .uuid-d5d66119-9128-4b7e-a765-903018f9b520, .uuid-50c73f9f-45c3-4ff1-a3ee-5c1614a4315f {
        stroke-linejoin: round;
        stroke-width: 4.117px;
      }

      .uuid-b892af4d-fe73-4c07-94f6-e796898ccfd6 {
        stroke-miterlimit: 10;
        stroke-width: 1.163px;
      }

      .uuid-50c73f9f-45c3-4ff1-a3ee-5c1614a4315f {
        fill-rule: evenodd;
      }
    </style>
  </defs>
  <polyline class="uuid-50c73f9f-45c3-4ff1-a3ee-5c1614a4315f" points="165.734 357.602 166.145 357.965 166.54 358.308 181.93 367.201 181.537 366.859"/>
  <polyline class="uuid-50c73f9f-45c3-4ff1-a3ee-5c1614a4315f" points="178.629 164.471 178.677 356.232 287.87 293.183"/>
  <polyline class="uuid-50c73f9f-45c3-4ff1-a3ee-5c1614a4315f" points="181.489 152.94 181.537 152.745 166.145 143.856"/>
  <path class="uuid-50c73f9f-45c3-4ff1-a3ee-5c1614a4315f" d="M193.041,226.663c0-26.697,18.688-59.138,41.798-72.476,23.11-13.363,41.871-2.541,41.871,24.134s-18.762,59.168-41.871,72.505c-23.11,13.36-41.798,2.539-41.798-24.162Z"/>
  <path class="uuid-50c73f9f-45c3-4ff1-a3ee-5c1614a4315f" d="M270.676,181.838c0,11.409-4.006,24.062-10.503,35.277-6.451,11.211-15.464,21.031-25.333,26.723-9.867,5.714-18.809,6.255-25.307,2.491-6.45-3.738-10.457-11.752-10.457-23.158s4.007-24.086,10.457-35.274c6.498-11.211,15.44-21.031,25.307-26.723,9.941-5.718,18.882-6.255,25.333-2.517,6.498,3.738,10.503,11.774,10.503,23.181Z"/>
  <path class="uuid-50c73f9f-45c3-4ff1-a3ee-5c1614a4315f" d="M221.675,231.649c6.788-4.298,14.337-8.624,21.884-12.922,2.27-1.295,4.522-4.35,4.522-6.961v-13.096c0-1.759-2.252-3.079-4.522-1.781-6.789,3.882-12.775,7.426-18.124,10.77-2.2,1.395-3.76.417-3.76-2.196v-13.095c0-1.759,1.56-5.154,3.76-6.522,6.107-3.808,12.822-7.767,20.394-12.065"/>
  <polyline class="uuid-50c73f9f-45c3-4ff1-a3ee-5c1614a4315f" points="256.798 279.749 248.25 291.303 256.798 293.013"/>
  <polyline class="uuid-50c73f9f-45c3-4ff1-a3ee-5c1614a4315f" points="259.362 267.339 267.892 255.783 259.362 254.075"/>
  <line class="uuid-d5d66119-9128-4b7e-a765-903018f9b520" x1="282.741" y1="91.796" x2="267.354" y2="82.907"/>
  <path class="uuid-50c73f9f-45c3-4ff1-a3ee-5c1614a4315f" d="M267.354,82.907c-2.711-.858-4.986-.148-7.428,1.195"/>
  <line class="uuid-d5d66119-9128-4b7e-a765-903018f9b520" x1="259.926" y1="84.103" x2="175.675" y2="132.836"/>
  <path class="uuid-50c73f9f-45c3-4ff1-a3ee-5c1614a4315f" d="M175.675,132.836c-4.422,2.663-7.378,6.644-9.578,11.215"/>
  <line class="uuid-d5d66119-9128-4b7e-a765-903018f9b520" x1="163.239" y1="155.582" x2="163.316" y2="349.709"/>
  <path class="uuid-50c73f9f-45c3-4ff1-a3ee-5c1614a4315f" d="M163.316,349.709c.044,2.98.511,5.571,2.418,7.893"/>
  <path class="uuid-50c73f9f-45c3-4ff1-a3ee-5c1614a4315f" d="M181.537,366.859c-2.27-2.296-2.786-5.13-2.86-8.257"/>
  <line class="uuid-d5d66119-9128-4b7e-a765-903018f9b520" x1="178.677" y1="358.603" x2="178.677" y2="356.232"/>
  <path class="uuid-50c73f9f-45c3-4ff1-a3ee-5c1614a4315f" d="M181.489,152.94c2.196-4.565,5.154-8.547,9.576-11.233"/>
  <line class="uuid-d5d66119-9128-4b7e-a765-903018f9b520" x1="191.066" y1="141.707" x2="275.364" y2="92.969"/>
  <path class="uuid-50c73f9f-45c3-4ff1-a3ee-5c1614a4315f" d="M275.364,92.969c2.443-1.316,4.669-2.026,7.377-1.173"/>
  <line class="uuid-d5d66119-9128-4b7e-a765-903018f9b520" x1="191.114" y1="367.006" x2="275.438" y2="318.269"/>
  <path class="uuid-50c73f9f-45c3-4ff1-a3ee-5c1614a4315f" d="M275.438,318.269c6.839-3.955,12.432-14.165,12.432-22.764"/>
  <line class="uuid-d5d66119-9128-4b7e-a765-903018f9b520" x1="287.87" y1="295.504" x2="287.87" y2="293.183"/>
  <path class="uuid-50c73f9f-45c3-4ff1-a3ee-5c1614a4315f" d="M287.8,101.374c0-8.577-5.619-12.338-12.436-8.405"/>
  <path class="uuid-50c73f9f-45c3-4ff1-a3ee-5c1614a4315f" d="M178.677,358.603c0,8.572,5.597,12.362,12.436,8.403"/>
  <line class="uuid-d5d66119-9128-4b7e-a765-903018f9b520" x1="287.87" y1="293.183" x2="287.8" y2="101.374"/>
  <line class="uuid-d5d66119-9128-4b7e-a765-903018f9b520" x1="166.145" y1="143.856" x2="166.097" y2="144.051"/>
  <path class="uuid-50c73f9f-45c3-4ff1-a3ee-5c1614a4315f" d="M166.097,144.051c-1.806,3.808-2.782,7.304-2.858,11.531"/>
  <path class="uuid-50c73f9f-45c3-4ff1-a3ee-5c1614a4315f" d="M178.629,164.471c.048-4.224,1.049-7.719,2.86-11.531"/>
  <line class="uuid-d5d66119-9128-4b7e-a765-903018f9b520" x1="171.205" y1="227.399" x2="171.205" y2="207.902"/>
  <line class="uuid-d5d66119-9128-4b7e-a765-903018f9b520" x1="171.205" y1="195.081" x2="171.205" y2="175.565"/>
  <line class="uuid-d5d66119-9128-4b7e-a765-903018f9b520" x1="227.509" y1="337.108" x2="244.439" y2="327.335"/>
  <path class="uuid-50c73f9f-45c3-4ff1-a3ee-5c1614a4315f" d="M271.678,104.16c-1.223.706-2.223,2.539-2.223,4.054"/>
  <path class="uuid-50c73f9f-45c3-4ff1-a3ee-5c1614a4315f" d="M269.455,108.213c0,1.538,1,2.201,2.223,1.512"/>
  <path class="uuid-50c73f9f-45c3-4ff1-a3ee-5c1614a4315f" d="M271.678,109.725c1.195-.706,2.196-2.538,2.196-4.076"/>
  <path class="uuid-50c73f9f-45c3-4ff1-a3ee-5c1614a4315f" d="M273.874,105.65c0-1.516-1.001-2.198-2.196-1.49"/>
  <path class="uuid-50c73f9f-45c3-4ff1-a3ee-5c1614a4315f" d="M209.408,289.496c4.18-2.395,20.861-11.995,26.065-15"/>
  <path class="uuid-50c73f9f-45c3-4ff1-a3ee-5c1614a4315f" d="M209.408,313.703c4.18-2.418,20.861-12.021,26.065-14.997"/>
  <path class="uuid-50c73f9f-45c3-4ff1-a3ee-5c1614a4315f" d="M192.678,157.388c1.39-.783,3.149-1.783,4.885-2.784"/>
  <path class="uuid-50c73f9f-45c3-4ff1-a3ee-5c1614a4315f" d="M202.446,151.818c1.394-.806,3.127-1.807,4.886-2.807"/>
  <path class="uuid-50c73f9f-45c3-4ff1-a3ee-5c1614a4315f" d="M212.193,146.199c1.394-.805,3.153-1.807,4.886-2.785"/>
  <path class="uuid-50c73f9f-45c3-4ff1-a3ee-5c1614a4315f" d="M234.497,170.627v63.733"/>
  <line class="uuid-d5d66119-9128-4b7e-a765-903018f9b520" x1="248.25" y1="267.07" x2="267.892" y2="255.783"/>
  <line class="uuid-d5d66119-9128-4b7e-a765-903018f9b520" x1="248.25" y1="291.303" x2="267.892" y2="280.015"/>
  <line class="uuid-b892af4d-fe73-4c07-94f6-e796898ccfd6" x1="274.68" y1="174.681" x2="272.583" y2="178.299"/>
  <line class="uuid-b892af4d-fe73-4c07-94f6-e796898ccfd6" x1="232.812" y1="247.187" x2="230.712" y2="250.826"/>
  <line class="uuid-b892af4d-fe73-4c07-94f6-e796898ccfd6" x1="261.735" y1="151.939" x2="259.362" y2="156.068"/>
  <line class="uuid-b892af4d-fe73-4c07-94f6-e796898ccfd6" x1="206.921" y1="246.845" x2="204.524" y2="250.974"/>
  <line class="uuid-b892af4d-fe73-4c07-94f6-e796898ccfd6" x1="231.933" y1="158.437" x2="229.858" y2="162.076"/>
  <line class="uuid-b892af4d-fe73-4c07-94f6-e796898ccfd6" x1="197.343" y1="218.286" x2="195.242" y2="221.924"/>
  <line class="uuid-b892af4d-fe73-4c07-94f6-e796898ccfd6" x1="269.234" y1="305.888" x2="257.018" y2="327.014"/>
  <line class="uuid-b892af4d-fe73-4c07-94f6-e796898ccfd6" x1="230.074" y1="328.482" x2="217.889" y2="349.636"/>
  <line class="uuid-b892af4d-fe73-4c07-94f6-e796898ccfd6" x1="190.819" y1="351.299" x2="182.588" y2="365.612"/>
  <line class="uuid-b892af4d-fe73-4c07-94f6-e796898ccfd6" x1="177.065" y1="355.938" x2="165.048" y2="348.977"/>
  <line class="uuid-b892af4d-fe73-4c07-94f6-e796898ccfd6" x1="177.065" y1="342.895" x2="165.048" y2="335.933"/>
  <line class="uuid-b892af4d-fe73-4c07-94f6-e796898ccfd6" x1="177.065" y1="329.848" x2="164.976" y2="322.887"/>
  <line class="uuid-b892af4d-fe73-4c07-94f6-e796898ccfd6" x1="177.065" y1="316.83" x2="164.976" y2="309.865"/>
  <line class="uuid-b892af4d-fe73-4c07-94f6-e796898ccfd6" x1="177.065" y1="303.783" x2="164.976" y2="296.822"/>
  <line class="uuid-b892af4d-fe73-4c07-94f6-e796898ccfd6" x1="177.065" y1="290.741" x2="164.976" y2="283.778"/>
  <line class="uuid-b892af4d-fe73-4c07-94f6-e796898ccfd6" x1="177.065" y1="277.697" x2="164.976" y2="270.758"/>
  <line class="uuid-b892af4d-fe73-4c07-94f6-e796898ccfd6" x1="177.065" y1="264.649" x2="164.976" y2="257.688"/>
  <line class="uuid-b892af4d-fe73-4c07-94f6-e796898ccfd6" x1="177.019" y1="251.606" x2="164.976" y2="244.671"/>
  <line class="uuid-b892af4d-fe73-4c07-94f6-e796898ccfd6" x1="177.019" y1="238.584" x2="164.976" y2="231.649"/>
  <line class="uuid-b892af4d-fe73-4c07-94f6-e796898ccfd6" x1="177.019" y1="225.567" x2="164.976" y2="218.605"/>
  <line class="uuid-b892af4d-fe73-4c07-94f6-e796898ccfd6" x1="177.019" y1="212.498" x2="164.976" y2="205.537"/>
  <line class="uuid-b892af4d-fe73-4c07-94f6-e796898ccfd6" x1="177.019" y1="199.477" x2="164.928" y2="192.516"/>
  <line class="uuid-b892af4d-fe73-4c07-94f6-e796898ccfd6" x1="177.019" y1="186.455" x2="164.928" y2="179.472"/>
  <line class="uuid-b892af4d-fe73-4c07-94f6-e796898ccfd6" x1="177.019" y1="173.39" x2="164.928" y2="166.425"/>
  <line class="uuid-b892af4d-fe73-4c07-94f6-e796898ccfd6" x1="177.408" y1="160.612" x2="165.048" y2="153.477"/>
  <line class="uuid-b892af4d-fe73-4c07-94f6-e796898ccfd6" x1="186.643" y1="143.12" x2="174.159" y2="135.915"/>
  <line class="uuid-b892af4d-fe73-4c07-94f6-e796898ccfd6" x1="208.553" y1="129.686" x2="196.464" y2="122.725"/>
  <line class="uuid-b892af4d-fe73-4c07-94f6-e796898ccfd6" x1="231.127" y1="116.644" x2="219.058" y2="109.679"/>
  <line class="uuid-b892af4d-fe73-4c07-94f6-e796898ccfd6" x1="253.649" y1="103.622" x2="241.58" y2="96.635"/>
  <line class="uuid-b892af4d-fe73-4c07-94f6-e796898ccfd6" x1="276.317" y1="90.601" x2="265.522" y2="84.349"/>
</svg>