<?xml version="1.0" encoding="UTF-8"?>
<svg id="uuid-12052e33-eb3d-4469-b3d2-3660448e772c" data-name="&amp;lt;Layer&amp;gt;" xmlns="http://www.w3.org/2000/svg" viewBox="0 0 451.11 451.11">
  <defs>
    <style>
      .uuid-f1b0c101-0f54-48e2-b01f-f9363b08bfb1, .uuid-00003235-6e39-4a82-a14f-b2e3d1d37a88, .uuid-d73b3468-19c8-4e22-b3b9-907dd6bf1f15 {
        fill: none;
        stroke: #000;
        stroke-linecap: round;
      }

      .uuid-f1b0c101-0f54-48e2-b01f-f9363b08bfb1, .uuid-d73b3468-19c8-4e22-b3b9-907dd6bf1f15 {
        stroke-linejoin: round;
        stroke-width: 4.113px;
      }

      .uuid-00003235-6e39-4a82-a14f-b2e3d1d37a88 {
        stroke-miterlimit: 10;
        stroke-width: 1.159px;
      }

      .uuid-d73b3468-19c8-4e22-b3b9-907dd6bf1f15 {
        fill-rule: evenodd;
      }
    </style>
  </defs>
  <polyline class="uuid-d73b3468-19c8-4e22-b3b9-907dd6bf1f15" points="240.309 75.249 224.919 66.356 224.385 66.212 223.87 66.087 223.407 66.013 222.821 65.991 222.306 65.991 221.721 66.039 221.133 66.113 220.573 66.26 219.984 66.429 219.352 66.649 218.693 66.893 218.13 67.212 217.471 67.555 133.144 116.289"/>
  <path class="uuid-d73b3468-19c8-4e22-b3b9-907dd6bf1f15" d="M133.144,116.289c-4.396,2.663-7.304,6.641-9.578,11.211-1.781,3.834-2.784,7.328-2.832,11.531"/>
  <path class="uuid-d73b3468-19c8-4e22-b3b9-907dd6bf1f15" d="M136.124,147.92c.048-4.224,1.101-7.719,2.834-11.528,2.274-4.595,5.18-8.551,9.577-11.237"/>
  <polyline class="uuid-d73b3468-19c8-4e22-b3b9-907dd6bf1f15" points="148.534 125.155 232.859 76.444 233.521 76.081 234.154 75.786 234.716 75.539 235.353 75.323 235.938 75.149 236.523 75.006 237.108 74.928 237.696 74.881 238.208 74.881 238.797 74.906 239.308 74.98 239.772 75.102 240.309 75.249"/>
  <path class="uuid-d73b3468-19c8-4e22-b3b9-907dd6bf1f15" d="M148.656,350.48c-3.64,2.075-6.961,2.027-9.235.169-.463-.415-.854-.828-1.147-1.295-.342-.389-.633-.853-.88-1.39l-.048-.052-.048-.044c-.073-.247-.199-.489-.247-.71-.121-.295-.243-.588-.293-.931-.048-.243-.122-.412-.17-.633-.048-.121-.048-.246-.048-.415-.073-.269-.195-.636-.195-.975-.099-.684-.173-1.394-.173-2.152"/>
  <path class="uuid-d73b3468-19c8-4e22-b3b9-907dd6bf1f15" d="M136.124,147.92c0-1.001.048-2.024.221-3.076.291-1.932.754-3.786,1.464-5.644.343-.926.685-1.854,1.149-2.833"/>
  <path class="uuid-d73b3468-19c8-4e22-b3b9-907dd6bf1f15" d="M139.078,136.194c.247-.533.515-1.122.88-1.685.463-.88.979-1.685,1.564-2.513.173-.268.342-.515.584-.806.221-.393.515-.758.858-1.101.341-.467.758-.979,1.221-1.39.415-.467.879-.93,1.342-1.273.928-.927,1.981-1.685,3.006-2.27"/>
  <path class="uuid-d73b3468-19c8-4e22-b3b9-907dd6bf1f15" d="M232.859,76.422c.463-.271.931-.515,1.464-.684.343-.173.688-.295,1.031-.415.243-.052.412-.174.658-.174.391-.121.754-.169,1.147-.221.291-.069.585-.069.88-.069.463,0,.879.069,1.269.121.365.048.71.169,1.001.291,3.006,1.101,4.982,4.474,4.982,9.578"/>
  <polyline class="uuid-d73b3468-19c8-4e22-b3b9-907dd6bf1f15" points="245.343 243.215 245.343 276.61 136.172 339.659 136.124 147.92"/>
  <polyline class="uuid-d73b3468-19c8-4e22-b3b9-907dd6bf1f15" points="138.958 136.392 139.03 136.194 123.64 127.305"/>
  <polyline class="uuid-d73b3468-19c8-4e22-b3b9-907dd6bf1f15" points="196.461 178.628 173.278 191.988 173.278 169.687 196.461 156.323"/>
  <polyline class="uuid-d73b3468-19c8-4e22-b3b9-907dd6bf1f15" points="196.389 211.385 173.278 224.748 173.278 202.445 196.461 189.081"/>
  <polyline class="uuid-d73b3468-19c8-4e22-b3b9-907dd6bf1f15" points="196.389 221.89 173.278 235.202 173.278 257.506 200.222 241.994"/>
  <polyline class="uuid-d73b3468-19c8-4e22-b3b9-907dd6bf1f15" points="203.545 250.519 203.471 250.593 173.278 268.011 173.278 290.312 204.814 272.14"/>
  <path class="uuid-d73b3468-19c8-4e22-b3b9-907dd6bf1f15" d="M213.243,162.895c0-1.98.511-4.128,1.442-6.155,0-.048,0-.096.074-.17,0-.051,0-.121.048-.173.048,0,.048-.074.048-.074.367-.68.706-1.316,1.125-1.953.339-.584.681-1.1,1.097-1.637.343-.463.758-.928,1.148-1.343.294-.341.637-.684,1.001-.901.637-.663,1.395-1.221,2.154-1.638,33.61-19.397,67.224-38.843,100.91-58.262,2.1-1.221,4.007-1.391,5.401-.685"/>
  <path class="uuid-d73b3468-19c8-4e22-b3b9-907dd6bf1f15" d="M302.307,82.773c-18.978,10.916-37.96,21.884-57.016,32.852-13.581,7.845-27.161,15.686-40.768,23.526-2.148,1.269-4.007,3.249-5.327,5.523"/>
  <path class="uuid-d73b3468-19c8-4e22-b3b9-907dd6bf1f15" d="M199.122,144.675c-.413.633-.754,1.317-1.049,2.024-.295.515-.515,1.101-.684,1.685-.343.81-.585,1.689-.71,2.543-.122.758-.218,1.516-.218,2.274"/>
  <polyline class="uuid-d73b3468-19c8-4e22-b3b9-907dd6bf1f15" points="196.461 153.2 196.461 189.081 196.389 211.385 196.389 235.886"/>
  <polyline class="uuid-d73b3468-19c8-4e22-b3b9-907dd6bf1f15" points="198.489 240.993 200.222 241.994 204.229 244.264"/>
  <path class="uuid-d73b3468-19c8-4e22-b3b9-907dd6bf1f15" d="M204.229,244.264c-.121.685-.221,1.395-.291,2.079-.172,1.049-.271,2.148-.345,3.201-.048.217-.048.463-.048.706-.074.096-.074.174,0,.269"/>
  <path class="uuid-d73b3468-19c8-4e22-b3b9-907dd6bf1f15" d="M203.471,250.593c-.047.389-.047.806-.047,1.221-.174,1.906-.294,3.838-.343,5.74v.247c-.048,2.123-.122,4.276-.122,6.446,0,2.322,0,4.57.074,6.84"/>
  <polyline class="uuid-d73b3468-19c8-4e22-b3b9-907dd6bf1f15" points="203.033 271.087 204.814 272.14 219.815 280.785"/>
  <path class="uuid-d73b3468-19c8-4e22-b3b9-907dd6bf1f15" d="M219.815,280.785v-4.934c0-2.443-.074-4.813,0-7.256.048-1.001.096-2.027.096-3.028.073-.758.125-1.516.125-2.27,0-.273,0-.589.048-.81.074-.291.074-.632.121-.975.052-.588.122-1.221.174-1.811.048-.412.048-.875.121-1.268.074-.707.122-1.343.243-2.049.1-.979.221-2.031.391-3.08.172-1.049.345-2.148.588-3.223"/>
  <polyline class="uuid-d73b3468-19c8-4e22-b3b9-907dd6bf1f15" points="200.222 241.994 204.229 244.264 214.855 250.424 215.908 251.056 216.029 251.056"/>
  <path class="uuid-d73b3468-19c8-4e22-b3b9-907dd6bf1f15" d="M213.243,162.895c0-1.98.511-4.128,1.442-6.155,0-.048.074-.096.074-.17,0-.051,0-.121.048-.173.048,0,.048-.074.048-.074.367-.68.706-1.316,1.125-1.953"/>
  <polyline class="uuid-d73b3468-19c8-4e22-b3b9-907dd6bf1f15" points="215.981 154.369 199.197 144.675 199.122 144.675"/>
  <path class="uuid-d73b3468-19c8-4e22-b3b9-907dd6bf1f15" d="M204.229,244.264c-.121.685-.221,1.395-.291,2.079-.172,1.049-.271,2.148-.345,3.201-.048.217-.048.463-.048.706-.074.096-.074.221-.074.343-.047.389-.047.806-.047,1.221-.174,1.906-.294,3.838-.343,5.74v.247c-.048,2.123-.122,4.276-.122,6.446,0,2.322,0,4.57.074,6.84"/>
  <path class="uuid-d73b3468-19c8-4e22-b3b9-907dd6bf1f15" d="M330.303,178.848c0-20.398.073-63.149.073-83.543,0-5.156-3.664-7.256-8.135-4.669-33.638,19.397-67.252,38.795-100.936,58.188-4.47,2.591-8.062,8.894-8.062,14.07"/>
  <path class="uuid-d73b3468-19c8-4e22-b3b9-907dd6bf1f15" d="M221.721,250.081c-2.274,11.311-2.027,20.568-1.905,30.704,3.223-5.571,6.498-11.137,9.699-16.734,20.494-35.738,60.68-53.693,92.485-71.034,2.27-1.221,4.25-3.274,5.86-6.037,1.638-2.785,2.444-5.519,2.444-8.132"/>
  <line class="uuid-f1b0c101-0f54-48e2-b01f-f9363b08bfb1" x1="120.734" y1="139.031" x2="120.782" y2="333.157"/>
  <path class="uuid-d73b3468-19c8-4e22-b3b9-907dd6bf1f15" d="M120.782,333.157c.051,3.275.636,6.377,3.252,8.603"/>
  <line class="uuid-f1b0c101-0f54-48e2-b01f-f9363b08bfb1" x1="124.033" y1="341.76" x2="139.421" y2="350.649"/>
  <path class="uuid-d73b3468-19c8-4e22-b3b9-907dd6bf1f15" d="M139.421,350.649c-2.613-2.222-3.175-5.323-3.249-8.598"/>
  <line class="uuid-f1b0c101-0f54-48e2-b01f-f9363b08bfb1" x1="245.343" y1="243.215" x2="245.343" y2="278.979"/>
  <path class="uuid-d73b3468-19c8-4e22-b3b9-907dd6bf1f15" d="M245.343,278.979c.073,8.551-5.571,18.761-12.363,22.764"/>
  <line class="uuid-f1b0c101-0f54-48e2-b01f-f9363b08bfb1" x1="232.979" y1="301.743" x2="148.656" y2="350.48"/>
  <line class="uuid-f1b0c101-0f54-48e2-b01f-f9363b08bfb1" x1="245.291" y1="84.849" x2="245.291" y2="115.625"/>
  <line class="uuid-f1b0c101-0f54-48e2-b01f-f9363b08bfb1" x1="128.747" y1="210.874" x2="128.747" y2="191.355"/>
  <line class="uuid-f1b0c101-0f54-48e2-b01f-f9363b08bfb1" x1="128.747" y1="178.532" x2="128.747" y2="159.014"/>
  <line class="uuid-f1b0c101-0f54-48e2-b01f-f9363b08bfb1" x1="185.004" y1="320.556" x2="201.908" y2="310.81"/>
  <path class="uuid-d73b3468-19c8-4e22-b3b9-907dd6bf1f15" d="M229.146,87.608c-1.221.71-2.198,2.541-2.198,4.08"/>
  <path class="uuid-d73b3468-19c8-4e22-b3b9-907dd6bf1f15" d="M226.949,91.688c0,1.512.976,2.174,2.198,1.49"/>
  <path class="uuid-d73b3468-19c8-4e22-b3b9-907dd6bf1f15" d="M229.146,93.178c1.221-.71,2.222-2.542,2.222-4.08"/>
  <path class="uuid-d73b3468-19c8-4e22-b3b9-907dd6bf1f15" d="M231.369,89.098c0-1.516-1.001-2.197-2.222-1.49"/>
  <path class="uuid-d73b3468-19c8-4e22-b3b9-907dd6bf1f15" d="M214.976,250.424h-.121"/>
  <path class="uuid-d73b3468-19c8-4e22-b3b9-907dd6bf1f15" d="M150.242,140.862c1.32-.806,3.053-1.807,4.812-2.81"/>
  <path class="uuid-d73b3468-19c8-4e22-b3b9-907dd6bf1f15" d="M159.915,135.267c1.42-.806,3.153-1.806,4.886-2.807"/>
  <path class="uuid-d73b3468-19c8-4e22-b3b9-907dd6bf1f15" d="M169.688,129.674c1.394-.806,3.127-1.807,4.886-2.808"/>
  <line class="uuid-f1b0c101-0f54-48e2-b01f-f9363b08bfb1" x1="154.691" y1="245.88" x2="163.02" y2="241.141"/>
  <line class="uuid-f1b0c101-0f54-48e2-b01f-f9363b08bfb1" x1="154.691" y1="278.662" x2="163.02" y2="273.923"/>
  <path class="uuid-d73b3468-19c8-4e22-b3b9-907dd6bf1f15" d="M154.691,180.365c4.761-2.737,2.391-1.346,8.329-4.765"/>
  <line class="uuid-f1b0c101-0f54-48e2-b01f-f9363b08bfb1" x1="154.691" y1="213.122" x2="163.02" y2="208.383"/>
  <line class="uuid-f1b0c101-0f54-48e2-b01f-f9363b08bfb1" x1="213.243" y1="245.194" x2="213.243" y2="162.895"/>
  <line class="uuid-f1b0c101-0f54-48e2-b01f-f9363b08bfb1" x1="327.691" y1="89.903" x2="310.909" y2="80.208"/>
  <path class="uuid-d73b3468-19c8-4e22-b3b9-907dd6bf1f15" d="M310.909,80.208c-1.909-.806-3.716-.221-5.449.706"/>
  <line class="uuid-f1b0c101-0f54-48e2-b01f-f9363b08bfb1" x1="305.46" y1="80.914" x2="302.307" y2="82.773"/>
  <path class="uuid-d73b3468-19c8-4e22-b3b9-907dd6bf1f15" d="M196.389,235.886c.073,2.053.489,3.837,2.1,5.106"/>
  <path class="uuid-d73b3468-19c8-4e22-b3b9-907dd6bf1f15" d="M213.195,245.611c0,5.154,3.64,7.278,8.11,4.687"/>
  <line class="uuid-f1b0c101-0f54-48e2-b01f-f9363b08bfb1" x1="221.305" y1="250.298" x2="221.721" y2="250.081"/>
  <line class="uuid-f1b0c101-0f54-48e2-b01f-f9363b08bfb1" x1="232.811" y1="169.661" x2="301.038" y2="130.358"/>
  <line class="uuid-f1b0c101-0f54-48e2-b01f-f9363b08bfb1" x1="232.811" y1="190.354" x2="310.736" y2="145.407"/>
  <line class="uuid-f1b0c101-0f54-48e2-b01f-f9363b08bfb1" x1="232.811" y1="212.312" x2="282.986" y2="183.367"/>
  <line class="uuid-00003235-6e39-4a82-a14f-b2e3d1d37a88" x1="224.333" y1="145.26" x2="217.593" y2="133.508"/>
  <line class="uuid-00003235-6e39-4a82-a14f-b2e3d1d37a88" x1="243.901" y1="133.997" x2="237.108" y2="122.223"/>
  <line class="uuid-00003235-6e39-4a82-a14f-b2e3d1d37a88" x1="263.467" y1="122.687" x2="256.678" y2="110.938"/>
  <line class="uuid-00003235-6e39-4a82-a14f-b2e3d1d37a88" x1="283.035" y1="111.402" x2="276.242" y2="99.649"/>
  <line class="uuid-00003235-6e39-4a82-a14f-b2e3d1d37a88" x1="302.554" y1="100.117" x2="295.809" y2="88.391"/>
  <line class="uuid-00003235-6e39-4a82-a14f-b2e3d1d37a88" x1="226.776" y1="289.263" x2="214.465" y2="310.563"/>
  <line class="uuid-00003235-6e39-4a82-a14f-b2e3d1d37a88" x1="187.621" y1="311.858" x2="175.379" y2="333.157"/>
  <line class="uuid-00003235-6e39-4a82-a14f-b2e3d1d37a88" x1="148.362" y1="334.699" x2="140.083" y2="349.086"/>
  <line class="uuid-00003235-6e39-4a82-a14f-b2e3d1d37a88" x1="134.487" y1="333.673" x2="124.277" y2="339.56"/>
  <line class="uuid-00003235-6e39-4a82-a14f-b2e3d1d37a88" x1="134.56" y1="320.604" x2="122.543" y2="327.543"/>
  <line class="uuid-00003235-6e39-4a82-a14f-b2e3d1d37a88" x1="134.56" y1="307.561" x2="122.543" y2="314.496"/>
  <line class="uuid-00003235-6e39-4a82-a14f-b2e3d1d37a88" x1="134.56" y1="294.539" x2="122.543" y2="301.478"/>
  <line class="uuid-00003235-6e39-4a82-a14f-b2e3d1d37a88" x1="134.56" y1="281.496" x2="122.543" y2="288.431"/>
  <line class="uuid-00003235-6e39-4a82-a14f-b2e3d1d37a88" x1="134.56" y1="268.474" x2="122.47" y2="275.411"/>
  <line class="uuid-00003235-6e39-4a82-a14f-b2e3d1d37a88" x1="134.56" y1="255.43" x2="122.47" y2="262.367"/>
  <line class="uuid-00003235-6e39-4a82-a14f-b2e3d1d37a88" x1="134.56" y1="242.384" x2="122.47" y2="249.345"/>
  <line class="uuid-00003235-6e39-4a82-a14f-b2e3d1d37a88" x1="134.487" y1="229.367" x2="122.47" y2="236.328"/>
  <line class="uuid-00003235-6e39-4a82-a14f-b2e3d1d37a88" x1="134.487" y1="216.319" x2="122.47" y2="223.28"/>
  <line class="uuid-00003235-6e39-4a82-a14f-b2e3d1d37a88" x1="134.487" y1="203.298" x2="122.47" y2="210.238"/>
  <line class="uuid-00003235-6e39-4a82-a14f-b2e3d1d37a88" x1="134.487" y1="190.255" x2="122.47" y2="197.194"/>
  <line class="uuid-00003235-6e39-4a82-a14f-b2e3d1d37a88" x1="134.487" y1="177.212" x2="122.47" y2="184.173"/>
  <line class="uuid-00003235-6e39-4a82-a14f-b2e3d1d37a88" x1="134.487" y1="164.19" x2="122.47" y2="171.151"/>
  <line class="uuid-00003235-6e39-4a82-a14f-b2e3d1d37a88" x1="134.487" y1="151.169" x2="122.47" y2="158.108"/>
  <line class="uuid-00003235-6e39-4a82-a14f-b2e3d1d37a88" x1="136.93" y1="136.735" x2="122.37" y2="145.138"/>
  <line class="uuid-00003235-6e39-4a82-a14f-b2e3d1d37a88" x1="125.156" y1="130.48" x2="124.446" y2="130.895"/>
  <line class="uuid-00003235-6e39-4a82-a14f-b2e3d1d37a88" x1="147.044" y1="124.103" x2="141.058" y2="113.672"/>
  <line class="uuid-00003235-6e39-4a82-a14f-b2e3d1d37a88" x1="166.611" y1="112.793" x2="160.577" y2="102.362"/>
  <line class="uuid-00003235-6e39-4a82-a14f-b2e3d1d37a88" x1="186.179" y1="101.508" x2="180.144" y2="91.078"/>
  <line class="uuid-00003235-6e39-4a82-a14f-b2e3d1d37a88" x1="205.694" y1="90.198" x2="199.71" y2="79.767"/>
  <line class="uuid-00003235-6e39-4a82-a14f-b2e3d1d37a88" x1="225.264" y1="78.913" x2="219.278" y2="68.604"/>
  <line class="uuid-00003235-6e39-4a82-a14f-b2e3d1d37a88" x1="211.434" y1="238.161" x2="204.425" y2="242.214"/>
  <line class="uuid-00003235-6e39-4a82-a14f-b2e3d1d37a88" x1="211.655" y1="225.017" x2="198.074" y2="232.858"/>
  <line class="uuid-00003235-6e39-4a82-a14f-b2e3d1d37a88" x1="211.655" y1="211.949" x2="198.074" y2="219.815"/>
  <line class="uuid-00003235-6e39-4a82-a14f-b2e3d1d37a88" x1="211.655" y1="198.927" x2="198.074" y2="206.767"/>
  <line class="uuid-00003235-6e39-4a82-a14f-b2e3d1d37a88" x1="211.655" y1="185.906" x2="198.074" y2="193.75"/>
  <line class="uuid-00003235-6e39-4a82-a14f-b2e3d1d37a88" x1="211.655" y1="172.862" x2="198.074" y2="180.703"/>
  <line class="uuid-00003235-6e39-4a82-a14f-b2e3d1d37a88" x1="212.022" y1="159.598" x2="198.074" y2="167.66"/>
  <line class="uuid-00003235-6e39-4a82-a14f-b2e3d1d37a88" x1="205.451" y1="150.362" x2="198.32" y2="154.491"/>
  <line class="uuid-00003235-6e39-4a82-a14f-b2e3d1d37a88" x1="218.299" y1="265.053" x2="207.136" y2="271.48"/>
  <line class="uuid-00003235-6e39-4a82-a14f-b2e3d1d37a88" x1="216.662" y1="252.962" x2="204.766" y2="259.85"/>
</svg>