<?xml version="1.0" encoding="UTF-8"?>
<svg id="uuid-1f369aa7-cfe0-4cb5-a6f7-c192cfb04448" data-name="&amp;lt;Layer&amp;gt;" xmlns="http://www.w3.org/2000/svg" viewBox="0 0 451.11 451.11">
  <defs>
    <style>
      .uuid-50342661-4bc5-4288-bf80-caeafb29037e, .uuid-c28ce709-a576-4f45-bec2-666f817b0149, .uuid-8569f15f-71a5-4754-b249-faf676fdbdcf {
        fill: none;
        stroke: #000;
        stroke-linecap: round;
      }

      .uuid-50342661-4bc5-4288-bf80-caeafb29037e, .uuid-8569f15f-71a5-4754-b249-faf676fdbdcf {
        stroke-linejoin: round;
        stroke-width: 4.117px;
      }

      .uuid-c28ce709-a576-4f45-bec2-666f817b0149 {
        stroke-miterlimit: 10;
        stroke-width: 1.163px;
      }

      .uuid-8569f15f-71a5-4754-b249-faf676fdbdcf {
        fill-rule: evenodd;
      }
    </style>
  </defs>
  <path class="uuid-8569f15f-71a5-4754-b249-faf676fdbdcf" d="M312.445,138.972c1.954-1.005,3.422-1.905,4.886-2.906,6.107-4.055,7.815-8.11.243-14.096"/>
  <polyline class="uuid-8569f15f-71a5-4754-b249-faf676fdbdcf" points="317.574 121.969 282.399 94.61 282.399 94.536"/>
  <path class="uuid-8569f15f-71a5-4754-b249-faf676fdbdcf" d="M280.446,116.498v25.965l12.948,7.476c.117-16.848,3.624-36.753-6.841-50.737"/>
  <path class="uuid-8569f15f-71a5-4754-b249-faf676fdbdcf" d="M282.399,94.536c-3.422-3.37-7.33-6.155-11.237-8.062-13.19-6.203-19.299-3.079-30.293,3.128"/>
  <polyline class="uuid-8569f15f-71a5-4754-b249-faf676fdbdcf" points="240.87 89.602 235.741 92.557 166.61 132.474 166.123 132.769"/>
  <path class="uuid-8569f15f-71a5-4754-b249-faf676fdbdcf" d="M166.123,132.769c-3.911,2.417-6.107,5.198-8.061,9.157-1.711,3.249-2.444,5.597-2.444,9.185"/>
  <polyline class="uuid-8569f15f-71a5-4754-b249-faf676fdbdcf" points="170.031 148.961 170.031 148.913 164.166 145.47 158.062 141.926"/>
  <polyline class="uuid-8569f15f-71a5-4754-b249-faf676fdbdcf" points="136.806 214.308 159.526 201.216 167.588 205.855 246.978 160.055 257.729 166.284"/>
  <line class="uuid-50342661-4bc5-4288-bf80-caeafb29037e" x1="170.763" y1="368.009" x2="307.073" y2="289.374"/>
  <path class="uuid-8569f15f-71a5-4754-b249-faf676fdbdcf" d="M307.073,289.374c5.618-3.249,10.258-11.185,10.258-17.757"/>
  <line class="uuid-50342661-4bc5-4288-bf80-caeafb29037e" x1="317.331" y1="271.617" x2="317.331" y2="136.066"/>
  <line class="uuid-50342661-4bc5-4288-bf80-caeafb29037e" x1="235.741" y1="92.557" x2="166.61" y2="132.474"/>
  <line class="uuid-50342661-4bc5-4288-bf80-caeafb29037e" x1="293.393" y1="149.94" x2="312.445" y2="138.972"/>
  <line class="uuid-50342661-4bc5-4288-bf80-caeafb29037e" x1="155.373" y1="292.406" x2="155.373" y2="354.135"/>
  <path class="uuid-8569f15f-71a5-4754-b249-faf676fdbdcf" d="M155.373,354.135c.489,3.37.489,4.691,3.175,6.839"/>
  <line class="uuid-50342661-4bc5-4288-bf80-caeafb29037e" x1="158.548" y1="360.974" x2="170.763" y2="368.009"/>
  <path class="uuid-8569f15f-71a5-4754-b249-faf676fdbdcf" d="M170.763,368.009c-2.685-2.196-2.932-3.544-3.175-6.865"/>
  <line class="uuid-50342661-4bc5-4288-bf80-caeafb29037e" x1="167.588" y1="361.144" x2="167.588" y2="285.419"/>
  <line class="uuid-50342661-4bc5-4288-bf80-caeafb29037e" x1="167.588" y1="205.808" x2="167.588" y2="158.124"/>
  <path class="uuid-8569f15f-71a5-4754-b249-faf676fdbdcf" d="M167.588,158.124c.243-3.591.975-5.962,2.443-9.163"/>
  <line class="uuid-50342661-4bc5-4288-bf80-caeafb29037e" x1="170.031" y1="148.961" x2="170.031" y2="148.913"/>
  <path class="uuid-8569f15f-71a5-4754-b249-faf676fdbdcf" d="M170.031,148.913c2.196-3.955,4.396-6.692,8.305-9.135"/>
  <line class="uuid-50342661-4bc5-4288-bf80-caeafb29037e" x1="178.336" y1="139.778" x2="248.931" y2="98.958"/>
  <path class="uuid-8569f15f-71a5-4754-b249-faf676fdbdcf" d="M248.931,98.958c18.323-9.356,31.757,5.641,31.514,17.54"/>
  <path class="uuid-8569f15f-71a5-4754-b249-faf676fdbdcf" d="M286.553,99.202c-1.221-1.634-2.689-3.15-4.154-4.592"/>
  <line class="uuid-50342661-4bc5-4288-bf80-caeafb29037e" x1="282.399" y1="94.61" x2="282.399" y2="94.536"/>
  <line class="uuid-50342661-4bc5-4288-bf80-caeafb29037e" x1="155.618" y1="151.111" x2="155.618" y2="203.534"/>
  <path class="uuid-8569f15f-71a5-4754-b249-faf676fdbdcf" d="M158.062,141.926c-1.711,3.249-2.444,5.597-2.444,9.185"/>
  <line class="uuid-50342661-4bc5-4288-bf80-caeafb29037e" x1="147.311" y1="293.944" x2="130.702" y2="284.344"/>
  <path class="uuid-8569f15f-71a5-4754-b249-faf676fdbdcf" d="M130.702,284.344c-1.711-1.295-2.2-3.153-2.2-5.228"/>
  <line class="uuid-50342661-4bc5-4288-bf80-caeafb29037e" x1="128.502" y1="279.116" x2="128.502" y2="228.793"/>
  <path class="uuid-8569f15f-71a5-4754-b249-faf676fdbdcf" d="M128.502,228.793c0-5.472,3.664-11.553,8.305-14.486"/>
  <path class="uuid-8569f15f-71a5-4754-b249-faf676fdbdcf" d="M257.729,166.284c-1.957-.832-3.665-.247-5.619.732"/>
  <line class="uuid-50342661-4bc5-4288-bf80-caeafb29037e" x1="252.11" y1="167.016" x2="153.418" y2="223.91"/>
  <path class="uuid-8569f15f-71a5-4754-b249-faf676fdbdcf" d="M153.418,223.91c-4.886,2.906-8.303,8.989-8.303,14.486"/>
  <line class="uuid-50342661-4bc5-4288-bf80-caeafb29037e" x1="145.115" y1="238.396" x2="145.115" y2="288.716"/>
  <path class="uuid-8569f15f-71a5-4754-b249-faf676fdbdcf" d="M145.115,288.716c0,2.052.485,3.933,2.196,5.228"/>
  <line class="uuid-50342661-4bc5-4288-bf80-caeafb29037e" x1="260.415" y1="171.851" x2="260.415" y2="222.174"/>
  <path class="uuid-8569f15f-71a5-4754-b249-faf676fdbdcf" d="M260.415,222.174c0,5.302-3.664,11.848-8.305,14.486"/>
  <line class="uuid-50342661-4bc5-4288-bf80-caeafb29037e" x1="252.11" y1="236.659" x2="153.418" y2="293.527"/>
  <path class="uuid-8569f15f-71a5-4754-b249-faf676fdbdcf" d="M153.418,293.527c-4.639,2.665-8.303.515-8.303-4.812"/>
  <path class="uuid-8569f15f-71a5-4754-b249-faf676fdbdcf" d="M252.11,167.016c4.64-2.639,8.305-.463,8.305,4.835"/>
  <line class="uuid-50342661-4bc5-4288-bf80-caeafb29037e" x1="147.311" y1="230.43" x2="130.702" y2="220.856"/>
  <path class="uuid-8569f15f-71a5-4754-b249-faf676fdbdcf" d="M130.702,220.856c-1.221,2.465-2.2,5.078-2.2,7.937"/>
  <path class="uuid-8569f15f-71a5-4754-b249-faf676fdbdcf" d="M145.115,238.396c0-2.811.975-5.523,2.196-7.966"/>
  <line class="uuid-c28ce709-a576-4f45-bec2-666f817b0149" x1="146.822" y1="227.913" x2="139.249" y2="214.797"/>
  <line class="uuid-c28ce709-a576-4f45-bec2-666f817b0149" x1="155.618" y1="220.783" x2="149.022" y2="209.204"/>
  <line class="uuid-c28ce709-a576-4f45-bec2-666f817b0149" x1="165.387" y1="215.138" x2="158.794" y2="203.56"/>
  <line class="uuid-c28ce709-a576-4f45-bec2-666f817b0149" x1="175.16" y1="209.278" x2="172.717" y2="205.123"/>
  <line class="uuid-c28ce709-a576-4f45-bec2-666f817b0149" x1="184.928" y1="203.633" x2="182.489" y2="199.457"/>
  <line class="uuid-c28ce709-a576-4f45-bec2-666f817b0149" x1="194.701" y1="197.989" x2="192.258" y2="193.814"/>
  <line class="uuid-c28ce709-a576-4f45-bec2-666f817b0149" x1="204.474" y1="192.348" x2="202.031" y2="188.169"/>
  <line class="uuid-c28ce709-a576-4f45-bec2-666f817b0149" x1="214.246" y1="186.704" x2="211.803" y2="182.529"/>
  <line class="uuid-c28ce709-a576-4f45-bec2-666f817b0149" x1="224.015" y1="181.087" x2="221.571" y2="176.884"/>
  <line class="uuid-c28ce709-a576-4f45-bec2-666f817b0149" x1="233.788" y1="175.442" x2="231.344" y2="171.24"/>
  <line class="uuid-c28ce709-a576-4f45-bec2-666f817b0149" x1="243.559" y1="169.802" x2="241.116" y2="165.6"/>
  <line class="uuid-c28ce709-a576-4f45-bec2-666f817b0149" x1="165.876" y1="192.566" x2="157.326" y2="197.5"/>
  <line class="uuid-c28ce709-a576-4f45-bec2-666f817b0149" x1="165.876" y1="179.523" x2="157.326" y2="184.456"/>
  <line class="uuid-c28ce709-a576-4f45-bec2-666f817b0149" x1="165.876" y1="166.475" x2="157.326" y2="171.435"/>
  <line class="uuid-c28ce709-a576-4f45-bec2-666f817b0149" x1="166.61" y1="153.042" x2="157.326" y2="158.417"/>
  <line class="uuid-c28ce709-a576-4f45-bec2-666f817b0149" x1="171.738" y1="143.343" x2="166.61" y2="134.527"/>
  <line class="uuid-c28ce709-a576-4f45-bec2-666f817b0149" x1="180.779" y1="136.356" x2="176.381" y2="128.908"/>
  <line class="uuid-c28ce709-a576-4f45-bec2-666f817b0149" x1="190.305" y1="130.715" x2="186.15" y2="123.265"/>
  <line class="uuid-c28ce709-a576-4f45-bec2-666f817b0149" x1="200.32" y1="125.072" x2="195.922" y2="117.621"/>
  <line class="uuid-c28ce709-a576-4f45-bec2-666f817b0149" x1="210.091" y1="119.406" x2="205.695" y2="111.98"/>
  <line class="uuid-c28ce709-a576-4f45-bec2-666f817b0149" x1="219.617" y1="113.761" x2="215.468" y2="106.362"/>
  <line class="uuid-c28ce709-a576-4f45-bec2-666f817b0149" x1="229.633" y1="108.117" x2="225.236" y2="100.692"/>
  <line class="uuid-c28ce709-a576-4f45-bec2-666f817b0149" x1="239.405" y1="102.476" x2="235.009" y2="95.051"/>
  <line class="uuid-c28ce709-a576-4f45-bec2-666f817b0149" x1="249.178" y1="96.884" x2="244.78" y2="89.456"/>
  <line class="uuid-c28ce709-a576-4f45-bec2-666f817b0149" x1="292.429" y1="149.168" x2="279.647" y2="127.025"/>
  <line class="uuid-c28ce709-a576-4f45-bec2-666f817b0149" x1="260.658" y1="94.267" x2="255.285" y2="85.106"/>
  <line class="uuid-c28ce709-a576-4f45-bec2-666f817b0149" x1="293.636" y1="129.004" x2="269.452" y2="87.038"/>
  <line class="uuid-c28ce709-a576-4f45-bec2-666f817b0149" x1="313.177" y1="119.821" x2="298.522" y2="145.297"/>
  <line class="uuid-c28ce709-a576-4f45-bec2-666f817b0149" x1="294.615" y1="106.579" x2="292.248" y2="110.67"/>
  <line class="uuid-c28ce709-a576-4f45-bec2-666f817b0149" x1="165.876" y1="353.281" x2="158.062" y2="357.773"/>
  <line class="uuid-c28ce709-a576-4f45-bec2-666f817b0149" x1="165.876" y1="340.233" x2="157.326" y2="345.168"/>
  <line class="uuid-c28ce709-a576-4f45-bec2-666f817b0149" x1="165.876" y1="327.191" x2="157.326" y2="332.125"/>
  <line class="uuid-c28ce709-a576-4f45-bec2-666f817b0149" x1="165.876" y1="314.169" x2="157.326" y2="319.103"/>
  <line class="uuid-c28ce709-a576-4f45-bec2-666f817b0149" x1="165.876" y1="301.126" x2="157.326" y2="306.059"/>
  <line class="uuid-c28ce709-a576-4f45-bec2-666f817b0149" x1="164.412" y1="286.249" x2="146.579" y2="255.615"/>
  <line class="uuid-c28ce709-a576-4f45-bec2-666f817b0149" x1="184.196" y1="275.698" x2="154.15" y2="223.59"/>
  <line class="uuid-c28ce709-a576-4f45-bec2-666f817b0149" x1="203.984" y1="264.387" x2="173.695" y2="212.306"/>
  <line class="uuid-c28ce709-a576-4f45-bec2-666f817b0149" x1="223.526" y1="253.124" x2="193.48" y2="201.043"/>
  <line class="uuid-c28ce709-a576-4f45-bec2-666f817b0149" x1="243.07" y1="241.84" x2="213.025" y2="189.759"/>
  <line class="uuid-c28ce709-a576-4f45-bec2-666f817b0149" x1="259.193" y1="224.859" x2="232.565" y2="178.665"/>
  <line class="uuid-c28ce709-a576-4f45-bec2-666f817b0149" x1="258.704" y1="178.691" x2="252.842" y2="168.58"/>
  <line class="uuid-c28ce709-a576-4f45-bec2-666f817b0149" x1="143.403" y1="278.748" x2="133.878" y2="284.197"/>
  <line class="uuid-c28ce709-a576-4f45-bec2-666f817b0149" x1="143.647" y1="265.605" x2="130.212" y2="273.35"/>
  <line class="uuid-c28ce709-a576-4f45-bec2-666f817b0149" x1="143.647" y1="252.587" x2="130.212" y2="260.332"/>
  <line class="uuid-c28ce709-a576-4f45-bec2-666f817b0149" x1="143.647" y1="239.541" x2="130.212" y2="247.286"/>
  <line class="uuid-c28ce709-a576-4f45-bec2-666f817b0149" x1="140.471" y1="228.329" x2="130.212" y2="234.19"/>
</svg>