<?xml version="1.0" encoding="UTF-8"?>
<svg id="uuid-886c7dc7-6150-427b-a980-52ba1b749141" data-name="&amp;lt;Layer&amp;gt;" xmlns="http://www.w3.org/2000/svg" viewBox="0 0 451.11 451.11">
  <defs>
    <style>
      .uuid-47809da1-0a76-4e4d-a5fe-8d7f2126e3ef, .uuid-0696bd85-73bf-493d-9c21-b6b1d4714344, .uuid-a314c29b-7476-43b0-ad14-66277ec6e517 {
        fill: none;
        stroke: #000;
        stroke-linecap: round;
      }

      .uuid-47809da1-0a76-4e4d-a5fe-8d7f2126e3ef, .uuid-a314c29b-7476-43b0-ad14-66277ec6e517 {
        stroke-linejoin: round;
        stroke-width: 4.117px;
      }

      .uuid-0696bd85-73bf-493d-9c21-b6b1d4714344 {
        stroke-miterlimit: 10;
        stroke-width: 1.163px;
      }

      .uuid-a314c29b-7476-43b0-ad14-66277ec6e517 {
        fill-rule: evenodd;
      }
    </style>
  </defs>
  <path class="uuid-a314c29b-7476-43b0-ad14-66277ec6e517" d="M361.265,169.738c.173.121.295.243.393.412.317.347.485.858.485,1.516"/>
  <path class="uuid-a314c29b-7476-43b0-ad14-66277ec6e517" d="M362.143,241.972c0,.953-.341,1.98-.879,2.932-.122.217-.291.437-.511.68-.074.052-.074.122-.074.122"/>
  <polyline class="uuid-a314c29b-7476-43b0-ad14-66277ec6e517" points="319.518 268.989 319.398 268.938 313.753 265.619"/>
  <path class="uuid-a314c29b-7476-43b0-ad14-66277ec6e517" d="M313.753,265.619s-.048,0-.099-.052c-.07,0-.196-.074-.243-.121"/>
  <path class="uuid-a314c29b-7476-43b0-ad14-66277ec6e517" d="M306.449,262.366c-.415,0-.805.1-1.222.295-.415.121-.879.341-1.269.585"/>
  <polyline class="uuid-a314c29b-7476-43b0-ad14-66277ec6e517" points="281.654 278.442 271.028 296.86 270.907 297.033"/>
  <path class="uuid-a314c29b-7476-43b0-ad14-66277ec6e517" d="M270.907,297.033c-.295.511-.585.927-.928,1.269-.345.365-.71.706-1.173.953"/>
  <polyline class="uuid-a314c29b-7476-43b0-ad14-66277ec6e517" points="334.616 232.861 328.117 236.648 296.118 255.114 295.823 255.283 295.187 254.868 284.266 248.616 284.196 248.616"/>
  <polyline class="uuid-a314c29b-7476-43b0-ad14-66277ec6e517" points="310.626 127.061 292.159 137.735 284.66 142.036 284.66 142.109 284.609 142.109"/>
  <path class="uuid-a314c29b-7476-43b0-ad14-66277ec6e517" d="M167.06,273.876v24.379c.125,2.15.49,3.787,2.347,5.056"/>
  <path class="uuid-a314c29b-7476-43b0-ad14-66277ec6e517" d="M223.002,334.261c-1.855-1.269-2.222-2.859-2.322-5.055v-79.272c.173-2.954.931-5.104,2.322-7.647"/>
  <path class="uuid-a314c29b-7476-43b0-ad14-66277ec6e517" d="M169.407,211.264c-1.468,2.615-2.222,4.764-2.347,7.719v21.252"/>
  <polyline class="uuid-a314c29b-7476-43b0-ad14-66277ec6e517" points="313.411 265.446 313.289 265.398 308.767 262.782 308.767 262.782 308.697 262.711 308.697 262.711 308.646 262.661 308.598 262.661 302.664 259.242 302.664 259.242"/>
  <polyline class="uuid-a314c29b-7476-43b0-ad14-66277ec6e517" points="275.546 274.898 275.546 274.898 264.92 293.317 264.798 293.49"/>
  <polyline class="uuid-a314c29b-7476-43b0-ad14-66277ec6e517" points="262.723 295.712 228.281 315.574 228.281 248.881"/>
  <path class="uuid-a314c29b-7476-43b0-ad14-66277ec6e517" d="M228.281,248.881c0-.923.339-1.953.876-2.902.516-.858,1.27-1.664,2.079-2.127"/>
  <path class="uuid-a314c29b-7476-43b0-ad14-66277ec6e517" d="M167.939,274.508c-.291-.243-.56-.463-.879-.632-28.851-20.398-83.276-59.827-86.573-79.515"/>
  <path class="uuid-a314c29b-7476-43b0-ad14-66277ec6e517" d="M80.194,164.119v-.588c0-1.392.124-2.782.415-4.177,1.685-8.598,8.112-16.439,17.59-22.937,9.111-6.277,21.079-11.458,34.149-14.879,25.722-6.74,55.988-6.961,77.292,3.201,20.616,9.869,37.571,10.284,54.01,10.627,9.452.221,18.761.463,28.508,2.369"/>
  <path class="uuid-a314c29b-7476-43b0-ad14-66277ec6e517" d="M245.475,164.631c-2.392,1.049-4.081,1.612-4.935,1.516-33.464-4.254-55.695-30.439-115.91-9.871-10.358,3.543-26.43,11.088-33.979,20.791"/>
  <path class="uuid-a314c29b-7476-43b0-ad14-66277ec6e517" d="M87.695,181.998c3.834,4.717,10.284,10.799,18.173,17.54,2.567,2.273,5.276,4.569,8.134,6.839,1.221,1.004,2.417,2.053,3.712,3.08,2.153,1.759,4.35,3.544,6.62,5.349,2.2,1.807,4.522,3.544,6.843,5.351,2.101,1.612,4.177,3.249,6.277,4.861,1.512,1.173,3.028,2.273,4.518,3.443,2.101,1.615,4.25,3.179,6.402,4.739,3.297,2.517,6.62,4.96,9.869,7.328,2.1,1.516,4.176,3.028,6.107,4.47.928.707,1.855,1.343,2.709,1.981.319.221.662.463.879.632"/>
  <path class="uuid-a314c29b-7476-43b0-ad14-66277ec6e517" d="M110.854,135.244c1.685-.806,3.418-1.637,5.176-2.369,1.737-.758,3.544-1.516,5.401-2.149,1.049-.415,2.101-.806,3.198-1.173"/>
  <polyline class="uuid-a314c29b-7476-43b0-ad14-66277ec6e517" points="284.609 142.109 284.66 142.109 284.66 142.036"/>
  <path class="uuid-a314c29b-7476-43b0-ad14-66277ec6e517" d="M85.543,179.216c0,.048.052.048.052.121.632.806,1.342,1.66,2.1,2.613"/>
  <path class="uuid-a314c29b-7476-43b0-ad14-66277ec6e517" d="M87.695,181.95c-.758-.953-1.468-1.807-2.1-2.613,0-.073-.052-.073-.052-.121-.806-1.053-1.438-2.028-1.975-2.98-2.274-4.055-3.297-8.183-3.373-12.117v-.588c0-1.392.124-2.782.415-4.177,1.685-8.598,8.112-16.439,17.59-22.937,9.111-6.277,21.079-11.458,34.149-14.879,25.722-6.74,55.988-6.961,77.292,3.201,20.616,9.869,37.571,10.284,54.01,10.627,9.452.221,18.761.463,28.508,2.369"/>
  <path class="uuid-a314c29b-7476-43b0-ad14-66277ec6e517" d="M169.04,122.174c-11.822,0-23.964,1.686-35.297,4.64-3.153.831-6.159,1.763-9.113,2.738-1.097.367-2.15.758-3.198,1.173-1.858.633-3.664,1.391-5.401,2.149-1.759.732-3.492,1.563-5.176,2.369-3.469,1.737-6.672,3.664-9.578,5.644-4.982,3.419-8.989,7.131-11.678,11.138-.048.052-.048.121-.096.173-1.807,2.613-2.98,5.419-3.566,8.205-.341,1.833-.393,3.812-.099,5.84v.147c.295,2.37,1.147,4.813,2.491,7.23.515,1.005,1.346,2.175,2.322,3.447,4.886,6.153,14.68,15.097,26.822,25.135,14.706,12.215,32.71,25.796,49.587,38.034,1.637,1.221,3.201,2.395,4.838,3.542"/>
  <polygon class="uuid-a314c29b-7476-43b0-ad14-66277ec6e517" points="187.384 244.536 178.981 239.676 167.939 246.048 176.368 250.861 187.384 244.536"/>
  <polygon class="uuid-a314c29b-7476-43b0-ad14-66277ec6e517" points="176.368 250.861 167.939 246.048 167.939 281.595 176.368 286.404 176.368 250.861"/>
  <polygon class="uuid-a314c29b-7476-43b0-ad14-66277ec6e517" points="187.384 280.004 187.384 244.536 176.368 250.861 176.368 286.404 187.384 280.004"/>
  <path class="uuid-a314c29b-7476-43b0-ad14-66277ec6e517" d="M231.236,320.971c-.81.463-1.564.463-2.079.17-.537-.291-.876-1.001-.876-1.929"/>
  <polyline class="uuid-a314c29b-7476-43b0-ad14-66277ec6e517" points="231.236 243.851 337.57 182.465 356.036 171.838 356.036 171.788 356.209 171.718 359.285 169.981"/>
  <path class="uuid-a314c29b-7476-43b0-ad14-66277ec6e517" d="M359.285,169.981c.81-.463,1.468-.537,1.979-.243.173.121.295.243.393.412.317.347.485.858.485,1.516"/>
  <path class="uuid-a314c29b-7476-43b0-ad14-66277ec6e517" d="M368.594,249.128c-1.395,2.443-3.371,4.592-5.523,5.814-51.93,29.95-81.539,47.099-135.721,78.341-1.611.905-3.127,1.27-4.348.978-.416-.074-.806-.172-1.171-.415-.341-.221-.636-.463-.857-.732-.074,0-.074-.074-.074-.074"/>
  <polyline class="uuid-a314c29b-7476-43b0-ad14-66277ec6e517" points="244.256 285.012 228.281 294.248 228.281 315.574 262.723 295.712"/>
  <path class="uuid-a314c29b-7476-43b0-ad14-66277ec6e517" d="M275.156,275.608c.463-.806.853-1.564,1.39-2.322,1.027-1.343,2.322-2.612,3.812-3.492"/>
  <path class="uuid-a314c29b-7476-43b0-ad14-66277ec6e517" d="M353.082,243.484c.805-.465,1.563-1.27,2.074-2.15.541-.927.88-1.979.88-2.88"/>
  <path class="uuid-a314c29b-7476-43b0-ad14-66277ec6e517" d="M356.036,238.454v-66.667M337.57,182.339v45.416"/>
  <path class="uuid-a314c29b-7476-43b0-ad14-66277ec6e517" d="M203.897,265.91c-4.124-2.396-7.498-8.183-7.498-12.944s3.375-6.672,7.498-4.302c4.129,2.391,7.429,8.183,7.429,12.947s-3.3,6.667-7.429,4.298Z"/>
  <path class="uuid-a314c29b-7476-43b0-ad14-66277ec6e517" d="M203.897,292.905c-4.124-2.374-7.498-8.188-7.498-12.949s3.375-6.67,7.498-4.301c4.129,2.395,7.429,8.135,7.429,12.9s-3.3,6.741-7.429,4.35Z"/>
  <line class="uuid-47809da1-0a76-4e4d-a5fe-8d7f2126e3ef" x1="362.143" y1="171.666" x2="362.143" y2="241.972"/>
  <line class="uuid-47809da1-0a76-4e4d-a5fe-8d7f2126e3ef" x1="360.679" y1="245.706" x2="360.338" y2="246.1"/>
  <line class="uuid-47809da1-0a76-4e4d-a5fe-8d7f2126e3ef" x1="359.237" y1="247.026" x2="321.594" y2="268.768"/>
  <path class="uuid-a314c29b-7476-43b0-ad14-66277ec6e517" d="M321.594,268.768c-.391.221-.806.391-1.097.391"/>
  <line class="uuid-47809da1-0a76-4e4d-a5fe-8d7f2126e3ef" x1="303.958" y1="263.246" x2="286.466" y2="273.334"/>
  <path class="uuid-a314c29b-7476-43b0-ad14-66277ec6e517" d="M286.466,273.334c-.879.541-1.685,1.173-2.491,1.979"/>
  <line class="uuid-47809da1-0a76-4e4d-a5fe-8d7f2126e3ef" x1="283.975" y1="275.314" x2="283.854" y2="275.435"/>
  <path class="uuid-a314c29b-7476-43b0-ad14-66277ec6e517" d="M283.854,275.435c-.81.879-1.564,1.858-2.2,3.006"/>
  <line class="uuid-47809da1-0a76-4e4d-a5fe-8d7f2126e3ef" x1="268.805" y1="299.255" x2="231.236" y2="320.971"/>
  <path class="uuid-a314c29b-7476-43b0-ad14-66277ec6e517" d="M231.236,320.971c-.81.463-1.564.463-2.079.17"/>
  <path class="uuid-a314c29b-7476-43b0-ad14-66277ec6e517" d="M337.57,227.755c-.122,2.1-1.221,4.006-2.954,5.106"/>
  <path class="uuid-a314c29b-7476-43b0-ad14-66277ec6e517" d="M284.196,248.616c-.757-.489-1.563-.589-2.321-.415"/>
  <line class="uuid-47809da1-0a76-4e4d-a5fe-8d7f2126e3ef" x1="281.875" y1="248.201" x2="281.823" y2="248.201"/>
  <line class="uuid-47809da1-0a76-4e4d-a5fe-8d7f2126e3ef" x1="228.281" y1="294.248" x2="244.256" y2="285.012"/>
  <path class="uuid-a314c29b-7476-43b0-ad14-66277ec6e517" d="M244.256,285.012c1.097-.632,1.56-1.27,2.197-2.321"/>
  <line class="uuid-47809da1-0a76-4e4d-a5fe-8d7f2126e3ef" x1="246.454" y1="282.691" x2="257.079" y2="264.276"/>
  <path class="uuid-a314c29b-7476-43b0-ad14-66277ec6e517" d="M257.079,264.276c1.295-2.152,2.686-3.811,4.813-5.106"/>
  <line class="uuid-47809da1-0a76-4e4d-a5fe-8d7f2126e3ef" x1="368.594" y1="157.084" x2="368.641" y2="157.084"/>
  <line class="uuid-47809da1-0a76-4e4d-a5fe-8d7f2126e3ef" x1="369.742" y1="157.475" x2="316.149" y2="126.546"/>
  <path class="uuid-a314c29b-7476-43b0-ad14-66277ec6e517" d="M316.149,126.546c-2.031-1.001-3.618-.463-5.523.515"/>
  <path class="uuid-a314c29b-7476-43b0-ad14-66277ec6e517" d="M284.609,142.109c-.585.343-1.391.854-2.392,1.443"/>
  <line class="uuid-47809da1-0a76-4e4d-a5fe-8d7f2126e3ef" x1="282.216" y1="143.552" x2="246.332" y2="164.215"/>
  <path class="uuid-a314c29b-7476-43b0-ad14-66277ec6e517" d="M246.332,164.215c-.173.122-.343.195-.515.243"/>
  <line class="uuid-47809da1-0a76-4e4d-a5fe-8d7f2126e3ef" x1="245.817" y1="164.458" x2="174.93" y2="205.45"/>
  <path class="uuid-a314c29b-7476-43b0-ad14-66277ec6e517" d="M174.93,205.45c-2.569,1.637-3.959,3.249-5.523,5.814"/>
  <line class="uuid-47809da1-0a76-4e4d-a5fe-8d7f2126e3ef" x1="169.407" y1="211.264" x2="221.953" y2="241.629"/>
  <line class="uuid-47809da1-0a76-4e4d-a5fe-8d7f2126e3ef" x1="169.407" y1="303.31" x2="220.9" y2="333.04"/>
  <path class="uuid-a314c29b-7476-43b0-ad14-66277ec6e517" d="M220.9,333.04s0,.074.074.074"/>
  <line class="uuid-47809da1-0a76-4e4d-a5fe-8d7f2126e3ef" x1="220.974" y1="333.114" x2="223.002" y2="334.261"/>
  <path class="uuid-a314c29b-7476-43b0-ad14-66277ec6e517" d="M355.156,241.287c-.511.928-1.27,1.733-2.074,2.198"/>
  <line class="uuid-47809da1-0a76-4e4d-a5fe-8d7f2126e3ef" x1="353.082" y1="243.484" x2="315.511" y2="265.226"/>
  <path class="uuid-a314c29b-7476-43b0-ad14-66277ec6e517" d="M302.664,259.242c-.637-.415-1.395-.536-2.201-.463"/>
  <line class="uuid-47809da1-0a76-4e4d-a5fe-8d7f2126e3ef" x1="300.462" y1="258.778" x2="300.342" y2="258.778"/>
  <path class="uuid-a314c29b-7476-43b0-ad14-66277ec6e517" d="M300.342,258.778c-.806.096-1.612.391-2.491.902"/>
  <line class="uuid-47809da1-0a76-4e4d-a5fe-8d7f2126e3ef" x1="297.851" y1="259.681" x2="280.359" y2="269.795"/>
  <path class="uuid-a314c29b-7476-43b0-ad14-66277ec6e517" d="M280.359,269.795c-.854.537-1.733,1.173-2.491,1.976"/>
  <line class="uuid-47809da1-0a76-4e4d-a5fe-8d7f2126e3ef" x1="277.868" y1="271.77" x2="277.768" y2="271.896"/>
  <path class="uuid-a314c29b-7476-43b0-ad14-66277ec6e517" d="M277.768,271.896c-.827.878-1.585,1.854-2.222,3.002"/>
  <path class="uuid-a314c29b-7476-43b0-ad14-66277ec6e517" d="M264.798,293.49c-.295.537-.636.928-.927,1.27"/>
  <line class="uuid-47809da1-0a76-4e4d-a5fe-8d7f2126e3ef" x1="80.488" y1="194.36" x2="80.194" y2="164.119"/>
  <line class="uuid-47809da1-0a76-4e4d-a5fe-8d7f2126e3ef" x1="169.04" y1="122.174" x2="169.112" y2="122.174"/>
  <path class="uuid-a314c29b-7476-43b0-ad14-66277ec6e517" d="M169.112,122.174c.979,0,1.907,0,2.834.048"/>
  <line class="uuid-47809da1-0a76-4e4d-a5fe-8d7f2126e3ef" x1="228.281" y1="319.212" x2="228.281" y2="248.959"/>
  <line class="uuid-47809da1-0a76-4e4d-a5fe-8d7f2126e3ef" x1="221.953" y1="241.629" x2="223.002" y2="242.215"/>
  <path class="uuid-a314c29b-7476-43b0-ad14-66277ec6e517" d="M223.002,242.215c1.563-2.539,2.958-4.177,5.522-5.814"/>
  <line class="uuid-47809da1-0a76-4e4d-a5fe-8d7f2126e3ef" x1="228.523" y1="236.401" x2="364.223" y2="158.06"/>
  <path class="uuid-a314c29b-7476-43b0-ad14-66277ec6e517" d="M364.223,158.06c1.512-.806,2.856-1.269,4.372-.976"/>
  <path class="uuid-a314c29b-7476-43b0-ad14-66277ec6e517" d="M368.641,157.084c1.395.88,2.274,2.613,2.274,5.056"/>
  <line class="uuid-47809da1-0a76-4e4d-a5fe-8d7f2126e3ef" x1="370.915" y1="162.14" x2="370.915" y2="241.409"/>
  <path class="uuid-a314c29b-7476-43b0-ad14-66277ec6e517" d="M370.915,241.409c0,2.443-.879,5.228-2.274,7.671"/>
  <line class="uuid-47809da1-0a76-4e4d-a5fe-8d7f2126e3ef" x1="368.641" y1="249.08" x2="368.594" y2="249.128"/>
  <line class="uuid-47809da1-0a76-4e4d-a5fe-8d7f2126e3ef" x1="281.875" y1="248.127" x2="261.892" y2="259.117"/>
  <path class="uuid-a314c29b-7476-43b0-ad14-66277ec6e517" d="M297.851,259.681c1.442-.806,3.249-1.392,4.813-.439"/>
  <path class="uuid-a314c29b-7476-43b0-ad14-66277ec6e517" d="M211.326,131.484c5.81,2.525,12.598,4.831,18.761,6.155,6.553,1.207,12.436,2.246,19.15,2.613,11.609.81,23.795.132,35.371,1.857"/>
  <path class="uuid-a314c29b-7476-43b0-ad14-66277ec6e517" d="M211.326,131.484c-1.342-.542-2.664-1.173-4.007-1.807-10.114-4.886-22.474-7.208-35.373-7.454-.927-.048-1.855-.048-2.834-.048"/>
  <line class="uuid-0696bd85-73bf-493d-9c21-b6b1d4714344" x1="249.607" y1="308.071" x2="247.381" y2="306.802"/>
  <line class="uuid-0696bd85-73bf-493d-9c21-b6b1d4714344" x1="270.392" y1="294.027" x2="267.658" y2="292.438"/>
  <line class="uuid-0696bd85-73bf-493d-9c21-b6b1d4714344" x1="281.948" y1="274.608" x2="279.332" y2="273.117"/>
  <line class="uuid-0696bd85-73bf-493d-9c21-b6b1d4714344" x1="341.234" y1="255.114" x2="339.086" y2="253.893"/>
  <line class="uuid-0696bd85-73bf-493d-9c21-b6b1d4714344" x1="360.095" y1="240.017" x2="357.942" y2="238.723"/>
  <line class="uuid-0696bd85-73bf-493d-9c21-b6b1d4714344" x1="360.095" y1="213.927" x2="358.016" y2="212.706"/>
  <line class="uuid-0696bd85-73bf-493d-9c21-b6b1d4714344" x1="360.095" y1="187.862" x2="358.016" y2="186.641"/>
  <line class="uuid-0696bd85-73bf-493d-9c21-b6b1d4714344" x1="237.977" y1="286.823" x2="230.088" y2="273.117"/>
  <line class="uuid-0696bd85-73bf-493d-9c21-b6b1d4714344" x1="246.917" y1="279.615" x2="229.793" y2="250.055"/>
  <line class="uuid-0696bd85-73bf-493d-9c21-b6b1d4714344" x1="253.367" y1="268.231" x2="237.756" y2="241.239"/>
  <line class="uuid-0696bd85-73bf-493d-9c21-b6b1d4714344" x1="260.744" y1="258.411" x2="247.627" y2="235.717"/>
  <line class="uuid-0696bd85-73bf-493d-9c21-b6b1d4714344" x1="270.612" y1="252.966" x2="257.374" y2="230.076"/>
  <line class="uuid-0696bd85-73bf-493d-9c21-b6b1d4714344" x1="280.48" y1="247.491" x2="267.195" y2="224.432"/>
  <line class="uuid-0696bd85-73bf-493d-9c21-b6b1d4714344" x1="297.093" y1="253.646" x2="276.719" y2="218.398"/>
  <line class="uuid-0696bd85-73bf-493d-9c21-b6b1d4714344" x1="306.865" y1="248.027" x2="286.466" y2="212.706"/>
  <line class="uuid-0696bd85-73bf-493d-9c21-b6b1d4714344" x1="316.612" y1="242.387" x2="296.287" y2="207.087"/>
  <line class="uuid-0696bd85-73bf-493d-9c21-b6b1d4714344" x1="326.431" y1="236.692" x2="306.034" y2="201.443"/>
  <line class="uuid-0696bd85-73bf-493d-9c21-b6b1d4714344" x1="335.763" y1="230.367" x2="315.854" y2="195.824"/>
  <line class="uuid-0696bd85-73bf-493d-9c21-b6b1d4714344" x1="335.837" y1="207.893" x2="325.968" y2="190.77"/>
  <line class="uuid-0696bd85-73bf-493d-9c21-b6b1d4714344" x1="236.244" y1="309.05" x2="230.135" y2="298.425"/>
  <line class="uuid-0696bd85-73bf-493d-9c21-b6b1d4714344" x1="246.111" y1="303.479" x2="238.392" y2="290.168"/>
  <line class="uuid-0696bd85-73bf-493d-9c21-b6b1d4714344" x1="255.858" y1="297.861" x2="247.675" y2="283.622"/>
  <line class="uuid-0696bd85-73bf-493d-9c21-b6b1d4714344" x1="264.75" y1="290.657" x2="254.125" y2="272.237"/>
  <line class="uuid-0696bd85-73bf-493d-9c21-b6b1d4714344" x1="271.248" y1="279.321" x2="260.988" y2="261.49"/>
  <line class="uuid-0696bd85-73bf-493d-9c21-b6b1d4714344" x1="278.453" y1="269.207" x2="270.785" y2="255.968"/>
  <line class="uuid-0696bd85-73bf-493d-9c21-b6b1d4714344" x1="288.152" y1="263.467" x2="280.726" y2="250.57"/>
  <line class="uuid-0696bd85-73bf-493d-9c21-b6b1d4714344" x1="297.729" y1="257.483" x2="297.335" y2="256.726"/>
  <line class="uuid-0696bd85-73bf-493d-9c21-b6b1d4714344" x1="314.511" y1="263.934" x2="306.865" y2="250.644"/>
  <line class="uuid-0696bd85-73bf-493d-9c21-b6b1d4714344" x1="324.331" y1="258.363" x2="316.612" y2="244.999"/>
  <line class="uuid-0696bd85-73bf-493d-9c21-b6b1d4714344" x1="334.1" y1="252.719" x2="326.431" y2="239.355"/>
  <line class="uuid-0696bd85-73bf-493d-9c21-b6b1d4714344" x1="343.847" y1="247.026" x2="336.127" y2="233.689"/>
  <line class="uuid-0696bd85-73bf-493d-9c21-b6b1d4714344" x1="353.666" y1="241.409" x2="339.134" y2="216.25"/>
  <line class="uuid-0696bd85-73bf-493d-9c21-b6b1d4714344" x1="354.476" y1="220.205" x2="339.086" y2="193.602"/>
  <line class="uuid-0696bd85-73bf-493d-9c21-b6b1d4714344" x1="354.303" y1="197.314" x2="344.362" y2="180.143"/>
  <line class="uuid-0696bd85-73bf-493d-9c21-b6b1d4714344" x1="269.806" y1="137.514" x2="269.048" y2="138.86"/>
  <line class="uuid-0696bd85-73bf-493d-9c21-b6b1d4714344" x1="244.353" y1="136.417" x2="243.546" y2="137.735"/>
  <line class="uuid-0696bd85-73bf-493d-9c21-b6b1d4714344" x1="221.073" y1="131.532" x2="220.389" y2="132.801"/>
  <line class="uuid-0696bd85-73bf-493d-9c21-b6b1d4714344" x1="159.929" y1="237.522" x2="159.245" y2="238.723"/>
  <line class="uuid-0696bd85-73bf-493d-9c21-b6b1d4714344" x1="199.894" y1="123.054" x2="199.184" y2="124.276"/>
  <line class="uuid-0696bd85-73bf-493d-9c21-b6b1d4714344" x1="141.705" y1="223.869" x2="140.995" y2="225.138"/>
  <line class="uuid-0696bd85-73bf-493d-9c21-b6b1d4714344" x1="176.248" y1="118.925" x2="175.442" y2="120.321"/>
  <line class="uuid-0696bd85-73bf-493d-9c21-b6b1d4714344" x1="123.75" y1="209.872" x2="122.992" y2="211.142"/>
  <line class="uuid-0696bd85-73bf-493d-9c21-b6b1d4714344" x1="149.472" y1="120.1" x2="148.546" y2="121.711"/>
  <line class="uuid-0696bd85-73bf-493d-9c21-b6b1d4714344" x1="106.162" y1="195.166" x2="105.405" y2="196.461"/>
  <line class="uuid-0696bd85-73bf-493d-9c21-b6b1d4714344" x1="118.864" y1="127.94" x2="117.767" y2="129.92"/>
  <line class="uuid-0696bd85-73bf-493d-9c21-b6b1d4714344" x1="89.502" y1="178.848" x2="88.796" y2="180.07"/>
  <line class="uuid-0696bd85-73bf-493d-9c21-b6b1d4714344" x1="201.97" y1="320.481" x2="181.133" y2="284.428"/>
  <line class="uuid-0696bd85-73bf-493d-9c21-b6b1d4714344" x1="218.825" y1="304.532" x2="212.033" y2="292.732"/>
  <line class="uuid-0696bd85-73bf-493d-9c21-b6b1d4714344" x1="200.749" y1="273.214" x2="189.095" y2="253.087"/>
  <line class="uuid-0696bd85-73bf-493d-9c21-b6b1d4714344" x1="180.839" y1="238.796" x2="168.771" y2="217.834"/>
  <line class="uuid-0696bd85-73bf-493d-9c21-b6b1d4714344" x1="219.094" y1="259.875" x2="203.36" y2="232.64"/>
  <line class="uuid-0696bd85-73bf-493d-9c21-b6b1d4714344" x1="182.573" y1="244.952" x2="181.767" y2="243.608"/>
  <line class="uuid-0696bd85-73bf-493d-9c21-b6b1d4714344" x1="174.441" y1="281.179" x2="169.846" y2="273.166"/>
  <line class="uuid-0696bd85-73bf-493d-9c21-b6b1d4714344" x1="174.441" y1="258.532" x2="169.846" y2="250.57"/>
  <line class="uuid-0696bd85-73bf-493d-9c21-b6b1d4714344" x1="94.705" y1="170.566" x2="88.038" y2="159.061"/>
  <line class="uuid-0696bd85-73bf-493d-9c21-b6b1d4714344" x1="104.062" y1="164.167" x2="94.779" y2="148.093"/>
  <line class="uuid-0696bd85-73bf-493d-9c21-b6b1d4714344" x1="114.103" y1="158.939" x2="103.671" y2="140.888"/>
  <line class="uuid-0696bd85-73bf-493d-9c21-b6b1d4714344" x1="124.677" y1="154.763" x2="113.54" y2="135.417"/>
  <line class="uuid-0696bd85-73bf-493d-9c21-b6b1d4714344" x1="135.845" y1="151.466" x2="124.045" y2="131.068"/>
  <line class="uuid-0696bd85-73bf-493d-9c21-b6b1d4714344" x1="147.397" y1="148.898" x2="135.181" y2="127.767"/>
  <line class="uuid-0696bd85-73bf-493d-9c21-b6b1d4714344" x1="159.588" y1="147.459" x2="146.813" y2="125.328"/>
  <line class="uuid-0696bd85-73bf-493d-9c21-b6b1d4714344" x1="172.535" y1="147.313" x2="158.95" y2="123.812"/>
  <line class="uuid-0696bd85-73bf-493d-9c21-b6b1d4714344" x1="186.652" y1="149.118" x2="171.777" y2="123.396"/>
  <line class="uuid-0696bd85-73bf-493d-9c21-b6b1d4714344" x1="202.091" y1="153.299" x2="185.431" y2="124.496"/>
  <line class="uuid-0696bd85-73bf-493d-9c21-b6b1d4714344" x1="218.457" y1="159.109" x2="200.697" y2="128.283"/>
  <line class="uuid-0696bd85-73bf-493d-9c21-b6b1d4714344" x1="234.142" y1="163.704" x2="217.824" y2="135.487"/>
  <line class="uuid-0696bd85-73bf-493d-9c21-b6b1d4714344" x1="246.575" y1="162.651" x2="233.336" y2="139.714"/>
  <line class="uuid-0696bd85-73bf-493d-9c21-b6b1d4714344" x1="256.225" y1="156.743" x2="247.503" y2="141.694"/>
  <line class="uuid-0696bd85-73bf-493d-9c21-b6b1d4714344" x1="265.847" y1="150.877" x2="261.038" y2="142.5"/>
  <line class="uuid-0696bd85-73bf-493d-9c21-b6b1d4714344" x1="275.498" y1="145.017" x2="274.449" y2="143.132"/>
  <line class="uuid-0696bd85-73bf-493d-9c21-b6b1d4714344" x1="101.986" y1="220.793" x2="81.757" y2="185.834"/>
  <line class="uuid-0696bd85-73bf-493d-9c21-b6b1d4714344" x1="127.929" y1="243.193" x2="101.866" y2="198.072"/>
  <line class="uuid-0696bd85-73bf-493d-9c21-b6b1d4714344" x1="151.062" y1="260.681" x2="126.778" y2="218.592"/>
  <line class="uuid-0696bd85-73bf-493d-9c21-b6b1d4714344" x1="166.427" y1="264.64" x2="150.23" y2="236.57"/>
  <line class="uuid-0696bd85-73bf-493d-9c21-b6b1d4714344" x1="204.998" y1="278.688" x2="200.358" y2="286.745"/>
  <line class="uuid-0696bd85-73bf-493d-9c21-b6b1d4714344" x1="204.924" y1="251.693" x2="200.285" y2="259.633"/>
</svg>