<?xml version="1.0" encoding="UTF-8"?>
<svg id="uuid-3648e91a-d263-4813-86a5-7616f469c854" data-name="&amp;lt;Layer&amp;gt;" xmlns="http://www.w3.org/2000/svg" viewBox="0 0 451.11 451.11">
  <defs>
    <style>
      .uuid-93f2a6d3-945f-4b8d-bcb9-7392df622c0e, .uuid-05ed03eb-d77d-406f-b4c4-a18cba291c4d, .uuid-2233c2de-f2b7-4f9c-a9bd-1cd8fc505411 {
        fill: none;
        stroke: #000;
        stroke-linecap: round;
      }

      .uuid-93f2a6d3-945f-4b8d-bcb9-7392df622c0e, .uuid-2233c2de-f2b7-4f9c-a9bd-1cd8fc505411 {
        stroke-linejoin: round;
        stroke-width: 4.117px;
      }

      .uuid-05ed03eb-d77d-406f-b4c4-a18cba291c4d {
        stroke-miterlimit: 10;
        stroke-width: 1.163px;
      }

      .uuid-2233c2de-f2b7-4f9c-a9bd-1cd8fc505411 {
        fill-rule: evenodd;
      }
    </style>
  </defs>
  <polyline class="uuid-2233c2de-f2b7-4f9c-a9bd-1cd8fc505411" points="258.227 115.643 248.065 121.699 248.065 133.399"/>
  <path class="uuid-2233c2de-f2b7-4f9c-a9bd-1cd8fc505411" d="M202.924,173.78c13.606-18.371,27.139-36.739,40.72-55.109.758-1.027,1.858-2.443,3.249-2.174"/>
  <path class="uuid-2233c2de-f2b7-4f9c-a9bd-1cd8fc505411" d="M296.652,154.092c0,1.075-.465,2.391-1.318,3.466-1.221,1.564-2.86,1.979-3.544.953-1.807-2.517-6.277-3.127-11.579-2.586-6.593.706-14.265,3.249-19.54,6.276"/>
  <polyline class="uuid-2233c2de-f2b7-4f9c-a9bd-1cd8fc505411" points="260.672 162.201 248.065 169.504 248.065 184.649"/>
  <path class="uuid-2233c2de-f2b7-4f9c-a9bd-1cd8fc505411" d="M248.065,184.649c0,.562-.169,1.221-.463,1.906-.832,1.859-2.443,3.175-3.617,2.932"/>
  <path class="uuid-2233c2de-f2b7-4f9c-a9bd-1cd8fc505411" d="M243.764,118.45c.467-.685,1.027-1.244,1.69-1.612,1.438-.831,2.612-.173,2.612,1.512"/>
  <polyline class="uuid-2233c2de-f2b7-4f9c-a9bd-1cd8fc505411" points="248.065 118.35 248.065 133.399 268.265 121.43"/>
  <polyline class="uuid-2233c2de-f2b7-4f9c-a9bd-1cd8fc505411" points="152.064 319.443 151.549 302.761 151.549 302.761"/>
  <path class="uuid-2233c2de-f2b7-4f9c-a9bd-1cd8fc505411" d="M151.549,302.761c0-1.075.467-2.396,1.32-3.469,1.221-1.538,2.859-1.98,3.543-.928,1.807,2.491,6.277,3.102,11.579,2.565,6.619-.684,14.338-3.249,19.566-6.277"/>
  <polyline class="uuid-2233c2de-f2b7-4f9c-a9bd-1cd8fc505411" points="187.558 294.651 200.212 287.369 200.212 272.226"/>
  <path class="uuid-2233c2de-f2b7-4f9c-a9bd-1cd8fc505411" d="M200.212,272.226c0-.585.095-1.247.389-1.954.832-1.833,2.443-3.128,3.664-2.907"/>
  <path class="uuid-2233c2de-f2b7-4f9c-a9bd-1cd8fc505411" d="M246.892,275.89c.247.048.515.195.71.417.806.901.463,2.98-.71,4.591"/>
  <path class="uuid-2233c2de-f2b7-4f9c-a9bd-1cd8fc505411" d="M204.436,338.403c-.463.68-1.023,1.269-1.612,1.611-1.464.832-2.612.17-2.612-1.515"/>
  <polyline class="uuid-2233c2de-f2b7-4f9c-a9bd-1cd8fc505411" points="200.212 338.499 200.212 323.45 179.983 335.419"/>
  <path class="uuid-2233c2de-f2b7-4f9c-a9bd-1cd8fc505411" d="M346.485,245.376c-.343-.169-.706-.411-1.049-.584-5.692-3.371-12.948-8.305-19.614-11.385"/>
  <path class="uuid-2233c2de-f2b7-4f9c-a9bd-1cd8fc505411" d="M332.563,177.883c-6.229-3.566-20.105-12.823-25.722-13.533-27.776-3.444-57.969,56.479-34.517,70.67"/>
  <path class="uuid-2233c2de-f2b7-4f9c-a9bd-1cd8fc505411" d="M340.793,196.107c0-8.963-3.201-15.292-8.231-18.224-5.13-2.93-12.143-2.491-19.935,1.979-7.767,4.496-14.802,12.19-19.858,21.009-5.106,8.819-8.231,18.76-8.231,27.724s3.124,15.268,8.231,18.202c17.661,10.21,48.023-21.841,48.023-50.691Z"/>
  <path class="uuid-2233c2de-f2b7-4f9c-a9bd-1cd8fc505411" d="M192.713,217.678c-.343-.247-.688-.415-1.053-.588-5.74-3.419-13.07-8.305-19.662-11.385"/>
  <path class="uuid-2233c2de-f2b7-4f9c-a9bd-1cd8fc505411" d="M178.713,150.207c-6.203-3.592-20.031-12.849-25.722-13.559-27.75-3.444-57.895,56.479-34.49,70.674"/>
  <path class="uuid-2233c2de-f2b7-4f9c-a9bd-1cd8fc505411" d="M186.974,168.405c0-8.963-3.154-15.266-8.261-18.198-5.104-2.956-12.141-2.517-19.858,1.953-7.77,4.496-14.805,12.19-19.909,21.009-5.132,8.819-8.257,18.76-8.257,27.727s3.124,15.292,8.257,18.221c17.66,10.188,48.027-21.863,48.027-50.713Z"/>
  <polyline class="uuid-2233c2de-f2b7-4f9c-a9bd-1cd8fc505411" points="200.212 338.499 200.212 323.45 190.149 329.388"/>
  <polyline class="uuid-2233c2de-f2b7-4f9c-a9bd-1cd8fc505411" points="237.244 270.246 247.233 275.986 247.187 275.986 247.139 275.964 247.139 275.938 247.065 275.938 246.944 275.916 246.944 275.89 246.892 275.89 246.892 275.89 204.266 267.365"/>
  <path class="uuid-2233c2de-f2b7-4f9c-a9bd-1cd8fc505411" d="M200.212,287.369c-7.793,4.446-13.658,8.405-21.889,11.311-5.886,1.737-11.332,2.98-17.44,2.101-1.663-.443-3.373-.906-4.47-2.418-.389-.658-1.221-.732-2.031-.319-.584.293-1.096.761-1.512,1.247-.389.514-.758,1.147-.975,1.737-.295.732-.345,1.342-.295,2.096"/>
  <path class="uuid-2233c2de-f2b7-4f9c-a9bd-1cd8fc505411" d="M150.621,331.658c-3.907-2.686-5.298-4.813-7.082-9.209-.954-3.297-1.221-5.372-1.468-8.768"/>
  <path class="uuid-2233c2de-f2b7-4f9c-a9bd-1cd8fc505411" d="M141.559,297.411c-.048-1.59.341-2.613,1.342-3.885.806-.954,1.907-1.929,3.227-1.269,5.766,3.322,5.641,3.37,11.87,2.884,7.304-.979,13.046-2.786,19.493-6.255"/>
  <polyline class="uuid-2233c2de-f2b7-4f9c-a9bd-1cd8fc505411" points="177.492 288.885 190.149 281.582 190.149 266.534"/>
  <line class="uuid-93f2a6d3-945f-4b8d-bcb9-7392df622c0e" x1="248.065" y1="133.399" x2="268.265" y2="121.43"/>
  <path class="uuid-2233c2de-f2b7-4f9c-a9bd-1cd8fc505411" d="M268.265,121.43c5.744-3.397,13.169-5.619,19.325-2.028"/>
  <line class="uuid-93f2a6d3-945f-4b8d-bcb9-7392df622c0e" x1="287.589" y1="119.403" x2="277.622" y2="113.637"/>
  <path class="uuid-2233c2de-f2b7-4f9c-a9bd-1cd8fc505411" d="M277.622,113.637c-7.256-3.418-12.602-1.586-19.395,2.005"/>
  <line class="uuid-93f2a6d3-945f-4b8d-bcb9-7392df622c0e" x1="247.307" y1="116.665" x2="237.244" y2="110.878"/>
  <path class="uuid-2233c2de-f2b7-4f9c-a9bd-1cd8fc505411" d="M237.244,110.878c-1.442-.563-2.664.684-3.47,1.785"/>
  <line class="uuid-93f2a6d3-945f-4b8d-bcb9-7392df622c0e" x1="233.774" y1="112.662" x2="191.318" y2="170.164"/>
  <path class="uuid-2233c2de-f2b7-4f9c-a9bd-1cd8fc505411" d="M191.318,170.164c-.805,1.221-1.98,3.885-.341,4.886"/>
  <line class="uuid-93f2a6d3-945f-4b8d-bcb9-7392df622c0e" x1="190.977" y1="175.049" x2="200.896" y2="180.793"/>
  <path class="uuid-2233c2de-f2b7-4f9c-a9bd-1cd8fc505411" d="M200.896,180.793c-1.442-1.031-.467-3.642.463-4.839"/>
  <line class="uuid-93f2a6d3-945f-4b8d-bcb9-7392df622c0e" x1="201.359" y1="175.954" x2="202.924" y2="173.78"/>
  <path class="uuid-2233c2de-f2b7-4f9c-a9bd-1cd8fc505411" d="M287.589,119.403c5.132,2.932,8.257,9.235,8.551,18.003"/>
  <line class="uuid-93f2a6d3-945f-4b8d-bcb9-7392df622c0e" x1="296.141" y1="137.406" x2="296.652" y2="154.092"/>
  <line class="uuid-93f2a6d3-945f-4b8d-bcb9-7392df622c0e" x1="243.984" y1="189.487" x2="201.359" y2="180.984"/>
  <path class="uuid-2233c2de-f2b7-4f9c-a9bd-1cd8fc505411" d="M160.614,337.45c-5.058-2.933-8.257-9.235-8.55-18.007"/>
  <line class="uuid-93f2a6d3-945f-4b8d-bcb9-7392df622c0e" x1="246.892" y1="280.897" x2="204.436" y2="338.403"/>
  <path class="uuid-2233c2de-f2b7-4f9c-a9bd-1cd8fc505411" d="M179.983,335.419c-7.643,4.522-14.387,4.912-19.369,2.031"/>
  <path class="uuid-2233c2de-f2b7-4f9c-a9bd-1cd8fc505411" d="M284.708,242.179c-22.426,17.147-38.111,46.07-40.186,73.746"/>
  <line class="uuid-93f2a6d3-945f-4b8d-bcb9-7392df622c0e" x1="244.522" y1="315.925" x2="264.946" y2="327.725"/>
  <line class="uuid-93f2a6d3-945f-4b8d-bcb9-7392df622c0e" x1="272.324" y1="235.02" x2="292.77" y2="246.798"/>
  <line class="uuid-93f2a6d3-945f-4b8d-bcb9-7392df622c0e" x1="264.946" y1="327.725" x2="360.359" y2="272.615"/>
  <path class="uuid-2233c2de-f2b7-4f9c-a9bd-1cd8fc505411" d="M360.359,272.615c-.754-13.264-5.908-22.668-13.874-27.239"/>
  <path class="uuid-2233c2de-f2b7-4f9c-a9bd-1cd8fc505411" d="M130.859,214.478c-22.4,17.147-38.033,46.121-40.108,73.772"/>
  <line class="uuid-93f2a6d3-945f-4b8d-bcb9-7392df622c0e" x1="90.75" y1="288.249" x2="111.196" y2="300.023"/>
  <line class="uuid-93f2a6d3-945f-4b8d-bcb9-7392df622c0e" x1="118.5" y1="207.322" x2="138.946" y2="219.118"/>
  <line class="uuid-93f2a6d3-945f-4b8d-bcb9-7392df622c0e" x1="111.12" y1="300.023" x2="206.588" y2="244.939"/>
  <path class="uuid-2233c2de-f2b7-4f9c-a9bd-1cd8fc505411" d="M206.588,244.939c-.809-13.29-5.986-22.668-13.926-27.261"/>
  <line class="uuid-93f2a6d3-945f-4b8d-bcb9-7392df622c0e" x1="190.149" y1="329.388" x2="190.149" y2="332.733"/>
  <path class="uuid-2233c2de-f2b7-4f9c-a9bd-1cd8fc505411" d="M190.149,332.733c.07.809.121,1.147.78,1.685"/>
  <line class="uuid-93f2a6d3-945f-4b8d-bcb9-7392df622c0e" x1="190.929" y1="334.418" x2="200.97" y2="340.21"/>
  <path class="uuid-2233c2de-f2b7-4f9c-a9bd-1cd8fc505411" d="M200.97,340.21c-.589-.343-.758-1.075-.758-1.711"/>
  <line class="uuid-93f2a6d3-945f-4b8d-bcb9-7392df622c0e" x1="200.212" y1="272.322" x2="200.212" y2="287.369"/>
  <line class="uuid-93f2a6d3-945f-4b8d-bcb9-7392df622c0e" x1="160.614" y1="337.45" x2="150.621" y2="331.658"/>
  <line class="uuid-93f2a6d3-945f-4b8d-bcb9-7392df622c0e" x1="142.071" y1="313.681" x2="141.559" y2="297.411"/>
  <path class="uuid-2233c2de-f2b7-4f9c-a9bd-1cd8fc505411" d="M190.149,266.534c0-2.053,1.755-5.034,4.077-4.935"/>
  <line class="uuid-93f2a6d3-945f-4b8d-bcb9-7392df622c0e" x1="194.226" y1="261.599" x2="236.851" y2="270.098"/>
  <line class="uuid-93f2a6d3-945f-4b8d-bcb9-7392df622c0e" x1="201.65" y1="268.682" x2="191.613" y2="262.894"/>
  <line class="uuid-93f2a6d3-945f-4b8d-bcb9-7392df622c0e" x1="152.869" y1="299.291" x2="142.901" y2="293.526"/>
  <path class="uuid-2233c2de-f2b7-4f9c-a9bd-1cd8fc505411" d="M264.946,327.725c.585-7.256,2.053-14.634,4.298-21.838.074-.243.196-.463.243-.684.467-1.516,1.053-3.032,1.616-4.544.121-.295.169-.512.363-.758.563-1.685,1.273-3.297,2.027-4.934.758-1.785,1.564-3.591,2.543-5.324.88-1.759,1.807-3.496,2.86-5.228,1.805-3.201,3.76-6.277,5.908-9.257,1.001-1.442,2.053-2.836,3.201-4.228,1.931-2.491,3.959-4.886,6.108-7.083,2.832-3.027,5.86-5.812,8.989-8.355,3.079-2.491,6.28-4.713,9.577-6.741,1.049-.637,2.101-1.151,3.15-1.685.684-.295,1.342-.637,2.028-.932.758-.341,1.563-.706,2.395-1.048,5.788-2.322,11.479-3.297,16.66-2.737.511.073,1.049.121,1.564.243.585.051,1.097.173,1.637.345.391.122.806.17,1.223.291.047,0,.095,0,.169.052.512.121,1.049.291,1.49.533.122-.07.243,0,.295.125.363.096.754.295,1.095.463.074-.073.126-.073.2.048.289.122.558.221.853.343"/>
  <path class="uuid-2233c2de-f2b7-4f9c-a9bd-1cd8fc505411" d="M111.196,300.023c.56-7.963,2.296-16.024,4.982-23.917.979-2.976,2.149-5.882,3.47-8.768.754-1.805,1.638-3.612,2.565-5.349.88-1.807,1.807-3.543,2.834-5.228.879-1.638,1.88-3.249,2.932-4.761.854-1.442,1.833-2.837,2.833-4.228.169-.243.291-.415.415-.585.684-1.001,1.39-2.031,2.196-2.954,2.37-3.153,4.887-6.06,7.502-8.724,1.391-1.391,2.782-2.785,4.176-4.055,4.298-3.959,8.942-7.45,13.754-10.405,1.049-.637,2.15-1.149,3.15-1.685.684-.295,1.32-.637,2.028-.928,1.615-.758,3.249-1.394,4.86-1.909.71-.243,1.395-.485,2.053-.658.684-.218,1.318-.391,2.028-.511.511-.122.979-.221,1.442-.295,3.028-.585,5.935-.706,8.72-.415.511.073,1.053.125,1.564.245.585.048,1.099.17,1.637.343.391.122.806.243,1.221.291.048,0,.096,0,.17.052.511.121,1.027.291,1.49.537.121-.074.243,0,.319.121.343.1.732.291,1.075.463.07-.073.122-.073.192.048.297.122.562.221.857.343"/>
  <line class="uuid-05ed03eb-d77d-406f-b4c4-a18cba291c4d" x1="174.706" y1="297.679" x2="169.309" y2="294.552"/>
  <line class="uuid-05ed03eb-d77d-406f-b4c4-a18cba291c4d" x1="187.997" y1="292.282" x2="181.667" y2="288.639"/>
  <line class="uuid-05ed03eb-d77d-406f-b4c4-a18cba291c4d" x1="198.405" y1="285.269" x2="192.076" y2="281.604"/>
  <line class="uuid-05ed03eb-d77d-406f-b4c4-a18cba291c4d" x1="198.405" y1="272.226" x2="192.076" y2="268.586"/>
  <line class="uuid-05ed03eb-d77d-406f-b4c4-a18cba291c4d" x1="231.969" y1="273.054" x2="201.311" y2="326.187"/>
  <line class="uuid-05ed03eb-d77d-406f-b4c4-a18cba291c4d" x1="207.759" y1="269.783" x2="202.117" y2="279.602"/>
  <line class="uuid-05ed03eb-d77d-406f-b4c4-a18cba291c4d" x1="195.104" y1="291.719" x2="167.992" y2="338.694"/>
  <line class="uuid-05ed03eb-d77d-406f-b4c4-a18cba291c4d" x1="162.862" y1="302.492" x2="153.87" y2="318.027"/>
  <line class="uuid-05ed03eb-d77d-406f-b4c4-a18cba291c4d" x1="150.452" y1="322.228" x2="144.686" y2="318.909"/>
  <line class="uuid-05ed03eb-d77d-406f-b4c4-a18cba291c4d" x1="149.963" y1="308.916" x2="143.759" y2="305.3"/>
  <line class="uuid-05ed03eb-d77d-406f-b4c4-a18cba291c4d" x1="110.314" y1="294.577" x2="92.605" y2="284.367"/>
  <line class="uuid-05ed03eb-d77d-406f-b4c4-a18cba291c4d" x1="112.687" y1="282.899" x2="94.801" y2="272.59"/>
  <line class="uuid-05ed03eb-d77d-406f-b4c4-a18cba291c4d" x1="116.3" y1="271.957" x2="98.297" y2="261.552"/>
  <line class="uuid-05ed03eb-d77d-406f-b4c4-a18cba291c4d" x1="120.869" y1="261.599" x2="102.815" y2="251.168"/>
  <line class="uuid-05ed03eb-d77d-406f-b4c4-a18cba291c4d" x1="126.51" y1="251.779" x2="108.459" y2="241.349"/>
  <line class="uuid-05ed03eb-d77d-406f-b4c4-a18cba291c4d" x1="133.008" y1="242.496" x2="115.079" y2="232.138"/>
  <line class="uuid-05ed03eb-d77d-406f-b4c4-a18cba291c4d" x1="140.631" y1="233.85" x2="122.75" y2="223.54"/>
  <line class="uuid-05ed03eb-d77d-406f-b4c4-a18cba291c4d" x1="148.984" y1="225.662" x2="144.171" y2="222.856"/>
  <line class="uuid-05ed03eb-d77d-406f-b4c4-a18cba291c4d" x1="129.468" y1="196.57" x2="111.756" y2="186.334"/>
  <line class="uuid-05ed03eb-d77d-406f-b4c4-a18cba291c4d" x1="136.624" y1="174.612" x2="118.743" y2="164.302"/>
  <line class="uuid-05ed03eb-d77d-406f-b4c4-a18cba291c4d" x1="150.548" y1="156.583" x2="132.545" y2="146.2"/>
  <line class="uuid-05ed03eb-d77d-406f-b4c4-a18cba291c4d" x1="176.343" y1="212.867" x2="170.872" y2="209.739"/>
  <line class="uuid-05ed03eb-d77d-406f-b4c4-a18cba291c4d" x1="197.184" y1="221.855" x2="173.78" y2="262.379"/>
  <line class="uuid-05ed03eb-d77d-406f-b4c4-a18cba291c4d" x1="175.122" y1="214.967" x2="134.133" y2="285.979"/>
  <line class="uuid-05ed03eb-d77d-406f-b4c4-a18cba291c4d" x1="202.751" y1="171.117" x2="195.862" y2="167.136"/>
  <line class="uuid-05ed03eb-d77d-406f-b4c4-a18cba291c4d" x1="209.495" y1="161.98" x2="202.581" y2="157.999"/>
  <line class="uuid-05ed03eb-d77d-406f-b4c4-a18cba291c4d" x1="216.236" y1="152.819" x2="209.373" y2="148.864"/>
  <line class="uuid-05ed03eb-d77d-406f-b4c4-a18cba291c4d" x1="222.976" y1="143.683" x2="216.114" y2="139.727"/>
  <line class="uuid-05ed03eb-d77d-406f-b4c4-a18cba291c4d" x1="229.695" y1="134.547" x2="222.854" y2="130.592"/>
  <line class="uuid-05ed03eb-d77d-406f-b4c4-a18cba291c4d" x1="236.439" y1="125.411" x2="229.599" y2="121.456"/>
  <line class="uuid-05ed03eb-d77d-406f-b4c4-a18cba291c4d" x1="259.081" y1="124.752" x2="252.756" y2="121.088"/>
  <line class="uuid-05ed03eb-d77d-406f-b4c4-a18cba291c4d" x1="270.366" y1="118.23" x2="264.479" y2="114.833"/>
  <line class="uuid-05ed03eb-d77d-406f-b4c4-a18cba291c4d" x1="294.577" y1="143.782" x2="288.299" y2="154.581"/>
  <line class="uuid-05ed03eb-d77d-406f-b4c4-a18cba291c4d" x1="283.192" y1="118.328" x2="257.643" y2="162.565"/>
  <line class="uuid-05ed03eb-d77d-406f-b4c4-a18cba291c4d" x1="246.134" y1="182.478" x2="243.3" y2="187.409"/>
  <line class="uuid-05ed03eb-d77d-406f-b4c4-a18cba291c4d" x1="248.286" y1="133.62" x2="219.068" y2="184.233"/>
  <line class="uuid-05ed03eb-d77d-406f-b4c4-a18cba291c4d" x1="283.318" y1="224.15" x2="265.605" y2="213.892"/>
  <line class="uuid-05ed03eb-d77d-406f-b4c4-a18cba291c4d" x1="290.522" y1="202.214" x2="272.618" y2="191.883"/>
  <line class="uuid-05ed03eb-d77d-406f-b4c4-a18cba291c4d" x1="304.444" y1="184.186" x2="286.441" y2="173.806"/>
  <line class="uuid-05ed03eb-d77d-406f-b4c4-a18cba291c4d" x1="330.218" y1="240.517" x2="324.769" y2="237.366"/>
  <line class="uuid-05ed03eb-d77d-406f-b4c4-a18cba291c4d" x1="351.003" y1="249.557" x2="327.603" y2="290.081"/>
  <line class="uuid-05ed03eb-d77d-406f-b4c4-a18cba291c4d" x1="328.897" y1="242.643" x2="287.906" y2="313.681"/>
  <line class="uuid-05ed03eb-d77d-406f-b4c4-a18cba291c4d" x1="264.137" y1="322.132" x2="246.429" y2="311.918"/>
  <line class="uuid-05ed03eb-d77d-406f-b4c4-a18cba291c4d" x1="266.459" y1="310.454" x2="248.629" y2="300.148"/>
  <line class="uuid-05ed03eb-d77d-406f-b4c4-a18cba291c4d" x1="270.124" y1="299.537" x2="252.12" y2="289.128"/>
  <line class="uuid-05ed03eb-d77d-406f-b4c4-a18cba291c4d" x1="274.767" y1="289.18" x2="256.713" y2="278.749"/>
  <line class="uuid-05ed03eb-d77d-406f-b4c4-a18cba291c4d" x1="280.36" y1="279.381" x2="262.282" y2="268.951"/>
  <line class="uuid-05ed03eb-d77d-406f-b4c4-a18cba291c4d" x1="286.905" y1="270.124" x2="268.975" y2="259.741"/>
  <line class="uuid-05ed03eb-d77d-406f-b4c4-a18cba291c4d" x1="294.529" y1="261.478" x2="276.694" y2="251.168"/>
  <line class="uuid-05ed03eb-d77d-406f-b4c4-a18cba291c4d" x1="302.881" y1="253.27" x2="298.241" y2="250.584"/>
</svg>