<?xml version="1.0" encoding="UTF-8"?>
<svg id="uuid-a3bf854d-b133-49c3-8ddd-acdb57e3ca9f" data-name="&amp;lt;Layer&amp;gt;" xmlns="http://www.w3.org/2000/svg" viewBox="0 0 451.11 451.11">
  <defs>
    <style>
      .uuid-29777874-2d34-4847-b544-0b2f7043ed54, .uuid-16fe3183-2587-47e2-ac58-7c5c5036e02b, .uuid-512d1737-5fed-4952-a25e-2434e5949e56, .uuid-daed1fc2-dbc9-4213-baa6-0d9093f5da6e {
        fill: none;
        stroke: #000;
        stroke-linecap: round;
      }

      .uuid-29777874-2d34-4847-b544-0b2f7043ed54, .uuid-daed1fc2-dbc9-4213-baa6-0d9093f5da6e {
        stroke-linejoin: round;
        stroke-width: 4.113px;
      }

      .uuid-16fe3183-2587-47e2-ac58-7c5c5036e02b {
        stroke-width: 1.163px;
      }

      .uuid-16fe3183-2587-47e2-ac58-7c5c5036e02b, .uuid-512d1737-5fed-4952-a25e-2434e5949e56 {
        stroke-miterlimit: 10;
      }

      .uuid-512d1737-5fed-4952-a25e-2434e5949e56 {
        stroke-width: 1.159px;
      }

      .uuid-daed1fc2-dbc9-4213-baa6-0d9093f5da6e {
        fill-rule: evenodd;
      }
    </style>
  </defs>
  <path class="uuid-daed1fc2-dbc9-4213-baa6-0d9093f5da6e" d="M278.928,299.404c-27.128-19.401,14.335-92.377,45.017-77.705"/>
  <path class="uuid-daed1fc2-dbc9-4213-baa6-0d9093f5da6e" d="M331.591,225.85c-30.432-14.467-72.83,58.711-45.238,78.098"/>
  <polyline class="uuid-daed1fc2-dbc9-4213-baa6-0d9093f5da6e" points="115.991 134.37 108.904 140.404 111.738 154.427 99.794 163.684"/>
  <polyline class="uuid-daed1fc2-dbc9-4213-baa6-0d9093f5da6e" points="93.686 134.613 115.991 134.392 163.893 133.881"/>
  <line class="uuid-29777874-2d34-4847-b544-0b2f7043ed54" x1="123.247" y1="205.503" x2="124.222" y2="180.244"/>
  <line class="uuid-29777874-2d34-4847-b544-0b2f7043ed54" x1="140.246" y1="147.756" x2="163.945" y2="133.807"/>
  <path class="uuid-daed1fc2-dbc9-4213-baa6-0d9093f5da6e" d="M163.945,133.807c3.664-.415,7.325.096,10.794,1.737"/>
  <line class="uuid-29777874-2d34-4847-b544-0b2f7043ed54" x1="174.739" y1="135.543" x2="323.945" y2="221.699"/>
  <line class="uuid-29777874-2d34-4847-b544-0b2f7043ed54" x1="278.928" y1="299.404" x2="129.744" y2="213.248"/>
  <path class="uuid-daed1fc2-dbc9-4213-baa6-0d9093f5da6e" d="M129.744,213.248c-2.954-2.053-6.618-4.348-6.497-7.745"/>
  <line class="uuid-29777874-2d34-4847-b544-0b2f7043ed54" x1="124.222" y1="180.244" x2="272.136" y2="265.646"/>
  <line class="uuid-29777874-2d34-4847-b544-0b2f7043ed54" x1="286.353" y1="303.948" x2="278.928" y2="299.404"/>
  <line class="uuid-29777874-2d34-4847-b544-0b2f7043ed54" x1="323.945" y1="221.699" x2="331.591" y2="225.85"/>
  <path class="uuid-daed1fc2-dbc9-4213-baa6-0d9093f5da6e" d="M357.265,244.784c-1.733-3.959-4.296-6.792-7.499-8.477"/>
  <line class="uuid-29777874-2d34-4847-b544-0b2f7043ed54" x1="349.766" y1="236.307" x2="331.591" y2="225.85"/>
  <line class="uuid-29777874-2d34-4847-b544-0b2f7043ed54" x1="286.353" y1="303.948" x2="304.478" y2="314.405"/>
  <path class="uuid-daed1fc2-dbc9-4213-baa6-0d9093f5da6e" d="M304.478,314.405c3.201,2.027,7.035,2.808,11.211,2.318"/>
  <line class="uuid-29777874-2d34-4847-b544-0b2f7043ed54" x1="124.222" y1="180.244" x2="135.094" y2="168.423"/>
  <path class="uuid-daed1fc2-dbc9-4213-baa6-0d9093f5da6e" d="M135.094,168.423c.122-1.175,3.809-19.888,5.152-20.667"/>
  <line class="uuid-29777874-2d34-4847-b544-0b2f7043ed54" x1="140.246" y1="147.756" x2="289.797" y2="234.059"/>
  <line class="uuid-29777874-2d34-4847-b544-0b2f7043ed54" x1="272.136" y1="265.646" x2="124.222" y2="180.244"/>
  <line class="uuid-29777874-2d34-4847-b544-0b2f7043ed54" x1="124.295" y1="180.27" x2="106.219" y2="158.724"/>
  <polyline class="uuid-daed1fc2-dbc9-4213-baa6-0d9093f5da6e" points="88.51 143.553 99.842 163.658 123.247 205.234"/>
  <line class="uuid-29777874-2d34-4847-b544-0b2f7043ed54" x1="140.296" y1="147.733" x2="109.883" y2="145.312"/>
  <line class="uuid-29777874-2d34-4847-b544-0b2f7043ed54" x1="99.794" y1="163.684" x2="88.458" y2="143.579"/>
  <path class="uuid-daed1fc2-dbc9-4213-baa6-0d9093f5da6e" d="M88.458,143.579c-1.049-1.905-1.049-4.08.052-5.96,1.099-1.905,2.954-3.006,5.102-3.006"/>
  <path class="uuid-daed1fc2-dbc9-4213-baa6-0d9093f5da6e" d="M325.899,250.402c15.807-14.047,32.124-12.579,36.352,3.249,4.25,15.855-5.154,40.087-21.008,54.136-15.855,14.043-32.126,12.601-36.349-3.253-4.25-15.829,5.154-40.083,21.005-54.132Z"/>
  <line class="uuid-16fe3183-2587-47e2-ac58-7c5c5036e02b" x1="303.036" y1="301.995" x2="279.387" y2="288.34"/>
  <line class="uuid-16fe3183-2587-47e2-ac58-7c5c5036e02b" x1="303.329" y1="289.12" x2="279.682" y2="275.466"/>
  <line class="uuid-16fe3183-2587-47e2-ac58-7c5c5036e02b" x1="306.335" y1="277.811" x2="282.714" y2="264.204"/>
  <line class="uuid-16fe3183-2587-47e2-ac58-7c5c5036e02b" x1="311.048" y1="267.501" x2="287.475" y2="253.895"/>
  <line class="uuid-16fe3183-2587-47e2-ac58-7c5c5036e02b" x1="317.253" y1="258.049" x2="293.682" y2="244.442"/>
  <line class="uuid-16fe3183-2587-47e2-ac58-7c5c5036e02b" x1="325.097" y1="249.549" x2="301.45" y2="235.942"/>
  <line class="uuid-16fe3183-2587-47e2-ac58-7c5c5036e02b" x1="335.307" y1="242.414" x2="311.612" y2="228.734"/>
  <line class="uuid-16fe3183-2587-47e2-ac58-7c5c5036e02b" x1="363.432" y1="259.336" x2="331.024" y2="315.432"/>
  <line class="uuid-16fe3183-2587-47e2-ac58-7c5c5036e02b" x1="358.785" y1="244.77" x2="317.05" y2="317.066"/>
  <line class="uuid-16fe3183-2587-47e2-ac58-7c5c5036e02b" x1="347.85" y1="241.186" x2="307.892" y2="310.354"/>
  <line class="uuid-512d1737-5fed-4952-a25e-2434e5949e56" x1="330.726" y1="248.136" x2="305.008" y2="292.896"/>
  <line class="uuid-16fe3183-2587-47e2-ac58-7c5c5036e02b" x1="128.987" y1="210.268" x2="125.273" y2="203.918"/>
  <line class="uuid-16fe3183-2587-47e2-ac58-7c5c5036e02b" x1="149.381" y1="223.043" x2="126.153" y2="182.809"/>
  <line class="uuid-16fe3183-2587-47e2-ac58-7c5c5036e02b" x1="168.951" y1="234.331" x2="145.647" y2="194.097"/>
  <line class="uuid-16fe3183-2587-47e2-ac58-7c5c5036e02b" x1="188.466" y1="245.616" x2="165.213" y2="205.382"/>
  <line class="uuid-16fe3183-2587-47e2-ac58-7c5c5036e02b" x1="208.012" y1="256.9" x2="184.802" y2="216.667"/>
  <line class="uuid-16fe3183-2587-47e2-ac58-7c5c5036e02b" x1="227.601" y1="268.185" x2="204.374" y2="227.95"/>
  <line class="uuid-16fe3183-2587-47e2-ac58-7c5c5036e02b" x1="247.167" y1="279.469" x2="223.936" y2="239.261"/>
  <line class="uuid-16fe3183-2587-47e2-ac58-7c5c5036e02b" x1="266.687" y1="290.78" x2="243.455" y2="250.55"/>
  <line class="uuid-16fe3183-2587-47e2-ac58-7c5c5036e02b" x1="268.983" y1="272.217" x2="263.586" y2="262.861"/>
  <line class="uuid-16fe3183-2587-47e2-ac58-7c5c5036e02b" x1="105.365" y1="157.259" x2="95.03" y2="151.272"/>
  <line class="uuid-16fe3183-2587-47e2-ac58-7c5c5036e02b" x1="108.419" y1="145.997" x2="92.1" y2="136.544"/>
  <line class="uuid-16fe3183-2587-47e2-ac58-7c5c5036e02b" x1="280.366" y1="229.663" x2="263.243" y2="259.391"/>
  <line class="uuid-16fe3183-2587-47e2-ac58-7c5c5036e02b" x1="260.873" y1="218.378" x2="243.676" y2="248.107"/>
  <line class="uuid-16fe3183-2587-47e2-ac58-7c5c5036e02b" x1="241.307" y1="207.093" x2="224.11" y2="236.796"/>
  <line class="uuid-16fe3183-2587-47e2-ac58-7c5c5036e02b" x1="221.739" y1="195.804" x2="204.59" y2="225.508"/>
  <line class="uuid-16fe3183-2587-47e2-ac58-7c5c5036e02b" x1="202.172" y1="184.519" x2="185.023" y2="214.223"/>
  <line class="uuid-16fe3183-2587-47e2-ac58-7c5c5036e02b" x1="182.654" y1="173.235" x2="165.457" y2="202.939"/>
  <line class="uuid-16fe3183-2587-47e2-ac58-7c5c5036e02b" x1="163.087" y1="161.947" x2="145.941" y2="191.655"/>
  <line class="uuid-16fe3183-2587-47e2-ac58-7c5c5036e02b" x1="143.108" y1="151.42" x2="137.717" y2="160.63"/>
  <line class="uuid-16fe3183-2587-47e2-ac58-7c5c5036e02b" x1="117.506" y1="174.895" x2="110.516" y2="178.928"/>
</svg>