<?xml version="1.0" encoding="UTF-8"?>
<svg id="uuid-ab84c07e-4743-4443-adb3-2e87f456728a" data-name="&amp;lt;Layer&amp;gt;" xmlns="http://www.w3.org/2000/svg" viewBox="0 0 451.11 451.11">
  <defs>
    <style>
      .uuid-bb6f31fa-7dc1-49d6-8a51-ceb4e56eb041, .uuid-a42e547d-3523-4cd2-9cfe-80b291d2a5a3, .uuid-28cca61b-64b3-449f-9477-a184de2fcd8a {
        fill: none;
        stroke: #000;
        stroke-linecap: round;
      }

      .uuid-bb6f31fa-7dc1-49d6-8a51-ceb4e56eb041, .uuid-28cca61b-64b3-449f-9477-a184de2fcd8a {
        stroke-linejoin: round;
        stroke-width: 4.117px;
      }

      .uuid-a42e547d-3523-4cd2-9cfe-80b291d2a5a3 {
        stroke-miterlimit: 10;
        stroke-width: 1.163px;
      }

      .uuid-28cca61b-64b3-449f-9477-a184de2fcd8a {
        fill-rule: evenodd;
      }
    </style>
  </defs>
  <line class="uuid-bb6f31fa-7dc1-49d6-8a51-ceb4e56eb041" x1="246.634" y1="244.413" x2="234.153" y2="237.209"/>
  <path class="uuid-28cca61b-64b3-449f-9477-a184de2fcd8a" d="M306.214,213.661c3.542-6.133,5.764-13.046,5.764-19.277s-2.222-10.626-5.764-12.679c-3.54-2.024-8.405-1.733-13.824,1.395-5.401,3.101-10.262,8.451-13.828,14.584-3.518,6.13-5.74,13.044-5.74,19.273s2.222,10.601,5.74,12.653c3.566,2.053,8.427,1.759,13.828-1.368"/>
  <path class="uuid-28cca61b-64b3-449f-9477-a184de2fcd8a" d="M292.391,228.243c5.419-3.124,10.284-8.473,13.824-14.582"/>
  <path class="uuid-28cca61b-64b3-449f-9477-a184de2fcd8a" d="M325.564,247.541c-.541-9.211-4.129-15.755-9.651-18.931"/>
  <line class="uuid-bb6f31fa-7dc1-49d6-8a51-ceb4e56eb041" x1="259.24" y1="285.843" x2="325.564" y2="247.541"/>
  <path class="uuid-28cca61b-64b3-449f-9477-a184de2fcd8a" d="M315.913,228.61c-6.277-3.616-14.682-2.76-23.522,2.344-9.161,5.302-17.47,14.39-23.5,24.796-5.523,9.551-9.067,20.225-9.651,30.093"/>
  <path class="uuid-28cca61b-64b3-449f-9477-a184de2fcd8a" d="M278.563,229.611c-17.809-11.309,8.963-57.7,27.651-47.905"/>
  <line class="uuid-bb6f31fa-7dc1-49d6-8a51-ceb4e56eb041" x1="264.346" y1="221.402" x2="278.563" y2="229.611"/>
  <path class="uuid-28cca61b-64b3-449f-9477-a184de2fcd8a" d="M306.214,181.705c-4.298-2.465-13.924-8.915-17.883-9.404-19.273-2.392-40.256,39.259-23.986,49.101"/>
  <path class="uuid-28cca61b-64b3-449f-9477-a184de2fcd8a" d="M274.556,225.214h-.048"/>
  <path class="uuid-28cca61b-64b3-449f-9477-a184de2fcd8a" d="M245.07,277.66c1.443-19.225,12.311-39.376,27.924-51.276"/>
  <line class="uuid-bb6f31fa-7dc1-49d6-8a51-ceb4e56eb041" x1="259.29" y1="285.843" x2="245.07" y2="277.66"/>
  <path class="uuid-28cca61b-64b3-449f-9477-a184de2fcd8a" d="M301.574,220.353c4.886,2.246,10.284,5.91,14.339,8.231"/>
  <path class="uuid-28cca61b-64b3-449f-9477-a184de2fcd8a" d="M186.711,282.668c3.544-6.13,5.692-13.044,5.692-19.295s-2.148-10.603-5.692-12.657c-3.539-2.027-8.425-1.733-13.824,1.394-5.401,3.102-10.335,8.451-13.826,14.582-3.543,6.133-5.74,13.048-5.74,19.273s2.196,10.603,5.74,12.657c3.492,2.05,8.425,1.759,13.826-1.369"/>
  <path class="uuid-28cca61b-64b3-449f-9477-a184de2fcd8a" d="M172.888,297.23c5.398-3.105,10.284-8.455,13.824-14.562"/>
  <path class="uuid-28cca61b-64b3-449f-9477-a184de2fcd8a" d="M206.036,316.551c-.585-9.209-4.103-15.755-9.626-18.93"/>
  <line class="uuid-bb6f31fa-7dc1-49d6-8a51-ceb4e56eb041" x1="139.711" y1="354.853" x2="206.036" y2="316.551"/>
  <path class="uuid-28cca61b-64b3-449f-9477-a184de2fcd8a" d="M196.41,297.621c-6.277-3.618-14.706-2.763-23.522,2.344-9.187,5.301-17.47,14.386-23.525,24.794-5.523,9.552-9.111,20.225-9.652,30.094"/>
  <line class="uuid-bb6f31fa-7dc1-49d6-8a51-ceb4e56eb041" x1="144.844" y1="290.413" x2="159.061" y2="298.621"/>
  <path class="uuid-28cca61b-64b3-449f-9477-a184de2fcd8a" d="M186.711,250.716c-4.37-2.465-13.948-8.89-17.903-9.404-19.273-2.396-40.234,39.254-23.964,49.101"/>
  <line class="uuid-bb6f31fa-7dc1-49d6-8a51-ceb4e56eb041" x1="155.055" y1="294.225" x2="155.007" y2="294.225"/>
  <path class="uuid-28cca61b-64b3-449f-9477-a184de2fcd8a" d="M196.41,297.643c-4.08-2.395-9.478-6.034-14.412-8.305"/>
  <line class="uuid-bb6f31fa-7dc1-49d6-8a51-ceb4e56eb041" x1="125.546" y1="346.645" x2="139.711" y2="354.831"/>
  <path class="uuid-28cca61b-64b3-449f-9477-a184de2fcd8a" d="M153.49,295.447c-15.611,11.895-26.528,31.974-27.945,51.198"/>
  <line class="uuid-bb6f31fa-7dc1-49d6-8a51-ceb4e56eb041" x1="223.649" y1="217.105" x2="223.649" y2="197.633"/>
  <path class="uuid-28cca61b-64b3-449f-9477-a184de2fcd8a" d="M234.37,137.711c3.543-6.129,5.766-13.042,5.766-19.271s-2.222-10.627-5.766-12.654c-3.518-2.053-8.403-1.759-13.802,1.365-5.397,3.105-10.283,8.477-13.826,14.584-3.54,6.134-5.74,13.044-5.74,19.273s2.2,10.605,5.74,12.657c3.543,2.05,8.429,1.759,13.826-1.368"/>
  <path class="uuid-28cca61b-64b3-449f-9477-a184de2fcd8a" d="M220.569,152.297c5.398-3.128,10.284-8.477,13.802-14.586"/>
  <path class="uuid-28cca61b-64b3-449f-9477-a184de2fcd8a" d="M253.721,171.595c-.515-9.209-4.107-15.755-9.652-18.934"/>
  <line class="uuid-bb6f31fa-7dc1-49d6-8a51-ceb4e56eb041" x1="187.396" y1="209.897" x2="253.721" y2="171.595"/>
  <path class="uuid-28cca61b-64b3-449f-9477-a184de2fcd8a" d="M244.069,152.661c-6.251-3.614-14.68-2.76-23.5,2.347-9.183,5.302-17.491,14.387-23.474,24.796-5.57,9.574-9.113,20.226-9.699,30.093"/>
  <path class="uuid-28cca61b-64b3-449f-9477-a184de2fcd8a" d="M206.742,153.665c-17.831-11.309,8.941-57.674,27.628-47.879"/>
  <line class="uuid-bb6f31fa-7dc1-49d6-8a51-ceb4e56eb041" x1="192.503" y1="145.456" x2="206.742" y2="153.665"/>
  <path class="uuid-28cca61b-64b3-449f-9477-a184de2fcd8a" d="M234.37,105.785c-4.275-2.491-13.922-8.941-17.881-9.43-19.273-2.395-40.23,39.255-23.986,49.101"/>
  <line class="uuid-bb6f31fa-7dc1-49d6-8a51-ceb4e56eb041" x1="244.069" y1="152.686" x2="229.731" y2="144.383"/>
  <line class="uuid-bb6f31fa-7dc1-49d6-8a51-ceb4e56eb041" x1="173.227" y1="201.688" x2="187.47" y2="209.897"/>
  <path class="uuid-28cca61b-64b3-449f-9477-a184de2fcd8a" d="M201.175,150.486c-15.633,11.9-26.481,32.004-27.949,51.202"/>
  <path class="uuid-28cca61b-64b3-449f-9477-a184de2fcd8a" d="M202.739,149.268h-.074"/>
  <line class="uuid-bb6f31fa-7dc1-49d6-8a51-ceb4e56eb041" x1="200.634" y1="270.236" x2="212.825" y2="249.104"/>
  <path class="uuid-28cca61b-64b3-449f-9477-a184de2fcd8a" d="M223.649,248.883c3.76-2.196,7.256-5.96,9.699-10.284,2.491-4.322,4.055-9.161,4.055-13.558s-1.564-7.473-4.007-8.916c-2.491-1.442-5.986-1.221-9.747.954-3.664,2.122-7.16,5.787-9.773,10.283-2.491,4.324-4.007,9.187-4.007,13.585,0,8.768,6.108,12.334,13.78,7.936Z"/>
  <line class="uuid-a42e547d-3523-4cd2-9cfe-80b291d2a5a3" x1="270.792" y1="277.271" x2="265.273" y2="267.719"/>
  <line class="uuid-a42e547d-3523-4cd2-9cfe-80b291d2a5a3" x1="280.661" y1="271.846" x2="271.087" y2="255.187"/>
  <line class="uuid-a42e547d-3523-4cd2-9cfe-80b291d2a5a3" x1="290.532" y1="266.375" x2="278.174" y2="244.928"/>
  <line class="uuid-a42e547d-3523-4cd2-9cfe-80b291d2a5a3" x1="300.427" y1="260.804" x2="286.43" y2="236.62"/>
  <line class="uuid-a42e547d-3523-4cd2-9cfe-80b291d2a5a3" x1="310.173" y1="255.187" x2="295.882" y2="230.443"/>
  <line class="uuid-a42e547d-3523-4cd2-9cfe-80b291d2a5a3" x1="319.872" y1="249.421" x2="307.388" y2="227.779"/>
  <line class="uuid-a42e547d-3523-4cd2-9cfe-80b291d2a5a3" x1="260.045" y1="271.968" x2="249.371" y2="278.127"/>
  <line class="uuid-a42e547d-3523-4cd2-9cfe-80b291d2a5a3" x1="267.717" y1="254.502" x2="248.856" y2="265.397"/>
  <line class="uuid-a42e547d-3523-4cd2-9cfe-80b291d2a5a3" x1="283.446" y1="232.396" x2="256.212" y2="248.103"/>
  <line class="uuid-a42e547d-3523-4cd2-9cfe-80b291d2a5a3" x1="271.381" y1="212.63" x2="262.782" y2="217.616"/>
  <line class="uuid-a42e547d-3523-4cd2-9cfe-80b291d2a5a3" x1="277.584" y1="196" x2="260.339" y2="205.964"/>
  <line class="uuid-a42e547d-3523-4cd2-9cfe-80b291d2a5a3" x1="291.707" y1="174.796" x2="266.496" y2="189.378"/>
  <line class="uuid-a42e547d-3523-4cd2-9cfe-80b291d2a5a3" x1="140.591" y1="340.857" x2="129.795" y2="347.086"/>
  <line class="uuid-a42e547d-3523-4cd2-9cfe-80b291d2a5a3" x1="148.262" y1="323.417" x2="129.332" y2="334.333"/>
  <line class="uuid-a42e547d-3523-4cd2-9cfe-80b291d2a5a3" x1="163.775" y1="301.407" x2="136.757" y2="317.014"/>
  <line class="uuid-a42e547d-3523-4cd2-9cfe-80b291d2a5a3" x1="151.926" y1="281.545" x2="143.206" y2="286.575"/>
  <line class="uuid-a42e547d-3523-4cd2-9cfe-80b291d2a5a3" x1="158.131" y1="264.885" x2="140.764" y2="274.901"/>
  <line class="uuid-a42e547d-3523-4cd2-9cfe-80b291d2a5a3" x1="172.127" y1="243.781" x2="146.993" y2="258.267"/>
  <line class="uuid-a42e547d-3523-4cd2-9cfe-80b291d2a5a3" x1="151.22" y1="346.28" x2="145.697" y2="336.776"/>
  <line class="uuid-a42e547d-3523-4cd2-9cfe-80b291d2a5a3" x1="161.158" y1="340.883" x2="151.511" y2="324.219"/>
  <line class="uuid-a42e547d-3523-4cd2-9cfe-80b291d2a5a3" x1="170.956" y1="335.386" x2="158.594" y2="313.939"/>
  <line class="uuid-a42e547d-3523-4cd2-9cfe-80b291d2a5a3" x1="180.85" y1="329.841" x2="166.855" y2="305.679"/>
  <line class="uuid-a42e547d-3523-4cd2-9cfe-80b291d2a5a3" x1="190.596" y1="324.219" x2="176.307" y2="299.454"/>
  <line class="uuid-a42e547d-3523-4cd2-9cfe-80b291d2a5a3" x1="200.343" y1="318.48" x2="187.812" y2="296.763"/>
  <line class="uuid-a42e547d-3523-4cd2-9cfe-80b291d2a5a3" x1="188.324" y1="195.754" x2="177.355" y2="202.083"/>
  <line class="uuid-a42e547d-3523-4cd2-9cfe-80b291d2a5a3" x1="196.069" y1="178.24" x2="177.137" y2="189.182"/>
  <line class="uuid-a42e547d-3523-4cd2-9cfe-80b291d2a5a3" x1="211.213" y1="156.446" x2="184.611" y2="171.812"/>
  <line class="uuid-a42e547d-3523-4cd2-9cfe-80b291d2a5a3" x1="199.611" y1="136.42" x2="190.766" y2="141.497"/>
  <line class="uuid-a42e547d-3523-4cd2-9cfe-80b291d2a5a3" x1="205.984" y1="119.708" x2="188.496" y2="129.797"/>
  <line class="uuid-a42e547d-3523-4cd2-9cfe-80b291d2a5a3" x1="219.642" y1="98.772" x2="194.894" y2="113.089"/>
  <line class="uuid-a42e547d-3523-4cd2-9cfe-80b291d2a5a3" x1="198.953" y1="201.299" x2="193.456" y2="191.773"/>
  <line class="uuid-a42e547d-3523-4cd2-9cfe-80b291d2a5a3" x1="208.82" y1="195.9" x2="199.244" y2="179.241"/>
  <line class="uuid-a42e547d-3523-4cd2-9cfe-80b291d2a5a3" x1="218.715" y1="190.403" x2="206.329" y2="168.956"/>
  <line class="uuid-a42e547d-3523-4cd2-9cfe-80b291d2a5a3" x1="228.582" y1="184.86" x2="214.634" y2="160.722"/>
  <line class="uuid-a42e547d-3523-4cd2-9cfe-80b291d2a5a3" x1="238.329" y1="179.241" x2="224.039" y2="154.493"/>
  <line class="uuid-a42e547d-3523-4cd2-9cfe-80b291d2a5a3" x1="248.076" y1="173.475" x2="235.592" y2="151.855"/>
</svg>