<?xml version="1.0" encoding="UTF-8"?>
<svg id="uuid-07009b88-fa22-4076-b47a-94ec0ac423b9" data-name="&amp;lt;Layer&amp;gt;" xmlns="http://www.w3.org/2000/svg" viewBox="0 0 451.11 451.11">
  <defs>
    <style>
      .uuid-866da281-b1f8-4096-84b1-e081c216fc4e, .uuid-27a9b8d3-a8b6-4355-85e3-e93ce57db750, .uuid-a1323dd8-4500-4df7-b562-db8df8ad3e0d {
        fill: none;
        stroke: #000;
        stroke-linecap: round;
      }

      .uuid-866da281-b1f8-4096-84b1-e081c216fc4e, .uuid-a1323dd8-4500-4df7-b562-db8df8ad3e0d {
        stroke-linejoin: round;
        stroke-width: 4.113px;
      }

      .uuid-27a9b8d3-a8b6-4355-85e3-e93ce57db750 {
        stroke-miterlimit: 10;
        stroke-width: 1.163px;
      }

      .uuid-a1323dd8-4500-4df7-b562-db8df8ad3e0d {
        fill-rule: evenodd;
      }
    </style>
  </defs>
  <path class="uuid-a1323dd8-4500-4df7-b562-db8df8ad3e0d" d="M230.685,302.093c-.243-.126-.732-.126-.975.094-.247.196-.732.564-.979.954-.243.415-.243.853-.243,1.269s0,.71.243.831c.247.148.732.122.979-.074.243-.221.732-.562.975-.979.247-.389.247-.853.247-1.243,0-.415,0-.71-.247-.853Z"/>
  <polygon class="uuid-a1323dd8-4500-4df7-b562-db8df8ad3e0d" points="160.09 221.92 299.329 141.474 299.329 237.501 160.09 317.943 160.09 221.92"/>
  <polygon class="uuid-a1323dd8-4500-4df7-b562-db8df8ad3e0d" points="160.09 221.92 299.329 141.474 299.329 127.624 160.09 208.066 160.09 221.92"/>
  <line class="uuid-866da281-b1f8-4096-84b1-e081c216fc4e" x1="124.179" y1="368.193" x2="117.096" y2="364.039"/>
  <path class="uuid-a1323dd8-4500-4df7-b562-db8df8ad3e0d" d="M117.096,364.039c-3.422-2.782-3.664-4.54-3.911-8.842"/>
  <line class="uuid-866da281-b1f8-4096-84b1-e081c216fc4e" x1="113.185" y1="355.197" x2="113.185" y2="217.203"/>
  <path class="uuid-a1323dd8-4500-4df7-b562-db8df8ad3e0d" d="M113.185,217.203c.736-10.21,5.132-17.831,13.683-23.671"/>
  <line class="uuid-866da281-b1f8-4096-84b1-e081c216fc4e" x1="126.869" y1="193.532" x2="317.162" y2="83.778"/>
  <path class="uuid-a1323dd8-4500-4df7-b562-db8df8ad3e0d" d="M317.162,83.778c3.907-1.785,5.375-2.469,9.526-.905"/>
  <line class="uuid-866da281-b1f8-4096-84b1-e081c216fc4e" x1="326.688" y1="82.873" x2="334.018" y2="87.001"/>
  <path class="uuid-a1323dd8-4500-4df7-b562-db8df8ad3e0d" d="M334.018,87.001c-4.155-1.538-5.862-.853-9.773.931"/>
  <line class="uuid-866da281-b1f8-4096-84b1-e081c216fc4e" x1="324.245" y1="87.931" x2="133.952" y2="197.688"/>
  <path class="uuid-a1323dd8-4500-4df7-b562-db8df8ad3e0d" d="M133.952,197.688c-8.062,5.714-12.701,13.212-13.68,23.669"/>
  <line class="uuid-866da281-b1f8-4096-84b1-e081c216fc4e" x1="120.272" y1="221.357" x2="120.272" y2="359.373"/>
  <path class="uuid-a1323dd8-4500-4df7-b562-db8df8ad3e0d" d="M120.272,359.373c.489,4.275.732,6.034,3.907,8.82"/>
  <line class="uuid-866da281-b1f8-4096-84b1-e081c216fc4e" x1="134.93" y1="208.114" x2="323.27" y2="99.511"/>
  <path class="uuid-a1323dd8-4500-4df7-b562-db8df8ad3e0d" d="M323.27,99.511c3.418-1.953,6.107-.369,6.107,3.566"/>
  <line class="uuid-866da281-b1f8-4096-84b1-e081c216fc4e" x1="329.377" y1="103.076" x2="329.377" y2="230.934"/>
  <path class="uuid-a1323dd8-4500-4df7-b562-db8df8ad3e0d" d="M329.377,230.934c0,3.907-2.69,8.668-6.107,10.625"/>
  <line class="uuid-866da281-b1f8-4096-84b1-e081c216fc4e" x1="323.27" y1="241.56" x2="134.93" y2="350.141"/>
  <path class="uuid-a1323dd8-4500-4df7-b562-db8df8ad3e0d" d="M134.93,350.141c-3.422,1.954-6.108.365-6.108-3.542"/>
  <line class="uuid-866da281-b1f8-4096-84b1-e081c216fc4e" x1="128.822" y1="346.599" x2="128.822" y2="218.744"/>
  <path class="uuid-a1323dd8-4500-4df7-b562-db8df8ad3e0d" d="M128.822,218.744c0-3.911,2.687-8.676,6.108-10.629"/>
  <path class="uuid-a1323dd8-4500-4df7-b562-db8df8ad3e0d" d="M324.245,87.931c7.571-4.327,13.68-.758,13.68,7.915"/>
  <line class="uuid-866da281-b1f8-4096-84b1-e081c216fc4e" x1="337.925" y1="95.846" x2="337.925" y2="233.863"/>
  <path class="uuid-a1323dd8-4500-4df7-b562-db8df8ad3e0d" d="M337.925,233.863c0,8.672-6.351,19.347-13.68,23.669"/>
  <line class="uuid-866da281-b1f8-4096-84b1-e081c216fc4e" x1="324.245" y1="257.532" x2="133.952" y2="367.266"/>
  <path class="uuid-a1323dd8-4500-4df7-b562-db8df8ad3e0d" d="M133.952,367.266c-7.572,4.322-13.68.78-13.68-7.893"/>
  <path class="uuid-a1323dd8-4500-4df7-b562-db8df8ad3e0d" d="M195.511,226.118c.975-.61,1.707-.096,1.707,1.125"/>
  <path class="uuid-a1323dd8-4500-4df7-b562-db8df8ad3e0d" d="M197.218,227.243c0,1.223-.732,2.713-1.707,3.323"/>
  <path class="uuid-a1323dd8-4500-4df7-b562-db8df8ad3e0d" d="M195.511,230.566c-1.221.611-1.957.122-1.957-1.125"/>
  <path class="uuid-a1323dd8-4500-4df7-b562-db8df8ad3e0d" d="M193.553,229.44c0-1.195.736-2.711,1.957-3.323"/>
  <path class="uuid-a1323dd8-4500-4df7-b562-db8df8ad3e0d" d="M195.511,247.321c.975-.61,1.707-.12,1.707,1.101"/>
  <path class="uuid-a1323dd8-4500-4df7-b562-db8df8ad3e0d" d="M197.218,248.422c0,1.221-.732,2.737-1.707,3.347"/>
  <path class="uuid-a1323dd8-4500-4df7-b562-db8df8ad3e0d" d="M195.511,251.77c-1.221.611-1.957.096-1.957-1.126"/>
  <path class="uuid-a1323dd8-4500-4df7-b562-db8df8ad3e0d" d="M193.553,250.644c0-1.221.736-2.711,1.957-3.323"/>
  <path class="uuid-a1323dd8-4500-4df7-b562-db8df8ad3e0d" d="M195.511,269.821c.975-.585,1.707-.1,1.707,1.123"/>
  <path class="uuid-a1323dd8-4500-4df7-b562-db8df8ad3e0d" d="M197.218,270.944c0,1.221-.732,2.737-1.707,3.322"/>
  <path class="uuid-a1323dd8-4500-4df7-b562-db8df8ad3e0d" d="M195.511,274.266c-1.221.611-1.957.122-1.957-1.099"/>
  <path class="uuid-a1323dd8-4500-4df7-b562-db8df8ad3e0d" d="M193.553,273.166c0-1.219.736-2.709,1.957-3.345"/>
  <line class="uuid-866da281-b1f8-4096-84b1-e081c216fc4e" x1="208.701" y1="241.925" x2="262.931" y2="210.462"/>
  <line class="uuid-866da281-b1f8-4096-84b1-e081c216fc4e" x1="208.701" y1="220.746" x2="262.931" y2="189.283"/>
  <line class="uuid-866da281-b1f8-4096-84b1-e081c216fc4e" x1="208.701" y1="264.449" x2="252.67" y2="239.017"/>
  <line class="uuid-27a9b8d3-a8b6-4355-85e3-e93ce57db750" x1="147.385" y1="357.541" x2="136.395" y2="351.238"/>
  <line class="uuid-27a9b8d3-a8b6-4355-85e3-e93ce57db750" x1="127.111" y1="345.793" x2="122.226" y2="343.056"/>
  <line class="uuid-27a9b8d3-a8b6-4355-85e3-e93ce57db750" x1="169.862" y1="344.524" x2="159.111" y2="338.194"/>
  <line class="uuid-27a9b8d3-a8b6-4355-85e3-e93ce57db750" x1="127.111" y1="319.728" x2="122.226" y2="317.017"/>
  <line class="uuid-27a9b8d3-a8b6-4355-85e3-e93ce57db750" x1="192.579" y1="331.476" x2="181.584" y2="325.151"/>
  <line class="uuid-27a9b8d3-a8b6-4355-85e3-e93ce57db750" x1="127.111" y1="293.638" x2="122.226" y2="290.905"/>
  <line class="uuid-27a9b8d3-a8b6-4355-85e3-e93ce57db750" x1="215.052" y1="318.459" x2="204.305" y2="312.156"/>
  <line class="uuid-27a9b8d3-a8b6-4355-85e3-e93ce57db750" x1="127.111" y1="267.599" x2="122.226" y2="264.862"/>
  <line class="uuid-27a9b8d3-a8b6-4355-85e3-e93ce57db750" x1="237.769" y1="305.437" x2="226.778" y2="299.135"/>
  <line class="uuid-27a9b8d3-a8b6-4355-85e3-e93ce57db750" x1="127.111" y1="241.534" x2="122.226" y2="238.796"/>
  <line class="uuid-27a9b8d3-a8b6-4355-85e3-e93ce57db750" x1="260.246" y1="292.395" x2="249.495" y2="286.092"/>
  <line class="uuid-27a9b8d3-a8b6-4355-85e3-e93ce57db750" x1="127.354" y1="215.691" x2="123.936" y2="213.637"/>
  <line class="uuid-27a9b8d3-a8b6-4355-85e3-e93ce57db750" x1="282.962" y1="279.373" x2="271.972" y2="273.096"/>
  <line class="uuid-27a9b8d3-a8b6-4355-85e3-e93ce57db750" x1="145.431" y1="200.03" x2="139.57" y2="196.657"/>
  <line class="uuid-27a9b8d3-a8b6-4355-85e3-e93ce57db750" x1="305.436" y1="266.352" x2="294.688" y2="260.053"/>
  <line class="uuid-27a9b8d3-a8b6-4355-85e3-e93ce57db750" x1="168.151" y1="186.962" x2="162.286" y2="183.591"/>
  <line class="uuid-27a9b8d3-a8b6-4355-85e3-e93ce57db750" x1="327.42" y1="252.893" x2="317.162" y2="247.005"/>
  <line class="uuid-27a9b8d3-a8b6-4355-85e3-e93ce57db750" x1="190.625" y1="173.919" x2="184.763" y2="170.57"/>
  <line class="uuid-27a9b8d3-a8b6-4355-85e3-e93ce57db750" x1="335.971" y1="231.737" x2="331.331" y2="229.123"/>
  <line class="uuid-27a9b8d3-a8b6-4355-85e3-e93ce57db750" x1="213.341" y1="160.897" x2="207.48" y2="157.549"/>
  <line class="uuid-27a9b8d3-a8b6-4355-85e3-e93ce57db750" x1="335.971" y1="205.697" x2="331.331" y2="203.085"/>
  <line class="uuid-27a9b8d3-a8b6-4355-85e3-e93ce57db750" x1="235.815" y1="147.875" x2="229.953" y2="144.528"/>
  <line class="uuid-27a9b8d3-a8b6-4355-85e3-e93ce57db750" x1="335.971" y1="179.68" x2="331.331" y2="177.021"/>
  <line class="uuid-27a9b8d3-a8b6-4355-85e3-e93ce57db750" x1="258.288" y1="134.855" x2="252.67" y2="131.51"/>
  <line class="uuid-27a9b8d3-a8b6-4355-85e3-e93ce57db750" x1="335.971" y1="153.641" x2="331.331" y2="150.978"/>
  <line class="uuid-27a9b8d3-a8b6-4355-85e3-e93ce57db750" x1="281.009" y1="121.812" x2="275.147" y2="118.489"/>
  <line class="uuid-27a9b8d3-a8b6-4355-85e3-e93ce57db750" x1="336.214" y1="127.624" x2="331.331" y2="124.913"/>
  <line class="uuid-27a9b8d3-a8b6-4355-85e3-e93ce57db750" x1="303.482" y1="108.79" x2="297.617" y2="105.471"/>
  <line class="uuid-27a9b8d3-a8b6-4355-85e3-e93ce57db750" x1="336.461" y1="101.755" x2="320.094" y2="92.229"/>
  <line class="uuid-27a9b8d3-a8b6-4355-85e3-e93ce57db750" x1="175.723" y1="210.852" x2="167.419" y2="205.966"/>
  <line class="uuid-27a9b8d3-a8b6-4355-85e3-e93ce57db750" x1="198.44" y1="197.808" x2="189.893" y2="192.948"/>
  <line class="uuid-27a9b8d3-a8b6-4355-85e3-e93ce57db750" x1="220.916" y1="184.714" x2="212.609" y2="179.853"/>
  <line class="uuid-27a9b8d3-a8b6-4355-85e3-e93ce57db750" x1="243.634" y1="171.692" x2="235.083" y2="166.806"/>
  <line class="uuid-27a9b8d3-a8b6-4355-85e3-e93ce57db750" x1="266.108" y1="158.649" x2="257.803" y2="153.789"/>
  <line class="uuid-27a9b8d3-a8b6-4355-85e3-e93ce57db750" x1="288.581" y1="145.627" x2="280.277" y2="140.742"/>
  <line class="uuid-27a9b8d3-a8b6-4355-85e3-e93ce57db750" x1="118.317" y1="353.144" x2="115.142" y2="351.29"/>
  <line class="uuid-27a9b8d3-a8b6-4355-85e3-e93ce57db750" x1="118.317" y1="340.126" x2="115.142" y2="338.269"/>
  <line class="uuid-27a9b8d3-a8b6-4355-85e3-e93ce57db750" x1="118.317" y1="327.106" x2="115.142" y2="325.225"/>
  <line class="uuid-27a9b8d3-a8b6-4355-85e3-e93ce57db750" x1="118.317" y1="314.062" x2="115.142" y2="312.204"/>
  <line class="uuid-27a9b8d3-a8b6-4355-85e3-e93ce57db750" x1="118.317" y1="301.041" x2="115.142" y2="299.182"/>
  <line class="uuid-27a9b8d3-a8b6-4355-85e3-e93ce57db750" x1="118.317" y1="288.019" x2="115.142" y2="286.14"/>
  <line class="uuid-27a9b8d3-a8b6-4355-85e3-e93ce57db750" x1="118.317" y1="274.976" x2="115.142" y2="273.118"/>
  <line class="uuid-27a9b8d3-a8b6-4355-85e3-e93ce57db750" x1="118.317" y1="261.885" x2="115.142" y2="260.027"/>
  <line class="uuid-27a9b8d3-a8b6-4355-85e3-e93ce57db750" x1="118.317" y1="248.864" x2="115.142" y2="247.005"/>
  <line class="uuid-27a9b8d3-a8b6-4355-85e3-e93ce57db750" x1="118.317" y1="235.842" x2="115.142" y2="233.987"/>
  <line class="uuid-27a9b8d3-a8b6-4355-85e3-e93ce57db750" x1="118.317" y1="222.799" x2="115.142" y2="220.941"/>
  <line class="uuid-27a9b8d3-a8b6-4355-85e3-e93ce57db750" x1="120.761" y1="211.12" x2="116.849" y2="208.898"/>
  <line class="uuid-27a9b8d3-a8b6-4355-85e3-e93ce57db750" x1="126.622" y1="201.496" x2="122.958" y2="199.346"/>
  <line class="uuid-27a9b8d3-a8b6-4355-85e3-e93ce57db750" x1="136.395" y1="194.092" x2="132.973" y2="192.19"/>
  <line class="uuid-27a9b8d3-a8b6-4355-85e3-e93ce57db750" x1="147.631" y1="187.598" x2="144.456" y2="185.689"/>
  <line class="uuid-27a9b8d3-a8b6-4355-85e3-e93ce57db750" x1="158.868" y1="181.1" x2="155.693" y2="179.169"/>
  <line class="uuid-27a9b8d3-a8b6-4355-85e3-e93ce57db750" x1="170.348" y1="174.577" x2="166.93" y2="172.671"/>
  <line class="uuid-27a9b8d3-a8b6-4355-85e3-e93ce57db750" x1="181.584" y1="168.054" x2="178.167" y2="166.147"/>
  <line class="uuid-27a9b8d3-a8b6-4355-85e3-e93ce57db750" x1="192.821" y1="161.556" x2="189.404" y2="159.624"/>
  <line class="uuid-27a9b8d3-a8b6-4355-85e3-e93ce57db750" x1="204.058" y1="155.037" x2="200.883" y2="153.13"/>
  <line class="uuid-27a9b8d3-a8b6-4355-85e3-e93ce57db750" x1="215.541" y1="148.535" x2="212.12" y2="146.606"/>
  <line class="uuid-27a9b8d3-a8b6-4355-85e3-e93ce57db750" x1="226.778" y1="141.963" x2="223.361" y2="140.061"/>
  <line class="uuid-27a9b8d3-a8b6-4355-85e3-e93ce57db750" x1="238.015" y1="135.465" x2="234.593" y2="133.538"/>
  <line class="uuid-27a9b8d3-a8b6-4355-85e3-e93ce57db750" x1="249.252" y1="128.971" x2="246.077" y2="127.04"/>
  <line class="uuid-27a9b8d3-a8b6-4355-85e3-e93ce57db750" x1="260.731" y1="122.422" x2="257.314" y2="120.494"/>
  <line class="uuid-27a9b8d3-a8b6-4355-85e3-e93ce57db750" x1="271.972" y1="115.924" x2="268.55" y2="113.97"/>
  <line class="uuid-27a9b8d3-a8b6-4355-85e3-e93ce57db750" x1="283.205" y1="109.4" x2="279.787" y2="107.473"/>
  <line class="uuid-27a9b8d3-a8b6-4355-85e3-e93ce57db750" x1="294.442" y1="102.88" x2="291.267" y2="100.949"/>
  <line class="uuid-27a9b8d3-a8b6-4355-85e3-e93ce57db750" x1="305.682" y1="96.383" x2="302.504" y2="94.451"/>
  <line class="uuid-27a9b8d3-a8b6-4355-85e3-e93ce57db750" x1="317.162" y1="89.886" x2="313.744" y2="87.931"/>
</svg>