<?xml version="1.0" encoding="UTF-8"?>
<svg id="uuid-12700960-f14a-42b7-b7d5-9f6997715c5a" data-name="&amp;lt;Layer&amp;gt;" xmlns="http://www.w3.org/2000/svg" viewBox="0 0 451.11 451.11">
  <defs>
    <style>
      .uuid-77e6b639-a94a-408b-bf01-f4c97fa0bd16, .uuid-75716da2-c48c-46d2-8a66-35e4efae3cb2, .uuid-4be455c6-5233-418a-911f-aa298ef7ee73 {
        fill: none;
        stroke: #000;
        stroke-linecap: round;
      }

      .uuid-77e6b639-a94a-408b-bf01-f4c97fa0bd16, .uuid-4be455c6-5233-418a-911f-aa298ef7ee73 {
        stroke-linejoin: round;
        stroke-width: 4.113px;
      }

      .uuid-75716da2-c48c-46d2-8a66-35e4efae3cb2 {
        stroke-miterlimit: 10;
        stroke-width: 1.159px;
      }

      .uuid-4be455c6-5233-418a-911f-aa298ef7ee73 {
        fill-rule: evenodd;
      }
    </style>
  </defs>
  <path class="uuid-4be455c6-5233-418a-911f-aa298ef7ee73" d="M300.233,236.887c2.491-1.053,4.761-1.321,6.668-.927M285.721,271.381c-.319-.347-.536-.688-.71-1.101-.121-.051-.169-.099-.121-.247-.88-1.659-1.317-3.76-1.317-6.324,0-1.149.096-2.422.269-3.644"/>
  <path class="uuid-4be455c6-5233-418a-911f-aa298ef7ee73" d="M98.309,201.003c-.415-.295-1.564-1.442-1.906-1.859-5.182-5.86-6.156-14.754-5.519-22.231.927-11.089,5.618-23.228,12.605-33.584,5.567-8.356,12.701-15.49,20.494-20.035,5.814-3.345,13.166-5.74,19.909-3.834"/>
  <polyline class="uuid-4be455c6-5233-418a-911f-aa298ef7ee73" points="143.892 119.46 145.115 119.876 160.454 128.721"/>
  <path class="uuid-4be455c6-5233-418a-911f-aa298ef7ee73" d="M160.454,128.721c.585.217,1.101.439,1.612.682.173.051.293.121.415.173"/>
  <path class="uuid-4be455c6-5233-418a-911f-aa298ef7ee73" d="M103.49,143.329c5.567-8.356,12.701-15.49,20.494-20.035,5.814-3.345,13.166-5.74,19.909-3.834"/>
  <path class="uuid-4be455c6-5233-418a-911f-aa298ef7ee73" d="M171.006,140.738c-1.66-5.349-4.813-9.183-8.941-11.335-.511-.243-1.027-.465-1.612-.682-5.766-2.152-13.142-1.173-21.13,3.466-18.419,10.627-33.295,36.423-33.295,57.601,0,9.235,2.86,16.1,7.55,20.055.243.174.463.342.706.515,4.055,2.955,9.331,3.93,15.438,2.539"/>
  <polyline class="uuid-4be455c6-5233-418a-911f-aa298ef7ee73" points="224.088 171.321 224.04 171.321 171.642 141.08 171.006 140.738 160.502 134.631 159.354 134.288"/>
  <path class="uuid-4be455c6-5233-418a-911f-aa298ef7ee73" d="M159.354,134.288c-5.936-1.759-12.482.393-17.662,3.422-6.865,3.955-13.018,10.111-17.955,17.367-6.325,9.283-10.553,20.203-11.38,30.193-.563,6.619.291,14.512,4.882,19.688.295.343,1.347,1.394,1.689,1.684"/>
  <polyline class="uuid-4be455c6-5233-418a-911f-aa298ef7ee73" points="118.928 206.642 129.724 212.897 129.798 212.897 130.361 213.266 182.217 243.164"/>
  <path class="uuid-4be455c6-5233-418a-911f-aa298ef7ee73" d="M185.835,163.775c4.054-2.37,10.677-2.37,14.801,0,4.059,2.391,4.059,6.229,0,8.551-4.124,2.365-10.747,2.365-14.801,0-4.129-2.322-4.129-6.16,0-8.551Z"/>
  <path class="uuid-4be455c6-5233-418a-911f-aa298ef7ee73" d="M211.851,265.421c-.121-.078-.195-.078-.293-.078-.928-.169-1.881-.412-2.735-.68-.54-.122-.979-.368-1.442-.541-1.342-.632-2.565-1.39-3.664-2.27"/>
  <path class="uuid-4be455c6-5233-418a-911f-aa298ef7ee73" d="M188.446,253.033c-.412-.29-1.633-1.443-1.927-1.855-2.028-2.322-3.419-5.06-4.302-8.014-1.39-4.592-1.611-9.625-1.221-14.217.957-11.116,5.571-23.254,12.609-33.59"/>
  <path class="uuid-4be455c6-5233-418a-911f-aa298ef7ee73" d="M193.605,195.311c1.171-1.686,2.392-3.371,3.666-4.935,1.047-1.342,2.144-2.615,3.245-3.837,1.394-1.512,2.836-2.954,4.348-4.298.589-.512,1.123-1.053,1.686-1.49.588-.537,1.221-1.053,1.879-1.542,1.833-1.438,3.764-2.708,5.67-3.856.832-.489,1.686-.953,2.565-1.346.391-.243.88-.459,1.343-.633.441-.246.853-.415,1.32-.588.707-.291,1.465-.537,2.149-.754.758-.247,1.464-.417,2.222-.589.048,0,.099-.048.169-.048.052,0,.126-.073.173-.073"/>
  <path class="uuid-4be455c6-5233-418a-911f-aa298ef7ee73" d="M224.088,171.321c.537-.096,1.053-.218,1.564-.295.489-.048.88-.096,1.343-.096,2.395-.247,4.717-.073,6.965.563"/>
  <polyline class="uuid-4be455c6-5233-418a-911f-aa298ef7ee73" points="233.961 171.494 235.252 171.905 250.569 180.751"/>
  <path class="uuid-4be455c6-5233-418a-911f-aa298ef7ee73" d="M250.569,180.751c.122.048.243.099.343.169.121.052.243.1.367.174"/>
  <path class="uuid-4be455c6-5233-418a-911f-aa298ef7ee73" d="M212.488,265.465c-.199,0-.417-.044-.637-.122-.073.078-.195,0-.293,0-.928-.169-1.881-.412-2.735-.68-.54-.122-.979-.368-1.442-.541-1.342-.632-2.565-1.39-3.664-2.27-2.98-2.417-5.18-6.034-6.399-10.6v-.074c-.757-2.737-1.147-5.866-1.147-9.357,0-12.238,4.982-26.064,12.775-37.569,5.567-8.405,12.701-15.561,20.494-20.035,3.127-1.807,6.207-3.076,9.063-3.786h.051c4.64-1.144,8.816-.975,12.36.489.121.052.243.1.367.174"/>
  <path class="uuid-4be455c6-5233-418a-911f-aa298ef7ee73" d="M300.403,178.134c-15.392,2.785-31.368,6.255-46.217,4.57,0,0-.122,0-.122-.048-1.099-.073-2.152-.173-3.201-.341-3.08-.537-6.622-.174-10.335,1.027"/>
  <path class="uuid-4be455c6-5233-418a-911f-aa298ef7ee73" d="M240.529,183.415c-2.198.681-4.54,1.733-6.914,3.076-17.709,10.214-32.048,35.078-32.048,55.5,0,3.543.391,6.744,1.223,9.478"/>
  <path class="uuid-4be455c6-5233-418a-911f-aa298ef7ee73" d="M202.836,251.469c1.175,4.058,3.08,7.328,5.693,9.577,1.051,1.175,2.148,2.665,3.322,4.298v.078"/>
  <path class="uuid-4be455c6-5233-418a-911f-aa298ef7ee73" d="M211.899,265.421c7.208,10.331,16.613,28.309,22.989,39.939,0,.07.074.07.074.121.291.585.584,1.223.975,1.781.295.637.636,1.221,1.053,1.859.047.121.169.317.291.489-4.714-17.661-1.465-39.845,6.913-61.096"/>
  <path class="uuid-4be455c6-5233-418a-911f-aa298ef7ee73" d="M300.818,178.014h.048q.052-.07.121-.07"/>
  <polyline class="uuid-4be455c6-5233-418a-911f-aa298ef7ee73" points="341.516 188.103 341.516 188.055 341.684 188.176"/>
  <path class="uuid-4be455c6-5233-418a-911f-aa298ef7ee73" d="M300.403,178.134c-.511.1-1.049.273-1.564.443-14.875,5.519-25.502,14.364-36.127,26.042q-.048.048-.122.096c-3.006,3.492-5.696,6.961-8.234,10.527-.828,1.199-1.637,2.369-2.443,3.59-5.862,8.724-10.505,17.761-14.582,28.339-1.273,3.712-2.443,7.326-3.422,10.92-2.954,11.038-4.176,21.837-2.785,33.979.858,4.982,1.98,9.404,3.764,13.29,0,.07.074.07.074.121.291.585.584,1.223.975,1.781.295.637.636,1.221,1.053,1.859.047.121.169.317.291.489,1.637,2.443,3.664,4.813,6.207,7.061"/>
  <polyline class="uuid-4be455c6-5233-418a-911f-aa298ef7ee73" points="243.487 316.671 245.292 318.061 261.316 327.319 261.316 327.245"/>
  <polyline class="uuid-4be455c6-5233-418a-911f-aa298ef7ee73" points="341.684 188.176 341.516 188.055 325.662 178.87"/>
  <path class="uuid-4be455c6-5233-418a-911f-aa298ef7ee73" d="M325.662,178.87c-4.813-2.026-9.235-2.836-13.585-2.711-3.54.048-7.156.685-11.038,1.784"/>
  <path class="uuid-4be455c6-5233-418a-911f-aa298ef7ee73" d="M300.403,178.134c-.511.052-1.049.273-1.564.443-14.875,5.519-25.502,14.364-36.127,26.042q-.048.048-.122.096c-3.006,3.492-5.696,6.961-8.234,10.527-.828,1.199-1.637,2.369-2.443,3.59"/>
  <path class="uuid-4be455c6-5233-418a-911f-aa298ef7ee73" d="M359.103,212.725c.173,1.004.364,2.053.537,3.08.047.121.047.293.047.463.052.415.174.879.174,1.394.047.122.047.243.047.365.148,1.099.247,2.2.317,3.299.1,1.512.173,3.076.173,4.714,0,36.274-25.501,80.368-56.916,98.544-.931.511-1.857,1.049-2.784,1.512-.465.295-.932.512-1.395.684-.879.463-1.759.88-2.565,1.221-.853.417-1.733.758-2.564,1.049-1.149.467-2.248.883-3.345,1.151-.247.122-.415.192-.589.192"/>
  <path class="uuid-4be455c6-5233-418a-911f-aa298ef7ee73" d="M290.239,330.445c-.805.222-1.563.465-2.395.638-.048.074-.169.074-.269.074h-.121c-.122.047-.243.047-.343.095"/>
  <path class="uuid-4be455c6-5233-418a-911f-aa298ef7ee73" d="M303.482,324.533c31.415-18.124,56.843-62.218,56.843-98.492s-25.428-51.007-56.843-32.88c-31.414,18.125-56.92,62.266-56.92,98.542s25.506,51.006,56.92,32.83Z"/>
  <path class="uuid-4be455c6-5233-418a-911f-aa298ef7ee73" d="M303.482,310.29c25.134-14.508,45.533-49.829,45.533-78.852s-20.398-40.819-45.533-26.308c-25.137,14.508-45.535,49.808-45.535,78.853s20.398,40.77,45.535,26.307Z"/>
  <path class="uuid-4be455c6-5233-418a-911f-aa298ef7ee73" d="M292.782,242.406c.122-.096.243-.291.413-.415.125-.096.293-.217.419-.391.217-.243.389-.415.632-.636.417-.413.806-.754,1.221-1.049"/>
  <polyline class="uuid-4be455c6-5233-418a-911f-aa298ef7ee73" points="308.537 236.498 284.379 221.106 284.327 221.106"/>
  <path class="uuid-4be455c6-5233-418a-911f-aa298ef7ee73" d="M284.327,221.106c-.191.221-.363.391-.537.633-.169.099-.291.295-.411.467"/>
  <path class="uuid-4be455c6-5233-418a-911f-aa298ef7ee73" d="M283.326,222.255c-.927,1.049-1.807,2.1-2.664,3.201-.88,1.099-1.755,2.196-2.565,3.369-.585.758-1.143,1.516-1.685,2.322-5.445,7.889-10.037,16.656-13.166,25.55-.367.93-.71,1.858-1.001,2.785-.047.048-.047.121-.047.221-.247.415-.295.831-.467,1.221"/>
  <polyline class="uuid-4be455c6-5233-418a-911f-aa298ef7ee73" points="261.733 260.924 261.779 260.924 287.922 273.357"/>
  <path class="uuid-4be455c6-5233-418a-911f-aa298ef7ee73" d="M287.922,273.357c-.126-.048-.247-.169-.347-.221-.291-.169-.533-.343-.78-.585-.389-.341-.732-.758-1.075-1.169-.367-.393-.658-.858-.831-1.347"/>
  <path class="uuid-4be455c6-5233-418a-911f-aa298ef7ee73" d="M283.842,260.067c.074-.632.243-1.218.415-1.854.07-.417.17-.832.291-1.175.173-.632.417-1.342.637-1.976,1.611-4.569,4.348-9.113,7.667-12.583.052-.122.173-.316.343-.489.125-.096.293-.217.419-.391.217-.243.389-.415.632-.636.417-.413.806-.754,1.221-1.049,1.513-1.343,3.128-2.392,4.765-3.028"/>
  <path class="uuid-4be455c6-5233-418a-911f-aa298ef7ee73" d="M287.922,273.357c2.66,1.564,6.446,1.343,10.574-1.049,8.231-4.739,14.928-16.317,14.928-25.895,0-4.761-1.712-8.062-4.376-9.646-.048,0-.121-.052-.169-.1-.221-.122-.511-.243-.806-.343-.367-.121-.758-.243-1.173-.363"/>
  <path class="uuid-4be455c6-5233-418a-911f-aa298ef7ee73" d="M114.285,210.359c-.243-.173-.463-.342-.706-.515"/>
  <line class="uuid-77e6b639-a94a-408b-bf01-f4c97fa0bd16" x1="113.579" y1="209.843" x2="98.309" y2="201.003"/>
  <line class="uuid-77e6b639-a94a-408b-bf01-f4c97fa0bd16" x1="203.716" y1="261.852" x2="188.446" y2="253.033"/>
  <path class="uuid-4be455c6-5233-418a-911f-aa298ef7ee73" d="M244.241,248.441c13.536-34.543,40.429-66.59,67.836-72.282"/>
  <line class="uuid-75716da2-c48c-46d2-8a66-35e4efae3cb2" x1="247.147" y1="309.706" x2="236.815" y2="291.776"/>
  <line class="uuid-75716da2-c48c-46d2-8a66-35e4efae3cb2" x1="248.369" y1="266.565" x2="242.923" y2="257.212"/>
  <line class="uuid-75716da2-c48c-46d2-8a66-35e4efae3cb2" x1="258.925" y1="239.793" x2="254.112" y2="231.364"/>
  <line class="uuid-75716da2-c48c-46d2-8a66-35e4efae3cb2" x1="272.701" y1="218.494" x2="267.94" y2="210.186"/>
  <line class="uuid-75716da2-c48c-46d2-8a66-35e4efae3cb2" x1="288.897" y1="201.418" x2="284.084" y2="193.063"/>
  <line class="uuid-75716da2-c48c-46d2-8a66-35e4efae3cb2" x1="307.779" y1="188.934" x2="303.114" y2="180.799"/>
  <line class="uuid-75716da2-c48c-46d2-8a66-35e4efae3cb2" x1="194.485" y1="240.088" x2="183.733" y2="221.449"/>
  <line class="uuid-75716da2-c48c-46d2-8a66-35e4efae3cb2" x1="203.351" y1="210.286" x2="195.069" y2="195.947"/>
  <line class="uuid-75716da2-c48c-46d2-8a66-35e4efae3cb2" x1="218.106" y1="190.667" x2="211.387" y2="178.992"/>
  <line class="uuid-75716da2-c48c-46d2-8a66-35e4efae3cb2" x1="237.28" y1="178.772" x2="234.545" y2="174.007"/>
  <line class="uuid-75716da2-c48c-46d2-8a66-35e4efae3cb2" x1="104.344" y1="188.639" x2="93.544" y2="169.882"/>
  <line class="uuid-75716da2-c48c-46d2-8a66-35e4efae3cb2" x1="113.064" y1="158.62" x2="104.759" y2="144.207"/>
  <line class="uuid-75716da2-c48c-46d2-8a66-35e4efae3cb2" x1="127.77" y1="138.931" x2="120.952" y2="127.132"/>
  <line class="uuid-75716da2-c48c-46d2-8a66-35e4efae3cb2" x1="146.873" y1="126.837" x2="143.842" y2="121.609"/>
  <line class="uuid-75716da2-c48c-46d2-8a66-35e4efae3cb2" x1="119.73" y1="209.358" x2="116.485" y2="209.358"/>
  <line class="uuid-75716da2-c48c-46d2-8a66-35e4efae3cb2" x1="111.426" y1="198.095" x2="108.935" y2="198.095"/>
  <line class="uuid-75716da2-c48c-46d2-8a66-35e4efae3cb2" x1="110.278" y1="186.834" x2="108.13" y2="186.834"/>
  <line class="uuid-75716da2-c48c-46d2-8a66-35e4efae3cb2" x1="112.063" y1="175.523" x2="110.035" y2="175.523"/>
  <line class="uuid-75716da2-c48c-46d2-8a66-35e4efae3cb2" x1="116.191" y1="164.238" x2="114.211" y2="164.238"/>
  <line class="uuid-75716da2-c48c-46d2-8a66-35e4efae3cb2" x1="122.762" y1="152.975" x2="120.614" y2="152.975"/>
  <line class="uuid-75716da2-c48c-46d2-8a66-35e4efae3cb2" x1="132.752" y1="141.664" x2="130.066" y2="141.664"/>
  <line class="uuid-75716da2-c48c-46d2-8a66-35e4efae3cb2" x1="159.453" y1="130.381" x2="148.36" y2="130.381"/>
  <line class="uuid-75716da2-c48c-46d2-8a66-35e4efae3cb2" x1="200.979" y1="252.4" x2="199.709" y2="252.4"/>
  <line class="uuid-75716da2-c48c-46d2-8a66-35e4efae3cb2" x1="199.514" y1="241.137" x2="198.123" y2="241.137"/>
  <line class="uuid-75716da2-c48c-46d2-8a66-35e4efae3cb2" x1="200.979" y1="229.874" x2="199.587" y2="229.874"/>
  <line class="uuid-75716da2-c48c-46d2-8a66-35e4efae3cb2" x1="204.695" y1="218.542" x2="203.351" y2="218.542"/>
  <line class="uuid-75716da2-c48c-46d2-8a66-35e4efae3cb2" x1="210.508" y1="207.28" x2="209.334" y2="207.28"/>
  <line class="uuid-75716da2-c48c-46d2-8a66-35e4efae3cb2" x1="218.986" y1="195.947" x2="218.055" y2="195.947"/>
  <line class="uuid-75716da2-c48c-46d2-8a66-35e4efae3cb2" x1="295.81" y1="326.564" x2="262.954" y2="326.564"/>
  <line class="uuid-75716da2-c48c-46d2-8a66-35e4efae3cb2" x1="313.766" y1="315.228" x2="297.543" y2="315.228"/>
  <line class="uuid-75716da2-c48c-46d2-8a66-35e4efae3cb2" x1="270.894" y1="315.228" x2="253.085" y2="315.228"/>
  <line class="uuid-75716da2-c48c-46d2-8a66-35e4efae3cb2" x1="325.488" y1="303.966" x2="315.45" y2="303.966"/>
  <line class="uuid-75716da2-c48c-46d2-8a66-35e4efae3cb2" x1="260.341" y1="303.966" x2="249.421" y2="303.966"/>
  <line class="uuid-75716da2-c48c-46d2-8a66-35e4efae3cb2" x1="334.602" y1="292.63" x2="326.467" y2="292.63"/>
  <line class="uuid-75716da2-c48c-46d2-8a66-35e4efae3cb2" x1="256.798" y1="292.63" x2="248.369" y2="292.63"/>
  <line class="uuid-75716da2-c48c-46d2-8a66-35e4efae3cb2" x1="341.931" y1="281.371" x2="334.723" y2="281.371"/>
  <line class="uuid-75716da2-c48c-46d2-8a66-35e4efae3cb2" x1="256.214" y1="281.371" x2="249.079" y2="281.371"/>
  <line class="uuid-75716da2-c48c-46d2-8a66-35e4efae3cb2" x1="347.793" y1="270.108" x2="340.978" y2="270.108"/>
  <line class="uuid-75716da2-c48c-46d2-8a66-35e4efae3cb2" x1="257.53" y1="270.108" x2="251.154" y2="270.108"/>
  <line class="uuid-75716da2-c48c-46d2-8a66-35e4efae3cb2" x1="352.363" y1="258.797" x2="345.743" y2="258.797"/>
  <line class="uuid-75716da2-c48c-46d2-8a66-35e4efae3cb2" x1="260.463" y1="258.797" x2="254.576" y2="258.797"/>
  <line class="uuid-75716da2-c48c-46d2-8a66-35e4efae3cb2" x1="355.733" y1="247.514" x2="349.014" y2="247.514"/>
  <line class="uuid-75716da2-c48c-46d2-8a66-35e4efae3cb2" x1="264.908" y1="247.514" x2="259.168" y2="247.514"/>
  <line class="uuid-75716da2-c48c-46d2-8a66-35e4efae3cb2" x1="357.882" y1="236.251" x2="350.626" y2="236.251"/>
  <line class="uuid-75716da2-c48c-46d2-8a66-35e4efae3cb2" x1="270.894" y1="236.251" x2="265.08" y2="236.251"/>
  <line class="uuid-75716da2-c48c-46d2-8a66-35e4efae3cb2" x1="358.518" y1="224.94" x2="350.456" y2="224.94"/>
  <line class="uuid-75716da2-c48c-46d2-8a66-35e4efae3cb2" x1="278.613" y1="224.94" x2="272.41" y2="224.94"/>
  <line class="uuid-75716da2-c48c-46d2-8a66-35e4efae3cb2" x1="357.491" y1="213.655" x2="347.671" y2="213.655"/>
  <line class="uuid-75716da2-c48c-46d2-8a66-35e4efae3cb2" x1="289.018" y1="213.655" x2="281.519" y2="213.655"/>
  <line class="uuid-75716da2-c48c-46d2-8a66-35e4efae3cb2" x1="353.657" y1="202.345" x2="339.414" y2="202.345"/>
  <line class="uuid-75716da2-c48c-46d2-8a66-35e4efae3cb2" x1="304.582" y1="202.345" x2="293.368" y2="202.345"/>
  <line class="uuid-75716da2-c48c-46d2-8a66-35e4efae3cb2" x1="343.786" y1="191.083" x2="311.201" y2="191.083"/>
  <line class="uuid-75716da2-c48c-46d2-8a66-35e4efae3cb2" x1="197.391" y1="171.737" x2="192.796" y2="163.775"/>
  <line class="uuid-75716da2-c48c-46d2-8a66-35e4efae3cb2" x1="279.835" y1="315.228" x2="259.414" y2="279.929"/>
  <line class="uuid-75716da2-c48c-46d2-8a66-35e4efae3cb2" x1="302.846" y1="309.952" x2="280.372" y2="271.087"/>
  <line class="uuid-75716da2-c48c-46d2-8a66-35e4efae3cb2" x1="320.385" y1="295.195" x2="304.921" y2="268.471"/>
  <line class="uuid-75716da2-c48c-46d2-8a66-35e4efae3cb2" x1="335.702" y1="276.558" x2="296.69" y2="209.016"/>
  <line class="uuid-75716da2-c48c-46d2-8a66-35e4efae3cb2" x1="345.934" y1="249.199" x2="317.478" y2="199.854"/>
</svg>