<?xml version="1.0" encoding="UTF-8"?>
<svg id="uuid-51760cbe-387d-4822-a9ea-5ee7aa98016f" data-name="&amp;lt;Layer&amp;gt;" xmlns="http://www.w3.org/2000/svg" viewBox="0 0 451.11 451.11">
  <defs>
    <style>
      .uuid-3183689d-6e2e-4c6c-a67a-415c63872010, .uuid-cc1d2d34-cb1e-453b-a920-5b2c79a6e09c, .uuid-13ec9f87-fcd0-4718-8294-6ae213a487ad, .uuid-02c1dfba-64d1-412b-a1c0-3e1f0d75b21f {
        fill: none;
        stroke: #000;
        stroke-linecap: round;
      }

      .uuid-3183689d-6e2e-4c6c-a67a-415c63872010, .uuid-02c1dfba-64d1-412b-a1c0-3e1f0d75b21f {
        stroke-linejoin: round;
        stroke-width: 4.117px;
      }

      .uuid-cc1d2d34-cb1e-453b-a920-5b2c79a6e09c {
        stroke-width: 1.163px;
      }

      .uuid-cc1d2d34-cb1e-453b-a920-5b2c79a6e09c, .uuid-13ec9f87-fcd0-4718-8294-6ae213a487ad {
        stroke-miterlimit: 10;
      }

      .uuid-13ec9f87-fcd0-4718-8294-6ae213a487ad {
        stroke-width: 1.159px;
      }

      .uuid-02c1dfba-64d1-412b-a1c0-3e1f0d75b21f {
        fill-rule: evenodd;
      }
    </style>
  </defs>
  <path class="uuid-02c1dfba-64d1-412b-a1c0-3e1f0d75b21f" d="M139.642,343.293c-5.519-6.255-9.695-14.342-12.19-22.255-7.278-22.618-4.54-50.103,1.494-72.697,12.09-45.047,42.625-93,81.195-119.746,13.754-9.552,30.756-17.809,47.612-19.299,6.618-.588,13.949-.073,20.273,1.734"/>
  <polyline class="uuid-02c1dfba-64d1-412b-a1c0-3e1f0d75b21f" points="281.744 112.252 251.551 94.833 247.885 93.611"/>
  <path class="uuid-02c1dfba-64d1-412b-a1c0-3e1f0d75b21f" d="M349.676,301.007c1.296.758,1.737,2.395.979,3.738"/>
  <polyline class="uuid-02c1dfba-64d1-412b-a1c0-3e1f0d75b21f" points="222.796 227.672 236.281 235.466 250.793 243.87 263.788 251.369 277.542 259.335 292.028 267.686 296.203 270.129 348.116 300.079 349.676 301.007"/>
  <path class="uuid-02c1dfba-64d1-412b-a1c0-3e1f0d75b21f" d="M219.084,228.675c.758-1.291,2.443-1.756,3.712-1.002"/>
  <line class="uuid-3183689d-6e2e-4c6c-a67a-415c63872010" x1="218.204" y1="230.237" x2="219.084" y2="228.675"/>
  <path class="uuid-02c1dfba-64d1-412b-a1c0-3e1f0d75b21f" d="M219.183,233.954c-1.269-.758-1.737-2.443-.979-3.716"/>
  <polyline class="uuid-02c1dfba-64d1-412b-a1c0-3e1f0d75b21f" points="346.084 307.236 344.572 306.356 292.712 276.384 288.535 273.941 274.024 265.586 260.245 257.697 247.47 250.272 232.837 241.843 219.183 233.954"/>
  <path class="uuid-02c1dfba-64d1-412b-a1c0-3e1f0d75b21f" d="M349.8,306.235c-.758,1.295-2.443,1.759-3.716,1.001"/>
  <line class="uuid-3183689d-6e2e-4c6c-a67a-415c63872010" x1="350.654" y1="304.745" x2="349.8" y2="306.235"/>
  <line class="uuid-3183689d-6e2e-4c6c-a67a-415c63872010" x1="294.444" y1="291.138" x2="292.712" y2="276.384"/>
  <path class="uuid-02c1dfba-64d1-412b-a1c0-3e1f0d75b21f" d="M295.861,292.482c-.585-.291-1.295-.511-1.416-1.343"/>
  <line class="uuid-3183689d-6e2e-4c6c-a67a-415c63872010" x1="340.102" y1="318.204" x2="295.861" y2="292.482"/>
  <path class="uuid-02c1dfba-64d1-412b-a1c0-3e1f0d75b21f" d="M344.694,309.899c.047,2.028.636,7.035-.465,8.014-1.051,1.001-2.737,1.097-4.128.291"/>
  <line class="uuid-3183689d-6e2e-4c6c-a67a-415c63872010" x1="344.572" y1="306.356" x2="344.694" y2="309.899"/>
  <path class="uuid-02c1dfba-64d1-412b-a1c0-3e1f0d75b21f" d="M356.298,290.16c1.391.81,2.15,2.322,1.807,3.716"/>
  <line class="uuid-3183689d-6e2e-4c6c-a67a-415c63872010" x1="311.936" y1="264.658" x2="356.298" y2="290.16"/>
  <path class="uuid-02c1dfba-64d1-412b-a1c0-3e1f0d75b21f" d="M310.078,264.146c.758-.367,1.273.17,1.859.511"/>
  <line class="uuid-3183689d-6e2e-4c6c-a67a-415c63872010" x1="296.203" y1="270.129" x2="310.078" y2="264.146"/>
  <line class="uuid-3183689d-6e2e-4c6c-a67a-415c63872010" x1="350.971" y1="298.589" x2="348.116" y2="300.079"/>
  <path class="uuid-02c1dfba-64d1-412b-a1c0-3e1f0d75b21f" d="M358.105,293.876c-.295,1.44-5.35,3.712-7.134,4.713"/>
  <path class="uuid-02c1dfba-64d1-412b-a1c0-3e1f0d75b21f" d="M236.281,235.466c2.078-4.834,3.3-9.819,3.3-14.46,0-12.436-8.771-17.492-19.518-11.215-10.799,6.207-19.493,21.304-19.493,33.736s8.694,17.466,19.493,11.263c4.886-2.834,9.352-7.547,12.775-12.948"/>
  <path class="uuid-02c1dfba-64d1-412b-a1c0-3e1f0d75b21f" d="M250.793,243.87c5.106-10.505,8.135-21.716,8.135-32.048,0-24.796-17.444-34.837-38.865-22.404-21.473,12.362-38.917,42.481-38.917,67.299s17.444,34.837,38.917,22.474c10.626-6.225,20.398-16.804,27.407-28.919"/>
  <path class="uuid-02c1dfba-64d1-412b-a1c0-3e1f0d75b21f" d="M263.788,251.369c9.061-17.024,14.533-35.712,14.533-52.74,0-37.107-26.086-52.129-58.258-33.612-32.172,18.589-58.237,63.756-58.237,100.862s26.065,52.229,58.237,33.638c15.633-9.011,29.798-24.28,40.182-41.82"/>
  <path class="uuid-02c1dfba-64d1-412b-a1c0-3e1f0d75b21f" d="M277.542,259.335c12.432-23.183,20.103-48.685,20.103-71.844,0-49.538-34.711-69.573-77.583-44.825-42.847,24.722-77.584,84.887-77.584,134.429s34.737,69.522,77.584,44.774c20.958-12.09,39.965-32.684,53.962-56.283"/>
  <path class="uuid-02c1dfba-64d1-412b-a1c0-3e1f0d75b21f" d="M288.535,273.941c-17.539,30.315-41.749,56.795-68.472,72.26-30.072,17.418-57.016,17.073-74.798,2.491-2.152-1.737-4.128-3.664-5.987-5.814M281.744,112.226c21.546,8.135,35.248,31.292,35.248,66.081,0,28.825-9.478,60.58-24.965,89.379"/>
  <line class="uuid-3183689d-6e2e-4c6c-a67a-415c63872010" x1="278.027" y1="111.03" x2="281.744" y2="112.252"/>
  <polyline class="uuid-02c1dfba-64d1-412b-a1c0-3e1f0d75b21f" points="112.165 328.683 115.019 331.248 145.212 348.666"/>
  <path class="uuid-02c1dfba-64d1-412b-a1c0-3e1f0d75b21f" d="M247.885,93.611c-7.84-2.248-16.66-2.443-24.7-1.195-22.937,3.544-45.507,18.541-62.118,34.126-35.421,33.126-63.66,85.987-67.641,134.552-1.418,16.708-.074,35.542,7.061,50.908,2.784,6.008,6.913,12.09,11.678,16.682"/>
  <line class="uuid-cc1d2d34-cb1e-453b-a920-5b2c79a6e09c" x1="129.284" y1="330.494" x2="123.376" y2="333.911"/>
  <line class="uuid-cc1d2d34-cb1e-453b-a920-5b2c79a6e09c" x1="125.403" y1="319.72" x2="112.797" y2="326.998"/>
  <line class="uuid-cc1d2d34-cb1e-453b-a920-5b2c79a6e09c" x1="123.033" y1="308.067" x2="105.541" y2="318.156"/>
  <line class="uuid-cc1d2d34-cb1e-453b-a920-5b2c79a6e09c" x1="121.934" y1="295.657" x2="100.265" y2="308.141"/>
  <line class="uuid-cc1d2d34-cb1e-453b-a920-5b2c79a6e09c" x1="122.103" y1="282.54" x2="96.723" y2="297.173"/>
  <line class="uuid-cc1d2d34-cb1e-453b-a920-5b2c79a6e09c" x1="123.619" y1="268.639" x2="94.625" y2="285.326"/>
  <line class="uuid-cc1d2d34-cb1e-453b-a920-5b2c79a6e09c" x1="126.404" y1="253.984" x2="93.937" y2="272.698"/>
  <line class="uuid-cc1d2d34-cb1e-453b-a920-5b2c79a6e09c" x1="130.752" y1="238.42" x2="94.573" y2="259.309"/>
  <line class="uuid-cc1d2d34-cb1e-453b-a920-5b2c79a6e09c" x1="136.861" y1="221.86" x2="96.553" y2="245.164"/>
  <line class="uuid-cc1d2d34-cb1e-453b-a920-5b2c79a6e09c" x1="145.165" y1="204.029" x2="99.924" y2="230.143"/>
  <line class="uuid-cc1d2d34-cb1e-453b-a920-5b2c79a6e09c" x1="156.475" y1="184.459" x2="104.905" y2="214.239"/>
  <line class="uuid-cc1d2d34-cb1e-453b-a920-5b2c79a6e09c" x1="268.331" y1="106.827" x2="267.695" y2="107.196"/>
  <line class="uuid-cc1d2d34-cb1e-453b-a920-5b2c79a6e09c" x1="172.551" y1="162.133" x2="111.818" y2="197.211"/>
  <line class="uuid-13ec9f87-fcd0-4718-8294-6ae213a487ad" x1="257.754" y1="99.914" x2="231.652" y2="114.955"/>
  <line class="uuid-cc1d2d34-cb1e-453b-a920-5b2c79a6e09c" x1="204.914" y1="130.428" x2="120.811" y2="178.965"/>
  <line class="uuid-cc1d2d34-cb1e-453b-a920-5b2c79a6e09c" x1="247.837" y1="92.61" x2="133.708" y2="158.493"/>
  <line class="uuid-cc1d2d34-cb1e-453b-a920-5b2c79a6e09c" x1="223.605" y1="93.563" x2="158.282" y2="131.28"/>
  <line class="uuid-cc1d2d34-cb1e-453b-a920-5b2c79a6e09c" x1="313.378" y1="203.831" x2="280.348" y2="261.045"/>
  <line class="uuid-cc1d2d34-cb1e-453b-a920-5b2c79a6e09c" x1="276.979" y1="266.88" x2="240.214" y2="330.516"/>
  <line class="uuid-cc1d2d34-cb1e-453b-a920-5b2c79a6e09c" x1="313.79" y1="157.931" x2="299.161" y2="183.289"/>
  <line class="uuid-cc1d2d34-cb1e-453b-a920-5b2c79a6e09c" x1="217.277" y1="325.095" x2="200.786" y2="353.725"/>
  <line class="uuid-cc1d2d34-cb1e-453b-a920-5b2c79a6e09c" x1="303.289" y1="130.987" x2="291.074" y2="152.069"/>
  <line class="uuid-cc1d2d34-cb1e-453b-a920-5b2c79a6e09c" x1="186.204" y1="333.742" x2="172.157" y2="358.047"/>
  <line class="uuid-cc1d2d34-cb1e-453b-a920-5b2c79a6e09c" x1="286.092" y1="115.573" x2="274.582" y2="135.508"/>
  <line class="uuid-cc1d2d34-cb1e-453b-a920-5b2c79a6e09c" x1="163.606" y1="327.73" x2="150.272" y2="350.84"/>
  <line class="uuid-cc1d2d34-cb1e-453b-a920-5b2c79a6e09c" x1="262.982" y1="110.467" x2="251.304" y2="130.696"/>
  <line class="uuid-cc1d2d34-cb1e-453b-a920-5b2c79a6e09c" x1="147.829" y1="309.948" x2="134.292" y2="333.374"/>
  <line class="uuid-cc1d2d34-cb1e-453b-a920-5b2c79a6e09c" x1="232.789" y1="117.575" x2="219.084" y2="141.418"/>
  <line class="uuid-cc1d2d34-cb1e-453b-a920-5b2c79a6e09c" x1="140.962" y1="276.627" x2="125.355" y2="303.692"/>
  <line class="uuid-cc1d2d34-cb1e-453b-a920-5b2c79a6e09c" x1="189.87" y1="146.767" x2="129.068" y2="252.105"/>
  <line class="uuid-cc1d2d34-cb1e-453b-a920-5b2c79a6e09c" x1="275.635" y1="185.39" x2="260.491" y2="211.624"/>
  <line class="uuid-cc1d2d34-cb1e-453b-a920-5b2c79a6e09c" x1="220.647" y1="280.707" x2="207.358" y2="303.692"/>
  <line class="uuid-cc1d2d34-cb1e-453b-a920-5b2c79a6e09c" x1="262.471" y1="163.085" x2="249.107" y2="186.221"/>
  <line class="uuid-cc1d2d34-cb1e-453b-a920-5b2c79a6e09c" x1="192.945" y1="283.519" x2="181.439" y2="303.45"/>
  <line class="uuid-cc1d2d34-cb1e-453b-a920-5b2c79a6e09c" x1="238.702" y1="159.104" x2="223.091" y2="186.196"/>
  <line class="uuid-cc1d2d34-cb1e-453b-a920-5b2c79a6e09c" x1="179.828" y1="261.045" x2="166.049" y2="284.861"/>
  <line class="uuid-cc1d2d34-cb1e-453b-a920-5b2c79a6e09c" x1="196.657" y1="186.71" x2="168.908" y2="234.782"/>
  <line class="uuid-cc1d2d34-cb1e-453b-a920-5b2c79a6e09c" x1="237.38" y1="216.146" x2="229.467" y2="229.752"/>
  <line class="uuid-cc1d2d34-cb1e-453b-a920-5b2c79a6e09c" x1="224.407" y1="238.568" x2="214.738" y2="255.35"/>
  <line class="uuid-cc1d2d34-cb1e-453b-a920-5b2c79a6e09c" x1="354.319" y1="291.017" x2="345.157" y2="296.319"/>
  <line class="uuid-cc1d2d34-cb1e-453b-a920-5b2c79a6e09c" x1="343.008" y1="284.494" x2="333.821" y2="289.796"/>
  <line class="uuid-cc1d2d34-cb1e-453b-a920-5b2c79a6e09c" x1="331.676" y1="277.996" x2="322.562" y2="283.272"/>
  <line class="uuid-cc1d2d34-cb1e-453b-a920-5b2c79a6e09c" x1="320.362" y1="271.498" x2="311.299" y2="276.752"/>
  <line class="uuid-cc1d2d34-cb1e-453b-a920-5b2c79a6e09c" x1="342.25" y1="307.015" x2="333.309" y2="312.196"/>
  <line class="uuid-cc1d2d34-cb1e-453b-a920-5b2c79a6e09c" x1="330.988" y1="300.518" x2="322.05" y2="305.65"/>
  <line class="uuid-cc1d2d34-cb1e-453b-a920-5b2c79a6e09c" x1="319.656" y1="293.998" x2="310.836" y2="299.1"/>
  <line class="uuid-cc1d2d34-cb1e-453b-a920-5b2c79a6e09c" x1="308.393" y1="287.474" x2="299.573" y2="292.58"/>
  <line class="uuid-cc1d2d34-cb1e-453b-a920-5b2c79a6e09c" x1="296.887" y1="281.098" x2="295.445" y2="281.929"/>
</svg>