<?xml version="1.0" encoding="UTF-8"?>
<svg id="uuid-96468cd2-cb7c-4e8e-ab9a-f2dd5939bd9b" data-name="&amp;lt;Layer&amp;gt;" xmlns="http://www.w3.org/2000/svg" viewBox="0 0 451.11 451.11">
  <defs>
    <style>
      .uuid-382bcf7d-a58c-47af-8fbe-0f14c1d454cf, .uuid-8e4a8bbe-024d-44d3-9fd1-21687442264d, .uuid-12274c16-14af-4764-81f2-a4b3adb0509b, .uuid-fb312350-da06-451f-a376-599b11a9a92c {
        fill: none;
        stroke: #000;
        stroke-linecap: round;
      }

      .uuid-382bcf7d-a58c-47af-8fbe-0f14c1d454cf, .uuid-fb312350-da06-451f-a376-599b11a9a92c {
        stroke-linejoin: round;
        stroke-width: 4.117px;
      }

      .uuid-8e4a8bbe-024d-44d3-9fd1-21687442264d {
        stroke-width: 1.163px;
      }

      .uuid-8e4a8bbe-024d-44d3-9fd1-21687442264d, .uuid-12274c16-14af-4764-81f2-a4b3adb0509b {
        stroke-miterlimit: 10;
      }

      .uuid-12274c16-14af-4764-81f2-a4b3adb0509b {
        stroke-width: 1.159px;
      }

      .uuid-fb312350-da06-451f-a376-599b11a9a92c {
        fill-rule: evenodd;
      }
    </style>
  </defs>
  <path class="uuid-fb312350-da06-451f-a376-599b11a9a92c" d="M310.986,116.674c-37.765-21.815-58.091-40.844-107.213-9.626-80.126,50.956-124.609,190.562-63.54,227.573"/>
  <path class="uuid-fb312350-da06-451f-a376-599b11a9a92c" d="M173.923,354.04c-54.868-34.784-20.251-133.255,14.338-180.182,25.038-33.979,77.488-80.832,122.726-57.185"/>
  <path class="uuid-fb312350-da06-451f-a376-599b11a9a92c" d="M292.983,130.353c.463.243.979.463,1.442.754,14.975,8.698,24.28,27.287,24.28,53.719s-9.305,55.698-24.28,81.638c-14.975,26.017-35.716,48.663-58.579,61.902-18.883,10.92-36.375,13.658-50.298,9.43"/>
  <path class="uuid-fb312350-da06-451f-a376-599b11a9a92c" d="M242.443,123.466c-53.545,30.899-96.907,106.039-96.907,167.842s43.362,86.844,96.907,55.941c53.546-30.9,96.929-106.044,96.929-167.846s-43.383-86.841-96.929-55.937Z"/>
  <path class="uuid-fb312350-da06-451f-a376-599b11a9a92c" d="M242.443,331.055c22.886-13.194,43.627-35.888,58.602-61.854,14.975-25.965,24.283-55.257,24.283-81.69s-9.308-45.017-24.283-53.667c-14.975-8.646-35.716-7.402-58.602,5.814-22.863,13.216-43.604,35.884-58.579,61.876-15.049,25.969-24.284,55.257-24.284,81.664s9.235,45.021,24.284,53.693c14.975,8.65,35.716,7.402,58.579-5.836Z"/>
  <line class="uuid-382bcf7d-a58c-47af-8fbe-0f14c1d454cf" x1="140.233" y1="334.621" x2="173.923" y2="354.04"/>
  <line class="uuid-382bcf7d-a58c-47af-8fbe-0f14c1d454cf" x1="249.183" y1="90.899" x2="282.747" y2="110.297"/>
  <line class="uuid-382bcf7d-a58c-47af-8fbe-0f14c1d454cf" x1="226.124" y1="95.47" x2="259.979" y2="115.011"/>
  <line class="uuid-382bcf7d-a58c-47af-8fbe-0f14c1d454cf" x1="207.9" y1="106.364" x2="240.022" y2="124.904"/>
  <line class="uuid-382bcf7d-a58c-47af-8fbe-0f14c1d454cf" x1="189.85" y1="118.039" x2="222.755" y2="137.046"/>
  <line class="uuid-382bcf7d-a58c-47af-8fbe-0f14c1d454cf" x1="174.043" y1="131.991" x2="207.364" y2="151.238"/>
  <line class="uuid-382bcf7d-a58c-47af-8fbe-0f14c1d454cf" x1="161.854" y1="146.034" x2="195.001" y2="165.186"/>
  <line class="uuid-382bcf7d-a58c-47af-8fbe-0f14c1d454cf" x1="150.691" y1="160.741" x2="183.912" y2="179.941"/>
  <line class="uuid-382bcf7d-a58c-47af-8fbe-0f14c1d454cf" x1="140.602" y1="176.032" x2="173.923" y2="195.795"/>
  <line class="uuid-382bcf7d-a58c-47af-8fbe-0f14c1d454cf" x1="132.099" y1="192.229" x2="165.618" y2="211.576"/>
  <line class="uuid-382bcf7d-a58c-47af-8fbe-0f14c1d454cf" x1="124.795" y1="209.133" x2="158.31" y2="228.482"/>
  <line class="uuid-382bcf7d-a58c-47af-8fbe-0f14c1d454cf" x1="118.592" y1="227.673" x2="152.081" y2="247.023"/>
  <line class="uuid-382bcf7d-a58c-47af-8fbe-0f14c1d454cf" x1="114.169" y1="246.555" x2="147.784" y2="265.953"/>
  <line class="uuid-382bcf7d-a58c-47af-8fbe-0f14c1d454cf" x1="111.847" y1="266.905" x2="145.635" y2="286.399"/>
  <line class="uuid-382bcf7d-a58c-47af-8fbe-0f14c1d454cf" x1="112.778" y1="288.328" x2="146.39" y2="307.751"/>
  <line class="uuid-382bcf7d-a58c-47af-8fbe-0f14c1d454cf" x1="119.692" y1="311.754" x2="152.033" y2="330.419"/>
  <polygon class="uuid-fb312350-da06-451f-a376-599b11a9a92c" points="266.675 195.257 280.036 187.564 280.036 204.931 258.003 217.636 250.527 236.713 280.036 219.66 280.036 236.883 246.104 256.449 246.104 294.972 227.81 305.525 227.81 267.027 195.001 285.961 195.001 268.738 223.413 252.372 216.327 241.72 195.001 254.006 195.001 236.64 207.78 229.262 190.483 204.372 212.787 191.497 237.166 229.825 261.838 163.159 284.432 150.115 266.675 195.257"/>
  <line class="uuid-8e4a8bbe-024d-44d3-9fd1-21687442264d" x1="271.609" y1="226.525" x2="260.057" y2="246.507"/>
  <line class="uuid-8e4a8bbe-024d-44d3-9fd1-21687442264d" x1="244.614" y1="273.257" x2="229.447" y2="299.516"/>
  <line class="uuid-8e4a8bbe-024d-44d3-9fd1-21687442264d" x1="278.327" y1="192.229" x2="268.239" y2="209.769"/>
  <line class="uuid-8e4a8bbe-024d-44d3-9fd1-21687442264d" x1="252.384" y1="237.151" x2="229.153" y2="277.41"/>
  <line class="uuid-8e4a8bbe-024d-44d3-9fd1-21687442264d" x1="268.165" y1="187.243" x2="219.749" y2="271.155"/>
  <line class="uuid-8e4a8bbe-024d-44d3-9fd1-21687442264d" x1="271.146" y1="159.567" x2="254.654" y2="188.075"/>
  <line class="uuid-8e4a8bbe-024d-44d3-9fd1-21687442264d" x1="232.987" y1="225.671" x2="221.092" y2="246.287"/>
  <line class="uuid-8e4a8bbe-024d-44d3-9fd1-21687442264d" x1="212.956" y1="260.383" x2="201.403" y2="280.34"/>
  <line class="uuid-8e4a8bbe-024d-44d3-9fd1-21687442264d" x1="226.294" y1="214.652" x2="209.344" y2="244.017"/>
  <line class="uuid-8e4a8bbe-024d-44d3-9fd1-21687442264d" x1="219.281" y1="204.173" x2="206.922" y2="225.598"/>
  <line class="uuid-12274c16-14af-4764-81f2-a4b3adb0509b" x1="203.364" y1="231.767" x2="195.019" y2="246.246"/>
  <line class="uuid-8e4a8bbe-024d-44d3-9fd1-21687442264d" x1="212.32" y1="193.672" x2="199.814" y2="215.362"/>
  <line class="uuid-8e4a8bbe-024d-44d3-9fd1-21687442264d" x1="336.598" y1="203.62" x2="317.767" y2="236.29"/>
  <line class="uuid-12274c16-14af-4764-81f2-a4b3adb0509b" x1="282.32" y1="297.643" x2="263.474" y2="330.297"/>
  <line class="uuid-8e4a8bbe-024d-44d3-9fd1-21687442264d" x1="336.075" y1="159.447" x2="326.473" y2="176.032"/>
  <line class="uuid-8e4a8bbe-024d-44d3-9fd1-21687442264d" x1="233.112" y1="337.723" x2="223.509" y2="354.335"/>
  <line class="uuid-8e4a8bbe-024d-44d3-9fd1-21687442264d" x1="325.619" y1="132.381" x2="317.021" y2="147.234"/>
  <line class="uuid-8e4a8bbe-024d-44d3-9fd1-21687442264d" x1="203.478" y1="343.926" x2="194.88" y2="358.779"/>
  <line class="uuid-8e4a8bbe-024d-44d3-9fd1-21687442264d" x1="308.373" y1="117.038" x2="300.043" y2="131.527"/>
  <line class="uuid-8e4a8bbe-024d-44d3-9fd1-21687442264d" x1="181.373" y1="337.064" x2="172.991" y2="351.549"/>
  <line class="uuid-8e4a8bbe-024d-44d3-9fd1-21687442264d" x1="285.312" y1="111.788" x2="276.665" y2="126.785"/>
  <line class="uuid-8e4a8bbe-024d-44d3-9fd1-21687442264d" x1="165.566" y1="319.23" x2="156.967" y2="334.154"/>
  <line class="uuid-8e4a8bbe-024d-44d3-9fd1-21687442264d" x1="255.17" y1="118.896" x2="245.176" y2="136.215"/>
  <line class="uuid-8e4a8bbe-024d-44d3-9fd1-21687442264d" x1="158.016" y1="287.205" x2="148.026" y2="304.502"/>
  <line class="uuid-8e4a8bbe-024d-44d3-9fd1-21687442264d" x1="212.15" y1="148.308" x2="152.791" y2="251.1"/>
  <line class="uuid-8e4a8bbe-024d-44d3-9fd1-21687442264d" x1="325.111" y1="187.498" x2="318.481" y2="198.989"/>
  <line class="uuid-8e4a8bbe-024d-44d3-9fd1-21687442264d" x1="248.102" y1="320.879" x2="242.208" y2="330.989"/>
  <line class="uuid-8e4a8bbe-024d-44d3-9fd1-21687442264d" x1="318.665" y1="153.42" x2="315.302" y2="159.391"/>
</svg>