<?xml version="1.0" encoding="UTF-8"?>
<svg id="uuid-45c1d79d-1d8a-4430-b83f-a4f09fbdd3df" data-name="&amp;lt;Layer&amp;gt;" xmlns="http://www.w3.org/2000/svg" viewBox="0 0 451.11 451.11">
  <defs>
    <style>
      .uuid-057bb6eb-7f3e-490f-b10d-62f9e4d5c453, .uuid-acfb37ba-0f97-4b3a-98dc-86bbd675347b, .uuid-79748f33-ef9f-424c-8cf1-7f9f1067825e {
        fill: none;
        stroke: #000;
        stroke-linecap: round;
      }

      .uuid-057bb6eb-7f3e-490f-b10d-62f9e4d5c453, .uuid-79748f33-ef9f-424c-8cf1-7f9f1067825e {
        stroke-linejoin: round;
        stroke-width: 4.113px;
      }

      .uuid-acfb37ba-0f97-4b3a-98dc-86bbd675347b {
        stroke-miterlimit: 10;
        stroke-width: 1.163px;
      }

      .uuid-79748f33-ef9f-424c-8cf1-7f9f1067825e {
        fill-rule: evenodd;
      }
    </style>
  </defs>
  <polyline class="uuid-79748f33-ef9f-424c-8cf1-7f9f1067825e" points="206.39 262.352 193.078 254.633 171.067 267.36 171.067 320.026 171.141 322.738 171.31 325.423 171.605 327.962 171.994 330.357 172.531 332.727 173.169 334.927 173.879 337.029 174.684 339.008 175.66 340.984 176.711 342.794 177.932 344.453 179.154 346.043 180.545 347.481 181.987 348.754 183.5 349.924 185.116 350.977 198.379 358.622"/>
  <polyline class="uuid-79748f33-ef9f-424c-8cf1-7f9f1067825e" points="218.973 333.264 220.095 333.363 220.853 333.363"/>
  <path class="uuid-79748f33-ef9f-424c-8cf1-7f9f1067825e" d="M220.853,333.363c.511,0,1.051,0,1.563-.051.391-.048.754-.048,1.149-.17"/>
  <polyline class="uuid-79748f33-ef9f-424c-8cf1-7f9f1067825e" points="223.565 333.142 224.738 332.9 225.956 332.631"/>
  <polyline class="uuid-79748f33-ef9f-424c-8cf1-7f9f1067825e" points="227.177 332.264 228.399 331.8 229.672 331.237"/>
  <polyline class="uuid-79748f33-ef9f-424c-8cf1-7f9f1067825e" points="232.237 329.893 232.454 329.773 233.727 329.015 234.948 328.135 236.17 327.282 237.391 326.303 238.613 325.302 239.783 324.202"/>
  <path class="uuid-79748f33-ef9f-424c-8cf1-7f9f1067825e" d="M239.783,324.202c.806-.706,1.563-1.464,2.321-2.27,3.128-3.297,5.962-7.182,8.353-11.335.589-1.027,1.173-2.075,1.689-3.128"/>
  <polyline class="uuid-79748f33-ef9f-424c-8cf1-7f9f1067825e" points="252.146 307.468 252.952 305.835 253.658 304.219 256.101 297.647"/>
  <polyline class="uuid-79748f33-ef9f-424c-8cf1-7f9f1067825e" points="256.959 294.472 257.323 292.886 257.591 291.323 257.787 289.759"/>
  <polyline class="uuid-79748f33-ef9f-424c-8cf1-7f9f1067825e" points="257.959 288.243 258.055 286.679 258.055 285.241"/>
  <polyline class="uuid-79748f33-ef9f-424c-8cf1-7f9f1067825e" points="250.413 127.164 251.267 127.679 252.072 128.313 252.83 128.949 253.537 129.707 253.61 129.707 254.221 130.539 254.879 131.391"/>
  <polyline class="uuid-79748f33-ef9f-424c-8cf1-7f9f1067825e" points="255.98 133.371 256.028 133.541 256.495 134.592 256.907 135.763 257.249 136.911 257.544 138.132"/>
  <polyline class="uuid-79748f33-ef9f-424c-8cf1-7f9f1067825e" points="257.544 138.206 257.787 139.476 257.837 139.943 257.885 140.822 258.007 144.24"/>
  <polyline class="uuid-79748f33-ef9f-424c-8cf1-7f9f1067825e" points="258.007 144.291 258.007 196.443 244.717 188.775 244.717 136.499 244.769 136.447 244.769 135.984 244.717 134.542 244.643 133.15 244.474 131.807 244.254 130.465 243.963 129.265 243.62 128.094 243.205 126.921 242.79 125.895 242.668 125.7 242.569 125.479"/>
  <path class="uuid-79748f33-ef9f-424c-8cf1-7f9f1067825e" d="M250.413,97.071c-5.571.536-11.8,2.612-18.25,6.328-13.19,7.621-25.137,20.737-33.784,35.786-4.422,7.671-7.966,15.803-10.409,23.916-2.318,7.741-3.586,15.508-3.586,22.937,0,.243,0,.464-.074.758"/>
  <polyline class="uuid-79748f33-ef9f-424c-8cf1-7f9f1067825e" points="184.31 186.795 184.31 238.948 206.32 226.22 206.32 174.091"/>
  <path class="uuid-79748f33-ef9f-424c-8cf1-7f9f1067825e" d="M206.32,174.091v-.463c0-4.007.706-8.257,1.976-12.48,1.343-4.496,3.253-8.846,5.644-12.948,2.37-4.154,5.228-8.036,8.405-11.337,3.027-3.249,6.35-5.986,9.819-7.962"/>
  <path class="uuid-79748f33-ef9f-424c-8cf1-7f9f1067825e" d="M232.163,128.901c3.492-2.028,6.792-3.127,9.821-3.422,3.201-.291,6.034.295,8.429,1.611,2.318,1.347,4.224,3.496,5.519,6.281"/>
  <polyline class="uuid-79748f33-ef9f-424c-8cf1-7f9f1067825e" points="258.007 144.24 258.007 196.443 280.018 183.717 280.018 131.514"/>
  <path class="uuid-79748f33-ef9f-424c-8cf1-7f9f1067825e" d="M280.018,131.514c-.048-.122-.048-.295-.048-.417,0-7.473-1.269-13.874-3.618-19.029-2.417-5.35-5.982-9.357-10.383-11.896"/>
  <polyline class="uuid-79748f33-ef9f-424c-8cf1-7f9f1067825e" points="206.39 314.97 206.39 262.352 184.384 275.079 184.384 327.697"/>
  <path class="uuid-79748f33-ef9f-424c-8cf1-7f9f1067825e" d="M184.384,327.697c0,7.473,1.268,13.874,3.586,18.978,2.443,5.35,5.986,9.404,10.409,11.947"/>
  <path class="uuid-79748f33-ef9f-424c-8cf1-7f9f1067825e" d="M198.427,358.622c4.424,2.565,9.699,3.617,15.512,3.028,5.619-.511,11.774-2.611,18.298-6.325,6.424-3.716,12.605-8.771,18.22-14.754,5.864-6.159,11.141-13.363,15.564-20.961"/>
  <path class="uuid-79748f33-ef9f-424c-8cf1-7f9f1067825e" d="M266.021,319.609c4.418-7.671,7.962-15.806,10.405-23.942,2.274-7.767,3.664-16.317,3.664-23.743"/>
  <polyline class="uuid-79748f33-ef9f-424c-8cf1-7f9f1067825e" points="280.09 271.925 280.09 219.77 258.007 232.501 258.007 284.7"/>
  <path class="uuid-79748f33-ef9f-424c-8cf1-7f9f1067825e" d="M258.007,284.7c.048.126.048.295.048.467,0,4.007-.682,8.257-1.955,12.48"/>
  <path class="uuid-79748f33-ef9f-424c-8cf1-7f9f1067825e" d="M256.101,297.647c-1.342,4.376-3.271,8.772-5.688,12.949-2.395,4.154-5.228,7.962-8.355,11.335-2.98,3.15-6.229,5.814-9.652,7.841"/>
  <path class="uuid-79748f33-ef9f-424c-8cf1-7f9f1067825e" d="M232.237,329.893c-3.496,1.979-6.818,3.08-9.893,3.371-3.128.341-5.962-.243-8.356-1.638"/>
  <path class="uuid-79748f33-ef9f-424c-8cf1-7f9f1067825e" d="M213.987,331.626c-2.369-1.39-4.298-3.54-5.618-6.446-1.295-2.785-1.979-6.207-1.979-10.21"/>
  <path class="uuid-79748f33-ef9f-424c-8cf1-7f9f1067825e" d="M265.969,100.172c-4.418-2.565-9.695-3.664-15.557-3.101"/>
  <line class="uuid-057bb6eb-7f3e-490f-b10d-62f9e4d5c453" x1="258.007" y1="232.501" x2="244.769" y2="224.829"/>
  <line class="uuid-057bb6eb-7f3e-490f-b10d-62f9e4d5c453" x1="184.384" y1="275.079" x2="171.653" y2="267.701"/>
  <path class="uuid-79748f33-ef9f-424c-8cf1-7f9f1067825e" d="M280.09,219.848l-13.311-7.723-22.018,12.757v50.669c0,2.317-.062,4.19-.213,6.538-.427,2.796-.957,5.202-1.759,7.918-1.674,5.258-3.621,9.739-6.55,14.434-4.633,7.499-16.557,21.204-27.603,21.204"/>
  <path class="uuid-79748f33-ef9f-424c-8cf1-7f9f1067825e" d="M265.969,100.172l-13.238-7.741c-4.919-2.433-7.904-3.131-13.411-3.131-21.852,1.24-39.359,20.119-50.835,36.642-6.807,11.082-11.269,20.255-14.606,32.419-1.498,6.086-2.362,10.946-2.738,17.219l-.074,2.785-.048,52.913,13.29,7.669"/>
  <line class="uuid-acfb37ba-0f97-4b3a-98dc-86bbd675347b" x1="276.352" y1="290.006" x2="245.527" y2="343.356"/>
  <line class="uuid-acfb37ba-0f97-4b3a-98dc-86bbd675347b" x1="278.622" y1="240.927" x2="259.449" y2="274.151"/>
  <line class="uuid-acfb37ba-0f97-4b3a-98dc-86bbd675347b" x1="224.786" y1="334.195" x2="209.517" y2="360.598"/>
  <line class="uuid-acfb37ba-0f97-4b3a-98dc-86bbd675347b" x1="205.804" y1="321.88" x2="190.413" y2="348.581"/>
  <line class="uuid-acfb37ba-0f97-4b3a-98dc-86bbd675347b" x1="204.998" y1="278.206" x2="185.942" y2="311.132"/>
  <line class="uuid-acfb37ba-0f97-4b3a-98dc-86bbd675347b" x1="182.647" y1="327.282" x2="172.995" y2="310.669"/>
  <line class="uuid-acfb37ba-0f97-4b3a-98dc-86bbd675347b" x1="182.647" y1="304.76" x2="172.925" y2="287.901"/>
  <line class="uuid-acfb37ba-0f97-4b3a-98dc-86bbd675347b" x1="182.451" y1="281.87" x2="177.469" y2="273.268"/>
  <line class="uuid-acfb37ba-0f97-4b3a-98dc-86bbd675347b" x1="187.338" y1="271.293" x2="182.451" y2="262.815"/>
  <line class="uuid-acfb37ba-0f97-4b3a-98dc-86bbd675347b" x1="197.157" y1="265.674" x2="192.223" y2="257.196"/>
  <line class="uuid-acfb37ba-0f97-4b3a-98dc-86bbd675347b" x1="224.686" y1="330.92" x2="220.194" y2="323.201"/>
  <line class="uuid-acfb37ba-0f97-4b3a-98dc-86bbd675347b" x1="234.776" y1="325.938" x2="229.084" y2="316.071"/>
  <line class="uuid-acfb37ba-0f97-4b3a-98dc-86bbd675347b" x1="243.253" y1="318.047" x2="236.633" y2="306.493"/>
  <line class="uuid-acfb37ba-0f97-4b3a-98dc-86bbd675347b" x1="250.24" y1="307.468" x2="242.862" y2="294.645"/>
  <line class="uuid-acfb37ba-0f97-4b3a-98dc-86bbd675347b" x1="255.343" y1="293.714" x2="246.406" y2="278.328"/>
  <line class="uuid-acfb37ba-0f97-4b3a-98dc-86bbd675347b" x1="256.321" y1="272.857" x2="246.454" y2="255.854"/>
  <line class="uuid-acfb37ba-0f97-4b3a-98dc-86bbd675347b" x1="256.321" y1="250.257" x2="246.454" y2="233.258"/>
  <line class="uuid-acfb37ba-0f97-4b3a-98dc-86bbd675347b" x1="260.84" y1="228.91" x2="255.932" y2="220.359"/>
  <line class="uuid-acfb37ba-0f97-4b3a-98dc-86bbd675347b" x1="270.612" y1="223.217" x2="265.679" y2="214.74"/>
  <line class="uuid-acfb37ba-0f97-4b3a-98dc-86bbd675347b" x1="256.275" y1="191.266" x2="246.454" y2="174.191"/>
  <line class="uuid-acfb37ba-0f97-4b3a-98dc-86bbd675347b" x1="256.275" y1="146.146" x2="245.232" y2="127.043"/>
  <line class="uuid-acfb37ba-0f97-4b3a-98dc-86bbd675347b" x1="182.573" y1="230.473" x2="172.752" y2="213.519"/>
  <line class="uuid-acfb37ba-0f97-4b3a-98dc-86bbd675347b" x1="182.647" y1="185.353" x2="173.462" y2="169.546"/>
  <line class="uuid-acfb37ba-0f97-4b3a-98dc-86bbd675347b" x1="189.901" y1="152.766" x2="182.525" y2="140.064"/>
  <line class="uuid-acfb37ba-0f97-4b3a-98dc-86bbd675347b" x1="202.556" y1="129.534" x2="196.032" y2="118.322"/>
  <line class="uuid-acfb37ba-0f97-4b3a-98dc-86bbd675347b" x1="218.241" y1="111.604" x2="212.644" y2="101.957"/>
  <line class="uuid-acfb37ba-0f97-4b3a-98dc-86bbd675347b" x1="237.05" y1="99.003" x2="233.043" y2="92.038"/>
</svg>