<?xml version="1.0" encoding="UTF-8"?>
<svg id="uuid-04bcff6f-827d-4bb0-ab01-b054f1a640bd" data-name="&amp;lt;Layer&amp;gt;" xmlns="http://www.w3.org/2000/svg" viewBox="0 0 451.11 451.11">
  <defs>
    <style>
      .uuid-28d57525-0c32-4000-b36d-ae20177d0ce8, .uuid-ff3d1fcf-c412-4e3d-be9a-ed5b35318b06, .uuid-5ddc6f70-50e9-4f1a-b9d8-2aaca84eed82 {
        fill: none;
        stroke: #000;
        stroke-linecap: round;
      }

      .uuid-28d57525-0c32-4000-b36d-ae20177d0ce8, .uuid-5ddc6f70-50e9-4f1a-b9d8-2aaca84eed82 {
        stroke-linejoin: round;
        stroke-width: 4.117px;
      }

      .uuid-ff3d1fcf-c412-4e3d-be9a-ed5b35318b06 {
        stroke-miterlimit: 10;
        stroke-width: 1.163px;
      }

      .uuid-5ddc6f70-50e9-4f1a-b9d8-2aaca84eed82 {
        fill-rule: evenodd;
      }
    </style>
  </defs>
  <path class="uuid-5ddc6f70-50e9-4f1a-b9d8-2aaca84eed82" d="M308.123,244.853l30.411,17.54M112.576,317.086l31.831-18.345"/>
  <polyline class="uuid-5ddc6f70-50e9-4f1a-b9d8-2aaca84eed82" points="178.143 375.861 112.576 337.996 112.576 317.086 178.143 354.95"/>
  <polygon class="uuid-5ddc6f70-50e9-4f1a-b9d8-2aaca84eed82" points="178.143 354.95 338.486 262.393 338.486 283.302 178.143 375.861 178.143 354.95"/>
  <polyline class="uuid-5ddc6f70-50e9-4f1a-b9d8-2aaca84eed82" points="265.542 168.417 229.536 147.652 272.114 123.007 308.123 143.818"/>
  <polyline class="uuid-5ddc6f70-50e9-4f1a-b9d8-2aaca84eed82" points="222.964 226.265 186.983 205.477 229.536 180.924 265.542 201.712"/>
  <path class="uuid-5ddc6f70-50e9-4f1a-b9d8-2aaca84eed82" d="M222.964,263.835v-37.569l42.578-24.553M265.542,288.167l-42.578,24.644"/>
  <polygon class="uuid-5ddc6f70-50e9-4f1a-b9d8-2aaca84eed82" points="265.542 288.167 265.542 168.417 308.123 143.818 308.123 263.614 265.542 288.167"/>
  <polyline class="uuid-5ddc6f70-50e9-4f1a-b9d8-2aaca84eed82" points="222.964 263.835 186.911 243.069 144.407 267.621"/>
  <polyline class="uuid-5ddc6f70-50e9-4f1a-b9d8-2aaca84eed82" points="180.413 288.41 144.407 267.621 144.407 316.623 180.413 337.412"/>
  <polygon class="uuid-5ddc6f70-50e9-4f1a-b9d8-2aaca84eed82" points="222.964 312.811 222.964 263.835 180.413 288.41 180.413 337.412 222.964 312.811"/>
  <polygon class="uuid-5ddc6f70-50e9-4f1a-b9d8-2aaca84eed82" points="268.791 114.945 296.74 98.823 287.894 92.421 296.74 75.248 268.791 91.372 268.791 114.945"/>
  <line class="uuid-28d57525-0c32-4000-b36d-ae20177d0ce8" x1="229.536" y1="147.582" x2="229.536" y2="180.924"/>
  <line class="uuid-28d57525-0c32-4000-b36d-ae20177d0ce8" x1="186.983" y1="243.069" x2="186.983" y2="205.551"/>
  <line class="uuid-28d57525-0c32-4000-b36d-ae20177d0ce8" x1="268.791" y1="114.945" x2="268.791" y2="145.723"/>
  <line class="uuid-ff3d1fcf-c412-4e3d-be9a-ed5b35318b06" x1="176.454" y1="362.108" x2="167.223" y2="367.432"/>
  <line class="uuid-ff3d1fcf-c412-4e3d-be9a-ed5b35318b06" x1="170.714" y1="352.409" x2="155.739" y2="361.059"/>
  <line class="uuid-ff3d1fcf-c412-4e3d-be9a-ed5b35318b06" x1="159.382" y1="345.889" x2="144.455" y2="354.561"/>
  <line class="uuid-ff3d1fcf-c412-4e3d-be9a-ed5b35318b06" x1="148.119" y1="339.391" x2="133.192" y2="348.063"/>
  <line class="uuid-ff3d1fcf-c412-4e3d-be9a-ed5b35318b06" x1="136.856" y1="332.894" x2="121.881" y2="341.491"/>
  <line class="uuid-ff3d1fcf-c412-4e3d-be9a-ed5b35318b06" x1="125.425" y1="326.396" x2="114.334" y2="332.842"/>
  <line class="uuid-ff3d1fcf-c412-4e3d-be9a-ed5b35318b06" x1="325.587" y1="256.528" x2="315.77" y2="273.483"/>
  <line class="uuid-ff3d1fcf-c412-4e3d-be9a-ed5b35318b06" x1="315.67" y1="251.13" x2="310.026" y2="260.951"/>
  <line class="uuid-ff3d1fcf-c412-4e3d-be9a-ed5b35318b06" x1="306.95" y1="266.278" x2="296.202" y2="284.866"/>
  <line class="uuid-ff3d1fcf-c412-4e3d-be9a-ed5b35318b06" x1="287.382" y1="277.536" x2="276.709" y2="296.129"/>
  <line class="uuid-ff3d1fcf-c412-4e3d-be9a-ed5b35318b06" x1="267.864" y1="288.821" x2="257.117" y2="307.414"/>
  <line class="uuid-ff3d1fcf-c412-4e3d-be9a-ed5b35318b06" x1="248.249" y1="300.257" x2="237.55" y2="318.723"/>
  <line class="uuid-ff3d1fcf-c412-4e3d-be9a-ed5b35318b06" x1="228.683" y1="311.515" x2="217.982" y2="329.986"/>
  <line class="uuid-ff3d1fcf-c412-4e3d-be9a-ed5b35318b06" x1="209.164" y1="322.778" x2="198.464" y2="341.245"/>
  <line class="uuid-ff3d1fcf-c412-4e3d-be9a-ed5b35318b06" x1="189.596" y1="334.115" x2="178.897" y2="352.582"/>
  <line class="uuid-ff3d1fcf-c412-4e3d-be9a-ed5b35318b06" x1="175.233" y1="336.263" x2="168.735" y2="347.574"/>
  <line class="uuid-ff3d1fcf-c412-4e3d-be9a-ed5b35318b06" x1="165.486" y1="330.619" x2="158.988" y2="341.882"/>
  <line class="uuid-ff3d1fcf-c412-4e3d-be9a-ed5b35318b06" x1="155.739" y1="325" x2="149.216" y2="336.263"/>
  <line class="uuid-ff3d1fcf-c412-4e3d-be9a-ed5b35318b06" x1="145.971" y1="319.361" x2="139.421" y2="330.619"/>
  <line class="uuid-ff3d1fcf-c412-4e3d-be9a-ed5b35318b06" x1="142.842" y1="302.163" x2="129.431" y2="325.391"/>
  <line class="uuid-ff3d1fcf-c412-4e3d-be9a-ed5b35318b06" x1="123.493" y1="313.032" x2="119.953" y2="319.188"/>
  <line class="uuid-ff3d1fcf-c412-4e3d-be9a-ed5b35318b06" x1="252.009" y1="195.483" x2="241.557" y2="213.611"/>
  <line class="uuid-ff3d1fcf-c412-4e3d-be9a-ed5b35318b06" x1="242.605" y1="189.232" x2="221.989" y2="224.87"/>
  <line class="uuid-ff3d1fcf-c412-4e3d-be9a-ed5b35318b06" x1="232.785" y1="183.588" x2="212.243" y2="219.252"/>
  <line class="uuid-ff3d1fcf-c412-4e3d-be9a-ed5b35318b06" x1="215.539" y1="190.917" x2="202.714" y2="213.144"/>
  <line class="uuid-ff3d1fcf-c412-4e3d-be9a-ed5b35318b06" x1="195.631" y1="202.813" x2="193.239" y2="206.941"/>
  <line class="uuid-ff3d1fcf-c412-4e3d-be9a-ed5b35318b06" x1="294.76" y1="137.663" x2="284.424" y2="155.544"/>
  <line class="uuid-ff3d1fcf-c412-4e3d-be9a-ed5b35318b06" x1="274.998" y1="126.745" x2="270.771" y2="133.997"/>
  <line class="uuid-ff3d1fcf-c412-4e3d-be9a-ed5b35318b06" x1="267.227" y1="140.204" x2="255.21" y2="160.941"/>
  <line class="uuid-ff3d1fcf-c412-4e3d-be9a-ed5b35318b06" x1="238.476" y1="144.745" x2="235.986" y2="149.094"/>
  <line class="uuid-ff3d1fcf-c412-4e3d-be9a-ed5b35318b06" x1="233.715" y1="304.971" x2="224.775" y2="289.385"/>
  <line class="uuid-ff3d1fcf-c412-4e3d-be9a-ed5b35318b06" x1="243.827" y1="299.889" x2="224.433" y2="266.227"/>
  <line class="uuid-ff3d1fcf-c412-4e3d-be9a-ed5b35318b06" x1="253.989" y1="294.86" x2="224.091" y2="243.12"/>
  <line class="uuid-ff3d1fcf-c412-4e3d-be9a-ed5b35318b06" x1="263.978" y1="289.631" x2="226.118" y2="223.991"/>
  <line class="uuid-ff3d1fcf-c412-4e3d-be9a-ed5b35318b06" x1="264.442" y1="267.79" x2="236.228" y2="218.884"/>
  <line class="uuid-ff3d1fcf-c412-4e3d-be9a-ed5b35318b06" x1="264.104" y1="244.684" x2="246.318" y2="213.829"/>
  <line class="uuid-ff3d1fcf-c412-4e3d-be9a-ed5b35318b06" x1="263.761" y1="221.5" x2="256.432" y2="208.796"/>
  <line class="uuid-ff3d1fcf-c412-4e3d-be9a-ed5b35318b06" x1="221.353" y1="247.175" x2="209.432" y2="254.037"/>
  <line class="uuid-ff3d1fcf-c412-4e3d-be9a-ed5b35318b06" x1="221.769" y1="233.933" x2="197.779" y2="247.76"/>
  <line class="uuid-ff3d1fcf-c412-4e3d-be9a-ed5b35318b06" x1="216.588" y1="223.891" x2="188.132" y2="240.334"/>
  <line class="uuid-ff3d1fcf-c412-4e3d-be9a-ed5b35318b06" x1="204.866" y1="217.568" x2="188.544" y2="227.023"/>
  <line class="uuid-ff3d1fcf-c412-4e3d-be9a-ed5b35318b06" x1="193.188" y1="211.29" x2="188.938" y2="213.781"/>
  <line class="uuid-ff3d1fcf-c412-4e3d-be9a-ed5b35318b06" x1="264.321" y1="172.156" x2="240.63" y2="185.785"/>
  <line class="uuid-ff3d1fcf-c412-4e3d-be9a-ed5b35318b06" x1="243.999" y1="157.818" x2="231.221" y2="165.191"/>
  <line class="uuid-ff3d1fcf-c412-4e3d-be9a-ed5b35318b06" x1="269.381" y1="283.767" x2="267.574" y2="280.739"/>
  <line class="uuid-ff3d1fcf-c412-4e3d-be9a-ed5b35318b06" x1="289.58" y1="273.655" x2="266.936" y2="234.396"/>
  <line class="uuid-ff3d1fcf-c412-4e3d-be9a-ed5b35318b06" x1="307.461" y1="259.486" x2="266.3" y2="188.179"/>
  <line class="uuid-ff3d1fcf-c412-4e3d-be9a-ed5b35318b06" x1="307.072" y1="213.659" x2="277.146" y2="161.821"/>
  <line class="uuid-ff3d1fcf-c412-4e3d-be9a-ed5b35318b06" x1="306.412" y1="167.344" x2="297.424" y2="151.71"/>
  <line class="uuid-ff3d1fcf-c412-4e3d-be9a-ed5b35318b06" x1="189.865" y1="367.336" x2="182.392" y2="354.388"/>
  <line class="uuid-ff3d1fcf-c412-4e3d-be9a-ed5b35318b06" x1="199.686" y1="361.644" x2="192.209" y2="348.697"/>
  <line class="uuid-ff3d1fcf-c412-4e3d-be9a-ed5b35318b06" x1="209.432" y1="355.999" x2="201.956" y2="343.052"/>
  <line class="uuid-ff3d1fcf-c412-4e3d-be9a-ed5b35318b06" x1="219.204" y1="350.359" x2="211.703" y2="337.412"/>
  <line class="uuid-ff3d1fcf-c412-4e3d-be9a-ed5b35318b06" x1="229.024" y1="344.74" x2="221.526" y2="331.793"/>
  <line class="uuid-ff3d1fcf-c412-4e3d-be9a-ed5b35318b06" x1="238.771" y1="339.097" x2="231.295" y2="326.149"/>
  <line class="uuid-ff3d1fcf-c412-4e3d-be9a-ed5b35318b06" x1="248.518" y1="333.405" x2="241.093" y2="320.457"/>
  <line class="uuid-ff3d1fcf-c412-4e3d-be9a-ed5b35318b06" x1="258.338" y1="327.786" x2="250.862" y2="314.842"/>
  <line class="uuid-ff3d1fcf-c412-4e3d-be9a-ed5b35318b06" x1="268.107" y1="322.146" x2="260.609" y2="309.199"/>
  <line class="uuid-ff3d1fcf-c412-4e3d-be9a-ed5b35318b06" x1="277.854" y1="316.523" x2="270.428" y2="303.554"/>
  <line class="uuid-ff3d1fcf-c412-4e3d-be9a-ed5b35318b06" x1="287.677" y1="310.883" x2="280.175" y2="297.936"/>
  <line class="uuid-ff3d1fcf-c412-4e3d-be9a-ed5b35318b06" x1="297.424" y1="305.192" x2="289.921" y2="292.244"/>
  <line class="uuid-ff3d1fcf-c412-4e3d-be9a-ed5b35318b06" x1="307.193" y1="299.547" x2="299.742" y2="286.599"/>
  <line class="uuid-ff3d1fcf-c412-4e3d-be9a-ed5b35318b06" x1="316.991" y1="293.929" x2="309.515" y2="280.985"/>
  <line class="uuid-ff3d1fcf-c412-4e3d-be9a-ed5b35318b06" x1="326.738" y1="288.288" x2="319.261" y2="275.34"/>
  <line class="uuid-ff3d1fcf-c412-4e3d-be9a-ed5b35318b06" x1="336.555" y1="282.596" x2="329.082" y2="269.648"/>
</svg>