<?xml version="1.0" encoding="UTF-8"?>
<svg id="uuid-344f3157-73aa-4b57-a0f6-fbcd3d74efd4" data-name="&amp;lt;Layer&amp;gt;" xmlns="http://www.w3.org/2000/svg" viewBox="0 0 451.11 451.11">
  <defs>
    <style>
      .uuid-5895b673-0818-432b-af0c-21b9e04d04ba, .uuid-dbb552a3-99c8-4242-94f0-1555adc493b5, .uuid-370d8100-d336-4e6c-bd5d-eaa5db50803a {
        fill: none;
        stroke: #000;
        stroke-linecap: round;
      }

      .uuid-5895b673-0818-432b-af0c-21b9e04d04ba, .uuid-370d8100-d336-4e6c-bd5d-eaa5db50803a {
        stroke-linejoin: round;
        stroke-width: 4.117px;
      }

      .uuid-dbb552a3-99c8-4242-94f0-1555adc493b5 {
        stroke-miterlimit: 10;
        stroke-width: 1.163px;
      }

      .uuid-370d8100-d336-4e6c-bd5d-eaa5db50803a {
        fill-rule: evenodd;
      }
    </style>
  </defs>
  <path class="uuid-370d8100-d336-4e6c-bd5d-eaa5db50803a" d="M230.685,302.093c-.247-.125-.736-.125-.979.096-.243.195-.732.563-.979.953-.243.417-.243.854-.243,1.269s0,.71.243.832c.247.147.736.121.979-.074.243-.221.732-.563.979-.979.243-.389.243-.854.243-1.243,0-.415,0-.71-.243-.854Z"/>
  <polygon class="uuid-370d8100-d336-4e6c-bd5d-eaa5db50803a" points="160.086 221.919 299.325 141.474 299.325 237.502 160.086 317.944 160.086 221.919"/>
  <polygon class="uuid-370d8100-d336-4e6c-bd5d-eaa5db50803a" points="160.086 221.919 299.325 141.474 299.325 127.625 160.086 208.067 160.086 221.919"/>
  <line class="uuid-5895b673-0818-432b-af0c-21b9e04d04ba" x1="124.175" y1="368.193" x2="117.092" y2="364.038"/>
  <path class="uuid-370d8100-d336-4e6c-bd5d-eaa5db50803a" d="M117.092,364.038c-3.422-2.782-3.664-4.539-3.907-8.841"/>
  <line class="uuid-5895b673-0818-432b-af0c-21b9e04d04ba" x1="113.185" y1="355.198" x2="113.185" y2="217.202"/>
  <path class="uuid-370d8100-d336-4e6c-bd5d-eaa5db50803a" d="M113.185,217.202c.732-10.21,5.128-17.829,13.68-23.669"/>
  <line class="uuid-5895b673-0818-432b-af0c-21b9e04d04ba" x1="126.865" y1="193.533" x2="317.158" y2="83.778"/>
  <path class="uuid-370d8100-d336-4e6c-bd5d-eaa5db50803a" d="M317.158,83.778c3.911-1.785,5.376-2.469,9.53-.906"/>
  <line class="uuid-5895b673-0818-432b-af0c-21b9e04d04ba" x1="326.688" y1="82.872" x2="334.014" y2="87.001"/>
  <path class="uuid-370d8100-d336-4e6c-bd5d-eaa5db50803a" d="M334.014,87.001c-4.151-1.538-5.862-.854-9.769.931"/>
  <line class="uuid-5895b673-0818-432b-af0c-21b9e04d04ba" x1="324.245" y1="87.932" x2="133.948" y2="197.687"/>
  <path class="uuid-370d8100-d336-4e6c-bd5d-eaa5db50803a" d="M133.948,197.687c-8.062,5.715-12.701,13.214-13.68,23.67"/>
  <line class="uuid-5895b673-0818-432b-af0c-21b9e04d04ba" x1="120.268" y1="221.357" x2="120.268" y2="359.373"/>
  <path class="uuid-370d8100-d336-4e6c-bd5d-eaa5db50803a" d="M120.268,359.373c.489,4.276.732,6.034,3.907,8.82"/>
  <line class="uuid-5895b673-0818-432b-af0c-21b9e04d04ba" x1="134.927" y1="208.115" x2="323.266" y2="99.511"/>
  <path class="uuid-370d8100-d336-4e6c-bd5d-eaa5db50803a" d="M323.266,99.511c3.422-1.955,6.107-.369,6.107,3.564"/>
  <line class="uuid-5895b673-0818-432b-af0c-21b9e04d04ba" x1="329.373" y1="103.075" x2="329.373" y2="230.934"/>
  <path class="uuid-370d8100-d336-4e6c-bd5d-eaa5db50803a" d="M329.373,230.934c0,3.908-2.685,8.673-6.107,10.627"/>
  <line class="uuid-5895b673-0818-432b-af0c-21b9e04d04ba" x1="323.266" y1="241.56" x2="134.927" y2="350.142"/>
  <path class="uuid-370d8100-d336-4e6c-bd5d-eaa5db50803a" d="M134.927,350.142c-3.422,1.953-6.108.365-6.108-3.543"/>
  <line class="uuid-5895b673-0818-432b-af0c-21b9e04d04ba" x1="128.818" y1="346.598" x2="128.818" y2="218.744"/>
  <path class="uuid-370d8100-d336-4e6c-bd5d-eaa5db50803a" d="M128.818,218.744c0-3.911,2.687-8.676,6.108-10.629"/>
  <path class="uuid-370d8100-d336-4e6c-bd5d-eaa5db50803a" d="M324.245,87.932c7.571-4.328,13.68-.758,13.68,7.914"/>
  <line class="uuid-5895b673-0818-432b-af0c-21b9e04d04ba" x1="337.925" y1="95.846" x2="337.925" y2="233.863"/>
  <path class="uuid-370d8100-d336-4e6c-bd5d-eaa5db50803a" d="M337.925,233.863c0,8.672-6.355,19.345-13.68,23.673"/>
  <line class="uuid-5895b673-0818-432b-af0c-21b9e04d04ba" x1="324.245" y1="257.536" x2="133.948" y2="367.265"/>
  <path class="uuid-370d8100-d336-4e6c-bd5d-eaa5db50803a" d="M133.948,367.265c-7.573,4.324-13.68.78-13.68-7.892"/>
  <path class="uuid-370d8100-d336-4e6c-bd5d-eaa5db50803a" d="M195.507,226.118c.979-.611,1.711-.096,1.711,1.125"/>
  <path class="uuid-370d8100-d336-4e6c-bd5d-eaa5db50803a" d="M197.218,227.243c0,1.221-.732,2.711-1.711,3.323"/>
  <path class="uuid-370d8100-d336-4e6c-bd5d-eaa5db50803a" d="M195.507,230.566c-1.221.61-1.953.121-1.953-1.127"/>
  <path class="uuid-370d8100-d336-4e6c-bd5d-eaa5db50803a" d="M193.553,229.44c0-1.195.732-2.712,1.953-3.322"/>
  <path class="uuid-370d8100-d336-4e6c-bd5d-eaa5db50803a" d="M195.507,247.322c.979-.611,1.711-.122,1.711,1.099"/>
  <path class="uuid-370d8100-d336-4e6c-bd5d-eaa5db50803a" d="M197.218,248.422c0,1.221-.732,2.737-1.711,3.349"/>
  <path class="uuid-370d8100-d336-4e6c-bd5d-eaa5db50803a" d="M195.507,251.77c-1.221.61-1.953.096-1.953-1.125"/>
  <path class="uuid-370d8100-d336-4e6c-bd5d-eaa5db50803a" d="M193.553,250.645c0-1.223.732-2.713,1.953-3.323"/>
  <path class="uuid-370d8100-d336-4e6c-bd5d-eaa5db50803a" d="M195.507,269.822c.979-.585,1.711-.1,1.711,1.122"/>
  <path class="uuid-370d8100-d336-4e6c-bd5d-eaa5db50803a" d="M197.218,270.943c0,1.221-.732,2.737-1.711,3.323"/>
  <path class="uuid-370d8100-d336-4e6c-bd5d-eaa5db50803a" d="M195.507,274.266c-1.221.61-1.953.121-1.953-1.101"/>
  <path class="uuid-370d8100-d336-4e6c-bd5d-eaa5db50803a" d="M193.553,273.165c0-1.218.732-2.708,1.953-3.344"/>
  <line class="uuid-5895b673-0818-432b-af0c-21b9e04d04ba" x1="208.697" y1="241.924" x2="262.928" y2="210.462"/>
  <line class="uuid-5895b673-0818-432b-af0c-21b9e04d04ba" x1="208.697" y1="220.746" x2="262.928" y2="189.283"/>
  <line class="uuid-5895b673-0818-432b-af0c-21b9e04d04ba" x1="208.697" y1="264.449" x2="252.669" y2="239.018"/>
  <line class="uuid-dbb552a3-99c8-4242-94f0-1555adc493b5" x1="147.385" y1="357.544" x2="136.391" y2="351.239"/>
  <line class="uuid-dbb552a3-99c8-4242-94f0-1555adc493b5" x1="127.107" y1="345.792" x2="122.222" y2="343.055"/>
  <line class="uuid-dbb552a3-99c8-4242-94f0-1555adc493b5" x1="169.858" y1="344.524" x2="159.107" y2="338.195"/>
  <line class="uuid-dbb552a3-99c8-4242-94f0-1555adc493b5" x1="127.107" y1="319.729" x2="122.222" y2="317.017"/>
  <line class="uuid-dbb552a3-99c8-4242-94f0-1555adc493b5" x1="192.575" y1="331.477" x2="181.584" y2="325.152"/>
  <line class="uuid-dbb552a3-99c8-4242-94f0-1555adc493b5" x1="127.107" y1="293.637" x2="122.222" y2="290.904"/>
  <line class="uuid-dbb552a3-99c8-4242-94f0-1555adc493b5" x1="215.048" y1="318.459" x2="204.301" y2="312.156"/>
  <line class="uuid-dbb552a3-99c8-4242-94f0-1555adc493b5" x1="127.107" y1="267.6" x2="122.222" y2="264.862"/>
  <line class="uuid-dbb552a3-99c8-4242-94f0-1555adc493b5" x1="237.768" y1="305.438" x2="226.774" y2="299.134"/>
  <line class="uuid-dbb552a3-99c8-4242-94f0-1555adc493b5" x1="127.107" y1="241.534" x2="122.222" y2="238.797"/>
  <line class="uuid-dbb552a3-99c8-4242-94f0-1555adc493b5" x1="260.242" y1="292.394" x2="249.495" y2="286.091"/>
  <line class="uuid-dbb552a3-99c8-4242-94f0-1555adc493b5" x1="127.35" y1="215.69" x2="123.933" y2="213.638"/>
  <line class="uuid-dbb552a3-99c8-4242-94f0-1555adc493b5" x1="282.958" y1="279.372" x2="271.968" y2="273.097"/>
  <line class="uuid-dbb552a3-99c8-4242-94f0-1555adc493b5" x1="145.431" y1="200.031" x2="139.566" y2="196.657"/>
  <line class="uuid-dbb552a3-99c8-4242-94f0-1555adc493b5" x1="305.432" y1="266.352" x2="294.684" y2="260.053"/>
  <line class="uuid-dbb552a3-99c8-4242-94f0-1555adc493b5" x1="168.148" y1="186.961" x2="162.282" y2="183.592"/>
  <line class="uuid-dbb552a3-99c8-4242-94f0-1555adc493b5" x1="327.42" y1="252.892" x2="317.158" y2="247.006"/>
  <line class="uuid-dbb552a3-99c8-4242-94f0-1555adc493b5" x1="190.621" y1="173.919" x2="184.759" y2="170.57"/>
  <line class="uuid-dbb552a3-99c8-4242-94f0-1555adc493b5" x1="335.967" y1="231.736" x2="331.327" y2="229.124"/>
  <line class="uuid-dbb552a3-99c8-4242-94f0-1555adc493b5" x1="213.338" y1="160.897" x2="207.476" y2="157.549"/>
  <line class="uuid-dbb552a3-99c8-4242-94f0-1555adc493b5" x1="335.967" y1="205.697" x2="331.327" y2="203.085"/>
  <line class="uuid-dbb552a3-99c8-4242-94f0-1555adc493b5" x1="235.815" y1="147.876" x2="229.949" y2="144.528"/>
  <line class="uuid-dbb552a3-99c8-4242-94f0-1555adc493b5" x1="335.967" y1="179.681" x2="331.327" y2="177.02"/>
  <line class="uuid-dbb552a3-99c8-4242-94f0-1555adc493b5" x1="258.285" y1="134.854" x2="252.669" y2="131.511"/>
  <line class="uuid-dbb552a3-99c8-4242-94f0-1555adc493b5" x1="335.967" y1="153.642" x2="331.327" y2="150.978"/>
  <line class="uuid-dbb552a3-99c8-4242-94f0-1555adc493b5" x1="281.005" y1="121.811" x2="275.143" y2="118.489"/>
  <line class="uuid-dbb552a3-99c8-4242-94f0-1555adc493b5" x1="336.214" y1="127.625" x2="331.327" y2="124.913"/>
  <line class="uuid-dbb552a3-99c8-4242-94f0-1555adc493b5" x1="303.478" y1="108.791" x2="297.617" y2="105.472"/>
  <line class="uuid-dbb552a3-99c8-4242-94f0-1555adc493b5" x1="336.457" y1="101.755" x2="320.09" y2="92.229"/>
  <line class="uuid-dbb552a3-99c8-4242-94f0-1555adc493b5" x1="175.72" y1="210.852" x2="167.416" y2="205.965"/>
  <line class="uuid-dbb552a3-99c8-4242-94f0-1555adc493b5" x1="198.439" y1="197.809" x2="189.889" y2="192.948"/>
  <line class="uuid-dbb552a3-99c8-4242-94f0-1555adc493b5" x1="220.913" y1="184.714" x2="212.605" y2="179.853"/>
  <line class="uuid-dbb552a3-99c8-4242-94f0-1555adc493b5" x1="243.63" y1="171.693" x2="235.083" y2="166.806"/>
  <line class="uuid-dbb552a3-99c8-4242-94f0-1555adc493b5" x1="266.104" y1="158.649" x2="257.799" y2="153.788"/>
  <line class="uuid-dbb552a3-99c8-4242-94f0-1555adc493b5" x1="288.577" y1="145.628" x2="280.273" y2="140.742"/>
  <line class="uuid-dbb552a3-99c8-4242-94f0-1555adc493b5" x1="118.313" y1="353.148" x2="115.139" y2="351.289"/>
  <line class="uuid-dbb552a3-99c8-4242-94f0-1555adc493b5" x1="118.313" y1="340.127" x2="115.139" y2="338.269"/>
  <line class="uuid-dbb552a3-99c8-4242-94f0-1555adc493b5" x1="118.313" y1="327.105" x2="115.139" y2="325.226"/>
  <line class="uuid-dbb552a3-99c8-4242-94f0-1555adc493b5" x1="118.313" y1="314.061" x2="115.139" y2="312.204"/>
  <line class="uuid-dbb552a3-99c8-4242-94f0-1555adc493b5" x1="118.313" y1="301.041" x2="115.139" y2="299.183"/>
  <line class="uuid-dbb552a3-99c8-4242-94f0-1555adc493b5" x1="118.313" y1="288.02" x2="115.139" y2="286.139"/>
  <line class="uuid-dbb552a3-99c8-4242-94f0-1555adc493b5" x1="118.313" y1="274.976" x2="115.139" y2="273.119"/>
  <line class="uuid-dbb552a3-99c8-4242-94f0-1555adc493b5" x1="118.313" y1="261.884" x2="115.139" y2="260.027"/>
  <line class="uuid-dbb552a3-99c8-4242-94f0-1555adc493b5" x1="118.313" y1="248.864" x2="115.139" y2="247.006"/>
  <line class="uuid-dbb552a3-99c8-4242-94f0-1555adc493b5" x1="118.313" y1="235.843" x2="115.139" y2="233.988"/>
  <line class="uuid-dbb552a3-99c8-4242-94f0-1555adc493b5" x1="118.313" y1="222.799" x2="115.139" y2="220.94"/>
  <line class="uuid-dbb552a3-99c8-4242-94f0-1555adc493b5" x1="120.758" y1="211.121" x2="116.845" y2="208.899"/>
  <line class="uuid-dbb552a3-99c8-4242-94f0-1555adc493b5" x1="126.618" y1="201.495" x2="122.954" y2="199.347"/>
  <line class="uuid-dbb552a3-99c8-4242-94f0-1555adc493b5" x1="136.391" y1="194.093" x2="132.973" y2="192.191"/>
  <line class="uuid-dbb552a3-99c8-4242-94f0-1555adc493b5" x1="147.628" y1="187.599" x2="144.453" y2="185.689"/>
  <line class="uuid-dbb552a3-99c8-4242-94f0-1555adc493b5" x1="158.864" y1="181.101" x2="155.689" y2="179.169"/>
  <line class="uuid-dbb552a3-99c8-4242-94f0-1555adc493b5" x1="170.344" y1="174.577" x2="166.926" y2="172.672"/>
  <line class="uuid-dbb552a3-99c8-4242-94f0-1555adc493b5" x1="181.584" y1="168.053" x2="178.163" y2="166.148"/>
  <line class="uuid-dbb552a3-99c8-4242-94f0-1555adc493b5" x1="192.821" y1="161.556" x2="189.4" y2="159.624"/>
  <line class="uuid-dbb552a3-99c8-4242-94f0-1555adc493b5" x1="204.058" y1="155.036" x2="200.883" y2="153.13"/>
  <line class="uuid-dbb552a3-99c8-4242-94f0-1555adc493b5" x1="215.538" y1="148.534" x2="212.116" y2="146.607"/>
  <line class="uuid-dbb552a3-99c8-4242-94f0-1555adc493b5" x1="226.774" y1="141.964" x2="223.357" y2="140.061"/>
  <line class="uuid-dbb552a3-99c8-4242-94f0-1555adc493b5" x1="238.011" y1="135.466" x2="234.594" y2="133.537"/>
  <line class="uuid-dbb552a3-99c8-4242-94f0-1555adc493b5" x1="249.248" y1="128.972" x2="246.073" y2="127.039"/>
  <line class="uuid-dbb552a3-99c8-4242-94f0-1555adc493b5" x1="260.728" y1="122.422" x2="257.31" y2="120.495"/>
  <line class="uuid-dbb552a3-99c8-4242-94f0-1555adc493b5" x1="271.968" y1="115.924" x2="268.547" y2="113.971"/>
  <line class="uuid-dbb552a3-99c8-4242-94f0-1555adc493b5" x1="283.205" y1="109.401" x2="279.783" y2="107.473"/>
  <line class="uuid-dbb552a3-99c8-4242-94f0-1555adc493b5" x1="294.442" y1="102.881" x2="291.267" y2="100.949"/>
  <line class="uuid-dbb552a3-99c8-4242-94f0-1555adc493b5" x1="305.678" y1="96.383" x2="302.5" y2="94.452"/>
  <line class="uuid-dbb552a3-99c8-4242-94f0-1555adc493b5" x1="317.158" y1="89.885" x2="313.74" y2="87.932"/>
</svg>