<?xml version="1.0" encoding="UTF-8"?>
<svg id="uuid-3946edc3-1f1b-404e-9221-3768b8f47ff6" data-name="&amp;lt;Layer&amp;gt;" xmlns="http://www.w3.org/2000/svg" viewBox="0 0 451.11 451.11">
  <defs>
    <style>
      .uuid-c86c5ae1-dab4-4f21-88e5-4de04496844a, .uuid-655a15a0-bda8-4314-b5df-6d538d162596, .uuid-db1227ab-3aac-4209-9368-89ea7cacff6f, .uuid-934474f5-77a4-4c20-b997-05bc34511b3f, .uuid-23cc384e-c982-4776-bdcc-9ab4d06a6322, .uuid-5cf96aa6-5e00-4592-b685-4228c7f3a848 {
        fill: none;
        stroke: #000;
        stroke-linecap: round;
      }

      .uuid-c86c5ae1-dab4-4f21-88e5-4de04496844a, .uuid-655a15a0-bda8-4314-b5df-6d538d162596, .uuid-23cc384e-c982-4776-bdcc-9ab4d06a6322, .uuid-5cf96aa6-5e00-4592-b685-4228c7f3a848 {
        stroke-linejoin: round;
      }

      .uuid-c86c5ae1-dab4-4f21-88e5-4de04496844a, .uuid-5cf96aa6-5e00-4592-b685-4228c7f3a848 {
        stroke-width: 4.117px;
      }

      .uuid-655a15a0-bda8-4314-b5df-6d538d162596, .uuid-23cc384e-c982-4776-bdcc-9ab4d06a6322 {
        stroke-width: 4.113px;
      }

      .uuid-db1227ab-3aac-4209-9368-89ea7cacff6f {
        stroke-width: 1.163px;
      }

      .uuid-db1227ab-3aac-4209-9368-89ea7cacff6f, .uuid-934474f5-77a4-4c20-b997-05bc34511b3f {
        stroke-miterlimit: 10;
      }

      .uuid-934474f5-77a4-4c20-b997-05bc34511b3f {
        stroke-width: 1.159px;
      }

      .uuid-23cc384e-c982-4776-bdcc-9ab4d06a6322, .uuid-5cf96aa6-5e00-4592-b685-4228c7f3a848 {
        fill-rule: evenodd;
      }
    </style>
  </defs>
  <path class="uuid-23cc384e-c982-4776-bdcc-9ab4d06a6322" d="M317.688,213.93c-4.398-2.541-9.626-3.594-15.44-3.005-5.57.562-11.726,2.612-18.176,6.35-6.45,3.712-12.605,8.72-18.172,14.632-5.818,6.13-11.042,13.24-15.438,20.837-4.422,7.598-7.918,15.707-10.336,23.795-2.343,7.793-3.616,15.633-3.616,23.084s1.273,13.802,3.616,18.905c2.418,5.327,5.914,9.334,10.336,11.873,4.396,2.517,9.621,3.591,15.438,3.006,5.567-.563,11.722-2.615,18.172-6.329,6.45-3.738,12.606-8.746,18.176-14.658,5.814-6.151,11.042-13.238,15.44-20.858,4.37-7.572,7.914-15.66,10.357-23.769,2.322-7.793,3.588-15.634,3.588-23.063s-1.265-13.802-3.588-18.93c-2.443-5.324-5.986-9.331-10.357-11.87Z"/>
  <polyline class="uuid-23cc384e-c982-4776-bdcc-9ab4d06a6322" points="285.781 196.115 285.781 197.443 285.781 197.697"/>
  <path class="uuid-23cc384e-c982-4776-bdcc-9ab4d06a6322" d="M285.781,197.697c0,.361-.302.754-.453,1.071-.75,1.067-2.108,1.821-3.462,2.211-2.709.979-6.476.906-9.034-.389-.754-.287-1.354-.706-1.957-1.221-.452-.419-.754-.916-.905-1.46"/>
  <polyline class="uuid-23cc384e-c982-4776-bdcc-9ab4d06a6322" points="269.97 197.907 269.819 197.697 269.819 197.443 269.819 196.115"/>
  <path class="uuid-23cc384e-c982-4776-bdcc-9ab4d06a6322" d="M294.964,188.241c-1.917,11.229-30.995,12.657-34.328,0"/>
  <path class="uuid-23cc384e-c982-4776-bdcc-9ab4d06a6322" d="M260.636,183.801c.301,1.158.452,1.791,1.203,2.8,1.206,1.685,2.56,2.605,4.366,3.642,4.067,1.972,7.981,2.623,12.5,2.547,4.362-.18,8.127-.994,11.891-3.253,2.26-1.476,3.915-3.088,4.368-5.736"/>
  <path class="uuid-23cc384e-c982-4776-bdcc-9ab4d06a6322" d="M265.606,175.79c6.774-3.899,17.764-3.899,24.391,0,6.774,3.9,6.774,10.192,0,14.092-6.626,3.915-17.616,3.915-24.391,0-6.777-3.9-6.777-10.192,0-14.092Z"/>
  <path class="uuid-5cf96aa6-5e00-4592-b685-4228c7f3a848" d="M281,270.262c.762-1.321,1.671-2.443,2.885-3.124,1.214-.698,2.277-.728,3.035-.291.758.427,1.215,1.369,1.215,2.701s-.457,2.856-1.215,4.143c-.758,1.336-1.821,2.457-3.035,3.142-1.215.65-2.123.728-2.885.287-.758-.423-1.364-1.365-1.364-2.701s.606-2.852,1.364-4.157Z"/>
  <line class="uuid-c86c5ae1-dab4-4f21-88e5-4de04496844a" x1="315.046" y1="193.995" x2="318.659" y2="188.23"/>
  <path class="uuid-5cf96aa6-5e00-4592-b685-4228c7f3a848" d="M318.659,188.23c2.862-3.432,15.961,5.162,12.498,10.104"/>
  <line class="uuid-c86c5ae1-dab4-4f21-88e5-4de04496844a" x1="331.158" y1="198.333" x2="328.145" y2="202.984"/>
  <line class="uuid-655a15a0-bda8-4314-b5df-6d538d162596" x1="294.964" y1="183.801" x2="294.964" y2="188.241"/>
  <line class="uuid-655a15a0-bda8-4314-b5df-6d538d162596" x1="260.636" y1="188.241" x2="260.636" y2="183.801"/>
  <line class="uuid-c86c5ae1-dab4-4f21-88e5-4de04496844a" x1="310.285" y1="225.293" x2="286.314" y2="266.638"/>
  <line class="uuid-c86c5ae1-dab4-4f21-88e5-4de04496844a" x1="282.215" y1="305.326" x2="282.215" y2="314.852"/>
  <line class="uuid-c86c5ae1-dab4-4f21-88e5-4de04496844a" x1="311.801" y1="254.12" x2="319.995" y2="249.355"/>
  <line class="uuid-c86c5ae1-dab4-4f21-88e5-4de04496844a" x1="282.215" y1="237.051" x2="282.215" y2="227.537"/>
  <line class="uuid-c86c5ae1-dab4-4f21-88e5-4de04496844a" x1="252.629" y1="288.272" x2="244.284" y2="293.022"/>
  <line class="uuid-934474f5-77a4-4c20-b997-05bc34511b3f" x1="268.616" y1="197.186" x2="268.466" y2="196.975"/>
  <line class="uuid-934474f5-77a4-4c20-b997-05bc34511b3f" x1="268.163" y1="194.22" x2="266.809" y2="191.825"/>
  <line class="uuid-934474f5-77a4-4c20-b997-05bc34511b3f" x1="277.2" y1="196.041" x2="275.993" y2="193.933"/>
  <line class="uuid-934474f5-77a4-4c20-b997-05bc34511b3f" x1="284.728" y1="195.151" x2="283.672" y2="193.363"/>
  <line class="uuid-934474f5-77a4-4c20-b997-05bc34511b3f" x1="291.049" y1="192.142" x2="290.45" y2="191.075"/>
  <line class="uuid-934474f5-77a4-4c20-b997-05bc34511b3f" x1="269.069" y1="190.349" x2="262.593" y2="179.373"/>
  <line class="uuid-934474f5-77a4-4c20-b997-05bc34511b3f" x1="278.102" y1="192.082" x2="268.315" y2="175.172"/>
  <line class="uuid-934474f5-77a4-4c20-b997-05bc34511b3f" x1="285.478" y1="191.075" x2="275.39" y2="173.609"/>
  <line class="uuid-934474f5-77a4-4c20-b997-05bc34511b3f" x1="291.653" y1="187.774" x2="283.974" y2="174.421"/>
  <line class="uuid-934474f5-77a4-4c20-b997-05bc34511b3f" x1="279.003" y1="200.379" x2="277.8" y2="198.451"/>
  <path class="uuid-23cc384e-c982-4776-bdcc-9ab4d06a6322" d="M240.469,82.698l-21.326,12.315-10.284,5.934-59.042,34.078-11.8,6.84-19.788,11.383c-2.976,1.929-4.639,3.908-6.518,6.888-1.62,3.05-2.138,4.893-2.617,8.209-.048.291-.096.658-.096.949"/>
  <line class="uuid-655a15a0-bda8-4314-b5df-6d538d162596" x1="108.997" y1="353.558" x2="108.997" y2="174.281"/>
  <path class="uuid-5cf96aa6-5e00-4592-b685-4228c7f3a848" d="M119.815,362.956v-175.908c.012-5.05-.349-11.199.82-16.045,1.277-5.294,4.302-9.081,10.589-12.724l17.614-10.188,11.774-6.789"/>
  <path class="uuid-23cc384e-c982-4776-bdcc-9ab4d06a6322" d="M242.96,248.442c10.505-18.198,25.089-34.1,41.113-43.383,16.024-9.231,30.561-10.111,41.066-4.055,10.501,6.06,16.999,19.104,16.999,37.623s-6.498,39.059-16.999,57.257c-10.505,18.198-25.042,34.101-41.066,43.358-16.024,9.261-30.608,10.14-41.113,4.08-10.505-6.081-16.998-19.077-16.998-37.617s6.494-39.035,16.998-57.263Z"/>
  <path class="uuid-23cc384e-c982-4776-bdcc-9ab4d06a6322" d="M257.666,88.269c-.074-.048-.121-.048-.195-.096-2.097-1.125-4.305-.147-6.207.806"/>
  <line class="uuid-655a15a0-bda8-4314-b5df-6d538d162596" x1="169.384" y1="254.382" x2="215.306" y2="227.854"/>
  <line class="uuid-655a15a0-bda8-4314-b5df-6d538d162596" x1="169.384" y1="229.759" x2="233.849" y2="192.553"/>
  <line class="uuid-655a15a0-bda8-4314-b5df-6d538d162596" x1="169.384" y1="203.621" x2="233.849" y2="166.389"/>
  <line class="uuid-655a15a0-bda8-4314-b5df-6d538d162596" x1="111.71" y1="160.112" x2="122.53" y2="166.367"/>
  <path class="uuid-23cc384e-c982-4776-bdcc-9ab4d06a6322" d="M108.997,174.281c0-1.67-.055-3.454,0-4.986"/>
  <path class="uuid-23cc384e-c982-4776-bdcc-9ab4d06a6322" d="M109.803,360.719c-1.053-1.979-.806-4.986-.806-7.161"/>
  <line class="uuid-655a15a0-bda8-4314-b5df-6d538d162596" x1="122.53" y1="368.998" x2="111.658" y2="362.769"/>
  <path class="uuid-23cc384e-c982-4776-bdcc-9ab4d06a6322" d="M157.879,259.731c0-2.517-1.807-3.569-3.934-2.296"/>
  <path class="uuid-23cc384e-c982-4776-bdcc-9ab4d06a6322" d="M153.944,266.594c2.127-1.269,3.934-4.346,3.934-6.863"/>
  <path class="uuid-23cc384e-c982-4776-bdcc-9ab4d06a6322" d="M149.913,264.298c0,2.543,1.809,3.543,4.032,2.296"/>
  <path class="uuid-23cc384e-c982-4776-bdcc-9ab4d06a6322" d="M153.944,257.435c-2.222,1.269-4.032,4.35-4.032,6.862"/>
  <path class="uuid-23cc384e-c982-4776-bdcc-9ab4d06a6322" d="M157.879,233.567c0-2.517-1.807-3.54-3.934-2.27"/>
  <path class="uuid-23cc384e-c982-4776-bdcc-9ab4d06a6322" d="M153.944,240.455c2.127-1.269,3.934-4.37,3.934-6.887"/>
  <path class="uuid-23cc384e-c982-4776-bdcc-9ab4d06a6322" d="M149.913,238.162c0,2.513,1.809,3.54,4.032,2.292"/>
  <path class="uuid-23cc384e-c982-4776-bdcc-9ab4d06a6322" d="M153.944,231.297c-2.222,1.243-4.032,4.348-4.032,6.865"/>
  <path class="uuid-23cc384e-c982-4776-bdcc-9ab4d06a6322" d="M157.879,208.97c0-2.541-1.807-3.568-3.934-2.299"/>
  <path class="uuid-23cc384e-c982-4776-bdcc-9ab4d06a6322" d="M153.944,215.833c2.127-1.269,3.934-4.346,3.934-6.863"/>
  <path class="uuid-23cc384e-c982-4776-bdcc-9ab4d06a6322" d="M149.913,213.537c0,2.517,1.809,3.544,4.032,2.296"/>
  <path class="uuid-23cc384e-c982-4776-bdcc-9ab4d06a6322" d="M153.944,206.672c-2.222,1.247-4.032,4.348-4.032,6.865"/>
  <polyline class="uuid-23cc384e-c982-4776-bdcc-9ab4d06a6322" points="136.747 172.765 136.747 351.286 210.908 308.491"/>
  <line class="uuid-655a15a0-bda8-4314-b5df-6d538d162596" x1="247.946" y1="108.545" x2="247.946" y2="211.509"/>
  <line class="uuid-655a15a0-bda8-4314-b5df-6d538d162596" x1="260.5" y1="200.711" x2="260.5" y2="94.304"/>
  <path class="uuid-23cc384e-c982-4776-bdcc-9ab4d06a6322" d="M121.577,368.24c-1.354-1.355-1.733-3.381-1.733-5.228"/>
  <path class="uuid-23cc384e-c982-4776-bdcc-9ab4d06a6322" d="M129.076,368.361c-2.539,1.516-4.886,1.616-6.546.637"/>
  <line class="uuid-655a15a0-bda8-4314-b5df-6d538d162596" x1="214.088" y1="319.286" x2="129.076" y2="368.361"/>
  <path class="uuid-23cc384e-c982-4776-bdcc-9ab4d06a6322" d="M109.803,360.742c.415.694,1.207,1.622,1.907,2.027"/>
  <polyline class="uuid-23cc384e-c982-4776-bdcc-9ab4d06a6322" points="216.479 134.758 175.587 158.354 175.587 150.366"/>
  <path class="uuid-23cc384e-c982-4776-bdcc-9ab4d06a6322" d="M163.177,157.499c-8.842,5.104-17.61,10.163-26.43,15.266"/>
  <path class="uuid-23cc384e-c982-4776-bdcc-9ab4d06a6322" d="M222.514,123.227c8.477-4.861,16.98-9.795,25.432-14.682"/>
  <polyline class="uuid-23cc384e-c982-4776-bdcc-9ab4d06a6322" points="175.587 150.366 175.587 150.292 210.034 130.431"/>
  <polyline class="uuid-23cc384e-c982-4776-bdcc-9ab4d06a6322" points="157.951 130.898 157.951 136.859 163.107 139.839 163.107 164.071 169.557 167.783"/>
  <polyline class="uuid-23cc384e-c982-4776-bdcc-9ab4d06a6322" points="210.034 120.173 210.034 130.431 216.479 134.758 216.479 116.487"/>
  <polyline class="uuid-23cc384e-c982-4776-bdcc-9ab4d06a6322" points="221.292 106.345 169.557 137.591 169.557 167.783 222.514 137.249 222.514 107.031"/>
  <line class="uuid-655a15a0-bda8-4314-b5df-6d538d162596" x1="157.951" y1="130.898" x2="169.557" y2="137.591"/>
  <polyline class="uuid-23cc384e-c982-4776-bdcc-9ab4d06a6322" points="222.514 107.031 215.258 102.854 210.908 100.337"/>
  <line class="uuid-655a15a0-bda8-4314-b5df-6d538d162596" x1="251.264" y1="88.979" x2="221.244" y2="106.345"/>
  <path class="uuid-23cc384e-c982-4776-bdcc-9ab4d06a6322" d="M260.5,94.304c0-3.006-1.101-5.104-2.833-6.034"/>
  <path class="uuid-23cc384e-c982-4776-bdcc-9ab4d06a6322" d="M246.967,82.066c-2.395-1.101-4.25-.537-6.498.632"/>
  <line class="uuid-655a15a0-bda8-4314-b5df-6d538d162596" x1="257.666" y1="88.269" x2="246.967" y2="82.066"/>
  <path class="uuid-23cc384e-c982-4776-bdcc-9ab4d06a6322" d="M175.587,158.354v-18.298c13.654-7.862,27.238-15.729,40.892-23.569v18.272c-13.654,7.862-27.238,15.729-40.892,23.595Z"/>
  <path class="uuid-23cc384e-c982-4776-bdcc-9ab4d06a6322" d="M242.033,342.738c-3.838-2.222-15.097-8.382-18.051-10.627-18.493-13.974-15.464-45.046-9.578-64.466,8.451-28.091,27.971-56.768,53.52-71.891"/>
  <line class="uuid-655a15a0-bda8-4314-b5df-6d538d162596" x1="308.012" y1="191.137" x2="324.16" y2="200.467"/>
  <path class="uuid-23cc384e-c982-4776-bdcc-9ab4d06a6322" d="M311.897,211.557c8.646,4.813,14.048,15.464,14.048,30.535,0,29.976-21.035,66.398-46.927,81.373-13.07,7.547-24.848,8.183-33.395,3.123"/>
  <path class="uuid-23cc384e-c982-4776-bdcc-9ab4d06a6322" d="M294.67,187.796c4.577.07,9.099,1.067,13.342,3.341"/>
  <line class="uuid-db1227ab-3aac-4209-9368-89ea7cacff6f" x1="189.66" y1="134.147" x2="184.602" y2="142.941"/>
  <line class="uuid-db1227ab-3aac-4209-9368-89ea7cacff6f" x1="148.353" y1="137.981" x2="141.171" y2="150.488"/>
  <line class="uuid-db1227ab-3aac-4209-9368-89ea7cacff6f" x1="128.785" y1="149.244" x2="120.603" y2="163.461"/>
  <line class="uuid-db1227ab-3aac-4209-9368-89ea7cacff6f" x1="249.115" y1="85.484" x2="245.517" y2="91.705"/>
  <line class="uuid-db1227ab-3aac-4209-9368-89ea7cacff6f" x1="234.409" y1="88.295" x2="227.227" y2="100.801"/>
  <line class="uuid-db1227ab-3aac-4209-9368-89ea7cacff6f" x1="258.645" y1="195.507" x2="254.171" y2="203.18"/>
  <line class="uuid-db1227ab-3aac-4209-9368-89ea7cacff6f" x1="258.767" y1="150.071" x2="249.752" y2="165.731"/>
  <line class="uuid-db1227ab-3aac-4209-9368-89ea7cacff6f" x1="258.767" y1="104.907" x2="249.752" y2="120.562"/>
  <line class="uuid-db1227ab-3aac-4209-9368-89ea7cacff6f" x1="235.535" y1="100.068" x2="224.251" y2="119.584"/>
  <line class="uuid-db1227ab-3aac-4209-9368-89ea7cacff6f" x1="229.89" y1="331.843" x2="221.244" y2="326.861"/>
  <line class="uuid-db1227ab-3aac-4209-9368-89ea7cacff6f" x1="225.129" y1="316.037" x2="212.767" y2="308.902"/>
  <line class="uuid-db1227ab-3aac-4209-9368-89ea7cacff6f" x1="224.419" y1="302.625" x2="211.596" y2="295.226"/>
  <line class="uuid-db1227ab-3aac-4209-9368-89ea7cacff6f" x1="225.837" y1="290.387" x2="212.645" y2="282.79"/>
  <line class="uuid-db1227ab-3aac-4209-9368-89ea7cacff6f" x1="228.448" y1="278.882" x2="215.089" y2="271.163"/>
  <line class="uuid-db1227ab-3aac-4209-9368-89ea7cacff6f" x1="232.113" y1="267.914" x2="218.631" y2="260.169"/>
  <line class="uuid-db1227ab-3aac-4209-9368-89ea7cacff6f" x1="236.562" y1="257.457" x2="223.029" y2="249.69"/>
  <line class="uuid-db1227ab-3aac-4209-9368-89ea7cacff6f" x1="241.79" y1="247.468" x2="228.328" y2="239.674"/>
  <line class="uuid-db1227ab-3aac-4209-9368-89ea7cacff6f" x1="247.898" y1="237.942" x2="234.361" y2="230.15"/>
  <line class="uuid-db1227ab-3aac-4209-9368-89ea7cacff6f" x1="254.686" y1="228.854" x2="241.275" y2="221.087"/>
  <line class="uuid-db1227ab-3aac-4209-9368-89ea7cacff6f" x1="262.405" y1="220.255" x2="249.067" y2="212.562"/>
  <line class="uuid-db1227ab-3aac-4209-9368-89ea7cacff6f" x1="271.125" y1="212.267" x2="257.935" y2="204.644"/>
  <line class="uuid-db1227ab-3aac-4209-9368-89ea7cacff6f" x1="281.118" y1="204.985" x2="277.469" y2="202.87"/>
  <line class="uuid-db1227ab-3aac-4209-9368-89ea7cacff6f" x1="293.087" y1="198.83" x2="287.827" y2="195.802"/>
  <line class="uuid-db1227ab-3aac-4209-9368-89ea7cacff6f" x1="311.55" y1="196.48" x2="299.35" y2="189.459"/>
  <line class="uuid-db1227ab-3aac-4209-9368-89ea7cacff6f" x1="339.23" y1="225.874" x2="332.932" y2="236.868"/>
  <line class="uuid-db1227ab-3aac-4209-9368-89ea7cacff6f" x1="277.918" y1="332.112" x2="271.64" y2="343.054"/>
  <line class="uuid-db1227ab-3aac-4209-9368-89ea7cacff6f" x1="326.114" y1="203.547" x2="320.3" y2="213.585"/>
  <line class="uuid-db1227ab-3aac-4209-9368-89ea7cacff6f" x1="251.485" y1="332.771" x2="245.697" y2="342.837"/>
  <line class="uuid-db1227ab-3aac-4209-9368-89ea7cacff6f" x1="302.249" y1="199.735" x2="296.142" y2="210.24"/>
  <line class="uuid-db1227ab-3aac-4209-9368-89ea7cacff6f" x1="236.51" y1="313.52" x2="230.48" y2="323.977"/>
  <line class="uuid-db1227ab-3aac-4209-9368-89ea7cacff6f" x1="262.329" y1="223.64" x2="231.001" y2="277.907"/>
  <line class="uuid-db1227ab-3aac-4209-9368-89ea7cacff6f" x1="167.65" y1="156.374" x2="165.207" y2="154.958"/>
  <line class="uuid-db1227ab-3aac-4209-9368-89ea7cacff6f" x1="167.65" y1="143.356" x2="165.207" y2="141.914"/>
  <line class="uuid-db1227ab-3aac-4209-9368-89ea7cacff6f" x1="189.193" y1="323.145" x2="181.868" y2="335.799"/>
  <line class="uuid-db1227ab-3aac-4209-9368-89ea7cacff6f" x1="150.059" y1="345.718" x2="142.734" y2="358.397"/>
  <line class="uuid-db1227ab-3aac-4209-9368-89ea7cacff6f" x1="135.184" y1="326.372" x2="121.529" y2="350.016"/>
  <line class="uuid-db1227ab-3aac-4209-9368-89ea7cacff6f" x1="135.184" y1="281.204" x2="121.529" y2="304.873"/>
  <line class="uuid-db1227ab-3aac-4209-9368-89ea7cacff6f" x1="135.184" y1="236.058" x2="121.529" y2="259.731"/>
  <line class="uuid-db1227ab-3aac-4209-9368-89ea7cacff6f" x1="161.421" y1="145.358" x2="151.796" y2="162.066"/>
  <line class="uuid-db1227ab-3aac-4209-9368-89ea7cacff6f" x1="135.184" y1="190.894" x2="121.529" y2="214.563"/>
  <line class="uuid-db1227ab-3aac-4209-9368-89ea7cacff6f" x1="118.038" y1="352.289" x2="110.856" y2="356.444"/>
  <line class="uuid-db1227ab-3aac-4209-9368-89ea7cacff6f" x1="118.038" y1="339.243" x2="110.856" y2="343.396"/>
  <line class="uuid-db1227ab-3aac-4209-9368-89ea7cacff6f" x1="118.038" y1="326.199" x2="110.856" y2="330.353"/>
  <line class="uuid-db1227ab-3aac-4209-9368-89ea7cacff6f" x1="118.038" y1="313.156" x2="110.856" y2="317.307"/>
  <line class="uuid-db1227ab-3aac-4209-9368-89ea7cacff6f" x1="118.038" y1="300.134" x2="110.856" y2="304.289"/>
  <line class="uuid-db1227ab-3aac-4209-9368-89ea7cacff6f" x1="118.038" y1="287.092" x2="110.856" y2="291.241"/>
  <line class="uuid-db1227ab-3aac-4209-9368-89ea7cacff6f" x1="118.038" y1="274.07" x2="110.856" y2="278.198"/>
  <line class="uuid-db1227ab-3aac-4209-9368-89ea7cacff6f" x1="118.038" y1="261.027" x2="110.856" y2="265.154"/>
  <line class="uuid-db1227ab-3aac-4209-9368-89ea7cacff6f" x1="118.038" y1="247.979" x2="110.856" y2="252.108"/>
  <line class="uuid-db1227ab-3aac-4209-9368-89ea7cacff6f" x1="118.038" y1="234.936" x2="110.856" y2="239.09"/>
  <line class="uuid-db1227ab-3aac-4209-9368-89ea7cacff6f" x1="118.038" y1="221.915" x2="110.856" y2="226.043"/>
  <line class="uuid-db1227ab-3aac-4209-9368-89ea7cacff6f" x1="118.038" y1="208.872" x2="110.856" y2="213.021"/>
  <line class="uuid-db1227ab-3aac-4209-9368-89ea7cacff6f" x1="118.038" y1="195.85" x2="110.904" y2="199.978"/>
  <line class="uuid-db1227ab-3aac-4209-9368-89ea7cacff6f" x1="118.038" y1="182.807" x2="110.904" y2="186.935"/>
  <line class="uuid-db1227ab-3aac-4209-9368-89ea7cacff6f" x1="119.381" y1="169.005" x2="110.856" y2="173.94"/>
  <line class="uuid-db1227ab-3aac-4209-9368-89ea7cacff6f" x1="279.018" y1="327.473" x2="277.527" y2="326.589"/>
  <line class="uuid-db1227ab-3aac-4209-9368-89ea7cacff6f" x1="289.983" y1="320.754" x2="288.154" y2="319.701"/>
  <line class="uuid-db1227ab-3aac-4209-9368-89ea7cacff6f" x1="298.997" y1="312.909" x2="297.02" y2="311.765"/>
  <line class="uuid-db1227ab-3aac-4209-9368-89ea7cacff6f" x1="306.668" y1="304.314" x2="304.567" y2="303.114"/>
  <line class="uuid-db1227ab-3aac-4209-9368-89ea7cacff6f" x1="313.218" y1="295.08" x2="311.139" y2="293.879"/>
  <line class="uuid-db1227ab-3aac-4209-9368-89ea7cacff6f" x1="318.858" y1="285.281" x2="316.782" y2="284.06"/>
  <line class="uuid-db1227ab-3aac-4209-9368-89ea7cacff6f" x1="323.501" y1="274.923" x2="321.423" y2="273.727"/>
  <line class="uuid-db1227ab-3aac-4209-9368-89ea7cacff6f" x1="327.04" y1="263.955" x2="325.061" y2="262.785"/>
  <line class="uuid-db1227ab-3aac-4209-9368-89ea7cacff6f" x1="329.194" y1="252.134" x2="327.383" y2="251.085"/>
  <line class="uuid-db1227ab-3aac-4209-9368-89ea7cacff6f" x1="329.363" y1="239.185" x2="327.846" y2="238.332"/>
</svg>