<?xml version="1.0" encoding="UTF-8"?>
<svg id="uuid-224e91d4-ebd7-4e8d-9dc1-10688aa09016" data-name="&amp;lt;Layer&amp;gt;" xmlns="http://www.w3.org/2000/svg" viewBox="0 0 451.11 451.11">
  <defs>
    <style>
      .uuid-17b3c1a9-77eb-4dcb-984d-a8b99ee1884b, .uuid-04b3a2ac-00e8-4517-9b9b-aca5174bf806, .uuid-a23013a1-c0d0-409a-ab8f-576ec1886bff {
        fill: none;
        stroke: #000;
        stroke-linecap: round;
      }

      .uuid-17b3c1a9-77eb-4dcb-984d-a8b99ee1884b, .uuid-a23013a1-c0d0-409a-ab8f-576ec1886bff {
        stroke-linejoin: round;
        stroke-width: 4.117px;
      }

      .uuid-04b3a2ac-00e8-4517-9b9b-aca5174bf806 {
        stroke-miterlimit: 10;
        stroke-width: 1.163px;
      }

      .uuid-a23013a1-c0d0-409a-ab8f-576ec1886bff {
        fill-rule: evenodd;
      }
    </style>
  </defs>
  <path class="uuid-a23013a1-c0d0-409a-ab8f-576ec1886bff" d="M131.104,373.895c-2.958,1.763-5.571,1.885-7.55.758-.291-.169-.585-.389-.854-.684-.247-.169-.49-.411-.588-.633-.291-.243-.463-.536-.585-.831-.169-.269-.367-.585-.415-.88-.17-.269-.221-.562-.291-.853-.173-.589-.295-1.153-.343-1.811-.051-.389-.051-.806-.051-1.218"/>
  <path class="uuid-a23013a1-c0d0-409a-ab8f-576ec1886bff" d="M328.433,82.029c1.684-.854,3.127-1.438,4.643-1.438.463,0,.876.048,1.39.169.465.122,1.001.295,1.516.511,1.907,1.127,3.128,3.496,3.128,6.913"/>
  <path class="uuid-a23013a1-c0d0-409a-ab8f-576ec1886bff" d="M339.11,241.496c0,3.445-1.221,7.209-3.128,10.531-1.394,2.44-3.201,4.64-5.228,6.303"/>
  <polyline class="uuid-a23013a1-c0d0-409a-ab8f-576ec1886bff" points="330.51 257.987 330.753 258.33 335.297 264.728 321.518 269.368"/>
  <polyline class="uuid-a23013a1-c0d0-409a-ab8f-576ec1886bff" points="318.686 272.864 314.266 290.867 302.879 274.717 298.118 267.93"/>
  <polyline class="uuid-a23013a1-c0d0-409a-ab8f-576ec1886bff" points="283.021 275.355 277.623 289.351 265.993 319.153 261.596 306.183"/>
  <path class="uuid-a23013a1-c0d0-409a-ab8f-576ec1886bff" d="M310.138,211.963c-4.596-2.639-10.873-2.27-17.882,1.759-6.917,4.007-13.12,10.798-17.712,18.591"/>
  <path class="uuid-a23013a1-c0d0-409a-ab8f-576ec1886bff" d="M274.423,232.578c-4.593,7.893-7.378,16.834-7.378,24.894,0,1.516.074,2.934.291,4.276.126,1.049.342,2.102.637,3.054,1.221,4.007,2.958,6.888,6.155,8.868,3.716,2.122,8.646,2.513,13.828.437,15.439-5.567,29.555-28.019,29.555-45.801,0-8.039-2.782-13.728-7.373-16.343"/>
  <path class="uuid-a23013a1-c0d0-409a-ab8f-576ec1886bff" d="M303.761,222.979c-2.906-1.686-6.987-1.44-11.457,1.151-4.47,2.565-8.477,6.935-11.431,11.943"/>
  <path class="uuid-a23013a1-c0d0-409a-ab8f-576ec1886bff" d="M280.82,236.243c-2.976,5.106-4.761,10.846-4.761,16.026,0,2.808.511,5.519,1.686,7.378"/>
  <path class="uuid-a23013a1-c0d0-409a-ab8f-576ec1886bff" d="M277.746,259.673c2.663,4.591,7.94,5.471,13.752,2.391,4.592-2.465,8.894-6.619,12.264-12.532"/>
  <path class="uuid-a23013a1-c0d0-409a-ab8f-576ec1886bff" d="M303.761,249.532c3.125-5.375,4.761-11.089,4.761-16.024,0-5.18-1.805-8.845-4.761-10.529"/>
  <path class="uuid-a23013a1-c0d0-409a-ab8f-576ec1886bff" d="M112,362.927c.17,2.932.633,5.134,3.15,6.892"/>
  <line class="uuid-17b3c1a9-77eb-4dcb-984d-a8b99ee1884b" x1="115.15" y1="369.819" x2="123.553" y2="374.679"/>
  <path class="uuid-a23013a1-c0d0-409a-ab8f-576ec1886bff" d="M123.553,374.679c-2.565-1.785-3.028-3.959-3.127-6.913"/>
  <line class="uuid-17b3c1a9-77eb-4dcb-984d-a8b99ee1884b" x1="120.427" y1="367.766" x2="120.427" y2="214.428"/>
  <path class="uuid-a23013a1-c0d0-409a-ab8f-576ec1886bff" d="M120.427,214.428c.293-7.374,4.396-14.508,10.677-18.463"/>
  <line class="uuid-17b3c1a9-77eb-4dcb-984d-a8b99ee1884b" x1="131.104" y1="195.965" x2="328.433" y2="82.029"/>
  <path class="uuid-a23013a1-c0d0-409a-ab8f-576ec1886bff" d="M328.433,82.029c2.611-1.368,4.764-2.05,7.549-.732"/>
  <line class="uuid-17b3c1a9-77eb-4dcb-984d-a8b99ee1884b" x1="335.982" y1="81.297" x2="327.552" y2="76.436"/>
  <path class="uuid-a23013a1-c0d0-409a-ab8f-576ec1886bff" d="M327.552,76.436c-2.785-1.32-4.934-.636-7.547.733"/>
  <line class="uuid-17b3c1a9-77eb-4dcb-984d-a8b99ee1884b" x1="320.006" y1="77.169" x2="122.7" y2="191.1"/>
  <path class="uuid-a23013a1-c0d0-409a-ab8f-576ec1886bff" d="M122.7,191.1c-6.302,3.981-10.357,11.094-10.7,18.467"/>
  <line class="uuid-17b3c1a9-77eb-4dcb-984d-a8b99ee1884b" x1="112" y1="209.567" x2="112" y2="362.927"/>
  <line class="uuid-17b3c1a9-77eb-4dcb-984d-a8b99ee1884b" x1="249.506" y1="305.547" x2="131.104" y2="373.895"/>
  <line class="uuid-17b3c1a9-77eb-4dcb-984d-a8b99ee1884b" x1="339.11" y1="88.184" x2="339.11" y2="241.496"/>
  <line class="uuid-17b3c1a9-77eb-4dcb-984d-a8b99ee1884b" x1="302.879" y1="274.717" x2="277.623" y2="289.351"/>
  <line class="uuid-17b3c1a9-77eb-4dcb-984d-a8b99ee1884b" x1="316.367" y1="237.832" x2="330.753" y2="258.33"/>
  <path class="uuid-a23013a1-c0d0-409a-ab8f-576ec1886bff" d="M330.338,257.694c.074.121.121.195.173.293"/>
  <path class="uuid-a23013a1-c0d0-409a-ab8f-576ec1886bff" d="M321.518,269.368c-1.221.367-2.443,1.857-2.832,3.495"/>
  <path class="uuid-a23013a1-c0d0-409a-ab8f-576ec1886bff" d="M261.596,306.183c-.363-1.151-1.633-1.221-2.854-.173"/>
  <line class="uuid-17b3c1a9-77eb-4dcb-984d-a8b99ee1884b" x1="258.741" y1="306.011" x2="244.988" y2="317.274"/>
  <path class="uuid-a23013a1-c0d0-409a-ab8f-576ec1886bff" d="M244.988,317.274c1.49-3.885,3.028-7.819,4.518-11.726"/>
  <line class="uuid-17b3c1a9-77eb-4dcb-984d-a8b99ee1884b" x1="249.506" y1="305.547" x2="249.579" y2="305.547"/>
  <path class="uuid-a23013a1-c0d0-409a-ab8f-576ec1886bff" d="M249.579,305.547c5.667-14.68,11.384-29.314,17.05-44.02"/>
  <line class="uuid-17b3c1a9-77eb-4dcb-984d-a8b99ee1884b" x1="156.41" y1="285.274" x2="232.43" y2="241.402"/>
  <line class="uuid-17b3c1a9-77eb-4dcb-984d-a8b99ee1884b" x1="156.41" y1="310.018" x2="232.43" y2="266.145"/>
  <line class="uuid-17b3c1a9-77eb-4dcb-984d-a8b99ee1884b" x1="156.41" y1="223.784" x2="303.099" y2="139.118"/>
  <path class="uuid-a23013a1-c0d0-409a-ab8f-576ec1886bff" d="M124.311,202.68c2.027-2.954,3.712-4.787,6.792-6.715"/>
  <path class="uuid-a23013a1-c0d0-409a-ab8f-576ec1886bff" d="M122.7,191.1c-3.101,1.957-4.717,3.764-6.817,6.718"/>
  <line class="uuid-17b3c1a9-77eb-4dcb-984d-a8b99ee1884b" x1="115.882" y1="197.819" x2="124.311" y2="202.68"/>
  <line class="uuid-04b3a2ac-00e8-4517-9b9b-aca5174bf806" x1="118.546" y1="356.356" x2="113.979" y2="358.972"/>
  <line class="uuid-04b3a2ac-00e8-4517-9b9b-aca5174bf806" x1="118.546" y1="343.313" x2="113.979" y2="345.928"/>
  <line class="uuid-04b3a2ac-00e8-4517-9b9b-aca5174bf806" x1="118.546" y1="330.269" x2="113.979" y2="332.882"/>
  <line class="uuid-04b3a2ac-00e8-4517-9b9b-aca5174bf806" x1="118.546" y1="317.248" x2="113.979" y2="319.864"/>
  <line class="uuid-04b3a2ac-00e8-4517-9b9b-aca5174bf806" x1="118.546" y1="304.204" x2="113.979" y2="306.817"/>
  <line class="uuid-04b3a2ac-00e8-4517-9b9b-aca5174bf806" x1="118.546" y1="291.184" x2="113.979" y2="293.799"/>
  <line class="uuid-04b3a2ac-00e8-4517-9b9b-aca5174bf806" x1="118.546" y1="278.14" x2="113.979" y2="280.752"/>
  <line class="uuid-04b3a2ac-00e8-4517-9b9b-aca5174bf806" x1="118.546" y1="265.093" x2="113.979" y2="267.708"/>
  <line class="uuid-04b3a2ac-00e8-4517-9b9b-aca5174bf806" x1="118.546" y1="252.075" x2="113.979" y2="254.688"/>
  <line class="uuid-04b3a2ac-00e8-4517-9b9b-aca5174bf806" x1="118.546" y1="239.005" x2="113.979" y2="241.644"/>
  <line class="uuid-04b3a2ac-00e8-4517-9b9b-aca5174bf806" x1="118.546" y1="225.985" x2="113.979" y2="228.623"/>
  <line class="uuid-04b3a2ac-00e8-4517-9b9b-aca5174bf806" x1="118.62" y1="212.916" x2="113.979" y2="215.579"/>
  <line class="uuid-04b3a2ac-00e8-4517-9b9b-aca5174bf806" x1="117.056" y1="200.799" x2="116.47" y2="201.141"/>
  <line class="uuid-04b3a2ac-00e8-4517-9b9b-aca5174bf806" x1="321.129" y1="78.758" x2="316.536" y2="86.72"/>
  <line class="uuid-04b3a2ac-00e8-4517-9b9b-aca5174bf806" x1="301.535" y1="90.043" x2="296.944" y2="98.005"/>
  <line class="uuid-04b3a2ac-00e8-4517-9b9b-aca5174bf806" x1="281.969" y1="101.354" x2="277.377" y2="109.316"/>
  <line class="uuid-04b3a2ac-00e8-4517-9b9b-aca5174bf806" x1="262.454" y1="112.613" x2="257.861" y2="120.579"/>
  <line class="uuid-04b3a2ac-00e8-4517-9b9b-aca5174bf806" x1="242.886" y1="123.922" x2="238.294" y2="131.863"/>
  <line class="uuid-04b3a2ac-00e8-4517-9b9b-aca5174bf806" x1="223.367" y1="135.211" x2="218.776" y2="143.147"/>
  <line class="uuid-04b3a2ac-00e8-4517-9b9b-aca5174bf806" x1="203.753" y1="146.496" x2="199.161" y2="154.458"/>
  <line class="uuid-04b3a2ac-00e8-4517-9b9b-aca5174bf806" x1="184.234" y1="157.78" x2="179.667" y2="165.72"/>
  <line class="uuid-04b3a2ac-00e8-4517-9b9b-aca5174bf806" x1="164.666" y1="169.068" x2="160.075" y2="177.031"/>
  <line class="uuid-04b3a2ac-00e8-4517-9b9b-aca5174bf806" x1="145.1" y1="180.379" x2="140.508" y2="188.315"/>
  <line class="uuid-04b3a2ac-00e8-4517-9b9b-aca5174bf806" x1="125.581" y1="191.689" x2="121.405" y2="198.893"/>
  <line class="uuid-04b3a2ac-00e8-4517-9b9b-aca5174bf806" x1="290.226" y1="271.131" x2="287.027" y2="265.56"/>
  <line class="uuid-04b3a2ac-00e8-4517-9b9b-aca5174bf806" x1="275.129" y1="244.989" x2="272.616" y2="240.692"/>
  <line class="uuid-04b3a2ac-00e8-4517-9b9b-aca5174bf806" x1="306.886" y1="254.883" x2="304.91" y2="251.487"/>
  <line class="uuid-04b3a2ac-00e8-4517-9b9b-aca5174bf806" x1="289.055" y1="223.984" x2="286.781" y2="220.123"/>
  <line class="uuid-04b3a2ac-00e8-4517-9b9b-aca5174bf806" x1="315.411" y1="224.495" x2="309.038" y2="213.405"/>
  <line class="uuid-04b3a2ac-00e8-4517-9b9b-aca5174bf806" x1="316.805" y1="273.57" x2="308.354" y2="258.841"/>
  <line class="uuid-04b3a2ac-00e8-4517-9b9b-aca5174bf806" x1="269.022" y1="307.38" x2="257.932" y2="288.18"/>
  <line class="uuid-04b3a2ac-00e8-4517-9b9b-aca5174bf806" x1="279.188" y1="279.847" x2="277.549" y2="276.965"/>
  <line class="uuid-04b3a2ac-00e8-4517-9b9b-aca5174bf806" x1="288.666" y1="261.796" x2="278.845" y2="244.793"/>
  <line class="uuid-04b3a2ac-00e8-4517-9b9b-aca5174bf806" x1="297.996" y1="255.42" x2="284.827" y2="232.556"/>
  <line class="uuid-04b3a2ac-00e8-4517-9b9b-aca5174bf806" x1="304.736" y1="244.43" x2="293.475" y2="224.984"/>
</svg>