<?xml version="1.0" encoding="UTF-8"?>
<svg id="uuid-a326593f-eab3-4cce-85b2-3c922147b7f7" data-name="&amp;lt;Layer&amp;gt;" xmlns="http://www.w3.org/2000/svg" viewBox="0 0 451.11 451.11">
  <defs>
    <style>
      .uuid-2396fcf1-f70c-4e2b-9f99-75658002570f {
        stroke-width: 1.115px;
      }

      .uuid-2396fcf1-f70c-4e2b-9f99-75658002570f, .uuid-e27708ae-3cdb-462f-896e-6a1b208430ca, .uuid-8fa33ded-f0d2-42ba-8725-732a21245175, .uuid-31bcadbb-40ad-4067-8635-50faa5a0b51c, .uuid-8b0a1bc7-a126-4cea-b2be-2205edbf7518 {
        stroke-miterlimit: 10;
      }

      .uuid-2396fcf1-f70c-4e2b-9f99-75658002570f, .uuid-e27708ae-3cdb-462f-896e-6a1b208430ca, .uuid-8fa33ded-f0d2-42ba-8725-732a21245175, .uuid-31bcadbb-40ad-4067-8635-50faa5a0b51c, .uuid-8b0a1bc7-a126-4cea-b2be-2205edbf7518, .uuid-684cff4c-a67e-4e8a-b042-7ad3d22bf910 {
        fill: none;
        stroke: #000;
        stroke-linecap: round;
      }

      .uuid-e27708ae-3cdb-462f-896e-6a1b208430ca {
        stroke-width: 1.129px;
      }

      .uuid-8fa33ded-f0d2-42ba-8725-732a21245175 {
        stroke-width: 1.163px;
      }

      .uuid-31bcadbb-40ad-4067-8635-50faa5a0b51c {
        stroke-width: 1.119px;
      }

      .uuid-8b0a1bc7-a126-4cea-b2be-2205edbf7518 {
        stroke-width: 1.125px;
      }

      .uuid-684cff4c-a67e-4e8a-b042-7ad3d22bf910 {
        fill-rule: evenodd;
        stroke-linejoin: round;
        stroke-width: 4.117px;
      }
    </style>
  </defs>
  <path class="uuid-684cff4c-a67e-4e8a-b042-7ad3d22bf910" d="M211.384,294.864c-6.888-15.802-26.775-33.61-39.013-47.46M172.371,247.404c-11.089,14.265-26.308,24.94-38.449,38.203-10.92,12.239-19.519,23.622-21.3,40.404-.341,9.603-.121,19.544-.121,29.166,0,9.699,1.221,12.263,11.77,18.349,34.104,19.689,77.318,11.138,115.984-6.817M278.682,230.987c-.267.489-.511.88-.732,1.344M172.371,247.379c1.685-2.102,6.498-7.087,7.771-9.357,2.439-4.007,2.613-5.814,3.028-9.919,0-.413.048-.953.121-1.464,0,.121.17.173.291.293.758.88,1.49,1.686,2.322,2.491M266.198,248.575c8.479-8.161,15.418-23.011,22.01-36.544,9.015-18.493,8.551-39.601,8.673-56.599M296.882,155.431l-3.076-10.089c-1.127-4.18-1.174-8.624-1.296-12.851-.099-5.519-.173-10.627-3.006-13.212-4.591-4.181-11.796,2.174-20.277,9.673-5.74,5.08-12.017,10.6-18.804,14.534-6.866,3.933-13.073,5.644-18.887,7.208-5.57,1.49-10.551,2.854-14.68,6.277-6.329,5.375-6.034,9.721-5.935,17.37.073,7.226.463,14.361-3.933,29.751-.585-3.885-1.468-7.819-2.981-11.48-8.013-19.351-27.117-12.558-26.701,5.838.052,1.855.295,3.71.711,5.541,1.148,5.134,4.054,11.116,6.424,15.516.758,1.438-.221,5.298-.927,7.425,16.219,18.346,39.719,30.926,58.428,30.9,8.355-.022,18.176-3.397,24.257-9.257M296.882,155.431c.879-13.338.562-28.777-1.296-41.43-3.54-24.453-14.508-25.385-44.653-41.335-4.813-2.539-11.09-6.792-20.373-7.06-22.768-.707-56.456,25.773-67.667,43.846-14.975,27.411-5.571,102.356,20.226,118.627M249.833,272.538c-107.037-9.648-67.049-43.284-38.449,22.326,10.332,23.769,5.302,49.591,28.871,71.844M240.255,366.708l22.525-11.748M278.636,230.987c1.853,17.735-12.437,26.186-26.117,40.039M252.519,271.026l-2.685,1.512M282.005,254.924c-3.422,7.624-12.532,21.252-20.273,34.153M261.732,289.077l-2.495-4.887M244.262,289.636l-2.784,8.525-32.242-13.922M262.781,354.96c-.415-3.323-.463-3.959-.806-7.061-1.906-15.88-2.495-32.878-4.348-49.833-.122-.758.684-7.208,1.611-13.876M259.237,284.19l-6.719-13.164-2.685,1.512-5.571,17.097M244.262,289.636c1.443,4.817,2.837,9.872,2.738,10.969-1.98,19.887-4.007,39.475-5.986,58.432-.293,2.858-.463,4.665-.758,7.671M257.674,296.697c-2.102,3.422-5.471,4.007-10.968,1.905M186.199,284.139l10.968,25.774-2.906,10.553,30.777,46.315M293.854,244.568l.975,27.238,5.471,6.302-12.091,49.808M338.679,287.804v-32.216M338.679,255.588c.074-25.748-31.709-35.106-53.645-36.985-1.855,3.808-3.786,7.597-5.766,11.237,17.271,30.951,2.517,97.124-16.487,125.121,43.042-24.894,75.898-57.7,75.898-67.156"/>
  <line class="uuid-8fa33ded-f0d2-42ba-8725-732a21245175" x1="131.6" y1="375.701" x2="114.013" y2="345.187"/>
  <line class="uuid-8fa33ded-f0d2-42ba-8725-732a21245175" x1="148.433" y1="382.293" x2="113.843" y2="322.323"/>
  <line class="uuid-8fa33ded-f0d2-42ba-8725-732a21245175" x1="163.088" y1="385.005" x2="117.946" y2="306.907"/>
  <line class="uuid-8fa33ded-f0d2-42ba-8725-732a21245175" x1="176.378" y1="385.516" x2="124.396" y2="295.453"/>
  <line class="uuid-8fa33ded-f0d2-42ba-8725-732a21245175" x1="188.91" y1="384.567" x2="131.822" y2="285.755"/>
  <line class="uuid-2396fcf1-f70c-4e2b-9f99-75658002570f" x1="199.72" y1="380.789" x2="141.266" y2="279.518"/>
  <line class="uuid-e27708ae-3cdb-462f-896e-6a1b208430ca" x1="211.259" y1="378.202" x2="149.165" y2="270.677"/>
  <line class="uuid-8b0a1bc7-a126-4cea-b2be-2205edbf7518" x1="221.991" y1="374.173" x2="157.547" y2="262.541"/>
  <line class="uuid-31bcadbb-40ad-4067-8635-50faa5a0b51c" x1="232.574" y1="369.983" x2="166.15" y2="254.856"/>
  <line class="uuid-8fa33ded-f0d2-42ba-8725-732a21245175" x1="217.318" y1="320.881" x2="182.192" y2="260.054"/>
  <line class="uuid-8fa33ded-f0d2-42ba-8725-732a21245175" x1="179.675" y1="213.912" x2="169.806" y2="208.241"/>
  <line class="uuid-8fa33ded-f0d2-42ba-8725-732a21245175" x1="175.746" y1="198.62" x2="163.603" y2="191.633"/>
  <line class="uuid-8fa33ded-f0d2-42ba-8725-732a21245175" x1="178.652" y1="187.261" x2="159.891" y2="176.463"/>
  <line class="uuid-8fa33ded-f0d2-42ba-8725-732a21245175" x1="208.013" y1="191.216" x2="204.764" y2="189.311"/>
  <line class="uuid-8fa33ded-f0d2-42ba-8725-732a21245175" x1="188.399" y1="179.881" x2="157.617" y2="162.098"/>
  <line class="uuid-8fa33ded-f0d2-42ba-8725-732a21245175" x1="210.748" y1="179.737" x2="156.101" y2="148.198"/>
  <line class="uuid-8fa33ded-f0d2-42ba-8725-732a21245175" x1="210.993" y1="166.837" x2="156.517" y2="135.375"/>
  <line class="uuid-8fa33ded-f0d2-42ba-8725-732a21245175" x1="216.781" y1="157.142" x2="158.08" y2="123.259"/>
  <line class="uuid-8fa33ded-f0d2-42ba-8725-732a21245175" x1="228.997" y1="151.156" x2="161.16" y2="111.997"/>
  <line class="uuid-8fa33ded-f0d2-42ba-8725-732a21245175" x1="244.141" y1="146.88" x2="167.095" y2="102.371"/>
  <line class="uuid-8fa33ded-f0d2-42ba-8725-732a21245175" x1="256.036" y1="140.725" x2="174.862" y2="93.845"/>
  <line class="uuid-8fa33ded-f0d2-42ba-8725-732a21245175" x1="265.687" y1="133.249" x2="183.803" y2="85.957"/>
  <line class="uuid-8fa33ded-f0d2-42ba-8725-732a21245175" x1="295.37" y1="137.328" x2="294.78" y2="136.987"/>
  <line class="uuid-8fa33ded-f0d2-42ba-8725-732a21245175" x1="274.629" y1="125.381" x2="193.844" y2="78.727"/>
  <line class="uuid-8fa33ded-f0d2-42ba-8725-732a21245175" x1="294.732" y1="123.943" x2="293.902" y2="123.454"/>
  <line class="uuid-8fa33ded-f0d2-42ba-8725-732a21245175" x1="284.839" y1="118.226" x2="205.181" y2="72.252"/>
  <line class="uuid-8fa33ded-f0d2-42ba-8725-732a21245175" x1="295.37" y1="111.238" x2="219.051" y2="67.222"/>
  <line class="uuid-8fa33ded-f0d2-42ba-8725-732a21245175" x1="268.889" y1="348.926" x2="268.889" y2="348.9"/>
  <line class="uuid-8fa33ded-f0d2-42ba-8725-732a21245175" x1="278.51" y1="343.086" x2="274.629" y2="336.273"/>
  <line class="uuid-8fa33ded-f0d2-42ba-8725-732a21245175" x1="288.04" y1="336.931" x2="279.515" y2="322.224"/>
  <line class="uuid-8fa33ded-f0d2-42ba-8725-732a21245175" x1="297.345" y1="330.459" x2="283.643" y2="306.764"/>
  <line class="uuid-8fa33ded-f0d2-42ba-8725-732a21245175" x1="306.458" y1="323.667" x2="286.766" y2="289.589"/>
  <line class="uuid-8fa33ded-f0d2-42ba-8725-732a21245175" x1="315.327" y1="316.533" x2="288.331" y2="269.731"/>
  <line class="uuid-8fa33ded-f0d2-42ba-8725-732a21245175" x1="324.094" y1="309.155" x2="285.67" y2="242.518"/>
  <line class="uuid-8fa33ded-f0d2-42ba-8725-732a21245175" x1="332.351" y1="300.85" x2="284.669" y2="218.208"/>
  <line class="uuid-8fa33ded-f0d2-42ba-8725-732a21245175" x1="337.921" y1="287.951" x2="299.325" y2="221.019"/>
  <line class="uuid-8fa33ded-f0d2-42ba-8725-732a21245175" x1="337.409" y1="264.402" x2="316.153" y2="227.565"/>
  <line class="uuid-8fa33ded-f0d2-42ba-8725-732a21245175" x1="271.38" y1="334.709" x2="262.023" y2="329.31"/>
  <line class="uuid-8fa33ded-f0d2-42ba-8725-732a21245175" x1="278.929" y1="313.015" x2="259.532" y2="301.804"/>
  <line class="uuid-8fa33ded-f0d2-42ba-8725-732a21245175" x1="283.569" y1="289.614" x2="268.521" y2="280.916"/>
  <line class="uuid-8fa33ded-f0d2-42ba-8725-732a21245175" x1="265.735" y1="279.331" x2="255.988" y2="273.66"/>
  <line class="uuid-8fa33ded-f0d2-42ba-8725-732a21245175" x1="284.913" y1="264.282" x2="280.615" y2="261.839"/>
  <line class="uuid-8fa33ded-f0d2-42ba-8725-732a21245175" x1="277.413" y1="259.984" x2="270.695" y2="256.073"/>
  <line class="uuid-8fa33ded-f0d2-42ba-8725-732a21245175" x1="253.667" y1="357.768" x2="243.504" y2="351.932"/>
  <line class="uuid-8fa33ded-f0d2-42ba-8725-732a21245175" x1="260.533" y1="348.705" x2="244.605" y2="339.522"/>
  <line class="uuid-8fa33ded-f0d2-42ba-8725-732a21245175" x1="259.068" y1="334.805" x2="245.948" y2="327.258"/>
  <line class="uuid-8fa33ded-f0d2-42ba-8725-732a21245175" x1="257.921" y1="321.15" x2="247.268" y2="315.021"/>
  <line class="uuid-8fa33ded-f0d2-42ba-8725-732a21245175" x1="256.746" y1="307.422" x2="248.612" y2="302.731"/>
  <line class="uuid-8fa33ded-f0d2-42ba-8725-732a21245175" x1="256.626" y1="291.104" x2="247.39" y2="285.781"/>
  <line class="uuid-8fa33ded-f0d2-42ba-8725-732a21245175" x1="252.739" y1="275.835" x2="251.223" y2="274.955"/>
  <line class="uuid-8fa33ded-f0d2-42ba-8725-732a21245175" x1="245.583" y1="280.721" x2="231.709" y2="272.707"/>
  <line class="uuid-8fa33ded-f0d2-42ba-8725-732a21245175" x1="239.918" y1="354.375" x2="228.581" y2="347.851"/>
  <line class="uuid-8fa33ded-f0d2-42ba-8725-732a21245175" x1="242.798" y1="330.018" x2="219.103" y2="316.337"/>
  <line class="uuid-8fa33ded-f0d2-42ba-8725-732a21245175" x1="245.315" y1="305.395" x2="221.546" y2="291.667"/>
</svg>