<?xml version="1.0" encoding="UTF-8"?>
<svg id="uuid-b40f22a7-563c-411c-a644-87ebc9f9a19e" data-name="&amp;lt;Layer&amp;gt;" xmlns="http://www.w3.org/2000/svg" viewBox="0 0 451.11 451.11">
  <defs>
    <style>
      .uuid-b78cc67d-41ff-4eb0-8ace-7db1c8c96882, .uuid-b723edd1-fb2a-4747-a470-9c25384f3d94, .uuid-13038bb5-4712-4e37-b0f7-baf68516b511, .uuid-90d13eb6-1a44-4bc5-bae3-5d1de67126ff {
        fill: none;
        stroke: #000;
        stroke-linecap: round;
      }

      .uuid-b78cc67d-41ff-4eb0-8ace-7db1c8c96882, .uuid-13038bb5-4712-4e37-b0f7-baf68516b511, .uuid-90d13eb6-1a44-4bc5-bae3-5d1de67126ff {
        stroke-linejoin: round;
      }

      .uuid-b78cc67d-41ff-4eb0-8ace-7db1c8c96882, .uuid-90d13eb6-1a44-4bc5-bae3-5d1de67126ff {
        stroke-width: 4.117px;
      }

      .uuid-b723edd1-fb2a-4747-a470-9c25384f3d94 {
        stroke-miterlimit: 10;
        stroke-width: 1.163px;
      }

      .uuid-13038bb5-4712-4e37-b0f7-baf68516b511 {
        stroke-width: 4.113px;
      }

      .uuid-13038bb5-4712-4e37-b0f7-baf68516b511, .uuid-90d13eb6-1a44-4bc5-bae3-5d1de67126ff {
        fill-rule: evenodd;
      }
    </style>
  </defs>
  <line class="uuid-b78cc67d-41ff-4eb0-8ace-7db1c8c96882" x1="241.958" y1="365.919" x2="239.588" y2="370.536"/>
  <line class="uuid-b78cc67d-41ff-4eb0-8ace-7db1c8c96882" x1="326.58" y1="222.479" x2="375.287" y2="222.479"/>
  <line class="uuid-b78cc67d-41ff-4eb0-8ace-7db1c8c96882" x1="299.804" y1="148.608" x2="334.636" y2="113.82"/>
  <line class="uuid-b78cc67d-41ff-4eb0-8ace-7db1c8c96882" x1="124.607" y1="222.479" x2="75.823" y2="222.479"/>
  <line class="uuid-b78cc67d-41ff-4eb0-8ace-7db1c8c96882" x1="151.352" y1="148.608" x2="116.52" y2="113.82"/>
  <line class="uuid-b78cc67d-41ff-4eb0-8ace-7db1c8c96882" x1="225.517" y1="123.96" x2="225.517" y2="74.296"/>
  <line class="uuid-b78cc67d-41ff-4eb0-8ace-7db1c8c96882" x1="245.963" y1="210.827" x2="244.864" y2="217.74"/>
  <path class="uuid-90d13eb6-1a44-4bc5-bae3-5d1de67126ff" d="M238.292,214.881c.463-2.98,2.639-6.303,4.717-7.429,2.149-1.123,3.492.394,2.954,3.374"/>
  <line class="uuid-b78cc67d-41ff-4eb0-8ace-7db1c8c96882" x1="237.145" y1="221.769" x2="238.292" y2="214.881"/>
  <path class="uuid-90d13eb6-1a44-4bc5-bae3-5d1de67126ff" d="M244.864,217.74c-.511,2.98-2.613,6.299-4.761,7.426-2.102,1.099-3.422-.417-2.958-3.397"/>
  <line class="uuid-b78cc67d-41ff-4eb0-8ace-7db1c8c96882" x1="237.145" y1="221.769" x2="236.802" y2="223.87"/>
  <line class="uuid-b78cc67d-41ff-4eb0-8ace-7db1c8c96882" x1="238.661" y1="212.706" x2="238.292" y2="214.881"/>
  <path class="uuid-90d13eb6-1a44-4bc5-bae3-5d1de67126ff" d="M230.942,216.787c.511-2.984,2.612-6.303,4.739-7.425,2.1-1.127,3.444.389,2.98,3.344"/>
  <line class="uuid-b78cc67d-41ff-4eb0-8ace-7db1c8c96882" x1="229.135" y1="227.925" x2="230.942" y2="216.787"/>
  <path class="uuid-90d13eb6-1a44-4bc5-bae3-5d1de67126ff" d="M236.802,223.87c-.463,2.98-2.565,6.328-4.713,7.425-2.079,1.127-3.422-.389-2.954-3.37"/>
  <line class="uuid-b78cc67d-41ff-4eb0-8ace-7db1c8c96882" x1="229.135" y1="227.925" x2="228.597" y2="231.03"/>
  <path class="uuid-90d13eb6-1a44-4bc5-bae3-5d1de67126ff" d="M223.439,219.693c.515-2.98,2.615-6.279,4.765-7.425,2.078-1.099,3.422.391,2.958,3.367"/>
  <line class="uuid-b78cc67d-41ff-4eb0-8ace-7db1c8c96882" x1="220.952" y1="235.081" x2="223.439" y2="219.693"/>
  <path class="uuid-90d13eb6-1a44-4bc5-bae3-5d1de67126ff" d="M228.597,231.03c-.463,2.954-2.591,6.299-4.691,7.425-2.149,1.101-3.444-.415-2.954-3.373"/>
  <line class="uuid-b78cc67d-41ff-4eb0-8ace-7db1c8c96882" x1="223.026" y1="222.38" x2="221.169" y2="233.543"/>
  <path class="uuid-90d13eb6-1a44-4bc5-bae3-5d1de67126ff" d="M215.307,226.435c.537-2.981,2.613-6.303,4.765-7.426,2.101-1.121,3.418.417,2.954,3.371"/>
  <line class="uuid-b78cc67d-41ff-4eb0-8ace-7db1c8c96882" x1="213.5" y1="237.576" x2="215.307" y2="226.435"/>
  <path class="uuid-90d13eb6-1a44-4bc5-bae3-5d1de67126ff" d="M221.169,233.543c-.463,2.98-2.613,6.303-4.691,7.403-2.175,1.123-3.441-.389-2.978-3.37"/>
  <line class="uuid-b78cc67d-41ff-4eb0-8ace-7db1c8c96882" x1="214.844" y1="229.245" x2="213.743" y2="236.182"/>
  <path class="uuid-90d13eb6-1a44-4bc5-bae3-5d1de67126ff" d="M207.173,233.3c.463-2.98,2.612-6.277,4.713-7.429,2.152-1.096,3.47.394,2.958,3.374"/>
  <line class="uuid-b78cc67d-41ff-4eb0-8ace-7db1c8c96882" x1="206.072" y1="240.213" x2="207.173" y2="233.3"/>
  <path class="uuid-90d13eb6-1a44-4bc5-bae3-5d1de67126ff" d="M213.743,236.182c-.463,2.954-2.615,6.28-4.713,7.403-2.152,1.121-3.496-.391-2.958-3.371"/>
  <path class="uuid-90d13eb6-1a44-4bc5-bae3-5d1de67126ff" d="M244.401,219.157c-.122.389-.243.754-.343,1.147-5.814,21.274-11.553,48.491-12.554,69.057-.051.928-.099,1.807-.099,2.661-.074,1.125-.074,2.174-.074,3.201"/>
  <path class="uuid-90d13eb6-1a44-4bc5-bae3-5d1de67126ff" d="M206.072,239.824c0,.048.048.048.048.121.541,1.269,1.053,2.613,1.516,3.956,5.35,14.095,8.842,30.366,10.162,45.535.343,3.371.537,6.668.537,9.917.1,1.173.1,2.27.1,3.37"/>
  <path class="uuid-90d13eb6-1a44-4bc5-bae3-5d1de67126ff" d="M230.621,292.221c.247-.125.489-.199.784-.199.437-.048.979,0,1.39.199"/>
  <polyline class="uuid-90d13eb6-1a44-4bc5-bae3-5d1de67126ff" points="211.47 303.312 218.335 299.353 230.621 292.221"/>
  <line class="uuid-b78cc67d-41ff-4eb0-8ace-7db1c8c96882" x1="218.678" y1="307.487" x2="237.829" y2="296.397"/>
  <path class="uuid-90d13eb6-1a44-4bc5-bae3-5d1de67126ff" d="M216.529,307.487c.048.052.122.052.218.099"/>
  <polyline class="uuid-90d13eb6-1a44-4bc5-bae3-5d1de67126ff" points="211.47 304.533 215.013 306.607 216.408 307.413 216.529 307.487"/>
  <path class="uuid-13038bb5-4712-4e37-b0f7-baf68516b511" d="M193.176,322.338c8.646,7.656,22.099,10.39,33.187,10.118,11.13-.273,33.527-4.953,36.091-19.644"/>
  <path class="uuid-90d13eb6-1a44-4bc5-bae3-5d1de67126ff" d="M187.437,311.763c0,.121.048.317.048.415.676,4.25,2.597,7.242,5.692,10.159"/>
  <polyline class="uuid-90d13eb6-1a44-4bc5-bae3-5d1de67126ff" points="187.557 325.88 187.437 324.857 187.437 311.763"/>
  <path class="uuid-90d13eb6-1a44-4bc5-bae3-5d1de67126ff" d="M262.576,324.857c-.122,1.733-.684,3.54-1.564,5.152,0,0,.048.074,0,.074-.341.684-.758,1.32-1.147,1.906-.71.927-1.468,1.857-2.274,2.664-.758.828-1.586,1.516-2.443,2.222-5.593,4.224-13.14,6.668-19.467,7.767-12.285,2.101-27.872.589-38.597-6.251-.758-.489-1.516-1.001-2.222-1.589-.879-.685-1.685-1.392-2.443-2.149-1.394-1.39-2.539-2.906-3.421-4.569-.585-1.108-1.064-2.29-1.325-3.555-.044-.213-.084-.43-.114-.648"/>
  <line class="uuid-b78cc67d-41ff-4eb0-8ace-7db1c8c96882" x1="262.576" y1="311.763" x2="262.576" y2="324.857"/>
  <polyline class="uuid-90d13eb6-1a44-4bc5-bae3-5d1de67126ff" points="238.292 295.859 238.292 307.241 238.244 307.319 238.244 307.413 238.123 307.539 238.071 307.66 237.951 307.708 237.829 307.782 224.418 315.501 218.678 318.798 218.556 318.871 218.435 318.919 218.335 318.971 218.215 319.041 218.041 319.041 217.92 319.091 217.335 319.091 217.166 319.041 217.04 319.041 216.871 318.971 216.747 318.919 216.651 318.871 216.408 318.75 215.013 317.944 211.47 315.916 211.348 315.842 211.252 315.792 211.18 315.67 211.08 315.549 211.08 315.427"/>
  <path class="uuid-90d13eb6-1a44-4bc5-bae3-5d1de67126ff" d="M217.798,289.436c4.544-.489,9.185-.537,13.706-.074"/>
  <line class="uuid-b78cc67d-41ff-4eb0-8ace-7db1c8c96882" x1="211.08" y1="315.549" x2="211.006" y2="303.996"/>
  <path class="uuid-90d13eb6-1a44-4bc5-bae3-5d1de67126ff" d="M189.169,341.051c-1.733-3.614-1.733-7.378-.173-10.968"/>
  <path class="uuid-90d13eb6-1a44-4bc5-bae3-5d1de67126ff" d="M261.012,330.083c1.638,3.59,1.564,7.428-.173,11.015-1.634,3.496-4.761,6.792-9.526,9.53-14.512,8.353-38.085,8.353-52.568,0-4.764-2.737-7.94-6.034-9.577-9.53"/>
  <path class="uuid-90d13eb6-1a44-4bc5-bae3-5d1de67126ff" d="M217.798,289.436c-7.082.578-13.874,2.645-19.393,5.96-7.771,4.541-11.435,10.527-10.968,16.392"/>
  <line class="uuid-b78cc67d-41ff-4eb0-8ace-7db1c8c96882" x1="211.47" y1="303.312" x2="218.335" y2="299.353"/>
  <path class="uuid-90d13eb6-1a44-4bc5-bae3-5d1de67126ff" d="M211.006,303.996c0-.221.122-.515.465-.684"/>
  <polyline class="uuid-90d13eb6-1a44-4bc5-bae3-5d1de67126ff" points="238.292 295.859 238.292 307.241 238.244 307.319 238.244 307.413 238.123 307.539 238.071 307.66 237.951 307.708 237.829 307.782 224.418 315.501 218.678 318.798 218.556 318.871 218.435 318.919 218.335 318.971 218.215 319.041 218.041 319.041 217.92 319.091 217.335 319.091 217.166 319.041 217.04 319.041 216.871 318.971 216.747 318.919 216.651 318.871 216.408 318.75 215.013 317.944 211.47 315.916 211.348 315.842 211.252 315.792 211.18 315.67 211.08 315.549 211.08 315.427 211.006 315.375 211.006 303.996"/>
  <path class="uuid-90d13eb6-1a44-4bc5-bae3-5d1de67126ff" d="M237.829,295.176c.369.173.463.463.463.684"/>
  <line class="uuid-b78cc67d-41ff-4eb0-8ace-7db1c8c96882" x1="232.795" y1="292.221" x2="237.829" y2="295.176"/>
  <path class="uuid-90d13eb6-1a44-4bc5-bae3-5d1de67126ff" d="M262.576,311.789c.463-5.866-3.201-11.852-10.968-16.392-5.692-3.299-12.727-5.276-20.105-6.034"/>
  <path class="uuid-90d13eb6-1a44-4bc5-bae3-5d1de67126ff" d="M257.274,322.065c2.432-.475,4.059-2.451,5.302-3.732,6.863-7.134,6.034-13.926,8.473-22.646,4.132-14.58,9.404-16.365,16.906-29.14,11.848-20.325,23.28-42.92,12.775-76.024-10.747-34.026-43.262-51.05-75.725-51.05s-64.93,17.025-75.728,51.05c-10.505,33.104.927,55.699,12.775,76.024,7.501,12.775,12.777,14.56,16.906,29.14,2.439,8.72,2.148,15.049,8.477,22.646,1.512,1.807,3.54,3.356,5.74,4.004"/>
  <line class="uuid-b78cc67d-41ff-4eb0-8ace-7db1c8c96882" x1="189.169" y1="341.098" x2="189.169" y2="341.051"/>
  <path class="uuid-13038bb5-4712-4e37-b0f7-baf68516b511" d="M260.84,341.098c3.422,7.209.221,15.27-9.526,20.915-2.858,1.633-5.986,2.906-9.356,3.895-6.219,1.851-13.154,2.617-20.229,2.282-4.588-.391-9.273-.832-13.677-2.292-3.37-.979-6.498-2.252-9.305-3.885-9.797-5.645-12.995-13.706-9.577-20.915"/>
  <polyline class="uuid-90d13eb6-1a44-4bc5-bae3-5d1de67126ff" points="241.958 365.897 241.958 365.967 241.91 365.967"/>
  <line class="uuid-b78cc67d-41ff-4eb0-8ace-7db1c8c96882" x1="210.373" y1="370.536" x2="207.979" y2="365.919"/>
  <path class="uuid-90d13eb6-1a44-4bc5-bae3-5d1de67126ff" d="M239.588,370.536c-2.027,3.64-6.398,5.178-10.284,5.91-3.712.588-7.035.489-10.747-.438-3.201-.928-6.498-2.444-8.183-5.472"/>
  <line class="uuid-b723edd1-fb2a-4747-a470-9c25384f3d94" x1="256.542" y1="338.243" x2="250.213" y2="349.137"/>
  <line class="uuid-b723edd1-fb2a-4747-a470-9c25384f3d94" x1="246.964" y1="354.757" x2="241.567" y2="364.134"/>
  <line class="uuid-b723edd1-fb2a-4747-a470-9c25384f3d94" x1="248.113" y1="330.181" x2="241.615" y2="341.44"/>
  <line class="uuid-b723edd1-fb2a-4747-a470-9c25384f3d94" x1="239.124" y1="345.793" x2="234.116" y2="354.44"/>
  <line class="uuid-b723edd1-fb2a-4747-a470-9c25384f3d94" x1="231.842" y1="358.321" x2="227.276" y2="366.361"/>
  <line class="uuid-b723edd1-fb2a-4747-a470-9c25384f3d94" x1="225.006" y1="370.195" x2="222.39" y2="374.764"/>
  <line class="uuid-b723edd1-fb2a-4747-a470-9c25384f3d94" x1="232.674" y1="334.405" x2="227.276" y2="343.714"/>
  <line class="uuid-b723edd1-fb2a-4747-a470-9c25384f3d94" x1="225.176" y1="347.305" x2="220.778" y2="354.977"/>
  <line class="uuid-b723edd1-fb2a-4747-a470-9c25384f3d94" x1="218.799" y1="358.369" x2="214.671" y2="365.577"/>
  <line class="uuid-b723edd1-fb2a-4747-a470-9c25384f3d94" x1="212.644" y1="369.094" x2="212.279" y2="369.658"/>
  <line class="uuid-b723edd1-fb2a-4747-a470-9c25384f3d94" x1="219.362" y1="334.847" x2="214.722" y2="342.882"/>
  <line class="uuid-b723edd1-fb2a-4747-a470-9c25384f3d94" x1="212.816" y1="346.205" x2="208.905" y2="352.898"/>
  <line class="uuid-b723edd1-fb2a-4747-a470-9c25384f3d94" x1="207.073" y1="356.125" x2="203.507" y2="362.328"/>
  <line class="uuid-b723edd1-fb2a-4747-a470-9c25384f3d94" x1="207.514" y1="332.772" x2="203.507" y2="339.685"/>
  <line class="uuid-b723edd1-fb2a-4747-a470-9c25384f3d94" x1="201.65" y1="342.882" x2="198.525" y2="348.331"/>
  <line class="uuid-b723edd1-fb2a-4747-a470-9c25384f3d94" x1="196.668" y1="351.556" x2="194.055" y2="356.099"/>
  <line class="uuid-b723edd1-fb2a-4747-a470-9c25384f3d94" x1="196.963" y1="328.445" x2="194.055" y2="333.552"/>
  <line class="uuid-b723edd1-fb2a-4747-a470-9c25384f3d94" x1="192.076" y1="336.97" x2="190.633" y2="339.413"/>
  <line class="uuid-b723edd1-fb2a-4747-a470-9c25384f3d94" x1="223.026" y1="330.94" x2="188.363" y2="310.931"/>
  <line class="uuid-b723edd1-fb2a-4747-a470-9c25384f3d94" x1="241.667" y1="328.643" x2="223.148" y2="317.944"/>
  <line class="uuid-b723edd1-fb2a-4747-a470-9c25384f3d94" x1="209.493" y1="310.078" x2="193.588" y2="300.89"/>
  <line class="uuid-b723edd1-fb2a-4747-a470-9c25384f3d94" x1="254.147" y1="322.805" x2="234.411" y2="311.42"/>
  <line class="uuid-b723edd1-fb2a-4747-a470-9c25384f3d94" x1="214.208" y1="299.72" x2="204.85" y2="294.319"/>
  <line class="uuid-b723edd1-fb2a-4747-a470-9c25384f3d94" x1="260.938" y1="313.716" x2="239.712" y2="301.431"/>
  <line class="uuid-b723edd1-fb2a-4747-a470-9c25384f3d94" x1="225.348" y1="301.357" x2="222.048" y2="299.473"/>
  <line class="uuid-b723edd1-fb2a-4747-a470-9c25384f3d94" x1="221.294" y1="315.181" x2="221.294" y2="308.123"/>
  <line class="uuid-b723edd1-fb2a-4747-a470-9c25384f3d94" x1="232.552" y1="308.683" x2="232.552" y2="301.601"/>
</svg>