<?xml version="1.0" encoding="UTF-8"?>
<svg id="uuid-6b0dcbd0-18c0-425e-b35a-b15ee2ca45b0" data-name="&amp;lt;Layer&amp;gt;" xmlns="http://www.w3.org/2000/svg" viewBox="0 0 451.11 451.11">
  <defs>
    <style>
      .uuid-cf3a976b-9e93-4e1e-8849-efecaa3c74e8, .uuid-8b8c63ff-7e69-46f7-9fd3-63ce6cfa1881, .uuid-771b4588-0e9b-43e6-9ea8-e4b595f17d05 {
        fill: none;
        stroke: #000;
        stroke-linecap: round;
      }

      .uuid-cf3a976b-9e93-4e1e-8849-efecaa3c74e8, .uuid-771b4588-0e9b-43e6-9ea8-e4b595f17d05 {
        stroke-linejoin: round;
        stroke-width: 4.113px;
      }

      .uuid-8b8c63ff-7e69-46f7-9fd3-63ce6cfa1881 {
        stroke-miterlimit: 10;
        stroke-width: 1.163px;
      }

      .uuid-771b4588-0e9b-43e6-9ea8-e4b595f17d05 {
        fill-rule: evenodd;
      }
    </style>
  </defs>
  <path class="uuid-771b4588-0e9b-43e6-9ea8-e4b595f17d05" d="M97.944,286.788c-19.858-14.975-17.073-45.359-10.747-66.442,5.986-19.787,17.418-39.527,31.54-54.646,1.611-1.663,3.76-3.811,5.445-5.449,15.096-13.654,36.639-27.287,57.505-18.467"/>
  <polyline class="uuid-771b4588-0e9b-43e6-9ea8-e4b595f17d05" points="181.687 141.785 214.492 160.767 214.662 160.837 214.662 160.889"/>
  <path class="uuid-771b4588-0e9b-43e6-9ea8-e4b595f17d05" d="M174.895,302.986c-24.112,13.9-32.467,10.699-42.677,3.664-.417-.221-.828-.511-1.221-.806"/>
  <path class="uuid-771b4588-0e9b-43e6-9ea8-e4b595f17d05" d="M214.662,160.889h.051c1.343.584,2.613,1.221,3.786,1.806"/>
  <path class="uuid-771b4588-0e9b-43e6-9ea8-e4b595f17d05" d="M218.326,163.037c-1.169-.88-2.392-1.512-3.614-2.148h-.051c-10.501-4.935-24.501-3.591-39.767,5.228-32.71,18.856-59.29,64.878-59.29,102.668,0,17.662,5.792,30.441,15.392,37.059.393.295.805.585,1.221.806"/>
  <path class="uuid-771b4588-0e9b-43e6-9ea8-e4b595f17d05" d="M157.16,294.339c-.17-.048-.269-.121-.441-.221-.417-.291-.88-.585-1.295-.879"/>
  <polyline class="uuid-771b4588-0e9b-43e6-9ea8-e4b595f17d05" points="155.424 293.239 149.341 289.746 143.481 286.325"/>
  <path class="uuid-771b4588-0e9b-43e6-9ea8-e4b595f17d05" d="M143.481,286.325c-10.87-8.183-11.922-21.884-10.579-34.494,1.807-12.774,5.692-23.058,11.969-34.317,7.892-13.194,16.954-23.821,30.193-31.831,9.235-5.056,18.567-8.062,28.681-3.764"/>
  <path class="uuid-771b4588-0e9b-43e6-9ea8-e4b595f17d05" d="M204.915,186.901c-1.123,0-2.318.174-3.492.347-4.47.754-9.283,2.517-14.291,5.397-23.574,13.607-42.677,46.754-42.677,73.945,0,4.64.588,8.82,1.637,12.484"/>
  <path class="uuid-771b4588-0e9b-43e6-9ea8-e4b595f17d05" d="M146.092,279.117c1.737,6.329,4.982,11.094,9.331,14.122.415.293.879.588,1.295.879.173.1.271.173.441.221,3.323,1.855,7.204,2.785,11.454,2.664,0,.074.052,0,.052,0"/>
  <path class="uuid-771b4588-0e9b-43e6-9ea8-e4b595f17d05" d="M231.811,124.024c-.585-.585-1.001-.632-1.295.173-6.733,17.801-10.633,44.201-23.059,59.875-.853,1.048-1.733,1.953-2.542,2.828-.585.663-1.221,1.223-1.807,1.737-8.72,7.745-18.298,9.089-31.632,24.748-11.457,14.166-19.129,30.263-21.034,48.491-.417,6.62-.122,13.411,2.1,19.347,1.612,4.176,4.228,7.962,8.235,10.968,2.488,1.438,5.104,3.075,7.837,4.812,0,0,1.388.932,1.564,1.049"/>
  <path class="uuid-771b4588-0e9b-43e6-9ea8-e4b595f17d05" d="M170.254,298.051c1.903,1.343,3.93,2.689,5.983,4.081h.048c20.373,13.874,45.757,33.099,74.044,45.29,20.324,8.768,39.133,12.432,52.251,4.886"/>
  <path class="uuid-771b4588-0e9b-43e6-9ea8-e4b595f17d05" d="M347.528,325.165c1.515-1.221,1.979-2.539,2.395-4.398.585-3.318.343-6.277.291-9.599.052-3.76.393-6.425,3.47-8.768"/>
  <path class="uuid-771b4588-0e9b-43e6-9ea8-e4b595f17d05" d="M360.501,298.298c1.39-1.053,1.902-1.737,2.612-3.373,1.49-4.42.511-8.525.048-13.07-.463-7.009,1.221-6.789,3.764-12.19,2.028-4.761,1.855-11.263,1.001-16.341-1.468-7.234-2.565-8.746-.832-16.59,1.468-5.91,2.175-11.307.637-17.367-3.176-11.383-19.373-21.641-28.508-27.628-27.702-17.903-37.107-16.561-64.563-8.257-.979.343-1.763,1.101-1.763,2.152"/>
  <polyline class="uuid-771b4588-0e9b-43e6-9ea8-e4b595f17d05" points="272.898 185.635 272.898 187.442 272.803 197.479"/>
  <path class="uuid-771b4588-0e9b-43e6-9ea8-e4b595f17d05" d="M272.803,197.479c-3.618-2.686-6.45-11.333-8.014-19.347-2.443-12.19-1.269-15.902,1.221-27.871.979-4.813,1.905-9.331,2.079-11.263.632-6.961,4.076-31.583.754-36.691-5.228-7.547-16.267-8.257-20.325-7.204-1.685.411-3.249,1.39-4.639,2.711"/>
  <path class="uuid-771b4588-0e9b-43e6-9ea8-e4b595f17d05" d="M320.582,203.297c1.859,1.121,2.785,3.053,2.613,5.176-.217,2.126-1.512,3.86-3.54,4.592"/>
  <polyline class="uuid-771b4588-0e9b-43e6-9ea8-e4b595f17d05" points="281.232 204.787 272.803 197.457 272.898 185.635"/>
  <path class="uuid-771b4588-0e9b-43e6-9ea8-e4b595f17d05" d="M231.737,124.024c.295-3.859,4.25-19.909,9.747-26.502,1.638-1.932,5.302,2.954,4.376,5.766"/>
  <path class="uuid-771b4588-0e9b-43e6-9ea8-e4b595f17d05" d="M240.677,118.726c-1.806,5.497-3.47,10.284-7.597,6.815-.88-.784-.463-.537-1.343-1.516"/>
  <line class="uuid-cf3a976b-9e93-4e1e-8849-efecaa3c74e8" x1="130.996" y1="305.844" x2="97.944" y2="286.788"/>
  <line class="uuid-cf3a976b-9e93-4e1e-8849-efecaa3c74e8" x1="302.58" y1="352.307" x2="347.528" y2="325.165"/>
  <line class="uuid-cf3a976b-9e93-4e1e-8849-efecaa3c74e8" x1="353.683" y1="302.401" x2="360.501" y2="298.298"/>
  <path class="uuid-771b4588-0e9b-43e6-9ea8-e4b595f17d05" d="M272.898,185.635c-.341,5.35,2.053,8.595,14.17,8.842"/>
  <line class="uuid-cf3a976b-9e93-4e1e-8849-efecaa3c74e8" x1="287.068" y1="194.477" x2="294.055" y2="193.793"/>
  <path class="uuid-771b4588-0e9b-43e6-9ea8-e4b595f17d05" d="M294.055,193.793c10.379-1.027,13.874,1.854,18.93,4.934"/>
  <line class="uuid-cf3a976b-9e93-4e1e-8849-efecaa3c74e8" x1="312.985" y1="198.727" x2="320.582" y2="203.297"/>
  <line class="uuid-cf3a976b-9e93-4e1e-8849-efecaa3c74e8" x1="319.656" y1="213.066" x2="314.207" y2="215.071"/>
  <path class="uuid-771b4588-0e9b-43e6-9ea8-e4b595f17d05" d="M314.207,215.071c-9.183,3.37-27.993-5.936-32.974-10.284"/>
  <line class="uuid-cf3a976b-9e93-4e1e-8849-efecaa3c74e8" x1="245.859" y1="103.287" x2="240.677" y2="118.726"/>
  <line class="uuid-cf3a976b-9e93-4e1e-8849-efecaa3c74e8" x1="301.358" y1="193.767" x2="301.358" y2="214.508"/>
  <line class="uuid-cf3a976b-9e93-4e1e-8849-efecaa3c74e8" x1="317.287" y1="270.254" x2="365.946" y2="242.162"/>
  <line class="uuid-cf3a976b-9e93-4e1e-8849-efecaa3c74e8" x1="314.207" y1="300.373" x2="366.63" y2="270.106"/>
  <line class="uuid-cf3a976b-9e93-4e1e-8849-efecaa3c74e8" x1="300.674" y1="332.936" x2="353.123" y2="302.695"/>
  <line class="uuid-8b8c63ff-7e69-46f7-9fd3-63ce6cfa1881" x1="111.893" y1="293.507" x2="83.827" y2="244.921"/>
  <line class="uuid-8b8c63ff-7e69-46f7-9fd3-63ce6cfa1881" x1="114.678" y1="275.772" x2="86.318" y2="226.697"/>
  <line class="uuid-8b8c63ff-7e69-46f7-9fd3-63ce6cfa1881" x1="115.705" y1="254.937" x2="90.909" y2="212.039"/>
  <line class="uuid-8b8c63ff-7e69-46f7-9fd3-63ce6cfa1881" x1="119.491" y1="238.935" x2="96.601" y2="199.264"/>
  <line class="uuid-8b8c63ff-7e69-46f7-9fd3-63ce6cfa1881" x1="124.597" y1="225.181" x2="103.004" y2="187.785"/>
  <line class="uuid-8b8c63ff-7e69-46f7-9fd3-63ce6cfa1881" x1="130.58" y1="212.944" x2="110.086" y2="177.427"/>
  <line class="uuid-8b8c63ff-7e69-46f7-9fd3-63ce6cfa1881" x1="137.252" y1="201.928" x2="117.684" y2="168.119"/>
  <line class="uuid-8b8c63ff-7e69-46f7-9fd3-63ce6cfa1881" x1="144.529" y1="191.96" x2="125.941" y2="159.862"/>
  <line class="uuid-8b8c63ff-7e69-46f7-9fd3-63ce6cfa1881" x1="152.347" y1="182.946" x2="134.881" y2="152.705"/>
  <line class="uuid-8b8c63ff-7e69-46f7-9fd3-63ce6cfa1881" x1="160.776" y1="174.958" x2="144.407" y2="146.67"/>
  <line class="uuid-8b8c63ff-7e69-46f7-9fd3-63ce6cfa1881" x1="169.765" y1="168.045" x2="154.864" y2="142.176"/>
  <line class="uuid-8b8c63ff-7e69-46f7-9fd3-63ce6cfa1881" x1="179.534" y1="162.305" x2="166.807" y2="140.247"/>
  <line class="uuid-8b8c63ff-7e69-46f7-9fd3-63ce6cfa1881" x1="190.113" y1="158.055" x2="182.025" y2="144.007"/>
  <line class="uuid-8b8c63ff-7e69-46f7-9fd3-63ce6cfa1881" x1="202.007" y1="156.05" x2="201.839" y2="155.785"/>
  <line class="uuid-8b8c63ff-7e69-46f7-9fd3-63ce6cfa1881" x1="282.329" y1="203.076" x2="277.663" y2="195.088"/>
  <line class="uuid-8b8c63ff-7e69-46f7-9fd3-63ce6cfa1881" x1="299.625" y1="210.549" x2="291.027" y2="195.625"/>
  <line class="uuid-8b8c63ff-7e69-46f7-9fd3-63ce6cfa1881" x1="315.528" y1="213.018" x2="306.171" y2="196.795"/>
  <line class="uuid-8b8c63ff-7e69-46f7-9fd3-63ce6cfa1881" x1="142.723" y1="268.175" x2="134.539" y2="253.936"/>
  <line class="uuid-8b8c63ff-7e69-46f7-9fd3-63ce6cfa1881" x1="149.808" y1="235.223" x2="143.359" y2="224.107"/>
  <line class="uuid-8b8c63ff-7e69-46f7-9fd3-63ce6cfa1881" x1="162.804" y1="212.675" x2="157.307" y2="203.028"/>
  <line class="uuid-8b8c63ff-7e69-46f7-9fd3-63ce6cfa1881" x1="179.193" y1="195.893" x2="174.652" y2="188.027"/>
  <line class="uuid-8b8c63ff-7e69-46f7-9fd3-63ce6cfa1881" x1="199.396" y1="185.683" x2="197.294" y2="182.041"/>
  <line class="uuid-8b8c63ff-7e69-46f7-9fd3-63ce6cfa1881" x1="148.462" y1="270.522" x2="146.487" y2="267.148"/>
  <line class="uuid-8b8c63ff-7e69-46f7-9fd3-63ce6cfa1881" x1="154.96" y1="236.735" x2="153.937" y2="234.88"/>
  <line class="uuid-8b8c63ff-7e69-46f7-9fd3-63ce6cfa1881" x1="168.15" y1="214.386" x2="167.27" y2="212.896"/>
  <line class="uuid-8b8c63ff-7e69-46f7-9fd3-63ce6cfa1881" x1="185.009" y1="198.337" x2="184.13" y2="196.92"/>
  <line class="uuid-8b8c63ff-7e69-46f7-9fd3-63ce6cfa1881" x1="168.738" y1="299.2" x2="164.685" y2="306.187"/>
  <line class="uuid-8b8c63ff-7e69-46f7-9fd3-63ce6cfa1881" x1="157.403" y1="296.146" x2="148.878" y2="311.021"/>
  <line class="uuid-8b8c63ff-7e69-46f7-9fd3-63ce6cfa1881" x1="147.778" y1="290.358" x2="137.42" y2="308.261"/>
  <line class="uuid-8b8c63ff-7e69-46f7-9fd3-63ce6cfa1881" x1="209.68" y1="160.498" x2="199.053" y2="178.965"/>
  <line class="uuid-8b8c63ff-7e69-46f7-9fd3-63ce6cfa1881" x1="138.594" y1="283.639" x2="128.211" y2="301.691"/>
  <line class="uuid-8b8c63ff-7e69-46f7-9fd3-63ce6cfa1881" x1="197.074" y1="159.74" x2="185.69" y2="179.476"/>
  <line class="uuid-8b8c63ff-7e69-46f7-9fd3-63ce6cfa1881" x1="132.391" y1="271.813" x2="121.224" y2="291.138"/>
  <line class="uuid-8b8c63ff-7e69-46f7-9fd3-63ce6cfa1881" x1="181.345" y1="164.501" x2="167.15" y2="189.028"/>
  <line class="uuid-8b8c63ff-7e69-46f7-9fd3-63ce6cfa1881" x1="131.338" y1="251.076" x2="117.464" y2="275.088"/>
  <line class="uuid-8b8c63ff-7e69-46f7-9fd3-63ce6cfa1881" x1="160.309" y1="178.255" x2="118.858" y2="250.098"/>
</svg>