<?xml version="1.0" encoding="UTF-8"?>
<svg id="uuid-237fd94c-b07e-4ec2-a614-f669e32a811f" data-name="&amp;lt;Layer&amp;gt;" xmlns="http://www.w3.org/2000/svg" viewBox="0 0 451.11 451.11">
  <defs>
    <style>
      .uuid-fb0af473-5f87-48e8-a08f-f6d7b37d800a, .uuid-c3452a18-0026-4b1a-9a74-d96a0e853d52, .uuid-aa5d1ea5-a55b-47aa-ab4b-265f72c5109b, .uuid-43ba65f2-436a-4d0b-a200-747d062acabe, .uuid-6a69d7dd-996a-4cf9-8453-0ec1a385900c {
        fill: none;
        stroke: #000;
        stroke-linecap: round;
      }

      .uuid-fb0af473-5f87-48e8-a08f-f6d7b37d800a, .uuid-c3452a18-0026-4b1a-9a74-d96a0e853d52, .uuid-43ba65f2-436a-4d0b-a200-747d062acabe, .uuid-6a69d7dd-996a-4cf9-8453-0ec1a385900c {
        stroke-linejoin: round;
      }

      .uuid-fb0af473-5f87-48e8-a08f-f6d7b37d800a, .uuid-6a69d7dd-996a-4cf9-8453-0ec1a385900c {
        stroke-width: 4.117px;
      }

      .uuid-c3452a18-0026-4b1a-9a74-d96a0e853d52, .uuid-43ba65f2-436a-4d0b-a200-747d062acabe {
        stroke-width: 4.113px;
      }

      .uuid-aa5d1ea5-a55b-47aa-ab4b-265f72c5109b {
        stroke-miterlimit: 10;
        stroke-width: 1.163px;
      }

      .uuid-43ba65f2-436a-4d0b-a200-747d062acabe, .uuid-6a69d7dd-996a-4cf9-8453-0ec1a385900c {
        fill-rule: evenodd;
      }
    </style>
  </defs>
  <path class="uuid-6a69d7dd-996a-4cf9-8453-0ec1a385900c" d="M227.073,228.207v.052"/>
  <line class="uuid-fb0af473-5f87-48e8-a08f-f6d7b37d800a" x1="226.778" y1="257.473" x2="226.778" y2="248.532"/>
  <path class="uuid-6a69d7dd-996a-4cf9-8453-0ec1a385900c" d="M226.778,248.679v-.389"/>
  <path class="uuid-6a69d7dd-996a-4cf9-8453-0ec1a385900c" d="M276.368,181.159s.074,0,.074-.074"/>
  <path class="uuid-6a69d7dd-996a-4cf9-8453-0ec1a385900c" d="M291.123,216.533c7.45-4.35,14.997-8.599,24.038-13.507,2.565-1.347,2.517-3.349.074-4.791-3.323-1.928-7.378-4.324-11.505-6.718-1.612-.953-5.744-1.416-8.26.026-6.666,3.859-14.092,7.719-19.905,11.09-2.495,1.442-5.818,1.442-8.234.025-3.323-1.927-6.572-3.833-10.699-6.229-2.444-1.442-2.539-3.564.073-4.812,7.378-3.566,14.927-7.719,22.401-12.043"/>
  <line class="uuid-fb0af473-5f87-48e8-a08f-f6d7b37d800a" x1="226.778" y1="200.019" x2="226.778" y2="248.532"/>
  <path class="uuid-6a69d7dd-996a-4cf9-8453-0ec1a385900c" d="M345.084,264.997c0,18.761,2.661,30.462-19.566,42.14-5.766,2.954-12.021,5.104-18.592,6.572"/>
  <path class="uuid-6a69d7dd-996a-4cf9-8453-0ec1a385900c" d="M345.132,197.992c0,5.519.247,10.405,0,14.802"/>
  <line class="uuid-fb0af473-5f87-48e8-a08f-f6d7b37d800a" x1="345.132" y1="212.794" x2="345.132" y2="212.868"/>
  <path class="uuid-6a69d7dd-996a-4cf9-8453-0ec1a385900c" d="M345.132,212.868c-.415,7.671-2.148,13.996-8.694,19.983-2.737,2.491-6.281,4.86-10.92,7.303-.589.295-1.175.585-1.811.88-5.445,2.663-11.502,4.643-17.757,5.912-6.865,1.464-14,2.102-21.083,1.976-6.741-.121-13.485-.802-19.761-2.196-6.451-1.343-12.484-3.323-17.76-5.934-4.761-2.248-8.894-5.034-12.189-8.186-4.372-4.177-7.205-9.059-8.084-14.556"/>
  <line class="uuid-fb0af473-5f87-48e8-a08f-f6d7b37d800a" x1="227.073" y1="218.049" x2="227.073" y2="217.975"/>
  <path class="uuid-6a69d7dd-996a-4cf9-8453-0ec1a385900c" d="M227.073,217.975c-.173-1.053-.295-2.079-.295-3.201"/>
  <line class="uuid-fb0af473-5f87-48e8-a08f-f6d7b37d800a" x1="226.778" y1="214.774" x2="226.778" y2="200.019"/>
  <line class="uuid-fb0af473-5f87-48e8-a08f-f6d7b37d800a" x1="336.364" y1="299.734" x2="336.364" y2="216.264"/>
  <line class="uuid-fb0af473-5f87-48e8-a08f-f6d7b37d800a" x1="305.951" y1="277.161" x2="305.951" y2="230.75"/>
  <line class="uuid-fb0af473-5f87-48e8-a08f-f6d7b37d800a" x1="285.041" y1="261.211" x2="284.673" y2="232.24"/>
  <line class="uuid-fb0af473-5f87-48e8-a08f-f6d7b37d800a" x1="265.107" y1="257.256" x2="265.107" y2="230.433"/>
  <line class="uuid-fb0af473-5f87-48e8-a08f-f6d7b37d800a" x1="247.346" y1="266.461" x2="247.346" y2="225.156"/>
  <line class="uuid-fb0af473-5f87-48e8-a08f-f6d7b37d800a" x1="235.157" y1="263.849" x2="235.157" y2="216.264"/>
  <line class="uuid-fb0af473-5f87-48e8-a08f-f6d7b37d800a" x1="210.291" y1="349.446" x2="210.291" y2="334.301"/>
  <line class="uuid-fb0af473-5f87-48e8-a08f-f6d7b37d800a" x1="192.53" y1="355.211" x2="192.53" y2="339.062"/>
  <line class="uuid-fb0af473-5f87-48e8-a08f-f6d7b37d800a" x1="171.621" y1="357.192" x2="171.278" y2="340.553"/>
  <line class="uuid-fb0af473-5f87-48e8-a08f-f6d7b37d800a" x1="151.712" y1="355.038" x2="151.712" y2="338.573"/>
  <line class="uuid-fb0af473-5f87-48e8-a08f-f6d7b37d800a" x1="133.926" y1="349.104" x2="133.926" y2="333.323"/>
  <line class="uuid-fb0af473-5f87-48e8-a08f-f6d7b37d800a" x1="121.736" y1="340.236" x2="121.736" y2="324.577"/>
  <line class="uuid-fb0af473-5f87-48e8-a08f-f6d7b37d800a" x1="204.183" y1="330.196" x2="204.183" y2="314.05"/>
  <line class="uuid-fb0af473-5f87-48e8-a08f-f6d7b37d800a" x1="183.295" y1="332.149" x2="183.1" y2="315.371"/>
  <line class="uuid-fb0af473-5f87-48e8-a08f-f6d7b37d800a" x1="163.533" y1="330.026" x2="163.533" y2="313.561"/>
  <line class="uuid-fb0af473-5f87-48e8-a08f-f6d7b37d800a" x1="145.773" y1="324.087" x2="145.773" y2="308.284"/>
  <line class="uuid-fb0af473-5f87-48e8-a08f-f6d7b37d800a" x1="133.757" y1="315.199" x2="133.757" y2="299.392"/>
  <path class="uuid-6a69d7dd-996a-4cf9-8453-0ec1a385900c" d="M237.941,371.014c-16.317-9.404-27.65-12.848-26.649-38.033,1.785-40.988,44.237-87.746,71.402-72.94"/>
  <line class="uuid-fb0af473-5f87-48e8-a08f-f6d7b37d800a" x1="282.693" y1="260.041" x2="297.179" y2="268.441"/>
  <path class="uuid-6a69d7dd-996a-4cf9-8453-0ec1a385900c" d="M297.179,268.441c-24.868-12.996-54.131,21.256-64.341,44.289-7.282,16.806-13.485,46.437,5.103,58.284"/>
  <path class="uuid-6a69d7dd-996a-4cf9-8453-0ec1a385900c" d="M225.729,343.853c0-26.675,18.761-59.116,41.82-72.432,23.232-13.337,41.819-2.465,41.819,24.184s-18.587,59.094-41.819,72.428c-23.059,13.342-41.82,2.469-41.82-24.18Z"/>
  <line class="uuid-fb0af473-5f87-48e8-a08f-f6d7b37d800a" x1="212.098" y1="346.149" x2="225.899" y2="354.063"/>
  <line class="uuid-fb0af473-5f87-48e8-a08f-f6d7b37d800a" x1="211.46" y1="330.832" x2="224.456" y2="338.404"/>
  <line class="uuid-fb0af473-5f87-48e8-a08f-f6d7b37d800a" x1="215.225" y1="312.56" x2="229.221" y2="320.644"/>
  <line class="uuid-fb0af473-5f87-48e8-a08f-f6d7b37d800a" x1="223.945" y1="293.483" x2="238.578" y2="301.714"/>
  <line class="uuid-fb0af473-5f87-48e8-a08f-f6d7b37d800a" x1="235.793" y1="277.333" x2="249.962" y2="285.564"/>
  <line class="uuid-fb0af473-5f87-48e8-a08f-f6d7b37d800a" x1="249.789" y1="264.997" x2="263.421" y2="272.742"/>
  <line class="uuid-fb0af473-5f87-48e8-a08f-f6d7b37d800a" x1="263.591" y1="258.915" x2="277.126" y2="266.634"/>
  <path class="uuid-6a69d7dd-996a-4cf9-8453-0ec1a385900c" d="M254.359,348.957c6.787-4.446,14.364-8.721,21.91-13.018,2.322-1.321,4.643-4.276,4.643-6.915v-13.168c0-1.637-2.321-2.954-4.643-1.807-6.744,3.956-12.849,7.404-18.077,10.87-2.321,1.295-3.833.319-3.833-2.322v-12.995c0-1.807,1.512-5.103,3.833-6.593,6.108-3.786,12.853-7.721,20.399-11.995"/>
  <path class="uuid-6a69d7dd-996a-4cf9-8453-0ec1a385900c" d="M267.255,287.886v63.686"/>
  <line class="uuid-fb0af473-5f87-48e8-a08f-f6d7b37d800a" x1="323.708" y1="308.112" x2="323.708" y2="224.326"/>
  <path class="uuid-6a69d7dd-996a-4cf9-8453-0ec1a385900c" d="M327.666,222.198c-23.063,13.338-60.58,13.338-83.643,0-23.231-13.337-23.231-35.078,0-48.391,23.063-13.338,60.58-13.338,83.643,0,23.206,13.312,23.206,35.054,0,48.391Z"/>
  <path class="uuid-6a69d7dd-996a-4cf9-8453-0ec1a385900c" d="M257.508,181.527c18.934,10.553,36.885,21.569,55.794,32.613"/>
  <path class="uuid-6a69d7dd-996a-4cf9-8453-0ec1a385900c" d="M345.084,212.82c0,18.93,2.661,30.608-19.566,42.14-10.067,5.272-21.915,8.058-33.932,8.72"/>
  <path class="uuid-6a69d7dd-996a-4cf9-8453-0ec1a385900c" d="M259.024,260.041c-18.298-5.254-32.124-15.954-32.294-30.439"/>
  <line class="uuid-fb0af473-5f87-48e8-a08f-f6d7b37d800a" x1="226.73" y1="229.602" x2="226.73" y2="212.82"/>
  <path class="uuid-6a69d7dd-996a-4cf9-8453-0ec1a385900c" d="M345.084,231.75c0,18.934,2.661,30.608-19.566,42.114-5.597,2.98-11.679,5.108-17.955,6.428"/>
  <path class="uuid-6a69d7dd-996a-4cf9-8453-0ec1a385900c" d="M229.858,259.721c-.174-.489-1.443-2.786-1.616-3.128-1.001-2.611-1.512-5.275-1.512-8.06"/>
  <line class="uuid-fb0af473-5f87-48e8-a08f-f6d7b37d800a" x1="226.73" y1="248.532" x2="226.73" y2="231.75"/>
  <path class="uuid-6a69d7dd-996a-4cf9-8453-0ec1a385900c" d="M345.084,247.046c0,18.93,2.661,30.63-19.566,42.136-4.787,2.638-9.895,4.444-15.171,5.934"/>
  <path class="uuid-6a69d7dd-996a-4cf9-8453-0ec1a385900c" d="M211.56,328.363c-36.349,11.042-85.891-2.782-86.571-30.289"/>
  <line class="uuid-fb0af473-5f87-48e8-a08f-f6d7b37d800a" x1="124.989" y1="298.074" x2="124.989" y2="281.292"/>
  <path class="uuid-6a69d7dd-996a-4cf9-8453-0ec1a385900c" d="M215.862,310.091c-22.868,8.405-53.476,6.915-73.411-4.591-23.206-13.507-23.206-35.08,0-48.418,23.062-13.311,60.584-13.311,83.643,0,7.086,4.129,11.847,8.894,14.632,13.996"/>
  <path class="uuid-6a69d7dd-996a-4cf9-8453-0ec1a385900c" d="M189.378,299.734c7.55-4.276,15.001-8.573,24.162-13.507,2.513-1.321,2.513-3.301,0-4.765-3.249-1.979-7.376-4.302-11.509-6.767-1.611-.975-5.74-1.464-8.231,0-6.572,3.955-14.117,7.745-19.909,11.211-2.443,1.321-5.766,1.321-8.183,0-3.323-1.976-6.646-3.955-10.747-6.277-2.444-1.464-2.444-3.612,0-4.765,7.425-3.612,14.975-7.741,22.4-12.164"/>
  <path class="uuid-6a69d7dd-996a-4cf9-8453-0ec1a385900c" d="M155.94,264.681c18.93,10.527,36.885,21.547,55.789,32.588"/>
  <path class="uuid-6a69d7dd-996a-4cf9-8453-0ec1a385900c" d="M212.098,348.468c-36.349,18.908-98.251,5.423-98.788-25.355"/>
  <line class="uuid-fb0af473-5f87-48e8-a08f-f6d7b37d800a" x1="113.31" y1="323.113" x2="113.31" y2="306.305"/>
  <path class="uuid-6a69d7dd-996a-4cf9-8453-0ec1a385900c" d="M211.097,332.149c-23.404,11.704-58.41,11.042-80.468-1.634-21.278-12.362-23.059-31.609-5.128-44.951"/>
  <path class="uuid-6a69d7dd-996a-4cf9-8453-0ec1a385900c" d="M345.084,279.972l.048-67.104M345.132,212.794l-.048-14.802"/>
  <line class="uuid-aa5d1ea5-a55b-47aa-ab4b-265f72c5109b" x1="237.941" y1="270.104" x2="235.546" y2="274.255"/>
  <path class="uuid-43ba65f2-436a-4d0b-a200-747d062acabe" d="M101.731,166.813l57.122-32.974M194.002,113.532l57.122-32.974"/>
  <path class="uuid-43ba65f2-436a-4d0b-a200-747d062acabe" d="M251.125,80.558c7.352-4.268,19.301-4.231,26.653.01"/>
  <line class="uuid-c3452a18-0026-4b1a-9a74-d96a0e853d52" x1="277.778" y1="80.568" x2="349.621" y2="122.05"/>
  <path class="uuid-43ba65f2-436a-4d0b-a200-747d062acabe" d="M349.621,122.05c7.334,4.231,7.36,11.108.008,15.38"/>
  <path class="uuid-43ba65f2-436a-4d0b-a200-747d062acabe" d="M349.629,137.43l-46.772,26.976M226.197,208.677l-25.983,14.997"/>
  <path class="uuid-43ba65f2-436a-4d0b-a200-747d062acabe" d="M200.213,223.674c-7.33,4.235-19.303,4.231-26.631,0"/>
  <line class="uuid-c3452a18-0026-4b1a-9a74-d96a0e853d52" x1="173.582" y1="223.674" x2="101.735" y2="182.193"/>
  <path class="uuid-43ba65f2-436a-4d0b-a200-747d062acabe" d="M101.735,182.193c-7.348-4.242-7.356-11.156-.004-15.38"/>
  <path class="uuid-43ba65f2-436a-4d0b-a200-747d062acabe" d="M228.128,173.789c-9.25-.652-18.709-3.249-26.429-7.709-7.701-4.444-12.182-9.897-13.315-15.24"/>
  <path class="uuid-43ba65f2-436a-4d0b-a200-747d062acabe" d="M277.862,161.949c1.079-9.177-6.037-19.728-20.384-28.011-14.404-8.316-32.632-12.396-48.501-11.76"/>
  <path class="uuid-43ba65f2-436a-4d0b-a200-747d062acabe" d="M285.321,163.626c19.273-11.111,36.297-20.946,55.552-32.065,2.457-1.395,2.273-3.849-.413-5.398-23.176-13.381-46.375-26.775-69.569-40.168-2.687-1.549-6.866-1.615-9.323-.225-19.254,11.124-38.553,22.271-57.826,33.383"/>
  <path class="uuid-43ba65f2-436a-4d0b-a200-747d062acabe" d="M263.292,153.538c-1.133-5.346-5.615-10.795-13.371-15.274-7.645-4.414-17.123-7.023-26.374-7.675"/>
  <path class="uuid-43ba65f2-436a-4d0b-a200-747d062acabe" d="M173.813,142.43c-1.059,9.187,6.056,19.736,20.402,28.019,11.315,6.534,25.046,10.453,38.148,11.516"/>
  <path class="uuid-43ba65f2-436a-4d0b-a200-747d062acabe" d="M168.629,139.439c-19.253,11.119-38.552,22.267-57.825,33.378-2.443,1.406-2.274,3.849.411,5.398,23.177,13.381,46.372,26.775,69.57,40.164,2.645,1.53,6.863,1.619,9.324.225,11.983-6.921,23.986-13.854,35.988-20.781"/>
  <path class="uuid-43ba65f2-436a-4d0b-a200-747d062acabe" d="M297.334,119.158c4.135-2.373,4.202-6.211.17-8.539-4.037-2.33-10.679-2.288-14.796.099-4.124,2.355-4.19,6.193-.135,8.533,4.032,2.329,10.655,2.277,14.761-.092Z"/>
  <path class="uuid-43ba65f2-436a-4d0b-a200-747d062acabe" d="M168.563,193.503c-4.124,2.359-10.747,2.41-14.779.081-4.037-2.329-3.97-6.167.135-8.536,4.139-2.377,10.759-2.425,14.814-.084,4.032,2.329,3.951,6.151-.17,8.539Z"/>
  <polyline class="uuid-43ba65f2-436a-4d0b-a200-747d062acabe" points="236.782 178.833 158.854 133.842 165.45 130.023 194.002 113.532 281.255 163.906"/>
  <line class="uuid-c3452a18-0026-4b1a-9a74-d96a0e853d52" x1="165.45" y1="130.023" x2="242.67" y2="174.606"/>
  <line class="uuid-c3452a18-0026-4b1a-9a74-d96a0e853d52" x1="187.406" y1="117.351" x2="269.9" y2="164.977"/>
  <path class="uuid-43ba65f2-436a-4d0b-a200-747d062acabe" d="M355.041,181.453c-.479,3.006-2.936,5.17-5.391,6.638"/>
  <line class="uuid-c3452a18-0026-4b1a-9a74-d96a0e853d52" x1="349.651" y1="188.091" x2="344.25" y2="191.211"/>
  <path class="uuid-43ba65f2-436a-4d0b-a200-747d062acabe" d="M142.064,256.299c-19.706-11.344-41.378-23.92-42.731-25.138-1.837-1.603-3.006-3.514-3.116-5.971"/>
  <line class="uuid-c3452a18-0026-4b1a-9a74-d96a0e853d52" x1="96.216" y1="225.19" x2="96.23" y2="174.499"/>
  <path class="uuid-43ba65f2-436a-4d0b-a200-747d062acabe" d="M96.23,174.499c.283,3.742,2.325,5.81,5.505,7.693"/>
  <path class="uuid-43ba65f2-436a-4d0b-a200-747d062acabe" d="M349.629,137.43c3.161-1.929,5.188-3.989,5.501-7.735"/>
  <line class="uuid-c3452a18-0026-4b1a-9a74-d96a0e853d52" x1="355.13" y1="129.695" x2="355.041" y2="181.453"/>
  <line class="uuid-c3452a18-0026-4b1a-9a74-d96a0e853d52" x1="143.095" y1="256.771" x2="101.738" y2="232.895"/>
  <path class="uuid-43ba65f2-436a-4d0b-a200-747d062acabe" d="M101.738,232.895c-2.91-1.803-5.367-4.085-5.522-7.705"/>
  <path class="uuid-43ba65f2-436a-4d0b-a200-747d062acabe" d="M173.582,223.674c4.352,2.465,9.179,3.253,14.155,3.187"/>
  <line class="uuid-c3452a18-0026-4b1a-9a74-d96a0e853d52" x1="187.737" y1="226.861" x2="187.737" y2="247.215"/>
  <polyline class="uuid-43ba65f2-436a-4d0b-a200-747d062acabe" points="355.174 160.87 355.107 161.375 355.067 161.871"/>
  <path class="uuid-43ba65f2-436a-4d0b-a200-747d062acabe" d="M355.056,166.155c-.478,3.054-2.932,5.166-5.391,6.685"/>
  <line class="uuid-c3452a18-0026-4b1a-9a74-d96a0e853d52" x1="349.665" y1="172.839" x2="337.046" y2="180.137"/>
  <line class="uuid-c3452a18-0026-4b1a-9a74-d96a0e853d52" x1="226.3" y1="244.046" x2="213.933" y2="251.188"/>
  <line class="uuid-c3452a18-0026-4b1a-9a74-d96a0e853d52" x1="157.889" y1="250.055" x2="101.713" y2="217.622"/>
  <path class="uuid-43ba65f2-436a-4d0b-a200-747d062acabe" d="M101.713,217.622c-3.11-1.921-5.162-3.967-5.483-7.687"/>
  <line class="uuid-c3452a18-0026-4b1a-9a74-d96a0e853d52" x1="355.144" y1="140.785" x2="355.111" y2="140.844"/>
  <path class="uuid-43ba65f2-436a-4d0b-a200-747d062acabe" d="M355.114,144.784c-.297,3.676-2.325,5.74-5.467,7.627"/>
  <line class="uuid-c3452a18-0026-4b1a-9a74-d96a0e853d52" x1="349.647" y1="152.411" x2="319.955" y2="169.544"/>
  <line class="uuid-c3452a18-0026-4b1a-9a74-d96a0e853d52" x1="226.726" y1="223.387" x2="200.202" y2="238.711"/>
  <path class="uuid-43ba65f2-436a-4d0b-a200-747d062acabe" d="M200.202,238.711c-.702.409-1.408.692-2.13,1.041-1.994.802-3.716,1.263-5.77,1.656-1.218.184-2.365.339-3.568.409-.327.055-.681.025-.979.025-1.199.074-2.344.004-3.584-.069-3.82-.401-7.16-1.197-10.589-3.08"/>
  <line class="uuid-c3452a18-0026-4b1a-9a74-d96a0e853d52" x1="173.582" y1="238.693" x2="101.753" y2="197.226"/>
  <line class="uuid-c3452a18-0026-4b1a-9a74-d96a0e853d52" x1="183.847" y1="211.535" x2="201.924" y2="201.09"/>
  <line class="uuid-c3452a18-0026-4b1a-9a74-d96a0e853d52" x1="122.741" y1="176.254" x2="140.817" y2="165.808"/>
  <line class="uuid-c3452a18-0026-4b1a-9a74-d96a0e853d52" x1="249.436" y1="103.108" x2="267.512" y2="92.659"/>
  <line class="uuid-c3452a18-0026-4b1a-9a74-d96a0e853d52" x1="310.524" y1="138.379" x2="328.619" y2="127.94"/>
  <line class="uuid-aa5d1ea5-a55b-47aa-ab4b-265f72c5109b" x1="147.315" y1="209.397" x2="105.899" y2="233.299"/>
  <line class="uuid-aa5d1ea5-a55b-47aa-ab4b-265f72c5109b" x1="158.018" y1="214.608" x2="115.746" y2="238.984"/>
  <line class="uuid-aa5d1ea5-a55b-47aa-ab4b-265f72c5109b" x1="167.694" y1="220.436" x2="125.633" y2="244.69"/>
  <line class="uuid-aa5d1ea5-a55b-47aa-ab4b-265f72c5109b" x1="176.857" y1="226.54" x2="135.5" y2="250.386"/>
  <line class="uuid-aa5d1ea5-a55b-47aa-ab4b-265f72c5109b" x1="186.471" y1="232.406" x2="145.383" y2="256.093"/>
  <line class="uuid-aa5d1ea5-a55b-47aa-ab4b-265f72c5109b" x1="202.241" y1="222.401" x2="202.153" y2="248.693"/>
  <line class="uuid-aa5d1ea5-a55b-47aa-ab4b-265f72c5109b" x1="222.013" y1="210.984" x2="221.907" y2="254.886"/>
  <line class="uuid-aa5d1ea5-a55b-47aa-ab4b-265f72c5109b" x1="326.169" y1="150.841" x2="326.102" y2="173.362"/>
  <line class="uuid-aa5d1ea5-a55b-47aa-ab4b-265f72c5109b" x1="345.942" y1="139.424" x2="345.842" y2="188.363"/>
  <line class="uuid-aa5d1ea5-a55b-47aa-ab4b-265f72c5109b" x1="214.11" y1="114.996" x2="217.356" y2="120.622"/>
  <line class="uuid-aa5d1ea5-a55b-47aa-ab4b-265f72c5109b" x1="230.91" y1="104.628" x2="243.35" y2="126.127"/>
  <line class="uuid-aa5d1ea5-a55b-47aa-ab4b-265f72c5109b" x1="247.096" y1="93.141" x2="287.609" y2="163.281"/>
  <line class="uuid-aa5d1ea5-a55b-47aa-ab4b-265f72c5109b" x1="265.632" y1="85.702" x2="280.431" y2="111.324"/>
  <line class="uuid-aa5d1ea5-a55b-47aa-ab4b-265f72c5109b" x1="286.255" y1="121.502" x2="303.964" y2="152.136"/>
  <line class="uuid-aa5d1ea5-a55b-47aa-ab4b-265f72c5109b" x1="298.507" y1="103.104" x2="321.243" y2="142.514"/>
  <line class="uuid-aa5d1ea5-a55b-47aa-ab4b-265f72c5109b" x1="333.296" y1="123.905" x2="337.748" y2="131.63"/>
  <line class="uuid-aa5d1ea5-a55b-47aa-ab4b-265f72c5109b" x1="116.879" y1="170.797" x2="124.576" y2="184.102"/>
  <line class="uuid-aa5d1ea5-a55b-47aa-ab4b-265f72c5109b" x1="133.687" y1="160.459" x2="149.868" y2="188.437"/>
  <line class="uuid-aa5d1ea5-a55b-47aa-ab4b-265f72c5109b" x1="153.894" y1="195.401" x2="158.68" y2="203.695"/>
  <line class="uuid-aa5d1ea5-a55b-47aa-ab4b-265f72c5109b" x1="150.718" y1="150.322" x2="170.466" y2="184.607"/>
  <line class="uuid-aa5d1ea5-a55b-47aa-ab4b-265f72c5109b" x1="172.942" y1="188.871" x2="189.753" y2="217.978"/>
  <line class="uuid-aa5d1ea5-a55b-47aa-ab4b-265f72c5109b" x1="168.314" y1="141.352" x2="172.714" y2="148.953"/>
  <line class="uuid-aa5d1ea5-a55b-47aa-ab4b-265f72c5109b" x1="179.2" y1="160.201" x2="207.241" y2="208.725"/>
  <line class="uuid-aa5d1ea5-a55b-47aa-ab4b-265f72c5109b" x1="213.356" y1="179.798" x2="223.784" y2="197.863"/>
  <line class="uuid-aa5d1ea5-a55b-47aa-ab4b-265f72c5109b" x1="196.748" y1="123.01" x2="176.753" y2="134.548"/>
  <line class="uuid-aa5d1ea5-a55b-47aa-ab4b-265f72c5109b" x1="216.498" y1="134.416" x2="196.523" y2="145.962"/>
  <line class="uuid-aa5d1ea5-a55b-47aa-ab4b-265f72c5109b" x1="236.252" y1="145.819" x2="216.273" y2="157.364"/>
  <line class="uuid-aa5d1ea5-a55b-47aa-ab4b-265f72c5109b" x1="256.004" y1="157.224" x2="236.028" y2="168.77"/>
  <line class="uuid-aa5d1ea5-a55b-47aa-ab4b-265f72c5109b" x1="107.824" y1="186.601" x2="95.936" y2="193.455"/>
  <line class="uuid-aa5d1ea5-a55b-47aa-ab4b-265f72c5109b" x1="118.531" y1="191.807" x2="96.216" y2="204.662"/>
  <line class="uuid-aa5d1ea5-a55b-47aa-ab4b-265f72c5109b" x1="128.208" y1="197.639" x2="96.212" y2="216.08"/>
  <line class="uuid-aa5d1ea5-a55b-47aa-ab4b-265f72c5109b" x1="137.365" y1="203.739" x2="96.014" y2="227.589"/>
  <path class="uuid-43ba65f2-436a-4d0b-a200-747d062acabe" d="M101.753,197.223c-3.109-1.917-5.162-3.967-5.487-7.683"/>
</svg>