<?xml version="1.0" encoding="UTF-8"?>
<svg id="uuid-77921c21-5335-4f5b-88c0-4bd1662e36e4" data-name="&amp;lt;Layer&amp;gt;" xmlns="http://www.w3.org/2000/svg" viewBox="0 0 451.11 451.11">
  <defs>
    <style>
      .uuid-efc07206-3506-4d8c-80f5-df3502039963, .uuid-b05753ca-fedb-4c6a-9301-dba1b8cfbb43, .uuid-743abc9e-bcaa-4b99-bf06-e02b57db9388, .uuid-a47c8f3f-030b-4be9-a71f-ee03308d7258 {
        fill: none;
        stroke: #000;
        stroke-linecap: round;
      }

      .uuid-efc07206-3506-4d8c-80f5-df3502039963, .uuid-a47c8f3f-030b-4be9-a71f-ee03308d7258 {
        stroke-linejoin: round;
        stroke-width: 4.117px;
      }

      .uuid-b05753ca-fedb-4c6a-9301-dba1b8cfbb43 {
        stroke-width: 1.163px;
      }

      .uuid-b05753ca-fedb-4c6a-9301-dba1b8cfbb43, .uuid-743abc9e-bcaa-4b99-bf06-e02b57db9388 {
        stroke-miterlimit: 10;
      }

      .uuid-743abc9e-bcaa-4b99-bf06-e02b57db9388 {
        stroke-width: 1.159px;
      }

      .uuid-a47c8f3f-030b-4be9-a71f-ee03308d7258 {
        fill-rule: evenodd;
      }
    </style>
  </defs>
  <polyline class="uuid-a47c8f3f-030b-4be9-a71f-ee03308d7258" points="254.931 305.016 256.91 306.895 247.97 302.031"/>
  <polyline class="uuid-a47c8f3f-030b-4be9-a71f-ee03308d7258" points="254.931 305.016 250.192 298.271 260.645 292.285"/>
  <polyline class="uuid-a47c8f3f-030b-4be9-a71f-ee03308d7258" points="170.409 349.963 171.972 343.465 186.237 335.208"/>
  <path class="uuid-a47c8f3f-030b-4be9-a71f-ee03308d7258" d="M221.78,353.358c-.169-.1-.291-.221-.391-.393-.363-.417-.658-1.049-.754-1.855"/>
  <path class="uuid-a47c8f3f-030b-4be9-a71f-ee03308d7258" d="M214.649,326.657c0,3.297-.415,20.494.511,22.425.71,1.27,4.596,3.175,6.62,4.276"/>
  <path class="uuid-a47c8f3f-030b-4be9-a71f-ee03308d7258" d="M230.6,128.35c-.928-.247-1.907-.173-2.834.096-.295.073-.537.173-.806.341-.243.122-.464.247-.71.369-.169.096-.265.221-.463.341-.221.17-.463.343-.754.513-.221.243-.467.463-.688.662-.243.217-.465.511-.707.732-.514.585-1.025,1.291-1.39,1.979-.979,1.755-1.612,3.834-1.737,5.814v7.545"/>
  <path class="uuid-a47c8f3f-030b-4be9-a71f-ee03308d7258" d="M220.511,315.442v34.322c0,.467.048.931.125,1.346.096.806.391,1.438.754,1.855.1.173.222.293.391.393"/>
  <path class="uuid-a47c8f3f-030b-4be9-a71f-ee03308d7258" d="M129.347,344.366c.169,3.712.758,6.498,3.933,8.72,1.343.736,4.592,2.591,6.399,3.643"/>
  <path class="uuid-a47c8f3f-030b-4be9-a71f-ee03308d7258" d="M136.356,348.421c0,.758.074,1.564.195,2.274,0,.121.052.169.052.291v.125c0,.048,0,.144.048.217,0,.052,0,.174.073.221.048.247.048.537.17.78.051.221.099.515.221.758.173.563.463,1.101.758,1.564.169.269.341.515.511.758.367.515.831.905,1.295,1.321.173.121.415.293.636.415,2.443,1.438,5.862,1.221,9.574-.931,5.059-2.908,10.114-5.814,15.17-8.72,2.322-1.344,4.57-2.661,6.913-4.007,1.859-1.097,3.76-2.149,5.619-3.297,1.099-.637,2.2-1.221,3.321-1.859,1.785-1.049,3.544-2.05,5.324-3.075"/>
  <path class="uuid-a47c8f3f-030b-4be9-a71f-ee03308d7258" d="M186.237,335.182c9.478-5.398,18.934-10.847,28.412-16.366,1.98-1.099,3.886-2.2,5.862-3.374q.048,0,.125-.048c3.93-2.27,7.889-4.544,11.844-6.861,4.522-2.565,8.993-5.182,13.511-7.793,1.39-.81,2.858-1.616,4.25-2.495,3.495-1.954,6.913-3.93,10.405-5.961,14.169-8.132,28.265-16.318,42.434-24.523,7.426-4.301,13.481-14.806,13.481-23.331v-125.51"/>
  <path class="uuid-a47c8f3f-030b-4be9-a71f-ee03308d7258" d="M277.184,162.451c5.449-9.504,13.948-4.618,8.429,4.886-18.541,32.074-33.273,57.7-51.812,89.774"/>
  <path class="uuid-a47c8f3f-030b-4be9-a71f-ee03308d7258" d="M210.058,243.381c-15.685,27.188-18.47,32.025-34.152,59.19-5.497,9.526-13.996,4.64-8.477-4.886,18.539-32.051,21.593-37.426,40.138-69.5,0,0,21.763,12.58,23.743,13.706"/>
  <polyline class="uuid-a47c8f3f-030b-4be9-a71f-ee03308d7258" points="125.851 201.462 125.851 215.507 129.347 217.464 136.356 221.541"/>
  <polygon class="uuid-a47c8f3f-030b-4be9-a71f-ee03308d7258" points="325.258 99.816 325.258 113.864 316.56 118.92 232.48 167.483 220.511 174.324 220.511 174.372 214.771 177.695 137.578 222.225 137.578 208.181 325.258 99.816"/>
  <line class="uuid-efc07206-3506-4d8c-80f5-df3502039963" x1="260.645" y1="292.285" x2="260.745" y2="292.483"/>
  <path class="uuid-a47c8f3f-030b-4be9-a71f-ee03308d7258" d="M260.745,292.483c9.478,11.626-.563,19.857-5.814,12.532"/>
  <line class="uuid-efc07206-3506-4d8c-80f5-df3502039963" x1="171.141" y1="354.503" x2="165.986" y2="351.305"/>
  <path class="uuid-a47c8f3f-030b-4be9-a71f-ee03308d7258" d="M165.986,351.305c-1.221-1.269-1.221-2.1-1.001-3.837"/>
  <path class="uuid-a47c8f3f-030b-4be9-a71f-ee03308d7258" d="M170.409,349.963c-.317,1.901-.585,3.075.732,4.54"/>
  <line class="uuid-efc07206-3506-4d8c-80f5-df3502039963" x1="186.237" y1="335.208" x2="183.625" y2="346.054"/>
  <path class="uuid-a47c8f3f-030b-4be9-a71f-ee03308d7258" d="M183.625,346.054c-3.006,10.21-15.388,12.628-13.216,3.908"/>
  <line class="uuid-efc07206-3506-4d8c-80f5-df3502039963" x1="220.635" y1="351.11" x2="220.635" y2="315.394"/>
  <line class="uuid-efc07206-3506-4d8c-80f5-df3502039963" x1="214.649" y1="318.816" x2="214.649" y2="326.657"/>
  <line class="uuid-efc07206-3506-4d8c-80f5-df3502039963" x1="221.78" y1="353.358" x2="221.854" y2="353.428"/>
  <path class="uuid-a47c8f3f-030b-4be9-a71f-ee03308d7258" d="M222.368,353.723c3.297,1.49,10.111-4.081,10.111-10.869"/>
  <line class="uuid-efc07206-3506-4d8c-80f5-df3502039963" x1="232.48" y1="342.854" x2="232.48" y2="308.533"/>
  <line class="uuid-efc07206-3506-4d8c-80f5-df3502039963" x1="214.819" y1="150.066" x2="214.819" y2="134.138"/>
  <path class="uuid-a47c8f3f-030b-4be9-a71f-ee03308d7258" d="M214.819,134.138c.809-5.228,6.45-10.579,9.945-9.157"/>
  <line class="uuid-efc07206-3506-4d8c-80f5-df3502039963" x1="224.764" y1="124.98" x2="230.552" y2="128.276"/>
  <line class="uuid-efc07206-3506-4d8c-80f5-df3502039963" x1="232.48" y1="139.829" x2="232.48" y2="132.283"/>
  <path class="uuid-a47c8f3f-030b-4be9-a71f-ee03308d7258" d="M232.48,132.283c0-2.273-.754-3.495-1.879-3.933"/>
  <line class="uuid-efc07206-3506-4d8c-80f5-df3502039963" x1="230.6" y1="128.35" x2="230.552" y2="128.276"/>
  <line class="uuid-efc07206-3506-4d8c-80f5-df3502039963" x1="129.347" y1="217.464" x2="129.347" y2="344.366"/>
  <line class="uuid-efc07206-3506-4d8c-80f5-df3502039963" x1="136.356" y1="348.421" x2="137.578" y2="222.225"/>
  <line class="uuid-efc07206-3506-4d8c-80f5-df3502039963" x1="186.237" y1="335.256" x2="186.237" y2="335.182"/>
  <line class="uuid-efc07206-3506-4d8c-80f5-df3502039963" x1="231.31" y1="241.891" x2="277.184" y2="162.451"/>
  <line class="uuid-efc07206-3506-4d8c-80f5-df3502039963" x1="233.801" y1="257.11" x2="210.058" y2="243.381"/>
  <line class="uuid-efc07206-3506-4d8c-80f5-df3502039963" x1="137.53" y1="208.181" x2="125.851" y2="201.414"/>
  <path class="uuid-a47c8f3f-030b-4be9-a71f-ee03308d7258" d="M125.851,201.414c62.538-36.105,125.147-72.236,187.68-108.365"/>
  <line class="uuid-efc07206-3506-4d8c-80f5-df3502039963" x1="313.532" y1="93.05" x2="325.211" y2="99.816"/>
  <path class="uuid-a47c8f3f-030b-4be9-a71f-ee03308d7258" d="M325.211,99.816c-62.535,36.106-125.099,72.234-187.682,108.365"/>
  <line class="uuid-743abc9e-bcaa-4b99-bf06-e02b57db9388" x1="179.033" y1="293.484" x2="175.564" y2="287.424"/>
  <line class="uuid-743abc9e-bcaa-4b99-bf06-e02b57db9388" x1="192.051" y1="270.911" x2="188.559" y2="264.876"/>
  <line class="uuid-743abc9e-bcaa-4b99-bf06-e02b57db9388" x1="205.123" y1="248.316" x2="201.629" y2="242.282"/>
  <line class="uuid-743abc9e-bcaa-4b99-bf06-e02b57db9388" x1="234.092" y1="253.35" x2="227.376" y2="241.697"/>
  <line class="uuid-743abc9e-bcaa-4b99-bf06-e02b57db9388" x1="246.991" y1="230.604" x2="243.5" y2="224.547"/>
  <line class="uuid-743abc9e-bcaa-4b99-bf06-e02b57db9388" x1="260.061" y1="208.008" x2="256.568" y2="201.952"/>
  <line class="uuid-743abc9e-bcaa-4b99-bf06-e02b57db9388" x1="273.056" y1="185.436" x2="269.589" y2="179.38"/>
  <line class="uuid-743abc9e-bcaa-4b99-bf06-e02b57db9388" x1="285.441" y1="161.693" x2="284.024" y2="159.249"/>
  <line class="uuid-743abc9e-bcaa-4b99-bf06-e02b57db9388" x1="255.078" y1="297.832" x2="253.952" y2="299.787"/>
  <line class="uuid-743abc9e-bcaa-4b99-bf06-e02b57db9388" x1="230.552" y1="343.317" x2="226.154" y2="350.986"/>
  <line class="uuid-743abc9e-bcaa-4b99-bf06-e02b57db9388" x1="230.725" y1="320.502" x2="222.49" y2="334.792"/>
  <line class="uuid-743abc9e-bcaa-4b99-bf06-e02b57db9388" x1="218.535" y1="338.261" x2="216.629" y2="339.384"/>
  <line class="uuid-743abc9e-bcaa-4b99-bf06-e02b57db9388" x1="218.535" y1="325.241" x2="216.676" y2="326.314"/>
  <line class="uuid-743abc9e-bcaa-4b99-bf06-e02b57db9388" x1="177.764" y1="342.29" x2="172.072" y2="352.159"/>
  <line class="uuid-b05753ca-fedb-4c6a-9301-dba1b8cfbb43" x1="134.987" y1="343.516" x2="130.767" y2="336.242"/>
  <line class="uuid-b05753ca-fedb-4c6a-9301-dba1b8cfbb43" x1="136.276" y1="323.154" x2="129.505" y2="311.461"/>
  <line class="uuid-b05753ca-fedb-4c6a-9301-dba1b8cfbb43" x1="135.41" y1="299.091" x2="130.366" y2="290.378"/>
  <line class="uuid-b05753ca-fedb-4c6a-9301-dba1b8cfbb43" x1="136.657" y1="278.674" x2="129.118" y2="265.654"/>
  <line class="uuid-b05753ca-fedb-4c6a-9301-dba1b8cfbb43" x1="136.124" y1="255.152" x2="129.652" y2="243.981"/>
  <line class="uuid-b05753ca-fedb-4c6a-9301-dba1b8cfbb43" x1="135.969" y1="232.341" x2="129.806" y2="221.7"/>
  <line class="uuid-743abc9e-bcaa-4b99-bf06-e02b57db9388" x1="151.405" y1="198.115" x2="147.35" y2="191.08"/>
  <line class="uuid-743abc9e-bcaa-4b99-bf06-e02b57db9388" x1="170.971" y1="186.83" x2="166.916" y2="179.795"/>
  <line class="uuid-743abc9e-bcaa-4b99-bf06-e02b57db9388" x1="190.539" y1="175.545" x2="186.484" y2="168.532"/>
  <line class="uuid-743abc9e-bcaa-4b99-bf06-e02b57db9388" x1="210.058" y1="164.257" x2="206.051" y2="157.223"/>
  <line class="uuid-743abc9e-bcaa-4b99-bf06-e02b57db9388" x1="229.624" y1="152.947" x2="225.566" y2="145.938"/>
  <line class="uuid-743abc9e-bcaa-4b99-bf06-e02b57db9388" x1="249.187" y1="141.662" x2="245.136" y2="134.653"/>
  <line class="uuid-743abc9e-bcaa-4b99-bf06-e02b57db9388" x1="268.707" y1="130.377" x2="264.704" y2="123.368"/>
  <line class="uuid-743abc9e-bcaa-4b99-bf06-e02b57db9388" x1="288.274" y1="119.093" x2="284.219" y2="112.08"/>
  <line class="uuid-743abc9e-bcaa-4b99-bf06-e02b57db9388" x1="307.844" y1="107.804" x2="303.785" y2="100.795"/>
  <line class="uuid-743abc9e-bcaa-4b99-bf06-e02b57db9388" x1="219.241" y1="135.337" x2="216.893" y2="133.969"/>
  <line class="uuid-b05753ca-fedb-4c6a-9301-dba1b8cfbb43" x1="135.969" y1="216.008" x2="129.806" y2="205.367"/>
</svg>