<?xml version="1.0" encoding="UTF-8"?>
<svg id="uuid-3234ddff-9800-4b14-bf35-4d88dd3b1391" data-name="&amp;lt;Layer&amp;gt;" xmlns="http://www.w3.org/2000/svg" viewBox="0 0 451.11 451.11">
  <defs>
    <style>
      .uuid-0732160d-0bd0-41e9-ab3b-850c4f4cdaf7, .uuid-a863308c-4534-48f1-91f7-e5683fc982ae, .uuid-3cc20120-d5b7-441b-9cff-332c27a4b29f, .uuid-af54a15b-3d1e-4517-8093-536a60e5e26d, .uuid-2d31dc72-9d2e-49de-93bc-088bd6eb40b8 {
        fill: none;
        stroke: #000;
        stroke-linecap: round;
      }

      .uuid-0732160d-0bd0-41e9-ab3b-850c4f4cdaf7, .uuid-a863308c-4534-48f1-91f7-e5683fc982ae, .uuid-3cc20120-d5b7-441b-9cff-332c27a4b29f, .uuid-2d31dc72-9d2e-49de-93bc-088bd6eb40b8 {
        stroke-linejoin: round;
      }

      .uuid-0732160d-0bd0-41e9-ab3b-850c4f4cdaf7, .uuid-2d31dc72-9d2e-49de-93bc-088bd6eb40b8 {
        stroke-width: 4.113px;
      }

      .uuid-a863308c-4534-48f1-91f7-e5683fc982ae {
        stroke-width: 3.967px;
      }

      .uuid-3cc20120-d5b7-441b-9cff-332c27a4b29f {
        stroke-width: 3.971px;
      }

      .uuid-af54a15b-3d1e-4517-8093-536a60e5e26d {
        stroke-miterlimit: 10;
        stroke-width: 1.163px;
      }

      .uuid-2d31dc72-9d2e-49de-93bc-088bd6eb40b8 {
        fill-rule: evenodd;
      }
    </style>
  </defs>
  <path class="uuid-2d31dc72-9d2e-49de-93bc-088bd6eb40b8" d="M189.251,239.797c2.443.489,4.882,1.125,7.326,1.879,13.68,4.522,21.009,12.947,20.765,21.473v.243c0,15.053-24.335,22.533-36.885,23.037-8.694.724-19.85-.633-28.095-3.933-6.513-1.953-13.92-7.739-17.098-13.776"/>
  <polyline class="uuid-2d31dc72-9d2e-49de-93bc-088bd6eb40b8" points="146.5 262.343 146.5 267.399 152.119 270.652 152.119 259.142"/>
  <polyline class="uuid-2d31dc72-9d2e-49de-93bc-088bd6eb40b8" points="152.119 259.142 152.119 270.652 189.251 249.105 189.251 239.797 189.251 237.597"/>
  <path class="uuid-2d31dc72-9d2e-49de-93bc-088bd6eb40b8" d="M359.024,252.181c0,.463.247.931.247,1.442.243.074,0,.074,0,.074.732,2.491,1.222,5.567.243,8.646-.732,3.028-2.685,5.402-5.128,7.135-15.392,10.868-51.302-5.398-59.853-17.981-1.707-2.443-2.439-6.108-2.196-9.478v-.243c0-1.395.243-2.785.489-3.886"/>
  <path class="uuid-2d31dc72-9d2e-49de-93bc-088bd6eb40b8" d="M292.825,237.842c.243-.879.489-1.589.732-2.1v.243"/>
  <path class="uuid-2d31dc72-9d2e-49de-93bc-088bd6eb40b8" d="M292.335,240.186c-1.221,13.632,16.367,8.208,23.695,17.734,8.309,10.799,29.314,14.512,39.819,5.938,2.689-2.274,3.911-5.254,3.664-8.746-.243-2.906-1.464-5.913-3.418-8.915-4.644-7.38-12.705-15.781-23.699-20.619-5.372-2.396-10.015-3.834-15.145-3.271-9.035,1.001-23.938,7.914-24.916,17.877Z"/>
  <polygon class="uuid-2d31dc72-9d2e-49de-93bc-088bd6eb40b8" points="124.269 184.687 228.09 124.764 228.09 196.314 124.269 256.214 124.269 184.687"/>
  <polygon class="uuid-2d31dc72-9d2e-49de-93bc-088bd6eb40b8" points="124.269 184.687 228.09 124.764 228.09 114.455 124.269 174.378 124.269 184.687"/>
  <line class="uuid-0732160d-0bd0-41e9-ab3b-850c4f4cdaf7" x1="134.042" y1="269.551" x2="134.042" y2="269.478"/>
  <line class="uuid-0732160d-0bd0-41e9-ab3b-850c4f4cdaf7" x1="99.353" y1="286.186" x2="93.98" y2="283.132"/>
  <path class="uuid-2d31dc72-9d2e-49de-93bc-088bd6eb40b8" d="M93.98,283.132c-2.443-2.053-2.686-3.345-2.932-6.472"/>
  <line class="uuid-0732160d-0bd0-41e9-ab3b-850c4f4cdaf7" x1="91.048" y1="276.66" x2="91.048" y2="179.143"/>
  <path class="uuid-2d31dc72-9d2e-49de-93bc-088bd6eb40b8" d="M91.048,179.143c.489-7.256,3.908-13.095,10.015-17.393"/>
  <line class="uuid-0732160d-0bd0-41e9-ab3b-850c4f4cdaf7" x1="101.063" y1="161.75" x2="240.792" y2="81.187"/>
  <path class="uuid-2d31dc72-9d2e-49de-93bc-088bd6eb40b8" d="M240.792,81.187c2.689-1.321,3.911-1.833,7.086-.685"/>
  <line class="uuid-0732160d-0bd0-41e9-ab3b-850c4f4cdaf7" x1="247.878" y1="80.501" x2="253.007" y2="83.555"/>
  <path class="uuid-2d31dc72-9d2e-49de-93bc-088bd6eb40b8" d="M253.007,83.555c-2.933-1.148-4.155-.636-7.087.684"/>
  <line class="uuid-0732160d-0bd0-41e9-ab3b-850c4f4cdaf7" x1="245.92" y1="84.24" x2="106.44" y2="164.804"/>
  <path class="uuid-2d31dc72-9d2e-49de-93bc-088bd6eb40b8" d="M106.44,164.804c-6.351,4.297-9.53,9.893-10.015,17.392"/>
  <line class="uuid-0732160d-0bd0-41e9-ab3b-850c4f4cdaf7" x1="96.424" y1="182.196" x2="96.178" y2="279.688"/>
  <path class="uuid-2d31dc72-9d2e-49de-93bc-088bd6eb40b8" d="M96.178,279.688c.489,3.153.489,4.444,3.175,6.498"/>
  <path class="uuid-2d31dc72-9d2e-49de-93bc-088bd6eb40b8" d="M245.92,84.24c5.619-3.179,10.262-.588,10.262,5.813"/>
  <line class="uuid-0732160d-0bd0-41e9-ab3b-850c4f4cdaf7" x1="256.182" y1="90.053" x2="255.939" y2="187.546"/>
  <path class="uuid-2d31dc72-9d2e-49de-93bc-088bd6eb40b8" d="M255.939,187.546c0,6.376-4.4,14.191-10.019,17.366"/>
  <line class="uuid-0732160d-0bd0-41e9-ab3b-850c4f4cdaf7" x1="245.92" y1="204.912" x2="106.44" y2="285.502"/>
  <path class="uuid-2d31dc72-9d2e-49de-93bc-088bd6eb40b8" d="M106.44,285.502c-5.619,3.175-10.262.562-10.262-5.814"/>
  <line class="uuid-0732160d-0bd0-41e9-ab3b-850c4f4cdaf7" x1="316.03" y1="291.341" x2="316.03" y2="297.666"/>
  <path class="uuid-2d31dc72-9d2e-49de-93bc-088bd6eb40b8" d="M316.03,297.666c-.485,1.883-1.953,2.98-3.418,3.981"/>
  <line class="uuid-0732160d-0bd0-41e9-ab3b-850c4f4cdaf7" x1="312.613" y1="301.647" x2="195.602" y2="369.167"/>
  <path class="uuid-2d31dc72-9d2e-49de-93bc-088bd6eb40b8" d="M195.602,369.167c-5.13,2.784-12.217,2.762-17.345-.022"/>
  <line class="uuid-0732160d-0bd0-41e9-ab3b-850c4f4cdaf7" x1="178.257" y1="369.145" x2="138.195" y2="345.94"/>
  <path class="uuid-2d31dc72-9d2e-49de-93bc-088bd6eb40b8" d="M138.195,345.94c-1.711-.98-2.932-2.079-3.422-3.985"/>
  <line class="uuid-0732160d-0bd0-41e9-ab3b-850c4f4cdaf7" x1="134.774" y1="341.955" x2="134.774" y2="335.63"/>
  <path class="uuid-2d31dc72-9d2e-49de-93bc-088bd6eb40b8" d="M134.774,335.63c.49,1.905,1.711,2.98,3.422,4.007"/>
  <line class="uuid-0732160d-0bd0-41e9-ab3b-850c4f4cdaf7" x1="138.195" y1="339.637" x2="178.257" y2="362.842"/>
  <path class="uuid-2d31dc72-9d2e-49de-93bc-088bd6eb40b8" d="M178.257,362.842c5.128,2.759,12.216,2.759,17.345,0"/>
  <line class="uuid-0732160d-0bd0-41e9-ab3b-850c4f4cdaf7" x1="195.602" y1="362.842" x2="312.613" y2="295.322"/>
  <path class="uuid-2d31dc72-9d2e-49de-93bc-088bd6eb40b8" d="M312.613,295.322c1.464-1.001,2.932-2.074,3.418-3.981"/>
  <line class="uuid-0732160d-0bd0-41e9-ab3b-850c4f4cdaf7" x1="138.195" y1="329.595" x2="255.204" y2="262.101"/>
  <path class="uuid-2d31dc72-9d2e-49de-93bc-088bd6eb40b8" d="M255.204,262.101c4.643-2.759,12.462-2.759,17.348,0"/>
  <line class="uuid-0732160d-0bd0-41e9-ab3b-850c4f4cdaf7" x1="272.551" y1="262.101" x2="312.613" y2="285.306"/>
  <path class="uuid-2d31dc72-9d2e-49de-93bc-088bd6eb40b8" d="M312.613,285.306c4.639,2.737,4.639,7.282,0,10.015"/>
  <path class="uuid-2d31dc72-9d2e-49de-93bc-088bd6eb40b8" d="M138.195,339.637c-4.643-2.785-4.643-7.282,0-10.041"/>
  <line class="uuid-0732160d-0bd0-41e9-ab3b-850c4f4cdaf7" x1="99.842" y1="171.544" x2="94.47" y2="168.516"/>
  <path class="uuid-2d31dc72-9d2e-49de-93bc-088bd6eb40b8" d="M94.47,168.516c-2.2,3.418-3.175,6.62-3.422,10.627"/>
  <path class="uuid-2d31dc72-9d2e-49de-93bc-088bd6eb40b8" d="M96.424,182.196c.243-4.007.975-7.234,3.418-10.651"/>
  <path class="uuid-2d31dc72-9d2e-49de-93bc-088bd6eb40b8" d="M324.582,238.332c-6.351-5.522-13.19-9.135-21.252-11.283"/>
  <line class="uuid-0732160d-0bd0-41e9-ab3b-850c4f4cdaf7" x1="107.172" y1="172.475" x2="245.188" y2="92.714"/>
  <path class="uuid-2d31dc72-9d2e-49de-93bc-088bd6eb40b8" d="M245.188,92.714c2.69-1.417,4.643-.264,4.643,2.616"/>
  <line class="uuid-0732160d-0bd0-41e9-ab3b-850c4f4cdaf7" x1="249.831" y1="95.33" x2="249.831" y2="189.205"/>
  <path class="uuid-2d31dc72-9d2e-49de-93bc-088bd6eb40b8" d="M249.831,189.205c0,2.886-1.953,6.377-4.643,7.819"/>
  <line class="uuid-0732160d-0bd0-41e9-ab3b-850c4f4cdaf7" x1="245.188" y1="197.024" x2="106.925" y2="276.756"/>
  <path class="uuid-2d31dc72-9d2e-49de-93bc-088bd6eb40b8" d="M106.925,276.756c-2.44,1.442-4.397.269-4.397-2.613"/>
  <line class="uuid-0732160d-0bd0-41e9-ab3b-850c4f4cdaf7" x1="102.528" y1="274.143" x2="102.528" y2="180.268"/>
  <path class="uuid-2d31dc72-9d2e-49de-93bc-088bd6eb40b8" d="M102.528,180.268c0-2.862,1.957-6.38,4.644-7.793"/>
  <path class="uuid-2d31dc72-9d2e-49de-93bc-088bd6eb40b8" d="M319.453,234.326c-.733-3.934-7.33-7.009-10.505-5.545"/>
  <path class="uuid-2d31dc72-9d2e-49de-93bc-088bd6eb40b8" d="M150.654,187.841c.733-.467,1.465-.1,1.465.805"/>
  <path class="uuid-2d31dc72-9d2e-49de-93bc-088bd6eb40b8" d="M152.119,188.645c0,.928-.732,2.027-1.465,2.491"/>
  <path class="uuid-2d31dc72-9d2e-49de-93bc-088bd6eb40b8" d="M150.654,191.136c-.979.465-1.468.074-1.468-.831"/>
  <path class="uuid-2d31dc72-9d2e-49de-93bc-088bd6eb40b8" d="M150.654,203.618c.733-.465,1.465-.07,1.465.831"/>
  <path class="uuid-2d31dc72-9d2e-49de-93bc-088bd6eb40b8" d="M152.119,204.449c0,.906-.732,2.027-1.465,2.469"/>
  <path class="uuid-2d31dc72-9d2e-49de-93bc-088bd6eb40b8" d="M150.654,206.917c-.979.463-1.468.074-1.468-.831"/>
  <path class="uuid-2d31dc72-9d2e-49de-93bc-088bd6eb40b8" d="M150.654,220.376c.733-.441,1.465-.073,1.465.832"/>
  <path class="uuid-2d31dc72-9d2e-49de-93bc-088bd6eb40b8" d="M152.119,221.208c0,.927-.732,2.027-1.465,2.491"/>
  <path class="uuid-2d31dc72-9d2e-49de-93bc-088bd6eb40b8" d="M150.654,223.699c-.979.437-1.468.074-1.468-.832"/>
  <line class="uuid-0732160d-0bd0-41e9-ab3b-850c4f4cdaf7" x1="160.422" y1="199.614" x2="200.973" y2="176.161"/>
  <line class="uuid-0732160d-0bd0-41e9-ab3b-850c4f4cdaf7" x1="160.422" y1="183.808" x2="200.973" y2="160.381"/>
  <line class="uuid-0732160d-0bd0-41e9-ab3b-850c4f4cdaf7" x1="160.422" y1="216.369" x2="193.158" y2="197.413"/>
  <path class="uuid-2d31dc72-9d2e-49de-93bc-088bd6eb40b8" d="M217.342,263.149c0,5.35.244,8.356-2.932,13.07-7.328,11.089-25.159,15.17-37.864,15.338-12.701.174-29.803-3.366-38.351-13.532-2.2-2.392-3.664-5.298-4.154-8.475"/>
  <line class="uuid-af54a15b-3d1e-4517-8093-536a60e5e26d" x1="94.47" y1="276.171" x2="93.248" y2="275.439"/>
  <line class="uuid-af54a15b-3d1e-4517-8093-536a60e5e26d" x1="94.47" y1="263.149" x2="93.248" y2="262.391"/>
  <line class="uuid-af54a15b-3d1e-4517-8093-536a60e5e26d" x1="94.47" y1="250.128" x2="93.248" y2="249.395"/>
  <line class="uuid-af54a15b-3d1e-4517-8093-536a60e5e26d" x1="94.47" y1="237.085" x2="93.248" y2="236.352"/>
  <line class="uuid-af54a15b-3d1e-4517-8093-536a60e5e26d" x1="94.47" y1="224.064" x2="93.248" y2="223.332"/>
  <line class="uuid-af54a15b-3d1e-4517-8093-536a60e5e26d" x1="94.47" y1="211.046" x2="93.248" y2="210.31"/>
  <line class="uuid-af54a15b-3d1e-4517-8093-536a60e5e26d" x1="94.47" y1="197.999" x2="93.248" y2="197.267"/>
  <line class="uuid-af54a15b-3d1e-4517-8093-536a60e5e26d" x1="94.47" y1="184.981" x2="93.248" y2="184.223"/>
  <line class="uuid-af54a15b-3d1e-4517-8093-536a60e5e26d" x1="96.667" y1="173.156" x2="94.956" y2="172.134"/>
  <line class="uuid-af54a15b-3d1e-4517-8093-536a60e5e26d" x1="110.836" y1="280.641" x2="109.125" y2="277.709"/>
  <line class="uuid-af54a15b-3d1e-4517-8093-536a60e5e26d" x1="100.574" y1="262.929" x2="98.378" y2="258.826"/>
  <line class="uuid-af54a15b-3d1e-4517-8093-536a60e5e26d" x1="130.624" y1="269.282" x2="128.913" y2="266.398"/>
  <line class="uuid-af54a15b-3d1e-4517-8093-536a60e5e26d" x1="100.574" y1="217.665" x2="98.378" y2="213.585"/>
  <line class="uuid-af54a15b-3d1e-4517-8093-536a60e5e26d" x1="150.164" y1="258.021" x2="148.453" y2="255.135"/>
  <line class="uuid-af54a15b-3d1e-4517-8093-536a60e5e26d" x1="102.042" y1="174.962" x2="101.063" y2="173.207"/>
  <line class="uuid-af54a15b-3d1e-4517-8093-536a60e5e26d" x1="169.706" y1="246.758" x2="167.999" y2="243.877"/>
  <line class="uuid-af54a15b-3d1e-4517-8093-536a60e5e26d" x1="120.851" y1="162.239" x2="119.383" y2="159.623"/>
  <line class="uuid-af54a15b-3d1e-4517-8093-536a60e5e26d" x1="189.251" y1="235.473" x2="187.54" y2="232.614"/>
  <line class="uuid-af54a15b-3d1e-4517-8093-536a60e5e26d" x1="140.393" y1="151.002" x2="138.927" y2="148.365"/>
  <line class="uuid-af54a15b-3d1e-4517-8093-536a60e5e26d" x1="208.792" y1="224.162" x2="207.082" y2="221.304"/>
  <line class="uuid-af54a15b-3d1e-4517-8093-536a60e5e26d" x1="159.933" y1="139.713" x2="158.469" y2="137.076"/>
  <line class="uuid-af54a15b-3d1e-4517-8093-536a60e5e26d" x1="228.336" y1="212.878" x2="226.625" y2="210.02"/>
  <line class="uuid-af54a15b-3d1e-4517-8093-536a60e5e26d" x1="179.478" y1="128.404" x2="178.014" y2="125.743"/>
  <line class="uuid-af54a15b-3d1e-4517-8093-536a60e5e26d" x1="247.631" y1="201.274" x2="246.167" y2="198.783"/>
  <line class="uuid-af54a15b-3d1e-4517-8093-536a60e5e26d" x1="199.02" y1="117.145" x2="197.555" y2="114.48"/>
  <line class="uuid-af54a15b-3d1e-4517-8093-536a60e5e26d" x1="253.982" y1="167.369" x2="251.786" y2="163.63"/>
  <line class="uuid-af54a15b-3d1e-4517-8093-536a60e5e26d" x1="218.565" y1="105.882" x2="217.097" y2="103.219"/>
  <line class="uuid-af54a15b-3d1e-4517-8093-536a60e5e26d" x1="253.982" y1="122.127" x2="251.786" y2="118.388"/>
  <line class="uuid-af54a15b-3d1e-4517-8093-536a60e5e26d" x1="238.105" y1="94.62" x2="236.641" y2="91.934"/>
  <line class="uuid-af54a15b-3d1e-4517-8093-536a60e5e26d" x1="145.768" y1="170.102" x2="143.082" y2="165.636"/>
  <line class="uuid-af54a15b-3d1e-4517-8093-536a60e5e26d" x1="165.309" y1="158.843" x2="162.624" y2="154.395"/>
  <line class="uuid-af54a15b-3d1e-4517-8093-536a60e5e26d" x1="184.855" y1="147.533" x2="182.164" y2="143.062"/>
  <line class="uuid-af54a15b-3d1e-4517-8093-536a60e5e26d" x1="204.395" y1="136.296" x2="201.705" y2="131.8"/>
  <line class="uuid-af54a15b-3d1e-4517-8093-536a60e5e26d" x1="223.94" y1="124.985" x2="221.497" y2="120.489"/>
  <line class="uuid-af54a15b-3d1e-4517-8093-536a60e5e26d" x1="140.882" y1="345.056" x2="140.882" y2="343.445"/>
  <line class="uuid-af54a15b-3d1e-4517-8093-536a60e5e26d" x1="152.119" y1="351.579" x2="152.119" y2="349.993"/>
  <line class="uuid-af54a15b-3d1e-4517-8093-536a60e5e26d" x1="163.356" y1="358.103" x2="163.356" y2="356.513"/>
  <line class="uuid-af54a15b-3d1e-4517-8093-536a60e5e26d" x1="174.839" y1="364.748" x2="174.839" y2="363.159"/>
  <line class="uuid-af54a15b-3d1e-4517-8093-536a60e5e26d" x1="186.076" y1="369.24" x2="186.076" y2="366.871"/>
  <line class="uuid-af54a15b-3d1e-4517-8093-536a60e5e26d" x1="197.309" y1="365.896" x2="197.309" y2="364.21"/>
  <line class="uuid-af54a15b-3d1e-4517-8093-536a60e5e26d" x1="208.55" y1="359.373" x2="208.55" y2="357.688"/>
  <line class="uuid-af54a15b-3d1e-4517-8093-536a60e5e26d" x1="219.786" y1="352.875" x2="219.786" y2="351.19"/>
  <line class="uuid-af54a15b-3d1e-4517-8093-536a60e5e26d" x1="231.023" y1="346.377" x2="231.023" y2="344.692"/>
  <line class="uuid-af54a15b-3d1e-4517-8093-536a60e5e26d" x1="242.26" y1="339.879" x2="242.26" y2="338.169"/>
  <line class="uuid-af54a15b-3d1e-4517-8093-536a60e5e26d" x1="253.739" y1="333.233" x2="253.739" y2="331.549"/>
  <line class="uuid-af54a15b-3d1e-4517-8093-536a60e5e26d" x1="264.976" y1="326.736" x2="264.976" y2="325.051"/>
  <line class="uuid-af54a15b-3d1e-4517-8093-536a60e5e26d" x1="276.213" y1="320.239" x2="276.213" y2="318.553"/>
  <line class="uuid-af54a15b-3d1e-4517-8093-536a60e5e26d" x1="287.45" y1="313.741" x2="287.45" y2="312.029"/>
  <line class="uuid-af54a15b-3d1e-4517-8093-536a60e5e26d" x1="298.933" y1="307.244" x2="298.933" y2="305.532"/>
  <line class="uuid-af54a15b-3d1e-4517-8093-536a60e5e26d" x1="310.17" y1="300.746" x2="310.17" y2="299.034"/>
  <line class="uuid-af54a15b-3d1e-4517-8093-536a60e5e26d" x1="312.123" y1="252.671" x2="299.665" y2="230.929"/>
  <line class="uuid-af54a15b-3d1e-4517-8093-536a60e5e26d" x1="346.809" y1="267.499" x2="321.164" y2="222.941"/>
  <line class="uuid-af54a15b-3d1e-4517-8093-536a60e5e26d" x1="306.258" y1="260.438" x2="306.258" y2="254.014"/>
  <line class="uuid-af54a15b-3d1e-4517-8093-536a60e5e26d" x1="317.498" y1="266.524" x2="317.498" y2="262.271"/>
  <line class="uuid-af54a15b-3d1e-4517-8093-536a60e5e26d" x1="328.735" y1="270.184" x2="328.735" y2="268.646"/>
  <line class="uuid-af54a15b-3d1e-4517-8093-536a60e5e26d" x1="339.969" y1="271.601" x2="339.969" y2="270.6"/>
  <line class="uuid-af54a15b-3d1e-4517-8093-536a60e5e26d" x1="351.209" y1="269.11" x2="351.209" y2="268.746"/>
  <line class="uuid-af54a15b-3d1e-4517-8093-536a60e5e26d" x1="107.661" y1="161.75" x2="106.44" y2="161.04"/>
  <line class="uuid-af54a15b-3d1e-4517-8093-536a60e5e26d" x1="118.898" y1="155.252" x2="117.677" y2="154.52"/>
  <line class="uuid-af54a15b-3d1e-4517-8093-536a60e5e26d" x1="130.135" y1="148.728" x2="128.913" y2="148.022"/>
  <line class="uuid-af54a15b-3d1e-4517-8093-536a60e5e26d" x1="141.614" y1="142.206" x2="140.393" y2="141.498"/>
  <line class="uuid-af54a15b-3d1e-4517-8093-536a60e5e26d" x1="152.851" y1="135.708" x2="151.63" y2="135"/>
  <line class="uuid-af54a15b-3d1e-4517-8093-536a60e5e26d" x1="164.334" y1="129.188" x2="162.866" y2="128.455"/>
  <line class="uuid-af54a15b-3d1e-4517-8093-536a60e5e26d" x1="175.571" y1="122.664" x2="174.107" y2="121.932"/>
  <line class="uuid-af54a15b-3d1e-4517-8093-536a60e5e26d" x1="186.808" y1="116.14" x2="185.587" y2="115.434"/>
  <line class="uuid-af54a15b-3d1e-4517-8093-536a60e5e26d" x1="198.045" y1="109.643" x2="196.823" y2="108.937"/>
  <line class="uuid-af54a15b-3d1e-4517-8093-536a60e5e26d" x1="209.282" y1="103.149" x2="208.06" y2="102.413"/>
  <line class="uuid-af54a15b-3d1e-4517-8093-536a60e5e26d" x1="220.761" y1="96.625" x2="219.297" y2="95.889"/>
  <line class="uuid-af54a15b-3d1e-4517-8093-536a60e5e26d" x1="231.998" y1="90.127" x2="230.534" y2="89.395"/>
  <line class="uuid-af54a15b-3d1e-4517-8093-536a60e5e26d" x1="243.235" y1="83.578" x2="242.013" y2="82.845"/>
  <line class="uuid-af54a15b-3d1e-4517-8093-536a60e5e26d" x1="173.371" y1="256.166" x2="170.195" y2="250.765"/>
  <line class="uuid-af54a15b-3d1e-4517-8093-536a60e5e26d" x1="215.631" y1="262.297" x2="208.06" y2="275.339"/>
  <line class="uuid-af54a15b-3d1e-4517-8093-536a60e5e26d" x1="209.771" y1="249.69" x2="190.226" y2="283.964"/>
  <line class="uuid-af54a15b-3d1e-4517-8093-536a60e5e26d" x1="200.488" y1="243.608" x2="176.061" y2="285.918"/>
  <line class="uuid-af54a15b-3d1e-4517-8093-536a60e5e26d" x1="179.968" y1="256.236" x2="163.845" y2="284.526"/>
  <line class="uuid-af54a15b-3d1e-4517-8093-536a60e5e26d" x1="160.18" y1="268.036" x2="152.851" y2="280.932"/>
  <line class="uuid-af54a15b-3d1e-4517-8093-536a60e5e26d" x1="146.257" y1="269.43" x2="143.082" y2="275.192"/>
  <line class="uuid-af54a15b-3d1e-4517-8093-536a60e5e26d" x1="154.805" y1="286.138" x2="154.805" y2="285.428"/>
  <line class="uuid-af54a15b-3d1e-4517-8093-536a60e5e26d" x1="166.041" y1="288.824" x2="166.041" y2="287.993"/>
  <line class="uuid-af54a15b-3d1e-4517-8093-536a60e5e26d" x1="177.282" y1="289.509" x2="177.282" y2="288.603"/>
  <line class="uuid-af54a15b-3d1e-4517-8093-536a60e5e26d" x1="188.761" y1="288.262" x2="188.761" y2="287.456"/>
  <line class="uuid-af54a15b-3d1e-4517-8093-536a60e5e26d" x1="199.998" y1="284.891" x2="199.998" y2="284.305"/>
  <g>
    <line class="uuid-a863308c-4534-48f1-91f7-e5683fc982ae" x1="176.207" y1="333.456" x2="162.899" y2="341.163"/>
    <line class="uuid-a863308c-4534-48f1-91f7-e5683fc982ae" x1="162.899" y1="341.163" x2="149.546" y2="333.433"/>
    <line class="uuid-3cc20120-d5b7-441b-9cff-332c27a4b29f" x1="149.546" y1="333.433" x2="162.911" y2="325.743"/>
    <line class="uuid-a863308c-4534-48f1-91f7-e5683fc982ae" x1="162.911" y1="325.747" x2="176.211" y2="333.456"/>
    <line class="uuid-a863308c-4534-48f1-91f7-e5683fc982ae" x1="189.56" y1="341.185" x2="176.251" y2="348.898"/>
    <line class="uuid-a863308c-4534-48f1-91f7-e5683fc982ae" x1="176.251" y1="348.898" x2="162.899" y2="341.167"/>
    <line class="uuid-a863308c-4534-48f1-91f7-e5683fc982ae" x1="162.899" y1="341.167" x2="176.263" y2="333.478"/>
    <line class="uuid-a863308c-4534-48f1-91f7-e5683fc982ae" x1="176.259" y1="333.478" x2="189.56" y2="341.185"/>
    <line class="uuid-a863308c-4534-48f1-91f7-e5683fc982ae" x1="202.912" y1="348.92" x2="189.604" y2="356.627"/>
    <line class="uuid-a863308c-4534-48f1-91f7-e5683fc982ae" x1="189.604" y1="356.631" x2="176.251" y2="348.9"/>
    <line class="uuid-a863308c-4534-48f1-91f7-e5683fc982ae" x1="176.251" y1="348.9" x2="189.616" y2="341.211"/>
    <line class="uuid-a863308c-4534-48f1-91f7-e5683fc982ae" x1="189.612" y1="341.211" x2="202.912" y2="348.92"/>
    <line class="uuid-a863308c-4534-48f1-91f7-e5683fc982ae" x1="189.516" y1="325.743" x2="176.207" y2="333.456"/>
    <line class="uuid-a863308c-4534-48f1-91f7-e5683fc982ae" x1="176.207" y1="333.456" x2="162.855" y2="325.725"/>
    <line class="uuid-3cc20120-d5b7-441b-9cff-332c27a4b29f" x1="162.855" y1="325.725" x2="176.219" y2="318.035"/>
    <line class="uuid-a863308c-4534-48f1-91f7-e5683fc982ae" x1="176.219" y1="318.035" x2="189.516" y2="325.743"/>
    <line class="uuid-a863308c-4534-48f1-91f7-e5683fc982ae" x1="202.868" y1="333.478" x2="189.56" y2="341.185"/>
    <line class="uuid-a863308c-4534-48f1-91f7-e5683fc982ae" x1="189.56" y1="341.189" x2="176.207" y2="333.456"/>
    <line class="uuid-a863308c-4534-48f1-91f7-e5683fc982ae" x1="176.207" y1="333.458" x2="189.572" y2="325.769"/>
    <line class="uuid-a863308c-4534-48f1-91f7-e5683fc982ae" x1="189.568" y1="325.769" x2="202.868" y2="333.478"/>
    <line class="uuid-a863308c-4534-48f1-91f7-e5683fc982ae" x1="216.221" y1="341.211" x2="202.912" y2="348.92"/>
    <line class="uuid-a863308c-4534-48f1-91f7-e5683fc982ae" x1="202.912" y1="348.922" x2="189.56" y2="341.189"/>
    <line class="uuid-a863308c-4534-48f1-91f7-e5683fc982ae" x1="189.56" y1="341.193" x2="202.92" y2="333.502"/>
    <line class="uuid-a863308c-4534-48f1-91f7-e5683fc982ae" x1="202.828" y1="318.035" x2="189.52" y2="325.747"/>
    <line class="uuid-a863308c-4534-48f1-91f7-e5683fc982ae" x1="189.52" y1="325.747" x2="176.167" y2="318.016"/>
    <line class="uuid-a863308c-4534-48f1-91f7-e5683fc982ae" x1="176.167" y1="318.016" x2="189.527" y2="310.326"/>
    <line class="uuid-3cc20120-d5b7-441b-9cff-332c27a4b29f" x1="189.527" y1="310.326" x2="202.828" y2="318.035"/>
    <line class="uuid-3cc20120-d5b7-441b-9cff-332c27a4b29f" x1="216.181" y1="325.769" x2="202.868" y2="333.478"/>
    <line class="uuid-3cc20120-d5b7-441b-9cff-332c27a4b29f" x1="202.872" y1="333.48" x2="189.516" y2="325.747"/>
    <line class="uuid-a863308c-4534-48f1-91f7-e5683fc982ae" x1="189.52" y1="325.751" x2="202.879" y2="318.06"/>
    <line class="uuid-3cc20120-d5b7-441b-9cff-332c27a4b29f" x1="202.879" y1="318.06" x2="216.181" y2="325.769"/>
    <line class="uuid-a863308c-4534-48f1-91f7-e5683fc982ae" x1="229.529" y1="333.502" x2="216.221" y2="341.211"/>
    <line class="uuid-3cc20120-d5b7-441b-9cff-332c27a4b29f" x1="202.868" y1="333.484" x2="216.231" y2="325.795"/>
    <line class="uuid-a863308c-4534-48f1-91f7-e5683fc982ae" x1="216.136" y1="310.326" x2="202.824" y2="318.035"/>
    <line class="uuid-a863308c-4534-48f1-91f7-e5683fc982ae" x1="202.828" y1="318.038" x2="189.475" y2="310.304"/>
    <line class="uuid-a863308c-4534-48f1-91f7-e5683fc982ae" x1="189.475" y1="310.308" x2="202.834" y2="302.618"/>
    <line class="uuid-3cc20120-d5b7-441b-9cff-332c27a4b29f" x1="202.834" y1="302.618" x2="216.136" y2="310.326"/>
    <line class="uuid-3cc20120-d5b7-441b-9cff-332c27a4b29f" x1="229.485" y1="318.06" x2="216.177" y2="325.769"/>
    <line class="uuid-3cc20120-d5b7-441b-9cff-332c27a4b29f" x1="216.177" y1="325.769" x2="202.824" y2="318.038"/>
    <line class="uuid-a863308c-4534-48f1-91f7-e5683fc982ae" x1="202.824" y1="318.038" x2="216.187" y2="310.349"/>
    <line class="uuid-3cc20120-d5b7-441b-9cff-332c27a4b29f" x1="216.187" y1="310.352" x2="229.489" y2="318.06"/>
    <line class="uuid-a863308c-4534-48f1-91f7-e5683fc982ae" x1="242.837" y1="325.795" x2="229.529" y2="333.502"/>
    <line class="uuid-a863308c-4534-48f1-91f7-e5683fc982ae" x1="216.177" y1="325.773" x2="229.539" y2="318.082"/>
    <line class="uuid-a863308c-4534-48f1-91f7-e5683fc982ae" x1="229.539" y1="318.086" x2="242.837" y2="325.791"/>
    <line class="uuid-a863308c-4534-48f1-91f7-e5683fc982ae" x1="224.205" y1="290.244" x2="237.505" y2="297.953"/>
    <line class="uuid-a863308c-4534-48f1-91f7-e5683fc982ae" x1="237.557" y1="297.975" x2="250.858" y2="305.684"/>
    <line class="uuid-3cc20120-d5b7-441b-9cff-332c27a4b29f" x1="250.91" y1="305.708" x2="264.21" y2="313.417"/>
    <line class="uuid-a863308c-4534-48f1-91f7-e5683fc982ae" x1="250.814" y1="290.241" x2="237.505" y2="297.953"/>
    <line class="uuid-a863308c-4534-48f1-91f7-e5683fc982ae" x1="237.505" y1="297.953" x2="224.153" y2="290.222"/>
    <line class="uuid-a863308c-4534-48f1-91f7-e5683fc982ae" x1="224.153" y1="290.222" x2="237.517" y2="282.532"/>
    <line class="uuid-a863308c-4534-48f1-91f7-e5683fc982ae" x1="237.513" y1="282.532" x2="250.814" y2="290.241"/>
    <line class="uuid-a863308c-4534-48f1-91f7-e5683fc982ae" x1="264.166" y1="297.975" x2="250.858" y2="305.684"/>
    <line class="uuid-a863308c-4534-48f1-91f7-e5683fc982ae" x1="250.858" y1="305.686" x2="237.505" y2="297.953"/>
    <line class="uuid-a863308c-4534-48f1-91f7-e5683fc982ae" x1="237.505" y1="297.957" x2="250.869" y2="290.266"/>
    <line class="uuid-a863308c-4534-48f1-91f7-e5683fc982ae" x1="250.866" y1="290.266" x2="264.166" y2="297.975"/>
    <line class="uuid-a863308c-4534-48f1-91f7-e5683fc982ae" x1="277.519" y1="305.708" x2="264.21" y2="313.417"/>
    <line class="uuid-a863308c-4534-48f1-91f7-e5683fc982ae" x1="264.21" y1="313.421" x2="250.858" y2="305.686"/>
    <line class="uuid-a863308c-4534-48f1-91f7-e5683fc982ae" x1="250.858" y1="305.69" x2="264.218" y2="298.001"/>
    <line class="uuid-3cc20120-d5b7-441b-9cff-332c27a4b29f" x1="264.218" y1="298.001" x2="277.519" y2="305.708"/>
    <line class="uuid-a863308c-4534-48f1-91f7-e5683fc982ae" x1="264.126" y1="282.532" x2="250.814" y2="290.244"/>
    <line class="uuid-a863308c-4534-48f1-91f7-e5683fc982ae" x1="250.818" y1="290.244" x2="237.465" y2="282.514"/>
    <line class="uuid-a863308c-4534-48f1-91f7-e5683fc982ae" x1="237.465" y1="282.514" x2="250.825" y2="274.823"/>
    <line class="uuid-3cc20120-d5b7-441b-9cff-332c27a4b29f" x1="250.825" y1="274.823" x2="264.126" y2="282.532"/>
    <line class="uuid-a863308c-4534-48f1-91f7-e5683fc982ae" x1="277.475" y1="290.266" x2="264.166" y2="297.975"/>
    <line class="uuid-a863308c-4534-48f1-91f7-e5683fc982ae" x1="264.166" y1="297.979" x2="250.814" y2="290.244"/>
    <line class="uuid-a863308c-4534-48f1-91f7-e5683fc982ae" x1="250.814" y1="290.248" x2="264.178" y2="282.558"/>
    <line class="uuid-3cc20120-d5b7-441b-9cff-332c27a4b29f" x1="264.178" y1="282.558" x2="277.478" y2="290.266"/>
    <line class="uuid-a863308c-4534-48f1-91f7-e5683fc982ae" x1="290.827" y1="298.001" x2="277.519" y2="305.708"/>
    <line class="uuid-a863308c-4534-48f1-91f7-e5683fc982ae" x1="277.519" y1="305.712" x2="264.166" y2="297.979"/>
    <line class="uuid-a863308c-4534-48f1-91f7-e5683fc982ae" x1="264.166" y1="297.982" x2="277.53" y2="290.292"/>
    <line class="uuid-a863308c-4534-48f1-91f7-e5683fc982ae" x1="277.527" y1="290.292" x2="290.827" y2="298.001"/>
    <line class="uuid-a863308c-4534-48f1-91f7-e5683fc982ae" x1="277.434" y1="274.823" x2="264.122" y2="282.532"/>
    <line class="uuid-a863308c-4534-48f1-91f7-e5683fc982ae" x1="264.126" y1="282.536" x2="250.773" y2="274.801"/>
    <line class="uuid-a863308c-4534-48f1-91f7-e5683fc982ae" x1="250.773" y1="274.805" x2="264.134" y2="267.116"/>
    <line class="uuid-3cc20120-d5b7-441b-9cff-332c27a4b29f" x1="264.134" y1="267.116" x2="277.434" y2="274.823"/>
    <line class="uuid-a863308c-4534-48f1-91f7-e5683fc982ae" x1="290.783" y1="282.558" x2="277.475" y2="290.266"/>
    <line class="uuid-a863308c-4534-48f1-91f7-e5683fc982ae" x1="277.475" y1="290.266" x2="264.122" y2="282.536"/>
    <line class="uuid-3cc20120-d5b7-441b-9cff-332c27a4b29f" x1="264.122" y1="282.536" x2="277.486" y2="274.849"/>
    <line class="uuid-a863308c-4534-48f1-91f7-e5683fc982ae" x1="277.486" y1="274.849" x2="290.787" y2="282.558"/>
    <line class="uuid-a863308c-4534-48f1-91f7-e5683fc982ae" x1="304.136" y1="290.292" x2="290.827" y2="298.001"/>
    <line class="uuid-a863308c-4534-48f1-91f7-e5683fc982ae" x1="290.827" y1="298.001" x2="277.475" y2="290.269"/>
    <line class="uuid-a863308c-4534-48f1-91f7-e5683fc982ae" x1="277.475" y1="290.269" x2="290.838" y2="282.58"/>
    <line class="uuid-a863308c-4534-48f1-91f7-e5683fc982ae" x1="290.835" y1="282.584" x2="304.136" y2="290.288"/>
    <line class="uuid-3cc20120-d5b7-441b-9cff-332c27a4b29f" x1="202.834" y1="302.618" x2="216.136" y2="310.326"/>
    <line class="uuid-3cc20120-d5b7-441b-9cff-332c27a4b29f" x1="216.187" y1="310.352" x2="229.489" y2="318.06"/>
    <line class="uuid-a863308c-4534-48f1-91f7-e5683fc982ae" x1="229.539" y1="318.086" x2="242.837" y2="325.795"/>
    <line class="uuid-a863308c-4534-48f1-91f7-e5683fc982ae" x1="229.445" y1="302.618" x2="216.132" y2="310.326"/>
    <line class="uuid-a863308c-4534-48f1-91f7-e5683fc982ae" x1="216.136" y1="310.33" x2="202.784" y2="302.596"/>
    <line class="uuid-a863308c-4534-48f1-91f7-e5683fc982ae" x1="202.784" y1="302.599" x2="216.143" y2="294.91"/>
    <line class="uuid-3cc20120-d5b7-441b-9cff-332c27a4b29f" x1="216.143" y1="294.91" x2="229.445" y2="302.618"/>
    <line class="uuid-a863308c-4534-48f1-91f7-e5683fc982ae" x1="242.793" y1="310.352" x2="229.485" y2="318.06"/>
    <line class="uuid-a863308c-4534-48f1-91f7-e5683fc982ae" x1="229.485" y1="318.064" x2="216.132" y2="310.33"/>
    <line class="uuid-a863308c-4534-48f1-91f7-e5683fc982ae" x1="216.132" y1="310.33" x2="229.495" y2="302.644"/>
    <line class="uuid-3cc20120-d5b7-441b-9cff-332c27a4b29f" x1="229.495" y1="302.644" x2="242.797" y2="310.352"/>
    <line class="uuid-a863308c-4534-48f1-91f7-e5683fc982ae" x1="256.146" y1="318.086" x2="242.837" y2="325.795"/>
    <line class="uuid-a863308c-4534-48f1-91f7-e5683fc982ae" x1="242.837" y1="325.795" x2="229.485" y2="318.064"/>
    <line class="uuid-a863308c-4534-48f1-91f7-e5683fc982ae" x1="229.485" y1="318.064" x2="242.848" y2="310.374"/>
    <line class="uuid-a863308c-4534-48f1-91f7-e5683fc982ae" x1="242.844" y1="310.378" x2="256.146" y2="318.082"/>
  </g>
</svg>