<?xml version="1.0" encoding="UTF-8"?>
<svg id="uuid-6b92abc7-ff9c-4f43-89d1-ba32aeea05ed" data-name="&amp;lt;Layer&amp;gt;" xmlns="http://www.w3.org/2000/svg" viewBox="0 0 451.11 451.11">
  <defs>
    <style>
      .uuid-0c2f943d-9d85-476b-9363-955bb46bc6ba {
        stroke-width: 1.151px;
      }

      .uuid-0c2f943d-9d85-476b-9363-955bb46bc6ba, .uuid-031e8a4e-1f1b-4d43-984c-f61d65087fbe, .uuid-3dbb2a59-c3e9-45c3-b060-e7489d9d8344, .uuid-e00586c5-8dfe-4fcc-b491-4a7a70fadcc7, .uuid-57051cd6-ffe6-4361-92f3-d81cf08b414a, .uuid-126a0064-abae-431e-bd33-b69869512916, .uuid-00c6fed9-4dbf-4126-bb83-8d92df7e269d {
        fill: none;
        stroke: #000;
        stroke-linecap: round;
      }

      .uuid-0c2f943d-9d85-476b-9363-955bb46bc6ba, .uuid-031e8a4e-1f1b-4d43-984c-f61d65087fbe, .uuid-3dbb2a59-c3e9-45c3-b060-e7489d9d8344, .uuid-e00586c5-8dfe-4fcc-b491-4a7a70fadcc7, .uuid-57051cd6-ffe6-4361-92f3-d81cf08b414a, .uuid-00c6fed9-4dbf-4126-bb83-8d92df7e269d {
        stroke-miterlimit: 10;
      }

      .uuid-031e8a4e-1f1b-4d43-984c-f61d65087fbe {
        stroke-width: 1.145px;
      }

      .uuid-3dbb2a59-c3e9-45c3-b060-e7489d9d8344 {
        stroke-width: 1.163px;
      }

      .uuid-e00586c5-8dfe-4fcc-b491-4a7a70fadcc7 {
        stroke-width: 1.167px;
      }

      .uuid-57051cd6-ffe6-4361-92f3-d81cf08b414a {
        stroke-width: 1.299px;
      }

      .uuid-126a0064-abae-431e-bd33-b69869512916 {
        fill-rule: evenodd;
        stroke-linejoin: round;
        stroke-width: 4.113px;
      }

      .uuid-00c6fed9-4dbf-4126-bb83-8d92df7e269d {
        stroke-width: 1.343px;
      }
    </style>
  </defs>
  <path class="uuid-126a0064-abae-431e-bd33-b69869512916" d="M179.546,253.714c-1.638,2.321-3.883,5.349-5.008,6.817M170.071,266.271c-.514-2.222,2.977-6.033,3.956-6.033.173,0,.341.047.463.221M174.49,260.459l.048.073M174.538,260.531c23.426,30.363,37.864,46.728,68.251,63.973,2.958,1.689,5.619,3.202,7.94,4.133,2.322.927,4.375,1.221,5.936.584.927-.415,1.98-1.515,3.201-3.249,2.884-4.128,6.498-11.678,9.915-20.741,9.825-26.064,2.69-40.597-.338-66.615M272.689,232.583c7.804.214,16.77,1.648,23.99,4.472,7.469,2.615,15.176,7.896,20.033,14.047,4.699,6.153,7.009,12.875,7.009,20.664v30.317c0,9.478-16.196,26.896-40.013,43.162-14.606,10.041-32.146,19.619-50.565,26.606-28.707,11.365-66.512,17.38-94.417,1.218M257.544,255.499c6.961-8.699,11.774-15.881,16.002-24.77,3.592-7.793,6.524-15.807,8.941-24.748,1.295-5.176,2.444-10.553,3.371-15.902,2.222-12.191,3.153-23.111,2.517-35.444-1.123-9.747-13.242-5.058-26.308-.025-15.39,5.935-31.783,12.262-38.379.195M215.846,263.756c4.934,1.515,9.919,2.469,14.927,2.954,15.829,1.563,17.245.636,26.771-11.211M204.803,267.346c-30.417-17.564-43.658-19.389-54.929-41.043-2.116-4.067-4.161-8.83-6.237-14.53-10.365-38.56-12.509-86.248,20.815-114.208,11.203-9.39,25.774-17.867,33.097-13.65,4.455-7.087,9.853-11.72,18.035-14.207,27.518-8.371,66.697,17.849,79.408,39.418,11.553,19.588,13.533,57.137-10.236,112.588-3.123,2.808-6.887,5.836-11.211,9.015M223.565,154.978c-6.57,10.38-18.882,29.726-21.421,53.715-1.881,18.055,1.659,42.188,13.97,54.94-4.396,1.781-8.231,3.028-11.311,3.712M170.071,266.247c-.393.247-20.888,21.546-23.11,23.988-23.232,26.087-19.325,35.639-19.325,65.589,0,9.109,1.149,11.505,11.09,17.245,26.775,15.464,61.902,11.141,94.343-1.196-16.66-15.903-19.203-33.564-22.815-51.055M210.254,320.818l-25.774,16.907-14.409-71.478M194.351,331.223l23.354,40.893M283.708,345.245c2.344-12.26,8.599-36.981,3.543-59.702M287.251,285.544l24.159,1.686-39.986-52.156M297.193,287.792l-4.764,46.195M210.375,320.72c13.754,3.885,29.266,7.038,46.217,8.528,9.235-9.063,19.056-21.84,30.319-43.704M256.591,360.784c.71-11.141.71-21.62,0-31.536M229.551,325.337c.048,0,.048.052.096.052"/>
  <line class="uuid-3dbb2a59-c3e9-45c3-b060-e7489d9d8344" x1="199.575" y1="326.095" x2="181.694" y2="315.789"/>
  <line class="uuid-57051cd6-ffe6-4361-92f3-d81cf08b414a" x1="225.482" y1="314.979" x2="174.905" y2="285.765"/>
  <line class="uuid-3dbb2a59-c3e9-45c3-b060-e7489d9d8344" x1="209.789" y1="256.205" x2="147.888" y2="220.445"/>
  <line class="uuid-3dbb2a59-c3e9-45c3-b060-e7489d9d8344" x1="203.925" y1="239.766" x2="142.148" y2="204.101"/>
  <line class="uuid-3dbb2a59-c3e9-45c3-b060-e7489d9d8344" x1="201.971" y1="225.596" x2="139.069" y2="189.274"/>
  <line class="uuid-3dbb2a59-c3e9-45c3-b060-e7489d9d8344" x1="202.019" y1="212.578" x2="137.262" y2="175.204"/>
  <line class="uuid-3dbb2a59-c3e9-45c3-b060-e7489d9d8344" x1="203.803" y1="200.585" x2="136.799" y2="161.889"/>
  <line class="uuid-3dbb2a59-c3e9-45c3-b060-e7489d9d8344" x1="206.957" y1="189.372" x2="137.603" y2="149.334"/>
  <line class="uuid-3dbb2a59-c3e9-45c3-b060-e7489d9d8344" x1="283.266" y1="220.393" x2="280.533" y2="218.809"/>
  <line class="uuid-3dbb2a59-c3e9-45c3-b060-e7489d9d8344" x1="211.133" y1="178.747" x2="139.705" y2="137.508"/>
  <line class="uuid-3dbb2a59-c3e9-45c3-b060-e7489d9d8344" x1="287.568" y1="209.841" x2="284.076" y2="207.814"/>
  <line class="uuid-3dbb2a59-c3e9-45c3-b060-e7489d9d8344" x1="216.24" y1="168.658" x2="143.123" y2="126.444"/>
  <line class="uuid-3dbb2a59-c3e9-45c3-b060-e7489d9d8344" x1="291.501" y1="199.069" x2="286.688" y2="196.309"/>
  <line class="uuid-3dbb2a59-c3e9-45c3-b060-e7489d9d8344" x1="222.002" y1="158.933" x2="147.715" y2="116.061"/>
  <line class="uuid-3dbb2a59-c3e9-45c3-b060-e7489d9d8344" x1="294.992" y1="188.052" x2="288.715" y2="184.435"/>
  <line class="uuid-3dbb2a59-c3e9-45c3-b060-e7489d9d8344" x1="247.017" y1="160.351" x2="153.359" y2="106.293"/>
  <line class="uuid-3dbb2a59-c3e9-45c3-b060-e7489d9d8344" x1="297.9" y1="176.694" x2="290.059" y2="172.149"/>
  <line class="uuid-3dbb2a59-c3e9-45c3-b060-e7489d9d8344" x1="261.599" y1="155.736" x2="161.667" y2="98.01"/>
  <line class="uuid-3dbb2a59-c3e9-45c3-b060-e7489d9d8344" x1="300.173" y1="164.967" x2="290.353" y2="159.302"/>
  <line class="uuid-3dbb2a59-c3e9-45c3-b060-e7489d9d8344" x1="275.525" y1="150.725" x2="171.241" y2="90.534"/>
  <line class="uuid-031e8a4e-1f1b-4d43-984c-f61d65087fbe" x1="303.179" y1="153.665" x2="182.382" y2="83.941"/>
  <line class="uuid-0c2f943d-9d85-476b-9363-955bb46bc6ba" x1="304.618" y1="141.467" x2="198.881" y2="80.408"/>
  <line class="uuid-3dbb2a59-c3e9-45c3-b060-e7489d9d8344" x1="302.248" y1="127.056" x2="206.783" y2="71.92"/>
  <line class="uuid-3dbb2a59-c3e9-45c3-b060-e7489d9d8344" x1="294.286" y1="109.442" x2="223.565" y2="68.597"/>
  <line class="uuid-e00586c5-8dfe-4fcc-b491-4a7a70fadcc7" x1="138.815" y1="371.549" x2="128.957" y2="354.36"/>
  <line class="uuid-3dbb2a59-c3e9-45c3-b060-e7489d9d8344" x1="156.88" y1="380.259" x2="127.975" y2="330.146"/>
  <line class="uuid-3dbb2a59-c3e9-45c3-b060-e7489d9d8344" x1="170.317" y1="380.931" x2="132.575" y2="315.56"/>
  <line class="uuid-3dbb2a59-c3e9-45c3-b060-e7489d9d8344" x1="184.093" y1="382.201" x2="138.046" y2="302.444"/>
  <line class="uuid-3dbb2a59-c3e9-45c3-b060-e7489d9d8344" x1="196.794" y1="381.689" x2="145.128" y2="292.16"/>
  <line class="uuid-3dbb2a59-c3e9-45c3-b060-e7489d9d8344" x1="208.888" y1="380.005" x2="152.899" y2="283.049"/>
  <line class="uuid-3dbb2a59-c3e9-45c3-b060-e7489d9d8344" x1="219.293" y1="375.436" x2="194.256" y2="332.099"/>
  <line class="uuid-3dbb2a59-c3e9-45c3-b060-e7489d9d8344" x1="178.986" y1="305.623" x2="162.377" y2="276.817"/>
  <line class="uuid-3dbb2a59-c3e9-45c3-b060-e7489d9d8344" x1="227.962" y1="373.364" x2="201.265" y2="327.121"/>
  <line class="uuid-3dbb2a59-c3e9-45c3-b060-e7489d9d8344" x1="287.153" y1="340.386" x2="286.91" y2="339.947"/>
  <line class="uuid-3dbb2a59-c3e9-45c3-b060-e7489d9d8344" x1="296.214" y1="333.545" x2="294.824" y2="331.054"/>
  <line class="uuid-3dbb2a59-c3e9-45c3-b060-e7489d9d8344" x1="291.402" y1="325.168" x2="289.864" y2="322.577"/>
  <line class="uuid-3dbb2a59-c3e9-45c3-b060-e7489d9d8344" x1="305.156" y1="326.462" x2="296.557" y2="311.535"/>
  <line class="uuid-3dbb2a59-c3e9-45c3-b060-e7489d9d8344" x1="293.43" y1="306.064" x2="291.159" y2="302.227"/>
  <line class="uuid-3dbb2a59-c3e9-45c3-b060-e7489d9d8344" x1="313.559" y1="318.496" x2="298.363" y2="292.042"/>
  <line class="uuid-3dbb2a59-c3e9-45c3-b060-e7489d9d8344" x1="320.594" y1="308.066" x2="309.331" y2="288.524"/>
  <line class="uuid-00c6fed9-4dbf-4126-bb83-8d92df7e269d" x1="294.739" y1="263.313" x2="278.042" y2="234.269"/>
  <line class="uuid-3dbb2a59-c3e9-45c3-b060-e7489d9d8344" x1="322.694" y1="289.113" x2="292.207" y2="236.274"/>
  <line class="uuid-3dbb2a59-c3e9-45c3-b060-e7489d9d8344" x1="281.17" y1="345.418" x2="258.181" y2="332.129"/>
  <line class="uuid-3dbb2a59-c3e9-45c3-b060-e7489d9d8344" x1="286.346" y1="322.308" x2="271.713" y2="313.857"/>
  <line class="uuid-3dbb2a59-c3e9-45c3-b060-e7489d9d8344" x1="286.858" y1="296.564" x2="284.076" y2="294.975"/>
  <line class="uuid-3dbb2a59-c3e9-45c3-b060-e7489d9d8344" x1="282.045" y1="290.846" x2="276.231" y2="287.473"/>
  <line class="uuid-3dbb2a59-c3e9-45c3-b060-e7489d9d8344" x1="300.1" y1="275.187" x2="274.205" y2="260.212"/>
  <line class="uuid-3dbb2a59-c3e9-45c3-b060-e7489d9d8344" x1="247.382" y1="364.522" x2="218.727" y2="347.983"/>
  <line class="uuid-3dbb2a59-c3e9-45c3-b060-e7489d9d8344" x1="256.08" y1="343.439" x2="226.472" y2="326.363"/>
</svg>