<?xml version="1.0" encoding="UTF-8"?>
<svg id="uuid-c27326b4-7a86-419b-903a-e56ed2e61312" data-name="&amp;lt;Layer&amp;gt;" xmlns="http://www.w3.org/2000/svg" viewBox="0 0 451.11 451.11">
  <defs>
    <style>
      .uuid-93892e3e-ef15-4798-9acd-4fd56e087027, .uuid-1fbe709d-78f2-48f3-b82d-59c8da01b556, .uuid-bf54339e-3df9-4c41-8d37-8e94861ccc4b, .uuid-eb840224-ecb4-4851-94c1-e130f3930b62 {
        fill: none;
      }

      .uuid-93892e3e-ef15-4798-9acd-4fd56e087027, .uuid-1fbe709d-78f2-48f3-b82d-59c8da01b556, .uuid-bf54339e-3df9-4c41-8d37-8e94861ccc4b, .uuid-eb840224-ecb4-4851-94c1-e130f3930b62, .uuid-6accf1dd-50ca-498d-bb06-52c7fdf1a039, .uuid-e74373f7-1662-4fd0-89e8-af1e1a678d4e {
        stroke: #000;
        stroke-linecap: round;
      }

      .uuid-93892e3e-ef15-4798-9acd-4fd56e087027, .uuid-eb840224-ecb4-4851-94c1-e130f3930b62 {
        stroke-width: 4.117px;
      }

      .uuid-93892e3e-ef15-4798-9acd-4fd56e087027, .uuid-eb840224-ecb4-4851-94c1-e130f3930b62, .uuid-e74373f7-1662-4fd0-89e8-af1e1a678d4e {
        stroke-linejoin: round;
      }

      .uuid-1fbe709d-78f2-48f3-b82d-59c8da01b556 {
        stroke-miterlimit: 10;
      }

      .uuid-1fbe709d-78f2-48f3-b82d-59c8da01b556, .uuid-bf54339e-3df9-4c41-8d37-8e94861ccc4b {
        stroke-width: 1.163px;
      }

      .uuid-bf54339e-3df9-4c41-8d37-8e94861ccc4b, .uuid-eb840224-ecb4-4851-94c1-e130f3930b62, .uuid-6accf1dd-50ca-498d-bb06-52c7fdf1a039, .uuid-e74373f7-1662-4fd0-89e8-af1e1a678d4e {
        fill-rule: evenodd;
      }

      .uuid-bf54339e-3df9-4c41-8d37-8e94861ccc4b, .uuid-6accf1dd-50ca-498d-bb06-52c7fdf1a039 {
        stroke-miterlimit: 22.926;
      }

      .uuid-6accf1dd-50ca-498d-bb06-52c7fdf1a039, .uuid-e74373f7-1662-4fd0-89e8-af1e1a678d4e {
        fill: #1986c6;
        stroke-width: 3.293px;
      }
    </style>
  </defs>
  <path class="uuid-eb840224-ecb4-4851-94c1-e130f3930b62" d="M156.619,118.948c-.685-.707-1.512-1.295-2.37-1.759-.585-.343-1.221-.685-1.88-.928-.563-.221-1.075-.463-1.664-.562-.706-.244-1.39-.369-2.096-.489-.221-.048-.515-.096-.81-.096-1.049-.126-2.102-.126-3.197-.074-10.579.706-28.556,3.664-39.087,9.941-.341.174-.584.391-.927.637"/>
  <path class="uuid-eb840224-ecb4-4851-94c1-e130f3930b62" d="M104.537,125.618c-7.035,4.713-12.26,13.702-13.359,21.884-1.859,13.485,5.445,27.066,11.383,39.159,1.097,2.248,3.418,5.91,7.424,8.184,1.933,1.099,4.25,1.857,7.035,1.979"/>
  <path class="uuid-eb840224-ecb4-4851-94c1-e130f3930b62" d="M109.986,194.846c-4.007-2.274-6.328-5.936-7.424-8.184-5.938-12.093-13.242-25.674-11.383-39.159,1.1-8.183,6.324-17.171,13.359-21.884"/>
  <path class="uuid-eb840224-ecb4-4851-94c1-e130f3930b62" d="M104.588,125.618c.343-.247.585-.463.927-.637,10.531-6.277,28.508-9.235,39.087-9.941,1.095-.052,2.148-.052,3.197.074.295,0,.589.048.81.096.706.121,1.39.245,2.096.489.589.099,1.101.341,1.664.562.658.243,1.294.585,1.88.928"/>
  <path class="uuid-eb840224-ecb4-4851-94c1-e130f3930b62" d="M162.016,123.759c-1.438-2.1-3.245-3.712-5.397-4.812-.928-.537-1.907-.954-2.956-1.175-5.275-1.563-11.847-.463-18.934,3.595-5.054,2.976-9.867,7.156-14.165,12.09-10.336,11.969-17.418,28.387-17.418,42.674,0,8.55,2.543,14.975,6.839,18.713"/>
  <path class="uuid-eb840224-ecb4-4851-94c1-e130f3930b62" d="M156.96,125.688h-.048c-3.201-1.708-6.376-2.098-9.525-1.634-3.375.413-6.672,1.807-9.921,3.54-4.3,2.615-7.667,5.401-10.868,8.82-1.149,1.269-2.322,2.615-3.496,4.08-6.155,8.136-10.21,16.367-12.359,26.407-.758,4.129-1.049,7.452-.758,11.627.71,5.692,2.224,10.457,6.74,13.802"/>
  <path class="uuid-eb840224-ecb4-4851-94c1-e130f3930b62" d="M135.417,267.005c1.634,12.8,2.908,13.19,7.963,15.707,6.203,3.127,8.256,3.59,17.539-1.295,1.049-.511,2.198-1.097,3.419-1.807,7.451-4.055,7.623-8.477,7.035-15.266"/>
  <path class="uuid-eb840224-ecb4-4851-94c1-e130f3930b62" d="M171.373,264.344c.588,6.789.415,11.211-7.035,15.266-1.221.758-2.37,1.417-3.419,1.807-6.67,3.127-10.162.883-11.093-6.961"/>
  <path class="uuid-eb840224-ecb4-4851-94c1-e130f3930b62" d="M165.217,238.229c.052,2.491-1.049,5.276-2.734,6.891-1.027.928-2.078,1.291-2.954,1.001"/>
  <polyline class="uuid-eb840224-ecb4-4851-94c1-e130f3930b62" points="159.698 233.394 160.331 233.394 160.504 233.468 162.774 234.152 163.069 234.274 163.117 234.274"/>
  <polyline class="uuid-eb840224-ecb4-4851-94c1-e130f3930b62" points="200.539 213.411 200.539 213.363 200.591 213.312"/>
  <path class="uuid-eb840224-ecb4-4851-94c1-e130f3930b62" d="M211.437,143.621h-.173q-.048-.174-.122-.174c-.048-.047-.095-.121-.173-.121-.048-.048-.096-.122-.217-.169"/>
  <path class="uuid-eb840224-ecb4-4851-94c1-e130f3930b62" d="M209.995,142.569c-.463-.295-1.001-.585-1.464-.806-.052,0-.1,0-.1-.074-.121-.047-.243-.095-.341-.169-.417-.221-.88-.389-1.343-.563"/>
  <polyline class="uuid-eb840224-ecb4-4851-94c1-e130f3930b62" points="125.035 213.363 128.869 215.56 143.674 224.158 154.933 230.682"/>
  <path class="uuid-eb840224-ecb4-4851-94c1-e130f3930b62" d="M154.933,230.682c1.465,1.147,3.032,2.075,4.717,2.711h.048"/>
  <path class="uuid-eb840224-ecb4-4851-94c1-e130f3930b62" d="M176.822,123.687c-1.149-.391-2.248-.685-3.349-.854-.121,0-.195-.074-.291-.074-1.173-.169-2.395-.269-3.495-.269-.853,0-1.806.048-2.664.17-.411.051-.828.099-1.292.173-.221.048-.463.048-.758.121-.341.096-.684.17-1.099.291-.559.1-1.197.269-1.859.515-.121,0-.169,0-.217.048-.343.074-.659.173-.927.295-.078,0-.174.048-.247.121-.511.122-1.049.295-1.612.511-.706.295-1.394.637-2.054.954h-.048c-4.006,1.954-7.208,4.058-10.92,6.961-5.102,4.348-8.941,8.481-12.996,13.804"/>
  <path class="uuid-eb840224-ecb4-4851-94c1-e130f3930b62" d="M159.698,233.394h-.048c-1.685-.636-3.251-1.564-4.717-2.711-4.761-3.959-7.767-10.651-8.231-19.592-.121-.806-.121-1.686-.121-2.613,0-14.754,6.498-31.466,16.315-44.752,5.864-7.914,12.9-14.584,20.446-18.934,9.529-5.519,18.176-6.325,24.748-3.271.099.074.221.122.341.169,0,.074.048.074.1.074.463.221,1.001.511,1.464.806"/>
  <path class="uuid-eb840224-ecb4-4851-94c1-e130f3930b62" d="M163.069,234.274c-1.173-2.102-2.318-3.912-3.492-5.402-3.422-4.344-5.328-10.625-5.328-18.587,0-22.842,15.976-50.592,35.764-61.972,6.572-3.838,12.775-5.328,18.077-4.817.905.126,1.953.126,3.175.126h.173c17.831-.417,60.508-13.29,79.095-14.927.174-.048.343-.048.467-.048h.17c.195,0,.415-.074.585-.074.293-.048.588-.048.879-.048-.537.048-1.049.122-1.512.17"/>
  <polyline class="uuid-eb840224-ecb4-4851-94c1-e130f3930b62" points="215.051 186.589 215.051 186.662 214.977 186.662"/>
  <path class="uuid-eb840224-ecb4-4851-94c1-e130f3930b62" d="M214.977,186.662c-4.945,7.749-9.735,15.954-13.407,24.428-.347.758-.689,1.515-.979,2.222"/>
  <path class="uuid-eb840224-ecb4-4851-94c1-e130f3930b62" d="M200.539,213.411c-4.934,12.855-8.584,22.113-11.112,35.958-2.082,13.011-2.866,25.105-.048,38.156,1.911,8.771,4.051,13.241,8.72,20.619.048.048.096.099.17.169"/>
  <path class="uuid-eb840224-ecb4-4851-94c1-e130f3930b62" d="M198.49,308.704c-.122-.096-.173-.269-.221-.391-.074-.07-.122-.121-.17-.169-.662-.88-1.222-1.733-1.711-2.617-.221-.243-.341-.463-.437-.706-.247-.389-.467-.758-.758-1.221"/>
  <path class="uuid-eb840224-ecb4-4851-94c1-e130f3930b62" d="M195.193,303.548c-.125-.243-.247-.412-.367-.584-8.768-15.097-17.713-39.377-25.771-56.916v-.048c-1.343-2.785-2.565-5.402-3.838-7.771"/>
  <path class="uuid-eb840224-ecb4-4851-94c1-e130f3930b62" d="M314.058,131.943c-6.034-2.565-11.8-3.592-17.488-3.592-1.321,0-2.593.048-3.937.173-.291,0-.585,0-.879.048-.17,0-.391.074-.585.074"/>
  <path class="uuid-eb840224-ecb4-4851-94c1-e130f3930b62" d="M195.193,303.6c.17.415.391.758.758,1.221.096.243.217.463.437.706.489.884,1.049,1.737,1.711,2.617.048.048.096.099.17.169,2.27,3.128,5.106,5.914,8.941,8.768"/>
  <polyline class="uuid-eb840224-ecb4-4851-94c1-e130f3930b62" points="207.21 317.081 217.592 323.119 228.51 329.444 228.586 329.322"/>
  <path class="uuid-eb840224-ecb4-4851-94c1-e130f3930b62" d="M215.051,186.589c.702-1.089,1.711-2.643,2.541-3.592,16.746-23.125,43.425-51.592,74.163-54.425,7.255-.758,14.584.122,22.304,3.371"/>
  <path class="uuid-eb840224-ecb4-4851-94c1-e130f3930b62" d="M284.624,325.757c41.746-24.136,75.603-82.763,75.603-131.033s-33.857-67.836-75.603-43.704c-41.823,24.112-75.681,82.812-75.681,131.081s33.858,67.789,75.681,43.656Z"/>
  <path class="uuid-eb840224-ecb4-4851-94c1-e130f3930b62" d="M284.624,306.75c33.442-19.273,60.558-66.221,60.558-104.845s-27.116-54.281-60.558-34.98c-33.468,19.295-60.584,66.273-60.584,104.891s27.117,54.256,60.584,34.933Z"/>
  <path class="uuid-eb840224-ecb4-4851-94c1-e130f3930b62" d="M314.742,158.791c-8.867-.758-19.151,1.807-30.119,8.135-33.468,19.295-60.584,66.273-60.584,104.891,0,12.363,2.785,22.379,7.671,29.609,8.893.78,19.177-1.785,30.145-8.136,33.442-19.297,60.559-66.224,60.559-104.847,0-12.38-2.785-22.374-7.672-29.651Z"/>
  <path class="uuid-eb840224-ecb4-4851-94c1-e130f3930b62" d="M273.752,248.174c-8.353,4.835-15.218.901-15.218-8.798s6.865-21.495,15.218-26.355c8.429-4.865,15.218-.906,15.218,8.794s-6.788,21.495-15.218,26.358Z"/>
  <polygon class="uuid-e74373f7-1662-4fd0-89e8-af1e1a678d4e" points="195.241 299.203 195.241 299.177 195.193 299.152 195.193 299.129 195.241 299.203"/>
  <polygon class="uuid-6accf1dd-50ca-498d-bb06-52c7fdf1a039" points="195.241 299.081 195.241 299.03 195.193 299.007 195.241 299.081"/>
  <line class="uuid-93892e3e-ef15-4798-9acd-4fd56e087027" x1="128.869" y1="215.56" x2="135.417" y2="267.005"/>
  <line class="uuid-93892e3e-ef15-4798-9acd-4fd56e087027" x1="171.373" y1="264.344" x2="169.055" y2="246.048"/>
  <line class="uuid-93892e3e-ef15-4798-9acd-4fd56e087027" x1="149.826" y1="274.456" x2="143.674" y2="224.158"/>
  <line class="uuid-93892e3e-ef15-4798-9acd-4fd56e087027" x1="206.746" y1="140.956" x2="176.822" y2="123.687"/>
  <path class="uuid-eb840224-ecb4-4851-94c1-e130f3930b62" d="M165.217,238.155c-.706-1.342-1.39-2.612-2.028-3.76"/>
  <line class="uuid-93892e3e-ef15-4798-9acd-4fd56e087027" x1="335.19" y1="144.205" x2="314.058" y2="131.943"/>
  <line class="uuid-93892e3e-ef15-4798-9acd-4fd56e087027" x1="263.004" y1="249.223" x2="231.42" y2="234.222"/>
  <path class="uuid-eb840224-ecb4-4851-94c1-e130f3930b62" d="M159.529,246.12l-.299-.121-2.318-.71-.169-.048c-.838-.339-1.133-.924-1.516-1.686l-.048-.221c-.61-2.052-.293-4.168.511-6.107.754-1.362,2.116-3.834,3.959-3.834"/>
  <line class="uuid-93892e3e-ef15-4798-9acd-4fd56e087027" x1="254.82" y1="193.159" x2="284.502" y2="211.969"/>
  <path class="uuid-eb840224-ecb4-4851-94c1-e130f3930b62" d="M176.822,123.687c-36.412-10.814-78.423,65.706-51.788,89.676"/>
  <line class="uuid-1fbe709d-78f2-48f3-b82d-59c8da01b556" x1="239.309" y1="333.719" x2="210.164" y2="283.228"/>
  <line class="uuid-1fbe709d-78f2-48f3-b82d-59c8da01b556" x1="252.967" y1="334.793" x2="239.478" y2="311.489"/>
  <line class="uuid-1fbe709d-78f2-48f3-b82d-59c8da01b556" x1="223.285" y1="283.444" x2="212.095" y2="264.028"/>
  <line class="uuid-1fbe709d-78f2-48f3-b82d-59c8da01b556" x1="264.737" y1="332.667" x2="255.454" y2="316.547"/>
  <line class="uuid-1fbe709d-78f2-48f3-b82d-59c8da01b556" x1="223.065" y1="260.507" x2="215.809" y2="247.853"/>
  <line class="uuid-1fbe709d-78f2-48f3-b82d-59c8da01b556" x1="275.488" y1="328.686" x2="267.842" y2="315.4"/>
  <line class="uuid-1fbe709d-78f2-48f3-b82d-59c8da01b556" x1="226.482" y1="243.8" x2="220.548" y2="233.61"/>
  <line class="uuid-1fbe709d-78f2-48f3-b82d-59c8da01b556" x1="285.478" y1="323.388" x2="278.685" y2="311.662"/>
  <line class="uuid-1fbe709d-78f2-48f3-b82d-59c8da01b556" x1="231.368" y1="229.729" x2="226.192" y2="220.715"/>
  <line class="uuid-1fbe709d-78f2-48f3-b82d-59c8da01b556" x1="294.834" y1="317.011" x2="288.631" y2="306.311"/>
  <line class="uuid-1fbe709d-78f2-48f3-b82d-59c8da01b556" x1="237.182" y1="217.171" x2="232.421" y2="208.915"/>
  <line class="uuid-1fbe709d-78f2-48f3-b82d-59c8da01b556" x1="303.654" y1="309.755" x2="297.862" y2="299.693"/>
  <line class="uuid-1fbe709d-78f2-48f3-b82d-59c8da01b556" x1="243.68" y1="205.84" x2="239.135" y2="198.02"/>
  <line class="uuid-1fbe709d-78f2-48f3-b82d-59c8da01b556" x1="312.031" y1="301.62" x2="306.461" y2="291.97"/>
  <line class="uuid-1fbe709d-78f2-48f3-b82d-59c8da01b556" x1="250.813" y1="195.626" x2="246.395" y2="187.979"/>
  <line class="uuid-1fbe709d-78f2-48f3-b82d-59c8da01b556" x1="319.872" y1="292.706" x2="314.401" y2="283.25"/>
  <line class="uuid-1fbe709d-78f2-48f3-b82d-59c8da01b556" x1="258.486" y1="186.346" x2="254.062" y2="178.722"/>
  <line class="uuid-1fbe709d-78f2-48f3-b82d-59c8da01b556" x1="327.297" y1="282.981" x2="321.852" y2="273.529"/>
  <line class="uuid-1fbe709d-78f2-48f3-b82d-59c8da01b556" x1="266.716" y1="178.064" x2="262.272" y2="170.271"/>
  <line class="uuid-1fbe709d-78f2-48f3-b82d-59c8da01b556" x1="334.262" y1="272.428" x2="328.692" y2="262.828"/>
  <line class="uuid-1fbe709d-78f2-48f3-b82d-59c8da01b556" x1="275.609" y1="170.782" x2="270.896" y2="162.65"/>
  <line class="uuid-1fbe709d-78f2-48f3-b82d-59c8da01b556" x1="340.709" y1="261.023" x2="334.895" y2="251.007"/>
  <line class="uuid-1fbe709d-78f2-48f3-b82d-59c8da01b556" x1="285.087" y1="164.7" x2="280.031" y2="155.907"/>
  <line class="uuid-1fbe709d-78f2-48f3-b82d-59c8da01b556" x1="346.573" y1="248.585" x2="340.296" y2="237.791"/>
  <line class="uuid-1fbe709d-78f2-48f3-b82d-59c8da01b556" x1="295.419" y1="160.035" x2="289.727" y2="150.141"/>
  <line class="uuid-1fbe709d-78f2-48f3-b82d-59c8da01b556" x1="351.677" y1="234.91" x2="344.594" y2="222.642"/>
  <line class="uuid-1fbe709d-78f2-48f3-b82d-59c8da01b556" x1="306.929" y1="157.349" x2="300.136" y2="145.601"/>
  <line class="uuid-1fbe709d-78f2-48f3-b82d-59c8da01b556" x1="355.879" y1="219.592" x2="346.938" y2="204.081"/>
  <line class="uuid-1fbe709d-78f2-48f3-b82d-59c8da01b556" x1="320.384" y1="158.129" x2="311.494" y2="142.669"/>
  <line class="uuid-1fbe709d-78f2-48f3-b82d-59c8da01b556" x1="359.226" y1="202.808" x2="323.636" y2="141.177"/>
  <line class="uuid-1fbe709d-78f2-48f3-b82d-59c8da01b556" x1="356.342" y1="175.178" x2="342.177" y2="150.631"/>
  <line class="uuid-1fbe709d-78f2-48f3-b82d-59c8da01b556" x1="257.555" y1="313.346" x2="239.43" y2="302.868"/>
  <line class="uuid-1fbe709d-78f2-48f3-b82d-59c8da01b556" x1="274.51" y1="310.072" x2="254.578" y2="298.592"/>
  <line class="uuid-1fbe709d-78f2-48f3-b82d-59c8da01b556" x1="286.527" y1="304.015" x2="266.205" y2="292.264"/>
  <line class="uuid-1fbe709d-78f2-48f3-b82d-59c8da01b556" x1="296.57" y1="296.807" x2="276.072" y2="284.935"/>
  <line class="uuid-1fbe709d-78f2-48f3-b82d-59c8da01b556" x1="305.338" y1="288.793" x2="284.672" y2="276.851"/>
  <line class="uuid-1fbe709d-78f2-48f3-b82d-59c8da01b556" x1="313.08" y1="280.221" x2="292.343" y2="268.253"/>
  <line class="uuid-1fbe709d-78f2-48f3-b82d-59c8da01b556" x1="319.92" y1="271.133" x2="299.183" y2="259.164"/>
  <line class="uuid-1fbe709d-78f2-48f3-b82d-59c8da01b556" x1="326.027" y1="261.607" x2="305.24" y2="249.638"/>
  <line class="uuid-1fbe709d-78f2-48f3-b82d-59c8da01b556" x1="331.304" y1="251.64" x2="310.567" y2="239.697"/>
  <line class="uuid-1fbe709d-78f2-48f3-b82d-59c8da01b556" x1="335.826" y1="241.235" x2="315.207" y2="229.314"/>
  <line class="uuid-1fbe709d-78f2-48f3-b82d-59c8da01b556" x1="339.56" y1="230.339" x2="318.992" y2="218.467"/>
  <line class="uuid-1fbe709d-78f2-48f3-b82d-59c8da01b556" x1="342.272" y1="218.857" x2="321.9" y2="207.083"/>
  <line class="uuid-1fbe709d-78f2-48f3-b82d-59c8da01b556" x1="343.74" y1="206.644" x2="323.584" y2="195.04"/>
  <line class="uuid-1fbe709d-78f2-48f3-b82d-59c8da01b556" x1="343.273" y1="193.38" x2="323.636" y2="182.045"/>
  <line class="uuid-1fbe709d-78f2-48f3-b82d-59c8da01b556" x1="338.802" y1="177.747" x2="320.678" y2="167.264"/>
  <line class="uuid-1fbe709d-78f2-48f3-b82d-59c8da01b556" x1="242.336" y1="299.814" x2="225.68" y2="270.912"/>
  <line class="uuid-1fbe709d-78f2-48f3-b82d-59c8da01b556" x1="263.935" y1="292.142" x2="231.42" y2="235.764"/>
  <line class="uuid-1fbe709d-78f2-48f3-b82d-59c8da01b556" x1="281.253" y1="276.925" x2="266.546" y2="251.471"/>
  <line class="uuid-1fbe709d-78f2-48f3-b82d-59c8da01b556" x1="296.57" y1="258.332" x2="285.209" y2="238.596"/>
  <line class="uuid-1fbe709d-78f2-48f3-b82d-59c8da01b556" x1="259.118" y1="193.428" x2="258.364" y2="192.159"/>
  <line class="uuid-1fbe709d-78f2-48f3-b82d-59c8da01b556" x1="310.394" y1="237.059" x2="273.924" y2="173.887"/>
  <line class="uuid-1fbe709d-78f2-48f3-b82d-59c8da01b556" x1="319.457" y1="207.645" x2="293.66" y2="162.989"/>
  <line class="uuid-1fbe709d-78f2-48f3-b82d-59c8da01b556" x1="240.531" y1="236.448" x2="235.838" y2="228.261"/>
  <line class="uuid-1fbe709d-78f2-48f3-b82d-59c8da01b556" x1="257.311" y1="242.946" x2="241.409" y2="215.364"/>
  <line class="uuid-1fbe709d-78f2-48f3-b82d-59c8da01b556" x1="260.634" y1="226.065" x2="248.202" y2="204.518"/>
  <line class="uuid-1fbe709d-78f2-48f3-b82d-59c8da01b556" x1="267.89" y1="216.028" x2="256.332" y2="196.093"/>
  <line class="uuid-1fbe709d-78f2-48f3-b82d-59c8da01b556" x1="280.031" y1="241.062" x2="268.012" y2="220.151"/>
  <line class="uuid-1fbe709d-78f2-48f3-b82d-59c8da01b556" x1="103.904" y1="160.915" x2="93.741" y2="143.375"/>
  <line class="uuid-1fbe709d-78f2-48f3-b82d-59c8da01b556" x1="115.925" y1="136.634" x2="109.133" y2="124.86"/>
  <line class="uuid-1fbe709d-78f2-48f3-b82d-59c8da01b556" x1="132.581" y1="120.364" x2="131.654" y2="118.653"/>
  <line class="uuid-1fbe709d-78f2-48f3-b82d-59c8da01b556" x1="135.708" y1="217.783" x2="118.29" y2="187.568"/>
  <line class="uuid-1fbe709d-78f2-48f3-b82d-59c8da01b556" x1="147.556" y1="193.159" x2="127.062" y2="157.644"/>
  <line class="uuid-1fbe709d-78f2-48f3-b82d-59c8da01b556" x1="158.94" y1="167.658" x2="141.768" y2="137.904"/>
  <line class="uuid-1fbe709d-78f2-48f3-b82d-59c8da01b556" x1="174.574" y1="149.578" x2="160.626" y2="125.445"/>
  <line class="uuid-1fbe709d-78f2-48f3-b82d-59c8da01b556" x1="194.188" y1="138.466" x2="192.04" y2="134.701"/>
  <polygon class="uuid-bf54339e-3df9-4c41-8d37-8e94861ccc4b" points="195.241 299.081 195.241 299.03 195.193 299.007 195.241 299.081"/>
  <line class="uuid-1fbe709d-78f2-48f3-b82d-59c8da01b556" x1="207.504" y1="282.959" x2="190.307" y2="253.182"/>
  <line class="uuid-1fbe709d-78f2-48f3-b82d-59c8da01b556" x1="212.829" y1="247.049" x2="198.438" y2="222.109"/>
  <line class="uuid-1fbe709d-78f2-48f3-b82d-59c8da01b556" x1="223.185" y1="219.836" x2="210.116" y2="197.214"/>
  <line class="uuid-1fbe709d-78f2-48f3-b82d-59c8da01b556" x1="236.133" y1="197.02" x2="224.286" y2="176.548"/>
  <line class="uuid-1fbe709d-78f2-48f3-b82d-59c8da01b556" x1="250.935" y1="177.6" x2="239.845" y2="158.376"/>
  <line class="uuid-1fbe709d-78f2-48f3-b82d-59c8da01b556" x1="267.595" y1="161.282" x2="257.555" y2="143.915"/>
  <line class="uuid-1fbe709d-78f2-48f3-b82d-59c8da01b556" x1="286.236" y1="148.408" x2="277.637" y2="133.58"/>
  <line class="uuid-1fbe709d-78f2-48f3-b82d-59c8da01b556" x1="307.487" y1="140.152" x2="301.917" y2="130.452"/>
  <line class="uuid-1fbe709d-78f2-48f3-b82d-59c8da01b556" x1="168.882" y1="255.746" x2="150.294" y2="266.468"/>
  <line class="uuid-1fbe709d-78f2-48f3-b82d-59c8da01b556" x1="153.248" y1="238.696" x2="147.751" y2="241.871"/>
  <line class="uuid-1fbe709d-78f2-48f3-b82d-59c8da01b556" x1="152.564" y1="205.302" x2="149.315" y2="199.609"/>
  <line class="uuid-1fbe709d-78f2-48f3-b82d-59c8da01b556" x1="156.228" y1="189.054" x2="153.591" y2="184.465"/>
  <line class="uuid-1fbe709d-78f2-48f3-b82d-59c8da01b556" x1="161.895" y1="176.231" x2="159.577" y2="172.25"/>
  <line class="uuid-1fbe709d-78f2-48f3-b82d-59c8da01b556" x1="168.712" y1="165.506" x2="166.659" y2="162.014"/>
  <line class="uuid-1fbe709d-78f2-48f3-b82d-59c8da01b556" x1="176.48" y1="156.421" x2="174.795" y2="153.463"/>
  <line class="uuid-1fbe709d-78f2-48f3-b82d-59c8da01b556" x1="185.251" y1="149.018" x2="183.904" y2="146.744"/>
  <line class="uuid-1fbe709d-78f2-48f3-b82d-59c8da01b556" x1="195.193" y1="143.621" x2="194.483" y2="142.422"/>
  <line class="uuid-1fbe709d-78f2-48f3-b82d-59c8da01b556" x1="147.924" y1="273.086" x2="139.667" y2="277.825"/>
  <line class="uuid-1fbe709d-78f2-48f3-b82d-59c8da01b556" x1="146.456" y1="260.875" x2="137.103" y2="266.273"/>
  <line class="uuid-1fbe709d-78f2-48f3-b82d-59c8da01b556" x1="144.943" y1="248.685" x2="135.539" y2="254.13"/>
  <line class="uuid-1fbe709d-78f2-48f3-b82d-59c8da01b556" x1="143.501" y1="236.522" x2="134.023" y2="241.993"/>
  <line class="uuid-1fbe709d-78f2-48f3-b82d-59c8da01b556" x1="141.231" y1="224.77" x2="132.459" y2="229.825"/>
  <line class="uuid-1fbe709d-78f2-48f3-b82d-59c8da01b556" x1="113.188" y1="194.308" x2="105.347" y2="180.727"/>
  <line class="uuid-1fbe709d-78f2-48f3-b82d-59c8da01b556" x1="109.228" y1="164.873" x2="107.322" y2="161.647"/>
  <line class="uuid-1fbe709d-78f2-48f3-b82d-59c8da01b556" x1="114.235" y1="151.02" x2="112.723" y2="148.433"/>
  <line class="uuid-1fbe709d-78f2-48f3-b82d-59c8da01b556" x1="120.976" y1="140.104" x2="119.634" y2="137.756"/>
  <line class="uuid-1fbe709d-78f2-48f3-b82d-59c8da01b556" x1="128.99" y1="131.384" x2="127.648" y2="129.084"/>
  <line class="uuid-1fbe709d-78f2-48f3-b82d-59c8da01b556" x1="138.325" y1="124.956" x2="136.883" y2="122.464"/>
  <line class="uuid-1fbe709d-78f2-48f3-b82d-59c8da01b556" x1="149.584" y1="121.902" x2="147.924" y2="119.068"/>
</svg>