<?xml version="1.0" encoding="UTF-8"?>
<svg id="uuid-90001bf0-44d2-4bc9-99bf-7e34dc7af482" data-name="&amp;lt;Layer&amp;gt;" xmlns="http://www.w3.org/2000/svg" viewBox="0 0 451.11 451.11">
  <defs>
    <style>
      .uuid-85d53ec9-f574-45c9-b7c5-efa2b2c376db, .uuid-6563d3a1-074b-486d-904d-d5a545fec789, .uuid-11233eb5-b906-4957-a9ce-0ce59b26e799, .uuid-80ff6d25-84ed-43ba-ac4e-cb09e618d959 {
        stroke-miterlimit: 10;
      }

      .uuid-85d53ec9-f574-45c9-b7c5-efa2b2c376db, .uuid-6563d3a1-074b-486d-904d-d5a545fec789, .uuid-11233eb5-b906-4957-a9ce-0ce59b26e799, .uuid-80ff6d25-84ed-43ba-ac4e-cb09e618d959, .uuid-3f84a68e-ff2c-47d9-b8bd-ca7db8166718 {
        fill: none;
        stroke: #000;
        stroke-linecap: round;
      }

      .uuid-85d53ec9-f574-45c9-b7c5-efa2b2c376db, .uuid-80ff6d25-84ed-43ba-ac4e-cb09e618d959 {
        stroke-width: 1.163px;
      }

      .uuid-6563d3a1-074b-486d-904d-d5a545fec789 {
        stroke-width: 1.167px;
      }

      .uuid-11233eb5-b906-4957-a9ce-0ce59b26e799 {
        stroke-width: 1.159px;
      }

      .uuid-80ff6d25-84ed-43ba-ac4e-cb09e618d959, .uuid-3f84a68e-ff2c-47d9-b8bd-ca7db8166718 {
        fill-rule: evenodd;
      }

      .uuid-3f84a68e-ff2c-47d9-b8bd-ca7db8166718 {
        stroke-linejoin: round;
        stroke-width: 4.117px;
      }
    </style>
  </defs>
  <path class="uuid-3f84a68e-ff2c-47d9-b8bd-ca7db8166718" d="M318.189,139.241c.511.658,1.147,1.464,1.902,2.439l.052.052c4.47,5.862,11.847,17.076,16.487,26.797.758,1.516,1.394,3.006,1.979,4.422,5.766,14.338,8.672,29.557,8.768,44.8v1.953c-.17,15.902-3.419,31.757-9.747,46.562-6.105,14.287-15.045,27.625-26.893,39.181-11.773,11.553-25.306,20.225-39.721,26.017-.218.096-.465.144-.633.169-.979.148-.806-.857-.173-2.638,2.078-5.523,8.941-18.371,1.346-26.429-5.644-5.89-20.862-5.012-33.761-6.329-11.311-1.147-20.837-3.981-20.251-14.684.099-1.928.293-3.686.463-5.324,2.443-17.561,11.141-18.419,15.976-29.313,5.202-11.943,11.556-2.296,33.909-9.917,22.349-7.623,52.078-6.498,61.777-16.66,9.699-10.136-37.107,1.979-45.705-.173-8.573-2.149-10.332-12.506-16.535-12.139-6.159.343-2.69,11.479-9.578,13.607-6.913,2.124-25.38,5.346-26.553-2.543-4.35-30.193,19.003-20.641,20.398-22.304,5.276-6.13-3.959-11.16-1.295-18.905.415-1.221,1.101-2.543,2.274-3.933,8.351-10.067,16.608-11.848,20.957-18.882,4.372-7.035-10.21-12.411-3.544-17.908,6.572-5.323,41.357-3.444,47.56,1.638.247.147.367.293.541.441h0ZM217.421,96.88c-28.412,1.905-56.283,13.706-77.999,35.399-11.652,11.7-20.494,25.133-26.407,39.45-12.312,29.8-12.312,63.56,0,93.364,4.934,11.921,11.896,23.254,20.837,33.468.173.169.341.341.537.485.562.441,1.199.684,1.957.71,1.049.026,1.976-.269,2.612-1.027,8.136-9.356,31.61-15.806,33.173-28.091,1.223-9.162-13.948-12.775-17.955-21.083-4.47-9.43-.879-21.962-6.791-30.608-6.082-8.989-29.214-9.795-35.491-18.641-3.423-4.834-.906-12.138.953-17.781.754-2.444,3.76-3.882,6.251-4.544.463-.122.931-.195,1.394-.265,3.15-.395,6.446.363,9.6.411.295,0,34.711-5.228,45.337-9.819,10.579-4.592,4.765-10.653,9.405-12.554,4.665-1.907,11.969,12.138,19.177,5.934.585-.537,1.221-1.247,1.807-2.102,6.328-9.113,11.215-34.736,13.509-41.087,2.565-6.935,12.091-.173,14.586,1.295,2.487,1.438-4.422,14.901-1.151,17.366,3.201,2.443,16.66-6.057,18.345-7.767,10.115-9.993,7.599-19.225,1.907-23.746-5.693-4.518-22.985,1.493-32.978-7.837-.585-.515-1.219-.832-1.929-.906-.221-.025-.463-.047-.684-.025h0ZM317.647,138.799c-1.903-2.222-3.882-4.398-5.983-6.472-11.263-11.237-24.674-20.299-39.55-26.434-14.339-5.934-30.02-9.234-46.559-9.234-2.516,0-5.006.099-7.45.245M336.629,168.529c-4.35-9.674-9.917-18.667-16.487-26.797M134.389,299.046c1.611,1.881,3.348,3.664,5.106,5.449,11.259,11.211,24.623,20.273,39.524,26.429,14.364,5.94,30.049,9.211,46.536,9.211,15.851,0,30.948-3.004,44.826-8.501"/>
  <path class="uuid-3f84a68e-ff2c-47d9-b8bd-ca7db8166718" d="M225.555,83.568c-74.454,0-134.844,60.36-134.844,134.841s60.39,134.845,134.844,134.845,134.843-60.363,134.843-134.845-60.335-134.841-134.843-134.841Z"/>
  <path class="uuid-3f84a68e-ff2c-47d9-b8bd-ca7db8166718" d="M225.555,116.52c-73.237,0-132.644,50.25-132.644,112.246s59.407,112.273,132.644,112.273,132.693-50.272,132.693-112.273-59.407-112.246-132.693-112.246Z"/>
  <path class="uuid-3f84a68e-ff2c-47d9-b8bd-ca7db8166718" d="M91.568,208.272c0,48.98,59.996,88.725,133.915,88.725s133.867-39.745,133.867-88.725"/>
  <path class="uuid-3f84a68e-ff2c-47d9-b8bd-ca7db8166718" d="M125.621,127.93c-6.915,8.353-11.678,19.663-11.678,29.509,0,35.469,49.931,64.246,111.612,64.246s111.662-28.777,111.662-64.246c0-13.78-6.744-27.091-19.57-37.549"/>
  <path class="uuid-3f84a68e-ff2c-47d9-b8bd-ca7db8166718" d="M225.555,83.568v269.687M118.413,138.361c27.411-41.187,67.762-43.75,105.8-23.088,63.366,34.398,149.253,164.575,69.743,219.367M332.747,138.361c-27.411-41.187-67.762-43.75-105.8-23.088-63.366,34.398-149.253,164.575-69.815,219.367"/>
  <line class="uuid-85d53ec9-f574-45c9-b7c5-efa2b2c376db" x1="322.368" y1="302.358" x2="322.368" y2="302.358"/>
  <line class="uuid-85d53ec9-f574-45c9-b7c5-efa2b2c376db" x1="227.336" y1="343.011" x2="227.336" y2="343.011"/>
  <line class="uuid-85d53ec9-f574-45c9-b7c5-efa2b2c376db" x1="147.289" y1="323.852" x2="147.289" y2="323.852"/>
  <line class="uuid-85d53ec9-f574-45c9-b7c5-efa2b2c376db" x1="103.906" y1="268.607" x2="103.906" y2="268.607"/>
  <line class="uuid-85d53ec9-f574-45c9-b7c5-efa2b2c376db" x1="112.658" y1="166.096" x2="112.658" y2="166.096"/>
  <line class="uuid-85d53ec9-f574-45c9-b7c5-efa2b2c376db" x1="223.219" y1="94.72" x2="223.219" y2="94.72"/>
  <line class="uuid-85d53ec9-f574-45c9-b7c5-efa2b2c376db" x1="263.998" y1="100.868" x2="263.998" y2="100.868"/>
  <line class="uuid-85d53ec9-f574-45c9-b7c5-efa2b2c376db" x1="337.899" y1="166.096" x2="337.899" y2="166.096"/>
  <line class="uuid-85d53ec9-f574-45c9-b7c5-efa2b2c376db" x1="349.128" y1="219.705" x2="349.128" y2="219.705"/>
  <line class="uuid-85d53ec9-f574-45c9-b7c5-efa2b2c376db" x1="311.914" y1="306.884" x2="311.914" y2="306.884"/>
  <line class="uuid-85d53ec9-f574-45c9-b7c5-efa2b2c376db" x1="132.009" y1="299.871" x2="132.009" y2="299.871"/>
  <line class="uuid-85d53ec9-f574-45c9-b7c5-efa2b2c376db" x1="104.045" y1="243.518" x2="104.045" y2="243.518"/>
  <line class="uuid-85d53ec9-f574-45c9-b7c5-efa2b2c376db" x1="252.132" y1="102.987" x2="252.132" y2="102.987"/>
  <line class="uuid-85d53ec9-f574-45c9-b7c5-efa2b2c376db" x1="323.776" y1="150.856" x2="323.776" y2="150.856"/>
  <line class="uuid-85d53ec9-f574-45c9-b7c5-efa2b2c376db" x1="140.224" y1="300.037" x2="140.224" y2="300.037"/>
  <line class="uuid-85d53ec9-f574-45c9-b7c5-efa2b2c376db" x1="122.946" y1="268.445" x2="122.946" y2="268.445"/>
  <line class="uuid-85d53ec9-f574-45c9-b7c5-efa2b2c376db" x1="227.336" y1="112.587" x2="227.336" y2="112.587"/>
  <line class="uuid-85d53ec9-f574-45c9-b7c5-efa2b2c376db" x1="249.362" y1="127.912" x2="249.362" y2="127.912"/>
  <line class="uuid-85d53ec9-f574-45c9-b7c5-efa2b2c376db" x1="268.523" y1="135.539" x2="268.523" y2="135.539"/>
  <line class="uuid-85d53ec9-f574-45c9-b7c5-efa2b2c376db" x1="333.053" y1="166.574" x2="333.053" y2="166.574"/>
  <line class="uuid-85d53ec9-f574-45c9-b7c5-efa2b2c376db" x1="327.21" y1="263.699" x2="327.21" y2="263.699"/>
  <line class="uuid-85d53ec9-f574-45c9-b7c5-efa2b2c376db" x1="327.603" y1="268.445" x2="327.603" y2="268.445"/>
  <line class="uuid-85d53ec9-f574-45c9-b7c5-efa2b2c376db" x1="272.807" y1="327.348" x2="272.807" y2="327.348"/>
  <line class="uuid-85d53ec9-f574-45c9-b7c5-efa2b2c376db" x1="173.887" y1="270.859" x2="173.887" y2="270.859"/>
  <line class="uuid-85d53ec9-f574-45c9-b7c5-efa2b2c376db" x1="140.986" y1="216.352" x2="140.986" y2="216.352"/>
  <line class="uuid-85d53ec9-f574-45c9-b7c5-efa2b2c376db" x1="112.319" y1="179.136" x2="112.319" y2="179.136"/>
  <line class="uuid-85d53ec9-f574-45c9-b7c5-efa2b2c376db" x1="143.035" y1="203.059" x2="143.035" y2="203.059"/>
  <line class="uuid-85d53ec9-f574-45c9-b7c5-efa2b2c376db" x1="144.89" y1="199.516" x2="144.89" y2="199.516"/>
  <line class="uuid-85d53ec9-f574-45c9-b7c5-efa2b2c376db" x1="171.142" y1="167.546" x2="171.142" y2="167.546"/>
  <line class="uuid-85d53ec9-f574-45c9-b7c5-efa2b2c376db" x1="175.951" y1="170.169" x2="175.951" y2="170.169"/>
  <line class="uuid-85d53ec9-f574-45c9-b7c5-efa2b2c376db" x1="125.216" y1="282.088" x2="113.663" y2="262.083"/>
  <line class="uuid-6563d3a1-074b-486d-904d-d5a545fec789" x1="132.821" y1="295.264" x2="126.111" y2="283.638"/>
  <line class="uuid-11233eb5-b906-4957-a9ce-0ce59b26e799" x1="128.407" y1="242.458" x2="105.664" y2="203.07"/>
  <line class="uuid-85d53ec9-f574-45c9-b7c5-efa2b2c376db" x1="151.222" y1="281.982" x2="129.348" y2="244.092"/>
  <line class="uuid-85d53ec9-f574-45c9-b7c5-efa2b2c376db" x1="154.022" y1="286.827" x2="152.267" y2="283.792"/>
  <line class="uuid-85d53ec9-f574-45c9-b7c5-efa2b2c376db" x1="151.3" y1="236.954" x2="137.733" y2="213.456"/>
  <line class="uuid-85d53ec9-f574-45c9-b7c5-efa2b2c376db" x1="171.543" y1="272.014" x2="164.847" y2="260.417"/>
  <path class="uuid-80ff6d25-84ed-43ba-ac4e-cb09e618d959" d="M141.122,174.172l-11.67-20.215M127.35,150.319l-.243-.419"/>
  <line class="uuid-85d53ec9-f574-45c9-b7c5-efa2b2c376db" x1="145.538" y1="136.658" x2="142.696" y2="131.742"/>
  <line class="uuid-85d53ec9-f574-45c9-b7c5-efa2b2c376db" x1="164.446" y1="169.415" x2="147.594" y2="140.223"/>
  <line class="uuid-85d53ec9-f574-45c9-b7c5-efa2b2c376db" x1="236.355" y1="293.962" x2="221.137" y2="267.602"/>
  <line class="uuid-85d53ec9-f574-45c9-b7c5-efa2b2c376db" x1="165.605" y1="126.267" x2="160.652" y2="117.687"/>
  <line class="uuid-85d53ec9-f574-45c9-b7c5-efa2b2c376db" x1="183.656" y1="157.531" x2="167.687" y2="129.869"/>
  <line class="uuid-85d53ec9-f574-45c9-b7c5-efa2b2c376db" x1="182.106" y1="154.845" x2="182.018" y2="154.697"/>
  <line class="uuid-85d53ec9-f574-45c9-b7c5-efa2b2c376db" x1="261.107" y1="291.676" x2="235.631" y2="247.553"/>
  <line class="uuid-85d53ec9-f574-45c9-b7c5-efa2b2c376db" x1="264.039" y1="296.758" x2="263.281" y2="295.444"/>
  <line class="uuid-85d53ec9-f574-45c9-b7c5-efa2b2c376db" x1="280.173" y1="324.703" x2="276.103" y2="317.653"/>
  <line class="uuid-85d53ec9-f574-45c9-b7c5-efa2b2c376db" x1="187.485" y1="119.011" x2="180.745" y2="107.329"/>
  <line class="uuid-85d53ec9-f574-45c9-b7c5-efa2b2c376db" x1="196.452" y1="134.534" x2="189.642" y2="122.738"/>
  <line class="uuid-85d53ec9-f574-45c9-b7c5-efa2b2c376db" x1="208.344" y1="155.132" x2="198.561" y2="138.192"/>
  <line class="uuid-85d53ec9-f574-45c9-b7c5-efa2b2c376db" x1="247.283" y1="222.581" x2="235.328" y2="201.874"/>
  <line class="uuid-85d53ec9-f574-45c9-b7c5-efa2b2c376db" x1="283.885" y1="285.974" x2="258.221" y2="241.519"/>
  <line class="uuid-85d53ec9-f574-45c9-b7c5-efa2b2c376db" x1="300.093" y1="314.044" x2="285.968" y2="289.579"/>
  <line class="uuid-85d53ec9-f574-45c9-b7c5-efa2b2c376db" x1="206.722" y1="107.167" x2="202.321" y2="99.548"/>
  <line class="uuid-85d53ec9-f574-45c9-b7c5-efa2b2c376db" x1="211.27" y1="115.041" x2="207.409" y2="108.36"/>
  <line class="uuid-85d53ec9-f574-45c9-b7c5-efa2b2c376db" x1="215.169" y1="121.797" x2="212.962" y2="117.981"/>
  <line class="uuid-85d53ec9-f574-45c9-b7c5-efa2b2c376db" x1="264.229" y1="206.772" x2="252.386" y2="186.259"/>
  <line class="uuid-85d53ec9-f574-45c9-b7c5-efa2b2c376db" x1="305.045" y1="277.467" x2="280.842" y2="235.544"/>
  <line class="uuid-85d53ec9-f574-45c9-b7c5-efa2b2c376db" x1="317.11" y1="298.366" x2="307.065" y2="280.963"/>
  <line class="uuid-11233eb5-b906-4957-a9ce-0ce59b26e799" x1="238.264" y1="116.641" x2="230.884" y2="103.86"/>
  <line class="uuid-85d53ec9-f574-45c9-b7c5-efa2b2c376db" x1="245.273" y1="128.78" x2="238.769" y2="117.517"/>
  <line class="uuid-85d53ec9-f574-45c9-b7c5-efa2b2c376db" x1="290.593" y1="207.275" x2="266.004" y2="164.683"/>
  <line class="uuid-85d53ec9-f574-45c9-b7c5-efa2b2c376db" x1="296.48" y1="217.475" x2="292.605" y2="210.764"/>
  <line class="uuid-85d53ec9-f574-45c9-b7c5-efa2b2c376db" x1="331.301" y1="277.784" x2="304.538" y2="231.431"/>
  <line class="uuid-85d53ec9-f574-45c9-b7c5-efa2b2c376db" x1="310.392" y1="196.417" x2="276.022" y2="136.886"/>
  <line class="uuid-85d53ec9-f574-45c9-b7c5-efa2b2c376db" x1="320.764" y1="214.38" x2="312.393" y2="199.881"/>
  <line class="uuid-85d53ec9-f574-45c9-b7c5-efa2b2c376db" x1="341.751" y1="250.732" x2="326.816" y2="224.863"/>
  <line class="uuid-85d53ec9-f574-45c9-b7c5-efa2b2c376db" x1="346.416" y1="213.652" x2="300.406" y2="133.96"/>
  <line class="uuid-85d53ec9-f574-45c9-b7c5-efa2b2c376db" x1="304.77" y1="216.338" x2="304.77" y2="216.338"/>
  <line class="uuid-85d53ec9-f574-45c9-b7c5-efa2b2c376db" x1="264.414" y1="215.411" x2="264.414" y2="215.411"/>
  <line class="uuid-85d53ec9-f574-45c9-b7c5-efa2b2c376db" x1="223.219" y1="290.186" x2="223.219" y2="290.186"/>
  <line class="uuid-85d53ec9-f574-45c9-b7c5-efa2b2c376db" x1="240.101" y1="294.341" x2="240.101" y2="294.341"/>
  <line class="uuid-85d53ec9-f574-45c9-b7c5-efa2b2c376db" x1="315.207" y1="219.083" x2="315.207" y2="219.083"/>
  <line class="uuid-85d53ec9-f574-45c9-b7c5-efa2b2c376db" x1="313.472" y1="225.423" x2="313.472" y2="225.423"/>
  <line class="uuid-85d53ec9-f574-45c9-b7c5-efa2b2c376db" x1="302.223" y1="201.609" x2="302.223" y2="201.609"/>
  <line class="uuid-85d53ec9-f574-45c9-b7c5-efa2b2c376db" x1="231.175" y1="138.751" x2="231.175" y2="138.751"/>
  <line class="uuid-85d53ec9-f574-45c9-b7c5-efa2b2c376db" x1="244.082" y1="131.469" x2="244.082" y2="131.469"/>
  <line class="uuid-85d53ec9-f574-45c9-b7c5-efa2b2c376db" x1="110.311" y1="251.512" x2="110.311" y2="251.512"/>
  <line class="uuid-85d53ec9-f574-45c9-b7c5-efa2b2c376db" x1="227.336" y1="337.901" x2="227.336" y2="337.901"/>
  <line class="uuid-85d53ec9-f574-45c9-b7c5-efa2b2c376db" x1="255.624" y1="115.096" x2="255.624" y2="115.096"/>
  <line class="uuid-85d53ec9-f574-45c9-b7c5-efa2b2c376db" x1="216.723" y1="118.801" x2="216.723" y2="118.801"/>
  <line class="uuid-85d53ec9-f574-45c9-b7c5-efa2b2c376db" x1="132.181" y1="293.539" x2="132.181" y2="293.539"/>
  <line class="uuid-85d53ec9-f574-45c9-b7c5-efa2b2c376db" x1="271.062" y1="107.741" x2="271.062" y2="107.741"/>
  <line class="uuid-85d53ec9-f574-45c9-b7c5-efa2b2c376db" x1="203.266" y1="100.765" x2="203.266" y2="100.765"/>
  <line class="uuid-85d53ec9-f574-45c9-b7c5-efa2b2c376db" x1="160.339" y1="117.888" x2="160.339" y2="117.888"/>
  <line class="uuid-85d53ec9-f574-45c9-b7c5-efa2b2c376db" x1="318.133" y1="125.505" x2="318.133" y2="125.505"/>
  <line class="uuid-85d53ec9-f574-45c9-b7c5-efa2b2c376db" x1="132.412" y1="125.505" x2="132.412" y2="125.505"/>
</svg>