<?xml version="1.0" encoding="UTF-8"?>
<svg id="uuid-2e3f76b5-bb60-492a-b192-402a096d1d76" data-name="&amp;lt;Layer&amp;gt;" xmlns="http://www.w3.org/2000/svg" viewBox="0 0 451.11 451.11">
  <defs>
    <style>
      .uuid-6cf94ad3-b78b-43d8-b57a-2a906e3dadc1, .uuid-0e834d81-dfd1-4bc3-837a-d41e095166c1, .uuid-4d948464-1fc1-4b6c-a08a-7956b5153f39 {
        fill: none;
        stroke: #000;
        stroke-linecap: round;
      }

      .uuid-6cf94ad3-b78b-43d8-b57a-2a906e3dadc1, .uuid-4d948464-1fc1-4b6c-a08a-7956b5153f39 {
        stroke-linejoin: round;
        stroke-width: 4.113px;
      }

      .uuid-0e834d81-dfd1-4bc3-837a-d41e095166c1 {
        stroke-miterlimit: 10;
        stroke-width: 1.163px;
      }

      .uuid-4d948464-1fc1-4b6c-a08a-7956b5153f39 {
        fill-rule: evenodd;
      }
    </style>
  </defs>
  <path class="uuid-4d948464-1fc1-4b6c-a08a-7956b5153f39" d="M322.355,115.661c-48.023-26.406-106.506,18.883-136.358,53.789-37.054,43.262-68.347,110.856-63.587,168.459.636,7.717,3.006,14.534,9.747,18.883-5.224-3.032-27.235-15.097-30.413-18.129-9.185-8.815-7.448-30.314-6.52-41.698,6.034-71.596,54.72-152.259,116.79-188.95"/>
  <path class="uuid-4d948464-1fc1-4b6c-a08a-7956b5153f39" d="M239.374,123.869c32.394-18.713,61.707-20.446,82.981-8.208,21.178,12.264,34.3,38.571,34.3,76.046,0,3.59-.173,7.547-.441,11.311-.707,10.673-4.761,22.009-10.87,31.998-6.034,9.991-14.169,18.592-22.989,23.696"/>
  <path class="uuid-4d948464-1fc1-4b6c-a08a-7956b5153f39" d="M285.59,279.891c-4.934,9.941-11.089,19.471-18.05,27.823-8.431,10.163-18.077,18.761-28.239,24.627-10.163,5.861-19.788,8.425-28.213,7.962-6.961-.343-13.122-2.737-18.003-7.035"/>
  <path class="uuid-4d948464-1fc1-4b6c-a08a-7956b5153f39" d="M156.316,354.471c-8.889,5.108-16.951,5.862-23.059,2.906-6.081-2.98-10.088-9.651-10.846-19.468-.243-3.495-.413-7.258-.413-10.92.07-37.4,13.192-78.856,34.444-115.621,21.2-36.765,50.565-68.859,82.932-87.5"/>
  <path class="uuid-4d948464-1fc1-4b6c-a08a-7956b5153f39" d="M307.653,141.042c-17.47-10.089-41.628-8.647-68.279,6.741-26.653,15.39-50.834,41.823-68.299,72.064-17.492,30.267-28.291,64.419-28.291,95.197,0,3.175.078,6.034.295,9.113.295,3.76,1.859,6.399,4.18,7.547,2.392,1.149,5.567.806,9.059-1.148"/>
  <polyline class="uuid-4d948464-1fc1-4b6c-a08a-7956b5153f39" points="156.316 330.555 198.309 306.323 198.309 306.323"/>
  <path class="uuid-4d948464-1fc1-4b6c-a08a-7956b5153f39" d="M198.309,306.323c3.373-1.906,6.67-1.906,8.65.463,3.54,4.179,8.379,6.572,13.996,6.865,5.398.269,11.678-1.394,18.346-5.301,6.744-3.834,12.948-9.357,18.345-15.855,5.471-6.546,10.115-14.165,13.607-22.057,1.733-4.717,5.154-9.185,9.041-11.433"/>
  <path class="uuid-4d948464-1fc1-4b6c-a08a-7956b5153f39" d="M322.355,234.773c3.469-2.028,6.67-5.397,8.989-9.235,2.374-3.881,3.959-8.304,4.254-12.48.221-3.3.291-6.28.291-9.404.052-30.83-10.747-52.498-28.235-62.612"/>
  <path class="uuid-4d948464-1fc1-4b6c-a08a-7956b5153f39" d="M237.859,282.458c7.012-1.858,14.169-10.798,16.074-19.983,1.685-8.307-2.958-14.927-9.283-13.241-6.961,1.858-14.169,10.868-16.096,20.03-1.859,9.137,2.27,15.049,9.305,13.194Z"/>
  <path class="uuid-4d948464-1fc1-4b6c-a08a-7956b5153f39" d="M212.015,108.016c25.259-14.169,55.915-23.4,82.933-8.134"/>
  <line class="uuid-6cf94ad3-b78b-43d8-b57a-2a906e3dadc1" x1="294.948" y1="99.881" x2="322.355" y2="115.661"/>
  <line class="uuid-6cf94ad3-b78b-43d8-b57a-2a906e3dadc1" x1="322.355" y1="258.712" x2="285.59" y2="279.891"/>
  <line class="uuid-6cf94ad3-b78b-43d8-b57a-2a906e3dadc1" x1="193.085" y1="333.267" x2="156.316" y2="354.471"/>
  <line class="uuid-6cf94ad3-b78b-43d8-b57a-2a906e3dadc1" x1="280.293" y1="259.006" x2="322.355" y2="234.773"/>
  <line class="uuid-6cf94ad3-b78b-43d8-b57a-2a906e3dadc1" x1="314.393" y1="216.549" x2="325.604" y2="210.1"/>
  <line class="uuid-6cf94ad3-b78b-43d8-b57a-2a906e3dadc1" x1="292.431" y1="167.938" x2="300.345" y2="154.232"/>
  <line class="uuid-6cf94ad3-b78b-43d8-b57a-2a906e3dadc1" x1="239.374" y1="173.166" x2="239.374" y2="160.219"/>
  <line class="uuid-6cf94ad3-b78b-43d8-b57a-2a906e3dadc1" x1="186.292" y1="229.156" x2="178.378" y2="224.559"/>
  <line class="uuid-6cf94ad3-b78b-43d8-b57a-2a906e3dadc1" x1="164.282" y1="303.122" x2="153.071" y2="309.572"/>
  <line class="uuid-6cf94ad3-b78b-43d8-b57a-2a906e3dadc1" x1="312.292" y1="177.464" x2="252.197" y2="251.971"/>
  <line class="uuid-0e834d81-dfd1-4bc3-837a-d41e095166c1" x1="154.705" y1="354.176" x2="123.39" y2="336.052"/>
  <line class="uuid-0e834d81-dfd1-4bc3-837a-d41e095166c1" x1="176.888" y1="340.887" x2="159.102" y2="330.603"/>
  <line class="uuid-0e834d81-dfd1-4bc3-837a-d41e095166c1" x1="141.345" y1="320.371" x2="124.317" y2="310.573"/>
  <line class="uuid-0e834d81-dfd1-4bc3-837a-d41e095166c1" x1="218.292" y1="338.738" x2="181.064" y2="317.243"/>
  <line class="uuid-0e834d81-dfd1-4bc3-837a-d41e095166c1" x1="142.614" y1="295.06" x2="128.227" y2="286.708"/>
  <line class="uuid-0e834d81-dfd1-4bc3-837a-d41e095166c1" x1="244.235" y1="327.623" x2="222.81" y2="315.264"/>
  <line class="uuid-0e834d81-dfd1-4bc3-837a-d41e095166c1" x1="147.379" y1="271.708" x2="134.432" y2="264.234"/>
  <line class="uuid-0e834d81-dfd1-4bc3-837a-d41e095166c1" x1="261.944" y1="311.794" x2="248.363" y2="304.001"/>
  <line class="uuid-0e834d81-dfd1-4bc3-837a-d41e095166c1" x1="154.705" y1="249.892" x2="142.566" y2="242.857"/>
  <line class="uuid-0e834d81-dfd1-4bc3-837a-d41e095166c1" x1="275.844" y1="293.717" x2="263.923" y2="286.878"/>
  <line class="uuid-0e834d81-dfd1-4bc3-837a-d41e095166c1" x1="164.109" y1="229.204" x2="152.387" y2="222.459"/>
  <line class="uuid-0e834d81-dfd1-4bc3-837a-d41e095166c1" x1="289.697" y1="275.714" x2="274.552" y2="266.943"/>
  <line class="uuid-0e834d81-dfd1-4bc3-837a-d41e095166c1" x1="175.372" y1="209.684" x2="163.646" y2="202.896"/>
  <line class="uuid-0e834d81-dfd1-4bc3-837a-d41e095166c1" x1="312.414" y1="262.718" x2="294.579" y2="252.435"/>
  <line class="uuid-0e834d81-dfd1-4bc3-837a-d41e095166c1" x1="188.488" y1="191.17" x2="176.351" y2="184.205"/>
  <line class="uuid-0e834d81-dfd1-4bc3-837a-d41e095166c1" x1="332.982" y1="248.549" x2="317.227" y2="239.414"/>
  <line class="uuid-0e834d81-dfd1-4bc3-837a-d41e095166c1" x1="203.706" y1="173.924" x2="190.762" y2="166.422"/>
  <line class="uuid-0e834d81-dfd1-4bc3-837a-d41e095166c1" x1="346.319" y1="230.13" x2="334.424" y2="223.268"/>
  <line class="uuid-0e834d81-dfd1-4bc3-837a-d41e095166c1" x1="221.493" y1="158.071" x2="207.129" y2="149.762"/>
  <line class="uuid-0e834d81-dfd1-4bc3-837a-d41e095166c1" x1="354.112" y1="208.584" x2="337.33" y2="198.889"/>
  <line class="uuid-0e834d81-dfd1-4bc3-837a-d41e095166c1" x1="242.671" y1="144.243" x2="225.72" y2="134.422"/>
  <line class="uuid-0e834d81-dfd1-4bc3-837a-d41e095166c1" x1="355.091" y1="183.108" x2="332.154" y2="169.844"/>
  <line class="uuid-0e834d81-dfd1-4bc3-837a-d41e095166c1" x1="270.421" y1="134.201" x2="247.484" y2="120.963"/>
  <line class="uuid-0e834d81-dfd1-4bc3-837a-d41e095166c1" x1="351.499" y1="154.917" x2="273.696" y2="109.995"/>
  <line class="uuid-0e834d81-dfd1-4bc3-837a-d41e095166c1" x1="244.602" y1="276.421" x2="230.361" y2="268.237"/>
  <line class="uuid-0e834d81-dfd1-4bc3-837a-d41e095166c1" x1="250.927" y1="267.068" x2="235.342" y2="258.079"/>
  <line class="uuid-0e834d81-dfd1-4bc3-837a-d41e095166c1" x1="251.318" y1="254.289" x2="245.626" y2="250.967"/>
  <line class="uuid-0e834d81-dfd1-4bc3-837a-d41e095166c1" x1="123.095" y1="350.343" x2="95.861" y2="303.122"/>
  <line class="uuid-0e834d81-dfd1-4bc3-837a-d41e095166c1" x1="120.777" y1="323.689" x2="97.91" y2="284.092"/>
  <line class="uuid-0e834d81-dfd1-4bc3-837a-d41e095166c1" x1="122.337" y1="303.832" x2="101.159" y2="267.116"/>
  <line class="uuid-0e834d81-dfd1-4bc3-837a-d41e095166c1" x1="125.417" y1="286.635" x2="105.265" y2="251.725"/>
  <line class="uuid-0e834d81-dfd1-4bc3-837a-d41e095166c1" x1="129.497" y1="271.023" x2="110.1" y2="237.511"/>
  <line class="uuid-0e834d81-dfd1-4bc3-837a-d41e095166c1" x1="134.189" y1="256.685" x2="115.428" y2="224.222"/>
  <line class="uuid-0e834d81-dfd1-4bc3-837a-d41e095166c1" x1="139.486" y1="243.152" x2="121.314" y2="211.712"/>
  <line class="uuid-0e834d81-dfd1-4bc3-837a-d41e095166c1" x1="145.105" y1="230.425" x2="127.517" y2="199.938"/>
  <line class="uuid-0e834d81-dfd1-4bc3-837a-d41e095166c1" x1="151.214" y1="218.408" x2="134.089" y2="188.727"/>
  <line class="uuid-0e834d81-dfd1-4bc3-837a-d41e095166c1" x1="157.71" y1="207.023" x2="141.05" y2="178.174"/>
  <line class="uuid-0e834d81-dfd1-4bc3-837a-d41e095166c1" x1="164.503" y1="196.225" x2="148.232" y2="168.107"/>
  <line class="uuid-0e834d81-dfd1-4bc3-837a-d41e095166c1" x1="171.586" y1="185.989" x2="155.805" y2="158.582"/>
  <line class="uuid-0e834d81-dfd1-4bc3-837a-d41e095166c1" x1="179.036" y1="176.243" x2="163.646" y2="149.592"/>
  <line class="uuid-0e834d81-dfd1-4bc3-837a-d41e095166c1" x1="186.682" y1="166.885" x2="171.758" y2="141.042"/>
  <line class="uuid-0e834d81-dfd1-4bc3-837a-d41e095166c1" x1="194.695" y1="158.191" x2="180.185" y2="133.028"/>
  <line class="uuid-0e834d81-dfd1-4bc3-837a-d41e095166c1" x1="203" y1="149.983" x2="188.908" y2="125.604"/>
  <line class="uuid-0e834d81-dfd1-4bc3-837a-d41e095166c1" x1="211.551" y1="142.264" x2="197.966" y2="118.689"/>
  <line class="uuid-0e834d81-dfd1-4bc3-837a-d41e095166c1" x1="220.492" y1="135.129" x2="207.302" y2="112.314"/>
  <line class="uuid-0e834d81-dfd1-4bc3-837a-d41e095166c1" x1="229.675" y1="128.51" x2="217.07" y2="106.672"/>
  <line class="uuid-0e834d81-dfd1-4bc3-837a-d41e095166c1" x1="239.253" y1="122.476" x2="227.284" y2="101.787"/>
  <line class="uuid-0e834d81-dfd1-4bc3-837a-d41e095166c1" x1="249.169" y1="117.127" x2="238.032" y2="97.78"/>
  <line class="uuid-0e834d81-dfd1-4bc3-837a-d41e095166c1" x1="259.625" y1="112.608" x2="249.415" y2="94.898"/>
  <line class="uuid-0e834d81-dfd1-4bc3-837a-d41e095166c1" x1="270.547" y1="109.065" x2="261.653" y2="93.556"/>
  <line class="uuid-0e834d81-dfd1-4bc3-837a-d41e095166c1" x1="282.269" y1="106.72" x2="275.308" y2="94.605"/>
  <line class="uuid-0e834d81-dfd1-4bc3-837a-d41e095166c1" x1="294.948" y1="105.988" x2="291.577" y2="100.297"/>
</svg>