<?xml version="1.0" encoding="UTF-8"?>
<svg id="uuid-52f92ba2-10d3-4769-92a5-a648701b06c6" data-name="&amp;lt;Layer&amp;gt;" xmlns="http://www.w3.org/2000/svg" viewBox="0 0 451.11 451.11">
  <defs>
    <style>
      .uuid-09c923a3-60ec-46d0-bdd9-88e8256e1108, .uuid-95e4f948-41eb-40d9-b978-fe30d4d9fbdf, .uuid-7831786e-86d9-42df-af85-53053025000b, .uuid-bc57d936-c377-4a97-9404-11618178dde3 {
        fill: none;
        stroke: #000;
        stroke-linecap: round;
      }

      .uuid-09c923a3-60ec-46d0-bdd9-88e8256e1108, .uuid-7831786e-86d9-42df-af85-53053025000b {
        stroke-width: 4.113px;
      }

      .uuid-09c923a3-60ec-46d0-bdd9-88e8256e1108, .uuid-7831786e-86d9-42df-af85-53053025000b, .uuid-bc57d936-c377-4a97-9404-11618178dde3 {
        stroke-linejoin: round;
      }

      .uuid-95e4f948-41eb-40d9-b978-fe30d4d9fbdf {
        stroke-miterlimit: 10;
        stroke-width: 1.163px;
      }

      .uuid-7831786e-86d9-42df-af85-53053025000b, .uuid-bc57d936-c377-4a97-9404-11618178dde3 {
        fill-rule: evenodd;
      }

      .uuid-bc57d936-c377-4a97-9404-11618178dde3 {
        stroke-width: 4.117px;
      }
    </style>
  </defs>
  <g>
    <path class="uuid-7831786e-86d9-42df-af85-53053025000b" d="M240.468,82.702l-21.325,12.311-10.284,5.934-59.043,34.079-11.799,6.839-19.788,11.385c-2.98,1.928-4.639,3.907-6.524,6.887-1.615,3.05-2.134,4.894-2.612,8.209-.048.295-.096.659-.096.954"/>
    <line class="uuid-09c923a3-60ec-46d0-bdd9-88e8256e1108" x1="108.998" y1="353.56" x2="108.998" y2="174.282"/>
    <path class="uuid-7831786e-86d9-42df-af85-53053025000b" d="M119.815,362.96v-175.91c.01-5.052-.351-11.197.82-16.046,1.277-5.291,4.302-9.081,10.589-12.719l17.613-10.189,11.774-6.791"/>
    <path class="uuid-7831786e-86d9-42df-af85-53053025000b" d="M242.96,248.447c10.503-18.202,25.085-34.101,41.113-43.384,16.024-9.235,30.56-10.114,41.062-4.058,10.503,6.059,17.001,19.103,17.001,37.621s-6.498,39.061-17.001,57.259c-10.502,18.198-25.038,34.1-41.062,43.361-16.028,9.257-30.609,10.136-41.113,4.081-10.505-6.082-17.002-19.082-17.002-37.622s6.498-39.034,17.002-57.257Z"/>
    <path class="uuid-bc57d936-c377-4a97-9404-11618178dde3" d="M317.684,213.931c-4.396-2.543-9.621-3.592-15.438-3.006-5.567.563-11.722,2.612-18.172,6.35-6.45,3.714-12.606,8.721-18.176,14.634-5.814,6.129-11.042,13.242-15.438,20.836-4.42,7.599-7.915,15.708-10.332,23.795-2.348,7.793-3.618,15.634-3.618,23.085s1.269,13.8,3.618,18.908c2.417,5.324,5.912,9.331,10.332,11.869,4.396,2.517,9.625,3.592,15.438,3.006,5.57-.562,11.726-2.612,18.176-6.328,6.45-3.734,12.605-8.742,18.172-14.656,5.818-6.155,11.042-13.241,15.438-20.861,4.376-7.573,7.919-15.659,10.358-23.769,2.322-7.793,3.59-15.633,3.59-23.062s-1.268-13.802-3.59-18.931c-2.439-5.323-5.982-9.33-10.358-11.869Z"/>
    <path class="uuid-7831786e-86d9-42df-af85-53053025000b" d="M257.667,88.273c-.074-.052-.126-.052-.196-.1-2.096-1.121-4.304-.147-6.207.806"/>
    <line class="uuid-09c923a3-60ec-46d0-bdd9-88e8256e1108" x1="169.383" y1="254.382" x2="215.305" y2="227.853"/>
    <line class="uuid-09c923a3-60ec-46d0-bdd9-88e8256e1108" x1="169.383" y1="229.759" x2="233.85" y2="192.553"/>
    <line class="uuid-09c923a3-60ec-46d0-bdd9-88e8256e1108" x1="169.383" y1="203.621" x2="233.85" y2="166.393"/>
    <line class="uuid-09c923a3-60ec-46d0-bdd9-88e8256e1108" x1="111.705" y1="160.116" x2="122.531" y2="166.367"/>
    <path class="uuid-7831786e-86d9-42df-af85-53053025000b" d="M108.998,174.282c0-1.667-.056-3.455,0-4.982"/>
    <path class="uuid-7831786e-86d9-42df-af85-53053025000b" d="M109.804,360.719c-1.052-1.979-.806-4.986-.806-7.16"/>
    <line class="uuid-09c923a3-60ec-46d0-bdd9-88e8256e1108" x1="122.531" y1="368.998" x2="111.657" y2="362.769"/>
    <path class="uuid-7831786e-86d9-42df-af85-53053025000b" d="M157.878,259.731c0-2.515-1.809-3.564-3.933-2.295"/>
    <path class="uuid-7831786e-86d9-42df-af85-53053025000b" d="M153.945,266.597c2.123-1.273,3.933-4.35,3.933-6.867"/>
    <path class="uuid-7831786e-86d9-42df-af85-53053025000b" d="M149.912,264.301c0,2.539,1.811,3.54,4.033,2.296"/>
    <path class="uuid-7831786e-86d9-42df-af85-53053025000b" d="M153.945,257.436c-2.222,1.269-4.033,4.348-4.033,6.865"/>
    <path class="uuid-7831786e-86d9-42df-af85-53053025000b" d="M157.878,233.571c0-2.517-1.809-3.543-3.933-2.274"/>
    <path class="uuid-7831786e-86d9-42df-af85-53053025000b" d="M153.945,240.46c2.123-1.269,3.933-4.376,3.933-6.888"/>
    <path class="uuid-7831786e-86d9-42df-af85-53053025000b" d="M149.912,238.163c0,2.513,1.811,3.54,4.033,2.296"/>
    <path class="uuid-7831786e-86d9-42df-af85-53053025000b" d="M153.945,231.297c-2.222,1.243-4.033,4.35-4.033,6.867"/>
    <path class="uuid-7831786e-86d9-42df-af85-53053025000b" d="M157.878,208.971c0-2.543-1.809-3.569-3.933-2.296"/>
    <path class="uuid-7831786e-86d9-42df-af85-53053025000b" d="M153.945,215.833c2.123-1.269,3.933-4.344,3.933-6.861"/>
    <path class="uuid-7831786e-86d9-42df-af85-53053025000b" d="M149.912,213.536c0,2.517,1.811,3.544,4.033,2.296"/>
    <path class="uuid-7831786e-86d9-42df-af85-53053025000b" d="M153.945,206.675c-2.222,1.243-4.033,4.348-4.033,6.861"/>
    <polyline class="uuid-7831786e-86d9-42df-af85-53053025000b" points="136.748 172.77 136.748 351.289 210.909 308.49"/>
    <line class="uuid-09c923a3-60ec-46d0-bdd9-88e8256e1108" x1="247.942" y1="108.546" x2="247.942" y2="211.51"/>
    <line class="uuid-09c923a3-60ec-46d0-bdd9-88e8256e1108" x1="260.499" y1="200.715" x2="260.499" y2="94.303"/>
    <path class="uuid-7831786e-86d9-42df-af85-53053025000b" d="M121.578,368.24c-1.358-1.354-1.734-3.381-1.734-5.228"/>
    <path class="uuid-7831786e-86d9-42df-af85-53053025000b" d="M129.077,368.362c-2.539,1.515-4.887,1.615-6.546.636"/>
    <line class="uuid-09c923a3-60ec-46d0-bdd9-88e8256e1108" x1="214.084" y1="319.286" x2="129.077" y2="368.362"/>
    <path class="uuid-7831786e-86d9-42df-af85-53053025000b" d="M109.804,360.741c.415.696,1.203,1.623,1.902,2.028"/>
    <polyline class="uuid-7831786e-86d9-42df-af85-53053025000b" points="216.48 134.758 175.587 158.353 175.587 150.369"/>
    <path class="uuid-7831786e-86d9-42df-af85-53053025000b" d="M163.176,157.501c-8.842,5.106-17.613,10.162-26.429,15.27"/>
    <path class="uuid-7831786e-86d9-42df-af85-53053025000b" d="M222.513,123.227c8.477-4.86,16.977-9.795,25.429-14.68"/>
    <polyline class="uuid-7831786e-86d9-42df-af85-53053025000b" points="175.587 150.369 175.587 150.293 210.029 130.435"/>
    <polyline class="uuid-7831786e-86d9-42df-af85-53053025000b" points="157.952 130.898 157.952 136.858 163.102 139.84 163.102 164.071 169.553 167.785"/>
    <polyline class="uuid-7831786e-86d9-42df-af85-53053025000b" points="210.029 120.173 210.029 130.435 216.48 134.758 216.48 116.486"/>
    <polyline class="uuid-7831786e-86d9-42df-af85-53053025000b" points="221.292 106.346 169.553 137.592 169.553 167.785 222.513 137.249 222.513 107.03"/>
    <line class="uuid-09c923a3-60ec-46d0-bdd9-88e8256e1108" x1="157.952" y1="130.898" x2="169.553" y2="137.592"/>
    <polyline class="uuid-7831786e-86d9-42df-af85-53053025000b" points="222.513 107.03 215.257 102.855 210.909 100.338"/>
    <line class="uuid-09c923a3-60ec-46d0-bdd9-88e8256e1108" x1="251.264" y1="88.979" x2="221.244" y2="106.346"/>
    <path class="uuid-7831786e-86d9-42df-af85-53053025000b" d="M260.499,94.303c0-3.002-1.099-5.104-2.832-6.031"/>
    <path class="uuid-7831786e-86d9-42df-af85-53053025000b" d="M246.966,82.066c-2.395-1.101-4.25-.537-6.498.636"/>
    <line class="uuid-09c923a3-60ec-46d0-bdd9-88e8256e1108" x1="257.667" y1="88.273" x2="246.966" y2="82.066"/>
    <path class="uuid-7831786e-86d9-42df-af85-53053025000b" d="M175.587,158.353v-18.293c13.655-7.867,27.238-15.733,40.893-23.574v18.272c-13.655,7.866-27.239,15.733-40.893,23.595Z"/>
    <path class="uuid-7831786e-86d9-42df-af85-53053025000b" d="M242.032,342.738c-3.837-2.222-15.096-8.377-18.051-10.625-18.491-13.972-15.464-45.043-9.577-64.467,8.451-28.093,27.971-56.769,53.521-71.891"/>
    <line class="uuid-09c923a3-60ec-46d0-bdd9-88e8256e1108" x1="308.011" y1="191.137" x2="324.159" y2="200.468"/>
    <path class="uuid-7831786e-86d9-42df-af85-53053025000b" d="M311.896,211.561c8.647,4.813,14.048,15.46,14.048,30.535,0,29.972-21.035,66.394-46.931,81.369-13.068,7.547-24.842,8.183-33.39,3.124"/>
    <path class="uuid-7831786e-86d9-42df-af85-53053025000b" d="M267.925,195.755c11.847-6.646,27.237-11.505,40.086-4.618"/>
    <path class="uuid-bc57d936-c377-4a97-9404-11618178dde3" d="M288.834,270.552l-4.176,8.941-1.855-.537-1.273-.341-26.844-7.671,4.25-8.916,27.628,7.893,1.049.291,1.221.341h0ZM286.564,269.92l25.843-44.778M277.696,285.259l3.834-6.644"/>
  </g>
  <line class="uuid-95e4f948-41eb-40d9-b978-fe30d4d9fbdf" x1="189.657" y1="134.147" x2="184.601" y2="142.941"/>
  <line class="uuid-95e4f948-41eb-40d9-b978-fe30d4d9fbdf" x1="148.348" y1="137.981" x2="141.17" y2="150.491"/>
  <line class="uuid-95e4f948-41eb-40d9-b978-fe30d4d9fbdf" x1="128.782" y1="149.244" x2="120.599" y2="163.461"/>
  <line class="uuid-95e4f948-41eb-40d9-b978-fe30d4d9fbdf" x1="249.116" y1="85.487" x2="245.518" y2="91.71"/>
  <line class="uuid-95e4f948-41eb-40d9-b978-fe30d4d9fbdf" x1="234.409" y1="88.295" x2="227.227" y2="100.805"/>
  <line class="uuid-95e4f948-41eb-40d9-b978-fe30d4d9fbdf" x1="258.642" y1="195.509" x2="254.171" y2="203.18"/>
  <line class="uuid-95e4f948-41eb-40d9-b978-fe30d4d9fbdf" x1="258.762" y1="150.072" x2="249.748" y2="165.735"/>
  <line class="uuid-95e4f948-41eb-40d9-b978-fe30d4d9fbdf" x1="258.762" y1="104.907" x2="249.748" y2="120.567"/>
  <line class="uuid-95e4f948-41eb-40d9-b978-fe30d4d9fbdf" x1="235.535" y1="100.069" x2="224.247" y2="119.589"/>
  <line class="uuid-95e4f948-41eb-40d9-b978-fe30d4d9fbdf" x1="229.891" y1="331.844" x2="221.244" y2="326.862"/>
  <line class="uuid-95e4f948-41eb-40d9-b978-fe30d4d9fbdf" x1="225.126" y1="316.041" x2="212.766" y2="308.906"/>
  <line class="uuid-95e4f948-41eb-40d9-b978-fe30d4d9fbdf" x1="224.42" y1="302.63" x2="211.593" y2="295.226"/>
  <line class="uuid-95e4f948-41eb-40d9-b978-fe30d4d9fbdf" x1="225.836" y1="290.388" x2="212.646" y2="282.794"/>
  <line class="uuid-95e4f948-41eb-40d9-b978-fe30d4d9fbdf" x1="228.449" y1="278.883" x2="215.089" y2="271.164"/>
  <line class="uuid-95e4f948-41eb-40d9-b978-fe30d4d9fbdf" x1="232.113" y1="267.915" x2="218.632" y2="260.174"/>
  <line class="uuid-95e4f948-41eb-40d9-b978-fe30d4d9fbdf" x1="236.561" y1="257.461" x2="223.028" y2="249.691"/>
  <line class="uuid-95e4f948-41eb-40d9-b978-fe30d4d9fbdf" x1="241.786" y1="247.469" x2="228.327" y2="239.676"/>
  <line class="uuid-95e4f948-41eb-40d9-b978-fe30d4d9fbdf" x1="247.894" y1="237.943" x2="234.361" y2="230.15"/>
  <line class="uuid-95e4f948-41eb-40d9-b978-fe30d4d9fbdf" x1="254.687" y1="228.854" x2="241.274" y2="221.087"/>
  <line class="uuid-95e4f948-41eb-40d9-b978-fe30d4d9fbdf" x1="262.406" y1="220.256" x2="249.068" y2="212.562"/>
  <line class="uuid-95e4f948-41eb-40d9-b978-fe30d4d9fbdf" x1="271.126" y1="212.268" x2="257.936" y2="204.644"/>
  <line class="uuid-95e4f948-41eb-40d9-b978-fe30d4d9fbdf" x1="281.119" y1="204.99" x2="268.218" y2="197.514"/>
  <line class="uuid-95e4f948-41eb-40d9-b978-fe30d4d9fbdf" x1="293.088" y1="198.834" x2="280.872" y2="191.799"/>
  <line class="uuid-95e4f948-41eb-40d9-b978-fe30d4d9fbdf" x1="311.551" y1="196.479" x2="299.346" y2="189.46"/>
  <line class="uuid-95e4f948-41eb-40d9-b978-fe30d4d9fbdf" x1="339.231" y1="225.874" x2="332.927" y2="236.868"/>
  <line class="uuid-95e4f948-41eb-40d9-b978-fe30d4d9fbdf" x1="277.918" y1="332.113" x2="271.637" y2="343.055"/>
  <line class="uuid-95e4f948-41eb-40d9-b978-fe30d4d9fbdf" x1="326.114" y1="203.547" x2="320.301" y2="213.588"/>
  <line class="uuid-95e4f948-41eb-40d9-b978-fe30d4d9fbdf" x1="251.484" y1="332.771" x2="245.698" y2="342.838"/>
  <line class="uuid-95e4f948-41eb-40d9-b978-fe30d4d9fbdf" x1="302.245" y1="199.736" x2="296.142" y2="210.241"/>
  <line class="uuid-95e4f948-41eb-40d9-b978-fe30d4d9fbdf" x1="236.509" y1="313.524" x2="230.476" y2="323.977"/>
  <line class="uuid-95e4f948-41eb-40d9-b978-fe30d4d9fbdf" x1="260.036" y1="227.611" x2="233.555" y2="273.485"/>
  <line class="uuid-95e4f948-41eb-40d9-b978-fe30d4d9fbdf" x1="167.647" y1="156.378" x2="165.204" y2="154.958"/>
  <line class="uuid-95e4f948-41eb-40d9-b978-fe30d4d9fbdf" x1="167.647" y1="143.356" x2="165.204" y2="141.914"/>
  <line class="uuid-95e4f948-41eb-40d9-b978-fe30d4d9fbdf" x1="189.193" y1="323.146" x2="181.864" y2="335.803"/>
  <line class="uuid-95e4f948-41eb-40d9-b978-fe30d4d9fbdf" x1="150.06" y1="345.718" x2="142.734" y2="358.397"/>
  <line class="uuid-95e4f948-41eb-40d9-b978-fe30d4d9fbdf" x1="135.184" y1="326.373" x2="121.53" y2="350.02"/>
  <line class="uuid-95e4f948-41eb-40d9-b978-fe30d4d9fbdf" x1="135.184" y1="281.204" x2="121.53" y2="304.874"/>
  <line class="uuid-95e4f948-41eb-40d9-b978-fe30d4d9fbdf" x1="135.184" y1="236.062" x2="121.53" y2="259.731"/>
  <line class="uuid-95e4f948-41eb-40d9-b978-fe30d4d9fbdf" x1="161.418" y1="145.358" x2="151.793" y2="162.069"/>
  <line class="uuid-95e4f948-41eb-40d9-b978-fe30d4d9fbdf" x1="135.184" y1="190.894" x2="121.53" y2="214.563"/>
  <line class="uuid-95e4f948-41eb-40d9-b978-fe30d4d9fbdf" x1="118.034" y1="352.29" x2="110.853" y2="356.444"/>
  <line class="uuid-95e4f948-41eb-40d9-b978-fe30d4d9fbdf" x1="118.034" y1="339.246" x2="110.853" y2="343.396"/>
  <line class="uuid-95e4f948-41eb-40d9-b978-fe30d4d9fbdf" x1="118.034" y1="326.199" x2="110.853" y2="330.354"/>
  <line class="uuid-95e4f948-41eb-40d9-b978-fe30d4d9fbdf" x1="118.034" y1="313.155" x2="110.853" y2="317.31"/>
  <line class="uuid-95e4f948-41eb-40d9-b978-fe30d4d9fbdf" x1="118.034" y1="300.135" x2="110.853" y2="304.289"/>
  <line class="uuid-95e4f948-41eb-40d9-b978-fe30d4d9fbdf" x1="118.034" y1="287.092" x2="110.853" y2="291.245"/>
  <line class="uuid-95e4f948-41eb-40d9-b978-fe30d4d9fbdf" x1="118.034" y1="274.07" x2="110.853" y2="278.199"/>
  <line class="uuid-95e4f948-41eb-40d9-b978-fe30d4d9fbdf" x1="118.034" y1="261.026" x2="110.853" y2="265.155"/>
  <line class="uuid-95e4f948-41eb-40d9-b978-fe30d4d9fbdf" x1="118.034" y1="247.983" x2="110.853" y2="252.112"/>
  <line class="uuid-95e4f948-41eb-40d9-b978-fe30d4d9fbdf" x1="118.034" y1="234.937" x2="110.853" y2="239.09"/>
  <line class="uuid-95e4f948-41eb-40d9-b978-fe30d4d9fbdf" x1="118.034" y1="221.919" x2="110.853" y2="226.047"/>
  <line class="uuid-95e4f948-41eb-40d9-b978-fe30d4d9fbdf" x1="118.034" y1="208.871" x2="110.853" y2="213.025"/>
  <line class="uuid-95e4f948-41eb-40d9-b978-fe30d4d9fbdf" x1="118.034" y1="195.854" x2="110.899" y2="199.983"/>
  <line class="uuid-95e4f948-41eb-40d9-b978-fe30d4d9fbdf" x1="118.034" y1="182.806" x2="110.899" y2="186.935"/>
  <line class="uuid-95e4f948-41eb-40d9-b978-fe30d4d9fbdf" x1="119.377" y1="169.006" x2="110.853" y2="173.94"/>
  <line class="uuid-95e4f948-41eb-40d9-b978-fe30d4d9fbdf" x1="267.243" y1="272.558" x2="267.243" y2="266.303"/>
  <line class="uuid-95e4f948-41eb-40d9-b978-fe30d4d9fbdf" x1="278.502" y1="275.781" x2="278.502" y2="269.53"/>
  <line class="uuid-95e4f948-41eb-40d9-b978-fe30d4d9fbdf" x1="279.014" y1="327.472" x2="277.524" y2="326.59"/>
  <line class="uuid-95e4f948-41eb-40d9-b978-fe30d4d9fbdf" x1="289.982" y1="320.754" x2="288.153" y2="319.705"/>
  <line class="uuid-95e4f948-41eb-40d9-b978-fe30d4d9fbdf" x1="298.996" y1="312.913" x2="297.017" y2="311.765"/>
  <line class="uuid-95e4f948-41eb-40d9-b978-fe30d4d9fbdf" x1="306.668" y1="304.315" x2="304.568" y2="303.115"/>
  <line class="uuid-95e4f948-41eb-40d9-b978-fe30d4d9fbdf" x1="313.213" y1="295.079" x2="311.139" y2="293.884"/>
  <line class="uuid-95e4f948-41eb-40d9-b978-fe30d4d9fbdf" x1="318.859" y1="285.285" x2="316.783" y2="284.063"/>
  <line class="uuid-95e4f948-41eb-40d9-b978-fe30d4d9fbdf" x1="323.501" y1="274.928" x2="321.422" y2="273.727"/>
  <line class="uuid-95e4f948-41eb-40d9-b978-fe30d4d9fbdf" x1="327.041" y1="263.959" x2="325.062" y2="262.785"/>
  <line class="uuid-95e4f948-41eb-40d9-b978-fe30d4d9fbdf" x1="329.189" y1="252.134" x2="327.382" y2="251.085"/>
  <line class="uuid-95e4f948-41eb-40d9-b978-fe30d4d9fbdf" x1="329.363" y1="239.19" x2="327.847" y2="238.332"/>
</svg>