<?xml version="1.0" encoding="UTF-8"?>
<svg id="uuid-9f2198ef-f611-4e03-a688-7dd4c6027091" data-name="&amp;lt;Layer&amp;gt;" xmlns="http://www.w3.org/2000/svg" viewBox="0 0 451.11 451.11">
  <defs>
    <style>
      .uuid-a717c4cb-41f9-483b-a05d-310481b84a00, .uuid-40055ef3-426a-432b-868b-48059468901d, .uuid-c4bd2019-9b74-467f-9d89-ae962fc2fc38 {
        fill: none;
        stroke: #000;
        stroke-linecap: round;
      }

      .uuid-a717c4cb-41f9-483b-a05d-310481b84a00, .uuid-c4bd2019-9b74-467f-9d89-ae962fc2fc38 {
        stroke-linejoin: round;
        stroke-width: 4.113px;
      }

      .uuid-40055ef3-426a-432b-868b-48059468901d {
        stroke-miterlimit: 10;
        stroke-width: 1.163px;
      }

      .uuid-c4bd2019-9b74-467f-9d89-ae962fc2fc38 {
        fill-rule: evenodd;
      }
    </style>
  </defs>
  <polyline class="uuid-c4bd2019-9b74-467f-9d89-ae962fc2fc38" points="134.878 340.581 134.926 229.262 153.856 240.182 153.808 351.545"/>
  <polyline class="uuid-c4bd2019-9b74-467f-9d89-ae962fc2fc38" points="153.856 240.182 134.926 229.262 134.926 193.13"/>
  <polyline class="uuid-c4bd2019-9b74-467f-9d89-ae962fc2fc38" points="316.231 110.444 316.183 146.498 153.856 240.182 153.856 204.051"/>
  <path class="uuid-c4bd2019-9b74-467f-9d89-ae962fc2fc38" d="M316.183,257.891c0,8.356-5.938,18.637-13.19,22.816-49.885,28.801-86.134,49.66-136.02,78.463-7.252,4.176-13.164.757-13.164-7.624"/>
  <polyline class="uuid-c4bd2019-9b74-467f-9d89-ae962fc2fc38" points="153.808 351.545 153.856 240.182 316.183 146.498"/>
  <path class="uuid-c4bd2019-9b74-467f-9d89-ae962fc2fc38" d="M253.571,149.869c3.542-2.028,6.376-.391,6.376,3.664,0,4.081-2.834,8.988-6.376,11.042-3.492,2.027-6.325.341-6.325-3.664,0-4.055,2.834-9.015,6.325-11.042Z"/>
  <path class="uuid-c4bd2019-9b74-467f-9d89-ae962fc2fc38" d="M275.534,137.214c3.469-2.027,6.328-.342,6.328,3.666,0,4.053-2.858,8.989-6.328,11.016-3.544,2.052-6.399.415-6.399-3.64,0-4.077,2.856-9.014,6.399-11.042Z"/>
  <path class="uuid-c4bd2019-9b74-467f-9d89-ae962fc2fc38" d="M297.422,124.561c3.47-1.98,6.325-.365,6.325,3.712,0,4.055-2.856,8.941-6.325,10.968-3.543,2.053-6.402.417-6.402-3.664,0-4.055,2.858-8.989,6.402-11.016Z"/>
  <polygon class="uuid-c4bd2019-9b74-467f-9d89-ae962fc2fc38" points="204.716 268.395 204.716 262.531 231.782 246.849 231.782 252.784 204.716 268.395"/>
  <polygon class="uuid-c4bd2019-9b74-467f-9d89-ae962fc2fc38" points="174.475 279.191 174.475 270.08 194.043 249.877 174.475 252.32 174.475 243.258 202.52 241.109 202.52 248.828 174.475 279.191"/>
  <line class="uuid-a717c4cb-41f9-483b-a05d-310481b84a00" x1="157.693" y1="360.049" x2="138.759" y2="349.128"/>
  <path class="uuid-c4bd2019-9b74-467f-9d89-ae962fc2fc38" d="M138.759,349.128c-3.296-2.686-3.469-4.372-3.881-8.548"/>
  <path class="uuid-c4bd2019-9b74-467f-9d89-ae962fc2fc38" d="M153.808,351.545c.415,4.131.585,5.818,3.885,8.503"/>
  <path class="uuid-c4bd2019-9b74-467f-9d89-ae962fc2fc38" d="M134.926,193.13c.415-9.109,5.519-17.929,13.19-22.815"/>
  <line class="uuid-a717c4cb-41f9-483b-a05d-310481b84a00" x1="148.117" y1="170.315" x2="284.109" y2="91.878"/>
  <path class="uuid-c4bd2019-9b74-467f-9d89-ae962fc2fc38" d="M284.109,91.878c3.786-1.711,5.35-2.395,9.305-.88"/>
  <line class="uuid-a717c4cb-41f9-483b-a05d-310481b84a00" x1="293.415" y1="90.998" x2="312.349" y2="101.893"/>
  <path class="uuid-c4bd2019-9b74-467f-9d89-ae962fc2fc38" d="M312.349,101.893c-3.959-1.49-5.523-.806-9.309.953"/>
  <line class="uuid-a717c4cb-41f9-483b-a05d-310481b84a00" x1="303.04" y1="102.846" x2="167.051" y2="181.283"/>
  <path class="uuid-c4bd2019-9b74-467f-9d89-ae962fc2fc38" d="M167.051,181.283c-7.671,4.886-12.779,13.706-13.194,22.768"/>
  <line class="uuid-a717c4cb-41f9-483b-a05d-310481b84a00" x1="153.856" y1="204.051" x2="153.856" y2="240.182"/>
  <path class="uuid-c4bd2019-9b74-467f-9d89-ae962fc2fc38" d="M303.04,102.846c7.256-4.18,13.192-.758,13.192,7.599"/>
  <line class="uuid-a717c4cb-41f9-483b-a05d-310481b84a00" x1="316.183" y1="146.498" x2="316.183" y2="257.891"/>
  <line class="uuid-40055ef3-426a-432b-868b-48059468901d" x1="194.043" y1="243.674" x2="191.427" y2="248.24"/>
  <line class="uuid-40055ef3-426a-432b-868b-48059468901d" x1="181.143" y1="266.025" x2="176.503" y2="274.039"/>
  <line class="uuid-40055ef3-426a-432b-868b-48059468901d" x1="180.385" y1="244.7" x2="177.331" y2="250.05"/>
  <line class="uuid-40055ef3-426a-432b-868b-48059468901d" x1="223.551" y1="254.006" x2="222.425" y2="255.791"/>
  <line class="uuid-40055ef3-426a-432b-868b-48059468901d" x1="152.344" y1="226.645" x2="136.489" y2="217.462"/>
  <line class="uuid-40055ef3-426a-432b-868b-48059468901d" x1="152.344" y1="213.577" x2="136.489" y2="204.414"/>
  <line class="uuid-40055ef3-426a-432b-868b-48059468901d" x1="152.687" y1="200.754" x2="136.563" y2="191.445"/>
  <line class="uuid-40055ef3-426a-432b-868b-48059468901d" x1="156.693" y1="190.055" x2="140.203" y2="180.55"/>
  <line class="uuid-40055ef3-426a-432b-868b-48059468901d" x1="164.239" y1="181.357" x2="148.165" y2="172.121"/>
  <line class="uuid-40055ef3-426a-432b-868b-48059468901d" x1="175.355" y1="174.737" x2="159.428" y2="165.55"/>
  <line class="uuid-40055ef3-426a-432b-868b-48059468901d" x1="186.614" y1="168.213" x2="170.759" y2="159.056"/>
  <line class="uuid-40055ef3-426a-432b-868b-48059468901d" x1="197.877" y1="161.715" x2="182.022" y2="152.532"/>
  <line class="uuid-40055ef3-426a-432b-868b-48059468901d" x1="209.212" y1="155.17" x2="193.333" y2="145.986"/>
  <line class="uuid-40055ef3-426a-432b-868b-48059468901d" x1="220.523" y1="148.647" x2="204.617" y2="139.485"/>
  <line class="uuid-40055ef3-426a-432b-868b-48059468901d" x1="231.782" y1="142.149" x2="215.927" y2="132.965"/>
  <line class="uuid-40055ef3-426a-432b-868b-48059468901d" x1="243.071" y1="135.652" x2="227.19" y2="126.467"/>
  <line class="uuid-40055ef3-426a-432b-868b-48059468901d" x1="254.38" y1="129.08" x2="238.526" y2="119.969"/>
  <line class="uuid-40055ef3-426a-432b-868b-48059468901d" x1="265.639" y1="122.582" x2="249.785" y2="113.399"/>
  <line class="uuid-40055ef3-426a-432b-868b-48059468901d" x1="276.976" y1="116.084" x2="261.048" y2="106.901"/>
  <line class="uuid-40055ef3-426a-432b-868b-48059468901d" x1="288.238" y1="109.586" x2="272.383" y2="100.403"/>
  <line class="uuid-40055ef3-426a-432b-868b-48059468901d" x1="299.57" y1="103.063" x2="283.716" y2="93.905"/>
  <line class="uuid-40055ef3-426a-432b-868b-48059468901d" x1="314.715" y1="126.125" x2="297.811" y2="155.34"/>
  <line class="uuid-40055ef3-426a-432b-868b-48059468901d" x1="313.666" y1="105.385" x2="303.236" y2="123.388"/>
  <line class="uuid-40055ef3-426a-432b-868b-48059468901d" x1="293.072" y1="140.979" x2="278.366" y2="166.48"/>
  <line class="uuid-40055ef3-426a-432b-868b-48059468901d" x1="300.133" y1="106.143" x2="282.079" y2="137.509"/>
  <line class="uuid-40055ef3-426a-432b-868b-48059468901d" x1="272.505" y1="153.996" x2="258.848" y2="177.739"/>
  <line class="uuid-40055ef3-426a-432b-868b-48059468901d" x1="280.64" y1="117.358" x2="260.83" y2="151.675"/>
  <line class="uuid-40055ef3-426a-432b-868b-48059468901d" x1="252.18" y1="166.65" x2="239.284" y2="188.954"/>
  <line class="uuid-40055ef3-426a-432b-868b-48059468901d" x1="261.879" y1="127.295" x2="218.786" y2="201.975"/>
  <line class="uuid-40055ef3-426a-432b-868b-48059468901d" x1="242.361" y1="138.558" x2="199.219" y2="213.234"/>
  <line class="uuid-40055ef3-426a-432b-868b-48059468901d" x1="222.793" y1="149.821" x2="179.704" y2="224.497"/>
  <line class="uuid-40055ef3-426a-432b-868b-48059468901d" x1="203.226" y1="161.131" x2="160.138" y2="235.808"/>
  <line class="uuid-40055ef3-426a-432b-868b-48059468901d" x1="183.171" y1="173.221" x2="155.03" y2="222.054"/>
</svg>