<?xml version="1.0" encoding="UTF-8"?>
<svg id="uuid-1ab19156-fdce-4f08-967b-5a8f1887b395" data-name="&amp;lt;Layer&amp;gt;" xmlns="http://www.w3.org/2000/svg" viewBox="0 0 451.11 451.11">
  <defs>
    <style>
      .uuid-f5cdbb8f-104c-4701-8d2a-237d64ae88de {
        stroke-miterlimit: 10;
        stroke-width: 1.163px;
      }

      .uuid-f5cdbb8f-104c-4701-8d2a-237d64ae88de, .uuid-3228f390-4b88-4b11-8bf0-01e7c2e29e2f {
        fill: none;
        stroke: #000;
        stroke-linecap: round;
      }

      .uuid-3228f390-4b88-4b11-8bf0-01e7c2e29e2f {
        fill-rule: evenodd;
        stroke-linejoin: round;
        stroke-width: 4.113px;
      }
    </style>
  </defs>
  <path class="uuid-3228f390-4b88-4b11-8bf0-01e7c2e29e2f" d="M308.099,216.042l30.435,17.587M112.65,288.322l31.757-18.345"/>
  <polyline class="uuid-3228f390-4b88-4b11-8bf0-01e7c2e29e2f" points="178.191 347.097 112.576 309.233 112.576 288.348 178.191 326.213"/>
  <polygon class="uuid-3228f390-4b88-4b11-8bf0-01e7c2e29e2f" points="178.191 326.213 338.534 233.654 338.534 254.539 178.191 347.097 178.191 326.213"/>
  <polyline class="uuid-3228f390-4b88-4b11-8bf0-01e7c2e29e2f" points="257.532 151.064 272.092 142.635 308.099 163.423"/>
  <polyline class="uuid-3228f390-4b88-4b11-8bf0-01e7c2e29e2f" points="180.413 308.648 144.406 287.859 144.406 128.612"/>
  <polyline class="uuid-3228f390-4b88-4b11-8bf0-01e7c2e29e2f" points="180.413 149.401 144.406 128.612 186.959 104.013 222.968 124.8"/>
  <polyline class="uuid-3228f390-4b88-4b11-8bf0-01e7c2e29e2f" points="222.968 138.676 229.54 134.915 257.532 151.064 265.543 155.704"/>
  <path class="uuid-3228f390-4b88-4b11-8bf0-01e7c2e29e2f" d="M222.968,180.278l42.574-24.574v32.293M265.543,259.499l-42.574,24.574"/>
  <polygon class="uuid-3228f390-4b88-4b11-8bf0-01e7c2e29e2f" points="180.413 308.648 180.413 149.401 222.968 124.8 222.968 284.073 180.413 308.648"/>
  <polygon class="uuid-3228f390-4b88-4b11-8bf0-01e7c2e29e2f" points="308.099 234.924 308.099 163.423 265.543 187.997 265.543 259.499 308.099 234.924"/>
  <line class="uuid-f5cdbb8f-104c-4701-8d2a-237d64ae88de" x1="252.477" y1="149.743" x2="242.531" y2="166.988"/>
  <line class="uuid-f5cdbb8f-104c-4701-8d2a-237d64ae88de" x1="242.999" y1="143.61" x2="224.48" y2="175.661"/>
  <line class="uuid-f5cdbb8f-104c-4701-8d2a-237d64ae88de" x1="232.907" y1="138.58" x2="224.823" y2="152.502"/>
  <line class="uuid-f5cdbb8f-104c-4701-8d2a-237d64ae88de" x1="325.516" y1="227.716" x2="315.648" y2="244.865"/>
  <line class="uuid-f5cdbb8f-104c-4701-8d2a-237d64ae88de" x1="315.597" y1="222.293" x2="310.026" y2="231.97"/>
  <line class="uuid-f5cdbb8f-104c-4701-8d2a-237d64ae88de" x1="306.707" y1="237.757" x2="296.082" y2="256.202"/>
  <line class="uuid-f5cdbb8f-104c-4701-8d2a-237d64ae88de" x1="287.14" y1="249.042" x2="276.511" y2="267.487"/>
  <line class="uuid-f5cdbb8f-104c-4701-8d2a-237d64ae88de" x1="267.622" y1="260.305" x2="256.947" y2="278.772"/>
  <line class="uuid-f5cdbb8f-104c-4701-8d2a-237d64ae88de" x1="248.054" y1="271.59" x2="237.381" y2="290.059"/>
  <line class="uuid-f5cdbb8f-104c-4701-8d2a-237d64ae88de" x1="228.487" y1="282.899" x2="217.862" y2="301.344"/>
  <line class="uuid-f5cdbb8f-104c-4701-8d2a-237d64ae88de" x1="208.968" y1="294.162" x2="198.294" y2="312.607"/>
  <line class="uuid-f5cdbb8f-104c-4701-8d2a-237d64ae88de" x1="189.402" y1="305.473" x2="178.728" y2="323.917"/>
  <line class="uuid-f5cdbb8f-104c-4701-8d2a-237d64ae88de" x1="175.185" y1="307.5" x2="168.665" y2="318.785"/>
  <line class="uuid-f5cdbb8f-104c-4701-8d2a-237d64ae88de" x1="165.412" y1="301.855" x2="158.918" y2="313.118"/>
  <line class="uuid-f5cdbb8f-104c-4701-8d2a-237d64ae88de" x1="155.665" y1="296.211" x2="149.094" y2="307.5"/>
  <line class="uuid-f5cdbb8f-104c-4701-8d2a-237d64ae88de" x1="145.849" y1="290.57" x2="139.347" y2="301.829"/>
  <line class="uuid-f5cdbb8f-104c-4701-8d2a-237d64ae88de" x1="142.817" y1="273.178" x2="129.357" y2="296.605"/>
  <line class="uuid-f5cdbb8f-104c-4701-8d2a-237d64ae88de" x1="123.323" y1="284.415" x2="119.879" y2="290.376"/>
  <line class="uuid-f5cdbb8f-104c-4701-8d2a-237d64ae88de" x1="189.939" y1="338.546" x2="182.44" y2="325.602"/>
  <line class="uuid-f5cdbb8f-104c-4701-8d2a-237d64ae88de" x1="199.686" y1="332.906" x2="192.187" y2="319.932"/>
  <line class="uuid-f5cdbb8f-104c-4701-8d2a-237d64ae88de" x1="209.432" y1="327.262" x2="202.006" y2="314.313"/>
  <line class="uuid-f5cdbb8f-104c-4701-8d2a-237d64ae88de" x1="219.252" y1="321.617" x2="211.753" y2="308.648"/>
  <line class="uuid-f5cdbb8f-104c-4701-8d2a-237d64ae88de" x1="228.998" y1="315.977" x2="221.526" y2="303.004"/>
  <line class="uuid-f5cdbb8f-104c-4701-8d2a-237d64ae88de" x1="238.819" y1="310.332" x2="231.346" y2="297.363"/>
  <line class="uuid-f5cdbb8f-104c-4701-8d2a-237d64ae88de" x1="248.566" y1="304.689" x2="241.093" y2="291.719"/>
  <line class="uuid-f5cdbb8f-104c-4701-8d2a-237d64ae88de" x1="258.339" y1="299.048" x2="250.84" y2="286.075"/>
  <line class="uuid-f5cdbb8f-104c-4701-8d2a-237d64ae88de" x1="268.085" y1="293.378" x2="260.659" y2="280.434"/>
  <line class="uuid-f5cdbb8f-104c-4701-8d2a-237d64ae88de" x1="277.904" y1="287.738" x2="270.428" y2="274.791"/>
  <line class="uuid-f5cdbb8f-104c-4701-8d2a-237d64ae88de" x1="287.651" y1="282.093" x2="280.227" y2="269.146"/>
  <line class="uuid-f5cdbb8f-104c-4701-8d2a-237d64ae88de" x1="297.472" y1="276.475" x2="289.995" y2="263.506"/>
  <line class="uuid-f5cdbb8f-104c-4701-8d2a-237d64ae88de" x1="307.244" y1="270.81" x2="299.746" y2="257.861"/>
  <line class="uuid-f5cdbb8f-104c-4701-8d2a-237d64ae88de" x1="316.991" y1="265.165" x2="309.541" y2="252.217"/>
  <line class="uuid-f5cdbb8f-104c-4701-8d2a-237d64ae88de" x1="326.812" y1="259.521" x2="319.313" y2="246.577"/>
  <line class="uuid-f5cdbb8f-104c-4701-8d2a-237d64ae88de" x1="336.557" y1="253.88" x2="329.059" y2="240.932"/>
  <line class="uuid-f5cdbb8f-104c-4701-8d2a-237d64ae88de" x1="176.502" y1="333.223" x2="167.101" y2="338.646"/>
  <line class="uuid-f5cdbb8f-104c-4701-8d2a-237d64ae88de" x1="170.592" y1="323.597" x2="155.665" y2="332.222"/>
  <line class="uuid-f5cdbb8f-104c-4701-8d2a-237d64ae88de" x1="159.33" y1="317.073" x2="144.332" y2="325.724"/>
  <line class="uuid-f5cdbb8f-104c-4701-8d2a-237d64ae88de" x1="147.998" y1="310.553" x2="133.07" y2="319.2"/>
  <line class="uuid-f5cdbb8f-104c-4701-8d2a-237d64ae88de" x1="136.735" y1="304.055" x2="121.76" y2="312.677"/>
  <line class="uuid-f5cdbb8f-104c-4701-8d2a-237d64ae88de" x1="125.302" y1="297.606" x2="114.382" y2="303.909"/>
  <line class="uuid-f5cdbb8f-104c-4701-8d2a-237d64ae88de" x1="209.384" y1="118.476" x2="198.758" y2="136.843"/>
  <line class="uuid-f5cdbb8f-104c-4701-8d2a-237d64ae88de" x1="190.16" y1="106.628" x2="169.54" y2="142.241"/>
  <line class="uuid-f5cdbb8f-104c-4701-8d2a-237d64ae88de" x1="152.88" y1="126.022" x2="150.61" y2="129.93"/>
  <line class="uuid-f5cdbb8f-104c-4701-8d2a-237d64ae88de" x1="230.051" y1="278.014" x2="224.945" y2="269.124"/>
  <line class="uuid-f5cdbb8f-104c-4701-8d2a-237d64ae88de" x1="240.213" y1="272.958" x2="224.602" y2="245.94"/>
  <line class="uuid-f5cdbb8f-104c-4701-8d2a-237d64ae88de" x1="250.325" y1="267.924" x2="224.237" y2="222.782"/>
  <line class="uuid-f5cdbb8f-104c-4701-8d2a-237d64ae88de" x1="260.439" y1="262.868" x2="223.896" y2="199.625"/>
  <line class="uuid-f5cdbb8f-104c-4701-8d2a-237d64ae88de" x1="264.836" y1="247.919" x2="224.823" y2="178.593"/>
  <line class="uuid-f5cdbb8f-104c-4701-8d2a-237d64ae88de" x1="264.494" y1="224.762" x2="234.937" y2="173.534"/>
  <line class="uuid-f5cdbb8f-104c-4701-8d2a-237d64ae88de" x1="264.152" y1="201.578" x2="245.026" y2="168.504"/>
  <line class="uuid-f5cdbb8f-104c-4701-8d2a-237d64ae88de" x1="263.857" y1="178.471" x2="255.138" y2="163.446"/>
  <line class="uuid-f5cdbb8f-104c-4701-8d2a-237d64ae88de" x1="196.267" y1="298.217" x2="182.098" y2="273.594"/>
  <line class="uuid-f5cdbb8f-104c-4701-8d2a-237d64ae88de" x1="216.518" y1="288.105" x2="181.388" y2="227.253"/>
  <line class="uuid-f5cdbb8f-104c-4701-8d2a-237d64ae88de" x1="222.258" y1="252.975" x2="181.219" y2="181.794"/>
  <line class="uuid-f5cdbb8f-104c-4701-8d2a-237d64ae88de" x1="222.086" y1="207.513" x2="186.373" y2="145.615"/>
  <line class="uuid-f5cdbb8f-104c-4701-8d2a-237d64ae88de" x1="221.452" y1="161.2" x2="206.651" y2="135.526"/>
  <line class="uuid-f5cdbb8f-104c-4701-8d2a-237d64ae88de" x1="179.022" y1="284.632" x2="160.356" y2="295.383"/>
  <line class="uuid-f5cdbb8f-104c-4701-8d2a-237d64ae88de" x1="179.533" y1="258.251" x2="145.385" y2="277.965"/>
  <line class="uuid-f5cdbb8f-104c-4701-8d2a-237d64ae88de" x1="179.533" y1="232.186" x2="145.385" y2="251.874"/>
  <line class="uuid-f5cdbb8f-104c-4701-8d2a-237d64ae88de" x1="179.533" y1="206.122" x2="145.385" y2="225.811"/>
  <line class="uuid-f5cdbb8f-104c-4701-8d2a-237d64ae88de" x1="179.533" y1="180.035" x2="145.385" y2="199.745"/>
  <line class="uuid-f5cdbb8f-104c-4701-8d2a-237d64ae88de" x1="179.533" y1="153.97" x2="145.385" y2="173.682"/>
  <line class="uuid-f5cdbb8f-104c-4701-8d2a-237d64ae88de" x1="159.793" y1="139.286" x2="146.091" y2="147.226"/>
</svg>