<?xml version="1.0" encoding="UTF-8"?>
<svg id="uuid-d701833a-3dfc-4830-9f24-996b8de5f9e9" data-name="&amp;lt;Layer&amp;gt;" xmlns="http://www.w3.org/2000/svg" viewBox="0 0 451.11 451.11">
  <defs>
    <style>
      .uuid-b89d69f2-9dc5-4c05-ad36-302cc9d8f779, .uuid-93db0f08-0466-4c3d-9d5d-c07cdfae9464, .uuid-2f921c7e-2bbd-47d7-acdb-f177daeb238a, .uuid-3f11e2f5-cd58-44ea-bb4a-dae10e88e555 {
        fill: none;
        stroke: #000;
        stroke-linecap: round;
      }

      .uuid-b89d69f2-9dc5-4c05-ad36-302cc9d8f779, .uuid-3f11e2f5-cd58-44ea-bb4a-dae10e88e555 {
        stroke-linejoin: round;
        stroke-width: 4.113px;
      }

      .uuid-93db0f08-0466-4c3d-9d5d-c07cdfae9464 {
        stroke-width: 1.163px;
      }

      .uuid-93db0f08-0466-4c3d-9d5d-c07cdfae9464, .uuid-2f921c7e-2bbd-47d7-acdb-f177daeb238a {
        stroke-miterlimit: 10;
      }

      .uuid-2f921c7e-2bbd-47d7-acdb-f177daeb238a {
        stroke-width: 1.159px;
      }

      .uuid-3f11e2f5-cd58-44ea-bb4a-dae10e88e555 {
        fill-rule: evenodd;
      }
    </style>
  </defs>
  <path class="uuid-3f11e2f5-cd58-44ea-bb4a-dae10e88e555" d="M338.692,255.954c0-25.748-31.757-35.104-53.741-36.989-1.711,3.812-3.664,7.602-5.619,11.241"/>
  <path class="uuid-3f11e2f5-cd58-44ea-bb4a-dae10e88e555" d="M278.597,231.353c5.864,13.655-14.409,33.66-35.423,41.478-15.386,5.74-31.753,3.518-46.654-2.295-15.88-6.182-25.648-14.902-24.184-22.79-10.994,14.265-26.138,24.964-38.353,38.203-23.939,26.848-21.495,35.79-21.495,69.595,0,9.699,1.221,12.241,11.726,18.324,81.343,46.975,214.478-66.715,214.478-85.696"/>
  <path class="uuid-3f11e2f5-cd58-44ea-bb4a-dae10e88e555" d="M338.692,255.954c0-23.283-25.892-33.151-47.147-36.231,1.953,2.443,3.422,5.645,4.154,9.066,1.221,5.151.975,10.868.243,14.923-.975,3.639-2.443,7.234-4.396,10.699-1.711,3.591-4.398,7.083-7.33,10.384-3.907,4.639-9.037,9.061-14.412,12.97-5.615,3.885-11.48,7.256-17.588,9.773,0,.022-.243.147-.975.389"/>
  <path class="uuid-3f11e2f5-cd58-44ea-bb4a-dae10e88e555" d="M249.283,288.734c-4.64,1.733-9.526,2.906-14.165,3.616-4.887.732-9.773.953-14.902.706-4.886-.243-9.773-.949-14.658-2.048-5.372-1.153-10.258-2.76-15.144-4.67-5.13-1.928-9.773-4.15-13.681-6.544-4.15-2.444-7.814-5.082-10.747-7.867-3.175-2.928-5.618-6.056-7.329-9.378-8.308,7.814-17.102,15.096-24.674,23.4-9.526,10.725-16.856,20.35-20.52,34.52"/>
  <polyline class="uuid-3f11e2f5-cd58-44ea-bb4a-dae10e88e555" points="113.463 320.469 112.977 323.397 112.731 326.355 112.488 329.383"/>
  <path class="uuid-3f11e2f5-cd58-44ea-bb4a-dae10e88e555" d="M112.488,355.543c0,9.699,1.221,12.241,11.726,18.324,81.343,46.975,214.478-66.715,214.478-85.696"/>
  <path class="uuid-3f11e2f5-cd58-44ea-bb4a-dae10e88e555" d="M183.573,227.226c0-.048-.243-.173-.243-.221v1.317c-.489,4.253-.736,6.059-3.175,10.066-1.223,2.248-6.108,7.23-7.819,9.331-1.464,7.888,8.305,16.66,24.184,22.816,14.901,5.812,31.268,8.035,46.901,2.27,18.324-6.84,36.155-23.28,36.155-36.397,0-1.759-.244-3.421-.979-5.056-.244.465-.487.928-.733,1.317"/>
  <path class="uuid-3f11e2f5-cd58-44ea-bb4a-dae10e88e555" d="M266.384,248.941c8.305-8.161,15.388-23.037,21.984-36.544,8.794-18.493,8.551-39.601,8.551-56.599"/>
  <path class="uuid-3f11e2f5-cd58-44ea-bb4a-dae10e88e555" d="M293.745,145.684c-.979-4.177-1.221-8.599-1.221-12.827,0-5.519-.247-10.626-2.933-13.238-4.639-4.176-11.726,2.2-20.272,9.673-5.866,5.108-11.97,10.653-18.813,14.56-6.84,3.933-13.19,5.644-18.809,7.182"/>
  <path class="uuid-3f11e2f5-cd58-44ea-bb4a-dae10e88e555" d="M231.695,151.059c-5.618,1.49-10.747,2.834-14.897,6.277-6.108,5.372-6.108,9.699-5.866,17.37,0,7.227.489,14.361-3.907,29.751-.489-3.492-1.221-6.987-2.443-10.284-1.468-3.59-3.422-7.28-6.355-9.819-2.443-2.027-5.128-3.249-8.303-3.054-1.223,0-2.934.511-4.155,1.075-.975.441-1.707,1.001-2.439,1.685-1.468,1.101-2.443,2.491-3.422,4.033-1.465,2.637-2.444,5.64-2.444,8.646-.243,2.565,0,5.13.489,7.598,1.223,5.128,4.155,11.111,6.598,15.535.732,1.442-.247,5.301-.979,7.402,16.122,18.345,39.817,30.925,58.38,30.925,8.309-.022,18.324-3.418,24.431-9.257"/>
  <path class="uuid-3f11e2f5-cd58-44ea-bb4a-dae10e88e555" d="M163.053,109.82c-15.144,27.411-5.618,102.356,20.031,118.627.489-1.368,2.443-6.817,1.468-8.576-2.443-4.424-5.375-10.406-6.598-15.535-5.618-24.7,23.939-36.279,29.071.121,4.396-15.39,3.907-22.524,3.907-29.751-.243-7.671-.243-11.997,5.866-17.37,4.15-3.443,9.279-4.787,14.897-6.277"/>
  <path class="uuid-3f11e2f5-cd58-44ea-bb4a-dae10e88e555" d="M296.92,155.798c.975-13.338.489-28.777-1.221-41.429-3.664-24.479-14.658-25.384-44.704-41.334-4.886-2.543-10.994-6.766-20.52-7.061-22.716-.706-56.427,25.748-67.421,43.846"/>
  <line class="uuid-b89d69f2-9dc5-4c05-ad36-302cc9d8f779" x1="338.692" y1="288.171" x2="338.692" y2="255.954"/>
  <line class="uuid-b89d69f2-9dc5-4c05-ad36-302cc9d8f779" x1="251.24" y1="287.928" x2="249.283" y2="288.734"/>
  <path class="uuid-3f11e2f5-cd58-44ea-bb4a-dae10e88e555" d="M112.488,329.383v25.159"/>
  <line class="uuid-b89d69f2-9dc5-4c05-ad36-302cc9d8f779" x1="112.488" y1="354.543" x2="112.488" y2="355.543"/>
  <line class="uuid-b89d69f2-9dc5-4c05-ad36-302cc9d8f779" x1="296.92" y1="155.798" x2="293.745" y2="145.684"/>
  <line class="uuid-93db0f08-0466-4c3d-9d5d-c07cdfae9464" x1="180.887" y1="280.257" x2="166.717" y2="256.075"/>
  <line class="uuid-93db0f08-0466-4c3d-9d5d-c07cdfae9464" x1="212.887" y1="290.739" x2="203.604" y2="274.638"/>
  <line class="uuid-93db0f08-0466-4c3d-9d5d-c07cdfae9464" x1="238.536" y1="290.128" x2="231.206" y2="277.349"/>
  <line class="uuid-93db0f08-0466-4c3d-9d5d-c07cdfae9464" x1="260.034" y1="282.088" x2="252.947" y2="270.097"/>
  <line class="uuid-93db0f08-0466-4c3d-9d5d-c07cdfae9464" x1="278.353" y1="268.703" x2="271.271" y2="256.344"/>
  <line class="uuid-93db0f08-0466-4c3d-9d5d-c07cdfae9464" x1="292.766" y1="248.598" x2="281.529" y2="229.201"/>
  <line class="uuid-93db0f08-0466-4c3d-9d5d-c07cdfae9464" x1="179.666" y1="214.399" x2="169.893" y2="208.781"/>
  <line class="uuid-93db0f08-0466-4c3d-9d5d-c07cdfae9464" x1="175.758" y1="199.156" x2="163.785" y2="192.147"/>
  <line class="uuid-93db0f08-0466-4c3d-9d5d-c07cdfae9464" x1="178.687" y1="187.724" x2="159.878" y2="177.002"/>
  <line class="uuid-93db0f08-0466-4c3d-9d5d-c07cdfae9464" x1="208" y1="191.73" x2="204.825" y2="189.873"/>
  <line class="uuid-93db0f08-0466-4c3d-9d5d-c07cdfae9464" x1="188.212" y1="180.273" x2="157.678" y2="162.612"/>
  <line class="uuid-93db0f08-0466-4c3d-9d5d-c07cdfae9464" x1="210.69" y1="180.247" x2="156.214" y2="148.737"/>
  <line class="uuid-93db0f08-0466-4c3d-9d5d-c07cdfae9464" x1="210.932" y1="167.303" x2="156.457" y2="135.841"/>
  <line class="uuid-93db0f08-0466-4c3d-9d5d-c07cdfae9464" x1="216.798" y1="157.579" x2="158.167" y2="123.7"/>
  <line class="uuid-93db0f08-0466-4c3d-9d5d-c07cdfae9464" x1="228.767" y1="151.548" x2="161.099" y2="112.463"/>
  <line class="uuid-93db0f08-0466-4c3d-9d5d-c07cdfae9464" x1="243.911" y1="147.295" x2="166.961" y2="102.811"/>
  <line class="uuid-93db0f08-0466-4c3d-9d5d-c07cdfae9464" x1="255.879" y1="141.14" x2="174.779" y2="94.286"/>
  <line class="uuid-93db0f08-0466-4c3d-9d5d-c07cdfae9464" x1="265.652" y1="133.689" x2="183.816" y2="86.42"/>
  <line class="uuid-93db0f08-0466-4c3d-9d5d-c07cdfae9464" x1="295.452" y1="137.891" x2="294.719" y2="137.526"/>
  <line class="uuid-93db0f08-0466-4c3d-9d5d-c07cdfae9464" x1="274.446" y1="125.822" x2="193.831" y2="79.168"/>
  <line class="uuid-93db0f08-0466-4c3d-9d5d-c07cdfae9464" x1="294.719" y1="124.454" x2="293.987" y2="124.041"/>
  <line class="uuid-93db0f08-0466-4c3d-9d5d-c07cdfae9464" x1="284.704" y1="118.666" x2="205.068" y2="72.666"/>
  <line class="uuid-93db0f08-0466-4c3d-9d5d-c07cdfae9464" x1="295.452" y1="111.8" x2="218.994" y2="67.611"/>
  <line class="uuid-93db0f08-0466-4c3d-9d5d-c07cdfae9464" x1="182.352" y1="383.857" x2="112.488" y2="343.574"/>
  <line class="uuid-93db0f08-0466-4c3d-9d5d-c07cdfae9464" x1="216.309" y1="377.505" x2="112.731" y2="317.731"/>
  <line class="uuid-2f921c7e-2bbd-47d7-acdb-f177daeb238a" x1="242.24" y1="366.331" x2="123.681" y2="297.907"/>
  <line class="uuid-93db0f08-0466-4c3d-9d5d-c07cdfae9464" x1="265.329" y1="353.718" x2="138.946" y2="280.694"/>
  <line class="uuid-93db0f08-0466-4c3d-9d5d-c07cdfae9464" x1="287.636" y1="340.498" x2="202.625" y2="291.471"/>
  <line class="uuid-93db0f08-0466-4c3d-9d5d-c07cdfae9464" x1="158.414" y1="265.918" x2="158.167" y2="265.844"/>
  <line class="uuid-93db0f08-0466-4c3d-9d5d-c07cdfae9464" x1="306.446" y1="325.23" x2="245.865" y2="290.276"/>
  <line class="uuid-93db0f08-0466-4c3d-9d5d-c07cdfae9464" x1="323.789" y1="309.228" x2="269.803" y2="278.085"/>
  <line class="uuid-93db0f08-0466-4c3d-9d5d-c07cdfae9464" x1="337.96" y1="291.203" x2="287.147" y2="261.889"/>
  <line class="uuid-93db0f08-0466-4c3d-9d5d-c07cdfae9464" x1="338.202" y1="265.354" x2="296.92" y2="241.513"/>
</svg>