<?xml version="1.0" encoding="UTF-8"?>
<svg id="uuid-36d0ab9e-72c4-4e33-b9a2-ffd6b13a83e5" data-name="&amp;lt;Layer&amp;gt;" xmlns="http://www.w3.org/2000/svg" viewBox="0 0 451.11 451.11">
  <defs>
    <style>
      .uuid-1b384684-a589-4015-b240-b5e77cc18764, .uuid-1322d037-8b68-4ddc-a7d4-b65edce82a19, .uuid-15ae8ef3-7c09-47e3-b228-933329a93d21 {
        fill: none;
        stroke: #000;
        stroke-linecap: round;
      }

      .uuid-1b384684-a589-4015-b240-b5e77cc18764, .uuid-15ae8ef3-7c09-47e3-b228-933329a93d21 {
        stroke-linejoin: round;
        stroke-width: 4.113px;
      }

      .uuid-1322d037-8b68-4ddc-a7d4-b65edce82a19 {
        stroke-miterlimit: 10;
        stroke-width: 1.159px;
      }

      .uuid-15ae8ef3-7c09-47e3-b228-933329a93d21 {
        fill-rule: evenodd;
      }
    </style>
  </defs>
  <polyline class="uuid-15ae8ef3-7c09-47e3-b228-933329a93d21" points="306.534 250.569 317.039 256.676 166.317 343.712 134.071 325.076 144.576 319.041"/>
  <polygon class="uuid-15ae8ef3-7c09-47e3-b228-933329a93d21" points="166.317 343.712 134.071 325.076 134.071 341.758 166.317 360.398 166.317 343.712"/>
  <polygon class="uuid-15ae8ef3-7c09-47e3-b228-933329a93d21" points="317.039 256.65 166.317 343.712 166.317 360.398 317.039 273.358 317.039 256.65"/>
  <polyline class="uuid-15ae8ef3-7c09-47e3-b228-933329a93d21" points="306.534 221.77 317.039 227.852 166.317 314.91 134.071 296.273 144.576 290.24"/>
  <polygon class="uuid-15ae8ef3-7c09-47e3-b228-933329a93d21" points="166.317 314.888 134.071 296.248 134.071 312.956 166.317 331.596 166.317 314.888"/>
  <polygon class="uuid-15ae8ef3-7c09-47e3-b228-933329a93d21" points="317.039 227.827 166.317 314.888 166.317 331.596 317.039 244.535 317.039 227.827"/>
  <polyline class="uuid-15ae8ef3-7c09-47e3-b228-933329a93d21" points="144.576 261.437 134.071 267.472 166.317 286.037 292.122 213.414 292.122 213.414 317.039 199.002 303.848 191.331"/>
  <polygon class="uuid-15ae8ef3-7c09-47e3-b228-933329a93d21" points="166.317 286.089 134.071 267.45 134.071 284.132 166.317 302.771 166.317 286.089"/>
  <polygon class="uuid-15ae8ef3-7c09-47e3-b228-933329a93d21" points="317.039 199.024 166.317 286.089 166.317 302.771 317.039 215.71 317.039 199.024"/>
  <polyline class="uuid-15ae8ef3-7c09-47e3-b228-933329a93d21" points="234.96 200.466 242.536 204.816 247.175 207.428 289.437 182.975 289.437 182.975 317.039 166.999 306.534 160.892"/>
  <polyline class="uuid-15ae8ef3-7c09-47e3-b228-933329a93d21" points="234.96 217.126 247.175 224.089 247.175 207.428 242.536 204.816 234.96 200.466"/>
  <polygon class="uuid-15ae8ef3-7c09-47e3-b228-933329a93d21" points="317.039 166.999 247.175 207.406 247.175 224.089 317.039 183.685 317.039 166.999"/>
  <polyline class="uuid-15ae8ef3-7c09-47e3-b228-933329a93d21" points="306.534 132.093 317.039 138.2 292.122 152.613 247.175 178.556 239.846 174.377 239.846 174.377 235.206 171.595"/>
  <polyline class="uuid-15ae8ef3-7c09-47e3-b228-933329a93d21" points="235.206 171.595 239.846 174.377 239.846 174.377 247.175 178.556 247.175 195.286 235.206 188.325"/>
  <polygon class="uuid-15ae8ef3-7c09-47e3-b228-933329a93d21" points="317.039 138.175 247.175 178.578 247.175 195.264 317.039 154.883 317.039 138.175"/>
  <polygon class="uuid-15ae8ef3-7c09-47e3-b228-933329a93d21" points="317.039 109.351 284.794 90.711 214.929 131.114 247.175 149.754 317.039 109.351"/>
  <polyline class="uuid-15ae8ef3-7c09-47e3-b228-933329a93d21" points="214.929 145.063 214.929 131.114 247.175 149.754 247.175 166.439 235.206 159.5"/>
  <polygon class="uuid-15ae8ef3-7c09-47e3-b228-933329a93d21" points="317.039 109.351 247.175 149.754 247.175 166.439 317.039 126.033 317.039 109.351"/>
  <polygon class="uuid-15ae8ef3-7c09-47e3-b228-933329a93d21" points="235.206 156.741 202.717 138.101 134.071 177.772 166.317 196.411 235.206 156.741"/>
  <polygon class="uuid-15ae8ef3-7c09-47e3-b228-933329a93d21" points="166.317 196.411 134.071 177.772 134.071 255.308 166.317 273.947 166.317 196.411"/>
  <polygon class="uuid-15ae8ef3-7c09-47e3-b228-933329a93d21" points="235.206 156.741 166.317 196.411 166.317 273.947 234.96 234.273 235.206 156.741"/>
  <polyline class="uuid-15ae8ef3-7c09-47e3-b228-933329a93d21" points="173.403 256.552 173.403 230.707 173.89 229.901"/>
  <path class="uuid-15ae8ef3-7c09-47e3-b228-933329a93d21" d="M212.243,182.537c4.886-2.811,9.037-.515,9.037,5.128,0,5.693-4.151,12.58-9.037,15.414-4.886,2.81-8.794.515-8.794-5.152s3.908-12.557,8.794-15.39Z"/>
  <line class="uuid-1b384684-a589-4015-b240-b5e77cc18764" x1="228.12" y1="213.119" x2="228.12" y2="213.167"/>
  <line class="uuid-1b384684-a589-4015-b240-b5e77cc18764" x1="220.305" y1="208.576" x2="220.058" y2="208.576"/>
  <line class="uuid-1b384684-a589-4015-b240-b5e77cc18764" x1="228.12" y1="210.556" x2="228.12" y2="224.993"/>
  <path class="uuid-15ae8ef3-7c09-47e3-b228-933329a93d21" d="M228.12,224.993c0,1.097-.976,2.439-1.955,3.006"/>
  <line class="uuid-1b384684-a589-4015-b240-b5e77cc18764" x1="226.166" y1="228" x2="175.111" y2="257.555"/>
  <path class="uuid-15ae8ef3-7c09-47e3-b228-933329a93d21" d="M175.111,257.555c-.975.537-1.708.096-1.708-1.003"/>
  <path class="uuid-15ae8ef3-7c09-47e3-b228-933329a93d21" d="M173.89,229.901c1.953-2.612,4.396-4.054,6.35-3.518"/>
  <line class="uuid-1b384684-a589-4015-b240-b5e77cc18764" x1="180.24" y1="226.384" x2="197.342" y2="231.343"/>
  <path class="uuid-15ae8ef3-7c09-47e3-b228-933329a93d21" d="M197.342,231.343c1.711.489,4.154-.757,5.864-3.175"/>
  <line class="uuid-1b384684-a589-4015-b240-b5e77cc18764" x1="203.207" y1="228.168" x2="216.15" y2="211.605"/>
  <path class="uuid-15ae8ef3-7c09-47e3-b228-933329a93d21" d="M216.15,211.605c1.955-2.491,4.398-3.736,6.108-3.124"/>
  <line class="uuid-1b384684-a589-4015-b240-b5e77cc18764" x1="222.259" y1="208.48" x2="228.12" y2="210.556"/>
  <line class="uuid-1322d037-8b68-4ddc-a7d4-b65edce82a19" x1="216.882" y1="196.096" x2="207.115" y2="190.547"/>
  <line class="uuid-1322d037-8b68-4ddc-a7d4-b65edce82a19" x1="259.144" y1="169.542" x2="255.726" y2="163.603"/>
  <line class="uuid-1322d037-8b68-4ddc-a7d4-b65edce82a19" x1="278.685" y1="158.253" x2="275.268" y2="152.344"/>
  <line class="uuid-1322d037-8b68-4ddc-a7d4-b65edce82a19" x1="298.231" y1="146.994" x2="294.812" y2="141.108"/>
  <line class="uuid-1322d037-8b68-4ddc-a7d4-b65edce82a19" x1="259.144" y1="198.391" x2="255.726" y2="192.479"/>
  <line class="uuid-1322d037-8b68-4ddc-a7d4-b65edce82a19" x1="278.685" y1="187.104" x2="275.268" y2="181.168"/>
  <line class="uuid-1322d037-8b68-4ddc-a7d4-b65edce82a19" x1="298.231" y1="175.819" x2="294.812" y2="169.931"/>
  <line class="uuid-1322d037-8b68-4ddc-a7d4-b65edce82a19" x1="162.9" y1="281.861" x2="156.059" y2="270.209"/>
  <line class="uuid-1322d037-8b68-4ddc-a7d4-b65edce82a19" x1="184.151" y1="273.679" x2="180.729" y2="267.791"/>
  <line class="uuid-1322d037-8b68-4ddc-a7d4-b65edce82a19" x1="203.692" y1="262.368" x2="200.274" y2="256.482"/>
  <line class="uuid-1322d037-8b68-4ddc-a7d4-b65edce82a19" x1="223.233" y1="251.033" x2="220.058" y2="245.171"/>
  <line class="uuid-1322d037-8b68-4ddc-a7d4-b65edce82a19" x1="243.021" y1="239.894" x2="236.917" y2="229.684"/>
  <line class="uuid-1322d037-8b68-4ddc-a7d4-b65edce82a19" x1="262.32" y1="228.559" x2="257.437" y2="220.129"/>
  <line class="uuid-1322d037-8b68-4ddc-a7d4-b65edce82a19" x1="281.864" y1="217.248" x2="277.221" y2="208.819"/>
  <line class="uuid-1322d037-8b68-4ddc-a7d4-b65edce82a19" x1="301.652" y1="205.986" x2="296.765" y2="197.534"/>
  <line class="uuid-1322d037-8b68-4ddc-a7d4-b65edce82a19" x1="162.653" y1="310.638" x2="156.059" y2="298.96"/>
  <line class="uuid-1322d037-8b68-4ddc-a7d4-b65edce82a19" x1="184.151" y1="302.528" x2="180.729" y2="296.59"/>
  <line class="uuid-1322d037-8b68-4ddc-a7d4-b65edce82a19" x1="203.692" y1="291.241" x2="200.274" y2="285.331"/>
  <line class="uuid-1322d037-8b68-4ddc-a7d4-b65edce82a19" x1="223.233" y1="279.982" x2="219.816" y2="274.068"/>
  <line class="uuid-1322d037-8b68-4ddc-a7d4-b65edce82a19" x1="242.779" y1="268.671" x2="239.36" y2="262.759"/>
  <line class="uuid-1322d037-8b68-4ddc-a7d4-b65edce82a19" x1="262.32" y1="257.334" x2="258.901" y2="251.448"/>
  <line class="uuid-1322d037-8b68-4ddc-a7d4-b65edce82a19" x1="281.864" y1="246.073" x2="278.443" y2="240.185"/>
  <line class="uuid-1322d037-8b68-4ddc-a7d4-b65edce82a19" x1="301.405" y1="234.74" x2="298.231" y2="228.874"/>
  <line class="uuid-1322d037-8b68-4ddc-a7d4-b65edce82a19" x1="163.142" y1="339.657" x2="156.302" y2="327.957"/>
  <line class="uuid-1322d037-8b68-4ddc-a7d4-b65edce82a19" x1="184.395" y1="331.228" x2="180.976" y2="325.318"/>
  <line class="uuid-1322d037-8b68-4ddc-a7d4-b65edce82a19" x1="203.939" y1="319.969" x2="200.517" y2="314.056"/>
  <line class="uuid-1322d037-8b68-4ddc-a7d4-b65edce82a19" x1="223.48" y1="308.685" x2="220.058" y2="302.797"/>
  <line class="uuid-1322d037-8b68-4ddc-a7d4-b65edce82a19" x1="243.021" y1="297.374" x2="239.602" y2="291.487"/>
  <line class="uuid-1322d037-8b68-4ddc-a7d4-b65edce82a19" x1="262.565" y1="286.037" x2="259.144" y2="280.177"/>
  <line class="uuid-1322d037-8b68-4ddc-a7d4-b65edce82a19" x1="282.107" y1="274.8" x2="278.685" y2="268.914"/>
  <line class="uuid-1322d037-8b68-4ddc-a7d4-b65edce82a19" x1="301.652" y1="263.517" x2="298.231" y2="257.651"/>
  <line class="uuid-1322d037-8b68-4ddc-a7d4-b65edce82a19" x1="140.18" y1="343.027" x2="136.025" y2="335.823"/>
  <line class="uuid-1322d037-8b68-4ddc-a7d4-b65edce82a19" x1="159.966" y1="354.705" x2="148.729" y2="335.503"/>
  <line class="uuid-1322d037-8b68-4ddc-a7d4-b65edce82a19" x1="140.18" y1="314.23" x2="136.025" y2="306.996"/>
  <line class="uuid-1322d037-8b68-4ddc-a7d4-b65edce82a19" x1="159.966" y1="325.904" x2="148.729" y2="306.705"/>
  <line class="uuid-1322d037-8b68-4ddc-a7d4-b65edce82a19" x1="140.18" y1="285.427" x2="136.025" y2="278.123"/>
  <line class="uuid-1322d037-8b68-4ddc-a7d4-b65edce82a19" x1="159.966" y1="297.105" x2="148.729" y2="277.829"/>
  <line class="uuid-1322d037-8b68-4ddc-a7d4-b65edce82a19" x1="139.937" y1="256.43" x2="136.025" y2="249.737"/>
  <line class="uuid-1322d037-8b68-4ddc-a7d4-b65edce82a19" x1="159.966" y1="268.84" x2="135.293" y2="226.02"/>
  <line class="uuid-1322d037-8b68-4ddc-a7d4-b65edce82a19" x1="165.343" y1="255.308" x2="135.05" y2="203.252"/>
  <line class="uuid-1322d037-8b68-4ddc-a7d4-b65edce82a19" x1="165.343" y1="232.859" x2="135.05" y2="180.584"/>
  <line class="uuid-1322d037-8b68-4ddc-a7d4-b65edce82a19" x1="164.611" y1="208.97" x2="154.595" y2="191.622"/>
  <line class="uuid-1322d037-8b68-4ddc-a7d4-b65edce82a19" x1="163.632" y1="192.92" x2="150.195" y2="169.832"/>
  <line class="uuid-1322d037-8b68-4ddc-a7d4-b65edce82a19" x1="184.884" y1="184.539" x2="169.739" y2="158.451"/>
  <line class="uuid-1322d037-8b68-4ddc-a7d4-b65edce82a19" x1="204.428" y1="173.28" x2="189.28" y2="147.164"/>
  <line class="uuid-1322d037-8b68-4ddc-a7d4-b65edce82a19" x1="223.723" y1="161.602" x2="215.418" y2="147.359"/>
  <line class="uuid-1322d037-8b68-4ddc-a7d4-b65edce82a19" x1="245.221" y1="215.489" x2="239.113" y2="204.889"/>
  <line class="uuid-1322d037-8b68-4ddc-a7d4-b65edce82a19" x1="245.221" y1="187.423" x2="238.624" y2="175.771"/>
  <line class="uuid-1322d037-8b68-4ddc-a7d4-b65edce82a19" x1="218.352" y1="144.647" x2="216.882" y2="142.277"/>
  <line class="uuid-1322d037-8b68-4ddc-a7d4-b65edce82a19" x1="240.336" y1="160.575" x2="229.588" y2="141.523"/>
  <line class="uuid-1322d037-8b68-4ddc-a7d4-b65edce82a19" x1="244" y1="145.967" x2="230.81" y2="123.247"/>
  <line class="uuid-1322d037-8b68-4ddc-a7d4-b65edce82a19" x1="265.495" y1="138.027" x2="250.35" y2="111.89"/>
  <line class="uuid-1322d037-8b68-4ddc-a7d4-b65edce82a19" x1="285.039" y1="126.743" x2="269.891" y2="100.627"/>
  <line class="uuid-1322d037-8b68-4ddc-a7d4-b65edce82a19" x1="304.338" y1="115.138" x2="294.565" y2="98.357"/>
  <line class="uuid-1322d037-8b68-4ddc-a7d4-b65edce82a19" x1="185.127" y1="249.836" x2="175.111" y2="244.096"/>
  <line class="uuid-1322d037-8b68-4ddc-a7d4-b65edce82a19" x1="196.853" y1="243.508" x2="174.869" y2="230.854"/>
  <line class="uuid-1322d037-8b68-4ddc-a7d4-b65edce82a19" x1="207.604" y1="236.716" x2="200.764" y2="232.713"/>
  <line class="uuid-1322d037-8b68-4ddc-a7d4-b65edce82a19" x1="219.084" y1="230.27" x2="208.579" y2="224.257"/>
  <line class="uuid-1322d037-8b68-4ddc-a7d4-b65edce82a19" x1="226.408" y1="221.45" x2="215.418" y2="215.247"/>
</svg>