<?xml version="1.0" encoding="UTF-8"?>
<svg id="uuid-5745b214-d3b7-4bee-8819-e6a689be0902" data-name="&amp;lt;Layer&amp;gt;" xmlns="http://www.w3.org/2000/svg" viewBox="0 0 451.11 451.11">
  <defs>
    <style>
      .uuid-d71b672d-24fe-411d-9225-5d51a695795e, .uuid-54e7f94c-839b-4fe2-bdd2-d712343dfb4a, .uuid-1fc4f06b-b7a0-43d9-be76-11365e3919d5 {
        fill: none;
        stroke: #000;
        stroke-linecap: round;
      }

      .uuid-d71b672d-24fe-411d-9225-5d51a695795e, .uuid-1fc4f06b-b7a0-43d9-be76-11365e3919d5 {
        stroke-linejoin: round;
        stroke-width: 4.117px;
      }

      .uuid-54e7f94c-839b-4fe2-bdd2-d712343dfb4a {
        stroke-miterlimit: 10;
        stroke-width: 1.163px;
      }

      .uuid-1fc4f06b-b7a0-43d9-be76-11365e3919d5 {
        fill-rule: evenodd;
      }
    </style>
  </defs>
  <path class="uuid-1fc4f06b-b7a0-43d9-be76-11365e3919d5" d="M197.354,294.838c-7.962,11.31-12.069,26.359-6.325,35.252,3.076,4.761,28.456,17.951,36.64,22.595-1.855-1.394-3.319-3.149-4.297-5.128-.295-.637-.586-1.321-.806-2.079-.415-1.464-.71-3.028-.832-4.765-.217-2.098-.121-4.346.295-6.692.074-.096.074-.217.074-.269.096-.876.341-1.807.563-2.733.289-1.221.658-2.491,1.047-3.712,1.859-5.475,4.839-10.922,8.431-15.56.511-.662,1.047-1.295,1.563-1.931.413-.463.803-.854,1.221-1.343,1.855-2.028,3.882-3.76,5.984-5.202,2.321-1.685,4.764-2.906,7.208-3.616.463-.122.927-.291,1.317-.291.537-.174,1-.222,1.391-.269.247-.074.367-.074.541,0"/>
  <path class="uuid-1fc4f06b-b7a0-43d9-be76-11365e3919d5" d="M251.414,299.091c2.223-.199,4.424.169,6.572,1.147.1.048.17.048.291.122"/>
  <path class="uuid-1fc4f06b-b7a0-43d9-be76-11365e3919d5" d="M231.675,285.017c-4.298,3.422-8.475,7.793-12.191,12.9-2.976,4.055-6.913,5.936-9.478,4.398"/>
  <path class="uuid-1fc4f06b-b7a0-43d9-be76-11365e3919d5" d="M205.198,299.529c-.419-.269-.757-.563-1.051-.927-.243-.343-.463-.685-.633-1.027-.173-.368-.295-.758-.415-1.173-.052-.685-.1-1.516-.052-2.37.052-.658.052-1.295.295-1.927.121-.589.295-1.221.515-1.785.121-.415.291-.832.463-1.173,0-.122.07-.221.169-.343.17-.463.417-1.001.758-1.464.048-.17.196-.291.243-.463.174-.295.391-.563.511-.88.467-.563.932-1.147,1.347-1.733-.173.122-.343.243-.515.343"/>
  <path class="uuid-1fc4f06b-b7a0-43d9-be76-11365e3919d5" d="M231.601,208.192c1.516-1.049,3.032-2.028,4.547-2.956,2.907-1.858,5.936-3.59,8.89-5.132"/>
  <path class="uuid-1fc4f06b-b7a0-43d9-be76-11365e3919d5" d="M169.946,288.097c-.343-.174-.637-.391-.88-.686-.169-.121-.291-.293-.415-.463-.343-.368-.56-.831-.732-1.294-.243-.343-.343-.733-.415-1.223-.17-.805-.291-1.685-.244-2.712,0-.831.122-1.563.317-2.395.17-.806.391-1.564.684-2.37.222-.805.563-1.563.979-2.391.365-.806.806-1.564,1.291-2.322.052,0,.052-.048.052-.048.048-.121.122-.243.217-.367"/>
  <path class="uuid-1fc4f06b-b7a0-43d9-be76-11365e3919d5" d="M279.944,188.162c.906-.173,1.785-.295,2.715-.343,9.817-1.295,19.395-.537,27.772,3.128.1.048.393.169.563.221.074,0,.074.07.121.07.221.121.391.173.637.293-7.841-4.543-26.139-16.023-33.1-18.124-9.577-2.907-19.346-3.249-29.218-1.685h-.047"/>
  <path class="uuid-1fc4f06b-b7a0-43d9-be76-11365e3919d5" d="M277.674,123.647c.979-.342,1.907-.636,2.833-.927,12.605-3.838,27.239-6.502,41.356-6.502,1.1-.07,2.201,0,3.3.052"/>
  <path class="uuid-1fc4f06b-b7a0-43d9-be76-11365e3919d5" d="M356.652,123.474c.048,0,.096.048.096.048.367.125.588.295.879.419-17.245-9.945-33.39-21.84-53.252-25.457-75.776-13.802-156.781,61.755-197.379,119.112-5.108,7.256-20.741,26.138-15.097,35.3"/>
  <path class="uuid-1fc4f06b-b7a0-43d9-be76-11365e3919d5" d="M271.35,249.596c-.42-.243-.832-.412-1.223-.511-2.906-1.221-6.693-1.343-10.75-.758-.637,0-1.222.048-1.855.221-4.129.706-8.308,1.979-11.969,3.371-.295.073-.638.173-.931.415-1.638.636-3.124,1.343-4.42,2.028-.857.463-1.785.979-2.712,1.637-.831.391-1.637.902-2.443,1.49-4.938,3.323-10.457,7.793-15.464,12.554-.391.295-.806.758-1.147,1.151-.928.828-1.807,1.759-2.565,2.613-3.64,3.664-6.792,7.377-9.041,10.799"/>
  <polyline class="uuid-1fc4f06b-b7a0-43d9-be76-11365e3919d5" points="205.198 299.529 197.354 294.838 185.973 287.971"/>
  <path class="uuid-1fc4f06b-b7a0-43d9-be76-11365e3919d5" d="M231.675,285.017c8.528-6.913,17.591-10.158,25.015-8.598,3.028.636,6.914-2.028,9.478-6.425"/>
  <path class="uuid-1fc4f06b-b7a0-43d9-be76-11365e3919d5" d="M271.029,261.568c1.589-2.737,2.344-5.523,2.174-7.966-.195-2.491-1.221-4.055-3.076-4.518-3.374-.88-6.987-1.173-10.75-.758-.637,0-1.222.048-1.855.221-3.834.463-7.918,1.638-11.969,3.371-.295.073-.638.173-.931.415-2.37.979-4.765,2.2-7.131,3.664-.831.391-1.637.902-2.443,1.49-5.228,3.323-10.457,7.546-15.464,12.554-.391.295-.806.758-1.147,1.151-.88.88-1.759,1.759-2.565,2.613-2.954,3.197-5.814,6.692-8.525,10.457"/>
  <path class="uuid-1fc4f06b-b7a0-43d9-be76-11365e3919d5" d="M310.432,190.947c.1.048.393.169.563.221.074,0,.074.07.121.07,2.027.809,3.08,2.737,3.202,5.692.095,3.006-.88,6.207-2.691,9.456"/>
  <path class="uuid-1fc4f06b-b7a0-43d9-be76-11365e3919d5" d="M305.719,216.67c-3.371,5.74-8.646,9.109-12.311,7.793-15.906-5.94-35.59-1.759-55.109,10.158"/>
  <path class="uuid-1fc4f06b-b7a0-43d9-be76-11365e3919d5" d="M238.224,234.621c-17.807,10.898-35.469,28.338-50.053,50.518-.685,1.051-1.442,1.979-2.198,2.832-3.373,3.618-7.38,5.182-10.114,3.543"/>
  <path class="uuid-1fc4f06b-b7a0-43d9-be76-11365e3919d5" d="M169.946,288.097c-.343-.174-.637-.391-.88-.686-.169-.121-.291-.293-.415-.463-.343-.368-.56-.831-.732-1.294-.173-.343-.343-.733-.415-1.223-.17-.805-.291-1.685-.244-2.712.074-.758.17-1.563.317-2.395.17-.806.391-1.564.684-2.37.222-.805.563-1.563.979-2.391.365-.806.806-1.564,1.291-2.322.052,0,.052-.048.052-.048.048-.121.122-.243.217-.367,6.281-9.673,13.074-18.615,20.105-26.871.221-.245.467-.512.688-.757,12.627-14.586,26.208-26.775,40.01-36.006,1.516-1.049,3.032-2.028,4.547-2.956,2.907-1.858,5.936-3.59,8.89-5.132,11.774-6.372,23.695-10.431,34.906-11.943.906-.173,1.785-.295,2.715-.343"/>
  <path class="uuid-1fc4f06b-b7a0-43d9-be76-11365e3919d5" d="M321.863,116.218c1.1-.07,2.201,0,3.3.052,11.09.56,21.668,2.907,31.488,7.204.048,0,.096.048.096.048.367.125.588.295.879.419,1.733,1.145,2.664,3.245,2.786,6.325.122,3.47-.975,7.13-3.127,10.916"/>
  <path class="uuid-1fc4f06b-b7a0-43d9-be76-11365e3919d5" d="M350.423,153.082c-4.007,6.863-10.336,10.799-14.564,8.942-24.864-10.675-55.4-6.377-86.424,9.699h-.047c-35.838,18.635-72.186,53.03-100.936,98.444-.81,1.27-1.737,2.492-2.665,3.471-3.959,4.296-8.646,6.151-11.847,4.296"/>
  <path class="uuid-1fc4f06b-b7a0-43d9-be76-11365e3919d5" d="M243.059,301.803c11.851-6.793,21.425-1.273,21.425,12.432s-9.574,30.267-21.425,37.106c-11.848,6.867-21.447,1.269-21.447-12.384s9.651-30.293,21.447-37.154Z"/>
  <line class="uuid-d71b672d-24fe-411d-9225-5d51a695795e" x1="258.277" y1="300.361" x2="231.675" y2="285.017"/>
  <line class="uuid-d71b672d-24fe-411d-9225-5d51a695795e" x1="210.007" y1="302.314" x2="205.198" y2="299.529"/>
  <line class="uuid-d71b672d-24fe-411d-9225-5d51a695795e" x1="145.787" y1="273.638" x2="169.946" y2="288.097"/>
  <line class="uuid-d71b672d-24fe-411d-9225-5d51a695795e" x1="91.899" y1="252.897" x2="127.073" y2="274.001"/>
  <line class="uuid-d71b672d-24fe-411d-9225-5d51a695795e" x1="238.224" y1="234.621" x2="238.298" y2="234.621"/>
  <path class="uuid-1fc4f06b-b7a0-43d9-be76-11365e3919d5" d="M238.298,234.621c3.469-.291,6.74.052,9.353,1.273"/>
  <line class="uuid-d71b672d-24fe-411d-9225-5d51a695795e" x1="247.651" y1="235.894" x2="271.35" y2="249.596"/>
  <line class="uuid-d71b672d-24fe-411d-9225-5d51a695795e" x1="266.168" y1="269.994" x2="271.029" y2="261.568"/>
  <line class="uuid-d71b672d-24fe-411d-9225-5d51a695795e" x1="311.627" y1="206.386" x2="305.719" y2="216.67"/>
  <line class="uuid-d71b672d-24fe-411d-9225-5d51a695795e" x1="175.859" y1="291.515" x2="169.946" y2="288.097"/>
  <line class="uuid-d71b672d-24fe-411d-9225-5d51a695795e" x1="357.286" y1="141.183" x2="350.423" y2="153.082"/>
  <line class="uuid-d71b672d-24fe-411d-9225-5d51a695795e" x1="133.94" y1="277.934" x2="127.073" y2="274.001"/>
  <path class="uuid-1fc4f06b-b7a0-43d9-be76-11365e3919d5" d="M127.073,274.001c-10.692-7.15,8.102-30.078,10.873-33.979,8.183-12.159,18.162-24.769,27.871-35.763,9.746-11.089,21.807-23.731,33.1-33.051,9.795-8.996,23.132-18.994,34.567-26.017,7.753-5.011,17.025-10.346,25.355-13.944,2.498-1.149,4.996-2.421,7.571-3.375"/>
  <path class="uuid-1fc4f06b-b7a0-43d9-be76-11365e3919d5" d="M266.411,127.871c3.812-1.563,7.55-2.954,11.263-4.224.979-.342,1.907-.636,2.833-.927"/>
  <line class="uuid-54e7f94c-839b-4fe2-bdd2-d712343dfb4a" x1="158.978" y1="279.325" x2="152.116" y2="267.477"/>
  <line class="uuid-54e7f94c-839b-4fe2-bdd2-d712343dfb4a" x1="168.308" y1="272.876" x2="159.077" y2="256.9"/>
  <line class="uuid-54e7f94c-839b-4fe2-bdd2-d712343dfb4a" x1="175.295" y1="262.423" x2="166.355" y2="246.936"/>
  <line class="uuid-54e7f94c-839b-4fe2-bdd2-d712343dfb4a" x1="182.651" y1="252.628" x2="173.879" y2="237.406"/>
  <line class="uuid-54e7f94c-839b-4fe2-bdd2-d712343dfb4a" x1="190.319" y1="243.319" x2="181.625" y2="228.296"/>
  <line class="uuid-54e7f94c-839b-4fe2-bdd2-d712343dfb4a" x1="198.284" y1="234.499" x2="189.635" y2="219.576"/>
  <line class="uuid-54e7f94c-839b-4fe2-bdd2-d712343dfb4a" x1="206.589" y1="226.316" x2="197.917" y2="211.319"/>
  <line class="uuid-54e7f94c-839b-4fe2-bdd2-d712343dfb4a" x1="215.188" y1="218.645" x2="206.42" y2="203.427"/>
  <line class="uuid-54e7f94c-839b-4fe2-bdd2-d712343dfb4a" x1="224.129" y1="211.61" x2="215.188" y2="196.053"/>
  <line class="uuid-54e7f94c-839b-4fe2-bdd2-d712343dfb4a" x1="233.485" y1="205.164" x2="224.177" y2="189.088"/>
  <line class="uuid-54e7f94c-839b-4fe2-bdd2-d712343dfb4a" x1="243.158" y1="199.42" x2="233.485" y2="182.639"/>
  <line class="uuid-54e7f94c-839b-4fe2-bdd2-d712343dfb4a" x1="253.321" y1="194.439" x2="243.111" y2="176.73"/>
  <line class="uuid-54e7f94c-839b-4fe2-bdd2-d712343dfb4a" x1="264.02" y1="190.358" x2="253.736" y2="172.601"/>
  <line class="uuid-54e7f94c-839b-4fe2-bdd2-d712343dfb4a" x1="275.279" y1="187.282" x2="266.854" y2="172.649"/>
  <line class="uuid-54e7f94c-839b-4fe2-bdd2-d712343dfb4a" x1="287.3" y1="185.545" x2="282.318" y2="176.899"/>
  <line class="uuid-54e7f94c-839b-4fe2-bdd2-d712343dfb4a" x1="201.192" y1="294.595" x2="193.104" y2="280.599"/>
  <line class="uuid-54e7f94c-839b-4fe2-bdd2-d712343dfb4a" x1="206.758" y1="281.647" x2="200.555" y2="270.922"/>
  <line class="uuid-54e7f94c-839b-4fe2-bdd2-d712343dfb4a" x1="214.603" y1="272.659" x2="208.322" y2="261.859"/>
  <line class="uuid-54e7f94c-839b-4fe2-bdd2-d712343dfb4a" x1="222.954" y1="264.523" x2="216.578" y2="253.481"/>
  <line class="uuid-54e7f94c-839b-4fe2-bdd2-d712343dfb4a" x1="231.969" y1="257.562" x2="225.228" y2="245.836"/>
  <line class="uuid-54e7f94c-839b-4fe2-bdd2-d712343dfb4a" x1="241.667" y1="251.796" x2="234.291" y2="239.021"/>
  <line class="uuid-54e7f94c-839b-4fe2-bdd2-d712343dfb4a" x1="252.415" y1="247.789" x2="246.308" y2="237.236"/>
  <line class="uuid-54e7f94c-839b-4fe2-bdd2-d712343dfb4a" x1="212.16" y1="342.522" x2="191.909" y2="307.322"/>
  <line class="uuid-54e7f94c-839b-4fe2-bdd2-d712343dfb4a" x1="220.706" y1="334.729" x2="199.259" y2="297.575"/>
  <line class="uuid-54e7f94c-839b-4fe2-bdd2-d712343dfb4a" x1="225.18" y1="319.854" x2="215.604" y2="303.267"/>
  <line class="uuid-54e7f94c-839b-4fe2-bdd2-d712343dfb4a" x1="232.143" y1="309.301" x2="223.786" y2="294.838"/>
  <line class="uuid-54e7f94c-839b-4fe2-bdd2-d712343dfb4a" x1="240.667" y1="301.508" x2="232.606" y2="287.582"/>
  <line class="uuid-54e7f94c-839b-4fe2-bdd2-d712343dfb4a" x1="96.028" y1="253.091" x2="92.657" y2="247.23"/>
  <line class="uuid-54e7f94c-839b-4fe2-bdd2-d712343dfb4a" x1="116.448" y1="265.914" x2="97.418" y2="232.94"/>
  <line class="uuid-54e7f94c-839b-4fe2-bdd2-d712343dfb4a" x1="125.05" y1="258.246" x2="104.431" y2="222.482"/>
  <line class="uuid-54e7f94c-839b-4fe2-bdd2-d712343dfb4a" x1="131.838" y1="247.4" x2="111.687" y2="212.493"/>
  <line class="uuid-54e7f94c-839b-4fe2-bdd2-d712343dfb4a" x1="138.874" y1="236.994" x2="119.134" y2="202.794"/>
  <line class="uuid-54e7f94c-839b-4fe2-bdd2-d712343dfb4a" x1="146.129" y1="227" x2="126.783" y2="193.511"/>
  <line class="uuid-54e7f94c-839b-4fe2-bdd2-d712343dfb4a" x1="153.628" y1="217.38" x2="134.624" y2="184.497"/>
  <line class="uuid-54e7f94c-839b-4fe2-bdd2-d712343dfb4a" x1="161.273" y1="208.07" x2="142.712" y2="175.85"/>
  <line class="uuid-54e7f94c-839b-4fe2-bdd2-d712343dfb4a" x1="169.141" y1="199.082" x2="150.894" y2="167.545"/>
  <line class="uuid-54e7f94c-839b-4fe2-bdd2-d712343dfb4a" x1="177.202" y1="190.484" x2="159.32" y2="159.459"/>
  <line class="uuid-54e7f94c-839b-4fe2-bdd2-d712343dfb4a" x1="185.459" y1="182.175" x2="167.919" y2="151.812"/>
  <line class="uuid-54e7f94c-839b-4fe2-bdd2-d712343dfb4a" x1="193.936" y1="174.286" x2="176.691" y2="144.436"/>
  <line class="uuid-54e7f94c-839b-4fe2-bdd2-d712343dfb4a" x1="202.582" y1="166.663" x2="185.679" y2="137.475"/>
  <line class="uuid-54e7f94c-839b-4fe2-bdd2-d712343dfb4a" x1="211.45" y1="159.459" x2="194.911" y2="130.851"/>
  <line class="uuid-54e7f94c-839b-4fe2-bdd2-d712343dfb4a" x1="220.511" y1="152.666" x2="204.389" y2="124.622"/>
  <line class="uuid-54e7f94c-839b-4fe2-bdd2-d712343dfb4a" x1="229.869" y1="146.243" x2="214.065" y2="118.882"/>
  <line class="uuid-54e7f94c-839b-4fe2-bdd2-d712343dfb4a" x1="239.395" y1="140.182" x2="224.055" y2="113.654"/>
  <line class="uuid-54e7f94c-839b-4fe2-bdd2-d712343dfb4a" x1="249.266" y1="134.737" x2="234.46" y2="109.015"/>
  <line class="uuid-54e7f94c-839b-4fe2-bdd2-d712343dfb4a" x1="259.428" y1="129.682" x2="245.139" y2="105.008"/>
  <line class="uuid-54e7f94c-839b-4fe2-bdd2-d712343dfb4a" x1="269.882" y1="125.207" x2="256.349" y2="101.759"/>
  <line class="uuid-54e7f94c-839b-4fe2-bdd2-d712343dfb4a" x1="280.629" y1="121.326" x2="268.027" y2="99.489"/>
  <line class="uuid-54e7f94c-839b-4fe2-bdd2-d712343dfb4a" x1="291.943" y1="118.298" x2="280.385" y2="98.315"/>
  <line class="uuid-54e7f94c-839b-4fe2-bdd2-d712343dfb4a" x1="303.691" y1="116.024" x2="293.628" y2="98.609"/>
  <line class="uuid-54e7f94c-839b-4fe2-bdd2-d712343dfb4a" x1="315.929" y1="114.707" x2="307.989" y2="100.927"/>
  <line class="uuid-54e7f94c-839b-4fe2-bdd2-d712343dfb4a" x1="328.95" y1="114.633" x2="324.649" y2="107.204"/>
</svg>