<?xml version="1.0" encoding="UTF-8"?>
<svg id="uuid-ee06eae8-834a-4e01-8b90-97e42c3b6e77" data-name="&amp;lt;Layer&amp;gt;" xmlns="http://www.w3.org/2000/svg" viewBox="0 0 451.11 451.11">
  <defs>
    <style>
      .uuid-3092520c-220c-44cf-808b-1d2284dc9a89 {
        stroke-width: 4.117px;
      }

      .uuid-3092520c-220c-44cf-808b-1d2284dc9a89, .uuid-27d1fc74-39ba-4fc0-95ec-92f4dd55c834, .uuid-1e978a60-b6de-44e4-8ddc-a55771c37ded, .uuid-ca9c956f-7765-4a56-93eb-458af21a45a1, .uuid-9107eed2-dfd6-4225-8e4b-86e1ba339a81, .uuid-ad0db327-986d-4008-91d3-22a7ae006edb {
        fill: none;
        stroke: #000;
        stroke-linecap: round;
      }

      .uuid-3092520c-220c-44cf-808b-1d2284dc9a89, .uuid-27d1fc74-39ba-4fc0-95ec-92f4dd55c834, .uuid-ad0db327-986d-4008-91d3-22a7ae006edb {
        stroke-linejoin: round;
      }

      .uuid-27d1fc74-39ba-4fc0-95ec-92f4dd55c834, .uuid-ad0db327-986d-4008-91d3-22a7ae006edb {
        stroke-width: 4.113px;
      }

      .uuid-1e978a60-b6de-44e4-8ddc-a55771c37ded {
        stroke-width: 1.163px;
      }

      .uuid-1e978a60-b6de-44e4-8ddc-a55771c37ded, .uuid-ca9c956f-7765-4a56-93eb-458af21a45a1, .uuid-9107eed2-dfd6-4225-8e4b-86e1ba339a81 {
        stroke-miterlimit: 10;
      }

      .uuid-ca9c956f-7765-4a56-93eb-458af21a45a1 {
        stroke-width: 1.167px;
      }

      .uuid-9107eed2-dfd6-4225-8e4b-86e1ba339a81 {
        stroke-width: 1.159px;
      }

      .uuid-ad0db327-986d-4008-91d3-22a7ae006edb {
        fill-rule: evenodd;
      }
    </style>
  </defs>
  <line class="uuid-27d1fc74-39ba-4fc0-95ec-92f4dd55c834" x1="97.828" y1="293.835" x2="91.502" y2="289.535"/>
  <path class="uuid-ad0db327-986d-4008-91d3-22a7ae006edb" d="M91.502,289.535c-1.005-1.711-1.299-3.176-1.299-5.13"/>
  <line class="uuid-27d1fc74-39ba-4fc0-95ec-92f4dd55c834" x1="90.203" y1="284.405" x2="90.203" y2="182.199"/>
  <path class="uuid-ad0db327-986d-4008-91d3-22a7ae006edb" d="M90.203,182.199c.199-7.108,4.643-14.831,10.7-18.517"/>
  <line class="uuid-27d1fc74-39ba-4fc0-95ec-92f4dd55c834" x1="100.903" y1="163.682" x2="244.907" y2="80.627"/>
  <path class="uuid-ad0db327-986d-4008-91d3-22a7ae006edb" d="M244.907,80.627c2.443-1.32,5.01-2.1,7.549-.736"/>
  <line class="uuid-27d1fc74-39ba-4fc0-95ec-92f4dd55c834" x1="252.456" y1="79.891" x2="258.785" y2="84.193"/>
  <path class="uuid-ad0db327-986d-4008-91d3-22a7ae006edb" d="M258.785,84.193c-2.613-1.369-5.108-.585-7.551.732"/>
  <line class="uuid-27d1fc74-39ba-4fc0-95ec-92f4dd55c834" x1="251.234" y1="84.925" x2="107.232" y2="167.98"/>
  <path class="uuid-ad0db327-986d-4008-91d3-22a7ae006edb" d="M107.232,167.98c-6.06,3.69-10.505,11.482-10.673,18.517"/>
  <line class="uuid-27d1fc74-39ba-4fc0-95ec-92f4dd55c834" x1="96.558" y1="186.497" x2="96.484" y2="288.703"/>
  <path class="uuid-ad0db327-986d-4008-91d3-22a7ae006edb" d="M96.484,288.703c.074,1.954.291,3.422,1.343,5.132"/>
  <path class="uuid-ad0db327-986d-4008-91d3-22a7ae006edb" d="M251.234,84.925c5.888-3.396,10.699-.61,10.699,6.181"/>
  <line class="uuid-27d1fc74-39ba-4fc0-95ec-92f4dd55c834" x1="261.934" y1="91.106" x2="261.887" y2="193.312"/>
  <path class="uuid-ad0db327-986d-4008-91d3-22a7ae006edb" d="M261.887,193.312c0,6.792-4.839,15.122-10.701,18.519"/>
  <line class="uuid-27d1fc74-39ba-4fc0-95ec-92f4dd55c834" x1="251.186" y1="211.83" x2="246.301" y2="214.347"/>
  <path class="uuid-ad0db327-986d-4008-91d3-22a7ae006edb" d="M107.117,294.697c-5.862,3.392-10.633.798-10.633-5.994"/>
  <polyline class="uuid-ad0db327-986d-4008-91d3-22a7ae006edb" points="107.868 175.651 145.78 153.787 250.602 93.328"/>
  <path class="uuid-ad0db327-986d-4008-91d3-22a7ae006edb" d="M250.602,93.328c2.686-1.537,4.882-.293,4.882,2.834"/>
  <line class="uuid-27d1fc74-39ba-4fc0-95ec-92f4dd55c834" x1="255.484" y1="96.161" x2="255.414" y2="195.684"/>
  <path class="uuid-ad0db327-986d-4008-91d3-22a7ae006edb" d="M255.414,195.684c0,3.124-2.126,6.911-4.864,8.475"/>
  <polyline class="uuid-ad0db327-986d-4008-91d3-22a7ae006edb" points="250.55 204.159 132.321 272.362 107.868 286.481"/>
  <path class="uuid-ad0db327-986d-4008-91d3-22a7ae006edb" d="M107.868,286.481c-2.738,1.542-4.934.295-4.934-2.833"/>
  <line class="uuid-27d1fc74-39ba-4fc0-95ec-92f4dd55c834" x1="102.934" y1="283.647" x2="102.982" y2="184.128"/>
  <path class="uuid-ad0db327-986d-4008-91d3-22a7ae006edb" d="M102.982,184.128c0-3.102,2.196-6.914,4.886-8.477"/>
  <polyline class="uuid-ad0db327-986d-4008-91d3-22a7ae006edb" points="228.713 131.388 228.713 199.615 129.753 256.777 129.753 188.525"/>
  <polygon class="uuid-ad0db327-986d-4008-91d3-22a7ae006edb" points="129.753 188.525 228.713 131.388 228.713 121.541 129.753 178.705 129.753 188.525"/>
  <path class="uuid-ad0db327-986d-4008-91d3-22a7ae006edb" d="M154.842,190.309c1.343-.784,2.443-.147,2.443,1.416"/>
  <path class="uuid-ad0db327-986d-4008-91d3-22a7ae006edb" d="M157.285,191.725c0,1.538-1.099,3.419-2.443,4.177"/>
  <path class="uuid-ad0db327-986d-4008-91d3-22a7ae006edb" d="M154.842,195.902c-1.32.783-2.443.147-2.443-1.391"/>
  <path class="uuid-ad0db327-986d-4008-91d3-22a7ae006edb" d="M152.399,194.511c0-1.542,1.123-3.422,2.443-4.202"/>
  <path class="uuid-ad0db327-986d-4008-91d3-22a7ae006edb" d="M154.842,205.38c1.343-.78,2.443-.148,2.443,1.394"/>
  <path class="uuid-ad0db327-986d-4008-91d3-22a7ae006edb" d="M157.285,206.774c0,1.538-1.099,3.418-2.443,4.198"/>
  <path class="uuid-ad0db327-986d-4008-91d3-22a7ae006edb" d="M154.842,210.972c-1.32.758-2.443.148-2.443-1.39"/>
  <path class="uuid-ad0db327-986d-4008-91d3-22a7ae006edb" d="M152.399,209.582c0-1.564,1.123-3.444,2.443-4.202"/>
  <path class="uuid-ad0db327-986d-4008-91d3-22a7ae006edb" d="M154.842,221.382c1.343-.784,2.443-.148,2.443,1.39"/>
  <path class="uuid-ad0db327-986d-4008-91d3-22a7ae006edb" d="M157.285,222.772c0,1.542-1.099,3.422-2.443,4.202"/>
  <path class="uuid-ad0db327-986d-4008-91d3-22a7ae006edb" d="M154.842,226.974c-1.32.758-2.443.148-2.443-1.416"/>
  <path class="uuid-ad0db327-986d-4008-91d3-22a7ae006edb" d="M152.399,225.558c0-1.516,1.123-3.418,2.443-4.176"/>
  <line class="uuid-27d1fc74-39ba-4fc0-95ec-92f4dd55c834" x1="360.77" y1="273.168" x2="360.77" y2="280.962"/>
  <path class="uuid-ad0db327-986d-4008-91d3-22a7ae006edb" d="M360.77,280.962c-.707,2.37-2.27,3.712-4.298,4.96"/>
  <line class="uuid-27d1fc74-39ba-4fc0-95ec-92f4dd55c834" x1="356.472" y1="285.921" x2="211.932" y2="369.392"/>
  <path class="uuid-ad0db327-986d-4008-91d3-22a7ae006edb" d="M211.932,369.392c-3.202,1.759-6.377,2.391-9.993,2.539"/>
  <line class="uuid-27d1fc74-39ba-4fc0-95ec-92f4dd55c834" x1="190.506" y1="369.392" x2="101.712" y2="318.021"/>
  <path class="uuid-ad0db327-986d-4008-91d3-22a7ae006edb" d="M101.712,318.021c-2.028-1.223-3.595-2.591-4.25-4.939"/>
  <line class="uuid-27d1fc74-39ba-4fc0-95ec-92f4dd55c834" x1="97.463" y1="313.082" x2="97.463" y2="305.268"/>
  <path class="uuid-ad0db327-986d-4008-91d3-22a7ae006edb" d="M97.463,305.268c.654,2.343,2.222,3.712,4.25,4.96"/>
  <line class="uuid-27d1fc74-39ba-4fc0-95ec-92f4dd55c834" x1="101.712" y1="310.228" x2="190.506" y2="361.547"/>
  <path class="uuid-ad0db327-986d-4008-91d3-22a7ae006edb" d="M201.939,364.115c3.616-.147,6.791-.784,9.993-2.543"/>
  <line class="uuid-27d1fc74-39ba-4fc0-95ec-92f4dd55c834" x1="211.932" y1="361.573" x2="356.472" y2="278.077"/>
  <path class="uuid-ad0db327-986d-4008-91d3-22a7ae006edb" d="M356.472,278.077c2.027-1.221,3.59-2.565,4.298-4.909"/>
  <line class="uuid-27d1fc74-39ba-4fc0-95ec-92f4dd55c834" x1="101.712" y1="297.817" x2="246.301" y2="214.347"/>
  <path class="uuid-ad0db327-986d-4008-91d3-22a7ae006edb" d="M246.301,214.347c5.864-3.422,15.512-3.422,21.451,0"/>
  <line class="uuid-27d1fc74-39ba-4fc0-95ec-92f4dd55c834" x1="267.751" y1="214.347" x2="356.472" y2="265.692"/>
  <path class="uuid-ad0db327-986d-4008-91d3-22a7ae006edb" d="M356.472,265.692c5.912,3.397,5.912,8.989,0,12.386"/>
  <path class="uuid-ad0db327-986d-4008-91d3-22a7ae006edb" d="M101.712,310.228c-5.864-3.421-5.864-9.015,0-12.41"/>
  <polygon class="uuid-ad0db327-986d-4008-91d3-22a7ae006edb" points="257.122 327.009 296.649 304.141 266.405 286.653 226.855 309.518 257.122 327.009"/>
  <path class="uuid-ad0db327-986d-4008-91d3-22a7ae006edb" d="M119.836,300.724c43.774-25.307,87.551-50.617,131.398-75.924,3.154-1.807,8.305-1.807,11.458.026"/>
  <line class="uuid-27d1fc74-39ba-4fc0-95ec-92f4dd55c834" x1="262.692" y1="224.826" x2="307.47" y2="250.717"/>
  <path class="uuid-ad0db327-986d-4008-91d3-22a7ae006edb" d="M307.47,250.717c3.175,1.811,3.127,4.813,0,6.624-43.802,25.28-87.576,50.613-131.424,75.898-3.153,1.832-8.305,1.806-11.458,0"/>
  <line class="uuid-27d1fc74-39ba-4fc0-95ec-92f4dd55c834" x1="164.589" y1="333.239" x2="119.836" y2="307.32"/>
  <path class="uuid-ad0db327-986d-4008-91d3-22a7ae006edb" d="M119.836,307.32c-3.149-1.809-3.149-4.79,0-6.596"/>
  <polyline class="uuid-ad0db327-986d-4008-91d3-22a7ae006edb" points="202.063 371.931 202.063 364.115 201.939 364.115"/>
  <path class="uuid-ad0db327-986d-4008-91d3-22a7ae006edb" d="M201.939,364.115c-4.055.048-7.841-.563-11.433-2.569"/>
  <path class="uuid-ad0db327-986d-4008-91d3-22a7ae006edb" d="M190.506,369.392c3.592,1.979,7.378,2.59,11.433,2.539"/>
  <line class="uuid-27d1fc74-39ba-4fc0-95ec-92f4dd55c834" x1="201.939" y1="371.931" x2="202.063" y2="371.931"/>
  <line class="uuid-27d1fc74-39ba-4fc0-95ec-92f4dd55c834" x1="164.199" y1="202.767" x2="202.943" y2="180.416"/>
  <line class="uuid-27d1fc74-39ba-4fc0-95ec-92f4dd55c834" x1="164.199" y1="187.694" x2="202.943" y2="165.345"/>
  <line class="uuid-27d1fc74-39ba-4fc0-95ec-92f4dd55c834" x1="164.199" y1="218.765" x2="195.492" y2="200.692"/>
  <line class="uuid-27d1fc74-39ba-4fc0-95ec-92f4dd55c834" x1="161.256" y1="301.46" x2="147.454" y2="309.454"/>
  <line class="uuid-27d1fc74-39ba-4fc0-95ec-92f4dd55c834" x1="147.454" y1="309.454" x2="133.606" y2="301.438"/>
  <line class="uuid-27d1fc74-39ba-4fc0-95ec-92f4dd55c834" x1="133.606" y1="301.438" x2="147.466" y2="293.464"/>
  <line class="uuid-3092520c-220c-44cf-808b-1d2284dc9a89" x1="147.462" y1="293.464" x2="161.256" y2="301.46"/>
  <line class="uuid-27d1fc74-39ba-4fc0-95ec-92f4dd55c834" x1="175.101" y1="309.477" x2="161.3" y2="317.472"/>
  <line class="uuid-27d1fc74-39ba-4fc0-95ec-92f4dd55c834" x1="161.3" y1="317.476" x2="147.454" y2="309.458"/>
  <line class="uuid-27d1fc74-39ba-4fc0-95ec-92f4dd55c834" x1="147.454" y1="309.458" x2="161.311" y2="301.486"/>
  <line class="uuid-3092520c-220c-44cf-808b-1d2284dc9a89" x1="161.308" y1="301.486" x2="175.101" y2="309.477"/>
  <line class="uuid-27d1fc74-39ba-4fc0-95ec-92f4dd55c834" x1="188.947" y1="317.498" x2="175.146" y2="325.493"/>
  <line class="uuid-27d1fc74-39ba-4fc0-95ec-92f4dd55c834" x1="175.146" y1="325.493" x2="161.3" y2="317.476"/>
  <line class="uuid-27d1fc74-39ba-4fc0-95ec-92f4dd55c834" x1="161.3" y1="317.48" x2="175.156" y2="309.502"/>
  <line class="uuid-27d1fc74-39ba-4fc0-95ec-92f4dd55c834" x1="175.156" y1="309.502" x2="188.947" y2="317.498"/>
  <line class="uuid-27d1fc74-39ba-4fc0-95ec-92f4dd55c834" x1="175.057" y1="293.464" x2="161.256" y2="301.46"/>
  <line class="uuid-27d1fc74-39ba-4fc0-95ec-92f4dd55c834" x1="161.256" y1="301.46" x2="147.406" y2="293.442"/>
  <line class="uuid-27d1fc74-39ba-4fc0-95ec-92f4dd55c834" x1="147.406" y1="293.442" x2="161.264" y2="285.468"/>
  <line class="uuid-3092520c-220c-44cf-808b-1d2284dc9a89" x1="161.264" y1="285.468" x2="175.057" y2="293.464"/>
  <line class="uuid-27d1fc74-39ba-4fc0-95ec-92f4dd55c834" x1="188.903" y1="301.482" x2="175.101" y2="309.477"/>
  <line class="uuid-27d1fc74-39ba-4fc0-95ec-92f4dd55c834" x1="175.101" y1="309.48" x2="161.256" y2="301.463"/>
  <line class="uuid-27d1fc74-39ba-4fc0-95ec-92f4dd55c834" x1="161.256" y1="301.463" x2="175.112" y2="293.49"/>
  <line class="uuid-3092520c-220c-44cf-808b-1d2284dc9a89" x1="175.108" y1="293.49" x2="188.903" y2="301.482"/>
  <line class="uuid-27d1fc74-39ba-4fc0-95ec-92f4dd55c834" x1="202.748" y1="309.502" x2="188.947" y2="317.498"/>
  <line class="uuid-27d1fc74-39ba-4fc0-95ec-92f4dd55c834" x1="188.947" y1="317.498" x2="175.101" y2="309.48"/>
  <line class="uuid-27d1fc74-39ba-4fc0-95ec-92f4dd55c834" x1="175.101" y1="309.484" x2="188.958" y2="301.508"/>
  <line class="uuid-27d1fc74-39ba-4fc0-95ec-92f4dd55c834" x1="188.859" y1="285.468" x2="175.057" y2="293.464"/>
  <line class="uuid-27d1fc74-39ba-4fc0-95ec-92f4dd55c834" x1="175.057" y1="293.468" x2="161.212" y2="285.446"/>
  <line class="uuid-27d1fc74-39ba-4fc0-95ec-92f4dd55c834" x1="161.212" y1="285.45" x2="175.068" y2="277.474"/>
  <line class="uuid-27d1fc74-39ba-4fc0-95ec-92f4dd55c834" x1="175.064" y1="277.478" x2="188.859" y2="285.468"/>
  <line class="uuid-27d1fc74-39ba-4fc0-95ec-92f4dd55c834" x1="202.703" y1="293.49" x2="188.903" y2="301.486"/>
  <line class="uuid-27d1fc74-39ba-4fc0-95ec-92f4dd55c834" x1="188.903" y1="301.486" x2="175.057" y2="293.468"/>
  <line class="uuid-27d1fc74-39ba-4fc0-95ec-92f4dd55c834" x1="175.057" y1="293.468" x2="188.913" y2="285.494"/>
  <line class="uuid-27d1fc74-39ba-4fc0-95ec-92f4dd55c834" x1="188.913" y1="285.494" x2="202.707" y2="293.49"/>
  <line class="uuid-27d1fc74-39ba-4fc0-95ec-92f4dd55c834" x1="216.553" y1="301.51" x2="202.748" y2="309.502"/>
  <line class="uuid-27d1fc74-39ba-4fc0-95ec-92f4dd55c834" x1="188.903" y1="301.488" x2="202.759" y2="293.516"/>
  <line class="uuid-27d1fc74-39ba-4fc0-95ec-92f4dd55c834" x1="202.659" y1="277.474" x2="188.859" y2="285.468"/>
  <line class="uuid-27d1fc74-39ba-4fc0-95ec-92f4dd55c834" x1="188.859" y1="285.472" x2="175.013" y2="277.452"/>
  <line class="uuid-27d1fc74-39ba-4fc0-95ec-92f4dd55c834" x1="175.013" y1="277.456" x2="188.869" y2="269.478"/>
  <line class="uuid-27d1fc74-39ba-4fc0-95ec-92f4dd55c834" x1="188.865" y1="269.482" x2="202.659" y2="277.474"/>
  <line class="uuid-27d1fc74-39ba-4fc0-95ec-92f4dd55c834" x1="216.505" y1="285.494" x2="202.703" y2="293.49"/>
  <line class="uuid-27d1fc74-39ba-4fc0-95ec-92f4dd55c834" x1="202.703" y1="293.49" x2="188.859" y2="285.472"/>
  <line class="uuid-27d1fc74-39ba-4fc0-95ec-92f4dd55c834" x1="188.859" y1="285.472" x2="202.715" y2="277.5"/>
  <line class="uuid-27d1fc74-39ba-4fc0-95ec-92f4dd55c834" x1="202.715" y1="277.5" x2="216.509" y2="285.494"/>
  <line class="uuid-27d1fc74-39ba-4fc0-95ec-92f4dd55c834" x1="230.355" y1="293.516" x2="216.549" y2="301.508"/>
  <line class="uuid-3092520c-220c-44cf-808b-1d2284dc9a89" x1="202.703" y1="293.494" x2="216.561" y2="285.52"/>
  <line class="uuid-27d1fc74-39ba-4fc0-95ec-92f4dd55c834" x1="216.561" y1="285.52" x2="230.355" y2="293.512"/>
  <line class="uuid-3092520c-220c-44cf-808b-1d2284dc9a89" x1="211.03" y1="256.649" x2="224.824" y2="264.641"/>
  <line class="uuid-3092520c-220c-44cf-808b-1d2284dc9a89" x1="224.876" y1="264.665" x2="238.67" y2="272.661"/>
  <line class="uuid-27d1fc74-39ba-4fc0-95ec-92f4dd55c834" x1="238.724" y1="272.687" x2="252.515" y2="280.679"/>
  <line class="uuid-27d1fc74-39ba-4fc0-95ec-92f4dd55c834" x1="238.626" y1="256.645" x2="224.824" y2="264.641"/>
  <line class="uuid-27d1fc74-39ba-4fc0-95ec-92f4dd55c834" x1="224.824" y1="264.643" x2="210.976" y2="256.623"/>
  <line class="uuid-27d1fc74-39ba-4fc0-95ec-92f4dd55c834" x1="210.976" y1="256.627" x2="224.832" y2="248.653"/>
  <line class="uuid-3092520c-220c-44cf-808b-1d2284dc9a89" x1="224.832" y1="248.653" x2="238.626" y2="256.645"/>
  <line class="uuid-27d1fc74-39ba-4fc0-95ec-92f4dd55c834" x1="252.471" y1="264.665" x2="238.67" y2="272.661"/>
  <line class="uuid-27d1fc74-39ba-4fc0-95ec-92f4dd55c834" x1="238.67" y1="272.661" x2="224.824" y2="264.643"/>
  <line class="uuid-27d1fc74-39ba-4fc0-95ec-92f4dd55c834" x1="224.824" y1="264.643" x2="238.68" y2="256.671"/>
  <line class="uuid-3092520c-220c-44cf-808b-1d2284dc9a89" x1="238.677" y1="256.671" x2="252.471" y2="264.665"/>
  <line class="uuid-27d1fc74-39ba-4fc0-95ec-92f4dd55c834" x1="266.316" y1="272.687" x2="252.515" y2="280.679"/>
  <line class="uuid-27d1fc74-39ba-4fc0-95ec-92f4dd55c834" x1="252.515" y1="280.683" x2="238.67" y2="272.665"/>
  <line class="uuid-27d1fc74-39ba-4fc0-95ec-92f4dd55c834" x1="238.67" y1="272.665" x2="252.526" y2="264.691"/>
  <line class="uuid-27d1fc74-39ba-4fc0-95ec-92f4dd55c834" x1="252.526" y1="264.691" x2="266.316" y2="272.687"/>
  <line class="uuid-27d1fc74-39ba-4fc0-95ec-92f4dd55c834" x1="252.427" y1="248.653" x2="238.626" y2="256.649"/>
  <line class="uuid-27d1fc74-39ba-4fc0-95ec-92f4dd55c834" x1="238.626" y1="256.649" x2="224.78" y2="248.631"/>
  <line class="uuid-27d1fc74-39ba-4fc0-95ec-92f4dd55c834" x1="224.78" y1="248.631" x2="238.636" y2="240.657"/>
  <line class="uuid-27d1fc74-39ba-4fc0-95ec-92f4dd55c834" x1="238.636" y1="240.657" x2="252.427" y2="248.653"/>
  <line class="uuid-27d1fc74-39ba-4fc0-95ec-92f4dd55c834" x1="266.272" y1="256.671" x2="252.471" y2="264.665"/>
  <line class="uuid-27d1fc74-39ba-4fc0-95ec-92f4dd55c834" x1="252.471" y1="264.669" x2="238.626" y2="256.651"/>
  <line class="uuid-27d1fc74-39ba-4fc0-95ec-92f4dd55c834" x1="238.626" y1="256.651" x2="252.482" y2="248.679"/>
  <line class="uuid-27d1fc74-39ba-4fc0-95ec-92f4dd55c834" x1="252.482" y1="248.679" x2="266.275" y2="256.671"/>
  <line class="uuid-27d1fc74-39ba-4fc0-95ec-92f4dd55c834" x1="280.121" y1="264.691" x2="266.316" y2="272.687"/>
  <line class="uuid-3092520c-220c-44cf-808b-1d2284dc9a89" x1="266.32" y1="272.687" x2="252.471" y2="264.669"/>
  <line class="uuid-27d1fc74-39ba-4fc0-95ec-92f4dd55c834" x1="252.471" y1="264.673" x2="266.327" y2="256.697"/>
  <line class="uuid-3092520c-220c-44cf-808b-1d2284dc9a89" x1="266.327" y1="256.697" x2="280.121" y2="264.691"/>
  <line class="uuid-27d1fc74-39ba-4fc0-95ec-92f4dd55c834" x1="266.227" y1="240.657" x2="252.427" y2="248.653"/>
  <line class="uuid-27d1fc74-39ba-4fc0-95ec-92f4dd55c834" x1="252.427" y1="248.653" x2="238.581" y2="240.635"/>
  <line class="uuid-27d1fc74-39ba-4fc0-95ec-92f4dd55c834" x1="238.581" y1="240.635" x2="252.438" y2="232.663"/>
  <line class="uuid-27d1fc74-39ba-4fc0-95ec-92f4dd55c834" x1="252.434" y1="232.663" x2="266.227" y2="240.657"/>
  <line class="uuid-27d1fc74-39ba-4fc0-95ec-92f4dd55c834" x1="280.073" y1="248.675" x2="266.272" y2="256.671"/>
  <line class="uuid-27d1fc74-39ba-4fc0-95ec-92f4dd55c834" x1="266.272" y1="256.675" x2="252.427" y2="248.657"/>
  <line class="uuid-27d1fc74-39ba-4fc0-95ec-92f4dd55c834" x1="252.427" y1="248.657" x2="266.283" y2="240.683"/>
  <line class="uuid-27d1fc74-39ba-4fc0-95ec-92f4dd55c834" x1="266.283" y1="240.683" x2="280.077" y2="248.675"/>
  <line class="uuid-27d1fc74-39ba-4fc0-95ec-92f4dd55c834" x1="293.923" y1="256.697" x2="280.117" y2="264.691"/>
  <line class="uuid-27d1fc74-39ba-4fc0-95ec-92f4dd55c834" x1="280.121" y1="264.691" x2="266.272" y2="256.675"/>
  <line class="uuid-27d1fc74-39ba-4fc0-95ec-92f4dd55c834" x1="266.272" y1="256.677" x2="280.129" y2="248.701"/>
  <line class="uuid-27d1fc74-39ba-4fc0-95ec-92f4dd55c834" x1="280.129" y1="248.705" x2="293.923" y2="256.697"/>
  <line class="uuid-27d1fc74-39ba-4fc0-95ec-92f4dd55c834" x1="188.865" y1="269.482" x2="202.659" y2="277.478"/>
  <line class="uuid-27d1fc74-39ba-4fc0-95ec-92f4dd55c834" x1="202.715" y1="277.502" x2="216.509" y2="285.494"/>
  <line class="uuid-27d1fc74-39ba-4fc0-95ec-92f4dd55c834" x1="216.561" y1="285.52" x2="230.355" y2="293.516"/>
  <line class="uuid-27d1fc74-39ba-4fc0-95ec-92f4dd55c834" x1="216.461" y1="269.482" x2="202.659" y2="277.478"/>
  <line class="uuid-27d1fc74-39ba-4fc0-95ec-92f4dd55c834" x1="202.659" y1="277.478" x2="188.815" y2="269.46"/>
  <line class="uuid-27d1fc74-39ba-4fc0-95ec-92f4dd55c834" x1="188.815" y1="269.46" x2="202.671" y2="261.486"/>
  <line class="uuid-27d1fc74-39ba-4fc0-95ec-92f4dd55c834" x1="202.667" y1="261.486" x2="216.461" y2="269.482"/>
  <line class="uuid-27d1fc74-39ba-4fc0-95ec-92f4dd55c834" x1="230.307" y1="277.5" x2="216.505" y2="285.494"/>
  <line class="uuid-27d1fc74-39ba-4fc0-95ec-92f4dd55c834" x1="216.505" y1="285.498" x2="202.659" y2="277.478"/>
  <line class="uuid-27d1fc74-39ba-4fc0-95ec-92f4dd55c834" x1="202.659" y1="277.48" x2="216.517" y2="269.504"/>
  <line class="uuid-27d1fc74-39ba-4fc0-95ec-92f4dd55c834" x1="216.517" y1="269.508" x2="230.307" y2="277.5"/>
  <line class="uuid-27d1fc74-39ba-4fc0-95ec-92f4dd55c834" x1="244.155" y1="285.52" x2="230.351" y2="293.516"/>
  <line class="uuid-27d1fc74-39ba-4fc0-95ec-92f4dd55c834" x1="230.355" y1="293.516" x2="216.505" y2="285.498"/>
  <line class="uuid-27d1fc74-39ba-4fc0-95ec-92f4dd55c834" x1="216.505" y1="285.498" x2="230.361" y2="277.524"/>
  <line class="uuid-27d1fc74-39ba-4fc0-95ec-92f4dd55c834" x1="230.361" y1="277.524" x2="244.155" y2="285.52"/>
  <line class="uuid-9107eed2-dfd6-4225-8e4b-86e1ba339a81" x1="109.722" y1="312.718" x2="102.055" y2="299.454"/>
  <line class="uuid-9107eed2-dfd6-4225-8e4b-86e1ba339a81" x1="148.86" y1="335.387" x2="140.92" y2="321.559"/>
  <line class="uuid-9107eed2-dfd6-4225-8e4b-86e1ba339a81" x1="125.702" y1="295.275" x2="121.864" y2="288.56"/>
  <line class="uuid-9107eed2-dfd6-4225-8e4b-86e1ba339a81" x1="188.189" y1="358.324" x2="174.825" y2="335.118"/>
  <line class="uuid-9107eed2-dfd6-4225-8e4b-86e1ba339a81" x1="145.266" y1="283.964" x2="141.383" y2="277.271"/>
  <line class="uuid-9107eed2-dfd6-4225-8e4b-86e1ba339a81" x1="214.716" y1="359.156" x2="194.22" y2="323.613"/>
  <line class="uuid-9107eed2-dfd6-4225-8e4b-86e1ba339a81" x1="164.832" y1="272.679" x2="160.951" y2="265.987"/>
  <line class="uuid-9107eed2-dfd6-4225-8e4b-86e1ba339a81" x1="234.284" y1="347.871" x2="213.79" y2="312.325"/>
  <line class="uuid-9107eed2-dfd6-4225-8e4b-86e1ba339a81" x1="184.351" y1="261.37" x2="180.517" y2="254.702"/>
  <line class="uuid-9107eed2-dfd6-4225-8e4b-86e1ba339a81" x1="253.456" y1="335.85" x2="245.667" y2="322.417"/>
  <line class="uuid-9107eed2-dfd6-4225-8e4b-86e1ba339a81" x1="234.358" y1="302.846" x2="234.015" y2="302.166"/>
  <line class="uuid-9107eed2-dfd6-4225-8e4b-86e1ba339a81" x1="203.918" y1="250.085" x2="200.084" y2="243.439"/>
  <line class="uuid-9107eed2-dfd6-4225-8e4b-86e1ba339a81" x1="272.781" y1="324.198" x2="271.048" y2="321.218"/>
  <line class="uuid-9107eed2-dfd6-4225-8e4b-86e1ba339a81" x1="253.921" y1="291.54" x2="253.508" y2="290.877"/>
  <line class="uuid-9107eed2-dfd6-4225-8e4b-86e1ba339a81" x1="223.484" y1="238.774" x2="219.651" y2="232.154"/>
  <line class="uuid-9107eed2-dfd6-4225-8e4b-86e1ba339a81" x1="292.3" y1="312.935" x2="290.614" y2="309.933"/>
  <line class="uuid-9107eed2-dfd6-4225-8e4b-86e1ba339a81" x1="280.695" y1="292.81" x2="272.855" y2="279.155"/>
  <line class="uuid-9107eed2-dfd6-4225-8e4b-86e1ba339a81" x1="243.004" y1="227.489" x2="239.167" y2="220.867"/>
  <line class="uuid-9107eed2-dfd6-4225-8e4b-86e1ba339a81" x1="312.526" y1="302.703" x2="291.958" y2="267.134"/>
  <line class="uuid-1e978a60-b6de-44e4-8ddc-a55771c37ded" x1="270.802" y1="230.451" x2="261.228" y2="213.858"/>
  <line class="uuid-9107eed2-dfd6-4225-8e4b-86e1ba339a81" x1="332.07" y1="291.466" x2="310.888" y2="254.724"/>
  <line class="uuid-1e978a60-b6de-44e4-8ddc-a55771c37ded" x1="308.78" y1="251.034" x2="299.262" y2="234.598"/>
  <line class="uuid-9107eed2-dfd6-4225-8e4b-86e1ba339a81" x1="351.365" y1="279.688" x2="338.248" y2="256.972"/>
  <line class="uuid-9107eed2-dfd6-4225-8e4b-86e1ba339a81" x1="282.554" y1="297.475" x2="271.339" y2="316.868"/>
  <line class="uuid-9107eed2-dfd6-4225-8e4b-86e1ba339a81" x1="259.248" y1="292.636" x2="244.395" y2="318.362"/>
  <line class="uuid-9107eed2-dfd6-4225-8e4b-86e1ba339a81" x1="214.375" y1="365.752" x2="214.375" y2="362.453"/>
  <line class="uuid-9107eed2-dfd6-4225-8e4b-86e1ba339a81" x1="225.634" y1="359.23" x2="225.634" y2="355.955"/>
  <line class="uuid-9107eed2-dfd6-4225-8e4b-86e1ba339a81" x1="236.969" y1="352.706" x2="236.969" y2="349.435"/>
  <line class="uuid-9107eed2-dfd6-4225-8e4b-86e1ba339a81" x1="248.232" y1="346.208" x2="248.232" y2="342.911"/>
  <line class="uuid-9107eed2-dfd6-4225-8e4b-86e1ba339a81" x1="259.539" y1="339.688" x2="259.539" y2="336.387"/>
  <line class="uuid-9107eed2-dfd6-4225-8e4b-86e1ba339a81" x1="270.828" y1="333.165" x2="270.828" y2="329.864"/>
  <line class="uuid-9107eed2-dfd6-4225-8e4b-86e1ba339a81" x1="282.09" y1="326.641" x2="282.09" y2="323.344"/>
  <line class="uuid-9107eed2-dfd6-4225-8e4b-86e1ba339a81" x1="293.396" y1="320.117" x2="293.396" y2="316.846"/>
  <line class="uuid-9107eed2-dfd6-4225-8e4b-86e1ba339a81" x1="304.659" y1="313.597" x2="304.659" y2="310.322"/>
  <line class="uuid-9107eed2-dfd6-4225-8e4b-86e1ba339a81" x1="315.943" y1="307.073" x2="315.943" y2="303.8"/>
  <line class="uuid-9107eed2-dfd6-4225-8e4b-86e1ba339a81" x1="327.254" y1="300.554" x2="327.254" y2="297.28"/>
  <line class="uuid-9107eed2-dfd6-4225-8e4b-86e1ba339a81" x1="338.517" y1="294.031" x2="338.517" y2="290.782"/>
  <line class="uuid-9107eed2-dfd6-4225-8e4b-86e1ba339a81" x1="349.852" y1="287.507" x2="349.852" y2="284.236"/>
  <line class="uuid-9107eed2-dfd6-4225-8e4b-86e1ba339a81" x1="94.625" y1="279.59" x2="92.234" y2="280.954"/>
  <line class="uuid-9107eed2-dfd6-4225-8e4b-86e1ba339a81" x1="94.625" y1="266.542" x2="92.234" y2="267.911"/>
  <line class="uuid-9107eed2-dfd6-4225-8e4b-86e1ba339a81" x1="94.625" y1="253.524" x2="92.234" y2="254.89"/>
  <line class="uuid-9107eed2-dfd6-4225-8e4b-86e1ba339a81" x1="94.625" y1="240.452" x2="92.234" y2="241.82"/>
  <line class="uuid-9107eed2-dfd6-4225-8e4b-86e1ba339a81" x1="94.625" y1="227.435" x2="92.234" y2="228.803"/>
  <line class="uuid-9107eed2-dfd6-4225-8e4b-86e1ba339a81" x1="94.625" y1="214.387" x2="92.234" y2="215.755"/>
  <line class="uuid-9107eed2-dfd6-4225-8e4b-86e1ba339a81" x1="94.625" y1="201.37" x2="92.234" y2="202.738"/>
  <line class="uuid-9107eed2-dfd6-4225-8e4b-86e1ba339a81" x1="94.625" y1="188.322" x2="92.234" y2="189.691"/>
  <line class="uuid-9107eed2-dfd6-4225-8e4b-86e1ba339a81" x1="106.301" y1="168.546" x2="91.539" y2="177.085"/>
  <line class="uuid-9107eed2-dfd6-4225-8e4b-86e1ba339a81" x1="260.945" y1="177.218" x2="256.525" y2="184.952"/>
  <line class="uuid-ca9c956f-7765-4a56-93eb-458af21a45a1" x1="242.721" y1="208.74" x2="236.253" y2="220.123"/>
  <line class="uuid-1e978a60-b6de-44e4-8ddc-a55771c37ded" x1="261.029" y1="131.977" x2="256.492" y2="139.763"/>
  <line class="uuid-9107eed2-dfd6-4225-8e4b-86e1ba339a81" x1="202.988" y1="232.479" x2="197.766" y2="241.552"/>
  <line class="uuid-1e978a60-b6de-44e4-8ddc-a55771c37ded" x1="260.794" y1="87.225" x2="256.091" y2="95.355"/>
  <line class="uuid-1e978a60-b6de-44e4-8ddc-a55771c37ded" x1="163.847" y1="255.125" x2="158.739" y2="263.999"/>
  <line class="uuid-9107eed2-dfd6-4225-8e4b-86e1ba339a81" x1="227.602" y1="99.473" x2="222.275" y2="108.826"/>
  <line class="uuid-1e978a60-b6de-44e4-8ddc-a55771c37ded" x1="125.279" y1="276.792" x2="119.086" y2="287.474"/>
  <line class="uuid-1e978a60-b6de-44e4-8ddc-a55771c37ded" x1="188.837" y1="121.519" x2="182.895" y2="131.873"/>
  <line class="uuid-9107eed2-dfd6-4225-8e4b-86e1ba339a81" x1="102.629" y1="270.696" x2="96.959" y2="280.771"/>
  <line class="uuid-1e978a60-b6de-44e4-8ddc-a55771c37ded" x1="149.754" y1="144.06" x2="144.04" y2="154.016"/>
  <line class="uuid-1e978a60-b6de-44e4-8ddc-a55771c37ded" x1="102.683" y1="225.616" x2="96.974" y2="235.467"/>
  <line class="uuid-9107eed2-dfd6-4225-8e4b-86e1ba339a81" x1="109.899" y1="167.96" x2="105.447" y2="175.699"/>
  <line class="uuid-1e978a60-b6de-44e4-8ddc-a55771c37ded" x1="102.091" y1="181.465" x2="97.617" y2="189.162"/>
  <line class="uuid-9107eed2-dfd6-4225-8e4b-86e1ba339a81" x1="200.206" y1="366.069" x2="194.93" y2="369.123"/>
  <line class="uuid-9107eed2-dfd6-4225-8e4b-86e1ba339a81" x1="186.036" y1="361.209" x2="183.178" y2="362.846"/>
  <line class="uuid-9107eed2-dfd6-4225-8e4b-86e1ba339a81" x1="174.777" y1="354.685" x2="171.919" y2="356.322"/>
  <line class="uuid-9107eed2-dfd6-4225-8e4b-86e1ba339a81" x1="163.514" y1="348.162" x2="160.656" y2="349.798"/>
  <line class="uuid-9107eed2-dfd6-4225-8e4b-86e1ba339a81" x1="152.231" y1="341.642" x2="149.393" y2="343.276"/>
  <line class="uuid-9107eed2-dfd6-4225-8e4b-86e1ba339a81" x1="140.92" y1="335.118" x2="138.06" y2="336.756"/>
  <line class="uuid-9107eed2-dfd6-4225-8e4b-86e1ba339a81" x1="129.657" y1="328.598" x2="126.799" y2="330.232"/>
  <line class="uuid-9107eed2-dfd6-4225-8e4b-86e1ba339a81" x1="118.372" y1="322.074" x2="115.536" y2="323.713"/>
  <line class="uuid-9107eed2-dfd6-4225-8e4b-86e1ba339a81" x1="107.11" y1="315.552" x2="104.277" y2="317.189"/>
  <line class="uuid-1e978a60-b6de-44e4-8ddc-a55771c37ded" x1="203.289" y1="136.325" x2="194.852" y2="150.925"/>
  <line class="uuid-9107eed2-dfd6-4225-8e4b-86e1ba339a81" x1="164.751" y1="157.997" x2="155.171" y2="174.4"/>
</svg>