<?xml version="1.0" encoding="UTF-8"?>
<svg id="uuid-a1461bd7-0b6a-42d6-b112-7bc73316b2fa" data-name="&amp;lt;Layer&amp;gt;" xmlns="http://www.w3.org/2000/svg" viewBox="0 0 451.11 451.11">
  <defs>
    <style>
      .uuid-bd80e315-a6fd-44b4-9e42-c601d94a0149, .uuid-551369dc-033a-444e-9f69-c1b210f2243c, .uuid-7f806ee5-0d27-47f9-b432-4de17d030312 {
        fill: none;
        stroke: #000;
        stroke-linecap: round;
      }

      .uuid-bd80e315-a6fd-44b4-9e42-c601d94a0149, .uuid-7f806ee5-0d27-47f9-b432-4de17d030312 {
        stroke-linejoin: round;
        stroke-width: 4.117px;
      }

      .uuid-551369dc-033a-444e-9f69-c1b210f2243c {
        stroke-miterlimit: 10;
        stroke-width: 1.163px;
      }

      .uuid-7f806ee5-0d27-47f9-b432-4de17d030312 {
        fill-rule: evenodd;
      }
    </style>
  </defs>
  <polyline class="uuid-7f806ee5-0d27-47f9-b432-4de17d030312" points="134.879 340.578 134.927 229.259 153.858 240.179 153.81 351.546"/>
  <polyline class="uuid-7f806ee5-0d27-47f9-b432-4de17d030312" points="153.858 240.179 134.927 229.259 134.927 193.131"/>
  <polyline class="uuid-7f806ee5-0d27-47f9-b432-4de17d030312" points="316.231 110.441 316.183 146.499 153.858 240.179 153.858 204.051"/>
  <path class="uuid-7f806ee5-0d27-47f9-b432-4de17d030312" d="M316.183,257.891c0,8.353-5.934,18.637-13.19,22.816-49.881,28.799-86.134,49.66-136.015,78.463-7.256,4.176-13.168.754-13.168-7.624"/>
  <polyline class="uuid-7f806ee5-0d27-47f9-b432-4de17d030312" points="153.81 351.546 153.858 240.179 316.183 146.499"/>
  <path class="uuid-7f806ee5-0d27-47f9-b432-4de17d030312" d="M253.575,149.869c3.543-2.028,6.373-.389,6.373,3.664,0,4.077-2.83,8.989-6.373,11.042-3.496,2.027-6.328.339-6.328-3.664,0-4.055,2.832-9.015,6.328-11.042Z"/>
  <path class="uuid-7f806ee5-0d27-47f9-b432-4de17d030312" d="M275.534,137.216c3.47-2.028,6.329-.343,6.329,3.664,0,4.055-2.86,8.989-6.329,11.016-3.54,2.053-6.398.415-6.398-3.64,0-4.08,2.858-9.013,6.398-11.041Z"/>
  <path class="uuid-7f806ee5-0d27-47f9-b432-4de17d030312" d="M297.423,124.562c3.47-1.979,6.328-.367,6.328,3.713,0,4.054-2.858,8.941-6.328,10.968-3.54,2.05-6.403.415-6.403-3.666,0-4.054,2.863-8.989,6.403-11.016Z"/>
  <polygon class="uuid-7f806ee5-0d27-47f9-b432-4de17d030312" points="204.721 268.396 204.721 262.532 231.786 246.85 231.786 252.785 204.721 268.396"/>
  <polygon class="uuid-7f806ee5-0d27-47f9-b432-4de17d030312" points="174.477 279.191 174.477 270.082 194.044 249.879 174.477 252.322 174.477 243.259 202.521 241.111 202.521 248.826 174.477 279.191"/>
  <line class="uuid-bd80e315-a6fd-44b4-9e42-c601d94a0149" x1="157.695" y1="360.049" x2="138.761" y2="349.129"/>
  <path class="uuid-7f806ee5-0d27-47f9-b432-4de17d030312" d="M138.761,349.129c-3.297-2.686-3.466-4.37-3.882-8.551"/>
  <path class="uuid-7f806ee5-0d27-47f9-b432-4de17d030312" d="M153.81,351.546c.415,4.129.588,5.814,3.885,8.503"/>
  <path class="uuid-7f806ee5-0d27-47f9-b432-4de17d030312" d="M134.927,193.131c.417-9.111,5.519-17.929,13.19-22.816"/>
  <line class="uuid-bd80e315-a6fd-44b4-9e42-c601d94a0149" x1="148.117" y1="170.315" x2="284.111" y2="91.878"/>
  <path class="uuid-7f806ee5-0d27-47f9-b432-4de17d030312" d="M284.111,91.878c3.786-1.711,5.349-2.395,9.305-.883"/>
  <line class="uuid-bd80e315-a6fd-44b4-9e42-c601d94a0149" x1="293.416" y1="90.996" x2="312.35" y2="101.894"/>
  <path class="uuid-7f806ee5-0d27-47f9-b432-4de17d030312" d="M312.35,101.894c-3.959-1.49-5.523-.81-9.309.953"/>
  <line class="uuid-bd80e315-a6fd-44b4-9e42-c601d94a0149" x1="303.041" y1="102.846" x2="167.052" y2="181.283"/>
  <path class="uuid-7f806ee5-0d27-47f9-b432-4de17d030312" d="M167.052,181.283c-7.673,4.887-12.775,13.702-13.194,22.768"/>
  <line class="uuid-bd80e315-a6fd-44b4-9e42-c601d94a0149" x1="153.858" y1="204.051" x2="153.858" y2="240.179"/>
  <path class="uuid-7f806ee5-0d27-47f9-b432-4de17d030312" d="M303.041,102.846c7.256-4.18,13.19-.758,13.19,7.595"/>
  <line class="uuid-bd80e315-a6fd-44b4-9e42-c601d94a0149" x1="316.183" y1="146.499" x2="316.183" y2="257.891"/>
  <line class="uuid-551369dc-033a-444e-9f69-c1b210f2243c" x1="194.044" y1="243.674" x2="191.431" y2="248.241"/>
  <line class="uuid-551369dc-033a-444e-9f69-c1b210f2243c" x1="181.143" y1="266.023" x2="176.504" y2="274.037"/>
  <line class="uuid-551369dc-033a-444e-9f69-c1b210f2243c" x1="180.389" y1="244.697" x2="177.335" y2="250.047"/>
  <line class="uuid-551369dc-033a-444e-9f69-c1b210f2243c" x1="223.551" y1="254.006" x2="222.43" y2="255.787"/>
  <line class="uuid-551369dc-033a-444e-9f69-c1b210f2243c" x1="152.344" y1="226.647" x2="136.491" y2="217.462"/>
  <line class="uuid-551369dc-033a-444e-9f69-c1b210f2243c" x1="152.344" y1="213.578" x2="136.491" y2="204.416"/>
  <line class="uuid-551369dc-033a-444e-9f69-c1b210f2243c" x1="152.687" y1="200.751" x2="136.565" y2="191.447"/>
  <line class="uuid-551369dc-033a-444e-9f69-c1b210f2243c" x1="156.694" y1="190.055" x2="140.203" y2="180.551"/>
  <line class="uuid-551369dc-033a-444e-9f69-c1b210f2243c" x1="164.241" y1="181.357" x2="148.169" y2="172.122"/>
  <line class="uuid-551369dc-033a-444e-9f69-c1b210f2243c" x1="175.355" y1="174.737" x2="159.428" y2="165.55"/>
  <line class="uuid-551369dc-033a-444e-9f69-c1b210f2243c" x1="186.618" y1="168.215" x2="170.764" y2="159.052"/>
  <line class="uuid-551369dc-033a-444e-9f69-c1b210f2243c" x1="197.877" y1="161.717" x2="182.027" y2="152.533"/>
  <line class="uuid-551369dc-033a-444e-9f69-c1b210f2243c" x1="209.214" y1="155.168" x2="193.333" y2="145.984"/>
  <line class="uuid-551369dc-033a-444e-9f69-c1b210f2243c" x1="220.523" y1="148.648" x2="204.621" y2="139.486"/>
  <line class="uuid-551369dc-033a-444e-9f69-c1b210f2243c" x1="231.786" y1="142.15" x2="215.932" y2="132.967"/>
  <line class="uuid-551369dc-033a-444e-9f69-c1b210f2243c" x1="243.071" y1="135.652" x2="227.191" y2="126.469"/>
  <line class="uuid-551369dc-033a-444e-9f69-c1b210f2243c" x1="254.381" y1="129.08" x2="238.526" y2="119.967"/>
  <line class="uuid-551369dc-033a-444e-9f69-c1b210f2243c" x1="265.644" y1="122.583" x2="249.789" y2="113.395"/>
  <line class="uuid-551369dc-033a-444e-9f69-c1b210f2243c" x1="276.976" y1="116.085" x2="261.048" y2="106.901"/>
  <line class="uuid-551369dc-033a-444e-9f69-c1b210f2243c" x1="288.239" y1="109.587" x2="272.385" y2="100.404"/>
  <line class="uuid-551369dc-033a-444e-9f69-c1b210f2243c" x1="299.571" y1="103.064" x2="283.718" y2="93.902"/>
  <line class="uuid-551369dc-033a-444e-9f69-c1b210f2243c" x1="314.719" y1="126.126" x2="297.813" y2="155.34"/>
  <line class="uuid-551369dc-033a-444e-9f69-c1b210f2243c" x1="313.668" y1="105.385" x2="303.236" y2="123.389"/>
  <line class="uuid-551369dc-033a-444e-9f69-c1b210f2243c" x1="293.074" y1="140.976" x2="278.367" y2="166.481"/>
  <line class="uuid-551369dc-033a-444e-9f69-c1b210f2243c" x1="300.135" y1="106.143" x2="282.083" y2="137.507"/>
  <line class="uuid-551369dc-033a-444e-9f69-c1b210f2243c" x1="272.505" y1="153.998" x2="258.852" y2="177.741"/>
  <line class="uuid-551369dc-033a-444e-9f69-c1b210f2243c" x1="280.641" y1="117.354" x2="260.831" y2="151.676"/>
  <line class="uuid-551369dc-033a-444e-9f69-c1b210f2243c" x1="252.181" y1="166.651" x2="239.284" y2="188.956"/>
  <line class="uuid-551369dc-033a-444e-9f69-c1b210f2243c" x1="261.88" y1="127.297" x2="218.788" y2="201.972"/>
  <line class="uuid-551369dc-033a-444e-9f69-c1b210f2243c" x1="242.365" y1="138.558" x2="199.224" y2="213.235"/>
  <line class="uuid-551369dc-033a-444e-9f69-c1b210f2243c" x1="222.793" y1="149.821" x2="179.705" y2="224.498"/>
  <line class="uuid-551369dc-033a-444e-9f69-c1b210f2243c" x1="203.227" y1="161.128" x2="160.138" y2="235.808"/>
  <line class="uuid-551369dc-033a-444e-9f69-c1b210f2243c" x1="183.175" y1="173.223" x2="155.031" y2="222.055"/>
</svg>