<?xml version="1.0" encoding="UTF-8"?>
<svg id="uuid-6c53908a-34f9-45f8-9a99-d244026d779d" data-name="&amp;lt;Layer&amp;gt;" xmlns="http://www.w3.org/2000/svg" viewBox="0 0 451.11 451.11">
  <defs>
    <style>
      .uuid-1bf24296-3b95-450c-839a-da4e640ba1b1, .uuid-8c75be51-92e6-4058-86f8-2621f9cb5b78, .uuid-d848af25-9f4d-43c1-9153-0d509e4d26b1 {
        fill: none;
        stroke: #000;
        stroke-linecap: round;
      }

      .uuid-1bf24296-3b95-450c-839a-da4e640ba1b1, .uuid-d848af25-9f4d-43c1-9153-0d509e4d26b1 {
        stroke-linejoin: round;
        stroke-width: 4.113px;
      }

      .uuid-8c75be51-92e6-4058-86f8-2621f9cb5b78 {
        stroke-miterlimit: 10;
        stroke-width: 1.163px;
      }

      .uuid-d848af25-9f4d-43c1-9153-0d509e4d26b1 {
        fill-rule: evenodd;
      }
    </style>
  </defs>
  <path class="uuid-d848af25-9f4d-43c1-9153-0d509e4d26b1" d="M276.137,264.979c0,11.847.806,22.352-3.249,35.933-4.296,14.412-12.557,28.751-22.889,39.671-4.934,5.228-10.383,9.699-16.075,12.948-5.741,3.323-11.164,5.176-16.146,5.644-5.401.511-10.236-.514-14.169-3.031-8.584-3.397-11.896-19.06-11.896-26.944v-55.622c0-25.376,8.224-48.633,26.65-66.909,5.118-5.467,13.076-11.866,20.078-14.805.467-.244,1.005-.465,1.468-.634"/>
  <polyline class="uuid-d848af25-9f4d-43c1-9153-0d509e4d26b1" points="204.073 356.484 203.783 356.315 187.292 346.785"/>
  <path class="uuid-d848af25-9f4d-43c1-9153-0d509e4d26b1" d="M187.292,346.785c-9.773-6.203-12.138-16.365-12.384-27.287v-58.822c0-4.544.247-8.72.879-13.312,1.468-8.062,3.492-14.512,6.67-21.767"/>
  <polyline class="uuid-d848af25-9f4d-43c1-9153-0d509e4d26b1" points="182.456 225.597 183.285 223.792 184.558 221.201 184.801 220.79"/>
  <path class="uuid-d848af25-9f4d-43c1-9153-0d509e4d26b1" d="M184.801,220.79c.511-1.005.979-1.933,1.49-2.863.537-.927,1.053-1.854,1.586-2.708"/>
  <path class="uuid-d848af25-9f4d-43c1-9153-0d509e4d26b1" d="M189.488,212.529c1.69-2.613,3.495-5.151,5.523-7.841.391-.585.806-1.099,1.269-1.611.173-.369.467-.712.758-1.049.415-.467.758-.88,1.173-1.299,1.149-1.317,2.322-2.66,3.592-3.881.706-.806,1.464-1.564,2.27-2.248.048-.122.1-.196.173-.196,1.343-1.27,2.734-2.491,4.177-3.686.879-.71,1.806-1.468,2.734-2.174,1.785-1.321,3.764-2.665,5.986-4.055,7.377-4.007,14.975-6.744,22.767-5.28"/>
  <path class="uuid-d848af25-9f4d-43c1-9153-0d509e4d26b1" d="M239.91,278.438c0,1.637.1,4.591,0,6.229-.415,4.691-2.148,10.088-3.833,14.095-2.565,5.641-5.35,9.989-9.235,14.534-2.685,2.954-5.056,5.108-8.427,7.304-2.2,1.394-4.3,2.491-6.622,3.153"/>
  <path class="uuid-d848af25-9f4d-43c1-9153-0d509e4d26b1" d="M276.137,220.958c.122,3.712,0,7.667,0,11.602v1.394"/>
  <path class="uuid-d848af25-9f4d-43c1-9153-0d509e4d26b1" d="M239.91,214.166c-.245,0-.415.052-.658.173-4.643,1.317-9.578,4.592-14.048,9.279-.584.637-1.147,1.221-1.685,1.933-.096.099-.221.269-.341.389-.88,1.053-1.734,2.152-2.492,3.249-.195.195-.293.415-.415.589-.854,1.27-1.685,2.491-2.443,3.833-.806,1.464-1.564,2.908-2.274,4.35-.632,1.342-1.218,2.686-1.659,4.077-.417.979-.707,2.03-1.049,3.031-.173.685-.415,1.317-.537,2.028-.636,2.665-.979,5.519-1.151,8.305-.07.221-.07.463-.07.684v.417c-.269,5.349,0,10.625,0,15.047"/>
  <path class="uuid-d848af25-9f4d-43c1-9153-0d509e4d26b1" d="M238.152,100.308c9.941,7.524,15.464,13.702,22.546,23.912,6.034,9.773,9.795,17.492,12.875,28.56,1.88,7.377,2.491,12.827,2.491,20.593v59.212c-.221,10.921-2.591,21.083-12.36,27.287"/>
  <path class="uuid-d848af25-9f4d-43c1-9153-0d509e4d26b1" d="M246.923,269.544c9.817-6.203,12.139-16.365,12.434-27.285v-59.091c0-2.686-.122-5.276-.295-7.988-.758-7.549-2.27-13.533-4.765-20.667-2.954-7.815-5.96-13.459-10.332-20.59-7.082-10.214-12.605-16.417-22.522-23.919-10.577-6.74-22.009-11.991-34.152-5.666"/>
  <path class="uuid-d848af25-9f4d-43c1-9153-0d509e4d26b1" d="M201.045,128.154c-.343.221-.684.463-1.049.758-.341.247-.636.464-.931.758-.684.636-1.39,1.39-1.905,2.273-.413.559-.758,1.149-.975,1.733"/>
  <path class="uuid-d848af25-9f4d-43c1-9153-0d509e4d26b1" d="M196.111,133.724c-.122.198-.173.369-.221.537-.17.343-.295.684-.417,1.053-.243.684-.415,1.442-.584,2.196-.391,2.2-.515,4.596-.515,6.961"/>
  <path class="uuid-d848af25-9f4d-43c1-9153-0d509e4d26b1" d="M194.375,189.298c0,4.938-.169,10.041,0,15.001v1.147c.173-.221.393-.511.636-.758.391-.585.806-1.099,1.269-1.611.662-.806,1.295-1.59,1.931-2.348,1.149-1.317,2.322-2.66,3.592-3.881.706-.806,1.464-1.564,2.27-2.248.048-.122.1-.196.173-.196,1.343-1.27,2.734-2.491,4.177-3.686.879-.71,1.806-1.468,2.734-2.174"/>
  <polyline class="uuid-d848af25-9f4d-43c1-9153-0d509e4d26b1" points="211.157 188.543 211.086 179.603 211.157 148.6 211.157 135.067"/>
  <path class="uuid-d848af25-9f4d-43c1-9153-0d509e4d26b1" d="M239.2,236.86c-6.203-1.785-11.895-6.839-15.681-11.309-.096.099-.221.269-.341.389-.88,1.053-1.734,2.152-2.492,3.249-.195.195-.293.415-.415.589-.854,1.27-1.685,2.564-2.443,3.833-.806,1.464-1.564,2.908-2.274,4.35-.632,1.342-1.144,2.686-1.659,4.077.805.588,1.563,1.099,2.321,1.563.221.174.511.343.758.467"/>
  <path class="uuid-d848af25-9f4d-43c1-9153-0d509e4d26b1" d="M217.143,244.19c1.516.879,3.006,1.512,4.396,1.953.71.317,1.394.489,2.102.658.684.174,1.394.295,2.027.343.463.048,1.003.122,1.464.122,2.274,0,4.348-.537,6.085-1.512"/>
  <path class="uuid-d848af25-9f4d-43c1-9153-0d509e4d26b1" d="M200.997,101.651c4.982.489,10.38,2.296,16.146,5.618,11.604,6.692,22.183,18.272,29.78,31.514,3.882,6.74,7.035,13.922,9.185,21.104,2.026,6.841,3.197,13.729,3.197,20.227,0,.221,0,.441.052.684"/>
  <path class="uuid-d848af25-9f4d-43c1-9153-0d509e4d26b1" d="M259.356,242.259c0,6.596-1.175,12.216-3.202,16.76-2.148,4.713-5.349,8.281-9.231,10.525"/>
  <path class="uuid-d848af25-9f4d-43c1-9153-0d509e4d26b1" d="M246.923,269.544c-3.885,2.248-8.525,3.202-13.706,2.687-4.934-.485-10.383-2.318-16.074-5.593-2.101-1.195-4.055-2.517-6.056-3.981"/>
  <path class="uuid-d848af25-9f4d-43c1-9153-0d509e4d26b1" d="M211.086,256.476c0-.122,0-.243-.052-.391.052-3.518.71-7.278,1.811-11.016.291-1.025.632-2.052.975-3.053,1.053.754,2.102,1.442,3.153,2.052"/>
  <path class="uuid-d848af25-9f4d-43c1-9153-0d509e4d26b1" d="M233.217,245.728c2.101-1.195,3.786-3.128,4.935-5.692,1.099-2.444,1.757-5.472,1.757-8.989"/>
  <path class="uuid-d848af25-9f4d-43c1-9153-0d509e4d26b1" d="M239.91,169.145c.048-.121,0,.148,0,0,0-3.516-.584-7.255-1.757-11.015-1.149-3.886-2.834-7.767-4.935-11.41-2.148-3.638-4.643-7.035-7.428-10.015-2.686-2.806-5.567-5.224-8.646-6.987"/>
  <polyline class="uuid-d848af25-9f4d-43c1-9153-0d509e4d26b1" points="217.143 129.717 217.143 129.695 217.073 129.695"/>
  <path class="uuid-d848af25-9f4d-43c1-9153-0d509e4d26b1" d="M217.073,129.695c-3.006-1.759-5.986-2.738-8.65-3.006-2.785-.267-5.276.244-7.378,1.465-2.075,1.173-3.712,3.031-4.934,5.497"/>
  <polyline class="uuid-d848af25-9f4d-43c1-9153-0d509e4d26b1" points="194.327 204.762 194.327 205.472 193.573 206.447 190.32 211.138 187.292 216.025 185.901 218.588 184.506 221.153 183.215 223.766 182.406 225.575"/>
  <path class="uuid-d848af25-9f4d-43c1-9153-0d509e4d26b1" d="M182.406,225.575c-1.685-3.811-3.128-7.697-4.298-11.578-2.027-6.841-3.128-13.732-3.201-20.277"/>
  <path class="uuid-d848af25-9f4d-43c1-9153-0d509e4d26b1" d="M174.907,132.039v-.389c0-6.598,1.173-12.238,3.201-16.782,2.148-4.717,5.299-8.282,9.183-10.53"/>
  <line class="uuid-1bf24296-3b95-450c-839a-da4e640ba1b1" x1="256.692" y1="263.926" x2="256.692" y2="290.237"/>
  <line class="uuid-1bf24296-3b95-450c-839a-da4e640ba1b1" x1="239.91" y1="272.013" x2="239.91" y2="278.438"/>
  <line class="uuid-1bf24296-3b95-450c-839a-da4e640ba1b1" x1="239.91" y1="231.048" x2="239.91" y2="219.906"/>
  <line class="uuid-1bf24296-3b95-450c-839a-da4e640ba1b1" x1="276.137" y1="233.954" x2="276.137" y2="264.979"/>
  <line class="uuid-1bf24296-3b95-450c-839a-da4e640ba1b1" x1="211.086" y1="271.549" x2="211.086" y2="317.936"/>
  <line class="uuid-1bf24296-3b95-450c-839a-da4e640ba1b1" x1="256.692" y1="276.238" x2="256.692" y2="263.926"/>
  <line class="uuid-1bf24296-3b95-450c-839a-da4e640ba1b1" x1="263.705" y1="259.871" x2="246.923" y2="269.544"/>
  <line class="uuid-1bf24296-3b95-450c-839a-da4e640ba1b1" x1="187.292" y1="104.337" x2="204.073" y2="94.638"/>
  <path class="uuid-d848af25-9f4d-43c1-9153-0d509e4d26b1" d="M204.073,94.638c12.069-6.299,23.526-1.049,34.079,5.67"/>
  <line class="uuid-1bf24296-3b95-450c-839a-da4e640ba1b1" x1="196.185" y1="133.675" x2="196.111" y2="133.724"/>
  <line class="uuid-1bf24296-3b95-450c-839a-da4e640ba1b1" x1="194.375" y1="144.471" x2="194.375" y2="189.298"/>
  <path class="uuid-d848af25-9f4d-43c1-9153-0d509e4d26b1" d="M211.157,135.067c0-2.686.051-5.276.636-7.715"/>
  <line class="uuid-1bf24296-3b95-450c-839a-da4e640ba1b1" x1="239.91" y1="231.048" x2="239.91" y2="169.145"/>
  <path class="uuid-d848af25-9f4d-43c1-9153-0d509e4d26b1" d="M196.06,133.824c-1.097,2.417-1.733,5.397-1.733,8.893"/>
  <line class="uuid-1bf24296-3b95-450c-839a-da4e640ba1b1" x1="194.327" y1="142.716" x2="194.327" y2="142.786"/>
  <line class="uuid-1bf24296-3b95-450c-839a-da4e640ba1b1" x1="194.327" y1="143.25" x2="194.327" y2="204.325"/>
  <path class="uuid-d848af25-9f4d-43c1-9153-0d509e4d26b1" d="M194.327,204.325v.437"/>
  <line class="uuid-1bf24296-3b95-450c-839a-da4e640ba1b1" x1="174.907" y1="193.036" x2="174.907" y2="132.039"/>
  <path class="uuid-d848af25-9f4d-43c1-9153-0d509e4d26b1" d="M211.086,317.936c0,2.152.243,4.058.706,5.816.247,1.149.637,2.244,1.101,3.249,1.001,2.322,2.491,4.055,4.37,5.276"/>
  <path class="uuid-d848af25-9f4d-43c1-9153-0d509e4d26b1" d="M256.692,290.237c0,4.78-.905,9.961-2.549,14.895-3.658,10.972-13.706,24.579-24.99,28.159-3.628,1.151-7.44,1.188-11.204-.6-.243-.122-.463-.243-.684-.413"/>
  <line class="uuid-8c75be51-92e6-4058-86f8-2621f9cb5b78" x1="190.125" y1="322.627" x2="176.618" y2="299.152"/>
  <line class="uuid-8c75be51-92e6-4058-86f8-2621f9cb5b78" x1="190.125" y1="277.459" x2="176.714" y2="254.253"/>
  <line class="uuid-8c75be51-92e6-4058-86f8-2621f9cb5b78" x1="195.185" y1="241.11" x2="185.143" y2="223.618"/>
  <line class="uuid-8c75be51-92e6-4058-86f8-2621f9cb5b78" x1="207.617" y1="217.367" x2="198.897" y2="202.319"/>
  <line class="uuid-8c75be51-92e6-4058-86f8-2621f9cb5b78" x1="223.471" y1="199.706" x2="216.142" y2="187.027"/>
  <line class="uuid-8c75be51-92e6-4058-86f8-2621f9cb5b78" x1="253.958" y1="259.724" x2="235.024" y2="270.666"/>
  <line class="uuid-8c75be51-92e6-4058-86f8-2621f9cb5b78" x1="258.55" y1="244.068" x2="219.122" y2="266.784"/>
  <line class="uuid-8c75be51-92e6-4058-86f8-2621f9cb5b78" x1="257.961" y1="231.315" x2="238.983" y2="242.307"/>
  <line class="uuid-8c75be51-92e6-4058-86f8-2621f9cb5b78" x1="227.305" y1="249.025" x2="212.723" y2="257.454"/>
  <line class="uuid-8c75be51-92e6-4058-86f8-2621f9cb5b78" x1="257.913" y1="218.346" x2="241.474" y2="227.799"/>
  <line class="uuid-8c75be51-92e6-4058-86f8-2621f9cb5b78" x1="257.913" y1="205.299" x2="241.474" y2="214.777"/>
  <line class="uuid-8c75be51-92e6-4058-86f8-2621f9cb5b78" x1="257.913" y1="192.256" x2="241.522" y2="201.734"/>
  <line class="uuid-8c75be51-92e6-4058-86f8-2621f9cb5b78" x1="257.84" y1="179.26" x2="241.522" y2="188.686"/>
  <line class="uuid-8c75be51-92e6-4058-86f8-2621f9cb5b78" x1="256.398" y1="167.071" x2="241.522" y2="175.618"/>
  <line class="uuid-8c75be51-92e6-4058-86f8-2621f9cb5b78" x1="192.789" y1="203.761" x2="179.157" y2="211.649"/>
  <line class="uuid-8c75be51-92e6-4058-86f8-2621f9cb5b78" x1="253.149" y1="155.882" x2="241.059" y2="162.869"/>
  <line class="uuid-8c75be51-92e6-4058-86f8-2621f9cb5b78" x1="192.863" y1="190.718" x2="176.835" y2="199.949"/>
  <line class="uuid-8c75be51-92e6-4058-86f8-2621f9cb5b78" x1="248.678" y1="145.45" x2="237.688" y2="151.801"/>
  <line class="uuid-8c75be51-92e6-4058-86f8-2621f9cb5b78" x1="192.937" y1="177.648" x2="176.471" y2="187.123"/>
  <line class="uuid-8c75be51-92e6-4058-86f8-2621f9cb5b78" x1="243.086" y1="135.605" x2="232.191" y2="141.932"/>
  <line class="uuid-8c75be51-92e6-4058-86f8-2621f9cb5b78" x1="192.937" y1="164.628" x2="176.471" y2="174.08"/>
  <line class="uuid-8c75be51-92e6-4058-86f8-2621f9cb5b78" x1="236.466" y1="126.421" x2="224.692" y2="133.234"/>
  <line class="uuid-8c75be51-92e6-4058-86f8-2621f9cb5b78" x1="192.863" y1="151.584" x2="176.471" y2="161.058"/>
  <line class="uuid-8c75be51-92e6-4058-86f8-2621f9cb5b78" x1="228.626" y1="117.896" x2="213.942" y2="126.399"/>
  <line class="uuid-8c75be51-92e6-4058-86f8-2621f9cb5b78" x1="193.278" y1="138.32" x2="176.423" y2="148.041"/>
  <line class="uuid-8c75be51-92e6-4058-86f8-2621f9cb5b78" x1="220.101" y1="109.786" x2="175.491" y2="135.534"/>
  <line class="uuid-8c75be51-92e6-4058-86f8-2621f9cb5b78" x1="207.2" y1="104.215" x2="177.298" y2="121.46"/>
  <line class="uuid-8c75be51-92e6-4058-86f8-2621f9cb5b78" x1="274.574" y1="205.398" x2="261.041" y2="228.846"/>
  <line class="uuid-8c75be51-92e6-4058-86f8-2621f9cb5b78" x1="273.867" y1="161.474" x2="261.041" y2="183.656"/>
  <line class="uuid-8c75be51-92e6-4058-86f8-2621f9cb5b78" x1="264.168" y1="133.091" x2="254.349" y2="150.09"/>
  <line class="uuid-8c75be51-92e6-4058-86f8-2621f9cb5b78" x1="249.901" y1="112.718" x2="241.353" y2="127.422"/>
  <line class="uuid-8c75be51-92e6-4058-86f8-2621f9cb5b78" x1="231.996" y1="98.451" x2="225.035" y2="110.566"/>
  <line class="uuid-8c75be51-92e6-4058-86f8-2621f9cb5b78" x1="207.912" y1="95.08" x2="204.831" y2="100.382"/>
  <line class="uuid-8c75be51-92e6-4058-86f8-2621f9cb5b78" x1="233.582" y1="329.444" x2="226.084" y2="316.446"/>
  <line class="uuid-8c75be51-92e6-4058-86f8-2621f9cb5b78" x1="249.488" y1="311.927" x2="239.374" y2="294.436"/>
  <line class="uuid-8c75be51-92e6-4058-86f8-2621f9cb5b78" x1="254.76" y1="275.947" x2="250.974" y2="269.349"/>
  <line class="uuid-8c75be51-92e6-4058-86f8-2621f9cb5b78" x1="209.35" y1="180.75" x2="201.46" y2="194.404"/>
  <line class="uuid-8c75be51-92e6-4058-86f8-2621f9cb5b78" x1="209.596" y1="135.214" x2="195.989" y2="158.688"/>
</svg>