<?xml version="1.0" encoding="UTF-8"?>
<svg id="uuid-4ad9765a-54e6-4050-af68-a15302631d71" data-name="&amp;lt;Layer&amp;gt;" xmlns="http://www.w3.org/2000/svg" viewBox="0 0 451.11 451.11">
  <defs>
    <style>
      .uuid-37182878-64b2-4003-b9b8-ed9c657f982f, .uuid-6b342f5b-71ff-4f7b-8cc0-1544cd054090, .uuid-d82e859f-ea84-4daf-abd0-d5cf5f8a49ea {
        fill: none;
        stroke: #000;
        stroke-linecap: round;
      }

      .uuid-37182878-64b2-4003-b9b8-ed9c657f982f, .uuid-d82e859f-ea84-4daf-abd0-d5cf5f8a49ea {
        stroke-linejoin: round;
        stroke-width: 4.117px;
      }

      .uuid-6b342f5b-71ff-4f7b-8cc0-1544cd054090 {
        stroke-miterlimit: 10;
        stroke-width: 1.163px;
      }

      .uuid-d82e859f-ea84-4daf-abd0-d5cf5f8a49ea {
        fill-rule: evenodd;
      }
    </style>
  </defs>
  <g>
    <polyline class="uuid-d82e859f-ea84-4daf-abd0-d5cf5f8a49ea" points="146.634 311.113 132.391 330.9 172.768 354.205 223.116 284.216 238.725 262.5 222.944 253.391 202.792 241.786"/>
    <path class="uuid-d82e859f-ea84-4daf-abd0-d5cf5f8a49ea" d="M248.546,209.419c-5.104,17.075-15.171,33.468-25.602,43.972"/>
    <line class="uuid-37182878-64b2-4003-b9b8-ed9c657f982f" x1="228.22" y1="197.693" x2="252.846" y2="211.91"/>
    <path class="uuid-d82e859f-ea84-4daf-abd0-d5cf5f8a49ea" d="M202.62,281.873c-1.001-2.222-1.708-4.618-2.27-7.205-.659-3.3-1.001-6.865-1.001-10.651,0-14.732,5.102-31.049,13.481-45.561,8.307-14.486,19.791-27.162,32.566-34.638l4.934-2.906c1.391-.806,2.517-.169,2.517,1.394v29.605l22.474-31.219"/>
    <path class="uuid-d82e859f-ea84-4daf-abd0-d5cf5f8a49ea" d="M239.262,293.573c.051.048.099.048.099.048"/>
    <path class="uuid-d82e859f-ea84-4daf-abd0-d5cf5f8a49ea" d="M241.216,293.525c14.879-8.772,30.271-24.575,40.26-42.699M281.766,250.311c9.529-17.37,14.047-36.813,8.528-54.182"/>
    <polyline class="uuid-d82e859f-ea84-4daf-abd0-d5cf5f8a49ea" points="288.948 192.537 320.266 149.033 304.585 140.019"/>
    <path class="uuid-d82e859f-ea84-4daf-abd0-d5cf5f8a49ea" d="M241.216,293.525c-.511.269-.975.389-1.391.269-.173,0-.341-.048-.463-.173,0,0-.048,0-.099-.048-.365-.291-.537-.754-.537-1.442"/>
    <path class="uuid-d82e859f-ea84-4daf-abd0-d5cf5f8a49ea" d="M238.725,292.131v-29.631M172.768,354.205l65.956,15.56v-28.46"/>
    <path class="uuid-d82e859f-ea84-4daf-abd0-d5cf5f8a49ea" d="M238.725,341.306c0-1.638,1.1-3.54,2.491-4.35"/>
    <polyline class="uuid-d82e859f-ea84-4daf-abd0-d5cf5f8a49ea" points="241.216 336.956 241.388 336.836 246.101 334.101"/>
    <path class="uuid-d82e859f-ea84-4daf-abd0-d5cf5f8a49ea" d="M246.101,334.101c23.159-13.411,44.068-36.4,59.242-62.706,15.144-26.386,24.549-55.993,24.549-82.764,0-8.477-.979-16.244-2.785-23.232-1.612-6.082-3.885-11.601-6.841-16.365"/>
    <line class="uuid-37182878-64b2-4003-b9b8-ed9c657f982f" x1="320.266" y1="149.033" x2="288.948" y2="192.537"/>
    <path class="uuid-d82e859f-ea84-4daf-abd0-d5cf5f8a49ea" d="M288.948,192.537c.467,1.101.953,2.248,1.298,3.471.048,0,.048.073.048.121.291.88.511,1.811.754,2.737"/>
    <path class="uuid-d82e859f-ea84-4daf-abd0-d5cf5f8a49ea" d="M281.766,250.311c-.07.169-.196.343-.29.515"/>
    <polyline class="uuid-d82e859f-ea84-4daf-abd0-d5cf5f8a49ea" points="273.34 183.476 288.948 192.537 320.266 149.033 304.585 140.019"/>
    <polygon class="uuid-d82e859f-ea84-4daf-abd0-d5cf5f8a49ea" points="318.798 120.208 318.798 120.208 318.798 120.208 318.798 120.208"/>
    <path class="uuid-d82e859f-ea84-4daf-abd0-d5cf5f8a49ea" d="M250.403,137.454c1.512-1.075,2.322-2.469,2.443-4.324"/>
    <polyline class="uuid-d82e859f-ea84-4daf-abd0-d5cf5f8a49ea" points="318.798 120.208 278.447 96.929 212.465 81.344"/>
    <path class="uuid-d82e859f-ea84-4daf-abd0-d5cf5f8a49ea" d="M212.465,109.8c-.099,1.883-.901,3.275-2.491,4.348-32.172,18.615-52.424,42.873-69.5,75.607-15.509,31.805-28.507,76.947-10.574,110.51"/>
    <polyline class="uuid-d82e859f-ea84-4daf-abd0-d5cf5f8a49ea" points="129.9 300.266 130.948 302.076 171.304 325.378"/>
    <path class="uuid-d82e859f-ea84-4daf-abd0-d5cf5f8a49ea" d="M171.304,325.33c-19.567-31.709-5.912-81.638,9.526-112.273,14.584-28.871,37.228-56.842,64.639-72.77"/>
    <line class="uuid-37182878-64b2-4003-b9b8-ed9c657f982f" x1="245.469" y1="140.287" x2="250.866" y2="137.086"/>
    <line class="uuid-37182878-64b2-4003-b9b8-ed9c657f982f" x1="171.304" y1="325.378" x2="202.62" y2="281.873"/>
    <path class="uuid-d82e859f-ea84-4daf-abd0-d5cf5f8a49ea" d="M275.073,181.011c.074-.122.174-.2.247-.321"/>
    <polyline class="uuid-d82e859f-ea84-4daf-abd0-d5cf5f8a49ea" points="275.319 180.69 309.178 133.569 318.798 120.208 252.846 104.644"/>
    <path class="uuid-d82e859f-ea84-4daf-abd0-d5cf5f8a49ea" d="M250.866,137.086c1.085-.972,1.59-1.961,1.98-3.345v-29.097l-40.381-23.3v29.092c-.427,1.528-.788,2.266-1.953,3.371h0l40.355,23.28Z"/>
  </g>
  <line class="uuid-6b342f5b-71ff-4f7b-8cc0-1544cd054090" x1="164.637" y1="315.73" x2="161.606" y2="317.463"/>
  <line class="uuid-6b342f5b-71ff-4f7b-8cc0-1544cd054090" x1="161.73" y1="304.347" x2="150.052" y2="311.113"/>
  <line class="uuid-6b342f5b-71ff-4f7b-8cc0-1544cd054090" x1="160.557" y1="292.009" x2="138.374" y2="304.788"/>
  <line class="uuid-6b342f5b-71ff-4f7b-8cc0-1544cd054090" x1="160.921" y1="278.745" x2="129.337" y2="296.995"/>
  <line class="uuid-6b342f5b-71ff-4f7b-8cc0-1544cd054090" x1="162.657" y1="264.723" x2="125.135" y2="286.391"/>
  <line class="uuid-6b342f5b-71ff-4f7b-8cc0-1544cd054090" x1="165.906" y1="249.822" x2="122.645" y2="274.79"/>
  <line class="uuid-6b342f5b-71ff-4f7b-8cc0-1544cd054090" x1="170.961" y1="233.872" x2="121.765" y2="262.258"/>
  <line class="uuid-6b342f5b-71ff-4f7b-8cc0-1544cd054090" x1="178.217" y1="216.649" x2="122.571" y2="248.773"/>
  <line class="uuid-6b342f5b-71ff-4f7b-8cc0-1544cd054090" x1="188.501" y1="197.645" x2="124.965" y2="234.335"/>
  <line class="uuid-6b342f5b-71ff-4f7b-8cc0-1544cd054090" x1="203.819" y1="175.756" x2="128.968" y2="218.995"/>
  <line class="uuid-6b342f5b-71ff-4f7b-8cc0-1544cd054090" x1="237.919" y1="143.071" x2="134.319" y2="202.873"/>
  <line class="uuid-6b342f5b-71ff-4f7b-8cc0-1544cd054090" x1="239.361" y1="129.171" x2="143.554" y2="184.476"/>
  <line class="uuid-6b342f5b-71ff-4f7b-8cc0-1544cd054090" x1="227.22" y1="123.163" x2="157.55" y2="163.397"/>
  <line class="uuid-6b342f5b-71ff-4f7b-8cc0-1544cd054090" x1="214.687" y1="117.375" x2="183.616" y2="135.28"/>
  <line class="uuid-6b342f5b-71ff-4f7b-8cc0-1544cd054090" x1="304.633" y1="114.344" x2="304.17" y2="114.637"/>
  <line class="uuid-6b342f5b-71ff-4f7b-8cc0-1544cd054090" x1="293.493" y1="107.75" x2="287.973" y2="110.925"/>
  <line class="uuid-6b342f5b-71ff-4f7b-8cc0-1544cd054090" x1="282.402" y1="101.106" x2="271.777" y2="107.261"/>
  <line class="uuid-6b342f5b-71ff-4f7b-8cc0-1544cd054090" x1="268.233" y1="96.267" x2="255.679" y2="103.501"/>
  <line class="uuid-6b342f5b-71ff-4f7b-8cc0-1544cd054090" x1="252.088" y1="92.555" x2="243.831" y2="97.32"/>
  <line class="uuid-6b342f5b-71ff-4f7b-8cc0-1544cd054090" x1="235.891" y1="88.867" x2="232.69" y2="90.722"/>
  <line class="uuid-6b342f5b-71ff-4f7b-8cc0-1544cd054090" x1="299.479" y1="174.95" x2="280.475" y2="185.918"/>
  <line class="uuid-6b342f5b-71ff-4f7b-8cc0-1544cd054090" x1="315.969" y1="152.381" x2="284.676" y2="170.454"/>
  <line class="uuid-6b342f5b-71ff-4f7b-8cc0-1544cd054090" x1="307.83" y1="144.025" x2="301.505" y2="147.69"/>
  <line class="uuid-6b342f5b-71ff-4f7b-8cc0-1544cd054090" x1="270.728" y1="264.432" x2="239.824" y2="282.262"/>
  <line class="uuid-6b342f5b-71ff-4f7b-8cc0-1544cd054090" x1="283.844" y1="243.787" x2="239.361" y2="269.462"/>
  <line class="uuid-6b342f5b-71ff-4f7b-8cc0-1544cd054090" x1="290.342" y1="226.983" x2="234.012" y2="259.52"/>
  <line class="uuid-6b342f5b-71ff-4f7b-8cc0-1544cd054090" x1="292.734" y1="212.594" x2="227.462" y2="250.289"/>
  <line class="uuid-6b342f5b-71ff-4f7b-8cc0-1544cd054090" x1="291.222" y1="200.43" x2="241.558" y2="229.085"/>
  <line class="uuid-6b342f5b-71ff-4f7b-8cc0-1544cd054090" x1="284.43" y1="191.316" x2="259.417" y2="205.754"/>
  <line class="uuid-6b342f5b-71ff-4f7b-8cc0-1544cd054090" x1="251.039" y1="121.941" x2="239.531" y2="128.586"/>
  <line class="uuid-6b342f5b-71ff-4f7b-8cc0-1544cd054090" x1="251.624" y1="108.578" x2="227.882" y2="122.284"/>
  <line class="uuid-6b342f5b-71ff-4f7b-8cc0-1544cd054090" x1="243.195" y1="100.395" x2="216.494" y2="115.834"/>
  <line class="uuid-6b342f5b-71ff-4f7b-8cc0-1544cd054090" x1="231.569" y1="94.045" x2="214.051" y2="104.181"/>
  <line class="uuid-6b342f5b-71ff-4f7b-8cc0-1544cd054090" x1="219.915" y1="87.768" x2="214.444" y2="90.917"/>
  <line class="uuid-6b342f5b-71ff-4f7b-8cc0-1544cd054090" x1="188.965" y1="328.994" x2="160.166" y2="345.606"/>
  <line class="uuid-6b342f5b-71ff-4f7b-8cc0-1544cd054090" x1="205.04" y1="306.667" x2="173.869" y2="324.671"/>
  <line class="uuid-6b342f5b-71ff-4f7b-8cc0-1544cd054090" x1="170.667" y1="326.504" x2="149.121" y2="338.962"/>
  <line class="uuid-6b342f5b-71ff-4f7b-8cc0-1544cd054090" x1="221.064" y1="284.364" x2="189.819" y2="302.418"/>
  <line class="uuid-6b342f5b-71ff-4f7b-8cc0-1544cd054090" x1="159.408" y1="320.006" x2="137.788" y2="332.438"/>
  <line class="uuid-6b342f5b-71ff-4f7b-8cc0-1544cd054090" x1="236.649" y1="262.38" x2="203.428" y2="281.552"/>
  <line class="uuid-6b342f5b-71ff-4f7b-8cc0-1544cd054090" x1="147.388" y1="313.897" x2="147.098" y2="314.067"/>
  <line class="uuid-6b342f5b-71ff-4f7b-8cc0-1544cd054090" x1="225.019" y1="256.029" x2="200.911" y2="269.929"/>
  <line class="uuid-6b342f5b-71ff-4f7b-8cc0-1544cd054090" x1="213.297" y1="249.748" x2="201.571" y2="256.54"/>
  <line class="uuid-6b342f5b-71ff-4f7b-8cc0-1544cd054090" x1="252.364" y1="199.279" x2="240.855" y2="205.923"/>
  <line class="uuid-6b342f5b-71ff-4f7b-8cc0-1544cd054090" x1="252.949" y1="185.915" x2="229.206" y2="199.616"/>
</svg>