<?xml version="1.0" encoding="UTF-8"?>
<svg id="uuid-fa1ba59e-e248-4518-90b4-1e3c1e98ac54" data-name="&amp;lt;Layer&amp;gt;" xmlns="http://www.w3.org/2000/svg" viewBox="0 0 451.11 451.11">
  <defs>
    <style>
      .uuid-269d3938-a417-46b0-b45f-eaf41f797b1c, .uuid-a211b753-fae3-4224-9cc8-d48885aa2746, .uuid-0bf4a799-5e53-4303-8200-7736819160b0 {
        fill: none;
        stroke: #000;
        stroke-linecap: round;
      }

      .uuid-269d3938-a417-46b0-b45f-eaf41f797b1c, .uuid-0bf4a799-5e53-4303-8200-7736819160b0 {
        stroke-linejoin: round;
        stroke-width: 4.113px;
      }

      .uuid-a211b753-fae3-4224-9cc8-d48885aa2746 {
        stroke-miterlimit: 10;
        stroke-width: 1.163px;
      }

      .uuid-0bf4a799-5e53-4303-8200-7736819160b0 {
        fill-rule: evenodd;
      }
    </style>
  </defs>
  <path class="uuid-0bf4a799-5e53-4303-8200-7736819160b0" d="M276.138,264.977c0,11.848.806,22.353-3.253,35.933-4.298,14.413-12.554,28.755-22.889,39.675-4.931,5.224-10.38,9.696-16.072,12.945-5.74,3.322-11.163,5.18-16.145,5.644-5.402.511-10.236-.511-14.17-3.028-8.584-3.399-11.895-19.059-11.895-26.948v-55.621c0-25.373,8.223-48.631,26.649-66.909,5.118-5.468,13.077-11.866,20.079-14.802.463-.243,1.005-.463,1.468-.633"/>
  <polyline class="uuid-0bf4a799-5e53-4303-8200-7736819160b0" points="204.074 356.484 203.779 356.314 187.292 346.788"/>
  <path class="uuid-0bf4a799-5e53-4303-8200-7736819160b0" d="M187.292,346.788c-9.773-6.203-12.143-16.369-12.386-27.285v-58.823c0-4.544.243-8.724.88-13.315,1.464-8.062,3.492-14.512,6.667-21.763"/>
  <polyline class="uuid-0bf4a799-5e53-4303-8200-7736819160b0" points="182.453 225.601 183.285 223.794 184.555 221.204 184.797 220.788"/>
  <path class="uuid-0bf4a799-5e53-4303-8200-7736819160b0" d="M184.797,220.788c.515-1.001.979-1.931,1.49-2.858.541-.928,1.053-1.855,1.589-2.713"/>
  <path class="uuid-0bf4a799-5e53-4303-8200-7736819160b0" d="M189.488,212.532c1.685-2.615,3.496-5.154,5.523-7.841.389-.588.806-1.099,1.269-1.611.173-.369.463-.71.758-1.053.415-.463.758-.879,1.169-1.295,1.151-1.316,2.322-2.66,3.595-3.881.706-.81,1.464-1.564,2.27-2.252.047-.122.095-.191.173-.191,1.342-1.273,2.734-2.495,4.176-3.691.88-.706,1.807-1.464,2.733-2.174,1.785-1.317,3.764-2.66,5.986-4.055,7.378-4.007,14.975-6.74,22.768-5.275"/>
  <path class="uuid-0bf4a799-5e53-4303-8200-7736819160b0" d="M239.911,278.436c0,1.638.096,4.592,0,6.233-.415,4.687-2.148,10.086-3.837,14.092-2.565,5.644-5.35,9.993-9.235,14.538-2.687,2.954-5.052,5.102-8.427,7.302-2.196,1.392-4.298,2.491-6.618,3.15"/>
  <path class="uuid-0bf4a799-5e53-4303-8200-7736819160b0" d="M276.138,220.961c.122,3.71,0,7.669,0,11.601v1.39"/>
  <path class="uuid-0bf4a799-5e53-4303-8200-7736819160b0" d="M239.911,214.17c-.247,0-.415.047-.662.169-4.64,1.318-9.574,4.592-14.044,9.283-.585.636-1.147,1.221-1.685,1.927-.1.1-.221.273-.343.393-.879,1.049-1.737,2.149-2.491,3.249-.199.196-.295.417-.415.585-.858,1.269-1.686,2.491-2.443,3.838-.806,1.464-1.564,2.902-2.274,4.344-.633,1.343-1.221,2.687-1.66,4.081-.415.979-.71,2.027-1.051,3.028-.17.684-.413,1.32-.537,2.027-.633,2.663-.975,5.523-1.149,8.307-.073.218-.073.465-.073.681v.415c-.265,5.35,0,10.629,0,15.049"/>
  <path class="uuid-0bf4a799-5e53-4303-8200-7736819160b0" d="M238.152,100.308c9.941,7.523,15.461,13.706,22.544,23.916,6.038,9.773,9.799,17.492,12.878,28.555,1.877,7.378,2.487,12.827,2.487,20.594v59.212c-.217,10.924-2.586,21.082-12.358,27.287"/>
  <path class="uuid-0bf4a799-5e53-4303-8200-7736819160b0" d="M246.92,269.548c9.821-6.207,12.142-16.37,12.432-27.286v-59.094c0-2.687-.121-5.276-.291-7.984-.758-7.55-2.273-13.537-4.764-20.671-2.956-7.815-5.962-13.456-10.332-20.59-7.083-10.21-12.606-16.417-22.525-23.916-10.575-6.74-22.01-11.995-34.148-5.667"/>
  <path class="uuid-0bf4a799-5e53-4303-8200-7736819160b0" d="M201.046,128.156c-.343.221-.685.463-1.053.758-.343.243-.633.463-.927.754-.685.636-1.392,1.394-1.907,2.274-.415.563-.758,1.147-.975,1.733"/>
  <path class="uuid-0bf4a799-5e53-4303-8200-7736819160b0" d="M196.111,133.727c-.125.195-.173.364-.221.537-.169.341-.293.684-.415,1.047-.243.685-.415,1.443-.585,2.2-.389,2.201-.515,4.592-.515,6.963"/>
  <path class="uuid-0bf4a799-5e53-4303-8200-7736819160b0" d="M194.374,189.3c0,4.934-.169,10.037,0,14.997v1.149c.174-.218.391-.511.637-.755.389-.588.806-1.099,1.269-1.611.658-.81,1.296-1.59,1.928-2.348,1.151-1.316,2.322-2.66,3.595-3.881.706-.81,1.464-1.564,2.27-2.252.047-.122.095-.191.173-.191,1.342-1.273,2.734-2.495,4.176-3.691.88-.706,1.807-1.464,2.733-2.174"/>
  <polyline class="uuid-0bf4a799-5e53-4303-8200-7736819160b0" points="211.156 188.542 211.083 179.601 211.156 148.603 211.156 135.07"/>
  <path class="uuid-0bf4a799-5e53-4303-8200-7736819160b0" d="M239.201,236.86c-6.203-1.781-11.895-6.84-15.681-11.311-.1.1-.221.273-.343.393-.879,1.049-1.737,2.149-2.491,3.249-.199.196-.295.417-.415.585-.858,1.269-1.686,2.565-2.443,3.838-.806,1.464-1.564,2.902-2.274,4.344-.633,1.343-1.149,2.687-1.66,4.081.806.585,1.564,1.101,2.322,1.564.221.169.511.341.754.463"/>
  <path class="uuid-0bf4a799-5e53-4303-8200-7736819160b0" d="M217.142,244.189c1.512.88,3.002,1.516,4.398,1.955.71.319,1.39.489,2.1.662.684.169,1.391.291,2.028.341.463.048,1.001.122,1.464.122,2.274,0,4.35-.537,6.086-1.516"/>
  <path class="uuid-0bf4a799-5e53-4303-8200-7736819160b0" d="M200.994,101.65c4.986.489,10.383,2.296,16.148,5.619,11.605,6.692,22.183,18.274,29.777,31.513,3.885,6.742,7.035,13.924,9.183,21.105,2.027,6.84,3.201,13.728,3.201,20.225,0,.221,0,.441.048.684"/>
  <path class="uuid-0bf4a799-5e53-4303-8200-7736819160b0" d="M259.352,242.261c0,6.598-1.169,12.211-3.197,16.756-2.152,4.717-5.35,8.283-9.235,10.531"/>
  <path class="uuid-0bf4a799-5e53-4303-8200-7736819160b0" d="M246.92,269.548c-3.885,2.248-8.525,3.201-13.702,2.686-4.938-.489-10.384-2.322-16.076-5.593-2.1-1.199-4.055-2.517-6.059-3.985"/>
  <path class="uuid-0bf4a799-5e53-4303-8200-7736819160b0" d="M211.083,256.478c0-.125,0-.247-.048-.393.048-3.518.706-7.278,1.807-11.016.293-1.027.636-2.049.979-3.054,1.047.758,2.1,1.442,3.149,2.053"/>
  <path class="uuid-0bf4a799-5e53-4303-8200-7736819160b0" d="M233.218,245.727c2.1-1.195,3.786-3.123,4.934-5.692,1.097-2.443,1.759-5.471,1.759-8.989"/>
  <path class="uuid-0bf4a799-5e53-4303-8200-7736819160b0" d="M239.911,169.145c.048-.122,0,.147,0,0,0-3.514-.585-7.252-1.759-11.016-1.147-3.882-2.834-7.767-4.934-11.405-2.152-3.643-4.643-7.035-7.428-10.015-2.687-2.811-5.567-5.228-8.647-6.987"/>
  <polyline class="uuid-0bf4a799-5e53-4303-8200-7736819160b0" points="217.142 129.721 217.142 129.695 217.07 129.695"/>
  <path class="uuid-0bf4a799-5e53-4303-8200-7736819160b0" d="M217.07,129.695c-3.006-1.759-5.986-2.734-8.647-3.002-2.786-.269-5.276.243-7.377,1.464-2.079,1.173-3.712,3.028-4.935,5.497"/>
  <polyline class="uuid-0bf4a799-5e53-4303-8200-7736819160b0" points="194.327 204.764 194.327 205.471 193.569 206.449 190.32 211.138 187.292 216.023 185.897 218.588 184.507 221.153 183.211 223.768 182.405 225.575"/>
  <path class="uuid-0bf4a799-5e53-4303-8200-7736819160b0" d="M182.405,225.575c-1.685-3.812-3.127-7.693-4.3-11.579-2.028-6.839-3.124-13.728-3.198-20.273"/>
  <path class="uuid-0bf4a799-5e53-4303-8200-7736819160b0" d="M174.907,132.041v-.393c0-6.594,1.171-12.237,3.198-16.782,2.152-4.713,5.301-8.279,9.187-10.527"/>
  <line class="uuid-269d3938-a417-46b0-b45f-eaf41f797b1c" x1="256.692" y1="263.929" x2="256.692" y2="290.236"/>
  <line class="uuid-269d3938-a417-46b0-b45f-eaf41f797b1c" x1="239.911" y1="272.012" x2="239.911" y2="278.436"/>
  <line class="uuid-269d3938-a417-46b0-b45f-eaf41f797b1c" x1="239.911" y1="231.046" x2="239.911" y2="219.909"/>
  <line class="uuid-269d3938-a417-46b0-b45f-eaf41f797b1c" x1="276.138" y1="233.953" x2="276.138" y2="264.977"/>
  <line class="uuid-269d3938-a417-46b0-b45f-eaf41f797b1c" x1="211.083" y1="271.549" x2="211.083" y2="317.938"/>
  <line class="uuid-269d3938-a417-46b0-b45f-eaf41f797b1c" x1="256.692" y1="276.24" x2="256.692" y2="263.929"/>
  <line class="uuid-269d3938-a417-46b0-b45f-eaf41f797b1c" x1="263.702" y1="259.871" x2="246.92" y2="269.548"/>
  <line class="uuid-269d3938-a417-46b0-b45f-eaf41f797b1c" x1="187.292" y1="104.339" x2="204.074" y2="94.641"/>
  <path class="uuid-0bf4a799-5e53-4303-8200-7736819160b0" d="M204.074,94.641c12.067-6.303,23.521-1.053,34.078,5.667"/>
  <line class="uuid-269d3938-a417-46b0-b45f-eaf41f797b1c" x1="196.185" y1="133.676" x2="196.111" y2="133.727"/>
  <line class="uuid-269d3938-a417-46b0-b45f-eaf41f797b1c" x1="194.374" y1="144.475" x2="194.374" y2="189.3"/>
  <path class="uuid-0bf4a799-5e53-4303-8200-7736819160b0" d="M211.156,135.07c0-2.685.052-5.276.637-7.719"/>
  <line class="uuid-269d3938-a417-46b0-b45f-eaf41f797b1c" x1="239.911" y1="231.046" x2="239.911" y2="169.145"/>
  <path class="uuid-0bf4a799-5e53-4303-8200-7736819160b0" d="M196.06,133.822c-1.097,2.418-1.733,5.402-1.733,8.894"/>
  <line class="uuid-269d3938-a417-46b0-b45f-eaf41f797b1c" x1="194.327" y1="142.716" x2="194.327" y2="142.789"/>
  <line class="uuid-269d3938-a417-46b0-b45f-eaf41f797b1c" x1="194.327" y1="143.253" x2="194.327" y2="204.323"/>
  <path class="uuid-0bf4a799-5e53-4303-8200-7736819160b0" d="M194.327,204.323v.441"/>
  <line class="uuid-269d3938-a417-46b0-b45f-eaf41f797b1c" x1="174.907" y1="193.038" x2="174.907" y2="132.041"/>
  <path class="uuid-0bf4a799-5e53-4303-8200-7736819160b0" d="M211.083,317.938c0,2.148.247,4.055.71,5.814.247,1.147.636,2.248,1.099,3.249,1.001,2.321,2.491,4.055,4.372,5.276"/>
  <path class="uuid-0bf4a799-5e53-4303-8200-7736819160b0" d="M256.692,290.236c0,4.779-.905,9.96-2.551,14.897-3.66,10.969-13.706,24.575-24.989,28.155-3.628,1.151-7.44,1.193-11.204-.596-.247-.122-.463-.243-.684-.415"/>
  <line class="uuid-a211b753-fae3-4224-9cc8-d48885aa2746" x1="190.124" y1="322.629" x2="176.615" y2="299.155"/>
  <line class="uuid-a211b753-fae3-4224-9cc8-d48885aa2746" x1="190.124" y1="277.461" x2="176.714" y2="254.256"/>
  <line class="uuid-a211b753-fae3-4224-9cc8-d48885aa2746" x1="195.18" y1="241.114" x2="185.143" y2="223.622"/>
  <line class="uuid-a211b753-fae3-4224-9cc8-d48885aa2746" x1="207.616" y1="217.367" x2="198.896" y2="202.322"/>
  <line class="uuid-a211b753-fae3-4224-9cc8-d48885aa2746" x1="223.471" y1="199.706" x2="216.142" y2="187.026"/>
  <line class="uuid-a211b753-fae3-4224-9cc8-d48885aa2746" x1="253.955" y1="259.727" x2="235.025" y2="270.669"/>
  <line class="uuid-a211b753-fae3-4224-9cc8-d48885aa2746" x1="258.547" y1="244.068" x2="219.122" y2="266.788"/>
  <line class="uuid-a211b753-fae3-4224-9cc8-d48885aa2746" x1="257.962" y1="231.319" x2="238.98" y2="242.309"/>
  <line class="uuid-a211b753-fae3-4224-9cc8-d48885aa2746" x1="227.306" y1="249.027" x2="212.72" y2="257.453"/>
  <line class="uuid-a211b753-fae3-4224-9cc8-d48885aa2746" x1="257.914" y1="218.345" x2="241.471" y2="227.797"/>
  <line class="uuid-a211b753-fae3-4224-9cc8-d48885aa2746" x1="257.914" y1="205.298" x2="241.471" y2="214.78"/>
  <line class="uuid-a211b753-fae3-4224-9cc8-d48885aa2746" x1="257.914" y1="192.254" x2="241.523" y2="201.732"/>
  <line class="uuid-a211b753-fae3-4224-9cc8-d48885aa2746" x1="257.84" y1="179.259" x2="241.523" y2="188.69"/>
  <line class="uuid-a211b753-fae3-4224-9cc8-d48885aa2746" x1="256.398" y1="167.069" x2="241.523" y2="175.62"/>
  <line class="uuid-a211b753-fae3-4224-9cc8-d48885aa2746" x1="192.789" y1="203.76" x2="179.156" y2="211.653"/>
  <line class="uuid-a211b753-fae3-4224-9cc8-d48885aa2746" x1="253.149" y1="155.88" x2="241.058" y2="162.868"/>
  <line class="uuid-a211b753-fae3-4224-9cc8-d48885aa2746" x1="192.859" y1="190.716" x2="176.836" y2="199.949"/>
  <line class="uuid-a211b753-fae3-4224-9cc8-d48885aa2746" x1="248.679" y1="145.454" x2="237.685" y2="151.803"/>
  <line class="uuid-a211b753-fae3-4224-9cc8-d48885aa2746" x1="192.936" y1="177.648" x2="176.471" y2="187.126"/>
  <line class="uuid-a211b753-fae3-4224-9cc8-d48885aa2746" x1="243.085" y1="135.607" x2="232.191" y2="141.936"/>
  <line class="uuid-a211b753-fae3-4224-9cc8-d48885aa2746" x1="192.936" y1="164.626" x2="176.471" y2="174.082"/>
  <line class="uuid-a211b753-fae3-4224-9cc8-d48885aa2746" x1="236.463" y1="126.424" x2="224.693" y2="133.238"/>
  <line class="uuid-a211b753-fae3-4224-9cc8-d48885aa2746" x1="192.859" y1="151.583" x2="176.471" y2="161.061"/>
  <line class="uuid-a211b753-fae3-4224-9cc8-d48885aa2746" x1="228.622" y1="117.898" x2="213.941" y2="126.398"/>
  <line class="uuid-a211b753-fae3-4224-9cc8-d48885aa2746" x1="193.279" y1="138.318" x2="176.419" y2="148.039"/>
  <line class="uuid-a211b753-fae3-4224-9cc8-d48885aa2746" x1="220.097" y1="109.786" x2="175.492" y2="135.533"/>
  <line class="uuid-a211b753-fae3-4224-9cc8-d48885aa2746" x1="207.201" y1="104.215" x2="177.299" y2="121.464"/>
  <line class="uuid-a211b753-fae3-4224-9cc8-d48885aa2746" x1="274.574" y1="205.398" x2="261.041" y2="228.85"/>
  <line class="uuid-a211b753-fae3-4224-9cc8-d48885aa2746" x1="273.864" y1="161.477" x2="261.041" y2="183.656"/>
  <line class="uuid-a211b753-fae3-4224-9cc8-d48885aa2746" x1="264.169" y1="133.09" x2="254.344" y2="150.093"/>
  <line class="uuid-a211b753-fae3-4224-9cc8-d48885aa2746" x1="249.9" y1="112.718" x2="241.349" y2="127.424"/>
  <line class="uuid-a211b753-fae3-4224-9cc8-d48885aa2746" x1="231.997" y1="98.453" x2="225.032" y2="110.569"/>
  <line class="uuid-a211b753-fae3-4224-9cc8-d48885aa2746" x1="207.907" y1="95.079" x2="204.832" y2="100.381"/>
  <line class="uuid-a211b753-fae3-4224-9cc8-d48885aa2746" x1="233.582" y1="329.444" x2="226.083" y2="316.448"/>
  <line class="uuid-a211b753-fae3-4224-9cc8-d48885aa2746" x1="249.485" y1="311.93" x2="239.373" y2="294.438"/>
  <line class="uuid-a211b753-fae3-4224-9cc8-d48885aa2746" x1="254.761" y1="275.945" x2="250.975" y2="269.353"/>
  <line class="uuid-a211b753-fae3-4224-9cc8-d48885aa2746" x1="209.349" y1="180.749" x2="201.461" y2="194.408"/>
  <line class="uuid-a211b753-fae3-4224-9cc8-d48885aa2746" x1="209.596" y1="135.218" x2="195.986" y2="158.692"/>
</svg>