<?xml version="1.0" encoding="UTF-8"?>
<svg id="uuid-6a181318-659c-4bb9-a088-781b06725cb2" data-name="&amp;lt;Layer&amp;gt;" xmlns="http://www.w3.org/2000/svg" viewBox="0 0 451.11 451.11">
  <defs>
    <style>
      .uuid-58892b63-523b-4e76-a0f8-817189f46a4d, .uuid-d18a6148-8379-4f15-8519-0a56a48ae476, .uuid-9a21f910-8d35-40a1-a115-751ad27d98d6, .uuid-726be35d-fe6b-4040-997b-e6dcf175ff55 {
        fill: none;
        stroke: #000;
        stroke-linecap: round;
      }

      .uuid-58892b63-523b-4e76-a0f8-817189f46a4d, .uuid-726be35d-fe6b-4040-997b-e6dcf175ff55 {
        stroke-linejoin: round;
        stroke-width: 4.113px;
      }

      .uuid-d18a6148-8379-4f15-8519-0a56a48ae476 {
        stroke-width: 1.159px;
      }

      .uuid-d18a6148-8379-4f15-8519-0a56a48ae476, .uuid-9a21f910-8d35-40a1-a115-751ad27d98d6 {
        stroke-miterlimit: 10;
      }

      .uuid-9a21f910-8d35-40a1-a115-751ad27d98d6 {
        stroke-width: 1.163px;
      }

      .uuid-9a21f910-8d35-40a1-a115-751ad27d98d6, .uuid-726be35d-fe6b-4040-997b-e6dcf175ff55 {
        fill-rule: evenodd;
      }
    </style>
  </defs>
  <polyline class="uuid-726be35d-fe6b-4040-997b-e6dcf175ff55" points="93.034 252.951 200.177 314.854 200.761 313.948"/>
  <polygon class="uuid-726be35d-fe6b-4040-997b-e6dcf175ff55" points="339.613 276.816 353.78 268.71 353.78 252.315 339.613 260.497 339.613 276.816"/>
  <polygon class="uuid-726be35d-fe6b-4040-997b-e6dcf175ff55" points="319.215 288.616 333.38 280.48 333.38 264.115 319.215 272.298 319.215 288.616"/>
  <line class="uuid-58892b63-523b-4e76-a0f8-817189f46a4d" x1="358.08" y1="223.686" x2="250.937" y2="161.835"/>
  <path class="uuid-726be35d-fe6b-4040-997b-e6dcf175ff55" d="M250.937,161.835c-2.1-.979-3.664-.463-5.644.537"/>
  <line class="uuid-58892b63-523b-4e76-a0f8-817189f46a4d" x1="245.293" y1="162.373" x2="98.603" y2="247.042"/>
  <path class="uuid-726be35d-fe6b-4040-997b-e6dcf175ff55" d="M98.603,247.042c-2.541,1.685-4.007,3.371-5.57,5.909"/>
  <path class="uuid-726be35d-fe6b-4040-997b-e6dcf175ff55" d="M200.761,313.948c1.516-2.222,2.737-3.566,5.034-5.008"/>
  <line class="uuid-58892b63-523b-4e76-a0f8-817189f46a4d" x1="205.795" y1="308.94" x2="352.436" y2="224.223"/>
  <path class="uuid-726be35d-fe6b-4040-997b-e6dcf175ff55" d="M352.436,224.223c1.98-1.001,3.543-1.513,5.644-.537"/>
  <path class="uuid-726be35d-fe6b-4040-997b-e6dcf175ff55" d="M360.398,228.792c0-4.985-3.54-7.061-7.962-4.569"/>
  <path class="uuid-726be35d-fe6b-4040-997b-e6dcf175ff55" d="M205.795,308.94c-4.397,2.491-7.94,8.647-7.94,13.706"/>
  <line class="uuid-58892b63-523b-4e76-a0f8-817189f46a4d" x1="197.855" y1="322.646" x2="197.855" y2="372.771"/>
  <path class="uuid-726be35d-fe6b-4040-997b-e6dcf175ff55" d="M197.855,372.771c0,5.032,3.543,7.086,7.94,4.569"/>
  <line class="uuid-58892b63-523b-4e76-a0f8-817189f46a4d" x1="205.795" y1="377.34" x2="352.436" y2="292.67"/>
  <path class="uuid-726be35d-fe6b-4040-997b-e6dcf175ff55" d="M352.436,292.67c4.422-2.538,7.962-8.694,7.962-13.75"/>
  <line class="uuid-58892b63-523b-4e76-a0f8-817189f46a4d" x1="360.398" y1="278.92" x2="360.398" y2="228.792"/>
  <path class="uuid-726be35d-fe6b-4040-997b-e6dcf175ff55" d="M93.034,252.951c-1.464,2.737-2.222,4.765-2.322,7.841"/>
  <line class="uuid-58892b63-523b-4e76-a0f8-817189f46a4d" x1="90.711" y1="260.792" x2="90.711" y2="310.92"/>
  <path class="uuid-726be35d-fe6b-4040-997b-e6dcf175ff55" d="M90.711,310.92c.1,2.198.419,3.834,2.322,5.104"/>
  <line class="uuid-58892b63-523b-4e76-a0f8-817189f46a4d" x1="93.034" y1="316.023" x2="200.177" y2="377.877"/>
  <path class="uuid-726be35d-fe6b-4040-997b-e6dcf175ff55" d="M200.177,377.877c-1.855-1.295-2.222-2.906-2.322-5.106"/>
  <path class="uuid-726be35d-fe6b-4040-997b-e6dcf175ff55" d="M197.855,322.646c.1-3.079.879-5.106,2.322-7.792"/>
  <line class="uuid-58892b63-523b-4e76-a0f8-817189f46a4d" x1="212.194" y1="339.428" x2="300.528" y2="288.446"/>
  <line class="uuid-d18a6148-8379-4f15-8519-0a56a48ae476" x1="329.915" y1="280.48" x2="324.492" y2="271.197"/>
  <line class="uuid-d18a6148-8379-4f15-8519-0a56a48ae476" x1="349.993" y1="268.88" x2="344.643" y2="259.571"/>
  <line class="uuid-d18a6148-8379-4f15-8519-0a56a48ae476" x1="112.846" y1="325.847" x2="92.105" y2="289.958"/>
  <line class="uuid-d18a6148-8379-4f15-8519-0a56a48ae476" x1="133.047" y1="338.328" x2="91.399" y2="266.193"/>
  <line class="uuid-d18a6148-8379-4f15-8519-0a56a48ae476" x1="153.03" y1="350.271" x2="98.946" y2="256.737"/>
  <line class="uuid-d18a6148-8379-4f15-8519-0a56a48ae476" x1="172.522" y1="361.606" x2="118.513" y2="268.048"/>
  <line class="uuid-d18a6148-8379-4f15-8519-0a56a48ae476" x1="192.115" y1="372.869" x2="138.105" y2="279.336"/>
  <line class="uuid-d18a6148-8379-4f15-8519-0a56a48ae476" x1="197.101" y1="358.873" x2="158.136" y2="291.448"/>
  <line class="uuid-d18a6148-8379-4f15-8519-0a56a48ae476" x1="196.391" y1="335.2" x2="178.339" y2="303.884"/>
  <line class="uuid-d18a6148-8379-4f15-8519-0a56a48ae476" x1="122.763" y1="268.29" x2="108.081" y2="242.863"/>
  <line class="uuid-d18a6148-8379-4f15-8519-0a56a48ae476" x1="162.533" y1="292.038" x2="126.942" y2="230.357"/>
  <line class="uuid-d18a6148-8379-4f15-8519-0a56a48ae476" x1="201.012" y1="313.584" x2="146.62" y2="219.326"/>
  <g>
    <path class="uuid-9a21f910-8d35-40a1-a115-751ad27d98d6" d="M219.873,301.026l-33.445-57.913M179.421,230.982l-13.234-22.919"/>
    <path class="uuid-9a21f910-8d35-40a1-a115-751ad27d98d6" d="M239.391,289.715l-21.693-37.577M215.387,248.135l-4.213-7.3M205.626,231.225l-3.05-5.28M197.719,217.53l-11.965-20.725"/>
    <path class="uuid-9a21f910-8d35-40a1-a115-751ad27d98d6" d="M258.958,278.457l-12.55-21.745M240.941,247.237l-2.914-5.052M233.526,234.389l-2.657-4.6M226.439,222.11l-2.678-4.639M219.346,209.818l-14.026-24.303"/>
    <path class="uuid-9a21f910-8d35-40a1-a115-751ad27d98d6" d="M278.474,267.169l-30.848-53.47M243.508,206.569l-18.669-32.36"/>
  </g>
  <line class="uuid-d18a6148-8379-4f15-8519-0a56a48ae476" x1="298.044" y1="255.858" x2="244.402" y2="162.946"/>
  <line class="uuid-d18a6148-8379-4f15-8519-0a56a48ae476" x1="317.699" y1="244.768" x2="280.082" y2="179.618"/>
  <line class="uuid-d18a6148-8379-4f15-8519-0a56a48ae476" x1="336.581" y1="232.284" x2="319.921" y2="203.439"/>
  <path class="uuid-726be35d-fe6b-4040-997b-e6dcf175ff55" d="M213.267,180.556v-100.958c0-3.797,3.106-6.903,6.903-6.903h0c3.797,0,6.899,3.106,6.899,6.903v92.794"/>
  <g>
    <path class="uuid-726be35d-fe6b-4040-997b-e6dcf175ff55" d="M228.886,250.141c1.6-4.949,8.378-8.868,16.948-9.795,2.289-.247,3.907-1.372,3.903-2.716v-2.549c0-.836-.578-1.556-1.677-2.098-1.105-.549-2.425-.762-3.86-.63-14.975,1.372-26.797,8.202-29.158,16.852-.225.828.147,1.589,1.089,2.226.941.636,2.192.967,3.642.967h4.412c2.325,0,4.276-.939,4.702-2.258Z"/>
    <path class="uuid-726be35d-fe6b-4040-997b-e6dcf175ff55" d="M206.498,249.912c2.023-11.859,18.378-21.311,38.919-22.488,2.459-.144,4.313-1.329,4.313-2.753l-.004-2.527c0-.806-.529-1.502-1.56-2.042-1.03-.541-2.27-.784-3.662-.71-27.488,1.442-49.44,14.129-51.915,30.001-.126.802.293,1.52,1.236,2.112.938.597,2.138.898,3.532.902l4.379-.004c2.471,0,4.521-1.075,4.761-2.491Z"/>
    <path class="uuid-726be35d-fe6b-4040-997b-e6dcf175ff55" d="M184.903,248.985c2.178-18.382,27.672-33.114,59.511-34.392,2.516-.099,4.459-1.298,4.459-2.756l-.004-2.521c0-.794-.514-1.475-1.516-2.016-1.001-.545-2.214-.794-3.583-.744-38.984,1.472-70.294,19.549-72.793,42.063-.088.792.345,1.49,1.284,2.068.942.578,2.123.872,3.495.872h4.376c2.52,0,4.603-1.123,4.771-2.575Z"/>
    <path class="uuid-726be35d-fe6b-4040-997b-e6dcf175ff55" d="M240.878,247.275c-3.762,2.17-3.758,5.688.006,7.858,3.76,2.175,9.857,2.172,13.617-.003,3.756-2.172,3.756-5.689-.006-7.859-3.764-2.172-9.857-2.172-13.617.004Z"/>
  </g>
</svg>