<?xml version="1.0" encoding="UTF-8"?>
<svg id="uuid-e52875b6-e4da-4173-8fd0-bebb06f74a14" data-name="&amp;lt;Layer&amp;gt;" xmlns="http://www.w3.org/2000/svg" viewBox="0 0 451.11 451.11">
  <defs>
    <style>
      .uuid-56e759a7-382f-4335-9d2e-e58174787716, .uuid-f76b090c-e0f5-4880-aff4-91bd4c29fd01, .uuid-f001a834-f371-4b26-a4a1-043da31b3875 {
        stroke-linecap: round;
      }

      .uuid-56e759a7-382f-4335-9d2e-e58174787716, .uuid-f76b090c-e0f5-4880-aff4-91bd4c29fd01, .uuid-f001a834-f371-4b26-a4a1-043da31b3875, .uuid-104d4a49-0339-4810-a4ca-f0c6392d5847, .uuid-9db7a03f-ab06-4ee8-8932-8f4b97f96834 {
        fill: none;
        stroke: #000;
      }

      .uuid-56e759a7-382f-4335-9d2e-e58174787716, .uuid-f001a834-f371-4b26-a4a1-043da31b3875 {
        stroke-linejoin: round;
      }

      .uuid-56e759a7-382f-4335-9d2e-e58174787716, .uuid-f001a834-f371-4b26-a4a1-043da31b3875, .uuid-104d4a49-0339-4810-a4ca-f0c6392d5847, .uuid-9db7a03f-ab06-4ee8-8932-8f4b97f96834 {
        stroke-width: 4.113px;
      }

      .uuid-f76b090c-e0f5-4880-aff4-91bd4c29fd01 {
        stroke-miterlimit: 10;
        stroke-width: 1.159px;
      }

      .uuid-f001a834-f371-4b26-a4a1-043da31b3875, .uuid-104d4a49-0339-4810-a4ca-f0c6392d5847 {
        fill-rule: evenodd;
      }

      .uuid-104d4a49-0339-4810-a4ca-f0c6392d5847, .uuid-9db7a03f-ab06-4ee8-8932-8f4b97f96834 {
        stroke-miterlimit: 22.926;
      }
    </style>
  </defs>
  <path class="uuid-104d4a49-0339-4810-a4ca-f0c6392d5847" d="M224.917,149.758c3.911-6.376,8.72-12.532,14.169-17.466.074-.074.121-.122.169-.195.369-.269.662-.637,1.053-.858,9.526-8.473,20.325-13.533,31.829-7.593.122.047.17.095.295.169.122.048.243.096.339.173,2.226,1.145,4.938,2.661,8.186,4.47"/>
  <path class="uuid-104d4a49-0339-4810-a4ca-f0c6392d5847" d="M182.659,161.312c-3.032-5.228-2.863-12.432-1.689-18.051,2.711-13.828,14.853-33.636,30.241-36.985,6.917-1.464,9.113.979,14.757,4.228"/>
  <path class="uuid-f001a834-f371-4b26-a4a1-043da31b3875" d="M194.334,153.302c.048,0,.048-.052.048-.052,5.986-16.66,17.492-33.147,31.587-42.747.928-.636,1.807-1.269,2.734-1.785"/>
  <path class="uuid-f001a834-f371-4b26-a4a1-043da31b3875" d="M229.682,108.06c3.833-2.126,7.549-3.764,11.847-4.765,4.176-.854,8.646-.927,12.727.415"/>
  <polyline class="uuid-f001a834-f371-4b26-a4a1-043da31b3875" points="254.256 103.711 255.014 103.954 268.499 111.724"/>
  <path class="uuid-f001a834-f371-4b26-a4a1-043da31b3875" d="M268.499,111.724c-.541-.173-1.005-.341-1.542-.467-.269-.121-.511-.169-.732-.243q-.073-.048-.169,0"/>
  <path class="uuid-f001a834-f371-4b26-a4a1-043da31b3875" d="M280.957,128.458c-2.078-8.944-7.134-14.927-14-17.201-.269-.121-.511-.169-.732-.243q-.073-.048-.169,0c-6.572-1.953-14.828-.559-23.773,4.544-1.218.706-2.439,1.442-3.588,2.27-.121.052-.243.173-.341.221-10.163,7.035-19.225,17.881-25.674,29.924"/>
  <path class="uuid-104d4a49-0339-4810-a4ca-f0c6392d5847" d="M278.414,239.263c-14.46-8.257-34.442-19.714-46.975-27.14-.588-.341-1.173-.684-1.757-1.027-.1-.073-.174-.121-.222-.173-.243-.121-.536-.243-.758-.364-.463-.295-.879-.515-1.342-.806-1.318-.81-2.443-1.516-3.419-2.101-.293-.173-.588-.341-.831-.515-.048,0-.1-.048-.173-.121"/>
  <path class="uuid-104d4a49-0339-4810-a4ca-f0c6392d5847" d="M272.137,123.647c.122.047.17.095.295.169.122.048.243.096.339.173"/>
  <polyline class="uuid-104d4a49-0339-4810-a4ca-f0c6392d5847" points="272.77 123.988 281.079 128.727 328.638 156.084"/>
  <polyline class="uuid-104d4a49-0339-4810-a4ca-f0c6392d5847" points="236.3 180.709 236.886 181.074 237.353 181.345"/>
  <path class="uuid-f001a834-f371-4b26-a4a1-043da31b3875" d="M304.479,263.517c-6.034-3.492-17.123-8.768-20.031-12.065-3.079-3.492-5.056-7.62-6.034-12.189-4.591-19.983,8.136-48.027,20.911-63.024,6.839-8.014,17.881-17.418,29.313-20.155h.052"/>
  <path class="uuid-f001a834-f371-4b26-a4a1-043da31b3875" d="M359.247,166.15c-.243-.073-.463-.195-.685-.195-.121-.052-.243-.099-.363-.099-.343-.122-.637-.242-.979-.294"/>
  <path class="uuid-f001a834-f371-4b26-a4a1-043da31b3875" d="M366.112,171.301c-2.053-2.487-4.591-4.224-7.55-5.346-.121-.052-.243-.099-.363-.099-.343-.122-.637-.242-.979-.294"/>
  <polyline class="uuid-f001a834-f371-4b26-a4a1-043da31b3875" points="377.371 177.803 366.16 171.353 366.112 171.301 363.89 170.036 363.132 169.789"/>
  <path class="uuid-f001a834-f371-4b26-a4a1-043da31b3875" d="M363.132,169.789c-4.055-1.394-8.525-1.317-12.727-.39-4.276.928-7.988,2.613-11.822,4.739"/>
  <path class="uuid-f001a834-f371-4b26-a4a1-043da31b3875" d="M337.531,174.797c-18.64,11.263-33.273,34.836-37.522,56.088-2.15,10.869-2.196,25.207,5.571,33.979.291.343,1.39,1.516,1.685,1.733"/>
  <path class="uuid-f001a834-f371-4b26-a4a1-043da31b3875" d="M350.648,196.049c-15.266,8.772-27.577,30.145-27.577,47.733s12.312,24.746,27.577,15.906c15.222-8.772,27.533-30.149,27.533-47.736s-12.311-24.722-27.533-15.902Z"/>
  <path class="uuid-f001a834-f371-4b26-a4a1-043da31b3875" d="M378.107,214.81c.585-5.008.074-8.894-1.269-12.017-.221-.71-.467-1.343-.758-1.933-.051-.095-.099-.243-.173-.341-.048-.122-.122-.291-.221-.417-.802-1.316-1.807-2.538-2.98-3.66-.806-.81-1.906-1.663-2.954-2.543"/>
  <path class="uuid-f001a834-f371-4b26-a4a1-043da31b3875" d="M376.322,177.46c-.243-.12-.537-.172-.758-.221-1.901-.658-3.955-1-6.155-1.052-4.25-.07-8.941.979-13.948,3.253-1.391.633-2.834,1.343-4.276,2.196-.122.074-.243.122-.365.243-21.303,12.484-38.67,42.093-39.428,66.961-.121.633-.121,1.221-.121,1.781,0,.71,0,1.395.073,2.053.218,5.792,1.391,10.721,3.419,14.728,1.099,2.274,2.495,4.201,4.128,5.818,0,.069,0,.121.052.121,7.252,7.252,18.93,7.962,32.172.343,22.006-12.705,39.889-43.605,39.889-68.989,0-14.412-5.741-23.986-14.682-27.235Z"/>
  <path class="uuid-f001a834-f371-4b26-a4a1-043da31b3875" d="M374.222,230.664c-3.543,8.868-9.235,17.345-16.024,23.452-1.612,1.512-3.297,2.856-5.034,4.003-.879.637-1.807,1.173-2.76,1.689-4.986,2.856-9.578,3.956-13.632,3.666-1.512-.174-2.956-.589-4.298-1.175"/>
  <path class="uuid-104d4a49-0339-4810-a4ca-f0c6392d5847" d="M70.582,236.747c-10.067-5.814-12.043-11.09-9.431-24.16,2.737-13.706,14.706-33.272,29.972-36.569,6.572-1.564,9.067.927,14.417,4.055"/>
  <path class="uuid-f001a834-f371-4b26-a4a1-043da31b3875" d="M146.601,180.489c.221.048.512.122.758.221.048,0,.048.074.096.074.295.048.636.169.931.291"/>
  <polyline class="uuid-f001a834-f371-4b26-a4a1-043da31b3875" points="148.386 181.074 134.923 173.281 134.169 173.064"/>
  <path class="uuid-f001a834-f371-4b26-a4a1-043da31b3875" d="M134.169,173.064c-4.081-1.343-8.551-1.295-12.731-.417-4.298.976-8.01,2.613-11.844,4.761"/>
  <path class="uuid-f001a834-f371-4b26-a4a1-043da31b3875" d="M108.615,178.046c-1.051.636-2.052,1.269-3.075,2.027-17.201,11.921-30.487,34.029-34.494,54.06-.173.88-.369,1.759-.463,2.613-1.638,10.453-1.175,23.279,6.03,31.414.245.295,1.394,1.464,1.689,1.685"/>
  <path class="uuid-f001a834-f371-4b26-a4a1-043da31b3875" d="M158.79,191.751v-.074c-2.491-5.401-6.45-9.109-11.335-10.894-.048,0-.048-.074-.096-.074-.247-.099-.537-.173-.758-.221-6.744-2.222-15.218-.879-24.405,4.396-1.343.758-2.66,1.638-4.003,2.517-.125.096-.247.174-.295.221-16.954,11.922-30.656,34.2-34.494,55.11"/>
  <path class="uuid-f001a834-f371-4b26-a4a1-043da31b3875" d="M83.404,242.803c-.121.393-.169.809-.291,1.221-.514,3.373-.805,6.67-.805,9.871,0,10.089,2.784,17.76,7.545,22.642,5.156,5.276,12.702,7.135,21.473,4.939"/>
  <path class="uuid-104d4a49-0339-4810-a4ca-f0c6392d5847" d="M152.561,193.264c-3.59-2.101-5.449-2.906-9.797-2.906-7.278.099-14.656,3.933-20.983,8.867-.854.71-1.733,1.468-2.613,2.226-.511.511-1.099,1.048-1.611,1.56-2.959,2.615-5.523,5.523-7.621,8.186-12.19,15.633-24.8,47.853-10.214,63.071.589.585,5.06,3.371,11.604,7.209,12.554,7.425,32.537,18.856,47.001,27.113"/>
  <polyline class="uuid-f001a834-f371-4b26-a4a1-043da31b3875" points="269.058 175.359 268.083 174.797 224.917 149.758 224.747 149.71 223.89 149.195 223.01 148.88"/>
  <path class="uuid-f001a834-f371-4b26-a4a1-043da31b3875" d="M223.01,148.88c-2.612-.858-6.031-1.101-9.356-.906h-.975c-2.322.173-4.544.441-6.399.858-1.151.243-2.274.537-3.422.927-.806.243-1.564.463-2.37.828-1.759.563-3.444,1.32-5.106,2.2-.365.173-.706.343-1.049.515"/>
  <path class="uuid-f001a834-f371-4b26-a4a1-043da31b3875" d="M194.334,153.372c-.343.099-.706.345-1.053.515-2.096,1.096-4.176,2.443-6.103,3.881-.637.467-1.221.931-1.859,1.347-.879.754-1.807,1.438-2.66,2.196-3.838,3.249-7.428,6.987-10.751,10.994-.585.636-1.101,1.317-1.685,2.027-1.465,1.733-2.737,3.54-4.007,5.397-2.737,3.885-5.228,7.94-7.426,11.947v.074c-.71,1.27-1.416,2.539-1.979,3.761-.121.074-.121.12-.121.12-1.221,2.517-2.322,4.986-3.323,7.43"/>
  <path class="uuid-f001a834-f371-4b26-a4a1-043da31b3875" d="M198.73,229.27c0-.07.074-.122.074-.17.975-2.517,2.076-4.96,3.297-7.329,0-.048.074-.122.122-.17,2.321-4.886,5.106-9.651,8.135-14.047,0-.074.052-.074.052-.074.069-.169.169-.291.243-.391.269-.415.559-.831.853-1.221.589-.927,1.347-1.854,1.979-2.734.685-.93,1.391-1.857,2.15-2.785.173-.247.341-.463.515-.636,1.221-1.516,2.513-2.98,3.786-4.372"/>
  <path class="uuid-f001a834-f371-4b26-a4a1-043da31b3875" d="M245.827,177.166c5.06-2.074,10.288-3.297,15.148-3.249.78,0,1.464.048,2.174.122.681.048,1.391.098,2.075.295.637.121,1.295.293,1.979.463.585.169,1.221.341,1.855.562"/>
  <path class="uuid-f001a834-f371-4b26-a4a1-043da31b3875" d="M211.505,205.868c.589-.927,1.347-1.854,1.979-2.734.685-.978,1.443-1.931,2.15-2.785.173-.247.341-.463.515-.636,1.221-1.516,2.513-2.98,3.786-4.372"/>
  <path class="uuid-f001a834-f371-4b26-a4a1-043da31b3875" d="M223.941,207.653l-.051.074c-1.391,1.564-2.687,3.197-3.908,4.934-2.711,3.712-5.154,7.841-7.13,12.069"/>
  <path class="uuid-f001a834-f371-4b26-a4a1-043da31b3875" d="M267.909,174.845c.395.173.806.293,1.149.514.758.317,1.516.707,2.152,1.171.633.343,1.343.81,1.976,1.273-3.54,5.688-6.791,12.138-9.279,18.83-1.346-1.391-2.862-2.564-4.547-3.37-1.171-.585-2.37-1.001-3.662-1.269"/>
  <path class="uuid-f001a834-f371-4b26-a4a1-043da31b3875" d="M220.104,194.411c-1.442,1.516-2.785,3.154-4.176,4.813-1.612,2.053-3.249,4.202-4.761,6.402-.247.343-.515.707-.758,1.101-.126.169-.247.363-.343.537"/>
  <path class="uuid-f001a834-f371-4b26-a4a1-043da31b3875" d="M209.993,207.264c-2.958,4.466-5.666,9.231-8.061,14.169,0,.048-.048.096-.122.169-1.099,2.491-2.2,4.982-3.201,7.547.074,0,.121-.048.195-.048.269-.121.637-.243.927-.293.048,0,.048-.07.1-.07"/>
  <path class="uuid-f001a834-f371-4b26-a4a1-043da31b3875" d="M229.634,211.097c-6.377-3.738-12.264-5.349-9.53-17.075,2.395-10.332,13.485-23.474,22.01-19.004"/>
  <path class="uuid-f001a834-f371-4b26-a4a1-043da31b3875" d="M239.038,210.166c-7.33,4.228-13.242.81-13.242-7.667,0-8.429,5.912-18.709,13.242-22.937,7.33-4.254,13.238-.832,13.238,7.667,0,8.403-5.908,18.687-13.238,22.937Z"/>
  <path class="uuid-f001a834-f371-4b26-a4a1-043da31b3875" d="M238.107,235.182c.125,0,.247.074.345.125.243,0,.463.122.707.17"/>
  <path class="uuid-f001a834-f371-4b26-a4a1-043da31b3875" d="M221.915,225.73c-2.98-1.001-5.986-1.296-9.063-1.001-1.347.07-2.737.291-4.081.632"/>
  <path class="uuid-f001a834-f371-4b26-a4a1-043da31b3875" d="M208.723,225.362c-3.006.71-5.986,1.881-8.893,3.375-.052,0-.052.07-.1.07-8.083,4.18-15.46,10.846-20.493,16.781-6.62,7.771-13.264,19.03-17.492,30.951-3.834,10.968-5.619,22.477-3.419,32.051.975,4.592,2.954,8.72,6.034,12.189,2.613,3.028,10.453,6.913,16.367,10.236"/>
  <path class="uuid-f001a834-f371-4b26-a4a1-043da31b3875" d="M238.107,235.182c.125,0,.247.074.345.125,2.908,1.049,5.519,2.904,7.669,5.398"/>
  <path class="uuid-f001a834-f371-4b26-a4a1-043da31b3875" d="M187.178,335.949c-.295-.243-1.395-1.416-1.686-1.759-7.792-8.771-7.719-23.11-5.57-33.953,4.25-21.277,18.882-44.851,37.519-56.114"/>
  <path class="uuid-f001a834-f371-4b26-a4a1-043da31b3875" d="M218.492,243.491c3.812-2.153,7.55-3.838,11.822-4.765,4.18-.928,8.672-.978,12.731.415"/>
  <polyline class="uuid-f001a834-f371-4b26-a4a1-043da31b3875" points="243.045 239.141 243.803 239.362 246.121 240.705 257.284 247.155"/>
  <path class="uuid-f001a834-f371-4b26-a4a1-043da31b3875" d="M239.086,262.006c-.927.169-1.905.415-2.834.758-1.857.632-3.786,1.512-5.692,2.612-15.218,8.772-27.581,30.219-27.581,47.759,0,1.317.048,2.66.222,3.881.121,1.321.367,2.543.706,3.716"/>
  <path class="uuid-f001a834-f371-4b26-a4a1-043da31b3875" d="M258.138,281.303c0,2.197-.17,4.47-.585,6.744-.096.732-.217,1.56-.391,2.318-.073.221-.121.393-.173.636-.243,1.023-.463,2.027-.754,3.002-.588,1.981-1.273,4.007-2.1,5.986-3.544,8.894-9.235,17.367-16.028,23.474-1.343,1.273-2.785,2.37-4.129,3.349-.341.291-.706.537-1.096.758-.758.585-1.568,1.049-2.322,1.512-.511.367-1.101.636-1.637.883-2.661,1.391-5.228,2.27-7.647,2.613-1.516.221-2.98.342-4.422.221-.927-.125-1.807-.295-2.686-.515-.637-.173-1.221-.415-1.785-.636"/>
  <path class="uuid-f001a834-f371-4b26-a4a1-043da31b3875" d="M212.337,331.648c-.537-.243-1.125-.537-1.685-.88-2.053-1.269-3.786-3.123-5.056-5.567,22.179-.293,47.733-43.898,36.687-63.586,2.521-.074,4.765.391,6.792,1.343.074,0,.125.048.173.048.074.047.122.047.17.121.073.052.147.052.195.1.463.247.979.537,1.442.879.537.343,1.053.758,1.516,1.221,1.221,1.101,2.2,2.491,3.002,4.129.074.099.199.293.247.389.048.122.121.243.169.369,1.395,2.954,2.149,6.715,2.149,11.089"/>
  <path class="uuid-f001a834-f371-4b26-a4a1-043da31b3875" d="M249.075,262.958c.074,0,.125.048.173.048.074.047.122.047.17.121.073.052.147.052.195.1,1.099.831,2.078,1.637,2.958,2.563,1.169,1.053,2.2,2.274,3.002,3.666.074.099.199.293.247.389.048.122.121.243.169.369,2.2,4.102,3.032,9.699,1.564,17.833-.096.975-.343,1.953-.563,2.954-.243,1.023-.463,2.027-.754,3.002-.588,1.981-1.273,4.007-2.1,5.986-3.592,8.721-9.409,17.245-16.028,23.474-1.343,1.273-2.734,2.37-4.129,3.349-.341.291-.706.537-1.096.758-.758.585-1.568,1.049-2.322,1.512-3.592,2.274-7.304,3.544-10.968,3.716-.88.07-1.811.07-2.737,0-.927-.125-1.807-.295-2.686-.515-.637-.173-1.221-.415-1.785-.636"/>
  <path class="uuid-f001a834-f371-4b26-a4a1-043da31b3875" d="M256.235,246.809c-.247-.121-.537-.195-.758-.243-1.927-.632-3.959-.978-6.155-1.047-4.254-.052-8.941,1.001-14,3.271-1.343.636-2.785,1.32-4.25,2.2-.096.047-.221.095-.343.217-21.299,12.484-38.718,42.117-39.424,66.961-.121.632-.121,1.221-.121,1.805,0,.707,0,1.391.047,2.027.244,5.814,1.391,10.747,3.445,14.754,1.099,2.27,2.491,4.25,4.128,5.862,0,.052.048.052.048.052,7.256,7.276,18.93,7.962,32.172.363,22.01-12.727,39.891-43.626,39.891-68.985,0-14.412-5.744-23.986-14.68-27.239Z"/>
  <path class="uuid-f001a834-f371-4b26-a4a1-043da31b3875" d="M257.162,290.366c-.073.221-.121.393-.173.636-.195.976-.463,2.027-.754,3.002-.537,1.981-1.221,4.007-2.1,5.986-3.544,8.894-9.235,17.367-16.028,23.474-1.343,1.273-2.785,2.37-4.129,3.349-.389.291-.754.585-1.096.758-.758.585-1.568,1.049-2.322,1.512-.511.367-1.101.636-1.637.883-2.661,1.391-5.228,2.27-7.647,2.613-1.516.221-2.98.342-4.422.221-.927-.052-1.807-.221-2.686-.515-.637-.121-1.221-.363-1.785-.636"/>
  <line class="uuid-9db7a03f-ab06-4ee8-8932-8f4b97f96834" x1="328.76" y1="156.084" x2="328.812" y2="156.084"/>
  <path class="uuid-f001a834-f371-4b26-a4a1-043da31b3875" d="M328.812,156.084c4.47-1.101,8.941-1.101,13.238.295"/>
  <line class="uuid-56e759a7-382f-4335-9d2e-e58174787716" x1="342.05" y1="156.378" x2="359.247" y2="166.15"/>
  <line class="uuid-56e759a7-382f-4335-9d2e-e58174787716" x1="307.265" y1="266.597" x2="318.891" y2="273.22"/>
  <path class="uuid-f001a834-f371-4b26-a4a1-043da31b3875" d="M318.891,273.22c0,.069,0,.121.052.121"/>
  <path class="uuid-f001a834-f371-4b26-a4a1-043da31b3875" d="M362.374,192.263c11.042,19.688-14.512,63.318-36.691,63.586"/>
  <line class="uuid-56e759a7-382f-4335-9d2e-e58174787716" x1="78.301" y1="269.846" x2="89.854" y2="276.538"/>
  <line class="uuid-9db7a03f-ab06-4ee8-8932-8f4b97f96834" x1="156.69" y1="195.632" x2="152.341" y2="193.142"/>
  <line class="uuid-56e759a7-382f-4335-9d2e-e58174787716" x1="153.367" y1="203.062" x2="198.73" y2="229.27"/>
  <line class="uuid-56e759a7-382f-4335-9d2e-e58174787716" x1="226.09" y1="205.405" x2="226.042" y2="205.405"/>
  <path class="uuid-f001a834-f371-4b26-a4a1-043da31b3875" d="M255.647,191.994c-1.223-.243-2.444-.415-3.834-.415"/>
  <line class="uuid-56e759a7-382f-4335-9d2e-e58174787716" x1="242.114" y1="175.018" x2="248.391" y2="178.63"/>
  <path class="uuid-f001a834-f371-4b26-a4a1-043da31b3875" d="M248.391,178.63c-13.07-6.155-30.609,24.21-18.757,32.467"/>
  <line class="uuid-56e759a7-382f-4335-9d2e-e58174787716" x1="239.16" y1="235.477" x2="221.915" y2="225.73"/>
  <path class="uuid-f001a834-f371-4b26-a4a1-043da31b3875" d="M198.852,342.669s-.048,0-.048-.052"/>
  <line class="uuid-56e759a7-382f-4335-9d2e-e58174787716" x1="198.804" y1="342.617" x2="187.178" y2="335.949"/>
  <path class="uuid-f001a834-f371-4b26-a4a1-043da31b3875" d="M242.283,261.615c11.046,19.688-14.508,63.293-36.687,63.586"/>
  <path class="uuid-f001a834-f371-4b26-a4a1-043da31b3875" d="M205.596,325.201c-.71-1.342-1.269-2.784-1.689-4.47M239.086,262.006c1.121-.222,2.148-.343,3.197-.391,2.521-.074,4.765.391,6.792,1.343"/>
  <line class="uuid-f76b090c-e0f5-4880-aff4-91bd4c29fd01" x1="299.203" y1="257.487" x2="279.22" y2="222.871"/>
  <line class="uuid-f76b090c-e0f5-4880-aff4-91bd4c29fd01" x1="298.154" y1="233.034" x2="283.227" y2="207.19"/>
  <line class="uuid-f76b090c-e0f5-4880-aff4-91bd4c29fd01" x1="302.331" y1="217.768" x2="288.82" y2="194.363"/>
  <line class="uuid-f76b090c-e0f5-4880-aff4-91bd4c29fd01" x1="308.143" y1="205.21" x2="295.491" y2="183.274"/>
  <line class="uuid-f76b090c-e0f5-4880-aff4-91bd4c29fd01" x1="314.936" y1="194.411" x2="303.089" y2="173.917"/>
  <line class="uuid-f76b090c-e0f5-4880-aff4-91bd4c29fd01" x1="322.655" y1="185.18" x2="311.687" y2="166.198"/>
  <line class="uuid-f76b090c-e0f5-4880-aff4-91bd4c29fd01" x1="331.202" y1="177.408" x2="321.261" y2="160.211"/>
  <line class="uuid-f76b090c-e0f5-4880-aff4-91bd4c29fd01" x1="340.658" y1="171.257" x2="332.424" y2="156.962"/>
  <line class="uuid-f76b090c-e0f5-4880-aff4-91bd4c29fd01" x1="351.406" y1="167.25" x2="348.572" y2="162.312"/>
  <line class="uuid-f76b090c-e0f5-4880-aff4-91bd4c29fd01" x1="334.04" y1="278.15" x2="313.199" y2="242.048"/>
  <line class="uuid-f76b090c-e0f5-4880-aff4-91bd4c29fd01" x1="354.901" y1="269.113" x2="350.648" y2="261.784"/>
  <line class="uuid-f76b090c-e0f5-4880-aff4-91bd4c29fd01" x1="326.905" y1="220.675" x2="323.361" y2="214.516"/>
  <line class="uuid-f76b090c-e0f5-4880-aff4-91bd4c29fd01" x1="371.389" y1="252.552" x2="367.676" y2="246.103"/>
  <line class="uuid-f76b090c-e0f5-4880-aff4-91bd4c29fd01" x1="341.416" y1="200.618" x2="337.873" y2="194.537"/>
  <line class="uuid-f76b090c-e0f5-4880-aff4-91bd4c29fd01" x1="384.163" y1="229.539" x2="379.108" y2="220.843"/>
  <line class="uuid-f76b090c-e0f5-4880-aff4-91bd4c29fd01" x1="361.616" y1="190.53" x2="356.123" y2="180.952"/>
  <line class="uuid-f76b090c-e0f5-4880-aff4-91bd4c29fd01" x1="309.756" y1="246.519" x2="300.546" y2="241.217"/>
  <line class="uuid-f76b090c-e0f5-4880-aff4-91bd4c29fd01" x1="315.227" y1="223.578" x2="305.532" y2="217.985"/>
  <line class="uuid-f76b090c-e0f5-4880-aff4-91bd4c29fd01" x1="325.852" y1="203.646" x2="316.105" y2="198.028"/>
  <line class="uuid-f76b090c-e0f5-4880-aff4-91bd4c29fd01" x1="341.244" y1="186.523" x2="331.67" y2="181.004"/>
  <line class="uuid-f76b090c-e0f5-4880-aff4-91bd4c29fd01" x1="365.575" y1="174.454" x2="359.368" y2="170.838"/>
  <line class="uuid-f76b090c-e0f5-4880-aff4-91bd4c29fd01" x1="337.704" y1="261.541" x2="334.329" y2="255.68"/>
  <line class="uuid-f76b090c-e0f5-4880-aff4-91bd4c29fd01" x1="349.011" y1="258.587" x2="343.809" y2="249.473"/>
  <line class="uuid-f76b090c-e0f5-4880-aff4-91bd4c29fd01" x1="358.146" y1="251.842" x2="351.943" y2="240.996"/>
  <line class="uuid-f76b090c-e0f5-4880-aff4-91bd4c29fd01" x1="365.869" y1="242.559" x2="358.83" y2="230.491"/>
  <line class="uuid-f76b090c-e0f5-4880-aff4-91bd4c29fd01" x1="372.269" y1="231.055" x2="364.401" y2="217.522"/>
  <line class="uuid-f76b090c-e0f5-4880-aff4-91bd4c29fd01" x1="376.37" y1="215.615" x2="366.455" y2="198.418"/>
  <line class="uuid-f76b090c-e0f5-4880-aff4-91bd4c29fd01" x1="69.872" y1="231.179" x2="62.274" y2="217.937"/>
  <line class="uuid-f76b090c-e0f5-4880-aff4-91bd4c29fd01" x1="74.684" y1="216.958" x2="66.281" y2="202.329"/>
  <line class="uuid-f76b090c-e0f5-4880-aff4-91bd4c29fd01" x1="80.84" y1="204.99" x2="72.852" y2="191.114"/>
  <line class="uuid-f76b090c-e0f5-4880-aff4-91bd4c29fd01" x1="87.922" y1="194.658" x2="81.035" y2="182.689"/>
  <line class="uuid-f76b090c-e0f5-4880-aff4-91bd4c29fd01" x1="95.84" y1="185.765" x2="91.197" y2="177.751"/>
  <line class="uuid-f76b090c-e0f5-4880-aff4-91bd4c29fd01" x1="80.67" y1="249.863" x2="71.557" y2="244.66"/>
  <line class="uuid-f76b090c-e0f5-4880-aff4-91bd4c29fd01" x1="86.189" y1="227" x2="76.491" y2="221.433"/>
  <line class="uuid-f76b090c-e0f5-4880-aff4-91bd4c29fd01" x1="96.816" y1="207.09" x2="87.069" y2="201.45"/>
  <line class="uuid-f76b090c-e0f5-4880-aff4-91bd4c29fd01" x1="112.158" y1="189.845" x2="102.629" y2="184.374"/>
  <line class="uuid-f76b090c-e0f5-4880-aff4-91bd4c29fd01" x1="136.317" y1="177.751" x2="130.04" y2="174.087"/>
  <line class="uuid-f76b090c-e0f5-4880-aff4-91bd4c29fd01" x1="104.072" y1="280.302" x2="103.339" y2="279.033"/>
  <line class="uuid-f76b090c-e0f5-4880-aff4-91bd4c29fd01" x1="91.37" y1="258.366" x2="84.505" y2="246.519"/>
  <line class="uuid-f76b090c-e0f5-4880-aff4-91bd4c29fd01" x1="98.844" y1="226.12" x2="94.151" y2="217.985"/>
  <line class="uuid-f76b090c-e0f5-4880-aff4-91bd4c29fd01" x1="112.792" y1="205.114" x2="108.615" y2="197.906"/>
  <line class="uuid-f76b090c-e0f5-4880-aff4-91bd4c29fd01" x1="130.968" y1="191.409" x2="126.887" y2="184.443"/>
  <line class="uuid-f76b090c-e0f5-4880-aff4-91bd4c29fd01" x1="190.032" y1="153.887" x2="183.049" y2="141.745"/>
  <line class="uuid-f76b090c-e0f5-4880-aff4-91bd4c29fd01" x1="196.872" y1="143.14" x2="188.347" y2="128.334"/>
  <line class="uuid-f76b090c-e0f5-4880-aff4-91bd4c29fd01" x1="203.374" y1="131.755" x2="195.481" y2="118.124"/>
  <line class="uuid-f76b090c-e0f5-4880-aff4-91bd4c29fd01" x1="210.7" y1="121.935" x2="204.249" y2="110.746"/>
  <line class="uuid-f76b090c-e0f5-4880-aff4-91bd4c29fd01" x1="218.883" y1="113.531" x2="215.56" y2="107.718"/>
  <line class="uuid-f76b090c-e0f5-4880-aff4-91bd4c29fd01" x1="216.907" y1="137.741" x2="207.108" y2="132.046"/>
  <line class="uuid-f76b090c-e0f5-4880-aff4-91bd4c29fd01" x1="232.246" y1="120.492" x2="222.72" y2="115.043"/>
  <line class="uuid-f76b090c-e0f5-4880-aff4-91bd4c29fd01" x1="256.456" y1="108.403" x2="250.128" y2="104.759"/>
  <line class="uuid-f76b090c-e0f5-4880-aff4-91bd4c29fd01" x1="234.446" y1="134.147" x2="230.314" y2="126.99"/>
  <line class="uuid-f76b090c-e0f5-4880-aff4-91bd4c29fd01" x1="253.034" y1="121.202" x2="249.027" y2="114.215"/>
  <line class="uuid-f76b090c-e0f5-4880-aff4-91bd4c29fd01" x1="173.523" y1="212.831" x2="160.818" y2="190.773"/>
  <line class="uuid-f76b090c-e0f5-4880-aff4-91bd4c29fd01" x1="202.859" y1="218.401" x2="174.645" y2="169.521"/>
  <line class="uuid-f76b090c-e0f5-4880-aff4-91bd4c29fd01" x1="216.733" y1="197.321" x2="192.28" y2="154.939"/>
  <line class="uuid-f76b090c-e0f5-4880-aff4-91bd4c29fd01" x1="230.561" y1="176.066" x2="214.928" y2="149"/>
  <line class="uuid-f76b090c-e0f5-4880-aff4-91bd4c29fd01" x1="254.598" y1="172.575" x2="251.765" y2="167.64"/>
  <line class="uuid-f76b090c-e0f5-4880-aff4-91bd4c29fd01" x1="275.093" y1="235.892" x2="251.64" y2="195.243"/>
  <line class="uuid-f76b090c-e0f5-4880-aff4-91bd4c29fd01" x1="281.958" y1="202.499" x2="271.28" y2="183.958"/>
  <line class="uuid-f76b090c-e0f5-4880-aff4-91bd4c29fd01" x1="263.539" y1="170.62" x2="240.893" y2="131.461"/>
  <line class="uuid-f76b090c-e0f5-4880-aff4-91bd4c29fd01" x1="295.613" y1="180.952" x2="261.044" y2="121.13"/>
  <line class="uuid-f76b090c-e0f5-4880-aff4-91bd4c29fd01" x1="311.44" y1="163.243" x2="298.324" y2="140.648"/>
  <line class="uuid-f76b090c-e0f5-4880-aff4-91bd4c29fd01" x1="269.01" y1="181.074" x2="266.273" y2="176.313"/>
  <line class="uuid-f76b090c-e0f5-4880-aff4-91bd4c29fd01" x1="230.561" y1="184.616" x2="227.775" y2="182.979"/>
  <line class="uuid-f76b090c-e0f5-4880-aff4-91bd4c29fd01" x1="137.538" y1="295.763" x2="99.333" y2="229.539"/>
  <line class="uuid-f76b090c-e0f5-4880-aff4-91bd4c29fd01" x1="158.67" y1="287.263" x2="112.379" y2="206.969"/>
  <line class="uuid-f76b090c-e0f5-4880-aff4-91bd4c29fd01" x1="169.247" y1="260.342" x2="130.452" y2="193.142"/>
  <line class="uuid-f76b090c-e0f5-4880-aff4-91bd4c29fd01" x1="183.291" y1="239.532" x2="168.196" y2="213.419"/>
  <line class="uuid-f76b090c-e0f5-4880-aff4-91bd4c29fd01" x1="218.883" y1="210.976" x2="214.928" y2="204.11"/>
  <line class="uuid-f76b090c-e0f5-4880-aff4-91bd4c29fd01" x1="179.749" y1="328.572" x2="159.011" y2="292.662"/>
  <line class="uuid-f76b090c-e0f5-4880-aff4-91bd4c29fd01" x1="177.942" y1="302.898" x2="162.967" y2="276.881"/>
  <line class="uuid-f76b090c-e0f5-4880-aff4-91bd4c29fd01" x1="182.118" y1="287.459" x2="168.585" y2="264.058"/>
  <line class="uuid-f76b090c-e0f5-4880-aff4-91bd4c29fd01" x1="187.884" y1="274.853" x2="175.231" y2="252.969"/>
  <line class="uuid-f76b090c-e0f5-4880-aff4-91bd4c29fd01" x1="194.676" y1="264.058" x2="182.78" y2="243.491"/>
  <line class="uuid-f76b090c-e0f5-4880-aff4-91bd4c29fd01" x1="202.347" y1="254.75" x2="191.353" y2="235.768"/>
  <line class="uuid-f76b090c-e0f5-4880-aff4-91bd4c29fd01" x1="210.821" y1="246.909" x2="200.879" y2="229.711"/>
  <line class="uuid-f76b090c-e0f5-4880-aff4-91bd4c29fd01" x1="220.277" y1="240.753" x2="211.969" y2="226.292"/>
  <line class="uuid-f76b090c-e0f5-4880-aff4-91bd4c29fd01" x1="230.976" y1="236.65" x2="227.897" y2="231.348"/>
  <line class="uuid-f76b090c-e0f5-4880-aff4-91bd4c29fd01" x1="189.569" y1="316.088" x2="180.433" y2="310.786"/>
  <line class="uuid-f76b090c-e0f5-4880-aff4-91bd4c29fd01" x1="194.97" y1="293.151" x2="185.319" y2="287.558"/>
  <line class="uuid-f76b090c-e0f5-4880-aff4-91bd4c29fd01" x1="205.644" y1="273.22" x2="195.898" y2="267.575"/>
  <line class="uuid-f76b090c-e0f5-4880-aff4-91bd4c29fd01" x1="221.035" y1="256.022" x2="211.384" y2="250.452"/>
  <line class="uuid-f76b090c-e0f5-4880-aff4-91bd4c29fd01" x1="245.146" y1="243.832" x2="238.623" y2="240.116"/>
  <line class="uuid-f76b090c-e0f5-4880-aff4-91bd4c29fd01" x1="213.949" y1="347.554" x2="193.038" y2="311.327"/>
  <line class="uuid-f76b090c-e0f5-4880-aff4-91bd4c29fd01" x1="234.736" y1="338.44" x2="230.561" y2="331.111"/>
  <line class="uuid-f76b090c-e0f5-4880-aff4-91bd4c29fd01" x1="206.814" y1="290.001" x2="203.274" y2="283.842"/>
  <line class="uuid-f76b090c-e0f5-4880-aff4-91bd4c29fd01" x1="251.298" y1="321.902" x2="247.637" y2="315.502"/>
  <line class="uuid-f76b090c-e0f5-4880-aff4-91bd4c29fd01" x1="221.325" y1="269.968" x2="217.782" y2="263.885"/>
  <line class="uuid-f76b090c-e0f5-4880-aff4-91bd4c29fd01" x1="264.076" y1="298.891" x2="259.021" y2="290.123"/>
  <line class="uuid-f76b090c-e0f5-4880-aff4-91bd4c29fd01" x1="241.603" y1="259.856" x2="236.032" y2="250.279"/>
  <line class="uuid-f76b090c-e0f5-4880-aff4-91bd4c29fd01" x1="217.661" y1="330.941" x2="214.242" y2="324.956"/>
  <line class="uuid-f76b090c-e0f5-4880-aff4-91bd4c29fd01" x1="228.997" y1="327.983" x2="223.696" y2="318.799"/>
  <line class="uuid-f76b090c-e0f5-4880-aff4-91bd4c29fd01" x1="238.059" y1="321.122" x2="231.83" y2="310.322"/>
  <line class="uuid-f76b090c-e0f5-4880-aff4-91bd4c29fd01" x1="245.827" y1="312.007" x2="238.743" y2="299.77"/>
  <line class="uuid-f76b090c-e0f5-4880-aff4-91bd4c29fd01" x1="252.156" y1="300.407" x2="244.314" y2="286.826"/>
  <line class="uuid-f76b090c-e0f5-4880-aff4-91bd4c29fd01" x1="256.283" y1="284.943" x2="246.29" y2="267.723"/>
</svg>