<?xml version="1.0" encoding="UTF-8"?>
<svg id="uuid-56080e69-49cb-4007-866d-db0d31fc4190" data-name="&amp;lt;Layer&amp;gt;" xmlns="http://www.w3.org/2000/svg" viewBox="0 0 451.11 451.11">
  <defs>
    <style>
      .uuid-440cdee0-474b-4977-8eb4-3477b8dbc600, .uuid-e725135a-25b3-4618-9874-5f475e62127e, .uuid-400a8de9-e729-4616-b432-1cb299013730, .uuid-77ccbc30-ff23-4da1-9bd1-5925b8a8cfc8 {
        fill: none;
        stroke: #000;
        stroke-linecap: round;
      }

      .uuid-440cdee0-474b-4977-8eb4-3477b8dbc600, .uuid-77ccbc30-ff23-4da1-9bd1-5925b8a8cfc8 {
        stroke-linejoin: round;
        stroke-width: 4.117px;
      }

      .uuid-e725135a-25b3-4618-9874-5f475e62127e {
        stroke-width: 1.163px;
      }

      .uuid-e725135a-25b3-4618-9874-5f475e62127e, .uuid-400a8de9-e729-4616-b432-1cb299013730 {
        stroke-miterlimit: 10;
      }

      .uuid-400a8de9-e729-4616-b432-1cb299013730 {
        stroke-width: 1.159px;
      }

      .uuid-77ccbc30-ff23-4da1-9bd1-5925b8a8cfc8 {
        fill-rule: evenodd;
      }
    </style>
  </defs>
  <path class="uuid-77ccbc30-ff23-4da1-9bd1-5925b8a8cfc8" d="M177.8,270.612c1.464,1.564,3.418,3.08,5.618,4.522,1.223,1.001,2.93,1.928,4.398,2.785,2.686,1.39,5.371,2.686,8.547,3.907,14.169,5.445,29.559,7.595,44.215,2.15,5.762-2.447,10.471-4.685,15.633-8.309,6.155-4.404,11.696-9.817,15.637-16.318,7.521-12.785-.979-15.011-.979-22.885"/>
  <path class="uuid-77ccbc30-ff23-4da1-9bd1-5925b8a8cfc8" d="M201.738,232.626c0-7.465-.353-16.575.489-23.816,2.439-23.964,14.901-43.358,21.495-53.693"/>
  <path class="uuid-77ccbc30-ff23-4da1-9bd1-5925b8a8cfc8" d="M288.457,154.753c0,13.349.121,21.529-2.443,35.443-.976,5.324-2.198,10.725-3.419,15.902-2.443,8.942-6.107,18.787-9.773,26.58"/>
  <path class="uuid-77ccbc30-ff23-4da1-9bd1-5925b8a8cfc8" d="M272.823,232.678c-4.154,8.333-9.4,15.623-15.144,22.937-5.864,7.109-8.551,10.284-13.194,11.337-15.631,3.54-36.153-5.28-46.901-17.128"/>
  <path class="uuid-77ccbc30-ff23-4da1-9bd1-5925b8a8cfc8" d="M272.823,232.678c1.712.074,4.155.243,7.087.585.975.073,2.196.243,3.418.415,4.618.574,15.727,3.54,19.299,6.034,7.583,4.404,14.239,9.368,18.077,17.613,2.14,4.492,3.175,9.586,3.175,14.556"/>
  <path class="uuid-77ccbc30-ff23-4da1-9bd1-5925b8a8cfc8" d="M323.878,302.2c0,25.553-118.476,109.46-185.165,70.963-9.771-5.692-10.993-8.135-10.993-17.248,0-29.972-3.908-39.476,19.297-65.563,3.666-3.885,6.598-6.961,9.041-9.747"/>
  <path class="uuid-77ccbc30-ff23-4da1-9bd1-5925b8a8cfc8" d="M163.142,277.82c12.282,18.419,48.611,27.762,69.621,24.549,11.969-1.781,22.959-6.84,32.732-13.75,10.563-7.543,21.613-18.898,24.427-32.052,1.77-6.935.475-16.251-3.418-22.352"/>
  <path class="uuid-77ccbc30-ff23-4da1-9bd1-5925b8a8cfc8" d="M156.059,280.579c-9.53-29.972-.489-38.008-2.932-59.333-3.665-31.099-18.077-54.014-8.794-85.819,9.037-32.319,36.153-61.39,53.252-51.397,1.468-2.1,2.69-3.859,4.396-5.812"/>
  <polyline class="uuid-77ccbc30-ff23-4da1-9bd1-5925b8a8cfc8" points="201.981 78.219 204.666 75.237 207.846 72.722"/>
  <path class="uuid-77ccbc30-ff23-4da1-9bd1-5925b8a8cfc8" d="M207.846,72.722c25.159-16.687,65.955,14.536,78.9,36.52,11.726,19.589,20.276,68.911-3.419,124.363,0,.022-9.055-.853-9.963-.901"/>
  <path class="uuid-77ccbc30-ff23-4da1-9bd1-5925b8a8cfc8" d="M288.457,154.753c-1.221-9.747-13.19-5.082-26.382-.026-15.39,5.934-31.755,12.263-38.353.195"/>
  <path class="uuid-77ccbc30-ff23-4da1-9bd1-5925b8a8cfc8" d="M223.722,155.069c-6.594,10.383-19.056,29.751-21.495,53.715-.247,2.126-.247,4.326-.489,6.596v6.646"/>
  <line class="uuid-440cdee0-474b-4977-8eb4-3477b8dbc600" x1="323.878" y1="271.882" x2="323.878" y2="302.2"/>
  <line class="uuid-440cdee0-474b-4977-8eb4-3477b8dbc600" x1="156.059" y1="280.605" x2="156.059" y2="280.531"/>
  <path class="uuid-77ccbc30-ff23-4da1-9bd1-5925b8a8cfc8" d="M201.742,232.652c-.058.758-.128,1.508-.21,2.24-3.237,28.56-25.494,37.825-45.473,45.687"/>
  <line class="uuid-e725135a-25b3-4618-9874-5f475e62127e" x1="161.187" y1="276.525" x2="153.688" y2="272.062"/>
  <line class="uuid-e725135a-25b3-4618-9874-5f475e62127e" x1="174.379" y1="271.053" x2="153.126" y2="258.816"/>
  <line class="uuid-e725135a-25b3-4618-9874-5f475e62127e" x1="185.373" y1="264.335" x2="153.126" y2="245.748"/>
  <line class="uuid-e725135a-25b3-4618-9874-5f475e62127e" x1="193.433" y1="256.006" x2="154.101" y2="233.336"/>
  <line class="uuid-e725135a-25b3-4618-9874-5f475e62127e" x1="198.563" y1="246.016" x2="153.616" y2="220.047"/>
  <line class="uuid-e725135a-25b3-4618-9874-5f475e62127e" x1="201.249" y1="234.459" x2="151.173" y2="205.514"/>
  <line class="uuid-e725135a-25b3-4618-9874-5f475e62127e" x1="201.491" y1="221.585" x2="147.265" y2="190.27"/>
  <line class="uuid-e725135a-25b3-4618-9874-5f475e62127e" x1="202.227" y1="208.905" x2="143.6" y2="175.125"/>
  <line class="uuid-e725135a-25b3-4618-9874-5f475e62127e" x1="204.666" y1="197.205" x2="141.647" y2="160.857"/>
  <line class="uuid-e725135a-25b3-4618-9874-5f475e62127e" x1="283.085" y1="229.477" x2="277.71" y2="226.349"/>
  <line class="uuid-e725135a-25b3-4618-9874-5f475e62127e" x1="208.089" y1="186.189" x2="141.647" y2="147.74"/>
  <line class="uuid-e725135a-25b3-4618-9874-5f475e62127e" x1="286.993" y1="218.752" x2="281.617" y2="215.624"/>
  <line class="uuid-e725135a-25b3-4618-9874-5f475e62127e" x1="212.732" y1="175.758" x2="143.6" y2="135.893"/>
  <line class="uuid-e725135a-25b3-4618-9874-5f475e62127e" x1="290.411" y1="207.684" x2="285.038" y2="204.535"/>
  <line class="uuid-e725135a-25b3-4618-9874-5f475e62127e" x1="217.862" y1="165.817" x2="147.265" y2="124.971"/>
  <line class="uuid-e725135a-25b3-4618-9874-5f475e62127e" x1="293.096" y1="196.23" x2="287.482" y2="192.933"/>
  <line class="uuid-e725135a-25b3-4618-9874-5f475e62127e" x1="223.722" y1="156.166" x2="152.148" y2="114.713"/>
  <line class="uuid-e725135a-25b3-4618-9874-5f475e62127e" x1="295.054" y1="184.335" x2="289.436" y2="180.987"/>
  <line class="uuid-e725135a-25b3-4618-9874-5f475e62127e" x1="251.815" y1="159.219" x2="157.276" y2="104.673"/>
  <line class="uuid-e725135a-25b3-4618-9874-5f475e62127e" x1="296.275" y1="171.998" x2="290.411" y2="168.649"/>
  <line class="uuid-e725135a-25b3-4618-9874-5f475e62127e" x1="265.741" y1="154.333" x2="164.117" y2="95.611"/>
  <line class="uuid-e725135a-25b3-4618-9874-5f475e62127e" x1="296.519" y1="159.098" x2="290.411" y2="155.581"/>
  <line class="uuid-e725135a-25b3-4618-9874-5f475e62127e" x1="280.395" y1="149.671" x2="172.668" y2="87.549"/>
  <line class="uuid-e725135a-25b3-4618-9874-5f475e62127e" x1="299.205" y1="147.571" x2="185.615" y2="81.957"/>
  <line class="uuid-e725135a-25b3-4618-9874-5f475e62127e" x1="296.03" y1="132.742" x2="200.516" y2="77.633"/>
  <line class="uuid-e725135a-25b3-4618-9874-5f475e62127e" x1="289.921" y1="116.251" x2="211.021" y2="70.598"/>
  <line class="uuid-e725135a-25b3-4618-9874-5f475e62127e" x1="269.405" y1="91.261" x2="234.227" y2="70.963"/>
  <line class="uuid-e725135a-25b3-4618-9874-5f475e62127e" x1="196.848" y1="298.645" x2="182.543" y2="273.831"/>
  <line class="uuid-e725135a-25b3-4618-9874-5f475e62127e" x1="225.047" y1="302.02" x2="217.232" y2="288.266"/>
  <line class="uuid-e725135a-25b3-4618-9874-5f475e62127e" x1="249.474" y1="299.042" x2="240.514" y2="283.674"/>
  <line class="uuid-400a8de9-e729-4616-b432-1cb299013730" x1="268.412" y1="286.724" x2="260.755" y2="273.408"/>
  <line class="uuid-e725135a-25b3-4618-9874-5f475e62127e" x1="284.733" y1="269.844" x2="274.563" y2="252.348"/>
  <line class="uuid-400a8de9-e729-4616-b432-1cb299013730" x1="289.406" y1="244.198" x2="284.395" y2="235.183"/>
  <line class="uuid-e725135a-25b3-4618-9874-5f475e62127e" x1="199.295" y1="380.956" x2="127.231" y2="339.306"/>
  <line class="uuid-e725135a-25b3-4618-9874-5f475e62127e" x1="230.26" y1="372.744" x2="130.222" y2="315.03"/>
  <line class="uuid-e725135a-25b3-4618-9874-5f475e62127e" x1="255.957" y1="361.547" x2="142.143" y2="295.857"/>
  <line class="uuid-e725135a-25b3-4618-9874-5f475e62127e" x1="279.91" y1="349.127" x2="193.433" y2="299.22"/>
  <line class="uuid-400a8de9-e729-4616-b432-1cb299013730" x1="166.251" y1="283.505" x2="159.053" y2="279.487"/>
  <line class="uuid-e725135a-25b3-4618-9874-5f475e62127e" x1="298.962" y1="334.104" x2="241.557" y2="300.953"/>
  <line class="uuid-e725135a-25b3-4618-9874-5f475e62127e" x1="315.574" y1="317.711" x2="265.741" y2="288.91"/>
  <line class="uuid-e725135a-25b3-4618-9874-5f475e62127e" x1="323.146" y1="296.018" x2="282.838" y2="272.714"/>
  <line class="uuid-e725135a-25b3-4618-9874-5f475e62127e" x1="322.657" y1="269.659" x2="291.632" y2="251.708"/>
</svg>