<?xml version="1.0" encoding="UTF-8"?>
<svg id="uuid-499d31e3-a7d4-4ed8-80bf-e869cc34fbff" data-name="&amp;lt;Layer&amp;gt;" xmlns="http://www.w3.org/2000/svg" viewBox="0 0 451.11 451.11">
  <defs>
    <style>
      .uuid-9a005b69-6d28-4c24-b100-d452ed82c251, .uuid-73bc89be-c2e1-47de-8001-e162463f20c9, .uuid-d714e2e7-49f0-41b5-a091-eff90534a293 {
        fill: none;
        stroke: #000;
        stroke-linecap: round;
      }

      .uuid-9a005b69-6d28-4c24-b100-d452ed82c251, .uuid-d714e2e7-49f0-41b5-a091-eff90534a293 {
        stroke-linejoin: round;
        stroke-width: 4.117px;
      }

      .uuid-73bc89be-c2e1-47de-8001-e162463f20c9 {
        stroke-miterlimit: 10;
        stroke-width: 1.163px;
      }

      .uuid-d714e2e7-49f0-41b5-a091-eff90534a293 {
        fill-rule: evenodd;
      }
    </style>
  </defs>
  <polyline class="uuid-d714e2e7-49f0-41b5-a091-eff90534a293" points="242.507 107.777 206.5 86.992 249.078 62.413 285.089 83.206"/>
  <polyline class="uuid-d714e2e7-49f0-41b5-a091-eff90534a293" points="200.002 187.855 199.956 187.855 163.949 167.04 206.5 142.492 242.507 163.28"/>
  <polyline class="uuid-d714e2e7-49f0-41b5-a091-eff90534a293" points="200.002 220.197 200.002 187.855 204.304 185.338 240.31 164.623 242.585 163.28"/>
  <polyline class="uuid-d714e2e7-49f0-41b5-a091-eff90534a293" points="200.882 291.16 200.002 291.671 200.002 290.622"/>
  <path class="uuid-d714e2e7-49f0-41b5-a091-eff90534a293" d="M277.318,247.019q-.074.048-.122,0s-.073.048-.121,0"/>
  <polyline class="uuid-d714e2e7-49f0-41b5-a091-eff90534a293" points="285.089 177.446 285.089 83.18 242.507 107.803 242.507 187.487"/>
  <polyline class="uuid-d714e2e7-49f0-41b5-a091-eff90534a293" points="199.956 220.123 163.949 199.334 121.393 223.909"/>
  <polyline class="uuid-d714e2e7-49f0-41b5-a091-eff90534a293" points="157.451 244.749 121.441 223.957 121.441 294.583"/>
  <polyline class="uuid-d714e2e7-49f0-41b5-a091-eff90534a293" points="200.002 264.021 200.002 220.197 157.451 244.749 157.451 264.853"/>
  <path class="uuid-d714e2e7-49f0-41b5-a091-eff90534a293" d="M341.419,279.949c0,18.809,2.613,30.484-19.567,42.162-5.812,2.956-12.019,5.108-18.639,6.546"/>
  <path class="uuid-d714e2e7-49f0-41b5-a091-eff90534a293" d="M341.419,227.868c-.415,7.645-2.152,13.996-8.724,19.957-2.712,2.491-6.277,4.886-10.916,7.329-.563.295-1.149.585-1.785.88-5.471,2.66-11.506,4.614-17.783,5.912-6.84,1.439-14,2.075-21.082,1.975-6.74-.121-13.46-.831-19.74-2.222-6.447-1.316-12.48-3.297-17.757-5.912-4.765-2.27-8.894-5.056-12.216-8.183-4.35-4.177-7.205-9.063-8.062-14.582"/>
  <path class="uuid-d714e2e7-49f0-41b5-a091-eff90534a293" d="M234.276,385.989c-16.317-9.405-27.702-12.823-26.723-38.034,1.855-41.014,44.311-87.746,71.502-72.944"/>
  <path class="uuid-d714e2e7-49f0-41b5-a091-eff90534a293" d="M293.514,283.441c-24.866-13.022-54.13,21.23-64.341,44.241-7.256,16.83-13.537,46.459,5.103,58.307"/>
  <path class="uuid-d714e2e7-49f0-41b5-a091-eff90534a293" d="M222.087,358.801c0-26.653,18.761-59.068,41.798-72.402,23.228-13.363,41.819-2.495,41.819,24.206s-18.591,59.066-41.819,72.406c-23.037,13.312-41.798,2.44-41.798-24.21Z"/>
  <path class="uuid-d714e2e7-49f0-41b5-a091-eff90534a293" d="M250.715,363.909c6.718-4.474,14.339-8.698,21.889-12.999,2.321-1.343,4.591-4.298,4.591-6.909v-13.194c0-1.612-2.27-2.956-4.591-1.781-6.74,3.933-12.827,7.425-18.125,10.846-2.248,1.343-3.764.365-3.764-2.321v-12.949c0-1.857,1.516-5.106,3.764-6.619,6.105-3.764,12.849-7.719,20.446-12.021"/>
  <path class="uuid-d714e2e7-49f0-41b5-a091-eff90534a293" d="M324.002,237.151c-23.059,13.337-60.632,13.337-83.691,0-23.158-13.316-23.158-35.032,0-48.37,23.059-13.359,60.632-13.359,83.691,0,23.158,13.338,23.158,35.054,0,48.37Z"/>
  <path class="uuid-d714e2e7-49f0-41b5-a091-eff90534a293" d="M287.41,231.386c7.426-4.276,14.971-8.525,24.034-13.459,2.517-1.343,2.517-3.323,0-4.765-3.297-1.859-7.377-4.302-11.505-6.62-1.659-.979-5.788-1.468-8.231,0-6.571,3.786-14.169,7.719-19.909,11.042-2.517,1.512-5.766,1.512-8.257,0-3.249-1.979-6.572-3.786-10.677-6.281-2.513-1.269-2.513-3.418.173-4.761,7.256-3.59,14.802-7.719,22.353-12.021"/>
  <path class="uuid-d714e2e7-49f0-41b5-a091-eff90534a293" d="M341.419,227.794c0,18.93,2.613,30.608-19.567,42.114-10.04,5.276-21.914,8.062-33.931,8.768"/>
  <path class="uuid-d714e2e7-49f0-41b5-a091-eff90534a293" d="M341.419,246.724c0,18.934,2.613,30.609-19.567,42.115-5.644,2.958-11.751,5.106-17.955,6.45"/>
  <path class="uuid-d714e2e7-49f0-41b5-a091-eff90534a293" d="M226.189,274.721c-.17-.537-1.487-2.858-1.66-3.127-1.001-2.687-1.464-5.302-1.464-8.084"/>
  <path class="uuid-d714e2e7-49f0-41b5-a091-eff90534a293" d="M341.419,261.994c0,18.93,2.613,30.678-19.567,42.162-4.838,2.617-9.871,4.47-15.17,5.936"/>
  <path class="uuid-d714e2e7-49f0-41b5-a091-eff90534a293" d="M212.219,325.066c-22.89,8.429-53.498,6.913-73.408-4.592-23.23-13.533-23.23-35.08,0-48.439,22.989-13.29,60.559-13.29,83.618,0,7.034,4.128,11.847,8.889,14.632,14.022"/>
  <path class="uuid-d714e2e7-49f0-41b5-a091-eff90534a293" d="M185.665,314.66c7.619-4.228,15.001-8.525,24.206-13.459,2.517-1.346,2.517-3.323,0-4.765-3.297-1.979-7.374-4.298-11.479-6.74-1.685-.979-5.74-1.516-8.257,0-6.572,3.955-14.169,7.741-19.909,11.163-2.491,1.318-5.766,1.318-8.257,0-3.249-1.979-6.546-3.959-10.677-6.229-2.44-1.515-2.44-3.664,0-4.812,7.429-3.592,14.975-7.719,22.426-12.143"/>
  <path class="uuid-d714e2e7-49f0-41b5-a091-eff90534a293" d="M207.454,347.123c-23.402,11.678-58.48,11.042-80.564-1.611-21.178-12.386-22.989-31.658-5.056-44.947"/>
  <path class="uuid-d714e2e7-49f0-41b5-a091-eff90534a293" d="M341.419,294.924v-67.056M341.419,227.794v-14.806"/>
  <line class="uuid-9a005b69-6d28-4c24-b100-d452ed82c251" x1="206.5" y1="142.492" x2="206.5" y2="87.014"/>
  <line class="uuid-9a005b69-6d28-4c24-b100-d452ed82c251" x1="234.693" y1="265.144" x2="231.491" y2="263.289"/>
  <line class="uuid-9a005b69-6d28-4c24-b100-d452ed82c251" x1="223.139" y1="258.45" x2="223.065" y2="258.45"/>
  <line class="uuid-9a005b69-6d28-4c24-b100-d452ed82c251" x1="163.997" y1="167.04" x2="163.997" y2="199.408"/>
  <path class="uuid-d714e2e7-49f0-41b5-a091-eff90534a293" d="M194.848,288.839h.221"/>
  <line class="uuid-9a005b69-6d28-4c24-b100-d452ed82c251" x1="195.069" y1="288.839" x2="200.002" y2="291.671"/>
  <line class="uuid-9a005b69-6d28-4c24-b100-d452ed82c251" x1="240.31" y1="268.393" x2="239.921" y2="268.614"/>
  <line class="uuid-9a005b69-6d28-4c24-b100-d452ed82c251" x1="282.889" y1="213.282" x2="282.889" y2="211.55"/>
  <line class="uuid-9a005b69-6d28-4c24-b100-d452ed82c251" x1="223.065" y1="215.019" x2="223.065" y2="263.51"/>
  <path class="uuid-d714e2e7-49f0-41b5-a091-eff90534a293" d="M223.065,263.51v.169"/>
  <line class="uuid-9a005b69-6d28-4c24-b100-d452ed82c251" x1="223.065" y1="263.51" x2="223.065" y2="272.105"/>
  <path class="uuid-d714e2e7-49f0-41b5-a091-eff90534a293" d="M341.419,212.988c0,5.523.243,10.384,0,14.806"/>
  <line class="uuid-9a005b69-6d28-4c24-b100-d452ed82c251" x1="341.419" y1="227.794" x2="341.419" y2="227.868"/>
  <line class="uuid-9a005b69-6d28-4c24-b100-d452ed82c251" x1="223.356" y1="233.022" x2="223.356" y2="232.97"/>
  <path class="uuid-d714e2e7-49f0-41b5-a091-eff90534a293" d="M223.356,232.97c-.169-1.048-.291-2.096-.291-3.197"/>
  <line class="uuid-9a005b69-6d28-4c24-b100-d452ed82c251" x1="223.065" y1="229.774" x2="223.065" y2="215.019"/>
  <line class="uuid-9a005b69-6d28-4c24-b100-d452ed82c251" x1="332.696" y1="314.66" x2="332.696" y2="231.216"/>
  <line class="uuid-9a005b69-6d28-4c24-b100-d452ed82c251" x1="302.212" y1="292.139" x2="302.212" y2="245.749"/>
  <line class="uuid-9a005b69-6d28-4c24-b100-d452ed82c251" x1="281.325" y1="276.163" x2="281.008" y2="247.191"/>
  <line class="uuid-9a005b69-6d28-4c24-b100-d452ed82c251" x1="261.39" y1="272.226" x2="261.39" y2="245.382"/>
  <line class="uuid-9a005b69-6d28-4c24-b100-d452ed82c251" x1="243.633" y1="281.461" x2="243.633" y2="240.106"/>
  <line class="uuid-9a005b69-6d28-4c24-b100-d452ed82c251" x1="231.418" y1="278.85" x2="231.418" y2="231.216"/>
  <line class="uuid-9a005b69-6d28-4c24-b100-d452ed82c251" x1="206.574" y1="364.442" x2="206.574" y2="349.276"/>
  <line class="uuid-9a005b69-6d28-4c24-b100-d452ed82c251" x1="188.792" y1="370.186" x2="188.792" y2="354.038"/>
  <line class="uuid-9a005b69-6d28-4c24-b100-d452ed82c251" x1="167.908" y1="372.165" x2="167.609" y2="355.506"/>
  <line class="uuid-9a005b69-6d28-4c24-b100-d452ed82c251" x1="147.973" y1="370.013" x2="147.973" y2="353.526"/>
  <line class="uuid-9a005b69-6d28-4c24-b100-d452ed82c251" x1="130.213" y1="364.078" x2="130.213" y2="348.298"/>
  <line class="uuid-9a005b69-6d28-4c24-b100-d452ed82c251" x1="118.023" y1="355.211" x2="118.023" y2="339.577"/>
  <line class="uuid-9a005b69-6d28-4c24-b100-d452ed82c251" x1="200.54" y1="345.148" x2="200.54" y2="329.025"/>
  <line class="uuid-9a005b69-6d28-4c24-b100-d452ed82c251" x1="179.63" y1="347.123" x2="179.461" y2="330.341"/>
  <line class="uuid-9a005b69-6d28-4c24-b100-d452ed82c251" x1="159.82" y1="344.975" x2="159.82" y2="328.56"/>
  <line class="uuid-9a005b69-6d28-4c24-b100-d452ed82c251" x1="142.06" y1="339.063" x2="142.06" y2="323.259"/>
  <line class="uuid-9a005b69-6d28-4c24-b100-d452ed82c251" x1="130.044" y1="330.173" x2="130.044" y2="314.391"/>
  <line class="uuid-9a005b69-6d28-4c24-b100-d452ed82c251" x1="279.054" y1="275.011" x2="293.514" y2="283.441"/>
  <line class="uuid-9a005b69-6d28-4c24-b100-d452ed82c251" x1="208.433" y1="361.123" x2="222.259" y2="369.037"/>
  <line class="uuid-9a005b69-6d28-4c24-b100-d452ed82c251" x1="207.723" y1="345.806" x2="220.743" y2="353.404"/>
  <line class="uuid-9a005b69-6d28-4c24-b100-d452ed82c251" x1="211.508" y1="327.557" x2="225.508" y2="335.644"/>
  <line class="uuid-9a005b69-6d28-4c24-b100-d452ed82c251" x1="220.28" y1="308.457" x2="234.913" y2="316.64"/>
  <line class="uuid-9a005b69-6d28-4c24-b100-d452ed82c251" x1="232.128" y1="292.309" x2="246.293" y2="300.565"/>
  <line class="uuid-9a005b69-6d28-4c24-b100-d452ed82c251" x1="246.124" y1="279.949" x2="259.778" y2="287.716"/>
  <line class="uuid-9a005b69-6d28-4c24-b100-d452ed82c251" x1="259.95" y1="273.915" x2="273.409" y2="281.634"/>
  <path class="uuid-d714e2e7-49f0-41b5-a091-eff90534a293" d="M263.542,302.838v63.684"/>
  <line class="uuid-9a005b69-6d28-4c24-b100-d452ed82c251" x1="319.995" y1="323.089" x2="319.995" y2="239.3"/>
  <path class="uuid-d714e2e7-49f0-41b5-a091-eff90534a293" d="M253.843,196.501c18.934,10.553,36.885,21.595,55.819,32.589"/>
  <path class="uuid-d714e2e7-49f0-41b5-a091-eff90534a293" d="M255.359,275.011c-18.298-5.228-32.126-15.976-32.294-30.435"/>
  <line class="uuid-9a005b69-6d28-4c24-b100-d452ed82c251" x1="223.065" y1="244.576" x2="223.065" y2="227.794"/>
  <line class="uuid-9a005b69-6d28-4c24-b100-d452ed82c251" x1="223.065" y1="263.51" x2="223.065" y2="246.724"/>
  <path class="uuid-d714e2e7-49f0-41b5-a091-eff90534a293" d="M207.918,343.363c-36.349,11.042-85.961-2.785-86.597-30.314"/>
  <line class="uuid-9a005b69-6d28-4c24-b100-d452ed82c251" x1="121.32" y1="313.049" x2="121.32" y2="296.267"/>
  <path class="uuid-d714e2e7-49f0-41b5-a091-eff90534a293" d="M152.271,279.654c18.934,10.505,36.885,21.547,55.819,32.589"/>
  <path class="uuid-d714e2e7-49f0-41b5-a091-eff90534a293" d="M208.433,363.442c-36.423,18.934-98.325,5.401-98.788-25.355"/>
  <line class="uuid-9a005b69-6d28-4c24-b100-d452ed82c251" x1="109.645" y1="338.086" x2="109.645" y2="321.306"/>
  <line class="uuid-73bc89be-c2e1-47de-8001-e162463f20c9" x1="271.604" y1="76.973" x2="261.172" y2="95.076"/>
  <line class="uuid-73bc89be-c2e1-47de-8001-e162463f20c9" x1="252.401" y1="65.104" x2="231.833" y2="100.742"/>
  <line class="uuid-73bc89be-c2e1-47de-8001-e162463f20c9" x1="215.272" y1="84.281" x2="212.855" y2="88.404"/>
  <line class="uuid-73bc89be-c2e1-47de-8001-e162463f20c9" x1="255.285" y1="181.11" x2="244.317" y2="162.058"/>
  <line class="uuid-73bc89be-c2e1-47de-8001-e162463f20c9" x1="280.103" y1="178.914" x2="243.507" y2="115.448"/>
  <line class="uuid-73bc89be-c2e1-47de-8001-e162463f20c9" x1="283.936" y1="140.317" x2="259.778" y2="98.424"/>
  <line class="uuid-73bc89be-c2e1-47de-8001-e162463f20c9" x1="283.23" y1="93.975" x2="279.981" y2="88.334"/>
  <line class="uuid-73bc89be-c2e1-47de-8001-e162463f20c9" x1="229.22" y1="157.124" x2="218.938" y2="174.907"/>
  <line class="uuid-73bc89be-c2e1-47de-8001-e162463f20c9" x1="219.764" y1="150.891" x2="199.198" y2="186.511"/>
  <line class="uuid-73bc89be-c2e1-47de-8001-e162463f20c9" x1="209.996" y1="145.252" x2="189.451" y2="180.867"/>
  <line class="uuid-73bc89be-c2e1-47de-8001-e162463f20c9" x1="192.92" y1="152.239" x2="179.925" y2="174.785"/>
  <line class="uuid-73bc89be-c2e1-47de-8001-e162463f20c9" x1="173.058" y1="164.16" x2="170.52" y2="168.556"/>
  <line class="uuid-73bc89be-c2e1-47de-8001-e162463f20c9" x1="241.363" y1="133.572" x2="217.542" y2="147.304"/>
  <line class="uuid-73bc89be-c2e1-47de-8001-e162463f20c9" x1="240.774" y1="107.85" x2="207.553" y2="127.002"/>
  <line class="uuid-73bc89be-c2e1-47de-8001-e162463f20c9" x1="217.373" y1="95.249" x2="208.385" y2="100.473"/>
  <line class="uuid-73bc89be-c2e1-47de-8001-e162463f20c9" x1="211.461" y1="265.365" x2="201.761" y2="248.583"/>
  <line class="uuid-73bc89be-c2e1-47de-8001-e162463f20c9" x1="221.744" y1="260.552" x2="201.398" y2="225.425"/>
  <line class="uuid-73bc89be-c2e1-47de-8001-e162463f20c9" x1="221.744" y1="237.956" x2="201.398" y2="202.83"/>
  <line class="uuid-73bc89be-c2e1-47de-8001-e162463f20c9" x1="221.549" y1="215.141" x2="204.841" y2="186.144"/>
  <line class="uuid-73bc89be-c2e1-47de-8001-e162463f20c9" x1="225.799" y1="199.801" x2="214.809" y2="180.867"/>
  <line class="uuid-73bc89be-c2e1-47de-8001-e162463f20c9" x1="233.935" y1="191.32" x2="224.625" y2="175.296"/>
  <line class="uuid-73bc89be-c2e1-47de-8001-e162463f20c9" x1="240.774" y1="180.573" x2="234.571" y2="169.851"/>
  <line class="uuid-73bc89be-c2e1-47de-8001-e162463f20c9" x1="198.392" y1="203.632" x2="186.591" y2="210.424"/>
  <line class="uuid-73bc89be-c2e1-47de-8001-e162463f20c9" x1="198.781" y1="190.345" x2="174.869" y2="204.173"/>
  <line class="uuid-73bc89be-c2e1-47de-8001-e162463f20c9" x1="189.034" y1="182.969" x2="165.339" y2="196.623"/>
  <line class="uuid-73bc89be-c2e1-47de-8001-e162463f20c9" x1="177.356" y1="176.644" x2="165.756" y2="183.358"/>
</svg>