<?xml version="1.0" encoding="UTF-8"?>
<svg id="uuid-a80e3b1b-20e7-4d65-9323-c45f794dfea4" data-name="&amp;lt;Layer&amp;gt;" xmlns="http://www.w3.org/2000/svg" viewBox="0 0 451.11 451.11">
  <defs>
    <style>
      .uuid-a15e3c2a-f249-421c-8c75-73e86cb5182f, .uuid-d69ed0bc-d484-462a-8d7f-74256e56ddc8, .uuid-f9a92a2d-a5cb-43b3-aead-16aae7e695dd, .uuid-e8af4b4b-1c12-4b88-aad5-7e09dbae0504, .uuid-92c3f3ec-1b06-4b9b-8216-d503e22bf3ea {
        stroke-linecap: round;
      }

      .uuid-a15e3c2a-f249-421c-8c75-73e86cb5182f, .uuid-d69ed0bc-d484-462a-8d7f-74256e56ddc8, .uuid-f9a92a2d-a5cb-43b3-aead-16aae7e695dd, .uuid-e8af4b4b-1c12-4b88-aad5-7e09dbae0504, .uuid-92c3f3ec-1b06-4b9b-8216-d503e22bf3ea, .uuid-0c8ae15d-3d64-4bc4-9efc-d4c01ea21434 {
        fill: none;
        stroke: #000;
      }

      .uuid-a15e3c2a-f249-421c-8c75-73e86cb5182f, .uuid-d69ed0bc-d484-462a-8d7f-74256e56ddc8, .uuid-92c3f3ec-1b06-4b9b-8216-d503e22bf3ea, .uuid-0c8ae15d-3d64-4bc4-9efc-d4c01ea21434 {
        stroke-linejoin: round;
      }

      .uuid-a15e3c2a-f249-421c-8c75-73e86cb5182f, .uuid-92c3f3ec-1b06-4b9b-8216-d503e22bf3ea, .uuid-0c8ae15d-3d64-4bc4-9efc-d4c01ea21434 {
        stroke-width: 4.117px;
      }

      .uuid-d69ed0bc-d484-462a-8d7f-74256e56ddc8 {
        stroke-width: 4.113px;
      }

      .uuid-f9a92a2d-a5cb-43b3-aead-16aae7e695dd {
        stroke-width: 1.163px;
      }

      .uuid-f9a92a2d-a5cb-43b3-aead-16aae7e695dd, .uuid-e8af4b4b-1c12-4b88-aad5-7e09dbae0504 {
        stroke-miterlimit: 10;
      }

      .uuid-e8af4b4b-1c12-4b88-aad5-7e09dbae0504 {
        stroke-width: 1.159px;
      }

      .uuid-92c3f3ec-1b06-4b9b-8216-d503e22bf3ea, .uuid-0c8ae15d-3d64-4bc4-9efc-d4c01ea21434 {
        fill-rule: evenodd;
      }
    </style>
  </defs>
  <g>
    <path class="uuid-92c3f3ec-1b06-4b9b-8216-d503e22bf3ea" d="M291.467,95.541c2.098-1.129,3.9-1.671,6.203-.809,1.859.883,3.032,3.031,3.032,6.159"/>
    <path class="uuid-92c3f3ec-1b06-4b9b-8216-d503e22bf3ea" d="M162.144,375.191l-10.236-5.812c-2.208-1.446-2.594-3.499-2.712-5.983v-187.512c.151-3.481.967-6.094,2.712-9.111v-.074l10.799,6.277c-1.66,3.466-2.481,5.236-2.738,9.137v187.486c.004,2.296.772,3.708,2.174,5.592Z"/>
    <path class="uuid-92c3f3ec-1b06-4b9b-8216-d503e22bf3ea" d="M203.357,146.448c-11.405,6.469-22.732,13.118-34.079,19.689"/>
    <path class="uuid-92c3f3ec-1b06-4b9b-8216-d503e22bf3ea" d="M169.278,166.138c-2.626,1.416-4.992,4.319-6.522,6.839"/>
    <path class="uuid-92c3f3ec-1b06-4b9b-8216-d503e22bf3ea" d="M297.67,94.732l-10.501-6.03c-2.251-1.167-4.396-.585-6.498.632l-90.655,52.35-11.796,6.792-19.74,11.431c-3.014,1.767-4.625,3.956-6.572,6.792"/>
    <path class="uuid-92c3f3ec-1b06-4b9b-8216-d503e22bf3ea" d="M162.241,375.317c1.689,1.27,4.253,1.27,7.038-.321"/>
    <line class="uuid-a15e3c2a-f249-421c-8c75-73e86cb5182f" x1="169.278" y1="374.996" x2="291.467" y2="304.449"/>
    <path class="uuid-92c3f3ec-1b06-4b9b-8216-d503e22bf3ea" d="M291.467,304.449c5.108-2.956,9.235-10.163,9.235-16.024"/>
    <line class="uuid-a15e3c2a-f249-421c-8c75-73e86cb5182f" x1="300.702" y1="288.425" x2="300.702" y2="100.891"/>
    <line class="uuid-d69ed0bc-d484-462a-8d7f-74256e56ddc8" x1="260.969" y1="113.205" x2="291.467" y2="95.541"/>
    <path class="uuid-92c3f3ec-1b06-4b9b-8216-d503e22bf3ea" d="M262.716,129.811c8.477-4.882,16.951-9.817,25.429-14.702"/>
    <polyline class="uuid-92c3f3ec-1b06-4b9b-8216-d503e22bf3ea" points="288.145 115.108 288.145 293.701 176.947 357.946 176.947 179.354"/>
    <path class="uuid-92c3f3ec-1b06-4b9b-8216-d503e22bf3ea" d="M176.947,179.354c8.818-5.108,17.59-10.163,26.41-15.27"/>
    <line class="uuid-a15e3c2a-f249-421c-8c75-73e86cb5182f" x1="250.28" y1="137.044" x2="215.863" y2="156.88"/>
    <polyline class="uuid-92c3f3ec-1b06-4b9b-8216-d503e22bf3ea" points="209.755 174.368 262.716 143.833 262.716 113.618"/>
    <path class="uuid-92c3f3ec-1b06-4b9b-8216-d503e22bf3ea" d="M215.789,164.963v-18.294c13.655-7.892,27.235-15.733,40.892-23.621v18.272c-13.658,7.914-27.237,15.755-40.892,23.643Z"/>
    <polyline class="uuid-92c3f3ec-1b06-4b9b-8216-d503e22bf3ea" points="209.755 144.176 262.716 113.618 255.46 109.439 251.09 106.922 198.203 137.508"/>
    <polygon class="uuid-92c3f3ec-1b06-4b9b-8216-d503e22bf3ea" points="198.203 143.42 203.357 146.448 203.357 170.655 209.755 174.368 209.755 144.176 198.203 137.508 198.203 143.42"/>
    <polyline class="uuid-92c3f3ec-1b06-4b9b-8216-d503e22bf3ea" points="256.682 141.32 256.682 123.048 250.232 126.782 250.232 137.044"/>
    <polygon class="uuid-92c3f3ec-1b06-4b9b-8216-d503e22bf3ea" points="215.789 156.88 250.232 137.044 256.682 141.32 215.789 164.963 215.789 156.88"/>
    <path class="uuid-0c8ae15d-3d64-4bc4-9efc-d4c01ea21434" d="M259.052,162.863c-4.691,2.737-8.525,9.308-8.525,14.757s3.834,7.669,8.525,4.931c4.713-2.708,8.525-9.353,8.525-14.754,0-5.445-3.812-7.645-8.525-4.934Z"/>
    <path class="uuid-92c3f3ec-1b06-4b9b-8216-d503e22bf3ea" d="M205.042,303.643c-4.691,2.737-8.525,9.283-8.525,14.754s3.834,7.645,8.525,4.934c4.713-2.734,8.548-9.356,8.548-14.754,0-5.471-3.835-7.667-8.548-4.934Z"/>
    <path class="uuid-92c3f3ec-1b06-4b9b-8216-d503e22bf3ea" d="M207.017,297.366c-.463-55.915,50.887-59.459,52.62-108.022"/>
    <line class="uuid-a15e3c2a-f249-421c-8c75-73e86cb5182f" x1="259.637" y1="189.343" x2="265.377" y2="199.995"/>
    <line class="uuid-a15e3c2a-f249-421c-8c75-73e86cb5182f" x1="259.637" y1="189.343" x2="251.969" y2="201.559"/>
    <line class="uuid-a15e3c2a-f249-421c-8c75-73e86cb5182f" x1="220.723" y1="194.181" x2="206.334" y2="219.145"/>
    <line class="uuid-a15e3c2a-f249-421c-8c75-73e86cb5182f" x1="221.088" y1="211.011" x2="206.602" y2="202.654"/>
    <line class="uuid-a15e3c2a-f249-421c-8c75-73e86cb5182f" x1="245.689" y1="274.597" x2="231.519" y2="299.172"/>
    <line class="uuid-a15e3c2a-f249-421c-8c75-73e86cb5182f" x1="246.056" y1="291.162" x2="231.813" y2="282.954"/>
    <line class="uuid-a15e3c2a-f249-421c-8c75-73e86cb5182f" x1="270.509" y1="231.8" x2="260.737" y2="248.58"/>
    <line class="uuid-a15e3c2a-f249-421c-8c75-73e86cb5182f" x1="270.678" y1="243.135" x2="260.979" y2="237.491"/>
    <line class="uuid-a15e3c2a-f249-421c-8c75-73e86cb5182f" x1="208.313" y1="242.256" x2="198.618" y2="259.085"/>
    <line class="uuid-a15e3c2a-f249-421c-8c75-73e86cb5182f" x1="208.486" y1="253.588" x2="198.787" y2="248.022"/>
  </g>
  <line class="uuid-f9a92a2d-a5cb-43b3-aead-16aae7e695dd" x1="239.021" y1="141.32" x2="233.915" y2="138.436"/>
  <line class="uuid-e8af4b4b-1c12-4b88-aad5-7e09dbae0504" x1="301.913" y1="285.798" x2="289.888" y2="306.781"/>
  <line class="uuid-f9a92a2d-a5cb-43b3-aead-16aae7e695dd" x1="298.943" y1="245.796" x2="289.955" y2="261.433"/>
  <line class="uuid-f9a92a2d-a5cb-43b3-aead-16aae7e695dd" x1="261.079" y1="311.41" x2="253.776" y2="324.137"/>
  <line class="uuid-f9a92a2d-a5cb-43b3-aead-16aae7e695dd" x1="298.943" y1="200.631" x2="289.955" y2="216.239"/>
  <line class="uuid-f9a92a2d-a5cb-43b3-aead-16aae7e695dd" x1="221.946" y1="334.078" x2="214.642" y2="346.735"/>
  <line class="uuid-f9a92a2d-a5cb-43b3-aead-16aae7e695dd" x1="298.943" y1="155.485" x2="289.955" y2="171.071"/>
  <line class="uuid-f9a92a2d-a5cb-43b3-aead-16aae7e695dd" x1="182.811" y1="356.652" x2="175.555" y2="369.331"/>
  <line class="uuid-f9a92a2d-a5cb-43b3-aead-16aae7e695dd" x1="298.943" y1="110.295" x2="289.955" y2="125.93"/>
  <line class="uuid-f9a92a2d-a5cb-43b3-aead-16aae7e695dd" x1="175.361" y1="324.383" x2="161.85" y2="347.832"/>
  <line class="uuid-f9a92a2d-a5cb-43b3-aead-16aae7e695dd" x1="274.612" y1="107.289" x2="264.523" y2="124.855"/>
  <line class="uuid-f9a92a2d-a5cb-43b3-aead-16aae7e695dd" x1="175.361" y1="279.242" x2="161.78" y2="302.763"/>
  <line class="uuid-f9a92a2d-a5cb-43b3-aead-16aae7e695dd" x1="175.361" y1="234.072" x2="161.729" y2="257.647"/>
  <line class="uuid-f9a92a2d-a5cb-43b3-aead-16aae7e695dd" x1="196.517" y1="152.31" x2="184.544" y2="173.025"/>
  <line class="uuid-f9a92a2d-a5cb-43b3-aead-16aae7e695dd" x1="175.361" y1="188.953" x2="161.729" y2="212.6"/>
  <line class="uuid-f9a92a2d-a5cb-43b3-aead-16aae7e695dd" x1="158.237" y1="361.659" x2="151.202" y2="357.656"/>
  <line class="uuid-f9a92a2d-a5cb-43b3-aead-16aae7e695dd" x1="158.237" y1="348.642" x2="151.202" y2="344.583"/>
  <line class="uuid-f9a92a2d-a5cb-43b3-aead-16aae7e695dd" x1="158.237" y1="335.568" x2="151.202" y2="331.565"/>
  <line class="uuid-f9a92a2d-a5cb-43b3-aead-16aae7e695dd" x1="158.237" y1="322.577" x2="151.202" y2="318.518"/>
  <line class="uuid-f9a92a2d-a5cb-43b3-aead-16aae7e695dd" x1="158.237" y1="309.555" x2="151.15" y2="305.45"/>
  <line class="uuid-f9a92a2d-a5cb-43b3-aead-16aae7e695dd" x1="158.237" y1="296.487" x2="151.15" y2="292.432"/>
  <line class="uuid-f9a92a2d-a5cb-43b3-aead-16aae7e695dd" x1="158.237" y1="283.491" x2="151.15" y2="279.362"/>
  <line class="uuid-f9a92a2d-a5cb-43b3-aead-16aae7e695dd" x1="158.237" y1="270.422" x2="151.15" y2="266.367"/>
  <line class="uuid-f9a92a2d-a5cb-43b3-aead-16aae7e695dd" x1="158.237" y1="257.426" x2="151.15" y2="253.297"/>
  <line class="uuid-f9a92a2d-a5cb-43b3-aead-16aae7e695dd" x1="158.237" y1="244.357" x2="151.102" y2="240.229"/>
  <line class="uuid-f9a92a2d-a5cb-43b3-aead-16aae7e695dd" x1="158.237" y1="231.335" x2="151.102" y2="227.207"/>
  <line class="uuid-f9a92a2d-a5cb-43b3-aead-16aae7e695dd" x1="158.237" y1="218.267" x2="151.102" y2="214.164"/>
  <line class="uuid-f9a92a2d-a5cb-43b3-aead-16aae7e695dd" x1="158.237" y1="205.271" x2="151.102" y2="201.142"/>
  <line class="uuid-f9a92a2d-a5cb-43b3-aead-16aae7e695dd" x1="158.237" y1="192.202" x2="151.03" y2="188.074"/>
  <line class="uuid-f9a92a2d-a5cb-43b3-aead-16aae7e695dd" x1="158.531" y1="179.354" x2="151.15" y2="175.078"/>
  <line class="uuid-f9a92a2d-a5cb-43b3-aead-16aae7e695dd" x1="176.361" y1="159.907" x2="169.569" y2="155.974"/>
  <line class="uuid-f9a92a2d-a5cb-43b3-aead-16aae7e695dd" x1="198.961" y1="146.913" x2="192.046" y2="142.906"/>
  <line class="uuid-f9a92a2d-a5cb-43b3-aead-16aae7e695dd" x1="277.64" y1="101.451" x2="270.557" y2="97.348"/>
  <line class="uuid-f9a92a2d-a5cb-43b3-aead-16aae7e695dd" x1="207.824" y1="149.992" x2="205.381" y2="148.598"/>
</svg>