<?xml version="1.0" encoding="UTF-8"?>
<svg id="uuid-e2696f4f-9d64-4561-8de2-b7ad25c79e6e" data-name="&amp;lt;Layer&amp;gt;" xmlns="http://www.w3.org/2000/svg" viewBox="0 0 451.11 451.11">
  <defs>
    <style>
      .uuid-22e9a4bd-2cc6-4daf-97c6-c81622a932ba, .uuid-68d1c902-b768-40cc-b3cf-435784898d87, .uuid-dac6245d-661b-41b4-82a9-35ed2754a212, .uuid-8ee80c46-96d8-4e4f-b5b8-54da31a82b34 {
        fill: none;
        stroke: #000;
        stroke-linecap: round;
      }

      .uuid-22e9a4bd-2cc6-4daf-97c6-c81622a932ba, .uuid-8ee80c46-96d8-4e4f-b5b8-54da31a82b34 {
        stroke-linejoin: round;
        stroke-width: 4.117px;
      }

      .uuid-68d1c902-b768-40cc-b3cf-435784898d87 {
        stroke-width: 1.163px;
      }

      .uuid-68d1c902-b768-40cc-b3cf-435784898d87, .uuid-dac6245d-661b-41b4-82a9-35ed2754a212 {
        stroke-miterlimit: 10;
      }

      .uuid-dac6245d-661b-41b4-82a9-35ed2754a212 {
        stroke-width: 1.159px;
      }

      .uuid-8ee80c46-96d8-4e4f-b5b8-54da31a82b34 {
        fill-rule: evenodd;
      }
    </style>
  </defs>
  <path class="uuid-8ee80c46-96d8-4e4f-b5b8-54da31a82b34" d="M139.642,343.292c-5.519-6.255-9.695-14.342-12.19-22.257-7.278-22.616-4.54-50.101,1.494-72.697,12.091-45.042,42.625-92.995,81.196-119.744,13.754-9.552,30.756-17.809,47.611-19.299,6.62-.588,13.948-.074,20.274,1.733"/>
  <polyline class="uuid-8ee80c46-96d8-4e4f-b5b8-54da31a82b34" points="281.743 112.25 251.55 94.832 247.886 93.61"/>
  <path class="uuid-8ee80c46-96d8-4e4f-b5b8-54da31a82b34" d="M349.675,301.005c1.295.758,1.737,2.396.979,3.738"/>
  <polyline class="uuid-8ee80c46-96d8-4e4f-b5b8-54da31a82b34" points="222.796 227.675 236.281 235.465 250.793 243.868 263.788 251.367 277.542 259.332 292.027 267.685 296.203 270.128 348.115 300.078 349.675 301.005"/>
  <path class="uuid-8ee80c46-96d8-4e4f-b5b8-54da31a82b34" d="M219.084,228.676c.758-1.295,2.443-1.759,3.712-1.001"/>
  <line class="uuid-22e9a4bd-2cc6-4daf-97c6-c81622a932ba" x1="218.205" y1="230.24" x2="219.084" y2="228.676"/>
  <path class="uuid-8ee80c46-96d8-4e4f-b5b8-54da31a82b34" d="M219.184,233.953c-1.269-.758-1.737-2.443-.979-3.712"/>
  <polyline class="uuid-8ee80c46-96d8-4e4f-b5b8-54da31a82b34" points="346.085 307.235 344.573 306.359 292.711 276.383 288.536 273.94 274.024 265.584 260.244 257.696 247.47 250.271 232.837 241.841 219.184 233.953"/>
  <path class="uuid-8ee80c46-96d8-4e4f-b5b8-54da31a82b34" d="M349.801,306.234c-.758,1.294-2.444,1.758-3.716,1.001"/>
  <line class="uuid-22e9a4bd-2cc6-4daf-97c6-c81622a932ba" x1="350.654" y1="304.743" x2="349.801" y2="306.234"/>
  <line class="uuid-22e9a4bd-2cc6-4daf-97c6-c81622a932ba" x1="294.444" y1="291.137" x2="292.711" y2="276.383"/>
  <path class="uuid-8ee80c46-96d8-4e4f-b5b8-54da31a82b34" d="M295.862,292.481c-.585-.291-1.295-.511-1.417-1.344"/>
  <line class="uuid-22e9a4bd-2cc6-4daf-97c6-c81622a932ba" x1="340.103" y1="318.203" x2="295.862" y2="292.481"/>
  <path class="uuid-8ee80c46-96d8-4e4f-b5b8-54da31a82b34" d="M344.694,309.899c.048,2.028.637,7.035-.463,8.014-1.053,1.001-2.738,1.099-4.128.291"/>
  <line class="uuid-22e9a4bd-2cc6-4daf-97c6-c81622a932ba" x1="344.573" y1="306.359" x2="344.694" y2="309.899"/>
  <path class="uuid-8ee80c46-96d8-4e4f-b5b8-54da31a82b34" d="M356.299,290.162c1.39.806,2.148,2.318,1.805,3.712"/>
  <line class="uuid-22e9a4bd-2cc6-4daf-97c6-c81622a932ba" x1="311.936" y1="264.657" x2="356.299" y2="290.162"/>
  <path class="uuid-8ee80c46-96d8-4e4f-b5b8-54da31a82b34" d="M310.079,264.145c.758-.367,1.273.173,1.858.511"/>
  <line class="uuid-22e9a4bd-2cc6-4daf-97c6-c81622a932ba" x1="296.203" y1="270.128" x2="310.079" y2="264.145"/>
  <line class="uuid-22e9a4bd-2cc6-4daf-97c6-c81622a932ba" x1="350.971" y1="298.588" x2="348.115" y2="300.078"/>
  <path class="uuid-8ee80c46-96d8-4e4f-b5b8-54da31a82b34" d="M358.105,293.875c-.293,1.438-5.349,3.712-7.134,4.713"/>
  <path class="uuid-8ee80c46-96d8-4e4f-b5b8-54da31a82b34" d="M236.281,235.465c2.079-4.835,3.301-9.821,3.301-14.46,0-12.432-8.772-17.492-19.519-11.215-10.798,6.207-19.493,21.303-19.493,33.736s8.695,17.466,19.493,11.263c4.887-2.833,9.353-7.547,12.775-12.949"/>
  <path class="uuid-8ee80c46-96d8-4e4f-b5b8-54da31a82b34" d="M250.793,243.868c5.108-10.501,8.136-21.716,8.136-32.046,0-24.796-17.444-34.837-38.866-22.401-21.473,12.36-38.913,42.478-38.913,67.296s17.44,34.836,38.913,22.477c10.627-6.229,20.398-16.808,27.407-28.923"/>
  <path class="uuid-8ee80c46-96d8-4e4f-b5b8-54da31a82b34" d="M263.788,251.367c9.063-17.025,14.538-35.712,14.538-52.74,0-37.102-26.091-52.129-58.263-33.61-32.172,18.589-58.237,63.756-58.237,100.862s26.065,52.229,58.237,33.64c15.635-9.015,29.803-24.283,40.182-41.823"/>
  <path class="uuid-8ee80c46-96d8-4e4f-b5b8-54da31a82b34" d="M277.542,259.332c12.432-23.183,20.105-48.685,20.105-71.843,0-49.539-34.712-69.569-77.584-44.825-42.846,24.72-77.583,84.887-77.583,134.429s34.737,69.522,77.583,44.774c20.958-12.091,39.965-32.684,53.962-56.284"/>
  <path class="uuid-8ee80c46-96d8-4e4f-b5b8-54da31a82b34" d="M288.536,273.94c-17.54,30.314-41.75,56.794-68.473,72.258-30.071,17.419-57.014,17.077-74.797,2.491-2.154-1.733-4.129-3.664-5.986-5.812M281.743,112.224c21.547,8.136,35.248,31.293,35.248,66.082,0,28.823-9.478,60.58-24.965,89.379"/>
  <line class="uuid-22e9a4bd-2cc6-4daf-97c6-c81622a932ba" x1="278.027" y1="111.028" x2="281.743" y2="112.25"/>
  <polyline class="uuid-8ee80c46-96d8-4e4f-b5b8-54da31a82b34" points="112.165 328.686 115.02 331.249 145.213 348.665"/>
  <path class="uuid-8ee80c46-96d8-4e4f-b5b8-54da31a82b34" d="M247.886,93.61c-7.841-2.244-16.66-2.443-24.696-1.196-22.938,3.544-45.51,18.543-62.124,34.126-35.421,33.125-63.66,85.987-67.641,134.551-1.416,16.708-.073,35.543,7.061,50.908,2.785,6.008,6.913,12.091,11.678,16.687"/>
  <line class="uuid-dac6245d-661b-41b4-82a9-35ed2754a212" x1="129.285" y1="330.491" x2="123.376" y2="333.91"/>
  <line class="uuid-dac6245d-661b-41b4-82a9-35ed2754a212" x1="125.403" y1="319.718" x2="112.798" y2="326.996"/>
  <line class="uuid-dac6245d-661b-41b4-82a9-35ed2754a212" x1="123.034" y1="308.066" x2="105.542" y2="318.155"/>
  <line class="uuid-dac6245d-661b-41b4-82a9-35ed2754a212" x1="121.933" y1="295.656" x2="100.266" y2="308.14"/>
  <line class="uuid-dac6245d-661b-41b4-82a9-35ed2754a212" x1="122.104" y1="282.538" x2="96.722" y2="297.172"/>
  <line class="uuid-dac6245d-661b-41b4-82a9-35ed2754a212" x1="123.618" y1="268.638" x2="94.625" y2="285.324"/>
  <line class="uuid-dac6245d-661b-41b4-82a9-35ed2754a212" x1="126.404" y1="253.983" x2="93.937" y2="272.697"/>
  <line class="uuid-dac6245d-661b-41b4-82a9-35ed2754a212" x1="130.754" y1="238.423" x2="94.574" y2="259.306"/>
  <line class="uuid-dac6245d-661b-41b4-82a9-35ed2754a212" x1="136.86" y1="221.858" x2="96.554" y2="245.163"/>
  <line class="uuid-dac6245d-661b-41b4-82a9-35ed2754a212" x1="145.165" y1="204.029" x2="99.923" y2="230.14"/>
  <line class="uuid-dac6245d-661b-41b4-82a9-35ed2754a212" x1="156.476" y1="184.461" x2="104.905" y2="214.239"/>
  <line class="uuid-dac6245d-661b-41b4-82a9-35ed2754a212" x1="268.332" y1="106.826" x2="267.696" y2="107.195"/>
  <line class="uuid-dac6245d-661b-41b4-82a9-35ed2754a212" x1="172.55" y1="162.134" x2="111.823" y2="197.214"/>
  <line class="uuid-68d1c902-b768-40cc-b3cf-435784898d87" x1="257.754" y1="99.913" x2="231.652" y2="114.955"/>
  <line class="uuid-dac6245d-661b-41b4-82a9-35ed2754a212" x1="204.915" y1="130.425" x2="120.812" y2="178.964"/>
  <line class="uuid-dac6245d-661b-41b4-82a9-35ed2754a212" x1="247.838" y1="92.609" x2="133.708" y2="158.492"/>
  <line class="uuid-dac6245d-661b-41b4-82a9-35ed2754a212" x1="223.606" y1="93.562" x2="158.283" y2="131.28"/>
  <line class="uuid-dac6245d-661b-41b4-82a9-35ed2754a212" x1="313.378" y1="203.83" x2="280.349" y2="261.043"/>
  <line class="uuid-dac6245d-661b-41b4-82a9-35ed2754a212" x1="276.978" y1="266.883" x2="240.215" y2="330.513"/>
  <line class="uuid-dac6245d-661b-41b4-82a9-35ed2754a212" x1="313.795" y1="157.929" x2="299.161" y2="183.288"/>
  <line class="uuid-dac6245d-661b-41b4-82a9-35ed2754a212" x1="217.277" y1="325.094" x2="200.786" y2="353.723"/>
  <line class="uuid-dac6245d-661b-41b4-82a9-35ed2754a212" x1="303.29" y1="130.985" x2="291.075" y2="152.068"/>
  <line class="uuid-dac6245d-661b-41b4-82a9-35ed2754a212" x1="186.205" y1="333.74" x2="172.157" y2="358.047"/>
  <line class="uuid-dac6245d-661b-41b4-82a9-35ed2754a212" x1="286.093" y1="115.572" x2="274.583" y2="135.507"/>
  <line class="uuid-dac6245d-661b-41b4-82a9-35ed2754a212" x1="163.61" y1="327.729" x2="150.273" y2="350.839"/>
  <line class="uuid-dac6245d-661b-41b4-82a9-35ed2754a212" x1="262.982" y1="110.469" x2="251.304" y2="130.694"/>
  <line class="uuid-dac6245d-661b-41b4-82a9-35ed2754a212" x1="147.829" y1="309.947" x2="134.293" y2="333.373"/>
  <line class="uuid-dac6245d-661b-41b4-82a9-35ed2754a212" x1="232.789" y1="117.574" x2="219.084" y2="141.419"/>
  <line class="uuid-dac6245d-661b-41b4-82a9-35ed2754a212" x1="140.963" y1="276.63" x2="125.355" y2="303.695"/>
  <line class="uuid-dac6245d-661b-41b4-82a9-35ed2754a212" x1="189.869" y1="146.77" x2="129.069" y2="252.103"/>
  <line class="uuid-dac6245d-661b-41b4-82a9-35ed2754a212" x1="275.636" y1="185.388" x2="260.491" y2="211.622"/>
  <line class="uuid-dac6245d-661b-41b4-82a9-35ed2754a212" x1="220.648" y1="280.707" x2="207.357" y2="303.695"/>
  <line class="uuid-dac6245d-661b-41b4-82a9-35ed2754a212" x1="262.471" y1="163.088" x2="249.108" y2="186.22"/>
  <line class="uuid-dac6245d-661b-41b4-82a9-35ed2754a212" x1="192.946" y1="283.517" x2="181.44" y2="303.449"/>
  <line class="uuid-dac6245d-661b-41b4-82a9-35ed2754a212" x1="238.703" y1="159.103" x2="223.09" y2="186.194"/>
  <line class="uuid-dac6245d-661b-41b4-82a9-35ed2754a212" x1="179.828" y1="261.043" x2="166.05" y2="284.86"/>
  <line class="uuid-dac6245d-661b-41b4-82a9-35ed2754a212" x1="196.658" y1="186.709" x2="168.908" y2="234.781"/>
  <line class="uuid-dac6245d-661b-41b4-82a9-35ed2754a212" x1="237.381" y1="216.144" x2="229.468" y2="229.751"/>
  <line class="uuid-dac6245d-661b-41b4-82a9-35ed2754a212" x1="224.408" y1="238.567" x2="214.738" y2="255.351"/>
  <line class="uuid-dac6245d-661b-41b4-82a9-35ed2754a212" x1="354.32" y1="291.015" x2="345.157" y2="296.318"/>
  <line class="uuid-dac6245d-661b-41b4-82a9-35ed2754a212" x1="343.009" y1="284.493" x2="333.822" y2="289.794"/>
  <line class="uuid-dac6245d-661b-41b4-82a9-35ed2754a212" x1="331.676" y1="277.995" x2="322.563" y2="283.27"/>
  <line class="uuid-dac6245d-661b-41b4-82a9-35ed2754a212" x1="320.365" y1="271.497" x2="311.3" y2="276.752"/>
  <line class="uuid-dac6245d-661b-41b4-82a9-35ed2754a212" x1="342.251" y1="307.013" x2="333.31" y2="312.195"/>
  <line class="uuid-dac6245d-661b-41b4-82a9-35ed2754a212" x1="330.988" y1="300.519" x2="322.051" y2="305.649"/>
  <line class="uuid-dac6245d-661b-41b4-82a9-35ed2754a212" x1="319.655" y1="293.995" x2="310.837" y2="299.099"/>
  <line class="uuid-dac6245d-661b-41b4-82a9-35ed2754a212" x1="308.394" y1="287.473" x2="299.574" y2="292.579"/>
  <line class="uuid-dac6245d-661b-41b4-82a9-35ed2754a212" x1="296.888" y1="281.096" x2="295.445" y2="281.928"/>
</svg>