<?xml version="1.0" encoding="UTF-8"?>
<svg id="uuid-5cf5a467-155d-4a74-a004-960944b03bcb" data-name="&amp;lt;Layer&amp;gt;" xmlns="http://www.w3.org/2000/svg" viewBox="0 0 451.11 451.11">
  <defs>
    <style>
      .uuid-598d97f6-25fe-498e-a26c-a082f8c4c991, .uuid-d95cf8fd-8cd8-429c-9348-0ef5150f1dd2, .uuid-d278526e-44bd-4ba7-afcb-cd9a2ff4d453 {
        stroke-linecap: round;
      }

      .uuid-598d97f6-25fe-498e-a26c-a082f8c4c991, .uuid-d95cf8fd-8cd8-429c-9348-0ef5150f1dd2, .uuid-d278526e-44bd-4ba7-afcb-cd9a2ff4d453, .uuid-4a9f5f60-1eda-4e1c-88c2-592d01c7a448, .uuid-9b49fb44-26ba-446b-ab4b-6001c1b7c210, .uuid-64aea34e-7d3b-4d59-ba91-efee6109624e, .uuid-d913f575-4c90-45b7-9a73-c0fd6bdcf2da, .uuid-d8cbaea3-92ff-4e2f-b94f-897ceee38cd2, .uuid-dc51fe08-efb4-4d80-8d8b-14d7308b79ce {
        fill: none;
        stroke: #000;
      }

      .uuid-598d97f6-25fe-498e-a26c-a082f8c4c991, .uuid-d278526e-44bd-4ba7-afcb-cd9a2ff4d453, .uuid-4a9f5f60-1eda-4e1c-88c2-592d01c7a448, .uuid-64aea34e-7d3b-4d59-ba91-efee6109624e, .uuid-d913f575-4c90-45b7-9a73-c0fd6bdcf2da, .uuid-d8cbaea3-92ff-4e2f-b94f-897ceee38cd2, .uuid-dc51fe08-efb4-4d80-8d8b-14d7308b79ce {
        stroke-width: 4.113px;
      }

      .uuid-598d97f6-25fe-498e-a26c-a082f8c4c991, .uuid-d278526e-44bd-4ba7-afcb-cd9a2ff4d453, .uuid-d913f575-4c90-45b7-9a73-c0fd6bdcf2da, .uuid-d8cbaea3-92ff-4e2f-b94f-897ceee38cd2 {
        stroke-linejoin: round;
      }

      .uuid-d95cf8fd-8cd8-429c-9348-0ef5150f1dd2 {
        stroke-miterlimit: 10;
        stroke-width: 1.163px;
      }

      .uuid-d278526e-44bd-4ba7-afcb-cd9a2ff4d453, .uuid-4a9f5f60-1eda-4e1c-88c2-592d01c7a448, .uuid-9b49fb44-26ba-446b-ab4b-6001c1b7c210, .uuid-64aea34e-7d3b-4d59-ba91-efee6109624e, .uuid-d913f575-4c90-45b7-9a73-c0fd6bdcf2da {
        fill-rule: evenodd;
      }

      .uuid-4a9f5f60-1eda-4e1c-88c2-592d01c7a448, .uuid-9b49fb44-26ba-446b-ab4b-6001c1b7c210, .uuid-dc51fe08-efb4-4d80-8d8b-14d7308b79ce {
        stroke-miterlimit: 22.926;
      }

      .uuid-9b49fb44-26ba-446b-ab4b-6001c1b7c210 {
        stroke-width: 4.117px;
      }

      .uuid-64aea34e-7d3b-4d59-ba91-efee6109624e {
        stroke-linejoin: bevel;
      }
    </style>
  </defs>
  <path class="uuid-d913f575-4c90-45b7-9a73-c0fd6bdcf2da" d="M102.324,232.688c-8.89,5.154-15.266,11.259-19.615,18.982-5.349,9.404-11.678,32.974,1.027,40.355"/>
  <polyline class="uuid-d913f575-4c90-45b7-9a73-c0fd6bdcf2da" points="83.735 292.025 144.732 327.347 144.901 327.225"/>
  <path class="uuid-d913f575-4c90-45b7-9a73-c0fd6bdcf2da" d="M144.901,327.225c-.169-.121-.337-.173-.511-.293-2.343-1.344-4.25-3.249-5.718-5.74-1.806-3.08-2.832-7.087-2.832-11.8,0-10.453,3.297-19.273,8.724-26.649,5.323-7.256,12.653-13.121,20.883-17.882,9.357-5.397,18.639-10.798,27.997-16.148"/>
  <path class="uuid-d913f575-4c90-45b7-9a73-c0fd6bdcf2da" d="M262.844,139.935l1.097-.637,24.111-13.875c.858-.511,9.04-6.571,19.324-.637l56.794,32.761"/>
  <path class="uuid-d913f575-4c90-45b7-9a73-c0fd6bdcf2da" d="M364.17,157.548c-.515-.173-1.027-.367-1.563-.489-.585-.169-1.175-.269-1.807-.343-.684-.099-1.442-.169-2.2-.169-3.54,0-7.33,1.097-11.09,3.249-3.786,2.222-14.217,8.183-18.003,10.405-2.443,1.392-4.934,2.833-7.377,4.228"/>
  <path class="uuid-4a9f5f60-1eda-4e1c-88c2-592d01c7a448" d="M193.444,248.712c-9.357,5.35-18.639,10.751-27.997,16.148-8.231,4.761-15.56,10.627-20.883,17.882-5.427,7.376-8.724,16.196-8.724,26.649,0,4.713,1.027,8.72,2.832,11.8,1.468,2.491,3.375,4.396,5.718,5.74.174.121.343.173.511.293,2.149,1.097,4.592,1.686,7.135,1.686,3.496,0,7.328-1.126,11.089-3.249"/>
  <path class="uuid-9b49fb44-26ba-446b-ab4b-6001c1b7c210" d="M163.125,325.662l173.001-99.84,9.061-5.226c8.231-4.764,15.56-10.629,20.911-17.881,5.401-7.38,8.698-16.196,8.698-26.653,0-4.713-1.053-8.694-2.834-11.8-5.423-9.206-15.84-9.39-24.453-4.466-3.786,2.222-14.217,8.183-18.003,10.405-2.443,1.392-4.934,2.833-7.377,4.228"/>
  <path class="uuid-4a9f5f60-1eda-4e1c-88c2-592d01c7a448" d="M323.936,191.38c7.893-4.518,15.781-9.111,23.696-13.633,1.099-.632,2.491-1.001,3.885-1.001,1.221,0,2.613.295,3.834.88,1.342.636,2.563,1.637,3.421,3.078.632,1.097,1.049,2.44,1.049,4.007,0,3.249-1.097,6.203-2.859,8.72-1.854,2.785-4.567,5.029-7.351,6.62l-9.405,5.449-4.08,2.318-173.122,99.888"/>
  <path class="uuid-64aea34e-7d3b-4d59-ba91-efee6109624e" d="M323.936,179.899c-.243.928-.757,1.734-1.512,2.613-.71.854-1.737,1.685-3.031,2.443"/>
  <path class="uuid-64aea34e-7d3b-4d59-ba91-efee6109624e" d="M224.637,239.697c-3.712,2.174-8.672,3.028-13.242,2.569-.463,0-.927-.052-1.464-.174-.125.048-.169,0-.221,0-.537-.047-1.123-.169-1.638-.368-.558-.096-1.147-.264-1.685-.437"/>
  <path class="uuid-64aea34e-7d3b-4d59-ba91-efee6109624e" d="M133.349,197.951v13.581c.221,1.005.562,1.811,1.221,2.495.636.879,1.563,1.586,2.612,2.222l56.262,32.463,10.332,5.986c2.026,1.101,4.418,1.781,6.861,2.075"/>
  <path class="uuid-9b49fb44-26ba-446b-ab4b-6001c1b7c210" d="M224.637,239.675c-5.938,3.395-15.222,3.64-20.667.485l-67.236-38.788c-5.487-3.127-5.071-8.477.838-11.899l94.71-54.768c5.936-3.418,15.219-3.638,20.69-.511l67.251,38.792c5.446,3.124,5.056,8.473-.853,11.932-31.576,18.264-63.179,36.5-94.733,54.756Z"/>
  <path class="uuid-4a9f5f60-1eda-4e1c-88c2-592d01c7a448" d="M163.004,307.707c-1.101.636-2.491.979-3.885.979-1.223,0-2.613-.269-3.834-.858-1.317-.632-2.539-1.637-3.419-3.076-.636-1.1-1.051-2.443-1.051-4.08,0-3.175,1.122-6.156,2.858-8.647,1.859-2.784,4.566-5.058,7.378-6.623,16.538-9.574,33.025-19.1,49.586-28.628,4.813.537,9.993-.391,14-2.613l94.585-54.694c3.83-2.27,4.713-3.915,4.713-8.086v-11.481"/>
  <path class="uuid-4a9f5f60-1eda-4e1c-88c2-592d01c7a448" d="M146.05,184.588c-1.66,1.516-.754,3.959,1.394,5.18,15.512,8.94,31.657,18.298,47.097,27.19,10.04,5.788,20.151,11.602,30.193,17.414,2.148,1.197,5.57,1.443,8.209.515"/>
  <path class="uuid-4a9f5f60-1eda-4e1c-88c2-592d01c7a448" d="M313.773,188.131c1.685-1.49.758-3.934-1.39-5.156-25.554-14.754-51.104-29.509-76.656-44.189-2.101-1.295-6.403-1.685-9.063-.758"/>
  <path class="uuid-d278526e-44bd-4ba7-afcb-cd9a2ff4d453" d="M218.113,213.294c3.569-2.053,7.157-4.129,10.747-6.233.048-.048.126-.048.195-.096,3.643-2.1,7.304-4.18,10.97-6.328"/>
  <path class="uuid-d278526e-44bd-4ba7-afcb-cd9a2ff4d453" d="M180.544,191.626c4.37,2.488,8.768,5.056,13.117,7.547,1.347.758,3.443.758,4.765,0,1.979-1.147,4.007-2.321,6.056-3.492,1.32-.758,1.32-1.979,0-2.711-3.539-2.1-7.157-4.128-10.747-6.229-1.27-.758-1.27-1.979,0-2.712,2.028-1.173,4.055-2.394,6.082-3.543,1.294-.758,3.444-.758,4.764,0,4.007,2.37,8.088,4.691,12.143,7.013"/>
  <path class="uuid-d278526e-44bd-4ba7-afcb-cd9a2ff4d453" d="M247.502,196.266c-5.156-2.954-10.332-5.986-15.487-8.941,3.712-2.149,18.22-10.504,21.936-12.654,5.176,3.028,10.357,5.986,15.513,8.942-3.666,2.148-7.33,4.25-10.97,6.324-3.664,2.101-7.328,4.253-10.993,6.329Z"/>
  <line class="uuid-d8cbaea3-92ff-4e2f-b94f-897ceee38cd2" x1="134.57" y1="214.026" x2="102.324" y2="232.688"/>
  <line class="uuid-dc51fe08-efb4-4d80-8d8b-14d7308b79ce" x1="232.942" y1="234.888" x2="232.99" y2="234.888"/>
  <line class="uuid-dc51fe08-efb4-4d80-8d8b-14d7308b79ce" x1="226.665" y1="138.029" x2="226.613" y2="138.029"/>
  <path class="uuid-d278526e-44bd-4ba7-afcb-cd9a2ff4d453" d="M224.515,191.673c-3.715,2.15-7.428,4.298-11.093,6.447"/>
  <path class="uuid-d278526e-44bd-4ba7-afcb-cd9a2ff4d453" d="M228.861,207.013c-5.154-2.954-10.331-5.934-15.512-8.941"/>
  <path class="uuid-d278526e-44bd-4ba7-afcb-cd9a2ff4d453" d="M238.096,166.414c-7.304,4.177-14.584,8.427-21.888,12.68"/>
  <line class="uuid-598d97f6-25fe-498e-a26c-a082f8c4c991" x1="238.096" y1="166.414" x2="232.651" y2="163.214"/>
  <line class="uuid-598d97f6-25fe-498e-a26c-a082f8c4c991" x1="294.475" y1="184.834" x2="288.514" y2="181.412"/>
  <line class="uuid-598d97f6-25fe-498e-a26c-a082f8c4c991" x1="282.58" y1="177.92" x2="276.594" y2="174.498"/>
  <line class="uuid-d95cf8fd-8cd8-429c-9348-0ef5150f1dd2" x1="85.031" y1="290.63" x2="78.459" y2="279.199"/>
  <line class="uuid-d95cf8fd-8cd8-429c-9348-0ef5150f1dd2" x1="125.261" y1="315.158" x2="85.616" y2="246.489"/>
  <line class="uuid-d95cf8fd-8cd8-429c-9348-0ef5150f1dd2" x1="138.577" y1="293.025" x2="103.203" y2="231.809"/>
  <line class="uuid-d95cf8fd-8cd8-429c-9348-0ef5150f1dd2" x1="153.21" y1="273.265" x2="122.943" y2="220.767"/>
  <line class="uuid-d95cf8fd-8cd8-429c-9348-0ef5150f1dd2" x1="171.772" y1="260.217" x2="152.378" y2="226.627"/>
  <line class="uuid-d95cf8fd-8cd8-429c-9348-0ef5150f1dd2" x1="306.397" y1="194.407" x2="297.456" y2="209.968"/>
  <line class="uuid-d95cf8fd-8cd8-429c-9348-0ef5150f1dd2" x1="267.31" y1="217.055" x2="258.322" y2="232.614"/>
  <line class="uuid-d95cf8fd-8cd8-429c-9348-0ef5150f1dd2" x1="228.177" y1="239.649" x2="219.704" y2="254.283"/>
  <line class="uuid-d95cf8fd-8cd8-429c-9348-0ef5150f1dd2" x1="201.454" y1="240.75" x2="196.861" y2="248.664"/>
  <line class="uuid-d95cf8fd-8cd8-429c-9348-0ef5150f1dd2" x1="181.886" y1="229.439" x2="177.295" y2="237.379"/>
  <line class="uuid-d95cf8fd-8cd8-429c-9348-0ef5150f1dd2" x1="162.367" y1="218.176" x2="157.776" y2="226.069"/>
  <line class="uuid-d95cf8fd-8cd8-429c-9348-0ef5150f1dd2" x1="142.801" y1="206.891" x2="138.209" y2="214.807"/>
  <line class="uuid-d95cf8fd-8cd8-429c-9348-0ef5150f1dd2" x1="164.568" y1="304.97" x2="156.455" y2="290.877"/>
  <line class="uuid-d95cf8fd-8cd8-429c-9348-0ef5150f1dd2" x1="174.388" y1="299.35" x2="165.742" y2="284.353"/>
  <line class="uuid-d95cf8fd-8cd8-429c-9348-0ef5150f1dd2" x1="184.16" y1="293.711" x2="175.511" y2="278.736"/>
  <line class="uuid-d95cf8fd-8cd8-429c-9348-0ef5150f1dd2" x1="193.977" y1="288.092" x2="185.305" y2="273.044"/>
  <line class="uuid-d95cf8fd-8cd8-429c-9348-0ef5150f1dd2" x1="203.724" y1="282.448" x2="195.077" y2="267.399"/>
  <line class="uuid-d95cf8fd-8cd8-429c-9348-0ef5150f1dd2" x1="213.471" y1="276.804" x2="204.823" y2="261.781"/>
  <line class="uuid-d95cf8fd-8cd8-429c-9348-0ef5150f1dd2" x1="223.243" y1="271.063" x2="215.913" y2="258.41"/>
  <line class="uuid-d95cf8fd-8cd8-429c-9348-0ef5150f1dd2" x1="232.99" y1="265.371" x2="226.833" y2="254.746"/>
  <line class="uuid-d95cf8fd-8cd8-429c-9348-0ef5150f1dd2" x1="242.737" y1="259.753" x2="236.606" y2="249.105"/>
  <line class="uuid-d95cf8fd-8cd8-429c-9348-0ef5150f1dd2" x1="252.556" y1="254.113" x2="246.401" y2="243.435"/>
  <line class="uuid-d95cf8fd-8cd8-429c-9348-0ef5150f1dd2" x1="262.329" y1="248.421" x2="256.173" y2="237.795"/>
  <line class="uuid-d95cf8fd-8cd8-429c-9348-0ef5150f1dd2" x1="272.123" y1="242.777" x2="265.92" y2="232.15"/>
  <line class="uuid-d95cf8fd-8cd8-429c-9348-0ef5150f1dd2" x1="281.896" y1="237.158" x2="275.739" y2="226.459"/>
  <line class="uuid-d95cf8fd-8cd8-429c-9348-0ef5150f1dd2" x1="291.643" y1="231.514" x2="285.486" y2="220.841"/>
  <line class="uuid-d95cf8fd-8cd8-429c-9348-0ef5150f1dd2" x1="301.462" y1="225.895" x2="295.233" y2="215.196"/>
  <line class="uuid-d95cf8fd-8cd8-429c-9348-0ef5150f1dd2" x1="311.209" y1="220.255" x2="305.054" y2="209.504"/>
  <line class="uuid-d95cf8fd-8cd8-429c-9348-0ef5150f1dd2" x1="320.956" y1="214.611" x2="314.8" y2="203.86"/>
  <line class="uuid-d95cf8fd-8cd8-429c-9348-0ef5150f1dd2" x1="330.776" y1="208.993" x2="324.058" y2="197.315"/>
  <line class="uuid-d95cf8fd-8cd8-429c-9348-0ef5150f1dd2" x1="340.597" y1="203.47" x2="331.95" y2="188.425"/>
  <line class="uuid-d95cf8fd-8cd8-429c-9348-0ef5150f1dd2" x1="350.369" y1="197.778" x2="341.77" y2="182.807"/>
  <line class="uuid-d95cf8fd-8cd8-429c-9348-0ef5150f1dd2" x1="357.599" y1="187.693" x2="352.323" y2="178.553"/>
  <line class="uuid-d95cf8fd-8cd8-429c-9348-0ef5150f1dd2" x1="279.394" y1="148.721" x2="272.248" y2="136.391"/>
  <line class="uuid-d95cf8fd-8cd8-429c-9348-0ef5150f1dd2" x1="317.902" y1="170.249" x2="291.179" y2="124.032"/>
  <line class="uuid-d95cf8fd-8cd8-429c-9348-0ef5150f1dd2" x1="339.717" y1="162.993" x2="324.326" y2="136.344"/>
</svg>