<?xml version="1.0" encoding="UTF-8"?>
<svg id="uuid-d07f2f03-25b6-4681-bb97-4f092a28dd5a" data-name="&amp;lt;Layer&amp;gt;" xmlns="http://www.w3.org/2000/svg" viewBox="0 0 451.11 451.11">
  <defs>
    <style>
      .uuid-cafd99ab-b974-4918-8d57-d69d94941753, .uuid-b1900091-2e65-4e83-a9e1-512dfda26924, .uuid-43a8ac5c-5e98-458f-9dc6-08a56fa8d626, .uuid-6a0e8630-737c-4124-ace7-4581b243f3a6 {
        fill: none;
        stroke: #000;
        stroke-linecap: round;
      }

      .uuid-cafd99ab-b974-4918-8d57-d69d94941753, .uuid-6a0e8630-737c-4124-ace7-4581b243f3a6 {
        stroke-linejoin: round;
        stroke-width: 4.117px;
      }

      .uuid-b1900091-2e65-4e83-a9e1-512dfda26924 {
        stroke-miterlimit: 10;
      }

      .uuid-b1900091-2e65-4e83-a9e1-512dfda26924, .uuid-43a8ac5c-5e98-458f-9dc6-08a56fa8d626 {
        stroke-width: 1.163px;
      }

      .uuid-43a8ac5c-5e98-458f-9dc6-08a56fa8d626 {
        stroke-miterlimit: 22.926;
      }

      .uuid-43a8ac5c-5e98-458f-9dc6-08a56fa8d626, .uuid-6a0e8630-737c-4124-ace7-4581b243f3a6 {
        fill-rule: evenodd;
      }
    </style>
  </defs>
  <g>
    <line class="uuid-cafd99ab-b974-4918-8d57-d69d94941753" x1="148.593" y1="323.434" x2="148.593" y2="163.624"/>
    <path class="uuid-6a0e8630-737c-4124-ace7-4581b243f3a6" d="M149.351,161.306c.343-.688.928-1.221,1.49-1.564"/>
    <path class="uuid-6a0e8630-737c-4124-ace7-4581b243f3a6" d="M161.173,154.514c-.048,0-.096-.052-.169-.052,0,0-.052-.069-.1-.069"/>
    <line class="uuid-cafd99ab-b974-4918-8d57-d69d94941753" x1="160.905" y1="154.393" x2="137.21" y2="140.639"/>
    <path class="uuid-6a0e8630-737c-4124-ace7-4581b243f3a6" d="M137.21,140.639c-.706-.247-.927-.126-1.586.169-2.711,1.564-5.497,3.201-8.234,4.765-1.685.975-2.611,2.196-2.782,4.176"/>
    <line class="uuid-cafd99ab-b974-4918-8d57-d69d94941753" x1="124.607" y1="149.749" x2="124.607" y2="344.98"/>
    <path class="uuid-6a0e8630-737c-4124-ace7-4581b243f3a6" d="M124.607,344.98c.048,1.807.339,3.201,1.977,4.298"/>
    <line class="uuid-cafd99ab-b974-4918-8d57-d69d94941753" x1="126.584" y1="349.277" x2="150.573" y2="363.105"/>
    <path class="uuid-6a0e8630-737c-4124-ace7-4581b243f3a6" d="M150.573,363.105c-.658-.343-1.121-.928-1.464-1.685-.173-.295-.295-.637-.341-1.049-.126-.467-.174-.979-.174-1.568"/>
    <line class="uuid-cafd99ab-b974-4918-8d57-d69d94941753" x1="148.593" y1="358.803" x2="148.593" y2="335.866"/>
    <line class="uuid-cafd99ab-b974-4918-8d57-d69d94941753" x1="161.883" y1="343.538" x2="324.306" y2="249.732"/>
    <path class="uuid-6a0e8630-737c-4124-ace7-4581b243f3a6" d="M324.306,249.732c.169-.096.363-.217.537-.217.173-.052.341-.122.463-.122.099,0,.221.07.389.122"/>
    <line class="uuid-cafd99ab-b974-4918-8d57-d69d94941753" x1="325.648" y1="249.464" x2="301.905" y2="235.762"/>
    <path class="uuid-6a0e8630-737c-4124-ace7-4581b243f3a6" d="M301.905,235.762c-.71-.295-.927-.199-1.637.095"/>
    <line class="uuid-cafd99ab-b974-4918-8d57-d69d94941753" x1="300.268" y1="235.857" x2="294.529" y2="239.18"/>
    <path class="uuid-6a0e8630-737c-4124-ace7-4581b243f3a6" d="M155.213,362.642c-1.855,1.073-3.492,1.169-4.713.463-1.221-.684-1.907-2.174-1.907-4.276"/>
    <line class="uuid-cafd99ab-b974-4918-8d57-d69d94941753" x1="148.593" y1="358.829" x2="148.593" y2="163.602"/>
    <path class="uuid-6a0e8630-737c-4124-ace7-4581b243f3a6" d="M148.593,163.602c0-1.417.979-3.154,2.201-3.86,2.954-1.689,5.86-3.396,8.815-5.084,1.221-.707,2.222-.122,2.222,1.298"/>
    <path class="uuid-6a0e8630-737c-4124-ace7-4581b243f3a6" d="M161.831,155.956l.052,32.88M161.883,331.105l-.052,12.406,162.427-93.779"/>
    <path class="uuid-6a0e8630-737c-4124-ace7-4581b243f3a6" d="M324.258,249.732c1.221-.706,2.244-.148,2.244,1.295v10.136c0,1.42-1.023,3.153-2.244,3.885"/>
    <line class="uuid-cafd99ab-b974-4918-8d57-d69d94941753" x1="324.258" y1="265.049" x2="155.213" y2="362.642"/>
    <path class="uuid-6a0e8630-737c-4124-ace7-4581b243f3a6" d="M272.687,124.832l-.047.052"/>
    <polyline class="uuid-6a0e8630-737c-4124-ace7-4581b243f3a6" points="294.529 167.631 294.529 254.497 161.883 331.105 161.883 188.835 245.964 140.297"/>
    <line class="uuid-cafd99ab-b974-4918-8d57-d69d94941753" x1="251.9" y1="166.236" x2="243.132" y2="161.18"/>
    <path class="uuid-6a0e8630-737c-4124-ace7-4581b243f3a6" d="M243.132,161.18c-.537-.415-.71-.562-1.053-1.122"/>
    <line class="uuid-cafd99ab-b974-4918-8d57-d69d94941753" x1="242.079" y1="160.059" x2="239.514" y2="155.537"/>
    <path class="uuid-6a0e8630-737c-4124-ace7-4581b243f3a6" d="M239.514,155.537c-.975-2.024-.684-3.907-.048-6.008,1.101-3.175,2.27-4.396,4.424-6.913,3.664-4.151,7.252-8.279,10.894-12.432,6.741-7.694,13.433-15.388,20.151-23.085,5.718-6.498,11.459-13.021,17.151-19.545"/>
    <line class="uuid-cafd99ab-b974-4918-8d57-d69d94941753" x1="292.086" y1="87.552" x2="300.854" y2="92.638"/>
    <path class="uuid-6a0e8630-737c-4124-ace7-4581b243f3a6" d="M300.854,92.638c-4.177,4.739-8.305,9.452-12.433,14.191-7.767,8.893-15.559,17.757-23.326,26.649-3.617,4.155-7.208,8.282-10.873,12.437-2.443,2.806-4.3,4.47-5.765,7.888-.733,2.296-1.223,4.518-.17,6.815"/>
    <line class="uuid-cafd99ab-b974-4918-8d57-d69d94941753" x1="248.286" y1="160.618" x2="250.851" y2="165.114"/>
    <path class="uuid-6a0e8630-737c-4124-ace7-4581b243f3a6" d="M250.851,165.114c.341.562.511.732,1.049,1.121"/>
    <line class="uuid-cafd99ab-b974-4918-8d57-d69d94941753" x1="279.774" y1="166.362" x2="286.736" y2="170.369"/>
    <path class="uuid-6a0e8630-737c-4124-ace7-4581b243f3a6" d="M286.736,170.369c-.173-.126-.295-.247-.415-.295-.684-.463-1.149-1.221-1.392-2.322-.051-.169-.051-.341-.099-.585-.074-.173-.074-.389-.074-.636"/>
    <line class="uuid-cafd99ab-b974-4918-8d57-d69d94941753" x1="284.756" y1="166.531" x2="284.367" y2="154.393"/>
    <path class="uuid-6a0e8630-737c-4124-ace7-4581b243f3a6" d="M252.878,166.605h-.052"/>
    <polyline class="uuid-6a0e8630-737c-4124-ace7-4581b243f3a6" points="252.827 166.605 244.769 187.835 209.785 208.108"/>
    <path class="uuid-6a0e8630-737c-4124-ace7-4581b243f3a6" d="M209.785,208.108c-3.296,2.026-5.445,4.812-7.204,8.255"/>
    <line class="uuid-cafd99ab-b974-4918-8d57-d69d94941753" x1="202.581" y1="216.363" x2="169.603" y2="284.642"/>
    <path class="uuid-6a0e8630-737c-4124-ace7-4581b243f3a6" d="M169.603,284.642c-1.147,2.685-2.443,7.204.659,9.183"/>
    <line class="uuid-cafd99ab-b974-4918-8d57-d69d94941753" x1="170.262" y1="293.825" x2="179.033" y2="298.881"/>
    <path class="uuid-6a0e8630-737c-4124-ace7-4581b243f3a6" d="M179.033,298.881c-.147-.074-.195-.121-.319-.243-.221-.122-.391-.291-.563-.511-.121-.052-.169-.122-.121-.199-.218-.217-.343-.437-.465-.681-.291-.71-.463-1.515-.463-2.443,0-1.32.343-2.711.806-3.933.122-.415.295-.758.463-1.173"/>
    <line class="uuid-cafd99ab-b974-4918-8d57-d69d94941753" x1="178.371" y1="289.698" x2="211.349" y2="221.397"/>
    <path class="uuid-6a0e8630-737c-4124-ace7-4581b243f3a6" d="M211.349,221.397c.415-.806.88-1.611,1.394-2.417.537-.832,1.049-1.516,1.638-2.222,1.17-1.395,2.491-2.543,4.176-3.595"/>
    <polyline class="uuid-6a0e8630-737c-4124-ace7-4581b243f3a6" points="218.557 213.163 253.537 192.889 269.023 152.24"/>
    <polyline class="uuid-6a0e8630-737c-4124-ace7-4581b243f3a6" points="218.557 213.189 253.537 192.889 269.023 152.24 259.108 163.602"/>
    <path class="uuid-6a0e8630-737c-4124-ace7-4581b243f3a6" d="M259.108,163.602c-3.102,3.492-6.792,4.15-8.257,1.512"/>
    <path class="uuid-6a0e8630-737c-4124-ace7-4581b243f3a6" d="M248.286,160.618c-1.49-2.661-.221-7.669,2.808-11.164,16.587-18.93,33.151-37.886,49.76-56.816.636,20.909,1.272,41.819,1.906,62.73.195,3.859-2.491,8.694-5.908,10.798"/>
    <line class="uuid-cafd99ab-b974-4918-8d57-d69d94941753" x1="296.851" y1="166.166" x2="291.081" y2="169.731"/>
    <path class="uuid-6a0e8630-737c-4124-ace7-4581b243f3a6" d="M291.081,169.731c-3.345,2.076-6.203.659-6.325-3.175"/>
    <polyline class="uuid-6a0e8630-737c-4124-ace7-4581b243f3a6" points="284.756 166.557 284.367 154.393 266.167 201.657"/>
    <path class="uuid-6a0e8630-737c-4124-ace7-4581b243f3a6" d="M266.167,201.657c-.732,1.833-1.783,3.618-3.053,5.182-1.343,1.659-2.908,3.027-4.424,3.907"/>
    <polyline class="uuid-6a0e8630-737c-4124-ace7-4581b243f3a6" points="258.691 210.746 222.906 231.512 192.662 294.22"/>
    <path class="uuid-6a0e8630-737c-4124-ace7-4581b243f3a6" d="M192.662,294.22c-2.075,4.296-5.91,7.104-8.646,6.273"/>
    <line class="uuid-cafd99ab-b974-4918-8d57-d69d94941753" x1="184.016" y1="300.493" x2="179.471" y2="299.054"/>
  </g>
  <line class="uuid-b1900091-2e65-4e83-a9e1-512dfda26924" x1="164.106" y1="356.216" x2="150.205" y2="332.227"/>
  <line class="uuid-b1900091-2e65-4e83-a9e1-512dfda26924" x1="183.378" y1="344.418" x2="178.493" y2="335.965"/>
  <line class="uuid-b1900091-2e65-4e83-a9e1-512dfda26924" x1="160.147" y1="304.232" x2="150.378" y2="287.28"/>
  <line class="uuid-b1900091-2e65-4e83-a9e1-512dfda26924" x1="202.872" y1="333.129" x2="198.012" y2="324.682"/>
  <line class="uuid-b1900091-2e65-4e83-a9e1-512dfda26924" x1="160.147" y1="259.064" x2="150.378" y2="242.112"/>
  <line class="uuid-b1900091-2e65-4e83-a9e1-512dfda26924" x1="222.465" y1="321.844" x2="217.578" y2="313.393"/>
  <line class="uuid-b1900091-2e65-4e83-a9e1-512dfda26924" x1="160.147" y1="213.921" x2="150.378" y2="196.97"/>
  <line class="uuid-b1900091-2e65-4e83-a9e1-512dfda26924" x1="242.031" y1="310.537" x2="237.145" y2="302.108"/>
  <line class="uuid-b1900091-2e65-4e83-a9e1-512dfda26924" x1="160.026" y1="168.51" x2="154.8" y2="159.447"/>
  <line class="uuid-b1900091-2e65-4e83-a9e1-512dfda26924" x1="261.524" y1="299.272" x2="256.665" y2="290.823"/>
  <line class="uuid-b1900091-2e65-4e83-a9e1-512dfda26924" x1="281.092" y1="287.987" x2="276.231" y2="279.512"/>
  <line class="uuid-b1900091-2e65-4e83-a9e1-512dfda26924" x1="300.684" y1="276.702" x2="295.798" y2="268.225"/>
  <line class="uuid-b1900091-2e65-4e83-a9e1-512dfda26924" x1="320.251" y1="265.391" x2="315.365" y2="256.94"/>
  <line class="uuid-b1900091-2e65-4e83-a9e1-512dfda26924" x1="146.908" y1="347.298" x2="136.798" y2="353.112"/>
  <line class="uuid-b1900091-2e65-4e83-a9e1-512dfda26924" x1="147.251" y1="334.034" x2="126.047" y2="346.271"/>
  <line class="uuid-b1900091-2e65-4e83-a9e1-512dfda26924" x1="147.251" y1="321.016" x2="125.999" y2="333.302"/>
  <line class="uuid-b1900091-2e65-4e83-a9e1-512dfda26924" x1="147.251" y1="307.97" x2="125.999" y2="320.233"/>
  <line class="uuid-b1900091-2e65-4e83-a9e1-512dfda26924" x1="147.251" y1="294.926" x2="125.999" y2="307.212"/>
  <line class="uuid-b1900091-2e65-4e83-a9e1-512dfda26924" x1="147.251" y1="281.905" x2="125.999" y2="294.194"/>
  <line class="uuid-b1900091-2e65-4e83-a9e1-512dfda26924" x1="147.251" y1="268.861" x2="125.999" y2="281.147"/>
  <line class="uuid-b1900091-2e65-4e83-a9e1-512dfda26924" x1="147.251" y1="255.817" x2="125.999" y2="268.103"/>
  <line class="uuid-b1900091-2e65-4e83-a9e1-512dfda26924" x1="147.251" y1="242.797" x2="125.999" y2="255.059"/>
  <line class="uuid-b1900091-2e65-4e83-a9e1-512dfda26924" x1="147.251" y1="229.754" x2="125.999" y2="242.039"/>
  <line class="uuid-b1900091-2e65-4e83-a9e1-512dfda26924" x1="147.251" y1="216.732" x2="125.999" y2="228.996"/>
  <line class="uuid-b1900091-2e65-4e83-a9e1-512dfda26924" x1="147.251" y1="203.688" x2="125.999" y2="215.948"/>
  <line class="uuid-b1900091-2e65-4e83-a9e1-512dfda26924" x1="147.251" y1="190.641" x2="125.999" y2="202.93"/>
  <line class="uuid-b1900091-2e65-4e83-a9e1-512dfda26924" x1="147.251" y1="177.623" x2="125.999" y2="189.884"/>
  <line class="uuid-b1900091-2e65-4e83-a9e1-512dfda26924" x1="147.251" y1="164.577" x2="125.999" y2="176.841"/>
  <line class="uuid-b1900091-2e65-4e83-a9e1-512dfda26924" x1="150.378" y1="149.727" x2="125.877" y2="163.893"/>
  <line class="uuid-b1900091-2e65-4e83-a9e1-512dfda26924" x1="138.774" y1="143.424" x2="126.293" y2="150.629"/>
  <line class="uuid-b1900091-2e65-4e83-a9e1-512dfda26924" x1="164.79" y1="339.505" x2="163.911" y2="338.993"/>
  <line class="uuid-b1900091-2e65-4e83-a9e1-512dfda26924" x1="176.295" y1="333.107" x2="169.213" y2="329"/>
  <line class="uuid-b1900091-2e65-4e83-a9e1-512dfda26924" x1="187.558" y1="326.583" x2="180.472" y2="322.506"/>
  <line class="uuid-b1900091-2e65-4e83-a9e1-512dfda26924" x1="198.817" y1="320.063" x2="191.735" y2="315.982"/>
  <line class="uuid-b1900091-2e65-4e83-a9e1-512dfda26924" x1="210.154" y1="313.539" x2="203.044" y2="309.46"/>
  <line class="uuid-b1900091-2e65-4e83-a9e1-512dfda26924" x1="221.412" y1="307.016" x2="214.329" y2="302.936"/>
  <line class="uuid-b1900091-2e65-4e83-a9e1-512dfda26924" x1="232.675" y1="300.518" x2="225.592" y2="296.416"/>
  <line class="uuid-b1900091-2e65-4e83-a9e1-512dfda26924" x1="243.985" y1="293.998" x2="236.903" y2="289.918"/>
  <line class="uuid-b1900091-2e65-4e83-a9e1-512dfda26924" x1="255.269" y1="287.476" x2="248.187" y2="283.373"/>
  <line class="uuid-b1900091-2e65-4e83-a9e1-512dfda26924" x1="266.58" y1="280.952" x2="259.497" y2="276.871"/>
  <line class="uuid-b1900091-2e65-4e83-a9e1-512dfda26924" x1="277.869" y1="274.454" x2="270.76" y2="270.351"/>
  <line class="uuid-b1900091-2e65-4e83-a9e1-512dfda26924" x1="289.128" y1="267.934" x2="282.044" y2="263.827"/>
  <line class="uuid-b1900091-2e65-4e83-a9e1-512dfda26924" x1="300.437" y1="261.41" x2="293.355" y2="257.308"/>
  <line class="uuid-b1900091-2e65-4e83-a9e1-512dfda26924" x1="311.995" y1="255.059" x2="296.093" y2="245.85"/>
  <line class="uuid-b1900091-2e65-4e83-a9e1-512dfda26924" x1="246.429" y1="154.245" x2="242.494" y2="147.406"/>
  <line class="uuid-b1900091-2e65-4e83-a9e1-512dfda26924" x1="253.537" y1="143.935" x2="250.262" y2="138.243"/>
  <line class="uuid-b1900091-2e65-4e83-a9e1-512dfda26924" x1="261.352" y1="134.968" x2="258.107" y2="129.281"/>
  <line class="uuid-b1900091-2e65-4e83-a9e1-512dfda26924" x1="269.27" y1="125.98" x2="265.947" y2="120.288"/>
  <line class="uuid-b1900091-2e65-4e83-a9e1-512dfda26924" x1="277.085" y1="116.991" x2="273.862" y2="111.321"/>
  <line class="uuid-b1900091-2e65-4e83-a9e1-512dfda26924" x1="284.929" y1="108.025" x2="281.677" y2="102.333"/>
  <line class="uuid-b1900091-2e65-4e83-a9e1-512dfda26924" x1="292.792" y1="99.062" x2="289.521" y2="93.37"/>
  <line class="uuid-b1900091-2e65-4e83-a9e1-512dfda26924" x1="174.316" y1="293.925" x2="170.603" y2="287.476"/>
  <line class="uuid-b1900091-2e65-4e83-a9e1-512dfda26924" x1="180.277" y1="281.61" x2="176.395" y2="274.917"/>
  <line class="uuid-b1900091-2e65-4e83-a9e1-512dfda26924" x1="186.212" y1="269.324" x2="182.329" y2="262.632"/>
  <line class="uuid-b1900091-2e65-4e83-a9e1-512dfda26924" x1="192.15" y1="257.014" x2="188.239" y2="250.32"/>
  <line class="uuid-b1900091-2e65-4e83-a9e1-512dfda26924" x1="198.062" y1="244.725" x2="194.226" y2="238.032"/>
  <line class="uuid-b1900091-2e65-4e83-a9e1-512dfda26924" x1="203.972" y1="232.439" x2="200.164" y2="225.747"/>
  <line class="uuid-b1900091-2e65-4e83-a9e1-512dfda26924" x1="209.959" y1="220.128" x2="206.319" y2="213.826"/>
  <line class="uuid-b1900091-2e65-4e83-a9e1-512dfda26924" x1="217.921" y1="211.357" x2="215.43" y2="207.033"/>
  <line class="uuid-b1900091-2e65-4e83-a9e1-512dfda26924" x1="227.667" y1="205.69" x2="225.177" y2="201.392"/>
  <line class="uuid-b1900091-2e65-4e83-a9e1-512dfda26924" x1="237.44" y1="200.046" x2="234.949" y2="195.723"/>
  <line class="uuid-b1900091-2e65-4e83-a9e1-512dfda26924" x1="247.187" y1="194.379" x2="244.695" y2="190.057"/>
  <line class="uuid-b1900091-2e65-4e83-a9e1-512dfda26924" x1="254.685" y1="184.729" x2="250.604" y2="177.693"/>
  <line class="uuid-b1900091-2e65-4e83-a9e1-512dfda26924" x1="259.792" y1="171.053" x2="257.712" y2="167.337"/>
  <polygon class="uuid-43a8ac5c-5e98-458f-9dc6-08a56fa8d626" points="282.681 164.698 282.729 165.75 282.387 165.53 282.681 164.698"/>
  <line class="uuid-b1900091-2e65-4e83-a9e1-512dfda26924" x1="187.897" y1="297.784" x2="181.671" y2="286.96"/>
  <line class="uuid-b1900091-2e65-4e83-a9e1-512dfda26924" x1="200.429" y1="274.358" x2="193.54" y2="262.337"/>
  <line class="uuid-b1900091-2e65-4e83-a9e1-512dfda26924" x1="212.35" y1="249.758" x2="205.366" y2="237.738"/>
  <line class="uuid-b1900091-2e65-4e83-a9e1-512dfda26924" x1="225.887" y1="228.017" x2="218.458" y2="215.194"/>
  <line class="uuid-b1900091-2e65-4e83-a9e1-512dfda26924" x1="245.402" y1="216.68" x2="237.903" y2="203.784"/>
  <line class="uuid-b1900091-2e65-4e83-a9e1-512dfda26924" x1="263.699" y1="203.221" x2="256.322" y2="190.446"/>
  <line class="uuid-b1900091-2e65-4e83-a9e1-512dfda26924" x1="274.203" y1="176.329" x2="266.657" y2="163.26"/>
  <line class="uuid-b1900091-2e65-4e83-a9e1-512dfda26924" x1="262.918" y1="156.758" x2="256.591" y2="145.816"/>
  <line class="uuid-b1900091-2e65-4e83-a9e1-512dfda26924" x1="294.797" y1="166.825" x2="271.76" y2="126.908"/>
  <line class="uuid-b1900091-2e65-4e83-a9e1-512dfda26924" x1="300.437" y1="131.477" x2="287.784" y2="109.567"/>
</svg>