<?xml version="1.0" encoding="UTF-8"?>
<svg id="uuid-f5baa45d-2145-493d-9386-88f86978c81b" data-name="&amp;lt;Layer&amp;gt;" xmlns="http://www.w3.org/2000/svg" viewBox="0 0 451.11 451.11">
  <defs>
    <style>
      .uuid-70528610-949c-469c-b948-69807138e20d, .uuid-d0c81c5b-b215-43fd-89f0-0c3f966ba37e, .uuid-18f1784f-515f-456d-b23e-6f7bcef004ba, .uuid-a0beb09e-f9ee-48f3-9bf5-09b257c1f3a0 {
        fill: none;
        stroke: #000;
        stroke-linecap: round;
      }

      .uuid-70528610-949c-469c-b948-69807138e20d, .uuid-18f1784f-515f-456d-b23e-6f7bcef004ba {
        stroke-width: 4.113px;
      }

      .uuid-70528610-949c-469c-b948-69807138e20d, .uuid-18f1784f-515f-456d-b23e-6f7bcef004ba, .uuid-a0beb09e-f9ee-48f3-9bf5-09b257c1f3a0 {
        stroke-linejoin: round;
      }

      .uuid-d0c81c5b-b215-43fd-89f0-0c3f966ba37e {
        stroke-miterlimit: 10;
        stroke-width: 1.167px;
      }

      .uuid-18f1784f-515f-456d-b23e-6f7bcef004ba, .uuid-a0beb09e-f9ee-48f3-9bf5-09b257c1f3a0 {
        fill-rule: evenodd;
      }

      .uuid-a0beb09e-f9ee-48f3-9bf5-09b257c1f3a0 {
        stroke-width: 4.109px;
      }
    </style>
  </defs>
  <path class="uuid-18f1784f-515f-456d-b23e-6f7bcef004ba" d="M224.911,342.57c65.121,0,117.434-52.305,117.434-116.894s-52.313-116.901-117.434-116.901c-64.055,0-116.364,52.314-116.364,116.901s52.309,116.894,116.364,116.894Z"/>
  <path class="uuid-18f1784f-515f-456d-b23e-6f7bcef004ba" d="M119.5,176.112c-10.733-2.196-19.026-11.708-19.026-23.077,0-13.047,10.733-23.585,23.659-23.585,1.953,0,3.66.173,5.122.563,1.221.243,2.196.537,3.171.949.732.221,1.464.563,2.196.979.243.048.487.169.733.291,3.899,2.075,7.071,5.221,9.268,8.977"/>
  <path class="uuid-18f1784f-515f-456d-b23e-6f7bcef004ba" d="M133.643,297.896c-2.192-.295-3.899-.586-5.85-1.001"/>
  <path class="uuid-a0beb09e-f9ee-48f3-9bf5-09b257c1f3a0" d="M342.186,221.526c1.708-2.146,3.172-4.242,4.394-6.335,1.707-2.789,3.171-5.497,3.903-8.106.479-1.221.729-2.384.972-3.528,5.574-24.35-26.308-30.617-43.447-31.46-22.683-1.096-48.667,3.29-70.349,8.874-32.294,8.334-66.041,22.004-94.222,39.903-12.344,7.833-24.008,16.76-31.992,25.965-.479.321-.479.663-.728.953-.243.1-.243.222-.483.339-1.464,1.859-2.928,3.662-3.903,5.446-3.419,4.874-5.615,9.459-6.347,13.75-1.464,6.368-.239,12.005,3.421,16.758,3.407,4.512,8.772,8.102,16.094,10.613.482.169,7.804,2.024,8.293,2.196"/>
  <path class="uuid-18f1784f-515f-456d-b23e-6f7bcef004ba" d="M284.623,105.792c-2.682-.412-5.607-.586-8.536-.586-3.415,0-7.072.295-10.729.806-1.953.295-4.15.633-6.101,1.123-4.146.853-8.293,2.024-12.436,3.535"/>
  <path class="uuid-18f1784f-515f-456d-b23e-6f7bcef004ba" d="M323.403,133.913c4.147,9.099,6.586,20.175,6.586,33.052,0,2.024,0,4.047-.243,6.149"/>
  <path class="uuid-18f1784f-515f-456d-b23e-6f7bcef004ba" d="M185.354,345.212c-3.658.511-7.319.733-10.733.733-9.997,0-18.779-2.149-26.583-6.321-7.562-4.169-13.905-10.318-18.541-18.39-4.143-7.172-7.071-15.876-8.29-25.951-.247-2.218-.489-4.489-.489-6.855v-10.559c.243-3.172.732-6.365.975-9.562"/>
  <path class="uuid-18f1784f-515f-456d-b23e-6f7bcef004ba" d="M282.43,123.648c-.489-1.929-.732-4-.732-6.097,0-1.975.243-3.883.732-5.733.485-2.148,1.217-4.172,2.192-6.027,4.147-7.366,11.955-12.366,21.222-12.366,13.169,0,23.901,10.78,23.901,24.126,0,6.313-2.439,12.071-6.343,16.361-1.46,1.612-3.167,3.002-5.121,4.099-3.415,2.172-7.558,3.441-11.704,3.562"/>
  <path class="uuid-a0beb09e-f9ee-48f3-9bf5-09b257c1f3a0" d="M129.501,129.918c4.631-8.076,10.971-14.273,18.533-18.445,7.811-4.121,16.586-6.267,26.583-6.267,42.615,0,86.439,37.166,110.248,67.491,1.462,1.977,3.179,3.882,4.633,5.858,3.662,4.875,7.079,9.919,10.248,15.023,13.9,21.752,23.657,45.22,28.051,67.531.239,2.399.732,4.835.971,7.2.493,3.242.986,6.509.986,9.729.239,2.046.239,4.155.239,6.171,0,14.831-3.167,27.297-8.786,37.026-4.632,8.072-10.972,14.221-18.783,18.39-7.549,4.172-16.576,6.321-26.333,6.321-9.03,0-19.026-1.789-29.278-5.439.254-.048.493-.129.733-.169"/>
  <path class="uuid-18f1784f-515f-456d-b23e-6f7bcef004ba" d="M180.475,292.09c-16.826-3.371-32.684-8.654-46.102-15.877-11.421-6.067-25.293-16.558-31.698-27.606-4.635-7.422-6.833-15.254-6.833-23.029,0-7.829,2.197-15.593,6.833-23.073,2.918-4.754,6.829-9.349,11.7-13.761"/>
  <path class="uuid-18f1784f-515f-456d-b23e-6f7bcef004ba" d="M276.33,290.794c33.957-7.869,96.727-37.246,74.153-83.709"/>
  <path class="uuid-18f1784f-515f-456d-b23e-6f7bcef004ba" d="M249.504,318.625c14.875,0,26.83-11.951,26.83-26.708s-11.955-26.709-26.83-26.709c-14.638,0-26.588,11.955-26.588,26.709s11.951,26.708,26.588,26.708Z"/>
  <line class="uuid-70528610-949c-469c-b948-69807138e20d" x1="129.012" y1="238.746" x2="129.012" y2="238.794"/>
  <path class="uuid-18f1784f-515f-456d-b23e-6f7bcef004ba" d="M203.121,340.517c-4.753,1.476-14.081,3.922-17.771,4.695"/>
  <path class="uuid-18f1784f-515f-456d-b23e-6f7bcef004ba" d="M129.008,238.746c1.225-3.708,2.689-7.37,4.154-11.071v-.07c4.871-11.542,10.729-23.007,17.801-34.027,20.829-33.044,57.233-69.709,95.851-82.907"/>
  <path class="uuid-18f1784f-515f-456d-b23e-6f7bcef004ba" d="M121.696,268.309c1.464-7.34,4.632-22.031,7.312-29.511"/>
  <path class="uuid-18f1784f-515f-456d-b23e-6f7bcef004ba" d="M223.158,296.431c-12.196-.122-30.729-2.286-42.683-4.342"/>
  <path class="uuid-18f1784f-515f-456d-b23e-6f7bcef004ba" d="M265.358,106.012c-1.221-4.635-2.439-8.584-4.15-11.807-2.436-5.339-5.607-9-9.269-10.854-3.9-2.046-8.046-1.925-12.436.341-5.368,2.782-10.976,8.878-16.834,18.611-1.218,2.05-2.435,4.246-3.657,6.564-1.217,2.072-2.194,4.338-3.172,6.656-.975,1.853-1.707,3.782-2.682,5.758-1.218,2.95-2.439,6.071-3.658,9.316-1.464,3.489-2.682,7.145-3.903,10.902-4.879,14.195-9.269,30.223-12.925,47.027-.489,2.609-1.221,5.268-1.708,7.952-.489,2.487-.975,4.974-1.464,7.487-5.122,27.074-8.293,55.536-9.025,81.734v10.096c0,15.196.732,28.173,2.685,38.784.243,1.512.485,3.024.728,4.412.489,2.196.979,4.294,1.465,6.221,1.217,4.56,2.439,8.437,4.146,11.708,2.44,5.316,5.611,8.974,9.269,10.829,3.903,2.024,8.05,1.976,12.44-.343,5.363-2.73,10.975-8.878,16.829-18.563,1.217-2.072,2.44-4.29,3.658-6.56h-.243"/>
  <line class="uuid-d0c81c5b-b215-43fd-89f0-0c3f966ba37e" x1="126.086" y1="162.013" x2="102.424" y2="148.354"/>
  <line class="uuid-d0c81c5b-b215-43fd-89f0-0c3f966ba37e" x1="139.986" y1="144.061" x2="118.521" y2="131.672"/>
  <line class="uuid-d0c81c5b-b215-43fd-89f0-0c3f966ba37e" x1="320.236" y1="135.914" x2="282.673" y2="114.255"/>
  <line class="uuid-d0c81c5b-b215-43fd-89f0-0c3f966ba37e" x1="328.529" y1="114.77" x2="296.82" y2="96.38"/>
  <line class="uuid-d0c81c5b-b215-43fd-89f0-0c3f966ba37e" x1="262.672" y1="314.309" x2="223.648" y2="291.795"/>
  <line class="uuid-d0c81c5b-b215-43fd-89f0-0c3f966ba37e" x1="275.355" y1="295.647" x2="233.402" y2="271.429"/>
  <line class="uuid-d0c81c5b-b215-43fd-89f0-0c3f966ba37e" x1="125.107" y1="286.284" x2="122.669" y2="282.185"/>
</svg>