<?xml version="1.0" encoding="UTF-8"?>
<svg id="uuid-c94e02fa-fce6-4e03-b3da-b8fccf193e37" data-name="&amp;lt;Layer&amp;gt;" xmlns="http://www.w3.org/2000/svg" viewBox="0 0 451.11 451.11">
  <defs>
    <style>
      .uuid-6ac455b4-c4bf-4eaf-aa00-82fba2ed8741, .uuid-e7af1646-a65b-4720-84d0-0df800389987, .uuid-5f46a53e-da81-4222-866c-6b77b36ebe48 {
        fill: none;
        stroke: #000;
        stroke-linecap: round;
      }

      .uuid-6ac455b4-c4bf-4eaf-aa00-82fba2ed8741, .uuid-5f46a53e-da81-4222-866c-6b77b36ebe48 {
        stroke-linejoin: round;
        stroke-width: 4.117px;
      }

      .uuid-e7af1646-a65b-4720-84d0-0df800389987 {
        stroke-miterlimit: 10;
        stroke-width: 1.163px;
      }

      .uuid-5f46a53e-da81-4222-866c-6b77b36ebe48 {
        fill-rule: evenodd;
      }
    </style>
  </defs>
  <polyline class="uuid-5f46a53e-da81-4222-866c-6b77b36ebe48" points="306.534 250.572 317.039 256.68 166.317 343.716 134.07 325.076 144.575 319.041"/>
  <polygon class="uuid-5f46a53e-da81-4222-866c-6b77b36ebe48" points="166.317 343.716 134.07 325.076 134.07 341.761 166.317 360.398 166.317 343.716"/>
  <polygon class="uuid-5f46a53e-da81-4222-866c-6b77b36ebe48" points="317.039 256.654 166.317 343.716 166.317 360.398 317.039 273.362 317.039 256.654"/>
  <polyline class="uuid-5f46a53e-da81-4222-866c-6b77b36ebe48" points="306.534 221.77 317.039 227.853 166.317 314.914 134.07 296.277 144.575 290.24"/>
  <polygon class="uuid-5f46a53e-da81-4222-866c-6b77b36ebe48" points="166.317 314.892 134.07 296.252 134.07 312.96 166.317 331.599 166.317 314.892"/>
  <polygon class="uuid-5f46a53e-da81-4222-866c-6b77b36ebe48" points="317.039 227.831 166.317 314.892 166.317 331.599 317.039 244.539 317.039 227.831"/>
  <polyline class="uuid-5f46a53e-da81-4222-866c-6b77b36ebe48" points="144.575 261.441 134.07 267.476 166.317 286.041 292.123 213.414 292.123 213.414 317.039 199.002 303.845 191.331"/>
  <polygon class="uuid-5f46a53e-da81-4222-866c-6b77b36ebe48" points="166.317 286.089 134.07 267.45 134.07 284.135 166.317 302.775 166.317 286.089"/>
  <polygon class="uuid-5f46a53e-da81-4222-866c-6b77b36ebe48" points="317.039 199.028 166.317 286.089 166.317 302.775 317.039 215.71 317.039 199.028"/>
  <polyline class="uuid-5f46a53e-da81-4222-866c-6b77b36ebe48" points="234.959 200.466 242.531 204.816 247.174 207.431 289.436 182.978 289.436 182.978 317.039 167.003 306.534 160.896"/>
  <polyline class="uuid-5f46a53e-da81-4222-866c-6b77b36ebe48" points="234.959 217.128 247.174 224.093 247.174 207.431 242.531 204.816 234.959 200.466"/>
  <polygon class="uuid-5f46a53e-da81-4222-866c-6b77b36ebe48" points="317.039 167.003 247.174 207.406 247.174 224.093 317.039 183.685 317.039 167.003"/>
  <polyline class="uuid-5f46a53e-da81-4222-866c-6b77b36ebe48" points="306.534 132.093 317.039 138.201 292.123 152.613 247.174 178.556 239.846 174.381 239.846 174.381 235.205 171.595"/>
  <polyline class="uuid-5f46a53e-da81-4222-866c-6b77b36ebe48" points="235.205 171.595 239.846 174.381 239.846 174.381 247.174 178.556 247.174 195.29 235.205 188.329"/>
  <polygon class="uuid-5f46a53e-da81-4222-866c-6b77b36ebe48" points="317.039 138.179 247.174 178.582 247.174 195.264 317.039 154.887 317.039 138.179"/>
  <polygon class="uuid-5f46a53e-da81-4222-866c-6b77b36ebe48" points="317.039 109.351 284.793 90.711 214.929 131.118 247.174 149.757 317.039 109.351"/>
  <polyline class="uuid-5f46a53e-da81-4222-866c-6b77b36ebe48" points="214.929 145.066 214.929 131.118 247.174 149.757 247.174 166.439 235.205 159.504"/>
  <polygon class="uuid-5f46a53e-da81-4222-866c-6b77b36ebe48" points="317.039 109.351 247.174 149.757 247.174 166.439 317.039 126.036 317.039 109.351"/>
  <polygon class="uuid-5f46a53e-da81-4222-866c-6b77b36ebe48" points="235.205 156.741 202.714 138.101 134.07 177.776 166.317 196.411 235.205 156.741"/>
  <polygon class="uuid-5f46a53e-da81-4222-866c-6b77b36ebe48" points="166.317 196.411 134.07 177.776 134.07 255.312 166.317 273.947 166.317 196.411"/>
  <polygon class="uuid-5f46a53e-da81-4222-866c-6b77b36ebe48" points="235.205 156.741 166.317 196.411 166.317 273.947 234.959 234.277 235.205 156.741"/>
  <polyline class="uuid-5f46a53e-da81-4222-866c-6b77b36ebe48" points="173.4 256.556 173.4 230.711 173.889 229.905"/>
  <path class="uuid-5f46a53e-da81-4222-866c-6b77b36ebe48" d="M212.24,182.537c4.886-2.808,9.039-.511,9.039,5.13,0,5.696-4.154,12.583-9.039,15.416-4.883,2.81-8.794.511-8.794-5.156s3.911-12.557,8.794-15.39Z"/>
  <line class="uuid-6ac455b4-c4bf-4eaf-aa00-82fba2ed8741" x1="228.12" y1="213.123" x2="228.12" y2="213.171"/>
  <line class="uuid-6ac455b4-c4bf-4eaf-aa00-82fba2ed8741" x1="220.304" y1="208.58" x2="220.058" y2="208.58"/>
  <line class="uuid-6ac455b4-c4bf-4eaf-aa00-82fba2ed8741" x1="228.12" y1="210.556" x2="228.12" y2="224.993"/>
  <path class="uuid-5f46a53e-da81-4222-866c-6b77b36ebe48" d="M228.12,224.993c0,1.101-.975,2.443-1.953,3.006"/>
  <line class="uuid-6ac455b4-c4bf-4eaf-aa00-82fba2ed8741" x1="226.166" y1="228" x2="175.111" y2="257.556"/>
  <path class="uuid-5f46a53e-da81-4222-866c-6b77b36ebe48" d="M175.111,257.556c-.979.536-1.711.099-1.711-1.001"/>
  <path class="uuid-5f46a53e-da81-4222-866c-6b77b36ebe48" d="M173.889,229.905c1.953-2.615,4.396-4.055,6.351-3.518"/>
  <line class="uuid-6ac455b4-c4bf-4eaf-aa00-82fba2ed8741" x1="180.24" y1="226.387" x2="197.341" y2="231.347"/>
  <path class="uuid-5f46a53e-da81-4222-866c-6b77b36ebe48" d="M197.341,231.347c1.707.489,4.151-.757,5.862-3.175"/>
  <line class="uuid-6ac455b4-c4bf-4eaf-aa00-82fba2ed8741" x1="203.203" y1="228.172" x2="216.151" y2="211.608"/>
  <path class="uuid-5f46a53e-da81-4222-866c-6b77b36ebe48" d="M216.151,211.608c1.953-2.491,4.396-3.738,6.107-3.128"/>
  <line class="uuid-6ac455b4-c4bf-4eaf-aa00-82fba2ed8741" x1="222.258" y1="208.48" x2="228.12" y2="210.556"/>
  <line class="uuid-e7af1646-a65b-4720-84d0-0df800389987" x1="216.883" y1="196.096" x2="207.11" y2="190.551"/>
  <line class="uuid-e7af1646-a65b-4720-84d0-0df800389987" x1="259.144" y1="169.542" x2="255.722" y2="163.607"/>
  <line class="uuid-e7af1646-a65b-4720-84d0-0df800389987" x1="278.685" y1="158.257" x2="275.267" y2="152.344"/>
  <line class="uuid-e7af1646-a65b-4720-84d0-0df800389987" x1="298.226" y1="146.994" x2="294.808" y2="141.108"/>
  <line class="uuid-e7af1646-a65b-4720-84d0-0df800389987" x1="259.144" y1="198.392" x2="255.722" y2="192.482"/>
  <line class="uuid-e7af1646-a65b-4720-84d0-0df800389987" x1="278.685" y1="187.107" x2="275.267" y2="181.172"/>
  <line class="uuid-e7af1646-a65b-4720-84d0-0df800389987" x1="298.226" y1="175.823" x2="294.808" y2="169.935"/>
  <line class="uuid-e7af1646-a65b-4720-84d0-0df800389987" x1="162.895" y1="281.861" x2="156.055" y2="270.213"/>
  <line class="uuid-e7af1646-a65b-4720-84d0-0df800389987" x1="184.151" y1="273.679" x2="180.73" y2="267.792"/>
  <line class="uuid-e7af1646-a65b-4720-84d0-0df800389987" x1="203.693" y1="262.368" x2="200.27" y2="256.482"/>
  <line class="uuid-e7af1646-a65b-4720-84d0-0df800389987" x1="223.233" y1="251.036" x2="220.058" y2="245.171"/>
  <line class="uuid-e7af1646-a65b-4720-84d0-0df800389987" x1="243.021" y1="239.894" x2="236.914" y2="229.684"/>
  <line class="uuid-e7af1646-a65b-4720-84d0-0df800389987" x1="262.319" y1="228.563" x2="257.432" y2="220.132"/>
  <line class="uuid-e7af1646-a65b-4720-84d0-0df800389987" x1="281.865" y1="217.252" x2="277.22" y2="208.823"/>
  <line class="uuid-e7af1646-a65b-4720-84d0-0df800389987" x1="301.647" y1="205.989" x2="296.762" y2="197.538"/>
  <line class="uuid-e7af1646-a65b-4720-84d0-0df800389987" x1="162.652" y1="310.642" x2="156.055" y2="298.964"/>
  <line class="uuid-e7af1646-a65b-4720-84d0-0df800389987" x1="184.151" y1="302.529" x2="180.73" y2="296.594"/>
  <line class="uuid-e7af1646-a65b-4720-84d0-0df800389987" x1="203.693" y1="291.245" x2="200.27" y2="285.331"/>
  <line class="uuid-e7af1646-a65b-4720-84d0-0df800389987" x1="223.233" y1="279.982" x2="219.815" y2="274.069"/>
  <line class="uuid-e7af1646-a65b-4720-84d0-0df800389987" x1="242.778" y1="268.671" x2="239.356" y2="262.763"/>
  <line class="uuid-e7af1646-a65b-4720-84d0-0df800389987" x1="262.319" y1="257.338" x2="258.898" y2="251.452"/>
  <line class="uuid-e7af1646-a65b-4720-84d0-0df800389987" x1="281.865" y1="246.077" x2="278.442" y2="240.189"/>
  <line class="uuid-e7af1646-a65b-4720-84d0-0df800389987" x1="301.405" y1="234.74" x2="298.226" y2="228.878"/>
  <line class="uuid-e7af1646-a65b-4720-84d0-0df800389987" x1="163.142" y1="339.661" x2="156.301" y2="327.961"/>
  <line class="uuid-e7af1646-a65b-4720-84d0-0df800389987" x1="184.394" y1="331.232" x2="180.976" y2="325.318"/>
  <line class="uuid-e7af1646-a65b-4720-84d0-0df800389987" x1="203.935" y1="319.969" x2="200.516" y2="314.06"/>
  <line class="uuid-e7af1646-a65b-4720-84d0-0df800389987" x1="223.479" y1="308.685" x2="220.058" y2="302.797"/>
  <line class="uuid-e7af1646-a65b-4720-84d0-0df800389987" x1="243.021" y1="297.378" x2="239.603" y2="291.487"/>
  <line class="uuid-e7af1646-a65b-4720-84d0-0df800389987" x1="262.562" y1="286.041" x2="259.144" y2="280.177"/>
  <line class="uuid-e7af1646-a65b-4720-84d0-0df800389987" x1="282.107" y1="274.804" x2="278.685" y2="268.918"/>
  <line class="uuid-e7af1646-a65b-4720-84d0-0df800389987" x1="301.647" y1="263.521" x2="298.226" y2="257.655"/>
  <line class="uuid-e7af1646-a65b-4720-84d0-0df800389987" x1="140.179" y1="343.031" x2="136.025" y2="335.823"/>
  <line class="uuid-e7af1646-a65b-4720-84d0-0df800389987" x1="159.967" y1="354.706" x2="148.73" y2="335.506"/>
  <line class="uuid-e7af1646-a65b-4720-84d0-0df800389987" x1="140.179" y1="314.23" x2="136.025" y2="307"/>
  <line class="uuid-e7af1646-a65b-4720-84d0-0df800389987" x1="159.967" y1="325.908" x2="148.73" y2="306.705"/>
  <line class="uuid-e7af1646-a65b-4720-84d0-0df800389987" x1="140.179" y1="285.431" x2="136.025" y2="278.127"/>
  <line class="uuid-e7af1646-a65b-4720-84d0-0df800389987" x1="159.967" y1="297.105" x2="148.73" y2="277.832"/>
  <line class="uuid-e7af1646-a65b-4720-84d0-0df800389987" x1="139.936" y1="256.434" x2="136.025" y2="249.741"/>
  <line class="uuid-e7af1646-a65b-4720-84d0-0df800389987" x1="159.967" y1="268.844" x2="135.293" y2="226.02"/>
  <line class="uuid-e7af1646-a65b-4720-84d0-0df800389987" x1="165.338" y1="255.312" x2="135.049" y2="203.252"/>
  <line class="uuid-e7af1646-a65b-4720-84d0-0df800389987" x1="165.338" y1="232.859" x2="135.049" y2="180.584"/>
  <line class="uuid-e7af1646-a65b-4720-84d0-0df800389987" x1="164.606" y1="208.97" x2="154.591" y2="191.626"/>
  <line class="uuid-e7af1646-a65b-4720-84d0-0df800389987" x1="163.627" y1="192.92" x2="150.194" y2="169.836"/>
  <line class="uuid-e7af1646-a65b-4720-84d0-0df800389987" x1="184.883" y1="184.543" x2="169.736" y2="158.451"/>
  <line class="uuid-e7af1646-a65b-4720-84d0-0df800389987" x1="204.425" y1="173.28" x2="189.28" y2="147.168"/>
  <line class="uuid-e7af1646-a65b-4720-84d0-0df800389987" x1="223.722" y1="161.602" x2="215.419" y2="147.363"/>
  <line class="uuid-e7af1646-a65b-4720-84d0-0df800389987" x1="245.221" y1="215.493" x2="239.114" y2="204.89"/>
  <line class="uuid-e7af1646-a65b-4720-84d0-0df800389987" x1="245.221" y1="187.423" x2="238.624" y2="175.771"/>
  <line class="uuid-e7af1646-a65b-4720-84d0-0df800389987" x1="218.347" y1="144.651" x2="216.883" y2="142.281"/>
  <line class="uuid-e7af1646-a65b-4720-84d0-0df800389987" x1="240.335" y1="160.579" x2="229.588" y2="141.523"/>
  <line class="uuid-e7af1646-a65b-4720-84d0-0df800389987" x1="243.999" y1="145.971" x2="230.809" y2="123.251"/>
  <line class="uuid-e7af1646-a65b-4720-84d0-0df800389987" x1="265.494" y1="138.031" x2="250.351" y2="111.893"/>
  <line class="uuid-e7af1646-a65b-4720-84d0-0df800389987" x1="285.04" y1="126.743" x2="269.892" y2="100.631"/>
  <line class="uuid-e7af1646-a65b-4720-84d0-0df800389987" x1="304.334" y1="115.142" x2="294.566" y2="98.361"/>
  <line class="uuid-e7af1646-a65b-4720-84d0-0df800389987" x1="185.126" y1="249.837" x2="175.111" y2="244.097"/>
  <line class="uuid-e7af1646-a65b-4720-84d0-0df800389987" x1="196.852" y1="243.512" x2="174.868" y2="230.858"/>
  <line class="uuid-e7af1646-a65b-4720-84d0-0df800389987" x1="207.6" y1="236.72" x2="200.759" y2="232.713"/>
  <line class="uuid-e7af1646-a65b-4720-84d0-0df800389987" x1="219.083" y1="230.27" x2="208.578" y2="224.261"/>
  <line class="uuid-e7af1646-a65b-4720-84d0-0df800389987" x1="226.409" y1="221.454" x2="215.419" y2="215.247"/>
</svg>