<?xml version="1.0" encoding="UTF-8"?>
<svg id="uuid-019a46b0-e868-40b6-b553-31a76801bb6e" data-name="&amp;lt;Layer&amp;gt;" xmlns="http://www.w3.org/2000/svg" viewBox="0 0 451.11 451.11">
  <defs>
    <style>
      .uuid-0d6abcc1-d847-4e05-874a-15425f67a40d, .uuid-24e0fc59-abbd-4c5d-99da-4ae1d630f887, .uuid-4b922368-9473-4c02-ae19-9a12802861f9, .uuid-c8381732-299d-44f3-ac16-1ee5f255b224, .uuid-9e9fcbbe-845e-41ad-b021-6e1ac4046230 {
        fill: none;
        stroke: #000;
        stroke-linecap: round;
      }

      .uuid-0d6abcc1-d847-4e05-874a-15425f67a40d, .uuid-9e9fcbbe-845e-41ad-b021-6e1ac4046230 {
        stroke-linejoin: round;
        stroke-width: 4.113px;
      }

      .uuid-24e0fc59-abbd-4c5d-99da-4ae1d630f887 {
        stroke-width: 1.163px;
      }

      .uuid-24e0fc59-abbd-4c5d-99da-4ae1d630f887, .uuid-4b922368-9473-4c02-ae19-9a12802861f9, .uuid-c8381732-299d-44f3-ac16-1ee5f255b224 {
        stroke-miterlimit: 10;
      }

      .uuid-4b922368-9473-4c02-ae19-9a12802861f9 {
        stroke-width: 1.167px;
      }

      .uuid-c8381732-299d-44f3-ac16-1ee5f255b224 {
        stroke-width: 1.159px;
      }

      .uuid-9e9fcbbe-845e-41ad-b021-6e1ac4046230 {
        fill-rule: evenodd;
      }
    </style>
  </defs>
  <polyline class="uuid-9e9fcbbe-845e-41ad-b021-6e1ac4046230" points="263.406 196.077 294.552 214.077 294.552 238.702"/>
  <path class="uuid-9e9fcbbe-845e-41ad-b021-6e1ac4046230" d="M294.552,238.702c0,.269-.073.559-.121.854-.052.173-.052.295-.126.415-.095.391-.269.806-.511,1.149-.173.367-.415.706-.71,1.001-.217.341-.585.588-.927.806"/>
  <path class="uuid-9e9fcbbe-845e-41ad-b021-6e1ac4046230" d="M263.406,196.077l31.146,17.999M358.186,226.781l-41.676-24.084-47.975-9.578"/>
  <polyline class="uuid-9e9fcbbe-845e-41ad-b021-6e1ac4046230" points="198.256 248.914 250.407 218.842 292.157 242.927"/>
  <path class="uuid-9e9fcbbe-845e-41ad-b021-6e1ac4046230" d="M178.811,308.321c-.417.221-.88.515-1.269.931-.637.463-1.221.927-1.759,1.442-1.442,1.343-2.786,3.102-3.838,4.887"/>
  <path class="uuid-9e9fcbbe-845e-41ad-b021-6e1ac4046230" d="M321.496,122.666c-.121-.07-.173-.121-.243-.121-.221-.221-.467-.343-.636-.391-.052-.073-.1-.073-.1-.073-.073-.048-.073,0-.073,0"/>
  <polyline class="uuid-9e9fcbbe-845e-41ad-b021-6e1ac4046230" points="320.444 122.082 320.444 122.034 279.21 98.165"/>
  <path class="uuid-9e9fcbbe-845e-41ad-b021-6e1ac4046230" d="M313.993,122.887c.467-.221.88-.463,1.343-.632.221-.1.467-.173.688-.221,1.171-.417,2.222-.537,3.198-.295.173,0,.341.052.536.099.221.074.443.148.685.244,0,0,0-.048.073,0,.048.073.048.121.1.073.169.17.415.269.636.391.07,0,.122.051.243.121"/>
  <polyline class="uuid-9e9fcbbe-845e-41ad-b021-6e1ac4046230" points="198.256 162.29 156.58 138.205 92.923 224.435 134.621 248.497"/>
  <polyline class="uuid-9e9fcbbe-845e-41ad-b021-6e1ac4046230" points="198.256 186.916 198.256 162.29 134.621 248.497 198.256 261.224 198.256 236.502"/>
  <polyline class="uuid-9e9fcbbe-845e-41ad-b021-6e1ac4046230" points="294.552 288.268 294.552 312.989 358.186 226.781 294.552 214.055 294.552 238.702"/>
  <path class="uuid-9e9fcbbe-845e-41ad-b021-6e1ac4046230" d="M169.064,346.652c0,3.098,1.1,5.273,2.832,6.299,1.811,1.005,4.253.883,6.914-.658"/>
  <line class="uuid-0d6abcc1-d847-4e05-874a-15425f67a40d" x1="292.157" y1="242.927" x2="250.407" y2="218.842"/>
  <path class="uuid-9e9fcbbe-845e-41ad-b021-6e1ac4046230" d="M250.407,218.842c1.516-1.049,2.322-2.391,2.443-4.25"/>
  <line class="uuid-0d6abcc1-d847-4e05-874a-15425f67a40d" x1="252.85" y1="214.592" x2="252.85" y2="202.16"/>
  <path class="uuid-9e9fcbbe-845e-41ad-b021-6e1ac4046230" d="M292.109,286.874c1.41-.776,2.443-.158,2.443,1.42"/>
  <line class="uuid-0d6abcc1-d847-4e05-874a-15425f67a40d" x1="294.552" y1="312.963" x2="270.732" y2="299.21"/>
  <line class="uuid-0d6abcc1-d847-4e05-874a-15425f67a40d" x1="171.944" y1="315.58" x2="130.272" y2="291.539"/>
  <path class="uuid-9e9fcbbe-845e-41ad-b021-6e1ac4046230" d="M130.272,291.539c1.906-3.197,3.64-5.276,6.84-7.33"/>
  <line class="uuid-0d6abcc1-d847-4e05-874a-15425f67a40d" x1="137.112" y1="284.209" x2="182.401" y2="258.097"/>
  <path class="uuid-9e9fcbbe-845e-41ad-b021-6e1ac4046230" d="M130.198,291.539c-1.781,3.275-2.663,5.814-2.832,9.578"/>
  <line class="uuid-0d6abcc1-d847-4e05-874a-15425f67a40d" x1="127.366" y1="301.117" x2="127.366" y2="322.563"/>
  <path class="uuid-9e9fcbbe-845e-41ad-b021-6e1ac4046230" d="M127.366,322.563c.121,2.469.389,4.106,2.196,5.861"/>
  <line class="uuid-0d6abcc1-d847-4e05-874a-15425f67a40d" x1="129.562" y1="328.424" x2="171.312" y2="352.514"/>
  <path class="uuid-9e9fcbbe-845e-41ad-b021-6e1ac4046230" d="M171.312,352.514c-1.859-1.759-2.153-3.397-2.248-5.862"/>
  <line class="uuid-0d6abcc1-d847-4e05-874a-15425f67a40d" x1="169.064" y1="346.652" x2="169.064" y2="325.201"/>
  <path class="uuid-9e9fcbbe-845e-41ad-b021-6e1ac4046230" d="M169.064,325.201c.173-3.76,1.1-6.303,2.832-9.599"/>
  <path class="uuid-9e9fcbbe-845e-41ad-b021-6e1ac4046230" d="M279.21,98.165c-2.539-1.221-4.518-.584-6.889.685"/>
  <line class="uuid-0d6abcc1-d847-4e05-874a-15425f67a40d" x1="272.321" y1="98.851" x2="180.327" y2="151.932"/>
  <path class="uuid-9e9fcbbe-845e-41ad-b021-6e1ac4046230" d="M199.062,188.527c.415.221,1.001.17,1.637-.173"/>
  <line class="uuid-0d6abcc1-d847-4e05-874a-15425f67a40d" x1="200.699" y1="188.354" x2="313.993" y2="122.887"/>
  <line class="uuid-0d6abcc1-d847-4e05-874a-15425f67a40d" x1="200.699" y1="232.278" x2="313.993" y2="166.859"/>
  <path class="uuid-9e9fcbbe-845e-41ad-b021-6e1ac4046230" d="M313.993,166.859c2.691-1.542,5.134-4.202,6.867-7.256"/>
  <line class="uuid-0d6abcc1-d847-4e05-874a-15425f67a40d" x1="320.86" y1="159.603" x2="320.908" y2="159.577"/>
  <path class="uuid-9e9fcbbe-845e-41ad-b021-6e1ac4046230" d="M320.908,159.577c1.737-3.053,2.858-6.494,2.858-9.573"/>
  <line class="uuid-0d6abcc1-d847-4e05-874a-15425f67a40d" x1="323.766" y1="150.005" x2="323.766" y2="128.532"/>
  <path class="uuid-9e9fcbbe-845e-41ad-b021-6e1ac4046230" d="M323.766,128.532c0-6.182-4.422-8.72-9.773-5.619"/>
  <path class="uuid-9e9fcbbe-845e-41ad-b021-6e1ac4046230" d="M200.699,188.332c-1.321.78-2.443.144-2.443-1.416"/>
  <path class="uuid-9e9fcbbe-845e-41ad-b021-6e1ac4046230" d="M198.256,236.502c0-1.56,1.121-3.444,2.443-4.224"/>
  <line class="uuid-0d6abcc1-d847-4e05-874a-15425f67a40d" x1="178.811" y1="352.293" x2="292.109" y2="286.874"/>
  <line class="uuid-0d6abcc1-d847-4e05-874a-15425f67a40d" x1="292.109" y1="242.905" x2="178.811" y2="308.321"/>
  <line class="uuid-c8381732-299d-44f3-ac16-1ee5f255b224" x1="110.584" y1="232.569" x2="101.006" y2="216.008"/>
  <line class="uuid-c8381732-299d-44f3-ac16-1ee5f255b224" x1="140.655" y1="239.508" x2="115.102" y2="195.293"/>
  <line class="uuid-c8381732-299d-44f3-ac16-1ee5f255b224" x1="155.284" y1="219.7" x2="129.734" y2="175.459"/>
  <line class="uuid-c8381732-299d-44f3-ac16-1ee5f255b224" x1="169.917" y1="199.886" x2="144.368" y2="155.648"/>
  <line class="uuid-c8381732-299d-44f3-ac16-1ee5f255b224" x1="184.38" y1="179.781" x2="163.641" y2="143.848"/>
  <line class="uuid-c8381732-299d-44f3-ac16-1ee5f255b224" x1="207.782" y1="182.446" x2="200.111" y2="169.129"/>
  <line class="uuid-c8381732-299d-44f3-ac16-1ee5f255b224" x1="193.148" y1="157.113" x2="188.63" y2="149.199"/>
  <line class="uuid-c8381732-299d-44f3-ac16-1ee5f255b224" x1="227.765" y1="171.867" x2="207.66" y2="137.031"/>
  <line class="uuid-c8381732-299d-44f3-ac16-1ee5f255b224" x1="247.331" y1="160.556" x2="227.253" y2="125.746"/>
  <line class="uuid-c8381732-299d-44f3-ac16-1ee5f255b224" x1="266.85" y1="149.273" x2="246.747" y2="114.462"/>
  <line class="uuid-c8381732-299d-44f3-ac16-1ee5f255b224" x1="286.417" y1="137.984" x2="266.335" y2="103.173"/>
  <line class="uuid-c8381732-299d-44f3-ac16-1ee5f255b224" x1="305.642" y1="126.088" x2="296.407" y2="110.112"/>
  <line class="uuid-c8381732-299d-44f3-ac16-1ee5f255b224" x1="191.636" y1="343.84" x2="174.34" y2="313.89"/>
  <line class="uuid-c8381732-299d-44f3-ac16-1ee5f255b224" x1="211.203" y1="332.603" x2="193.054" y2="301.139"/>
  <line class="uuid-c8381732-299d-44f3-ac16-1ee5f255b224" x1="230.793" y1="321.294" x2="212.594" y2="289.828"/>
  <line class="uuid-c8381732-299d-44f3-ac16-1ee5f255b224" x1="250.363" y1="310.009" x2="232.187" y2="278.543"/>
  <line class="uuid-c8381732-299d-44f3-ac16-1ee5f255b224" x1="269.878" y1="298.721" x2="251.754" y2="267.28"/>
  <line class="uuid-4b922368-9473-4c02-ae19-9a12802861f9" x1="298.972" y1="303.901" x2="294.217" y2="295.899"/>
  <line class="uuid-c8381732-299d-44f3-ac16-1ee5f255b224" x1="289.446" y1="287.436" x2="271.272" y2="255.996"/>
  <line class="uuid-c8381732-299d-44f3-ac16-1ee5f255b224" x1="314.24" y1="285.287" x2="290.667" y2="244.417"/>
  <line class="uuid-c8381732-299d-44f3-ac16-1ee5f255b224" x1="329.042" y1="265.742" x2="300.241" y2="215.839"/>
  <line class="uuid-c8381732-299d-44f3-ac16-1ee5f255b224" x1="343.165" y1="245.027" x2="330.191" y2="222.628"/>
  <line class="uuid-c8381732-299d-44f3-ac16-1ee5f255b224" x1="167.257" y1="334.679" x2="161.393" y2="344.841"/>
  <line class="uuid-c8381732-299d-44f3-ac16-1ee5f255b224" x1="166.377" y1="313.599" x2="151.355" y2="339.739"/>
  <line class="uuid-c8381732-299d-44f3-ac16-1ee5f255b224" x1="156.632" y1="307.956" x2="141.535" y2="334.094"/>
  <line class="uuid-c8381732-299d-44f3-ac16-1ee5f255b224" x1="146.859" y1="302.312" x2="131.762" y2="328.45"/>
  <line class="uuid-c8381732-299d-44f3-ac16-1ee5f255b224" x1="136.822" y1="297.088" x2="129.219" y2="310.23"/>
  <line class="uuid-c8381732-299d-44f3-ac16-1ee5f255b224" x1="292.815" y1="220.015" x2="283.463" y2="236.209"/>
  <line class="uuid-24e0fc59-abbd-4c5d-99da-4ae1d630f887" x1="293.128" y1="196.986" x2="273.565" y2="230.714"/>
  <line class="uuid-24e0fc59-abbd-4c5d-99da-4ae1d630f887" x1="276.703" y1="202.814" x2="263.818" y2="225.071"/>
  <line class="uuid-24e0fc59-abbd-4c5d-99da-4ae1d630f887" x1="269.216" y1="193.067" x2="254.071" y2="219.427"/>
  <line class="uuid-c8381732-299d-44f3-ac16-1ee5f255b224" x1="279.92" y1="237.529" x2="270.905" y2="253.188"/>
  <line class="uuid-c8381732-299d-44f3-ac16-1ee5f255b224" x1="270.514" y1="231.3" x2="250.996" y2="265.058"/>
  <line class="uuid-c8381732-299d-44f3-ac16-1ee5f255b224" x1="261.036" y1="225.045" x2="231.134" y2="276.931"/>
  <line class="uuid-c8381732-299d-44f3-ac16-1ee5f255b224" x1="251.46" y1="219.11" x2="211.203" y2="288.779"/>
  <line class="uuid-c8381732-299d-44f3-ac16-1ee5f255b224" x1="231.892" y1="230.373" x2="191.706" y2="300.064"/>
  <line class="uuid-c8381732-299d-44f3-ac16-1ee5f255b224" x1="212.425" y1="241.51" x2="169.917" y2="315.186"/>
  <line class="uuid-c8381732-299d-44f3-ac16-1ee5f255b224" x1="188.899" y1="259.639" x2="160.587" y2="308.762"/>
  <line class="uuid-c8381732-299d-44f3-ac16-1ee5f255b224" x1="172.654" y1="265.279" x2="151.061" y2="302.727"/>
  <line class="uuid-c8381732-299d-44f3-ac16-1ee5f255b224" x1="152.745" y1="277.152" x2="141.583" y2="296.498"/>
  <line class="uuid-24e0fc59-abbd-4c5d-99da-4ae1d630f887" x1="294.626" y1="296.947" x2="287.168" y2="309.861"/>
  <line class="uuid-24e0fc59-abbd-4c5d-99da-4ae1d630f887" x1="285.744" y1="289.762" x2="277.274" y2="304.366"/>
  <line class="uuid-c8381732-299d-44f3-ac16-1ee5f255b224" x1="316.286" y1="202.104" x2="307.301" y2="217.682"/>
  <line class="uuid-24e0fc59-abbd-4c5d-99da-4ae1d630f887" x1="335.64" y1="213.757" x2="331.629" y2="220.707"/>
</svg>