<?xml version="1.0" encoding="UTF-8"?>
<svg id="uuid-f54a99f7-47c6-4b5b-b48a-a153e29b62cd" data-name="&amp;lt;Layer&amp;gt;" xmlns="http://www.w3.org/2000/svg" viewBox="0 0 451.11 451.11">
  <defs>
    <style>
      .uuid-e58b2276-e19a-46d4-b160-e6827c6ef617, .uuid-cf0516e5-4a0c-43bb-991f-d5c4086f7eba, .uuid-61ae52eb-3feb-489a-82d1-590f77943a69 {
        fill: none;
        stroke: #000;
        stroke-linecap: round;
      }

      .uuid-e58b2276-e19a-46d4-b160-e6827c6ef617, .uuid-61ae52eb-3feb-489a-82d1-590f77943a69 {
        stroke-linejoin: round;
        stroke-width: 4.117px;
      }

      .uuid-cf0516e5-4a0c-43bb-991f-d5c4086f7eba {
        stroke-miterlimit: 10;
        stroke-width: 1.163px;
      }

      .uuid-61ae52eb-3feb-489a-82d1-590f77943a69 {
        fill-rule: evenodd;
      }
    </style>
  </defs>
  <path class="uuid-61ae52eb-3feb-489a-82d1-590f77943a69" d="M137.002,325.652c2.056,4.669,4.768,8.51,8.797,12.899,15.145,15.119,36.151,22.79,56.916,26.551,15.145,2.543,29.314,3.006,44.704,1.589,22.227-2.369,37.619-7.204,56.917-18.319"/>
  <path class="uuid-61ae52eb-3feb-489a-82d1-590f77943a69" d="M287.727,72.92c1.222-2.2,2.196-3.517,7.815-3.517,5.86,0,18.319,7.13,21.252,12.19,2.932,5.03,2.196,6.377.732,8.573-3.176,5.57-15.388,28.875-20.52,34.663"/>
  <polyline class="uuid-61ae52eb-3feb-489a-82d1-590f77943a69" points="202.225 216.239 199.297 221.367 198.561 223.274 198.318 225.474"/>
  <polyline class="uuid-61ae52eb-3feb-489a-82d1-590f77943a69" points="227.875 242.549 229.829 241.328 231.05 239.765 234.225 234.415"/>
  <path class="uuid-61ae52eb-3feb-489a-82d1-590f77943a69" d="M247.419,380.908c-15.39,1.417-29.559.98-44.704-1.563-20.765-3.76-41.771-11.458-56.916-26.577-12.215-13.337-12.215-21.13-12.215-37.912"/>
  <path class="uuid-61ae52eb-3feb-489a-82d1-590f77943a69" d="M134.072,307.432c-.247,1.316-.247,2.66-.247,4.003,0,3.837.489,7.597,1.955,11.383.247.927.736,1.855,1.221,2.833v.415"/>
  <path class="uuid-61ae52eb-3feb-489a-82d1-590f77943a69" d="M169.738,354.991c.243.1.489.221.732.343.243.121.489.221.732.291,0,.051.247.099.247.099"/>
  <polyline class="uuid-61ae52eb-3feb-489a-82d1-590f77943a69" points="304.336 348.347 299.939 345.878 287.48 338.674 283.084 336.109 278.44 338.843"/>
  <path class="uuid-61ae52eb-3feb-489a-82d1-590f77943a69" d="M278.44,338.843c-25.079,14.125-61.066,14.728-87.451,3.764"/>
  <polyline class="uuid-61ae52eb-3feb-489a-82d1-590f77943a69" points="162.165 271.717 166.804 269.027 170.959 271.47 175.109 273.839"/>
  <polyline class="uuid-61ae52eb-3feb-489a-82d1-590f77943a69" points="169.738 327.973 169.738 354.991 169.738 354.918 190.988 342.681 190.988 342.607"/>
  <polyline class="uuid-61ae52eb-3feb-489a-82d1-590f77943a69" points="272.09 205.05 272.09 205.101 271.847 205.149"/>
  <path class="uuid-61ae52eb-3feb-489a-82d1-590f77943a69" d="M271.847,205.149c-.718,6.494-3.662,15.781-6.734,23.39-5.415,13.419-13.275,26.338-22.66,37.449-3.367,3.989-6.495,7.3-10.424,10.711"/>
  <path class="uuid-61ae52eb-3feb-489a-82d1-590f77943a69" d="M256.456,231.36c-.136.287-.275.578-.411.862-7.55,15.581-18.125,30.215-29.88,41.105"/>
  <path class="uuid-61ae52eb-3feb-489a-82d1-590f77943a69" d="M245.708,284.59c.732-.758,1.464-1.564,2.2-2.369,23.386-28.486,41.313-60.504,42.504-98.251"/>
  <path class="uuid-61ae52eb-3feb-489a-82d1-590f77943a69" d="M297.742,183.212c1.715,5.346,3.399,8.495,4.396,14.68,4.845,32.886-15.891,72.039-38.353,93.806-.732.68-1.464,1.39-2.2,2.074"/>
  <path class="uuid-61ae52eb-3feb-489a-82d1-590f77943a69" d="M210.287,334.766c25.981,2.286,50.974-17.484,67.178-35.469,13.68-16.686,23.206-29.854,31.51-50.348,7.087-17.149,10.994-34.906,10.994-51.445,0-13.364-2.443-24.527-7.33-33.052"/>
  <polyline class="uuid-61ae52eb-3feb-489a-82d1-590f77943a69" points="164.851 318.691 135.294 301.615 135.294 301.541 131.14 299.246 137.738 295.46 175.109 273.839 201.25 258.868 226.164 273.327 232.029 276.698 232.029 276.772 245.708 284.59 255.724 290.356 261.585 293.773 261.585 293.773 265.739 296.144 201.74 333.155 195.875 336.524 190.746 333.618 169.738 321.429"/>
  <polygon class="uuid-61ae52eb-3feb-489a-82d1-590f77943a69" points="195.875 336.524 195.875 343.07 190.988 340.359 190.988 340.285 170.47 328.511 169.738 327.973 155.325 319.666 134.072 307.432 131.14 305.79 131.14 299.246 135.294 301.541 135.294 301.615 164.851 318.691 169.738 321.429 190.746 333.618 195.875 336.524"/>
  <polygon class="uuid-61ae52eb-3feb-489a-82d1-590f77943a69" points="265.739 296.144 265.739 302.715 210.287 334.766 210.287 334.766 195.875 343.07 195.875 336.524 201.74 333.155 265.739 296.144"/>
  <path class="uuid-61ae52eb-3feb-489a-82d1-590f77943a69" d="M281.129,116.009s.244,0,.244.074c.489.125.979.295,1.468.563,1.707,1.005,8.546,5.008,14.165,8.183,3.175,1.811,5.864,3.371,6.596,3.911,4.398,2.491,5.13,9.574,2.197,16.999"/>
  <path class="uuid-61ae52eb-3feb-489a-82d1-590f77943a69" d="M219.813,226.184v.048s.247,0,.247.074v.095s0,.074.243.074c3.664,2.148,9.041,5.106,13.922,7.94,2.444,1.391,4.644,2.686,6.355,3.738,4.154,2.417,10.747-.588,15.876-6.792v-.073c.979-1.149,1.711-2.444,2.687-3.838"/>
  <polyline class="uuid-61ae52eb-3feb-489a-82d1-590f77943a69" points="259.143 227.45 271.847 205.443 271.847 205.149 272.09 205.101 272.09 205.05 285.527 181.406"/>
  <polyline class="uuid-61ae52eb-3feb-489a-82d1-590f77943a69" points="288.949 183.382 288.949 183.334 285.527 181.406 282.105 179.378"/>
  <path class="uuid-61ae52eb-3feb-489a-82d1-590f77943a69" d="M282.105,179.378c-8.305-5.692-2.93-20.155,2.2-26.948,8.794-11.969,15.144-10.232,21.495-6.692.979.589,2.2,1.221,3.175,1.885.247.047.247.095.489.221h0v.048h0"/>
  <path class="uuid-61ae52eb-3feb-489a-82d1-590f77943a69" d="M288.949,183.334v-.074c-.979-.879-1.957-1.979-2.443-3.124-1.468-2.517-1.958-5.475-1.468-8.672v-1.027c0-.125.247-.195.247-.295,0-.463,0-.975.243-1.464,0-.636.243-1.272.489-1.953.489-1.931,1.221-3.911,2.196-5.77"/>
  <path class="uuid-61ae52eb-3feb-489a-82d1-590f77943a69" d="M288.213,160.909c1.221-2.028,2.443-3.956,3.911-5.693.487-.632.976-1.144,1.465-1.733.489-.463.979-.953,1.464-1.342.489-.417.979-.806,1.222-1.223.489-.293.732-.512,1.221-.757"/>
  <path class="uuid-61ae52eb-3feb-489a-82d1-590f77943a69" d="M288.949,183.382c.485.293.975.463,1.464.588.975.343,1.953.463,3.176.343,1.221-.048,2.443-.417,3.907-1.053l.247-.048c.486-.243.975-.537,1.464-.831,6.108-3.467,11.237-10.675,13.433-17.931.732-2.443,1.221-4.886,1.221-7.204,0-4.595-1.711-7.844-4.396-9.356v-.048.048"/>
  <path class="uuid-61ae52eb-3feb-489a-82d1-590f77943a69" d="M309.465,147.843c-.243-.126-.243-.174-.489-.221-.975-.541-2.196-.758-3.66-.663-1.957.074-3.912.71-6.108,1.933-.979.584-1.953,1.269-2.932,2.026-.243.417-.732.806-1.222,1.223-.485.389-.975.879-1.464,1.342-1.955,2.2-3.908,4.813-5.13,7.599-.979,1.807-1.953,3.712-2.443,5.644-.247.681-.489,1.317-.489,1.953-.243.489-.243,1.001-.243,1.464,0,.1-.247.17-.247.295v1.027"/>
  <path class="uuid-61ae52eb-3feb-489a-82d1-590f77943a69" d="M267.935,108.293c0-.688.247-1.346.489-2.031"/>
  <line class="uuid-e58b2276-e19a-46d4-b160-e6827c6ef617" x1="268.425" y1="106.262" x2="287.727" y2="72.92"/>
  <path class="uuid-61ae52eb-3feb-489a-82d1-590f77943a69" d="M198.318,225.474c2.686,11.869,18.077,20.737,29.557,17.075"/>
  <line class="uuid-e58b2276-e19a-46d4-b160-e6827c6ef617" x1="304.336" y1="348.373" x2="304.336" y2="362.616"/>
  <path class="uuid-61ae52eb-3feb-489a-82d1-590f77943a69" d="M304.336,362.616c-19.299,11.089-34.69,15.924-56.917,18.293"/>
  <path class="uuid-61ae52eb-3feb-489a-82d1-590f77943a69" d="M137.738,295.46c.975-1.859,2.196-3.712,3.418-5.519"/>
  <line class="uuid-e58b2276-e19a-46d4-b160-e6827c6ef617" x1="141.156" y1="289.941" x2="141.156" y2="289.892"/>
  <path class="uuid-61ae52eb-3feb-489a-82d1-590f77943a69" d="M141.156,289.892c4.643-6.624,11.726-12.779,21.009-18.176"/>
  <line class="uuid-e58b2276-e19a-46d4-b160-e6827c6ef617" x1="169.738" y1="327.973" x2="169.738" y2="354.991"/>
  <line class="uuid-e58b2276-e19a-46d4-b160-e6827c6ef617" x1="155.325" y1="346.488" x2="155.325" y2="319.666"/>
  <line class="uuid-e58b2276-e19a-46d4-b160-e6827c6ef617" x1="220.545" y1="226.743" x2="190.988" y2="209.693"/>
  <path class="uuid-61ae52eb-3feb-489a-82d1-590f77943a69" d="M190.988,209.693c-6.839-4.739-3.175-15.538,0-21.373"/>
  <line class="uuid-e58b2276-e19a-46d4-b160-e6827c6ef617" x1="190.988" y1="188.32" x2="235.693" y2="111.001"/>
  <path class="uuid-61ae52eb-3feb-489a-82d1-590f77943a69" d="M235.693,111.001c3.419-5.666,10.748-14.165,18.32-10.673"/>
  <line class="uuid-e58b2276-e19a-46d4-b160-e6827c6ef617" x1="254.013" y1="100.327" x2="283.573" y2="117.378"/>
  <path class="uuid-61ae52eb-3feb-489a-82d1-590f77943a69" d="M283.573,117.378c-8.062-2.907-14.66,4.496-18.324,10.7"/>
  <line class="uuid-e58b2276-e19a-46d4-b160-e6827c6ef617" x1="265.25" y1="128.077" x2="220.545" y2="205.391"/>
  <path class="uuid-61ae52eb-3feb-489a-82d1-590f77943a69" d="M220.545,205.391c-3.418,6.377-6.594,15.881,0,21.352"/>
  <path class="uuid-61ae52eb-3feb-489a-82d1-590f77943a69" d="M293.589,184.313c11.969,30.778-9.041,79.514-37.865,106.043"/>
  <line class="uuid-cf0516e5-4a0c-43bb-991f-d5c4086f7eba" x1="143.841" y1="304.326" x2="139.202" y2="296.585"/>
  <line class="uuid-cf0516e5-4a0c-43bb-991f-d5c4086f7eba" x1="163.629" y1="316.1" x2="148.728" y2="290.33"/>
  <line class="uuid-cf0516e5-4a0c-43bb-991f-d5c4086f7eba" x1="183.417" y1="327.852" x2="158.257" y2="284.149"/>
  <line class="uuid-cf0516e5-4a0c-43bb-991f-d5c4086f7eba" x1="200.272" y1="334.13" x2="167.783" y2="278.066"/>
  <line class="uuid-cf0516e5-4a0c-43bb-991f-d5c4086f7eba" x1="209.798" y1="328.511" x2="177.552" y2="272.423"/>
  <line class="uuid-cf0516e5-4a0c-43bb-991f-d5c4086f7eba" x1="219.57" y1="322.845" x2="187.324" y2="266.804"/>
  <line class="uuid-cf0516e5-4a0c-43bb-991f-d5c4086f7eba" x1="229.586" y1="317.179" x2="197.097" y2="261.112"/>
  <line class="uuid-cf0516e5-4a0c-43bb-991f-d5c4086f7eba" x1="238.869" y1="311.141" x2="213.951" y2="267.588"/>
  <line class="uuid-cf0516e5-4a0c-43bb-991f-d5c4086f7eba" x1="248.395" y1="304.89" x2="233.739" y2="279.508"/>
  <line class="uuid-cf0516e5-4a0c-43bb-991f-d5c4086f7eba" x1="257.924" y1="298.686" x2="253.527" y2="291.283"/>
  <line class="uuid-cf0516e5-4a0c-43bb-991f-d5c4086f7eba" x1="246.198" y1="258.11" x2="243.512" y2="256.62"/>
  <line class="uuid-cf0516e5-4a0c-43bb-991f-d5c4086f7eba" x1="258.166" y1="238.933" x2="255.724" y2="237.491"/>
  <line class="uuid-cf0516e5-4a0c-43bb-991f-d5c4086f7eba" x1="211.751" y1="238.859" x2="201.493" y2="220.978"/>
  <line class="uuid-cf0516e5-4a0c-43bb-991f-d5c4086f7eba" x1="226.164" y1="241.45" x2="218.106" y2="227.379"/>
  <line class="uuid-cf0516e5-4a0c-43bb-991f-d5c4086f7eba" x1="204.427" y1="215.529" x2="190.746" y2="191.98"/>
  <line class="uuid-cf0516e5-4a0c-43bb-991f-d5c4086f7eba" x1="222.013" y1="201.043" x2="203.448" y2="168.749"/>
  <line class="uuid-cf0516e5-4a0c-43bb-991f-d5c4086f7eba" x1="234.961" y1="178.496" x2="216.395" y2="146.227"/>
  <line class="uuid-cf0516e5-4a0c-43bb-991f-d5c4086f7eba" x1="247.908" y1="155.948" x2="229.343" y2="123.706"/>
  <line class="uuid-cf0516e5-4a0c-43bb-991f-d5c4086f7eba" x1="261.1" y1="133.159" x2="243.755" y2="103.087"/>
  <line class="uuid-cf0516e5-4a0c-43bb-991f-d5c4086f7eba" x1="273.801" y1="109.489" x2="271.358" y2="105.092"/>
  <line class="uuid-cf0516e5-4a0c-43bb-991f-d5c4086f7eba" x1="293.589" y1="121.09" x2="277.465" y2="93.171"/>
  <line class="uuid-cf0516e5-4a0c-43bb-991f-d5c4086f7eba" x1="302.871" y1="114.496" x2="283.816" y2="81.666"/>
  <line class="uuid-cf0516e5-4a0c-43bb-991f-d5c4086f7eba" x1="309.222" y1="103.139" x2="290.655" y2="70.941"/>
  <line class="uuid-cf0516e5-4a0c-43bb-991f-d5c4086f7eba" x1="315.326" y1="91.192" x2="306.047" y2="74.826"/>
  <line class="uuid-cf0516e5-4a0c-43bb-991f-d5c4086f7eba" x1="297.496" y1="181.77" x2="288.213" y2="165.6"/>
  <line class="uuid-cf0516e5-4a0c-43bb-991f-d5c4086f7eba" x1="306.047" y1="174.32" x2="294.568" y2="154.462"/>
  <line class="uuid-cf0516e5-4a0c-43bb-991f-d5c4086f7eba" x1="311.665" y1="161.35" x2="304.336" y2="148.766"/>
  <line class="uuid-cf0516e5-4a0c-43bb-991f-d5c4086f7eba" x1="292.366" y1="356.776" x2="284.548" y2="370.478"/>
  <line class="uuid-cf0516e5-4a0c-43bb-991f-d5c4086f7eba" x1="275.997" y1="362.928" x2="268.671" y2="375.633"/>
  <line class="uuid-cf0516e5-4a0c-43bb-991f-d5c4086f7eba" x1="260.611" y1="366.545" x2="253.77" y2="378.417"/>
  <line class="uuid-cf0516e5-4a0c-43bb-991f-d5c4086f7eba" x1="246.687" y1="368.476" x2="240.09" y2="379.735"/>
  <line class="uuid-cf0516e5-4a0c-43bb-991f-d5c4086f7eba" x1="233.25" y1="369.182" x2="226.9" y2="379.956"/>
  <line class="uuid-cf0516e5-4a0c-43bb-991f-d5c4086f7eba" x1="220.302" y1="368.841" x2="214.195" y2="379.151"/>
  <line class="uuid-cf0516e5-4a0c-43bb-991f-d5c4086f7eba" x1="208.091" y1="367.623" x2="202.225" y2="377.513"/>
  <line class="uuid-cf0516e5-4a0c-43bb-991f-d5c4086f7eba" x1="196.122" y1="365.47" x2="190.746" y2="374.901"/>
  <line class="uuid-cf0516e5-4a0c-43bb-991f-d5c4086f7eba" x1="184.881" y1="362.49" x2="179.752" y2="371.456"/>
  <line class="uuid-cf0516e5-4a0c-43bb-991f-d5c4086f7eba" x1="174.134" y1="358.777" x2="169.248" y2="367.012"/>
  <line class="uuid-cf0516e5-4a0c-43bb-991f-d5c4086f7eba" x1="163.629" y1="353.918" x2="159.479" y2="361.394"/>
  <line class="uuid-cf0516e5-4a0c-43bb-991f-d5c4086f7eba" x1="154.103" y1="348.052" x2="150.439" y2="354.55"/>
  <line class="uuid-cf0516e5-4a0c-43bb-991f-d5c4086f7eba" x1="145.309" y1="340.675" x2="142.377" y2="345.661"/>
  <line class="uuid-cf0516e5-4a0c-43bb-991f-d5c4086f7eba" x1="137.738" y1="331.244" x2="136.759" y2="332.834"/>
  <line class="uuid-cf0516e5-4a0c-43bb-991f-d5c4086f7eba" x1="167.783" y1="336.62" x2="161.186" y2="348.299"/>
  <line class="uuid-cf0516e5-4a0c-43bb-991f-d5c4086f7eba" x1="161.433" y1="325.236" x2="157.278" y2="332.467"/>
  <line class="uuid-cf0516e5-4a0c-43bb-991f-d5c4086f7eba" x1="259.389" y1="302.204" x2="257.677" y2="305.132"/>
  <line class="uuid-cf0516e5-4a0c-43bb-991f-d5c4086f7eba" x1="239.848" y1="313.415" x2="238.137" y2="316.443"/>
  <line class="uuid-cf0516e5-4a0c-43bb-991f-d5c4086f7eba" x1="220.302" y1="324.75" x2="218.592" y2="327.778"/>
  <line class="uuid-cf0516e5-4a0c-43bb-991f-d5c4086f7eba" x1="200.518" y1="336.061" x2="199.05" y2="338.989"/>
  <line class="uuid-cf0516e5-4a0c-43bb-991f-d5c4086f7eba" x1="275.265" y1="275.724" x2="272.579" y2="274.255"/>
  <line class="uuid-cf0516e5-4a0c-43bb-991f-d5c4086f7eba" x1="287.48" y1="256.646" x2="284.795" y2="255.103"/>
  <line class="uuid-cf0516e5-4a0c-43bb-991f-d5c4086f7eba" x1="296.274" y1="235.71" x2="293.589" y2="234.22"/>
  <line class="uuid-cf0516e5-4a0c-43bb-991f-d5c4086f7eba" x1="300.671" y1="212.184" x2="298.717" y2="211.036"/>
  <line class="uuid-cf0516e5-4a0c-43bb-991f-d5c4086f7eba" x1="283.816" y1="167.311" x2="280.397" y2="165.331"/>
  <line class="uuid-cf0516e5-4a0c-43bb-991f-d5c4086f7eba" x1="288.459" y1="156.953" x2="285.038" y2="154.925"/>
  <line class="uuid-cf0516e5-4a0c-43bb-991f-d5c4086f7eba" x1="296.521" y1="148.501" x2="292.855" y2="146.522"/>
  <line class="uuid-cf0516e5-4a0c-43bb-991f-d5c4086f7eba" x1="185.128" y1="332.64" x2="184.149" y2="334.03"/>
  <line class="uuid-cf0516e5-4a0c-43bb-991f-d5c4086f7eba" x1="175.109" y1="326.972" x2="174.377" y2="328.338"/>
  <line class="uuid-cf0516e5-4a0c-43bb-991f-d5c4086f7eba" x1="165.34" y1="321.329" x2="164.608" y2="322.72"/>
  <line class="uuid-cf0516e5-4a0c-43bb-991f-d5c4086f7eba" x1="155.567" y1="315.711" x2="154.835" y2="317.101"/>
  <line class="uuid-cf0516e5-4a0c-43bb-991f-d5c4086f7eba" x1="145.799" y1="310.044" x2="145.063" y2="311.435"/>
  <line class="uuid-cf0516e5-4a0c-43bb-991f-d5c4086f7eba" x1="136.027" y1="304.426" x2="135.294" y2="305.816"/>
</svg>