<?xml version="1.0" encoding="UTF-8"?>
<svg id="uuid-c1dbda0a-c841-4670-8f8e-fff989f737c5" data-name="&amp;lt;Layer&amp;gt;" xmlns="http://www.w3.org/2000/svg" viewBox="0 0 451.11 451.11">
  <defs>
    <style>
      .uuid-fa29c0c1-9b40-40d9-b509-467fe465b74e, .uuid-02e3d8f6-fc9f-467c-9524-dff3c82ec2e6, .uuid-3e5b2ea9-b76b-43ee-bb9a-64ad2f63d07f {
        fill: none;
        stroke: #000;
        stroke-linecap: round;
      }

      .uuid-fa29c0c1-9b40-40d9-b509-467fe465b74e, .uuid-3e5b2ea9-b76b-43ee-bb9a-64ad2f63d07f {
        stroke-linejoin: round;
        stroke-width: 4.117px;
      }

      .uuid-02e3d8f6-fc9f-467c-9524-dff3c82ec2e6 {
        stroke-miterlimit: 10;
        stroke-width: 1.163px;
      }

      .uuid-3e5b2ea9-b76b-43ee-bb9a-64ad2f63d07f {
        fill-rule: evenodd;
      }
    </style>
  </defs>
  <path class="uuid-3e5b2ea9-b76b-43ee-bb9a-64ad2f63d07f" d="M324.203,114.73c11.237,3.712,19.787,12.532,24.427,26.308.489,1.027.489,2.248-.243,3.764-.489,1.438-1.221,2.66-2.443,3.664"/>
  <path class="uuid-3e5b2ea9-b76b-43ee-bb9a-64ad2f63d07f" d="M340.815,152.985c-1.468,1.343-2.932,1.634-3.911.88-.243-.122-.243-.247-.485-.467,0-.17-.247-.339-.247-.633-.732-1.807-1.464-3.323-2.198-4.813-.245-.758-.735-1.464-.979-2.222-.489-.563-.732-1.221-1.221-1.857,0-.243-.243-.413-.243-.633-.489-.588-.979-1.101-1.221-1.637-.489-.515-.979-1.027-1.468-1.564-.243-.515-.732-.979-1.221-1.394-.975-.928-1.707-1.734-2.686-2.488-.489-.419-.979-.758-1.711-1.099-.489-.417-.976-.758-1.711-1.101-.487-.415-1.223-.758-1.708-1.099"/>
  <polyline class="uuid-3e5b2ea9-b76b-43ee-bb9a-64ad2f63d07f" points="336.904 153.865 336.661 153.691 301.24 133.293"/>
  <path class="uuid-3e5b2ea9-b76b-43ee-bb9a-64ad2f63d07f" d="M303.683,161.484v.048c.732.393,1.711.81,2.443,1.346,0,.048.243.096.243.221.736.511,1.468,1.049,2.2,1.734.732.658,1.221,1.39,1.953,2.222.489.853,1.223,1.733,1.712,2.66.243.541.485,1.053.732,1.616.243.363.243.584.489.879,0,.169.243.343.243.585v.173c.243.411.732.806,1.221,1.101"/>
  <path class="uuid-3e5b2ea9-b76b-43ee-bb9a-64ad2f63d07f" d="M229.907,142.36c-.485-2.713,1.221-5.792,3.179-7.502,1.223-.854,2.198-1.733,3.419-2.539"/>
  <path class="uuid-3e5b2ea9-b76b-43ee-bb9a-64ad2f63d07f" d="M266.065,163.221c-.247-.662-.247-1.343,0-2.101,0-.221,0-.463.243-.684,0-.295,0-.588.244-.879,0-.221,0-.463.245-.71v-.096c.244-.537.487-1.005.976-1.468v-.048c.247-.463.732-.879.979-1.221"/>
  <path class="uuid-3e5b2ea9-b76b-43ee-bb9a-64ad2f63d07f" d="M271.437,153.938c.732-.489,1.221-.953,1.953-1.342,1.221-.832,2.2-1.516,3.422-2.226"/>
  <path class="uuid-3e5b2ea9-b76b-43ee-bb9a-64ad2f63d07f" d="M276.812,150.322c.243-.122.487-.221.732-.343h0c.976-.632,1.955-1.221,3.176-1.807.243-.121.489-.293.979-.463,1.464-.806,3.175-1.468,4.639-2.028.979-.415,1.711-.758,2.689-1.051.976-.291,1.955-.585,2.93-.758.732-.243,1.468-.465,2.443-.585,1.711-.343,3.421-.563,4.886-.563,3.423-.195,6.84.1,9.773,1.053,1.221.343,2.44.78,3.419,1.317"/>
  <path class="uuid-3e5b2ea9-b76b-43ee-bb9a-64ad2f63d07f" d="M326.157,115.39c-7.33-2.591-12.216-3.028-19.788-2.466-1.707.17-4.639.633-6.104,1.001-14.169,3.05-26.142,10.575-37.132,19.369-1.711,1.394-3.175,3.885-3.175,6.108"/>
  <polyline class="uuid-3e5b2ea9-b76b-43ee-bb9a-64ad2f63d07f" points="259.957 139.401 259.957 140.721 261.421 145.825"/>
  <path class="uuid-3e5b2ea9-b76b-43ee-bb9a-64ad2f63d07f" d="M313.698,172.795c-6.351-15.976-23.938-17.566-41.772-3.76-1.953,1.563-3.907,1.244-4.396-.732"/>
  <path class="uuid-3e5b2ea9-b76b-43ee-bb9a-64ad2f63d07f" d="M266.065,163.195c-.247-1.099-.247-2.443.487-3.933.489-1.464,1.468-2.686,2.69-3.566,24.427-19.229,48.611-17.029,56.916,5.13.489,1.027.489,2.295-.243,3.786-.489,1.49-1.221,2.758-2.443,3.76"/>
  <path class="uuid-3e5b2ea9-b76b-43ee-bb9a-64ad2f63d07f" d="M336.172,152.742c-9.773-28.117-40.061-30.83-70.107-6.307-2.2,1.689-4.154,1.395-4.643-.61"/>
  <path class="uuid-3e5b2ea9-b76b-43ee-bb9a-64ad2f63d07f" d="M259.957,140.721c-.247-1.099,0-2.421.489-3.859.732-1.465,1.464-2.665,2.686-3.57,36.887-30.215,73.772-26.918,85.498,7.723.489,1.023.247,2.296-.243,3.76-.489,1.464-1.221,2.686-2.443,3.664"/>
  <polyline class="uuid-3e5b2ea9-b76b-43ee-bb9a-64ad2f63d07f" points="148.322 356.811 148.322 356.811 112.411 336"/>
  <path class="uuid-3e5b2ea9-b76b-43ee-bb9a-64ad2f63d07f" d="M112.411,336c-2.197-1.247-3.665-2.69-5.13-4.617-5.864-7.499-5.864-18.861-4.154-27.75,2.932-17.028,13.68-35.274,27.113-46.144"/>
  <path class="uuid-3e5b2ea9-b76b-43ee-bb9a-64ad2f63d07f" d="M131.952,256.268c.245-1.931.489-3.738.732-5.67,4.886-27.702,23.942-58.727,48.611-72.992,9.53-5.592,22.231-9.378,32.982-4.665"/>
  <polyline class="uuid-3e5b2ea9-b76b-43ee-bb9a-64ad2f63d07f" points="214.278 172.942 215.253 173.457 222.825 177.755"/>
  <path class="uuid-3e5b2ea9-b76b-43ee-bb9a-64ad2f63d07f" d="M222.825,177.755c6.597-5.96,15.88-11.628,25.163-11.458,2.196.026,4.396.463,6.593,1.295"/>
  <polyline class="uuid-3e5b2ea9-b76b-43ee-bb9a-64ad2f63d07f" points="254.581 167.593 255.56 168.056 271.194 177.117 272.901 176.776"/>
  <polyline class="uuid-3e5b2ea9-b76b-43ee-bb9a-64ad2f63d07f" points="283.895 177.707 285.116 178.218 321.027 199.033"/>
  <path class="uuid-3e5b2ea9-b76b-43ee-bb9a-64ad2f63d07f" d="M321.027,199.033c6.84,3.396,11.237,11.457,11.237,23.18,0,22.327-15.633,49.421-34.932,60.558"/>
  <path class="uuid-3e5b2ea9-b76b-43ee-bb9a-64ad2f63d07f" d="M172.991,354.394c-19.052,11.141-34.932,2.074-34.932-20.227.243-20.228,12.948-44.436,29.803-57.063,3.175-30.123,24.184-64.051,49.59-78.683,16.609-9.699,31.51-8.672,40.551.854,3.175-2.907,6.592-5.424,10.015-7.404,15.387-8.841,28.334-4.956,32.978,8.209,17.587-7.962,31.266,1.295,31.266,22.132,0,22.327-15.633,49.421-34.932,60.558"/>
  <line class="uuid-fa29c0c1-9b40-40d9-b509-467fe465b74e" x1="345.945" y1="148.467" x2="340.815" y2="152.985"/>
  <path class="uuid-3e5b2ea9-b76b-43ee-bb9a-64ad2f63d07f" d="M301.24,133.293c-.732-.389-.732-.511-1.222-1.39"/>
  <line class="uuid-fa29c0c1-9b40-40d9-b509-467fe465b74e" x1="314.92" y1="174.068" x2="314.43" y2="173.846"/>
  <line class="uuid-fa29c0c1-9b40-40d9-b509-467fe465b74e" x1="314.188" y1="173.674" x2="290.736" y2="160.068"/>
  <line class="uuid-fa29c0c1-9b40-40d9-b509-467fe465b74e" x1="268.262" y1="169.671" x2="268.262" y2="169.594"/>
  <line class="uuid-fa29c0c1-9b40-40d9-b509-467fe465b74e" x1="268.262" y1="169.594" x2="232.597" y2="148.978"/>
  <path class="uuid-3e5b2ea9-b76b-43ee-bb9a-64ad2f63d07f" d="M232.597,148.978c-.732-.511-.979-.632-1.221-1.516"/>
  <line class="uuid-fa29c0c1-9b40-40d9-b509-467fe465b74e" x1="231.375" y1="147.462" x2="229.907" y2="142.36"/>
  <line class="uuid-fa29c0c1-9b40-40d9-b509-467fe465b74e" x1="267.53" y1="168.325" x2="266.065" y2="163.221"/>
  <line class="uuid-fa29c0c1-9b40-40d9-b509-467fe465b74e" x1="312.477" y1="145.093" x2="290.493" y2="132.318"/>
  <path class="uuid-3e5b2ea9-b76b-43ee-bb9a-64ad2f63d07f" d="M230.397,109.745c16.86-12.775,38.597-22.716,59.607-15.192"/>
  <line class="uuid-fa29c0c1-9b40-40d9-b509-467fe465b74e" x1="290.003" y1="94.553" x2="326.157" y2="115.39"/>
  <line class="uuid-fa29c0c1-9b40-40d9-b509-467fe465b74e" x1="262.643" y1="147.341" x2="226.49" y2="126.53"/>
  <path class="uuid-3e5b2ea9-b76b-43ee-bb9a-64ad2f63d07f" d="M226.49,126.53c-.732-.515-.732-.684-1.221-1.542"/>
  <line class="uuid-fa29c0c1-9b40-40d9-b509-467fe465b74e" x1="225.268" y1="124.988" x2="223.804" y2="119.469"/>
  <path class="uuid-3e5b2ea9-b76b-43ee-bb9a-64ad2f63d07f" d="M223.804,119.469c-.736-4.544,3.66-7.328,6.592-9.725"/>
  <line class="uuid-fa29c0c1-9b40-40d9-b509-467fe465b74e" x1="323.471" y1="168.373" x2="318.337" y2="172.894"/>
  <path class="uuid-3e5b2ea9-b76b-43ee-bb9a-64ad2f63d07f" d="M318.337,172.894c-1.953,1.759-3.907,1.708-4.639-.099"/>
  <path class="uuid-3e5b2ea9-b76b-43ee-bb9a-64ad2f63d07f" d="M172.991,354.394c-9.526,5.57-18.32,6.081-24.67,2.417"/>
  <line class="uuid-fa29c0c1-9b40-40d9-b509-467fe465b74e" x1="130.24" y1="257.49" x2="131.952" y2="256.268"/>
  <path class="uuid-3e5b2ea9-b76b-43ee-bb9a-64ad2f63d07f" d="M272.901,176.776c3.664-.611,7.577-.437,10.994.931"/>
  <line class="uuid-fa29c0c1-9b40-40d9-b509-467fe465b74e" x1="297.332" y1="282.771" x2="172.991" y2="354.394"/>
  <line class="uuid-fa29c0c1-9b40-40d9-b509-467fe465b74e" x1="167.863" y1="277.105" x2="131.952" y2="256.268"/>
  <line class="uuid-fa29c0c1-9b40-40d9-b509-467fe465b74e" x1="258.493" y1="198.421" x2="222.825" y2="177.755"/>
  <line class="uuid-fa29c0c1-9b40-40d9-b509-467fe465b74e" x1="291.714" y1="188.918" x2="271.194" y2="177.117"/>
  <line class="uuid-02e3d8f6-fc9f-467c-9524-dff3c82ec2e6" x1="117.786" y1="337.244" x2="103.86" y2="313.063"/>
  <line class="uuid-02e3d8f6-fc9f-467c-9524-dff3c82ec2e6" x1="137.817" y1="326.887" x2="111.679" y2="281.501"/>
  <line class="uuid-02e3d8f6-fc9f-467c-9524-dff3c82ec2e6" x1="147.832" y1="298.989" x2="126.58" y2="261.835"/>
  <line class="uuid-02e3d8f6-fc9f-467c-9524-dff3c82ec2e6" x1="162.487" y1="279.206" x2="160.048" y2="274.71"/>
  <line class="uuid-02e3d8f6-fc9f-467c-9524-dff3c82ec2e6" x1="156.384" y1="268.77" x2="137.57" y2="236.139"/>
  <line class="uuid-02e3d8f6-fc9f-467c-9524-dff3c82ec2e6" x1="173.238" y1="252.604" x2="149.296" y2="210.976"/>
  <line class="uuid-02e3d8f6-fc9f-467c-9524-dff3c82ec2e6" x1="185.45" y1="228.809" x2="164.197" y2="192.02"/>
  <line class="uuid-02e3d8f6-fc9f-467c-9524-dff3c82ec2e6" x1="200.841" y1="210.049" x2="182.517" y2="178.049"/>
  <line class="uuid-02e3d8f6-fc9f-467c-9524-dff3c82ec2e6" x1="218.917" y1="196.269" x2="204.995" y2="172.089"/>
  <line class="uuid-02e3d8f6-fc9f-467c-9524-dff3c82ec2e6" x1="238.216" y1="184.521" x2="231.618" y2="173.112"/>
  <line class="uuid-02e3d8f6-fc9f-467c-9524-dff3c82ec2e6" x1="267.773" y1="190.628" x2="255.804" y2="170.204"/>
  <line class="uuid-02e3d8f6-fc9f-467c-9524-dff3c82ec2e6" x1="303.44" y1="197.274" x2="298.311" y2="188.065"/>
  <line class="uuid-02e3d8f6-fc9f-467c-9524-dff3c82ec2e6" x1="327.621" y1="146.267" x2="321.759" y2="136.299"/>
  <line class="uuid-02e3d8f6-fc9f-467c-9524-dff3c82ec2e6" x1="254.581" y1="159.726" x2="241.633" y2="137.009"/>
  <line class="uuid-02e3d8f6-fc9f-467c-9524-dff3c82ec2e6" x1="274.612" y1="149.515" x2="271.68" y2="144.408"/>
  <line class="uuid-02e3d8f6-fc9f-467c-9524-dff3c82ec2e6" x1="296.111" y1="141.064" x2="293.178" y2="136.177"/>
  <line class="uuid-02e3d8f6-fc9f-467c-9524-dff3c82ec2e6" x1="248.721" y1="137.621" x2="232.597" y2="109.403"/>
  <line class="uuid-02e3d8f6-fc9f-467c-9524-dff3c82ec2e6" x1="269.241" y1="127.553" x2="252.138" y2="97.971"/>
  <line class="uuid-02e3d8f6-fc9f-467c-9524-dff3c82ec2e6" x1="288.781" y1="116.317" x2="275.344" y2="93.185"/>
  <line class="uuid-02e3d8f6-fc9f-467c-9524-dff3c82ec2e6" x1="311.498" y1="110.723" x2="310.033" y2="108.449"/>
</svg>