<?xml version="1.0" encoding="UTF-8"?>
<svg id="uuid-ede648f7-1e37-405d-a7dc-64d925c9154e" data-name="&amp;lt;Layer&amp;gt;" xmlns="http://www.w3.org/2000/svg" viewBox="0 0 451.11 451.11">
  <defs>
    <style>
      .uuid-6e59ac0e-6a5a-4400-93b4-4546e6c5dc9a, .uuid-183b2474-d1bb-4507-891e-8cbfd83465f8, .uuid-4e89fde0-fb26-41ce-a638-c8faefbc4f61, .uuid-818df8b9-b1c1-44ed-8567-e670c8ec35a3 {
        fill: none;
        stroke: #000;
        stroke-linecap: round;
      }

      .uuid-6e59ac0e-6a5a-4400-93b4-4546e6c5dc9a, .uuid-818df8b9-b1c1-44ed-8567-e670c8ec35a3 {
        stroke-linejoin: round;
        stroke-width: 4.117px;
      }

      .uuid-183b2474-d1bb-4507-891e-8cbfd83465f8 {
        stroke-width: 1.163px;
      }

      .uuid-183b2474-d1bb-4507-891e-8cbfd83465f8, .uuid-4e89fde0-fb26-41ce-a638-c8faefbc4f61 {
        stroke-miterlimit: 10;
      }

      .uuid-4e89fde0-fb26-41ce-a638-c8faefbc4f61 {
        stroke-width: 1.159px;
      }

      .uuid-818df8b9-b1c1-44ed-8567-e670c8ec35a3 {
        fill-rule: evenodd;
      }
    </style>
  </defs>
  <polyline class="uuid-818df8b9-b1c1-44ed-8567-e670c8ec35a3" points="342.564 118.534 334.991 116.312 334.502 116.212"/>
  <path class="uuid-818df8b9-b1c1-44ed-8567-e670c8ec35a3" d="M334.502,116.212c-.489-.07-.732-.121-1.221-.121-8.061-.88-16.122,1.151-23.938,4.886-1.953.905-3.911,1.954-5.864,3.128-10.747,6.544-20.763,15.976-27.846,24.842-1.711,2.027-3.175,4.176-4.886,6.402-1.222,2.024-2.687,4.003-3.908,5.962-1.711,3.027-3.664,6.229-5.375,9.474-.489,1.273-1.221,2.567-1.711,3.837-.243.291-.243.585-.489.928-4.64,10.331-7.815,21.156-10.258,33.221"/>
  <path class="uuid-818df8b9-b1c1-44ed-8567-e670c8ec35a3" d="M295.906,91.641c-20.52-9.651-46.658,8.184-60.58,22.816-13.681,14.63-23.942,33.442-29.803,52.836"/>
  <path class="uuid-818df8b9-b1c1-44ed-8567-e670c8ec35a3" d="M232.639,183c-7.328-4.224-46.172-27.092-50.811-28.751-21.252-7.745-47.634,13.142-60.828,28.533-19.051,21.886-31.509,52.004-31.509,81.124,0,22.183,11.969,35.568,30.045,46.169"/>
  <path class="uuid-818df8b9-b1c1-44ed-8567-e670c8ec35a3" d="M166.193,337.018c-25.649-15.045-32.978-31.878-28.823-61.556,4.639-34.519,28.091-73.237,59.112-89.504,9.283-4.96,21.745-8.503,32.246-4.739"/>
  <path class="uuid-818df8b9-b1c1-44ed-8567-e670c8ec35a3" d="M248.758,362.207c36.4-52.718,112.861-146.523,112.861-201.46,0-83.154-96.739-41.04-112.861,48.023-15.877-70.645-112.611-1.049-112.611,82.079,0,54.941,76.457,60.486,112.611,71.358Z"/>
  <line class="uuid-6e59ac0e-6a5a-4400-93b4-4546e6c5dc9a" x1="342.564" y1="118.534" x2="295.906" y2="91.641"/>
  <line class="uuid-6e59ac0e-6a5a-4400-93b4-4546e6c5dc9a" x1="119.535" y1="310.074" x2="166.193" y2="337.018"/>
  <line class="uuid-183b2474-d1bb-4507-891e-8cbfd83465f8" x1="141.034" y1="316.476" x2="137.859" y2="318.331"/>
  <line class="uuid-183b2474-d1bb-4507-891e-8cbfd83465f8" x1="136.637" y1="305.945" x2="126.375" y2="311.932"/>
  <line class="uuid-183b2474-d1bb-4507-891e-8cbfd83465f8" x1="134.926" y1="293.882" x2="114.892" y2="305.482"/>
  <line class="uuid-183b2474-d1bb-4507-891e-8cbfd83465f8" x1="135.659" y1="280.419" x2="105.123" y2="298.154"/>
  <line class="uuid-183b2474-d1bb-4507-891e-8cbfd83465f8" x1="138.344" y1="265.907" x2="97.304" y2="289.58"/>
  <line class="uuid-183b2474-d1bb-4507-891e-8cbfd83465f8" x1="143.23" y1="250.008" x2="92.176" y2="279.465"/>
  <line class="uuid-183b2474-d1bb-4507-891e-8cbfd83465f8" x1="151.045" y1="232.348" x2="89.733" y2="267.791"/>
  <line class="uuid-183b2474-d1bb-4507-891e-8cbfd83465f8" x1="164.971" y1="211.334" x2="89.733" y2="254.795"/>
  <line class="uuid-183b2474-d1bb-4507-891e-8cbfd83465f8" x1="211.994" y1="171.108" x2="90.465" y2="241.284"/>
  <line class="uuid-183b2474-d1bb-4507-891e-8cbfd83465f8" x1="202.347" y1="163.728" x2="95.84" y2="225.14"/>
  <line class="uuid-183b2474-d1bb-4507-891e-8cbfd83465f8" x1="190.132" y1="157.693" x2="104.876" y2="206.868"/>
  <line class="uuid-183b2474-d1bb-4507-891e-8cbfd83465f8" x1="174.744" y1="153.638" x2="121.735" y2="184.222"/>
  <line class="uuid-183b2474-d1bb-4507-891e-8cbfd83465f8" x1="253.891" y1="184.126" x2="243.139" y2="190.377"/>
  <line class="uuid-183b2474-d1bb-4507-891e-8cbfd83465f8" x1="262.438" y1="166.096" x2="234.103" y2="182.537"/>
  <line class="uuid-183b2474-d1bb-4507-891e-8cbfd83465f8" x1="277.829" y1="144.308" x2="221.891" y2="176.502"/>
  <line class="uuid-183b2474-d1bb-4507-891e-8cbfd83465f8" x1="322.776" y1="105.222" x2="210.327" y2="170.255"/>
  <line class="uuid-183b2474-d1bb-4507-891e-8cbfd83465f8" x1="311.296" y1="98.918" x2="208.208" y2="158.377"/>
  <line class="uuid-183b2474-d1bb-4507-891e-8cbfd83465f8" x1="299.323" y1="92.789" x2="217.738" y2="139.86"/>
  <line class="uuid-183b2474-d1bb-4507-891e-8cbfd83465f8" x1="281.251" y1="90.198" x2="236.058" y2="116.312"/>
  <line class="uuid-183b2474-d1bb-4507-891e-8cbfd83465f8" x1="168.148" y1="336.753" x2="137.369" y2="283.693"/>
  <line class="uuid-183b2474-d1bb-4507-891e-8cbfd83465f8" x1="202.59" y1="351.43" x2="143.473" y2="248.979"/>
  <line class="uuid-183b2474-d1bb-4507-891e-8cbfd83465f8" x1="232.109" y1="357.446" x2="156.215" y2="225.817"/>
  <line class="uuid-183b2474-d1bb-4507-891e-8cbfd83465f8" x1="255.628" y1="352.892" x2="170.807" y2="205.875"/>
  <line class="uuid-4e89fde0-fb26-41ce-a638-c8faefbc4f61" x1="270.191" y1="332.879" x2="188" y2="190.635"/>
  <line class="uuid-183b2474-d1bb-4507-891e-8cbfd83465f8" x1="284.599" y1="312.87" x2="208.282" y2="180.766"/>
  <line class="uuid-183b2474-d1bb-4507-891e-8cbfd83465f8" x1="299.323" y1="293.194" x2="249.248" y2="206.595"/>
  <line class="uuid-183b2474-d1bb-4507-891e-8cbfd83465f8" x1="313.496" y1="272.604" x2="258.042" y2="176.528"/>
  <line class="uuid-183b2474-d1bb-4507-891e-8cbfd83465f8" x1="327.173" y1="251.205" x2="270.747" y2="153.466"/>
  <line class="uuid-183b2474-d1bb-4507-891e-8cbfd83465f8" x1="340.121" y1="228.411" x2="286.38" y2="135.436"/>
  <line class="uuid-183b2474-d1bb-4507-891e-8cbfd83465f8" x1="351.604" y1="203.082" x2="304.946" y2="122.272"/>
  <line class="uuid-183b2474-d1bb-4507-891e-8cbfd83465f8" x1="359.909" y1="172.105" x2="327.663" y2="116.19"/>
</svg>