<?xml version="1.0" encoding="UTF-8"?>
<svg id="uuid-41dc891a-7e79-4fa3-bb0d-977c38e56b5b" data-name="&amp;lt;Layer&amp;gt;" xmlns="http://www.w3.org/2000/svg" viewBox="0 0 451.11 451.11">
  <defs>
    <style>
      .uuid-8e4d85bb-bef1-4bb6-a555-e435d0f9e8f2, .uuid-2469c7ed-924d-43ee-bfef-d5b73e684d8a, .uuid-89c2e4bb-4ff5-4e87-b078-8832b93ca98d {
        fill: none;
        stroke: #000;
        stroke-linecap: round;
      }

      .uuid-8e4d85bb-bef1-4bb6-a555-e435d0f9e8f2, .uuid-89c2e4bb-4ff5-4e87-b078-8832b93ca98d {
        stroke-linejoin: round;
        stroke-width: 4.113px;
      }

      .uuid-2469c7ed-924d-43ee-bfef-d5b73e684d8a {
        stroke-miterlimit: 10;
        stroke-width: 1.163px;
      }

      .uuid-89c2e4bb-4ff5-4e87-b078-8832b93ca98d {
        fill-rule: evenodd;
      }
    </style>
  </defs>
  <path class="uuid-89c2e4bb-4ff5-4e87-b078-8832b93ca98d" d="M281.987,203.186c-25.65-.221-53.009,44.484-39.576,62.196,3.176,4.298,22.477,14.169,29.071,17.903"/>
  <path class="uuid-89c2e4bb-4ff5-4e87-b078-8832b93ca98d" d="M321.072,234.969c0,16.244-12.705,36.763-28.338,45.874-8.551,4.861-16.124,5.449-21.252,2.443-1.954-1.221-3.419-2.686-4.64-4.422-.247-.633-.732-1.221-.979-1.928-.243-.515-.489-1.101-.732-1.66-.243-.588-.243-1.125-.489-1.711-.243-1.147-.489-2.369-.489-3.638-.243-2.444,0-5.13.489-7.845,0-.632.247-1.343.489-2.027,0-.706.243-1.39.489-2.098,0-.71.243-1.394.489-2.104,1.707-4.934,4.151-9.989,7.083-14.728,2.196-3.371,4.886-6.62,7.573-9.526.975-1.221,2.196-2.395,3.418-3.495.979-.758,1.711-1.512,2.685-2.196,2.932-2.443,6.108-4.47,9.53-5.814,1.221-.563,2.443-.979,3.664-1.343,2.444-.757,4.887-1.099,7.083-1.029"/>
  <path class="uuid-89c2e4bb-4ff5-4e87-b078-8832b93ca98d" d="M198.196,315.532c-27.355-.269-56.427,50.518-36.396,65.102-8.062-4.643-25.406-13.022-28.825-18.349-11.973-18.563,14.898-61.534,40.061-61.266"/>
  <polyline class="uuid-89c2e4bb-4ff5-4e87-b078-8832b93ca98d" points="307.146 217.746 307.146 134.422 212.366 219.651 212.366 332.755"/>
  <path class="uuid-89c2e4bb-4ff5-4e87-b078-8832b93ca98d" d="M212.366,332.755c0,16.244-12.949,36.765-28.582,45.849-15.876,9.113-28.582,3.322-28.582-12.897s12.706-36.791,28.582-45.874c5.13-3.054,10.262-4.423,14.412-4.301"/>
  <path class="uuid-89c2e4bb-4ff5-4e87-b078-8832b93ca98d" d="M198.196,193.855v121.677c-27.355-.269-56.427,50.518-36.396,65.102-8.062-4.643-25.406-13.022-28.825-18.349-11.973-18.563,14.898-61.534,40.061-61.266"/>
  <polyline class="uuid-89c2e4bb-4ff5-4e87-b078-8832b93ca98d" points="173.037 301.02 173.037 179.321 198.196 193.855"/>
  <line class="uuid-8e4d85bb-bef1-4bb6-a555-e435d0f9e8f2" x1="281.987" y1="157.018" x2="281.987" y2="203.186"/>
  <path class="uuid-89c2e4bb-4ff5-4e87-b078-8832b93ca98d" d="M319.851,82.977c.732.417,1.221,1.343,1.221,2.808"/>
  <line class="uuid-8e4d85bb-bef1-4bb6-a555-e435d0f9e8f2" x1="321.072" y1="85.785" x2="321.072" y2="234.969"/>
  <line class="uuid-8e4d85bb-bef1-4bb6-a555-e435d0f9e8f2" x1="307.146" y1="217.72" x2="307.146" y2="134.448"/>
  <line class="uuid-8e4d85bb-bef1-4bb6-a555-e435d0f9e8f2" x1="177.19" y1="172.139" x2="291.756" y2="68.834"/>
  <path class="uuid-89c2e4bb-4ff5-4e87-b078-8832b93ca98d" d="M291.756,68.834c.979-.858,1.711-.758,2.932-.295"/>
  <line class="uuid-8e4d85bb-bef1-4bb6-a555-e435d0f9e8f2" x1="294.688" y1="68.539" x2="319.851" y2="83.073"/>
  <path class="uuid-89c2e4bb-4ff5-4e87-b078-8832b93ca98d" d="M319.851,83.073c-1.221-.463-1.954-.585-2.932.295"/>
  <line class="uuid-8e4d85bb-bef1-4bb6-a555-e435d0f9e8f2" x1="316.919" y1="83.368" x2="202.351" y2="186.673"/>
  <path class="uuid-89c2e4bb-4ff5-4e87-b078-8832b93ca98d" d="M202.351,186.673c-2.444,1.538-3.912,4.302-4.155,7.182"/>
  <line class="uuid-8e4d85bb-bef1-4bb6-a555-e435d0f9e8f2" x1="198.196" y1="193.855" x2="198.196" y2="315.532"/>
  <line class="uuid-8e4d85bb-bef1-4bb6-a555-e435d0f9e8f2" x1="173.037" y1="301.02" x2="173.037" y2="179.321"/>
  <path class="uuid-89c2e4bb-4ff5-4e87-b078-8832b93ca98d" d="M173.037,179.321c.247-2.858,2.2-5.253,4.154-7.182"/>
  <path class="uuid-89c2e4bb-4ff5-4e87-b078-8832b93ca98d" d="M316.919,83.368c2.443-1.317,4.154-.243,4.154,2.395"/>
  <line class="uuid-8e4d85bb-bef1-4bb6-a555-e435d0f9e8f2" x1="173.037" y1="301.02" x2="198.196" y2="315.532"/>
  <line class="uuid-8e4d85bb-bef1-4bb6-a555-e435d0f9e8f2" x1="281.987" y1="203.212" x2="307.146" y2="217.746"/>
  <line class="uuid-2469c7ed-924d-43ee-bfef-d5b73e684d8a" x1="305.435" y1="202.795" x2="295.177" y2="208.757"/>
  <line class="uuid-2469c7ed-924d-43ee-bfef-d5b73e684d8a" x1="305.682" y1="189.557" x2="283.451" y2="202.454"/>
  <line class="uuid-2469c7ed-924d-43ee-bfef-d5b73e684d8a" x1="305.682" y1="176.537" x2="283.451" y2="189.433"/>
  <line class="uuid-2469c7ed-924d-43ee-bfef-d5b73e684d8a" x1="305.682" y1="163.515" x2="283.451" y2="176.415"/>
  <line class="uuid-2469c7ed-924d-43ee-bfef-d5b73e684d8a" x1="305.682" y1="150.398" x2="283.451" y2="163.345"/>
  <line class="uuid-2469c7ed-924d-43ee-bfef-d5b73e684d8a" x1="180.12" y1="379.583" x2="161.31" y2="346.825"/>
  <line class="uuid-2469c7ed-924d-43ee-bfef-d5b73e684d8a" x1="197.953" y1="365.461" x2="175.722" y2="326.622"/>
  <line class="uuid-2469c7ed-924d-43ee-bfef-d5b73e684d8a" x1="209.922" y1="341.034" x2="195.999" y2="316.875"/>
  <line class="uuid-2469c7ed-924d-43ee-bfef-d5b73e684d8a" x1="210.654" y1="297.039" x2="200.15" y2="278.793"/>
  <line class="uuid-2469c7ed-924d-43ee-bfef-d5b73e684d8a" x1="210.654" y1="251.823" x2="200.15" y2="233.552"/>
  <line class="uuid-2469c7ed-924d-43ee-bfef-d5b73e684d8a" x1="215.541" y1="215.207" x2="201.129" y2="189.996"/>
  <line class="uuid-2469c7ed-924d-43ee-bfef-d5b73e684d8a" x1="281.008" y1="283.749" x2="266.842" y2="258.907"/>
  <line class="uuid-2469c7ed-924d-43ee-bfef-d5b73e684d8a" x1="232.642" y1="199.815" x2="217.984" y2="174.241"/>
  <line class="uuid-2469c7ed-924d-43ee-bfef-d5b73e684d8a" x1="301.284" y1="273.491" x2="279.053" y2="234.773"/>
  <line class="uuid-2469c7ed-924d-43ee-bfef-d5b73e684d8a" x1="249.983" y1="184.351" x2="235.082" y2="158.75"/>
  <line class="uuid-2469c7ed-924d-43ee-bfef-d5b73e684d8a" x1="315.697" y1="253.019" x2="297.131" y2="220.774"/>
  <line class="uuid-2469c7ed-924d-43ee-bfef-d5b73e684d8a" x1="267.084" y1="168.89" x2="252.183" y2="143.242"/>
  <line class="uuid-2469c7ed-924d-43ee-bfef-d5b73e684d8a" x1="319.361" y1="214.522" x2="308.857" y2="196.273"/>
  <line class="uuid-2469c7ed-924d-43ee-bfef-d5b73e684d8a" x1="284.183" y1="153.5" x2="269.286" y2="127.803"/>
  <line class="uuid-2469c7ed-924d-43ee-bfef-d5b73e684d8a" x1="319.361" y1="169.45" x2="308.857" y2="151.178"/>
  <line class="uuid-2469c7ed-924d-43ee-bfef-d5b73e684d8a" x1="301.284" y1="138.088" x2="286.626" y2="112.365"/>
  <line class="uuid-2469c7ed-924d-43ee-bfef-d5b73e684d8a" x1="319.604" y1="124.555" x2="303.482" y2="96.827"/>
  <line class="uuid-2469c7ed-924d-43ee-bfef-d5b73e684d8a" x1="153.981" y1="371.547" x2="151.784" y2="372.841"/>
  <line class="uuid-2469c7ed-924d-43ee-bfef-d5b73e684d8a" x1="154.47" y1="358.279" x2="140.301" y2="366.488"/>
  <line class="uuid-2469c7ed-924d-43ee-bfef-d5b73e684d8a" x1="161.31" y1="341.28" x2="131.996" y2="358.135"/>
  <line class="uuid-2469c7ed-924d-43ee-bfef-d5b73e684d8a" x1="190.867" y1="311.234" x2="130.775" y2="345.825"/>
  <line class="uuid-2469c7ed-924d-43ee-bfef-d5b73e684d8a" x1="178.898" y1="305.075" x2="138.348" y2="328.505"/>
  <line class="uuid-2469c7ed-924d-43ee-bfef-d5b73e684d8a" x1="196.485" y1="304.173" x2="189.403" y2="308.276"/>
  <line class="uuid-2469c7ed-924d-43ee-bfef-d5b73e684d8a" x1="196.974" y1="290.932" x2="177.68" y2="301.999"/>
  <line class="uuid-2469c7ed-924d-43ee-bfef-d5b73e684d8a" x1="196.974" y1="277.841" x2="174.501" y2="290.884"/>
  <line class="uuid-2469c7ed-924d-43ee-bfef-d5b73e684d8a" x1="196.974" y1="264.797" x2="174.501" y2="277.841"/>
  <line class="uuid-2469c7ed-924d-43ee-bfef-d5b73e684d8a" x1="196.974" y1="251.775" x2="174.501" y2="264.819"/>
  <line class="uuid-2469c7ed-924d-43ee-bfef-d5b73e684d8a" x1="196.974" y1="238.754" x2="174.501" y2="251.798"/>
  <line class="uuid-2469c7ed-924d-43ee-bfef-d5b73e684d8a" x1="196.974" y1="225.734" x2="174.501" y2="238.776"/>
  <line class="uuid-2469c7ed-924d-43ee-bfef-d5b73e684d8a" x1="196.974" y1="212.712" x2="174.501" y2="225.734"/>
  <line class="uuid-2469c7ed-924d-43ee-bfef-d5b73e684d8a" x1="196.974" y1="199.669" x2="174.501" y2="212.712"/>
  <line class="uuid-2469c7ed-924d-43ee-bfef-d5b73e684d8a" x1="189.892" y1="190.776" x2="174.501" y2="199.547"/>
  <line class="uuid-2469c7ed-924d-43ee-bfef-d5b73e684d8a" x1="178.166" y1="184.451" x2="174.99" y2="186.21"/>
  <line class="uuid-2469c7ed-924d-43ee-bfef-d5b73e684d8a" x1="181.341" y1="181.787" x2="177.19" y2="174.825"/>
  <line class="uuid-2469c7ed-924d-43ee-bfef-d5b73e684d8a" x1="198.438" y1="189.164" x2="185.252" y2="166.594"/>
  <line class="uuid-2469c7ed-924d-43ee-bfef-d5b73e684d8a" x1="206.747" y1="181.055" x2="194.046" y2="158.827"/>
  <line class="uuid-2469c7ed-924d-43ee-bfef-d5b73e684d8a" x1="215.298" y1="173.361" x2="202.593" y2="151.156"/>
  <line class="uuid-2469c7ed-924d-43ee-bfef-d5b73e684d8a" x1="223.848" y1="165.591" x2="211.143" y2="143.363"/>
  <line class="uuid-2469c7ed-924d-43ee-bfef-d5b73e684d8a" x1="232.642" y1="157.802" x2="219.694" y2="135.593"/>
  <line class="uuid-2469c7ed-924d-43ee-bfef-d5b73e684d8a" x1="240.947" y1="150.155" x2="228.246" y2="127.946"/>
  <line class="uuid-2469c7ed-924d-43ee-bfef-d5b73e684d8a" x1="249.741" y1="142.384" x2="236.793" y2="120.157"/>
  <line class="uuid-2469c7ed-924d-43ee-bfef-d5b73e684d8a" x1="258.292" y1="134.617" x2="245.587" y2="112.39"/>
  <line class="uuid-2469c7ed-924d-43ee-bfef-d5b73e684d8a" x1="266.842" y1="126.971" x2="253.894" y2="104.719"/>
  <line class="uuid-2469c7ed-924d-43ee-bfef-d5b73e684d8a" x1="275.389" y1="119.204" x2="262.445" y2="96.947"/>
  <line class="uuid-2469c7ed-924d-43ee-bfef-d5b73e684d8a" x1="283.94" y1="111.533" x2="270.993" y2="89.28"/>
  <line class="uuid-2469c7ed-924d-43ee-bfef-d5b73e684d8a" x1="292.488" y1="103.766" x2="279.787" y2="81.509"/>
  <line class="uuid-2469c7ed-924d-43ee-bfef-d5b73e684d8a" x1="301.039" y1="95.995" x2="288.337" y2="73.716"/>
  <line class="uuid-2469c7ed-924d-43ee-bfef-d5b73e684d8a" x1="309.346" y1="88.059" x2="301.774" y2="74.596"/>
  <line class="uuid-2469c7ed-924d-43ee-bfef-d5b73e684d8a" x1="262.688" y1="273.687" x2="260.488" y2="274.981"/>
  <line class="uuid-2469c7ed-924d-43ee-bfef-d5b73e684d8a" x1="263.42" y1="260.349" x2="249.009" y2="268.605"/>
  <line class="uuid-2469c7ed-924d-43ee-bfef-d5b73e684d8a" x1="270.261" y1="243.25" x2="240.947" y2="260.249"/>
  <line class="uuid-2469c7ed-924d-43ee-bfef-d5b73e684d8a" x1="299.331" y1="213.348" x2="239.725" y2="247.769"/>
  <line class="uuid-2469c7ed-924d-43ee-bfef-d5b73e684d8a" x1="287.358" y1="207.193" x2="247.54" y2="230.303"/>
</svg>