<?xml version="1.0" encoding="UTF-8"?>
<svg id="uuid-a2d406de-431b-4f75-aa8b-a5f710b38b1e" data-name="&amp;lt;Layer&amp;gt;" xmlns="http://www.w3.org/2000/svg" viewBox="0 0 451.11 451.11">
  <defs>
    <style>
      .uuid-482af465-34c0-469d-9566-21ce8acc3f22, .uuid-4d39b82a-574d-4201-bf88-0e0760fcfb1b, .uuid-93c7c752-51b5-4411-b012-ace848a85463 {
        fill: none;
        stroke: #000;
        stroke-linecap: round;
      }

      .uuid-482af465-34c0-469d-9566-21ce8acc3f22, .uuid-93c7c752-51b5-4411-b012-ace848a85463 {
        stroke-linejoin: round;
        stroke-width: 4.117px;
      }

      .uuid-4d39b82a-574d-4201-bf88-0e0760fcfb1b {
        stroke-miterlimit: 10;
        stroke-width: 1.163px;
      }

      .uuid-93c7c752-51b5-4411-b012-ace848a85463 {
        fill-rule: evenodd;
      }
    </style>
  </defs>
  <line class="uuid-482af465-34c0-469d-9566-21ce8acc3f22" x1="246.638" y1="281.783" x2="234.153" y2="274.575"/>
  <path class="uuid-93c7c752-51b5-4411-b012-ace848a85463" d="M306.218,251.028c3.542-6.134,5.764-13.048,5.764-19.277s-2.222-10.625-5.764-12.675c-3.544-2.027-8.405-1.737-13.827,1.39-5.397,3.102-10.258,8.451-13.828,14.586-3.518,6.129-5.74,13.042-5.74,19.273s2.222,10.603,5.74,12.653c3.569,2.053,8.431,1.759,13.828-1.369"/>
  <path class="uuid-93c7c752-51b5-4411-b012-ace848a85463" d="M292.391,265.608c5.423-3.123,10.284-8.473,13.827-14.58"/>
  <path class="uuid-93c7c752-51b5-4411-b012-ace848a85463" d="M325.564,284.907c-.537-9.209-4.128-15.755-9.651-18.93"/>
  <line class="uuid-482af465-34c0-469d-9566-21ce8acc3f22" x1="259.244" y1="323.214" x2="325.564" y2="284.907"/>
  <path class="uuid-93c7c752-51b5-4411-b012-ace848a85463" d="M315.913,265.977c-6.277-3.618-14.678-2.76-23.522,2.344-9.161,5.301-17.466,14.39-23.5,24.794-5.519,9.552-9.063,20.225-9.647,30.098"/>
  <path class="uuid-93c7c752-51b5-4411-b012-ace848a85463" d="M278.563,266.978c-17.807-11.311,8.967-57.696,27.655-47.901"/>
  <line class="uuid-482af465-34c0-469d-9566-21ce8acc3f22" x1="264.346" y1="258.769" x2="278.563" y2="266.978"/>
  <path class="uuid-93c7c752-51b5-4411-b012-ace848a85463" d="M306.218,219.076c-4.302-2.469-13.928-8.916-17.883-9.405-19.273-2.395-40.259,39.255-23.99,49.098"/>
  <path class="uuid-93c7c752-51b5-4411-b012-ace848a85463" d="M274.56,262.58h-.051"/>
  <path class="uuid-93c7c752-51b5-4411-b012-ace848a85463" d="M245.073,315.03c1.44-19.225,12.312-39.38,27.924-51.275"/>
  <line class="uuid-482af465-34c0-469d-9566-21ce8acc3f22" x1="259.292" y1="323.214" x2="245.073" y2="315.03"/>
  <path class="uuid-93c7c752-51b5-4411-b012-ace848a85463" d="M301.574,257.721c4.887,2.248,10.288,5.912,14.339,8.231"/>
  <path class="uuid-93c7c752-51b5-4411-b012-ace848a85463" d="M186.715,320.038c3.543-6.133,5.692-13.046,5.692-19.297s-2.148-10.605-5.692-12.654c-3.543-2.03-8.429-1.737-13.826,1.392-5.398,3.101-10.336,8.451-13.828,14.584-3.543,6.13-5.74,13.044-5.74,19.273s2.196,10.601,5.74,12.653c3.492,2.053,8.429,1.759,13.828-1.368"/>
  <path class="uuid-93c7c752-51b5-4411-b012-ace848a85463" d="M172.889,334.597c5.397-3.105,10.283-8.455,13.826-14.56"/>
  <path class="uuid-93c7c752-51b5-4411-b012-ace848a85463" d="M206.036,353.918c-.585-9.209-4.103-15.755-9.626-18.931"/>
  <line class="uuid-482af465-34c0-469d-9566-21ce8acc3f22" x1="139.715" y1="392.219" x2="206.036" y2="353.918"/>
  <path class="uuid-93c7c752-51b5-4411-b012-ace848a85463" d="M196.41,334.987c-6.276-3.616-14.703-2.76-23.521,2.344-9.185,5.302-17.467,14.39-23.522,24.796-5.523,9.552-9.114,20.225-9.652,30.093"/>
  <line class="uuid-482af465-34c0-469d-9566-21ce8acc3f22" x1="144.844" y1="327.779" x2="159.061" y2="335.987"/>
  <path class="uuid-93c7c752-51b5-4411-b012-ace848a85463" d="M186.715,288.086c-4.37-2.469-13.948-8.893-17.907-9.408-19.273-2.391-40.234,39.259-23.964,49.101"/>
  <line class="uuid-482af465-34c0-469d-9566-21ce8acc3f22" x1="155.058" y1="331.591" x2="155.007" y2="331.591"/>
  <path class="uuid-93c7c752-51b5-4411-b012-ace848a85463" d="M196.41,335.013c-4.076-2.395-9.478-6.037-14.408-8.307"/>
  <line class="uuid-482af465-34c0-469d-9566-21ce8acc3f22" x1="125.546" y1="384.015" x2="139.715" y2="392.197"/>
  <path class="uuid-93c7c752-51b5-4411-b012-ace848a85463" d="M153.494,332.812c-15.611,11.896-26.532,31.974-27.948,51.202"/>
  <line class="uuid-482af465-34c0-469d-9566-21ce8acc3f22" x1="223.649" y1="254.472" x2="223.649" y2="235.004"/>
  <path class="uuid-93c7c752-51b5-4411-b012-ace848a85463" d="M234.374,175.082c3.543-6.134,5.766-13.048,5.766-19.277s-2.222-10.625-5.766-12.653c-3.518-2.053-8.403-1.759-13.8,1.368-5.402,3.102-10.284,8.477-13.828,14.586-3.544,6.129-5.74,13.044-5.74,19.273s2.196,10.6,5.74,12.653c3.544,2.053,8.425,1.759,13.828-1.369"/>
  <path class="uuid-93c7c752-51b5-4411-b012-ace848a85463" d="M220.574,189.663c5.397-3.127,10.283-8.477,13.8-14.581"/>
  <path class="uuid-93c7c752-51b5-4411-b012-ace848a85463" d="M253.721,208.961c-.512-9.209-4.103-15.755-9.648-18.93"/>
  <line class="uuid-482af465-34c0-469d-9566-21ce8acc3f22" x1="187.399" y1="247.264" x2="253.721" y2="208.961"/>
  <path class="uuid-93c7c752-51b5-4411-b012-ace848a85463" d="M244.073,190.031c-6.254-3.618-14.68-2.764-23.499,2.344-9.189,5.301-17.492,14.39-23.474,24.794-5.571,9.574-9.115,20.225-9.7,30.094"/>
  <path class="uuid-93c7c752-51b5-4411-b012-ace848a85463" d="M206.746,191.032c-17.835-11.311,8.941-57.674,27.628-47.879"/>
  <line class="uuid-482af465-34c0-469d-9566-21ce8acc3f22" x1="192.503" y1="182.823" x2="206.746" y2="191.032"/>
  <path class="uuid-93c7c752-51b5-4411-b012-ace848a85463" d="M234.374,143.153c-4.276-2.491-13.926-8.941-17.881-9.43-19.273-2.392-40.234,39.258-23.99,49.101"/>
  <line class="uuid-482af465-34c0-469d-9566-21ce8acc3f22" x1="244.073" y1="190.053" x2="229.735" y2="181.749"/>
  <line class="uuid-482af465-34c0-469d-9566-21ce8acc3f22" x1="173.23" y1="239.059" x2="187.474" y2="247.264"/>
  <path class="uuid-93c7c752-51b5-4411-b012-ace848a85463" d="M201.175,187.857c-15.633,11.895-26.48,32-27.945,51.202"/>
  <path class="uuid-93c7c752-51b5-4411-b012-ace848a85463" d="M202.739,186.636h-.074"/>
  <line class="uuid-482af465-34c0-469d-9566-21ce8acc3f22" x1="200.638" y1="307.601" x2="212.829" y2="286.471"/>
  <path class="uuid-93c7c752-51b5-4411-b012-ace848a85463" d="M223.649,286.254c3.764-2.201,7.256-5.962,9.699-10.288,2.491-4.324,4.055-9.159,4.055-13.555s-1.564-7.477-4.003-8.915c-2.495-1.442-5.986-1.221-9.751.949-3.66,2.126-7.156,5.792-9.769,10.288-2.495,4.32-4.007,9.183-4.007,13.58,0,8.768,6.108,12.338,13.776,7.941Z"/>
  <line class="uuid-4d39b82a-574d-4201-bf88-0e0760fcfb1b" x1="270.796" y1="314.637" x2="265.274" y2="305.085"/>
  <line class="uuid-4d39b82a-574d-4201-bf88-0e0760fcfb1b" x1="280.665" y1="309.214" x2="271.091" y2="292.552"/>
  <line class="uuid-4d39b82a-574d-4201-bf88-0e0760fcfb1b" x1="290.536" y1="303.742" x2="278.174" y2="282.296"/>
  <line class="uuid-4d39b82a-574d-4201-bf88-0e0760fcfb1b" x1="300.427" y1="298.171" x2="286.43" y2="273.991"/>
  <line class="uuid-4d39b82a-574d-4201-bf88-0e0760fcfb1b" x1="310.173" y1="292.552" x2="295.886" y2="267.81"/>
  <line class="uuid-4d39b82a-574d-4201-bf88-0e0760fcfb1b" x1="319.872" y1="286.791" x2="307.388" y2="265.145"/>
  <line class="uuid-4d39b82a-574d-4201-bf88-0e0760fcfb1b" x1="260.048" y1="309.338" x2="249.371" y2="315.495"/>
  <line class="uuid-4d39b82a-574d-4201-bf88-0e0760fcfb1b" x1="267.717" y1="291.872" x2="248.86" y2="302.766"/>
  <line class="uuid-4d39b82a-574d-4201-bf88-0e0760fcfb1b" x1="283.45" y1="269.763" x2="256.212" y2="285.47"/>
  <line class="uuid-4d39b82a-574d-4201-bf88-0e0760fcfb1b" x1="271.381" y1="250.001" x2="262.783" y2="254.983"/>
  <line class="uuid-4d39b82a-574d-4201-bf88-0e0760fcfb1b" x1="277.588" y1="233.366" x2="260.339" y2="243.331"/>
  <line class="uuid-4d39b82a-574d-4201-bf88-0e0760fcfb1b" x1="291.707" y1="212.162" x2="266.496" y2="226.744"/>
  <line class="uuid-4d39b82a-574d-4201-bf88-0e0760fcfb1b" x1="140.595" y1="378.223" x2="129.795" y2="384.452"/>
  <line class="uuid-4d39b82a-574d-4201-bf88-0e0760fcfb1b" x1="148.266" y1="360.783" x2="129.332" y2="371.703"/>
  <line class="uuid-4d39b82a-574d-4201-bf88-0e0760fcfb1b" x1="163.774" y1="338.773" x2="136.761" y2="354.381"/>
  <line class="uuid-4d39b82a-574d-4201-bf88-0e0760fcfb1b" x1="151.93" y1="318.912" x2="143.206" y2="323.946"/>
  <line class="uuid-4d39b82a-574d-4201-bf88-0e0760fcfb1b" x1="158.135" y1="302.252" x2="140.764" y2="312.268"/>
  <line class="uuid-4d39b82a-574d-4201-bf88-0e0760fcfb1b" x1="172.131" y1="281.147" x2="146.993" y2="295.633"/>
  <line class="uuid-4d39b82a-574d-4201-bf88-0e0760fcfb1b" x1="151.22" y1="383.647" x2="145.701" y2="374.143"/>
  <line class="uuid-4d39b82a-574d-4201-bf88-0e0760fcfb1b" x1="161.163" y1="378.249" x2="151.515" y2="361.589"/>
  <line class="uuid-4d39b82a-574d-4201-bf88-0e0760fcfb1b" x1="170.956" y1="372.752" x2="158.598" y2="351.305"/>
  <line class="uuid-4d39b82a-574d-4201-bf88-0e0760fcfb1b" x1="180.851" y1="367.207" x2="166.855" y2="343.048"/>
  <line class="uuid-4d39b82a-574d-4201-bf88-0e0760fcfb1b" x1="190.598" y1="361.589" x2="176.307" y2="336.819"/>
  <line class="uuid-4d39b82a-574d-4201-bf88-0e0760fcfb1b" x1="200.344" y1="355.849" x2="187.816" y2="334.134"/>
  <line class="uuid-4d39b82a-574d-4201-bf88-0e0760fcfb1b" x1="188.327" y1="233.12" x2="177.359" y2="239.449"/>
  <line class="uuid-4d39b82a-574d-4201-bf88-0e0760fcfb1b" x1="196.069" y1="215.607" x2="177.139" y2="226.549"/>
  <line class="uuid-4d39b82a-574d-4201-bf88-0e0760fcfb1b" x1="211.216" y1="193.817" x2="184.615" y2="209.182"/>
  <line class="uuid-4d39b82a-574d-4201-bf88-0e0760fcfb1b" x1="199.612" y1="173.787" x2="190.77" y2="178.868"/>
  <line class="uuid-4d39b82a-574d-4201-bf88-0e0760fcfb1b" x1="205.988" y1="157.075" x2="188.496" y2="167.164"/>
  <line class="uuid-4d39b82a-574d-4201-bf88-0e0760fcfb1b" x1="219.646" y1="136.139" x2="194.898" y2="150.455"/>
  <line class="uuid-4d39b82a-574d-4201-bf88-0e0760fcfb1b" x1="198.953" y1="238.665" x2="193.456" y2="229.139"/>
  <line class="uuid-4d39b82a-574d-4201-bf88-0e0760fcfb1b" x1="208.822" y1="233.268" x2="199.248" y2="216.608"/>
  <line class="uuid-4d39b82a-574d-4201-bf88-0e0760fcfb1b" x1="218.715" y1="227.77" x2="206.331" y2="206.324"/>
  <line class="uuid-4d39b82a-574d-4201-bf88-0e0760fcfb1b" x1="228.584" y1="222.225" x2="214.638" y2="198.093"/>
  <line class="uuid-4d39b82a-574d-4201-bf88-0e0760fcfb1b" x1="238.33" y1="216.608" x2="224.043" y2="191.864"/>
  <line class="uuid-4d39b82a-574d-4201-bf88-0e0760fcfb1b" x1="248.077" y1="210.842" x2="235.595" y2="189.225"/>
</svg>