<?xml version="1.0" encoding="UTF-8"?>
<svg id="uuid-25c16a62-8796-4cab-a62f-d1a7558fc950" data-name="&amp;lt;Layer&amp;gt;" xmlns="http://www.w3.org/2000/svg" viewBox="0 0 451.11 451.11">
  <defs>
    <style>
      .uuid-de3f88a1-45d0-453a-8691-5df434412e09, .uuid-2faf5424-04dd-4586-a721-9f9af3c797b2, .uuid-b76c0944-2eec-4fb4-8ba3-5869c211e0cb, .uuid-e4f00d66-1bad-4291-8530-fa5f61d2f7fa {
        fill: none;
        stroke: #000;
        stroke-linecap: round;
      }

      .uuid-de3f88a1-45d0-453a-8691-5df434412e09, .uuid-e4f00d66-1bad-4291-8530-fa5f61d2f7fa {
        stroke-linejoin: round;
        stroke-width: 4.117px;
      }

      .uuid-2faf5424-04dd-4586-a721-9f9af3c797b2 {
        stroke-width: 1.163px;
      }

      .uuid-2faf5424-04dd-4586-a721-9f9af3c797b2, .uuid-b76c0944-2eec-4fb4-8ba3-5869c211e0cb {
        stroke-miterlimit: 10;
      }

      .uuid-b76c0944-2eec-4fb4-8ba3-5869c211e0cb {
        stroke-width: 1.159px;
      }

      .uuid-e4f00d66-1bad-4291-8530-fa5f61d2f7fa {
        fill-rule: evenodd;
      }
    </style>
  </defs>
  <polyline class="uuid-e4f00d66-1bad-4291-8530-fa5f61d2f7fa" points="258.922 317.644 271.771 325.021 260.217 331.688 258.922 330.933"/>
  <polygon class="uuid-e4f00d66-1bad-4291-8530-fa5f61d2f7fa" points="248.587 378.103 226.018 365.082 202.834 338.727 225.428 351.718 248.587 378.103"/>
  <polygon class="uuid-e4f00d66-1bad-4291-8530-fa5f61d2f7fa" points="225.428 351.718 202.834 338.727 214.46 332.03 236.986 345.052 225.428 351.718"/>
  <polyline class="uuid-e4f00d66-1bad-4291-8530-fa5f61d2f7fa" points="215.782 301.789 215.782 329.782 215.73 330.077 215.661 330.418 215.561 330.761 215.366 331.055 215.196 331.346 214.976 331.641 214.729 331.861 214.46 332.03 237.034 345.1"/>
  <path class="uuid-e4f00d66-1bad-4291-8530-fa5f61d2f7fa" d="M237.034,345.1c.173-.1.343-.269.463-.463.122-.048.17-.122.247-.222.048-.073.096-.169.217-.29"/>
  <polyline class="uuid-e4f00d66-1bad-4291-8530-fa5f61d2f7fa" points="237.961 344.125 238.135 343.778 238.255 343.488 238.329 343.124 238.329 288.768"/>
  <polyline class="uuid-e4f00d66-1bad-4291-8530-fa5f61d2f7fa" points="237.034 345.1 225.476 351.792 248.587 378.151 271.771 325.021 260.217 331.688"/>
  <path class="uuid-e4f00d66-1bad-4291-8530-fa5f61d2f7fa" d="M322.289,95.516c9.747,3.886,17.418,12.189,21.667,24.625.342,1.049.221,2.248-.294,3.64-.516,1.416-1.296,2.565-2.322,3.492"/>
  <path class="uuid-e4f00d66-1bad-4291-8530-fa5f61d2f7fa" d="M336.406,131.648c-1.39,1.269-2.906,1.564-3.834.854-.367-.221-.584-.585-.758-1.027-1.342-3.492-2.443-5.886-4.422-9.015-2.196-3.028-4.055-5.103-6.372-6.961-.465-.342-1.005-.758-1.516-1.099-.511-.365-1.053-.707-1.638-1.049-.584-.343-1.221-.707-1.853-1.053"/>
  <path class="uuid-e4f00d66-1bad-4291-8530-fa5f61d2f7fa" d="M311.026,151.678c-.122-.073-.243-.195-.343-.295-.074-.121-.195-.243-.243-.341-.052-.122-.122-.243-.173-.365-.243-.269-.365-.684-.537-1.147-.048-.122-.096-.295-.221-.417-.511-1.051-1.049-1.979-1.634-2.832-.295-.467-.562-.953-.931-1.343-.269-.467-.684-.931-1.147-1.346-.295-.343-.659-.633-1.001-.928-.343-.389-.732-.758-1.221-.979-.465-.363-.902-.632-1.391-1.001-.515-.341-1.101-.632-1.663-.853"/>
  <path class="uuid-e4f00d66-1bad-4291-8530-fa5f61d2f7fa" d="M309.22,124.098c.048,0,.121.048.243.099.563.243,1.101.537,1.612.88.931.511,1.857,1.147,2.664,1.853.658.516,1.295,1.053,1.879,1.612.931.953,1.785,1.931,2.617,3.032.437.537.806,1.122,1.147,1.685,1.173,1.807,2.15,3.786,2.954,5.934.342.979.294,2.2-.221,3.665-.512,1.442-1.342,2.663-2.391,3.59"/>
  <path class="uuid-e4f00d66-1bad-4291-8530-fa5f61d2f7fa" d="M309.22,124.098c-1.638-.832-3.371-1.391-5.154-1.759-.368-.122-.758-.17-1.175-.217-.584-.126-1.173-.247-1.733-.247-.926-.122-1.927-.174-2.906-.174-1.053,0-2.102,0-3.201.174-.515,0-.979.121-1.465.173-.684.074-1.442.169-2.126.341-.365.07-.71.144-1.053.244-.533.073-1.001.169-1.512.342-.243.074-.511.122-.758.242-.047,0-.121,0-.173.048-.533.125-.975.295-1.512.467-2.248.706-4.592,1.685-6.961,2.856-.295.172-.636.341-1.001.463-.684.393-1.394.758-2.08,1.221-1.221.636-2.443,1.394-3.664,2.2-.634.464-1.317.927-1.976,1.394-.172.048-.343.17-.515.339-.169.126-.343.247-.537.343"/>
  <path class="uuid-e4f00d66-1bad-4291-8530-fa5f61d2f7fa" d="M267.106,134.603c-.343.341-.686.758-1.027,1.147-.295.463-.637.927-.88,1.468-.121.169-.169.29-.221.463-.169.339-.295.758-.343,1.097-.073.173-.147.415-.147.588-.169.755-.169,1.439,0,2.075"/>
  <path class="uuid-e4f00d66-1bad-4291-8530-fa5f61d2f7fa" d="M265.836,146.376c.047.295.195.589.363.832.173.221.343.343.684.637-.121-.078-.29-.174-.415-.247"/>
  <path class="uuid-e4f00d66-1bad-4291-8530-fa5f61d2f7fa" d="M229.826,121.486c-.511-2.616,1.001-5.596,3.032-7.208,1.049-.832,2.148-1.685,3.249-2.443"/>
  <path class="uuid-e4f00d66-1bad-4291-8530-fa5f61d2f7fa" d="M230.293,90.119c1.927-1.442,4.665-3.419,6.641-4.713,1.833-1.223,4.644-2.886,6.624-3.934,1.781-1.001,4.566-2.395,6.424-3.201,1.807-.758,4.592-1.857,6.399-2.443,1.685-.585,4.47-1.343,6.207-1.733,1.685-.343,4.344-.758,6.03-.927,7.328-.541,12.02-.126,19.007,2.317"/>
  <path class="uuid-e4f00d66-1bad-4291-8530-fa5f61d2f7fa" d="M322.289,95.516c-6.962-2.491-11.679-2.906-19.056-2.391-1.685.169-4.35.658-5.983,1.001-13.511,2.906-24.968,10.162-35.642,18.587-1.638,1.395-2.956,3.716-3.028,5.866"/>
  <polyline class="uuid-e4f00d66-1bad-4291-8530-fa5f61d2f7fa" points="258.581 118.579 258.701 119.849 260.045 124.734"/>
  <path class="uuid-e4f00d66-1bad-4291-8530-fa5f61d2f7fa" d="M310.22,150.678c-6.06-15.316-22.963-16.832-40.087-3.59-1.98,1.512-3.833,1.169-4.348-.711"/>
  <path class="uuid-e4f00d66-1bad-4291-8530-fa5f61d2f7fa" d="M264.489,141.442c-.269-1.026-.169-2.321.489-3.76.563-1.394,1.442-2.567,2.491-3.421,23.526-18.467,46.758-16.391,54.819,4.934.389.979.289,2.2-.174,3.665-.512,1.39-1.342,2.59-2.443,3.59"/>
  <path class="uuid-e4f00d66-1bad-4291-8530-fa5f61d2f7fa" d="M331.767,131.401c-9.357-26.991-38.281-29.603-67.326-6.033-1.979,1.614-3.885,1.342-4.396-.633"/>
  <path class="uuid-e4f00d66-1bad-4291-8530-fa5f61d2f7fa" d="M258.701,119.849c-.295-1.053-.121-2.322.463-3.712.511-1.395,1.391-2.565,2.444-3.423,35.469-29.044,71.011-25.843,82.348,7.428.269.976.221,2.198-.294,3.592-.516,1.391-1.344,2.613-2.392,3.54"/>
  <polyline class="uuid-e4f00d66-1bad-4291-8530-fa5f61d2f7fa" points="151.437 327.512 151.389 327.512 116.774 307.529"/>
  <path class="uuid-e4f00d66-1bad-4291-8530-fa5f61d2f7fa" d="M116.774,307.529c-1.977-1.221-3.54-2.615-4.935-4.47-5.471-7.182-5.57-18.124-4.007-26.649,2.958-16.366,13.238-33.906,26.187-44.363"/>
  <path class="uuid-e4f00d66-1bad-4291-8530-fa5f61d2f7fa" d="M135.534,230.873c.222-1.855.465-3.59.758-5.445,4.64-26.605,23.159-56.405,46.732-70.158,9.305-5.35,21.326-8.989,31.61-4.47"/>
  <polyline class="uuid-e4f00d66-1bad-4291-8530-fa5f61d2f7fa" points="214.634 150.8 215.661 151.311 222.865 155.439"/>
  <path class="uuid-e4f00d66-1bad-4291-8530-fa5f61d2f7fa" d="M222.865,155.439c6.45-5.692,15.342-11.137,24.158-11.016,2.152.048,4.422.463,6.402,1.269"/>
  <polyline class="uuid-e4f00d66-1bad-4291-8530-fa5f61d2f7fa" points="253.425 145.692 254.404 146.083 269.501 154.806 271.061 154.512"/>
  <polyline class="uuid-e4f00d66-1bad-4291-8530-fa5f61d2f7fa" points="281.592 155.391 282.691 155.906 317.354 175.885"/>
  <path class="uuid-e4f00d66-1bad-4291-8530-fa5f61d2f7fa" d="M317.354,175.885c6.62,3.253,10.747,11.042,10.747,22.305,0,21.425-15.048,47.438-33.566,58.189"/>
  <path class="uuid-e4f00d66-1bad-4291-8530-fa5f61d2f7fa" d="M175.206,325.19c-18.589,10.675-33.638,2.028-33.638-19.445.048-19.467,12.433-42.699,28.63-54.84,3.028-28.923,23.11-61.556,47.489-75.603,16.146-9.283,30.437-8.305,39.083.831,3.032-2.786,6.229-5.18,9.603-7.108,14.682-8.525,27.213-4.765,31.757,7.914,16.83-7.671,29.972,1.221,29.972,21.252,0,21.425-15.048,47.438-33.566,58.189"/>
  <line class="uuid-de3f88a1-45d0-453a-8691-5df434412e09" x1="258.922" y1="330.933" x2="260.217" y2="331.688"/>
  <line class="uuid-de3f88a1-45d0-453a-8691-5df434412e09" x1="258.922" y1="330.933" x2="258.922" y2="276.873"/>
  <line class="uuid-de3f88a1-45d0-453a-8691-5df434412e09" x1="341.34" y1="127.273" x2="336.406" y2="131.648"/>
  <line class="uuid-de3f88a1-45d0-453a-8691-5df434412e09" x1="296.515" y1="109.733" x2="297.151" y2="111.422"/>
  <path class="uuid-e4f00d66-1bad-4291-8530-fa5f61d2f7fa" d="M297.151,111.422c.391.802.463.928,1.197,1.343"/>
  <line class="uuid-de3f88a1-45d0-453a-8691-5df434412e09" x1="298.347" y1="112.766" x2="332.572" y2="132.502"/>
  <line class="uuid-de3f88a1-45d0-453a-8691-5df434412e09" x1="319.724" y1="146.45" x2="314.791" y2="150.8"/>
  <path class="uuid-e4f00d66-1bad-4291-8530-fa5f61d2f7fa" d="M314.791,150.8c-1.443,1.269-2.908,1.563-3.764.879"/>
  <line class="uuid-de3f88a1-45d0-453a-8691-5df434412e09" x1="311.026" y1="151.678" x2="288.184" y2="138.488"/>
  <line class="uuid-de3f88a1-45d0-453a-8691-5df434412e09" x1="288.015" y1="111.835" x2="309.22" y2="124.098"/>
  <line class="uuid-de3f88a1-45d0-453a-8691-5df434412e09" x1="264.489" y1="141.442" x2="265.836" y2="146.376"/>
  <line class="uuid-de3f88a1-45d0-453a-8691-5df434412e09" x1="266.469" y1="147.599" x2="232.269" y2="127.863"/>
  <path class="uuid-e4f00d66-1bad-4291-8530-fa5f61d2f7fa" d="M232.269,127.863c-.754-.515-.754-.712-1.097-1.465"/>
  <line class="uuid-de3f88a1-45d0-453a-8691-5df434412e09" x1="231.172" y1="126.397" x2="229.826" y2="121.486"/>
  <line class="uuid-de3f88a1-45d0-453a-8691-5df434412e09" x1="236.107" y1="111.835" x2="236.176" y2="111.835"/>
  <line class="uuid-de3f88a1-45d0-453a-8691-5df434412e09" x1="287.625" y1="75.486" x2="322.289" y2="95.516"/>
  <path class="uuid-e4f00d66-1bad-4291-8530-fa5f61d2f7fa" d="M260.045,124.734c.268.854.341.975,1.099,1.49"/>
  <line class="uuid-de3f88a1-45d0-453a-8691-5df434412e09" x1="261.144" y1="126.225" x2="226.455" y2="106.194"/>
  <path class="uuid-e4f00d66-1bad-4291-8530-fa5f61d2f7fa" d="M226.455,106.194c-.68-.467-.732-.636-1.099-1.442"/>
  <line class="uuid-de3f88a1-45d0-453a-8691-5df434412e09" x1="225.356" y1="104.752" x2="223.964" y2="99.449"/>
  <path class="uuid-e4f00d66-1bad-4291-8530-fa5f61d2f7fa" d="M223.964,99.449c-.684-4.396,3.445-7.056,6.329-9.33"/>
  <path class="uuid-e4f00d66-1bad-4291-8530-fa5f61d2f7fa" d="M336.406,131.648c-1.976,1.734-3.955,1.612-4.639-.247"/>
  <path class="uuid-e4f00d66-1bad-4291-8530-fa5f61d2f7fa" d="M175.206,325.19c-9.309,5.35-17.735,5.866-23.769,2.322"/>
  <line class="uuid-de3f88a1-45d0-453a-8691-5df434412e09" x1="134.019" y1="232.047" x2="135.534" y2="230.873"/>
  <path class="uuid-e4f00d66-1bad-4291-8530-fa5f61d2f7fa" d="M271.061,154.512c3.496-.585,7.208-.415,10.531.879"/>
  <line class="uuid-de3f88a1-45d0-453a-8691-5df434412e09" x1="294.535" y1="256.379" x2="175.206" y2="325.19"/>
  <line class="uuid-de3f88a1-45d0-453a-8691-5df434412e09" x1="170.199" y1="250.904" x2="135.534" y2="230.873"/>
  <line class="uuid-de3f88a1-45d0-453a-8691-5df434412e09" x1="257.259" y1="175.301" x2="222.865" y2="155.439"/>
  <line class="uuid-de3f88a1-45d0-453a-8691-5df434412e09" x1="289.137" y1="166.186" x2="269.501" y2="154.806"/>
  <line class="uuid-2faf5424-04dd-4586-a721-9f9af3c797b2" x1="250.15" y1="169.266" x2="237.571" y2="147.551"/>
  <line class="uuid-b76c0944-2eec-4fb4-8ba3-5869c211e0cb" x1="273.165" y1="164.042" x2="267.146" y2="153.521"/>
  <line class="uuid-2faf5424-04dd-4586-a721-9f9af3c797b2" x1="301.717" y1="173.615" x2="296.33" y2="164.361"/>
  <line class="uuid-2faf5424-04dd-4586-a721-9f9af3c797b2" x1="234.948" y1="361.565" x2="227.784" y2="349.566"/>
  <line class="uuid-2faf5424-04dd-4586-a721-9f9af3c797b2" x1="257.259" y1="355.336" x2="239.771" y2="325.069"/>
  <line class="uuid-2faf5424-04dd-4586-a721-9f9af3c797b2" x1="257.311" y1="310.267" x2="243.826" y2="286.91"/>
  <line class="uuid-b76c0944-2eec-4fb4-8ba3-5869c211e0cb" x1="239.764" y1="373.231" x2="233.913" y2="363.165"/>
  <line class="uuid-2faf5424-04dd-4586-a721-9f9af3c797b2" x1="218.17" y1="346.921" x2="211.654" y2="335.574"/>
  <line class="uuid-2faf5424-04dd-4586-a721-9f9af3c797b2" x1="230.879" y1="346.395" x2="227.405" y2="340.199"/>
  <line class="uuid-2faf5424-04dd-4586-a721-9f9af3c797b2" x1="236.739" y1="343.245" x2="217.173" y2="309.41"/>
  <line class="uuid-2faf5424-04dd-4586-a721-9f9af3c797b2" x1="236.57" y1="320.429" x2="223.916" y2="298.467"/>
  <line class="uuid-2faf5424-04dd-4586-a721-9f9af3c797b2" x1="237.012" y1="298.577" x2="233.829" y2="293.136"/>
  <line class="uuid-2faf5424-04dd-4586-a721-9f9af3c797b2" x1="122.418" y1="308.921" x2="108.59" y2="284.935"/>
  <line class="uuid-2faf5424-04dd-4586-a721-9f9af3c797b2" x1="141.396" y1="296.609" x2="116.821" y2="254.006"/>
  <line class="uuid-2faf5424-04dd-4586-a721-9f9af3c797b2" x1="152.073" y1="269.912" x2="131.87" y2="234.954"/>
  <line class="uuid-2faf5424-04dd-4586-a721-9f9af3c797b2" x1="157.935" y1="242.088" x2="140.811" y2="212.407"/>
  <line class="uuid-2faf5424-04dd-4586-a721-9f9af3c797b2" x1="175.305" y1="226.94" x2="152.316" y2="187.147"/>
  <line class="uuid-2faf5424-04dd-4586-a721-9f9af3c797b2" x1="187.737" y1="203.296" x2="167.538" y2="168.338"/>
  <line class="uuid-2faf5424-04dd-4586-a721-9f9af3c797b2" x1="203.177" y1="184.999" x2="185.758" y2="154.806"/>
  <line class="uuid-2faf5424-04dd-4586-a721-9f9af3c797b2" x1="221.643" y1="171.809" x2="209.453" y2="150.678"/>
  <line class="uuid-b76c0944-2eec-4fb4-8ba3-5869c211e0cb" x1="307.114" y1="117.336" x2="303.528" y2="111.25"/>
  <line class="uuid-2faf5424-04dd-4586-a721-9f9af3c797b2" x1="326.06" y1="127.663" x2="318.98" y2="115.403"/>
  <line class="uuid-2faf5424-04dd-4586-a721-9f9af3c797b2" x1="236.103" y1="128.767" x2="231.003" y2="119.871"/>
  <line class="uuid-2faf5424-04dd-4586-a721-9f9af3c797b2" x1="255.111" y1="139.073" x2="242.605" y2="117.405"/>
  <line class="uuid-2faf5424-04dd-4586-a721-9f9af3c797b2" x1="265.151" y1="133.893" x2="261.9" y2="128.274"/>
  <line class="uuid-2faf5424-04dd-4586-a721-9f9af3c797b2" x1="274.31" y1="127.225" x2="271.524" y2="122.39"/>
  <line class="uuid-2faf5424-04dd-4586-a721-9f9af3c797b2" x1="284.546" y1="122.34" x2="281.297" y2="116.648"/>
  <line class="uuid-2faf5424-04dd-4586-a721-9f9af3c797b2" x1="297.269" y1="121.744" x2="294.156" y2="116.368"/>
  <line class="uuid-2faf5424-04dd-4586-a721-9f9af3c797b2" x1="249.761" y1="117.821" x2="233.2" y2="89.191"/>
  <line class="uuid-2faf5424-04dd-4586-a721-9f9af3c797b2" x1="268.985" y1="105.973" x2="252.888" y2="78.151"/>
  <line class="uuid-2faf5424-04dd-4586-a721-9f9af3c797b2" x1="288.846" y1="95.226" x2="276.827" y2="74.438"/>
</svg>