<?xml version="1.0" encoding="UTF-8"?>
<svg id="uuid-eac13120-3b61-4e41-b510-3a673fe63cff" data-name="&amp;lt;Layer&amp;gt;" xmlns="http://www.w3.org/2000/svg" viewBox="0 0 451.11 451.11">
  <defs>
    <style>
      .uuid-432a6047-e768-4ae0-a78e-4f56d445e5df, .uuid-22e0ccc4-6fdb-4151-8a63-0506e6a0d55e, .uuid-cffaf6c8-3011-43f9-bf92-67af928c4a8d, .uuid-fb578f62-a3d6-4cea-8478-4dc320434db4, .uuid-ce0002fe-4cae-4b63-afff-8c8d3ba6b61a {
        fill: none;
        stroke: #000;
        stroke-linecap: round;
      }

      .uuid-432a6047-e768-4ae0-a78e-4f56d445e5df, .uuid-22e0ccc4-6fdb-4151-8a63-0506e6a0d55e, .uuid-cffaf6c8-3011-43f9-bf92-67af928c4a8d, .uuid-ce0002fe-4cae-4b63-afff-8c8d3ba6b61a {
        stroke-linejoin: round;
      }

      .uuid-432a6047-e768-4ae0-a78e-4f56d445e5df, .uuid-ce0002fe-4cae-4b63-afff-8c8d3ba6b61a {
        stroke-width: 4.117px;
      }

      .uuid-22e0ccc4-6fdb-4151-8a63-0506e6a0d55e {
        stroke-width: 3.967px;
      }

      .uuid-cffaf6c8-3011-43f9-bf92-67af928c4a8d {
        stroke-width: 3.971px;
      }

      .uuid-fb578f62-a3d6-4cea-8478-4dc320434db4 {
        stroke-miterlimit: 10;
        stroke-width: 1.163px;
      }

      .uuid-ce0002fe-4cae-4b63-afff-8c8d3ba6b61a {
        fill-rule: evenodd;
      }
    </style>
  </defs>
  <path class="uuid-ce0002fe-4cae-4b63-afff-8c8d3ba6b61a" d="M189.25,239.796c2.444.489,4.887,1.125,7.33,1.883,13.68,4.518,21.009,12.944,20.763,21.469v.247c0,15.049-24.336,22.529-36.885,23.033-8.695.726-19.85-.632-28.093-3.929-6.516-1.957-13.918-7.741-17.101-13.78"/>
  <polyline class="uuid-ce0002fe-4cae-4b63-afff-8c8d3ba6b61a" points="146.503 262.344 146.503 267.402 152.122 270.651 152.122 259.142"/>
  <polyline class="uuid-ce0002fe-4cae-4b63-afff-8c8d3ba6b61a" points="152.122 259.142 152.122 270.651 189.25 249.104 189.25 239.796 189.25 237.6"/>
  <path class="uuid-ce0002fe-4cae-4b63-afff-8c8d3ba6b61a" d="M359.024,252.181c0,.467.245.931.245,1.442.244.074,0,.074,0,.074.733,2.491,1.223,5.571.244,8.647-.733,3.027-2.687,5.401-5.13,7.134-15.387,10.868-51.298-5.397-59.848-17.981-1.708-2.443-2.444-6.104-2.198-9.478v-.243c0-1.391.244-2.785.489-3.882"/>
  <path class="uuid-ce0002fe-4cae-4b63-afff-8c8d3ba6b61a" d="M292.827,237.843c.244-.88.487-1.59.733-2.102v.247"/>
  <path class="uuid-ce0002fe-4cae-4b63-afff-8c8d3ba6b61a" d="M292.338,240.186c-1.221,13.633,16.366,8.209,23.692,17.738,8.307,10.796,29.317,14.508,39.817,5.934,2.69-2.273,3.911-5.25,3.666-8.746-.244-2.906-1.465-5.912-3.419-8.915-4.643-7.377-12.701-15.781-23.695-20.619-5.375-2.392-10.015-3.834-15.148-3.271-9.037,1.001-23.938,7.914-24.914,17.877Z"/>
  <polygon class="uuid-ce0002fe-4cae-4b63-afff-8c8d3ba6b61a" points="124.272 184.687 228.09 124.764 228.09 196.313 124.272 256.213 124.272 184.687"/>
  <polygon class="uuid-ce0002fe-4cae-4b63-afff-8c8d3ba6b61a" points="124.272 184.687 228.09 124.764 228.09 114.455 124.272 174.377 124.272 184.687"/>
  <line class="uuid-432a6047-e768-4ae0-a78e-4f56d445e5df" x1="134.04" y1="269.552" x2="134.04" y2="269.478"/>
  <line class="uuid-432a6047-e768-4ae0-a78e-4f56d445e5df" x1="99.355" y1="286.186" x2="93.98" y2="283.131"/>
  <path class="uuid-ce0002fe-4cae-4b63-afff-8c8d3ba6b61a" d="M93.98,283.131c-2.443-2.052-2.686-3.344-2.932-6.472"/>
  <line class="uuid-432a6047-e768-4ae0-a78e-4f56d445e5df" x1="91.048" y1="276.66" x2="91.048" y2="179.142"/>
  <path class="uuid-ce0002fe-4cae-4b63-afff-8c8d3ba6b61a" d="M91.048,179.142c.489-7.256,3.911-13.092,10.018-17.393"/>
  <line class="uuid-432a6047-e768-4ae0-a78e-4f56d445e5df" x1="101.066" y1="161.749" x2="240.795" y2="81.186"/>
  <path class="uuid-ce0002fe-4cae-4b63-afff-8c8d3ba6b61a" d="M240.795,81.186c2.686-1.321,3.907-1.833,7.083-.684"/>
  <line class="uuid-432a6047-e768-4ae0-a78e-4f56d445e5df" x1="247.878" y1="80.502" x2="253.01" y2="83.555"/>
  <path class="uuid-ce0002fe-4cae-4b63-afff-8c8d3ba6b61a" d="M253.01,83.555c-2.932-1.147-4.154-.636-7.087.685"/>
  <line class="uuid-432a6047-e768-4ae0-a78e-4f56d445e5df" x1="245.923" y1="84.24" x2="106.438" y2="164.803"/>
  <path class="uuid-ce0002fe-4cae-4b63-afff-8c8d3ba6b61a" d="M106.438,164.803c-6.351,4.298-9.526,9.893-10.015,17.392"/>
  <line class="uuid-432a6047-e768-4ae0-a78e-4f56d445e5df" x1="96.423" y1="182.195" x2="96.18" y2="279.688"/>
  <path class="uuid-ce0002fe-4cae-4b63-afff-8c8d3ba6b61a" d="M96.18,279.688c.489,3.153.489,4.444,3.175,6.498"/>
  <path class="uuid-ce0002fe-4cae-4b63-afff-8c8d3ba6b61a" d="M245.923,84.24c5.619-3.176,10.262-.589,10.262,5.812"/>
  <line class="uuid-432a6047-e768-4ae0-a78e-4f56d445e5df" x1="256.185" y1="90.053" x2="255.938" y2="187.545"/>
  <path class="uuid-ce0002fe-4cae-4b63-afff-8c8d3ba6b61a" d="M255.938,187.545c0,6.376-4.396,14.195-10.015,17.37"/>
  <line class="uuid-432a6047-e768-4ae0-a78e-4f56d445e5df" x1="245.923" y1="204.915" x2="106.438" y2="285.501"/>
  <path class="uuid-ce0002fe-4cae-4b63-afff-8c8d3ba6b61a" d="M106.438,285.501c-5.619,3.175-10.258.563-10.258-5.814"/>
  <line class="uuid-432a6047-e768-4ae0-a78e-4f56d445e5df" x1="316.03" y1="291.34" x2="316.03" y2="297.665"/>
  <path class="uuid-ce0002fe-4cae-4b63-afff-8c8d3ba6b61a" d="M316.03,297.665c-.485,1.883-1.953,2.984-3.419,3.985"/>
  <line class="uuid-432a6047-e768-4ae0-a78e-4f56d445e5df" x1="312.612" y1="301.65" x2="195.601" y2="369.167"/>
  <path class="uuid-ce0002fe-4cae-4b63-afff-8c8d3ba6b61a" d="M195.601,369.167c-5.13,2.785-12.212,2.763-17.345-.022"/>
  <line class="uuid-432a6047-e768-4ae0-a78e-4f56d445e5df" x1="178.255" y1="369.145" x2="138.195" y2="345.939"/>
  <path class="uuid-ce0002fe-4cae-4b63-afff-8c8d3ba6b61a" d="M138.195,345.939c-1.711-.979-2.932-2.079-3.419-3.981"/>
  <line class="uuid-432a6047-e768-4ae0-a78e-4f56d445e5df" x1="134.776" y1="341.958" x2="134.776" y2="335.629"/>
  <path class="uuid-ce0002fe-4cae-4b63-afff-8c8d3ba6b61a" d="M134.776,335.629c.487,1.906,1.708,2.98,3.419,4.007"/>
  <line class="uuid-432a6047-e768-4ae0-a78e-4f56d445e5df" x1="138.195" y1="339.636" x2="178.255" y2="362.842"/>
  <path class="uuid-ce0002fe-4cae-4b63-afff-8c8d3ba6b61a" d="M178.255,362.842c5.134,2.76,12.215,2.76,17.345,0"/>
  <line class="uuid-432a6047-e768-4ae0-a78e-4f56d445e5df" x1="195.601" y1="362.842" x2="312.612" y2="295.321"/>
  <path class="uuid-ce0002fe-4cae-4b63-afff-8c8d3ba6b61a" d="M312.612,295.321c1.466-1.001,2.934-2.074,3.419-3.981"/>
  <line class="uuid-432a6047-e768-4ae0-a78e-4f56d445e5df" x1="138.195" y1="329.595" x2="255.206" y2="262.1"/>
  <path class="uuid-ce0002fe-4cae-4b63-afff-8c8d3ba6b61a" d="M255.206,262.1c4.64-2.76,12.458-2.76,17.345,0"/>
  <line class="uuid-432a6047-e768-4ae0-a78e-4f56d445e5df" x1="272.551" y1="262.1" x2="312.612" y2="285.307"/>
  <path class="uuid-ce0002fe-4cae-4b63-afff-8c8d3ba6b61a" d="M312.612,285.307c4.64,2.737,4.64,7.28,0,10.014"/>
  <path class="uuid-ce0002fe-4cae-4b63-afff-8c8d3ba6b61a" d="M138.195,339.636c-4.64-2.785-4.64-7.282,0-10.041"/>
  <line class="uuid-432a6047-e768-4ae0-a78e-4f56d445e5df" x1="99.845" y1="171.544" x2="94.47" y2="168.515"/>
  <path class="uuid-ce0002fe-4cae-4b63-afff-8c8d3ba6b61a" d="M94.47,168.515c-2.2,3.419-3.175,6.62-3.421,10.627"/>
  <path class="uuid-ce0002fe-4cae-4b63-afff-8c8d3ba6b61a" d="M96.423,182.195c.247-4.006.979-7.23,3.422-10.651"/>
  <path class="uuid-ce0002fe-4cae-4b63-afff-8c8d3ba6b61a" d="M324.58,238.332c-6.35-5.519-13.19-9.137-21.251-11.285"/>
  <line class="uuid-432a6047-e768-4ae0-a78e-4f56d445e5df" x1="107.174" y1="172.474" x2="245.191" y2="92.717"/>
  <path class="uuid-ce0002fe-4cae-4b63-afff-8c8d3ba6b61a" d="M245.191,92.717c2.687-1.42,4.644-.269,4.644,2.612"/>
  <line class="uuid-432a6047-e768-4ae0-a78e-4f56d445e5df" x1="249.835" y1="95.329" x2="249.835" y2="189.208"/>
  <path class="uuid-ce0002fe-4cae-4b63-afff-8c8d3ba6b61a" d="M249.835,189.208c0,2.882-1.957,6.373-4.644,7.815"/>
  <line class="uuid-432a6047-e768-4ae0-a78e-4f56d445e5df" x1="245.191" y1="197.023" x2="106.928" y2="276.759"/>
  <path class="uuid-ce0002fe-4cae-4b63-afff-8c8d3ba6b61a" d="M106.928,276.759c-2.443,1.438-4.396.269-4.396-2.617"/>
  <line class="uuid-432a6047-e768-4ae0-a78e-4f56d445e5df" x1="102.531" y1="274.143" x2="102.531" y2="180.267"/>
  <path class="uuid-ce0002fe-4cae-4b63-afff-8c8d3ba6b61a" d="M102.531,180.267c0-2.858,1.953-6.376,4.643-7.793"/>
  <path class="uuid-ce0002fe-4cae-4b63-afff-8c8d3ba6b61a" d="M319.452,234.325c-.732-3.934-7.33-7.009-10.505-5.545"/>
  <path class="uuid-ce0002fe-4cae-4b63-afff-8c8d3ba6b61a" d="M150.654,187.84c.736-.463,1.468-.1,1.468.806"/>
  <path class="uuid-ce0002fe-4cae-4b63-afff-8c8d3ba6b61a" d="M152.122,188.646c0,.927-.732,2.026-1.468,2.491"/>
  <path class="uuid-ce0002fe-4cae-4b63-afff-8c8d3ba6b61a" d="M150.654,191.137c-.975.463-1.464.073-1.464-.832"/>
  <path class="uuid-ce0002fe-4cae-4b63-afff-8c8d3ba6b61a" d="M150.654,203.617c.736-.463,1.468-.07,1.468.831"/>
  <path class="uuid-ce0002fe-4cae-4b63-afff-8c8d3ba6b61a" d="M152.122,204.448c0,.906-.732,2.031-1.468,2.469"/>
  <path class="uuid-ce0002fe-4cae-4b63-afff-8c8d3ba6b61a" d="M150.654,206.917c-.975.465-1.464.074-1.464-.831"/>
  <path class="uuid-ce0002fe-4cae-4b63-afff-8c8d3ba6b61a" d="M150.654,220.377c.736-.443,1.468-.074,1.468.831"/>
  <path class="uuid-ce0002fe-4cae-4b63-afff-8c8d3ba6b61a" d="M152.122,221.208c0,.928-.732,2.028-1.468,2.491"/>
  <path class="uuid-ce0002fe-4cae-4b63-afff-8c8d3ba6b61a" d="M150.654,223.699c-.975.441-1.464.074-1.464-.831"/>
  <line class="uuid-432a6047-e768-4ae0-a78e-4f56d445e5df" x1="160.426" y1="199.614" x2="200.976" y2="176.162"/>
  <line class="uuid-432a6047-e768-4ae0-a78e-4f56d445e5df" x1="160.426" y1="183.807" x2="200.976" y2="160.381"/>
  <line class="uuid-432a6047-e768-4ae0-a78e-4f56d445e5df" x1="160.426" y1="216.37" x2="193.162" y2="197.414"/>
  <path class="uuid-ce0002fe-4cae-4b63-afff-8c8d3ba6b61a" d="M217.342,263.149c0,5.35.247,8.356-2.932,13.069-7.326,11.09-25.16,15.17-37.861,15.342-12.705.17-29.803-3.37-38.353-13.532-2.198-2.396-3.666-5.302-4.155-8.477"/>
  <line class="uuid-fb578f62-a3d6-4cea-8478-4dc320434db4" x1="94.47" y1="276.17" x2="93.248" y2="275.438"/>
  <line class="uuid-fb578f62-a3d6-4cea-8478-4dc320434db4" x1="94.47" y1="263.149" x2="93.248" y2="262.394"/>
  <line class="uuid-fb578f62-a3d6-4cea-8478-4dc320434db4" x1="94.47" y1="250.131" x2="93.248" y2="249.395"/>
  <line class="uuid-fb578f62-a3d6-4cea-8478-4dc320434db4" x1="94.47" y1="237.085" x2="93.248" y2="236.353"/>
  <line class="uuid-fb578f62-a3d6-4cea-8478-4dc320434db4" x1="94.47" y1="224.067" x2="93.248" y2="223.331"/>
  <line class="uuid-fb578f62-a3d6-4cea-8478-4dc320434db4" x1="94.47" y1="211.046" x2="93.248" y2="210.314"/>
  <line class="uuid-fb578f62-a3d6-4cea-8478-4dc320434db4" x1="94.47" y1="197.998" x2="93.248" y2="197.266"/>
  <line class="uuid-fb578f62-a3d6-4cea-8478-4dc320434db4" x1="94.47" y1="184.98" x2="93.248" y2="184.222"/>
  <line class="uuid-fb578f62-a3d6-4cea-8478-4dc320434db4" x1="96.67" y1="173.156" x2="94.959" y2="172.133"/>
  <line class="uuid-fb578f62-a3d6-4cea-8478-4dc320434db4" x1="110.835" y1="280.64" x2="109.128" y2="277.708"/>
  <line class="uuid-fb578f62-a3d6-4cea-8478-4dc320434db4" x1="100.577" y1="262.928" x2="98.377" y2="258.826"/>
  <line class="uuid-fb578f62-a3d6-4cea-8478-4dc320434db4" x1="130.623" y1="269.283" x2="128.912" y2="266.401"/>
  <line class="uuid-fb578f62-a3d6-4cea-8478-4dc320434db4" x1="100.577" y1="217.664" x2="98.377" y2="213.585"/>
  <line class="uuid-fb578f62-a3d6-4cea-8478-4dc320434db4" x1="150.168" y1="258.02" x2="148.457" y2="255.139"/>
  <line class="uuid-fb578f62-a3d6-4cea-8478-4dc320434db4" x1="102.042" y1="174.965" x2="101.066" y2="173.206"/>
  <line class="uuid-fb578f62-a3d6-4cea-8478-4dc320434db4" x1="169.709" y1="246.757" x2="167.997" y2="243.876"/>
  <line class="uuid-fb578f62-a3d6-4cea-8478-4dc320434db4" x1="120.85" y1="162.238" x2="119.386" y2="159.623"/>
  <line class="uuid-fb578f62-a3d6-4cea-8478-4dc320434db4" x1="189.25" y1="235.473" x2="187.539" y2="232.614"/>
  <line class="uuid-fb578f62-a3d6-4cea-8478-4dc320434db4" x1="140.395" y1="151.001" x2="138.927" y2="148.364"/>
  <line class="uuid-fb578f62-a3d6-4cea-8478-4dc320434db4" x1="208.795" y1="224.162" x2="207.084" y2="221.304"/>
  <line class="uuid-fb578f62-a3d6-4cea-8478-4dc320434db4" x1="159.937" y1="139.717" x2="158.473" y2="137.075"/>
  <line class="uuid-fb578f62-a3d6-4cea-8478-4dc320434db4" x1="228.336" y1="212.878" x2="226.626" y2="210.019"/>
  <line class="uuid-fb578f62-a3d6-4cea-8478-4dc320434db4" x1="179.477" y1="128.407" x2="178.013" y2="125.742"/>
  <line class="uuid-fb578f62-a3d6-4cea-8478-4dc320434db4" x1="247.634" y1="201.273" x2="246.17" y2="198.782"/>
  <line class="uuid-fb578f62-a3d6-4cea-8478-4dc320434db4" x1="199.022" y1="117.144" x2="197.558" y2="114.481"/>
  <line class="uuid-fb578f62-a3d6-4cea-8478-4dc320434db4" x1="253.985" y1="167.368" x2="251.789" y2="163.63"/>
  <line class="uuid-fb578f62-a3d6-4cea-8478-4dc320434db4" x1="218.564" y1="105.882" x2="217.1" y2="103.218"/>
  <line class="uuid-fb578f62-a3d6-4cea-8478-4dc320434db4" x1="253.985" y1="122.126" x2="251.789" y2="118.392"/>
  <line class="uuid-fb578f62-a3d6-4cea-8478-4dc320434db4" x1="238.109" y1="94.619" x2="236.641" y2="91.933"/>
  <line class="uuid-fb578f62-a3d6-4cea-8478-4dc320434db4" x1="145.767" y1="170.105" x2="143.081" y2="165.635"/>
  <line class="uuid-fb578f62-a3d6-4cea-8478-4dc320434db4" x1="165.312" y1="158.843" x2="162.622" y2="154.394"/>
  <line class="uuid-fb578f62-a3d6-4cea-8478-4dc320434db4" x1="184.853" y1="147.532" x2="182.168" y2="143.062"/>
  <line class="uuid-fb578f62-a3d6-4cea-8478-4dc320434db4" x1="204.399" y1="136.295" x2="201.708" y2="131.803"/>
  <line class="uuid-fb578f62-a3d6-4cea-8478-4dc320434db4" x1="223.939" y1="124.986" x2="221.496" y2="120.492"/>
  <line class="uuid-fb578f62-a3d6-4cea-8478-4dc320434db4" x1="140.881" y1="345.055" x2="140.881" y2="343.444"/>
  <line class="uuid-fb578f62-a3d6-4cea-8478-4dc320434db4" x1="152.122" y1="351.579" x2="152.122" y2="349.993"/>
  <line class="uuid-fb578f62-a3d6-4cea-8478-4dc320434db4" x1="163.358" y1="358.103" x2="163.358" y2="356.512"/>
  <line class="uuid-fb578f62-a3d6-4cea-8478-4dc320434db4" x1="174.838" y1="364.747" x2="174.838" y2="363.158"/>
  <line class="uuid-fb578f62-a3d6-4cea-8478-4dc320434db4" x1="186.075" y1="369.243" x2="186.075" y2="366.871"/>
  <line class="uuid-fb578f62-a3d6-4cea-8478-4dc320434db4" x1="197.311" y1="365.896" x2="197.311" y2="364.211"/>
  <line class="uuid-fb578f62-a3d6-4cea-8478-4dc320434db4" x1="208.548" y1="359.372" x2="208.548" y2="357.687"/>
  <line class="uuid-fb578f62-a3d6-4cea-8478-4dc320434db4" x1="219.785" y1="352.874" x2="219.785" y2="351.189"/>
  <line class="uuid-fb578f62-a3d6-4cea-8478-4dc320434db4" x1="231.022" y1="346.376" x2="231.022" y2="344.692"/>
  <line class="uuid-fb578f62-a3d6-4cea-8478-4dc320434db4" x1="242.259" y1="339.879" x2="242.259" y2="338.172"/>
  <line class="uuid-fb578f62-a3d6-4cea-8478-4dc320434db4" x1="253.742" y1="333.234" x2="253.742" y2="331.548"/>
  <line class="uuid-fb578f62-a3d6-4cea-8478-4dc320434db4" x1="264.979" y1="326.736" x2="264.979" y2="325.05"/>
  <line class="uuid-fb578f62-a3d6-4cea-8478-4dc320434db4" x1="276.216" y1="320.239" x2="276.216" y2="318.552"/>
  <line class="uuid-fb578f62-a3d6-4cea-8478-4dc320434db4" x1="287.452" y1="313.741" x2="287.452" y2="312.03"/>
  <line class="uuid-fb578f62-a3d6-4cea-8478-4dc320434db4" x1="298.932" y1="307.243" x2="298.932" y2="305.532"/>
  <line class="uuid-fb578f62-a3d6-4cea-8478-4dc320434db4" x1="310.169" y1="300.745" x2="310.169" y2="299.034"/>
  <line class="uuid-fb578f62-a3d6-4cea-8478-4dc320434db4" x1="312.122" y1="252.67" x2="299.664" y2="230.928"/>
  <line class="uuid-fb578f62-a3d6-4cea-8478-4dc320434db4" x1="346.811" y1="267.498" x2="321.163" y2="222.94"/>
  <line class="uuid-fb578f62-a3d6-4cea-8478-4dc320434db4" x1="306.262" y1="260.441" x2="306.262" y2="254.013"/>
  <line class="uuid-fb578f62-a3d6-4cea-8478-4dc320434db4" x1="317.499" y1="266.523" x2="317.499" y2="262.274"/>
  <line class="uuid-fb578f62-a3d6-4cea-8478-4dc320434db4" x1="328.735" y1="270.188" x2="328.735" y2="268.646"/>
  <line class="uuid-fb578f62-a3d6-4cea-8478-4dc320434db4" x1="339.972" y1="271.601" x2="339.972" y2="270.599"/>
  <line class="uuid-fb578f62-a3d6-4cea-8478-4dc320434db4" x1="351.209" y1="269.109" x2="351.209" y2="268.746"/>
  <line class="uuid-fb578f62-a3d6-4cea-8478-4dc320434db4" x1="107.66" y1="161.749" x2="106.438" y2="161.043"/>
  <line class="uuid-fb578f62-a3d6-4cea-8478-4dc320434db4" x1="118.897" y1="155.251" x2="117.675" y2="154.519"/>
  <line class="uuid-fb578f62-a3d6-4cea-8478-4dc320434db4" x1="130.133" y1="148.729" x2="128.912" y2="148.021"/>
  <line class="uuid-fb578f62-a3d6-4cea-8478-4dc320434db4" x1="141.617" y1="142.209" x2="140.395" y2="141.497"/>
  <line class="uuid-fb578f62-a3d6-4cea-8478-4dc320434db4" x1="152.854" y1="135.711" x2="151.632" y2="135"/>
  <line class="uuid-fb578f62-a3d6-4cea-8478-4dc320434db4" x1="164.333" y1="129.187" x2="162.869" y2="128.455"/>
  <line class="uuid-fb578f62-a3d6-4cea-8478-4dc320434db4" x1="175.57" y1="122.663" x2="174.106" y2="121.931"/>
  <line class="uuid-fb578f62-a3d6-4cea-8478-4dc320434db4" x1="186.807" y1="116.14" x2="185.585" y2="115.434"/>
  <line class="uuid-fb578f62-a3d6-4cea-8478-4dc320434db4" x1="198.043" y1="109.646" x2="196.822" y2="108.936"/>
  <line class="uuid-fb578f62-a3d6-4cea-8478-4dc320434db4" x1="209.28" y1="103.148" x2="208.059" y2="102.412"/>
  <line class="uuid-fb578f62-a3d6-4cea-8478-4dc320434db4" x1="220.764" y1="96.624" x2="219.296" y2="95.892"/>
  <line class="uuid-fb578f62-a3d6-4cea-8478-4dc320434db4" x1="232.001" y1="90.127" x2="230.533" y2="89.394"/>
  <line class="uuid-fb578f62-a3d6-4cea-8478-4dc320434db4" x1="243.237" y1="83.581" x2="242.016" y2="82.849"/>
  <line class="uuid-fb578f62-a3d6-4cea-8478-4dc320434db4" x1="173.374" y1="256.165" x2="170.195" y2="250.764"/>
  <line class="uuid-fb578f62-a3d6-4cea-8478-4dc320434db4" x1="215.631" y1="262.296" x2="208.059" y2="275.339"/>
  <line class="uuid-fb578f62-a3d6-4cea-8478-4dc320434db4" x1="209.77" y1="249.69" x2="190.228" y2="283.963"/>
  <line class="uuid-fb578f62-a3d6-4cea-8478-4dc320434db4" x1="200.486" y1="243.609" x2="176.059" y2="285.917"/>
  <line class="uuid-fb578f62-a3d6-4cea-8478-4dc320434db4" x1="179.968" y1="256.235" x2="163.844" y2="284.527"/>
  <line class="uuid-fb578f62-a3d6-4cea-8478-4dc320434db4" x1="160.183" y1="268.036" x2="152.854" y2="280.935"/>
  <line class="uuid-fb578f62-a3d6-4cea-8478-4dc320434db4" x1="146.256" y1="269.43" x2="143.081" y2="275.195"/>
  <line class="uuid-fb578f62-a3d6-4cea-8478-4dc320434db4" x1="154.807" y1="286.138" x2="154.807" y2="285.428"/>
  <line class="uuid-fb578f62-a3d6-4cea-8478-4dc320434db4" x1="166.044" y1="288.823" x2="166.044" y2="287.996"/>
  <line class="uuid-fb578f62-a3d6-4cea-8478-4dc320434db4" x1="177.281" y1="289.508" x2="177.281" y2="288.602"/>
  <line class="uuid-fb578f62-a3d6-4cea-8478-4dc320434db4" x1="188.76" y1="288.261" x2="188.76" y2="287.455"/>
  <line class="uuid-fb578f62-a3d6-4cea-8478-4dc320434db4" x1="200.001" y1="284.89" x2="200.001" y2="284.306"/>
  <g>
    <line class="uuid-22e0ccc4-6fdb-4151-8a63-0506e6a0d55e" x1="176.21" y1="333.455" x2="162.901" y2="341.162"/>
    <line class="uuid-22e0ccc4-6fdb-4151-8a63-0506e6a0d55e" x1="162.901" y1="341.166" x2="149.549" y2="333.433"/>
    <line class="uuid-22e0ccc4-6fdb-4151-8a63-0506e6a0d55e" x1="149.549" y1="333.433" x2="162.909" y2="325.746"/>
    <line class="uuid-cffaf6c8-3011-43f9-bf92-67af928c4a8d" x1="162.909" y1="325.746" x2="176.21" y2="333.455"/>
    <line class="uuid-22e0ccc4-6fdb-4151-8a63-0506e6a0d55e" x1="189.562" y1="341.188" x2="176.251" y2="348.897"/>
    <line class="uuid-22e0ccc4-6fdb-4151-8a63-0506e6a0d55e" x1="176.254" y1="348.897" x2="162.901" y2="341.166"/>
    <line class="uuid-22e0ccc4-6fdb-4151-8a63-0506e6a0d55e" x1="162.901" y1="341.166" x2="176.262" y2="333.477"/>
    <line class="uuid-cffaf6c8-3011-43f9-bf92-67af928c4a8d" x1="176.262" y1="333.481" x2="189.562" y2="341.184"/>
    <line class="uuid-22e0ccc4-6fdb-4151-8a63-0506e6a0d55e" x1="202.911" y1="348.919" x2="189.603" y2="356.631"/>
    <line class="uuid-22e0ccc4-6fdb-4151-8a63-0506e6a0d55e" x1="189.603" y1="356.631" x2="176.251" y2="348.901"/>
    <line class="uuid-22e0ccc4-6fdb-4151-8a63-0506e6a0d55e" x1="176.251" y1="348.901" x2="189.614" y2="341.21"/>
    <line class="uuid-cffaf6c8-3011-43f9-bf92-67af928c4a8d" x1="189.614" y1="341.21" x2="202.915" y2="348.919"/>
    <line class="uuid-22e0ccc4-6fdb-4151-8a63-0506e6a0d55e" x1="189.518" y1="325.742" x2="176.21" y2="333.455"/>
    <line class="uuid-22e0ccc4-6fdb-4151-8a63-0506e6a0d55e" x1="176.21" y1="333.455" x2="162.857" y2="325.724"/>
    <line class="uuid-22e0ccc4-6fdb-4151-8a63-0506e6a0d55e" x1="162.857" y1="325.724" x2="176.218" y2="318.035"/>
    <line class="uuid-cffaf6c8-3011-43f9-bf92-67af928c4a8d" x1="176.218" y1="318.035" x2="189.518" y2="325.742"/>
    <line class="uuid-22e0ccc4-6fdb-4151-8a63-0506e6a0d55e" x1="202.871" y1="333.477" x2="189.558" y2="341.184"/>
    <line class="uuid-22e0ccc4-6fdb-4151-8a63-0506e6a0d55e" x1="189.562" y1="341.188" x2="176.21" y2="333.459"/>
    <line class="uuid-22e0ccc4-6fdb-4151-8a63-0506e6a0d55e" x1="176.21" y1="333.459" x2="189.57" y2="325.768"/>
    <line class="uuid-cffaf6c8-3011-43f9-bf92-67af928c4a8d" x1="189.57" y1="325.768" x2="202.871" y2="333.477"/>
    <line class="uuid-22e0ccc4-6fdb-4151-8a63-0506e6a0d55e" x1="216.219" y1="341.21" x2="202.911" y2="348.919"/>
    <line class="uuid-22e0ccc4-6fdb-4151-8a63-0506e6a0d55e" x1="202.911" y1="348.923" x2="189.558" y2="341.188"/>
    <line class="uuid-22e0ccc4-6fdb-4151-8a63-0506e6a0d55e" x1="189.558" y1="341.192" x2="202.923" y2="333.503"/>
    <line class="uuid-22e0ccc4-6fdb-4151-8a63-0506e6a0d55e" x1="202.827" y1="318.038" x2="189.518" y2="325.746"/>
    <line class="uuid-22e0ccc4-6fdb-4151-8a63-0506e6a0d55e" x1="189.518" y1="325.746" x2="176.166" y2="318.016"/>
    <line class="uuid-22e0ccc4-6fdb-4151-8a63-0506e6a0d55e" x1="176.166" y1="318.016" x2="189.53" y2="310.326"/>
    <line class="uuid-22e0ccc4-6fdb-4151-8a63-0506e6a0d55e" x1="189.526" y1="310.33" x2="202.827" y2="318.035"/>
    <line class="uuid-22e0ccc4-6fdb-4151-8a63-0506e6a0d55e" x1="216.179" y1="325.768" x2="202.871" y2="333.481"/>
    <line class="uuid-22e0ccc4-6fdb-4151-8a63-0506e6a0d55e" x1="202.871" y1="333.481" x2="189.518" y2="325.75"/>
    <line class="uuid-22e0ccc4-6fdb-4151-8a63-0506e6a0d55e" x1="189.518" y1="325.75" x2="202.882" y2="318.061"/>
    <line class="uuid-22e0ccc4-6fdb-4151-8a63-0506e6a0d55e" x1="202.879" y1="318.061" x2="216.179" y2="325.768"/>
    <line class="uuid-22e0ccc4-6fdb-4151-8a63-0506e6a0d55e" x1="229.532" y1="333.503" x2="216.223" y2="341.21"/>
    <line class="uuid-22e0ccc4-6fdb-4151-8a63-0506e6a0d55e" x1="202.871" y1="333.483" x2="216.231" y2="325.794"/>
    <line class="uuid-22e0ccc4-6fdb-4151-8a63-0506e6a0d55e" x1="216.135" y1="310.326" x2="202.827" y2="318.035"/>
    <line class="uuid-22e0ccc4-6fdb-4151-8a63-0506e6a0d55e" x1="202.827" y1="318.038" x2="189.474" y2="310.304"/>
    <line class="uuid-22e0ccc4-6fdb-4151-8a63-0506e6a0d55e" x1="189.474" y1="310.308" x2="202.838" y2="302.618"/>
    <line class="uuid-22e0ccc4-6fdb-4151-8a63-0506e6a0d55e" x1="202.834" y1="302.618" x2="216.135" y2="310.326"/>
    <line class="uuid-22e0ccc4-6fdb-4151-8a63-0506e6a0d55e" x1="229.488" y1="318.061" x2="216.179" y2="325.768"/>
    <line class="uuid-22e0ccc4-6fdb-4151-8a63-0506e6a0d55e" x1="216.179" y1="325.772" x2="202.827" y2="318.038"/>
    <line class="uuid-22e0ccc4-6fdb-4151-8a63-0506e6a0d55e" x1="202.827" y1="318.041" x2="216.191" y2="310.352"/>
    <line class="uuid-22e0ccc4-6fdb-4151-8a63-0506e6a0d55e" x1="216.187" y1="310.352" x2="229.488" y2="318.061"/>
    <line class="uuid-22e0ccc4-6fdb-4151-8a63-0506e6a0d55e" x1="242.84" y1="325.794" x2="229.532" y2="333.503"/>
    <line class="uuid-22e0ccc4-6fdb-4151-8a63-0506e6a0d55e" x1="216.179" y1="325.772" x2="229.54" y2="318.083"/>
    <line class="uuid-cffaf6c8-3011-43f9-bf92-67af928c4a8d" x1="229.54" y1="318.085" x2="242.84" y2="325.794"/>
    <line class="uuid-cffaf6c8-3011-43f9-bf92-67af928c4a8d" x1="224.207" y1="290.244" x2="237.509" y2="297.952"/>
    <line class="uuid-cffaf6c8-3011-43f9-bf92-67af928c4a8d" x1="237.56" y1="297.978" x2="250.861" y2="305.683"/>
    <line class="uuid-22e0ccc4-6fdb-4151-8a63-0506e6a0d55e" x1="250.912" y1="305.709" x2="264.21" y2="313.416"/>
    <line class="uuid-22e0ccc4-6fdb-4151-8a63-0506e6a0d55e" x1="250.816" y1="290.24" x2="237.505" y2="297.952"/>
    <line class="uuid-22e0ccc4-6fdb-4151-8a63-0506e6a0d55e" x1="237.509" y1="297.952" x2="224.157" y2="290.222"/>
    <line class="uuid-22e0ccc4-6fdb-4151-8a63-0506e6a0d55e" x1="224.157" y1="290.222" x2="237.516" y2="282.532"/>
    <line class="uuid-cffaf6c8-3011-43f9-bf92-67af928c4a8d" x1="237.516" y1="282.532" x2="250.816" y2="290.24"/>
    <line class="uuid-cffaf6c8-3011-43f9-bf92-67af928c4a8d" x1="264.166" y1="297.974" x2="250.858" y2="305.683"/>
    <line class="uuid-cffaf6c8-3011-43f9-bf92-67af928c4a8d" x1="250.858" y1="305.687" x2="237.505" y2="297.956"/>
    <line class="uuid-22e0ccc4-6fdb-4151-8a63-0506e6a0d55e" x1="237.505" y1="297.956" x2="250.868" y2="290.266"/>
    <line class="uuid-cffaf6c8-3011-43f9-bf92-67af928c4a8d" x1="250.868" y1="290.266" x2="264.169" y2="297.974"/>
    <line class="uuid-22e0ccc4-6fdb-4151-8a63-0506e6a0d55e" x1="277.518" y1="305.709" x2="264.21" y2="313.416"/>
    <line class="uuid-22e0ccc4-6fdb-4151-8a63-0506e6a0d55e" x1="264.21" y1="313.42" x2="250.858" y2="305.687"/>
    <line class="uuid-22e0ccc4-6fdb-4151-8a63-0506e6a0d55e" x1="250.858" y1="305.691" x2="264.221" y2="298"/>
    <line class="uuid-22e0ccc4-6fdb-4151-8a63-0506e6a0d55e" x1="264.217" y1="298" x2="277.518" y2="305.709"/>
    <line class="uuid-22e0ccc4-6fdb-4151-8a63-0506e6a0d55e" x1="264.125" y1="282.536" x2="250.816" y2="290.244"/>
    <line class="uuid-22e0ccc4-6fdb-4151-8a63-0506e6a0d55e" x1="250.816" y1="290.244" x2="237.465" y2="282.513"/>
    <line class="uuid-22e0ccc4-6fdb-4151-8a63-0506e6a0d55e" x1="237.465" y1="282.513" x2="250.828" y2="274.824"/>
    <line class="uuid-22e0ccc4-6fdb-4151-8a63-0506e6a0d55e" x1="250.824" y1="274.828" x2="264.125" y2="282.532"/>
    <line class="uuid-22e0ccc4-6fdb-4151-8a63-0506e6a0d55e" x1="277.477" y1="290.266" x2="264.169" y2="297.978"/>
    <line class="uuid-22e0ccc4-6fdb-4151-8a63-0506e6a0d55e" x1="264.169" y1="297.978" x2="250.816" y2="290.248"/>
    <line class="uuid-22e0ccc4-6fdb-4151-8a63-0506e6a0d55e" x1="250.816" y1="290.248" x2="264.177" y2="282.558"/>
    <line class="uuid-cffaf6c8-3011-43f9-bf92-67af928c4a8d" x1="264.177" y1="282.558" x2="277.477" y2="290.266"/>
    <line class="uuid-22e0ccc4-6fdb-4151-8a63-0506e6a0d55e" x1="290.83" y1="298" x2="277.518" y2="305.709"/>
    <line class="uuid-22e0ccc4-6fdb-4151-8a63-0506e6a0d55e" x1="277.521" y1="305.713" x2="264.169" y2="297.978"/>
    <line class="uuid-22e0ccc4-6fdb-4151-8a63-0506e6a0d55e" x1="264.169" y1="297.982" x2="277.529" y2="290.292"/>
    <line class="uuid-cffaf6c8-3011-43f9-bf92-67af928c4a8d" x1="277.529" y1="290.292" x2="290.83" y2="298"/>
    <line class="uuid-22e0ccc4-6fdb-4151-8a63-0506e6a0d55e" x1="277.433" y1="274.824" x2="264.125" y2="282.532"/>
    <line class="uuid-22e0ccc4-6fdb-4151-8a63-0506e6a0d55e" x1="264.125" y1="282.536" x2="250.772" y2="274.802"/>
    <line class="uuid-22e0ccc4-6fdb-4151-8a63-0506e6a0d55e" x1="250.772" y1="274.805" x2="264.136" y2="267.115"/>
    <line class="uuid-22e0ccc4-6fdb-4151-8a63-0506e6a0d55e" x1="264.133" y1="267.115" x2="277.433" y2="274.824"/>
    <line class="uuid-22e0ccc4-6fdb-4151-8a63-0506e6a0d55e" x1="290.786" y1="282.558" x2="277.477" y2="290.266"/>
    <line class="uuid-22e0ccc4-6fdb-4151-8a63-0506e6a0d55e" x1="277.477" y1="290.27" x2="264.125" y2="282.536"/>
    <line class="uuid-22e0ccc4-6fdb-4151-8a63-0506e6a0d55e" x1="264.125" y1="282.539" x2="277.485" y2="274.85"/>
    <line class="uuid-cffaf6c8-3011-43f9-bf92-67af928c4a8d" x1="277.485" y1="274.85" x2="290.786" y2="282.558"/>
    <line class="uuid-22e0ccc4-6fdb-4151-8a63-0506e6a0d55e" x1="304.138" y1="290.292" x2="290.826" y2="298"/>
    <line class="uuid-22e0ccc4-6fdb-4151-8a63-0506e6a0d55e" x1="290.83" y1="298" x2="277.477" y2="290.27"/>
    <line class="uuid-22e0ccc4-6fdb-4151-8a63-0506e6a0d55e" x1="277.477" y1="290.27" x2="290.838" y2="282.58"/>
    <line class="uuid-cffaf6c8-3011-43f9-bf92-67af928c4a8d" x1="290.838" y1="282.584" x2="304.138" y2="290.292"/>
    <line class="uuid-22e0ccc4-6fdb-4151-8a63-0506e6a0d55e" x1="202.834" y1="302.621" x2="216.135" y2="310.326"/>
    <line class="uuid-22e0ccc4-6fdb-4151-8a63-0506e6a0d55e" x1="216.187" y1="310.352" x2="229.488" y2="318.061"/>
    <line class="uuid-cffaf6c8-3011-43f9-bf92-67af928c4a8d" x1="229.54" y1="318.085" x2="242.84" y2="325.794"/>
    <line class="uuid-22e0ccc4-6fdb-4151-8a63-0506e6a0d55e" x1="229.444" y1="302.618" x2="216.135" y2="310.326"/>
    <line class="uuid-22e0ccc4-6fdb-4151-8a63-0506e6a0d55e" x1="216.135" y1="310.33" x2="202.782" y2="302.599"/>
    <line class="uuid-22e0ccc4-6fdb-4151-8a63-0506e6a0d55e" x1="202.782" y1="302.599" x2="216.147" y2="294.909"/>
    <line class="uuid-22e0ccc4-6fdb-4151-8a63-0506e6a0d55e" x1="216.143" y1="294.909" x2="229.444" y2="302.618"/>
    <line class="uuid-22e0ccc4-6fdb-4151-8a63-0506e6a0d55e" x1="242.796" y1="310.352" x2="229.488" y2="318.061"/>
    <line class="uuid-22e0ccc4-6fdb-4151-8a63-0506e6a0d55e" x1="229.488" y1="318.063" x2="216.135" y2="310.33"/>
    <line class="uuid-22e0ccc4-6fdb-4151-8a63-0506e6a0d55e" x1="216.135" y1="310.334" x2="229.495" y2="302.643"/>
    <line class="uuid-22e0ccc4-6fdb-4151-8a63-0506e6a0d55e" x1="229.495" y1="302.643" x2="242.796" y2="310.352"/>
    <line class="uuid-22e0ccc4-6fdb-4151-8a63-0506e6a0d55e" x1="256.149" y1="318.085" x2="242.84" y2="325.794"/>
    <line class="uuid-22e0ccc4-6fdb-4151-8a63-0506e6a0d55e" x1="242.84" y1="325.794" x2="229.488" y2="318.063"/>
    <line class="uuid-22e0ccc4-6fdb-4151-8a63-0506e6a0d55e" x1="229.488" y1="318.063" x2="242.848" y2="310.378"/>
    <line class="uuid-cffaf6c8-3011-43f9-bf92-67af928c4a8d" x1="242.848" y1="310.378" x2="256.149" y2="318.085"/>
  </g>
</svg>