<?xml version="1.0" encoding="UTF-8"?>
<svg id="uuid-117edb29-69c9-4547-8ecd-7ea5adf95216" data-name="&amp;lt;Layer&amp;gt;" xmlns="http://www.w3.org/2000/svg" viewBox="0 0 451.11 451.11">
  <defs>
    <style>
      .uuid-ca9737fc-ebc9-4777-8316-a84b0a5fd7c0, .uuid-06252dbc-c79d-48aa-bc1d-bec113eee144, .uuid-6fe39d82-777d-49b7-b449-387b1e7f11eb {
        fill: none;
        stroke: #000;
        stroke-linecap: round;
      }

      .uuid-ca9737fc-ebc9-4777-8316-a84b0a5fd7c0, .uuid-6fe39d82-777d-49b7-b449-387b1e7f11eb {
        stroke-linejoin: round;
        stroke-width: 4.113px;
      }

      .uuid-06252dbc-c79d-48aa-bc1d-bec113eee144 {
        stroke-miterlimit: 10;
        stroke-width: 1.163px;
      }

      .uuid-6fe39d82-777d-49b7-b449-387b1e7f11eb {
        fill-rule: evenodd;
      }
    </style>
  </defs>
  <polygon class="uuid-6fe39d82-777d-49b7-b449-387b1e7f11eb" points="159.914 187.582 137.613 174.686 137.515 352.153 159.866 365.052 159.914 187.582"/>
  <polygon class="uuid-6fe39d82-777d-49b7-b449-387b1e7f11eb" points="313.595 98.957 291.216 86.057 137.613 174.686 159.914 187.582 313.595 98.957"/>
  <polygon class="uuid-6fe39d82-777d-49b7-b449-387b1e7f11eb" points="159.914 187.582 159.866 365.052 313.473 276.427 313.595 98.957 294.296 110.12 159.914 187.582"/>
  <path class="uuid-6fe39d82-777d-49b7-b449-387b1e7f11eb" d="M229.024,214.816v23.331c0,19.007-.047,38.791-.047,62.56,0,1.859,1.342,2.615,2.832,1.685"/>
  <polyline class="uuid-6fe39d82-777d-49b7-b449-387b1e7f11eb" points="231.809 302.392 233.495 301.392 233.616 301.392 239.819 297.801 241.508 296.801"/>
  <path class="uuid-6fe39d82-777d-49b7-b449-387b1e7f11eb" d="M241.508,296.801c1.634-.928,2.907-3.128,2.907-4.986,0-23.402.07-42.968.07-61.681"/>
  <path class="uuid-6fe39d82-777d-49b7-b449-387b1e7f11eb" d="M229.024,205.048v-32.806c0-1.857,1.344-4.128,2.908-4.986"/>
  <polyline class="uuid-6fe39d82-777d-49b7-b449-387b1e7f11eb" points="231.931 167.256 233.616 166.256 233.664 166.256 239.893 162.665 239.893 162.617 241.578 161.687"/>
  <path class="uuid-6fe39d82-777d-49b7-b449-387b1e7f11eb" d="M241.578,161.687c1.616-.953,2.908-.195,2.908,1.663v32.832"/>
  <path class="uuid-6fe39d82-777d-49b7-b449-387b1e7f11eb" d="M273.457,226.594v-79.953c0-1.858,1.346-4.129,2.91-5.059"/>
  <polyline class="uuid-6fe39d82-777d-49b7-b449-387b1e7f11eb" points="276.367 141.582 278.026 140.655 278.1 140.607 284.303 137.042 284.303 136.991 285.988 136.012"/>
  <path class="uuid-6fe39d82-777d-49b7-b449-387b1e7f11eb" d="M285.988,136.012c1.638-.876,2.911-.122,2.911,1.689v80"/>
  <path class="uuid-6fe39d82-777d-49b7-b449-387b1e7f11eb" d="M288.847,251.753v14.39c0,1.855-1.269,4.129-2.906,5.056"/>
  <polyline class="uuid-6fe39d82-777d-49b7-b449-387b1e7f11eb" points="285.941 271.199 284.255 272.174 278.026 275.791 277.978 275.791 276.293 276.77"/>
  <path class="uuid-6fe39d82-777d-49b7-b449-387b1e7f11eb" d="M276.293,276.77c-1.564.927-2.884.169-2.884-1.685v-15.392c0-8.014,0-15.733.048-23.33"/>
  <path class="uuid-6fe39d82-777d-49b7-b449-387b1e7f11eb" d="M184.588,280.14c0,7.669,0,15.34-.047,23.28.047,7.378,0,15.001,0,22.937,0,1.81,1.342,2.565,2.906,1.638"/>
  <polyline class="uuid-6fe39d82-777d-49b7-b449-387b1e7f11eb" points="187.447 327.994 189.132 327.066 189.18 327.016 195.409 323.476 195.409 323.402 197.094 322.475"/>
  <path class="uuid-6fe39d82-777d-49b7-b449-387b1e7f11eb" d="M197.094,322.475c1.616-.931,2.908-3.201,2.908-5.06,0-7.597.051-14.849,0-21.936"/>
  <path class="uuid-6fe39d82-777d-49b7-b449-387b1e7f11eb" d="M184.588,270.393v-72.549c0-1.785,1.343-4.059,2.934-4.986"/>
  <polyline class="uuid-6fe39d82-777d-49b7-b449-387b1e7f11eb" points="187.521 192.858 189.18 191.883 189.254 191.883 195.461 188.266 197.146 187.287"/>
  <path class="uuid-6fe39d82-777d-49b7-b449-387b1e7f11eb" d="M197.146,187.287c1.634-.927,2.906-.169,2.906,1.686v72.479"/>
  <polygon class="uuid-6fe39d82-777d-49b7-b449-387b1e7f11eb" points="274.145 236.831 264.982 231.48 297.324 212.841 306.486 218.117 274.145 236.831"/>
  <polygon class="uuid-6fe39d82-777d-49b7-b449-387b1e7f11eb" points="274.145 260.11 264.982 254.834 264.982 231.48 274.145 236.831 274.145 260.11"/>
  <polygon class="uuid-6fe39d82-777d-49b7-b449-387b1e7f11eb" points="229.782 215.21 220.546 209.933 252.889 191.294 262.076 196.57 229.782 215.21"/>
  <polygon class="uuid-6fe39d82-777d-49b7-b449-387b1e7f11eb" points="229.731 238.563 220.546 233.261 220.546 209.933 229.782 215.21 229.731 238.563"/>
  <polygon class="uuid-6fe39d82-777d-49b7-b449-387b1e7f11eb" points="185.299 280.556 176.137 275.206 208.479 256.567 217.64 261.916 185.299 280.556"/>
  <polygon class="uuid-6fe39d82-777d-49b7-b449-387b1e7f11eb" points="185.299 303.909 176.137 298.559 176.137 275.206 185.299 280.556 185.299 303.909"/>
  <polygon class="uuid-6fe39d82-777d-49b7-b449-387b1e7f11eb" points="185.299 280.556 217.64 261.916 217.64 285.243 185.299 303.909 185.299 280.556"/>
  <polygon class="uuid-6fe39d82-777d-49b7-b449-387b1e7f11eb" points="229.782 215.21 262.076 196.57 262.076 219.924 229.731 238.563 229.782 215.21"/>
  <polygon class="uuid-6fe39d82-777d-49b7-b449-387b1e7f11eb" points="274.145 236.831 306.486 218.117 306.486 241.47 274.145 260.11 274.145 236.831"/>
  <line class="uuid-ca9737fc-ebc9-4777-8316-a84b0a5fd7c0" x1="288.847" y1="251.68" x2="288.847" y2="251.753"/>
  <line class="uuid-ca9737fc-ebc9-4777-8316-a84b0a5fd7c0" x1="184.588" y1="280.093" x2="184.588" y2="280.14"/>
  <line class="uuid-06252dbc-c79d-48aa-bc1d-bec113eee144" x1="311.71" y1="266.093" x2="303.653" y2="280.041"/>
  <line class="uuid-06252dbc-c79d-48aa-bc1d-bec113eee144" x1="311.541" y1="221.196" x2="308.461" y2="226.543"/>
  <line class="uuid-06252dbc-c79d-48aa-bc1d-bec113eee144" x1="294.587" y1="250.584" x2="290.753" y2="257.203"/>
  <line class="uuid-06252dbc-c79d-48aa-bc1d-bec113eee144" x1="279.494" y1="276.648" x2="264.346" y2="302.956"/>
  <line class="uuid-06252dbc-c79d-48aa-bc1d-bec113eee144" x1="312.199" y1="174.903" x2="290.241" y2="212.94"/>
  <line class="uuid-06252dbc-c79d-48aa-bc1d-bec113eee144" x1="265.373" y1="255.981" x2="245.805" y2="289.886"/>
  <line class="uuid-06252dbc-c79d-48aa-bc1d-bec113eee144" x1="240.479" y1="299.195" x2="225.261" y2="325.503"/>
  <line class="uuid-06252dbc-c79d-48aa-bc1d-bec113eee144" x1="312.199" y1="129.735" x2="290.241" y2="167.846"/>
  <line class="uuid-06252dbc-c79d-48aa-bc1d-bec113eee144" x1="271.602" y1="200.066" x2="263.857" y2="213.426"/>
  <line class="uuid-06252dbc-c79d-48aa-bc1d-bec113eee144" x1="257.484" y1="224.519" x2="246.1" y2="244.207"/>
  <line class="uuid-06252dbc-c79d-48aa-bc1d-bec113eee144" x1="228.34" y1="275.033" x2="185.247" y2="349.661"/>
  <line class="uuid-06252dbc-c79d-48aa-bc1d-bec113eee144" x1="297.545" y1="109.999" x2="282.349" y2="136.354"/>
  <line class="uuid-06252dbc-c79d-48aa-bc1d-bec113eee144" x1="272.065" y1="154.14" x2="250.861" y2="190.879"/>
  <line class="uuid-06252dbc-c79d-48aa-bc1d-bec113eee144" x1="224.26" y1="236.878" x2="212.486" y2="257.373"/>
  <line class="uuid-06252dbc-c79d-48aa-bc1d-bec113eee144" x1="183.198" y1="308.012" x2="161.214" y2="346.118"/>
  <line class="uuid-06252dbc-c79d-48aa-bc1d-bec113eee144" x1="258.484" y1="132.521" x2="242.557" y2="160.101"/>
  <line class="uuid-06252dbc-c79d-48aa-bc1d-bec113eee144" x1="227.802" y1="185.602" x2="201.223" y2="231.65"/>
  <line class="uuid-06252dbc-c79d-48aa-bc1d-bec113eee144" x1="182.682" y1="263.774" x2="177.991" y2="271.957"/>
  <line class="uuid-06252dbc-c79d-48aa-bc1d-bec113eee144" x1="174.5" y1="277.991" x2="161.552" y2="300.417"/>
  <line class="uuid-06252dbc-c79d-48aa-bc1d-bec113eee144" x1="219.447" y1="154.894" x2="200.69" y2="187.339"/>
  <line class="uuid-06252dbc-c79d-48aa-bc1d-bec113eee144" x1="183.272" y1="217.602" x2="161.262" y2="255.686"/>
  <line class="uuid-06252dbc-c79d-48aa-bc1d-bec113eee144" x1="180.364" y1="177.42" x2="161.382" y2="210.398"/>
  <line class="uuid-06252dbc-c79d-48aa-bc1d-bec113eee144" x1="195.067" y1="262.258" x2="186.347" y2="257.277"/>
  <line class="uuid-06252dbc-c79d-48aa-bc1d-bec113eee144" x1="198.367" y1="251.117" x2="186.226" y2="244.134"/>
  <line class="uuid-06252dbc-c79d-48aa-bc1d-bec113eee144" x1="198.367" y1="238.1" x2="186.226" y2="231.065"/>
  <line class="uuid-06252dbc-c79d-48aa-bc1d-bec113eee144" x1="198.367" y1="225.03" x2="186.226" y2="218.069"/>
  <line class="uuid-06252dbc-c79d-48aa-bc1d-bec113eee144" x1="198.367" y1="212.035" x2="186.226" y2="204.999"/>
  <line class="uuid-06252dbc-c79d-48aa-bc1d-bec113eee144" x1="198.247" y1="198.893" x2="189.353" y2="193.785"/>
  <line class="uuid-06252dbc-c79d-48aa-bc1d-bec113eee144" x1="197.389" y1="319.91" x2="186.226" y2="313.483"/>
  <line class="uuid-06252dbc-c79d-48aa-bc1d-bec113eee144" x1="198.195" y1="307.378" x2="190.524" y2="302.956"/>
  <line class="uuid-06252dbc-c79d-48aa-bc1d-bec113eee144" x1="182.682" y1="287.591" x2="177.991" y2="290.251"/>
  <line class="uuid-06252dbc-c79d-48aa-bc1d-bec113eee144" x1="241.873" y1="195.644" x2="230.71" y2="189.194"/>
  <line class="uuid-06252dbc-c79d-48aa-bc1d-bec113eee144" x1="242.777" y1="183.16" x2="230.662" y2="176.124"/>
  <line class="uuid-06252dbc-c79d-48aa-bc1d-bec113eee144" x1="242.605" y1="169.969" x2="236.692" y2="166.624"/>
  <line class="uuid-06252dbc-c79d-48aa-bc1d-bec113eee144" x1="240.356" y1="295.409" x2="230.71" y2="289.838"/>
  <line class="uuid-06252dbc-c79d-48aa-bc1d-bec113eee144" x1="242.729" y1="283.753" x2="230.588" y2="276.718"/>
  <line class="uuid-06252dbc-c79d-48aa-bc1d-bec113eee144" x1="242.729" y1="270.736" x2="230.588" y2="263.7"/>
  <line class="uuid-06252dbc-c79d-48aa-bc1d-bec113eee144" x1="242.777" y1="257.666" x2="230.662" y2="250.705"/>
  <line class="uuid-06252dbc-c79d-48aa-bc1d-bec113eee144" x1="242.729" y1="244.598" x2="232.762" y2="238.858"/>
  <line class="uuid-06252dbc-c79d-48aa-bc1d-bec113eee144" x1="227.118" y1="222.488" x2="222.453" y2="225.152"/>
  <line class="uuid-06252dbc-c79d-48aa-bc1d-bec113eee144" x1="283.671" y1="218.581" x2="275.194" y2="213.72"/>
  <line class="uuid-06252dbc-c79d-48aa-bc1d-bec113eee144" x1="287.21" y1="207.613" x2="275.072" y2="200.577"/>
  <line class="uuid-06252dbc-c79d-48aa-bc1d-bec113eee144" x1="287.21" y1="194.543" x2="275.072" y2="187.582"/>
  <line class="uuid-06252dbc-c79d-48aa-bc1d-bec113eee144" x1="287.21" y1="181.547" x2="275.072" y2="174.56"/>
  <line class="uuid-06252dbc-c79d-48aa-bc1d-bec113eee144" x1="287.21" y1="168.479" x2="275.072" y2="161.492"/>
  <line class="uuid-06252dbc-c79d-48aa-bc1d-bec113eee144" x1="287.21" y1="155.458" x2="275.072" y2="148.496"/>
  <line class="uuid-06252dbc-c79d-48aa-bc1d-bec113eee144" x1="286.944" y1="142.267" x2="282.985" y2="139.971"/>
  <line class="uuid-06252dbc-c79d-48aa-bc1d-bec113eee144" x1="286.455" y1="268.341" x2="275.072" y2="261.795"/>
  <line class="uuid-06252dbc-c79d-48aa-bc1d-bec113eee144" x1="286.746" y1="255.514" x2="286.525" y2="255.345"/>
  <line class="uuid-06252dbc-c79d-48aa-bc1d-bec113eee144" x1="271.48" y1="243.84" x2="266.885" y2="246.525"/>
  <line class="uuid-06252dbc-c79d-48aa-bc1d-bec113eee144" x1="165.901" y1="182.526" x2="156.154" y2="165.62"/>
  <line class="uuid-06252dbc-c79d-48aa-bc1d-bec113eee144" x1="185.42" y1="171.191" x2="175.721" y2="154.361"/>
  <line class="uuid-06252dbc-c79d-48aa-bc1d-bec113eee144" x1="204.987" y1="159.928" x2="195.289" y2="143.098"/>
  <line class="uuid-06252dbc-c79d-48aa-bc1d-bec113eee144" x1="224.553" y1="148.669" x2="214.807" y2="131.763"/>
  <line class="uuid-06252dbc-c79d-48aa-bc1d-bec113eee144" x1="244.121" y1="137.358" x2="234.374" y2="120.504"/>
  <line class="uuid-06252dbc-c79d-48aa-bc1d-bec113eee144" x1="263.688" y1="126.073" x2="253.941" y2="109.241"/>
  <line class="uuid-06252dbc-c79d-48aa-bc1d-bec113eee144" x1="283.206" y1="114.811" x2="273.507" y2="97.978"/>
  <line class="uuid-06252dbc-c79d-48aa-bc1d-bec113eee144" x1="302.721" y1="103.375" x2="295.297" y2="90.48"/>
  <line class="uuid-06252dbc-c79d-48aa-bc1d-bec113eee144" x1="157.887" y1="357.896" x2="154.642" y2="359.751"/>
  <line class="uuid-06252dbc-c79d-48aa-bc1d-bec113eee144" x1="158.303" y1="344.654" x2="142.964" y2="353.5"/>
  <line class="uuid-06252dbc-c79d-48aa-bc1d-bec113eee144" x1="158.476" y1="331.538" x2="138.957" y2="342.799"/>
  <line class="uuid-06252dbc-c79d-48aa-bc1d-bec113eee144" x1="158.476" y1="318.516" x2="138.957" y2="329.727"/>
  <line class="uuid-06252dbc-c79d-48aa-bc1d-bec113eee144" x1="158.476" y1="305.473" x2="138.957" y2="316.735"/>
  <line class="uuid-06252dbc-c79d-48aa-bc1d-bec113eee144" x1="158.476" y1="292.403" x2="138.957" y2="303.662"/>
  <line class="uuid-06252dbc-c79d-48aa-bc1d-bec113eee144" x1="158.476" y1="279.382" x2="138.957" y2="290.644"/>
  <line class="uuid-06252dbc-c79d-48aa-bc1d-bec113eee144" x1="158.476" y1="266.313" x2="138.957" y2="277.598"/>
  <line class="uuid-06252dbc-c79d-48aa-bc1d-bec113eee144" x1="158.476" y1="253.318" x2="139.005" y2="264.529"/>
  <line class="uuid-06252dbc-c79d-48aa-bc1d-bec113eee144" x1="158.476" y1="240.248" x2="139.005" y2="251.511"/>
  <line class="uuid-06252dbc-c79d-48aa-bc1d-bec113eee144" x1="158.476" y1="227.227" x2="139.005" y2="238.515"/>
  <line class="uuid-06252dbc-c79d-48aa-bc1d-bec113eee144" x1="158.476" y1="214.162" x2="139.005" y2="225.446"/>
  <line class="uuid-06252dbc-c79d-48aa-bc1d-bec113eee144" x1="158.476" y1="201.163" x2="139.005" y2="212.377"/>
  <line class="uuid-06252dbc-c79d-48aa-bc1d-bec113eee144" x1="158.255" y1="188.266" x2="139.005" y2="199.356"/>
  <line class="uuid-06252dbc-c79d-48aa-bc1d-bec113eee144" x1="146.555" y1="181.938" x2="139.42" y2="186.066"/>
</svg>