<?xml version="1.0" encoding="UTF-8"?>
<svg id="uuid-016d6c73-36c4-4993-b825-c239777e9e62" data-name="&amp;lt;Layer&amp;gt;" xmlns="http://www.w3.org/2000/svg" viewBox="0 0 451.11 451.11">
  <defs>
    <style>
      .uuid-5e2fe816-8b9a-42a5-899b-b501b585b7d3, .uuid-c4798f30-81e1-4fe1-a5f0-6a5546f77879, .uuid-b7959bea-4bbd-416a-b8a7-cb131d467d1a, .uuid-fdc51958-7a53-4f77-8f55-11cfe7b38196 {
        fill: none;
      }

      .uuid-5e2fe816-8b9a-42a5-899b-b501b585b7d3, .uuid-c4798f30-81e1-4fe1-a5f0-6a5546f77879, .uuid-b7959bea-4bbd-416a-b8a7-cb131d467d1a, .uuid-fdc51958-7a53-4f77-8f55-11cfe7b38196, .uuid-321a065b-e623-4012-aa75-71f8a88d567b, .uuid-8774d2dc-7b61-4fe7-b6fb-b3ac992a77e1 {
        stroke: #000;
        stroke-linecap: round;
      }

      .uuid-5e2fe816-8b9a-42a5-899b-b501b585b7d3, .uuid-fdc51958-7a53-4f77-8f55-11cfe7b38196 {
        stroke-width: 4.113px;
      }

      .uuid-5e2fe816-8b9a-42a5-899b-b501b585b7d3, .uuid-fdc51958-7a53-4f77-8f55-11cfe7b38196, .uuid-8774d2dc-7b61-4fe7-b6fb-b3ac992a77e1 {
        stroke-linejoin: round;
      }

      .uuid-c4798f30-81e1-4fe1-a5f0-6a5546f77879 {
        stroke-miterlimit: 10;
      }

      .uuid-c4798f30-81e1-4fe1-a5f0-6a5546f77879, .uuid-b7959bea-4bbd-416a-b8a7-cb131d467d1a {
        stroke-width: 1.159px;
      }

      .uuid-b7959bea-4bbd-416a-b8a7-cb131d467d1a, .uuid-fdc51958-7a53-4f77-8f55-11cfe7b38196, .uuid-321a065b-e623-4012-aa75-71f8a88d567b, .uuid-8774d2dc-7b61-4fe7-b6fb-b3ac992a77e1 {
        fill-rule: evenodd;
      }

      .uuid-b7959bea-4bbd-416a-b8a7-cb131d467d1a, .uuid-321a065b-e623-4012-aa75-71f8a88d567b {
        stroke-miterlimit: 22.926;
      }

      .uuid-321a065b-e623-4012-aa75-71f8a88d567b, .uuid-8774d2dc-7b61-4fe7-b6fb-b3ac992a77e1 {
        fill: #1986c6;
        stroke-width: 3.289px;
      }
    </style>
  </defs>
  <polyline class="uuid-fdc51958-7a53-4f77-8f55-11cfe7b38196" points="134.937 226.993 120.888 218.879 139.702 207.963 144.978 204.931"/>
  <polyline class="uuid-fdc51958-7a53-4f77-8f55-11cfe7b38196" points="153.819 199.829 153.819 216.095 153.746 216.095 153.746 216.025"/>
  <polyline class="uuid-fdc51958-7a53-4f77-8f55-11cfe7b38196" points="144.926 210.992 139.702 207.963 139.702 153.95 144.978 157.03 144.978 204.931"/>
  <polyline class="uuid-fdc51958-7a53-4f77-8f55-11cfe7b38196" points="144.978 150.921 139.702 153.95 144.978 157.03"/>
  <path class="uuid-fdc51958-7a53-4f77-8f55-11cfe7b38196" d="M350.22,192.742c-.074-.07-.122-.122-.243-.122-.858-.389-1.686-.732-2.495-1.048-.802-.221-1.634-.465-2.366-.637-.588-.095-1.173-.217-1.759-.217-.684-.078-1.442-.125-2.152-.125-1.438,0-2.834.125-4.298.415-1.49.295-3.006.684-4.643,1.148-.637.247-1.221.585-1.807,1.049"/>
  <path class="uuid-fdc51958-7a53-4f77-8f55-11cfe7b38196" d="M349.683,192.451c.122.074.243.074.295.169.121,0,.169.052.243.122.684.343,1.32.758,1.953,1.273.658.463,1.221,1.001,1.811,1.586.706.636,1.291,1.394,1.806,2.2.417.584.806,1.27,1.149,2.028.415.758.832,1.637,1.173,2.612v.052c.291.828.538,1.759.758,2.734.044.294.122.589.169.878.122.638.244,1.396.294,2.102.048.441.122.979.17,1.49.047,1.049.121,2.15.121,3.249,0,6.402,0,26.308-.074,37.695,0,8.253-5.835,18.415-12.994,22.548"/>
  <path class="uuid-fdc51958-7a53-4f77-8f55-11cfe7b38196" d="M187.092,365.158c-2.101,1.221-4.081,1.806-5.864,1.733-.512,0-1.001-.048-1.44-.17-.883-.099-1.641-.463-2.347-.979"/>
  <path class="uuid-fdc51958-7a53-4f77-8f55-11cfe7b38196" d="M359.624,212.945c0,6.402,0,26.308-.074,37.695,0,8.253-5.835,18.415-12.994,22.548"/>
  <path class="uuid-fdc51958-7a53-4f77-8f55-11cfe7b38196" d="M187.092,365.158c-.636.341-1.221.636-1.859.927-.415.173-.805.295-1.173.415-2.539.758-4.86.463-6.618-.758-.685-.584-1.149-1.049-1.49-1.512-.17-.173-.295-.393-.417-.588-.511-.806-.927-1.733-1.095-2.834-.052-.169-.126-.343-.126-.537-.169-.806-.243-1.659-.243-2.612"/>
  <path class="uuid-fdc51958-7a53-4f77-8f55-11cfe7b38196" d="M190.705,278.117c.905-1.169,1.953-2.391,3.006-3.539.805-.879,1.563-1.685,2.395-2.443.802-.758,1.611-1.516,2.417-2.2.417-.365.88-.754,1.291-1.123.173-.099.295-.293.467-.389.096-.074.269-.243.511-.369.295-.269.511-.464.806-.684.247-.169,1.001-.537,1.39-.706.078-.048.126-.048.174-.048"/>
  <polyline class="uuid-fdc51958-7a53-4f77-8f55-11cfe7b38196" points="203.31 266.564 203.236 266.616 203.164 288.869 206.265 287.11 327.452 217.195 330.458 215.436 330.458 193.205"/>
  <path class="uuid-fdc51958-7a53-4f77-8f55-11cfe7b38196" d="M330.458,193.205c.585-.463,1.169-.802,1.807-1.049,1.637-.463,3.153-.853,4.643-1.148,1.464-.291,2.859-.415,4.298-.415.71,0,1.468.073,2.152.125.586,0,1.171.122,1.759.217,1.564.294,3.124.758,4.566,1.516.122,0,.195.074.295.169.121,0,.169.052.243.122.684.343,1.32.758,1.953,1.273.658.463,1.221,1.001,1.811,1.586.169.173.341.293.463.467.243.265.537.584.758.927.243.295.463.559.632.927.174.221.369.511.537.806.221.343.393.71.563,1.101.195.341.415.831.585,1.221,1.346,3.123,2.1,7.035,2.1,11.895"/>
  <polygon class="uuid-fdc51958-7a53-4f77-8f55-11cfe7b38196" points="206.192 340.899 327.404 270.988 327.404 262.168 206.192 332.079 206.192 340.899"/>
  <polygon class="uuid-fdc51958-7a53-4f77-8f55-11cfe7b38196" points="317.926 240.378 327.404 234.881 327.404 245.875 317.926 251.372 317.926 240.378"/>
  <polygon class="uuid-fdc51958-7a53-4f77-8f55-11cfe7b38196" points="305.031 247.804 314.557 242.307 314.557 253.3 305.031 258.772 305.031 247.804"/>
  <polygon class="uuid-fdc51958-7a53-4f77-8f55-11cfe7b38196" points="292.204 255.207 301.73 249.71 301.73 260.704 292.204 266.201 292.204 255.207"/>
  <path class="uuid-fdc51958-7a53-4f77-8f55-11cfe7b38196" d="M240.221,95.249c1.391,1.81,2.565,3.838,3.492,5.986.295.637.515,1.395.758,2.076.17.342.295.758.391,1.173.073.295.121.564.195.854"/>
  <polyline class="uuid-fdc51958-7a53-4f77-8f55-11cfe7b38196" points="245.399 106.854 245.399 132.161 235.921 126.715 235.921 107.56"/>
  <path class="uuid-fdc51958-7a53-4f77-8f55-11cfe7b38196" d="M235.921,107.56c0-.658-.048-1.291-.17-1.927,0-.17-.048-.391-.125-.637-.044-.389-.17-.879-.339-1.342-.173-.633-.415-1.195-.684-1.855-.369-.684-.71-1.321-1.127-1.953-.511-.832-1.095-1.59-1.781-2.274-.247-.291-.514-.512-.831-.832-1.199-1.073-2.613-2.024-4.177-2.66-.389-.173-.857-.343-1.394-.463-.463-.173-.854-.295-1.318-.343-.415-.125-.758-.173-1.173-.173-2.954-.364-6.277.173-9.821,1.98"/>
  <polyline class="uuid-fdc51958-7a53-4f77-8f55-11cfe7b38196" points="153.819 138.148 153.819 207.448 153.746 216.025 153.746 216.146"/>
  <polyline class="uuid-fdc51958-7a53-4f77-8f55-11cfe7b38196" points="245.399 106.854 245.399 132.161 248.648 130.329 259.225 124.22"/>
  <path class="uuid-fdc51958-7a53-4f77-8f55-11cfe7b38196" d="M259.225,124.22c1.322-.684,2.491-1.39,3.543-2.148,4.35-2.906,5.74-5.908.169-10.236"/>
  <polyline class="uuid-fdc51958-7a53-4f77-8f55-11cfe7b38196" points="144.926 221.25 144.926 210.992 144.978 204.931"/>
  <path class="uuid-fdc51958-7a53-4f77-8f55-11cfe7b38196" d="M245.399,106.854c-.07-.221-.122-.515-.17-.758,0-.169,0-.269-.073-.463,0-.048-.048-.17-.048-.221-.052-.365-.174-.633-.247-.928-.096-.415-.221-.831-.391-1.173-.243-.68-.463-1.438-.758-2.076-.927-2.148-2.1-4.176-3.492-5.986-.931-1.292-1.906-2.443-3.079-3.492-.048-.121-.218-.243-.343-.293-2.318-2.318-4.934-4.129-7.719-5.446-9.478-4.543-13.874-2.222-21.958,2.318"/>
  <polyline class="uuid-fdc51958-7a53-4f77-8f55-11cfe7b38196" points="203.358 266.491 203.31 266.564 203.236 266.616 203.164 266.616 203.164 266.564 200.625 265.1 154.113 238.204"/>
  <polygon class="uuid-fdc51958-7a53-4f77-8f55-11cfe7b38196" points="330.458 193.205 330.458 215.436 327.452 217.195 206.265 287.11 203.164 288.869 203.236 266.616 203.31 266.564 203.358 266.491 203.41 266.491 330.458 193.205"/>
  <polyline class="uuid-fdc51958-7a53-4f77-8f55-11cfe7b38196" points="203.31 266.564 203.358 266.491 200.793 265.001"/>
  <polyline class="uuid-fdc51958-7a53-4f77-8f55-11cfe7b38196" points="154.235 238.156 153.746 237.861 145.562 233.17 144.926 232.759 140.165 230.022 134.937 226.993 120.888 218.879"/>
  <path class="uuid-fdc51958-7a53-4f77-8f55-11cfe7b38196" d="M120.888,218.879c-2.443,1.221-3.834,2.495-5.814,4.181-1.316,1.268-2.612,2.538-3.881,3.881-3.595,3.959-6.402,7.745-9.283,12.311"/>
  <path class="uuid-fdc51958-7a53-4f77-8f55-11cfe7b38196" d="M100.906,240.942c-.048.121-.121.169-.169.291-.637,1.099-1.222,2.148-1.733,3.249-.589,1.173-1.175,2.321-1.686,3.543-.419.758-.71,1.515-.979,2.27-.367.636-.584,1.346-.831,2.03-.463,1.171-.88,2.318-1.221,3.54-.295.928-.511,1.807-.754,2.665-.221.757-.395,1.464-.564,2.222-.199.758-.295,1.442-.415,2.078-.243,1.391-.465,2.734-.585,4.003-.221,1.759-.347,3.57-.347,5.398-.069,1.759-.069,3.616-.069,5.596v22.473"/>
  <polyline class="uuid-fdc51958-7a53-4f77-8f55-11cfe7b38196" points="91.554 300.3 91.554 309.999 91.622 309.999"/>
  <polygon class="uuid-fdc51958-7a53-4f77-8f55-11cfe7b38196" points="327.404 262.168 319.733 266.59 327.404 270.988 327.404 262.168"/>
  <path class="uuid-fdc51958-7a53-4f77-8f55-11cfe7b38196" d="M100.737,241.232c-5.862,10.409-9.235,20.446-9.235,32.489v26.553c0,4.228-.122,8.383.295,12.606.927,2.98,1.099,3.543,3.542,5.545"/>
  <path class="uuid-8774d2dc-7b61-4fe7-b6fb-b3ac992a77e1" d="M243.129,106.048v.026h0v.022-.048Z"/>
  <path class="uuid-321a065b-e623-4012-aa75-71f8a88d567b" d="M243.176,106.17h0v.048-.048Z"/>
  <line class="uuid-5e2fe816-8b9a-42a5-899b-b501b585b7d3" x1="153.819" y1="216.095" x2="153.819" y2="162.134"/>
  <line class="uuid-5e2fe816-8b9a-42a5-899b-b501b585b7d3" x1="327.452" y1="217.195" x2="206.265" y2="287.11"/>
  <line class="uuid-5e2fe816-8b9a-42a5-899b-b501b585b7d3" x1="330.458" y1="215.436" x2="327.452" y2="217.195"/>
  <line class="uuid-5e2fe816-8b9a-42a5-899b-b501b585b7d3" x1="330.458" y1="215.436" x2="330.458" y2="193.205"/>
  <path class="uuid-fdc51958-7a53-4f77-8f55-11cfe7b38196" d="M262.769,143.545c1.906.415,3.712,1.001,5.104,1.637"/>
  <line class="uuid-5e2fe816-8b9a-42a5-899b-b501b585b7d3" x1="267.873" y1="145.182" x2="349.683" y2="192.451"/>
  <line class="uuid-5e2fe816-8b9a-42a5-899b-b501b585b7d3" x1="346.556" y1="273.188" x2="187.092" y2="365.158"/>
  <line class="uuid-5e2fe816-8b9a-42a5-899b-b501b585b7d3" x1="206.265" y1="287.11" x2="203.164" y2="288.869"/>
  <line class="uuid-5e2fe816-8b9a-42a5-899b-b501b585b7d3" x1="262.769" y1="122.072" x2="262.769" y2="154.124"/>
  <line class="uuid-5e2fe816-8b9a-42a5-899b-b501b585b7d3" x1="212.983" y1="95.08" x2="161.538" y2="124.81"/>
  <path class="uuid-fdc51958-7a53-4f77-8f55-11cfe7b38196" d="M161.538,124.81c-4.47,2.834-7.476,8.014-7.719,13.338"/>
  <line class="uuid-5e2fe816-8b9a-42a5-899b-b501b585b7d3" x1="262.938" y1="111.836" x2="237.143" y2="91.757"/>
  <line class="uuid-5e2fe816-8b9a-42a5-899b-b501b585b7d3" x1="153.819" y1="162.134" x2="153.819" y2="138.148"/>
  <line class="uuid-5e2fe816-8b9a-42a5-899b-b501b585b7d3" x1="207.122" y1="88.336" x2="152.719" y2="119.702"/>
  <path class="uuid-fdc51958-7a53-4f77-8f55-11cfe7b38196" d="M152.719,119.702c-4.47,2.885-7.499,8.014-7.741,13.338"/>
  <line class="uuid-5e2fe816-8b9a-42a5-899b-b501b585b7d3" x1="144.978" y1="133.04" x2="144.978" y2="157.03"/>
  <line class="uuid-5e2fe816-8b9a-42a5-899b-b501b585b7d3" x1="174.07" y1="357.659" x2="174.07" y2="347.912"/>
  <line class="uuid-5e2fe816-8b9a-42a5-899b-b501b585b7d3" x1="183.253" y1="288.869" x2="100.737" y2="241.232"/>
  <line class="uuid-5e2fe816-8b9a-42a5-899b-b501b585b7d3" x1="95.339" y1="318.426" x2="177.856" y2="366.058"/>
  <line class="uuid-5e2fe816-8b9a-42a5-899b-b501b585b7d3" x1="144.709" y1="210.992" x2="126.827" y2="221.25"/>
  <path class="uuid-fdc51958-7a53-4f77-8f55-11cfe7b38196" d="M174.07,347.912v-16.15c0-4.348-.099-8.135,0-11.774"/>
  <path class="uuid-fdc51958-7a53-4f77-8f55-11cfe7b38196" d="M174.07,319.988c.074-.879.122-1.759.122-2.612v-.247c.195-3.124.636-6.325,1.464-9.526.125-.389.221-.806.343-1.269.125-.463.245-.931.341-1.394.074-.243.173-.511.247-.758.048-.17.096-.339.169-.511.048-.195.1-.417.17-.633.125-.319.247-.662.342-.953.174-.515.369-.979.541-1.442.096-.463.269-.88.463-1.343.343-.931.758-1.905,1.149-2.832.121-.247.243-.467.367-.711.975-2.321,2.149-4.517,3.466-6.887.074-.122.122-.247.244-.368.341-.585.688-1.149,1.051-1.734.343-.636.684-1.221,1.075-1.759.71-1.073,1.416-2.126,2.174-3.175.173-.173.269-.415.391-.588.073-.048.125-.122.125-.17.048-.073.122-.121.122-.173.169-.122.217-.291.291-.412.514-.589.931-1.153,1.442-1.737.121-.244.295-.417.463-.638"/>
  <path class="uuid-fdc51958-7a53-4f77-8f55-11cfe7b38196" d="M200.793,265.001l2.565,1.49h.052l127.048-73.286c-22.562-13.04-45.124-26.068-67.689-39.082l-.537-.295-.173-.122c-42.358,24.457-84.718,48.914-127.122,73.286l5.228,3.028c4.533,2.605,9.041,5.239,13.581,7.84l.489.295"/>
  <line class="uuid-c4798f30-81e1-4fe1-a5f0-6a5546f77879" x1="358.451" y1="235.102" x2="332.633" y2="279.854"/>
  <line class="uuid-c4798f30-81e1-4fe1-a5f0-6a5546f77879" x1="354.522" y1="196.775" x2="328.726" y2="241.427"/>
  <line class="uuid-c4798f30-81e1-4fe1-a5f0-6a5546f77879" x1="323.792" y1="249.978" x2="313.113" y2="268.471"/>
  <line class="uuid-c4798f30-81e1-4fe1-a5f0-6a5546f77879" x1="301.95" y1="287.794" x2="294.109" y2="301.375"/>
  <line class="uuid-c4798f30-81e1-4fe1-a5f0-6a5546f77879" x1="309.571" y1="229.458" x2="297.554" y2="250.221"/>
  <line class="uuid-c4798f30-81e1-4fe1-a5f0-6a5546f77879" x1="290.762" y1="261.999" x2="273.785" y2="291.382"/>
  <line class="uuid-c4798f30-81e1-4fe1-a5f0-6a5546f77879" x1="262.817" y1="310.342" x2="254.976" y2="323.923"/>
  <line class="uuid-c4798f30-81e1-4fe1-a5f0-6a5546f77879" x1="271.294" y1="250.588" x2="234.014" y2="315.081"/>
  <line class="uuid-c4798f30-81e1-4fe1-a5f0-6a5546f77879" x1="223.804" y1="332.863" x2="215.89" y2="346.469"/>
  <line class="uuid-c4798f30-81e1-4fe1-a5f0-6a5546f77879" x1="232.797" y1="272.109" x2="177.684" y2="367.552"/>
  <line class="uuid-c4798f30-81e1-4fe1-a5f0-6a5546f77879" x1="202.089" y1="280.171" x2="175.292" y2="326.462"/>
  <line class="uuid-c4798f30-81e1-4fe1-a5f0-6a5546f77879" x1="210.713" y1="336.038" x2="208.219" y2="334.574"/>
  <line class="uuid-c4798f30-81e1-4fe1-a5f0-6a5546f77879" x1="222.094" y1="329.54" x2="218.285" y2="327.366"/>
  <line class="uuid-c4798f30-81e1-4fe1-a5f0-6a5546f77879" x1="233.382" y1="323.017" x2="229.596" y2="320.843"/>
  <line class="uuid-c4798f30-81e1-4fe1-a5f0-6a5546f77879" x1="244.641" y1="316.519" x2="240.855" y2="314.323"/>
  <line class="uuid-c4798f30-81e1-4fe1-a5f0-6a5546f77879" x1="255.951" y1="309.999" x2="252.19" y2="307.825"/>
  <line class="uuid-c4798f30-81e1-4fe1-a5f0-6a5546f77879" x1="267.239" y1="303.477" x2="263.453" y2="301.301"/>
  <line class="uuid-c4798f30-81e1-4fe1-a5f0-6a5546f77879" x1="278.55" y1="296.979" x2="274.786" y2="294.777"/>
  <line class="uuid-c4798f30-81e1-4fe1-a5f0-6a5546f77879" x1="289.809" y1="290.455" x2="286.049" y2="288.258"/>
  <line class="uuid-c4798f30-81e1-4fe1-a5f0-6a5546f77879" x1="301.144" y1="283.935" x2="297.358" y2="281.76"/>
  <line class="uuid-c4798f30-81e1-4fe1-a5f0-6a5546f77879" x1="312.407" y1="277.437" x2="308.643" y2="275.237"/>
  <line class="uuid-c4798f30-81e1-4fe1-a5f0-6a5546f77879" x1="172.239" y1="353.235" x2="165.836" y2="356.948"/>
  <line class="uuid-c4798f30-81e1-4fe1-a5f0-6a5546f77879" x1="172.628" y1="339.971" x2="154.113" y2="350.65"/>
  <line class="uuid-c4798f30-81e1-4fe1-a5f0-6a5546f77879" x1="173.043" y1="326.729" x2="142.435" y2="344.369"/>
  <line class="uuid-c4798f30-81e1-4fe1-a5f0-6a5546f77879" x1="173.897" y1="313.175" x2="130.757" y2="338.092"/>
  <line class="uuid-c4798f30-81e1-4fe1-a5f0-6a5546f77879" x1="178.272" y1="297.611" x2="118.909" y2="331.889"/>
  <line class="uuid-c4798f30-81e1-4fe1-a5f0-6a5546f77879" x1="177.345" y1="285.131" x2="107.309" y2="325.559"/>
  <line class="uuid-c4798f30-81e1-4fe1-a5f0-6a5546f77879" x1="166.056" y1="278.607" x2="95.972" y2="319.036"/>
  <line class="uuid-c4798f30-81e1-4fe1-a5f0-6a5546f77879" x1="154.504" y1="272.231" x2="91.622" y2="308.531"/>
  <line class="uuid-c4798f30-81e1-4fe1-a5f0-6a5546f77879" x1="142.851" y1="265.928" x2="92.017" y2="295.267"/>
  <line class="uuid-c4798f30-81e1-4fe1-a5f0-6a5546f77879" x1="131.176" y1="259.651" x2="92.381" y2="282.028"/>
  <line class="uuid-c4798f30-81e1-4fe1-a5f0-6a5546f77879" x1="119.446" y1="253.348" x2="93.066" y2="268.57"/>
  <line class="uuid-c4798f30-81e1-4fe1-a5f0-6a5546f77879" x1="107.65" y1="247.145" x2="97.145" y2="253.227"/>
  <line class="uuid-c4798f30-81e1-4fe1-a5f0-6a5546f77879" x1="142.556" y1="263.878" x2="117.982" y2="221.276"/>
  <line class="uuid-c4798f30-81e1-4fe1-a5f0-6a5546f77879" x1="181.741" y1="286.595" x2="154.797" y2="239.963"/>
  <line class="uuid-c4798f30-81e1-4fe1-a5f0-6a5546f77879" x1="197.372" y1="268.471" x2="194.759" y2="263.927"/>
  <line class="uuid-c4798f30-81e1-4fe1-a5f0-6a5546f77879" x1="143.021" y1="195.722" x2="141.751" y2="194.99"/>
  <line class="uuid-c4798f30-81e1-4fe1-a5f0-6a5546f77879" x1="143.021" y1="182.678" x2="141.751" y2="181.972"/>
  <line class="uuid-c4798f30-81e1-4fe1-a5f0-6a5546f77879" x1="143.021" y1="169.635" x2="141.751" y2="168.925"/>
  <line class="uuid-c4798f30-81e1-4fe1-a5f0-6a5546f77879" x1="151.961" y1="195.016" x2="146.906" y2="192.13"/>
  <line class="uuid-c4798f30-81e1-4fe1-a5f0-6a5546f77879" x1="151.961" y1="168.951" x2="146.906" y2="166.066"/>
  <line class="uuid-c4798f30-81e1-4fe1-a5f0-6a5546f77879" x1="151.961" y1="142.887" x2="146.906" y2="139.979"/>
  <line class="uuid-c4798f30-81e1-4fe1-a5f0-6a5546f77879" x1="161.781" y1="122.487" x2="156.726" y2="119.581"/>
  <line class="uuid-c4798f30-81e1-4fe1-a5f0-6a5546f77879" x1="184.354" y1="109.444" x2="179.298" y2="106.56"/>
  <line class="uuid-c4798f30-81e1-4fe1-a5f0-6a5546f77879" x1="243.544" y1="117.554" x2="237.853" y2="114.257"/>
  <line class="uuid-c4798f30-81e1-4fe1-a5f0-6a5546f77879" x1="206.902" y1="96.402" x2="201.967" y2="93.516"/>
  <line class="uuid-c4798f30-81e1-4fe1-a5f0-6a5546f77879" x1="270.705" y1="156.514" x2="264.675" y2="146.088"/>
  <line class="uuid-c4798f30-81e1-4fe1-a5f0-6a5546f77879" x1="309.792" y1="179.088" x2="303.172" y2="167.655"/>
  <line class="uuid-c4798f30-81e1-4fe1-a5f0-6a5546f77879" x1="328.262" y1="196.285" x2="312.112" y2="224.304"/>
  <line class="uuid-c4798f30-81e1-4fe1-a5f0-6a5546f77879" x1="308.743" y1="207.522" x2="292.546" y2="235.565"/>
  <line class="uuid-c4798f30-81e1-4fe1-a5f0-6a5546f77879" x1="289.175" y1="218.807" x2="272.979" y2="246.85"/>
  <line class="uuid-c4798f30-81e1-4fe1-a5f0-6a5546f77879" x1="269.656" y1="230.07" x2="253.46" y2="258.135"/>
  <line class="uuid-c4798f30-81e1-4fe1-a5f0-6a5546f77879" x1="250.116" y1="241.331" x2="233.894" y2="269.398"/>
  <line class="uuid-c4798f30-81e1-4fe1-a5f0-6a5546f77879" x1="230.597" y1="252.616" x2="214.378" y2="280.686"/>
  <line class="uuid-c4798f30-81e1-4fe1-a5f0-6a5546f77879" x1="210.662" y1="264.49" x2="205.143" y2="274.089"/>
  <path class="uuid-b7959bea-4bbd-416a-b8a7-cb131d467d1a" d="M243.176,106.17h0v.048-.048Z"/>
  <line class="uuid-c4798f30-81e1-4fe1-a5f0-6a5546f77879" x1="145.732" y1="230.996" x2="142.265" y2="224.914"/>
  <line class="uuid-c4798f30-81e1-4fe1-a5f0-6a5546f77879" x1="165.788" y1="243.09" x2="151.671" y2="218.659"/>
  <line class="uuid-c4798f30-81e1-4fe1-a5f0-6a5546f77879" x1="185.698" y1="254.986" x2="161.123" y2="212.386"/>
  <line class="uuid-c4798f30-81e1-4fe1-a5f0-6a5546f77879" x1="204.97" y1="265.832" x2="170.601" y2="206.205"/>
  <line class="uuid-c4798f30-81e1-4fe1-a5f0-6a5546f77879" x1="214.79" y1="260.188" x2="180.347" y2="200.587"/>
  <line class="uuid-c4798f30-81e1-4fe1-a5f0-6a5546f77879" x1="224.536" y1="254.547" x2="190.12" y2="194.942"/>
  <line class="uuid-c4798f30-81e1-4fe1-a5f0-6a5546f77879" x1="234.361" y1="248.904" x2="199.941" y2="189.298"/>
  <line class="uuid-c4798f30-81e1-4fe1-a5f0-6a5546f77879" x1="244.13" y1="243.26" x2="209.734" y2="183.679"/>
  <line class="uuid-c4798f30-81e1-4fe1-a5f0-6a5546f77879" x1="253.876" y1="237.619" x2="219.507" y2="178.039"/>
  <line class="uuid-c4798f30-81e1-4fe1-a5f0-6a5546f77879" x1="263.696" y1="231.975" x2="229.253" y2="172.394"/>
  <line class="uuid-c4798f30-81e1-4fe1-a5f0-6a5546f77879" x1="273.442" y1="226.331" x2="239.074" y2="166.751"/>
  <line class="uuid-c4798f30-81e1-4fe1-a5f0-6a5546f77879" x1="283.189" y1="220.69" x2="248.821" y2="161.133"/>
  <line class="uuid-c4798f30-81e1-4fe1-a5f0-6a5546f77879" x1="293.01" y1="215.046" x2="258.64" y2="155.492"/>
  <line class="uuid-c4798f30-81e1-4fe1-a5f0-6a5546f77879" x1="302.536" y1="208.964" x2="276.055" y2="163.086"/>
  <line class="uuid-c4798f30-81e1-4fe1-a5f0-6a5546f77879" x1="311.944" y1="202.735" x2="295.964" y2="174.985"/>
  <line class="uuid-c4798f30-81e1-4fe1-a5f0-6a5546f77879" x1="321.418" y1="196.506" x2="315.851" y2="186.88"/>
  <line class="uuid-c4798f30-81e1-4fe1-a5f0-6a5546f77879" x1="139.359" y1="222.302" x2="139.359" y2="216.242"/>
  <line class="uuid-c4798f30-81e1-4fe1-a5f0-6a5546f77879" x1="135.227" y1="214.092" x2="134.253" y2="213.53"/>
</svg>