<?xml version="1.0" encoding="UTF-8"?>
<svg id="uuid-ec1e0a3e-33e0-4a8e-ad65-f0796180c445" data-name="&amp;lt;Layer&amp;gt;" xmlns="http://www.w3.org/2000/svg" viewBox="0 0 451.11 451.11">
  <defs>
    <style>
      .uuid-f02099bd-5346-4cf3-883a-dd61f9d50854, .uuid-a014c509-b006-48fc-bd26-78de33c27396, .uuid-cd9294bb-3463-41cd-a780-992770959b74 {
        fill: none;
        stroke: #000;
        stroke-linecap: round;
      }

      .uuid-f02099bd-5346-4cf3-883a-dd61f9d50854, .uuid-cd9294bb-3463-41cd-a780-992770959b74 {
        stroke-linejoin: round;
        stroke-width: 4.117px;
      }

      .uuid-a014c509-b006-48fc-bd26-78de33c27396 {
        stroke-miterlimit: 10;
        stroke-width: 1.163px;
      }

      .uuid-cd9294bb-3463-41cd-a780-992770959b74 {
        fill-rule: evenodd;
      }
    </style>
  </defs>
  <path class="uuid-cd9294bb-3463-41cd-a780-992770959b74" d="M282.763,58.302v11.748M282.763,100.905v18.077"/>
  <polygon class="uuid-cd9294bb-3463-41cd-a780-992770959b74" points="102.533 174.14 102.533 204.994 282.763 100.905 282.763 70.051 102.533 174.14"/>
  <path class="uuid-cd9294bb-3463-41cd-a780-992770959b74" d="M175.818,304.294c.391,4.176.563,5.86,3.882,8.598-1.221-.732-6.105-3.542-7.378-4.274-3.322-2.713-3.833-4.544-3.881-8.577-.295-33.247,0-66.49,0-99.737.805-9.919,5.154-17.392,13.289-23.011,51.224-29.581,102.426-59.164,153.725-88.749,3.76-1.733,5.324-2.417,9.331-.902,1.272.707,6.155,3.543,7.377,4.25-4.007-1.515-5.571-.831-9.331.906"/>
  <path class="uuid-cd9294bb-3463-41cd-a780-992770959b74" d="M189.104,181.542c51.229-29.582,102.427-59.164,153.727-88.746,7.304-4.228,13.286-.758,13.286,7.667v99.741c0,8.451-5.983,18.808-13.286,23.036-51.301,29.583-102.499,59.166-153.727,88.725-7.326,4.224-13.286.78-13.286-7.671v-99.715c0-8.455,5.96-18.812,13.286-23.037Z"/>
  <path class="uuid-cd9294bb-3463-41cd-a780-992770959b74" d="M339.558,139.355v-20.324c0-1.295-.928-1.833-2.028-1.171-13.118,7.547-26.234,15.145-39.377,22.692-1.099.658-2.027,2.248-2.027,3.542v20.325c0,1.296.928,1.833,2.027,1.169,13.144-7.545,26.26-15.144,39.329-22.694,1.148-.654,2.075-2.244,2.075-3.54Z"/>
  <path class="uuid-cd9294bb-3463-41cd-a780-992770959b74" d="M195.823,219.945c0-2.543,1.807-5.619,4.007-6.892,8.209-4.739,16.465-9.5,24.696-14.239,2.2-1.27,3.959-.247,3.959,2.296v21.767c0,2.513-1.759,5.592-3.959,6.861-8.231,4.765-16.487,9.504-24.696,14.265-2.2,1.247-4.007.221-4.007-2.295v-21.764Z"/>
  <path class="uuid-cd9294bb-3463-41cd-a780-992770959b74" d="M106.392,270.68c-1.248-.707-6.13-3.518-7.351-4.25-3.375-2.735-3.886-4.566-3.886-8.573-.367-33.247,0-66.494,0-99.741.806-9.919,5.156-17.392,13.29-23.011,51.224-29.607,102.426-59.19,153.651-88.745,3.837-1.763,5.401-2.421,9.408-.931,1.221.732,6.104,3.542,7.374,4.25-4.004-1.488-5.567-.828-9.405.931-51.225,29.581-102.427,59.164-153.724,88.746-8.184,5.667-12.411,13.069-13.216,23.011v99.741c.342,4.154.562,5.861,3.859,8.573Z"/>
  <line class="uuid-f02099bd-5346-4cf3-883a-dd61f9d50854" x1="198.973" y1="277.35" x2="223.771" y2="263.007"/>
  <line class="uuid-f02099bd-5346-4cf3-883a-dd61f9d50854" x1="236.472" y1="255.657" x2="261.338" y2="241.318"/>
  <line class="uuid-f02099bd-5346-4cf3-883a-dd61f9d50854" x1="274.069" y1="233.966" x2="298.911" y2="219.65"/>
  <line class="uuid-f02099bd-5346-4cf3-883a-dd61f9d50854" x1="311.638" y1="212.298" x2="336.434" y2="197.957"/>
  <path class="uuid-cd9294bb-3463-41cd-a780-992770959b74" d="M168.367,239.316c-17.54,10.089-35.006,20.199-52.546,30.315-4.006,2.321-7.623,2.321-10.066.438M278.708,49.656c.048,0,.122.047.17.047,2.443,1.395,3.959,4.35,3.885,8.599"/>
  <line class="uuid-a014c509-b006-48fc-bd26-78de33c27396" x1="100.604" y1="245.936" x2="96.988" y2="239.706"/>
  <line class="uuid-a014c509-b006-48fc-bd26-78de33c27396" x1="100.604" y1="223.388" x2="96.988" y2="217.107"/>
  <line class="uuid-a014c509-b006-48fc-bd26-78de33c27396" x1="100.604" y1="200.789" x2="97.062" y2="194.612"/>
  <line class="uuid-a014c509-b006-48fc-bd26-78de33c27396" x1="100.604" y1="178.195" x2="97.108" y2="172.16"/>
  <line class="uuid-a014c509-b006-48fc-bd26-78de33c27396" x1="101.41" y1="157.017" x2="98.331" y2="151.64"/>
  <line class="uuid-a014c509-b006-48fc-bd26-78de33c27396" x1="107.272" y1="144.605" x2="104.902" y2="140.503"/>
  <line class="uuid-a014c509-b006-48fc-bd26-78de33c27396" x1="115.918" y1="137.06" x2="114.185" y2="134.006"/>
  <line class="uuid-a014c509-b006-48fc-bd26-78de33c27396" x1="125.738" y1="131.393" x2="124.006" y2="128.361"/>
  <line class="uuid-a014c509-b006-48fc-bd26-78de33c27396" x1="135.511" y1="125.775" x2="133.752" y2="122.721"/>
  <line class="uuid-a014c509-b006-48fc-bd26-78de33c27396" x1="145.258" y1="120.105" x2="143.524" y2="117.077"/>
  <line class="uuid-a014c509-b006-48fc-bd26-78de33c27396" x1="155.077" y1="114.464" x2="153.344" y2="111.432"/>
  <line class="uuid-a014c509-b006-48fc-bd26-78de33c27396" x1="164.824" y1="108.82" x2="163.091" y2="105.792"/>
  <line class="uuid-a014c509-b006-48fc-bd26-78de33c27396" x1="174.644" y1="103.175" x2="172.838" y2="100.147"/>
  <line class="uuid-a014c509-b006-48fc-bd26-78de33c27396" x1="184.391" y1="97.536" x2="182.658" y2="94.504"/>
  <line class="uuid-a014c509-b006-48fc-bd26-78de33c27396" x1="194.164" y1="91.891" x2="192.405" y2="88.864"/>
  <line class="uuid-a014c509-b006-48fc-bd26-78de33c27396" x1="203.911" y1="86.247" x2="202.174" y2="83.193"/>
  <line class="uuid-a014c509-b006-48fc-bd26-78de33c27396" x1="213.73" y1="80.581" x2="211.971" y2="77.553"/>
  <line class="uuid-a014c509-b006-48fc-bd26-78de33c27396" x1="223.476" y1="74.936" x2="221.74" y2="71.908"/>
  <line class="uuid-a014c509-b006-48fc-bd26-78de33c27396" x1="233.249" y1="69.318" x2="231.486" y2="66.264"/>
  <line class="uuid-a014c509-b006-48fc-bd26-78de33c27396" x1="243.044" y1="63.653" x2="241.311" y2="60.624"/>
  <line class="uuid-a014c509-b006-48fc-bd26-78de33c27396" x1="252.813" y1="58.008" x2="251.058" y2="54.979"/>
  <line class="uuid-a014c509-b006-48fc-bd26-78de33c27396" x1="262.559" y1="52.368" x2="260.826" y2="49.336"/>
  <line class="uuid-a014c509-b006-48fc-bd26-78de33c27396" x1="273.479" y1="108.183" x2="261.168" y2="129.535"/>
  <line class="uuid-a014c509-b006-48fc-bd26-78de33c27396" x1="234.394" y1="130.783" x2="222.083" y2="152.107"/>
  <line class="uuid-a014c509-b006-48fc-bd26-78de33c27396" x1="195.311" y1="153.351" x2="182.953" y2="174.703"/>
  <line class="uuid-a014c509-b006-48fc-bd26-78de33c27396" x1="167.511" y1="201.474" x2="135.315" y2="257.22"/>
  <line class="uuid-a014c509-b006-48fc-bd26-78de33c27396" x1="157.568" y1="173.554" x2="103.169" y2="267.772"/>
  <line class="uuid-a014c509-b006-48fc-bd26-78de33c27396" x1="117.091" y1="198.472" x2="104.192" y2="220.846"/>
  <line class="uuid-a014c509-b006-48fc-bd26-78de33c27396" x1="173.938" y1="288.439" x2="170.343" y2="282.184"/>
  <line class="uuid-a014c509-b006-48fc-bd26-78de33c27396" x1="173.938" y1="265.867" x2="170.295" y2="259.568"/>
  <line class="uuid-a014c509-b006-48fc-bd26-78de33c27396" x1="173.938" y1="243.297" x2="170.343" y2="237.116"/>
  <line class="uuid-a014c509-b006-48fc-bd26-78de33c27396" x1="173.938" y1="220.677" x2="170.395" y2="214.643"/>
  <line class="uuid-a014c509-b006-48fc-bd26-78de33c27396" x1="174.596" y1="199.299" x2="171.565" y2="194.048"/>
  <line class="uuid-a014c509-b006-48fc-bd26-78de33c27396" x1="180.509" y1="186.967" x2="178.114" y2="182.812"/>
  <line class="uuid-a014c509-b006-48fc-bd26-78de33c27396" x1="189.156" y1="179.32" x2="187.419" y2="176.289"/>
  <line class="uuid-a014c509-b006-48fc-bd26-78de33c27396" x1="198.925" y1="173.676" x2="197.166" y2="170.648"/>
  <line class="uuid-a014c509-b006-48fc-bd26-78de33c27396" x1="208.672" y1="168.033" x2="206.939" y2="165.004"/>
  <line class="uuid-a014c509-b006-48fc-bd26-78de33c27396" x1="218.491" y1="162.366" x2="216.732" y2="159.359"/>
  <line class="uuid-a014c509-b006-48fc-bd26-78de33c27396" x1="228.238" y1="156.748" x2="226.505" y2="153.72"/>
  <line class="uuid-a014c509-b006-48fc-bd26-78de33c27396" x1="238.01" y1="151.081" x2="236.251" y2="148.05"/>
  <line class="uuid-a014c509-b006-48fc-bd26-78de33c27396" x1="247.805" y1="145.437" x2="246.072" y2="142.431"/>
  <line class="uuid-a014c509-b006-48fc-bd26-78de33c27396" x1="257.578" y1="139.797" x2="255.819" y2="136.765"/>
  <line class="uuid-a014c509-b006-48fc-bd26-78de33c27396" x1="267.324" y1="134.152" x2="265.592" y2="131.12"/>
  <line class="uuid-a014c509-b006-48fc-bd26-78de33c27396" x1="277.144" y1="128.509" x2="275.386" y2="125.48"/>
  <line class="uuid-a014c509-b006-48fc-bd26-78de33c27396" x1="286.89" y1="122.867" x2="285.157" y2="119.837"/>
  <line class="uuid-a014c509-b006-48fc-bd26-78de33c27396" x1="296.637" y1="117.224" x2="294.978" y2="114.195"/>
  <line class="uuid-a014c509-b006-48fc-bd26-78de33c27396" x1="306.458" y1="111.58" x2="304.725" y2="108.552"/>
  <line class="uuid-a014c509-b006-48fc-bd26-78de33c27396" x1="316.23" y1="105.913" x2="314.471" y2="102.907"/>
  <line class="uuid-a014c509-b006-48fc-bd26-78de33c27396" x1="326.051" y1="100.295" x2="324.244" y2="97.267"/>
  <line class="uuid-a014c509-b006-48fc-bd26-78de33c27396" x1="335.798" y1="94.65" x2="334.061" y2="91.623"/>
  <line class="uuid-a014c509-b006-48fc-bd26-78de33c27396" x1="281.03" y1="89.596" x2="272.137" y2="105.008"/>
  <line class="uuid-a014c509-b006-48fc-bd26-78de33c27396" x1="276.265" y1="75.305" x2="252.106" y2="117.176"/>
  <line class="uuid-a014c509-b006-48fc-bd26-78de33c27396" x1="256.698" y1="86.616" x2="232.539" y2="128.461"/>
  <line class="uuid-a014c509-b006-48fc-bd26-78de33c27396" x1="237.131" y1="97.899" x2="212.972" y2="139.771"/>
  <line class="uuid-a014c509-b006-48fc-bd26-78de33c27396" x1="217.612" y1="109.184" x2="193.454" y2="151.056"/>
  <line class="uuid-a014c509-b006-48fc-bd26-78de33c27396" x1="198.049" y1="120.473" x2="173.886" y2="162.343"/>
  <line class="uuid-a014c509-b006-48fc-bd26-78de33c27396" x1="178.479" y1="131.757" x2="154.319" y2="173.65"/>
  <line class="uuid-a014c509-b006-48fc-bd26-78de33c27396" x1="158.963" y1="143.042" x2="134.753" y2="184.913"/>
  <line class="uuid-a014c509-b006-48fc-bd26-78de33c27396" x1="139.392" y1="154.33" x2="115.238" y2="196.224"/>
  <line class="uuid-a014c509-b006-48fc-bd26-78de33c27396" x1="119.535" y1="166.13" x2="104.096" y2="192.853"/>
  <line class="uuid-a014c509-b006-48fc-bd26-78de33c27396" x1="272.505" y1="50.657" x2="251.933" y2="86.273"/>
  <line class="uuid-a014c509-b006-48fc-bd26-78de33c27396" x1="233.588" y1="72.983" x2="212.851" y2="108.845"/>
  <line class="uuid-a014c509-b006-48fc-bd26-78de33c27396" x1="194.432" y1="95.556" x2="173.764" y2="131.441"/>
  <line class="uuid-a014c509-b006-48fc-bd26-78de33c27396" x1="155.372" y1="118.128" x2="134.631" y2="154.01"/>
  <line class="uuid-a014c509-b006-48fc-bd26-78de33c27396" x1="115.701" y1="141.651" x2="104.486" y2="161.122"/>
  <line class="uuid-a014c509-b006-48fc-bd26-78de33c27396" x1="227.189" y1="201.82" x2="205.716" y2="239.096"/>
  <line class="uuid-a014c509-b006-48fc-bd26-78de33c27396" x1="336.6" y1="120.27" x2="317.574" y2="153.3"/>
  <line class="uuid-a014c509-b006-48fc-bd26-78de33c27396" x1="317.46" y1="130.849" x2="298.65" y2="163.388"/>
</svg>