<?xml version="1.0" encoding="UTF-8"?>
<svg id="uuid-cf637ba5-6193-44b2-9220-c733272211a0" data-name="&amp;lt;Layer&amp;gt;" xmlns="http://www.w3.org/2000/svg" viewBox="0 0 451.11 451.11">
  <defs>
    <style>
      .uuid-613a8aeb-876b-47fd-91f6-5d5b3365aeeb, .uuid-9fba1eea-fbd9-4974-a983-bebfc40c5826, .uuid-0c5b40a8-4612-41e8-a4d0-efc2c9bf2594 {
        fill: none;
        stroke: #000;
        stroke-linecap: round;
      }

      .uuid-613a8aeb-876b-47fd-91f6-5d5b3365aeeb, .uuid-0c5b40a8-4612-41e8-a4d0-efc2c9bf2594 {
        stroke-linejoin: round;
        stroke-width: 4.113px;
      }

      .uuid-9fba1eea-fbd9-4974-a983-bebfc40c5826 {
        stroke-miterlimit: 10;
        stroke-width: 1.163px;
      }

      .uuid-0c5b40a8-4612-41e8-a4d0-efc2c9bf2594 {
        fill-rule: evenodd;
      }
    </style>
  </defs>
  <line class="uuid-613a8aeb-876b-47fd-91f6-5d5b3365aeeb" x1="304.091" y1="97.94" x2="183.198" y2="167.734"/>
  <path class="uuid-0c5b40a8-4612-41e8-a4d0-efc2c9bf2594" d="M310.419,97.108q-.048-.048-.121-.048c-.931-.415-1.979-.463-3.132-.293-.975.173-2.024.514-3.075,1.173"/>
  <path class="uuid-0c5b40a8-4612-41e8-a4d0-efc2c9bf2594" d="M302.579,283.104c3.028-1.733,5.64-4.444,7.792-8.231,2.15-3.712,3.246-7.376,3.246-10.872v-6.251c-.048-32.758-.17-156.976-.707-158.077-.316-1.185-1.394-2.098-2.417-2.565"/>
  <path class="uuid-0c5b40a8-4612-41e8-a4d0-efc2c9bf2594" d="M149.63,214.024c0-7.719,5.034-13.926,11.435-17.639"/>
  <path class="uuid-0c5b40a8-4612-41e8-a4d0-efc2c9bf2594" d="M149.56,325.734v-.515"/>
  <line class="uuid-613a8aeb-876b-47fd-91f6-5d5b3365aeeb" x1="199.858" y1="310.806" x2="290.51" y2="258.456"/>
  <line class="uuid-613a8aeb-876b-47fd-91f6-5d5b3365aeeb" x1="199.858" y1="287.038" x2="290.51" y2="234.687"/>
  <line class="uuid-613a8aeb-876b-47fd-91f6-5d5b3365aeeb" x1="255.258" y1="231.27" x2="290.51" y2="210.897"/>
  <line class="uuid-613a8aeb-876b-47fd-91f6-5d5b3365aeeb" x1="255.258" y1="208.87" x2="290.51" y2="188.519"/>
  <line class="uuid-613a8aeb-876b-47fd-91f6-5d5b3365aeeb" x1="161.066" y1="196.386" x2="161.066" y2="182.438"/>
  <line class="uuid-613a8aeb-876b-47fd-91f6-5d5b3365aeeb" x1="139.984" y1="198.291" x2="151.172" y2="204.733"/>
  <path class="uuid-0c5b40a8-4612-41e8-a4d0-efc2c9bf2594" d="M147.065,190.524c-3.197,2.027-5.297,4.444-7.082,7.767"/>
  <polyline class="uuid-0c5b40a8-4612-41e8-a4d0-efc2c9bf2594" points="165.289 165.387 165.243 165.508 177.796 172.764"/>
  <path class="uuid-0c5b40a8-4612-41e8-a4d0-efc2c9bf2594" d="M170.64,160.453c-2.369,1.49-3.638,2.784-5.35,4.934"/>
  <polyline class="uuid-0c5b40a8-4612-41e8-a4d0-efc2c9bf2594" points="222.159 248.172 237.77 225.895 242.535 225.578"/>
  <path class="uuid-0c5b40a8-4612-41e8-a4d0-efc2c9bf2594" d="M219.836,249.784c.758,0,1.685-.659,2.322-1.612"/>
  <polyline class="uuid-0c5b40a8-4612-41e8-a4d0-efc2c9bf2594" points="197.709 266.592 197.709 259.461 204.376 249.836 219.836 249.784"/>
  <line class="uuid-613a8aeb-876b-47fd-91f6-5d5b3365aeeb" x1="242.535" y1="225.578" x2="242.535" y2="240.748"/>
  <line class="uuid-613a8aeb-876b-47fd-91f6-5d5b3365aeeb" x1="287.187" y1="169.611" x2="273.898" y2="177.334"/>
  <path class="uuid-0c5b40a8-4612-41e8-a4d0-efc2c9bf2594" d="M289.042,166.366c0,1.195-.854,2.634-1.855,3.245"/>
  <line class="uuid-613a8aeb-876b-47fd-91f6-5d5b3365aeeb" x1="289.042" y1="156.788" x2="289.042" y2="166.366"/>
  <path class="uuid-0c5b40a8-4612-41e8-a4d0-efc2c9bf2594" d="M287.139,155.688c1.049-.585,1.903-.096,1.903,1.099"/>
  <line class="uuid-613a8aeb-876b-47fd-91f6-5d5b3365aeeb" x1="275.804" y1="162.237" x2="287.139" y2="155.688"/>
  <path class="uuid-0c5b40a8-4612-41e8-a4d0-efc2c9bf2594" d="M273.898,161.137c0,1.195.879,1.685,1.905,1.099"/>
  <line class="uuid-613a8aeb-876b-47fd-91f6-5d5b3365aeeb" x1="273.898" y1="153.244" x2="273.898" y2="161.137"/>
  <path class="uuid-0c5b40a8-4612-41e8-a4d0-efc2c9bf2594" d="M275.804,150.021c-1.027.585-1.905,2.027-1.905,3.223"/>
  <line class="uuid-613a8aeb-876b-47fd-91f6-5d5b3365aeeb" x1="289.042" y1="142.276" x2="275.804" y2="150.021"/>
  <line class="uuid-613a8aeb-876b-47fd-91f6-5d5b3365aeeb" x1="249.69" y1="189.814" x2="245.952" y2="167.635"/>
  <path class="uuid-0c5b40a8-4612-41e8-a4d0-efc2c9bf2594" d="M253.282,187.787c-.173.832-.636,1.711-1.343,2.296-.979.879-2.03.758-2.248-.269"/>
  <polyline class="uuid-0c5b40a8-4612-41e8-a4d0-efc2c9bf2594" points="260.997 183.364 256.479 167.999 253.282 187.787"/>
  <path class="uuid-0c5b40a8-4612-41e8-a4d0-efc2c9bf2594" d="M264.615,181.215c-.195.832-.659,1.686-1.295,2.296-.975.88-2.028.832-2.322-.147"/>
  <line class="uuid-613a8aeb-876b-47fd-91f6-5d5b3365aeeb" x1="267.499" y1="154.371" x2="264.615" y2="181.215"/>
  <line class="uuid-613a8aeb-876b-47fd-91f6-5d5b3365aeeb" x1="227.728" y1="177.745" x2="239.576" y2="170.932"/>
  <path class="uuid-0c5b40a8-4612-41e8-a4d0-efc2c9bf2594" d="M225.871,180.998c0-1.199.879-2.663,1.858-3.253"/>
  <line class="uuid-613a8aeb-876b-47fd-91f6-5d5b3365aeeb" x1="225.871" y1="202.81" x2="225.871" y2="180.998"/>
  <path class="uuid-0c5b40a8-4612-41e8-a4d0-efc2c9bf2594" d="M227.728,203.91c-.979.584-1.858.099-1.858-1.101"/>
  <line class="uuid-613a8aeb-876b-47fd-91f6-5d5b3365aeeb" x1="239.698" y1="196.996" x2="227.728" y2="203.91"/>
  <line class="uuid-613a8aeb-876b-47fd-91f6-5d5b3365aeeb" x1="236.033" y1="185.612" x2="225.871" y2="191.499"/>
  <line class="uuid-613a8aeb-876b-47fd-91f6-5d5b3365aeeb" x1="202.639" y1="193.626" x2="202.517" y2="217.663"/>
  <path class="uuid-0c5b40a8-4612-41e8-a4d0-efc2c9bf2594" d="M206.426,191.33c-.924-2.005-3.786-.905-3.786,2.296"/>
  <line class="uuid-613a8aeb-876b-47fd-91f6-5d5b3365aeeb" x1="214.829" y1="209.723" x2="206.426" y2="191.33"/>
  <path class="uuid-0c5b40a8-4612-41e8-a4d0-efc2c9bf2594" d="M218.615,207.575c.1,2.075-2.392,5.228-3.786,2.148"/>
  <line class="uuid-613a8aeb-876b-47fd-91f6-5d5b3365aeeb" x1="218.91" y1="182.831" x2="218.615" y2="207.575"/>
  <path class="uuid-0c5b40a8-4612-41e8-a4d0-efc2c9bf2594" d="M197.709,240.038c0-1.195.802-2.635,1.854-3.245"/>
  <line class="uuid-613a8aeb-876b-47fd-91f6-5d5b3365aeeb" x1="197.709" y1="259.461" x2="197.709" y2="240.038"/>
  <path class="uuid-0c5b40a8-4612-41e8-a4d0-efc2c9bf2594" d="M199.563,267.665c-1.051.611-1.854.122-1.854-1.073"/>
  <line class="uuid-613a8aeb-876b-47fd-91f6-5d5b3365aeeb" x1="240.677" y1="243.948" x2="199.563" y2="267.665"/>
  <path class="uuid-0c5b40a8-4612-41e8-a4d0-efc2c9bf2594" d="M242.535,240.674c0,1.197-.81,2.665-1.857,3.275"/>
  <line class="uuid-613a8aeb-876b-47fd-91f6-5d5b3365aeeb" x1="242.535" y1="214.12" x2="242.535" y2="225.578"/>
  <path class="uuid-0c5b40a8-4612-41e8-a4d0-efc2c9bf2594" d="M240.677,213.046c1.048-.585,1.857-.122,1.857,1.075"/>
  <line class="uuid-613a8aeb-876b-47fd-91f6-5d5b3365aeeb" x1="199.563" y1="236.793" x2="240.677" y2="213.046"/>
  <path class="uuid-0c5b40a8-4612-41e8-a4d0-efc2c9bf2594" d="M161.066,331.815c0,2.734.463,16.002-4.986,14.243-6.229-1.979-6.52-15.218-6.52-20.861"/>
  <line class="uuid-613a8aeb-876b-47fd-91f6-5d5b3365aeeb" x1="161.066" y1="196.386" x2="161.066" y2="331.815"/>
  <line class="uuid-613a8aeb-876b-47fd-91f6-5d5b3365aeeb" x1="161.066" y1="176.965" x2="161.066" y2="182.438"/>
  <path class="uuid-0c5b40a8-4612-41e8-a4d0-efc2c9bf2594" d="M170.64,160.453c-5.567,3.538-9.283,9.915-9.574,16.512"/>
  <line class="uuid-613a8aeb-876b-47fd-91f6-5d5b3365aeeb" x1="291.559" y1="90.71" x2="170.64" y2="160.453"/>
  <path class="uuid-0c5b40a8-4612-41e8-a4d0-efc2c9bf2594" d="M297.935,89.878c-2.66-.853-4.053-.537-6.376.832"/>
  <line class="uuid-613a8aeb-876b-47fd-91f6-5d5b3365aeeb" x1="310.493" y1="97.134" x2="297.935" y2="89.878"/>
  <path class="uuid-0c5b40a8-4612-41e8-a4d0-efc2c9bf2594" d="M173.668,184.221c.295-6.596,3.937-12.97,9.53-16.513"/>
  <path class="uuid-0c5b40a8-4612-41e8-a4d0-efc2c9bf2594" d="M137.493,326.318c0,12.801,6.446,26.382,17.807,32.93,7.157,4.103,13.655,2.907,16.609-2.421,2.322-4.128,1.689-9.5,1.689-14.117"/>
  <line class="uuid-613a8aeb-876b-47fd-91f6-5d5b3365aeeb" x1="137.493" y1="207.037" x2="137.493" y2="326.318"/>
  <path class="uuid-0c5b40a8-4612-41e8-a4d0-efc2c9bf2594" d="M147.065,190.524c-5.569,3.54-9.278,9.941-9.573,16.513"/>
  <line class="uuid-613a8aeb-876b-47fd-91f6-5d5b3365aeeb" x1="161.066" y1="182.438" x2="147.065" y2="190.524"/>
  <path class="uuid-0c5b40a8-4612-41e8-a4d0-efc2c9bf2594" d="M173.598,342.711v2.074"/>
  <line class="uuid-613a8aeb-876b-47fd-91f6-5d5b3365aeeb" x1="173.668" y1="184.221" x2="173.598" y2="342.711"/>
  <line class="uuid-613a8aeb-876b-47fd-91f6-5d5b3365aeeb" x1="169.47" y1="359.76" x2="302.579" y2="283.104"/>
  <path class="uuid-0c5b40a8-4612-41e8-a4d0-efc2c9bf2594" d="M169.296,359.882c.074-.048.122-.122.174-.122"/>
  <line class="uuid-613a8aeb-876b-47fd-91f6-5d5b3365aeeb" x1="149.56" y1="325.219" x2="149.63" y2="214.024"/>
  <line class="uuid-9fba1eea-fbd9-4974-a983-bebfc40c5826" x1="170.224" y1="355.927" x2="163.63" y2="359.76"/>
  <line class="uuid-9fba1eea-fbd9-4974-a983-bebfc40c5826" x1="172.276" y1="341.71" x2="150.683" y2="354.19"/>
  <line class="uuid-9fba1eea-fbd9-4974-a983-bebfc40c5826" x1="171.861" y1="328.909" x2="162.872" y2="334.111"/>
  <line class="uuid-9fba1eea-fbd9-4974-a983-bebfc40c5826" x1="149.973" y1="341.588" x2="144.211" y2="344.907"/>
  <line class="uuid-9fba1eea-fbd9-4974-a983-bebfc40c5826" x1="171.861" y1="315.887" x2="162.872" y2="321.09"/>
  <line class="uuid-9fba1eea-fbd9-4974-a983-bebfc40c5826" x1="147.945" y1="329.715" x2="140.152" y2="334.207"/>
  <line class="uuid-9fba1eea-fbd9-4974-a983-bebfc40c5826" x1="171.861" y1="302.844" x2="162.872" y2="308.048"/>
  <line class="uuid-9fba1eea-fbd9-4974-a983-bebfc40c5826" x1="147.823" y1="316.745" x2="139.299" y2="321.653"/>
  <line class="uuid-9fba1eea-fbd9-4974-a983-bebfc40c5826" x1="171.909" y1="289.8" x2="162.872" y2="295.026"/>
  <line class="uuid-9fba1eea-fbd9-4974-a983-bebfc40c5826" x1="147.823" y1="303.698" x2="139.346" y2="308.606"/>
  <line class="uuid-9fba1eea-fbd9-4974-a983-bebfc40c5826" x1="171.909" y1="276.754" x2="162.872" y2="281.982"/>
  <line class="uuid-9fba1eea-fbd9-4974-a983-bebfc40c5826" x1="147.823" y1="290.654" x2="139.346" y2="295.563"/>
  <line class="uuid-9fba1eea-fbd9-4974-a983-bebfc40c5826" x1="171.909" y1="263.736" x2="162.872" y2="268.939"/>
  <line class="uuid-9fba1eea-fbd9-4974-a983-bebfc40c5826" x1="147.823" y1="277.611" x2="139.346" y2="282.542"/>
  <line class="uuid-9fba1eea-fbd9-4974-a983-bebfc40c5826" x1="171.909" y1="250.689" x2="162.872" y2="255.891"/>
  <line class="uuid-9fba1eea-fbd9-4974-a983-bebfc40c5826" x1="147.823" y1="264.591" x2="139.346" y2="269.498"/>
  <line class="uuid-9fba1eea-fbd9-4974-a983-bebfc40c5826" x1="171.909" y1="237.667" x2="162.872" y2="242.874"/>
  <line class="uuid-9fba1eea-fbd9-4974-a983-bebfc40c5826" x1="147.875" y1="251.547" x2="139.346" y2="256.455"/>
  <line class="uuid-9fba1eea-fbd9-4974-a983-bebfc40c5826" x1="171.909" y1="224.625" x2="162.872" y2="229.827"/>
  <line class="uuid-9fba1eea-fbd9-4974-a983-bebfc40c5826" x1="147.875" y1="238.499" x2="139.346" y2="243.411"/>
  <line class="uuid-9fba1eea-fbd9-4974-a983-bebfc40c5826" x1="171.909" y1="211.581" x2="162.872" y2="216.784"/>
  <line class="uuid-9fba1eea-fbd9-4974-a983-bebfc40c5826" x1="147.875" y1="225.456" x2="139.346" y2="230.39"/>
  <line class="uuid-9fba1eea-fbd9-4974-a983-bebfc40c5826" x1="171.909" y1="198.538" x2="162.92" y2="203.736"/>
  <line class="uuid-9fba1eea-fbd9-4974-a983-bebfc40c5826" x1="147.945" y1="212.388" x2="139.346" y2="217.347"/>
  <line class="uuid-9fba1eea-fbd9-4974-a983-bebfc40c5826" x1="171.909" y1="185.49" x2="162.92" y2="190.719"/>
  <line class="uuid-9fba1eea-fbd9-4974-a983-bebfc40c5826" x1="142.938" y1="202.224" x2="140.032" y2="203.91"/>
  <line class="uuid-9fba1eea-fbd9-4974-a983-bebfc40c5826" x1="172.91" y1="171.911" x2="162.872" y2="177.699"/>
  <line class="uuid-9fba1eea-fbd9-4974-a983-bebfc40c5826" x1="159.55" y1="189.814" x2="143.99" y2="198.807"/>
  <line class="uuid-9fba1eea-fbd9-4974-a983-bebfc40c5826" x1="159.256" y1="319.505" x2="151.71" y2="332.595"/>
  <line class="uuid-9fba1eea-fbd9-4974-a983-bebfc40c5826" x1="159.307" y1="274.289" x2="151.415" y2="287.917"/>
  <line class="uuid-9fba1eea-fbd9-4974-a983-bebfc40c5826" x1="159.307" y1="229.121" x2="151.489" y2="242.749"/>
  <line class="uuid-9fba1eea-fbd9-4974-a983-bebfc40c5826" x1="297.419" y1="91.394" x2="290.263" y2="103.779"/>
  <line class="uuid-9fba1eea-fbd9-4974-a983-bebfc40c5826" x1="279.638" y1="99.603" x2="270.649" y2="115.211"/>
  <line class="uuid-9fba1eea-fbd9-4974-a983-bebfc40c5826" x1="260.071" y1="110.888" x2="251.082" y2="126.496"/>
  <line class="uuid-9fba1eea-fbd9-4974-a983-bebfc40c5826" x1="240.555" y1="122.173" x2="231.566" y2="137.784"/>
  <line class="uuid-9fba1eea-fbd9-4974-a983-bebfc40c5826" x1="220.988" y1="133.457" x2="211.995" y2="149.069"/>
  <line class="uuid-9fba1eea-fbd9-4974-a983-bebfc40c5826" x1="201.418" y1="144.745" x2="192.429" y2="160.353"/>
  <line class="uuid-9fba1eea-fbd9-4974-a983-bebfc40c5826" x1="181.854" y1="156.104" x2="174.426" y2="168.953"/>
  <line class="uuid-9fba1eea-fbd9-4974-a983-bebfc40c5826" x1="208.868" y1="260.267" x2="204.545" y2="252.79"/>
  <line class="uuid-9fba1eea-fbd9-4974-a983-bebfc40c5826" x1="218.545" y1="254.475" x2="216.981" y2="251.764"/>
  <line class="uuid-9fba1eea-fbd9-4974-a983-bebfc40c5826" x1="228.362" y1="248.835" x2="226.459" y2="245.535"/>
  <line class="uuid-9fba1eea-fbd9-4974-a983-bebfc40c5826" x1="238.233" y1="243.36" x2="233.468" y2="235.177"/>
</svg>