<?xml version="1.0" encoding="UTF-8"?>
<svg id="uuid-aa5e482f-6640-4af3-b65d-97c6705ceba6" data-name="&amp;lt;Layer&amp;gt;" xmlns="http://www.w3.org/2000/svg" viewBox="0 0 451.11 451.11">
  <defs>
    <style>
      .uuid-4b179752-18bf-4b27-96b3-ab3f9e28120e, .uuid-1aa15ba5-0e4a-4138-95a4-ad63d6df2bfe, .uuid-a037af1b-1749-46f0-a8fd-8369c7f23af8, .uuid-817cc369-63cd-4e23-bbb6-acf97234ab3a, .uuid-039a637f-c80e-49bc-a458-02246871f6ee {
        fill: none;
        stroke: #000;
        stroke-linecap: round;
      }

      .uuid-4b179752-18bf-4b27-96b3-ab3f9e28120e, .uuid-1aa15ba5-0e4a-4138-95a4-ad63d6df2bfe, .uuid-817cc369-63cd-4e23-bbb6-acf97234ab3a, .uuid-039a637f-c80e-49bc-a458-02246871f6ee {
        stroke-linejoin: round;
      }

      .uuid-4b179752-18bf-4b27-96b3-ab3f9e28120e, .uuid-817cc369-63cd-4e23-bbb6-acf97234ab3a {
        stroke-width: 4.113px;
      }

      .uuid-1aa15ba5-0e4a-4138-95a4-ad63d6df2bfe, .uuid-039a637f-c80e-49bc-a458-02246871f6ee {
        stroke-width: 4.109px;
      }

      .uuid-a037af1b-1749-46f0-a8fd-8369c7f23af8 {
        stroke-miterlimit: 10;
        stroke-width: 1.163px;
      }

      .uuid-817cc369-63cd-4e23-bbb6-acf97234ab3a, .uuid-039a637f-c80e-49bc-a458-02246871f6ee {
        fill-rule: evenodd;
      }
    </style>
  </defs>
  <path class="uuid-817cc369-63cd-4e23-bbb6-acf97234ab3a" d="M227.027,228.125v.048"/>
  <line class="uuid-4b179752-18bf-4b27-96b3-ab3f9e28120e" x1="226.742" y1="256.461" x2="226.742" y2="247.803"/>
  <path class="uuid-817cc369-63cd-4e23-bbb6-acf97234ab3a" d="M226.742,247.947v-.379"/>
  <path class="uuid-817cc369-63cd-4e23-bbb6-acf97234ab3a" d="M274.756,182.572s.069,0,.069-.07"/>
  <path class="uuid-817cc369-63cd-4e23-bbb6-acf97234ab3a" d="M289.041,216.819c7.212-4.208,14.519-8.325,23.273-13.08,2.483-1.298,2.435-3.237.069-4.635-3.215-1.867-7.142-4.187-11.141-6.502-1.56-.924-5.555-1.372-7.992.022-6.456,3.738-13.646,7.472-19.275,10.736-2.414,1.398-5.63,1.398-7.974.026-3.216-1.869-6.361-3.712-10.358-6.031-2.365-1.398-2.461-3.455.07-4.661,7.142-3.451,14.453-7.473,21.691-11.66"/>
  <line class="uuid-4b179752-18bf-4b27-96b3-ab3f9e28120e" x1="226.742" y1="200.829" x2="226.742" y2="247.803"/>
  <path class="uuid-817cc369-63cd-4e23-bbb6-acf97234ab3a" d="M341.286,263.746c0,18.164,2.579,29.493-18.946,40.8-5.581,2.858-11.634,4.942-17.999,6.358"/>
  <path class="uuid-817cc369-63cd-4e23-bbb6-acf97234ab3a" d="M341.333,198.867c0,5.346.24,10.074,0,14.331"/>
  <line class="uuid-4b179752-18bf-4b27-96b3-ab3f9e28120e" x1="341.333" y1="213.198" x2="341.333" y2="213.272"/>
  <path class="uuid-817cc369-63cd-4e23-bbb6-acf97234ab3a" d="M341.333,213.272c-.4,7.425-2.078,13.551-8.418,19.345-2.649,2.414-6.078,4.707-10.575,7.073-.566.283-1.133.566-1.747.849-5.276,2.58-11.142,4.496-17.195,5.725-6.648,1.42-13.555,2.035-20.412,1.917-6.528-.118-13.058-.78-19.132-2.13-6.249-1.299-12.091-3.216-17.198-5.748-4.613-2.174-8.61-4.871-11.803-7.922-4.231-4.043-6.977-8.776-7.826-14.096"/>
  <line class="uuid-4b179752-18bf-4b27-96b3-ab3f9e28120e" x1="227.027" y1="218.287" x2="227.027" y2="218.214"/>
  <path class="uuid-817cc369-63cd-4e23-bbb6-acf97234ab3a" d="M227.027,218.214c-.166-1.016-.284-2.01-.284-3.098"/>
  <line class="uuid-4b179752-18bf-4b27-96b3-ab3f9e28120e" x1="226.742" y1="215.116" x2="226.742" y2="200.829"/>
  <line class="uuid-4b179752-18bf-4b27-96b3-ab3f9e28120e" x1="332.841" y1="297.379" x2="332.841" y2="216.558"/>
  <line class="uuid-4b179752-18bf-4b27-96b3-ab3f9e28120e" x1="303.398" y1="275.523" x2="303.398" y2="230.584"/>
  <line class="uuid-4b179752-18bf-4b27-96b3-ab3f9e28120e" x1="283.151" y1="260.077" x2="282.794" y2="232.026"/>
  <line class="uuid-4b179752-18bf-4b27-96b3-ab3f9e28120e" x1="263.854" y1="256.248" x2="263.854" y2="230.279"/>
  <line class="uuid-4b179752-18bf-4b27-96b3-ab3f9e28120e" x1="246.655" y1="265.163" x2="246.655" y2="225.167"/>
  <line class="uuid-4b179752-18bf-4b27-96b3-ab3f9e28120e" x1="234.852" y1="262.634" x2="234.852" y2="216.558"/>
  <line class="uuid-4b179752-18bf-4b27-96b3-ab3f9e28120e" x1="210.774" y1="345.509" x2="210.774" y2="330.843"/>
  <line class="uuid-4b179752-18bf-4b27-96b3-ab3f9e28120e" x1="193.581" y1="351.09" x2="193.581" y2="335.457"/>
  <line class="uuid-4b179752-18bf-4b27-96b3-ab3f9e28120e" x1="173.336" y1="353.007" x2="173.005" y2="336.899"/>
  <line class="uuid-4b179752-18bf-4b27-96b3-ab3f9e28120e" x1="154.057" y1="350.925" x2="154.057" y2="334.982"/>
  <line class="uuid-4b179752-18bf-4b27-96b3-ab3f9e28120e" x1="136.842" y1="345.178" x2="136.842" y2="329.898"/>
  <line class="uuid-4b179752-18bf-4b27-96b3-ab3f9e28120e" x1="125.038" y1="336.59" x2="125.038" y2="321.431"/>
  <line class="uuid-4b179752-18bf-4b27-96b3-ab3f9e28120e" x1="204.862" y1="326.87" x2="204.862" y2="311.235"/>
  <line class="uuid-4b179752-18bf-4b27-96b3-ab3f9e28120e" x1="184.639" y1="328.765" x2="184.452" y2="312.516"/>
  <line class="uuid-4b179752-18bf-4b27-96b3-ab3f9e28120e" x1="165.507" y1="326.703" x2="165.507" y2="310.764"/>
  <line class="uuid-4b179752-18bf-4b27-96b3-ab3f9e28120e" x1="148.31" y1="320.956" x2="148.31" y2="305.654"/>
  <line class="uuid-4b179752-18bf-4b27-96b3-ab3f9e28120e" x1="136.676" y1="312.35" x2="136.676" y2="297.044"/>
  <path class="uuid-817cc369-63cd-4e23-bbb6-acf97234ab3a" d="M237.55,366.392c-15.799-9.105-26.775-12.439-25.804-36.826,1.726-39.686,42.831-84.957,69.135-70.623"/>
  <line class="uuid-4b179752-18bf-4b27-96b3-ab3f9e28120e" x1="280.881" y1="258.944" x2="294.907" y2="267.08"/>
  <path class="uuid-817cc369-63cd-4e23-bbb6-acf97234ab3a" d="M294.907,267.08c-24.078-12.584-52.413,20.578-62.299,42.879-7.049,16.273-13.058,44.962,4.941,56.433"/>
  <path class="uuid-817cc369-63cd-4e23-bbb6-acf97234ab3a" d="M225.724,340.092c0-25.829,18.165-57.239,40.491-70.128,22.493-12.915,40.492-2.388,40.492,23.416s-17.999,57.214-40.492,70.128c-22.326,12.915-40.491,2.388-40.491-23.416Z"/>
  <line class="uuid-4b179752-18bf-4b27-96b3-ab3f9e28120e" x1="212.525" y1="342.316" x2="225.89" y2="349.979"/>
  <line class="uuid-4b179752-18bf-4b27-96b3-ab3f9e28120e" x1="211.912" y1="327.487" x2="224.494" y2="334.817"/>
  <line class="uuid-4b179752-18bf-4b27-96b3-ab3f9e28120e" x1="215.554" y1="309.793" x2="229.105" y2="317.623"/>
  <line class="uuid-4b179752-18bf-4b27-96b3-ab3f9e28120e" x1="223.999" y1="291.322" x2="238.167" y2="299.292"/>
  <line class="uuid-4b179752-18bf-4b27-96b3-ab3f9e28120e" x1="235.47" y1="275.689" x2="249.188" y2="283.659"/>
  <line class="uuid-4b179752-18bf-4b27-96b3-ab3f9e28120e" x1="249.021" y1="263.746" x2="262.219" y2="271.241"/>
  <line class="uuid-4b179752-18bf-4b27-96b3-ab3f9e28120e" x1="262.384" y1="257.855" x2="275.488" y2="265.327"/>
  <path class="uuid-817cc369-63cd-4e23-bbb6-acf97234ab3a" d="M253.444,345.034c6.576-4.304,13.908-8.443,21.216-12.605,2.248-1.277,4.496-4.139,4.496-6.692v-12.749c0-1.586-2.248-2.86-4.496-1.752-6.528,3.834-12.44,7.168-17.504,10.527-2.248,1.255-3.712.309-3.712-2.248v-12.583c0-1.749,1.464-4.942,3.712-6.384,5.914-3.668,12.444-7.474,19.752-11.612"/>
  <path class="uuid-817cc369-63cd-4e23-bbb6-acf97234ab3a" d="M265.932,285.907v61.659"/>
  <line class="uuid-4b179752-18bf-4b27-96b3-ab3f9e28120e" x1="320.593" y1="305.489" x2="320.593" y2="224.365"/>
  <path class="uuid-817cc369-63cd-4e23-bbb6-acf97234ab3a" d="M324.422,222.309c-22.326,12.911-58.655,12.911-80.982,0-22.492-12.919-22.492-33.965,0-46.856,22.327-12.915,58.657-12.915,80.982,0,22.471,12.892,22.471,33.937,0,46.856Z"/>
  <path class="uuid-817cc369-63cd-4e23-bbb6-acf97234ab3a" d="M256.494,182.929c18.33,10.214,35.716,20.884,54.02,31.573"/>
  <path class="uuid-817cc369-63cd-4e23-bbb6-acf97234ab3a" d="M341.286,213.224c0,18.33,2.579,29.633-18.946,40.8-9.743,5.108-21.216,7.805-32.85,8.445"/>
  <path class="uuid-817cc369-63cd-4e23-bbb6-acf97234ab3a" d="M257.962,258.944c-17.716-5.084-31.101-15.446-31.267-29.471"/>
  <line class="uuid-4b179752-18bf-4b27-96b3-ab3f9e28120e" x1="226.694" y1="229.473" x2="226.694" y2="213.224"/>
  <path class="uuid-817cc369-63cd-4e23-bbb6-acf97234ab3a" d="M341.286,231.555c0,18.33,2.579,29.633-18.946,40.775-5.416,2.884-11.303,4.942-17.381,6.221"/>
  <path class="uuid-817cc369-63cd-4e23-bbb6-acf97234ab3a" d="M229.723,258.635c-.165-.471-1.398-2.697-1.563-3.028-.968-2.531-1.465-5.106-1.465-7.804"/>
  <line class="uuid-4b179752-18bf-4b27-96b3-ab3f9e28120e" x1="226.694" y1="247.803" x2="226.694" y2="231.555"/>
  <path class="uuid-817cc369-63cd-4e23-bbb6-acf97234ab3a" d="M341.286,246.361c0,18.33,2.579,29.659-18.946,40.796-4.632,2.557-9.578,4.305-14.684,5.748"/>
  <path class="uuid-817cc369-63cd-4e23-bbb6-acf97234ab3a" d="M212.008,325.095c-35.198,10.693-83.161-2.693-83.823-29.328"/>
  <line class="uuid-4b179752-18bf-4b27-96b3-ab3f9e28120e" x1="128.184" y1="295.767" x2="128.184" y2="279.52"/>
  <path class="uuid-817cc369-63cd-4e23-bbb6-acf97234ab3a" d="M216.169,307.405c-22.14,8.136-51.773,6.694-71.075-4.444-22.471-13.08-22.471-33.964,0-46.879,22.329-12.893,58.657-12.893,80.982,0,6.862,3.995,11.473,8.61,14.169,13.551"/>
  <path class="uuid-817cc369-63cd-4e23-bbb6-acf97234ab3a" d="M190.531,297.379c7.306-4.139,14.522-8.305,23.393-13.08,2.432-1.281,2.432-3.195,0-4.614-3.149-1.913-7.146-4.162-11.141-6.552-1.56-.942-5.559-1.417-7.974,0-6.361,3.833-13.668,7.502-19.275,10.858-2.362,1.276-5.581,1.276-7.922,0-3.216-1.913-6.435-3.83-10.406-6.079-2.365-1.416-2.365-3.499,0-4.61,7.19-3.502,14.497-7.499,21.687-11.781"/>
  <path class="uuid-817cc369-63cd-4e23-bbb6-acf97234ab3a" d="M158.152,263.436c18.33,10.196,35.712,20.863,54.02,31.552"/>
  <path class="uuid-817cc369-63cd-4e23-bbb6-acf97234ab3a" d="M212.525,344.564c-35.193,18.305-95.127,5.251-95.648-24.553"/>
  <line class="uuid-4b179752-18bf-4b27-96b3-ab3f9e28120e" x1="116.877" y1="320.011" x2="116.877" y2="303.74"/>
  <path class="uuid-817cc369-63cd-4e23-bbb6-acf97234ab3a" d="M211.558,328.765c-22.662,11.328-56.553,10.688-77.911-1.586-20.601-11.969-22.327-30.606-4.967-43.519"/>
  <path class="uuid-817cc369-63cd-4e23-bbb6-acf97234ab3a" d="M341.286,278.243l.047-64.97M341.333,213.198l-.047-14.331"/>
  <line class="uuid-a037af1b-1749-46f0-a8fd-8369c7f23af8" x1="237.55" y1="268.687" x2="235.231" y2="272.709"/>
  <path class="uuid-817cc369-63cd-4e23-bbb6-acf97234ab3a" d="M105.666,168.682l55.308-31.926M195.005,117.089l55.308-31.922"/>
  <path class="uuid-817cc369-63cd-4e23-bbb6-acf97234ab3a" d="M250.313,85.168c7.119-4.135,18.691-4.099,25.807.008"/>
  <line class="uuid-4b179752-18bf-4b27-96b3-ab3f9e28120e" x1="276.12" y1="85.175" x2="345.682" y2="125.339"/>
  <path class="uuid-817cc369-63cd-4e23-bbb6-acf97234ab3a" d="M345.682,125.339c7.097,4.095,7.123,10.754.004,14.889"/>
  <path class="uuid-817cc369-63cd-4e23-bbb6-acf97234ab3a" d="M345.69,140.229l-45.29,26.121M226.177,209.214l-25.156,14.519"/>
  <path class="uuid-817cc369-63cd-4e23-bbb6-acf97234ab3a" d="M201.02,223.733c-7.097,4.099-18.687,4.099-25.785,0"/>
  <line class="uuid-4b179752-18bf-4b27-96b3-ab3f9e28120e" x1="175.235" y1="223.733" x2="105.673" y2="183.573"/>
  <path class="uuid-817cc369-63cd-4e23-bbb6-acf97234ab3a" d="M105.673,183.573c-7.116-4.11-7.123-10.803-.006-14.89"/>
  <path class="uuid-817cc369-63cd-4e23-bbb6-acf97234ab3a" d="M228.05,175.433c-8.96-.632-18.117-3.145-25.59-7.461-7.458-4.306-11.796-9.582-12.893-14.758"/>
  <path class="uuid-817cc369-63cd-4e23-bbb6-acf97234ab3a" d="M276.201,163.969c1.045-8.882-5.848-19.1-19.736-27.118-13.946-8.054-31.596-12.005-46.96-11.387"/>
  <path class="uuid-817cc369-63cd-4e23-bbb6-acf97234ab3a" d="M283.424,165.595c18.657-10.759,35.142-20.281,53.785-31.047,2.381-1.351,2.2-3.728-.397-5.228-22.441-12.955-44.903-25.921-67.362-38.891-2.597-1.498-6.644-1.564-9.025-.218-18.644,10.769-37.328,21.565-55.989,32.324"/>
  <path class="uuid-817cc369-63cd-4e23-bbb6-acf97234ab3a" d="M262.095,155.827c-1.097-5.178-5.435-10.454-12.949-14.788-7.399-4.276-16.575-6.799-25.534-7.432"/>
  <path class="uuid-817cc369-63cd-4e23-bbb6-acf97234ab3a" d="M175.46,145.072c-1.027,8.893,5.862,19.11,19.754,27.128,10.954,6.324,24.25,10.122,36.933,11.152"/>
  <path class="uuid-817cc369-63cd-4e23-bbb6-acf97234ab3a" d="M170.442,142.176c-18.644,10.766-37.328,21.561-55.989,32.316-2.362,1.362-2.2,3.727.397,5.228,22.444,12.955,44.899,25.921,67.358,38.887,2.563,1.482,6.648,1.568,9.029.217,11.604-6.7,23.224-13.415,34.844-20.118"/>
  <path class="uuid-817cc369-63cd-4e23-bbb6-acf97234ab3a" d="M295.054,122.54c4.003-2.3,4.069-6.012.162-8.268-3.907-2.258-10.335-2.214-14.319.096-3.996,2.28-4.063,5.993-.136,8.261,3.907,2.255,10.316,2.203,14.294-.088Z"/>
  <path class="uuid-817cc369-63cd-4e23-bbb6-acf97234ab3a" d="M170.378,194.523c-3.995,2.281-10.409,2.332-14.316.077-3.904-2.256-3.842-5.968.136-8.264,4.007-2.299,10.415-2.351,14.338-.084,3.908,2.256,3.826,5.96-.158,8.272Z"/>
  <polyline class="uuid-817cc369-63cd-4e23-bbb6-acf97234ab3a" points="236.427 180.316 160.974 136.757 167.362 133.059 195.005 117.089 279.487 165.867"/>
  <line class="uuid-4b179752-18bf-4b27-96b3-ab3f9e28120e" x1="167.362" y1="133.059" x2="242.126" y2="176.225"/>
  <line class="uuid-4b179752-18bf-4b27-96b3-ab3f9e28120e" x1="188.618" y1="120.791" x2="268.493" y2="166.901"/>
  <path class="uuid-817cc369-63cd-4e23-bbb6-acf97234ab3a" d="M350.925,182.855c-.459,2.91-2.84,5.004-5.217,6.428"/>
  <line class="uuid-4b179752-18bf-4b27-96b3-ab3f9e28120e" x1="345.708" y1="189.283" x2="340.476" y2="192.303"/>
  <path class="uuid-817cc369-63cd-4e23-bbb6-acf97234ab3a" d="M144.719,255.324c-19.082-10.982-40.061-23.161-41.371-24.343-1.781-1.552-2.914-3.399-3.02-5.78"/>
  <line class="uuid-4b179752-18bf-4b27-96b3-ab3f9e28120e" x1="100.328" y1="225.201" x2="100.342" y2="176.121"/>
  <path class="uuid-817cc369-63cd-4e23-bbb6-acf97234ab3a" d="M100.342,176.121c.275,3.625,2.252,5.627,5.331,7.452"/>
  <path class="uuid-817cc369-63cd-4e23-bbb6-acf97234ab3a" d="M345.686,140.229c3.061-1.865,5.026-3.859,5.327-7.487"/>
  <line class="uuid-4b179752-18bf-4b27-96b3-ab3f9e28120e" x1="351.013" y1="132.742" x2="350.925" y2="182.855"/>
  <line class="uuid-4b179752-18bf-4b27-96b3-ab3f9e28120e" x1="145.716" y1="255.78" x2="105.673" y2="232.662"/>
  <path class="uuid-817cc369-63cd-4e23-bbb6-acf97234ab3a" d="M105.673,232.662c-2.814-1.747-5.195-3.955-5.345-7.461"/>
  <path class="uuid-817cc369-63cd-4e23-bbb6-acf97234ab3a" d="M175.235,223.733c4.213,2.387,8.89,3.149,13.706,3.087"/>
  <line class="uuid-4b179752-18bf-4b27-96b3-ab3f9e28120e" x1="188.941" y1="226.82" x2="188.941" y2="246.526"/>
  <polyline class="uuid-817cc369-63cd-4e23-bbb6-acf97234ab3a" points="351.055 162.927 350.991 163.414 350.951 163.895"/>
  <path class="uuid-039a637f-c80e-49bc-a458-02246871f6ee" d="M350.94,168.042c-.463,2.958-2.841,5.004-5.218,6.472"/>
  <line class="uuid-1aa15ba5-0e4a-4138-95a4-ad63d6df2bfe" x1="345.722" y1="174.514" x2="333.503" y2="181.578"/>
  <line class="uuid-1aa15ba5-0e4a-4138-95a4-ad63d6df2bfe" x1="226.279" y1="243.457" x2="214.302" y2="250.372"/>
  <line class="uuid-1aa15ba5-0e4a-4138-95a4-ad63d6df2bfe" x1="160.043" y1="249.275" x2="105.651" y2="217.875"/>
  <path class="uuid-039a637f-c80e-49bc-a458-02246871f6ee" d="M105.651,217.875c-3.013-1.861-5-3.841-5.309-7.443"/>
  <line class="uuid-4b179752-18bf-4b27-96b3-ab3f9e28120e" x1="351.029" y1="143.482" x2="350.995" y2="143.533"/>
  <path class="uuid-039a637f-c80e-49bc-a458-02246871f6ee" d="M350.999,147.35c-.287,3.56-2.252,5.559-5.291,7.387"/>
  <line class="uuid-1aa15ba5-0e4a-4138-95a4-ad63d6df2bfe" x1="345.704" y1="154.737" x2="316.953" y2="171.324"/>
  <line class="uuid-1aa15ba5-0e4a-4138-95a4-ad63d6df2bfe" x1="226.692" y1="223.457" x2="201.01" y2="238.295"/>
  <path class="uuid-039a637f-c80e-49bc-a458-02246871f6ee" d="M201.01,238.295c-.681.395-1.365.67-2.064,1.005-1.929.776-3.595,1.225-5.585,1.604-1.179.18-2.29.327-3.455.397-.317.052-.659.026-.946.026-1.162.07-2.27.004-3.473-.07-3.694-.389-6.931-1.159-10.254-2.98"/>
  <line class="uuid-1aa15ba5-0e4a-4138-95a4-ad63d6df2bfe" x1="175.231" y1="238.277" x2="105.688" y2="198.125"/>
  <line class="uuid-4b179752-18bf-4b27-96b3-ab3f9e28120e" x1="185.177" y1="211.981" x2="202.676" y2="201.866"/>
  <line class="uuid-4b179752-18bf-4b27-96b3-ab3f9e28120e" x1="126.009" y1="177.821" x2="143.508" y2="167.707"/>
  <line class="uuid-4b179752-18bf-4b27-96b3-ab3f9e28120e" x1="248.679" y1="106.997" x2="266.182" y2="96.883"/>
  <line class="uuid-4b179752-18bf-4b27-96b3-ab3f9e28120e" x1="307.825" y1="141.149" x2="325.346" y2="131.045"/>
  <line class="uuid-a037af1b-1749-46f0-a8fd-8369c7f23af8" x1="149.804" y1="209.913" x2="109.706" y2="233.052"/>
  <line class="uuid-a037af1b-1749-46f0-a8fd-8369c7f23af8" x1="160.164" y1="214.953" x2="119.24" y2="238.557"/>
  <line class="uuid-a037af1b-1749-46f0-a8fd-8369c7f23af8" x1="169.536" y1="220.601" x2="128.81" y2="244.083"/>
  <line class="uuid-a037af1b-1749-46f0-a8fd-8369c7f23af8" x1="178.404" y1="226.507" x2="138.364" y2="249.598"/>
  <line class="uuid-a037af1b-1749-46f0-a8fd-8369c7f23af8" x1="187.712" y1="232.188" x2="147.934" y2="255.125"/>
  <line class="uuid-a037af1b-1749-46f0-a8fd-8369c7f23af8" x1="202.981" y1="222.5" x2="202.897" y2="247.958"/>
  <line class="uuid-a037af1b-1749-46f0-a8fd-8369c7f23af8" x1="222.129" y1="211.447" x2="222.026" y2="253.956"/>
  <line class="uuid-a037af1b-1749-46f0-a8fd-8369c7f23af8" x1="322.974" y1="153.214" x2="322.907" y2="175.022"/>
  <line class="uuid-a037af1b-1749-46f0-a8fd-8369c7f23af8" x1="342.117" y1="142.162" x2="342.022" y2="189.543"/>
  <line class="uuid-a037af1b-1749-46f0-a8fd-8369c7f23af8" x1="214.476" y1="118.511" x2="217.618" y2="123.956"/>
  <line class="uuid-a037af1b-1749-46f0-a8fd-8369c7f23af8" x1="230.743" y1="108.473" x2="242.788" y2="129.287"/>
  <line class="uuid-a037af1b-1749-46f0-a8fd-8369c7f23af8" x1="246.412" y1="97.347" x2="285.638" y2="165.261"/>
  <line class="uuid-a037af1b-1749-46f0-a8fd-8369c7f23af8" x1="264.361" y1="90.145" x2="278.688" y2="114.955"/>
  <line class="uuid-a037af1b-1749-46f0-a8fd-8369c7f23af8" x1="284.328" y1="124.809" x2="301.475" y2="154.472"/>
  <line class="uuid-a037af1b-1749-46f0-a8fd-8369c7f23af8" x1="296.191" y1="106.993" x2="318.205" y2="145.156"/>
  <line class="uuid-a037af1b-1749-46f0-a8fd-8369c7f23af8" x1="329.875" y1="127.135" x2="334.184" y2="134.615"/>
  <line class="uuid-a037af1b-1749-46f0-a8fd-8369c7f23af8" x1="120.335" y1="172.539" x2="127.786" y2="185.42"/>
  <line class="uuid-a037af1b-1749-46f0-a8fd-8369c7f23af8" x1="136.609" y1="162.526" x2="152.276" y2="189.614"/>
  <line class="uuid-a037af1b-1749-46f0-a8fd-8369c7f23af8" x1="156.173" y1="196.358" x2="160.808" y2="204.386"/>
  <line class="uuid-a037af1b-1749-46f0-a8fd-8369c7f23af8" x1="153.097" y1="152.713" x2="172.219" y2="185.905"/>
  <line class="uuid-a037af1b-1749-46f0-a8fd-8369c7f23af8" x1="174.614" y1="190.037" x2="190.89" y2="218.22"/>
  <line class="uuid-a037af1b-1749-46f0-a8fd-8369c7f23af8" x1="170.135" y1="144.027" x2="174.393" y2="151.385"/>
  <line class="uuid-a037af1b-1749-46f0-a8fd-8369c7f23af8" x1="180.674" y1="162.281" x2="207.824" y2="209.262"/>
  <line class="uuid-a037af1b-1749-46f0-a8fd-8369c7f23af8" x1="213.743" y1="181.251" x2="223.84" y2="198.743"/>
  <line class="uuid-a037af1b-1749-46f0-a8fd-8369c7f23af8" x1="197.665" y1="126.27" x2="178.304" y2="137.441"/>
  <line class="uuid-a037af1b-1749-46f0-a8fd-8369c7f23af8" x1="216.787" y1="137.312" x2="197.448" y2="148.493"/>
  <line class="uuid-a037af1b-1749-46f0-a8fd-8369c7f23af8" x1="235.912" y1="148.353" x2="216.569" y2="159.531"/>
  <line class="uuid-a037af1b-1749-46f0-a8fd-8369c7f23af8" x1="255.038" y1="159.395" x2="235.695" y2="170.573"/>
  <line class="uuid-a037af1b-1749-46f0-a8fd-8369c7f23af8" x1="111.567" y1="187.837" x2="100.055" y2="194.475"/>
  <line class="uuid-a037af1b-1749-46f0-a8fd-8369c7f23af8" x1="121.933" y1="192.881" x2="100.328" y2="205.329"/>
  <line class="uuid-a037af1b-1749-46f0-a8fd-8369c7f23af8" x1="131.303" y1="198.526" x2="100.324" y2="216.381"/>
  <line class="uuid-a037af1b-1749-46f0-a8fd-8369c7f23af8" x1="140.171" y1="204.434" x2="100.128" y2="227.526"/>
  <path class="uuid-039a637f-c80e-49bc-a458-02246871f6ee" d="M105.688,198.125c-3.01-1.859-4.997-3.842-5.31-7.44"/>
</svg>