<?xml version="1.0" encoding="UTF-8"?>
<svg id="uuid-9c0e2d1e-6cb0-434d-aaa2-56da224e121b" data-name="&amp;lt;Layer&amp;gt;" xmlns="http://www.w3.org/2000/svg" viewBox="0 0 451.11 451.11">
  <defs>
    <style>
      .uuid-4115b225-3471-40b0-abc6-7028ab1951d5, .uuid-56d326fe-af82-4e37-9022-c444784775e5, .uuid-f2c634e5-5a58-4982-a1f3-8b4ec41807c8 {
        fill: none;
        stroke: #000;
        stroke-linecap: round;
      }

      .uuid-4115b225-3471-40b0-abc6-7028ab1951d5, .uuid-f2c634e5-5a58-4982-a1f3-8b4ec41807c8 {
        stroke-linejoin: round;
        stroke-width: 4.117px;
      }

      .uuid-56d326fe-af82-4e37-9022-c444784775e5 {
        stroke-miterlimit: 10;
        stroke-width: 1.163px;
      }

      .uuid-f2c634e5-5a58-4982-a1f3-8b4ec41807c8 {
        fill-rule: evenodd;
      }
    </style>
  </defs>
  <path class="uuid-f2c634e5-5a58-4982-a1f3-8b4ec41807c8" d="M181.633,279.393c.07.047.118.047.187.117.449.379.828.732,1.181,1.111.166.236.262.449.449.615.214.283.379.636.497,1.015.096.236.165.497.283.732.497,1.63.567,3.712.118,6.123"/>
  <path class="uuid-f2c634e5-5a58-4982-a1f3-8b4ec41807c8" d="M169.222,375.631c-.166.849-.166,1.585-.048,2.196,0,.283.048.497.165.732,0,.213.096.379.214.545.07.235.191.4.353.518.096.166.213.283.379.405.074.048.118.092.165.166"/>
  <path class="uuid-f2c634e5-5a58-4982-a1f3-8b4ec41807c8" d="M353.945,126.526c2.366-3.78,2.082-7.536.122-8.555-.405-.166-.78-.283-1.111-.283-.567,0-1.137.187-1.822.449"/>
  <path class="uuid-f2c634e5-5a58-4982-a1f3-8b4ec41807c8" d="M282.385,150.328c-1.468.684-2.767.967-3.926.967-.47,0-.967-.047-1.49-.235h-.044"/>
  <path class="uuid-f2c634e5-5a58-4982-a1f3-8b4ec41807c8" d="M99.999,226.123c-1.56,1.133-2.528,2.314-3.357,4.017-1.015,2.101-2.078,5.718.166,7.422"/>
  <path class="uuid-f2c634e5-5a58-4982-a1f3-8b4ec41807c8" d="M128.76,255.995c-2.362-1.773-1.107-5.722,0-7.848.898-1.512,1.751-2.553,3.216-3.591"/>
  <line class="uuid-4115b225-3471-40b0-abc6-7028ab1951d5" x1="184.348" y1="289.106" x2="169.222" y2="375.631"/>
  <line class="uuid-4115b225-3471-40b0-abc6-7028ab1951d5" x1="170.45" y1="380.193" x2="138.547" y2="361.711"/>
  <path class="uuid-f2c634e5-5a58-4982-a1f3-8b4ec41807c8" d="M138.547,361.711c-1.512-1.015-1.512-2.862-1.298-4.514"/>
  <line class="uuid-4115b225-3471-40b0-abc6-7028ab1951d5" x1="137.249" y1="357.196" x2="152.419" y2="270.625"/>
  <path class="uuid-f2c634e5-5a58-4982-a1f3-8b4ec41807c8" d="M152.419,270.625c.235-1.395.357-2.815.235-4.041"/>
  <line class="uuid-4115b225-3471-40b0-abc6-7028ab1951d5" x1="263.05" y1="126.007" x2="319.182" y2="99.725"/>
  <path class="uuid-f2c634e5-5a58-4982-a1f3-8b4ec41807c8" d="M319.182,99.725c1.111-.519,2.079-.754,3.213-.07"/>
  <line class="uuid-4115b225-3471-40b0-abc6-7028ab1951d5" x1="322.394" y1="99.655" x2="354.067" y2="117.971"/>
  <path class="uuid-f2c634e5-5a58-4982-a1f3-8b4ec41807c8" d="M170.286,380.027c1.468,1.111,3.995.449,6.287-2.436"/>
  <line class="uuid-4115b225-3471-40b0-abc6-7028ab1951d5" x1="176.573" y1="377.591" x2="236.036" y2="302.647"/>
  <path class="uuid-f2c634e5-5a58-4982-a1f3-8b4ec41807c8" d="M236.036,302.647c3.473-4.324,7.517-6.686,10.942-6.285"/>
  <line class="uuid-4115b225-3471-40b0-abc6-7028ab1951d5" x1="246.978" y1="296.362" x2="306.37" y2="302.719"/>
  <path class="uuid-f2c634e5-5a58-4982-a1f3-8b4ec41807c8" d="M306.37,302.719c3.83.379,8.367-6.075,7.422-10.471"/>
  <line class="uuid-4115b225-3471-40b0-abc6-7028ab1951d5" x1="313.792" y1="292.248" x2="298.74" y2="223.099"/>
  <path class="uuid-f2c634e5-5a58-4982-a1f3-8b4ec41807c8" d="M298.74,223.099c-.923-3.996.375-9.173,3.355-13.946"/>
  <line class="uuid-4115b225-3471-40b0-abc6-7028ab1951d5" x1="302.095" y1="209.153" x2="353.945" y2="126.526"/>
  <line class="uuid-4115b225-3471-40b0-abc6-7028ab1951d5" x1="351.133" y1="118.137" x2="282.385" y2="150.328"/>
  <line class="uuid-4115b225-3471-40b0-abc6-7028ab1951d5" x1="168.773" y1="178.972" x2="99.999" y2="226.123"/>
  <line class="uuid-4115b225-3471-40b0-abc6-7028ab1951d5" x1="96.808" y1="237.562" x2="128.76" y2="255.995"/>
  <line class="uuid-4115b225-3471-40b0-abc6-7028ab1951d5" x1="131.976" y1="244.556" x2="200.751" y2="197.431"/>
  <path class="uuid-f2c634e5-5a58-4982-a1f3-8b4ec41807c8" d="M200.751,197.431c4.444-3.237,7.138-7.33,8.816-12.55"/>
  <line class="uuid-4115b225-3471-40b0-abc6-7028ab1951d5" x1="209.567" y1="184.88" x2="236.981" y2="95.851"/>
  <path class="uuid-f2c634e5-5a58-4982-a1f3-8b4ec41807c8" d="M236.981,95.851c.972-2.671,4.54-8.393,8.154-6.476"/>
  <line class="uuid-4115b225-3471-40b0-abc6-7028ab1951d5" x1="245.135" y1="89.375" x2="213.157" y2="70.942"/>
  <path class="uuid-f2c634e5-5a58-4982-a1f3-8b4ec41807c8" d="M213.157,70.942c-3.543-1.869-7.182,3.734-8.08,6.45"/>
  <line class="uuid-4115b225-3471-40b0-abc6-7028ab1951d5" x1="205.077" y1="77.392" x2="177.662" y2="166.448"/>
  <path class="uuid-f2c634e5-5a58-4982-a1f3-8b4ec41807c8" d="M177.662,166.448c-1.751,5.198-4.444,9.312-8.889,12.524"/>
  <line class="uuid-4115b225-3471-40b0-abc6-7028ab1951d5" x1="129.165" y1="256.183" x2="180.971" y2="279.036"/>
  <path class="uuid-f2c634e5-5a58-4982-a1f3-8b4ec41807c8" d="M169.174,375.653c-.92,5.459,3.594,6.689,7.399,1.938"/>
  <path class="uuid-f2c634e5-5a58-4982-a1f3-8b4ec41807c8" d="M282.385,150.328c-4.065,1.891-7.186.967-8.889-2.318"/>
  <line class="uuid-4115b225-3471-40b0-abc6-7028ab1951d5" x1="273.496" y1="148.009" x2="246.128" y2="90.578"/>
  <path class="uuid-f2c634e5-5a58-4982-a1f3-8b4ec41807c8" d="M203.539,195.042c2.93-3.097,4.681-6.121,6.028-10.162"/>
  <path class="uuid-f2c634e5-5a58-4982-a1f3-8b4ec41807c8" d="M177.662,166.448c-1.35,4.061-3.097,7.042-6.027,10.136"/>
  <line class="uuid-4115b225-3471-40b0-abc6-7028ab1951d5" x1="171.635" y1="176.584" x2="203.539" y2="195.042"/>
  <line class="uuid-56d326fe-af82-4e37-9022-c444784775e5" x1="120.68" y1="249.568" x2="105.624" y2="223.522"/>
  <line class="uuid-56d326fe-af82-4e37-9022-c444784775e5" x1="139.397" y1="238.339" x2="123.656" y2="211.088"/>
  <line class="uuid-56d326fe-af82-4e37-9022-c444784775e5" x1="157.477" y1="225.957" x2="141.759" y2="198.708"/>
  <line class="uuid-56d326fe-af82-4e37-9022-c444784775e5" x1="175.58" y1="213.547" x2="159.839" y2="186.323"/>
  <line class="uuid-56d326fe-af82-4e37-9022-c444784775e5" x1="193.377" y1="200.738" x2="185.01" y2="186.25"/>
  <line class="uuid-56d326fe-af82-4e37-9022-c444784775e5" x1="288.67" y1="146.192" x2="274.585" y2="121.802"/>
  <line class="uuid-56d326fe-af82-4e37-9022-c444784775e5" x1="308.571" y1="136.901" x2="294.46" y2="112.51"/>
  <line class="uuid-56d326fe-af82-4e37-9022-c444784775e5" x1="328.399" y1="127.615" x2="314.288" y2="103.203"/>
  <line class="uuid-56d326fe-af82-4e37-9022-c444784775e5" x1="347.848" y1="117.57" x2="346.998" y2="116.106"/>
  <line class="uuid-56d326fe-af82-4e37-9022-c444784775e5" x1="167.827" y1="372.841" x2="164.733" y2="374.636"/>
  <line class="uuid-56d326fe-af82-4e37-9022-c444784775e5" x1="170.739" y1="358.566" x2="153.315" y2="368.61"/>
  <line class="uuid-56d326fe-af82-4e37-9022-c444784775e5" x1="173.667" y1="344.267" x2="141.972" y2="362.561"/>
  <line class="uuid-56d326fe-af82-4e37-9022-c444784775e5" x1="176.312" y1="330.112" x2="139.231" y2="351.523"/>
  <line class="uuid-56d326fe-af82-4e37-9022-c444784775e5" x1="178.726" y1="316.094" x2="141.689" y2="337.486"/>
  <line class="uuid-56d326fe-af82-4e37-9022-c444784775e5" x1="181.184" y1="302.079" x2="144.172" y2="323.472"/>
  <line class="uuid-56d326fe-af82-4e37-9022-c444784775e5" x1="183.616" y1="288.065" x2="146.583" y2="309.431"/>
  <line class="uuid-56d326fe-af82-4e37-9022-c444784775e5" x1="177.754" y1="278.826" x2="149.346" y2="295.225"/>
  <line class="uuid-56d326fe-af82-4e37-9022-c444784775e5" x1="164.851" y1="273.675" x2="152.3" y2="280.905"/>
  <line class="uuid-56d326fe-af82-4e37-9022-c444784775e5" x1="207.201" y1="186.228" x2="199.57" y2="190.646"/>
  <line class="uuid-56d326fe-af82-4e37-9022-c444784775e5" x1="212.66" y1="170.439" x2="188.06" y2="184.642"/>
  <line class="uuid-56d326fe-af82-4e37-9022-c444784775e5" x1="217.934" y1="154.794" x2="176.573" y2="178.666"/>
  <line class="uuid-56d326fe-af82-4e37-9022-c444784775e5" x1="222.705" y1="139.434" x2="179.174" y2="164.578"/>
  <line class="uuid-56d326fe-af82-4e37-9022-c444784775e5" x1="227.434" y1="124.094" x2="183.877" y2="149.217"/>
  <line class="uuid-56d326fe-af82-4e37-9022-c444784775e5" x1="232.209" y1="108.732" x2="188.674" y2="133.855"/>
  <line class="uuid-56d326fe-af82-4e37-9022-c444784775e5" x1="237.099" y1="93.297" x2="193.377" y2="118.541"/>
  <line class="uuid-56d326fe-af82-4e37-9022-c444784775e5" x1="232.775" y1="83.204" x2="198.389" y2="103.01"/>
  <line class="uuid-56d326fe-af82-4e37-9022-c444784775e5" x1="221.241" y1="77.204" x2="203.657" y2="87.366"/>
</svg>