<?xml version="1.0" encoding="UTF-8"?>
<svg id="uuid-9b8118e8-7706-49bd-84b6-48e7e70c9903" data-name="&amp;lt;Layer&amp;gt;" xmlns="http://www.w3.org/2000/svg" viewBox="0 0 451.11 451.11">
  <defs>
    <style>
      .uuid-8d573f66-b189-4896-a93e-5240afaf24e4 {
        stroke-width: 4.117px;
      }

      .uuid-8d573f66-b189-4896-a93e-5240afaf24e4, .uuid-a63f8888-909a-4cfc-9944-82835c29c463, .uuid-c50a2f1a-a289-418f-b93a-da2852eb5016, .uuid-41d801e6-bee8-4a46-ac6f-fbc6f00a8ae5, .uuid-04662a19-0c03-44db-a3c4-5e6c5d1c86dc {
        fill: none;
        stroke: #000;
        stroke-linecap: round;
      }

      .uuid-8d573f66-b189-4896-a93e-5240afaf24e4, .uuid-a63f8888-909a-4cfc-9944-82835c29c463, .uuid-04662a19-0c03-44db-a3c4-5e6c5d1c86dc {
        stroke-linejoin: round;
      }

      .uuid-a63f8888-909a-4cfc-9944-82835c29c463, .uuid-04662a19-0c03-44db-a3c4-5e6c5d1c86dc {
        stroke-width: 4.113px;
      }

      .uuid-c50a2f1a-a289-418f-b93a-da2852eb5016 {
        stroke-width: 1.163px;
      }

      .uuid-c50a2f1a-a289-418f-b93a-da2852eb5016, .uuid-41d801e6-bee8-4a46-ac6f-fbc6f00a8ae5 {
        stroke-miterlimit: 10;
      }

      .uuid-41d801e6-bee8-4a46-ac6f-fbc6f00a8ae5 {
        stroke-width: 1.159px;
      }

      .uuid-04662a19-0c03-44db-a3c4-5e6c5d1c86dc {
        fill-rule: evenodd;
      }
    </style>
  </defs>
  <g>
    <line class="uuid-a63f8888-909a-4cfc-9944-82835c29c463" x1="101.864" y1="276.275" x2="102.522" y2="157.652"/>
    <path class="uuid-04662a19-0c03-44db-a3c4-5e6c5d1c86dc" d="M102.522,157.652c.637-7.693,3.86-13.364,10.21-17.783"/>
    <line class="uuid-a63f8888-909a-4cfc-9944-82835c29c463" x1="258.836" y1="58.986" x2="346.998" y2="109.845"/>
    <path class="uuid-04662a19-0c03-44db-a3c4-5e6c5d1c86dc" d="M346.998,109.845c-2.343-.853-2.786-.758-5.176-.221"/>
    <line class="uuid-a63f8888-909a-4cfc-9944-82835c29c463" x1="341.821" y1="109.625" x2="339.72" y2="110.551"/>
    <path class="uuid-04662a19-0c03-44db-a3c4-5e6c5d1c86dc" d="M339.72,110.551c-45.34,26.212-90.751,52.402-136.115,78.615"/>
    <line class="uuid-a63f8888-909a-4cfc-9944-82835c29c463" x1="203.605" y1="189.166" x2="200.867" y2="190.751"/>
    <path class="uuid-04662a19-0c03-44db-a3c4-5e6c5d1c86dc" d="M200.867,190.751c-6.372,4.422-9.625,10.089-10.258,17.787"/>
    <line class="uuid-a63f8888-909a-4cfc-9944-82835c29c463" x1="190.609" y1="208.537" x2="190.025" y2="327.156"/>
    <path class="uuid-04662a19-0c03-44db-a3c4-5e6c5d1c86dc" d="M190.025,327.156c.295,3.227.389,4.57,2.954,6.692"/>
    <line class="uuid-a63f8888-909a-4cfc-9944-82835c29c463" x1="192.98" y1="333.849" x2="104.818" y2="282.967"/>
    <path class="uuid-04662a19-0c03-44db-a3c4-5e6c5d1c86dc" d="M104.818,282.967c-2.491-2.126-2.66-3.47-2.954-6.693"/>
    <line class="uuid-a63f8888-909a-4cfc-9944-82835c29c463" x1="239.321" y1="182.763" x2="215.575" y2="196.469"/>
    <line class="uuid-a63f8888-909a-4cfc-9944-82835c29c463" x1="203.094" y1="317.656" x2="215.232" y2="324.519"/>
    <path class="uuid-04662a19-0c03-44db-a3c4-5e6c5d1c86dc" d="M215.232,324.519c-5.934,3.422-10.99,6.328-14.997,8.65-2.954,1.685-5.571,1.755-7.424.533-.048,0-.048-.07-.126-.07-.754-.684-1.221-1.273-1.611-1.858-.196-.291-.365-.637-.465-.976-.073-.173-.121-.415-.195-.636-.095-.291-.173-.585-.173-.88-.096-.632-.169-1.268-.217-2.1"/>
    <path class="uuid-04662a19-0c03-44db-a3c4-5e6c5d1c86dc" d="M346.998,109.819c1.833,1.127,3.006,3.375,3.006,6.624v118.427c0,6.495-4.591,14.435-10.21,17.71-3.592,2.074-8.183,4.761-13.485,7.84"/>
    <path class="uuid-04662a19-0c03-44db-a3c4-5e6c5d1c86dc" d="M249.432,304.783c-1.637-4.007-2.613-8.136-2.613-12.021"/>
    <line class="uuid-a63f8888-909a-4cfc-9944-82835c29c463" x1="246.819" y1="292.762" x2="246.819" y2="292.397"/>
    <path class="uuid-04662a19-0c03-44db-a3c4-5e6c5d1c86dc" d="M246.819,292.397c0-1.611.218-3.079.585-4.348"/>
    <path class="uuid-04662a19-0c03-44db-a3c4-5e6c5d1c86dc" d="M272.932,291.128c0,.048-.048.048-.048.048"/>
    <polyline class="uuid-04662a19-0c03-44db-a3c4-5e6c5d1c86dc" points="259.546 281.014 259.594 281.014 259.594 280.962 265.703 277.496"/>
    <line class="uuid-a63f8888-909a-4cfc-9944-82835c29c463" x1="298.338" y1="258.613" x2="298.264" y2="258.613"/>
    <line class="uuid-a63f8888-909a-4cfc-9944-82835c29c463" x1="203.094" y1="317.656" x2="203.094" y2="203.674"/>
    <line class="uuid-a63f8888-909a-4cfc-9944-82835c29c463" x1="239.321" y1="182.763" x2="335.787" y2="127.018"/>
    <path class="uuid-04662a19-0c03-44db-a3c4-5e6c5d1c86dc" d="M335.787,127.018c.979-.513,1.807-.074,1.807,1.051"/>
    <line class="uuid-a63f8888-909a-4cfc-9944-82835c29c463" x1="337.594" y1="128.069" x2="337.594" y2="237.994"/>
    <path class="uuid-04662a19-0c03-44db-a3c4-5e6c5d1c86dc" d="M337.594,237.994c0,.415-.122.88-.317,1.321"/>
    <path class="uuid-04662a19-0c03-44db-a3c4-5e6c5d1c86dc" d="M337.229,239.316c-.295.78-.857,1.39-1.442,1.759"/>
    <line class="uuid-a63f8888-909a-4cfc-9944-82835c29c463" x1="335.787" y1="241.074" x2="314.288" y2="253.433"/>
    <line class="uuid-a63f8888-909a-4cfc-9944-82835c29c463" x1="301.856" y1="260.688" x2="301.808" y2="260.688"/>
    <line class="uuid-a63f8888-909a-4cfc-9944-82835c29c463" x1="263.601" y1="282.773" x2="263.553" y2="282.773"/>
    <line class="uuid-a63f8888-909a-4cfc-9944-82835c29c463" x1="271.368" y1="201.278" x2="271.32" y2="201.278"/>
    <polyline class="uuid-04662a19-0c03-44db-a3c4-5e6c5d1c86dc" points="325.039 232.254 334.054 237.483 337.229 239.316 337.277 239.316"/>
    <path class="uuid-04662a19-0c03-44db-a3c4-5e6c5d1c86dc" d="M105.476,147.537c2.248-3.444,3.886-5.323,7.256-7.667,46.269-26.727,92.632-53.45,138.9-80.174,2.86-1.344,4.176-1.859,7.204-.71"/>
    <line class="uuid-a63f8888-909a-4cfc-9944-82835c29c463" x1="193.616" y1="198.422" x2="105.476" y2="147.537"/>
    <path class="uuid-04662a19-0c03-44db-a3c4-5e6c5d1c86dc" d="M215.575,196.469l-12.482,7.205,3.544,2.026M350.052,274.125c-13.739-7.932-27.463-15.894-41.209-23.816"/>
    <path class="uuid-04662a19-0c03-44db-a3c4-5e6c5d1c86dc" d="M215.232,324.519l122.361,68.767M337.594,281.305c-43.652-25.207-87.293-50.39-130.957-75.605"/>
    <polygon class="uuid-04662a19-0c03-44db-a3c4-5e6c5d1c86dc" points="337.52 393.286 350.052 386.056 350.052 274.077 337.52 281.305 337.52 393.286"/>
    <line class="uuid-a63f8888-909a-4cfc-9944-82835c29c463" x1="319.226" y1="308.858" x2="324.109" y2="306.026"/>
    <path class="uuid-04662a19-0c03-44db-a3c4-5e6c5d1c86dc" d="M324.109,306.026c1.173-.439,2.738.077,4.228,1.099,4.081,2.785,4.544,5.13,4.544,9.504"/>
    <line class="uuid-a63f8888-909a-4cfc-9944-82835c29c463" x1="332.881" y1="316.63" x2="332.881" y2="359.723"/>
    <path class="uuid-04662a19-0c03-44db-a3c4-5e6c5d1c86dc" d="M332.881,359.723c-.122,1.001-.174,1.412-1.001,2.074"/>
    <line class="uuid-a63f8888-909a-4cfc-9944-82835c29c463" x1="331.88" y1="361.797" x2="327.019" y2="364.631"/>
    <path class="uuid-04662a19-0c03-44db-a3c4-5e6c5d1c86dc" d="M327.019,364.631c.585-.343.927-1.053.927-2.076"/>
    <line class="uuid-a63f8888-909a-4cfc-9944-82835c29c463" x1="327.946" y1="362.555" x2="327.946" y2="316.509"/>
    <path class="uuid-04662a19-0c03-44db-a3c4-5e6c5d1c86dc" d="M321.448,309.079c-.879-.511-1.637-.558-2.222-.221"/>
    <line class="uuid-a63f8888-909a-4cfc-9944-82835c29c463" x1="319.226" y1="308.858" x2="319.175" y2="308.858"/>
    <line class="uuid-a63f8888-909a-4cfc-9944-82835c29c463" x1="318.247" y1="356.986" x2="318.247" y2="310.912"/>
    <path class="uuid-04662a19-0c03-44db-a3c4-5e6c5d1c86dc" d="M318.247,310.912c0-2.028,1.443-2.856,3.201-1.833.17.1,3.128,1.785,3.297,1.885,1.733,1.023,3.201,3.518,3.201,5.545"/>
    <path class="uuid-04662a19-0c03-44db-a3c4-5e6c5d1c86dc" d="M327.946,362.555c0,2.028-1.468,2.856-3.201,1.855-.169-.096-3.127-1.807-3.297-1.903-1.757-1.005-3.201-3.496-3.201-5.522"/>
    <polyline class="uuid-04662a19-0c03-44db-a3c4-5e6c5d1c86dc" points="258.425 277.934 258.425 277.886 258.495 277.886"/>
    <polyline class="uuid-04662a19-0c03-44db-a3c4-5e6c5d1c86dc" points="253.734 280.914 252.218 281.503 253.66 280.671"/>
    <line class="uuid-a63f8888-909a-4cfc-9944-82835c29c463" x1="282.194" y1="320.049" x2="276.255" y2="323.422"/>
    <path class="uuid-04662a19-0c03-44db-a3c4-5e6c5d1c86dc" d="M280.846,315.214c.931-4.739-.291-10.21-2.66-15.366"/>
    <path class="uuid-04662a19-0c03-44db-a3c4-5e6c5d1c86dc" d="M265.703,277.496c1.39.389,2.712.979,4.055,1.659,3.422,1.979,6.619,4.96,9.33,8.429,8.257,10.748,11.752,26.434,3.106,32.464"/>
    <polyline class="uuid-04662a19-0c03-44db-a3c4-5e6c5d1c86dc" points="259.594 280.962 258.545 278.128 258.495 278.008 258.495 277.886 257.446 274.979"/>
    <path class="uuid-04662a19-0c03-44db-a3c4-5e6c5d1c86dc" d="M257.446,274.979c-.074-.247-.173-.415-.295-.636-.217-.391-.537-.928-.879-1.343"/>
    <line class="uuid-a63f8888-909a-4cfc-9944-82835c29c463" x1="256.273" y1="273" x2="255.761" y2="272.316"/>
    <line class="uuid-a63f8888-909a-4cfc-9944-82835c29c463" x1="252.342" y1="270.972" x2="258.204" y2="267.602"/>
    <path class="uuid-04662a19-0c03-44db-a3c4-5e6c5d1c86dc" d="M258.204,267.602c2.443-1.316,4.566,1.929,5.397,3.834"/>
    <polyline class="uuid-04662a19-0c03-44db-a3c4-5e6c5d1c86dc" points="263.601 271.436 265.703 277.496 259.594 281.014"/>
    <path class="uuid-04662a19-0c03-44db-a3c4-5e6c5d1c86dc" d="M281.019,312.502c0,.975-.047,1.854-.173,2.712-.121.537-.217,1.121-.341,1.586-.633,3.005-2.097,5.228-4.129,6.5,0,0-.074,0-.074.044,0,0-.047,0-.047.078-3.128,1.953-7.426,1.781-12.36-1.053-6.108-3.543-11.457-10.284-14.464-17.587-1.637-4.007-2.613-8.136-2.613-12.021"/>
    <path class="uuid-04662a19-0c03-44db-a3c4-5e6c5d1c86dc" d="M246.819,292.397c0-1.611.218-3.079.585-4.348.806-3.176,2.495-5.398,4.813-6.546"/>
    <polyline class="uuid-04662a19-0c03-44db-a3c4-5e6c5d1c86dc" points="252.218 281.503 253.734 280.914 253.66 280.671 251.632 275.053"/>
    <path class="uuid-04662a19-0c03-44db-a3c4-5e6c5d1c86dc" d="M251.632,275.053c-.636-1.881-.343-3.445.585-3.959q.048-.07.125-.122c.044,0,.17-.048.265-.048.126-.074.321-.121.489-.121q.048,0,.1.047"/>
    <path class="uuid-04662a19-0c03-44db-a3c4-5e6c5d1c86dc" d="M259.594,281.014c.684.247,1.395.489,2.101.758.563.291,1.147.584,1.737.927"/>
    <path class="uuid-04662a19-0c03-44db-a3c4-5e6c5d1c86dc" d="M263.601,282.773c.122,0,.173.048.295.121,3.297,1.907,6.424,4.813,9.037,8.235,1.001,1.269,1.931,2.613,2.737,4.007.415.706.828,1.343,1.173,2.024.463.88.854,1.763,1.343,2.689,1.781,4.177,2.832,8.573,2.832,12.654"/>
    <path class="uuid-04662a19-0c03-44db-a3c4-5e6c5d1c86dc" d="M259.546,281.014c-2.052-.221-3.959-.269-5.812-.1"/>
    <line class="uuid-a63f8888-909a-4cfc-9944-82835c29c463" x1="269.415" y1="264.795" x2="269.415" y2="260.614"/>
    <line class="uuid-a63f8888-909a-4cfc-9944-82835c29c463" x1="239.734" y1="281.893" x2="236.12" y2="279.818"/>
    <line class="uuid-a63f8888-909a-4cfc-9944-82835c29c463" x1="299.07" y1="316.166" x2="302.688" y2="318.242"/>
    <line class="uuid-a63f8888-909a-4cfc-9944-82835c29c463" x1="269.415" y1="333.289" x2="269.415" y2="337.466"/>
    <line class="uuid-8d573f66-b189-4896-a93e-5240afaf24e4" x1="252.202" y1="176.211" x2="285.489" y2="195.49"/>
    <path class="uuid-04662a19-0c03-44db-a3c4-5e6c5d1c86dc" d="M285.489,195.49c1.391.758,2.101,1.859,2.101,2.908"/>
    <polyline class="uuid-04662a19-0c03-44db-a3c4-5e6c5d1c86dc" points="285.489 201.278 278.478 205.359 263.774 213.836 254.783 219.064"/>
    <path class="uuid-04662a19-0c03-44db-a3c4-5e6c5d1c86dc" d="M264.823,193.927c1.149-.659,1.149-1.708.048-2.37-1.097-.636-2.954-.611-4.128.052-1.097.632-1.149,1.707,0,2.343,1.125.659,2.98.633,4.08-.025Z"/>
    <path class="uuid-04662a19-0c03-44db-a3c4-5e6c5d1c86dc" d="M226.182,192.157l37.541,21.705M254.709,219.038c-12.584-7.266-25.159-14.548-37.757-21.796"/>
    <line class="uuid-a63f8888-909a-4cfc-9944-82835c29c463" x1="287.591" y1="200.475" x2="287.591" y2="198.397"/>
    <path class="uuid-04662a19-0c03-44db-a3c4-5e6c5d1c86dc" d="M287.591,198.397c-.074.341-.125.684-.247.979-.096.243-.221.511-.389.68-.365.489-.88.832-1.465,1.221"/>
    <polyline class="uuid-04662a19-0c03-44db-a3c4-5e6c5d1c86dc" points="285.489 201.278 278.478 205.359 263.774 213.836 254.783 219.064 271.442 228.711"/>
    <line class="uuid-a63f8888-909a-4cfc-9944-82835c29c463" x1="247.405" y1="188.282" x2="254.245" y2="184.301"/>
    <line class="uuid-a63f8888-909a-4cfc-9944-82835c29c463" x1="270.636" y1="201.697" x2="277.477" y2="197.712"/>
    <line class="uuid-a63f8888-909a-4cfc-9944-82835c29c463" x1="263.723" y1="213.862" x2="285.443" y2="201.304"/>
    <path class="uuid-04662a19-0c03-44db-a3c4-5e6c5d1c86dc" d="M285.443,201.304c2.782-1.612,7.373-1.612,10.158,0"/>
    <line class="uuid-a63f8888-909a-4cfc-9944-82835c29c463" x1="295.601" y1="201.304" x2="322.887" y2="217.085"/>
    <path class="uuid-04662a19-0c03-44db-a3c4-5e6c5d1c86dc" d="M322.887,217.085c2.786,1.611,2.786,4.228,0,5.838"/>
    <polyline class="uuid-04662a19-0c03-44db-a3c4-5e6c5d1c86dc" points="322.887 222.923 292.183 240.658 254.709 219.038"/>
    <path class="uuid-04662a19-0c03-44db-a3c4-5e6c5d1c86dc" d="M302.271,215.547c1.171-.658,1.171-1.711.074-2.37-1.173-.636-2.98-.636-4.128.022-1.175.663-1.175,1.737-.074,2.37,1.169.636,2.98.636,4.128-.022Z"/>
    <polyline class="uuid-04662a19-0c03-44db-a3c4-5e6c5d1c86dc" points="254.709 219.038 263.723 213.862 301.172 235.455"/>
    <line class="uuid-a63f8888-909a-4cfc-9944-82835c29c463" x1="324.987" y1="219.991" x2="324.987" y2="239.657"/>
    <path class="uuid-04662a19-0c03-44db-a3c4-5e6c5d1c86dc" d="M324.987,239.657c-.363,1.269-1.001,1.829-2.1,2.539"/>
    <path class="uuid-04662a19-0c03-44db-a3c4-5e6c5d1c86dc" d="M322.887,242.196l-14.044,8.114-7.671-4.448M301.172,235.455l21.715-12.532"/>
    <path class="uuid-04662a19-0c03-44db-a3c4-5e6c5d1c86dc" d="M322.887,222.923c1.173-.758,1.98-1.464,2.1-2.932"/>
    <polygon class="uuid-04662a19-0c03-44db-a3c4-5e6c5d1c86dc" points="301.172 235.455 301.172 245.861 292.183 240.658 301.172 235.455"/>
    <line class="uuid-a63f8888-909a-4cfc-9944-82835c29c463" x1="284.805" y1="209.903" x2="291.694" y2="205.921"/>
    <line class="uuid-a63f8888-909a-4cfc-9944-82835c29c463" x1="308.011" y1="223.314" x2="314.925" y2="219.333"/>
  </g>
  <line class="uuid-41d801e6-bee8-4a46-ac6f-fbc6f00a8ae5" x1="309.77" y1="210.904" x2="297.632" y2="231.912"/>
  <line class="uuid-41d801e6-bee8-4a46-ac6f-fbc6f00a8ae5" x1="288.982" y1="201.719" x2="278.113" y2="220.554"/>
  <line class="uuid-41d801e6-bee8-4a46-ac6f-fbc6f00a8ae5" x1="309.064" y1="248.304" x2="309.064" y2="232.792"/>
  <line class="uuid-41d801e6-bee8-4a46-ac6f-fbc6f00a8ae5" x1="320.322" y1="241.806" x2="320.322" y2="226.268"/>
  <line class="uuid-41d801e6-bee8-4a46-ac6f-fbc6f00a8ae5" x1="348.393" y1="373.788" x2="339.378" y2="389.327"/>
  <line class="uuid-41d801e6-bee8-4a46-ac6f-fbc6f00a8ae5" x1="348.393" y1="351.22" x2="339.378" y2="366.757"/>
  <line class="uuid-41d801e6-bee8-4a46-ac6f-fbc6f00a8ae5" x1="348.393" y1="328.65" x2="339.378" y2="344.185"/>
  <line class="uuid-41d801e6-bee8-4a46-ac6f-fbc6f00a8ae5" x1="348.393" y1="306.052" x2="339.378" y2="321.611"/>
  <line class="uuid-41d801e6-bee8-4a46-ac6f-fbc6f00a8ae5" x1="348.393" y1="283.479" x2="339.378" y2="299.043"/>
  <line class="uuid-41d801e6-bee8-4a46-ac6f-fbc6f00a8ae5" x1="272.59" y1="189.455" x2="260.525" y2="210.439"/>
  <line class="uuid-c50a2f1a-a289-418f-b93a-da2852eb5016" x1="253.07" y1="178.178" x2="241.007" y2="199.033"/>
  <line class="uuid-41d801e6-bee8-4a46-ac6f-fbc6f00a8ae5" x1="336.431" y1="232.667" x2="326.942" y2="227.126"/>
  <line class="uuid-c50a2f1a-a289-418f-b93a-da2852eb5016" x1="337.601" y1="220.249" x2="256.508" y2="173.451"/>
  <line class="uuid-c50a2f1a-a289-418f-b93a-da2852eb5016" x1="337.594" y1="207.206" x2="266.527" y2="166.169"/>
  <line class="uuid-c50a2f1a-a289-418f-b93a-da2852eb5016" x1="337.594" y1="194.18" x2="279.158" y2="160.462"/>
  <line class="uuid-41d801e6-bee8-4a46-ac6f-fbc6f00a8ae5" x1="338.382" y1="181.593" x2="289.829" y2="153.579"/>
  <line class="uuid-c50a2f1a-a289-418f-b93a-da2852eb5016" x1="338.065" y1="168.399" x2="300.701" y2="146.756"/>
  <line class="uuid-c50a2f1a-a289-418f-b93a-da2852eb5016" x1="337.954" y1="155.245" x2="312.074" y2="140.369"/>
  <line class="uuid-c50a2f1a-a289-418f-b93a-da2852eb5016" x1="336.868" y1="141.576" x2="324.47" y2="134.49"/>
  <line class="uuid-41d801e6-bee8-4a46-ac6f-fbc6f00a8ae5" x1="335.887" y1="377.236" x2="324.403" y2="383.904"/>
  <line class="uuid-41d801e6-bee8-4a46-ac6f-fbc6f00a8ae5" x1="336.298" y1="363.973" x2="312.555" y2="377.701"/>
  <line class="uuid-41d801e6-bee8-4a46-ac6f-fbc6f00a8ae5" x1="335.544" y1="351.389" x2="334.981" y2="351.731"/>
  <line class="uuid-41d801e6-bee8-4a46-ac6f-fbc6f00a8ae5" x1="318.347" y1="361.334" x2="301.344" y2="371.155"/>
  <line class="uuid-41d801e6-bee8-4a46-ac6f-fbc6f00a8ae5" x1="335.544" y1="338.345" x2="334.981" y2="338.688"/>
  <line class="uuid-41d801e6-bee8-4a46-ac6f-fbc6f00a8ae5" x1="317.148" y1="348.972" x2="289.566" y2="364.926"/>
  <line class="uuid-41d801e6-bee8-4a46-ac6f-fbc6f00a8ae5" x1="335.544" y1="325.302" x2="334.981" y2="325.644"/>
  <line class="uuid-41d801e6-bee8-4a46-ac6f-fbc6f00a8ae5" x1="317.537" y1="335.682" x2="277.697" y2="358.719"/>
  <line class="uuid-41d801e6-bee8-4a46-ac6f-fbc6f00a8ae5" x1="335.544" y1="312.255" x2="334.687" y2="312.771"/>
  <line class="uuid-41d801e6-bee8-4a46-ac6f-fbc6f00a8ae5" x1="317.954" y1="322.417" x2="265.875" y2="352.514"/>
  <line class="uuid-41d801e6-bee8-4a46-ac6f-fbc6f00a8ae5" x1="335.835" y1="299.09" x2="326.724" y2="304.318"/>
  <line class="uuid-41d801e6-bee8-4a46-ac6f-fbc6f00a8ae5" x1="318.347" y1="309.153" x2="254.002" y2="346.333"/>
  <line class="uuid-41d801e6-bee8-4a46-ac6f-fbc6f00a8ae5" x1="337.178" y1="285.263" x2="287.248" y2="314.087"/>
  <line class="uuid-41d801e6-bee8-4a46-ac6f-fbc6f00a8ae5" x1="267.534" y1="325.472" x2="243.913" y2="339.129"/>
  <line class="uuid-41d801e6-bee8-4a46-ac6f-fbc6f00a8ae5" x1="328.874" y1="277.033" x2="286.664" y2="301.386"/>
  <line class="uuid-41d801e6-bee8-4a46-ac6f-fbc6f00a8ae5" x1="257.103" y1="318.462" x2="232.408" y2="332.701"/>
  <line class="uuid-41d801e6-bee8-4a46-ac6f-fbc6f00a8ae5" x1="317.316" y1="270.63" x2="282.288" y2="290.881"/>
  <line class="uuid-41d801e6-bee8-4a46-ac6f-fbc6f00a8ae5" x1="250.533" y1="309.201" x2="220.803" y2="326.376"/>
  <line class="uuid-41d801e6-bee8-4a46-ac6f-fbc6f00a8ae5" x1="305.885" y1="264.206" x2="275.207" y2="281.941"/>
  <line class="uuid-41d801e6-bee8-4a46-ac6f-fbc6f00a8ae5" x1="246.771" y1="298.358" x2="209.128" y2="320.099"/>
  <line class="uuid-41d801e6-bee8-4a46-ac6f-fbc6f00a8ae5" x1="294.552" y1="257.734" x2="265.703" y2="274.394"/>
  <line class="uuid-41d801e6-bee8-4a46-ac6f-fbc6f00a8ae5" x1="247.405" y1="284.947" x2="203.731" y2="310.158"/>
  <line class="uuid-41d801e6-bee8-4a46-ac6f-fbc6f00a8ae5" x1="284.055" y1="250.735" x2="203.605" y2="297.21"/>
  <line class="uuid-41d801e6-bee8-4a46-ac6f-fbc6f00a8ae5" x1="273.348" y1="243.907" x2="202.847" y2="284.604"/>
  <line class="uuid-41d801e6-bee8-4a46-ac6f-fbc6f00a8ae5" x1="261.696" y1="237.629" x2="203.264" y2="271.34"/>
  <line class="uuid-41d801e6-bee8-4a46-ac6f-fbc6f00a8ae5" x1="249.947" y1="231.328" x2="203.679" y2="258.051"/>
  <line class="uuid-41d801e6-bee8-4a46-ac6f-fbc6f00a8ae5" x1="238.269" y1="225.047" x2="204.07" y2="244.813"/>
  <line class="uuid-41d801e6-bee8-4a46-ac6f-fbc6f00a8ae5" x1="226.616" y1="218.747" x2="204.411" y2="231.548"/>
  <line class="uuid-41d801e6-bee8-4a46-ac6f-fbc6f00a8ae5" x1="214.89" y1="212.466" x2="204.828" y2="218.258"/>
  <line class="uuid-41d801e6-bee8-4a46-ac6f-fbc6f00a8ae5" x1="220.218" y1="211.371" x2="213.426" y2="199.593"/>
  <line class="uuid-41d801e6-bee8-4a46-ac6f-fbc6f00a8ae5" x1="239.832" y1="222.75" x2="230.966" y2="207.364"/>
  <line class="uuid-41d801e6-bee8-4a46-ac6f-fbc6f00a8ae5" x1="259.425" y1="234.087" x2="250.533" y2="218.673"/>
  <line class="uuid-41d801e6-bee8-4a46-ac6f-fbc6f00a8ae5" x1="278.992" y1="245.397" x2="270.051" y2="229.958"/>
  <line class="uuid-41d801e6-bee8-4a46-ac6f-fbc6f00a8ae5" x1="298.559" y1="256.707" x2="289.618" y2="241.243"/>
  <line class="uuid-41d801e6-bee8-4a46-ac6f-fbc6f00a8ae5" x1="318.126" y1="267.992" x2="309.186" y2="252.506"/>
  <line class="uuid-41d801e6-bee8-4a46-ac6f-fbc6f00a8ae5" x1="337.642" y1="279.303" x2="328.704" y2="263.817"/>
  <line class="uuid-c50a2f1a-a289-418f-b93a-da2852eb5016" x1="340.077" y1="105.699" x2="337.078" y2="110.986"/>
  <line class="uuid-41d801e6-bee8-4a46-ac6f-fbc6f00a8ae5" x1="320.102" y1="95.139" x2="298.264" y2="133.003"/>
  <line class="uuid-41d801e6-bee8-4a46-ac6f-fbc6f00a8ae5" x1="301.296" y1="82.633" x2="258.425" y2="156.772"/>
  <line class="uuid-41d801e6-bee8-4a46-ac6f-fbc6f00a8ae5" x1="281.424" y1="71.833" x2="218.654" y2="180.515"/>
  <line class="uuid-c50a2f1a-a289-418f-b93a-da2852eb5016" x1="261.792" y1="60.73" x2="185.407" y2="192.963"/>
  <line class="uuid-c50a2f1a-a289-418f-b93a-da2852eb5016" x1="228.643" y1="72.934" x2="165.127" y2="182.899"/>
  <line class="uuid-41d801e6-bee8-4a46-ac6f-fbc6f00a8ae5" x1="188.852" y1="96.703" x2="145.59" y2="171.552"/>
  <line class="uuid-41d801e6-bee8-4a46-ac6f-fbc6f00a8ae5" x1="149.011" y1="120.45" x2="126.732" y2="159.094"/>
  <line class="uuid-41d801e6-bee8-4a46-ac6f-fbc6f00a8ae5" x1="188.413" y1="317.752" x2="178.52" y2="323.47"/>
  <line class="uuid-41d801e6-bee8-4a46-ac6f-fbc6f00a8ae5" x1="188.852" y1="304.462" x2="166.842" y2="317.167"/>
  <line class="uuid-41d801e6-bee8-4a46-ac6f-fbc6f00a8ae5" x1="189.315" y1="291.15" x2="155.118" y2="310.89"/>
  <line class="uuid-41d801e6-bee8-4a46-ac6f-fbc6f00a8ae5" x1="189.805" y1="277.864" x2="143.44" y2="304.609"/>
  <line class="uuid-41d801e6-bee8-4a46-ac6f-fbc6f00a8ae5" x1="190.242" y1="264.549" x2="131.788" y2="298.31"/>
  <line class="uuid-41d801e6-bee8-4a46-ac6f-fbc6f00a8ae5" x1="190.709" y1="251.232" x2="120.04" y2="292.03"/>
  <line class="uuid-41d801e6-bee8-4a46-ac6f-fbc6f00a8ae5" x1="191.199" y1="237.92" x2="108.362" y2="285.727"/>
  <line class="uuid-41d801e6-bee8-4a46-ac6f-fbc6f00a8ae5" x1="191.541" y1="224.708" x2="101.058" y2="276.933"/>
  <line class="uuid-41d801e6-bee8-4a46-ac6f-fbc6f00a8ae5" x1="191.588" y1="211.636" x2="101.106" y2="263.863"/>
  <line class="uuid-41d801e6-bee8-4a46-ac6f-fbc6f00a8ae5" x1="193.738" y1="197.323" x2="101.106" y2="250.821"/>
  <line class="uuid-41d801e6-bee8-4a46-ac6f-fbc6f00a8ae5" x1="182.059" y1="191.046" x2="101.569" y2="237.509"/>
  <line class="uuid-41d801e6-bee8-4a46-ac6f-fbc6f00a8ae5" x1="170.384" y1="184.768" x2="102.033" y2="224.219"/>
  <line class="uuid-41d801e6-bee8-4a46-ac6f-fbc6f00a8ae5" x1="158.732" y1="178.465" x2="102.522" y2="210.904"/>
  <line class="uuid-41d801e6-bee8-4a46-ac6f-fbc6f00a8ae5" x1="146.984" y1="172.186" x2="102.963" y2="197.591"/>
  <line class="uuid-41d801e6-bee8-4a46-ac6f-fbc6f00a8ae5" x1="135.306" y1="165.908" x2="103.428" y2="184.301"/>
  <line class="uuid-41d801e6-bee8-4a46-ac6f-fbc6f00a8ae5" x1="123.653" y1="159.605" x2="103.913" y2="171.015"/>
  <line class="uuid-41d801e6-bee8-4a46-ac6f-fbc6f00a8ae5" x1="111.978" y1="153.328" x2="104.429" y2="157.674"/>
  <line class="uuid-41d801e6-bee8-4a46-ac6f-fbc6f00a8ae5" x1="201.409" y1="312.745" x2="191.931" y2="307.298"/>
  <line class="uuid-41d801e6-bee8-4a46-ac6f-fbc6f00a8ae5" x1="201.409" y1="286.706" x2="192.053" y2="281.305"/>
  <line class="uuid-41d801e6-bee8-4a46-ac6f-fbc6f00a8ae5" x1="201.357" y1="260.614" x2="192.222" y2="255.317"/>
  <line class="uuid-41d801e6-bee8-4a46-ac6f-fbc6f00a8ae5" x1="201.357" y1="234.525" x2="192.344" y2="229.322"/>
  <line class="uuid-41d801e6-bee8-4a46-ac6f-fbc6f00a8ae5" x1="201.357" y1="208.437" x2="193.322" y2="203.843"/>
  <line class="uuid-c50a2f1a-a289-418f-b93a-da2852eb5016" x1="329.68" y1="256.461" x2="319.771" y2="250.761"/>
  <line class="uuid-41d801e6-bee8-4a46-ac6f-fbc6f00a8ae5" x1="220.645" y1="193.54" x2="210.056" y2="187.403"/>
  <line class="uuid-c50a2f1a-a289-418f-b93a-da2852eb5016" x1="347.266" y1="240.585" x2="337.594" y2="234.966"/>
  <line class="uuid-c50a2f1a-a289-418f-b93a-da2852eb5016" x1="243.093" y1="180.412" x2="232.602" y2="174.36"/>
  <line class="uuid-41d801e6-bee8-4a46-ac6f-fbc6f00a8ae5" x1="348.44" y1="215.156" x2="337.594" y2="208.909"/>
  <line class="uuid-c50a2f1a-a289-418f-b93a-da2852eb5016" x1="265.743" y1="167.439" x2="255.172" y2="161.316"/>
  <line class="uuid-41d801e6-bee8-4a46-ac6f-fbc6f00a8ae5" x1="348.44" y1="189.088" x2="337.594" y2="182.845"/>
  <line class="uuid-41d801e6-bee8-4a46-ac6f-fbc6f00a8ae5" x1="289.022" y1="154.811" x2="277.77" y2="148.269"/>
  <line class="uuid-c50a2f1a-a289-418f-b93a-da2852eb5016" x1="348.44" y1="163.001" x2="337.736" y2="156.838"/>
  <line class="uuid-c50a2f1a-a289-418f-b93a-da2852eb5016" x1="311.948" y1="141.959" x2="300.366" y2="135.251"/>
  <line class="uuid-41d801e6-bee8-4a46-ac6f-fbc6f00a8ae5" x1="348.83" y1="137.206" x2="322.475" y2="121.962"/>
</svg>