<?xml version="1.0" encoding="UTF-8"?>
<svg id="uuid-033e14a0-c069-4f48-8e3f-cb14524ef55b" data-name="&amp;lt;Layer&amp;gt;" xmlns="http://www.w3.org/2000/svg" viewBox="0 0 451.11 451.11">
  <defs>
    <style>
      .uuid-031bbaf6-44ae-4bca-b524-4635c9396409, .uuid-ef985f79-f1cc-43e4-8bdc-4c1848294232, .uuid-546b99fc-913c-4d31-bc6f-70edd90fef95 {
        fill: none;
        stroke: #000;
        stroke-linecap: round;
      }

      .uuid-031bbaf6-44ae-4bca-b524-4635c9396409, .uuid-546b99fc-913c-4d31-bc6f-70edd90fef95 {
        stroke-linejoin: round;
        stroke-width: 4.113px;
      }

      .uuid-ef985f79-f1cc-43e4-8bdc-4c1848294232 {
        stroke-miterlimit: 10;
        stroke-width: 1.159px;
      }

      .uuid-546b99fc-913c-4d31-bc6f-70edd90fef95 {
        fill-rule: evenodd;
      }
    </style>
  </defs>
  <path class="uuid-546b99fc-913c-4d31-bc6f-70edd90fef95" d="M105.872,355.004c-12.31-11.896-3.079-37.96,5.982-50.982,7.845-11.311,26.065-27.555,39.381-18.346"/>
  <path class="uuid-546b99fc-913c-4d31-bc6f-70edd90fef95" d="M202.68,315.552c-15.218-11.482-35.543,8.916-43.505,22.669-7.182,12.484-14.291,35.69-1.907,46.732"/>
  <path class="uuid-546b99fc-913c-4d31-bc6f-70edd90fef95" d="M272.128,201.816c1.001.56,1.979,1.27,2.958,2.028,1.096.758,2.148,1.56,3.201,2.491,1.169.927,2.27,1.855,3.367,2.906,1.099,1.001,2.2,2.054,3.201,3.128,1.099,1.049,2.078,2.148,3.006,3.322,1.001,1.049,1.857,2.101,2.615,3.15.802,1.027,1.634,2.078,2.443,3.179.802,1.097,1.56,2.146,2.27,3.319.096.099.217.221.217.341,8.014,12.359,13.364,26.823,16.491,41.114.88,3.837,1.59,7.793,2.101,11.895"/>
  <polyline class="uuid-546b99fc-913c-4d31-bc6f-70edd90fef95" points="318.175 300.188 318.175 300.236 283.295 279.984"/>
  <polyline class="uuid-546b99fc-913c-4d31-bc6f-70edd90fef95" points="153.31 277.762 153.31 277.714 150.993 274.341"/>
  <polyline class="uuid-546b99fc-913c-4d31-bc6f-70edd90fef95" points="240.007 228.002 239.614 227.781 239.543 227.707 205.807 208.266 201.848 205.356"/>
  <path class="uuid-546b99fc-913c-4d31-bc6f-70edd90fef95" d="M138.46,196.588c-4.887,1.173-9.651,2.663-14.343,4.396-11.211,4.202-20.052,7.378-23.422,19.593-1.221,4.591-.758,16.951-.636,21.3,0,1.979.341,4.08,1.637,5.644,1.512,1.976,45.459,26.697,51.614,30.24,1.737,1.222,4.181,1.342,7.035.074,11.605-5.472,22.694-8.305,32.858-8.846"/>
  <path class="uuid-546b99fc-913c-4d31-bc6f-70edd90fef95" d="M193.202,268.99c3.664,6.987,6.033,14.632,7.547,23.184.879,4.765.831,11.605,2.858,14.217,1.564,1.979,45.29,26.602,51.618,30.267.052,0,.122,0,.122.048"/>
  <path class="uuid-546b99fc-913c-4d31-bc6f-70edd90fef95" d="M253.709,334.973c-.095-.17-.217-.417-.265-.633-.125-.247-.199-.541-.297-.758-.243-.883-.413-2.028-.656-3.325,0-.096-.052-.218-.052-.265"/>
  <path class="uuid-546b99fc-913c-4d31-bc6f-70edd90fef95" d="M249.828,314.573c-.173-.732-.343-1.438-.589-2.122-1.781-6.476-4.934-13.828-9.037-20.277-.319-.463-.658-.927-.931-1.394-.879-1.292-1.755-2.44-2.734-3.54-2.274-2.906-4.838-5.519-7.623-7.498-.048-.052-.122-.052-.17-.122"/>
  <path class="uuid-546b99fc-913c-4d31-bc6f-70edd90fef95" d="M153.483,205.161c-5.914-3.419-50.223-28.436-51.74-30.267-1.343-1.586-1.685-3.738-1.737-5.714-.07-4.228-.533-16.734.688-21.23,3.098-11.479,10.869-14.582,20.151-18.835,37.865-17.341,83.518-25.085,121.31-3.271"/>
  <polyline class="uuid-546b99fc-913c-4d31-bc6f-70edd90fef95" points="242.156 125.844 248.311 129.753 298.902 158.945"/>
  <path class="uuid-546b99fc-913c-4d31-bc6f-70edd90fef95" d="M298.902,158.945c-15.976-10.041-29.972-15.392-49.075-16.93-29.561-2.369-62.024,7.282-87.919,20.885-6.325,3.325-11.259,11.726-11.381,18.934,0,3.297-.419,16.928.465,19.81"/>
  <path class="uuid-546b99fc-913c-4d31-bc6f-70edd90fef95" d="M315.512,294.301c-5.056-93.217-71.67-131.67-154.894-89.409-5.622,2.884-10.089.026-10.089-6.545"/>
  <path class="uuid-546b99fc-913c-4d31-bc6f-70edd90fef95" d="M150.528,181.834c0-3.518,1.145-7.23,3.371-10.946,2.27-3.712,4.934-6.399,8.01-7.988,101.963-52.325,183.627-5.154,189.318,109.318.173,3.443-.806,7.109-2.907,10.894-2.148,3.812-4.764,6.62-7.84,8.404"/>
  <path class="uuid-546b99fc-913c-4d31-bc6f-70edd90fef95" d="M252.491,331.065c-4.57-53.693-43.361-76.119-92.216-53.254-5.497,2.567-9.747-.317-9.747-6.74"/>
  <path class="uuid-546b99fc-913c-4d31-bc6f-70edd90fef95" d="M150.528,254.531c0-3.592,1.219-7.356,3.493-11.141,2.321-3.76,5.032-6.447,8.183-7.937,67.004-32.246,120.43-1.39,126.073,72.771.221,3.444-.71,7.182-2.859,11.064-2.074,3.863-4.739,6.769-7.888,8.576"/>
  <path class="uuid-546b99fc-913c-4d31-bc6f-70edd90fef95" d="M179.964,316.286c16.266-9.379,29.387-1.785,29.387,16.977s-13.12,41.554-29.387,50.934c-16.248,9.378-29.436,1.783-29.436-16.977s13.188-41.552,29.436-50.934Z"/>
  <line class="uuid-031bbaf6-44ae-4bca-b524-4635c9396409" x1="157.268" y1="384.954" x2="105.872" y2="355.004"/>
  <line class="uuid-031bbaf6-44ae-4bca-b524-4635c9396409" x1="151.235" y1="285.676" x2="202.68" y2="315.552"/>
  <path class="uuid-546b99fc-913c-4d31-bc6f-70edd90fef95" d="M239.371,188.989c12.384,15.196,19.519,34.42,23.061,53.889"/>
  <path class="uuid-546b99fc-913c-4d31-bc6f-70edd90fef95" d="M201.848,205.356c-6.498-4.47-13.533-7.499-20.715-9.357"/>
  <line class="uuid-031bbaf6-44ae-4bca-b524-4635c9396409" x1="340.48" y1="291.516" x2="326.189" y2="299.746"/>
  <path class="uuid-546b99fc-913c-4d31-bc6f-70edd90fef95" d="M326.189,299.746c-5.692,3.301-10.332.905-10.677-5.445"/>
  <line class="uuid-031bbaf6-44ae-4bca-b524-4635c9396409" x1="150.528" y1="271.07" x2="150.528" y2="254.531"/>
  <line class="uuid-031bbaf6-44ae-4bca-b524-4635c9396409" x1="277.529" y1="327.864" x2="263.238" y2="336.12"/>
  <path class="uuid-546b99fc-913c-4d31-bc6f-70edd90fef95" d="M263.238,336.12c-5.571,3.201-10.162,1.027-10.747-5.055"/>
  <line class="uuid-ef985f79-f1cc-43e4-8bdc-4c1848294232" x1="117.888" y1="182.981" x2="101.523" y2="154.547"/>
  <line class="uuid-ef985f79-f1cc-43e4-8bdc-4c1848294232" x1="149.597" y1="192.703" x2="114.471" y2="131.879"/>
  <line class="uuid-ef985f79-f1cc-43e4-8bdc-4c1848294232" x1="159.175" y1="164.073" x2="135.774" y2="123.596"/>
  <line class="uuid-ef985f79-f1cc-43e4-8bdc-4c1848294232" x1="179.449" y1="154.106" x2="158.074" y2="117.072"/>
  <line class="uuid-ef985f79-f1cc-43e4-8bdc-4c1848294232" x1="201.116" y1="146.486" x2="182.234" y2="113.729"/>
  <line class="uuid-ef985f79-f1cc-43e4-8bdc-4c1848294232" x1="224.348" y1="141.551" x2="209.229" y2="115.388"/>
  <line class="uuid-ef985f79-f1cc-43e4-8bdc-4c1848294232" x1="249.706" y1="140.33" x2="242.866" y2="128.409"/>
  <line class="uuid-ef985f79-f1cc-43e4-8bdc-4c1848294232" x1="315.343" y1="296.277" x2="255.641" y2="192.824"/>
  <line class="uuid-ef985f79-f1cc-43e4-8bdc-4c1848294232" x1="244.768" y1="329.597" x2="211.206" y2="271.411"/>
  <line class="uuid-ef985f79-f1cc-43e4-8bdc-4c1848294232" x1="118.014" y1="255.8" x2="101.523" y2="227.148"/>
  <line class="uuid-ef985f79-f1cc-43e4-8bdc-4c1848294232" x1="149.597" y1="265.304" x2="114.591" y2="204.624"/>
  <line class="uuid-ef985f79-f1cc-43e4-8bdc-4c1848294232" x1="159.123" y1="236.649" x2="136.65" y2="197.709"/>
  <line class="uuid-ef985f79-f1cc-43e4-8bdc-4c1848294232" x1="179.743" y1="227.148" x2="166.088" y2="203.549"/>
  <line class="uuid-ef985f79-f1cc-43e4-8bdc-4c1848294232" x1="202.728" y1="221.895" x2="190.659" y2="200.936"/>
  <line class="uuid-ef985f79-f1cc-43e4-8bdc-4c1848294232" x1="112.076" y1="356.614" x2="101.818" y2="338.858"/>
  <line class="uuid-ef985f79-f1cc-43e4-8bdc-4c1848294232" x1="151.404" y1="379.629" x2="109.537" y2="307.101"/>
  <line class="uuid-ef985f79-f1cc-43e4-8bdc-4c1848294232" x1="156.342" y1="343.009" x2="125.682" y2="289.904"/>
  <line class="uuid-ef985f79-f1cc-43e4-8bdc-4c1848294232" x1="170.681" y1="322.661" x2="149.719" y2="286.36"/>
  <line class="uuid-ef985f79-f1cc-43e4-8bdc-4c1848294232" x1="189.611" y1="310.372" x2="189.611" y2="310.277"/>
</svg>