<?xml version="1.0" encoding="UTF-8"?>
<svg id="uuid-daea23ce-ff6f-417c-80d6-b31875b729db" data-name="&amp;lt;Layer&amp;gt;" xmlns="http://www.w3.org/2000/svg" viewBox="0 0 451.11 451.11">
  <defs>
    <style>
      .uuid-fa6db772-d642-4da1-95d1-ceb905175787, .uuid-b4cc4eba-34df-49ae-821c-c1db40d6898c, .uuid-b4ebaba0-90be-44ea-bb4a-32000ecb32ca {
        fill: none;
        stroke: #000;
        stroke-linecap: round;
      }

      .uuid-fa6db772-d642-4da1-95d1-ceb905175787, .uuid-b4ebaba0-90be-44ea-bb4a-32000ecb32ca {
        stroke-linejoin: round;
        stroke-width: 4.117px;
      }

      .uuid-b4cc4eba-34df-49ae-821c-c1db40d6898c {
        stroke-miterlimit: 10;
        stroke-width: 1.163px;
      }

      .uuid-b4ebaba0-90be-44ea-bb4a-32000ecb32ca {
        fill-rule: evenodd;
      }
    </style>
  </defs>
  <path class="uuid-b4ebaba0-90be-44ea-bb4a-32000ecb32ca" d="M308.108,228.29l30.415,17.614M112.634,300.598l31.757-18.346"/>
  <polyline class="uuid-b4ebaba0-90be-44ea-bb4a-32000ecb32ca" points="178.15 359.397 112.586 321.507 112.586 300.624 178.15 338.484"/>
  <polygon class="uuid-b4ebaba0-90be-44ea-bb4a-32000ecb32ca" points="178.15 338.484 338.523 245.926 338.523 266.814 178.15 359.397 178.15 338.484"/>
  <line class="uuid-fa6db772-d642-4da1-95d1-ceb905175787" x1="186.969" y1="116.287" x2="186.969" y2="204.084"/>
  <polyline class="uuid-b4ebaba0-90be-44ea-bb4a-32000ecb32ca" points="222.975 137.076 186.969 116.313 229.547 91.712 265.531 112.501"/>
  <polyline class="uuid-b4ebaba0-90be-44ea-bb4a-32000ecb32ca" points="222.975 224.847 186.969 204.058 144.391 228.633"/>
  <polyline class="uuid-b4ebaba0-90be-44ea-bb4a-32000ecb32ca" points="180.398 249.422 144.391 228.633 144.391 300.135 180.398 320.948"/>
  <line class="uuid-fa6db772-d642-4da1-95d1-ceb905175787" x1="265.531" y1="271.795" x2="265.531" y2="167.953"/>
  <polyline class="uuid-b4ebaba0-90be-44ea-bb4a-32000ecb32ca" points="265.531 126.401 272.103 122.615 308.108 143.404"/>
  <polyline class="uuid-b4ebaba0-90be-44ea-bb4a-32000ecb32ca" points="265.531 167.979 308.108 143.404 308.108 247.198 265.531 271.773"/>
  <polyline class="uuid-b4ebaba0-90be-44ea-bb4a-32000ecb32ca" points="222.975 224.847 180.398 249.422 180.398 320.948 222.975 296.348"/>
  <polygon class="uuid-b4ebaba0-90be-44ea-bb4a-32000ecb32ca" points="222.975 296.348 222.975 137.076 265.531 112.501 265.531 271.773 222.975 296.348"/>
  <line class="uuid-b4cc4eba-34df-49ae-821c-c1db40d6898c" x1="123.897" y1="304.826" x2="120.133" y2="298.376"/>
  <line class="uuid-b4cc4eba-34df-49ae-821c-c1db40d6898c" x1="143.758" y1="316.72" x2="129.589" y2="292.121"/>
  <line class="uuid-b4cc4eba-34df-49ae-821c-c1db40d6898c" x1="163.273" y1="327.931" x2="150.253" y2="305.363"/>
  <line class="uuid-b4cc4eba-34df-49ae-821c-c1db40d6898c" x1="142.486" y1="291.878" x2="139.7" y2="287.139"/>
  <line class="uuid-b4cc4eba-34df-49ae-821c-c1db40d6898c" x1="180.693" y1="335.482" x2="169.893" y2="316.794"/>
  <line class="uuid-b4cc4eba-34df-49ae-821c-c1db40d6898c" x1="190.292" y1="329.521" x2="184.942" y2="320.286"/>
  <line class="uuid-b4cc4eba-34df-49ae-821c-c1db40d6898c" x1="200.038" y1="323.876" x2="194.736" y2="314.667"/>
  <line class="uuid-b4cc4eba-34df-49ae-821c-c1db40d6898c" x1="209.833" y1="318.237" x2="204.508" y2="309.023"/>
  <line class="uuid-b4cc4eba-34df-49ae-821c-c1db40d6898c" x1="219.605" y1="312.593" x2="214.255" y2="303.358"/>
  <line class="uuid-b4cc4eba-34df-49ae-821c-c1db40d6898c" x1="229.425" y1="306.948" x2="224.076" y2="297.739"/>
  <line class="uuid-b4cc4eba-34df-49ae-821c-c1db40d6898c" x1="239.171" y1="301.308" x2="233.822" y2="292.073"/>
  <line class="uuid-b4cc4eba-34df-49ae-821c-c1db40d6898c" x1="248.918" y1="295.663" x2="243.643" y2="286.428"/>
  <line class="uuid-b4cc4eba-34df-49ae-821c-c1db40d6898c" x1="258.739" y1="290.019" x2="253.414" y2="280.784"/>
  <line class="uuid-b4cc4eba-34df-49ae-821c-c1db40d6898c" x1="268.511" y1="284.379" x2="263.161" y2="275.144"/>
  <line class="uuid-b4cc4eba-34df-49ae-821c-c1db40d6898c" x1="278.258" y1="278.734" x2="272.908" y2="269.477"/>
  <line class="uuid-b4cc4eba-34df-49ae-821c-c1db40d6898c" x1="288.079" y1="273.091" x2="282.728" y2="263.833"/>
  <line class="uuid-b4cc4eba-34df-49ae-821c-c1db40d6898c" x1="297.825" y1="267.45" x2="292.475" y2="258.214"/>
  <line class="uuid-b4cc4eba-34df-49ae-821c-c1db40d6898c" x1="307.597" y1="261.78" x2="302.296" y2="252.549"/>
  <line class="uuid-b4cc4eba-34df-49ae-821c-c1db40d6898c" x1="317.439" y1="256.261" x2="309.963" y2="243.313"/>
  <line class="uuid-b4cc4eba-34df-49ae-821c-c1db40d6898c" x1="327.26" y1="250.665" x2="319.25" y2="236.79"/>
  <line class="uuid-b4cc4eba-34df-49ae-821c-c1db40d6898c" x1="181.866" y1="354.975" x2="180.228" y2="354.048"/>
  <line class="uuid-b4cc4eba-34df-49ae-821c-c1db40d6898c" x1="193.514" y1="348.698" x2="179.812" y2="340.784"/>
  <line class="uuid-b4cc4eba-34df-49ae-821c-c1db40d6898c" x1="204.851" y1="342.196" x2="189.928" y2="333.55"/>
  <line class="uuid-b4cc4eba-34df-49ae-821c-c1db40d6898c" x1="216.187" y1="335.676" x2="201.187" y2="327.053"/>
  <line class="uuid-b4cc4eba-34df-49ae-821c-c1db40d6898c" x1="227.449" y1="329.153" x2="212.522" y2="320.533"/>
  <line class="uuid-b4cc4eba-34df-49ae-821c-c1db40d6898c" x1="238.76" y1="322.633" x2="223.785" y2="314.009"/>
  <line class="uuid-b4cc4eba-34df-49ae-821c-c1db40d6898c" x1="250.045" y1="316.11" x2="235.044" y2="307.485"/>
  <line class="uuid-b4cc4eba-34df-49ae-821c-c1db40d6898c" x1="261.307" y1="309.613" x2="246.379" y2="300.965"/>
  <line class="uuid-b4cc4eba-34df-49ae-821c-c1db40d6898c" x1="272.614" y1="303.089" x2="257.642" y2="294.442"/>
  <line class="uuid-b4cc4eba-34df-49ae-821c-c1db40d6898c" x1="283.898" y1="296.569" x2="268.901" y2="287.919"/>
  <line class="uuid-b4cc4eba-34df-49ae-821c-c1db40d6898c" x1="295.164" y1="290.045" x2="280.237" y2="281.421"/>
  <line class="uuid-b4cc4eba-34df-49ae-821c-c1db40d6898c" x1="306.471" y1="283.547" x2="291.5" y2="274.901"/>
  <line class="uuid-b4cc4eba-34df-49ae-821c-c1db40d6898c" x1="317.756" y1="276.998" x2="302.832" y2="268.378"/>
  <line class="uuid-b4cc4eba-34df-49ae-821c-c1db40d6898c" x1="329.066" y1="270.504" x2="314.095" y2="261.854"/>
  <line class="uuid-b4cc4eba-34df-49ae-821c-c1db40d6898c" x1="336.859" y1="261.979" x2="325.479" y2="255.408"/>
  <line class="uuid-b4cc4eba-34df-49ae-821c-c1db40d6898c" x1="176.465" y1="345.766" x2="167.28" y2="351.042"/>
  <line class="uuid-b4cc4eba-34df-49ae-821c-c1db40d6898c" x1="170.776" y1="335.993" x2="155.849" y2="344.639"/>
  <line class="uuid-b4cc4eba-34df-49ae-821c-c1db40d6898c" x1="159.488" y1="329.495" x2="144.512" y2="338.119"/>
  <line class="uuid-b4cc4eba-34df-49ae-821c-c1db40d6898c" x1="148.25" y1="322.976" x2="133.253" y2="331.597"/>
  <line class="uuid-b4cc4eba-34df-49ae-821c-c1db40d6898c" x1="136.919" y1="316.452" x2="121.992" y2="325.077"/>
  <line class="uuid-b4cc4eba-34df-49ae-821c-c1db40d6898c" x1="125.531" y1="310.002" x2="114.32" y2="316.452"/>
  <line class="uuid-b4cc4eba-34df-49ae-821c-c1db40d6898c" x1="252.072" y1="106.272" x2="241.615" y2="124.374"/>
  <line class="uuid-b4cc4eba-34df-49ae-821c-c1db40d6898c" x1="232.847" y1="94.424" x2="212.275" y2="130.041"/>
  <line class="uuid-b4cc4eba-34df-49ae-821c-c1db40d6898c" x1="195.74" y1="113.55" x2="193.297" y2="117.703"/>
  <line class="uuid-b4cc4eba-34df-49ae-821c-c1db40d6898c" x1="276.403" y1="160.013" x2="267.338" y2="144.33"/>
  <line class="uuid-b4cc4eba-34df-49ae-821c-c1db40d6898c" x1="286.441" y1="154.835" x2="269.366" y2="125.28"/>
  <line class="uuid-b4cc4eba-34df-49ae-821c-c1db40d6898c" x1="295.967" y1="148.728" x2="286.952" y2="133.194"/>
  <line class="uuid-b4cc4eba-34df-49ae-821c-c1db40d6898c" x1="277.625" y1="262.833" x2="267.29" y2="256.894"/>
  <line class="uuid-b4cc4eba-34df-49ae-821c-c1db40d6898c" x1="289.3" y1="256.552" x2="266.921" y2="243.656"/>
  <line class="uuid-b4cc4eba-34df-49ae-821c-c1db40d6898c" x1="300.952" y1="250.275" x2="266.532" y2="230.392"/>
  <line class="uuid-b4cc4eba-34df-49ae-821c-c1db40d6898c" x1="307.476" y1="240.991" x2="266.289" y2="217.224"/>
  <line class="uuid-b4cc4eba-34df-49ae-821c-c1db40d6898c" x1="307.476" y1="227.949" x2="266.289" y2="204.18"/>
  <line class="uuid-b4cc4eba-34df-49ae-821c-c1db40d6898c" x1="307.476" y1="214.905" x2="266.289" y2="191.158"/>
  <line class="uuid-b4cc4eba-34df-49ae-821c-c1db40d6898c" x1="307.476" y1="201.884" x2="266.289" y2="178.115"/>
  <line class="uuid-b4cc4eba-34df-49ae-821c-c1db40d6898c" x1="307.35" y1="188.766" x2="269.243" y2="166.779"/>
  <line class="uuid-b4cc4eba-34df-49ae-821c-c1db40d6898c" x1="306.935" y1="175.503" x2="280.921" y2="160.48"/>
  <line class="uuid-b4cc4eba-34df-49ae-821c-c1db40d6898c" x1="306.545" y1="162.235" x2="292.596" y2="154.199"/>
  <line class="uuid-b4cc4eba-34df-49ae-821c-c1db40d6898c" x1="306.129" y1="148.997" x2="304.275" y2="147.922"/>
  <line class="uuid-b4cc4eba-34df-49ae-821c-c1db40d6898c" x1="243.69" y1="282.763" x2="224.417" y2="271.649"/>
  <line class="uuid-b4cc4eba-34df-49ae-821c-c1db40d6898c" x1="264.847" y1="268.915" x2="223.733" y2="245.172"/>
  <line class="uuid-b4cc4eba-34df-49ae-821c-c1db40d6898c" x1="264.847" y1="242.85" x2="223.733" y2="219.107"/>
  <line class="uuid-b4cc4eba-34df-49ae-821c-c1db40d6898c" x1="264.847" y1="216.785" x2="223.733" y2="193.042"/>
  <line class="uuid-b4cc4eba-34df-49ae-821c-c1db40d6898c" x1="264.847" y1="190.721" x2="223.733" y2="166.952"/>
  <line class="uuid-b4cc4eba-34df-49ae-821c-c1db40d6898c" x1="264.894" y1="164.656" x2="223.733" y2="140.887"/>
  <line class="uuid-b4cc4eba-34df-49ae-821c-c1db40d6898c" x1="264.214" y1="138.175" x2="244.058" y2="126.549"/>
  <line class="uuid-b4cc4eba-34df-49ae-821c-c1db40d6898c" x1="221.705" y1="196.487" x2="199.111" y2="209.529"/>
  <line class="uuid-b4cc4eba-34df-49ae-821c-c1db40d6898c" x1="222.048" y1="170.201" x2="187.947" y2="189.915"/>
  <line class="uuid-b4cc4eba-34df-49ae-821c-c1db40d6898c" x1="222.048" y1="144.136" x2="187.947" y2="163.846"/>
  <line class="uuid-b4cc4eba-34df-49ae-821c-c1db40d6898c" x1="204.56" y1="128.182" x2="188.532" y2="137.417"/>
</svg>