<?xml version="1.0" encoding="UTF-8"?>
<svg id="uuid-512b57ac-3246-4bb4-8524-66e45a1e4054" data-name="&amp;lt;Layer&amp;gt;" xmlns="http://www.w3.org/2000/svg" viewBox="0 0 451.11 451.11">
  <defs>
    <style>
      .uuid-84454aae-4c7f-49b1-9e7b-7f93cd104225, .uuid-27b049ca-3d48-4826-8d4f-4850df1a40c2, .uuid-39602e8a-be3d-4e73-91e6-88a678277f70, .uuid-35e7c7bc-b63d-4ec4-ac06-2bdbe7382ced {
        fill: none;
        stroke: #000;
        stroke-linecap: round;
      }

      .uuid-84454aae-4c7f-49b1-9e7b-7f93cd104225, .uuid-39602e8a-be3d-4e73-91e6-88a678277f70 {
        stroke-width: 4.113px;
      }

      .uuid-84454aae-4c7f-49b1-9e7b-7f93cd104225, .uuid-39602e8a-be3d-4e73-91e6-88a678277f70, .uuid-35e7c7bc-b63d-4ec4-ac06-2bdbe7382ced {
        stroke-linejoin: round;
      }

      .uuid-27b049ca-3d48-4826-8d4f-4850df1a40c2 {
        stroke-miterlimit: 10;
        stroke-width: 1.163px;
      }

      .uuid-39602e8a-be3d-4e73-91e6-88a678277f70, .uuid-35e7c7bc-b63d-4ec4-ac06-2bdbe7382ced {
        fill-rule: evenodd;
      }

      .uuid-35e7c7bc-b63d-4ec4-ac06-2bdbe7382ced {
        stroke-width: 4.117px;
      }
    </style>
  </defs>
  <path class="uuid-39602e8a-be3d-4e73-91e6-88a678277f70" d="M346.452,126.169l-20.351-11.726c-.853-.343-2.539-.217-3.542.074-.928.221-1.734.636-2.539,1.099l-40.429,23.328"/>
  <path class="uuid-35e7c7bc-b63d-4ec4-ac06-2bdbe7382ced" d="M340.293,255.443c5.618-3.249,10.261-11.189,10.261-17.761v-104.406c0-1.695-.36-3.793-1.759-5.555-2.87-2.425-5.676-2.098-8.451-.379-20.276,11.674-40.528,23.4-60.801,35.08"/>
  <path class="uuid-35e7c7bc-b63d-4ec4-ac06-2bdbe7382ced" d="M125.767,322.254l-16.627-9.53c-2.782-1.524-6.461-2.888-7.874-6.263-.467-1.232-.637-2.627-.71-3.921l.073-110.514"/>
  <path class="uuid-35e7c7bc-b63d-4ec4-ac06-2bdbe7382ced" d="M279.491,226.325c.052-27.238.052-84.375.052-111.588,0-6.889-4.887-9.722-10.799-6.277-44.947,25.917-89.894,51.86-134.841,77.778-9.585,5.515-10.593,14.618-10.799,24.501l-.073,104.185"/>
  <line class="uuid-84454aae-4c7f-49b1-9e7b-7f93cd104225" x1="149.22" y1="271.029" x2="216.224" y2="232.382"/>
  <line class="uuid-84454aae-4c7f-49b1-9e7b-7f93cd104225" x1="149.22" y1="241.689" x2="253.353" y2="181.647"/>
  <line class="uuid-84454aae-4c7f-49b1-9e7b-7f93cd104225" x1="149.22" y1="214.062" x2="240.335" y2="161.542"/>
  <path class="uuid-39602e8a-be3d-4e73-91e6-88a678277f70" d="M131.87,362.513c4.35-7.45,8.65-14.879,12.948-22.352,27.338-47.759,81.054-71.748,123.51-94.906,3.079-1.634,5.692-4.372,7.892-8.058,2.148-3.716,3.271-7.355,3.271-10.872"/>
  <path class="uuid-39602e8a-be3d-4e73-91e6-88a678277f70" d="M123.03,315.535c0,6.891,4.812,9.699,10.798,6.254"/>
  <line class="uuid-84454aae-4c7f-49b1-9e7b-7f93cd104225" x1="227.388" y1="280.971" x2="325.759" y2="224.224"/>
  <line class="uuid-84454aae-4c7f-49b1-9e7b-7f93cd104225" x1="318.333" y1="200.797" x2="279.958" y2="222.954"/>
  <line class="uuid-84454aae-4c7f-49b1-9e7b-7f93cd104225" x1="325.759" y1="170.41" x2="280.006" y2="196.842"/>
  <line class="uuid-84454aae-4c7f-49b1-9e7b-7f93cd104225" x1="104.455" y1="180.781" x2="126.135" y2="193.295"/>
  <line class="uuid-84454aae-4c7f-49b1-9e7b-7f93cd104225" x1="134.122" y1="322.89" x2="134.365" y2="321.474"/>
  <path class="uuid-39602e8a-be3d-4e73-91e6-88a678277f70" d="M242.094,97.955c3.053-1.807,6.961-4.765,10.673-3.712,1.321.389,20.372,11.604,23.232,13.311"/>
  <line class="uuid-84454aae-4c7f-49b1-9e7b-7f93cd104225" x1="115.652" y1="170.847" x2="242.094" y2="97.955"/>
  <path class="uuid-39602e8a-be3d-4e73-91e6-88a678277f70" d="M104.272,180.646c3.027-5.156,6.103-6.718,11.38-9.799"/>
  <path class="uuid-39602e8a-be3d-4e73-91e6-88a678277f70" d="M100.629,192.025c.06-4.146,1.476-7.745,3.544-11.259"/>
  <path class="uuid-39602e8a-be3d-4e73-91e6-88a678277f70" d="M109.449,349.591c-.295-11.038-.475-25.241,1.564-35.836"/>
  <line class="uuid-84454aae-4c7f-49b1-9e7b-7f93cd104225" x1="131.87" y1="362.535" x2="109.449" y2="349.591"/>
  <path class="uuid-39602e8a-be3d-4e73-91e6-88a678277f70" d="M134.413,321.474c-2.882,12.336-2.73,28.444-2.543,41.061"/>
  <path class="uuid-35e7c7bc-b63d-4ec4-ac06-2bdbe7382ced" d="M202.64,282.339v41.82c0,5.409,5.883,8.87,10.577,6.155l79.1-45.653c24.622-12.731,34.2-1.637,49.807,7.131.198-12.949.463-25.012-2.321-36.054"/>
  <line class="uuid-84454aae-4c7f-49b1-9e7b-7f93cd104225" x1="184.346" y1="317.419" x2="204.671" y2="329.145"/>
  <path class="uuid-39602e8a-be3d-4e73-91e6-88a678277f70" d="M182.315,312.407c0,1.931.71,3.664,2.031,5.012"/>
  <line class="uuid-84454aae-4c7f-49b1-9e7b-7f93cd104225" x1="182.315" y1="297.263" x2="182.315" y2="312.407"/>
  <line class="uuid-84454aae-4c7f-49b1-9e7b-7f93cd104225" x1="194.578" y1="187.974" x2="191.967" y2="189.487"/>
  <path class="uuid-39602e8a-be3d-4e73-91e6-88a678277f70" d="M196.609,186.801c-.515.343-1.273.758-2.031,1.173"/>
  <line class="uuid-84454aae-4c7f-49b1-9e7b-7f93cd104225" x1="240.405" y1="161.542" x2="196.609" y2="186.801"/>
  <line class="uuid-27b049ca-3d48-4826-8d4f-4850df1a40c2" x1="201.028" y1="311.48" x2="189.181" y2="318.297"/>
  <line class="uuid-27b049ca-3d48-4826-8d4f-4850df1a40c2" x1="201.201" y1="298.315" x2="183.831" y2="308.352"/>
  <line class="uuid-27b049ca-3d48-4826-8d4f-4850df1a40c2" x1="121.175" y1="311.212" x2="115.825" y2="314.291"/>
  <line class="uuid-27b049ca-3d48-4826-8d4f-4850df1a40c2" x1="121.47" y1="297.995" x2="104.172" y2="308.011"/>
  <line class="uuid-27b049ca-3d48-4826-8d4f-4850df1a40c2" x1="121.47" y1="284.978" x2="102.656" y2="295.821"/>
  <line class="uuid-27b049ca-3d48-4826-8d4f-4850df1a40c2" x1="121.392" y1="271.956" x2="102.582" y2="282.828"/>
  <line class="uuid-27b049ca-3d48-4826-8d4f-4850df1a40c2" x1="121.344" y1="258.961" x2="102.536" y2="269.833"/>
  <line class="uuid-27b049ca-3d48-4826-8d4f-4850df1a40c2" x1="121.344" y1="245.917" x2="102.462" y2="256.859"/>
  <line class="uuid-27b049ca-3d48-4826-8d4f-4850df1a40c2" x1="121.392" y1="232.871" x2="102.362" y2="243.864"/>
  <line class="uuid-27b049ca-3d48-4826-8d4f-4850df1a40c2" x1="121.514" y1="219.753" x2="102.289" y2="230.869"/>
  <line class="uuid-27b049ca-3d48-4826-8d4f-4850df1a40c2" x1="121.712" y1="206.637" x2="102.241" y2="217.874"/>
  <line class="uuid-27b049ca-3d48-4826-8d4f-4850df1a40c2" x1="122.787" y1="192.93" x2="102.119" y2="204.903"/>
  <line class="uuid-27b049ca-3d48-4826-8d4f-4850df1a40c2" x1="111.134" y1="186.654" x2="102.778" y2="191.466"/>
  <line class="uuid-27b049ca-3d48-4826-8d4f-4850df1a40c2" x1="130.164" y1="347.148" x2="119.438" y2="353.351"/>
  <line class="uuid-27b049ca-3d48-4826-8d4f-4850df1a40c2" x1="131.216" y1="333.515" x2="110.839" y2="345.289"/>
  <line class="uuid-27b049ca-3d48-4826-8d4f-4850df1a40c2" x1="125.399" y1="323.843" x2="111.134" y2="332.073"/>
  <line class="uuid-27b049ca-3d48-4826-8d4f-4850df1a40c2" x1="113.677" y1="317.587" x2="112.525" y2="318.225"/>
  <line class="uuid-27b049ca-3d48-4826-8d4f-4850df1a40c2" x1="267.179" y1="104.552" x2="265.031" y2="108.29"/>
  <line class="uuid-27b049ca-3d48-4826-8d4f-4850df1a40c2" x1="257.753" y1="98.323" x2="245.147" y2="120.16"/>
  <line class="uuid-27b049ca-3d48-4826-8d4f-4850df1a40c2" x1="244.926" y1="97.933" x2="225.36" y2="131.838"/>
  <line class="uuid-27b049ca-3d48-4826-8d4f-4850df1a40c2" x1="225.36" y1="109.218" x2="205.793" y2="143.149"/>
  <line class="uuid-27b049ca-3d48-4826-8d4f-4850df1a40c2" x1="205.841" y1="120.477" x2="186.274" y2="154.434"/>
  <line class="uuid-27b049ca-3d48-4826-8d4f-4850df1a40c2" x1="186.274" y1="131.764" x2="166.707" y2="165.718"/>
  <line class="uuid-27b049ca-3d48-4826-8d4f-4850df1a40c2" x1="166.758" y1="143.001" x2="147.188" y2="176.98"/>
  <line class="uuid-27b049ca-3d48-4826-8d4f-4850df1a40c2" x1="147.313" y1="154.139" x2="125.473" y2="191.929"/>
  <line class="uuid-27b049ca-3d48-4826-8d4f-4850df1a40c2" x1="127.452" y1="165.986" x2="115.947" y2="185.874"/>
  <line class="uuid-27b049ca-3d48-4826-8d4f-4850df1a40c2" x1="335.873" y1="122.066" x2="330.988" y2="130.565"/>
  <line class="uuid-27b049ca-3d48-4826-8d4f-4850df1a40c2" x1="326.469" y1="115.837" x2="311.078" y2="142.439"/>
  <line class="uuid-27b049ca-3d48-4826-8d4f-4850df1a40c2" x1="308.809" y1="123.825" x2="291.511" y2="153.823"/>
  <line class="uuid-27b049ca-3d48-4826-8d4f-4850df1a40c2" x1="288.895" y1="135.673" x2="281.396" y2="148.668"/>
</svg>