<?xml version="1.0" encoding="UTF-8"?>
<svg id="uuid-3cd90b1c-d013-4704-9203-cf59ed9eda9f" data-name="&amp;lt;Layer&amp;gt;" xmlns="http://www.w3.org/2000/svg" viewBox="0 0 451.11 451.11">
  <defs>
    <style>
      .uuid-aa6d4366-7efc-4fd9-b48d-9dd625199bee, .uuid-03e5f0e2-5ac6-450b-8e6a-06fa710b77cd, .uuid-eef9679d-65a4-416b-bacc-939e877d177f, .uuid-d7b2c423-f387-46c1-89e2-9526169d0af5, .uuid-f2c6ac1d-0549-4701-af08-3469d58ab985 {
        fill: none;
        stroke: #000;
        stroke-linecap: round;
      }

      .uuid-aa6d4366-7efc-4fd9-b48d-9dd625199bee, .uuid-03e5f0e2-5ac6-450b-8e6a-06fa710b77cd, .uuid-eef9679d-65a4-416b-bacc-939e877d177f, .uuid-f2c6ac1d-0549-4701-af08-3469d58ab985 {
        stroke-linejoin: round;
      }

      .uuid-aa6d4366-7efc-4fd9-b48d-9dd625199bee, .uuid-f2c6ac1d-0549-4701-af08-3469d58ab985 {
        stroke-width: 4.117px;
      }

      .uuid-03e5f0e2-5ac6-450b-8e6a-06fa710b77cd {
        stroke-width: 3.967px;
      }

      .uuid-eef9679d-65a4-416b-bacc-939e877d177f {
        stroke-width: 3.971px;
      }

      .uuid-d7b2c423-f387-46c1-89e2-9526169d0af5 {
        stroke-miterlimit: 10;
        stroke-width: 1.163px;
      }

      .uuid-f2c6ac1d-0549-4701-af08-3469d58ab985 {
        fill-rule: evenodd;
      }
    </style>
  </defs>
  <path class="uuid-f2c6ac1d-0549-4701-af08-3469d58ab985" d="M189.251,239.796c2.443.489,4.886,1.125,7.328,1.883,13.677,4.518,21.005,12.947,20.763,21.473v.243c0,15.049-24.335,22.529-36.885,23.037-8.694.722-19.85-.636-28.093-3.933-6.516-1.957-13.922-7.741-17.101-13.78"/>
  <polyline class="uuid-f2c6ac1d-0549-4701-af08-3469d58ab985" points="146.5 262.343 146.5 267.402 152.119 270.65 152.119 259.145"/>
  <polyline class="uuid-f2c6ac1d-0549-4701-af08-3469d58ab985" points="152.119 259.145 152.119 270.65 189.251 249.104 189.251 239.796 189.251 237.599"/>
  <path class="uuid-f2c6ac1d-0549-4701-af08-3469d58ab985" d="M359.024,252.184c0,.463.247.927.247,1.438.243.074,0,.074,0,.074.732,2.495,1.221,5.571.243,8.647-.732,3.031-2.686,5.401-5.128,7.134-15.392,10.872-51.302-5.398-59.849-17.977-1.711-2.443-2.443-6.108-2.2-9.482v-.243c0-1.391.247-2.785.489-3.882"/>
  <path class="uuid-f2c6ac1d-0549-4701-af08-3469d58ab985" d="M292.825,237.842c.243-.876.489-1.586.732-2.098v.243"/>
  <path class="uuid-f2c6ac1d-0549-4701-af08-3469d58ab985" d="M292.335,240.189c-1.221,13.629,16.367,8.209,23.695,17.735,8.308,10.795,29.314,14.512,39.819,5.934,2.689-2.27,3.911-5.25,3.664-8.742-.243-2.91-1.464-5.916-3.418-8.919-4.644-7.377-12.705-15.781-23.695-20.619-5.376-2.392-10.015-3.834-15.149-3.271-9.037,1.001-23.938,7.914-24.916,17.881Z"/>
  <polygon class="uuid-f2c6ac1d-0549-4701-af08-3469d58ab985" points="124.269 184.689 228.09 124.767 228.09 196.317 124.269 256.213 124.269 184.689"/>
  <polygon class="uuid-f2c6ac1d-0549-4701-af08-3469d58ab985" points="124.269 184.689 228.09 124.767 228.09 114.458 124.269 174.38 124.269 184.689"/>
  <line class="uuid-aa6d4366-7efc-4fd9-b48d-9dd625199bee" x1="134.042" y1="269.551" x2="134.042" y2="269.477"/>
  <line class="uuid-aa6d4366-7efc-4fd9-b48d-9dd625199bee" x1="99.357" y1="286.189" x2="93.98" y2="283.135"/>
  <path class="uuid-f2c6ac1d-0549-4701-af08-3469d58ab985" d="M93.98,283.135c-2.443-2.053-2.686-3.347-2.932-6.476"/>
  <line class="uuid-aa6d4366-7efc-4fd9-b48d-9dd625199bee" x1="91.048" y1="276.659" x2="91.048" y2="179.141"/>
  <path class="uuid-f2c6ac1d-0549-4701-af08-3469d58ab985" d="M91.048,179.141c.489-7.252,3.911-13.092,10.015-17.393"/>
  <line class="uuid-aa6d4366-7efc-4fd9-b48d-9dd625199bee" x1="101.063" y1="161.748" x2="240.794" y2="81.185"/>
  <path class="uuid-f2c6ac1d-0549-4701-af08-3469d58ab985" d="M240.794,81.185c2.687-1.321,3.908-1.833,7.083-.684"/>
  <line class="uuid-aa6d4366-7efc-4fd9-b48d-9dd625199bee" x1="247.878" y1="80.501" x2="253.007" y2="83.554"/>
  <path class="uuid-f2c6ac1d-0549-4701-af08-3469d58ab985" d="M253.007,83.554c-2.933-1.147-4.155-.636-7.083.685"/>
  <line class="uuid-aa6d4366-7efc-4fd9-b48d-9dd625199bee" x1="245.924" y1="84.239" x2="106.438" y2="164.802"/>
  <path class="uuid-f2c6ac1d-0549-4701-af08-3469d58ab985" d="M106.438,164.802c-6.35,4.302-9.525,9.893-10.014,17.392"/>
  <line class="uuid-aa6d4366-7efc-4fd9-b48d-9dd625199bee" x1="96.424" y1="182.194" x2="96.18" y2="279.687"/>
  <path class="uuid-f2c6ac1d-0549-4701-af08-3469d58ab985" d="M96.18,279.687c.487,3.153.487,4.448,3.176,6.502"/>
  <path class="uuid-f2c6ac1d-0549-4701-af08-3469d58ab985" d="M245.924,84.239c5.618-3.176,10.258-.589,10.258,5.812"/>
  <line class="uuid-aa6d4366-7efc-4fd9-b48d-9dd625199bee" x1="256.182" y1="90.052" x2="255.939" y2="187.545"/>
  <path class="uuid-f2c6ac1d-0549-4701-af08-3469d58ab985" d="M255.939,187.545c0,6.376-4.398,14.195-10.015,17.37"/>
  <line class="uuid-aa6d4366-7efc-4fd9-b48d-9dd625199bee" x1="245.924" y1="204.914" x2="106.438" y2="285.501"/>
  <path class="uuid-f2c6ac1d-0549-4701-af08-3469d58ab985" d="M106.438,285.501c-5.618,3.175-10.258.562-10.258-5.814"/>
  <line class="uuid-aa6d4366-7efc-4fd9-b48d-9dd625199bee" x1="316.03" y1="291.339" x2="316.03" y2="297.668"/>
  <path class="uuid-f2c6ac1d-0549-4701-af08-3469d58ab985" d="M316.03,297.668c-.485,1.879-1.953,2.98-3.418,3.981"/>
  <line class="uuid-aa6d4366-7efc-4fd9-b48d-9dd625199bee" x1="312.613" y1="301.649" x2="195.601" y2="369.17"/>
  <path class="uuid-f2c6ac1d-0549-4701-af08-3469d58ab985" d="M195.601,369.17c-5.128,2.784-12.212,2.76-17.344-.026"/>
  <line class="uuid-aa6d4366-7efc-4fd9-b48d-9dd625199bee" x1="178.257" y1="369.144" x2="138.195" y2="345.938"/>
  <path class="uuid-f2c6ac1d-0549-4701-af08-3469d58ab985" d="M138.195,345.938c-1.711-.979-2.932-2.079-3.418-3.981"/>
  <line class="uuid-aa6d4366-7efc-4fd9-b48d-9dd625199bee" x1="134.778" y1="341.957" x2="134.778" y2="335.628"/>
  <path class="uuid-f2c6ac1d-0549-4701-af08-3469d58ab985" d="M134.778,335.628c.485,1.906,1.707,2.98,3.418,4.007"/>
  <line class="uuid-aa6d4366-7efc-4fd9-b48d-9dd625199bee" x1="138.195" y1="339.635" x2="178.257" y2="362.841"/>
  <path class="uuid-f2c6ac1d-0549-4701-af08-3469d58ab985" d="M178.257,362.841c5.132,2.763,12.215,2.763,17.344,0"/>
  <line class="uuid-aa6d4366-7efc-4fd9-b48d-9dd625199bee" x1="195.601" y1="362.841" x2="312.613" y2="295.324"/>
  <path class="uuid-f2c6ac1d-0549-4701-af08-3469d58ab985" d="M312.613,295.324c1.464-1.005,2.932-2.078,3.418-3.985"/>
  <line class="uuid-aa6d4366-7efc-4fd9-b48d-9dd625199bee" x1="138.195" y1="329.594" x2="255.207" y2="262.099"/>
  <path class="uuid-f2c6ac1d-0549-4701-af08-3469d58ab985" d="M255.207,262.099c4.639-2.76,12.458-2.76,17.344,0"/>
  <line class="uuid-aa6d4366-7efc-4fd9-b48d-9dd625199bee" x1="272.551" y1="262.099" x2="312.613" y2="285.306"/>
  <path class="uuid-f2c6ac1d-0549-4701-af08-3469d58ab985" d="M312.613,285.306c4.639,2.737,4.639,7.281,0,10.018"/>
  <path class="uuid-f2c6ac1d-0549-4701-af08-3469d58ab985" d="M138.195,339.635c-4.639-2.785-4.639-7.278,0-10.041"/>
  <line class="uuid-aa6d4366-7efc-4fd9-b48d-9dd625199bee" x1="99.842" y1="171.547" x2="94.47" y2="168.515"/>
  <path class="uuid-f2c6ac1d-0549-4701-af08-3469d58ab985" d="M94.47,168.515c-2.2,3.422-3.175,6.62-3.421,10.627"/>
  <path class="uuid-f2c6ac1d-0549-4701-af08-3469d58ab985" d="M96.424,182.194c.243-4.006.979-7.23,3.418-10.647"/>
  <path class="uuid-f2c6ac1d-0549-4701-af08-3469d58ab985" d="M324.582,238.332c-6.351-5.519-13.19-9.137-21.252-11.285"/>
  <line class="uuid-aa6d4366-7efc-4fd9-b48d-9dd625199bee" x1="107.172" y1="172.474" x2="245.192" y2="92.717"/>
  <path class="uuid-f2c6ac1d-0549-4701-af08-3469d58ab985" d="M245.192,92.717c2.686-1.417,4.639-.269,4.639,2.612"/>
  <line class="uuid-aa6d4366-7efc-4fd9-b48d-9dd625199bee" x1="249.831" y1="95.328" x2="249.831" y2="189.207"/>
  <path class="uuid-f2c6ac1d-0549-4701-af08-3469d58ab985" d="M249.831,189.207c0,2.882-1.953,6.373-4.639,7.815"/>
  <line class="uuid-aa6d4366-7efc-4fd9-b48d-9dd625199bee" x1="245.192" y1="197.023" x2="106.928" y2="276.759"/>
  <path class="uuid-f2c6ac1d-0549-4701-af08-3469d58ab985" d="M106.928,276.759c-2.443,1.438-4.396.269-4.396-2.617"/>
  <line class="uuid-aa6d4366-7efc-4fd9-b48d-9dd625199bee" x1="102.531" y1="274.142" x2="102.531" y2="180.267"/>
  <path class="uuid-f2c6ac1d-0549-4701-af08-3469d58ab985" d="M102.531,180.267c0-2.858,1.953-6.376,4.64-7.793"/>
  <path class="uuid-f2c6ac1d-0549-4701-af08-3469d58ab985" d="M319.452,234.325c-.732-3.93-7.329-7.009-10.504-5.545"/>
  <path class="uuid-f2c6ac1d-0549-4701-af08-3469d58ab985" d="M150.654,187.839c.732-.463,1.465-.096,1.465.806"/>
  <path class="uuid-f2c6ac1d-0549-4701-af08-3469d58ab985" d="M152.119,188.645c0,.931-.733,2.026-1.465,2.491"/>
  <path class="uuid-f2c6ac1d-0549-4701-af08-3469d58ab985" d="M150.654,191.136c-.979.463-1.464.073-1.464-.828"/>
  <path class="uuid-f2c6ac1d-0549-4701-af08-3469d58ab985" d="M150.654,203.62c.732-.465,1.465-.074,1.465.831"/>
  <path class="uuid-f2c6ac1d-0549-4701-af08-3469d58ab985" d="M152.119,204.451c0,.902-.733,2.027-1.465,2.465"/>
  <path class="uuid-f2c6ac1d-0549-4701-af08-3469d58ab985" d="M150.654,206.916c-.979.465-1.464.074-1.464-.831"/>
  <path class="uuid-f2c6ac1d-0549-4701-af08-3469d58ab985" d="M150.654,220.376c.732-.439,1.465-.074,1.465.831"/>
  <path class="uuid-f2c6ac1d-0549-4701-af08-3469d58ab985" d="M152.119,221.207c0,.928-.733,2.028-1.465,2.491"/>
  <path class="uuid-f2c6ac1d-0549-4701-af08-3469d58ab985" d="M150.654,223.698c-.979.441-1.464.074-1.464-.828"/>
  <line class="uuid-aa6d4366-7efc-4fd9-b48d-9dd625199bee" x1="160.422" y1="199.613" x2="200.977" y2="176.164"/>
  <line class="uuid-aa6d4366-7efc-4fd9-b48d-9dd625199bee" x1="160.422" y1="183.806" x2="200.977" y2="160.38"/>
  <line class="uuid-aa6d4366-7efc-4fd9-b48d-9dd625199bee" x1="160.422" y1="216.372" x2="193.158" y2="197.413"/>
  <path class="uuid-f2c6ac1d-0549-4701-af08-3469d58ab985" d="M217.342,263.152c0,5.35.243,8.353-2.932,13.07-7.329,11.089-25.159,15.17-37.864,15.338-12.701.17-29.8-3.37-38.351-13.532-2.196-2.396-3.664-5.302-4.154-8.477"/>
  <line class="uuid-d7b2c423-f387-46c1-89e2-9526169d0af5" x1="94.47" y1="276.169" x2="93.248" y2="275.437"/>
  <line class="uuid-d7b2c423-f387-46c1-89e2-9526169d0af5" x1="94.47" y1="263.152" x2="93.248" y2="262.394"/>
  <line class="uuid-d7b2c423-f387-46c1-89e2-9526169d0af5" x1="94.47" y1="250.13" x2="93.248" y2="249.398"/>
  <line class="uuid-d7b2c423-f387-46c1-89e2-9526169d0af5" x1="94.47" y1="237.088" x2="93.248" y2="236.355"/>
  <line class="uuid-d7b2c423-f387-46c1-89e2-9526169d0af5" x1="94.47" y1="224.066" x2="93.248" y2="223.334"/>
  <line class="uuid-d7b2c423-f387-46c1-89e2-9526169d0af5" x1="94.47" y1="211.045" x2="93.248" y2="210.313"/>
  <line class="uuid-d7b2c423-f387-46c1-89e2-9526169d0af5" x1="94.47" y1="198.001" x2="93.248" y2="197.269"/>
  <line class="uuid-d7b2c423-f387-46c1-89e2-9526169d0af5" x1="94.47" y1="184.98" x2="93.248" y2="184.222"/>
  <line class="uuid-d7b2c423-f387-46c1-89e2-9526169d0af5" x1="96.667" y1="173.159" x2="94.959" y2="172.132"/>
  <line class="uuid-d7b2c423-f387-46c1-89e2-9526169d0af5" x1="110.836" y1="280.64" x2="109.125" y2="277.708"/>
  <line class="uuid-d7b2c423-f387-46c1-89e2-9526169d0af5" x1="100.578" y1="262.931" x2="98.378" y2="258.826"/>
  <line class="uuid-d7b2c423-f387-46c1-89e2-9526169d0af5" x1="130.624" y1="269.282" x2="128.912" y2="266.401"/>
  <line class="uuid-d7b2c423-f387-46c1-89e2-9526169d0af5" x1="100.578" y1="217.663" x2="98.378" y2="213.588"/>
  <line class="uuid-d7b2c423-f387-46c1-89e2-9526169d0af5" x1="150.164" y1="258.02" x2="148.453" y2="255.138"/>
  <line class="uuid-d7b2c423-f387-46c1-89e2-9526169d0af5" x1="102.042" y1="174.964" x2="101.063" y2="173.206"/>
  <line class="uuid-d7b2c423-f387-46c1-89e2-9526169d0af5" x1="169.706" y1="246.761" x2="167.999" y2="243.875"/>
  <line class="uuid-d7b2c423-f387-46c1-89e2-9526169d0af5" x1="120.851" y1="162.238" x2="119.387" y2="159.626"/>
  <line class="uuid-d7b2c423-f387-46c1-89e2-9526169d0af5" x1="189.251" y1="235.472" x2="187.54" y2="232.616"/>
  <line class="uuid-d7b2c423-f387-46c1-89e2-9526169d0af5" x1="140.395" y1="151.001" x2="138.927" y2="148.363"/>
  <line class="uuid-d7b2c423-f387-46c1-89e2-9526169d0af5" x1="208.792" y1="224.165" x2="207.081" y2="221.303"/>
  <line class="uuid-d7b2c423-f387-46c1-89e2-9526169d0af5" x1="159.937" y1="139.716" x2="158.469" y2="137.078"/>
  <line class="uuid-d7b2c423-f387-46c1-89e2-9526169d0af5" x1="228.336" y1="212.878" x2="226.625" y2="210.018"/>
  <line class="uuid-d7b2c423-f387-46c1-89e2-9526169d0af5" x1="179.478" y1="128.406" x2="178.014" y2="125.742"/>
  <line class="uuid-d7b2c423-f387-46c1-89e2-9526169d0af5" x1="247.635" y1="201.276" x2="246.167" y2="198.781"/>
  <line class="uuid-d7b2c423-f387-46c1-89e2-9526169d0af5" x1="199.023" y1="117.144" x2="197.555" y2="114.48"/>
  <line class="uuid-d7b2c423-f387-46c1-89e2-9526169d0af5" x1="253.986" y1="167.367" x2="251.785" y2="163.633"/>
  <line class="uuid-d7b2c423-f387-46c1-89e2-9526169d0af5" x1="218.564" y1="105.885" x2="217.096" y2="103.221"/>
  <line class="uuid-d7b2c423-f387-46c1-89e2-9526169d0af5" x1="253.986" y1="122.125" x2="251.785" y2="118.391"/>
  <line class="uuid-d7b2c423-f387-46c1-89e2-9526169d0af5" x1="238.105" y1="94.618" x2="236.641" y2="91.933"/>
  <line class="uuid-d7b2c423-f387-46c1-89e2-9526169d0af5" x1="145.768" y1="170.105" x2="143.082" y2="165.634"/>
  <line class="uuid-d7b2c423-f387-46c1-89e2-9526169d0af5" x1="165.309" y1="158.842" x2="162.622" y2="154.398"/>
  <line class="uuid-d7b2c423-f387-46c1-89e2-9526169d0af5" x1="184.853" y1="147.531" x2="182.168" y2="143.061"/>
  <line class="uuid-d7b2c423-f387-46c1-89e2-9526169d0af5" x1="204.395" y1="136.294" x2="201.709" y2="131.802"/>
  <line class="uuid-d7b2c423-f387-46c1-89e2-9526169d0af5" x1="223.94" y1="124.985" x2="221.497" y2="120.491"/>
  <line class="uuid-d7b2c423-f387-46c1-89e2-9526169d0af5" x1="140.882" y1="345.058" x2="140.882" y2="343.447"/>
  <line class="uuid-d7b2c423-f387-46c1-89e2-9526169d0af5" x1="152.119" y1="351.582" x2="152.119" y2="349.992"/>
  <line class="uuid-d7b2c423-f387-46c1-89e2-9526169d0af5" x1="163.356" y1="358.102" x2="163.356" y2="356.516"/>
  <line class="uuid-d7b2c423-f387-46c1-89e2-9526169d0af5" x1="174.839" y1="364.746" x2="174.839" y2="363.161"/>
  <line class="uuid-d7b2c423-f387-46c1-89e2-9526169d0af5" x1="186.076" y1="369.243" x2="186.076" y2="366.874"/>
  <line class="uuid-d7b2c423-f387-46c1-89e2-9526169d0af5" x1="197.313" y1="365.895" x2="197.313" y2="364.21"/>
  <line class="uuid-d7b2c423-f387-46c1-89e2-9526169d0af5" x1="208.549" y1="359.375" x2="208.549" y2="357.69"/>
  <line class="uuid-d7b2c423-f387-46c1-89e2-9526169d0af5" x1="219.786" y1="352.874" x2="219.786" y2="351.189"/>
  <line class="uuid-d7b2c423-f387-46c1-89e2-9526169d0af5" x1="231.023" y1="346.376" x2="231.023" y2="344.691"/>
  <line class="uuid-d7b2c423-f387-46c1-89e2-9526169d0af5" x1="242.26" y1="339.878" x2="242.26" y2="338.171"/>
  <line class="uuid-d7b2c423-f387-46c1-89e2-9526169d0af5" x1="253.739" y1="333.233" x2="253.739" y2="331.547"/>
  <line class="uuid-d7b2c423-f387-46c1-89e2-9526169d0af5" x1="264.976" y1="326.738" x2="264.976" y2="325.05"/>
  <line class="uuid-d7b2c423-f387-46c1-89e2-9526169d0af5" x1="276.217" y1="320.238" x2="276.217" y2="318.552"/>
  <line class="uuid-d7b2c423-f387-46c1-89e2-9526169d0af5" x1="287.454" y1="313.74" x2="287.454" y2="312.032"/>
  <line class="uuid-d7b2c423-f387-46c1-89e2-9526169d0af5" x1="298.933" y1="307.246" x2="298.933" y2="305.534"/>
  <line class="uuid-d7b2c423-f387-46c1-89e2-9526169d0af5" x1="310.17" y1="300.745" x2="310.17" y2="299.034"/>
  <line class="uuid-d7b2c423-f387-46c1-89e2-9526169d0af5" x1="312.123" y1="252.673" x2="299.665" y2="230.928"/>
  <line class="uuid-d7b2c423-f387-46c1-89e2-9526169d0af5" x1="346.812" y1="267.498" x2="321.164" y2="222.944"/>
  <line class="uuid-d7b2c423-f387-46c1-89e2-9526169d0af5" x1="306.258" y1="260.44" x2="306.258" y2="254.017"/>
  <line class="uuid-d7b2c423-f387-46c1-89e2-9526169d0af5" x1="317.498" y1="266.523" x2="317.498" y2="262.273"/>
  <line class="uuid-d7b2c423-f387-46c1-89e2-9526169d0af5" x1="328.735" y1="270.187" x2="328.735" y2="268.649"/>
  <line class="uuid-d7b2c423-f387-46c1-89e2-9526169d0af5" x1="339.972" y1="271.603" x2="339.972" y2="270.602"/>
  <line class="uuid-d7b2c423-f387-46c1-89e2-9526169d0af5" x1="351.209" y1="269.112" x2="351.209" y2="268.745"/>
  <line class="uuid-d7b2c423-f387-46c1-89e2-9526169d0af5" x1="107.661" y1="161.748" x2="106.438" y2="161.042"/>
  <line class="uuid-d7b2c423-f387-46c1-89e2-9526169d0af5" x1="118.898" y1="155.25" x2="117.675" y2="154.518"/>
  <line class="uuid-d7b2c423-f387-46c1-89e2-9526169d0af5" x1="130.135" y1="148.728" x2="128.912" y2="148.021"/>
  <line class="uuid-d7b2c423-f387-46c1-89e2-9526169d0af5" x1="141.617" y1="142.208" x2="140.395" y2="141.497"/>
  <line class="uuid-d7b2c423-f387-46c1-89e2-9526169d0af5" x1="152.851" y1="135.71" x2="151.632" y2="135.003"/>
  <line class="uuid-d7b2c423-f387-46c1-89e2-9526169d0af5" x1="164.334" y1="129.187" x2="162.866" y2="128.455"/>
  <line class="uuid-d7b2c423-f387-46c1-89e2-9526169d0af5" x1="175.571" y1="122.663" x2="174.106" y2="121.931"/>
  <line class="uuid-d7b2c423-f387-46c1-89e2-9526169d0af5" x1="186.808" y1="116.143" x2="185.587" y2="115.433"/>
  <line class="uuid-d7b2c423-f387-46c1-89e2-9526169d0af5" x1="198.045" y1="109.645" x2="196.823" y2="108.935"/>
  <line class="uuid-d7b2c423-f387-46c1-89e2-9526169d0af5" x1="209.282" y1="103.147" x2="208.06" y2="102.411"/>
  <line class="uuid-d7b2c423-f387-46c1-89e2-9526169d0af5" x1="220.761" y1="96.624" x2="219.297" y2="95.892"/>
  <line class="uuid-d7b2c423-f387-46c1-89e2-9526169d0af5" x1="232.002" y1="90.126" x2="230.534" y2="89.394"/>
  <line class="uuid-d7b2c423-f387-46c1-89e2-9526169d0af5" x1="243.239" y1="83.58" x2="242.016" y2="82.848"/>
  <line class="uuid-d7b2c423-f387-46c1-89e2-9526169d0af5" x1="173.37" y1="256.165" x2="170.195" y2="250.764"/>
  <line class="uuid-d7b2c423-f387-46c1-89e2-9526169d0af5" x1="215.631" y1="262.295" x2="208.06" y2="275.341"/>
  <line class="uuid-d7b2c423-f387-46c1-89e2-9526169d0af5" x1="209.771" y1="249.689" x2="190.23" y2="283.963"/>
  <line class="uuid-d7b2c423-f387-46c1-89e2-9526169d0af5" x1="200.488" y1="243.608" x2="176.061" y2="285.916"/>
  <line class="uuid-d7b2c423-f387-46c1-89e2-9526169d0af5" x1="179.968" y1="256.239" x2="163.845" y2="284.526"/>
  <line class="uuid-d7b2c423-f387-46c1-89e2-9526169d0af5" x1="160.18" y1="268.039" x2="152.851" y2="280.934"/>
  <line class="uuid-d7b2c423-f387-46c1-89e2-9526169d0af5" x1="146.257" y1="269.429" x2="143.082" y2="275.195"/>
  <line class="uuid-d7b2c423-f387-46c1-89e2-9526169d0af5" x1="154.808" y1="286.137" x2="154.808" y2="285.431"/>
  <line class="uuid-d7b2c423-f387-46c1-89e2-9526169d0af5" x1="166.041" y1="288.822" x2="166.041" y2="287.996"/>
  <line class="uuid-d7b2c423-f387-46c1-89e2-9526169d0af5" x1="177.282" y1="289.508" x2="177.282" y2="288.606"/>
  <line class="uuid-d7b2c423-f387-46c1-89e2-9526169d0af5" x1="188.761" y1="288.264" x2="188.761" y2="287.454"/>
  <line class="uuid-d7b2c423-f387-46c1-89e2-9526169d0af5" x1="199.998" y1="284.889" x2="199.998" y2="284.305"/>
  <g>
    <line class="uuid-03e5f0e2-5ac6-450b-8e6a-06fa710b77cd" x1="176.211" y1="333.454" x2="162.899" y2="341.162"/>
    <line class="uuid-03e5f0e2-5ac6-450b-8e6a-06fa710b77cd" x1="162.903" y1="341.166" x2="149.546" y2="333.432"/>
    <line class="uuid-03e5f0e2-5ac6-450b-8e6a-06fa710b77cd" x1="149.55" y1="333.436" x2="162.911" y2="325.745"/>
    <line class="uuid-eef9679d-65a4-416b-bacc-939e877d177f" x1="162.911" y1="325.745" x2="176.211" y2="333.454"/>
    <line class="uuid-03e5f0e2-5ac6-450b-8e6a-06fa710b77cd" x1="189.56" y1="341.188" x2="176.251" y2="348.896"/>
    <line class="uuid-03e5f0e2-5ac6-450b-8e6a-06fa710b77cd" x1="176.251" y1="348.9" x2="162.899" y2="341.166"/>
    <line class="uuid-03e5f0e2-5ac6-450b-8e6a-06fa710b77cd" x1="162.899" y1="341.169" x2="176.263" y2="333.48"/>
    <line class="uuid-03e5f0e2-5ac6-450b-8e6a-06fa710b77cd" x1="176.263" y1="333.48" x2="189.564" y2="341.188"/>
    <line class="uuid-03e5f0e2-5ac6-450b-8e6a-06fa710b77cd" x1="202.912" y1="348.922" x2="189.604" y2="356.63"/>
    <line class="uuid-03e5f0e2-5ac6-450b-8e6a-06fa710b77cd" x1="189.604" y1="356.63" x2="176.251" y2="348.9"/>
    <line class="uuid-03e5f0e2-5ac6-450b-8e6a-06fa710b77cd" x1="176.251" y1="348.9" x2="189.614" y2="341.21"/>
    <line class="uuid-03e5f0e2-5ac6-450b-8e6a-06fa710b77cd" x1="189.612" y1="341.214" x2="202.912" y2="348.919"/>
    <line class="uuid-eef9679d-65a4-416b-bacc-939e877d177f" x1="189.52" y1="325.745" x2="176.207" y2="333.454"/>
    <line class="uuid-03e5f0e2-5ac6-450b-8e6a-06fa710b77cd" x1="176.207" y1="333.454" x2="162.855" y2="325.723"/>
    <line class="uuid-03e5f0e2-5ac6-450b-8e6a-06fa710b77cd" x1="162.855" y1="325.723" x2="176.219" y2="318.034"/>
    <line class="uuid-eef9679d-65a4-416b-bacc-939e877d177f" x1="176.219" y1="318.038" x2="189.52" y2="325.745"/>
    <line class="uuid-03e5f0e2-5ac6-450b-8e6a-06fa710b77cd" x1="202.868" y1="333.476" x2="189.56" y2="341.188"/>
    <line class="uuid-03e5f0e2-5ac6-450b-8e6a-06fa710b77cd" x1="189.56" y1="341.188" x2="176.207" y2="333.458"/>
    <line class="uuid-03e5f0e2-5ac6-450b-8e6a-06fa710b77cd" x1="176.207" y1="333.458" x2="189.57" y2="325.767"/>
    <line class="uuid-03e5f0e2-5ac6-450b-8e6a-06fa710b77cd" x1="189.57" y1="325.767" x2="202.868" y2="333.476"/>
    <line class="uuid-03e5f0e2-5ac6-450b-8e6a-06fa710b77cd" x1="216.221" y1="341.21" x2="202.912" y2="348.919"/>
    <line class="uuid-03e5f0e2-5ac6-450b-8e6a-06fa710b77cd" x1="202.912" y1="348.922" x2="189.56" y2="341.192"/>
    <line class="uuid-03e5f0e2-5ac6-450b-8e6a-06fa710b77cd" x1="189.56" y1="341.192" x2="202.923" y2="333.502"/>
    <line class="uuid-03e5f0e2-5ac6-450b-8e6a-06fa710b77cd" x1="202.828" y1="318.038" x2="189.52" y2="325.745"/>
    <line class="uuid-03e5f0e2-5ac6-450b-8e6a-06fa710b77cd" x1="189.52" y1="325.745" x2="176.167" y2="318.016"/>
    <line class="uuid-03e5f0e2-5ac6-450b-8e6a-06fa710b77cd" x1="176.167" y1="318.016" x2="189.526" y2="310.325"/>
    <line class="uuid-03e5f0e2-5ac6-450b-8e6a-06fa710b77cd" x1="189.526" y1="310.329" x2="202.828" y2="318.038"/>
    <line class="uuid-03e5f0e2-5ac6-450b-8e6a-06fa710b77cd" x1="216.18" y1="325.771" x2="202.872" y2="333.48"/>
    <line class="uuid-03e5f0e2-5ac6-450b-8e6a-06fa710b77cd" x1="202.872" y1="333.48" x2="189.52" y2="325.749"/>
    <line class="uuid-03e5f0e2-5ac6-450b-8e6a-06fa710b77cd" x1="189.52" y1="325.749" x2="202.879" y2="318.06"/>
    <line class="uuid-eef9679d-65a4-416b-bacc-939e877d177f" x1="202.879" y1="318.062" x2="216.18" y2="325.767"/>
    <line class="uuid-eef9679d-65a4-416b-bacc-939e877d177f" x1="229.533" y1="333.502" x2="216.221" y2="341.214"/>
    <line class="uuid-03e5f0e2-5ac6-450b-8e6a-06fa710b77cd" x1="202.872" y1="333.483" x2="216.231" y2="325.793"/>
    <line class="uuid-03e5f0e2-5ac6-450b-8e6a-06fa710b77cd" x1="216.136" y1="310.325" x2="202.828" y2="318.038"/>
    <line class="uuid-03e5f0e2-5ac6-450b-8e6a-06fa710b77cd" x1="202.828" y1="318.038" x2="189.475" y2="310.307"/>
    <line class="uuid-03e5f0e2-5ac6-450b-8e6a-06fa710b77cd" x1="189.475" y1="310.307" x2="202.834" y2="302.618"/>
    <line class="uuid-03e5f0e2-5ac6-450b-8e6a-06fa710b77cd" x1="202.834" y1="302.618" x2="216.136" y2="310.325"/>
    <line class="uuid-03e5f0e2-5ac6-450b-8e6a-06fa710b77cd" x1="229.489" y1="318.06" x2="216.177" y2="325.767"/>
    <line class="uuid-03e5f0e2-5ac6-450b-8e6a-06fa710b77cd" x1="216.18" y1="325.771" x2="202.828" y2="318.038"/>
    <line class="uuid-03e5f0e2-5ac6-450b-8e6a-06fa710b77cd" x1="202.828" y1="318.04" x2="216.187" y2="310.351"/>
    <line class="uuid-eef9679d-65a4-416b-bacc-939e877d177f" x1="216.187" y1="310.351" x2="229.489" y2="318.06"/>
    <line class="uuid-eef9679d-65a4-416b-bacc-939e877d177f" x1="242.837" y1="325.793" x2="229.529" y2="333.502"/>
    <line class="uuid-eef9679d-65a4-416b-bacc-939e877d177f" x1="216.177" y1="325.775" x2="229.539" y2="318.085"/>
    <line class="uuid-eef9679d-65a4-416b-bacc-939e877d177f" x1="229.539" y1="318.085" x2="242.84" y2="325.793"/>
    <line class="uuid-eef9679d-65a4-416b-bacc-939e877d177f" x1="224.209" y1="290.244" x2="237.509" y2="297.951"/>
    <line class="uuid-03e5f0e2-5ac6-450b-8e6a-06fa710b77cd" x1="237.557" y1="297.977" x2="250.858" y2="305.686"/>
    <line class="uuid-03e5f0e2-5ac6-450b-8e6a-06fa710b77cd" x1="250.91" y1="305.711" x2="264.21" y2="313.42"/>
    <line class="uuid-03e5f0e2-5ac6-450b-8e6a-06fa710b77cd" x1="250.814" y1="290.244" x2="237.505" y2="297.951"/>
    <line class="uuid-03e5f0e2-5ac6-450b-8e6a-06fa710b77cd" x1="237.505" y1="297.951" x2="224.153" y2="290.222"/>
    <line class="uuid-03e5f0e2-5ac6-450b-8e6a-06fa710b77cd" x1="224.153" y1="290.222" x2="237.517" y2="282.531"/>
    <line class="uuid-eef9679d-65a4-416b-bacc-939e877d177f" x1="237.517" y1="282.535" x2="250.818" y2="290.244"/>
    <line class="uuid-03e5f0e2-5ac6-450b-8e6a-06fa710b77cd" x1="264.166" y1="297.973" x2="250.858" y2="305.686"/>
    <line class="uuid-03e5f0e2-5ac6-450b-8e6a-06fa710b77cd" x1="250.858" y1="305.686" x2="237.505" y2="297.955"/>
    <line class="uuid-03e5f0e2-5ac6-450b-8e6a-06fa710b77cd" x1="237.505" y1="297.955" x2="250.869" y2="290.266"/>
    <line class="uuid-03e5f0e2-5ac6-450b-8e6a-06fa710b77cd" x1="250.866" y1="290.266" x2="264.166" y2="297.973"/>
    <line class="uuid-03e5f0e2-5ac6-450b-8e6a-06fa710b77cd" x1="277.519" y1="305.708" x2="264.21" y2="313.416"/>
    <line class="uuid-03e5f0e2-5ac6-450b-8e6a-06fa710b77cd" x1="264.21" y1="313.42" x2="250.858" y2="305.689"/>
    <line class="uuid-03e5f0e2-5ac6-450b-8e6a-06fa710b77cd" x1="250.858" y1="305.689" x2="264.222" y2="297.999"/>
    <line class="uuid-03e5f0e2-5ac6-450b-8e6a-06fa710b77cd" x1="264.218" y1="297.999" x2="277.519" y2="305.708"/>
    <line class="uuid-03e5f0e2-5ac6-450b-8e6a-06fa710b77cd" x1="264.126" y1="282.535" x2="250.818" y2="290.244"/>
    <line class="uuid-03e5f0e2-5ac6-450b-8e6a-06fa710b77cd" x1="250.818" y1="290.244" x2="237.465" y2="282.513"/>
    <line class="uuid-03e5f0e2-5ac6-450b-8e6a-06fa710b77cd" x1="237.465" y1="282.513" x2="250.825" y2="274.823"/>
    <line class="uuid-eef9679d-65a4-416b-bacc-939e877d177f" x1="250.825" y1="274.826" x2="264.126" y2="282.535"/>
    <line class="uuid-03e5f0e2-5ac6-450b-8e6a-06fa710b77cd" x1="277.478" y1="290.268" x2="264.166" y2="297.977"/>
    <line class="uuid-eef9679d-65a4-416b-bacc-939e877d177f" x1="264.17" y1="297.977" x2="250.818" y2="290.246"/>
    <line class="uuid-03e5f0e2-5ac6-450b-8e6a-06fa710b77cd" x1="250.818" y1="290.246" x2="264.178" y2="282.557"/>
    <line class="uuid-eef9679d-65a4-416b-bacc-939e877d177f" x1="264.178" y1="282.561" x2="277.478" y2="290.266"/>
    <line class="uuid-03e5f0e2-5ac6-450b-8e6a-06fa710b77cd" x1="290.827" y1="297.999" x2="277.519" y2="305.711"/>
    <line class="uuid-03e5f0e2-5ac6-450b-8e6a-06fa710b77cd" x1="277.519" y1="305.711" x2="264.166" y2="297.981"/>
    <line class="uuid-03e5f0e2-5ac6-450b-8e6a-06fa710b77cd" x1="264.166" y1="297.981" x2="277.529" y2="290.29"/>
    <line class="uuid-eef9679d-65a4-416b-bacc-939e877d177f" x1="277.529" y1="290.29" x2="290.831" y2="297.999"/>
    <line class="uuid-03e5f0e2-5ac6-450b-8e6a-06fa710b77cd" x1="277.434" y1="274.823" x2="264.126" y2="282.535"/>
    <line class="uuid-03e5f0e2-5ac6-450b-8e6a-06fa710b77cd" x1="264.126" y1="282.535" x2="250.773" y2="274.804"/>
    <line class="uuid-03e5f0e2-5ac6-450b-8e6a-06fa710b77cd" x1="250.773" y1="274.804" x2="264.134" y2="267.115"/>
    <line class="uuid-eef9679d-65a4-416b-bacc-939e877d177f" x1="264.134" y1="267.115" x2="277.434" y2="274.823"/>
    <line class="uuid-03e5f0e2-5ac6-450b-8e6a-06fa710b77cd" x1="290.787" y1="282.557" x2="277.475" y2="290.266"/>
    <line class="uuid-eef9679d-65a4-416b-bacc-939e877d177f" x1="277.478" y1="290.268" x2="264.126" y2="282.535"/>
    <line class="uuid-03e5f0e2-5ac6-450b-8e6a-06fa710b77cd" x1="264.126" y1="282.539" x2="277.485" y2="274.848"/>
    <line class="uuid-eef9679d-65a4-416b-bacc-939e877d177f" x1="277.485" y1="274.848" x2="290.787" y2="282.557"/>
    <line class="uuid-03e5f0e2-5ac6-450b-8e6a-06fa710b77cd" x1="304.136" y1="290.29" x2="290.827" y2="297.999"/>
    <line class="uuid-03e5f0e2-5ac6-450b-8e6a-06fa710b77cd" x1="290.827" y1="298.003" x2="277.475" y2="290.268"/>
    <line class="uuid-03e5f0e2-5ac6-450b-8e6a-06fa710b77cd" x1="277.475" y1="290.272" x2="290.838" y2="282.583"/>
    <line class="uuid-eef9679d-65a4-416b-bacc-939e877d177f" x1="290.838" y1="282.583" x2="304.139" y2="290.29"/>
    <line class="uuid-03e5f0e2-5ac6-450b-8e6a-06fa710b77cd" x1="202.834" y1="302.62" x2="216.136" y2="310.329"/>
    <line class="uuid-eef9679d-65a4-416b-bacc-939e877d177f" x1="216.187" y1="310.355" x2="229.489" y2="318.06"/>
    <line class="uuid-eef9679d-65a4-416b-bacc-939e877d177f" x1="229.539" y1="318.085" x2="242.84" y2="325.793"/>
    <line class="uuid-03e5f0e2-5ac6-450b-8e6a-06fa710b77cd" x1="229.443" y1="302.618" x2="216.136" y2="310.329"/>
    <line class="uuid-03e5f0e2-5ac6-450b-8e6a-06fa710b77cd" x1="216.136" y1="310.329" x2="202.784" y2="302.598"/>
    <line class="uuid-03e5f0e2-5ac6-450b-8e6a-06fa710b77cd" x1="202.784" y1="302.598" x2="216.143" y2="294.909"/>
    <line class="uuid-eef9679d-65a4-416b-bacc-939e877d177f" x1="216.143" y1="294.909" x2="229.443" y2="302.618"/>
    <line class="uuid-03e5f0e2-5ac6-450b-8e6a-06fa710b77cd" x1="242.796" y1="310.351" x2="229.485" y2="318.06"/>
    <line class="uuid-03e5f0e2-5ac6-450b-8e6a-06fa710b77cd" x1="229.489" y1="318.062" x2="216.136" y2="310.333"/>
    <line class="uuid-03e5f0e2-5ac6-450b-8e6a-06fa710b77cd" x1="216.136" y1="310.333" x2="229.495" y2="302.642"/>
    <line class="uuid-eef9679d-65a4-416b-bacc-939e877d177f" x1="229.495" y1="302.642" x2="242.796" y2="310.351"/>
    <line class="uuid-03e5f0e2-5ac6-450b-8e6a-06fa710b77cd" x1="256.146" y1="318.085" x2="242.837" y2="325.793"/>
    <line class="uuid-03e5f0e2-5ac6-450b-8e6a-06fa710b77cd" x1="242.837" y1="325.797" x2="229.485" y2="318.062"/>
    <line class="uuid-eef9679d-65a4-416b-bacc-939e877d177f" x1="229.485" y1="318.066" x2="242.848" y2="310.377"/>
    <line class="uuid-eef9679d-65a4-416b-bacc-939e877d177f" x1="242.848" y1="310.377" x2="256.148" y2="318.085"/>
  </g>
</svg>