<?xml version="1.0" encoding="UTF-8"?>
<svg id="uuid-63157ab3-6dd6-4f0d-aad3-b88d28741005" data-name="&amp;lt;Layer&amp;gt;" xmlns="http://www.w3.org/2000/svg" viewBox="0 0 451.11 451.11">
  <defs>
    <style>
      .uuid-bdb4b7cf-0b0c-417a-8b69-73cbe7cf2b9f, .uuid-e41e9d76-5d62-45c5-a845-f1aa3a8ad7a2, .uuid-51c853b4-e8d5-4911-bd74-148ec47bd4bd, .uuid-09571ee6-84cd-407d-8e07-e8b81ad1575f, .uuid-6ae61b7c-b0c6-4ec0-8170-966f183bfcd7 {
        fill: none;
        stroke: #000;
        stroke-linecap: round;
      }

      .uuid-bdb4b7cf-0b0c-417a-8b69-73cbe7cf2b9f, .uuid-6ae61b7c-b0c6-4ec0-8170-966f183bfcd7 {
        stroke-linejoin: round;
        stroke-width: 4.117px;
      }

      .uuid-e41e9d76-5d62-45c5-a845-f1aa3a8ad7a2 {
        stroke-width: 1.163px;
      }

      .uuid-e41e9d76-5d62-45c5-a845-f1aa3a8ad7a2, .uuid-51c853b4-e8d5-4911-bd74-148ec47bd4bd, .uuid-09571ee6-84cd-407d-8e07-e8b81ad1575f {
        stroke-miterlimit: 10;
      }

      .uuid-51c853b4-e8d5-4911-bd74-148ec47bd4bd {
        stroke-width: 1.167px;
      }

      .uuid-09571ee6-84cd-407d-8e07-e8b81ad1575f {
        stroke-width: 1.159px;
      }

      .uuid-6ae61b7c-b0c6-4ec0-8170-966f183bfcd7 {
        fill-rule: evenodd;
      }
    </style>
  </defs>
  <path class="uuid-6ae61b7c-b0c6-4ec0-8170-966f183bfcd7" d="M228.347,183.171q.243,0,.489-.047c.732-.174,2.443-.858,4.398-1.785"/>
  <path class="uuid-6ae61b7c-b0c6-4ec0-8170-966f183bfcd7" d="M269.877,160.013c1.464-.806,2.443-1.733,3.418-2.663,3.423-3.492,4.155-7.547,5.862-11.848.247-.291.247-.632.489-.927.979-2.148,2.2-4.374,4.154-6.572.489-.341.732-.636.975-.979.489-.291.736-.658.979-.927q.243-.074.243-.122c.98-.879,2.201-1.805,3.666-2.663.489-.291.979-.658,1.468-.953,7.083-4.566,20.031-12.141,31.51-15.56,6.596-1.979,12.948-2.539,17.344-.437"/>
  <path class="uuid-6ae61b7c-b0c6-4ec0-8170-966f183bfcd7" d="M216.136,176.622c-.489.051-.736.173-.979.341-.243.126-.489.247-.732.369-.247.048-.489.173-.732.269-5.132,2.148-12.705,6.913-20.524,12.506-1.221.809-2.443,1.611-3.664,2.421-9.279,7.035-18.32,14.923-22.959,20.859-3.908,5.154-6.841,11.556-9.283,18.517"/>
  <path class="uuid-6ae61b7c-b0c6-4ec0-8170-966f183bfcd7" d="M289.907,87.438c-7.819-4.202-18.324.269-25.896,3.638-44.214,19.862-31.023,25.796-40.06,36.522-3.664,4.077-41.04,24.916-42.751,25.745-10.015-5.688-10.747-8.377-18.563-4.372-15.637,8.136-35.421,21.031-47.147,36.887-.979,1.442-1.953,2.906-2.932,4.422-.489.854-.975,1.781-1.464,2.711-.489.832-.979,1.685-1.468,2.565-.486.806-.732,1.685-.975,2.543-7.087,17.366-10.505,67.958-13.928,91.186-2.196,12.998-8.057,31.244.979,41.455.244.415.733.758,1.223,1.099.243.247.489.489.732.659,7.082,5.275,28.581,17.223,42.018,24.722,1.464,1.001,3.176,1.931,4.883,2.784,1.954,1.101,3.664,2.027,4.643,2.665"/>
  <path class="uuid-6ae61b7c-b0c6-4ec0-8170-966f183bfcd7" d="M148.954,362.449s0-.048-.243-.048v-.174c-.732-.411-1.221-.953-1.711-1.464-.243-.221-.489-.463-.732-.684"/>
  <path class="uuid-6ae61b7c-b0c6-4ec0-8170-966f183bfcd7" d="M221.997,145.112c5.618,0,10.258,2.637,10.258,5.908s-4.64,5.916-10.258,5.916-10.258-2.641-10.258-5.916,4.639-5.908,10.258-5.908Z"/>
  <path class="uuid-6ae61b7c-b0c6-4ec0-8170-966f183bfcd7" d="M133.078,183.341c3.422-6.446,6.839-10.431,12.458-15.17,4.886-4.25,16.122-11.627,21.742-14.582,1.711-.832,3.907-1.785,5.618-.953"/>
  <path class="uuid-6ae61b7c-b0c6-4ec0-8170-966f183bfcd7" d="M194.39,163.773c-2.443-.927-4.886.391-6.593,1.468-11.237,6.399-25.65,15.535-32.246,26.966"/>
  <polyline class="uuid-6ae61b7c-b0c6-4ec0-8170-966f183bfcd7" points="155.551 192.207 154.33 194.481 133.078 183.341"/>
  <path class="uuid-6ae61b7c-b0c6-4ec0-8170-966f183bfcd7" d="M154.577,194.361c4.639-9.921,13.922-17.809,33.221-29.119,5.618-3.321,7.814-1.689,8.303.537"/>
  <polyline class="uuid-6ae61b7c-b0c6-4ec0-8170-966f183bfcd7" points="196.101 165.779 196.834 169.834 154.577 194.361"/>
  <path class="uuid-6ae61b7c-b0c6-4ec0-8170-966f183bfcd7" d="M248.625,115.75c.732-6.254,3.66-10.625,9.037-13.826,6.35-3.69,21.742-12.654,29.314-11.457"/>
  <polyline class="uuid-6ae61b7c-b0c6-4ec0-8170-966f183bfcd7" points="286.975 90.466 289.907 91.493 311.16 102.608"/>
  <path class="uuid-6ae61b7c-b0c6-4ec0-8170-966f183bfcd7" d="M311.16,102.608c-1.466-.784-2.687-1.147-4.398-1.147-7.571.048-21.252,7.914-27.606,11.6-6.351,3.764-8.305,8.088-9.526,15.56"/>
  <path class="uuid-6ae61b7c-b0c6-4ec0-8170-966f183bfcd7" d="M270.119,124.983c.489-3.956,2.2-8.01,9.037-11.922,19.788-11.578,28.827-14.117,33.468-9.231"/>
  <polyline class="uuid-6ae61b7c-b0c6-4ec0-8170-966f183bfcd7" points="312.624 103.829 270.609 128.036 269.63 128.621 270.119 124.983"/>
  <path class="uuid-6ae61b7c-b0c6-4ec0-8170-966f183bfcd7" d="M165.567,214.755c-3.666,5.302-6.841,9.747-8.305,17.175-.247,1.49-17.345,110.025-15.88,117.865.979,5.449,3.175,9.721,7.818,12.875"/>
  <path class="uuid-6ae61b7c-b0c6-4ec0-8170-966f183bfcd7" d="M148.711,362.427c-15.144-8.677-38.349-19.983-51.786-30.587-.489-.341-.979-.684-1.223-1.075-9.282-10.236-3.175-28.46-.979-41.455,3.423-23.278,6.84-73.822,13.681-91.21,1.957-4.228,4.154-8.308,7.086-12.215"/>
  <path class="uuid-6ae61b7c-b0c6-4ec0-8170-966f183bfcd7" d="M339.983,116.361c1.221.732,2.443,1.733,3.422,3.002.244.343.487.684.733,1.101.489.758.975,1.563,1.221,2.491.243.415.489.879.732,1.342.489,1.395.979,2.911,1.464,4.596,0,.511.247,1.049.247,1.633,1.711,6.939,2.686,16.124,3.907,27.213,0,1.295.247,2.569.247,3.912,0,.463.243.975.243,1.512.243,2.126.489,4.348.732,6.67,1.465,11.774,3.423,25.211,6.841,40.06,1.953,9.53-.732,21.3-7.33,33.616-6.593,12.384-15.39,22.032-25.649,27.993"/>
  <path class="uuid-6ae61b7c-b0c6-4ec0-8170-966f183bfcd7" d="M326.303,271.797c-7.083,4.08-13.433,5.57-18.809,4.812-.732-.099-1.464-.221-1.953-.389-.489-.126-.975-.295-1.464-.467-.489-.122-.979-.291-1.221-.534-.489-.173-.979-.395-1.468-.736"/>
  <path class="uuid-6ae61b7c-b0c6-4ec0-8170-966f183bfcd7" d="M157.994,229.293v-.343c1.464-4.08,3.422-7.841,5.619-11.506,0-.051.245-.173.245-.221.487-.832.976-1.637,1.708-2.443.247-.463.489-.927.979-1.394,5.375-6.911,12.458-13.533,22.959-20.859,1.221-.81,2.443-1.612,3.664-2.421,5.376-3.566,11.241-7.278,18.081-11.285.489-.221.975-.463,1.464-.684,0-.074.243-.122.243-.17.247-.195.489-.293.736-.367.243-.096.485-.221.732-.269.243-.195.489-.317.732-.369.243-.169.489-.291.979-.341,7.573-2.565,7.573,4.3,10.501,6.159,0,0,0,.048.247,0,.486.221.732.389,1.464.389q.243,0,.489-.047c.975-.052,2.198-.467,3.666-1.343"/>
  <polyline class="uuid-6ae61b7c-b0c6-4ec0-8170-966f183bfcd7" points="232.502 181.781 233.234 181.339 233.966 180.923 268.655 160.767 269.877 160.013"/>
  <path class="uuid-6ae61b7c-b0c6-4ec0-8170-966f183bfcd7" d="M301.387,274.408c-6.77-2.697-9.125-16.987-9.526-23.28-.489-5.228-1.464-11.089-3.175-14.29-.979-1.269-2.2-2.197-3.423-2.713-.243,0-.243-.073-.243-.073-2.689-.928-6.35-.343-10.262,1.905"/>
  <polyline class="uuid-6ae61b7c-b0c6-4ec0-8170-966f183bfcd7" points="274.758 235.959 254.729 247.587 226.883 263.908"/>
  <path class="uuid-6ae61b7c-b0c6-4ec0-8170-966f183bfcd7" d="M174.361,360.252c-10.258,5.982-19.052,6.668-25.65,2.149v-.174c-.732-.463-1.221-.953-1.711-1.464-.243-.221-.489-.463-.732-.684"/>
  <polygon class="uuid-6ae61b7c-b0c6-4ec0-8170-966f183bfcd7" points="243.003 235.522 264.991 222.695 264.991 229.609 243.003 242.409 243.003 235.522"/>
  <polyline class="uuid-6ae61b7c-b0c6-4ec0-8170-966f183bfcd7" points="204.895 222.011 204.895 230.977 212.714 226.481"/>
  <polyline class="uuid-6ae61b7c-b0c6-4ec0-8170-966f183bfcd7" points="212.471 245.852 204.895 250.349 204.895 259.337"/>
  <polyline class="uuid-6ae61b7c-b0c6-4ec0-8170-966f183bfcd7" points="188.04 269.084 188.04 260.117 180.225 264.614"/>
  <polyline class="uuid-6ae61b7c-b0c6-4ec0-8170-966f183bfcd7" points="180.468 245.242 188.04 240.724 188.287 231.757"/>
  <path class="uuid-6ae61b7c-b0c6-4ec0-8170-966f183bfcd7" d="M326.061,170.054c5.618-3.227,10.258-11.094,10.258-17.54s-4.64-9.087-10.258-5.864c-5.619,3.227-10.015,11.089-10.015,17.564s4.396,9.063,10.015,5.84Z"/>
  <path class="uuid-6ae61b7c-b0c6-4ec0-8170-966f183bfcd7" d="M303.83,206.94c5.619-3.249,10.015-11.093,10.015-17.564s-4.396-9.089-10.015-5.84c-5.618,3.227-10.015,11.09-10.015,17.566s4.398,9.061,10.015,5.838Z"/>
  <line class="uuid-bdb4b7cf-0b0c-417a-8b69-73cbe7cf2b9f" x1="233.234" y1="181.339" x2="233.477" y2="181.093"/>
  <path class="uuid-6ae61b7c-b0c6-4ec0-8170-966f183bfcd7" d="M233.477,181.093c9.773-4.809,29.07-16.609,35.178-20.325"/>
  <line class="uuid-bdb4b7cf-0b0c-417a-8b69-73cbe7cf2b9f" x1="268.655" y1="160.767" x2="269.877" y2="160.013"/>
  <path class="uuid-6ae61b7c-b0c6-4ec0-8170-966f183bfcd7" d="M340.23,116.409c-.247,0-.247-.048-.247-.048"/>
  <line class="uuid-bdb4b7cf-0b0c-417a-8b69-73cbe7cf2b9f" x1="339.983" y1="116.361" x2="289.907" y2="87.438"/>
  <line class="uuid-bdb4b7cf-0b0c-417a-8b69-73cbe7cf2b9f" x1="149.2" y1="362.67" x2="148.954" y2="362.449"/>
  <line class="uuid-bdb4b7cf-0b0c-417a-8b69-73cbe7cf2b9f" x1="146.268" y1="360.079" x2="146.025" y2="360.005"/>
  <line class="uuid-bdb4b7cf-0b0c-417a-8b69-73cbe7cf2b9f" x1="172.895" y1="152.637" x2="194.39" y2="163.773"/>
  <line class="uuid-bdb4b7cf-0b0c-417a-8b69-73cbe7cf2b9f" x1="269.63" y1="128.621" x2="248.625" y2="115.75"/>
  <line class="uuid-bdb4b7cf-0b0c-417a-8b69-73cbe7cf2b9f" x1="115.49" y1="185.883" x2="165.567" y2="214.755"/>
  <line class="uuid-bdb4b7cf-0b0c-417a-8b69-73cbe7cf2b9f" x1="301.387" y1="274.482" x2="301.387" y2="274.408"/>
  <path class="uuid-6ae61b7c-b0c6-4ec0-8170-966f183bfcd7" d="M301.387,274.408c-6.594-3.76-33.464-18.515-46.658-26.822"/>
  <path class="uuid-6ae61b7c-b0c6-4ec0-8170-966f183bfcd7" d="M226.883,263.908c-7.819,4.518-14.412,14.287-15.633,23.228"/>
  <line class="uuid-bdb4b7cf-0b0c-417a-8b69-73cbe7cf2b9f" x1="211.25" y1="287.135" x2="207.827" y2="310.662"/>
  <path class="uuid-6ae61b7c-b0c6-4ec0-8170-966f183bfcd7" d="M207.827,310.662c-2.686,18.982-16.612,39.645-32.977,49.297"/>
  <line class="uuid-bdb4b7cf-0b0c-417a-8b69-73cbe7cf2b9f" x1="174.85" y1="359.958" x2="174.361" y2="360.252"/>
  <line class="uuid-bdb4b7cf-0b0c-417a-8b69-73cbe7cf2b9f" x1="194.39" y1="221.179" x2="198.788" y2="218.519"/>
  <path class="uuid-6ae61b7c-b0c6-4ec0-8170-966f183bfcd7" d="M198.788,218.519c3.422-1.957,6.107-.393,6.107,3.492"/>
  <path class="uuid-6ae61b7c-b0c6-4ec0-8170-966f183bfcd7" d="M212.714,226.481c3.175-1.953,6.107-.389,5.861,3.492"/>
  <line class="uuid-bdb4b7cf-0b0c-417a-8b69-73cbe7cf2b9f" x1="218.575" y1="229.973" x2="218.575" y2="235.253"/>
  <path class="uuid-6ae61b7c-b0c6-4ec0-8170-966f183bfcd7" d="M218.575,235.253c0,3.881-2.685,8.646-6.103,10.599"/>
  <path class="uuid-6ae61b7c-b0c6-4ec0-8170-966f183bfcd7" d="M204.895,259.337c-.243,3.882-2.928,8.621-6.35,10.575"/>
  <line class="uuid-bdb4b7cf-0b0c-417a-8b69-73cbe7cf2b9f" x1="198.545" y1="269.912" x2="194.148" y2="272.577"/>
  <path class="uuid-6ae61b7c-b0c6-4ec0-8170-966f183bfcd7" d="M194.148,272.577c-3.422,1.953-6.107.367-6.107-3.493"/>
  <path class="uuid-6ae61b7c-b0c6-4ec0-8170-966f183bfcd7" d="M180.225,264.614c-3.175,1.955-6.108.369-6.108-3.492"/>
  <line class="uuid-bdb4b7cf-0b0c-417a-8b69-73cbe7cf2b9f" x1="174.117" y1="261.122" x2="174.361" y2="255.821"/>
  <path class="uuid-6ae61b7c-b0c6-4ec0-8170-966f183bfcd7" d="M174.361,255.821c0-3.886,2.689-8.647,6.107-10.579"/>
  <path class="uuid-6ae61b7c-b0c6-4ec0-8170-966f183bfcd7" d="M188.287,231.757c0-3.86,2.685-8.624,6.103-10.579"/>
  <line class="uuid-e41e9d76-5d62-45c5-a845-f1aa3a8ad7a2" x1="357.818" y1="201.617" x2="314.577" y2="276.315"/>
  <line class="uuid-e41e9d76-5d62-45c5-a845-f1aa3a8ad7a2" x1="352.688" y1="165.215" x2="294.057" y2="266.593"/>
  <line class="uuid-e41e9d76-5d62-45c5-a845-f1aa3a8ad7a2" x1="346.334" y1="131.09" x2="336.808" y2="147.603"/>
  <line class="uuid-e41e9d76-5d62-45c5-a845-f1aa3a8ad7a2" x1="322.15" y1="173.083" x2="315.067" y2="185.272"/>
  <line class="uuid-e41e9d76-5d62-45c5-a845-f1aa3a8ad7a2" x1="301.144" y1="209.504" x2="286.975" y2="233.811"/>
  <line class="uuid-e41e9d76-5d62-45c5-a845-f1aa3a8ad7a2" x1="330.21" y1="113.893" x2="264.991" y2="226.918"/>
  <line class="uuid-e41e9d76-5d62-45c5-a845-f1aa3a8ad7a2" x1="260.836" y1="234.2" x2="253.997" y2="246"/>
  <line class="uuid-e41e9d76-5d62-45c5-a845-f1aa3a8ad7a2" x1="295.07" y1="129.614" x2="158.911" y2="365.377"/>
  <line class="uuid-e41e9d76-5d62-45c5-a845-f1aa3a8ad7a2" x1="240.559" y1="178.602" x2="213.936" y2="225.138"/>
  <line class="uuid-e41e9d76-5d62-45c5-a845-f1aa3a8ad7a2" x1="188.04" y1="269.647" x2="141.872" y2="349.817"/>
  <line class="uuid-e41e9d76-5d62-45c5-a845-f1aa3a8ad7a2" x1="216.136" y1="175.989" x2="148.711" y2="292.879"/>
  <line class="uuid-e41e9d76-5d62-45c5-a845-f1aa3a8ad7a2" x1="139.428" y1="344.151" x2="129.659" y2="349.696"/>
  <line class="uuid-e41e9d76-5d62-45c5-a845-f1aa3a8ad7a2" x1="141.383" y1="330.008" x2="117.933" y2="343.467"/>
  <line class="uuid-e41e9d76-5d62-45c5-a845-f1aa3a8ad7a2" x1="144.072" y1="315.401" x2="106.449" y2="337.142"/>
  <line class="uuid-e41e9d76-5d62-45c5-a845-f1aa3a8ad7a2" x1="146.511" y1="300.989" x2="95.702" y2="330.35"/>
  <line class="uuid-e41e9d76-5d62-45c5-a845-f1aa3a8ad7a2" x1="148.711" y1="286.65" x2="91.063" y2="319.845"/>
  <line class="uuid-e41e9d76-5d62-45c5-a845-f1aa3a8ad7a2" x1="150.911" y1="272.355" x2="91.795" y2="306.412"/>
  <line class="uuid-e41e9d76-5d62-45c5-a845-f1aa3a8ad7a2" x1="152.866" y1="258.091" x2="94.723" y2="291.78"/>
  <line class="uuid-e41e9d76-5d62-45c5-a845-f1aa3a8ad7a2" x1="155.309" y1="243.778" x2="96.435" y2="277.657"/>
  <line class="uuid-e41e9d76-5d62-45c5-a845-f1aa3a8ad7a2" x1="157.505" y1="229.363" x2="98.146" y2="263.709"/>
  <line class="uuid-e41e9d76-5d62-45c5-a845-f1aa3a8ad7a2" x1="162.88" y1="213.217" x2="99.61" y2="249.859"/>
  <line class="uuid-e41e9d76-5d62-45c5-a845-f1aa3a8ad7a2" x1="151.154" y1="206.962" x2="101.81" y2="235.57"/>
  <line class="uuid-e41e9d76-5d62-45c5-a845-f1aa3a8ad7a2" x1="139.428" y1="200.711" x2="104.253" y2="221.058"/>
  <line class="uuid-e41e9d76-5d62-45c5-a845-f1aa3a8ad7a2" x1="127.705" y1="194.481" x2="107.672" y2="206.013"/>
  <line class="uuid-e41e9d76-5d62-45c5-a845-f1aa3a8ad7a2" x1="134.299" y1="194.676" x2="124.531" y2="177.774"/>
  <line class="uuid-e41e9d76-5d62-45c5-a845-f1aa3a8ad7a2" x1="168.499" y1="208.794" x2="159.458" y2="193.186"/>
  <line class="uuid-e41e9d76-5d62-45c5-a845-f1aa3a8ad7a2" x1="144.315" y1="166.754" x2="142.361" y2="163.509"/>
  <line class="uuid-e41e9d76-5d62-45c5-a845-f1aa3a8ad7a2" x1="185.598" y1="193.382" x2="179.004" y2="182.023"/>
  <line class="uuid-e41e9d76-5d62-45c5-a845-f1aa3a8ad7a2" x1="162.88" y1="153.884" x2="161.659" y2="151.756"/>
  <line class="uuid-e41e9d76-5d62-45c5-a845-f1aa3a8ad7a2" x1="204.409" y1="180.655" x2="198.545" y2="170.592"/>
  <line class="uuid-e41e9d76-5d62-45c5-a845-f1aa3a8ad7a2" x1="193.169" y1="160.966" x2="187.551" y2="151.684"/>
  <line class="uuid-e41e9d76-5d62-45c5-a845-f1aa3a8ad7a2" x1="230.79" y1="181.144" x2="217.11" y2="157.717"/>
  <line class="uuid-e41e9d76-5d62-45c5-a845-f1aa3a8ad7a2" x1="211.25" y1="147.503" x2="207.338" y2="140.568"/>
  <line class="uuid-e41e9d76-5d62-45c5-a845-f1aa3a8ad7a2" x1="250.821" y1="170.666" x2="225.415" y2="126.597"/>
  <line class="uuid-e41e9d76-5d62-45c5-a845-f1aa3a8ad7a2" x1="270.362" y1="159.646" x2="238.852" y2="104.804"/>
  <line class="uuid-e41e9d76-5d62-45c5-a845-f1aa3a8ad7a2" x1="283.067" y1="136.392" x2="277.203" y2="126.178"/>
  <line class="uuid-e41e9d76-5d62-45c5-a845-f1aa3a8ad7a2" x1="260.836" y1="97.869" x2="259.372" y2="95.4"/>
  <line class="uuid-e41e9d76-5d62-45c5-a845-f1aa3a8ad7a2" x1="301.876" y1="123.934" x2="296.747" y2="114.941"/>
  <line class="uuid-51c853b4-e8d5-4911-bd74-148ec47bd4bd" x1="281.846" y1="88.828" x2="280.197" y2="86.64"/>
  <line class="uuid-e41e9d76-5d62-45c5-a845-f1aa3a8ad7a2" x1="322.886" y1="114.941" x2="316.35" y2="103.329"/>
  <line class="uuid-e41e9d76-5d62-45c5-a845-f1aa3a8ad7a2" x1="306.858" y1="202.746" x2="295.621" y2="196.274"/>
  <line class="uuid-e41e9d76-5d62-45c5-a845-f1aa3a8ad7a2" x1="313.231" y1="193.499" x2="300.972" y2="186.401"/>
  <line class="uuid-e41e9d76-5d62-45c5-a845-f1aa3a8ad7a2" x1="291.941" y1="252.292" x2="277.654" y2="260.56"/>
  <line class="uuid-09571ee6-84cd-407d-8e07-e8b81ad1575f" x1="289.576" y1="240.599" x2="265.928" y2="254.283"/>
  <line class="uuid-e41e9d76-5d62-45c5-a845-f1aa3a8ad7a2" x1="229.569" y1="153.026" x2="219.311" y2="147.165"/>
</svg>