<?xml version="1.0" encoding="UTF-8"?>
<svg id="uuid-ec5c1e76-6d04-4d4a-a992-03df09d6128e" data-name="&amp;lt;Layer&amp;gt;" xmlns="http://www.w3.org/2000/svg" viewBox="0 0 451.11 451.11">
  <defs>
    <style>
      .uuid-55c8bc5e-b47b-40cf-b764-d8682cc85eac, .uuid-227cf299-38b8-4fd6-965e-1987c6e2a645, .uuid-a4eecd2e-72dd-4ca3-a382-6dfe2f49557a, .uuid-3cd62bd8-a4d3-4894-a771-4a11ba611e3c {
        fill: none;
        stroke: #000;
        stroke-linecap: round;
      }

      .uuid-55c8bc5e-b47b-40cf-b764-d8682cc85eac, .uuid-3cd62bd8-a4d3-4894-a771-4a11ba611e3c {
        stroke-linejoin: round;
        stroke-width: 4.117px;
      }

      .uuid-227cf299-38b8-4fd6-965e-1987c6e2a645 {
        stroke-miterlimit: 10;
      }

      .uuid-227cf299-38b8-4fd6-965e-1987c6e2a645, .uuid-a4eecd2e-72dd-4ca3-a382-6dfe2f49557a {
        stroke-width: 1.163px;
      }

      .uuid-a4eecd2e-72dd-4ca3-a382-6dfe2f49557a {
        stroke-miterlimit: 22.926;
      }

      .uuid-a4eecd2e-72dd-4ca3-a382-6dfe2f49557a, .uuid-3cd62bd8-a4d3-4894-a771-4a11ba611e3c {
        fill-rule: evenodd;
      }
    </style>
  </defs>
  <g>
    <line class="uuid-55c8bc5e-b47b-40cf-b764-d8682cc85eac" x1="148.592" y1="323.433" x2="148.592" y2="163.624"/>
    <path class="uuid-3cd62bd8-a4d3-4894-a771-4a11ba611e3c" d="M149.35,161.305c.343-.684.931-1.221,1.49-1.564"/>
    <path class="uuid-3cd62bd8-a4d3-4894-a771-4a11ba611e3c" d="M161.175,154.513c-.051,0-.099-.052-.173-.052,0,0-.048-.069-.099-.069"/>
    <line class="uuid-55c8bc5e-b47b-40cf-b764-d8682cc85eac" x1="160.903" y1="154.392" x2="137.211" y2="140.639"/>
    <path class="uuid-3cd62bd8-a4d3-4894-a771-4a11ba611e3c" d="M137.211,140.639c-.71-.247-.931-.122-1.589.169-2.711,1.564-5.497,3.201-8.234,4.765-1.685.975-2.613,2.196-2.782,4.176"/>
    <line class="uuid-55c8bc5e-b47b-40cf-b764-d8682cc85eac" x1="124.606" y1="149.748" x2="124.606" y2="344.979"/>
    <path class="uuid-3cd62bd8-a4d3-4894-a771-4a11ba611e3c" d="M124.606,344.979c.048,1.807.343,3.201,1.98,4.298"/>
    <line class="uuid-55c8bc5e-b47b-40cf-b764-d8682cc85eac" x1="126.586" y1="349.276" x2="150.571" y2="363.104"/>
    <path class="uuid-3cd62bd8-a4d3-4894-a771-4a11ba611e3c" d="M150.571,363.104c-.658-.343-1.123-.928-1.464-1.685-.173-.291-.294-.637-.343-1.049-.121-.465-.173-.979-.173-1.564"/>
    <line class="uuid-55c8bc5e-b47b-40cf-b764-d8682cc85eac" x1="148.592" y1="358.806" x2="148.592" y2="335.866"/>
    <line class="uuid-55c8bc5e-b47b-40cf-b764-d8682cc85eac" x1="161.882" y1="343.537" x2="324.303" y2="249.732"/>
    <path class="uuid-3cd62bd8-a4d3-4894-a771-4a11ba611e3c" d="M324.303,249.732c.174-.096.369-.217.537-.217.173-.052.343-.122.467-.122.096,0,.217.07.391.122"/>
    <line class="uuid-55c8bc5e-b47b-40cf-b764-d8682cc85eac" x1="325.651" y1="249.463" x2="301.904" y2="235.761"/>
    <path class="uuid-3cd62bd8-a4d3-4894-a771-4a11ba611e3c" d="M301.904,235.761c-.706-.295-.927-.196-1.637.095"/>
    <line class="uuid-55c8bc5e-b47b-40cf-b764-d8682cc85eac" x1="300.267" y1="235.856" x2="294.527" y2="239.183"/>
    <path class="uuid-3cd62bd8-a4d3-4894-a771-4a11ba611e3c" d="M155.214,362.641c-1.857,1.073-3.495,1.173-4.717.463-1.221-.684-1.905-2.174-1.905-4.276"/>
    <line class="uuid-55c8bc5e-b47b-40cf-b764-d8682cc85eac" x1="148.592" y1="358.828" x2="148.592" y2="163.601"/>
    <path class="uuid-3cd62bd8-a4d3-4894-a771-4a11ba611e3c" d="M148.592,163.601c0-1.417.979-3.154,2.2-3.86,2.954-1.685,5.862-3.396,8.82-5.082,1.221-.71,2.222-.125,2.222,1.295"/>
    <path class="uuid-3cd62bd8-a4d3-4894-a771-4a11ba611e3c" d="M161.834,155.955l.048,32.88M161.882,331.104l-.048,12.406,162.421-93.779"/>
    <path class="uuid-3cd62bd8-a4d3-4894-a771-4a11ba611e3c" d="M324.255,249.732c1.223-.706,2.248-.148,2.248,1.295v10.136c0,1.42-1.025,3.153-2.248,3.885"/>
    <line class="uuid-55c8bc5e-b47b-40cf-b764-d8682cc85eac" x1="324.255" y1="265.048" x2="155.214" y2="362.641"/>
    <path class="uuid-3cd62bd8-a4d3-4894-a771-4a11ba611e3c" d="M272.69,124.832l-.052.052"/>
    <polyline class="uuid-3cd62bd8-a4d3-4894-a771-4a11ba611e3c" points="294.527 167.63 294.527 254.497 161.882 331.104 161.882 188.835 245.963 140.296"/>
    <line class="uuid-55c8bc5e-b47b-40cf-b764-d8682cc85eac" x1="251.897" y1="166.239" x2="243.129" y2="161.179"/>
    <path class="uuid-3cd62bd8-a4d3-4894-a771-4a11ba611e3c" d="M243.129,161.179c-.536-.415-.706-.558-1.048-1.121"/>
    <line class="uuid-55c8bc5e-b47b-40cf-b764-d8682cc85eac" x1="242.082" y1="160.058" x2="239.517" y2="155.536"/>
    <path class="uuid-3cd62bd8-a4d3-4894-a771-4a11ba611e3c" d="M239.517,155.536c-.979-2.024-.684-3.907-.052-6.008,1.101-3.175,2.274-4.396,4.422-6.913,3.666-4.151,7.256-8.279,10.895-12.432,6.74-7.694,13.433-15.388,20.151-23.085,5.718-6.498,11.457-13.022,17.149-19.545"/>
    <line class="uuid-55c8bc5e-b47b-40cf-b764-d8682cc85eac" x1="292.083" y1="87.552" x2="300.855" y2="92.637"/>
    <path class="uuid-3cd62bd8-a4d3-4894-a771-4a11ba611e3c" d="M300.855,92.637c-4.18,4.739-8.307,9.452-12.436,14.191-7.767,8.893-15.56,17.761-23.328,26.649-3.616,4.155-7.208,8.283-10.872,12.438-2.443,2.806-4.298,4.47-5.762,7.888-.736,2.296-1.221,4.518-.173,6.818"/>
    <line class="uuid-55c8bc5e-b47b-40cf-b764-d8682cc85eac" x1="248.285" y1="160.621" x2="250.848" y2="165.114"/>
    <path class="uuid-3cd62bd8-a4d3-4894-a771-4a11ba611e3c" d="M250.848,165.114c.343.562.515.732,1.049,1.125"/>
    <line class="uuid-55c8bc5e-b47b-40cf-b764-d8682cc85eac" x1="279.773" y1="166.361" x2="286.734" y2="170.368"/>
    <path class="uuid-3cd62bd8-a4d3-4894-a771-4a11ba611e3c" d="M286.734,170.368c-.17-.126-.291-.247-.417-.295-.684-.463-1.147-1.221-1.39-2.322-.048-.169-.048-.339-.1-.585-.073-.173-.073-.389-.073-.636"/>
    <line class="uuid-55c8bc5e-b47b-40cf-b764-d8682cc85eac" x1="284.755" y1="166.53" x2="284.364" y2="154.392"/>
    <path class="uuid-3cd62bd8-a4d3-4894-a771-4a11ba611e3c" d="M252.876,166.604h-.047"/>
    <polyline class="uuid-3cd62bd8-a4d3-4894-a771-4a11ba611e3c" points="252.829 166.604 244.767 187.834 209.787 208.107"/>
    <path class="uuid-3cd62bd8-a4d3-4894-a771-4a11ba611e3c" d="M209.787,208.107c-3.301,2.026-5.449,4.812-7.208,8.255"/>
    <line class="uuid-55c8bc5e-b47b-40cf-b764-d8682cc85eac" x1="202.58" y1="216.363" x2="169.601" y2="284.641"/>
    <path class="uuid-3cd62bd8-a4d3-4894-a771-4a11ba611e3c" d="M169.601,284.641c-1.149,2.686-2.443,7.204.658,9.183"/>
    <line class="uuid-55c8bc5e-b47b-40cf-b764-d8682cc85eac" x1="170.259" y1="293.825" x2="179.031" y2="298.884"/>
    <path class="uuid-3cd62bd8-a4d3-4894-a771-4a11ba611e3c" d="M179.031,298.884c-.147-.074-.195-.122-.317-.247-.221-.122-.393-.291-.562-.512-.122-.052-.174-.122-.122-.195-.221-.221-.343-.441-.464-.685-.295-.71-.467-1.515-.467-2.443,0-1.32.341-2.712.809-3.933.122-.415.291-.758.465-1.173"/>
    <line class="uuid-55c8bc5e-b47b-40cf-b764-d8682cc85eac" x1="178.373" y1="289.697" x2="211.351" y2="221.396"/>
    <path class="uuid-3cd62bd8-a4d3-4894-a771-4a11ba611e3c" d="M211.351,221.396c.415-.806.879-1.611,1.39-2.417.537-.832,1.049-1.516,1.637-2.222,1.175-1.395,2.492-2.543,4.177-3.595"/>
    <polyline class="uuid-3cd62bd8-a4d3-4894-a771-4a11ba611e3c" points="218.555 213.162 253.539 192.888 269.026 152.239"/>
    <polyline class="uuid-3cd62bd8-a4d3-4894-a771-4a11ba611e3c" points="218.555 213.188 253.539 192.888 269.026 152.239 259.105 163.601"/>
    <path class="uuid-3cd62bd8-a4d3-4894-a771-4a11ba611e3c" d="M259.105,163.601c-3.101,3.492-6.789,4.15-8.257,1.512"/>
    <path class="uuid-3cd62bd8-a4d3-4894-a771-4a11ba611e3c" d="M248.285,160.621c-1.49-2.665-.218-7.673,2.81-11.168,16.587-18.93,33.148-37.886,49.76-56.816.633,20.909,1.27,41.819,1.906,62.73.196,3.859-2.494,8.698-5.912,10.798"/>
    <line class="uuid-55c8bc5e-b47b-40cf-b764-d8682cc85eac" x1="296.848" y1="166.165" x2="291.082" y2="169.731"/>
    <path class="uuid-3cd62bd8-a4d3-4894-a771-4a11ba611e3c" d="M291.082,169.731c-3.348,2.079-6.203.659-6.328-3.175"/>
    <polyline class="uuid-3cd62bd8-a4d3-4894-a771-4a11ba611e3c" points="284.755 166.556 284.364 154.392 266.166 201.66"/>
    <path class="uuid-3cd62bd8-a4d3-4894-a771-4a11ba611e3c" d="M266.166,201.66c-.732,1.833-1.781,3.614-3.054,5.178-1.342,1.659-2.906,3.027-4.422,3.907"/>
    <polyline class="uuid-3cd62bd8-a4d3-4894-a771-4a11ba611e3c" points="258.69 210.745 222.904 231.512 192.663 294.219"/>
    <path class="uuid-3cd62bd8-a4d3-4894-a771-4a11ba611e3c" d="M192.663,294.219c-2.078,4.296-5.912,7.108-8.65,6.276"/>
    <line class="uuid-55c8bc5e-b47b-40cf-b764-d8682cc85eac" x1="184.013" y1="300.495" x2="179.473" y2="299.053"/>
  </g>
  <line class="uuid-227cf299-38b8-4fd6-965e-1987c6e2a645" x1="164.104" y1="356.216" x2="150.207" y2="332.226"/>
  <line class="uuid-227cf299-38b8-4fd6-965e-1987c6e2a645" x1="183.381" y1="344.417" x2="178.494" y2="335.964"/>
  <line class="uuid-227cf299-38b8-4fd6-965e-1987c6e2a645" x1="160.149" y1="304.233" x2="150.377" y2="287.279"/>
  <line class="uuid-227cf299-38b8-4fd6-965e-1987c6e2a645" x1="202.874" y1="333.132" x2="198.013" y2="324.681"/>
  <line class="uuid-227cf299-38b8-4fd6-965e-1987c6e2a645" x1="160.149" y1="259.065" x2="150.377" y2="242.111"/>
  <line class="uuid-227cf299-38b8-4fd6-965e-1987c6e2a645" x1="222.466" y1="321.843" x2="217.581" y2="313.392"/>
  <line class="uuid-227cf299-38b8-4fd6-965e-1987c6e2a645" x1="160.149" y1="213.92" x2="150.377" y2="196.969"/>
  <line class="uuid-227cf299-38b8-4fd6-965e-1987c6e2a645" x1="242.03" y1="310.536" x2="237.143" y2="302.107"/>
  <line class="uuid-227cf299-38b8-4fd6-965e-1987c6e2a645" x1="160.027" y1="168.509" x2="154.799" y2="159.447"/>
  <line class="uuid-227cf299-38b8-4fd6-965e-1987c6e2a645" x1="261.523" y1="299.274" x2="256.662" y2="290.822"/>
  <line class="uuid-227cf299-38b8-4fd6-965e-1987c6e2a645" x1="281.093" y1="287.986" x2="276.229" y2="279.512"/>
  <line class="uuid-227cf299-38b8-4fd6-965e-1987c6e2a645" x1="300.682" y1="276.701" x2="295.797" y2="268.224"/>
  <line class="uuid-227cf299-38b8-4fd6-965e-1987c6e2a645" x1="320.25" y1="265.391" x2="315.363" y2="256.939"/>
  <line class="uuid-227cf299-38b8-4fd6-965e-1987c6e2a645" x1="146.907" y1="347.297" x2="136.796" y2="353.115"/>
  <line class="uuid-227cf299-38b8-4fd6-965e-1987c6e2a645" x1="147.248" y1="334.033" x2="126.044" y2="346.274"/>
  <line class="uuid-227cf299-38b8-4fd6-965e-1987c6e2a645" x1="147.248" y1="321.015" x2="125.996" y2="333.301"/>
  <line class="uuid-227cf299-38b8-4fd6-965e-1987c6e2a645" x1="147.248" y1="307.969" x2="125.996" y2="320.232"/>
  <line class="uuid-227cf299-38b8-4fd6-965e-1987c6e2a645" x1="147.248" y1="294.925" x2="125.996" y2="307.211"/>
  <line class="uuid-227cf299-38b8-4fd6-965e-1987c6e2a645" x1="147.248" y1="281.904" x2="125.996" y2="294.193"/>
  <line class="uuid-227cf299-38b8-4fd6-965e-1987c6e2a645" x1="147.248" y1="268.86" x2="125.996" y2="281.146"/>
  <line class="uuid-227cf299-38b8-4fd6-965e-1987c6e2a645" x1="147.248" y1="255.817" x2="125.996" y2="268.102"/>
  <line class="uuid-227cf299-38b8-4fd6-965e-1987c6e2a645" x1="147.248" y1="242.796" x2="125.996" y2="255.059"/>
  <line class="uuid-227cf299-38b8-4fd6-965e-1987c6e2a645" x1="147.248" y1="229.753" x2="125.996" y2="242.038"/>
  <line class="uuid-227cf299-38b8-4fd6-965e-1987c6e2a645" x1="147.248" y1="216.731" x2="125.996" y2="228.995"/>
  <line class="uuid-227cf299-38b8-4fd6-965e-1987c6e2a645" x1="147.248" y1="203.688" x2="125.996" y2="215.947"/>
  <line class="uuid-227cf299-38b8-4fd6-965e-1987c6e2a645" x1="147.248" y1="190.64" x2="125.996" y2="202.93"/>
  <line class="uuid-227cf299-38b8-4fd6-965e-1987c6e2a645" x1="147.248" y1="177.622" x2="125.996" y2="189.883"/>
  <line class="uuid-227cf299-38b8-4fd6-965e-1987c6e2a645" x1="147.248" y1="164.576" x2="125.996" y2="176.84"/>
  <line class="uuid-227cf299-38b8-4fd6-965e-1987c6e2a645" x1="150.377" y1="149.726" x2="125.875" y2="163.892"/>
  <line class="uuid-227cf299-38b8-4fd6-965e-1987c6e2a645" x1="138.775" y1="143.423" x2="126.291" y2="150.628"/>
  <line class="uuid-227cf299-38b8-4fd6-965e-1987c6e2a645" x1="164.788" y1="339.504" x2="163.909" y2="338.992"/>
  <line class="uuid-227cf299-38b8-4fd6-965e-1987c6e2a645" x1="176.294" y1="333.106" x2="169.211" y2="329.003"/>
  <line class="uuid-227cf299-38b8-4fd6-965e-1987c6e2a645" x1="187.556" y1="326.582" x2="180.473" y2="322.505"/>
  <line class="uuid-227cf299-38b8-4fd6-965e-1987c6e2a645" x1="198.819" y1="320.062" x2="191.732" y2="315.981"/>
  <line class="uuid-227cf299-38b8-4fd6-965e-1987c6e2a645" x1="210.151" y1="313.539" x2="203.043" y2="309.463"/>
  <line class="uuid-227cf299-38b8-4fd6-965e-1987c6e2a645" x1="221.414" y1="307.019" x2="214.332" y2="302.939"/>
  <line class="uuid-227cf299-38b8-4fd6-965e-1987c6e2a645" x1="232.676" y1="300.517" x2="225.591" y2="296.415"/>
  <line class="uuid-227cf299-38b8-4fd6-965e-1987c6e2a645" x1="243.983" y1="293.997" x2="236.9" y2="289.918"/>
  <line class="uuid-227cf299-38b8-4fd6-965e-1987c6e2a645" x1="255.272" y1="287.475" x2="248.189" y2="283.372"/>
  <line class="uuid-227cf299-38b8-4fd6-965e-1987c6e2a645" x1="266.581" y1="280.955" x2="259.5" y2="276.874"/>
  <line class="uuid-227cf299-38b8-4fd6-965e-1987c6e2a645" x1="277.866" y1="274.453" x2="270.758" y2="270.35"/>
  <line class="uuid-227cf299-38b8-4fd6-965e-1987c6e2a645" x1="289.129" y1="267.933" x2="282.046" y2="263.827"/>
  <line class="uuid-227cf299-38b8-4fd6-965e-1987c6e2a645" x1="300.44" y1="261.41" x2="293.357" y2="257.307"/>
  <line class="uuid-227cf299-38b8-4fd6-965e-1987c6e2a645" x1="311.993" y1="255.059" x2="296.09" y2="245.849"/>
  <line class="uuid-227cf299-38b8-4fd6-965e-1987c6e2a645" x1="246.426" y1="154.244" x2="242.497" y2="147.405"/>
  <line class="uuid-227cf299-38b8-4fd6-965e-1987c6e2a645" x1="253.539" y1="143.934" x2="250.264" y2="138.242"/>
  <line class="uuid-227cf299-38b8-4fd6-965e-1987c6e2a645" x1="261.353" y1="134.968" x2="258.104" y2="129.28"/>
  <line class="uuid-227cf299-38b8-4fd6-965e-1987c6e2a645" x1="269.268" y1="125.979" x2="265.945" y2="120.287"/>
  <line class="uuid-227cf299-38b8-4fd6-965e-1987c6e2a645" x1="277.086" y1="116.99" x2="273.859" y2="111.321"/>
  <line class="uuid-227cf299-38b8-4fd6-965e-1987c6e2a645" x1="284.927" y1="108.024" x2="281.678" y2="102.332"/>
  <line class="uuid-227cf299-38b8-4fd6-965e-1987c6e2a645" x1="292.793" y1="99.061" x2="289.52" y2="93.369"/>
  <line class="uuid-227cf299-38b8-4fd6-965e-1987c6e2a645" x1="174.314" y1="293.925" x2="170.602" y2="287.475"/>
  <line class="uuid-227cf299-38b8-4fd6-965e-1987c6e2a645" x1="180.275" y1="281.613" x2="176.394" y2="274.917"/>
  <line class="uuid-227cf299-38b8-4fd6-965e-1987c6e2a645" x1="186.213" y1="269.324" x2="182.328" y2="262.631"/>
  <line class="uuid-227cf299-38b8-4fd6-965e-1987c6e2a645" x1="192.149" y1="257.013" x2="188.241" y2="250.32"/>
  <line class="uuid-227cf299-38b8-4fd6-965e-1987c6e2a645" x1="198.061" y1="244.724" x2="194.227" y2="238.031"/>
  <line class="uuid-227cf299-38b8-4fd6-965e-1987c6e2a645" x1="203.974" y1="232.438" x2="200.161" y2="225.746"/>
  <line class="uuid-227cf299-38b8-4fd6-965e-1987c6e2a645" x1="209.956" y1="220.127" x2="206.318" y2="213.825"/>
  <line class="uuid-227cf299-38b8-4fd6-965e-1987c6e2a645" x1="217.918" y1="211.356" x2="215.427" y2="207.033"/>
  <line class="uuid-227cf299-38b8-4fd6-965e-1987c6e2a645" x1="227.665" y1="205.689" x2="225.174" y2="201.391"/>
  <line class="uuid-227cf299-38b8-4fd6-965e-1987c6e2a645" x1="237.437" y1="200.045" x2="234.947" y2="195.722"/>
  <line class="uuid-227cf299-38b8-4fd6-965e-1987c6e2a645" x1="247.184" y1="194.378" x2="244.693" y2="190.056"/>
  <line class="uuid-227cf299-38b8-4fd6-965e-1987c6e2a645" x1="254.683" y1="184.732" x2="250.606" y2="177.693"/>
  <line class="uuid-227cf299-38b8-4fd6-965e-1987c6e2a645" x1="259.79" y1="171.052" x2="257.715" y2="167.336"/>
  <polygon class="uuid-a4eecd2e-72dd-4ca3-a382-6dfe2f49557a" points="282.679 164.697 282.727 165.75 282.385 165.529 282.679 164.697"/>
  <line class="uuid-227cf299-38b8-4fd6-965e-1987c6e2a645" x1="187.899" y1="297.784" x2="181.669" y2="286.963"/>
  <line class="uuid-227cf299-38b8-4fd6-965e-1987c6e2a645" x1="200.43" y1="274.357" x2="193.539" y2="262.336"/>
  <line class="uuid-227cf299-38b8-4fd6-965e-1987c6e2a645" x1="212.352" y1="249.758" x2="205.365" y2="237.741"/>
  <line class="uuid-227cf299-38b8-4fd6-965e-1987c6e2a645" x1="225.884" y1="228.016" x2="218.459" y2="215.193"/>
  <line class="uuid-227cf299-38b8-4fd6-965e-1987c6e2a645" x1="245.403" y1="216.683" x2="237.901" y2="203.784"/>
  <line class="uuid-227cf299-38b8-4fd6-965e-1987c6e2a645" x1="263.697" y1="203.224" x2="256.321" y2="190.445"/>
  <line class="uuid-227cf299-38b8-4fd6-965e-1987c6e2a645" x1="274.202" y1="176.328" x2="266.655" y2="163.259"/>
  <line class="uuid-227cf299-38b8-4fd6-965e-1987c6e2a645" x1="262.917" y1="156.757" x2="256.592" y2="145.815"/>
  <line class="uuid-227cf299-38b8-4fd6-965e-1987c6e2a645" x1="294.795" y1="166.824" x2="271.759" y2="126.907"/>
  <line class="uuid-227cf299-38b8-4fd6-965e-1987c6e2a645" x1="300.44" y1="131.476" x2="287.786" y2="109.566"/>
</svg>