<?xml version="1.0" encoding="UTF-8"?>
<svg id="uuid-0466d748-7b1b-4810-8231-94e6fb5452a3" data-name="&amp;lt;Layer&amp;gt;" xmlns="http://www.w3.org/2000/svg" viewBox="0 0 451.11 451.11">
  <defs>
    <style>
      .uuid-42ec5aac-cbac-4500-a296-315e9523192c, .uuid-268f86e1-4cfd-42d2-b594-f7f8c4f8227c, .uuid-f0baaeb1-4b84-44c8-8888-d8fabfba3ed5, .uuid-264b26e6-e974-47d7-8c71-3bbf566d866b, .uuid-f30a485a-728c-414b-870a-d278d592493a, .uuid-c1955df2-7bc0-46b9-a357-f09ed8a260d5 {
        fill: none;
        stroke: #000;
        stroke-linecap: round;
      }

      .uuid-42ec5aac-cbac-4500-a296-315e9523192c, .uuid-268f86e1-4cfd-42d2-b594-f7f8c4f8227c, .uuid-c1955df2-7bc0-46b9-a357-f09ed8a260d5 {
        stroke-linejoin: round;
      }

      .uuid-42ec5aac-cbac-4500-a296-315e9523192c, .uuid-c1955df2-7bc0-46b9-a357-f09ed8a260d5 {
        stroke-width: 4.117px;
      }

      .uuid-268f86e1-4cfd-42d2-b594-f7f8c4f8227c {
        stroke-width: 4.113px;
      }

      .uuid-f0baaeb1-4b84-44c8-8888-d8fabfba3ed5 {
        stroke-width: 1.163px;
      }

      .uuid-f0baaeb1-4b84-44c8-8888-d8fabfba3ed5, .uuid-264b26e6-e974-47d7-8c71-3bbf566d866b, .uuid-f30a485a-728c-414b-870a-d278d592493a {
        stroke-miterlimit: 10;
      }

      .uuid-264b26e6-e974-47d7-8c71-3bbf566d866b {
        stroke-width: 1.167px;
      }

      .uuid-f30a485a-728c-414b-870a-d278d592493a {
        stroke-width: 1.159px;
      }

      .uuid-c1955df2-7bc0-46b9-a357-f09ed8a260d5 {
        fill-rule: evenodd;
      }
    </style>
  </defs>
  <line class="uuid-42ec5aac-cbac-4500-a296-315e9523192c" x1="97.826" y1="331.198" x2="91.5" y2="326.896"/>
  <path class="uuid-c1955df2-7bc0-46b9-a357-f09ed8a260d5" d="M91.5,326.896c-1.004-1.711-1.295-3.175-1.295-5.128"/>
  <line class="uuid-42ec5aac-cbac-4500-a296-315e9523192c" x1="90.205" y1="321.768" x2="90.205" y2="219.562"/>
  <path class="uuid-c1955df2-7bc0-46b9-a357-f09ed8a260d5" d="M90.205,219.562c.195-7.109,4.64-14.832,10.699-18.519"/>
  <line class="uuid-42ec5aac-cbac-4500-a296-315e9523192c" x1="100.905" y1="201.043" x2="244.909" y2="117.99"/>
  <path class="uuid-c1955df2-7bc0-46b9-a357-f09ed8a260d5" d="M244.909,117.99c2.443-1.321,5.008-2.102,7.547-.736"/>
  <line class="uuid-42ec5aac-cbac-4500-a296-315e9523192c" x1="252.455" y1="117.254" x2="258.783" y2="121.554"/>
  <path class="uuid-c1955df2-7bc0-46b9-a357-f09ed8a260d5" d="M258.783,121.554c-2.612-1.368-5.106-.584-7.547.732"/>
  <line class="uuid-42ec5aac-cbac-4500-a296-315e9523192c" x1="251.236" y1="122.286" x2="107.23" y2="205.341"/>
  <path class="uuid-c1955df2-7bc0-46b9-a357-f09ed8a260d5" d="M107.23,205.341c-6.057,3.69-10.501,11.483-10.673,18.519"/>
  <line class="uuid-42ec5aac-cbac-4500-a296-315e9523192c" x1="96.556" y1="223.86" x2="96.482" y2="326.064"/>
  <path class="uuid-c1955df2-7bc0-46b9-a357-f09ed8a260d5" d="M96.482,326.064c.074,1.955.295,3.423,1.343,5.134"/>
  <path class="uuid-c1955df2-7bc0-46b9-a357-f09ed8a260d5" d="M251.236,122.286c5.884-3.396,10.7-.61,10.7,6.182"/>
  <line class="uuid-42ec5aac-cbac-4500-a296-315e9523192c" x1="261.936" y1="128.468" x2="261.885" y2="230.673"/>
  <path class="uuid-c1955df2-7bc0-46b9-a357-f09ed8a260d5" d="M261.885,230.673c0,6.792-4.835,15.123-10.699,18.518"/>
  <line class="uuid-42ec5aac-cbac-4500-a296-315e9523192c" x1="251.186" y1="249.191" x2="246.299" y2="251.708"/>
  <path class="uuid-c1955df2-7bc0-46b9-a357-f09ed8a260d5" d="M107.115,332.058c-5.86,3.393-10.633.798-10.633-5.994"/>
  <polyline class="uuid-c1955df2-7bc0-46b9-a357-f09ed8a260d5" points="107.867 213.012 145.779 191.15 250.6 130.69"/>
  <path class="uuid-c1955df2-7bc0-46b9-a357-f09ed8a260d5" d="M250.6,130.69c2.686-1.538,4.886-.295,4.886,2.832"/>
  <line class="uuid-42ec5aac-cbac-4500-a296-315e9523192c" x1="255.486" y1="133.523" x2="255.413" y2="233.047"/>
  <path class="uuid-c1955df2-7bc0-46b9-a357-f09ed8a260d5" d="M255.413,233.047c0,3.123-2.127,6.909-4.865,8.473"/>
  <polyline class="uuid-c1955df2-7bc0-46b9-a357-f09ed8a260d5" points="250.548 241.52 132.32 309.725 107.867 323.842"/>
  <path class="uuid-c1955df2-7bc0-46b9-a357-f09ed8a260d5" d="M107.867,323.842c-2.737,1.542-4.935.295-4.935-2.832"/>
  <line class="uuid-42ec5aac-cbac-4500-a296-315e9523192c" x1="102.932" y1="321.01" x2="102.98" y2="221.489"/>
  <path class="uuid-c1955df2-7bc0-46b9-a357-f09ed8a260d5" d="M102.98,221.489c0-3.101,2.2-6.913,4.887-8.477"/>
  <polyline class="uuid-c1955df2-7bc0-46b9-a357-f09ed8a260d5" points="228.712 168.749 228.712 236.976 129.755 294.139 129.755 225.887"/>
  <polygon class="uuid-c1955df2-7bc0-46b9-a357-f09ed8a260d5" points="129.755 225.887 228.712 168.749 228.712 158.904 129.755 216.066 129.755 225.887"/>
  <path class="uuid-c1955df2-7bc0-46b9-a357-f09ed8a260d5" d="M154.84,227.671c1.347-.783,2.444-.147,2.444,1.417"/>
  <path class="uuid-c1955df2-7bc0-46b9-a357-f09ed8a260d5" d="M157.284,229.088c0,1.538-1.097,3.418-2.444,4.176"/>
  <path class="uuid-c1955df2-7bc0-46b9-a357-f09ed8a260d5" d="M154.84,233.264c-1.316.784-2.443.147-2.443-1.39"/>
  <path class="uuid-c1955df2-7bc0-46b9-a357-f09ed8a260d5" d="M152.398,231.873c0-1.542,1.126-3.423,2.443-4.203"/>
  <path class="uuid-c1955df2-7bc0-46b9-a357-f09ed8a260d5" d="M154.84,242.742c1.347-.78,2.444-.147,2.444,1.394"/>
  <path class="uuid-c1955df2-7bc0-46b9-a357-f09ed8a260d5" d="M157.284,244.136c0,1.538-1.097,3.419-2.444,4.199"/>
  <path class="uuid-c1955df2-7bc0-46b9-a357-f09ed8a260d5" d="M154.84,248.335c-1.316.758-2.443.147-2.443-1.392"/>
  <path class="uuid-c1955df2-7bc0-46b9-a357-f09ed8a260d5" d="M152.398,246.943c0-1.563,1.126-3.444,2.443-4.202"/>
  <path class="uuid-c1955df2-7bc0-46b9-a357-f09ed8a260d5" d="M154.84,258.743c1.347-.784,2.444-.147,2.444,1.39"/>
  <path class="uuid-c1955df2-7bc0-46b9-a357-f09ed8a260d5" d="M157.284,260.134c0,1.542-1.097,3.423-2.444,4.203"/>
  <path class="uuid-c1955df2-7bc0-46b9-a357-f09ed8a260d5" d="M154.84,264.336c-1.316.758-2.443.147-2.443-1.417"/>
  <path class="uuid-c1955df2-7bc0-46b9-a357-f09ed8a260d5" d="M152.398,262.919c0-1.516,1.126-3.418,2.443-4.176"/>
  <line class="uuid-42ec5aac-cbac-4500-a296-315e9523192c" x1="360.772" y1="310.531" x2="360.772" y2="318.323"/>
  <path class="uuid-c1955df2-7bc0-46b9-a357-f09ed8a260d5" d="M360.772,318.323c-.71,2.37-2.274,3.714-4.302,4.96"/>
  <line class="uuid-42ec5aac-cbac-4500-a296-315e9523192c" x1="356.47" y1="323.283" x2="211.93" y2="406.753"/>
  <path class="uuid-c1955df2-7bc0-46b9-a357-f09ed8a260d5" d="M211.93,406.753c-3.201,1.759-6.377,2.392-9.993,2.539"/>
  <line class="uuid-42ec5aac-cbac-4500-a296-315e9523192c" x1="190.505" y1="406.753" x2="101.711" y2="355.382"/>
  <path class="uuid-c1955df2-7bc0-46b9-a357-f09ed8a260d5" d="M101.711,355.382c-2.028-1.221-3.59-2.591-4.25-4.938"/>
  <line class="uuid-42ec5aac-cbac-4500-a296-315e9523192c" x1="97.461" y1="350.444" x2="97.461" y2="342.629"/>
  <path class="uuid-c1955df2-7bc0-46b9-a357-f09ed8a260d5" d="M97.461,342.629c.659,2.344,2.222,3.712,4.25,4.96"/>
  <line class="uuid-42ec5aac-cbac-4500-a296-315e9523192c" x1="101.711" y1="347.589" x2="190.505" y2="398.909"/>
  <path class="uuid-c1955df2-7bc0-46b9-a357-f09ed8a260d5" d="M201.937,401.477c3.616-.147,6.792-.783,9.993-2.541"/>
  <line class="uuid-42ec5aac-cbac-4500-a296-315e9523192c" x1="211.93" y1="398.935" x2="356.47" y2="315.439"/>
  <path class="uuid-c1955df2-7bc0-46b9-a357-f09ed8a260d5" d="M356.47,315.439c2.027-1.218,3.592-2.565,4.302-4.908"/>
  <line class="uuid-42ec5aac-cbac-4500-a296-315e9523192c" x1="101.711" y1="335.179" x2="246.299" y2="251.708"/>
  <path class="uuid-c1955df2-7bc0-46b9-a357-f09ed8a260d5" d="M246.299,251.708c5.866-3.422,15.512-3.422,21.451,0"/>
  <line class="uuid-42ec5aac-cbac-4500-a296-315e9523192c" x1="267.749" y1="251.708" x2="356.47" y2="303.054"/>
  <path class="uuid-c1955df2-7bc0-46b9-a357-f09ed8a260d5" d="M356.47,303.054c5.912,3.396,5.912,8.991,0,12.384"/>
  <path class="uuid-c1955df2-7bc0-46b9-a357-f09ed8a260d5" d="M101.711,347.589c-5.865-3.421-5.865-9.015,0-12.41"/>
  <polygon class="uuid-c1955df2-7bc0-46b9-a357-f09ed8a260d5" points="257.12 364.371 296.648 341.506 266.403 324.016 226.857 346.879 257.12 364.371"/>
  <path class="uuid-c1955df2-7bc0-46b9-a357-f09ed8a260d5" d="M119.836,338.085c43.776-25.306,87.55-50.617,131.4-75.924,3.15-1.806,8.305-1.806,11.455.026"/>
  <line class="uuid-42ec5aac-cbac-4500-a296-315e9523192c" x1="262.691" y1="262.187" x2="307.468" y2="288.079"/>
  <path class="uuid-c1955df2-7bc0-46b9-a357-f09ed8a260d5" d="M307.468,288.079c3.176,1.809,3.128,4.816,0,6.622-43.798,25.281-87.572,50.613-131.423,75.898-3.15,1.833-8.305,1.807-11.459,0"/>
  <line class="uuid-42ec5aac-cbac-4500-a296-315e9523192c" x1="164.587" y1="370.6" x2="119.836" y2="344.683"/>
  <path class="uuid-c1955df2-7bc0-46b9-a357-f09ed8a260d5" d="M119.836,344.683c-3.15-1.811-3.15-4.787,0-6.598"/>
  <polyline class="uuid-c1955df2-7bc0-46b9-a357-f09ed8a260d5" points="202.062 409.292 202.062 401.477 201.937 401.477"/>
  <path class="uuid-c1955df2-7bc0-46b9-a357-f09ed8a260d5" d="M201.937,401.477c-4.055.048-7.841-.562-11.431-2.567"/>
  <path class="uuid-c1955df2-7bc0-46b9-a357-f09ed8a260d5" d="M190.505,406.753c3.59,1.979,7.376,2.591,11.431,2.539"/>
  <line class="uuid-42ec5aac-cbac-4500-a296-315e9523192c" x1="201.937" y1="409.292" x2="202.062" y2="409.292"/>
  <line class="uuid-42ec5aac-cbac-4500-a296-315e9523192c" x1="164.198" y1="240.129" x2="202.942" y2="217.777"/>
  <line class="uuid-42ec5aac-cbac-4500-a296-315e9523192c" x1="164.198" y1="225.055" x2="202.942" y2="202.706"/>
  <line class="uuid-42ec5aac-cbac-4500-a296-315e9523192c" x1="164.198" y1="256.128" x2="195.491" y2="238.055"/>
  <line class="uuid-268f86e1-4cfd-42d2-b594-f7f8c4f8227c" x1="161.254" y1="338.821" x2="147.452" y2="346.817"/>
  <line class="uuid-268f86e1-4cfd-42d2-b594-f7f8c4f8227c" x1="147.452" y1="346.817" x2="133.608" y2="338.799"/>
  <line class="uuid-268f86e1-4cfd-42d2-b594-f7f8c4f8227c" x1="133.608" y1="338.799" x2="147.464" y2="330.825"/>
  <line class="uuid-42ec5aac-cbac-4500-a296-315e9523192c" x1="147.46" y1="330.825" x2="161.254" y2="338.821"/>
  <line class="uuid-268f86e1-4cfd-42d2-b594-f7f8c4f8227c" x1="175.1" y1="346.839" x2="161.298" y2="354.834"/>
  <line class="uuid-268f86e1-4cfd-42d2-b594-f7f8c4f8227c" x1="161.298" y1="354.837" x2="147.452" y2="346.82"/>
  <line class="uuid-268f86e1-4cfd-42d2-b594-f7f8c4f8227c" x1="147.452" y1="346.82" x2="161.31" y2="338.847"/>
  <line class="uuid-268f86e1-4cfd-42d2-b594-f7f8c4f8227c" x1="161.31" y1="338.847" x2="175.1" y2="346.839"/>
  <line class="uuid-268f86e1-4cfd-42d2-b594-f7f8c4f8227c" x1="188.949" y1="354.859" x2="175.144" y2="362.855"/>
  <line class="uuid-268f86e1-4cfd-42d2-b594-f7f8c4f8227c" x1="175.148" y1="362.855" x2="161.298" y2="354.837"/>
  <line class="uuid-268f86e1-4cfd-42d2-b594-f7f8c4f8227c" x1="161.298" y1="354.841" x2="175.155" y2="346.865"/>
  <line class="uuid-268f86e1-4cfd-42d2-b594-f7f8c4f8227c" x1="175.155" y1="346.865" x2="188.949" y2="354.859"/>
  <line class="uuid-268f86e1-4cfd-42d2-b594-f7f8c4f8227c" x1="175.055" y1="330.825" x2="161.254" y2="338.821"/>
  <line class="uuid-268f86e1-4cfd-42d2-b594-f7f8c4f8227c" x1="161.254" y1="338.821" x2="147.408" y2="330.803"/>
  <line class="uuid-268f86e1-4cfd-42d2-b594-f7f8c4f8227c" x1="147.408" y1="330.803" x2="161.265" y2="322.831"/>
  <line class="uuid-42ec5aac-cbac-4500-a296-315e9523192c" x1="161.261" y1="322.831" x2="175.055" y2="330.825"/>
  <line class="uuid-268f86e1-4cfd-42d2-b594-f7f8c4f8227c" x1="188.901" y1="338.843" x2="175.1" y2="346.839"/>
  <line class="uuid-268f86e1-4cfd-42d2-b594-f7f8c4f8227c" x1="175.1" y1="346.843" x2="161.254" y2="338.825"/>
  <line class="uuid-268f86e1-4cfd-42d2-b594-f7f8c4f8227c" x1="161.254" y1="338.825" x2="175.111" y2="330.851"/>
  <line class="uuid-268f86e1-4cfd-42d2-b594-f7f8c4f8227c" x1="175.111" y1="330.851" x2="188.901" y2="338.843"/>
  <line class="uuid-268f86e1-4cfd-42d2-b594-f7f8c4f8227c" x1="202.747" y1="346.865" x2="188.945" y2="354.859"/>
  <line class="uuid-268f86e1-4cfd-42d2-b594-f7f8c4f8227c" x1="188.945" y1="354.859" x2="175.1" y2="346.843"/>
  <line class="uuid-268f86e1-4cfd-42d2-b594-f7f8c4f8227c" x1="175.1" y1="346.846" x2="188.956" y2="338.869"/>
  <line class="uuid-268f86e1-4cfd-42d2-b594-f7f8c4f8227c" x1="188.857" y1="322.831" x2="175.055" y2="330.825"/>
  <line class="uuid-268f86e1-4cfd-42d2-b594-f7f8c4f8227c" x1="175.055" y1="330.829" x2="161.21" y2="322.809"/>
  <line class="uuid-268f86e1-4cfd-42d2-b594-f7f8c4f8227c" x1="161.21" y1="322.813" x2="175.066" y2="314.835"/>
  <line class="uuid-268f86e1-4cfd-42d2-b594-f7f8c4f8227c" x1="175.066" y1="314.839" x2="188.861" y2="322.831"/>
  <line class="uuid-268f86e1-4cfd-42d2-b594-f7f8c4f8227c" x1="202.705" y1="330.851" x2="188.901" y2="338.847"/>
  <line class="uuid-268f86e1-4cfd-42d2-b594-f7f8c4f8227c" x1="188.905" y1="338.847" x2="175.055" y2="330.829"/>
  <line class="uuid-268f86e1-4cfd-42d2-b594-f7f8c4f8227c" x1="175.055" y1="330.829" x2="188.911" y2="322.857"/>
  <line class="uuid-268f86e1-4cfd-42d2-b594-f7f8c4f8227c" x1="188.911" y1="322.857" x2="202.705" y2="330.851"/>
  <line class="uuid-268f86e1-4cfd-42d2-b594-f7f8c4f8227c" x1="216.551" y1="338.873" x2="202.749" y2="346.865"/>
  <line class="uuid-268f86e1-4cfd-42d2-b594-f7f8c4f8227c" x1="188.901" y1="338.851" x2="202.761" y2="330.877"/>
  <line class="uuid-268f86e1-4cfd-42d2-b594-f7f8c4f8227c" x1="202.657" y1="314.835" x2="188.857" y2="322.831"/>
  <line class="uuid-268f86e1-4cfd-42d2-b594-f7f8c4f8227c" x1="188.857" y1="322.835" x2="175.011" y2="314.813"/>
  <line class="uuid-268f86e1-4cfd-42d2-b594-f7f8c4f8227c" x1="175.011" y1="314.817" x2="188.867" y2="306.839"/>
  <line class="uuid-268f86e1-4cfd-42d2-b594-f7f8c4f8227c" x1="188.867" y1="306.843" x2="202.661" y2="314.835"/>
  <line class="uuid-268f86e1-4cfd-42d2-b594-f7f8c4f8227c" x1="216.507" y1="322.857" x2="202.703" y2="330.851"/>
  <line class="uuid-268f86e1-4cfd-42d2-b594-f7f8c4f8227c" x1="202.705" y1="330.851" x2="188.857" y2="322.835"/>
  <line class="uuid-268f86e1-4cfd-42d2-b594-f7f8c4f8227c" x1="188.857" y1="322.835" x2="202.713" y2="314.861"/>
  <line class="uuid-268f86e1-4cfd-42d2-b594-f7f8c4f8227c" x1="202.713" y1="314.861" x2="216.507" y2="322.857"/>
  <line class="uuid-268f86e1-4cfd-42d2-b594-f7f8c4f8227c" x1="230.353" y1="330.877" x2="216.551" y2="338.869"/>
  <line class="uuid-268f86e1-4cfd-42d2-b594-f7f8c4f8227c" x1="202.703" y1="330.855" x2="216.559" y2="322.881"/>
  <line class="uuid-42ec5aac-cbac-4500-a296-315e9523192c" x1="216.559" y1="322.881" x2="230.353" y2="330.873"/>
  <line class="uuid-42ec5aac-cbac-4500-a296-315e9523192c" x1="211.028" y1="294.01" x2="224.822" y2="302.002"/>
  <line class="uuid-268f86e1-4cfd-42d2-b594-f7f8c4f8227c" x1="224.878" y1="302.028" x2="238.668" y2="310.022"/>
  <line class="uuid-268f86e1-4cfd-42d2-b594-f7f8c4f8227c" x1="238.724" y1="310.048" x2="252.517" y2="318.044"/>
  <line class="uuid-268f86e1-4cfd-42d2-b594-f7f8c4f8227c" x1="238.624" y1="294.006" x2="224.822" y2="302.002"/>
  <line class="uuid-268f86e1-4cfd-42d2-b594-f7f8c4f8227c" x1="224.822" y1="302.006" x2="210.977" y2="293.988"/>
  <line class="uuid-268f86e1-4cfd-42d2-b594-f7f8c4f8227c" x1="210.977" y1="293.988" x2="224.834" y2="286.014"/>
  <line class="uuid-42ec5aac-cbac-4500-a296-315e9523192c" x1="224.83" y1="286.014" x2="238.624" y2="294.006"/>
  <line class="uuid-268f86e1-4cfd-42d2-b594-f7f8c4f8227c" x1="252.469" y1="302.028" x2="238.668" y2="310.022"/>
  <line class="uuid-268f86e1-4cfd-42d2-b594-f7f8c4f8227c" x1="238.668" y1="310.022" x2="224.822" y2="302.006"/>
  <line class="uuid-268f86e1-4cfd-42d2-b594-f7f8c4f8227c" x1="224.822" y1="302.01" x2="238.679" y2="294.032"/>
  <line class="uuid-268f86e1-4cfd-42d2-b594-f7f8c4f8227c" x1="238.679" y1="294.032" x2="252.469" y2="302.028"/>
  <line class="uuid-268f86e1-4cfd-42d2-b594-f7f8c4f8227c" x1="266.315" y1="310.048" x2="252.513" y2="318.044"/>
  <line class="uuid-268f86e1-4cfd-42d2-b594-f7f8c4f8227c" x1="252.513" y1="318.044" x2="238.668" y2="310.026"/>
  <line class="uuid-268f86e1-4cfd-42d2-b594-f7f8c4f8227c" x1="238.668" y1="310.026" x2="252.524" y2="302.054"/>
  <line class="uuid-268f86e1-4cfd-42d2-b594-f7f8c4f8227c" x1="252.524" y1="302.054" x2="266.319" y2="310.048"/>
  <line class="uuid-268f86e1-4cfd-42d2-b594-f7f8c4f8227c" x1="252.425" y1="286.014" x2="238.624" y2="294.01"/>
  <line class="uuid-268f86e1-4cfd-42d2-b594-f7f8c4f8227c" x1="238.624" y1="294.01" x2="224.778" y2="285.992"/>
  <line class="uuid-268f86e1-4cfd-42d2-b594-f7f8c4f8227c" x1="224.778" y1="285.992" x2="238.635" y2="278.02"/>
  <line class="uuid-268f86e1-4cfd-42d2-b594-f7f8c4f8227c" x1="238.635" y1="278.02" x2="252.429" y2="286.014"/>
  <line class="uuid-268f86e1-4cfd-42d2-b594-f7f8c4f8227c" x1="266.275" y1="294.036" x2="252.469" y2="302.028"/>
  <line class="uuid-268f86e1-4cfd-42d2-b594-f7f8c4f8227c" x1="252.473" y1="302.032" x2="238.624" y2="294.014"/>
  <line class="uuid-268f86e1-4cfd-42d2-b594-f7f8c4f8227c" x1="238.624" y1="294.014" x2="252.48" y2="286.04"/>
  <line class="uuid-268f86e1-4cfd-42d2-b594-f7f8c4f8227c" x1="252.48" y1="286.04" x2="266.275" y2="294.032"/>
  <line class="uuid-268f86e1-4cfd-42d2-b594-f7f8c4f8227c" x1="280.119" y1="302.054" x2="266.319" y2="310.048"/>
  <line class="uuid-268f86e1-4cfd-42d2-b594-f7f8c4f8227c" x1="266.319" y1="310.048" x2="252.469" y2="302.032"/>
  <line class="uuid-268f86e1-4cfd-42d2-b594-f7f8c4f8227c" x1="252.469" y1="302.034" x2="266.329" y2="294.058"/>
  <line class="uuid-42ec5aac-cbac-4500-a296-315e9523192c" x1="266.326" y1="294.062" x2="280.119" y2="302.054"/>
  <line class="uuid-268f86e1-4cfd-42d2-b594-f7f8c4f8227c" x1="266.227" y1="278.02" x2="252.425" y2="286.014"/>
  <line class="uuid-268f86e1-4cfd-42d2-b594-f7f8c4f8227c" x1="252.425" y1="286.014" x2="238.579" y2="277.998"/>
  <line class="uuid-268f86e1-4cfd-42d2-b594-f7f8c4f8227c" x1="238.579" y1="277.998" x2="252.436" y2="270.024"/>
  <line class="uuid-268f86e1-4cfd-42d2-b594-f7f8c4f8227c" x1="252.436" y1="270.024" x2="266.231" y2="278.02"/>
  <line class="uuid-268f86e1-4cfd-42d2-b594-f7f8c4f8227c" x1="280.075" y1="286.04" x2="266.271" y2="294.032"/>
  <line class="uuid-42ec5aac-cbac-4500-a296-315e9523192c" x1="266.275" y1="294.036" x2="252.425" y2="286.018"/>
  <line class="uuid-268f86e1-4cfd-42d2-b594-f7f8c4f8227c" x1="252.425" y1="286.018" x2="266.281" y2="278.045"/>
  <line class="uuid-268f86e1-4cfd-42d2-b594-f7f8c4f8227c" x1="266.281" y1="278.045" x2="280.075" y2="286.036"/>
  <line class="uuid-268f86e1-4cfd-42d2-b594-f7f8c4f8227c" x1="293.921" y1="294.058" x2="280.119" y2="302.054"/>
  <line class="uuid-268f86e1-4cfd-42d2-b594-f7f8c4f8227c" x1="280.119" y1="302.054" x2="266.271" y2="294.036"/>
  <line class="uuid-268f86e1-4cfd-42d2-b594-f7f8c4f8227c" x1="266.271" y1="294.04" x2="280.127" y2="286.062"/>
  <line class="uuid-42ec5aac-cbac-4500-a296-315e9523192c" x1="280.127" y1="286.066" x2="293.921" y2="294.058"/>
  <line class="uuid-268f86e1-4cfd-42d2-b594-f7f8c4f8227c" x1="188.867" y1="306.843" x2="202.661" y2="314.839"/>
  <line class="uuid-268f86e1-4cfd-42d2-b594-f7f8c4f8227c" x1="202.713" y1="314.865" x2="216.507" y2="322.857"/>
  <line class="uuid-42ec5aac-cbac-4500-a296-315e9523192c" x1="216.559" y1="322.881" x2="230.353" y2="330.877"/>
  <line class="uuid-268f86e1-4cfd-42d2-b594-f7f8c4f8227c" x1="216.459" y1="306.843" x2="202.657" y2="314.839"/>
  <line class="uuid-268f86e1-4cfd-42d2-b594-f7f8c4f8227c" x1="202.657" y1="314.839" x2="188.813" y2="306.821"/>
  <line class="uuid-268f86e1-4cfd-42d2-b594-f7f8c4f8227c" x1="188.813" y1="306.821" x2="202.669" y2="298.849"/>
  <line class="uuid-268f86e1-4cfd-42d2-b594-f7f8c4f8227c" x1="202.669" y1="298.849" x2="216.459" y2="306.843"/>
  <line class="uuid-268f86e1-4cfd-42d2-b594-f7f8c4f8227c" x1="230.309" y1="314.861" x2="216.503" y2="322.857"/>
  <line class="uuid-268f86e1-4cfd-42d2-b594-f7f8c4f8227c" x1="216.507" y1="322.859" x2="202.657" y2="314.839"/>
  <line class="uuid-268f86e1-4cfd-42d2-b594-f7f8c4f8227c" x1="202.657" y1="314.843" x2="216.515" y2="306.869"/>
  <line class="uuid-268f86e1-4cfd-42d2-b594-f7f8c4f8227c" x1="216.515" y1="306.869" x2="230.309" y2="314.861"/>
  <line class="uuid-268f86e1-4cfd-42d2-b594-f7f8c4f8227c" x1="244.154" y1="322.881" x2="230.353" y2="330.877"/>
  <line class="uuid-268f86e1-4cfd-42d2-b594-f7f8c4f8227c" x1="230.353" y1="330.877" x2="216.503" y2="322.859"/>
  <line class="uuid-268f86e1-4cfd-42d2-b594-f7f8c4f8227c" x1="216.503" y1="322.859" x2="230.361" y2="314.887"/>
  <line class="uuid-42ec5aac-cbac-4500-a296-315e9523192c" x1="230.361" y1="314.887" x2="244.154" y2="322.881"/>
  <line class="uuid-f0baaeb1-4b84-44c8-8888-d8fabfba3ed5" x1="109.721" y1="350.08" x2="102.053" y2="336.815"/>
  <line class="uuid-f0baaeb1-4b84-44c8-8888-d8fabfba3ed5" x1="148.858" y1="372.748" x2="140.918" y2="358.922"/>
  <line class="uuid-f0baaeb1-4b84-44c8-8888-d8fabfba3ed5" x1="125.7" y1="332.636" x2="121.863" y2="325.921"/>
  <line class="uuid-f0baaeb1-4b84-44c8-8888-d8fabfba3ed5" x1="188.187" y1="395.686" x2="174.823" y2="372.481"/>
  <line class="uuid-f0baaeb1-4b84-44c8-8888-d8fabfba3ed5" x1="145.268" y1="321.325" x2="141.381" y2="314.633"/>
  <line class="uuid-f0baaeb1-4b84-44c8-8888-d8fabfba3ed5" x1="214.716" y1="396.517" x2="194.222" y2="360.975"/>
  <line class="uuid-f0baaeb1-4b84-44c8-8888-d8fabfba3ed5" x1="164.834" y1="310.042" x2="160.949" y2="303.348"/>
  <line class="uuid-f0baaeb1-4b84-44c8-8888-d8fabfba3ed5" x1="234.282" y1="385.232" x2="213.788" y2="349.69"/>
  <line class="uuid-f0baaeb1-4b84-44c8-8888-d8fabfba3ed5" x1="184.349" y1="298.731" x2="180.516" y2="292.063"/>
  <line class="uuid-f0baaeb1-4b84-44c8-8888-d8fabfba3ed5" x1="253.456" y1="373.213" x2="245.667" y2="359.778"/>
  <line class="uuid-f0baaeb1-4b84-44c8-8888-d8fabfba3ed5" x1="234.356" y1="340.208" x2="234.013" y2="339.527"/>
  <line class="uuid-f0baaeb1-4b84-44c8-8888-d8fabfba3ed5" x1="203.916" y1="287.446" x2="200.082" y2="280.802"/>
  <line class="uuid-f0baaeb1-4b84-44c8-8888-d8fabfba3ed5" x1="272.779" y1="361.559" x2="271.046" y2="358.579"/>
  <line class="uuid-f0baaeb1-4b84-44c8-8888-d8fabfba3ed5" x1="253.923" y1="328.902" x2="253.506" y2="328.24"/>
  <line class="uuid-f0baaeb1-4b84-44c8-8888-d8fabfba3ed5" x1="223.484" y1="276.135" x2="219.649" y2="269.517"/>
  <line class="uuid-f0baaeb1-4b84-44c8-8888-d8fabfba3ed5" x1="292.298" y1="350.296" x2="290.614" y2="347.294"/>
  <line class="uuid-f0baaeb1-4b84-44c8-8888-d8fabfba3ed5" x1="280.697" y1="330.171" x2="272.853" y2="316.517"/>
  <line class="uuid-f0baaeb1-4b84-44c8-8888-d8fabfba3ed5" x1="243.002" y1="264.85" x2="239.169" y2="258.228"/>
  <line class="uuid-f0baaeb1-4b84-44c8-8888-d8fabfba3ed5" x1="312.524" y1="340.064" x2="291.956" y2="304.497"/>
  <line class="uuid-f0baaeb1-4b84-44c8-8888-d8fabfba3ed5" x1="270.8" y1="267.812" x2="261.226" y2="251.219"/>
  <line class="uuid-f0baaeb1-4b84-44c8-8888-d8fabfba3ed5" x1="332.069" y1="328.828" x2="310.89" y2="292.085"/>
  <line class="uuid-f30a485a-728c-414b-870a-d278d592493a" x1="308.782" y1="288.395" x2="299.26" y2="271.96"/>
  <line class="uuid-f0baaeb1-4b84-44c8-8888-d8fabfba3ed5" x1="351.367" y1="317.051" x2="338.246" y2="294.333"/>
  <line class="uuid-f0baaeb1-4b84-44c8-8888-d8fabfba3ed5" x1="282.552" y1="334.836" x2="271.341" y2="354.231"/>
  <line class="uuid-f0baaeb1-4b84-44c8-8888-d8fabfba3ed5" x1="259.246" y1="329.998" x2="244.397" y2="355.725"/>
  <line class="uuid-f0baaeb1-4b84-44c8-8888-d8fabfba3ed5" x1="214.373" y1="403.115" x2="214.373" y2="399.814"/>
  <line class="uuid-f0baaeb1-4b84-44c8-8888-d8fabfba3ed5" x1="225.636" y1="396.591" x2="225.636" y2="393.316"/>
  <line class="uuid-f0baaeb1-4b84-44c8-8888-d8fabfba3ed5" x1="236.969" y1="390.067" x2="236.969" y2="386.796"/>
  <line class="uuid-f0baaeb1-4b84-44c8-8888-d8fabfba3ed5" x1="248.23" y1="383.569" x2="248.23" y2="380.273"/>
  <line class="uuid-f0baaeb1-4b84-44c8-8888-d8fabfba3ed5" x1="259.541" y1="377.05" x2="259.541" y2="373.749"/>
  <line class="uuid-f0baaeb1-4b84-44c8-8888-d8fabfba3ed5" x1="270.826" y1="370.526" x2="270.826" y2="367.226"/>
  <line class="uuid-f0baaeb1-4b84-44c8-8888-d8fabfba3ed5" x1="282.088" y1="364.002" x2="282.088" y2="360.706"/>
  <line class="uuid-f0baaeb1-4b84-44c8-8888-d8fabfba3ed5" x1="293.399" y1="357.48" x2="293.399" y2="354.209"/>
  <line class="uuid-f0baaeb1-4b84-44c8-8888-d8fabfba3ed5" x1="304.658" y1="350.96" x2="304.658" y2="347.685"/>
  <line class="uuid-f0baaeb1-4b84-44c8-8888-d8fabfba3ed5" x1="315.946" y1="344.436" x2="315.946" y2="341.161"/>
  <line class="uuid-f0baaeb1-4b84-44c8-8888-d8fabfba3ed5" x1="327.256" y1="337.916" x2="327.256" y2="334.641"/>
  <line class="uuid-f0baaeb1-4b84-44c8-8888-d8fabfba3ed5" x1="338.515" y1="331.392" x2="338.515" y2="328.144"/>
  <line class="uuid-f0baaeb1-4b84-44c8-8888-d8fabfba3ed5" x1="349.851" y1="324.869" x2="349.851" y2="321.598"/>
  <line class="uuid-f0baaeb1-4b84-44c8-8888-d8fabfba3ed5" x1="94.625" y1="316.951" x2="92.233" y2="318.32"/>
  <line class="uuid-f0baaeb1-4b84-44c8-8888-d8fabfba3ed5" x1="94.625" y1="303.903" x2="92.233" y2="305.273"/>
  <line class="uuid-f0baaeb1-4b84-44c8-8888-d8fabfba3ed5" x1="94.625" y1="290.886" x2="92.233" y2="292.251"/>
  <line class="uuid-f0baaeb1-4b84-44c8-8888-d8fabfba3ed5" x1="94.625" y1="277.814" x2="92.233" y2="279.182"/>
  <line class="uuid-f0baaeb1-4b84-44c8-8888-d8fabfba3ed5" x1="94.625" y1="264.796" x2="92.233" y2="266.164"/>
  <line class="uuid-f0baaeb1-4b84-44c8-8888-d8fabfba3ed5" x1="94.625" y1="251.748" x2="92.233" y2="253.118"/>
  <line class="uuid-f0baaeb1-4b84-44c8-8888-d8fabfba3ed5" x1="94.625" y1="238.731" x2="92.233" y2="240.1"/>
  <line class="uuid-f0baaeb1-4b84-44c8-8888-d8fabfba3ed5" x1="94.625" y1="225.685" x2="92.233" y2="227.053"/>
  <line class="uuid-f0baaeb1-4b84-44c8-8888-d8fabfba3ed5" x1="106.303" y1="205.907" x2="91.537" y2="214.448"/>
  <line class="uuid-f0baaeb1-4b84-44c8-8888-d8fabfba3ed5" x1="260.943" y1="214.58" x2="256.524" y2="222.314"/>
  <line class="uuid-f0baaeb1-4b84-44c8-8888-d8fabfba3ed5" x1="242.719" y1="246.101" x2="236.251" y2="257.484"/>
  <line class="uuid-264b26e6-e974-47d7-8c71-3bbf566d866b" x1="261.027" y1="169.338" x2="256.491" y2="177.124"/>
  <line class="uuid-f0baaeb1-4b84-44c8-8888-d8fabfba3ed5" x1="202.986" y1="269.84" x2="197.764" y2="278.913"/>
  <line class="uuid-f0baaeb1-4b84-44c8-8888-d8fabfba3ed5" x1="260.796" y1="124.586" x2="256.089" y2="132.718"/>
  <line class="uuid-f0baaeb1-4b84-44c8-8888-d8fabfba3ed5" x1="163.845" y1="292.486" x2="158.737" y2="301.362"/>
  <line class="uuid-f0baaeb1-4b84-44c8-8888-d8fabfba3ed5" x1="227.601" y1="136.835" x2="222.273" y2="146.187"/>
  <line class="uuid-f0baaeb1-4b84-44c8-8888-d8fabfba3ed5" x1="125.277" y1="314.155" x2="119.084" y2="324.836"/>
  <line class="uuid-f0baaeb1-4b84-44c8-8888-d8fabfba3ed5" x1="188.839" y1="158.882" x2="182.897" y2="169.236"/>
  <line class="uuid-f0baaeb1-4b84-44c8-8888-d8fabfba3ed5" x1="102.627" y1="308.058" x2="96.957" y2="318.132"/>
  <line class="uuid-f0baaeb1-4b84-44c8-8888-d8fabfba3ed5" x1="149.752" y1="181.422" x2="144.039" y2="191.377"/>
  <line class="uuid-f0baaeb1-4b84-44c8-8888-d8fabfba3ed5" x1="102.683" y1="262.979" x2="96.975" y2="272.828"/>
  <line class="uuid-f0baaeb1-4b84-44c8-8888-d8fabfba3ed5" x1="109.897" y1="205.323" x2="105.445" y2="213.06"/>
  <line class="uuid-f0baaeb1-4b84-44c8-8888-d8fabfba3ed5" x1="102.093" y1="218.826" x2="97.615" y2="226.527"/>
  <line class="uuid-f0baaeb1-4b84-44c8-8888-d8fabfba3ed5" x1="200.204" y1="403.431" x2="194.928" y2="406.484"/>
  <line class="uuid-f0baaeb1-4b84-44c8-8888-d8fabfba3ed5" x1="186.038" y1="398.57" x2="183.176" y2="400.207"/>
  <line class="uuid-f0baaeb1-4b84-44c8-8888-d8fabfba3ed5" x1="174.776" y1="392.047" x2="171.917" y2="393.685"/>
  <line class="uuid-f0baaeb1-4b84-44c8-8888-d8fabfba3ed5" x1="163.514" y1="385.523" x2="160.654" y2="387.161"/>
  <line class="uuid-f0baaeb1-4b84-44c8-8888-d8fabfba3ed5" x1="152.229" y1="379.003" x2="149.395" y2="380.637"/>
  <line class="uuid-f0baaeb1-4b84-44c8-8888-d8fabfba3ed5" x1="140.918" y1="372.481" x2="138.06" y2="374.117"/>
  <line class="uuid-f0baaeb1-4b84-44c8-8888-d8fabfba3ed5" x1="129.655" y1="365.961" x2="126.797" y2="367.594"/>
  <line class="uuid-f0baaeb1-4b84-44c8-8888-d8fabfba3ed5" x1="118.37" y1="359.437" x2="115.538" y2="361.074"/>
  <line class="uuid-f0baaeb1-4b84-44c8-8888-d8fabfba3ed5" x1="107.109" y1="352.913" x2="104.275" y2="354.55"/>
  <line class="uuid-f0baaeb1-4b84-44c8-8888-d8fabfba3ed5" x1="203.287" y1="173.691" x2="194.85" y2="188.287"/>
  <line class="uuid-f0baaeb1-4b84-44c8-8888-d8fabfba3ed5" x1="164.749" y1="195.358" x2="155.169" y2="211.761"/>
</svg>