<?xml version="1.0" encoding="UTF-8"?>
<svg id="uuid-51effc40-6ac1-4d4d-abaf-a475be590b1d" data-name="&amp;lt;Layer&amp;gt;" xmlns="http://www.w3.org/2000/svg" viewBox="0 0 451.11 451.11">
  <defs>
    <style>
      .uuid-0c86f9e2-e605-4ab5-94a2-1b239a8be4ef, .uuid-a29dfd32-3d7f-4e1a-a06c-385e7483fdf7, .uuid-a7748fba-403d-4b1f-9c5c-3cbd7d4c55fb {
        fill: none;
        stroke: #000;
        stroke-linecap: round;
      }

      .uuid-0c86f9e2-e605-4ab5-94a2-1b239a8be4ef, .uuid-a7748fba-403d-4b1f-9c5c-3cbd7d4c55fb {
        stroke-linejoin: round;
        stroke-width: 4.117px;
      }

      .uuid-a29dfd32-3d7f-4e1a-a06c-385e7483fdf7 {
        stroke-miterlimit: 10;
        stroke-width: 1.163px;
      }

      .uuid-a7748fba-403d-4b1f-9c5c-3cbd7d4c55fb {
        fill-rule: evenodd;
      }
    </style>
  </defs>
  <path class="uuid-a7748fba-403d-4b1f-9c5c-3cbd7d4c55fb" d="M328.336,95.921c-.173-.099-.295-.173-.415-.221-2.881-1.759-10.751-6.498-12.653-7.035-6.034-1.733-11.848,2.491-16.782,5.35"/>
  <path class="uuid-a7748fba-403d-4b1f-9c5c-3cbd7d4c55fb" d="M133.105,361.208c-.243-.169-.415-.365-.585-.537-1.637-1.269-2.832-3.197-3.542-5.571-.17-.511-.291-1.047-.417-1.633-.291-1.196-.389-2.591-.389-4.107"/>
  <path class="uuid-a7748fba-403d-4b1f-9c5c-3cbd7d4c55fb" d="M128.171,226.709c0-.88.048-1.686.169-2.565-.07-.122,0-.221,0-.343.052-.585.126-1.173.221-1.737.126-.754.295-1.56.489-2.318.637-3.201,1.833-6.402,3.47-9.43.391-.732.806-1.49,1.223-2.248.293-.706.706-1.342,1.147-1.927.758-1.221,1.586-2.322,2.344-3.249.341-.463.758-.931,1.099-1.321.048-.073.1-.121.173-.169,1.56-1.711,3.297-3.201,5.104-4.544.585-.389,1.221-.806,1.859-1.221"/>
  <path class="uuid-a7748fba-403d-4b1f-9c5c-3cbd7d4c55fb" d="M181.595,174.922c1.807-1.053,3.592-2.101,5.397-3.153,2.785-1.564,5.571-3.198,8.43-4.809,4.812-2.786,9.699-5.571,14.632-8.503,3.929-2.248,7.936-4.566,12.017-6.889"/>
  <path class="uuid-a7748fba-403d-4b1f-9c5c-3cbd7d4c55fb" d="M226.005,167.128c.415.1.88.048,1.295,0,.221,0,.463-.121.684-.247.295-.048.511-.169.806-.339,1.221-.758,2.395-1.905,3.275-3.322.169-.269.341-.563.511-.858.341-.706.636-1.342.806-2.028.121-.415.243-.827.293-1.221.048-.415.122-.828.122-1.222,0-.341,0-.632-.122-1.001-.051-.269-.121-.56-.221-.854-.121-.245-.291-.536-.463-.757-.247-.244-.489-.417-.71-.585"/>
  <path class="uuid-a7748fba-403d-4b1f-9c5c-3cbd7d4c55fb" d="M132.519,360.671c.391.369.806.637,1.223.88,3.418,2.03,8.183,1.737,13.359-1.291,45.414-26.238,123.167-71.064,168.582-97.324,5.15-2.954,9.915-8.183,13.363-14.095,3.419-5.934,5.567-12.679,5.567-18.713"/>
  <path class="uuid-a7748fba-403d-4b1f-9c5c-3cbd7d4c55fb" d="M334.613,108.476c0-5.982-2.148-10.21-5.567-12.19-.247-.122-.489-.295-.71-.365-.588-.221-1.173-.393-1.685-.588-.563-.096-1.101-.218-1.689-.269-1.145-.122-2.439-.074-3.76.269-.585.125-1.101.319-1.685.489q-.074.048-.122.048c-.758.293-1.637.588-2.395.979-.441.195-.854.415-1.317.706-.71.415-1.468.879-2.274,1.32-.806.489-1.685.954-2.565,1.465-1.781,1.051-3.833,2.2-5.96,3.422-1.464.879-2.906,1.685-4.47,2.612-.828.417-1.637.932-2.443,1.395"/>
  <path class="uuid-a7748fba-403d-4b1f-9c5c-3cbd7d4c55fb" d="M290.056,112.31c-1.564.931-3.176,1.832-4.813,2.786-4.129,2.369-8.403,4.886-12.899,7.477-2.075,1.221-4.225,2.443-6.421,3.738-10.872,6.203-22.547,12.948-34.32,19.787-2.396,1.343-4.765,2.734-7.087,4.077"/>
  <path class="uuid-a7748fba-403d-4b1f-9c5c-3cbd7d4c55fb" d="M329.046,96.286c-.247-.122-.489-.295-.71-.365-.173-.099-.295-.173-.415-.221-.393-.173-.806-.295-1.269-.367-.563-.096-1.101-.218-1.689-.269-1.145-.122-2.439-.074-3.76.269-.585.125-1.101.319-1.685.489q-.074.048-.122.048c-.758.293-1.637.588-2.395.979-.441.195-.854.415-1.317.706-.71.415-1.468.879-2.274,1.32-.806.489-1.685.954-2.565,1.465-1.781,1.051-3.833,2.2-5.96,3.422-1.464.879-2.906,1.685-4.47,2.612-.828.417-1.637.932-2.443,1.395"/>
  <path class="uuid-a7748fba-403d-4b1f-9c5c-3cbd7d4c55fb" d="M290.056,112.31c-1.564.931-3.176,1.857-4.813,2.786-4.129,2.369-8.403,4.886-12.899,7.477-2.075,1.221-4.225,2.443-6.421,3.738-10.872,6.203-22.547,12.948-34.32,19.787-2.396,1.343-4.765,2.734-7.087,4.077-.828.467-1.637.931-2.443,1.394-9.063,5.226-18.077,10.454-26.649,15.392-2.859,1.611-5.645,3.245-8.43,4.809-3.59,2.152-7.204,4.18-10.625,6.159-1.049.632-2.149,1.221-3.15,1.807-1.783,1.025-3.59,2.074-5.323,3.075-5.228,3.006-9.993,5.792-14.122,8.184-1.931,1.099-3.712,2.03-5.397,2.958-.122.073-.173.121-.295.169"/>
  <path class="uuid-a7748fba-403d-4b1f-9c5c-3cbd7d4c55fb" d="M128.171,349.36c0,.736.048,1.516.099,2.153.07.684.196,1.316.291,1.954.126.585.247,1.121.417,1.633.173.515.341,1.053.584,1.52.052.096.126.217.174.339.173.463.389.927.706,1.343.173.293.341.562.636.857q.048.074.1.122c.121.169.243.293.339.463.319.341.662.636,1.003.927.391.369.806.637,1.223.88,3.418,2.03,8.183,1.737,13.359-1.291,45.414-26.238,123.167-71.064,168.582-97.324,5.15-2.954,9.915-8.183,13.363-14.095,3.419-5.934,5.567-12.679,5.567-18.713"/>
  <polyline class="uuid-a7748fba-403d-4b1f-9c5c-3cbd7d4c55fb" points="199.013 235.77 199.061 235.819 199.061 235.943"/>
  <path class="uuid-a7748fba-403d-4b1f-9c5c-3cbd7d4c55fb" d="M199.061,235.943c0,.585,0,1.223-.096,1.855,0,.173,0,.343-.077.585,0,.467,0,.931-.096,1.442,0,1.221-.243,2.443-.489,3.712-.048.415-.096.806-.217,1.221-.884,4.081-2.443,8.356-4.35,12.315-.295.585-.588,1.147-.931,1.759v.048c-2.782,5.349-6.277,9.819-9.721,11.726-3.418,1.979-6.888,1.512-9.747-.589-.295-.217-.585-.438-.854-.684-1.883-1.685-3.37-4.077-4.326-7.035,0-.048-.048-.169-.048-.291-.511-1.785-.854-3.786-.854-5.912"/>
  <path class="uuid-a7748fba-403d-4b1f-9c5c-3cbd7d4c55fb" d="M167.184,253.068c0-13.364-2.149-22.889,15.902-33.321,18.077-10.405,15.976,1.612,15.976,14.928"/>
  <path class="uuid-a7748fba-403d-4b1f-9c5c-3cbd7d4c55fb" d="M228.791,155.037c1.221-.688,2.322-.857,3.201-.514.122,0,.243.047.291.173.295.121.541.291.71.585.173.169.343.389.463.757.1.222.221.511.221.854.048.173.048.321.048.489.074.17.074.343.074.511,0,3.201-2.274,7.035-5.008,8.65-.343.17-.636.339-.905.417-.244.095-.413.169-.585.169-.295.048-.537.048-.758.048-.122,0-.243,0-.369-.048-.169,0-.265-.074-.337-.121q-.052,0-.126-.048"/>
  <path class="uuid-a7748fba-403d-4b1f-9c5c-3cbd7d4c55fb" d="M225.663,166.96c-.389-.078-.71-.295-.975-.589-.073,0-.073-.048-.073-.048-.515-.658-.806-1.516-.806-2.686,0-3.201,2.27-7.035,4.982-8.599"/>
  <polygon class="uuid-a7748fba-403d-4b1f-9c5c-3cbd7d4c55fb" points="143.731 228.346 143.731 343.084 322.644 239.777 322.644 125.015 143.731 228.346"/>
  <path class="uuid-a7748fba-403d-4b1f-9c5c-3cbd7d4c55fb" d="M183.086,219.747c18.077-10.405,15.976,1.612,15.976,14.928,0,.338-.048.68-.048,1.095"/>
  <polyline class="uuid-a7748fba-403d-4b1f-9c5c-3cbd7d4c55fb" points="196.448 266.549 196.402 266.549 196.107 266.649"/>
  <polyline class="uuid-a7748fba-403d-4b1f-9c5c-3cbd7d4c55fb" points="193.37 265.426 192.979 260.272 192.806 258.881"/>
  <polyline class="uuid-a7748fba-403d-4b1f-9c5c-3cbd7d4c55fb" points="194.128 276.295 194.3 276.173 195.86 269.091 196.448 266.549 196.448 266.479"/>
  <polyline class="uuid-a7748fba-403d-4b1f-9c5c-3cbd7d4c55fb" points="171.532 287.289 169.869 281.866 170.505 281.403"/>
  <polyline class="uuid-a7748fba-403d-4b1f-9c5c-3cbd7d4c55fb" points="172.875 277.178 173.217 271.656 173.217 271.608 173.339 270.018"/>
  <polyline class="uuid-a7748fba-403d-4b1f-9c5c-3cbd7d4c55fb" points="198.965 237.798 198.671 236.749 198.671 236.699 197.914 233.843"/>
  <path class="uuid-a7748fba-403d-4b1f-9c5c-3cbd7d4c55fb" d="M197.914,233.843c-.417-1.442-.417-2.958-.465-4.35,0-1.905-.047-3.664-1.047-4.543-1.516-1.369-4.007.779-6.866,3.322-1.953,1.733-4.103,3.617-6.45,4.934-2.322,1.343-4.396,1.933-6.377,2.444-2.906.805-5.349,1.468-6.913,4.691-.975,1.976-.975,3.786-1.049,5.714,0,1.442-.051,3.006-.389,4.861"/>
  <polyline class="uuid-a7748fba-403d-4b1f-9c5c-3cbd7d4c55fb" points="168.357 250.916 167.599 254.458 167.599 254.532 167.304 255.923"/>
  <path class="uuid-a7748fba-403d-4b1f-9c5c-3cbd7d4c55fb" d="M169.747,281.892c-9.478,7.744-16.78,16.806-16.78,24.257v10.968c0,2.956,2.247,4.103,4.982,2.491"/>
  <polyline class="uuid-a7748fba-403d-4b1f-9c5c-3cbd7d4c55fb" points="157.948 319.608 167.256 314.259 179.789 307.003 186.529 303.119 197.497 296.793 208.172 290.612"/>
  <path class="uuid-a7748fba-403d-4b1f-9c5c-3cbd7d4c55fb" d="M198.965,237.798c0,.173-.125,1.807-.173,2.028,0,.467-.243,2.443-.489,3.712-.048.415-.096.806-.217,1.221-.884,4.081-2.443,8.356-4.35,12.315-.295.585-.588,1.147-.931,1.759v.048c-2.782,5.349-6.277,9.819-9.721,11.726-3.418,1.979-6.888,1.512-9.747-.589-.295-.217-.585-.438-.854-.684-1.883-1.685-3.37-4.077-4.326-7.035,0-.048-.048-.169-.048-.291-.511-1.785-.854-3.786-.854-5.912"/>
  <path class="uuid-a7748fba-403d-4b1f-9c5c-3cbd7d4c55fb" d="M167.599,254.458s1.147-6.961,1.147-8.403c.074-1.928.074-3.738,1.049-5.714,1.564-3.223,4.007-3.886,6.913-4.691,1.981-.511,4.055-1.101,6.377-2.444,2.347-1.316,4.496-3.201,6.45-4.934,2.859-2.543,5.35-4.691,6.866-3.322,1.001.879,1.047,2.638,1.047,4.543.048,1.392.048,2.908.465,4.35"/>
  <path class="uuid-a7748fba-403d-4b1f-9c5c-3cbd7d4c55fb" d="M196.402,266.549c-.174.858-.347,1.737-.541,2.543-.559,2.686-1.149,5.058-1.733,7.204-2.2,8.014-4.592,13.609-8.014,22.698"/>
  <polyline class="uuid-a7748fba-403d-4b1f-9c5c-3cbd7d4c55fb" points="186.114 298.993 183.964 304.633 208.245 290.637"/>
  <path class="uuid-a7748fba-403d-4b1f-9c5c-3cbd7d4c55fb" d="M180.252,302.728c-3.833-5.814-6.376-8.72-8.72-15.46-.636-1.564-1.151-3.301-1.737-5.401-9.526,7.792-16.782,16.855-16.782,24.283"/>
  <polyline class="uuid-a7748fba-403d-4b1f-9c5c-3cbd7d4c55fb" points="157.999 319.608 182.231 305.634 180.252 302.728"/>
  <line class="uuid-0c86f9e2-e605-4ab5-94a2-1b239a8be4ef" x1="298.486" y1="94.016" x2="142.093" y2="184.253"/>
  <path class="uuid-a7748fba-403d-4b1f-9c5c-3cbd7d4c55fb" d="M142.093,184.253c-14.582,8.377-25.476,17.197-25.597,35.714"/>
  <line class="uuid-0c86f9e2-e605-4ab5-94a2-1b239a8be4ef" x1="116.497" y1="219.967" x2="116.497" y2="342.619"/>
  <path class="uuid-a7748fba-403d-4b1f-9c5c-3cbd7d4c55fb" d="M116.497,342.619c.047,4.25,1.143,9.283,4.934,11.848"/>
  <line class="uuid-0c86f9e2-e605-4ab5-94a2-1b239a8be4ef" x1="121.431" y1="354.467" x2="133.105" y2="361.208"/>
  <line class="uuid-0c86f9e2-e605-4ab5-94a2-1b239a8be4ef" x1="128.171" y1="349.36" x2="128.171" y2="226.709"/>
  <line class="uuid-0c86f9e2-e605-4ab5-94a2-1b239a8be4ef" x1="145.468" y1="195.636" x2="148.08" y2="194.12"/>
  <line class="uuid-0c86f9e2-e605-4ab5-94a2-1b239a8be4ef" x1="334.613" y1="230.127" x2="334.613" y2="108.476"/>
  <path class="uuid-a7748fba-403d-4b1f-9c5c-3cbd7d4c55fb" d="M297.896,107.77c-2.443,1.464-5.03,2.906-7.767,4.54"/>
  <line class="uuid-0c86f9e2-e605-4ab5-94a2-1b239a8be4ef" x1="167.184" y1="254.337" x2="167.184" y2="253.068"/>
  <path class="uuid-a7748fba-403d-4b1f-9c5c-3cbd7d4c55fb" d="M167.184,253.068c0-13.364-2.149-22.889,15.902-33.321"/>
  <line class="uuid-0c86f9e2-e605-4ab5-94a2-1b239a8be4ef" x1="304.225" y1="174.506" x2="239.612" y2="211.807"/>
  <line class="uuid-0c86f9e2-e605-4ab5-94a2-1b239a8be4ef" x1="304.225" y1="192.291" x2="239.612" y2="229.615"/>
  <line class="uuid-0c86f9e2-e605-4ab5-94a2-1b239a8be4ef" x1="304.225" y1="210.096" x2="239.612" y2="247.398"/>
  <path class="uuid-a7748fba-403d-4b1f-9c5c-3cbd7d4c55fb" d="M196.107,266.649c-1.442.831-2.617.293-2.737-1.223"/>
  <path class="uuid-a7748fba-403d-4b1f-9c5c-3cbd7d4c55fb" d="M170.505,281.403c1.269-.98,2.248-2.735,2.37-4.225"/>
  <line class="uuid-0c86f9e2-e605-4ab5-94a2-1b239a8be4ef" x1="183.086" y1="279.813" x2="169.747" y2="281.892"/>
  <path class="uuid-a7748fba-403d-4b1f-9c5c-3cbd7d4c55fb" d="M208.172,290.612c2.738-1.586,5.01-5.302,5.01-8.257"/>
  <line class="uuid-0c86f9e2-e605-4ab5-94a2-1b239a8be4ef" x1="213.182" y1="282.356" x2="213.182" y2="271.388"/>
  <path class="uuid-a7748fba-403d-4b1f-9c5c-3cbd7d4c55fb" d="M213.182,271.388c0-7.452-7.256-8.084-16.78-4.861"/>
  <line class="uuid-0c86f9e2-e605-4ab5-94a2-1b239a8be4ef" x1="196.402" y1="266.527" x2="183.086" y2="279.813"/>
  <line class="uuid-0c86f9e2-e605-4ab5-94a2-1b239a8be4ef" x1="153.013" y1="306.149" x2="153.013" y2="317.117"/>
  <path class="uuid-a7748fba-403d-4b1f-9c5c-3cbd7d4c55fb" d="M153.013,317.117c0,2.956,2.2,4.081,4.986,2.491"/>
  <line class="uuid-0c86f9e2-e605-4ab5-94a2-1b239a8be4ef" x1="183.086" y1="279.813" x2="183.086" y2="305.076"/>
  <line class="uuid-a29dfd32-3d7f-4e1a-a06c-385e7483fdf7" x1="163.887" y1="314.454" x2="155.972" y2="300.726"/>
  <line class="uuid-a29dfd32-3d7f-4e1a-a06c-385e7483fdf7" x1="173.754" y1="308.983" x2="162.956" y2="290.196"/>
  <line class="uuid-a29dfd32-3d7f-4e1a-a06c-385e7483fdf7" x1="195.764" y1="295.741" x2="191.928" y2="289.074"/>
  <line class="uuid-a29dfd32-3d7f-4e1a-a06c-385e7483fdf7" x1="205.754" y1="290.392" x2="196.448" y2="274.32"/>
  <line class="uuid-a29dfd32-3d7f-4e1a-a06c-385e7483fdf7" x1="211.446" y1="277.643" x2="204.948" y2="266.38"/>
  <line class="uuid-a29dfd32-3d7f-4e1a-a06c-385e7483fdf7" x1="332.88" y1="205.383" x2="324.499" y2="219.917"/>
  <line class="uuid-a29dfd32-3d7f-4e1a-a06c-385e7483fdf7" x1="306.568" y1="250.94" x2="293.209" y2="274.073"/>
  <line class="uuid-a29dfd32-3d7f-4e1a-a06c-385e7483fdf7" x1="332.88" y1="160.189" x2="324.499" y2="174.727"/>
  <line class="uuid-a29dfd32-3d7f-4e1a-a06c-385e7483fdf7" x1="267.413" y1="273.54" x2="254.05" y2="296.671"/>
  <line class="uuid-a29dfd32-3d7f-4e1a-a06c-385e7483fdf7" x1="332.88" y1="115.073" x2="324.499" y2="129.606"/>
  <line class="uuid-a29dfd32-3d7f-4e1a-a06c-385e7483fdf7" x1="228.327" y1="296.087" x2="214.989" y2="319.219"/>
  <line class="uuid-a29dfd32-3d7f-4e1a-a06c-385e7483fdf7" x1="316.268" y1="98.681" x2="291.446" y2="141.601"/>
  <line class="uuid-a29dfd32-3d7f-4e1a-a06c-385e7483fdf7" x1="189.193" y1="318.704" x2="175.904" y2="341.814"/>
  <line class="uuid-a29dfd32-3d7f-4e1a-a06c-385e7483fdf7" x1="277.107" y1="121.254" x2="252.386" y2="164.174"/>
  <line class="uuid-a29dfd32-3d7f-4e1a-a06c-385e7483fdf7" x1="150.059" y1="341.376" x2="138.506" y2="361.429"/>
  <line class="uuid-a29dfd32-3d7f-4e1a-a06c-385e7483fdf7" x1="237.342" y1="145.045" x2="232.824" y2="152.885"/>
  <line class="uuid-a29dfd32-3d7f-4e1a-a06c-385e7483fdf7" x1="224.22" y1="167.74" x2="213.72" y2="185.938"/>
  <line class="uuid-a29dfd32-3d7f-4e1a-a06c-385e7483fdf7" x1="142.093" y1="309.962" x2="129.856" y2="331.21"/>
  <line class="uuid-a29dfd32-3d7f-4e1a-a06c-385e7483fdf7" x1="198.793" y1="166.665" x2="174.145" y2="209.342"/>
  <line class="uuid-a29dfd32-3d7f-4e1a-a06c-385e7483fdf7" x1="142.093" y1="264.816" x2="129.856" y2="286.068"/>
  <line class="uuid-a29dfd32-3d7f-4e1a-a06c-385e7483fdf7" x1="159.976" y1="188.748" x2="129.27" y2="241.952"/>
  <line class="uuid-a29dfd32-3d7f-4e1a-a06c-385e7483fdf7" x1="180.715" y1="232.375" x2="177.125" y2="226.098"/>
  <line class="uuid-a29dfd32-3d7f-4e1a-a06c-385e7483fdf7" x1="189.83" y1="225.56" x2="186.577" y2="219.943"/>
  <line class="uuid-a29dfd32-3d7f-4e1a-a06c-385e7483fdf7" x1="126.412" y1="348.776" x2="118.398" y2="344.157"/>
  <line class="uuid-a29dfd32-3d7f-4e1a-a06c-385e7483fdf7" x1="126.412" y1="335.732" x2="118.35" y2="331.067"/>
  <line class="uuid-a29dfd32-3d7f-4e1a-a06c-385e7483fdf7" x1="126.412" y1="322.711" x2="118.35" y2="318.046"/>
  <line class="uuid-a29dfd32-3d7f-4e1a-a06c-385e7483fdf7" x1="126.412" y1="309.667" x2="118.35" y2="305.002"/>
  <line class="uuid-a29dfd32-3d7f-4e1a-a06c-385e7483fdf7" x1="126.412" y1="296.645" x2="118.35" y2="291.954"/>
  <line class="uuid-a29dfd32-3d7f-4e1a-a06c-385e7483fdf7" x1="126.412" y1="283.603" x2="118.35" y2="278.937"/>
  <line class="uuid-a29dfd32-3d7f-4e1a-a06c-385e7483fdf7" x1="126.412" y1="270.556" x2="118.35" y2="265.891"/>
  <line class="uuid-a29dfd32-3d7f-4e1a-a06c-385e7483fdf7" x1="126.412" y1="257.512" x2="118.35" y2="252.847"/>
  <line class="uuid-a29dfd32-3d7f-4e1a-a06c-385e7483fdf7" x1="126.412" y1="244.49" x2="118.35" y2="239.825"/>
  <line class="uuid-a29dfd32-3d7f-4e1a-a06c-385e7483fdf7" x1="126.412" y1="231.448" x2="118.35" y2="226.782"/>
  <line class="uuid-a29dfd32-3d7f-4e1a-a06c-385e7483fdf7" x1="127.465" y1="219.015" x2="118.741" y2="213.981"/>
  <line class="uuid-a29dfd32-3d7f-4e1a-a06c-385e7483fdf7" x1="131.641" y1="208.411" x2="122.578" y2="203.161"/>
  <line class="uuid-a29dfd32-3d7f-4e1a-a06c-385e7483fdf7" x1="138.212" y1="199.154" x2="130.125" y2="194.514"/>
  <line class="uuid-a29dfd32-3d7f-4e1a-a06c-385e7483fdf7" x1="148.323" y1="191.946" x2="140.361" y2="187.354"/>
  <line class="uuid-a29dfd32-3d7f-4e1a-a06c-385e7483fdf7" x1="159.633" y1="185.426" x2="151.623" y2="180.834"/>
  <line class="uuid-a29dfd32-3d7f-4e1a-a06c-385e7483fdf7" x1="170.896" y1="178.951" x2="162.956" y2="174.332"/>
  <line class="uuid-a29dfd32-3d7f-4e1a-a06c-385e7483fdf7" x1="182.231" y1="172.431" x2="174.218" y2="167.812"/>
  <line class="uuid-a29dfd32-3d7f-4e1a-a06c-385e7483fdf7" x1="193.37" y1="165.833" x2="185.528" y2="161.29"/>
  <line class="uuid-a29dfd32-3d7f-4e1a-a06c-385e7483fdf7" x1="204.632" y1="159.287" x2="196.813" y2="154.77"/>
  <line class="uuid-a29dfd32-3d7f-4e1a-a06c-385e7483fdf7" x1="216.016" y1="152.837" x2="208.124" y2="148.268"/>
  <line class="uuid-a29dfd32-3d7f-4e1a-a06c-385e7483fdf7" x1="227.473" y1="146.388" x2="219.387" y2="141.749"/>
  <line class="uuid-a29dfd32-3d7f-4e1a-a06c-385e7483fdf7" x1="238.732" y1="139.89" x2="230.722" y2="135.225"/>
  <line class="uuid-a29dfd32-3d7f-4e1a-a06c-385e7483fdf7" x1="250.043" y1="133.37" x2="241.981" y2="128.727"/>
  <line class="uuid-a29dfd32-3d7f-4e1a-a06c-385e7483fdf7" x1="261.378" y1="126.846" x2="253.244" y2="122.181"/>
  <line class="uuid-a29dfd32-3d7f-4e1a-a06c-385e7483fdf7" x1="272.641" y1="120.348" x2="264.577" y2="115.683"/>
  <line class="uuid-a29dfd32-3d7f-4e1a-a06c-385e7483fdf7" x1="283.9" y1="113.804" x2="275.839" y2="109.16"/>
  <line class="uuid-a29dfd32-3d7f-4e1a-a06c-385e7483fdf7" x1="295.233" y1="107.306" x2="287.175" y2="102.64"/>
  <line class="uuid-a29dfd32-3d7f-4e1a-a06c-385e7483fdf7" x1="306.399" y1="100.734" x2="298.434" y2="96.138"/>
  <line class="uuid-a29dfd32-3d7f-4e1a-a06c-385e7483fdf7" x1="318.052" y1="94.405" x2="310.844" y2="90.278"/>
</svg>