<?xml version="1.0" encoding="UTF-8"?>
<svg id="uuid-ccc26032-5529-492e-8247-3b0f6300b798" data-name="&amp;lt;Layer&amp;gt;" xmlns="http://www.w3.org/2000/svg" viewBox="0 0 451.11 451.11">
  <defs>
    <style>
      .uuid-e3f354e7-0bef-4f6e-a257-236f36d07e11, .uuid-93683a10-a07a-46cd-b9e0-429846c8772e, .uuid-2203f574-a468-4981-b388-b3cdedf11518, .uuid-a54df789-9a4a-48c0-8a1f-5072a9cb905c {
        fill: none;
        stroke: #000;
        stroke-linecap: round;
      }

      .uuid-e3f354e7-0bef-4f6e-a257-236f36d07e11, .uuid-a54df789-9a4a-48c0-8a1f-5072a9cb905c {
        stroke-linejoin: round;
        stroke-width: 4.113px;
      }

      .uuid-93683a10-a07a-46cd-b9e0-429846c8772e {
        stroke-width: 1.163px;
      }

      .uuid-93683a10-a07a-46cd-b9e0-429846c8772e, .uuid-2203f574-a468-4981-b388-b3cdedf11518 {
        stroke-miterlimit: 10;
      }

      .uuid-2203f574-a468-4981-b388-b3cdedf11518 {
        stroke-width: 1.159px;
      }

      .uuid-a54df789-9a4a-48c0-8a1f-5072a9cb905c {
        fill-rule: evenodd;
      }
    </style>
  </defs>
  <path class="uuid-a54df789-9a4a-48c0-8a1f-5072a9cb905c" d="M230.764,127.114c-2.076.632-4.129,1.39-6.156,2.317-.341.122-.684.295-1.099.465-1.907.805-3.712,1.805-5.571,2.784-4.934,2.687-9.574,5.814-13.996,9.233M151.91,240.824c-.463,5.914-.415,11.896.122,18.567"/>
  <path class="uuid-a54df789-9a4a-48c0-8a1f-5072a9cb905c" d="M332.164,268.869c-1.391.633-2.786,1.27-4.177,1.902-1.095.541-2.222,1.002-3.322,1.516-.975.416-1.955.88-2.908,1.269-.389.196-.758.369-1.147.489-1.638.685-3.371,1.391-5.056,1.955-.71.246-1.343.49-2.027.71-.71.221-1.342.463-2.028.632-1.98.589-3.959,1.101-5.864,1.442-1.292.196-2.565.369-3.786.489-1.39.048-2.734.048-4.007-.073-.121,0-.291,0-.411-.048-.637-.074-1.199-.122-1.785-.247"/>
  <path class="uuid-a54df789-9a4a-48c0-8a1f-5072a9cb905c" d="M243.88,116.142c2.053-1.638,4.081-3.371,6.229-5.178,17.418-14.754,33.81-32.684,46.758-51.445"/>
  <polyline class="uuid-a54df789-9a4a-48c0-8a1f-5072a9cb905c" points="296.867 59.519 298.357 57.247 306.614 62.011"/>
  <path class="uuid-a54df789-9a4a-48c0-8a1f-5072a9cb905c" d="M297.084,75.202c-1.218,1.685-2.565,3.249-3.881,4.886-.122.096-.17.221-.295.342-.122.169-.295.415-.463.584-3.249,3.934-6.572,7.819-9.989,11.554-1.737,1.859-3.495,3.716-5.228,5.497-1.734,1.807-3.544,3.617-5.35,5.35-1.221,1.221-2.491,2.442-3.834,3.664-1.272,1.221-2.542,2.369-3.837,3.543-4.177,3.712-8.11,7.134-11.896,10.405"/>
  <path class="uuid-a54df789-9a4a-48c0-8a1f-5072a9cb905c" d="M297.084,75.128c3.375-4.276,6.498-8.647,9.53-13.117,5.225,15.171,6.155,36.812,3.127,60.629"/>
  <path class="uuid-a54df789-9a4a-48c0-8a1f-5072a9cb905c" d="M248.13,124.497c1.101,0,2.2.048,3.375.173.169,0,.341.048.512.048"/>
  <polyline class="uuid-a54df789-9a4a-48c0-8a1f-5072a9cb905c" points="263.521 127.452 252.309 121.028 252.089 120.833 243.88 116.142 226.635 106.153"/>
  <path class="uuid-a54df789-9a4a-48c0-8a1f-5072a9cb905c" d="M226.635,106.153c-9.747-3.713-18.856-3.713-29.092-1.221-11.311,2.734-20.961,8.01-30.072,15.217-16.906,13.337-29.509,28.555-38.67,48.074-4.081,8.599-6.865,16.734-9.651,25.844-1.199,4.904-2.164,9.779-2.962,14.636"/>
  <path class="uuid-a54df789-9a4a-48c0-8a1f-5072a9cb905c" d="M114.752,222.48c0-.074-.07-.074-.07-.074.07,0,.07-.048.07-.048"/>
  <path class="uuid-a54df789-9a4a-48c0-8a1f-5072a9cb905c" d="M252.016,124.718c-.17,0-.343-.048-.512-.048-7.238-.305-13.625.273-20.741,2.444"/>
  <path class="uuid-a54df789-9a4a-48c0-8a1f-5072a9cb905c" d="M351.145,87.56c-1.49,2.274-3.076,4.474-4.692,6.67-1.563,2.175-3.197,4.376-4.808,6.45-1.638,2.149-3.323,4.251-5.008,6.325-1.737,2.149-3.544,4.254-5.35,6.355-2.152,2.487-4.396,4.93-6.67,7.303-2.664,2.856-5.398,5.593-8.136,8.257-1.221,1.223-2.491,2.444-3.833,3.665-5.108,4.809-10.336,9.327-15.685,13.507-5.152,4.25-10.501,8.429-15.657,12.557-10.994,9.869-20.398,18.931-28.533,28.678-.559.684-1.149,1.39-1.686,2.1-.927,1.097-1.807,2.196-2.615,3.371-1.976,2.542-3.76,5.033-5.445,7.597-6.034,9.137-11.215,19.225-15.682,31.194"/>
  <path class="uuid-a54df789-9a4a-48c0-8a1f-5072a9cb905c" d="M225.193,239.139c-.048.295-.121.559-.243.88-1.442,7.94-2.248,15.365-1.785,22.352.122,1.218.221,2.37.391,3.466.199,1.468.415,2.86.783,4.254.221.975.511,1.903.806,2.833.096.368.173.706.343,1.049.295.805.511,1.563.806,2.321.293.637.588,1.269.879,1.929.295.636.511,1.221.931,1.783,2.244,4.081,5.35,7.963,9.526,11.679-10.284-5.866-16.564-12.312-19.861-20.035-4.177-9.695-3.786-21.373-.928-36.691,11.433-40.771,34.075-61.629,63.514-86.351,4.592-3.912,9.404-7.915,14.339-12.095,5.176-4.348,10.236-8.989,15.048-13.874,11.748-11.553,22.548-24.402,31.658-37.619"/>
  <polyline class="uuid-a54df789-9a4a-48c0-8a1f-5072a9cb905c" points="341.399 85.021 342.911 82.799 351.145 87.56"/>
  <path class="uuid-a54df789-9a4a-48c0-8a1f-5072a9cb905c" d="M316.312,254.357c-.879,1.269-1.737,2.539-2.69,3.76-5.96,8.381-11.995,15.27-17.977,20.789-22.716,21.13-44.388,23.062-58.017,12.779-3.959-2.958-7.208-6.841-9.526-11.679-.419-.562-.636-1.147-.931-1.783-.291-.659-.585-1.291-.879-1.929-.295-.758-.511-1.516-.806-2.321-.17-.343-.247-.682-.343-1.049-.295-.93-.537-1.907-.758-2.885-.367-1.342-.584-2.734-.831-4.202-.17-1.095-.269-2.248-.391-3.466-.585-6.744,0-14.291,1.785-22.352.122-.32.195-.585.243-.88"/>
  <path class="uuid-a54df789-9a4a-48c0-8a1f-5072a9cb905c" d="M227.345,231.589c3.198-9.82,8.353-20.324,15.682-31.194,1.685-2.565,3.47-5.056,5.445-7.597.809-1.174,1.689-2.274,2.615-3.371.537-.71,1.127-1.416,1.686-2.1,7.719-9.478,17.197-19.104,28.533-28.678,3.712-3.127,7.643-6.328,11.774-9.456,1.343-1.001,2.613-2.052,3.882-3.101,5.349-4.18,10.577-8.698,15.685-13.507,1.342-1.222,2.612-2.443,3.833-3.665,2.737-2.663,5.472-5.401,8.136-8.257,2.274-2.373,4.518-4.816,6.67-7.303,1.807-2.101,3.614-4.206,5.35-6.355,1.733-2.074,3.418-4.176,5.008-6.325,1.659-2.074,3.296-4.274,4.808-6.45,1.616-2.196,3.202-4.396,4.692-6.67,13.116,37.938-.976,117.012-34.833,166.797"/>
  <path class="uuid-a54df789-9a4a-48c0-8a1f-5072a9cb905c" d="M197.615,201.324c-5.401,4.128-10.457,2.737-11.287-3.076-.732-5.74,2.98-13.754,8.381-17.882.048-.051.169-.121.217-.121,0,0,.074-.052.074-.126.173-.095.343-.217.511-.341,5.132-3.297,9.703-1.855,10.457,3.664.832,5.766-2.954,13.754-8.353,17.883Z"/>
  <polyline class="uuid-a54df789-9a4a-48c0-8a1f-5072a9cb905c" points="131.586 230.026 111.481 244.121 98.365 236.524 113.583 225.849"/>
  <polyline class="uuid-a54df789-9a4a-48c0-8a1f-5072a9cb905c" points="111.481 244.121 131.538 230.051 108.306 224.628"/>
  <path class="uuid-a54df789-9a4a-48c0-8a1f-5072a9cb905c" d="M108.306,224.628c16.83-5.519,27.971-10.994,35.932-16.074-3.127,12.731-4.591,24.479-4.813,35.494"/>
  <line class="uuid-e3f354e7-0bef-4f6e-a257-236f36d07e11" x1="313.623" y1="258.118" x2="332.164" y2="268.869"/>
  <line class="uuid-e3f354e7-0bef-4f6e-a257-236f36d07e11" x1="252.016" y1="124.718" x2="252.089" y2="124.718"/>
  <path class="uuid-a54df789-9a4a-48c0-8a1f-5072a9cb905c" d="M252.089,124.718c3.764.417,7.599,1.344,11.433,2.734"/>
  <line class="uuid-e3f354e7-0bef-4f6e-a257-236f36d07e11" x1="179.539" y1="315.964" x2="142.628" y2="294.639"/>
  <path class="uuid-a54df789-9a4a-48c0-8a1f-5072a9cb905c" d="M142.628,294.639c-17.198-16.417-23.6-30.024-26.602-50.223"/>
  <path class="uuid-a54df789-9a4a-48c0-8a1f-5072a9cb905c" d="M280.354,148.609c-2.248-10.747-8.525-17.614-16.833-21.157"/>
  <line class="uuid-e3f354e7-0bef-4f6e-a257-236f36d07e11" x1="227.345" y1="231.589" x2="225.193" y2="239.139"/>
  <path class="uuid-a54df789-9a4a-48c0-8a1f-5072a9cb905c" d="M139.426,244.047c-9.478,1.59-18.124.806-27.945.074"/>
  <path class="uuid-a54df789-9a4a-48c0-8a1f-5072a9cb905c" d="M108.306,224.628l-13.194-7.597c12.687-4.166,24.655-9.143,35.958-16.072l13.168,7.595c-10.762,6.949-23.82,12.093-35.932,16.074Z"/>
  <path class="uuid-a54df789-9a4a-48c0-8a1f-5072a9cb905c" d="M295.646,278.906c11.03,2.296,26.484-5.471,36.518-10.037-66.295,71.199-169.027,87.907-179.789-7.035,0-.173-.048-.341-.048-.515-.074-.415-.122-.805-.199-1.221-.048-.121-.096-.243-.048-.415,0-.096,0-.17-.048-.291"/>
  <path class="uuid-a54df789-9a4a-48c0-8a1f-5072a9cb905c" d="M203.94,141.913c-30.395,24.058-48.487,59.038-51.908,97.617-.074.121-.074.243-.074.367v.122c-.048.268-.048.558-.048.805"/>
  <line class="uuid-93683a10-a07a-46cd-b9e0-429846c8772e" x1="315.97" y1="254.063" x2="315.897" y2="254.063"/>
  <line class="uuid-2203f574-a468-4981-b388-b3cdedf11518" x1="355.616" y1="140.157" x2="265.529" y2="296.122"/>
  <line class="uuid-93683a10-a07a-46cd-b9e0-429846c8772e" x1="354.324" y1="97.289" x2="240.705" y2="294.046"/>
  <line class="uuid-93683a10-a07a-46cd-b9e0-429846c8772e" x1="302.312" y1="142.158" x2="226.293" y2="273.84"/>
  <line class="uuid-93683a10-a07a-46cd-b9e0-429846c8772e" x1="150.689" y1="298.135" x2="120.081" y2="245.074"/>
  <line class="uuid-93683a10-a07a-46cd-b9e0-429846c8772e" x1="155.744" y1="284.259" x2="133.393" y2="245.515"/>
  <line class="uuid-93683a10-a07a-46cd-b9e0-429846c8772e" x1="149.884" y1="251.499" x2="141.575" y2="237.086"/>
  <line class="uuid-93683a10-a07a-46cd-b9e0-429846c8772e" x1="122.692" y1="204.498" x2="119.69" y2="199.27"/>
  <line class="uuid-93683a10-a07a-46cd-b9e0-429846c8772e" x1="151.226" y1="231.248" x2="143.898" y2="218.571"/>
  <line class="uuid-93683a10-a07a-46cd-b9e0-429846c8772e" x1="133.271" y1="200.127" x2="124.088" y2="184.225"/>
  <line class="uuid-93683a10-a07a-46cd-b9e0-429846c8772e" x1="155.281" y1="215.713" x2="128.801" y2="169.861"/>
  <line class="uuid-93683a10-a07a-46cd-b9e0-429846c8772e" x1="160.042" y1="201.37" x2="134.956" y2="157.965"/>
  <line class="uuid-93683a10-a07a-46cd-b9e0-429846c8772e" x1="165.565" y1="188.353" x2="141.87" y2="147.362"/>
  <line class="uuid-93683a10-a07a-46cd-b9e0-429846c8772e" x1="171.82" y1="176.652" x2="149.467" y2="137.934"/>
  <line class="uuid-93683a10-a07a-46cd-b9e0-429846c8772e" x1="178.855" y1="166.244" x2="157.65" y2="129.553"/>
  <line class="uuid-93683a10-a07a-46cd-b9e0-429846c8772e" x1="186.523" y1="156.986" x2="166.371" y2="122.029"/>
  <line class="uuid-93683a10-a07a-46cd-b9e0-429846c8772e" x1="194.757" y1="148.656" x2="175.532" y2="115.362"/>
  <line class="uuid-93683a10-a07a-46cd-b9e0-429846c8772e" x1="203.477" y1="141.179" x2="185.474" y2="109.986"/>
  <line class="uuid-93683a10-a07a-46cd-b9e0-429846c8772e" x1="212.712" y1="134.587" x2="196.394" y2="106.273"/>
  <line class="uuid-93683a10-a07a-46cd-b9e0-429846c8772e" x1="222.58" y1="129.09" x2="208.363" y2="104.489"/>
  <line class="uuid-93683a10-a07a-46cd-b9e0-429846c8772e" x1="233.375" y1="125.182" x2="222.459" y2="106.348"/>
  <line class="uuid-93683a10-a07a-46cd-b9e0-429846c8772e" x1="245.007" y1="122.787" x2="241.684" y2="117.047"/>
  <line class="uuid-93683a10-a07a-46cd-b9e0-429846c8772e" x1="256.486" y1="114.873" x2="253.825" y2="110.281"/>
  <line class="uuid-93683a10-a07a-46cd-b9e0-429846c8772e" x1="265.158" y1="107.274" x2="262.425" y2="102.513"/>
  <line class="uuid-93683a10-a07a-46cd-b9e0-429846c8772e" x1="273.513" y1="99.216" x2="270.655" y2="94.305"/>
  <line class="uuid-93683a10-a07a-46cd-b9e0-429846c8772e" x1="281.645" y1="90.713" x2="278.739" y2="85.633"/>
  <line class="uuid-93683a10-a07a-46cd-b9e0-429846c8772e" x1="289.489" y1="81.7" x2="286.462" y2="76.496"/>
  <line class="uuid-93683a10-a07a-46cd-b9e0-429846c8772e" x1="297.036" y1="72.196" x2="293.961" y2="66.846"/>
  <line class="uuid-93683a10-a07a-46cd-b9e0-429846c8772e" x1="309.273" y1="110.427" x2="296.452" y2="132.728"/>
  <line class="uuid-93683a10-a07a-46cd-b9e0-429846c8772e" x1="310.205" y1="86.243" x2="278.374" y2="141.379"/>
  <line class="uuid-93683a10-a07a-46cd-b9e0-429846c8772e" x1="307.957" y1="67.656" x2="270.655" y2="132.191"/>
  <line class="uuid-93683a10-a07a-46cd-b9e0-429846c8772e" x1="275.651" y1="100.99" x2="261.787" y2="124.983"/>
  <line class="uuid-93683a10-a07a-46cd-b9e0-429846c8772e" x1="223.416" y1="271.014" x2="215.715" y2="257.658"/>
  <line class="uuid-93683a10-a07a-46cd-b9e0-429846c8772e" x1="221.996" y1="245.906" x2="218.063" y2="239.139"/>
  <line class="uuid-93683a10-a07a-46cd-b9e0-429846c8772e" x1="225.903" y1="230.125" x2="222.359" y2="224.042"/>
  <line class="uuid-93683a10-a07a-46cd-b9e0-429846c8772e" x1="231.301" y1="216.935" x2="227.93" y2="211.07"/>
  <line class="uuid-93683a10-a07a-46cd-b9e0-429846c8772e" x1="237.677" y1="205.355" x2="234.306" y2="199.615"/>
  <line class="uuid-93683a10-a07a-46cd-b9e0-429846c8772e" x1="244.664" y1="194.85" x2="241.463" y2="189.379"/>
  <line class="uuid-93683a10-a07a-46cd-b9e0-429846c8772e" x1="252.137" y1="185.226" x2="249.182" y2="180.166"/>
  <line class="uuid-93683a10-a07a-46cd-b9e0-429846c8772e" x1="259.982" y1="176.259" x2="257.365" y2="171.718"/>
  <line class="uuid-93683a10-a07a-46cd-b9e0-429846c8772e" x1="268.164" y1="167.932" x2="265.794" y2="163.779"/>
  <line class="uuid-93683a10-a07a-46cd-b9e0-429846c8772e" x1="276.716" y1="160.114" x2="274.441" y2="156.18"/>
  <line class="uuid-93683a10-a07a-46cd-b9e0-429846c8772e" x1="285.484" y1="152.737" x2="283.209" y2="148.73"/>
  <line class="uuid-93683a10-a07a-46cd-b9e0-429846c8772e" x1="294.472" y1="145.724" x2="291.907" y2="141.353"/>
  <line class="uuid-93683a10-a07a-46cd-b9e0-429846c8772e" x1="303.291" y1="138.472" x2="300.679" y2="133.877"/>
  <line class="uuid-93683a10-a07a-46cd-b9e0-429846c8772e" x1="311.89" y1="130.753" x2="309.105" y2="125.94"/>
  <line class="uuid-93683a10-a07a-46cd-b9e0-429846c8772e" x1="320.195" y1="122.566" x2="317.361" y2="117.61"/>
  <line class="uuid-93683a10-a07a-46cd-b9e0-429846c8772e" x1="328.281" y1="113.97" x2="325.327" y2="108.838"/>
  <line class="uuid-93683a10-a07a-46cd-b9e0-429846c8772e" x1="336.048" y1="104.832" x2="332.972" y2="99.555"/>
  <line class="uuid-93683a10-a07a-46cd-b9e0-429846c8772e" x1="343.499" y1="95.133" x2="340.423" y2="89.76"/>
  <line class="uuid-93683a10-a07a-46cd-b9e0-429846c8772e" x1="307.199" y1="280.08" x2="296.963" y2="297.814"/>
  <line class="uuid-93683a10-a07a-46cd-b9e0-429846c8772e" x1="271.877" y1="296.177" x2="258.418" y2="319.482"/>
  <line class="uuid-93683a10-a07a-46cd-b9e0-429846c8772e" x1="245.396" y1="296.814" x2="227.808" y2="327.323"/>
  <line class="uuid-93683a10-a07a-46cd-b9e0-429846c8772e" x1="226.54" y1="284.429" x2="202.376" y2="326.222"/>
  <line class="uuid-93683a10-a07a-46cd-b9e0-429846c8772e" x1="214.225" y1="260.514" x2="181.419" y2="317.408"/>
  <line class="uuid-2203f574-a468-4981-b388-b3cdedf11518" x1="264.551" y1="128.214" x2="164.707" y2="301.125"/>
  <line class="uuid-93683a10-a07a-46cd-b9e0-429846c8772e" x1="239.999" y1="125.546" x2="206.604" y2="183.393"/>
  <line class="uuid-93683a10-a07a-46cd-b9e0-429846c8772e" x1="195.172" y1="203.203" x2="154.818" y2="273.141"/>
  <line class="uuid-93683a10-a07a-46cd-b9e0-429846c8772e" x1="203.698" y1="143.233" x2="154.401" y2="228.709"/>
  <line class="uuid-93683a10-a07a-46cd-b9e0-429846c8772e" x1="311.963" y1="275.341" x2="308.004" y2="268.428"/>
  <line class="uuid-93683a10-a07a-46cd-b9e0-429846c8772e" x1="322.637" y1="271.286" x2="316.816" y2="261.204"/>
  <line class="uuid-93683a10-a07a-46cd-b9e0-429846c8772e" x1="115.683" y1="239.088" x2="105.864" y2="233.396"/>
  <line class="uuid-93683a10-a07a-46cd-b9e0-429846c8772e" x1="127.252" y1="232.734" x2="118.318" y2="227.579"/>
  <line class="uuid-93683a10-a07a-46cd-b9e0-429846c8772e" x1="112.141" y1="221.453" x2="108.012" y2="214.297"/>
  <line class="uuid-93683a10-a07a-46cd-b9e0-429846c8772e" x1="122.866" y1="217.446" x2="118.175" y2="209.311"/>
  <line class="uuid-93683a10-a07a-46cd-b9e0-429846c8772e" x1="133.15" y1="212.759" x2="128.337" y2="204.354"/>
</svg>