<?xml version="1.0" encoding="UTF-8"?>
<svg id="uuid-a8991097-45e6-4f33-a3ac-a4e24a80d3eb" data-name="&amp;lt;Layer&amp;gt;" xmlns="http://www.w3.org/2000/svg" viewBox="0 0 451.11 451.11">
  <defs>
    <style>
      .uuid-ab492e86-3504-4dc1-ad9b-3f7a93a55463, .uuid-0861663a-d55e-42bc-8722-1dd7d5736a02, .uuid-dc01d436-4781-4ead-8bf4-842b2bde5360, .uuid-beefada5-dc37-4f14-8a1c-5fe6a0749975, .uuid-cc8d407c-d5c5-4a6c-917d-1556a6290774 {
        fill: none;
        stroke: #000;
        stroke-linecap: round;
      }

      .uuid-ab492e86-3504-4dc1-ad9b-3f7a93a55463, .uuid-cc8d407c-d5c5-4a6c-917d-1556a6290774 {
        stroke-linejoin: round;
        stroke-width: 4.113px;
      }

      .uuid-0861663a-d55e-42bc-8722-1dd7d5736a02 {
        stroke-width: 1.163px;
      }

      .uuid-0861663a-d55e-42bc-8722-1dd7d5736a02, .uuid-dc01d436-4781-4ead-8bf4-842b2bde5360, .uuid-beefada5-dc37-4f14-8a1c-5fe6a0749975 {
        stroke-miterlimit: 10;
      }

      .uuid-dc01d436-4781-4ead-8bf4-842b2bde5360 {
        stroke-width: 1.167px;
      }

      .uuid-beefada5-dc37-4f14-8a1c-5fe6a0749975 {
        stroke-width: 1.159px;
      }

      .uuid-cc8d407c-d5c5-4a6c-917d-1556a6290774 {
        fill-rule: evenodd;
      }
    </style>
  </defs>
  <polyline class="uuid-cc8d407c-d5c5-4a6c-917d-1556a6290774" points="216.516 330.128 216.516 363.594 216.643 364.131 216.737 364.643 216.911 365.108 217.154 365.523 217.374 365.864 217.738 366.159 218.08 366.38 240.215 379.106"/>
  <path class="uuid-cc8d407c-d5c5-4a6c-917d-1556a6290774" d="M240.215,379.106c.122.096.221.17.343.218.927.588,2.27.467,3.664-.343"/>
  <polyline class="uuid-cc8d407c-d5c5-4a6c-917d-1556a6290774" points="260.831 315.741 272.263 309.07 249.204 282.884"/>
  <path class="uuid-cc8d407c-d5c5-4a6c-917d-1556a6290774" d="M240.215,379.106c-.121-.073-.247-.199-.295-.293-.173-.174-.293-.343-.415-.585-.221-.295-.341-.71-.389-1.101-.074-.367-.122-.758-.122-1.173"/>
  <polyline class="uuid-cc8d407c-d5c5-4a6c-917d-1556a6290774" points="238.994 375.954 238.994 329.494 238.92 329.394"/>
  <polyline class="uuid-cc8d407c-d5c5-4a6c-917d-1556a6290774" points="247.593 281.932 249.204 282.884 231.028 324.557 226.142 335.72 216.516 330.128 203.695 322.702 212.684 302.083"/>
  <path class="uuid-cc8d407c-d5c5-4a6c-917d-1556a6290774" d="M238.994,375.906c0,1.685.585,2.833,1.512,3.419.979.536,2.274.467,3.716-.343"/>
  <polyline class="uuid-cc8d407c-d5c5-4a6c-917d-1556a6290774" points="260.757 315.689 272.263 309.07 249.204 282.81 226.142 335.72 237.652 329.053"/>
  <path class="uuid-cc8d407c-d5c5-4a6c-917d-1556a6290774" d="M315.993,110.811c.632.341,1.291.684,1.854,1.048.511.346,1.175.688,1.686,1.051.588.391,1.221.858,1.809,1.392.802.563,1.56,1.273,2.318,2.078.417.417.806.806,1.221,1.269.758.832,1.442,1.759,2.149,2.737.099.17.221.417.415.586.173.295.343.563.515.88.048,0,.048.047.048.047.636,1.101,1.27,2.201,1.858,3.423.364.706.633,1.442,1.001,2.2.343.828.633,1.633.928,2.439.099.342.269.659.558.88,0,.046.078.121.2.121.047.052.098.1.289.172"/>
  <path class="uuid-cc8d407c-d5c5-4a6c-917d-1556a6290774" d="M332.354,130.842c0,.046.078.121.2.121.047.052.098.1.289.172.932.512,2.252.174,3.543-1"/>
  <path class="uuid-cc8d407c-d5c5-4a6c-917d-1556a6290774" d="M341.298,125.786c1.049-.928,1.881-2.076,2.392-3.47.515-1.464.589-2.687.242-3.666-.754-2.27-1.633-4.348-2.635-6.324-.463-1-.979-1.979-1.563-2.907-1.149-1.979-2.37-3.786-3.838-5.397-.389-.589-.853-1.053-1.318-1.59-1.685-1.783-3.492-3.347-5.471-4.691-1.027-.758-2.152-1.464-3.3-2.027-1.171-.658-2.318-1.222-3.54-1.685"/>
  <path class="uuid-cc8d407c-d5c5-4a6c-917d-1556a6290774" d="M300.601,138.343c.537.218,1.101.511,1.564.854.463.295.928.585,1.392.927.463.343.927.711,1.342,1.101.295.242.589.537.806.832,1.005.975,1.859,2.074,2.617,3.369.289.391.536.854.754,1.318.077.074.125.125.125.173.169.291.291.585.463.88.122.293.243.584.343.879.074.173.169.343.243.511.173.463.463.758.736,1.005.143.048.143.096.317.169"/>
  <path class="uuid-cc8d407c-d5c5-4a6c-917d-1556a6290774" d="M311.348,150.36c.122.048.222.1.343.1.88.243,1.979-.173,3.08-1.147"/>
  <path class="uuid-cc8d407c-d5c5-4a6c-917d-1556a6290774" d="M319.701,144.963c1.053-1.001,1.859-2.222,2.395-3.616.512-1.443.589-2.665.222-3.666-.511-1.442-1.175-2.785-1.855-4.055-.343-.632-.71-1.269-1.101-1.854-.341-.589-.684-1.151-1.173-1.685-1.27-1.737-2.712-3.253-4.276-4.544-.415-.343-.879-.685-1.342-.906-1.001-.831-2.149-1.515-3.371-2.052"/>
  <path class="uuid-cc8d407c-d5c5-4a6c-917d-1556a6290774" d="M229.807,119.972c-.511-2.615,1.053-5.617,3.08-7.207,1.049-.806,2.148-1.659,3.249-2.417"/>
  <path class="uuid-cc8d407c-d5c5-4a6c-917d-1556a6290774" d="M288.165,136.997c-5.618.931-11.847,3.79-18.05,8.599-1.269.979-2.491,1.221-3.323.684-.169-.096-.269-.17-.343-.295-.341-.291-.511-.633-.636-1.097"/>
  <path class="uuid-cc8d407c-d5c5-4a6c-917d-1556a6290774" d="M264.496,139.955c-.121-.343-.121-.684-.121-1.053,0-.512.047-1.099.221-1.611.073-.463.291-.928.534-1.391.221-.588.562-1.099.931-1.637.269-.39.684-.806,1.053-1.173"/>
  <path class="uuid-cc8d407c-d5c5-4a6c-917d-1556a6290774" d="M269.698,131.063c.369-.221.71-.512,1.053-.685,1.39-1.047,2.734-1.905,4.128-2.734.585-.393,1.223-.758,1.807-1.051.585-.342,1.197-.685,1.859-1.048.389-.221.975-.515,1.438-.685,1.053-.514,2.102-1.051,3.249-1.442.048-.073.195-.121.247-.121,1.097-.467,2.196-.88,3.371-1.221.169-.048.341-.122.511-.174.805-.217,1.689-.463,2.564-.632.515-.173,1.101-.295,1.689-.415,1.023-.222,2.076-.343,3.076-.465.1-.046.221-.046.343-.046.511-.078.979-.126,1.442-.078,4.665-.291,8.941.541,12.727,2.322"/>
  <path class="uuid-cc8d407c-d5c5-4a6c-917d-1556a6290774" d="M230.27,88.558c1.931-1.442,4.644-3.349,6.624-4.64,1.928-1.221,4.665-2.91,6.618-3.959,1.807-.979,4.592-2.369,6.498-3.175,1.759-.832,4.544-1.857,6.351-2.491,1.736-.541,4.47-1.296,6.203-1.689,1.685-.365,4.348-.828,6.034-1.001,7.376-.511,12.045-.048,19.007,2.395"/>
  <path class="uuid-cc8d407c-d5c5-4a6c-917d-1556a6290774" d="M322.27,94.029c-6.965-2.491-11.678-2.906-19.008-2.395-1.685.199-4.396.588-6.031,1.001-13.463,2.906-24.92,10.166-35.668,18.569-1.612,1.343-2.954,3.734-3.002,5.884"/>
  <polyline class="uuid-cc8d407c-d5c5-4a6c-917d-1556a6290774" points="258.561 117.088 258.682 118.362 259.999 123.247"/>
  <path class="uuid-cc8d407c-d5c5-4a6c-917d-1556a6290774" d="M310.175,149.187c-6.031-15.391-22.937-16.903-40.06-3.59-1.979,1.442-3.834,1.147-4.35-.755"/>
  <path class="uuid-cc8d407c-d5c5-4a6c-917d-1556a6290774" d="M264.496,139.955c-.317-1.101-.121-2.369.441-3.764.585-1.464,1.464-2.612,2.565-3.444,23.474-18.445,46.754-16.366,54.768,4.934.415,1.001.338,2.222-.174,3.617-.536,1.442-1.342,2.664-2.395,3.59"/>
  <path class="uuid-cc8d407c-d5c5-4a6c-917d-1556a6290774" d="M331.796,129.914c-9.357-26.992-38.329-29.607-67.3-6.035-1.979,1.564-3.955,1.322-4.496-.632"/>
  <path class="uuid-cc8d407c-d5c5-4a6c-917d-1556a6290774" d="M258.682,118.362c-.247-1.053-.121-2.322.465-3.716.584-1.391,1.394-2.565,2.417-3.441,35.568-29.023,71.037-25.821,82.37,7.447.347.979.221,2.201-.291,3.592-.537,1.394-1.295,2.615-2.395,3.544"/>
  <polyline class="uuid-cc8d407c-d5c5-4a6c-917d-1556a6290774" points="151.418 326.021 151.37 326.021 116.755 306.042"/>
  <path class="uuid-cc8d407c-d5c5-4a6c-917d-1556a6290774" d="M116.755,306.042c-1.979-1.222-3.543-2.615-4.935-4.47-5.471-7.208-5.519-18.104-4.006-26.649,2.954-16.37,13.241-33.91,26.234-44.363"/>
  <path class="uuid-cc8d407c-d5c5-4a6c-917d-1556a6290774" d="M135.563,229.386c.174-1.859.417-3.591.758-5.449,4.592-26.602,23.111-56.453,46.732-70.158,9.231-5.35,21.274-8.989,31.61-4.466"/>
  <polyline class="uuid-cc8d407c-d5c5-4a6c-917d-1556a6290774" points="214.663 149.312 215.638 149.824 222.845 153.952"/>
  <path class="uuid-cc8d407c-d5c5-4a6c-917d-1556a6290774" d="M222.845,153.952c6.498-5.74,15.34-11.211,24.158-11.042,2.149.074,4.4.489,6.45,1.295"/>
  <polyline class="uuid-cc8d407c-d5c5-4a6c-917d-1556a6290774" points="253.454 144.205 254.382 144.595 269.477 153.315 271.042 153.025"/>
  <polyline class="uuid-cc8d407c-d5c5-4a6c-917d-1556a6290774" points="281.546 153.9 282.646 154.415 317.335 174.397"/>
  <path class="uuid-cc8d407c-d5c5-4a6c-917d-1556a6290774" d="M317.335,174.397c6.62,3.249,10.795,11.042,10.795,22.305-.048,21.421-15.096,47.438-33.636,58.185"/>
  <path class="uuid-cc8d407c-d5c5-4a6c-917d-1556a6290774" d="M175.165,323.703c-18.518,10.675-33.567,1.979-33.567-19.471,0-19.441,12.433-42.721,28.582-54.814,3.006-28.971,23.158-61.56,47.512-75.605,16.122-9.356,30.414-8.355,39.06.806,3.032-2.785,6.281-5.228,9.578-7.133,14.754-8.477,27.261-4.761,31.779,7.892,16.907-7.645,30.023,1.292,30.023,21.326-.048,21.421-15.096,47.438-33.636,58.185"/>
  <line class="uuid-ab492e86-3504-4dc1-ad9b-3f7a93a55463" x1="244.222" y1="378.982" x2="254.26" y2="373.242"/>
  <path class="uuid-cc8d407c-d5c5-4a6c-917d-1556a6290774" d="M254.26,373.242c1.464-.88,2.738-2.27,3.664-3.959"/>
  <line class="uuid-ab492e86-3504-4dc1-ad9b-3f7a93a55463" x1="257.924" y1="369.283" x2="257.972" y2="369.283"/>
  <path class="uuid-cc8d407c-d5c5-4a6c-917d-1556a6290774" d="M257.972,369.283c.88-1.634,1.516-3.492,1.516-5.152"/>
  <line class="uuid-ab492e86-3504-4dc1-ad9b-3f7a93a55463" x1="259.488" y1="364.131" x2="259.488" y2="318.011"/>
  <path class="uuid-cc8d407c-d5c5-4a6c-917d-1556a6290774" d="M259.488,318.011c0-.879.586-1.858,1.343-2.27"/>
  <line class="uuid-ab492e86-3504-4dc1-ad9b-3f7a93a55463" x1="296.543" y1="108.246" x2="297.179" y2="109.931"/>
  <path class="uuid-cc8d407c-d5c5-4a6c-917d-1556a6290774" d="M297.179,109.931c.343.806.417.928,1.221,1.343"/>
  <line class="uuid-ab492e86-3504-4dc1-ad9b-3f7a93a55463" x1="298.401" y1="111.275" x2="332.354" y2="130.842"/>
  <line class="uuid-ab492e86-3504-4dc1-ad9b-3f7a93a55463" x1="336.387" y1="130.135" x2="341.298" y2="125.786"/>
  <path class="uuid-cc8d407c-d5c5-4a6c-917d-1556a6290774" d="M288.118,136.997c.047-.048.047,0,.047,0"/>
  <line class="uuid-ab492e86-3504-4dc1-ad9b-3f7a93a55463" x1="288.165" y1="136.997" x2="310.985" y2="150.191"/>
  <path class="uuid-cc8d407c-d5c5-4a6c-917d-1556a6290774" d="M310.985,150.191c.143.048.143.096.317.169"/>
  <line class="uuid-ab492e86-3504-4dc1-ad9b-3f7a93a55463" x1="314.771" y1="149.312" x2="319.701" y2="144.963"/>
  <path class="uuid-cc8d407c-d5c5-4a6c-917d-1556a6290774" d="M266.792,146.28c-.1-.048-.169-.048-.221-.096"/>
  <line class="uuid-ab492e86-3504-4dc1-ad9b-3f7a93a55463" x1="266.571" y1="146.184" x2="232.249" y2="126.302"/>
  <path class="uuid-cc8d407c-d5c5-4a6c-917d-1556a6290774" d="M232.249,126.302c-.684-.441-.758-.637-1.099-1.443"/>
  <line class="uuid-ab492e86-3504-4dc1-ad9b-3f7a93a55463" x1="231.15" y1="124.858" x2="229.807" y2="119.972"/>
  <line class="uuid-ab492e86-3504-4dc1-ad9b-3f7a93a55463" x1="265.813" y1="144.889" x2="264.496" y2="139.955"/>
  <line class="uuid-ab492e86-3504-4dc1-ad9b-3f7a93a55463" x1="309.2" y1="122.585" x2="287.996" y2="110.348"/>
  <line class="uuid-ab492e86-3504-4dc1-ad9b-3f7a93a55463" x1="287.605" y1="73.999" x2="322.27" y2="94.029"/>
  <path class="uuid-cc8d407c-d5c5-4a6c-917d-1556a6290774" d="M259.999,123.247c.369.802.415.975,1.127,1.49"/>
  <line class="uuid-ab492e86-3504-4dc1-ad9b-3f7a93a55463" x1="261.126" y1="124.737" x2="226.51" y2="104.703"/>
  <path class="uuid-cc8d407c-d5c5-4a6c-917d-1556a6290774" d="M226.51,104.703c-.758-.463-.831-.632-1.169-1.438"/>
  <line class="uuid-ab492e86-3504-4dc1-ad9b-3f7a93a55463" x1="225.34" y1="103.265" x2="223.945" y2="97.914"/>
  <path class="uuid-cc8d407c-d5c5-4a6c-917d-1556a6290774" d="M223.945,97.914c-.684-4.348,3.419-7.034,6.325-9.356"/>
  <path class="uuid-cc8d407c-d5c5-4a6c-917d-1556a6290774" d="M314.771,149.238c-1.91,1.707-3.887,1.707-4.596-.052"/>
  <path class="uuid-cc8d407c-d5c5-4a6c-917d-1556a6290774" d="M175.165,323.703c-9.283,5.35-17.64,5.862-23.747,2.318"/>
  <line class="uuid-ab492e86-3504-4dc1-ad9b-3f7a93a55463" x1="134.048" y1="230.559" x2="135.563" y2="229.386"/>
  <path class="uuid-cc8d407c-d5c5-4a6c-917d-1556a6290774" d="M271.042,153.025c3.495-.637,7.208-.467,10.504.875"/>
  <line class="uuid-ab492e86-3504-4dc1-ad9b-3f7a93a55463" x1="294.494" y1="254.888" x2="175.165" y2="323.703"/>
  <line class="uuid-ab492e86-3504-4dc1-ad9b-3f7a93a55463" x1="170.179" y1="249.417" x2="135.563" y2="229.386"/>
  <line class="uuid-ab492e86-3504-4dc1-ad9b-3f7a93a55463" x1="257.214" y1="173.812" x2="222.845" y2="153.952"/>
  <line class="uuid-ab492e86-3504-4dc1-ad9b-3f7a93a55463" x1="289.097" y1="164.699" x2="269.477" y2="153.315"/>
  <line class="uuid-beefada5-dc37-4f14-8a1c-5fe6a0749975" x1="220.641" y1="367.605" x2="217.208" y2="361.133"/>
  <line class="uuid-0861663a-d55e-42bc-8722-1dd7d5736a02" x1="237.526" y1="374.048" x2="217.958" y2="340.117"/>
  <line class="uuid-0861663a-d55e-42bc-8722-1dd7d5736a02" x1="237.184" y1="350.82" x2="228.585" y2="335.94"/>
  <line class="uuid-0861663a-d55e-42bc-8722-1dd7d5736a02" x1="244.344" y1="376.76" x2="240.969" y2="370.924"/>
  <line class="uuid-0861663a-d55e-42bc-8722-1dd7d5736a02" x1="258.145" y1="355.582" x2="235.498" y2="316.374"/>
  <line class="uuid-0861663a-d55e-42bc-8722-1dd7d5736a02" x1="260.489" y1="314.467" x2="247.004" y2="291.115"/>
  <line class="uuid-0861663a-d55e-42bc-8722-1dd7d5736a02" x1="213.459" y1="326.484" x2="207.734" y2="316.599"/>
  <line class="uuid-0861663a-d55e-42bc-8722-1dd7d5736a02" x1="227.705" y1="328.684" x2="213.32" y2="303.794"/>
  <line class="uuid-0861663a-d55e-42bc-8722-1dd7d5736a02" x1="233.254" y1="315.616" x2="222.897" y2="297.733"/>
  <line class="uuid-0861663a-d55e-42bc-8722-1dd7d5736a02" x1="238.699" y1="302.499" x2="232.835" y2="292.336"/>
  <line class="uuid-0861663a-d55e-42bc-8722-1dd7d5736a02" x1="244.172" y1="289.382" x2="242.78" y2="286.938"/>
  <line class="uuid-0861663a-d55e-42bc-8722-1dd7d5736a02" x1="122.156" y1="307.215" x2="108.546" y2="283.811"/>
  <line class="uuid-0861663a-d55e-42bc-8722-1dd7d5736a02" x1="141.376" y1="295.365" x2="116.681" y2="252.666"/>
  <line class="uuid-0861663a-d55e-42bc-8722-1dd7d5736a02" x1="151.955" y1="268.593" x2="131.73" y2="233.562"/>
  <line class="uuid-0861663a-d55e-42bc-8722-1dd7d5736a02" x1="158.21" y1="240.77" x2="140.839" y2="210.747"/>
  <line class="uuid-0861663a-d55e-42bc-8722-1dd7d5736a02" x1="175.333" y1="225.279" x2="152.396" y2="185.488"/>
  <line class="uuid-0861663a-d55e-42bc-8722-1dd7d5736a02" x1="187.766" y1="201.684" x2="167.614" y2="166.726"/>
  <line class="uuid-0861663a-d55e-42bc-8722-1dd7d5736a02" x1="203.278" y1="183.386" x2="185.912" y2="153.245"/>
  <line class="uuid-0861663a-d55e-42bc-8722-1dd7d5736a02" x1="221.745" y1="170.218" x2="209.655" y2="149.238"/>
  <line class="uuid-0861663a-d55e-42bc-8722-1dd7d5736a02" x1="249.962" y1="167.653" x2="237.43" y2="145.986"/>
  <line class="uuid-0861663a-d55e-42bc-8722-1dd7d5736a02" x1="273.069" y1="162.551" x2="267.682" y2="153.241"/>
  <line class="uuid-0861663a-d55e-42bc-8722-1dd7d5736a02" x1="302.791" y1="174.247" x2="296.481" y2="163.213"/>
  <line class="uuid-dc01d436-4781-4ead-8bf4-842b2bde5360" x1="309.262" y1="118.703" x2="304.094" y2="109.762"/>
  <line class="uuid-beefada5-dc37-4f14-8a1c-5fe6a0749975" x1="326.964" y1="126.809" x2="319.893" y2="114.553"/>
  <line class="uuid-beefada5-dc37-4f14-8a1c-5fe6a0749975" x1="235.851" y1="126.651" x2="231.26" y2="118.765"/>
  <line class="uuid-0861663a-d55e-42bc-8722-1dd7d5736a02" x1="255.19" y1="137.633" x2="242.706" y2="115.966"/>
  <line class="uuid-0861663a-d55e-42bc-8722-1dd7d5736a02" x1="265.18" y1="132.357" x2="261.979" y2="126.765"/>
  <line class="uuid-0861663a-d55e-42bc-8722-1dd7d5736a02" x1="274.415" y1="125.664" x2="271.629" y2="120.853"/>
  <line class="uuid-0861663a-d55e-42bc-8722-1dd7d5736a02" x1="284.625" y1="120.804" x2="281.326" y2="115.113"/>
  <line class="uuid-0861663a-d55e-42bc-8722-1dd7d5736a02" x1="296.702" y1="119.258" x2="294.851" y2="115.943"/>
  <line class="uuid-0861663a-d55e-42bc-8722-1dd7d5736a02" x1="249.911" y1="116.429" x2="233.254" y2="87.58"/>
  <line class="uuid-0861663a-d55e-42bc-8722-1dd7d5736a02" x1="269.066" y1="104.412" x2="252.99" y2="76.611"/>
  <line class="uuid-0861663a-d55e-42bc-8722-1dd7d5736a02" x1="288.923" y1="93.665" x2="276.98" y2="72.95"/>
</svg>