<?xml version="1.0" encoding="UTF-8"?>
<svg id="uuid-1252048e-cb3d-49ef-bbc5-fe626ed6ec0d" data-name="&amp;lt;Layer&amp;gt;" xmlns="http://www.w3.org/2000/svg" viewBox="0 0 451.11 451.11">
  <defs>
    <style>
      .uuid-a5ec5340-cc10-427a-bb69-d443a6ae090e, .uuid-cf161187-2e2b-41cb-8e21-0f692ffe4142, .uuid-a6c2e46c-14e7-4cd1-aee3-91a1a2ad1128 {
        fill: none;
        stroke: #000;
        stroke-linecap: round;
      }

      .uuid-a5ec5340-cc10-427a-bb69-d443a6ae090e, .uuid-a6c2e46c-14e7-4cd1-aee3-91a1a2ad1128 {
        stroke-linejoin: round;
        stroke-width: 4.113px;
      }

      .uuid-cf161187-2e2b-41cb-8e21-0f692ffe4142 {
        stroke-miterlimit: 10;
        stroke-width: 1.163px;
      }

      .uuid-a6c2e46c-14e7-4cd1-aee3-91a1a2ad1128 {
        fill-rule: evenodd;
      }
    </style>
  </defs>
  <path class="uuid-a6c2e46c-14e7-4cd1-aee3-91a1a2ad1128" d="M172.427,359.782c0-.147-.247-.199-.247-.247-.975-.927-1.953-1.733-2.443-2.565,0-.121,0-.221-.243-.341,0-.17,0-.415-.244-.585,0-.099,0-.295-.245-.415,0-.221,0-.511-.244-.806v-.169c0-.295-.247-.637-.247-.979v-.464c-.243-.757-.243-1.637-.243-2.615-.243-.122-.243-.243-.243-.415"/>
  <path class="uuid-a6c2e46c-14e7-4cd1-aee3-91a1a2ad1128" d="M168.029,270.325c.243-1.783.485-3.591.976-5.375,0-.489,0-.88.245-1.344.244-.758.244-1.512.733-2.27v-.247c.243-.632.49-1.222.732-1.781v-.345c.732-1.391,1.464-2.782,2.2-4.077.485-.931,1.218-1.807,1.707-2.664.732-1.049,1.711-2.027,2.443-2.98,1.953-1.903,3.909-3.592,6.108-4.982"/>
  <path class="uuid-a6c2e46c-14e7-4cd1-aee3-91a1a2ad1128" d="M302.871,175.276c1.223-.589,2.444-1.101,3.423-1.468.485-.169.975-.291,1.464-.391,1.711-.29,3.175-.121,5.375.685"/>
  <polyline class="uuid-a6c2e46c-14e7-4cd1-aee3-91a1a2ad1128" points="313.133 174.103 312.886 173.929 292.61 162.159"/>
  <path class="uuid-a6c2e46c-14e7-4cd1-aee3-91a1a2ad1128" d="M313.133,174.103c.485.195.975.463,1.219.758.489.291.735.71,1.221,1.099.247.533.736,1.171,1.221,1.929,0,.463.247.979.489,1.515.247.685.489,1.391.489,2.123,0,.758.243,1.538.243,2.395"/>
  <path class="uuid-a6c2e46c-14e7-4cd1-aee3-91a1a2ad1128" d="M183.174,358.829c-2.932,1.759-5.866,2.344-8.305,1.855,0,0-.247-.048-.489-.096-.732-.195-1.222-.415-1.711-.71l-.243-.048"/>
  <polyline class="uuid-a6c2e46c-14e7-4cd1-aee3-91a1a2ad1128" points="172.427 359.83 172.427 359.782 137.738 339.799 137.492 339.678"/>
  <path class="uuid-a6c2e46c-14e7-4cd1-aee3-91a1a2ad1128" d="M243.023,235.588c8.551-4.886,15.391-.927,15.391,8.842,0,5.938-2.69,12.657-6.597,18.103"/>
  <path class="uuid-a6c2e46c-14e7-4cd1-aee3-91a1a2ad1128" d="M233.982,272.769c-3.664-.954-6.35-4.739-6.35-10.675,0-9.773,6.839-21.619,15.39-26.506"/>
  <path class="uuid-a6c2e46c-14e7-4cd1-aee3-91a1a2ad1128" d="M266.475,126.98c-1.711-5.129-3.911-10.21-7.573-14.095.487.195,1.219.321,1.955.511,10.991,3.301,19.783,13.537,19.783,29.365"/>
  <polyline class="uuid-a6c2e46c-14e7-4cd1-aee3-91a1a2ad1128" points="280.64 142.761 280.64 173.345 267.696 165.872 267.939 142.224"/>
  <path class="uuid-a6c2e46c-14e7-4cd1-aee3-91a1a2ad1128" d="M261.343,94.323c-9.769-5.012-17.834-4.886-28.582-2.322-8.547,2.613-14.654,5.689-21.984,10.575-9.284,6.502-16.123,12.779-23.453,21.256-6.592,7.841-11.479,15.019-16.608,23.791-5.376,10.114-9.283,18.882-12.458,30.145-2.201,7.889-3.665,14.46-3.665,22.646"/>
  <polyline class="uuid-a6c2e46c-14e7-4cd1-aee3-91a1a2ad1128" points="154.593 200.413 154.593 220.518 154.593 231.364 167.294 238.812 167.54 213.016"/>
  <path class="uuid-a6c2e46c-14e7-4cd1-aee3-91a1a2ad1128" d="M220.306,111.91c1.707-1.27,3.66-2.491,5.372-3.592.979-.585,1.711-1.099,2.686-1.637,2.689-1.49,5.375-2.886,8.062-4.177.979-.467,1.953-.879,2.933-1.221.975-.341,1.953-.758,2.928-1.099q.247-.052.489-.122c2.443-.758,4.887-1.394,7.33-1.857.247-.048.247-.122.489-.048,1.221-.247,2.443-.417,3.665-.537,1.221-.1,2.442-.173,3.664-.173"/>
  <path class="uuid-a6c2e46c-14e7-4cd1-aee3-91a1a2ad1128" d="M257.924,97.447c.979,0,1.955.073,2.933.121.243.052.732.052,1.221.122.732.051,1.464.173,2.443.393.486.074.975.17,1.464.317,2.686.636,5.372,1.663,8.062,3.054"/>
  <polyline class="uuid-a6c2e46c-14e7-4cd1-aee3-91a1a2ad1128" points="292.61 140.93 292.61 166.504 280.64 173.345 280.64 142.761"/>
  <path class="uuid-a6c2e46c-14e7-4cd1-aee3-91a1a2ad1128" d="M280.64,142.761c-.243-28.091-24.18-38.718-50.808-23.769-27.116,15.171-50.813,51.202-50.813,82.054"/>
  <polyline class="uuid-a6c2e46c-14e7-4cd1-aee3-91a1a2ad1128" points="179.02 201.047 179.266 231.972 167.294 238.79 167.294 205.443"/>
  <polyline class="uuid-a6c2e46c-14e7-4cd1-aee3-91a1a2ad1128" points="233.982 300.419 233.982 294.557 246.44 301.592"/>
  <path class="uuid-a6c2e46c-14e7-4cd1-aee3-91a1a2ad1128" d="M243.023,235.588c8.551-4.886,15.391-.927,15.391,8.842,0,3.812-1.222,7.966-2.933,11.874"/>
  <polyline class="uuid-a6c2e46c-14e7-4cd1-aee3-91a1a2ad1128" points="255.481 256.304 251.817 262.533 230.564 250.221"/>
  <line class="uuid-a5ec5340-cc10-427a-bb69-d443a6ae090e" x1="168.029" y1="350.179" x2="168.029" y2="270.325"/>
  <line class="uuid-a5ec5340-cc10-427a-bb69-d443a6ae090e" x1="183.174" y1="244.261" x2="302.871" y2="175.276"/>
  <line class="uuid-a5ec5340-cc10-427a-bb69-d443a6ae090e" x1="267.939" y1="155.125" x2="179.02" y2="206.275"/>
  <line class="uuid-a5ec5340-cc10-427a-bb69-d443a6ae090e" x1="318.016" y1="183.922" x2="318.016" y2="263.728"/>
  <path class="uuid-a6c2e46c-14e7-4cd1-aee3-91a1a2ad1128" d="M318.016,263.728c0,9.577-6.841,21.303-15.145,26.064"/>
  <line class="uuid-a5ec5340-cc10-427a-bb69-d443a6ae090e" x1="302.871" y1="289.792" x2="183.174" y2="358.829"/>
  <path class="uuid-a6c2e46c-14e7-4cd1-aee3-91a1a2ad1128" d="M137.492,339.678c-3.662-3.08-3.909-4.986-4.398-9.7"/>
  <line class="uuid-a5ec5340-cc10-427a-bb69-d443a6ae090e" x1="133.094" y1="329.978" x2="133.34" y2="250.121"/>
  <path class="uuid-a6c2e46c-14e7-4cd1-aee3-91a1a2ad1128" d="M133.34,250.121c.243-10.405,6.108-20.372,14.902-26.016"/>
  <line class="uuid-a5ec5340-cc10-427a-bb69-d443a6ae090e" x1="148.243" y1="224.106" x2="154.593" y2="220.518"/>
  <path class="uuid-a6c2e46c-14e7-4cd1-aee3-91a1a2ad1128" d="M168.029,350.131c0,9.53,6.84,13.437,15.145,8.672"/>
  <path class="uuid-a6c2e46c-14e7-4cd1-aee3-91a1a2ad1128" d="M318.016,183.948c0-9.552-6.841-13.463-15.145-8.698"/>
  <line class="uuid-a5ec5340-cc10-427a-bb69-d443a6ae090e" x1="251.817" y1="262.533" x2="251.817" y2="290.209"/>
  <path class="uuid-a6c2e46c-14e7-4cd1-aee3-91a1a2ad1128" d="M251.817,290.209c0,4.665-3.175,10.383-7.33,12.705"/>
  <line class="uuid-a5ec5340-cc10-427a-bb69-d443a6ae090e" x1="244.487" y1="302.914" x2="241.312" y2="304.672"/>
  <path class="uuid-a6c2e46c-14e7-4cd1-aee3-91a1a2ad1128" d="M241.312,304.672c-3.907,2.343-7.33.415-7.33-4.253"/>
  <line class="uuid-a5ec5340-cc10-427a-bb69-d443a6ae090e" x1="233.982" y1="300.419" x2="233.982" y2="272.769"/>
  <path class="uuid-a6c2e46c-14e7-4cd1-aee3-91a1a2ad1128" d="M267.939,142.224c0-6.45-.732-12.216-1.464-15.244"/>
  <line class="uuid-a5ec5340-cc10-427a-bb69-d443a6ae090e" x1="292.61" y1="162.159" x2="292.61" y2="140.954"/>
  <path class="uuid-a6c2e46c-14e7-4cd1-aee3-91a1a2ad1128" d="M292.61,140.954c0-19.445-7.083-33.177-18.563-39.501"/>
  <line class="uuid-a5ec5340-cc10-427a-bb69-d443a6ae090e" x1="274.047" y1="101.454" x2="261.343" y2="94.323"/>
  <path class="uuid-a6c2e46c-14e7-4cd1-aee3-91a1a2ad1128" d="M229.832,105.776c34.689-19.419,62.778-3.686,62.778,35.154"/>
  <path class="uuid-a6c2e46c-14e7-4cd1-aee3-91a1a2ad1128" d="M167.294,205.443c0-37.717,29.803-81.222,62.539-99.667"/>
  <path class="uuid-a6c2e46c-14e7-4cd1-aee3-91a1a2ad1128" d="M246.44,301.592c-.732.511-1.221.953-1.953,1.321"/>
  <path class="uuid-a6c2e46c-14e7-4cd1-aee3-91a1a2ad1128" d="M230.564,250.221c2.686-6.108,7.326-11.678,12.458-14.634"/>
  <line class="uuid-a5ec5340-cc10-427a-bb69-d443a6ae090e" x1="135.783" y1="239.253" x2="135.783" y2="239.548"/>
  <path class="uuid-a6c2e46c-14e7-4cd1-aee3-91a1a2ad1128" d="M135.783,239.548c-1.711,4.029-2.2,6.887-2.443,11.233"/>
  <path class="uuid-a6c2e46c-14e7-4cd1-aee3-91a1a2ad1128" d="M168.029,270.84c.243-3.885.976-7.992,2.687-11.532"/>
  <line class="uuid-a5ec5340-cc10-427a-bb69-d443a6ae090e" x1="170.716" y1="259.309" x2="135.783" y2="239.253"/>
  <line class="uuid-cf161187-2e2b-41cb-8e21-0f692ffe4142" x1="242.287" y1="254.714" x2="236.182" y2="244.187"/>
  <line class="uuid-cf161187-2e2b-41cb-8e21-0f692ffe4142" x1="254.749" y1="253.934" x2="244.487" y2="236.321"/>
  <line class="uuid-cf161187-2e2b-41cb-8e21-0f692ffe4142" x1="248.642" y1="296.685" x2="235.693" y2="274.528"/>
  <line class="uuid-cf161187-2e2b-41cb-8e21-0f692ffe4142" x1="233.25" y1="270.351" x2="229.832" y2="264.316"/>
  <line class="uuid-cf161187-2e2b-41cb-8e21-0f692ffe4142" x1="250.353" y1="277.065" x2="238.626" y2="256.741"/>
  <line class="uuid-cf161187-2e2b-41cb-8e21-0f692ffe4142" x1="161.433" y1="252.149" x2="146.775" y2="226.548"/>
  <line class="uuid-cf161187-2e2b-41cb-8e21-0f692ffe4142" x1="182.196" y1="242.797" x2="177.555" y2="234.904"/>
  <line class="uuid-cf161187-2e2b-41cb-8e21-0f692ffe4142" x1="202.227" y1="232.192" x2="185.617" y2="203.658"/>
  <line class="uuid-cf161187-2e2b-41cb-8e21-0f692ffe4142" x1="221.771" y1="220.955" x2="205.159" y2="192.375"/>
  <line class="uuid-cf161187-2e2b-41cb-8e21-0f692ffe4142" x1="241.312" y1="209.697" x2="224.703" y2="181.112"/>
  <line class="uuid-cf161187-2e2b-41cb-8e21-0f692ffe4142" x1="260.857" y1="198.383" x2="244.244" y2="169.801"/>
  <line class="uuid-cf161187-2e2b-41cb-8e21-0f692ffe4142" x1="280.151" y1="186.73" x2="270.137" y2="169.168"/>
  <line class="uuid-cf161187-2e2b-41cb-8e21-0f692ffe4142" x1="265.739" y1="161.669" x2="264.521" y2="159.322"/>
  <line class="uuid-cf161187-2e2b-41cb-8e21-0f692ffe4142" x1="299.696" y1="175.202" x2="294.568" y2="166.384"/>
  <line class="uuid-cf161187-2e2b-41cb-8e21-0f692ffe4142" x1="158.011" y1="230.997" x2="156.546" y2="228.579"/>
  <line class="uuid-cf161187-2e2b-41cb-8e21-0f692ffe4142" x1="165.587" y1="221.908" x2="156.303" y2="205.517"/>
  <line class="uuid-cf161187-2e2b-41cb-8e21-0f692ffe4142" x1="165.829" y1="199.557" x2="158.011" y2="185.803"/>
  <line class="uuid-cf161187-2e2b-41cb-8e21-0f692ffe4142" x1="169.006" y1="182.454" x2="162.165" y2="170.854"/>
  <line class="uuid-cf161187-2e2b-41cb-8e21-0f692ffe4142" x1="173.891" y1="168.241" x2="167.783" y2="157.49"/>
  <line class="uuid-cf161187-2e2b-41cb-8e21-0f692ffe4142" x1="179.753" y1="155.857" x2="173.891" y2="145.547"/>
  <line class="uuid-cf161187-2e2b-41cb-8e21-0f692ffe4142" x1="186.349" y1="144.957" x2="180.732" y2="135.09"/>
  <line class="uuid-cf161187-2e2b-41cb-8e21-0f692ffe4142" x1="193.675" y1="134.943" x2="188.303" y2="125.443"/>
  <line class="uuid-cf161187-2e2b-41cb-8e21-0f692ffe4142" x1="201.74" y1="125.979" x2="196.365" y2="116.77"/>
  <line class="uuid-cf161187-2e2b-41cb-8e21-0f692ffe4142" x1="210.044" y1="117.967" x2="204.916" y2="109.125"/>
  <line class="uuid-cf161187-2e2b-41cb-8e21-0f692ffe4142" x1="218.838" y1="110.784" x2="214.198" y2="102.454"/>
  <line class="uuid-cf161187-2e2b-41cb-8e21-0f692ffe4142" x1="228.365" y1="104.655" x2="223.967" y2="97.156"/>
  <line class="uuid-cf161187-2e2b-41cb-8e21-0f692ffe4142" x1="238.626" y1="99.669" x2="234.961" y2="93.392"/>
  <line class="uuid-cf161187-2e2b-41cb-8e21-0f692ffe4142" x1="249.616" y1="96.324" x2="247.419" y2="92.291"/>
  <line class="uuid-cf161187-2e2b-41cb-8e21-0f692ffe4142" x1="278.929" y1="166.214" x2="269.65" y2="149.87"/>
  <line class="uuid-cf161187-2e2b-41cb-8e21-0f692ffe4142" x1="278.929" y1="143.667" x2="267.45" y2="123.805"/>
  <line class="uuid-cf161187-2e2b-41cb-8e21-0f692ffe4142" x1="177.555" y1="229.164" x2="169.251" y2="224.399"/>
  <line class="uuid-cf161187-2e2b-41cb-8e21-0f692ffe4142" x1="177.309" y1="216.096" x2="169.251" y2="211.309"/>
  <line class="uuid-cf161187-2e2b-41cb-8e21-0f692ffe4142" x1="177.309" y1="203" x2="169.495" y2="198.508"/>
  <line class="uuid-cf161187-2e2b-41cb-8e21-0f692ffe4142" x1="178.288" y1="190.468" x2="171.695" y2="186.682"/>
  <line class="uuid-cf161187-2e2b-41cb-8e21-0f692ffe4142" x1="180.732" y1="179.014" x2="174.87" y2="175.619"/>
  <line class="uuid-cf161187-2e2b-41cb-8e21-0f692ffe4142" x1="184.885" y1="168.263" x2="179.509" y2="165.114"/>
  <line class="uuid-cf161187-2e2b-41cb-8e21-0f692ffe4142" x1="190.014" y1="158.153" x2="184.639" y2="155.099"/>
  <line class="uuid-cf161187-2e2b-41cb-8e21-0f692ffe4142" x1="195.876" y1="148.527" x2="190.746" y2="145.499"/>
  <line class="uuid-cf161187-2e2b-41cb-8e21-0f692ffe4142" x1="202.961" y1="139.512" x2="197.34" y2="136.386"/>
  <line class="uuid-cf161187-2e2b-41cb-8e21-0f692ffe4142" x1="210.777" y1="131.061" x2="205.159" y2="127.76"/>
  <line class="uuid-cf161187-2e2b-41cb-8e21-0f692ffe4142" x1="290.902" y1="164.33" x2="282.595" y2="159.469"/>
  <line class="uuid-cf161187-2e2b-41cb-8e21-0f692ffe4142" x1="219.817" y1="123.316" x2="213.709" y2="119.63"/>
  <line class="uuid-cf161187-2e2b-41cb-8e21-0f692ffe4142" x1="290.902" y1="151.313" x2="282.595" y2="146.451"/>
  <line class="uuid-cf161187-2e2b-41cb-8e21-0f692ffe4142" x1="230.564" y1="116.501" x2="223.235" y2="112.153"/>
  <line class="uuid-cf161187-2e2b-41cb-8e21-0f692ffe4142" x1="290.902" y1="138.243" x2="281.373" y2="132.698"/>
  <line class="uuid-cf161187-2e2b-41cb-8e21-0f692ffe4142" x1="244.487" y1="111.395" x2="234.229" y2="105.507"/>
  <line class="uuid-cf161187-2e2b-41cb-8e21-0f692ffe4142" x1="289.681" y1="124.563" x2="246.93" y2="99.863"/>
  <line class="uuid-cf161187-2e2b-41cb-8e21-0f692ffe4142" x1="167.294" y1="351.599" x2="134.562" y2="294.826"/>
  <line class="uuid-cf161187-2e2b-41cb-8e21-0f692ffe4142" x1="167.294" y1="306.431" x2="134.562" y2="249.684"/>
  <line class="uuid-cf161187-2e2b-41cb-8e21-0f692ffe4142" x1="167.783" y1="262.044" x2="165.829" y2="258.699"/>
</svg>