<?xml version="1.0" encoding="UTF-8"?>
<svg id="uuid-56d596be-b896-442a-991d-b285dc3773e4" data-name="&amp;lt;Layer&amp;gt;" xmlns="http://www.w3.org/2000/svg" viewBox="0 0 451.11 451.11">
  <defs>
    <style>
      .uuid-ac626282-ebf1-4df3-82ab-d90858c505ad, .uuid-2ca040f9-2573-4abc-b972-7a4cb5314f96, .uuid-6b47a81c-ca44-41fd-9166-420c42b1b064, .uuid-804d62d5-bc6e-48f8-93c4-4827064d8ecd, .uuid-aff0038c-dbaa-4435-8183-0a1bb57bebd5 {
        fill: none;
        stroke: #000;
        stroke-linecap: round;
      }

      .uuid-ac626282-ebf1-4df3-82ab-d90858c505ad, .uuid-aff0038c-dbaa-4435-8183-0a1bb57bebd5 {
        stroke-linejoin: round;
        stroke-width: 4.117px;
      }

      .uuid-2ca040f9-2573-4abc-b972-7a4cb5314f96 {
        stroke-width: 1.163px;
      }

      .uuid-2ca040f9-2573-4abc-b972-7a4cb5314f96, .uuid-6b47a81c-ca44-41fd-9166-420c42b1b064, .uuid-804d62d5-bc6e-48f8-93c4-4827064d8ecd {
        stroke-miterlimit: 10;
      }

      .uuid-6b47a81c-ca44-41fd-9166-420c42b1b064 {
        stroke-width: 1.167px;
      }

      .uuid-804d62d5-bc6e-48f8-93c4-4827064d8ecd {
        stroke-width: 1.159px;
      }

      .uuid-aff0038c-dbaa-4435-8183-0a1bb57bebd5 {
        fill-rule: evenodd;
      }
    </style>
  </defs>
  <path class="uuid-aff0038c-dbaa-4435-8183-0a1bb57bebd5" d="M195.299,59.296c10.196-5.846,15.803-9.863,29.362-2.848,7.705,3.989,14.633,10.435,20.24,18.025,15.983,21.712,21.322,52.688,5.158,62.527"/>
  <path class="uuid-aff0038c-dbaa-4435-8183-0a1bb57bebd5" d="M218.962,61.636c18.471,10.677,33.497,36.646,33.497,57.969s-15.027,29.986-33.497,19.313c-18.441-10.647-33.438-36.617-33.438-57.939s14.997-29.988,33.438-19.343Z"/>
  <path class="uuid-aff0038c-dbaa-4435-8183-0a1bb57bebd5" d="M261.607,284.212c-4.861,2.852-6.929,6.628-6.359,10.258,6.042,16.977,42.162,13.276,43.844-.062.57-3.658-1.498-7.406-6.329-10.196-.088-.088-.146-.088-.239-.088"/>
  <path class="uuid-aff0038c-dbaa-4435-8183-0a1bb57bebd5" d="M210.683,315.704c-4.765,2.727-6.895,6.506-6.325,10.133,2.156,14.967,41.385,15.268,43.844,0,.57-3.628-1.502-7.406-6.358-10.196"/>
  <line class="uuid-ac626282-ebf1-4df3-82ab-d90858c505ad" x1="378.441" y1="268.888" x2="378.441" y2="277.405"/>
  <path class="uuid-aff0038c-dbaa-4435-8183-0a1bb57bebd5" d="M378.441,277.405c-.148.872-.99,2.068-1.648,2.667-.57.571-1.199,1.02-1.921,1.472"/>
  <line class="uuid-ac626282-ebf1-4df3-82ab-d90858c505ad" x1="374.871" y1="281.545" x2="230.927" y2="364.614"/>
  <path class="uuid-aff0038c-dbaa-4435-8183-0a1bb57bebd5" d="M230.927,364.614c-4.978,2.848-12.745,2.848-17.815,0"/>
  <line class="uuid-ac626282-ebf1-4df3-82ab-d90858c505ad" x1="213.112" y1="364.614" x2="80.025" y2="287.693"/>
  <line class="uuid-ac626282-ebf1-4df3-82ab-d90858c505ad" x1="80.025" y1="279.146" x2="213.112" y2="356.067"/>
  <path class="uuid-aff0038c-dbaa-4435-8183-0a1bb57bebd5" d="M213.112,356.067c5.07,2.848,12.837,2.848,17.815,0"/>
  <line class="uuid-ac626282-ebf1-4df3-82ab-d90858c505ad" x1="230.927" y1="356.067" x2="374.871" y2="272.969"/>
  <path class="uuid-aff0038c-dbaa-4435-8183-0a1bb57bebd5" d="M374.871,272.969c1.711-.99,2.998-2.16,3.57-4.081"/>
  <line class="uuid-ac626282-ebf1-4df3-82ab-d90858c505ad" x1="344.225" y1="244.928" x2="374.933" y2="262.681"/>
  <path class="uuid-aff0038c-dbaa-4435-8183-0a1bb57bebd5" d="M374.933,262.681c2.936,1.711,4.077,4.047,3.507,6.265"/>
  <line class="uuid-ac626282-ebf1-4df3-82ab-d90858c505ad" x1="80.084" y1="268.888" x2="108.603" y2="252.397"/>
  <line class="uuid-ac626282-ebf1-4df3-82ab-d90858c505ad" x1="139.612" y1="234.522" x2="143.689" y2="232.153"/>
  <line class="uuid-ac626282-ebf1-4df3-82ab-d90858c505ad" x1="313.274" y1="227.023" x2="303.8" y2="221.596"/>
  <polyline class="uuid-aff0038c-dbaa-4435-8183-0a1bb57bebd5" points="204.48 326.407 204.358 330.547 204.358 332.287"/>
  <path class="uuid-aff0038c-dbaa-4435-8183-0a1bb57bebd5" d="M204.358,332.287c3.117,15.052,40.635,15.383,43.844,0"/>
  <line class="uuid-ac626282-ebf1-4df3-82ab-d90858c505ad" x1="248.202" y1="332.287" x2="248.202" y2="325.808"/>
  <line class="uuid-ac626282-ebf1-4df3-82ab-d90858c505ad" x1="204.48" y1="326.407" x2="204.358" y2="325.808"/>
  <polyline class="uuid-aff0038c-dbaa-4435-8183-0a1bb57bebd5" points="210.683 270.809 210.683 322.779 210.834 323.199"/>
  <path class="uuid-aff0038c-dbaa-4435-8183-0a1bb57bebd5" d="M210.834,323.199c2.487,10.104,28.251,10.104,30.738,0"/>
  <polyline class="uuid-aff0038c-dbaa-4435-8183-0a1bb57bebd5" points="241.572 323.199 241.692 322.779 241.692 258.122"/>
  <line class="uuid-ac626282-ebf1-4df3-82ab-d90858c505ad" x1="234.135" y1="320.858" x2="234.135" y2="262.743"/>
  <line class="uuid-ac626282-ebf1-4df3-82ab-d90858c505ad" x1="226.31" y1="323.048" x2="226.31" y2="267.181"/>
  <line class="uuid-ac626282-ebf1-4df3-82ab-d90858c505ad" x1="218.392" y1="271.798" x2="218.392" y2="321.337"/>
  <polyline class="uuid-aff0038c-dbaa-4435-8183-0a1bb57bebd5" points="307.009 264.991 306.951 269.101 306.951 270.837"/>
  <path class="uuid-aff0038c-dbaa-4435-8183-0a1bb57bebd5" d="M306.951,270.837c3.057,15.057,40.543,15.384,43.751,0"/>
  <line class="uuid-ac626282-ebf1-4df3-82ab-d90858c505ad" x1="350.701" y1="270.837" x2="350.701" y2="264.362"/>
  <path class="uuid-aff0038c-dbaa-4435-8183-0a1bb57bebd5" d="M350.701,264.362c-3.149,15.233-40.123,14.931-43.692.63"/>
  <line class="uuid-ac626282-ebf1-4df3-82ab-d90858c505ad" x1="307.009" y1="264.991" x2="306.951" y2="264.362"/>
  <path class="uuid-aff0038c-dbaa-4435-8183-0a1bb57bebd5" d="M313.274,254.192c-4.856,2.789-6.987,6.568-6.324,10.2M350.701,264.392c.663-3.632-1.409-7.41-6.328-10.2-.088,0-.088-.088-.148-.088"/>
  <line class="uuid-ac626282-ebf1-4df3-82ab-d90858c505ad" x1="342.875" y1="188.821" x2="342.784" y2="188.88"/>
  <line class="uuid-ac626282-ebf1-4df3-82ab-d90858c505ad" x1="335.318" y1="193.229" x2="335.587" y2="193.166"/>
  <polyline class="uuid-aff0038c-dbaa-4435-8183-0a1bb57bebd5" points="344.225 197.876 344.225 261.331 344.134 261.754"/>
  <path class="uuid-aff0038c-dbaa-4435-8183-0a1bb57bebd5" d="M344.134,261.754c-2.551,10.136-28.279,10.136-30.796,0"/>
  <polyline class="uuid-aff0038c-dbaa-4435-8183-0a1bb57bebd5" points="313.338 261.754 313.274 261.331 313.274 216.049"/>
  <line class="uuid-ac626282-ebf1-4df3-82ab-d90858c505ad" x1="336.668" y1="202.284" x2="336.668" y2="259.414"/>
  <line class="uuid-ac626282-ebf1-4df3-82ab-d90858c505ad" x1="328.809" y1="261.602" x2="328.809" y2="206.93"/>
  <line class="uuid-ac626282-ebf1-4df3-82ab-d90858c505ad" x1="320.983" y1="259.891" x2="320.983" y2="211.49"/>
  <path class="uuid-aff0038c-dbaa-4435-8183-0a1bb57bebd5" d="M261.607,248.765c-.66-.419-1.229-.927-1.712-1.35"/>
  <path class="uuid-aff0038c-dbaa-4435-8183-0a1bb57bebd5" d="M292.523,244.269c3.838-1.567,7.072-4.635,8.128-8.698"/>
  <line class="uuid-ac626282-ebf1-4df3-82ab-d90858c505ad" x1="300.651" y1="235.571" x2="300.651" y2="242.018"/>
  <path class="uuid-aff0038c-dbaa-4435-8183-0a1bb57bebd5" d="M300.651,242.018c-.78,3.899-3.901,6.839-8.128,8.756"/>
  <path class="uuid-aff0038c-dbaa-4435-8183-0a1bb57bebd5" d="M295.82,226.303c3.782,2.641,5.343,6.059,4.831,9.268"/>
  <path class="uuid-aff0038c-dbaa-4435-8183-0a1bb57bebd5" d="M153.167,241.15c.78,3.631,3.477,6.328,7.256,8.279"/>
  <polyline class="uuid-aff0038c-dbaa-4435-8183-0a1bb57bebd5" points="154.154 295.158 154.098 299.269 154.098 301.006"/>
  <path class="uuid-aff0038c-dbaa-4435-8183-0a1bb57bebd5" d="M154.098,301.006c3.058,15.085,40.573,15.387,43.752,0"/>
  <line class="uuid-ac626282-ebf1-4df3-82ab-d90858c505ad" x1="197.85" y1="301.006" x2="197.85" y2="294.558"/>
  <path class="uuid-aff0038c-dbaa-4435-8183-0a1bb57bebd5" d="M197.85,294.558c-3.116,15.237-40.128,14.905-43.696.6"/>
  <line class="uuid-ac626282-ebf1-4df3-82ab-d90858c505ad" x1="154.154" y1="295.158" x2="154.098" y2="294.558"/>
  <path class="uuid-aff0038c-dbaa-4435-8183-0a1bb57bebd5" d="M160.423,284.364c-4.827,2.76-6.987,6.538-6.325,10.166M197.938,294.53c.57-3.628-1.556-7.406-6.358-10.166"/>
  <polyline class="uuid-aff0038c-dbaa-4435-8183-0a1bb57bebd5" points="160.423 243.007 160.423 291.472 160.512 291.921"/>
  <path class="uuid-aff0038c-dbaa-4435-8183-0a1bb57bebd5" d="M160.512,291.921c2.583,10.108,28.221,10.108,30.8,0"/>
  <polyline class="uuid-aff0038c-dbaa-4435-8183-0a1bb57bebd5" points="191.312 291.921 191.374 291.472 191.374 259.623"/>
  <line class="uuid-ac626282-ebf1-4df3-82ab-d90858c505ad" x1="183.904" y1="289.61" x2="183.904" y2="255.333"/>
  <line class="uuid-ac626282-ebf1-4df3-82ab-d90858c505ad" x1="175.986" y1="291.829" x2="175.986" y2="252.545"/>
  <line class="uuid-ac626282-ebf1-4df3-82ab-d90858c505ad" x1="168.131" y1="246.22" x2="168.131" y2="290.034"/>
  <polyline class="uuid-aff0038c-dbaa-4435-8183-0a1bb57bebd5" points="102.396 266.04 102.244 270.149 102.244 271.89"/>
  <path class="uuid-aff0038c-dbaa-4435-8183-0a1bb57bebd5" d="M102.244,271.89c3.15,15.082,40.635,15.38,43.874,0"/>
  <line class="uuid-ac626282-ebf1-4df3-82ab-d90858c505ad" x1="146.118" y1="271.89" x2="146.118" y2="265.44"/>
  <path class="uuid-aff0038c-dbaa-4435-8183-0a1bb57bebd5" d="M146.118,265.44c-3.239,15.236-40.154,14.905-43.722.6"/>
  <line class="uuid-ac626282-ebf1-4df3-82ab-d90858c505ad" x1="102.396" y1="266.04" x2="102.244" y2="265.44"/>
  <path class="uuid-aff0038c-dbaa-4435-8183-0a1bb57bebd5" d="M108.603,255.333c-4.769,2.701-6.896,6.48-6.359,10.137"/>
  <line class="uuid-ac626282-ebf1-4df3-82ab-d90858c505ad" x1="139.759" y1="273.237" x2="139.851" y2="273.237"/>
  <path class="uuid-aff0038c-dbaa-4435-8183-0a1bb57bebd5" d="M139.851,273.237c.898-.659,1.77-1.229,2.55-1.8.357-.271.628-.57.868-.838.269-.209.478-.511.692-.81.419-.482.809-1.051,1.136-1.619.511-.78.872-1.652,1.02-2.491v-.209c.632-3.658-1.498-7.436-6.359-10.196-.088,0-.088-.088-.147-.088"/>
  <polyline class="uuid-aff0038c-dbaa-4435-8183-0a1bb57bebd5" points="139.612 230.755 139.612 262.38 139.462 262.831"/>
  <path class="uuid-aff0038c-dbaa-4435-8183-0a1bb57bebd5" d="M139.462,262.831c-2.491,10.108-28.221,10.108-30.708,0"/>
  <polyline class="uuid-aff0038c-dbaa-4435-8183-0a1bb57bebd5" points="108.754 262.831 108.603 262.38 108.603 211.935"/>
  <line class="uuid-ac626282-ebf1-4df3-82ab-d90858c505ad" x1="132.056" y1="260.462" x2="132.056" y2="226.542"/>
  <line class="uuid-ac626282-ebf1-4df3-82ab-d90858c505ad" x1="124.226" y1="262.681" x2="124.226" y2="221.777"/>
  <line class="uuid-ac626282-ebf1-4df3-82ab-d90858c505ad" x1="116.37" y1="260.974" x2="116.37" y2="217.218"/>
  <polyline class="uuid-aff0038c-dbaa-4435-8183-0a1bb57bebd5" points="255.34 295.041 255.247 299.147 255.247 300.887"/>
  <path class="uuid-aff0038c-dbaa-4435-8183-0a1bb57bebd5" d="M255.247,300.887c3.15,15.085,40.573,15.384,43.785,0"/>
  <line class="uuid-ac626282-ebf1-4df3-82ab-d90858c505ad" x1="299.033" y1="300.887" x2="299.033" y2="294.438"/>
  <line class="uuid-ac626282-ebf1-4df3-82ab-d90858c505ad" x1="255.34" y1="295.041" x2="255.247" y2="294.438"/>
  <polyline class="uuid-aff0038c-dbaa-4435-8183-0a1bb57bebd5" points="292.523 228.253 292.523 291.321 292.465 291.77"/>
  <path class="uuid-aff0038c-dbaa-4435-8183-0a1bb57bebd5" d="M292.465,291.77c-2.579,10.194-28.221,10.106-30.8,0"/>
  <polyline class="uuid-aff0038c-dbaa-4435-8183-0a1bb57bebd5" points="261.665 291.77 261.607 291.321 261.607 248.765"/>
  <line class="uuid-ac626282-ebf1-4df3-82ab-d90858c505ad" x1="284.698" y1="223.036" x2="284.635" y2="223.036"/>
  <line class="uuid-ac626282-ebf1-4df3-82ab-d90858c505ad" x1="285.059" y1="232.572" x2="285.059" y2="289.492"/>
  <line class="uuid-ac626282-ebf1-4df3-82ab-d90858c505ad" x1="277.139" y1="237.311" x2="277.139" y2="291.682"/>
  <line class="uuid-ac626282-ebf1-4df3-82ab-d90858c505ad" x1="269.372" y1="241.837" x2="269.372" y2="289.971"/>
  <line class="uuid-ac626282-ebf1-4df3-82ab-d90858c505ad" x1="366.899" y1="173.346" x2="294.683" y2="178.622"/>
  <path class="uuid-aff0038c-dbaa-4435-8183-0a1bb57bebd5" d="M294.683,178.622c-.658.062-.99.151-1.59.419"/>
  <path class="uuid-aff0038c-dbaa-4435-8183-0a1bb57bebd5" d="M293.031,179.042c-.055,0-.147.092-.209.151-.206.062-.357.21-.509.272-.628.357-1.35.957-1.979,1.707"/>
  <polyline class="uuid-aff0038c-dbaa-4435-8183-0a1bb57bebd5" points="290.334 181.172 222.8 255.395 217.552 261.183"/>
  <path class="uuid-aff0038c-dbaa-4435-8183-0a1bb57bebd5" d="M217.552,261.183c-.449.419-.809.928-1.082,1.406-.206.243-.361.453-.415.722-.361.452-.571.931-.814,1.442-.209.507-.42,1.049-.538,1.619-.15.659-.243,1.38-.301,2.068"/>
  <line class="uuid-ac626282-ebf1-4df3-82ab-d90858c505ad" x1="214.403" y1="268.439" x2="214.403" y2="272.1"/>
  <path class="uuid-aff0038c-dbaa-4435-8183-0a1bb57bebd5" d="M214.403,272.1c0,.269.058.478.151.688.058.151.15.239.268.361"/>
  <line class="uuid-ac626282-ebf1-4df3-82ab-d90858c505ad" x1="368.035" y1="173.493" x2="259.597" y2="110.819"/>
  <path class="uuid-aff0038c-dbaa-4435-8183-0a1bb57bebd5" d="M166.362,245.137c-31.37-17.745-62.608-36.083-93.835-54.097"/>
  <line class="uuid-ac626282-ebf1-4df3-82ab-d90858c505ad" x1="75.168" y1="178.982" x2="147.95" y2="98.912"/>
  <path class="uuid-aff0038c-dbaa-4435-8183-0a1bb57bebd5" d="M147.95,98.912c.776-.78,1.288-1.199,2.22-1.77"/>
  <line class="uuid-ac626282-ebf1-4df3-82ab-d90858c505ad" x1="152.325" y1="96.365" x2="187.172" y2="93.846"/>
  <polyline class="uuid-aff0038c-dbaa-4435-8183-0a1bb57bebd5" points="226.31 267.181 218.45 271.798 216.172 273.086"/>
  <polyline class="uuid-aff0038c-dbaa-4435-8183-0a1bb57bebd5" points="214.612 273.027 210.683 270.809 191.374 259.623 183.904 255.333 178.838 252.397 175.986 250.774 168.131 246.22 166.362 245.137"/>
  <line class="uuid-ac626282-ebf1-4df3-82ab-d90858c505ad" x1="369.956" y1="176.974" x2="369.956" y2="180.694"/>
  <path class="uuid-aff0038c-dbaa-4435-8183-0a1bb57bebd5" d="M369.956,180.694c0,1.136-.872,2.487-1.861,3.115"/>
  <path class="uuid-aff0038c-dbaa-4435-8183-0a1bb57bebd5" d="M368.095,183.809c-49.853,29.376-99.755,58.672-149.644,87.989l-2.278,1.288"/>
  <path class="uuid-aff0038c-dbaa-4435-8183-0a1bb57bebd5" d="M368.395,173.703c.99.511,1.56,1.622,1.56,3.271"/>
  <polygon class="uuid-aff0038c-dbaa-4435-8183-0a1bb57bebd5" points="348.42 185.521 235.934 251.646 292.405 189.568 348.42 185.521"/>
  <polyline class="uuid-aff0038c-dbaa-4435-8183-0a1bb57bebd5" points="293.093 179.042 293.031 179.042 260.738 160.509"/>
  <line class="uuid-ac626282-ebf1-4df3-82ab-d90858c505ad" x1="182.404" y1="115.616" x2="150.169" y2="97.142"/>
  <path class="uuid-aff0038c-dbaa-4435-8183-0a1bb57bebd5" d="M150.169,97.142c.78-.419,1.199-.658,2.156-.776"/>
  <path class="uuid-aff0038c-dbaa-4435-8183-0a1bb57bebd5" d="M242.561,141.258s.064,0,.064.088c2.876,1.619,5.636,3.271,8.275,4.769,4.08,2.339,7.767,4.559,11.034,6.416,3.51,1.979,3.51,5.28,0,7.29"/>
  <polyline class="uuid-aff0038c-dbaa-4435-8183-0a1bb57bebd5" points="261.933 159.821 260.738 160.509 259.324 161.321"/>
  <path class="uuid-aff0038c-dbaa-4435-8183-0a1bb57bebd5" d="M196.499,132.5c-4.919-2.788-9.894-5.728-15.114-8.698-3.477-2.068-3.779-5.548-.269-7.557"/>
  <polyline class="uuid-aff0038c-dbaa-4435-8183-0a1bb57bebd5" points="181.116 116.246 182.404 115.616 183.904 114.836"/>
  <path class="uuid-aff0038c-dbaa-4435-8183-0a1bb57bebd5" d="M183.904,114.836c3.036-1.755,7.632-2.06,11.054-.724"/>
  <path class="uuid-aff0038c-dbaa-4435-8183-0a1bb57bebd5" d="M196.499,132.5c6.27,3.628,12.355,7.047,18.474,10.615,4.857,2.789,9.776,5.641,14.843,8.547,1.203.718,2.491,1.44,3.69,2.16,4.199,2.399,8.485,4.916,12.985,7.499,3.477,2.039,9.264,2.039,12.833,0"/>
  <line class="uuid-ac626282-ebf1-4df3-82ab-d90858c505ad" x1="250.059" y1="137.001" x2="242.624" y2="141.258"/>
  <path class="uuid-aff0038c-dbaa-4435-8183-0a1bb57bebd5" d="M209.065,109.648c5.339,3.028,10.615,6.149,16.826,9.987,1.769,1.081,2.998.331,2.998-1.678v-9.448c.058-1.347-1.171-4.047-2.94-5.038-4.709-2.73-9.776-5.938-13.824-8.309-1.803-1.015-2.998-3.057-2.998-5.066,0-2.73.058-5.427.058-8.786,0-2.038,1.288-2.818,3-1.681,4.768,3.271,9.985,6.45,15.324,9.478"/>
  <path class="uuid-aff0038c-dbaa-4435-8183-0a1bb57bebd5" d="M218.693,76.629c.206,15.325-.151,30.351-.243,45.853"/>
  <line class="uuid-6b47a81c-ca44-41fd-9166-420c42b1b064" x1="357.84" y1="176.286" x2="346.467" y2="196.183"/>
  <line class="uuid-6b47a81c-ca44-41fd-9166-420c42b1b064" x1="324.401" y1="178.803" x2="318.661" y2="188.803"/>
  <line class="uuid-2ca040f9-2573-4abc-b972-7a4cb5314f96" x1="305.012" y1="212.263" x2="298.602" y2="223.462"/>
  <line class="uuid-2ca040f9-2573-4abc-b972-7a4cb5314f96" x1="290.721" y1="181.719" x2="278.998" y2="202.015"/>
  <line class="uuid-2ca040f9-2573-4abc-b972-7a4cb5314f96" x1="256.436" y1="241.005" x2="250.372" y2="251.701"/>
  <line class="uuid-804d62d5-bc6e-48f8-93c4-4827064d8ecd" x1="223.156" y1="253.905" x2="204.418" y2="264.719"/>
  <line class="uuid-2ca040f9-2573-4abc-b972-7a4cb5314f96" x1="283.138" y1="187.29" x2="173.617" y2="250.506"/>
  <line class="uuid-2ca040f9-2573-4abc-b972-7a4cb5314f96" x1="268.953" y1="163.449" x2="145.4" y2="234.791"/>
  <line class="uuid-2ca040f9-2573-4abc-b972-7a4cb5314f96" x1="233.146" y1="152.112" x2="117.867" y2="218.657"/>
  <line class="uuid-2ca040f9-2573-4abc-b972-7a4cb5314f96" x1="205.348" y1="136.128" x2="90.221" y2="202.644"/>
  <line class="uuid-2ca040f9-2573-4abc-b972-7a4cb5314f96" x1="179.526" y1="119.064" x2="78.465" y2="177.423"/>
  <line class="uuid-2ca040f9-2573-4abc-b972-7a4cb5314f96" x1="154.036" y1="101.792" x2="137.32" y2="111.407"/>
  <line class="uuid-2ca040f9-2573-4abc-b972-7a4cb5314f96" x1="254.979" y1="99.662" x2="251.771" y2="101.491"/>
  <line class="uuid-2ca040f9-2573-4abc-b972-7a4cb5314f96" x1="242.292" y1="74.952" x2="239.085" y2="76.81"/>
  <line class="uuid-2ca040f9-2573-4abc-b972-7a4cb5314f96" x1="218.9" y1="56.478" x2="216.744" y2="57.707"/>
  <line class="uuid-2ca040f9-2573-4abc-b972-7a4cb5314f96" x1="170.413" y1="108.334" x2="164.29" y2="97.771"/>
  <line class="uuid-2ca040f9-2573-4abc-b972-7a4cb5314f96" x1="188.254" y1="111.477" x2="179.526" y2="96.395"/>
  <line class="uuid-2ca040f9-2573-4abc-b972-7a4cb5314f96" x1="188.791" y1="125.451" x2="188.791" y2="115.616"/>
  <line class="uuid-2ca040f9-2573-4abc-b972-7a4cb5314f96" x1="202.647" y1="133.252" x2="202.647" y2="128.092"/>
  <line class="uuid-2ca040f9-2573-4abc-b972-7a4cb5314f96" x1="216.533" y1="141.078" x2="216.533" y2="140.327"/>
  <line class="uuid-2ca040f9-2573-4abc-b972-7a4cb5314f96" x1="230.387" y1="149.172" x2="230.387" y2="145.606"/>
  <line class="uuid-2ca040f9-2573-4abc-b972-7a4cb5314f96" x1="244.273" y1="157.48" x2="244.273" y2="144.735"/>
  <line class="uuid-2ca040f9-2573-4abc-b972-7a4cb5314f96" x1="258.095" y1="159.309" x2="258.095" y2="152.984"/>
  <line class="uuid-2ca040f9-2573-4abc-b972-7a4cb5314f96" x1="272.43" y1="164.468" x2="266.853" y2="154.779"/>
  <line class="uuid-2ca040f9-2573-4abc-b972-7a4cb5314f96" x1="265.297" y1="152.17" x2="255.458" y2="135.051"/>
  <line class="uuid-2ca040f9-2573-4abc-b972-7a4cb5314f96" x1="296.243" y1="178.023" x2="261.095" y2="117.176"/>
  <line class="uuid-2ca040f9-2573-4abc-b972-7a4cb5314f96" x1="311.417" y1="176.613" x2="281.908" y2="125.485"/>
  <line class="uuid-2ca040f9-2573-4abc-b972-7a4cb5314f96" x1="326.473" y1="174.965" x2="306.229" y2="139.878"/>
  <line class="uuid-2ca040f9-2573-4abc-b972-7a4cb5314f96" x1="341.584" y1="173.312" x2="330.608" y2="154.302"/>
  <line class="uuid-804d62d5-bc6e-48f8-93c4-4827064d8ecd" x1="356.611" y1="171.664" x2="354.219" y2="167.613"/>
  <line class="uuid-2ca040f9-2573-4abc-b972-7a4cb5314f96" x1="103.835" y1="290.423" x2="89.353" y2="265.378"/>
  <line class="uuid-2ca040f9-2573-4abc-b972-7a4cb5314f96" x1="152.027" y1="318.49" x2="131.996" y2="283.823"/>
  <line class="uuid-2ca040f9-2573-4abc-b972-7a4cb5314f96" x1="200.01" y1="346.169" x2="181.116" y2="313.512"/>
  <line class="uuid-2ca040f9-2573-4abc-b972-7a4cb5314f96" x1="158.502" y1="274.377" x2="141.622" y2="245.108"/>
  <line class="uuid-2ca040f9-2573-4abc-b972-7a4cb5314f96" x1="234.857" y1="351.147" x2="231.737" y2="345.69"/>
  <line class="uuid-2ca040f9-2573-4abc-b972-7a4cb5314f96" x1="208.493" y1="305.476" x2="192.79" y2="278.289"/>
  <line class="uuid-804d62d5-bc6e-48f8-93c4-4827064d8ecd" x1="259.026" y1="337.652" x2="243.319" y2="310.177"/>
  <line class="uuid-2ca040f9-2573-4abc-b972-7a4cb5314f96" x1="282.987" y1="323.589" x2="277.769" y2="314.531"/>
  <line class="uuid-2ca040f9-2573-4abc-b972-7a4cb5314f96" x1="259.597" y1="283.135" x2="245.052" y2="257.942"/>
  <line class="uuid-2ca040f9-2573-4abc-b972-7a4cb5314f96" x1="306.951" y1="309.732" x2="300.931" y2="299.247"/>
  <line class="uuid-2ca040f9-2573-4abc-b972-7a4cb5314f96" x1="331.029" y1="295.938" x2="324.192" y2="284.124"/>
  <line class="uuid-2ca040f9-2573-4abc-b972-7a4cb5314f96" x1="307.877" y1="255.874" x2="301.788" y2="245.289"/>
  <line class="uuid-2ca040f9-2573-4abc-b972-7a4cb5314f96" x1="354.9" y1="281.905" x2="351.21" y2="275.456"/>
  <line class="uuid-2ca040f9-2573-4abc-b972-7a4cb5314f96" x1="99.846" y1="296.211" x2="99.846" y2="293.33"/>
  <line class="uuid-2ca040f9-2573-4abc-b972-7a4cb5314f96" x1="113.674" y1="304.247" x2="113.674" y2="301.337"/>
  <line class="uuid-2ca040f9-2573-4abc-b972-7a4cb5314f96" x1="127.497" y1="312.253" x2="127.497" y2="309.343"/>
  <line class="uuid-2ca040f9-2573-4abc-b972-7a4cb5314f96" x1="141.382" y1="320.259" x2="141.382" y2="317.353"/>
  <line class="uuid-2ca040f9-2573-4abc-b972-7a4cb5314f96" x1="155.235" y1="328.266" x2="155.235" y2="325.359"/>
  <line class="uuid-2ca040f9-2573-4abc-b972-7a4cb5314f96" x1="169.121" y1="336.276" x2="169.121" y2="333.365"/>
  <line class="uuid-2ca040f9-2573-4abc-b972-7a4cb5314f96" x1="182.974" y1="344.282" x2="182.974" y2="341.401"/>
  <line class="uuid-2ca040f9-2573-4abc-b972-7a4cb5314f96" x1="196.801" y1="352.288" x2="196.801" y2="349.382"/>
  <line class="uuid-2ca040f9-2573-4abc-b972-7a4cb5314f96" x1="210.683" y1="360.294" x2="210.683" y2="357.388"/>
  <line class="uuid-2ca040f9-2573-4abc-b972-7a4cb5314f96" x1="224.511" y1="364.165" x2="224.511" y2="360.475"/>
  <line class="uuid-2ca040f9-2573-4abc-b972-7a4cb5314f96" x1="238.363" y1="357.535" x2="238.363" y2="354.657"/>
  <line class="uuid-2ca040f9-2573-4abc-b972-7a4cb5314f96" x1="252.249" y1="349.529" x2="252.249" y2="346.651"/>
  <line class="uuid-2ca040f9-2573-4abc-b972-7a4cb5314f96" x1="266.073" y1="341.523" x2="266.073" y2="338.641"/>
  <line class="uuid-2ca040f9-2573-4abc-b972-7a4cb5314f96" x1="279.987" y1="333.513" x2="279.987" y2="330.635"/>
  <line class="uuid-2ca040f9-2573-4abc-b972-7a4cb5314f96" x1="293.811" y1="325.539" x2="293.811" y2="322.659"/>
  <line class="uuid-2ca040f9-2573-4abc-b972-7a4cb5314f96" x1="307.731" y1="317.533" x2="307.731" y2="314.681"/>
  <line class="uuid-2ca040f9-2573-4abc-b972-7a4cb5314f96" x1="321.553" y1="309.523" x2="321.553" y2="306.645"/>
  <line class="uuid-2ca040f9-2573-4abc-b972-7a4cb5314f96" x1="335.377" y1="301.517" x2="335.377" y2="298.669"/>
  <line class="uuid-2ca040f9-2573-4abc-b972-7a4cb5314f96" x1="349.293" y1="293.51" x2="349.293" y2="290.659"/>
  <line class="uuid-2ca040f9-2573-4abc-b972-7a4cb5314f96" x1="363.116" y1="285.533" x2="363.116" y2="282.686"/>
</svg>