<?xml version="1.0" encoding="UTF-8"?>
<svg id="uuid-ced5e9af-7706-4c51-b23e-6b45fd295437" data-name="&amp;lt;Layer&amp;gt;" xmlns="http://www.w3.org/2000/svg" viewBox="0 0 451.11 451.11">
  <defs>
    <style>
      .uuid-eee86735-6194-466a-861a-d5bb59a17a3c {
        stroke-miterlimit: 10;
        stroke-width: 1.163px;
      }

      .uuid-eee86735-6194-466a-861a-d5bb59a17a3c, .uuid-aba1a773-7635-4796-9ec8-58075d185cbb {
        fill: none;
        stroke: #000;
        stroke-linecap: round;
      }

      .uuid-aba1a773-7635-4796-9ec8-58075d185cbb {
        fill-rule: evenodd;
        stroke-linejoin: round;
        stroke-width: 4.117px;
      }
    </style>
  </defs>
  <path class="uuid-aba1a773-7635-4796-9ec8-58075d185cbb" d="M260.636,83.773l-.662.341-84.302,48.734M175.671,132.848c-7.325,4.324-12.358,14.387-12.432,22.742M163.239,155.59l.074,194.132M163.313,349.722c.048,3.275.636,6.35,3.249,8.598M166.562,358.32l15.39,8.89M181.952,367.21c-2.638-2.244-3.201-5.324-3.275-8.595M178.678,358.614v-2.373M178.63,164.483c.048-8.355,5.108-18.445,12.436-22.767M191.066,141.716l84.325-48.733M275.39,92.983c2.369-1.343,4.691-2.028,7.425-1.173M282.815,91.809l-15.387-8.894M191.11,367.018l84.328-48.736M275.438,318.282c6.839-3.956,12.432-14.17,12.432-22.764M287.871,295.517v-2.322M287.8,101.386c0-8.576-5.571-12.336-12.41-8.403M178.678,358.614c0,8.573,5.597,12.36,12.432,8.403M287.871,293.195l-.07-191.809M178.63,164.483l.048,191.759,109.193-63.046M166.145,143.868c-1.806,3.686-2.832,7.621-2.906,11.722M178.63,164.483c.048-4.322,1.101-7.84,2.908-11.726M181.537,152.757l-15.392-8.889M171.205,227.409v-19.493M171.205,195.092v-19.519M227.536,337.116l16.882-9.773M271.678,104.171c-1.221.706-2.226,2.539-2.226,4.055M269.452,108.226c0,1.538,1.005,2.196,2.226,1.512M271.678,109.739c1.196-.706,2.196-2.539,2.196-4.081M273.874,105.658c0-1.512-1.001-2.196-2.196-1.486M205.527,293.56c4.761-2.734,10.625-6.13,16.535-9.526M205.527,317.722c4.761-2.711,10.625-6.108,16.535-9.53M250.521,267.69c4.718-2.708,10.627-6.103,16.565-9.526M250.521,291.874c4.718-2.737,10.627-6.129,16.565-9.525M214.879,176.062l15.27-8.82M230.148,167.243c.463-.267.88-.047.88.515M231.029,167.758v10.623M231.029,178.381c0,.563-.417,1.221-.88,1.516M230.148,179.897l-14.412,8.307M215.737,188.204c-.463.269-.858.95-.858,1.512M214.879,189.716v10.553M214.879,200.269c0,.563.395.806.858.515M215.737,200.784l15.292-8.82M239.211,187.225c-.463.291-.88.074-.88-.514M238.331,186.711v-23.181M238.331,163.53c0-.562.417-1.247.88-1.516,4.813-2.784,9.577-5.544,14.39-8.303.463-.295.876-.052.876.514M254.477,154.225v23.181M254.477,177.406c0,.562-.413,1.244-.876,1.516-4.813,2.782-9.577,5.544-14.39,8.303M192.678,157.401c1.391-.784,3.149-1.785,4.883-2.785M202.447,151.83c1.394-.806,3.127-1.811,4.886-2.811M212.193,146.212c1.394-.81,3.127-1.811,4.886-2.786M205.527,269.376c4.761-2.709,10.625-6.131,16.535-9.526M250.521,243.531c4.718-2.734,10.627-6.13,16.565-9.526M230.148,218.545c.463-.295.88-.052.88.511M231.029,219.056v10.601M231.029,229.657c0,.562-.417,1.247-.88,1.541M230.148,231.198l-14.412,8.279M214.879,214.706l15.27-8.819M230.148,205.888c.463-.269.88-.048.88.515M231.029,206.403v10.6M230.148,218.545l-14.412,8.305M238.331,202.176l15.27-8.82M253.601,193.356c.463-.269.876-.048.876.515M254.477,193.871v10.6M254.477,204.47c0,.563-.413,1.273-.876,1.542M253.601,206.012l-14.39,8.279M239.211,214.291c-.463.295-.88.979-.88,1.538M238.331,215.829v10.553M238.331,226.382c0,.562.417.784.88.515M239.211,226.897l15.266-8.82M267.428,82.915c-2.031-.879-4.938-.147-6.792.858"/>
  <line class="uuid-eee86735-6194-466a-861a-d5bb59a17a3c" x1="269.061" y1="306.018" x2="256.798" y2="327.148"/>
  <line class="uuid-eee86735-6194-466a-861a-d5bb59a17a3c" x1="229.906" y1="328.59" x2="217.716" y2="349.748"/>
  <line class="uuid-eee86735-6194-466a-861a-d5bb59a17a3c" x1="190.646" y1="351.455" x2="182.516" y2="365.525"/>
  <line class="uuid-eee86735-6194-466a-861a-d5bb59a17a3c" x1="177.019" y1="350.306" x2="166.855" y2="356.194"/>
  <line class="uuid-eee86735-6194-466a-861a-d5bb59a17a3c" x1="177.067" y1="337.264" x2="165.046" y2="344.199"/>
  <line class="uuid-eee86735-6194-466a-861a-d5bb59a17a3c" x1="177.067" y1="324.216" x2="165.046" y2="331.155"/>
  <line class="uuid-eee86735-6194-466a-861a-d5bb59a17a3c" x1="177.067" y1="311.173" x2="164.976" y2="318.134"/>
  <line class="uuid-eee86735-6194-466a-861a-d5bb59a17a3c" x1="177.067" y1="298.151" x2="164.976" y2="305.116"/>
  <line class="uuid-eee86735-6194-466a-861a-d5bb59a17a3c" x1="177.067" y1="285.109" x2="164.976" y2="292.07"/>
  <line class="uuid-eee86735-6194-466a-861a-d5bb59a17a3c" x1="177.067" y1="272.087" x2="164.976" y2="279.052"/>
  <line class="uuid-eee86735-6194-466a-861a-d5bb59a17a3c" x1="177.067" y1="259.07" x2="164.976" y2="266.031"/>
  <line class="uuid-eee86735-6194-466a-861a-d5bb59a17a3c" x1="177.067" y1="246.022" x2="164.976" y2="252.987"/>
  <line class="uuid-eee86735-6194-466a-861a-d5bb59a17a3c" x1="177.019" y1="232.978" x2="164.976" y2="239.94"/>
  <line class="uuid-eee86735-6194-466a-861a-d5bb59a17a3c" x1="177.019" y1="219.957" x2="164.976" y2="226.922"/>
  <line class="uuid-eee86735-6194-466a-861a-d5bb59a17a3c" x1="177.019" y1="206.915" x2="164.976" y2="213.876"/>
  <line class="uuid-eee86735-6194-466a-861a-d5bb59a17a3c" x1="177.019" y1="193.893" x2="164.976" y2="200.858"/>
  <line class="uuid-eee86735-6194-466a-861a-d5bb59a17a3c" x1="177.019" y1="180.849" x2="164.924" y2="187.811"/>
  <line class="uuid-eee86735-6194-466a-861a-d5bb59a17a3c" x1="177.019" y1="167.828" x2="164.924" y2="174.793"/>
  <line class="uuid-eee86735-6194-466a-861a-d5bb59a17a3c" x1="179.462" y1="153.368" x2="164.876" y2="161.797"/>
  <line class="uuid-eee86735-6194-466a-861a-d5bb59a17a3c" x1="167.758" y1="147.087" x2="166.903" y2="147.602"/>
  <line class="uuid-eee86735-6194-466a-861a-d5bb59a17a3c" x1="186.593" y1="143.18" x2="174.111" y2="135.976"/>
  <line class="uuid-eee86735-6194-466a-861a-d5bb59a17a3c" x1="208.481" y1="129.747" x2="196.412" y2="122.785"/>
  <line class="uuid-eee86735-6194-466a-861a-d5bb59a17a3c" x1="231.075" y1="116.704" x2="218.986" y2="109.739"/>
  <line class="uuid-eee86735-6194-466a-861a-d5bb59a17a3c" x1="253.601" y1="103.656" x2="241.532" y2="96.695"/>
  <line class="uuid-eee86735-6194-466a-861a-d5bb59a17a3c" x1="276.243" y1="90.638" x2="265.397" y2="84.383"/>
</svg>