<?xml version="1.0" encoding="UTF-8"?>
<svg id="uuid-1f4d9b2b-129b-4009-b488-4472127246da" data-name="&amp;lt;Layer&amp;gt;" xmlns="http://www.w3.org/2000/svg" viewBox="0 0 451.11 451.11">
  <defs>
    <style>
      .uuid-3d186f90-1420-4208-ad86-ca04796c63a3, .uuid-491dca8e-889d-482c-a55d-64a2c7120e8b, .uuid-ae1d3d63-21c6-4ba7-a3d5-9a11bc273dec {
        fill: none;
        stroke: #000;
        stroke-linecap: round;
      }

      .uuid-3d186f90-1420-4208-ad86-ca04796c63a3, .uuid-ae1d3d63-21c6-4ba7-a3d5-9a11bc273dec {
        stroke-linejoin: round;
        stroke-width: 4.117px;
      }

      .uuid-491dca8e-889d-482c-a55d-64a2c7120e8b {
        stroke-miterlimit: 10;
        stroke-width: 1.163px;
      }

      .uuid-ae1d3d63-21c6-4ba7-a3d5-9a11bc273dec {
        fill-rule: evenodd;
      }
    </style>
  </defs>
  <path class="uuid-ae1d3d63-21c6-4ba7-a3d5-9a11bc273dec" d="M282.922,114.101c-.391,0-.927.048-1.394.048-.513,0-1.024.077-1.487.125-.588.048-1.126.122-1.641.243-.411.052-.754.122-1.097.173-.415.122-.805.17-1.173.291-.217.052-.389.122-.636.174-.122,0-.218.047-.339.12-.173.048-.343.096-.515.169-.415.1-.879.295-1.295.467-.048,0-.121.048-.169.048"/>
  <polyline class="uuid-ae1d3d63-21c6-4ba7-a3d5-9a11bc273dec" points="273.175 115.959 266.725 119.671 112.144 208.933"/>
  <polyline class="uuid-ae1d3d63-21c6-4ba7-a3d5-9a11bc273dec" points="180.032 333.954 184.207 331.585 337.979 242.788 344.087 239.248 344.551 239.027"/>
  <path class="uuid-ae1d3d63-21c6-4ba7-a3d5-9a11bc273dec" d="M344.551,239.027c.515-.417,1.052-.88,1.564-1.391.389-.415.879-.879,1.273-1.343.291-.293.584-.588.827-.931.052-.07.1-.121.1-.243"/>
  <path class="uuid-ae1d3d63-21c6-4ba7-a3d5-9a11bc273dec" d="M348.389,235.119c.169-.172.342-.389.389-.563.369-.415.659-.827.88-1.221.389-.584.805-1.221,1.221-1.88.221-.269.389-.611.584-1.027.126-.122.174-.243.222-.415.073-.122.125-.218.169-.343.125-.243.247-.463.368-.706.221-.463.39-.931.589-1.395.096-.338.265-.632.389-.975.343-.879.633-1.807.928-2.786.341-1.221.71-2.516.927-3.833.221-1.101.415-2.222.589-3.301.121-1.001.217-1.975.293-3.028.096-.806.096-1.637.17-2.443.048-.88.048-1.733.048-2.664,0-1.001,0-2.028-.048-3.029"/>
  <path class="uuid-ae1d3d63-21c6-4ba7-a3d5-9a11bc273dec" d="M209.124,165.33c3.124-.71,6.498-.758,9.648-.247,5.912.931,11.774,3.496,17.075,6.913"/>
  <path class="uuid-ae1d3d63-21c6-4ba7-a3d5-9a11bc273dec" d="M269.583,269.978c1.686-1.859,3.128-4.203,4.177-6.399,2.832-6.034,3.664-13.242,3.37-19.983"/>
  <polyline class="uuid-ae1d3d63-21c6-4ba7-a3d5-9a11bc273dec" points="316.095 242.449 316.143 242.449 316.143 242.497"/>
  <path class="uuid-ae1d3d63-21c6-4ba7-a3d5-9a11bc273dec" d="M316.143,242.497c.588.169,1.173.341,1.685.511,7.498,2.222,14.343,2.052,20.151-.221"/>
  <path class="uuid-ae1d3d63-21c6-4ba7-a3d5-9a11bc273dec" d="M269.874,117.475c9.408-5.449,15.564-7.723,27.407-4.4,46.172,12.947,81.469,94.685,53.135,122.044-2.785,2.686-5.74,4.176-9.063,6.109,24.401-15.44,13.702-55.746,3.249-76.487-11.141-22.01-36.691-51.908-63.075-50.639-4.446.221-7.721,1.269-11.653,3.373Z"/>
  <polyline class="uuid-ae1d3d63-21c6-4ba7-a3d5-9a11bc273dec" points="251.507 139.898 274.272 126.706 275.913 126.195"/>
  <path class="uuid-ae1d3d63-21c6-4ba7-a3d5-9a11bc273dec" d="M275.913,126.195c3.539-1.005,7.472-1.125,11.089-.537,10.28,1.586,20.395,8.305,27.872,15.291,15.854,14.851,28.508,38.55,30.366,60.313.585,7.498,0,15.976-3.179,22.889-1.295,2.686-3.149,5.399-5.224,7.425"/>
  <polyline class="uuid-ae1d3d63-21c6-4ba7-a3d5-9a11bc273dec" points="336.835 231.575 335.492 232.75 312.724 245.941"/>
  <path class="uuid-ae1d3d63-21c6-4ba7-a3d5-9a11bc273dec" d="M312.724,245.941c.928-.832,1.686-1.512,2.565-2.443,2.443-2.786,4.276-6.45,5.449-9.989,3.245-10.163,2.024-22.474-.71-32.589-5.397-20.2-19.102-41.746-36.4-53.715-6.666-4.643-15.045-8.602-23.28-8.772-2.321-.051-4.934.243-7.156.88"/>
  <path class="uuid-ae1d3d63-21c6-4ba7-a3d5-9a11bc273dec" d="M252.434,139.603c-.1.051-.221.051-.269.125-3.37,1.149-6.325,3.054-8.72,5.788"/>
  <polyline class="uuid-ae1d3d63-21c6-4ba7-a3d5-9a11bc273dec" points="217.428 159.564 240.123 146.442 241.833 145.858"/>
  <path class="uuid-ae1d3d63-21c6-4ba7-a3d5-9a11bc273dec" d="M241.833,145.858c3.467-.976,7.426-1.097,11.016-.511,10.284,1.563,20.446,8.303,27.872,15.338,15.928,14.806,28.508,38.549,30.365,60.339.586,7.477,0,15.902-3.175,22.815-1.295,2.665-3.08,5.398-5.228,7.498"/>
  <polyline class="uuid-ae1d3d63-21c6-4ba7-a3d5-9a11bc273dec" points="302.684 251.338 301.414 252.486 278.646 265.607"/>
  <path class="uuid-ae1d3d63-21c6-4ba7-a3d5-9a11bc273dec" d="M278.646,265.607c.854-.806,1.685-1.49,2.491-2.443,2.491-2.786,4.302-6.377,5.449-9.967,3.271-10.115,2.05-22.426-.684-32.589-5.398-20.203-19.104-41.698-36.422-53.719-6.624-4.639-15.023-8.594-23.28-8.767-2.274-.048-4.938.294-7.134.927"/>
  <path class="uuid-ae1d3d63-21c6-4ba7-a3d5-9a11bc273dec" d="M281.089,263.284c-.71.832-1.538,1.59-2.346,2.27-2.661,2.2-5.693,3.666-9.159,4.424"/>
  <path class="uuid-ae1d3d63-21c6-4ba7-a3d5-9a11bc273dec" d="M209.124,165.33c2.491-2.785,5.446-4.765,8.89-5.936.125-.05.173-.05.221-.098"/>
  <polyline class="uuid-ae1d3d63-21c6-4ba7-a3d5-9a11bc273dec" points="207.656 165.62 206.045 166.134 183.277 179.326"/>
  <path class="uuid-ae1d3d63-21c6-4ba7-a3d5-9a11bc273dec" d="M192.097,177.858c.125,0,.293,0,.415.076.295-.076.585,0,.931.048.706,0,1.391.074,2.098.169.93.126,1.784.295,2.711.537,1.053.221,2.053.467,3.105.81.343.121.733.217,1.097.389"/>
  <path class="uuid-ae1d3d63-21c6-4ba7-a3d5-9a11bc273dec" d="M253.607,268.462c0,.293-.051.515-.173.758-.048.636-.243,1.272-.463,1.857,0,.122-.074.217-.074.343-.048.295-.096.632-.221.927-.291.927-.633,1.855-1.001,2.737-.169.464-.389.975-.633,1.438,0,.122-.051.174-.099.295-.243.537-.537,1.049-.832,1.564-.389.828-.853,1.586-1.39,2.27-.463.71-.979,1.394-1.564,2.031-.806,1.001-1.733,1.854-2.663,2.686"/>
  <polyline class="uuid-ae1d3d63-21c6-4ba7-a3d5-9a11bc273dec" points="244.494 285.369 267.262 272.178 268.532 271.078"/>
  <path class="uuid-ae1d3d63-21c6-4ba7-a3d5-9a11bc273dec" d="M235.847,171.996c4.007,2.495,7.646,5.423,10.799,8.377,15.855,14.854,28.508,38.549,30.315,60.391.121.927.169,1.902.169,2.832"/>
  <path class="uuid-ae1d3d63-21c6-4ba7-a3d5-9a11bc273dec" d="M235.432,289.644c3.371-.684,6.45-2.127,9.063-4.276.931-.832,1.857-1.685,2.663-2.686.585-.637,1.101-1.321,1.564-2.031.537-.684,1.001-1.442,1.39-2.27.295-.515.589-1.026.832-1.564.048-.121.099-.173.099-.295.244-.463.465-.975.633-1.438.367-.883.71-1.81,1.001-2.737.125-.295.173-.632.221-.927,0-.126.074-.221.074-.343.173-.585.295-1.221.463-1.857.052-.243.122-.537.122-.758"/>
  <path class="uuid-ae1d3d63-21c6-4ba7-a3d5-9a11bc273dec" d="M202.453,179.837c-.364-.122-.754-.218-1.097-.339-1.051-.343-2.052-.589-3.105-.81-.927-.243-1.781-.412-2.711-.537-.706-.095-1.392-.169-2.098-.169-.345-.048-.636-.125-.931-.048-.343-.076-.684-.076-.979-.076-1.171,0-2.27.076-3.319.245-.879.122-1.737.295-2.543.513-.463.073-.953.195-1.39.367-.369.096-.71.221-1.005.343-3.124,1.221-5.934,3.079-8.183,5.692"/>
  <polyline class="uuid-ae1d3d63-21c6-4ba7-a3d5-9a11bc273dec" points="149.129 199.014 171.896 185.824 173.53 185.312"/>
  <path class="uuid-ae1d3d63-21c6-4ba7-a3d5-9a11bc273dec" d="M173.53,185.312c3.544-1.005,7.476-1.101,11.093-.541,10.258,1.589,20.373,8.307,27.872,15.27,15.854,14.875,28.508,38.57,30.315,60.412.636,7.425,0,15.902-3.198,22.815-1.221,2.661-3.079,5.398-5.228,7.499"/>
  <polyline class="uuid-ae1d3d63-21c6-4ba7-a3d5-9a11bc273dec" points="234.383 290.766 233.109 291.866 210.345 305.057"/>
  <path class="uuid-ae1d3d63-21c6-4ba7-a3d5-9a11bc273dec" d="M210.345,305.057c.928-.832,1.686-1.516,2.492-2.443,2.515-2.811,4.348-6.45,5.471-9.994,3.249-10.158,2.028-22.469-.659-32.585-5.449-20.203-19.151-41.698-36.396-53.718-6.696-4.64-15.049-8.573-23.283-8.768-2.343-.048-5.008.243-7.204.879"/>
  <polyline class="uuid-ae1d3d63-21c6-4ba7-a3d5-9a11bc273dec" points="148.028 274.838 148.076 274.79 148.028 274.79"/>
  <polyline class="uuid-ae1d3d63-21c6-4ba7-a3d5-9a11bc273dec" points="133.105 208.249 137.744 205.562 139.455 205.048"/>
  <path class="uuid-ae1d3d63-21c6-4ba7-a3d5-9a11bc273dec" d="M139.455,205.048c.512-.174,1.027-.295,1.564-.417,3.054-.632,6.377-.632,9.452-.099,5.938.931,11.848,3.543,17.124,6.965,3.959,2.443,7.619,5.349,10.747,8.304,15.902,14.853,28.508,38.548,30.365,60.338.074.927.122,1.905.169,2.834.321,6.743-.558,13.996-3.344,20.029-1.053,2.27-2.517,4.544-4.253,6.403-.291.341-.633.706-.975,1.049"/>
  <polyline class="uuid-ae1d3d63-21c6-4ba7-a3d5-9a11bc273dec" points="200.305 310.455 199.036 311.603 194.613 314.167"/>
  <path class="uuid-ae1d3d63-21c6-4ba7-a3d5-9a11bc273dec" d="M141.067,332.685c-27.923-16.074-50.518-55.282-50.518-87.502s22.596-45.312,50.518-29.166c27.871,16.096,50.518,55.278,50.518,87.524s-22.647,45.242-50.518,29.144Z"/>
  <path class="uuid-ae1d3d63-21c6-4ba7-a3d5-9a11bc273dec" d="M141.067,316.662c-20.277-11.679-36.643-40.065-36.643-63.466s16.365-32.832,36.643-21.156c20.203,11.678,36.642,40.064,36.642,63.486s-16.439,32.81-36.642,21.135Z"/>
  <path class="uuid-ae1d3d63-21c6-4ba7-a3d5-9a11bc273dec" d="M145.953,298.902c8.353-4.839,16.072-6.987,12.532-22.426-3.201-13.581-17.787-30.778-28.923-24.918"/>
  <path class="uuid-ae1d3d63-21c6-4ba7-a3d5-9a11bc273dec" d="M133.642,297.68c9.573,5.57,17.366,1.049,17.366-10.067s-7.793-24.549-17.366-30.068c-9.652-5.57-17.444-1.1-17.444,10.041,0,11.038,7.792,24.575,17.444,30.094Z"/>
  <path class="uuid-ae1d3d63-21c6-4ba7-a3d5-9a11bc273dec" d="M105.277,212.473c9.431-5.398,15.586-7.719,27.433-4.396,48.833,13.706,84.766,103.647,48.37,125.657"/>
  <path class="uuid-ae1d3d63-21c6-4ba7-a3d5-9a11bc273dec" d="M176.779,336.224c24.379-15.434,13.706-55.741,3.253-76.482-11.141-22.01-36.694-51.909-63.076-50.566-4.47.221-7.719,1.269-11.678,3.297"/>
  <line class="uuid-3d186f90-1420-4208-ad86-ca04796c63a3" x1="256.22" y1="138.727" x2="256.22" y2="138.801"/>
  <path class="uuid-ae1d3d63-21c6-4ba7-a3d5-9a11bc273dec" d="M303.662,250.289c3.418-.71,6.52-2.222,9.183-4.423"/>
  <line class="uuid-3d186f90-1420-4208-ad86-ca04796c63a3" x1="253.557" y1="268.462" x2="253.607" y2="268.462"/>
  <line class="uuid-3d186f90-1420-4208-ad86-ca04796c63a3" x1="202.453" y1="179.888" x2="202.453" y2="179.837"/>
  <path class="uuid-ae1d3d63-21c6-4ba7-a3d5-9a11bc273dec" d="M149.887,198.771c-3.423,1.173-6.451,3.149-8.868,5.86"/>
  <line class="uuid-3d186f90-1420-4208-ad86-ca04796c63a3" x1="129.562" y1="251.558" x2="121.331" y2="256.323"/>
  <path class="uuid-ae1d3d63-21c6-4ba7-a3d5-9a11bc273dec" d="M266.968,119.499c-4.997,3.04-8.989,12.032-10.332,17.492-.195.59-.295,1.149-.415,1.737"/>
  <path class="uuid-ae1d3d63-21c6-4ba7-a3d5-9a11bc273dec" d="M253.607,268.462v-.17c4.53-24.585-9.662-53.376-26.017-71.037-6.622-6.891-15.998-14.545-25.137-17.367"/>
  <line class="uuid-491dca8e-889d-482c-a55d-64a2c7120e8b" x1="358.426" y1="203.657" x2="358.087" y2="204.29"/>
  <line class="uuid-491dca8e-889d-482c-a55d-64a2c7120e8b" x1="355.645" y1="185.87" x2="355.18" y2="186.702"/>
  <line class="uuid-491dca8e-889d-482c-a55d-64a2c7120e8b" x1="350.832" y1="171.705" x2="350.368" y2="172.46"/>
  <line class="uuid-491dca8e-889d-482c-a55d-64a2c7120e8b" x1="344.893" y1="159.343" x2="344.43" y2="160.101"/>
  <line class="uuid-491dca8e-889d-482c-a55d-64a2c7120e8b" x1="338.153" y1="148.426" x2="337.689" y2="149.228"/>
  <line class="uuid-491dca8e-889d-482c-a55d-64a2c7120e8b" x1="330.727" y1="138.727" x2="330.312" y2="139.481"/>
  <line class="uuid-491dca8e-889d-482c-a55d-64a2c7120e8b" x1="322.592" y1="130.25" x2="322.177" y2="130.956"/>
  <line class="uuid-491dca8e-889d-482c-a55d-64a2c7120e8b" x1="313.652" y1="123.094" x2="313.357" y2="123.627"/>
  <line class="uuid-491dca8e-889d-482c-a55d-64a2c7120e8b" x1="180.274" y1="331" x2="170.113" y2="336.814"/>
  <line class="uuid-491dca8e-889d-482c-a55d-64a2c7120e8b" x1="190.069" y1="312.313" x2="149.372" y2="335.761"/>
  <line class="uuid-491dca8e-889d-482c-a55d-64a2c7120e8b" x1="189.726" y1="299.464" x2="178.173" y2="306.083"/>
  <line class="uuid-491dca8e-889d-482c-a55d-64a2c7120e8b" x1="150.008" y1="322.35" x2="138.404" y2="329.094"/>
  <line class="uuid-491dca8e-889d-482c-a55d-64a2c7120e8b" x1="187.92" y1="287.444" x2="179.394" y2="292.378"/>
  <line class="uuid-491dca8e-889d-482c-a55d-64a2c7120e8b" x1="137.523" y1="316.54" x2="128.804" y2="321.548"/>
  <line class="uuid-491dca8e-889d-482c-a55d-64a2c7120e8b" x1="184.867" y1="276.181" x2="177.489" y2="280.431"/>
  <line class="uuid-491dca8e-889d-482c-a55d-64a2c7120e8b" x1="128.119" y1="308.939" x2="120.621" y2="313.239"/>
  <line class="uuid-491dca8e-889d-482c-a55d-64a2c7120e8b" x1="180.712" y1="265.507" x2="173.873" y2="269.514"/>
  <line class="uuid-491dca8e-889d-482c-a55d-64a2c7120e8b" x1="120.451" y1="300.343" x2="113.538" y2="304.351"/>
  <line class="uuid-491dca8e-889d-482c-a55d-64a2c7120e8b" x1="175.609" y1="255.397" x2="168.938" y2="259.278"/>
  <line class="uuid-491dca8e-889d-482c-a55d-64a2c7120e8b" x1="114.049" y1="290.94" x2="107.331" y2="294.821"/>
  <line class="uuid-491dca8e-889d-482c-a55d-64a2c7120e8b" x1="169.527" y1="245.941" x2="162.783" y2="249.825"/>
  <line class="uuid-491dca8e-889d-482c-a55d-64a2c7120e8b" x1="108.943" y1="280.872" x2="102.102" y2="284.831"/>
  <line class="uuid-491dca8e-889d-482c-a55d-64a2c7120e8b" x1="162.492" y1="236.926" x2="155.358" y2="241.054"/>
  <line class="uuid-491dca8e-889d-482c-a55d-64a2c7120e8b" x1="105.06" y1="270.073" x2="97.731" y2="274.327"/>
  <line class="uuid-491dca8e-889d-482c-a55d-64a2c7120e8b" x1="154.6" y1="228.449" x2="146.295" y2="233.262"/>
  <line class="uuid-491dca8e-889d-482c-a55d-64a2c7120e8b" x1="102.86" y1="258.303" x2="94.435" y2="263.164"/>
  <line class="uuid-491dca8e-889d-482c-a55d-64a2c7120e8b" x1="145.295" y1="220.781" x2="134.447" y2="227.057"/>
  <line class="uuid-491dca8e-889d-482c-a55d-64a2c7120e8b" x1="103.376" y1="244.988" x2="92.456" y2="251.265"/>
  <line class="uuid-491dca8e-889d-482c-a55d-64a2c7120e8b" x1="134.959" y1="213.694" x2="91.602" y2="238.783"/>
  <line class="uuid-491dca8e-889d-482c-a55d-64a2c7120e8b" x1="117.324" y1="210.861" x2="97.853" y2="222.124"/>
  <line class="uuid-491dca8e-889d-482c-a55d-64a2c7120e8b" x1="345.433" y1="235.241" x2="333.635" y2="242.032"/>
  <line class="uuid-491dca8e-889d-482c-a55d-64a2c7120e8b" x1="353.665" y1="217.481" x2="344.603" y2="222.683"/>
  <line class="uuid-491dca8e-889d-482c-a55d-64a2c7120e8b" x1="354.055" y1="204.168" x2="347.266" y2="208.127"/>
  <line class="uuid-491dca8e-889d-482c-a55d-64a2c7120e8b" x1="352.322" y1="192.151" x2="346.335" y2="195.57"/>
  <line class="uuid-491dca8e-889d-482c-a55d-64a2c7120e8b" x1="349.242" y1="180.889" x2="343.672" y2="184.138"/>
  <line class="uuid-491dca8e-889d-482c-a55d-64a2c7120e8b" x1="345.114" y1="170.215" x2="339.716" y2="173.34"/>
  <line class="uuid-491dca8e-889d-482c-a55d-64a2c7120e8b" x1="340.01" y1="160.148" x2="334.613" y2="163.228"/>
  <line class="uuid-491dca8e-889d-482c-a55d-64a2c7120e8b" x1="333.877" y1="150.623" x2="328.527" y2="153.772"/>
  <line class="uuid-491dca8e-889d-482c-a55d-64a2c7120e8b" x1="326.89" y1="141.681" x2="321.323" y2="144.882"/>
  <line class="uuid-491dca8e-889d-482c-a55d-64a2c7120e8b" x1="318.954" y1="133.204" x2="312.894" y2="136.696"/>
  <line class="uuid-491dca8e-889d-482c-a55d-64a2c7120e8b" x1="309.472" y1="125.658" x2="302.732" y2="129.566"/>
  <line class="uuid-491dca8e-889d-482c-a55d-64a2c7120e8b" x1="298.039" y1="119.208" x2="289.367" y2="124.215"/>
  <line class="uuid-491dca8e-889d-482c-a55d-64a2c7120e8b" x1="281.137" y1="115.911" x2="263.013" y2="126.413"/>
  <line class="uuid-491dca8e-889d-482c-a55d-64a2c7120e8b" x1="309.817" y1="224.909" x2="291.69" y2="256.371"/>
  <line class="uuid-491dca8e-889d-482c-a55d-64a2c7120e8b" x1="302.098" y1="193.152" x2="287.001" y2="219.386"/>
  <line class="uuid-491dca8e-889d-482c-a55d-64a2c7120e8b" x1="288.735" y1="171.19" x2="275.666" y2="193.836"/>
  <line class="uuid-491dca8e-889d-482c-a55d-64a2c7120e8b" x1="271.905" y1="155.166" x2="260.617" y2="174.612"/>
  <line class="uuid-491dca8e-889d-482c-a55d-64a2c7120e8b" x1="250.701" y1="146.689" x2="242.467" y2="160.954"/>
  <line class="uuid-491dca8e-889d-482c-a55d-64a2c7120e8b" x1="275.666" y1="244.303" x2="257.273" y2="276.254"/>
  <line class="uuid-491dca8e-889d-482c-a55d-64a2c7120e8b" x1="267.947" y1="212.598" x2="252.729" y2="238.905"/>
  <line class="uuid-491dca8e-889d-482c-a55d-64a2c7120e8b" x1="254.488" y1="190.709" x2="241.418" y2="213.356"/>
  <line class="uuid-491dca8e-889d-482c-a55d-64a2c7120e8b" x1="237.632" y1="174.734" x2="226.417" y2="194.127"/>
  <line class="uuid-491dca8e-889d-482c-a55d-64a2c7120e8b" x1="216.428" y1="166.377" x2="208.197" y2="180.595"/>
  <line class="uuid-491dca8e-889d-482c-a55d-64a2c7120e8b" x1="206.851" y1="278.576" x2="197.325" y2="294.993"/>
  <line class="uuid-491dca8e-889d-482c-a55d-64a2c7120e8b" x1="197.862" y1="248.947" x2="189.046" y2="264.213"/>
  <line class="uuid-491dca8e-889d-482c-a55d-64a2c7120e8b" x1="183.913" y1="227.911" x2="176.367" y2="241.054"/>
  <line class="uuid-491dca8e-889d-482c-a55d-64a2c7120e8b" x1="166.621" y1="212.84" x2="160.807" y2="222.882"/>
  <line class="uuid-491dca8e-889d-482c-a55d-64a2c7120e8b" x1="144.364" y1="206.096" x2="142.288" y2="209.691"/>
  <line class="uuid-491dca8e-889d-482c-a55d-64a2c7120e8b" x1="193.855" y1="299.365" x2="193.491" y2="300.001"/>
  <line class="uuid-491dca8e-889d-482c-a55d-64a2c7120e8b" x1="191.169" y1="281.462" x2="190.705" y2="282.216"/>
  <line class="uuid-491dca8e-889d-482c-a55d-64a2c7120e8b" x1="186.43" y1="267.193" x2="185.94" y2="267.929"/>
  <line class="uuid-491dca8e-889d-482c-a55d-64a2c7120e8b" x1="180.543" y1="254.709" x2="180.102" y2="255.517"/>
  <line class="uuid-491dca8e-889d-482c-a55d-64a2c7120e8b" x1="173.873" y1="243.718" x2="173.361" y2="244.597"/>
  <line class="uuid-491dca8e-889d-482c-a55d-64a2c7120e8b" x1="166.447" y1="233.972" x2="165.983" y2="234.825"/>
  <line class="uuid-491dca8e-889d-482c-a55d-64a2c7120e8b" x1="158.312" y1="225.495" x2="157.849" y2="226.301"/>
  <line class="uuid-491dca8e-889d-482c-a55d-64a2c7120e8b" x1="149.42" y1="218.337" x2="149.081" y2="218.875"/>
  <line class="uuid-491dca8e-889d-482c-a55d-64a2c7120e8b" x1="215.864" y1="293.842" x2="209.366" y2="297.606"/>
  <line class="uuid-491dca8e-889d-482c-a55d-64a2c7120e8b" x1="218.477" y1="279.308" x2="210.688" y2="283.805"/>
  <line class="uuid-491dca8e-889d-482c-a55d-64a2c7120e8b" x1="217.38" y1="266.898" x2="209.246" y2="271.589"/>
  <line class="uuid-491dca8e-889d-482c-a55d-64a2c7120e8b" x1="214.474" y1="255.565" x2="206.218" y2="260.326"/>
  <line class="uuid-491dca8e-889d-482c-a55d-64a2c7120e8b" x1="210.295" y1="244.94" x2="201.916" y2="249.753"/>
  <line class="uuid-491dca8e-889d-482c-a55d-64a2c7120e8b" x1="204.944" y1="234.947" x2="196.593" y2="239.784"/>
  <line class="uuid-491dca8e-889d-482c-a55d-64a2c7120e8b" x1="198.546" y1="225.615" x2="190.268" y2="230.428"/>
  <line class="uuid-491dca8e-889d-482c-a55d-64a2c7120e8b" x1="191" y1="216.943" x2="182.765" y2="221.708"/>
  <line class="uuid-491dca8e-889d-482c-a55d-64a2c7120e8b" x1="182.055" y1="209.055" x2="173.994" y2="213.746"/>
  <line class="uuid-491dca8e-889d-482c-a55d-64a2c7120e8b" x1="170.844" y1="202.484" x2="163.294" y2="206.906"/>
  <line class="uuid-491dca8e-889d-482c-a55d-64a2c7120e8b" x1="152.499" y1="200.041" x2="148.618" y2="202.311"/>
  <line class="uuid-491dca8e-889d-482c-a55d-64a2c7120e8b" x1="241.587" y1="263.749" x2="222.951" y2="296.042"/>
  <line class="uuid-491dca8e-889d-482c-a55d-64a2c7120e8b" x1="233.699" y1="232.239" x2="218.577" y2="258.425"/>
  <line class="uuid-491dca8e-889d-482c-a55d-64a2c7120e8b" x1="220.288" y1="210.397" x2="207.266" y2="232.919"/>
  <line class="uuid-491dca8e-889d-482c-a55d-64a2c7120e8b" x1="203.432" y1="194.422" x2="192.221" y2="213.746"/>
  <line class="uuid-491dca8e-889d-482c-a55d-64a2c7120e8b" x1="182.18" y1="186.044" x2="173.994" y2="200.283"/>
  <line class="uuid-491dca8e-889d-482c-a55d-64a2c7120e8b" x1="249.891" y1="274.327" x2="243.445" y2="278.039"/>
  <line class="uuid-491dca8e-889d-482c-a55d-64a2c7120e8b" x1="252.556" y1="259.742" x2="244.84" y2="264.213"/>
  <line class="uuid-491dca8e-889d-482c-a55d-64a2c7120e8b" x1="251.58" y1="247.335" x2="243.445" y2="252.023"/>
  <line class="uuid-491dca8e-889d-482c-a55d-64a2c7120e8b" x1="248.626" y1="235.999" x2="240.365" y2="240.764"/>
  <line class="uuid-491dca8e-889d-482c-a55d-64a2c7120e8b" x1="244.446" y1="225.372" x2="236.116" y2="230.185"/>
  <line class="uuid-491dca8e-889d-482c-a55d-64a2c7120e8b" x1="239.144" y1="215.379" x2="230.793" y2="220.192"/>
  <line class="uuid-491dca8e-889d-482c-a55d-64a2c7120e8b" x1="232.746" y1="206.027" x2="224.464" y2="210.788"/>
  <line class="uuid-491dca8e-889d-482c-a55d-64a2c7120e8b" x1="225.196" y1="197.329" x2="217.013" y2="202.093"/>
  <line class="uuid-491dca8e-889d-482c-a55d-64a2c7120e8b" x1="216.332" y1="189.488" x2="208.245" y2="194.127"/>
  <line class="uuid-491dca8e-889d-482c-a55d-64a2c7120e8b" x1="205.117" y1="182.868" x2="197.618" y2="187.214"/>
  <line class="uuid-491dca8e-889d-482c-a55d-64a2c7120e8b" x1="186.993" y1="180.301" x2="182.938" y2="182.622"/>
  <line class="uuid-491dca8e-889d-482c-a55d-64a2c7120e8b" x1="284.312" y1="253.954" x2="277.719" y2="257.763"/>
  <line class="uuid-491dca8e-889d-482c-a55d-64a2c7120e8b" x1="286.756" y1="239.541" x2="278.915" y2="244.009"/>
  <line class="uuid-491dca8e-889d-482c-a55d-64a2c7120e8b" x1="285.607" y1="227.179" x2="277.473" y2="231.87"/>
  <line class="uuid-491dca8e-889d-482c-a55d-64a2c7120e8b" x1="282.653" y1="215.843" x2="274.348" y2="220.607"/>
  <line class="uuid-491dca8e-889d-482c-a55d-64a2c7120e8b" x1="278.399" y1="205.221" x2="270.047" y2="210.03"/>
  <line class="uuid-491dca8e-889d-482c-a55d-64a2c7120e8b" x1="273.049" y1="195.302" x2="264.698" y2="200.113"/>
  <line class="uuid-491dca8e-889d-482c-a55d-64a2c7120e8b" x1="266.603" y1="185.944" x2="258.321" y2="190.757"/>
  <line class="uuid-491dca8e-889d-482c-a55d-64a2c7120e8b" x1="259.053" y1="177.273" x2="250.87" y2="182.037"/>
  <line class="uuid-491dca8e-889d-482c-a55d-64a2c7120e8b" x1="250.064" y1="169.457" x2="242.054" y2="174.098"/>
  <line class="uuid-491dca8e-889d-482c-a55d-64a2c7120e8b" x1="238.732" y1="162.934" x2="231.256" y2="167.309"/>
  <line class="uuid-491dca8e-889d-482c-a55d-64a2c7120e8b" x1="219.578" y1="160.954" x2="216.332" y2="162.885"/>
  <line class="uuid-491dca8e-889d-482c-a55d-64a2c7120e8b" x1="318.365" y1="234.435" x2="311.793" y2="238.269"/>
  <line class="uuid-491dca8e-889d-482c-a55d-64a2c7120e8b" x1="320.907" y1="219.975" x2="313.066" y2="224.446"/>
  <line class="uuid-491dca8e-889d-482c-a55d-64a2c7120e8b" x1="319.759" y1="207.587" x2="311.624" y2="212.256"/>
  <line class="uuid-491dca8e-889d-482c-a55d-64a2c7120e8b" x1="316.779" y1="196.206" x2="308.548" y2="201.041"/>
  <line class="uuid-491dca8e-889d-482c-a55d-64a2c7120e8b" x1="312.599" y1="185.65" x2="304.246" y2="190.467"/>
  <line class="uuid-491dca8e-889d-482c-a55d-64a2c7120e8b" x1="307.25" y1="175.66" x2="298.897" y2="180.473"/>
  <line class="uuid-491dca8e-889d-482c-a55d-64a2c7120e8b" x1="300.825" y1="166.377" x2="292.52" y2="171.116"/>
  <line class="uuid-491dca8e-889d-482c-a55d-64a2c7120e8b" x1="293.278" y1="157.657" x2="285.096" y2="162.422"/>
  <line class="uuid-491dca8e-889d-482c-a55d-64a2c7120e8b" x1="284.264" y1="149.817" x2="276.251" y2="154.456"/>
  <line class="uuid-491dca8e-889d-482c-a55d-64a2c7120e8b" x1="273.049" y1="143.319" x2="265.504" y2="147.617"/>
  <line class="uuid-491dca8e-889d-482c-a55d-64a2c7120e8b" x1="254.241" y1="141.119" x2="250.649" y2="143.197"/>
  <line class="uuid-491dca8e-889d-482c-a55d-64a2c7120e8b" x1="343.965" y1="204.874" x2="325.547" y2="236.804"/>
  <line class="uuid-491dca8e-889d-482c-a55d-64a2c7120e8b" x1="336.173" y1="173.292" x2="321.028" y2="199.477"/>
  <line class="uuid-491dca8e-889d-482c-a55d-64a2c7120e8b" x1="322.761" y1="151.329" x2="309.693" y2="173.928"/>
  <line class="uuid-491dca8e-889d-482c-a55d-64a2c7120e8b" x1="305.932" y1="135.354" x2="294.718" y2="154.751"/>
  <line class="uuid-491dca8e-889d-482c-a55d-64a2c7120e8b" x1="284.68" y1="126.927" x2="276.498" y2="141.166"/>
</svg>