<?xml version="1.0" encoding="UTF-8"?>
<svg id="uuid-9815025d-1554-4928-a7d9-1943d6ea2d81" data-name="&amp;lt;Layer&amp;gt;" xmlns="http://www.w3.org/2000/svg" viewBox="0 0 451.11 451.11">
  <defs>
    <style>
      .uuid-1ed0a4fa-0ea5-419f-9643-9a22d59ff472, .uuid-9dbfa1d9-c8a1-4ce5-bf29-4436bf497442, .uuid-9e0c2a8c-9c76-4d87-8468-da6e6cf455dd, .uuid-838ae426-680a-4079-a4d0-d39f0172cc41 {
        fill: none;
        stroke: #000;
        stroke-linecap: round;
      }

      .uuid-1ed0a4fa-0ea5-419f-9643-9a22d59ff472, .uuid-838ae426-680a-4079-a4d0-d39f0172cc41 {
        stroke-linejoin: round;
        stroke-width: 3.9px;
      }

      .uuid-9dbfa1d9-c8a1-4ce5-bf29-4436bf497442 {
        stroke-width: 1.101px;
      }

      .uuid-9dbfa1d9-c8a1-4ce5-bf29-4436bf497442, .uuid-9e0c2a8c-9c76-4d87-8468-da6e6cf455dd {
        stroke-miterlimit: 10;
      }

      .uuid-9e0c2a8c-9c76-4d87-8468-da6e6cf455dd {
        stroke-width: 1.103px;
      }

      .uuid-838ae426-680a-4079-a4d0-d39f0172cc41 {
        fill-rule: evenodd;
      }
    </style>
  </defs>
  <path class="uuid-838ae426-680a-4079-a4d0-d39f0172cc41" d="M232.378,241.767c4.396,2.594,10.529,2.2,17.285-1.71,3.241-1.877,6.317-4.398,9.143-7.316,5.291-5.581,11.045-15.467,13.234-22.609,1.321-4.187,2.061-8.353,2.061-12.382,0-7.753-2.779-13.26-7.175-15.781"/>
  <path class="uuid-838ae426-680a-4079-a4d0-d39f0172cc41" d="M158.346,263.104c-2.153.997-3.75,2.593-4.861,4.629-1.085,1.99-1.641,4.559-1.641,7.477"/>
  <polyline class="uuid-838ae426-680a-4079-a4d0-d39f0172cc41" points="151.844 275.209 151.844 287.148 182.6 296.615"/>
  <path class="uuid-838ae426-680a-4079-a4d0-d39f0172cc41" d="M294.884,269.491c2.082.997,3.749,2.593,4.838,4.629,1.111,1.968,1.667,4.559,1.667,7.476"/>
  <polyline class="uuid-838ae426-680a-4079-a4d0-d39f0172cc41" points="301.388 281.596 301.388 293.535 271.949 302.61"/>
  <polyline class="uuid-838ae426-680a-4079-a4d0-d39f0172cc41" points="181.327 255.954 182.6 296.615 182.761 300.964"/>
  <polyline class="uuid-838ae426-680a-4079-a4d0-d39f0172cc41" points="200.257 283.955 200.257 284.025 198.774 286.225 198.774 286.269 183.037 310.199 183.037 310.243 160.152 345.191"/>
  <path class="uuid-838ae426-680a-4079-a4d0-d39f0172cc41" d="M160.152,345.191c-2.083,3.425-3.75,6.895-4.839,10.18-.114.325-.232.674-.276.998-.997,3.285-1.32,6.432-1.364,10.066-.07,2.962,0,6.269,0,10.272"/>
  <polyline class="uuid-838ae426-680a-4079-a4d0-d39f0172cc41" points="154.806 343.664 182.761 300.964 185.119 297.377 194.932 282.428 200.257 283.955"/>
  <polyline class="uuid-838ae426-680a-4079-a4d0-d39f0172cc41" points="200.257 284.025 200.257 337.321 153.673 376.707 153.673 364.768"/>
  <path class="uuid-838ae426-680a-4079-a4d0-d39f0172cc41" d="M153.673,364.768c0-2.638.415-5.439,1.364-8.399.044-.324.162-.674.276-.998,1.089-3.285,2.756-6.755,4.839-10.18"/>
  <polyline class="uuid-838ae426-680a-4079-a4d0-d39f0172cc41" points="302.753 359.283 302.753 371.156 296.48 372.915 296.48 361.042"/>
  <path class="uuid-838ae426-680a-4079-a4d0-d39f0172cc41" d="M296.48,361.042c0-.88-.07-1.759-.162-2.709-.114-.879-.231-1.759-.393-2.567-.276-1.343-.6-2.753-1.085-4.143-1.111-3.285-2.757-6.756-4.861-10.16"/>
  <polyline class="uuid-838ae426-680a-4079-a4d0-d39f0172cc41" points="289.978 341.463 265.794 304.481 258.458 293.304 254.453 287.218 249.895 280.231 254.453 278.957 256.168 278.472 258.737 282.428 271.949 302.61 296.248 339.682"/>
  <polyline class="uuid-838ae426-680a-4079-a4d0-d39f0172cc41" points="296.48 361.042 296.48 372.915 249.895 333.527 249.895 280.231 254.453 287.218 258.458 293.304 265.794 304.481 289.978 341.463"/>
  <path class="uuid-838ae426-680a-4079-a4d0-d39f0172cc41" d="M264.892,241.885c-.209,4.348-2.13,8.189-4.952,11.313-.162.232-.323.393-.485.556-1.041,1.111-2.2,2.152-3.403,3.08-.507.393-1.041.831-1.598,1.111-14.532,10.342-37.742,11.663-54.476,7.266-.391-.118-.762-.231-1.203-.323-5.714-1.715-12.382-4.629-17.448-8.934-.927-.695-1.759-1.526-2.525-2.362-3.031-3.237-5.066-7.148-5.276-11.706"/>
  <path class="uuid-838ae426-680a-4079-a4d0-d39f0172cc41" d="M170.774,146.703c-.07-.165-.07-.327-.07-.489v-.949"/>
  <path class="uuid-838ae426-680a-4079-a4d0-d39f0172cc41" d="M262.531,131.194c3.586,4.677,5.463,9.235,5.162,14.949-.254,6.064-4.49,10.509-9.279,14.048-1.484,1.133-3.15,2.248-4.953,3.285-18.93,10.95-49.616,10.95-68.546,0-1.807-1.037-3.473-2.152-4.909-3.285-4.787-3.54-8.999-7.984-9.349-14.048-.275-5.713,1.598-10.272,5.184-14.949"/>
  <path class="uuid-838ae426-680a-4079-a4d0-d39f0172cc41" d="M249.594,192.312c-9.35,5.395-16.87,18.537-16.87,29.322s7.521,15.136,16.87,9.743c9.375-5.39,16.965-18.489,16.965-29.274s-7.589-15.18-16.965-9.791Z"/>
  <path class="uuid-838ae426-680a-4079-a4d0-d39f0172cc41" d="M265.172,181.135c-3.08-1.087-5.766-.972-8.842-.276-3.474.88-6.273,2.362-9.209,4.35-3.058,2.2-5.604,4.514-8.076,7.314-2.966,3.425-5.324,6.825-7.477,10.784-2.477,4.673-4.283,9.187-5.439,14.371-1.067,4.997-1.32,9.835-.187,14.858.879,3.123,2.108,5.6,4.466,7.796-5.6-3.193-9.695-9.349-10.898-15.619-3.307-16.734,13.423-34.39,27.191-43.066,4.051-2.595,9.791-4.514,14.349-2.918"/>
  <polyline class="uuid-838ae426-680a-4079-a4d0-d39f0172cc41" points="261.003 190.833 261.261 190.926 261.328 190.996"/>
  <path class="uuid-838ae426-680a-4079-a4d0-d39f0172cc41" d="M261.328,190.996c.117.044.161.113.279.161.092.044.254.162.393.276.417.209.81.555,1.203.997.162.092.325.255.485.486.232.232.395.439.556.718q.045.044.045.114c.117.048.183.092.231.209.048.114.118.162.162.276.048.118.118.232.162.325.117.117.161.279.209.393.276.555.556,1.159.74,1.759.092.279.162.556.209.834.048.163.114.325.114.486q.048.07.048.114"/>
  <path class="uuid-838ae426-680a-4079-a4d0-d39f0172cc41" d="M256.746,190.046c1.225,2.314,1.62,5.114,1.55,7.823-.114,3.749-.924,6.987-2.244,10.505-1.436,3.634-3.194,6.758-5.509,9.904-1.873,2.432-3.793,4.446-6.155,6.319-2.752,2.152-5.67,3.749-9.187,4.26-.346.044-.6.044-.95.044"/>
  <line class="uuid-1ed0a4fa-0ea5-419f-9643-9a22d59ff472" x1="178.802" y1="253.592" x2="158.346" y2="263.104"/>
  <line class="uuid-1ed0a4fa-0ea5-419f-9643-9a22d59ff472" x1="259.94" y1="253.199" x2="294.884" y2="269.491"/>
  <path class="uuid-838ae426-680a-4079-a4d0-d39f0172cc41" d="M200.257,330.009c15.575,5.622,37.791,4.073,49.638-4.791"/>
  <line class="uuid-1ed0a4fa-0ea5-419f-9643-9a22d59ff472" x1="259.455" y1="253.754" x2="258.737" y2="282.428"/>
  <line class="uuid-1ed0a4fa-0ea5-419f-9643-9a22d59ff472" x1="153.673" y1="376.707" x2="148.396" y2="375.136"/>
  <path class="uuid-838ae426-680a-4079-a4d0-d39f0172cc41" d="M148.396,375.136c0-13.653-.95-19.21,6.409-31.472"/>
  <path class="uuid-838ae426-680a-4079-a4d0-d39f0172cc41" d="M296.248,339.682c3.706,6.108,6.343,12.334,6.506,19.601"/>
  <path class="uuid-838ae426-680a-4079-a4d0-d39f0172cc41" d="M265.447,223.878v.07"/>
  <line class="uuid-1ed0a4fa-0ea5-419f-9643-9a22d59ff472" x1="265.447" y1="223.948" x2="264.892" y2="241.885"/>
  <line class="uuid-1ed0a4fa-0ea5-419f-9643-9a22d59ff472" x1="173.526" y1="241.885" x2="170.774" y2="146.703"/>
  <line class="uuid-1ed0a4fa-0ea5-419f-9643-9a22d59ff472" x1="267.693" y1="146.214" x2="266.673" y2="181.851"/>
  <line class="uuid-1ed0a4fa-0ea5-419f-9643-9a22d59ff472" x1="219.187" y1="74.403" x2="262.531" y2="131.194"/>
  <line class="uuid-1ed0a4fa-0ea5-419f-9643-9a22d59ff472" x1="175.84" y1="131.194" x2="219.187" y2="74.403"/>
  <line class="uuid-1ed0a4fa-0ea5-419f-9643-9a22d59ff472" x1="261.051" y1="178.729" x2="265.172" y2="181.135"/>
  <line class="uuid-9e0c2a8c-9c76-4d87-8468-da6e6cf455dd" x1="199.653" y1="299.437" x2="157.907" y2="371.711"/>
  <line class="uuid-9e0c2a8c-9c76-4d87-8468-da6e6cf455dd" x1="294.445" y1="270.165" x2="277.458" y2="299.648"/>
  <line class="uuid-9e0c2a8c-9c76-4d87-8468-da6e6cf455dd" x1="274.867" y1="261.301" x2="261.489" y2="284.466"/>
  <line class="uuid-9e0c2a8c-9c76-4d87-8468-da6e6cf455dd" x1="291.089" y1="346.578" x2="283.381" y2="359.929"/>
  <line class="uuid-9e0c2a8c-9c76-4d87-8468-da6e6cf455dd" x1="278.315" y1="325.936" x2="266.673" y2="346.117"/>
  <line class="uuid-9e0c2a8c-9c76-4d87-8468-da6e6cf455dd" x1="265.287" y1="305.755" x2="251.378" y2="329.847"/>
  <line class="uuid-9e0c2a8c-9c76-4d87-8468-da6e6cf455dd" x1="180.075" y1="257.228" x2="161.539" y2="289.301"/>
  <line class="uuid-9e0c2a8c-9c76-4d87-8468-da6e6cf455dd" x1="248.346" y1="308.393" x2="235.848" y2="330.009"/>
  <line class="uuid-9e0c2a8c-9c76-4d87-8468-da6e6cf455dd" x1="257.14" y1="271.691" x2="254.016" y2="277.152"/>
  <line class="uuid-9e0c2a8c-9c76-4d87-8468-da6e6cf455dd" x1="248.784" y1="286.155" x2="221.87" y2="332.809"/>
  <line class="uuid-9e0c2a8c-9c76-4d87-8468-da6e6cf455dd" x1="251.216" y1="260.583" x2="209.444" y2="332.993"/>
  <line class="uuid-9e0c2a8c-9c76-4d87-8468-da6e6cf455dd" x1="235.686" y1="266.091" x2="201.089" y2="326.05"/>
  <line class="uuid-9e0c2a8c-9c76-4d87-8468-da6e6cf455dd" x1="222.032" y1="268.288" x2="201.53" y2="303.882"/>
  <line class="uuid-9e0c2a8c-9c76-4d87-8468-da6e6cf455dd" x1="209.606" y1="268.45" x2="201.251" y2="282.913"/>
  <line class="uuid-9e0c2a8c-9c76-4d87-8468-da6e6cf455dd" x1="198.774" y1="265.859" x2="183.872" y2="291.616"/>
  <line class="uuid-9e0c2a8c-9c76-4d87-8468-da6e6cf455dd" x1="188.384" y1="262.456" x2="183.593" y2="270.813"/>
  <line class="uuid-9e0c2a8c-9c76-4d87-8468-da6e6cf455dd" x1="263.965" y1="134.991" x2="246.308" y2="165.586"/>
  <line class="uuid-9e0c2a8c-9c76-4d87-8468-da6e6cf455dd" x1="257.371" y1="125.039" x2="231.289" y2="170.189"/>
  <line class="uuid-9e0c2a8c-9c76-4d87-8468-da6e6cf455dd" x1="250.543" y1="115.458" x2="218.146" y2="171.623"/>
  <line class="uuid-9e0c2a8c-9c76-4d87-8468-da6e6cf455dd" x1="243.67" y1="105.947" x2="206.159" y2="171.024"/>
  <line class="uuid-9e0c2a8c-9c76-4d87-8468-da6e6cf455dd" x1="236.775" y1="96.527" x2="195.095" y2="168.753"/>
  <line class="uuid-9e0c2a8c-9c76-4d87-8468-da6e6cf455dd" x1="229.854" y1="87.134" x2="185.075" y2="164.706"/>
  <line class="uuid-9e0c2a8c-9c76-4d87-8468-da6e6cf455dd" x1="222.867" y1="77.828" x2="176.327" y2="158.481"/>
  <line class="uuid-9dbfa1d9-c8a1-4ce5-bf29-4436bf497442" x1="190.484" y1="112.54" x2="172.254" y2="144.062"/>
  <line class="uuid-9e0c2a8c-9c76-4d87-8468-da6e6cf455dd" x1="235.848" y1="241.491" x2="226.892" y2="225.986"/>
  <line class="uuid-9e0c2a8c-9c76-4d87-8468-da6e6cf455dd" x1="247.025" y1="239.409" x2="244.596" y2="235.221"/>
  <line class="uuid-9e0c2a8c-9c76-4d87-8468-da6e6cf455dd" x1="232.054" y1="213.488" x2="230.295" y2="210.456"/>
  <line class="uuid-9e0c2a8c-9c76-4d87-8468-da6e6cf455dd" x1="255.705" y1="233.135" x2="254.178" y2="230.427"/>
  <line class="uuid-9e0c2a8c-9c76-4d87-8468-da6e6cf455dd" x1="237.563" y1="201.662" x2="236.171" y2="199.303"/>
  <line class="uuid-9e0c2a8c-9c76-4d87-8468-da6e6cf455dd" x1="262.972" y1="224.271" x2="261.651" y2="222.075"/>
  <line class="uuid-9e0c2a8c-9c76-4d87-8468-da6e6cf455dd" x1="245.035" y1="193.24" x2="243.507" y2="190.553"/>
  <line class="uuid-9e0c2a8c-9c76-4d87-8468-da6e6cf455dd" x1="268.917" y1="213.211" x2="267.206" y2="210.249"/>
  <line class="uuid-9e0c2a8c-9c76-4d87-8468-da6e6cf455dd" x1="254.616" y1="188.471" x2="252.231" y2="184.284"/>
  <line class="uuid-9e0c2a8c-9c76-4d87-8468-da6e6cf455dd" x1="272.435" y1="197.869" x2="263.365" y2="182.132"/>
  <line class="uuid-9e0c2a8c-9c76-4d87-8468-da6e6cf455dd" x1="258.899" y1="219.761" x2="253.693" y2="216.728"/>
  <line class="uuid-9e0c2a8c-9c76-4d87-8468-da6e6cf455dd" x1="264.29" y1="198.192" x2="260.054" y2="195.786"/>
  <line class="uuid-9e0c2a8c-9c76-4d87-8468-da6e6cf455dd" x1="250.219" y1="216.243" x2="241.68" y2="201.455"/>
  <line class="uuid-9e0c2a8c-9c76-4d87-8468-da6e6cf455dd" x1="223.308" y1="227.189" x2="222.381" y2="227.745"/>
  <line class="uuid-9e0c2a8c-9c76-4d87-8468-da6e6cf455dd" x1="225.225" y1="213.719" x2="221.34" y2="215.963"/>
  <line class="uuid-9e0c2a8c-9c76-4d87-8468-da6e6cf455dd" x1="233.441" y1="196.666" x2="230.457" y2="198.354"/>
</svg>