<?xml version="1.0" encoding="UTF-8"?>
<svg id="uuid-a92fdd81-90de-48e0-923e-73d221364d0d" data-name="&amp;lt;Layer&amp;gt;" xmlns="http://www.w3.org/2000/svg" viewBox="0 0 451.11 451.11">
  <defs>
    <style>
      .uuid-28c580c1-11d2-4a5b-8703-13ee856cb158, .uuid-1b9b3a5a-12e9-4e1d-b3f0-b0e369fce8e5, .uuid-c4701525-e77e-4167-b735-3fa290ce37e7, .uuid-8d4b951c-e0e2-4c10-b779-b6cde3fb69d3 {
        fill: none;
        stroke: #000;
        stroke-linecap: round;
      }

      .uuid-28c580c1-11d2-4a5b-8703-13ee856cb158, .uuid-8d4b951c-e0e2-4c10-b779-b6cde3fb69d3 {
        stroke-linejoin: round;
        stroke-width: 4.117px;
      }

      .uuid-1b9b3a5a-12e9-4e1d-b3f0-b0e369fce8e5 {
        stroke-width: 1.163px;
      }

      .uuid-1b9b3a5a-12e9-4e1d-b3f0-b0e369fce8e5, .uuid-c4701525-e77e-4167-b735-3fa290ce37e7 {
        stroke-miterlimit: 10;
      }

      .uuid-c4701525-e77e-4167-b735-3fa290ce37e7 {
        stroke-width: 1.167px;
      }

      .uuid-8d4b951c-e0e2-4c10-b779-b6cde3fb69d3 {
        fill-rule: evenodd;
      }
    </style>
  </defs>
  <path class="uuid-8d4b951c-e0e2-4c10-b779-b6cde3fb69d3" d="M230.761,160.188c-2.074.636-4.128,1.39-6.155,2.321-.343.122-.684.291-1.097.465-1.909.805-3.716,1.805-5.57,2.784-4.935,2.687-9.578,5.814-14,9.233M151.909,273.902c-.463,5.914-.415,11.896.122,18.567"/>
  <path class="uuid-8d4b951c-e0e2-4c10-b779-b6cde3fb69d3" d="M332.164,301.947c-1.394.633-2.785,1.269-4.18,1.903-1.097.54-2.222,1.001-3.323,1.515-.975.417-1.954.88-2.906,1.269-.389.196-.758.369-1.147.489-1.634.685-3.371,1.392-5.056,1.955-.706.243-1.343.489-2.027.71-.71.221-1.343.463-2.027.632-1.979.589-3.955,1.101-5.864,1.442-1.292.196-2.565.369-3.786.489-1.391.048-2.734.048-4.007-.073-.122,0-.291,0-.413-.048-.636-.074-1.199-.126-1.783-.247"/>
  <path class="uuid-8d4b951c-e0e2-4c10-b779-b6cde3fb69d3" d="M243.878,149.22c2.053-1.638,4.081-3.371,6.229-5.18,17.418-14.754,33.81-32.685,46.758-51.442"/>
  <polyline class="uuid-8d4b951c-e0e2-4c10-b779-b6cde3fb69d3" points="296.865 92.598 298.355 90.325 306.612 95.088"/>
  <path class="uuid-8d4b951c-e0e2-4c10-b779-b6cde3fb69d3" d="M297.086,108.28c-1.221,1.685-2.565,3.249-3.886,4.886-.121.096-.169.221-.291.343-.125.169-.293.411-.467.584-3.249,3.934-6.57,7.819-9.989,11.553-1.737,1.859-3.495,3.716-5.228,5.497-1.733,1.807-3.54,3.617-5.349,5.35-1.222,1.221-2.491,2.443-3.834,3.664-1.273,1.221-2.543,2.369-3.837,3.544-4.177,3.712-8.11,7.13-11.896,10.405"/>
  <path class="uuid-8d4b951c-e0e2-4c10-b779-b6cde3fb69d3" d="M297.086,108.206c3.37-4.276,6.498-8.647,9.526-13.117,5.228,15.171,6.155,36.812,3.127,60.629"/>
  <path class="uuid-8d4b951c-e0e2-4c10-b779-b6cde3fb69d3" d="M248.132,157.575c1.097,0,2.196.048,3.37.17.17,0,.343.047.511.047"/>
  <polyline class="uuid-8d4b951c-e0e2-4c10-b779-b6cde3fb69d3" points="263.518 160.53 252.308 154.106 252.087 153.911 243.878 149.22 226.633 139.231"/>
  <path class="uuid-8d4b951c-e0e2-4c10-b779-b6cde3fb69d3" d="M226.633,139.231c-9.747-3.716-18.857-3.716-29.093-1.221-11.309,2.734-20.957,8.01-30.071,15.218-16.903,13.337-29.509,28.555-38.67,48.074-4.077,8.599-6.863,16.734-9.648,25.845-1.203,4.9-2.166,9.779-2.965,14.632"/>
  <path class="uuid-8d4b951c-e0e2-4c10-b779-b6cde3fb69d3" d="M114.755,255.558c0-.074-.074-.074-.074-.074.074,0,.074-.048.074-.048"/>
  <path class="uuid-8d4b951c-e0e2-4c10-b779-b6cde3fb69d3" d="M252.013,157.792c-.169,0-.341-.047-.511-.047-7.236-.302-13.624.275-20.741,2.443"/>
  <path class="uuid-8d4b951c-e0e2-4c10-b779-b6cde3fb69d3" d="M351.142,120.638c-1.49,2.274-3.075,4.47-4.691,6.67-1.564,2.175-3.197,4.372-4.809,6.451-1.637,2.148-3.322,4.25-5.008,6.324-1.737,2.149-3.542,4.254-5.349,6.351-2.152,2.491-4.398,4.934-6.67,7.306-2.665,2.856-5.398,5.593-8.136,8.257-1.221,1.223-2.491,2.444-3.834,3.665-5.102,4.809-10.331,9.327-15.681,13.507-5.154,4.25-10.505,8.425-15.659,12.557-10.994,9.869-20.398,18.931-28.534,28.678-.559.684-1.147,1.39-1.685,2.1-.927,1.097-1.807,2.196-2.613,3.371-1.979,2.542-3.763,5.032-5.449,7.597-6.033,9.137-11.211,19.225-15.681,31.194"/>
  <path class="uuid-8d4b951c-e0e2-4c10-b779-b6cde3fb69d3" d="M225.195,272.217c-.052.291-.122.559-.247.88-1.439,7.936-2.248,15.364-1.785,22.348.125,1.221.221,2.374.389,3.47.199,1.468.421,2.859.784,4.253.221.975.515,1.903.806,2.834.099.363.173.706.343,1.049.293.805.511,1.563.809,2.321.291.637.585,1.269.876,1.929.295.636.515,1.221.931,1.783,2.244,4.081,5.35,7.963,9.526,11.679-10.284-5.866-16.561-12.312-19.862-20.035-4.176-9.695-3.785-21.373-.927-36.691,11.432-40.771,34.079-61.633,63.514-86.351,4.591-3.912,9.404-7.919,14.338-12.095,5.182-4.348,10.236-8.989,15.049-13.874,11.748-11.553,22.548-24.402,31.657-37.619"/>
  <polyline class="uuid-8d4b951c-e0e2-4c10-b779-b6cde3fb69d3" points="341.396 118.099 342.912 115.877 351.142 120.638"/>
  <path class="uuid-8d4b951c-e0e2-4c10-b779-b6cde3fb69d3" d="M316.311,287.435c-.88,1.269-1.737,2.539-2.686,3.76-5.962,8.379-11.999,15.27-17.981,20.789-22.718,21.13-44.385,23.059-58.017,12.779-3.959-2.958-7.208-6.841-9.526-11.679-.415-.562-.636-1.147-.931-1.783-.291-.659-.585-1.292-.876-1.929-.297-.758-.515-1.516-.809-2.321-.17-.343-.244-.685-.343-1.049-.291-.931-.537-1.907-.758-2.885-.365-1.342-.585-2.734-.832-4.202-.169-1.096-.265-2.248-.389-3.47-.585-6.74,0-14.287,1.785-22.348.125-.321.195-.589.247-.88"/>
  <path class="uuid-8d4b951c-e0e2-4c10-b779-b6cde3fb69d3" d="M227.343,264.667c3.201-9.819,8.353-20.324,15.681-31.194,1.686-2.565,3.47-5.056,5.449-7.597.806-1.175,1.686-2.274,2.613-3.371.537-.71,1.125-1.416,1.685-2.1,7.719-9.478,17.197-19.104,28.534-28.678,3.712-3.127,7.645-6.328,11.774-9.456,1.342-1.001,2.612-2.052,3.885-3.101,5.35-4.18,10.579-8.698,15.681-13.507,1.343-1.221,2.613-2.443,3.834-3.665,2.737-2.663,5.471-5.401,8.136-8.257,2.273-2.373,4.518-4.816,6.67-7.306,1.807-2.098,3.612-4.202,5.349-6.351,1.733-2.074,3.419-4.176,5.008-6.324,1.66-2.079,3.297-4.276,4.809-6.451,1.616-2.2,3.201-4.396,4.691-6.67,13.118,37.938-.975,117.012-34.832,166.797"/>
  <path class="uuid-8d4b951c-e0e2-4c10-b779-b6cde3fb69d3" d="M197.614,234.401c-5.397,4.128-10.457,2.737-11.285-3.076-.732-5.74,2.976-13.754,8.379-17.882.048-.051.169-.125.217-.125,0,0,.078-.048.078-.121.169-.096.341-.222.511-.343,5.128-3.297,9.699-1.855,10.457,3.664.827,5.766-2.958,13.754-8.356,17.882Z"/>
  <polyline class="uuid-8d4b951c-e0e2-4c10-b779-b6cde3fb69d3" points="131.584 263.104 111.48 277.199 98.363 269.602 113.581 258.927"/>
  <polyline class="uuid-8d4b951c-e0e2-4c10-b779-b6cde3fb69d3" points="111.48 277.199 131.536 263.129 108.305 257.706"/>
  <path class="uuid-8d4b951c-e0e2-4c10-b779-b6cde3fb69d3" d="M108.305,257.706c16.829-5.523,27.971-10.994,35.932-16.074-3.128,12.727-4.592,24.479-4.813,35.494"/>
  <line class="uuid-28c580c1-11d2-4a5b-8703-13ee856cb158" x1="313.625" y1="291.195" x2="332.164" y2="301.947"/>
  <line class="uuid-28c580c1-11d2-4a5b-8703-13ee856cb158" x1="252.013" y1="157.792" x2="252.087" y2="157.792"/>
  <path class="uuid-8d4b951c-e0e2-4c10-b779-b6cde3fb69d3" d="M252.087,157.792c3.764.421,7.598,1.347,11.431,2.738"/>
  <line class="uuid-28c580c1-11d2-4a5b-8703-13ee856cb158" x1="179.538" y1="349.042" x2="142.625" y2="327.717"/>
  <path class="uuid-8d4b951c-e0e2-4c10-b779-b6cde3fb69d3" d="M142.625,327.717c-17.197-16.417-23.599-30.024-26.601-50.224"/>
  <path class="uuid-8d4b951c-e0e2-4c10-b779-b6cde3fb69d3" d="M280.352,181.687c-2.248-10.751-8.525-17.614-16.834-21.157"/>
  <line class="uuid-28c580c1-11d2-4a5b-8703-13ee856cb158" x1="227.343" y1="264.667" x2="225.195" y2="272.217"/>
  <path class="uuid-8d4b951c-e0e2-4c10-b779-b6cde3fb69d3" d="M139.424,277.125c-9.478,1.59-18.124.806-27.945.074"/>
  <path class="uuid-8d4b951c-e0e2-4c10-b779-b6cde3fb69d3" d="M108.305,257.706l-13.19-7.597c12.683-4.165,24.652-9.143,35.958-16.076l13.164,7.598c-10.762,6.949-23.821,12.093-35.932,16.074Z"/>
  <path class="uuid-8d4b951c-e0e2-4c10-b779-b6cde3fb69d3" d="M295.644,311.984c11.03,2.296,26.483-5.471,36.521-10.037-66.298,71.199-169.029,87.907-179.792-7.035,0-.173-.048-.345-.048-.515-.073-.415-.121-.805-.195-1.222-.051-.121-.099-.243-.051-.415,0-.1,0-.17-.048-.291"/>
  <path class="uuid-8d4b951c-e0e2-4c10-b779-b6cde3fb69d3" d="M203.939,174.991c-30.395,24.058-48.487,59.038-51.908,97.617-.074.121-.074.243-.074.367v.122c-.048.267-.048.558-.048.805"/>
  <line class="uuid-1b9b3a5a-12e9-4e1d-b3f0-b0e369fce8e5" x1="315.968" y1="287.14" x2="315.894" y2="287.14"/>
  <line class="uuid-1b9b3a5a-12e9-4e1d-b3f0-b0e369fce8e5" x1="355.613" y1="173.234" x2="265.532" y2="329.2"/>
  <line class="uuid-1b9b3a5a-12e9-4e1d-b3f0-b0e369fce8e5" x1="354.323" y1="130.367" x2="240.703" y2="327.121"/>
  <line class="uuid-1b9b3a5a-12e9-4e1d-b3f0-b0e369fce8e5" x1="302.314" y1="175.236" x2="226.294" y2="306.918"/>
  <line class="uuid-1b9b3a5a-12e9-4e1d-b3f0-b0e369fce8e5" x1="150.687" y1="331.209" x2="120.079" y2="278.152"/>
  <line class="uuid-1b9b3a5a-12e9-4e1d-b3f0-b0e369fce8e5" x1="155.743" y1="317.333" x2="133.39" y2="278.594"/>
  <line class="uuid-1b9b3a5a-12e9-4e1d-b3f0-b0e369fce8e5" x1="149.881" y1="284.577" x2="141.574" y2="270.164"/>
  <line class="uuid-1b9b3a5a-12e9-4e1d-b3f0-b0e369fce8e5" x1="122.691" y1="237.576" x2="119.688" y2="232.348"/>
  <line class="uuid-1b9b3a5a-12e9-4e1d-b3f0-b0e369fce8e5" x1="151.225" y1="264.326" x2="143.895" y2="251.649"/>
  <line class="uuid-1b9b3a5a-12e9-4e1d-b3f0-b0e369fce8e5" x1="133.269" y1="233.205" x2="124.086" y2="217.303"/>
  <line class="uuid-1b9b3a5a-12e9-4e1d-b3f0-b0e369fce8e5" x1="155.279" y1="248.787" x2="128.799" y2="202.939"/>
  <line class="uuid-1b9b3a5a-12e9-4e1d-b3f0-b0e369fce8e5" x1="160.044" y1="234.448" x2="134.954" y2="191.039"/>
  <line class="uuid-1b9b3a5a-12e9-4e1d-b3f0-b0e369fce8e5" x1="165.564" y1="221.431" x2="141.867" y2="180.44"/>
  <line class="uuid-1b9b3a5a-12e9-4e1d-b3f0-b0e369fce8e5" x1="171.817" y1="209.73" x2="149.466" y2="171.012"/>
  <line class="uuid-1b9b3a5a-12e9-4e1d-b3f0-b0e369fce8e5" x1="178.852" y1="199.322" x2="157.648" y2="162.631"/>
  <line class="uuid-1b9b3a5a-12e9-4e1d-b3f0-b0e369fce8e5" x1="186.521" y1="190.064" x2="166.368" y2="155.107"/>
  <line class="uuid-1b9b3a5a-12e9-4e1d-b3f0-b0e369fce8e5" x1="194.756" y1="181.734" x2="175.531" y2="148.44"/>
  <line class="uuid-1b9b3a5a-12e9-4e1d-b3f0-b0e369fce8e5" x1="203.476" y1="174.257" x2="185.472" y2="143.064"/>
  <line class="uuid-1b9b3a5a-12e9-4e1d-b3f0-b0e369fce8e5" x1="212.711" y1="167.665" x2="196.392" y2="139.352"/>
  <line class="uuid-1b9b3a5a-12e9-4e1d-b3f0-b0e369fce8e5" x1="222.578" y1="162.168" x2="208.361" y2="137.567"/>
  <line class="uuid-1b9b3a5a-12e9-4e1d-b3f0-b0e369fce8e5" x1="233.378" y1="158.259" x2="222.457" y2="139.425"/>
  <line class="uuid-1b9b3a5a-12e9-4e1d-b3f0-b0e369fce8e5" x1="245.004" y1="155.865" x2="241.682" y2="150.125"/>
  <line class="uuid-1b9b3a5a-12e9-4e1d-b3f0-b0e369fce8e5" x1="256.483" y1="147.951" x2="253.824" y2="143.358"/>
  <line class="uuid-1b9b3a5a-12e9-4e1d-b3f0-b0e369fce8e5" x1="265.156" y1="140.352" x2="262.423" y2="135.591"/>
  <line class="uuid-1b9b3a5a-12e9-4e1d-b3f0-b0e369fce8e5" x1="273.512" y1="132.29" x2="270.653" y2="127.383"/>
  <line class="uuid-1b9b3a5a-12e9-4e1d-b3f0-b0e369fce8e5" x1="281.648" y1="123.791" x2="278.736" y2="118.711"/>
  <line class="uuid-1b9b3a5a-12e9-4e1d-b3f0-b0e369fce8e5" x1="289.487" y1="114.778" x2="286.459" y2="109.574"/>
  <line class="uuid-1b9b3a5a-12e9-4e1d-b3f0-b0e369fce8e5" x1="297.034" y1="105.274" x2="293.958" y2="99.923"/>
  <line class="uuid-1b9b3a5a-12e9-4e1d-b3f0-b0e369fce8e5" x1="309.275" y1="143.505" x2="296.449" y2="165.806"/>
  <line class="uuid-1b9b3a5a-12e9-4e1d-b3f0-b0e369fce8e5" x1="310.202" y1="119.321" x2="278.373" y2="174.457"/>
  <line class="uuid-1b9b3a5a-12e9-4e1d-b3f0-b0e369fce8e5" x1="307.954" y1="100.733" x2="270.653" y2="165.269"/>
  <line class="uuid-c4701525-e77e-4167-b735-3fa290ce37e7" x1="275.65" y1="134.069" x2="261.786" y2="158.061"/>
  <line class="uuid-1b9b3a5a-12e9-4e1d-b3f0-b0e369fce8e5" x1="223.417" y1="304.092" x2="215.713" y2="290.732"/>
  <line class="uuid-1b9b3a5a-12e9-4e1d-b3f0-b0e369fce8e5" x1="221.993" y1="278.984" x2="218.06" y2="272.217"/>
  <line class="uuid-1b9b3a5a-12e9-4e1d-b3f0-b0e369fce8e5" x1="225.901" y1="263.203" x2="222.358" y2="257.122"/>
  <line class="uuid-1b9b3a5a-12e9-4e1d-b3f0-b0e369fce8e5" x1="231.298" y1="250.009" x2="227.929" y2="244.148"/>
  <line class="uuid-1b9b3a5a-12e9-4e1d-b3f0-b0e369fce8e5" x1="237.675" y1="238.43" x2="234.304" y2="232.689"/>
  <line class="uuid-1b9b3a5a-12e9-4e1d-b3f0-b0e369fce8e5" x1="244.662" y1="227.928" x2="241.461" y2="222.457"/>
  <line class="uuid-1b9b3a5a-12e9-4e1d-b3f0-b0e369fce8e5" x1="252.139" y1="218.304" x2="249.181" y2="213.244"/>
  <line class="uuid-1b9b3a5a-12e9-4e1d-b3f0-b0e369fce8e5" x1="259.979" y1="209.337" x2="257.367" y2="204.793"/>
  <line class="uuid-1b9b3a5a-12e9-4e1d-b3f0-b0e369fce8e5" x1="268.163" y1="201.007" x2="265.792" y2="196.857"/>
  <line class="uuid-1b9b3a5a-12e9-4e1d-b3f0-b0e369fce8e5" x1="276.713" y1="193.193" x2="274.44" y2="189.258"/>
  <line class="uuid-1b9b3a5a-12e9-4e1d-b3f0-b0e369fce8e5" x1="285.481" y1="185.815" x2="283.21" y2="181.808"/>
  <line class="uuid-1b9b3a5a-12e9-4e1d-b3f0-b0e369fce8e5" x1="294.469" y1="178.802" x2="291.906" y2="174.431"/>
  <line class="uuid-1b9b3a5a-12e9-4e1d-b3f0-b0e369fce8e5" x1="303.289" y1="171.546" x2="300.676" y2="166.955"/>
  <line class="uuid-1b9b3a5a-12e9-4e1d-b3f0-b0e369fce8e5" x1="311.888" y1="163.83" x2="309.103" y2="159.015"/>
  <line class="uuid-1b9b3a5a-12e9-4e1d-b3f0-b0e369fce8e5" x1="320.192" y1="155.644" x2="317.359" y2="150.688"/>
  <line class="uuid-1b9b3a5a-12e9-4e1d-b3f0-b0e369fce8e5" x1="328.28" y1="147.045" x2="325.325" y2="141.916"/>
  <line class="uuid-1b9b3a5a-12e9-4e1d-b3f0-b0e369fce8e5" x1="336.047" y1="137.909" x2="332.97" y2="132.633"/>
  <line class="uuid-1b9b3a5a-12e9-4e1d-b3f0-b0e369fce8e5" x1="343.497" y1="128.211" x2="340.421" y2="122.838"/>
  <line class="uuid-1b9b3a5a-12e9-4e1d-b3f0-b0e369fce8e5" x1="307.196" y1="313.158" x2="296.964" y2="330.892"/>
  <line class="uuid-1b9b3a5a-12e9-4e1d-b3f0-b0e369fce8e5" x1="271.875" y1="329.255" x2="258.416" y2="352.56"/>
  <line class="uuid-1b9b3a5a-12e9-4e1d-b3f0-b0e369fce8e5" x1="245.394" y1="329.891" x2="227.807" y2="360.401"/>
  <line class="uuid-1b9b3a5a-12e9-4e1d-b3f0-b0e369fce8e5" x1="226.537" y1="317.503" x2="202.375" y2="359.3"/>
  <line class="uuid-1b9b3a5a-12e9-4e1d-b3f0-b0e369fce8e5" x1="214.227" y1="293.592" x2="181.417" y2="350.485"/>
  <line class="uuid-1b9b3a5a-12e9-4e1d-b3f0-b0e369fce8e5" x1="264.549" y1="161.292" x2="164.706" y2="334.201"/>
  <line class="uuid-1b9b3a5a-12e9-4e1d-b3f0-b0e369fce8e5" x1="239.996" y1="158.624" x2="206.602" y2="216.471"/>
  <line class="uuid-1b9b3a5a-12e9-4e1d-b3f0-b0e369fce8e5" x1="195.171" y1="236.281" x2="154.816" y2="306.218"/>
  <line class="uuid-1b9b3a5a-12e9-4e1d-b3f0-b0e369fce8e5" x1="203.696" y1="176.311" x2="154.399" y2="261.787"/>
  <line class="uuid-1b9b3a5a-12e9-4e1d-b3f0-b0e369fce8e5" x1="311.961" y1="308.419" x2="308.002" y2="301.505"/>
  <line class="uuid-1b9b3a5a-12e9-4e1d-b3f0-b0e369fce8e5" x1="322.636" y1="304.364" x2="316.814" y2="294.282"/>
  <line class="uuid-1b9b3a5a-12e9-4e1d-b3f0-b0e369fce8e5" x1="115.681" y1="272.165" x2="105.862" y2="266.474"/>
  <line class="uuid-1b9b3a5a-12e9-4e1d-b3f0-b0e369fce8e5" x1="127.249" y1="265.812" x2="118.316" y2="260.657"/>
  <line class="uuid-1b9b3a5a-12e9-4e1d-b3f0-b0e369fce8e5" x1="112.138" y1="254.531" x2="108.01" y2="247.375"/>
  <line class="uuid-1b9b3a5a-12e9-4e1d-b3f0-b0e369fce8e5" x1="122.863" y1="250.524" x2="118.172" y2="242.389"/>
  <line class="uuid-1b9b3a5a-12e9-4e1d-b3f0-b0e369fce8e5" x1="133.147" y1="245.833" x2="128.336" y2="237.428"/>
</svg>