<?xml version="1.0" encoding="UTF-8"?>
<svg id="uuid-0baaead1-c783-4c67-b9d8-a15583463a05" data-name="&amp;lt;Layer&amp;gt;" xmlns="http://www.w3.org/2000/svg" viewBox="0 0 451.11 451.11">
  <defs>
    <style>
      .uuid-7ba54e60-e8cd-4994-ad5c-2977a74021e7, .uuid-55babe65-b16a-4889-a267-966ec6c1fb7b, .uuid-e033af1e-b6e6-4b4d-b078-534e6afeb519, .uuid-42e8ef38-6fd2-4742-bf28-36919de64736 {
        fill: none;
        stroke: #000;
        stroke-linecap: round;
      }

      .uuid-7ba54e60-e8cd-4994-ad5c-2977a74021e7, .uuid-42e8ef38-6fd2-4742-bf28-36919de64736 {
        stroke-linejoin: round;
        stroke-width: 4.117px;
      }

      .uuid-55babe65-b16a-4889-a267-966ec6c1fb7b {
        stroke-width: 1.163px;
      }

      .uuid-55babe65-b16a-4889-a267-966ec6c1fb7b, .uuid-e033af1e-b6e6-4b4d-b078-534e6afeb519 {
        stroke-miterlimit: 10;
      }

      .uuid-e033af1e-b6e6-4b4d-b078-534e6afeb519 {
        stroke-width: 1.159px;
      }

      .uuid-42e8ef38-6fd2-4742-bf28-36919de64736 {
        fill-rule: evenodd;
      }
    </style>
  </defs>
  <path class="uuid-42e8ef38-6fd2-4742-bf28-36919de64736" d="M278.926,266.326c-27.128-19.405,14.338-92.377,45.02-77.708"/>
  <path class="uuid-42e8ef38-6fd2-4742-bf28-36919de64736" d="M331.592,192.772c-30.435-14.467-72.833,58.707-45.242,78.098"/>
  <polyline class="uuid-42e8ef38-6fd2-4742-bf28-36919de64736" points="115.988 101.288 108.906 107.323 111.738 121.345 99.792 130.602"/>
  <polyline class="uuid-42e8ef38-6fd2-4742-bf28-36919de64736" points="93.687 101.535 115.988 101.314 163.893 100.803"/>
  <line class="uuid-7ba54e60-e8cd-4994-ad5c-2977a74021e7" x1="123.244" y1="172.425" x2="124.219" y2="147.166"/>
  <line class="uuid-7ba54e60-e8cd-4994-ad5c-2977a74021e7" x1="140.246" y1="114.677" x2="163.941" y2="100.729"/>
  <path class="uuid-42e8ef38-6fd2-4742-bf28-36919de64736" d="M163.941,100.729c3.666-.415,7.33.096,10.795,1.733"/>
  <line class="uuid-7ba54e60-e8cd-4994-ad5c-2977a74021e7" x1="174.737" y1="102.462" x2="323.946" y2="188.619"/>
  <line class="uuid-7ba54e60-e8cd-4994-ad5c-2977a74021e7" x1="278.926" y1="266.326" x2="129.742" y2="180.167"/>
  <path class="uuid-42e8ef38-6fd2-4742-bf28-36919de64736" d="M129.742,180.167c-2.954-2.049-6.619-4.348-6.498-7.741"/>
  <line class="uuid-7ba54e60-e8cd-4994-ad5c-2977a74021e7" x1="124.219" y1="147.166" x2="272.133" y2="232.566"/>
  <line class="uuid-7ba54e60-e8cd-4994-ad5c-2977a74021e7" x1="286.35" y1="270.871" x2="278.926" y2="266.326"/>
  <line class="uuid-7ba54e60-e8cd-4994-ad5c-2977a74021e7" x1="323.946" y1="188.619" x2="331.592" y2="192.772"/>
  <path class="uuid-42e8ef38-6fd2-4742-bf28-36919de64736" d="M357.267,211.707c-1.737-3.959-4.302-6.792-7.502-8.477"/>
  <line class="uuid-7ba54e60-e8cd-4994-ad5c-2977a74021e7" x1="349.764" y1="203.229" x2="331.592" y2="192.772"/>
  <line class="uuid-7ba54e60-e8cd-4994-ad5c-2977a74021e7" x1="286.35" y1="270.871" x2="304.474" y2="281.324"/>
  <path class="uuid-42e8ef38-6fd2-4742-bf28-36919de64736" d="M304.474,281.324c3.202,2.028,7.035,2.811,11.212,2.322"/>
  <line class="uuid-7ba54e60-e8cd-4994-ad5c-2977a74021e7" x1="124.219" y1="147.166" x2="135.092" y2="135.341"/>
  <path class="uuid-42e8ef38-6fd2-4742-bf28-36919de64736" d="M135.092,135.341c.121-1.171,3.811-19.884,5.154-20.664"/>
  <line class="uuid-7ba54e60-e8cd-4994-ad5c-2977a74021e7" x1="140.246" y1="114.677" x2="289.794" y2="200.981"/>
  <line class="uuid-7ba54e60-e8cd-4994-ad5c-2977a74021e7" x1="272.133" y1="232.566" x2="124.219" y2="147.166"/>
  <line class="uuid-7ba54e60-e8cd-4994-ad5c-2977a74021e7" x1="124.293" y1="147.188" x2="106.219" y2="125.647"/>
  <polyline class="uuid-42e8ef38-6fd2-4742-bf28-36919de64736" points="88.507 110.476 99.84 130.58 123.244 172.157"/>
  <line class="uuid-7ba54e60-e8cd-4994-ad5c-2977a74021e7" x1="140.294" y1="114.653" x2="109.885" y2="112.234"/>
  <line class="uuid-7ba54e60-e8cd-4994-ad5c-2977a74021e7" x1="99.792" y1="130.602" x2="88.459" y2="110.498"/>
  <path class="uuid-42e8ef38-6fd2-4742-bf28-36919de64736" d="M88.459,110.498c-1.051-1.905-1.051-4.076.048-5.96,1.101-1.901,2.956-3.002,5.104-3.002"/>
  <path class="uuid-42e8ef38-6fd2-4742-bf28-36919de64736" d="M325.901,217.324c15.806-14.047,32.124-12.579,36.348,3.249,4.25,15.855-5.154,40.087-21.009,54.132-15.85,14.047-32.124,12.605-36.348-3.249-4.25-15.829,5.154-40.087,21.009-54.132Z"/>
  <line class="uuid-55babe65-b16a-4889-a267-966ec6c1fb7b" x1="303.033" y1="268.917" x2="279.389" y2="255.26"/>
  <line class="uuid-55babe65-b16a-4889-a267-966ec6c1fb7b" x1="303.327" y1="256.042" x2="279.684" y2="242.389"/>
  <line class="uuid-55babe65-b16a-4889-a267-966ec6c1fb7b" x1="306.333" y1="244.733" x2="282.712" y2="231.126"/>
  <line class="uuid-55babe65-b16a-4889-a267-966ec6c1fb7b" x1="311.046" y1="234.423" x2="287.473" y2="220.817"/>
  <line class="uuid-55babe65-b16a-4889-a267-966ec6c1fb7b" x1="317.253" y1="224.971" x2="293.68" y2="211.364"/>
  <line class="uuid-55babe65-b16a-4889-a267-966ec6c1fb7b" x1="325.094" y1="216.468" x2="301.448" y2="202.861"/>
  <line class="uuid-55babe65-b16a-4889-a267-966ec6c1fb7b" x1="335.305" y1="209.336" x2="311.61" y2="195.657"/>
  <line class="uuid-55babe65-b16a-4889-a267-966ec6c1fb7b" x1="363.434" y1="226.259" x2="331.021" y2="282.354"/>
  <line class="uuid-55babe65-b16a-4889-a267-966ec6c1fb7b" x1="358.783" y1="211.692" x2="317.047" y2="283.984"/>
  <line class="uuid-55babe65-b16a-4889-a267-966ec6c1fb7b" x1="347.851" y1="208.105" x2="307.893" y2="277.276"/>
  <line class="uuid-e033af1e-b6e6-4b4d-b078-534e6afeb519" x1="330.728" y1="215.058" x2="305.006" y2="259.818"/>
  <line class="uuid-55babe65-b16a-4889-a267-966ec6c1fb7b" x1="128.984" y1="177.186" x2="125.272" y2="170.836"/>
  <line class="uuid-55babe65-b16a-4889-a267-966ec6c1fb7b" x1="149.383" y1="189.965" x2="126.151" y2="149.731"/>
  <line class="uuid-55babe65-b16a-4889-a267-966ec6c1fb7b" x1="168.949" y1="201.25" x2="145.645" y2="161.016"/>
  <line class="uuid-55babe65-b16a-4889-a267-966ec6c1fb7b" x1="188.468" y1="212.539" x2="165.211" y2="172.301"/>
  <line class="uuid-55babe65-b16a-4889-a267-966ec6c1fb7b" x1="208.01" y1="223.82" x2="184.804" y2="183.589"/>
  <line class="uuid-55babe65-b16a-4889-a267-966ec6c1fb7b" x1="227.602" y1="235.107" x2="204.37" y2="194.873"/>
  <line class="uuid-55babe65-b16a-4889-a267-966ec6c1fb7b" x1="247.169" y1="246.392" x2="223.937" y2="206.184"/>
  <line class="uuid-55babe65-b16a-4889-a267-966ec6c1fb7b" x1="266.684" y1="257.703" x2="243.453" y2="217.468"/>
  <line class="uuid-55babe65-b16a-4889-a267-966ec6c1fb7b" x1="268.985" y1="239.136" x2="263.582" y2="229.78"/>
  <line class="uuid-55babe65-b16a-4889-a267-966ec6c1fb7b" x1="105.363" y1="124.179" x2="95.03" y2="118.195"/>
  <line class="uuid-55babe65-b16a-4889-a267-966ec6c1fb7b" x1="108.417" y1="112.919" x2="92.098" y2="103.463"/>
  <line class="uuid-55babe65-b16a-4889-a267-966ec6c1fb7b" x1="280.364" y1="196.585" x2="263.241" y2="226.313"/>
  <line class="uuid-55babe65-b16a-4889-a267-966ec6c1fb7b" x1="260.871" y1="185.3" x2="243.674" y2="215.026"/>
  <line class="uuid-55babe65-b16a-4889-a267-966ec6c1fb7b" x1="241.303" y1="174.011" x2="224.106" y2="203.715"/>
  <line class="uuid-55babe65-b16a-4889-a267-966ec6c1fb7b" x1="221.737" y1="162.727" x2="204.588" y2="192.43"/>
  <line class="uuid-55babe65-b16a-4889-a267-966ec6c1fb7b" x1="202.17" y1="151.442" x2="185.025" y2="181.145"/>
  <line class="uuid-55babe65-b16a-4889-a267-966ec6c1fb7b" x1="182.651" y1="140.154" x2="165.458" y2="169.862"/>
  <line class="uuid-55babe65-b16a-4889-a267-966ec6c1fb7b" x1="163.085" y1="128.87" x2="145.938" y2="158.577"/>
  <line class="uuid-55babe65-b16a-4889-a267-966ec6c1fb7b" x1="143.106" y1="118.339" x2="137.715" y2="127.552"/>
  <line class="uuid-55babe65-b16a-4889-a267-966ec6c1fb7b" x1="117.504" y1="141.817" x2="110.517" y2="145.846"/>
</svg>