<?xml version="1.0" encoding="UTF-8"?>
<svg id="uuid-395fd6cb-cf70-4368-a91a-f2fcec16a645" data-name="&amp;lt;Layer&amp;gt;" xmlns="http://www.w3.org/2000/svg" viewBox="0 0 451.11 451.11">
  <defs>
    <style>
      .uuid-4b5068a9-8ed9-4fc7-b26d-4033ec2059d7 {
        stroke-miterlimit: 10;
        stroke-width: 1.163px;
      }

      .uuid-4b5068a9-8ed9-4fc7-b26d-4033ec2059d7, .uuid-93afc292-46f1-44c8-a49e-a9e8caec5c4d {
        fill: none;
        stroke: #000;
        stroke-linecap: round;
      }

      .uuid-93afc292-46f1-44c8-a49e-a9e8caec5c4d {
        fill-rule: evenodd;
        stroke-linejoin: round;
        stroke-width: 4.113px;
      }
    </style>
  </defs>
  <path class="uuid-93afc292-46f1-44c8-a49e-a9e8caec5c4d" d="M325.448,84.218v96.296c0,6.546-4.665,14.56-10.357,17.881-25.819,14.971-51.736,29.899-77.584,44.752M228.861,198.565c6.107-10.579,12.138-20.983,19.566-33.931,0,0,16.734,9.651,18.247,10.529M266.674,175.163l28.559-49.491M295.233,125.672c4.25-7.303,10.696-3.542,6.52,3.786-14.243,24.549-20.859,36.129-35.079,60.68M266.674,190.138l-18.247-10.505M248.427,179.634c-5.57,9.648-9.919,17.293-14.338,24.844M188.163,163.485l-8.941-5.176v-10.796l8.941,5.176-.88,8.746M264.182,324.322v-20.494M264.182,303.828c0-16.391-20.226-22.33-34.152-23.552-1.221,2.422-2.443,4.839-3.664,7.161,10.924,19.688,1.568,61.802-10.501,79.584,27.408-15.829,48.317-36.716,48.317-42.699M183.156,328.792c-4.422-10.041-17.002-21.377-24.844-30.193M158.312,298.599c-7.034,9.063-16.734,15.876-24.453,24.306-6.913,7.792-12.362,15.023-13.533,25.697-.221,6.133-.051,12.458-.051,18.591s.758,7.767,7.477,11.654c21.667,12.531,49.149,7.082,73.749-4.35-14.975-14.143-11.773-30.584-18.345-45.705M158.312,298.599c1.101-1.369,4.177-4.544,4.982-5.96,1.686-2.833,1.638-3.933,1.981-7.256M218.061,299.353c5.398-5.202,9.747-14.654,14-23.254,5.74-11.748,5.445-25.185,5.519-36.006M235.602,233.67c-.706-2.663-.754-5.497-.806-8.183-.074-3.496-.121-6.77-1.928-8.405-2.908-2.663-7.502,1.392-12.899,6.156-3.64,3.249-7.647,6.74-11.995,9.257-5.593,3.227-17.271,5.18-21.326,8.576-4.007,3.419-3.834,6.179-3.76,11.038.048,4.618.269,9.137-2.517,18.934-.415-2.958-1.147-6.034-2.539-8.698-1.005-1.98-2.443-3.933-4.422-5.056-1.394-.805-2.958-1.147-4.592-.905-1.563.247-3.028,1.075-4.179,2.2-1.56,1.586-2.565,3.712-2.906,5.91-.391,2.152-.295,4.374.173,6.476.754,3.271,2.613,7.082,4.128,9.893.465.901-.173,3.345-.588,4.713,10.288,11.678,25.259,19.666,37.18,19.666,5.28-.025,11.557-2.174,15.438-5.89M152.326,210.853c-9.526,17.419-3.542,65.1,12.901,75.457M186.647,241.072c2.616-2.174,5.818-3.053,9.356-4.007M161.904,270.971c-3.544-15.707,15.17-23.085,18.467.073M196.003,237.065,196.003,237.065c3.644-.979,7.647-2.078,11.97-4.569M235.602,233.67l1.979,6.424M237.581,240.093c.511-8.477.343-18.323-.832-26.359-2.244-15.56-9.231-16.171-28.434-26.308-3.076-1.615-7.035-4.302-12.944-4.496-14.464-.437-35.958,16.414-43.046,27.923M207.609,314.597c-23.817-2.148-36.863-2.734-49.297-15.998M215.865,367.021c11.137-15.902,22.179-58.601,10.501-79.584M226.366,287.437l-.413.732M225.953,288.169c1.171,11.263-7.892,16.66-16.66,25.454M209.294,313.622l-1.685.975M230.498,300.406c-2.2,4.838-10.405,16.513-15.292,24.722M215.206,325.128l-5.449-10.653M207.388,315.454l-5.056,15.462-23.184-8.989M201.5,374.497l14.365-7.477M215.865,367.021c-.247-2.101-.295-2.491-.537-4.47-1.221-10.112-1.564-20.935-2.786-31.705-.051-.489.463-4.596,1.049-8.846M213.591,322l-4.298-8.377-1.685.975-3.544,10.872M204.065,325.469c.931,3.054,1.807,6.277,1.733,6.987-1.195,12.654-2.539,25.112-3.76,37.177-.243,1.809-.367,2.958-.537,4.864M212.59,329.966c-1.321,2.172-3.466,2.565-6.961,1.221M188.163,163.485l142.733-82.422v-10.796l-142.733,82.422M179.223,147.513l142.733-82.426,8.941,5.18M187.283,184.2v-22.764"/>
  <line class="uuid-4b5068a9-8ed9-4fc7-b26d-4033ec2059d7" x1="127.656" y1="376.551" x2="122.181" y2="367.121"/>
  <line class="uuid-4b5068a9-8ed9-4fc7-b26d-4033ec2059d7" x1="145.023" y1="384.097" x2="122.133" y2="344.473"/>
  <line class="uuid-4b5068a9-8ed9-4fc7-b26d-4033ec2059d7" x1="158.997" y1="385.708" x2="127.483" y2="331.136"/>
  <line class="uuid-4b5068a9-8ed9-4fc7-b26d-4033ec2059d7" x1="171.43" y1="384.707" x2="134.96" y2="321.462"/>
  <line class="uuid-4b5068a9-8ed9-4fc7-b26d-4033ec2059d7" x1="182.983" y1="382.165" x2="143.216" y2="313.232"/>
  <line class="uuid-4b5068a9-8ed9-4fc7-b26d-4033ec2059d7" x1="193.951" y1="378.526" x2="151.619" y2="305.219"/>
  <line class="uuid-4b5068a9-8ed9-4fc7-b26d-4033ec2059d7" x1="184.962" y1="340.394" x2="168.766" y2="312.327"/>
  <line class="uuid-4b5068a9-8ed9-4fc7-b26d-4033ec2059d7" x1="162.953" y1="279.08" x2="159.413" y2="277.053"/>
  <line class="uuid-4b5068a9-8ed9-4fc7-b26d-4033ec2059d7" x1="159.998" y1="264.352" x2="152.668" y2="260.15"/>
  <line class="uuid-4b5068a9-8ed9-4fc7-b26d-4033ec2059d7" x1="166.911" y1="255.337" x2="149.835" y2="245.47"/>
  <line class="uuid-4b5068a9-8ed9-4fc7-b26d-4033ec2059d7" x1="181.934" y1="250.941" x2="148.783" y2="231.811"/>
  <line class="uuid-4b5068a9-8ed9-4fc7-b26d-4033ec2059d7" x1="186.305" y1="240.436" x2="150.055" y2="219.526"/>
  <line class="uuid-4b5068a9-8ed9-4fc7-b26d-4033ec2059d7" x1="199.474" y1="235.035" x2="154.132" y2="208.848"/>
  <line class="uuid-4b5068a9-8ed9-4fc7-b26d-4033ec2059d7" x1="212.248" y1="229.346" x2="161.782" y2="200.228"/>
  <line class="uuid-4b5068a9-8ed9-4fc7-b26d-4033ec2059d7" x1="221.436" y1="221.627" x2="171.308" y2="192.677"/>
  <line class="uuid-4b5068a9-8ed9-4fc7-b26d-4033ec2059d7" x1="232.695" y1="215.078" x2="182.935" y2="186.352"/>
  <line class="uuid-4b5068a9-8ed9-4fc7-b26d-4033ec2059d7" x1="197.152" y1="145.335" x2="191.924" y2="142.355"/>
  <line class="uuid-4b5068a9-8ed9-4fc7-b26d-4033ec2059d7" x1="208.415" y1="138.816" x2="203.259" y2="135.835"/>
  <line class="uuid-4b5068a9-8ed9-4fc7-b26d-4033ec2059d7" x1="219.7" y1="132.318" x2="214.522" y2="129.312"/>
  <line class="uuid-4b5068a9-8ed9-4fc7-b26d-4033ec2059d7" x1="231.009" y1="125.794" x2="225.855" y2="122.792"/>
  <line class="uuid-4b5068a9-8ed9-4fc7-b26d-4033ec2059d7" x1="242.272" y1="119.27" x2="237.117" y2="116.268"/>
  <line class="uuid-4b5068a9-8ed9-4fc7-b26d-4033ec2059d7" x1="253.609" y1="112.75" x2="248.38" y2="109.77"/>
  <line class="uuid-4b5068a9-8ed9-4fc7-b26d-4033ec2059d7" x1="264.867" y1="106.253" x2="259.69" y2="103.246"/>
  <line class="uuid-4b5068a9-8ed9-4fc7-b26d-4033ec2059d7" x1="276.177" y1="99.729" x2="270.974" y2="96.727"/>
  <line class="uuid-4b5068a9-8ed9-4fc7-b26d-4033ec2059d7" x1="287.466" y1="93.206" x2="282.237" y2="90.2"/>
  <line class="uuid-4b5068a9-8ed9-4fc7-b26d-4033ec2059d7" x1="298.724" y1="86.687" x2="293.548" y2="83.705"/>
  <line class="uuid-4b5068a9-8ed9-4fc7-b26d-4033ec2059d7" x1="310.035" y1="80.163" x2="304.833" y2="77.157"/>
  <line class="uuid-4b5068a9-8ed9-4fc7-b26d-4033ec2059d7" x1="321.32" y1="73.665" x2="316.142" y2="70.659"/>
  <line class="uuid-4b5068a9-8ed9-4fc7-b26d-4033ec2059d7" x1="236.923" y1="195.83" x2="236.923" y2="188.622"/>
  <line class="uuid-4b5068a9-8ed9-4fc7-b26d-4033ec2059d7" x1="259.469" y1="183.935" x2="259.469" y2="172.989"/>
  <line class="uuid-4b5068a9-8ed9-4fc7-b26d-4033ec2059d7" x1="282.065" y1="159.699" x2="282.065" y2="152.443"/>
  <line class="uuid-4b5068a9-8ed9-4fc7-b26d-4033ec2059d7" x1="225.149" y1="358.985" x2="223.753" y2="356.49"/>
  <line class="uuid-4b5068a9-8ed9-4fc7-b26d-4033ec2059d7" x1="234.627" y1="352.73" x2="228.518" y2="342.203"/>
  <line class="uuid-4b5068a9-8ed9-4fc7-b26d-4033ec2059d7" x1="243.736" y1="346.011" x2="231.889" y2="325.495"/>
  <line class="uuid-4b5068a9-8ed9-4fc7-b26d-4033ec2059d7" x1="252.604" y1="338.759" x2="232.573" y2="304.118"/>
  <line class="uuid-4b5068a9-8ed9-4fc7-b26d-4033ec2059d7" x1="260.812" y1="330.426" x2="232.352" y2="281.108"/>
  <line class="uuid-4b5068a9-8ed9-4fc7-b26d-4033ec2059d7" x1="262.667" y1="310.984" x2="248.206" y2="286.019"/>
  <line class="uuid-4b5068a9-8ed9-4fc7-b26d-4033ec2059d7" x1="213.812" y1="364.677" x2="204.871" y2="359.522"/>
  <line class="uuid-4b5068a9-8ed9-4fc7-b26d-4033ec2059d7" x1="212.422" y1="350.828" x2="206.215" y2="347.259"/>
  <line class="uuid-4b5068a9-8ed9-4fc7-b26d-4033ec2059d7" x1="211.269" y1="337.097" x2="207.561" y2="334.995"/>
  <line class="uuid-4b5068a9-8ed9-4fc7-b26d-4033ec2059d7" x1="224.928" y1="341.814" x2="214.865" y2="336.022"/>
  <line class="uuid-4b5068a9-8ed9-4fc7-b26d-4033ec2059d7" x1="229.03" y1="318.115" x2="223.801" y2="315.087"/>
  <line class="uuid-4b5068a9-8ed9-4fc7-b26d-4033ec2059d7" x1="201.99" y1="354.515" x2="190.021" y2="347.601"/>
</svg>