<?xml version="1.0" encoding="UTF-8"?>
<svg id="uuid-1cfa5926-f2ab-4cda-a4fb-cd1a65c74431" data-name="&amp;lt;Layer&amp;gt;" xmlns="http://www.w3.org/2000/svg" viewBox="0 0 451.11 451.11">
  <defs>
    <style>
      .uuid-be80635d-f534-4766-9330-1c9351080c23, .uuid-e01f0292-3fb8-4fa2-aab2-ebdbd448bf5a, .uuid-8b056294-2f51-4ea7-ab43-e359d09a17a4 {
        fill: none;
        stroke: #000;
        stroke-linecap: round;
      }

      .uuid-be80635d-f534-4766-9330-1c9351080c23, .uuid-8b056294-2f51-4ea7-ab43-e359d09a17a4 {
        stroke-linejoin: round;
        stroke-width: 4.113px;
      }

      .uuid-e01f0292-3fb8-4fa2-aab2-ebdbd448bf5a {
        stroke-miterlimit: 10;
        stroke-width: 1.159px;
      }

      .uuid-8b056294-2f51-4ea7-ab43-e359d09a17a4 {
        fill-rule: evenodd;
      }
    </style>
  </defs>
  <path class="uuid-8b056294-2f51-4ea7-ab43-e359d09a17a4" d="M302.064,177.987v-.122c.294-3.249.342-6.52.342-9.698-.048-20.615-8.11-38.618-22.868-51.224-3.101-2.664-3.734-5.86.273-13.78"/>
  <polyline class="uuid-8b056294-2f51-4ea7-ab43-e359d09a17a4" points="279.811 103.163 285.452 93.49 285.919 92.732"/>
  <path class="uuid-8b056294-2f51-4ea7-ab43-e359d09a17a4" d="M306.825,96.154c.173.048.295.122.419.222-.54-.222-1.005-.269-1.541-.269-.685,0-1.49.221-2.296.684-.585.291-1.123.706-1.638,1.169-.511.464-1.048,1.027-1.512,1.612-.221.295-.463.588-.636.883-.221.291-.415.585-.585.88"/>
  <path class="uuid-8b056294-2f51-4ea7-ab43-e359d09a17a4" d="M293.466,111.03c-2.539,5.106-1.859,7.597.512,10.21,1.879,2.028,4.717,4.129,7.745,7.55.121.048.221.173.293.295,4.739,5.397,9.917,13.922,12.702,30.361,2.954,17.54,1.394,34.91-2.713,51.692-.363,1.39-.71,2.782-1.121,4.224"/>
  <path class="uuid-8b056294-2f51-4ea7-ab43-e359d09a17a4" d="M293.123,260.604c-1.221,2.322-1.685,4.665-1.394,6.45,0,.173.051.415.125.537,0,.169,0,.342.169.511.295.636.685,1.27,1.321,1.811-12.141-7.035-16.148-8.382-15.438-12.606"/>
  <polyline class="uuid-8b056294-2f51-4ea7-ab43-e359d09a17a4" points="271.407 159.278 272.088 157.935 277.39 148.773"/>
  <path class="uuid-8b056294-2f51-4ea7-ab43-e359d09a17a4" d="M277.39,148.773c.857-1.516,1.905-2.737,3.08-3.592.341-.32.684-.537,1.099-.71.391-.243.806-.411,1.218-.511.515-.195,1.101-.195,1.69-.074"/>
  <path class="uuid-8b056294-2f51-4ea7-ab43-e359d09a17a4" d="M271.624,136.289c-2.244-1.001-4.518.562-6.155,2.321-2.613,2.908-5.692,9.526-7.647,12.901-6.57,12.992,11.19,14.386,12.532,37.154.173,10.674-1.39,19.516-4.348,29.604"/>
  <path class="uuid-8b056294-2f51-4ea7-ab43-e359d09a17a4" d="M143.233,341.267c-31.366-21.01-31.245-72.354-24.258-105.749,3.64-17.466,15.903-53.475,25.186-66.957,5.692-8.235,9.989-2.494,21.373,4.077-.291-.169-.585-.243-.88-.291-1.023-.295-2.196,0-3.542.806-.391.169-.754.463-1.097.758-.389.411-.879.754-1.221,1.221-.463.585-.927,1.221-1.343,1.807-.221.295-.389.636-.562.978-2.908,5.397-5.593,10.796-7.963,16.219-10.335,23.158-18.982,52.203-20.276,79.905-.048,1.953-.096,3.882-.096,5.788-.199,14.632,1.906,28.703,7.083,41.113.389,1.001.805,2.053,1.269,3.028.584,1.221,1.222,2.443,1.858,3.664"/>
  <path class="uuid-8b056294-2f51-4ea7-ab43-e359d09a17a4" d="M192.65,191.789c2.101,1.173,2.222,4.812.417,8.477-16.392,32.172-16.392,65.345-.074,78.708,1.879,1.49,1.711,5.324-.343,8.868"/>
  <path class="uuid-8b056294-2f51-4ea7-ab43-e359d09a17a4" d="M187.374,297.026c-1.173,1.979-2.615,3.422-4.25,4.302-1.611.853-2.958.853-4.007.048"/>
  <polyline class="uuid-8b056294-2f51-4ea7-ab43-e359d09a17a4" points="179.117 301.375 165.949 293.776 165.533 293.534"/>
  <path class="uuid-8b056294-2f51-4ea7-ab43-e359d09a17a4" d="M165.533,293.534c-6.498-5.571-9.526-10.288-12.775-18.176-2.196-6.203-3.417-12.189-3.881-18.125"/>
  <path class="uuid-8b056294-2f51-4ea7-ab43-e359d09a17a4" d="M192.993,278.901c-16.319-13.364-16.319-46.463,0-78.635,1.879-3.665,1.711-7.304-.343-8.525"/>
  <path class="uuid-8b056294-2f51-4ea7-ab43-e359d09a17a4" d="M187.374,188.713c-1.173-.684-2.564-.516-4.176.537-1.637.979-3.032,2.539-4.081,4.565-22.694,44.094-22.694,89.677-.047,107.512,1.047.853,2.443.806,4.054,0,1.634-.88,3.029-2.322,4.199-4.35"/>
  <path class="uuid-8b056294-2f51-4ea7-ab43-e359d09a17a4" d="M171.277,325.191c-30.588-22.253-30.588-82.517.07-140.07,2.078-3.959,1.979-8.014-.243-9.283"/>
  <path class="uuid-8b056294-2f51-4ea7-ab43-e359d09a17a4" d="M165.459,172.637c-1.147-.706-2.66-.537-4.348.463-1.686,1.052-3.124,2.665-4.272,4.765-37.691,70.427-37.769,144.298-.074,171.242,1.147.832,2.613.758,4.301-.169,1.685-.931,3.123-2.443,4.344-4.522"/>
  <path class="uuid-8b056294-2f51-4ea7-ab43-e359d09a17a4" d="M271.698,245.46c16.295-32.174,16.295-65.272.052-78.637-1.859-1.559-1.737-5.397.337-8.941"/>
  <path class="uuid-8b056294-2f51-4ea7-ab43-e359d09a17a4" d="M277.39,148.725c1.147-1.979,2.543-3.443,4.18-4.327,1.612-.853,3.002-.853,4.055-.048,22.642,17.882,22.642,63.466-.052,107.486-1.049,2.101-2.439,3.664-4.077,4.665-1.615,1.023-3.005,1.221-4.18.511"/>
  <path class="uuid-8b056294-2f51-4ea7-ab43-e359d09a17a4" d="M299.035,101.335c.17-.294.365-.589.585-.88.173-.295.415-.588.636-.883.465-.633,1.001-1.149,1.512-1.612.515-.463,1.053-.879,1.638-1.169.389-.221.806-.415,1.221-.515.389-.169.732-.243,1.075-.169.319-.074.536,0,.783.047.096-.047.218,0,.339,0,.173.048.295.122.419.222.17.073.339.121.439.243,37.691,26.944,37.644,100.814-.048,171.263-1.149,2.078-2.617,3.716-4.302,4.765-1.685,1.027-3.201,1.199-4.348.515"/>
  <path class="uuid-8b056294-2f51-4ea7-ab43-e359d09a17a4" d="M293.344,269.913c-.173-.122-.269-.2-.463-.295-.391-.417-.758-.88-.858-1.516-.121-.169-.169-.343-.169-.511-.125-.173-.125-.365-.125-.537-.122-.684-.122-1.516.051-2.322,0-.342.074-.684.17-1.047.243-.98.636-2.028,1.173-3.08,8.062-15.144,13.996-30.487,17.761-45.242.411-1.442.758-2.834,1.121-4.224"/>
  <path class="uuid-8b056294-2f51-4ea7-ab43-e359d09a17a4" d="M217.446,355.506c0,.172,0,.273.07.415,0,.1.052.269.099.391"/>
  <polyline class="uuid-8b056294-2f51-4ea7-ab43-e359d09a17a4" points="221.621 361.665 221.695 361.665 221.744 361.761"/>
  <path class="uuid-8b056294-2f51-4ea7-ab43-e359d09a17a4" d="M216.856,255.037c-.047,33.391-.047,48.95-.047,86.13v9.747c0,1.686.173,3.249.636,4.592,0,.172,0,.273.07.415,0,.1.052.269.099.391.758,2.494,2.153,4.3,4.007,5.353"/>
  <path class="uuid-8b056294-2f51-4ea7-ab43-e359d09a17a4" d="M221.695,361.665c3.002,1.855,7.256,1.634,11.895-1.053,9.235-5.349,16.954-18.587,16.856-29.214,0-37.449-.243-54.108-.195-80.246"/>
  <path class="uuid-8b056294-2f51-4ea7-ab43-e359d09a17a4" d="M229.805,257.429c20.055,0,36.252-16.222,36.252-36.249s-16.197-36.301-36.252-36.301-36.275,16.267-36.275,36.301,16.27,36.249,36.275,36.249Z"/>
  <path class="uuid-8b056294-2f51-4ea7-ab43-e359d09a17a4" d="M285.919,92.732c1.633-2.318,4.591-5.397,7.715-4.25"/>
  <line class="uuid-be80635d-f534-4766-9330-1c9351080c23" x1="293.634" y1="88.482" x2="306.825" y2="96.154"/>
  <line class="uuid-be80635d-f534-4766-9330-1c9351080c23" x1="299.035" y1="101.335" x2="293.466" y2="111.03"/>
  <path class="uuid-8b056294-2f51-4ea7-ab43-e359d09a17a4" d="M257.333,244.775c.247.511.589.975,1.127,1.391"/>
  <line class="uuid-be80635d-f534-4766-9330-1c9351080c23" x1="258.46" y1="246.166" x2="272.04" y2="253.984"/>
  <line class="uuid-be80635d-f534-4766-9330-1c9351080c23" x1="284.477" y1="143.886" x2="284.524" y2="143.886"/>
  <line class="uuid-be80635d-f534-4766-9330-1c9351080c23" x1="285.209" y1="144.129" x2="271.624" y2="136.289"/>
  <line class="uuid-be80635d-f534-4766-9330-1c9351080c23" x1="156.839" y1="349.107" x2="143.233" y2="341.267"/>
  <path class="uuid-8b056294-2f51-4ea7-ab43-e359d09a17a4" d="M172.789,180.603c.367.048.71.17,1.001.269"/>
  <line class="uuid-be80635d-f534-4766-9330-1c9351080c23" x1="173.79" y1="180.871" x2="187.374" y2="188.713"/>
  <line class="uuid-be80635d-f534-4766-9330-1c9351080c23" x1="187.374" y1="188.713" x2="192.65" y2="191.789"/>
  <line class="uuid-be80635d-f534-4766-9330-1c9351080c23" x1="192.65" y1="287.842" x2="187.374" y2="297.026"/>
  <path class="uuid-8b056294-2f51-4ea7-ab43-e359d09a17a4" d="M192.602,287.842c2.101-3.592,2.198-7.426.391-8.941"/>
  <line class="uuid-be80635d-f534-4766-9330-1c9351080c23" x1="171.104" y1="175.838" x2="165.459" y2="172.637"/>
  <line class="uuid-be80635d-f534-4766-9330-1c9351080c23" x1="165.411" y1="344.416" x2="171.057" y2="334.721"/>
  <path class="uuid-8b056294-2f51-4ea7-ab43-e359d09a17a4" d="M171.057,334.721c2.196-3.838,2.321-8.014.221-9.53"/>
  <line class="uuid-be80635d-f534-4766-9330-1c9351080c23" x1="277.316" y1="257.012" x2="272.04" y2="253.984"/>
  <path class="uuid-8b056294-2f51-4ea7-ab43-e359d09a17a4" d="M272.04,253.984c-2.026-1.221-2.222-4.86-.341-8.524"/>
  <path class="uuid-8b056294-2f51-4ea7-ab43-e359d09a17a4" d="M302.016,129.085c-.073-.122-.172-.247-.293-.295"/>
  <line class="uuid-be80635d-f534-4766-9330-1c9351080c23" x1="298.985" y1="273.162" x2="293.344" y2="269.913"/>
  <line class="uuid-be80635d-f534-4766-9330-1c9351080c23" x1="216.762" y1="255.037" x2="216.762" y2="254.985"/>
  <path class="uuid-8b056294-2f51-4ea7-ab43-e359d09a17a4" d="M221.744,361.761c-16.197-9.331-12.996-7.477-12.996-41.04"/>
  <line class="uuid-be80635d-f534-4766-9330-1c9351080c23" x1="208.748" y1="320.721" x2="208.8" y2="250.688"/>
  <line class="uuid-e01f0292-3fb8-4fa2-aab2-ebdbd448bf5a" x1="292.828" y1="257.012" x2="283.719" y2="262.289"/>
  <line class="uuid-e01f0292-3fb8-4fa2-aab2-ebdbd448bf5a" x1="301.085" y1="239.23" x2="290.927" y2="245.117"/>
  <line class="uuid-e01f0292-3fb8-4fa2-aab2-ebdbd448bf5a" x1="306.877" y1="222.864" x2="297.473" y2="228.261"/>
  <line class="uuid-e01f0292-3fb8-4fa2-aab2-ebdbd448bf5a" x1="310.954" y1="207.474" x2="301.648" y2="212.823"/>
  <line class="uuid-e01f0292-3fb8-4fa2-aab2-ebdbd448bf5a" x1="313.495" y1="192.962" x2="303.87" y2="198.532"/>
  <line class="uuid-e01f0292-3fb8-4fa2-aab2-ebdbd448bf5a" x1="314.471" y1="179.381" x2="304.26" y2="185.243"/>
  <line class="uuid-e01f0292-3fb8-4fa2-aab2-ebdbd448bf5a" x1="313.96" y1="166.654" x2="304.091" y2="172.346"/>
  <line class="uuid-e01f0292-3fb8-4fa2-aab2-ebdbd448bf5a" x1="312.005" y1="154.756" x2="303.628" y2="159.569"/>
  <line class="uuid-e01f0292-3fb8-4fa2-aab2-ebdbd448bf5a" x1="308.635" y1="143.593" x2="301.354" y2="147.845"/>
  <line class="uuid-e01f0292-3fb8-4fa2-aab2-ebdbd448bf5a" x1="303.333" y1="133.676" x2="297.351" y2="137.095"/>
  <line class="uuid-e01f0292-3fb8-4fa2-aab2-ebdbd448bf5a" x1="295.371" y1="125.199" x2="291.659" y2="127.348"/>
  <line class="uuid-e01f0292-3fb8-4fa2-aab2-ebdbd448bf5a" x1="289.97" y1="115.258" x2="284.182" y2="118.627"/>
  <line class="uuid-e01f0292-3fb8-4fa2-aab2-ebdbd448bf5a" x1="301.526" y1="95.57" x2="279.127" y2="108.517"/>
  <line class="uuid-e01f0292-3fb8-4fa2-aab2-ebdbd448bf5a" x1="268.718" y1="247.829" x2="267.032" y2="248.756"/>
  <line class="uuid-e01f0292-3fb8-4fa2-aab2-ebdbd448bf5a" x1="276.095" y1="230.459" x2="264.2" y2="237.324"/>
  <line class="uuid-e01f0292-3fb8-4fa2-aab2-ebdbd448bf5a" x1="280.639" y1="214.851" x2="267.669" y2="222.275"/>
  <line class="uuid-e01f0292-3fb8-4fa2-aab2-ebdbd448bf5a" x1="282.203" y1="200.928" x2="270.355" y2="207.767"/>
  <line class="uuid-e01f0292-3fb8-4fa2-aab2-ebdbd448bf5a" x1="281.275" y1="188.37" x2="272.04" y2="193.72"/>
  <line class="uuid-e01f0292-3fb8-4fa2-aab2-ebdbd448bf5a" x1="277.733" y1="177.402" x2="271.039" y2="181.236"/>
  <line class="uuid-e01f0292-3fb8-4fa2-aab2-ebdbd448bf5a" x1="270.697" y1="168.461" x2="266.642" y2="170.783"/>
  <line class="uuid-e01f0292-3fb8-4fa2-aab2-ebdbd448bf5a" x1="271.75" y1="154.808" x2="259.655" y2="161.769"/>
  <line class="uuid-e01f0292-3fb8-4fa2-aab2-ebdbd448bf5a" x1="274.825" y1="140.001" x2="262.098" y2="147.305"/>
  <line class="uuid-e01f0292-3fb8-4fa2-aab2-ebdbd448bf5a" x1="249.323" y1="300.984" x2="218.031" y2="355.215"/>
  <line class="uuid-e01f0292-3fb8-4fa2-aab2-ebdbd448bf5a" x1="249.225" y1="256.011" x2="217.811" y2="310.364"/>
  <line class="uuid-e01f0292-3fb8-4fa2-aab2-ebdbd448bf5a" x1="221.744" y1="258.404" x2="218.789" y2="263.562"/>
  <line class="uuid-e01f0292-3fb8-4fa2-aab2-ebdbd448bf5a" x1="214.903" y1="342.388" x2="210.485" y2="334.721"/>
  <line class="uuid-e01f0292-3fb8-4fa2-aab2-ebdbd448bf5a" x1="214.903" y1="319.794" x2="210.653" y2="312.464"/>
  <line class="uuid-e01f0292-3fb8-4fa2-aab2-ebdbd448bf5a" x1="214.903" y1="297.198" x2="210.653" y2="289.942"/>
  <line class="uuid-e01f0292-3fb8-4fa2-aab2-ebdbd448bf5a" x1="214.903" y1="274.674" x2="210.653" y2="267.348"/>
  <line class="uuid-e01f0292-3fb8-4fa2-aab2-ebdbd448bf5a" x1="167.561" y1="290.528" x2="166.123" y2="291.382"/>
  <line class="uuid-e01f0292-3fb8-4fa2-aab2-ebdbd448bf5a" x1="163.263" y1="279.949" x2="158.498" y2="282.735"/>
  <line class="uuid-e01f0292-3fb8-4fa2-aab2-ebdbd448bf5a" x1="160.941" y1="268.275" x2="153.685" y2="272.525"/>
  <line class="uuid-e01f0292-3fb8-4fa2-aab2-ebdbd448bf5a" x1="160.357" y1="255.622" x2="151.026" y2="261.019"/>
  <line class="uuid-e01f0292-3fb8-4fa2-aab2-ebdbd448bf5a" x1="161.456" y1="241.916" x2="151.784" y2="247.56"/>
  <line class="uuid-e01f0292-3fb8-4fa2-aab2-ebdbd448bf5a" x1="164.386" y1="227.236" x2="154.738" y2="232.806"/>
  <line class="uuid-e01f0292-3fb8-4fa2-aab2-ebdbd448bf5a" x1="169.418" y1="211.259" x2="159.378" y2="217.073"/>
  <line class="uuid-e01f0292-3fb8-4fa2-aab2-ebdbd448bf5a" x1="177.039" y1="193.815" x2="165.949" y2="200.218"/>
  <line class="uuid-e01f0292-3fb8-4fa2-aab2-ebdbd448bf5a" x1="137.663" y1="329.713" x2="134.976" y2="331.273"/>
  <line class="uuid-e01f0292-3fb8-4fa2-aab2-ebdbd448bf5a" x1="132.948" y1="319.378" x2="128.306" y2="322.112"/>
  <line class="uuid-e01f0292-3fb8-4fa2-aab2-ebdbd448bf5a" x1="129.649" y1="308.288" x2="123.493" y2="311.832"/>
  <line class="uuid-e01f0292-3fb8-4fa2-aab2-ebdbd448bf5a" x1="127.6" y1="296.44" x2="120.123" y2="300.786"/>
  <line class="uuid-e01f0292-3fb8-4fa2-aab2-ebdbd448bf5a" x1="126.863" y1="283.835" x2="117.973" y2="288.964"/>
  <line class="uuid-e01f0292-3fb8-4fa2-aab2-ebdbd448bf5a" x1="127.084" y1="270.667" x2="116.995" y2="276.531"/>
  <line class="uuid-e01f0292-3fb8-4fa2-aab2-ebdbd448bf5a" x1="128.478" y1="256.843" x2="117.047" y2="263.389"/>
  <line class="uuid-e01f0292-3fb8-4fa2-aab2-ebdbd448bf5a" x1="131.091" y1="242.332" x2="118.268" y2="249.709"/>
  <line class="uuid-e01f0292-3fb8-4fa2-aab2-ebdbd448bf5a" x1="134.925" y1="226.992" x2="120.638" y2="235.246"/>
  <line class="uuid-e01f0292-3fb8-4fa2-aab2-ebdbd448bf5a" x1="140.204" y1="210.918" x2="124.714" y2="219.906"/>
  <line class="uuid-e01f0292-3fb8-4fa2-aab2-ebdbd448bf5a" x1="147.115" y1="193.893" x2="129.942" y2="203.808"/>
  <line class="uuid-e01f0292-3fb8-4fa2-aab2-ebdbd448bf5a" x1="156.18" y1="175.665" x2="136.367" y2="187.101"/>
  <line class="uuid-e01f0292-3fb8-4fa2-aab2-ebdbd448bf5a" x1="149.341" y1="166.53" x2="147.482" y2="167.655"/>
</svg>