<?xml version="1.0" encoding="UTF-8"?>
<svg id="uuid-20cd3889-3cca-4901-8440-9876e35d2402" data-name="&amp;lt;Layer&amp;gt;" xmlns="http://www.w3.org/2000/svg" viewBox="0 0 451.11 451.11">
  <defs>
    <style>
      .uuid-0a040dd1-a51e-4d57-b98f-a05838a88b77, .uuid-9fbfae04-f469-4966-aea3-deca554ff234, .uuid-d47277a0-7ae2-4cd7-a8c1-774582ba4a99 {
        fill: none;
        stroke: #000;
        stroke-linecap: round;
      }

      .uuid-0a040dd1-a51e-4d57-b98f-a05838a88b77, .uuid-d47277a0-7ae2-4cd7-a8c1-774582ba4a99 {
        stroke-linejoin: round;
        stroke-width: 4.113px;
      }

      .uuid-9fbfae04-f469-4966-aea3-deca554ff234 {
        stroke-miterlimit: 10;
        stroke-width: 1.163px;
      }

      .uuid-d47277a0-7ae2-4cd7-a8c1-774582ba4a99 {
        fill-rule: evenodd;
      }
    </style>
  </defs>
  <g>
    <path class="uuid-d47277a0-7ae2-4cd7-a8c1-774582ba4a99" d="M196.069,239.236c-7.001,18.982-9.783,53.624,10.92,65.611,21.547,12.362,56.405-7.719,77.925-44.995,21.547-37.276,21.547-77.583,0-89.968-16.66-9.577-41.235.243-61.36,22.375"/>
    <line class="uuid-0a040dd1-a51e-4d57-b98f-a05838a88b77" x1="341.784" y1="164.019" x2="316.525" y2="149.463"/>
    <line class="uuid-0a040dd1-a51e-4d57-b98f-a05838a88b77" x1="137.469" y1="212.193" x2="178.313" y2="235.742"/>
    <line class="uuid-0a040dd1-a51e-4d57-b98f-a05838a88b77" x1="109.325" y1="287.112" x2="150.144" y2="310.661"/>
    <path class="uuid-d47277a0-7ae2-4cd7-a8c1-774582ba4a99" d="M222.675,193.189c-5.692,6.325-10.968,13.581-15.685,21.642-4.639,8.088-8.303,16.318-10.92,24.405"/>
    <polyline class="uuid-d47277a0-7ae2-4cd7-a8c1-774582ba4a99" points="324.708 257.409 313.618 238.942 318.677 221.866 341.784 200.028"/>
    <path class="uuid-d47277a0-7ae2-4cd7-a8c1-774582ba4a99" d="M302.701,295.494c7.374-12.653,14.68-25.358,22.006-38.085"/>
    <polyline class="uuid-d47277a0-7ae2-4cd7-a8c1-774582ba4a99" points="261.589 338.999 268.965 308.048 281.203 295.152 302.701 295.494"/>
    <path class="uuid-d47277a0-7ae2-4cd7-a8c1-774582ba4a99" d="M230.391,357.002c10.409-5.982,20.791-12.017,31.198-18.003"/>
    <polyline class="uuid-d47277a0-7ae2-4cd7-a8c1-774582ba4a99" points="189.23 361.057 205.136 342.42 210.776 335.798 223.013 334.576 230.391 357.002"/>
    <path class="uuid-d47277a0-7ae2-4cd7-a8c1-774582ba4a99" d="M167.22,348.33c7.307,4.25,14.685,8.477,22.01,12.727"/>
    <polyline class="uuid-d47277a0-7ae2-4cd7-a8c1-774582ba4a99" points="167.22 217.274 178.313 235.742 173.254 252.817 150.144 274.658 150.144 310.661 173.254 305.852 178.313 317.037 167.22 348.33"/>
    <path class="uuid-d47277a0-7ae2-4cd7-a8c1-774582ba4a99" d="M189.23,179.189c-7.378,12.657-14.704,25.38-22.01,38.085"/>
    <polyline class="uuid-d47277a0-7ae2-4cd7-a8c1-774582ba4a99" points="230.391 135.684 223.013 166.635 210.776 179.534 189.23 179.189"/>
    <path class="uuid-d47277a0-7ae2-4cd7-a8c1-774582ba4a99" d="M261.589,117.681c-10.406,6.06-20.789,12.021-31.198,18.003"/>
    <polyline class="uuid-d47277a0-7ae2-4cd7-a8c1-774582ba4a99" points="302.701 113.626 281.155 138.885 268.965 140.106 265.592 129.892 261.589 117.681"/>
    <path class="uuid-d47277a0-7ae2-4cd7-a8c1-774582ba4a99" d="M324.708,126.354c-7.326-4.253-14.632-8.503-22.006-12.728"/>
    <polyline class="uuid-d47277a0-7ae2-4cd7-a8c1-774582ba4a99" points="341.784 200.028 341.784 164.019 318.677 168.832 313.618 157.646 316.525 149.463 324.708 126.354"/>
    <line class="uuid-0a040dd1-a51e-4d57-b98f-a05838a88b77" x1="230.391" y1="357.002" x2="205.136" y2="342.42"/>
    <polyline class="uuid-d47277a0-7ae2-4cd7-a8c1-774582ba4a99" points="134.587 301.723 126.379 324.782 167.22 348.33"/>
    <path class="uuid-d47277a0-7ae2-4cd7-a8c1-774582ba4a99" d="M109.325,251.08v36.01"/>
    <line class="uuid-0a040dd1-a51e-4d57-b98f-a05838a88b77" x1="150.144" y1="274.658" x2="109.325" y2="251.08"/>
    <polyline class="uuid-d47277a0-7ae2-4cd7-a8c1-774582ba4a99" points="173.181 252.817 132.361 229.244 109.325 251.106"/>
    <polyline class="uuid-d47277a0-7ae2-4cd7-a8c1-774582ba4a99" points="167.15 217.3 126.379 193.723 137.469 212.193 132.361 229.244"/>
    <polyline class="uuid-d47277a0-7ae2-4cd7-a8c1-774582ba4a99" points="167.15 217.3 189.16 179.167 148.411 155.593 126.379 193.723"/>
    <polyline class="uuid-d47277a0-7ae2-4cd7-a8c1-774582ba4a99" points="210.703 179.558 169.884 155.983 148.411 155.593"/>
    <polyline class="uuid-d47277a0-7ae2-4cd7-a8c1-774582ba4a99" points="222.965 166.635 182.147 143.062 169.884 155.983"/>
    <polyline class="uuid-d47277a0-7ae2-4cd7-a8c1-774582ba4a99" points="230.343 135.71 189.498 112.136 182.147 143.062"/>
    <polyline class="uuid-d47277a0-7ae2-4cd7-a8c1-774582ba4a99" points="230.343 135.71 261.515 117.703 220.695 94.134 189.498 112.136"/>
    <line class="uuid-0a040dd1-a51e-4d57-b98f-a05838a88b77" x1="281.155" y1="138.885" x2="265.592" y2="129.892"/>
    <polyline class="uuid-d47277a0-7ae2-4cd7-a8c1-774582ba4a99" points="246.024 108.688 261.879 90.053 302.701 113.626"/>
    <path class="uuid-d47277a0-7ae2-4cd7-a8c1-774582ba4a99" d="M252.353,185.885c-23.089,9.556-41.139,36.905-46.415,60.556-4.346,18.982-.854,35.59,10.457,42.14,16.317,9.426,42.798-5.84,59.164-34.126,5.71-10.833,8.305-17.209,11.042-29.071,1.993-10.328,1.935-22.596-3.592-31.904-8.134-11.579-18.316-11.999-30.656-7.595Z"/>
    <path class="uuid-d47277a0-7ae2-4cd7-a8c1-774582ba4a99" d="M232.028,261.464c-7.667-4.398-7.667-18.809,0-32.174,7.719-13.285,20.203-20.541,27.872-16.096,2.329,1.221,4.518,4.514,5.058,7.108.776,2.665.858,5.7.585,8.431-.71,8.808-6.373,19.953-12.897,26.16-2.656,3.131-8.142,6.542-12.093,7.45-2.697.788-6.097.629-8.525-.879Z"/>
  </g>
  <line class="uuid-9fbfae04-f469-4966-aea3-deca554ff234" x1="254.502" y1="114.87" x2="225.53" y2="131.578"/>
  <line class="uuid-9fbfae04-f469-4966-aea3-deca554ff234" x1="243.169" y1="108.351" x2="214.245" y2="125.058"/>
  <line class="uuid-9fbfae04-f469-4966-aea3-deca554ff234" x1="231.907" y1="101.827" x2="202.936" y2="118.535"/>
  <line class="uuid-9fbfae04-f469-4966-aea3-deca554ff234" x1="224.309" y1="153.713" x2="214.197" y2="159.527"/>
  <line class="uuid-9fbfae04-f469-4966-aea3-deca554ff234" x1="228.416" y1="138.297" x2="202.398" y2="153.298"/>
  <line class="uuid-9fbfae04-f469-4966-aea3-deca554ff234" x1="219.253" y1="130.556" x2="191.088" y2="146.848"/>
  <line class="uuid-9fbfae04-f469-4966-aea3-deca554ff234" x1="207.748" y1="124.13" x2="185.101" y2="137.222"/>
  <line class="uuid-9fbfae04-f469-4966-aea3-deca554ff234" x1="195.949" y1="117.923" x2="189.23" y2="121.81"/>
  <line class="uuid-9fbfae04-f469-4966-aea3-deca554ff234" x1="218.838" y1="168.269" x2="206.696" y2="175.26"/>
  <line class="uuid-9fbfae04-f469-4966-aea3-deca554ff234" x1="209.48" y1="160.626" x2="195.311" y2="168.784"/>
  <line class="uuid-9fbfae04-f469-4966-aea3-deca554ff234" x1="198.171" y1="154.103" x2="184.053" y2="162.26"/>
  <line class="uuid-9fbfae04-f469-4966-aea3-deca554ff234" x1="186.886" y1="147.605" x2="172.912" y2="155.667"/>
  <line class="uuid-9fbfae04-f469-4966-aea3-deca554ff234" x1="190.382" y1="358.051" x2="174.769" y2="330.985"/>
  <line class="uuid-9fbfae04-f469-4966-aea3-deca554ff234" x1="160.821" y1="306.875" x2="151.954" y2="291.461"/>
  <line class="uuid-9fbfae04-f469-4966-aea3-deca554ff234" x1="206.869" y1="341.516" x2="161.454" y2="262.832"/>
  <line class="uuid-9fbfae04-f469-4966-aea3-deca554ff234" x1="238.82" y1="351.652" x2="213.904" y2="308.463"/>
  <line class="uuid-9fbfae04-f469-4966-aea3-deca554ff234" x1="189.403" y1="266.033" x2="177.213" y2="244.877"/>
  <line class="uuid-9fbfae04-f469-4966-aea3-deca554ff234" x1="258.214" y1="340.073" x2="238.235" y2="305.509"/>
  <line class="uuid-9fbfae04-f469-4966-aea3-deca554ff234" x1="196.827" y1="233.787" x2="177.849" y2="200.856"/>
  <line class="uuid-9fbfae04-f469-4966-aea3-deca554ff234" x1="266.865" y1="309.859" x2="257.923" y2="294.394"/>
  <line class="uuid-9fbfae04-f469-4966-aea3-deca554ff234" x1="208.969" y1="209.576" x2="192.063" y2="180.336"/>
  <line class="uuid-9fbfae04-f469-4966-aea3-deca554ff234" x1="283.525" y1="293.636" x2="274.41" y2="277.807"/>
  <line class="uuid-9fbfae04-f469-4966-aea3-deca554ff234" x1="223.651" y1="189.892" x2="215.883" y2="176.455"/>
  <line class="uuid-9fbfae04-f469-4966-aea3-deca554ff234" x1="306.119" y1="287.602" x2="288.116" y2="256.36"/>
  <line class="uuid-9fbfae04-f469-4966-aea3-deca554ff234" x1="241.263" y1="175.208" x2="228.025" y2="152.249"/>
  <line class="uuid-9fbfae04-f469-4966-aea3-deca554ff234" x1="319.237" y1="265.154" x2="298.817" y2="229.707"/>
  <line class="uuid-9fbfae04-f469-4966-aea3-deca554ff234" x1="262.173" y1="166.34" x2="241.311" y2="130.187"/>
  <line class="uuid-9fbfae04-f469-4966-aea3-deca554ff234" x1="319.311" y1="220.107" x2="300.133" y2="186.96"/>
  <line class="uuid-9fbfae04-f469-4966-aea3-deca554ff234" x1="292.536" y1="173.718" x2="273.363" y2="140.571"/>
  <line class="uuid-9fbfae04-f469-4966-aea3-deca554ff234" x1="337.07" y1="205.695" x2="291.071" y2="126.059"/>
  <line class="uuid-9fbfae04-f469-4966-aea3-deca554ff234" x1="320.753" y1="132.266" x2="315.476" y2="123.13"/>
  <line class="uuid-9fbfae04-f469-4966-aea3-deca554ff234" x1="223.723" y1="342.322" x2="216.174" y2="346.67"/>
  <line class="uuid-9fbfae04-f469-4966-aea3-deca554ff234" x1="299.254" y1="112.821" x2="268.722" y2="130.456"/>
  <line class="uuid-9fbfae04-f469-4966-aea3-deca554ff234" x1="287.774" y1="106.418" x2="263.737" y2="120.319"/>
  <line class="uuid-9fbfae04-f469-4966-aea3-deca554ff234" x1="276.39" y1="99.972" x2="255.017" y2="112.306"/>
  <line class="uuid-9fbfae04-f469-4966-aea3-deca554ff234" x1="264.591" y1="93.739" x2="258.214" y2="97.429"/>
  <line class="uuid-9fbfae04-f469-4966-aea3-deca554ff234" x1="196.949" y1="173.696" x2="190.841" y2="177.235"/>
  <line class="uuid-9fbfae04-f469-4966-aea3-deca554ff234" x1="185.691" y1="167.172" x2="178.946" y2="171.079"/>
  <line class="uuid-9fbfae04-f469-4966-aea3-deca554ff234" x1="174.402" y1="160.648" x2="167.614" y2="164.559"/>
  <line class="uuid-9fbfae04-f469-4966-aea3-deca554ff234" x1="156.766" y1="157.79" x2="156.594" y2="157.911"/>
  <line class="uuid-9fbfae04-f469-4966-aea3-deca554ff234" x1="178.188" y1="195.044" x2="154.74" y2="208.576"/>
  <line class="uuid-9fbfae04-f469-4966-aea3-deca554ff234" x1="185.565" y1="177.773" x2="142.818" y2="202.421"/>
  <line class="uuid-9fbfae04-f469-4966-aea3-deca554ff234" x1="174.233" y1="171.253" x2="131.555" y2="195.897"/>
  <line class="uuid-9fbfae04-f469-4966-aea3-deca554ff234" x1="162.459" y1="165.046" x2="135.979" y2="180.314"/>
  <line class="uuid-9fbfae04-f469-4966-aea3-deca554ff234" x1="150.364" y1="158.99" x2="148.046" y2="160.307"/>
  <line class="uuid-9fbfae04-f469-4966-aea3-deca554ff234" x1="168.151" y1="251.18" x2="139.985" y2="267.45"/>
  <line class="uuid-9fbfae04-f469-4966-aea3-deca554ff234" x1="156.862" y1="244.656" x2="128.723" y2="260.927"/>
  <line class="uuid-9fbfae04-f469-4966-aea3-deca554ff234" x1="145.625" y1="238.136" x2="117.438" y2="254.429"/>
  <line class="uuid-9fbfae04-f469-4966-aea3-deca554ff234" x1="133.488" y1="232.102" x2="130.75" y2="233.688"/>
  <line class="uuid-9fbfae04-f469-4966-aea3-deca554ff234" x1="148.511" y1="294.489" x2="137.03" y2="301.135"/>
  <line class="uuid-9fbfae04-f469-4966-aea3-deca554ff234" x1="148.852" y1="281.251" x2="125.352" y2="294.832"/>
  <line class="uuid-9fbfae04-f469-4966-aea3-deca554ff234" x1="142.818" y1="271.7" x2="113.92" y2="288.408"/>
  <line class="uuid-9fbfae04-f469-4966-aea3-deca554ff234" x1="131.262" y1="265.323" x2="110.719" y2="277.196"/>
  <line class="uuid-9fbfae04-f469-4966-aea3-deca554ff234" x1="119.586" y1="259.046" x2="111.109" y2="263.933"/>
  <line class="uuid-9fbfae04-f469-4966-aea3-deca554ff234" x1="168.54" y1="339.047" x2="161.701" y2="343.006"/>
  <line class="uuid-9fbfae04-f469-4966-aea3-deca554ff234" x1="174.943" y1="322.317" x2="149.805" y2="336.825"/>
  <line class="uuid-9fbfae04-f469-4966-aea3-deca554ff234" x1="174.233" y1="309.685" x2="138.175" y2="330.522"/>
  <line class="uuid-9fbfae04-f469-4966-aea3-deca554ff234" x1="148.679" y1="311.419" x2="128.723" y2="322.901"/>
  <line class="uuid-9fbfae04-f469-4966-aea3-deca554ff234" x1="136.785" y1="305.24" x2="135.147" y2="306.193"/>
  <line class="uuid-9fbfae04-f469-4966-aea3-deca554ff234" x1="167.904" y1="222.061" x2="163.217" y2="224.798"/>
  <line class="uuid-9fbfae04-f469-4966-aea3-deca554ff234" x1="158.625" y1="214.415" x2="151.832" y2="218.3"/>
  <line class="uuid-9fbfae04-f469-4966-aea3-deca554ff234" x1="147.288" y1="207.896" x2="140.57" y2="211.803"/>
  <line class="uuid-9fbfae04-f469-4966-aea3-deca554ff234" x1="135.857" y1="201.468" x2="134.072" y2="202.521"/>
  <line class="uuid-9fbfae04-f469-4966-aea3-deca554ff234" x1="175.455" y1="239.258" x2="164.317" y2="245.709"/>
  <line class="uuid-9fbfae04-f469-4966-aea3-deca554ff234" x1="167.098" y1="231.075" x2="152.929" y2="239.236"/>
  <line class="uuid-9fbfae04-f469-4966-aea3-deca554ff234" x1="155.787" y1="224.551" x2="141.67" y2="232.713"/>
  <line class="uuid-9fbfae04-f469-4966-aea3-deca554ff234" x1="144.334" y1="218.154" x2="136.32" y2="222.771"/>
  <line class="uuid-9fbfae04-f469-4966-aea3-deca554ff234" x1="329.693" y1="158.964" x2="318.894" y2="165.193"/>
  <line class="uuid-9fbfae04-f469-4966-aea3-deca554ff234" x1="318.015" y1="152.638" x2="317.456" y2="152.955"/>
  <line class="uuid-9fbfae04-f469-4966-aea3-deca554ff234" x1="226.803" y1="290.46" x2="205.89" y2="254.233"/>
  <line class="uuid-9fbfae04-f469-4966-aea3-deca554ff234" x1="248.346" y1="282.594" x2="237.72" y2="264.224"/>
  <line class="uuid-9fbfae04-f469-4966-aea3-deca554ff234" x1="225.239" y1="242.655" x2="215.294" y2="225.457"/>
  <line class="uuid-9fbfae04-f469-4966-aea3-deca554ff234" x1="265.227" y1="266.765" x2="256.944" y2="252.427"/>
  <line class="uuid-9fbfae04-f469-4966-aea3-deca554ff234" x1="237.772" y1="219.18" x2="229.463" y2="204.791"/>
  <line class="uuid-9fbfae04-f469-4966-aea3-deca554ff234" x1="278.834" y1="245.072" x2="267.376" y2="225.284"/>
  <line class="uuid-9fbfae04-f469-4966-aea3-deca554ff234" x1="259.192" y1="211.141" x2="246.955" y2="189.914"/>
  <line class="uuid-9fbfae04-f469-4966-aea3-deca554ff234" x1="286.306" y1="212.925" x2="270.407" y2="185.37"/>
  <line class="uuid-9fbfae04-f469-4966-aea3-deca554ff234" x1="245.856" y1="258.531" x2="227.778" y2="248.104"/>
  <line class="uuid-9fbfae04-f469-4966-aea3-deca554ff234" x1="254.892" y1="250.717" x2="229.978" y2="236.326"/>
  <line class="uuid-9fbfae04-f469-4966-aea3-deca554ff234" x1="260.879" y1="241.139" x2="235.277" y2="226.336"/>
  <line class="uuid-9fbfae04-f469-4966-aea3-deca554ff234" x1="264.005" y1="229.928" x2="243.413" y2="217.981"/>
</svg>