<?xml version="1.0" encoding="UTF-8"?>
<svg id="uuid-ca34649f-c6f7-492f-ace4-32724e8087b6" data-name="&amp;lt;Layer&amp;gt;" xmlns="http://www.w3.org/2000/svg" viewBox="0 0 451.11 451.11">
  <defs>
    <style>
      .uuid-0d9de49e-abb3-4c23-a521-87c59af442e6, .uuid-39ebd387-2628-4a21-bd22-ccb79723f820, .uuid-fed4158b-79e0-4488-a517-4ee06d30cbb1 {
        fill: none;
        stroke: #000;
        stroke-linecap: round;
      }

      .uuid-0d9de49e-abb3-4c23-a521-87c59af442e6, .uuid-fed4158b-79e0-4488-a517-4ee06d30cbb1 {
        stroke-linejoin: round;
        stroke-width: 4.113px;
      }

      .uuid-39ebd387-2628-4a21-bd22-ccb79723f820 {
        stroke-miterlimit: 10;
        stroke-width: 1.163px;
      }

      .uuid-fed4158b-79e0-4488-a517-4ee06d30cbb1 {
        fill-rule: evenodd;
      }
    </style>
  </defs>
  <path class="uuid-fed4158b-79e0-4488-a517-4ee06d30cbb1" d="M144.429,293.916l-31.831,18.346M338.511,257.568l-32.662-18.857"/>
  <polyline class="uuid-fed4158b-79e0-4488-a517-4ee06d30cbb1" points="178.166 371.013 112.598 333.149 112.598 312.262 178.166 350.126"/>
  <polygon class="uuid-fed4158b-79e0-4488-a517-4ee06d30cbb1" points="178.166 350.126 338.511 257.546 338.511 278.455 178.166 371.013 178.166 350.126"/>
  <polyline class="uuid-fed4158b-79e0-4488-a517-4ee06d30cbb1" points="263.247 125.46 227.24 104.649 269.793 80.096 305.799 100.885"/>
  <polyline class="uuid-fed4158b-79e0-4488-a517-4ee06d30cbb1" points="263.295 178.299 229.559 158.854 227.288 160.175 186.984 183.403 222.987 204.194"/>
  <path class="uuid-fed4158b-79e0-4488-a517-4ee06d30cbb1" d="M263.295,180.985l-40.308,23.209-.048,32.294M222.939,307.99l40.308-23.258"/>
  <polygon class="uuid-fed4158b-79e0-4488-a517-4ee06d30cbb1" points="263.247 284.733 263.247 125.46 305.799 100.885 305.799 260.132 263.247 284.733"/>
  <polyline class="uuid-fed4158b-79e0-4488-a517-4ee06d30cbb1" points="222.939 236.488 186.932 215.696 144.381 240.275"/>
  <polyline class="uuid-fed4158b-79e0-4488-a517-4ee06d30cbb1" points="180.362 261.064 144.381 240.275 144.381 311.776 180.362 332.564"/>
  <polygon class="uuid-fed4158b-79e0-4488-a517-4ee06d30cbb1" points="222.939 307.99 222.939 236.488 180.362 261.064 180.362 332.564 222.939 307.99"/>
  <line class="uuid-0d9de49e-abb3-4c23-a521-87c59af442e6" x1="227.288" y1="104.671" x2="227.288" y2="160.175"/>
  <line class="uuid-0d9de49e-abb3-4c23-a521-87c59af442e6" x1="186.984" y1="183.403" x2="186.984" y2="215.696"/>
  <line class="uuid-39ebd387-2628-4a21-bd22-ccb79723f820" x1="292.439" y1="94.704" x2="282.107" y2="112.611"/>
  <line class="uuid-39ebd387-2628-4a21-bd22-ccb79723f820" x1="273.24" y1="82.834" x2="252.668" y2="118.451"/>
  <line class="uuid-39ebd387-2628-4a21-bd22-ccb79723f820" x1="236.181" y1="101.816" x2="233.686" y2="106.139"/>
  <line class="uuid-39ebd387-2628-4a21-bd22-ccb79723f820" x1="325.538" y1="251.658" x2="315.67" y2="268.757"/>
  <line class="uuid-39ebd387-2628-4a21-bd22-ccb79723f820" x1="315.744" y1="246.135" x2="307.657" y2="260.059"/>
  <line class="uuid-39ebd387-2628-4a21-bd22-ccb79723f820" x1="306.802" y1="261.575" x2="296.103" y2="280.068"/>
  <line class="uuid-39ebd387-2628-4a21-bd22-ccb79723f820" x1="287.236" y1="272.884" x2="276.537" y2="291.377"/>
  <line class="uuid-39ebd387-2628-4a21-bd22-ccb79723f820" x1="267.643" y1="284.169" x2="257.018" y2="302.662"/>
  <line class="uuid-39ebd387-2628-4a21-bd22-ccb79723f820" x1="248.077" y1="295.506" x2="237.45" y2="313.951"/>
  <line class="uuid-39ebd387-2628-4a21-bd22-ccb79723f820" x1="228.558" y1="306.743" x2="217.884" y2="325.26"/>
  <line class="uuid-39ebd387-2628-4a21-bd22-ccb79723f820" x1="208.99" y1="318.052" x2="198.317" y2="336.52"/>
  <line class="uuid-39ebd387-2628-4a21-bd22-ccb79723f820" x1="189.424" y1="329.337" x2="178.798" y2="347.83"/>
  <line class="uuid-39ebd387-2628-4a21-bd22-ccb79723f820" x1="175.206" y1="331.413" x2="168.708" y2="342.723"/>
  <line class="uuid-39ebd387-2628-4a21-bd22-ccb79723f820" x1="165.437" y1="325.773" x2="158.94" y2="337.082"/>
  <line class="uuid-39ebd387-2628-4a21-bd22-ccb79723f820" x1="155.614" y1="320.154" x2="149.12" y2="331.438"/>
  <line class="uuid-39ebd387-2628-4a21-bd22-ccb79723f820" x1="145.867" y1="314.484" x2="139.373" y2="325.795"/>
  <line class="uuid-39ebd387-2628-4a21-bd22-ccb79723f820" x1="142.791" y1="297.217" x2="129.332" y2="320.543"/>
  <line class="uuid-39ebd387-2628-4a21-bd22-ccb79723f820" x1="123.398" y1="308.306" x2="119.928" y2="314.34"/>
  <line class="uuid-39ebd387-2628-4a21-bd22-ccb79723f820" x1="189.718" y1="362.562" x2="182.241" y2="349.614"/>
  <line class="uuid-39ebd387-2628-4a21-bd22-ccb79723f820" x1="199.464" y1="356.918" x2="191.988" y2="343.971"/>
  <line class="uuid-39ebd387-2628-4a21-bd22-ccb79723f820" x1="209.237" y1="351.273" x2="201.809" y2="338.326"/>
  <line class="uuid-39ebd387-2628-4a21-bd22-ccb79723f820" x1="219.058" y1="345.633" x2="211.555" y2="332.66"/>
  <line class="uuid-39ebd387-2628-4a21-bd22-ccb79723f820" x1="228.804" y1="339.99" x2="221.306" y2="327.041"/>
  <line class="uuid-39ebd387-2628-4a21-bd22-ccb79723f820" x1="238.551" y1="334.345" x2="231.123" y2="321.397"/>
  <line class="uuid-39ebd387-2628-4a21-bd22-ccb79723f820" x1="248.37" y1="328.705" x2="240.869" y2="315.731"/>
  <line class="uuid-39ebd387-2628-4a21-bd22-ccb79723f820" x1="258.139" y1="323.06" x2="250.641" y2="310.112"/>
  <line class="uuid-39ebd387-2628-4a21-bd22-ccb79723f820" x1="267.938" y1="317.39" x2="260.439" y2="304.447"/>
  <line class="uuid-39ebd387-2628-4a21-bd22-ccb79723f820" x1="277.706" y1="311.776" x2="270.208" y2="298.803"/>
  <line class="uuid-39ebd387-2628-4a21-bd22-ccb79723f820" x1="287.457" y1="306.131" x2="279.955" y2="293.184"/>
  <line class="uuid-39ebd387-2628-4a21-bd22-ccb79723f820" x1="297.274" y1="300.462" x2="289.775" y2="287.518"/>
  <line class="uuid-39ebd387-2628-4a21-bd22-ccb79723f820" x1="307.021" y1="294.821" x2="299.522" y2="281.899"/>
  <line class="uuid-39ebd387-2628-4a21-bd22-ccb79723f820" x1="316.768" y1="289.177" x2="309.293" y2="276.255"/>
  <line class="uuid-39ebd387-2628-4a21-bd22-ccb79723f820" x1="326.591" y1="283.533" x2="319.114" y2="270.588"/>
  <line class="uuid-39ebd387-2628-4a21-bd22-ccb79723f820" x1="336.337" y1="277.892" x2="328.861" y2="264.945"/>
  <line class="uuid-39ebd387-2628-4a21-bd22-ccb79723f820" x1="176.48" y1="357.356" x2="167.318" y2="362.658"/>
  <line class="uuid-39ebd387-2628-4a21-bd22-ccb79723f820" x1="170.736" y1="347.635" x2="155.813" y2="356.256"/>
  <line class="uuid-39ebd387-2628-4a21-bd22-ccb79723f820" x1="159.451" y1="341.111" x2="144.55" y2="349.736"/>
  <line class="uuid-39ebd387-2628-4a21-bd22-ccb79723f820" x1="148.189" y1="334.587" x2="133.214" y2="343.213"/>
  <line class="uuid-39ebd387-2628-4a21-bd22-ccb79723f820" x1="136.879" y1="328.068" x2="121.956" y2="336.715"/>
  <line class="uuid-39ebd387-2628-4a21-bd22-ccb79723f820" x1="125.495" y1="321.618" x2="114.331" y2="328.068"/>
  <line class="uuid-39ebd387-2628-4a21-bd22-ccb79723f820" x1="252.084" y1="173.388" x2="241.626" y2="191.515"/>
  <line class="uuid-39ebd387-2628-4a21-bd22-ccb79723f820" x1="242.631" y1="167.184" x2="222.06" y2="202.8"/>
  <line class="uuid-39ebd387-2628-4a21-bd22-ccb79723f820" x1="232.859" y1="161.543" x2="212.313" y2="197.156"/>
  <line class="uuid-39ebd387-2628-4a21-bd22-ccb79723f820" x1="215.614" y1="168.821" x2="202.787" y2="191.074"/>
  <line class="uuid-39ebd387-2628-4a21-bd22-ccb79723f820" x1="195.7" y1="180.694" x2="193.309" y2="184.823"/>
  <line class="uuid-39ebd387-2628-4a21-bd22-ccb79723f820" x1="279.321" y1="274.18" x2="264.932" y2="249.285"/>
  <line class="uuid-39ebd387-2628-4a21-bd22-ccb79723f820" x1="299.522" y1="264.092" x2="264.226" y2="202.922"/>
  <line class="uuid-39ebd387-2628-4a21-bd22-ccb79723f820" x1="305.166" y1="228.695" x2="264.053" y2="157.462"/>
  <line class="uuid-39ebd387-2628-4a21-bd22-ccb79723f820" x1="304.993" y1="183.211" x2="269.454" y2="121.6"/>
  <line class="uuid-39ebd387-2628-4a21-bd22-ccb79723f820" x1="304.286" y1="136.87" x2="289.653" y2="111.512"/>
  <line class="uuid-39ebd387-2628-4a21-bd22-ccb79723f820" x1="229.779" y1="302.052" x2="224.918" y2="293.673"/>
  <line class="uuid-39ebd387-2628-4a21-bd22-ccb79723f820" x1="239.893" y1="297.022" x2="224.551" y2="270.516"/>
  <line class="uuid-39ebd387-2628-4a21-bd22-ccb79723f820" x1="250.005" y1="291.962" x2="224.282" y2="247.332"/>
  <line class="uuid-39ebd387-2628-4a21-bd22-ccb79723f820" x1="260.171" y1="286.907" x2="223.917" y2="224.151"/>
  <line class="uuid-39ebd387-2628-4a21-bd22-ccb79723f820" x1="262.537" y1="268.462" x2="224.627" y2="202.8"/>
  <line class="uuid-39ebd387-2628-4a21-bd22-ccb79723f820" x1="262.194" y1="245.279" x2="234.717" y2="197.744"/>
  <line class="uuid-39ebd387-2628-4a21-bd22-ccb79723f820" x1="261.831" y1="222.125" x2="244.828" y2="192.711"/>
  <line class="uuid-39ebd387-2628-4a21-bd22-ccb79723f820" x1="261.488" y1="198.94" x2="254.99" y2="187.656"/>
  <line class="uuid-39ebd387-2628-4a21-bd22-ccb79723f820" x1="221.354" y1="220.244" x2="209.796" y2="226.911"/>
  <line class="uuid-39ebd387-2628-4a21-bd22-ccb79723f820" x1="221.717" y1="206.98" x2="198.144" y2="220.635"/>
  <line class="uuid-39ebd387-2628-4a21-bd22-ccb79723f820" x1="212.24" y1="199.429" x2="188.328" y2="213.253"/>
  <line class="uuid-39ebd387-2628-4a21-bd22-ccb79723f820" x1="200.587" y1="193.128" x2="188.739" y2="199.967"/>
  <line class="uuid-39ebd387-2628-4a21-bd22-ccb79723f820" x1="262.073" y1="148.764" x2="238.377" y2="162.419"/>
  <line class="uuid-39ebd387-2628-4a21-bd22-ccb79723f820" x1="259.218" y1="124.289" x2="228.388" y2="142.12"/>
  <line class="uuid-39ebd387-2628-4a21-bd22-ccb79723f820" x1="235.886" y1="111.71" x2="229.146" y2="115.591"/>
</svg>