<?xml version="1.0" encoding="UTF-8"?>
<svg id="uuid-7905dfcb-ca77-4ca5-af6d-f68ddea9dff5" data-name="&amp;lt;Layer&amp;gt;" xmlns="http://www.w3.org/2000/svg" viewBox="0 0 451.11 451.11">
  <defs>
    <style>
      .uuid-4a5c0b13-84d2-4a0f-b1bf-e36240d2dd10 {
        stroke-miterlimit: 10;
        stroke-width: 1.163px;
      }

      .uuid-4a5c0b13-84d2-4a0f-b1bf-e36240d2dd10, .uuid-46bf7537-5570-473b-8e1c-1177dc281259 {
        fill: none;
        stroke: #000;
        stroke-linecap: round;
      }

      .uuid-46bf7537-5570-473b-8e1c-1177dc281259 {
        fill-rule: evenodd;
        stroke-linejoin: round;
        stroke-width: 4.113px;
      }
    </style>
  </defs>
  <path class="uuid-46bf7537-5570-473b-8e1c-1177dc281259" d="M225.408,218.932c-4.298,0-8.647-.754-12.36-2.296-.415-.169-.758-.341-1.173-.511-.463-.243-.975-.514-1.44-.783-4.18-2.392-6.28-5.545-6.28-8.673,0-3.149,2.1-6.277,6.28-8.694,4.103-2.395,9.574-3.566,14.972-3.566,5.449,0,10.92,1.171,15.048,3.566,4.177,2.417,6.207,5.545,6.207,8.694,0,3.128-2.03,6.281-6.207,8.673-.538.293-1.049.562-1.585.831-3.934,1.833-8.699,2.76-13.463,2.76h0ZM194.409,164.695c-14.538-4.309-33.516-14.321-36.47-30.966-.232-1.151-.369-2.689-.369-3.885,0-10.041,6.624-20.057,19.862-27.702,13.315-7.621,30.608-11.457,47.975-11.457s34.737,3.837,47.978,11.457c13.238,7.645,19.836,17.661,19.836,27.702v.927h0c-.353,12.33-10.994,22.291-20.954,27.692-13.077,7.086-29.799,10.467-46.265,10.515-11.042.034-21.962-1.43-31.595-4.282h0ZM177.433,348.918c-9.626-5.718-19.445-14.732-19.788-26.753v-15.388c2.782,43.667,93.691,47.506,124.439,20.616,6.277-5.471,10.627-12.164,11.138-20.616,0,3.688.243,14.192-.169,17.271-2.3,18.982-25.822,29.655-42.093,33.468-23.573,5.545-52.155,3.419-73.528-8.598M206.43,268.255c-10.579,1.805-20.568,5.054-28.925,9.867-.463.295-.927.589-1.39.88-2.859,1.685-5.35,3.542-7.502,5.471M168.613,284.474v.048M168.613,284.522c-7.304,6.45-10.968,13.878-10.968,21.303v.953M293.222,307.046c.074-.099.074-.221.074-.269v-.953c0-7.425-3.716-14.975-11.09-21.425M282.206,284.352c-2.152-1.906-4.643-3.664-7.428-5.397-.463-.295-.88-.537-1.343-.832-8.355-4.813-18.419-8.109-29.044-9.867M282.206,284.4v-12.944M282.206,271.456c.511-6.108-1.979-12.311-7.38-17.761M274.826,253.695l-30.484-30.778,24.744-24.968M268.795,198.17c.095-.048.217-.121.291-.221M269.086,197.949l5.449-5.519.291-.293M274.826,192.136c5.106-5.104,7.966-10.869,7.38-17.834M282.206,174.302v-7.595M168.613,166.535v7.23M168.613,173.765c-.879,7.039,2.076,13.142,7.087,18.202M175.7,191.966l1.27,1.269M176.969,193.236s0,.048.073.048M177.042,193.284l3.712,3.786M180.582,196.9c.052.048.1.122.173.17M180.754,197.07l25.676,25.847-30.73,30.951M175.7,253.868c-5.523,5.567-7.845,11.892-7.087,18.099M168.613,271.967v12.506M168.613,305.824v-21.351M282.206,284.352v19.397M193.993,278.538l-.047.048M193.946,278.586c-3.028,1.175-5.936,2.517-8.673,4.081-1.221.684-2.369,1.39-3.418,2.196-8.82,6.038-13.242,13.537-13.242,20.961,0,8.427,5.571,16.856,16.66,23.232,22.205,12.823,58.189,12.775,80.394,0,11.995-6.961,17.54-16.245,16.539-25.307-.758-6.791-5.106-13.411-13.12-18.934-1.049-.758-2.198-1.464-3.419-2.148-2.686-1.564-5.596-2.906-8.672-4.081M220.01,184.247c3.592.217,7.256.217,10.92,0,.391-.074.88-.074,1.321-.074,1.343-.051,2.734-.173,4.077-.341M177.433,172.911c-9.626-5.718-19.445-14.706-19.788-26.748M157.645,146.163v-14.622M293.222,130.771c0,3.69.243,14.221-.169,17.271-2.3,18.982-25.822,29.655-42.093,33.468-23.647,5.523-52.155,3.421-73.528-8.599M211.875,216.125l10.041,8.231v31.125l-15.486,12.775-12.484,10.331-7.278,5.986M186.668,284.572c-.928.659-1.737,1.295-2.543,1.929-5.814,4.986-8.72,10.629-8.72,16.369,0,.975.073,1.976.295,2.954,1.096,6.351,5.861,12.606,14.338,17.492,19.567,11.259,51.224,11.259,70.792,0,8.477-4.886,13.289-11.141,14.412-17.492,1.151-6.67-1.634-13.58-8.547-19.273-.588-.515-1.221-1.051-1.857-1.49M264.836,285.062l-7.841-6.476-12.605-10.331-15.56-12.775v-31.051l8.429-6.987,1.512-1.222M238.771,216.221q.048,0,.1-.048M221.917,235.74c-12.58.463-24.918,3.496-34.49,9.015-10.457,6.034-15.733,13.996-15.733,21.936,0,4.176,1.438,8.425,4.422,12.311,1.512,2.028,3.418,3.959,5.74,5.86.706.541,1.442,1.101,2.27,1.638,1.053.758,2.148,1.442,3.301,2.148,10.525,6.038,24.279,9.067,38.033,9.067s27.481-3.028,37.986-9.067c1.171-.706,2.222-1.343,3.249-2.097.88-.588,1.638-1.147,2.392-1.737,2.321-1.854,4.228-3.833,5.692-5.86,2.958-3.886,4.4-8.088,4.4-12.263,0-7.94-5.228-15.902-15.733-21.936-9.651-5.593-22.01-8.551-34.615-9.015M277.1,171.2c1.39,2.834,2.078,5.718,2.078,8.625,0,7.94-5.228,15.902-15.733,21.962-10.505,6.034-24.258,9.063-38.037,9.063-13.703,0-27.457-3.028-37.982-9.063-10.509-6.06-15.733-14.022-15.733-21.962,0-2.907.706-5.814,2.1-8.625"/>
  <line class="uuid-4a5c0b13-84d2-4a0f-b1bf-e36240d2dd10" x1="291.317" y1="308.463" x2="282.791" y2="313.397"/>
  <line class="uuid-4a5c0b13-84d2-4a0f-b1bf-e36240d2dd10" x1="236.744" y1="339.976" x2="231.909" y2="342.758"/>
  <line class="uuid-4a5c0b13-84d2-4a0f-b1bf-e36240d2dd10" x1="289.337" y1="296.567" x2="284.109" y2="299.573"/>
  <line class="uuid-4a5c0b13-84d2-4a0f-b1bf-e36240d2dd10" x1="214.196" y1="339.976" x2="210.606" y2="342.026"/>
  <line class="uuid-4a5c0b13-84d2-4a0f-b1bf-e36240d2dd10" x1="197.584" y1="336.481" x2="194.167" y2="338.483"/>
  <line class="uuid-4a5c0b13-84d2-4a0f-b1bf-e36240d2dd10" x1="184.711" y1="330.911" x2="180.854" y2="333.111"/>
  <line class="uuid-4a5c0b13-84d2-4a0f-b1bf-e36240d2dd10" x1="174.894" y1="323.559" x2="170.35" y2="326.15"/>
  <line class="uuid-4a5c0b13-84d2-4a0f-b1bf-e36240d2dd10" x1="168.491" y1="314.203" x2="162.873" y2="317.452"/>
  <line class="uuid-4a5c0b13-84d2-4a0f-b1bf-e36240d2dd10" x1="166.806" y1="302.112" x2="159.502" y2="306.336"/>
  <line class="uuid-4a5c0b13-84d2-4a0f-b1bf-e36240d2dd10" x1="167.979" y1="339.462" x2="167.979" y2="328.957"/>
  <line class="uuid-4a5c0b13-84d2-4a0f-b1bf-e36240d2dd10" x1="179.29" y1="347.917" x2="179.29" y2="336.36"/>
  <line class="uuid-4a5c0b13-84d2-4a0f-b1bf-e36240d2dd10" x1="190.575" y1="352.947" x2="190.575" y2="341.199"/>
  <line class="uuid-4a5c0b13-84d2-4a0f-b1bf-e36240d2dd10" x1="201.838" y1="356.196" x2="201.838" y2="344.3"/>
  <line class="uuid-4a5c0b13-84d2-4a0f-b1bf-e36240d2dd10" x1="213.149" y1="358.075" x2="213.149" y2="346.033"/>
  <line class="uuid-4a5c0b13-84d2-4a0f-b1bf-e36240d2dd10" x1="224.432" y1="358.759" x2="224.432" y2="346.695"/>
  <line class="uuid-4a5c0b13-84d2-4a0f-b1bf-e36240d2dd10" x1="235.743" y1="358.296" x2="235.743" y2="346.227"/>
  <line class="uuid-4a5c0b13-84d2-4a0f-b1bf-e36240d2dd10" x1="247.006" y1="356.659" x2="247.006" y2="344.69"/>
  <line class="uuid-4a5c0b13-84d2-4a0f-b1bf-e36240d2dd10" x1="258.291" y1="353.679" x2="258.291" y2="341.879"/>
  <line class="uuid-4a5c0b13-84d2-4a0f-b1bf-e36240d2dd10" x1="269.601" y1="348.965" x2="269.601" y2="337.483"/>
  <line class="uuid-4a5c0b13-84d2-4a0f-b1bf-e36240d2dd10" x1="280.863" y1="341.488" x2="280.863" y2="330.716"/>
  <line class="uuid-4a5c0b13-84d2-4a0f-b1bf-e36240d2dd10" x1="167.979" y1="163.458" x2="167.979" y2="153.002"/>
  <line class="uuid-4a5c0b13-84d2-4a0f-b1bf-e36240d2dd10" x1="179.29" y1="171.91" x2="179.29" y2="160.38"/>
  <line class="uuid-4a5c0b13-84d2-4a0f-b1bf-e36240d2dd10" x1="190.575" y1="176.94" x2="190.575" y2="165.167"/>
  <line class="uuid-4a5c0b13-84d2-4a0f-b1bf-e36240d2dd10" x1="201.838" y1="180.166" x2="201.838" y2="168.246"/>
  <line class="uuid-4a5c0b13-84d2-4a0f-b1bf-e36240d2dd10" x1="213.149" y1="182.025" x2="213.149" y2="169.978"/>
  <line class="uuid-4a5c0b13-84d2-4a0f-b1bf-e36240d2dd10" x1="224.432" y1="182.683" x2="224.432" y2="170.664"/>
  <line class="uuid-4a5c0b13-84d2-4a0f-b1bf-e36240d2dd10" x1="235.743" y1="182.194" x2="235.743" y2="170.225"/>
  <line class="uuid-4a5c0b13-84d2-4a0f-b1bf-e36240d2dd10" x1="247.006" y1="180.656" x2="247.006" y2="168.661"/>
  <line class="uuid-4a5c0b13-84d2-4a0f-b1bf-e36240d2dd10" x1="258.291" y1="177.698" x2="258.291" y2="165.877"/>
  <line class="uuid-4a5c0b13-84d2-4a0f-b1bf-e36240d2dd10" x1="269.601" y1="172.985" x2="269.601" y2="161.501"/>
  <line class="uuid-4a5c0b13-84d2-4a0f-b1bf-e36240d2dd10" x1="280.863" y1="165.486" x2="280.863" y2="154.687"/>
  <line class="uuid-4a5c0b13-84d2-4a0f-b1bf-e36240d2dd10" x1="288.314" y1="142.134" x2="248.69" y2="164.971"/>
  <line class="uuid-4a5c0b13-84d2-4a0f-b1bf-e36240d2dd10" x1="293.539" y1="126.058" x2="220.521" y2="168.22"/>
  <line class="uuid-4a5c0b13-84d2-4a0f-b1bf-e36240d2dd10" x1="289.925" y1="115.116" x2="200.907" y2="166.535"/>
  <line class="uuid-4a5c0b13-84d2-4a0f-b1bf-e36240d2dd10" x1="282.206" y1="106.539" x2="185.567" y2="162.333"/>
  <line class="uuid-4a5c0b13-84d2-4a0f-b1bf-e36240d2dd10" x1="271.334" y1="99.798" x2="173.378" y2="156.351"/>
  <line class="uuid-4a5c0b13-84d2-4a0f-b1bf-e36240d2dd10" x1="257.458" y1="94.74" x2="164.095" y2="148.653"/>
  <line class="uuid-4a5c0b13-84d2-4a0f-b1bf-e36240d2dd10" x1="239.992" y1="91.81" x2="158.455" y2="138.885"/>
  <line class="uuid-4a5c0b13-84d2-4a0f-b1bf-e36240d2dd10" x1="216.883" y1="92.105" x2="158.455" y2="125.863"/>
  <line class="uuid-4a5c0b13-84d2-4a0f-b1bf-e36240d2dd10" x1="243.584" y1="202.688" x2="233.3" y2="208.602"/>
  <line class="uuid-4a5c0b13-84d2-4a0f-b1bf-e36240d2dd10" x1="231.688" y1="196.511" x2="211.533" y2="208.159"/>
  <line class="uuid-4a5c0b13-84d2-4a0f-b1bf-e36240d2dd10" x1="242.73" y1="211.117" x2="235.228" y2="215.441"/>
  <line class="uuid-4a5c0b13-84d2-4a0f-b1bf-e36240d2dd10" x1="217.74" y1="212.461" x2="213.733" y2="214.783"/>
  <line class="uuid-4a5c0b13-84d2-4a0f-b1bf-e36240d2dd10" x1="254.209" y1="277.438" x2="221.695" y2="296.226"/>
  <line class="uuid-4a5c0b13-84d2-4a0f-b1bf-e36240d2dd10" x1="236.037" y1="261.878" x2="189.181" y2="288.944"/>
  <line class="uuid-4a5c0b13-84d2-4a0f-b1bf-e36240d2dd10" x1="226.923" y1="241.067" x2="223.896" y2="242.775"/>
  <line class="uuid-4a5c0b13-84d2-4a0f-b1bf-e36240d2dd10" x1="277.956" y1="296.91" x2="277.052" y2="298.496"/>
  <line class="uuid-4a5c0b13-84d2-4a0f-b1bf-e36240d2dd10" x1="261.708" y1="325.097" x2="258.632" y2="330.425"/>
  <line class="uuid-4a5c0b13-84d2-4a0f-b1bf-e36240d2dd10" x1="230.757" y1="333.526" x2="228.95" y2="336.651"/>
  <line class="uuid-4a5c0b13-84d2-4a0f-b1bf-e36240d2dd10" x1="205.893" y1="331.426" x2="204.204" y2="334.284"/>
  <line class="uuid-4a5c0b13-84d2-4a0f-b1bf-e36240d2dd10" x1="185.052" y1="322.338" x2="183.245" y2="325.466"/>
  <line class="uuid-4a5c0b13-84d2-4a0f-b1bf-e36240d2dd10" x1="176.115" y1="292.634" x2="171.398" y2="300.865"/>
  <line class="uuid-4a5c0b13-84d2-4a0f-b1bf-e36240d2dd10" x1="271.507" y1="290.923" x2="205.55" y2="329.03"/>
  <line class="uuid-4a5c0b13-84d2-4a0f-b1bf-e36240d2dd10" x1="213.682" y1="298.275" x2="182.44" y2="316.303"/>
</svg>