<?xml version="1.0" encoding="UTF-8"?>
<svg id="uuid-48b09ac2-1ec6-49ef-8dd6-758822a6f81b" data-name="&amp;lt;Layer&amp;gt;" xmlns="http://www.w3.org/2000/svg" viewBox="0 0 451.11 451.11">
  <defs>
    <style>
      .uuid-20148daa-eeae-49d5-b8c7-d9743c650761, .uuid-03be07c8-aead-42b7-ae81-72c5e247ea8e, .uuid-779527e2-b9cf-48de-b0f3-e0e40e9079ff, .uuid-a4e92b25-764a-4d75-a5f9-75b84bdc8022 {
        fill: none;
        stroke: #000;
        stroke-linecap: round;
      }

      .uuid-20148daa-eeae-49d5-b8c7-d9743c650761, .uuid-a4e92b25-764a-4d75-a5f9-75b84bdc8022 {
        stroke-linejoin: round;
        stroke-width: 4.117px;
      }

      .uuid-03be07c8-aead-42b7-ae81-72c5e247ea8e {
        stroke-width: 1.163px;
      }

      .uuid-03be07c8-aead-42b7-ae81-72c5e247ea8e, .uuid-779527e2-b9cf-48de-b0f3-e0e40e9079ff {
        stroke-miterlimit: 10;
      }

      .uuid-779527e2-b9cf-48de-b0f3-e0e40e9079ff {
        stroke-width: 1.159px;
      }

      .uuid-a4e92b25-764a-4d75-a5f9-75b84bdc8022 {
        fill-rule: evenodd;
      }
    </style>
  </defs>
  <path class="uuid-a4e92b25-764a-4d75-a5f9-75b84bdc8022" d="M234.847,252.542c-15.272.842-33.754-.379-48.732-3.197-20.351-3.355-47.303-12.562-63.588-24.844-7.866-5.471-16.83-13.904-21.764-22.061-3.915-7.021-6.432-11.76-7.575-20.053"/>
  <path class="uuid-a4e92b25-764a-4d75-a5f9-75b84bdc8022" d="M234.895,252.542c.173.048.295.048.417,0,11.358,0,27.039-2.377,38.159-4.934,8.521-1.869,17.021-4.382,25.181-7.473.467-.199.931-.369,1.394-.537"/>
  <path class="uuid-a4e92b25-764a-4d75-a5f9-75b84bdc8022" d="M185.356,323.848c-4.228,2.444-8.477,4.887-12.654,7.33,0,7.547.295,14.169,6.498,19.273"/>
  <path class="uuid-a4e92b25-764a-4d75-a5f9-75b84bdc8022" d="M188.678,355.921c-.247-.195-.415-.291-.584-.463-1.979-1.881-3.301-3.786-4.181-5.934"/>
  <path class="uuid-a4e92b25-764a-4d75-a5f9-75b84bdc8022" d="M197.841,340.288c.412.293.827.588,1.29.758,2.031.514,3.423.584,4.765.341.732-.169,1.443-.415,2.2-.684.417-.195.758-.343,1.223-.537.463-.169.927-.389,1.39-.684,2.248-1.516,4.176-3.08,5.862-4.765.809-.802,1.563-1.681,2.273-2.613.806-1.173,1.612-2.317,2.248-3.616.465-.68.828-1.438,1.123-2.196,1.317-3.201,2.075-6.694,2.443-10.747"/>
  <path class="uuid-a4e92b25-764a-4d75-a5f9-75b84bdc8022" d="M213.179,310.095c-.684,8.819-3.079,13.654-8.768,19.983-2.958,2.615-5.816,4.886-9.235,5.618"/>
  <path class="uuid-a4e92b25-764a-4d75-a5f9-75b84bdc8022" d="M235.311,308.288c0,31.536-32.464,57.211-46.633,47.633-.247-.195-.415-.291-.584-.463-1.737-1.343-3.202-3.323-4.181-5.934-.584-1.269-.927-2.665-1.221-4.298-.121-.515-.169-1.053-.243-1.641-.099-.511-.173-1.075-.173-1.66-.048-.953-.096-1.927-.096-2.954"/>
  <path class="uuid-a4e92b25-764a-4d75-a5f9-75b84bdc8022" d="M194.76,331.641c0,1.564.195,2.907.415,4.055.511,2.148,1.442,3.664,2.665,4.592.412.293.827.588,1.29.758,1.395.636,3.006.71,4.765.341.685-.099,1.443-.341,2.2-.684.417-.074.806-.295,1.223-.537.463-.169.927-.389,1.39-.684,2.027-1.171,4.055-2.782,5.862-4.765.809-.802,1.563-1.681,2.273-2.613.806-1.173,1.612-2.317,2.248-3.616.465-.68.828-1.438,1.123-2.196,1.49-3.323,2.443-6.961,2.443-10.747"/>
  <path class="uuid-a4e92b25-764a-4d75-a5f9-75b84bdc8022" d="M235.141,99.649c.732,0,1.564.048,2.296.048,18.923,1.593,32.691,3.297,50.956,8.82.563.169,1.147.363,1.733.584"/>
  <path class="uuid-a4e92b25-764a-4d75-a5f9-75b84bdc8022" d="M290.178,109.101c10.527,3.371,20.324,7.621,29.266,12.775,51.86,29.972,51.908,78.515.073,108.435-6.107,3.469-12.605,6.622-19.471,9.287"/>
  <path class="uuid-a4e92b25-764a-4d75-a5f9-75b84bdc8022" d="M93.188,182.336c0-.879-.269-1.693-.269-2.565-.884-8.676,1.626-19.61,6.203-27.113,5.048-10.655,19.247-22.937,29.561-28.975,20.468-13.297,47.974-20.001,72.064-22.937,3.881-.415,7.841-.758,11.796-1.001.393,0,.857-.048,1.273-.048"/>
  <path class="uuid-a4e92b25-764a-4d75-a5f9-75b84bdc8022" d="M200.747,100.746c3.881-.415,7.841-.758,11.796-1.001.393,0,.857-.048,1.273-.048"/>
  <polyline class="uuid-a4e92b25-764a-4d75-a5f9-75b84bdc8022" points="290.298 109.101 290.126 109.101 281.821 108.638 235.311 106.022"/>
  <path class="uuid-a4e92b25-764a-4d75-a5f9-75b84bdc8022" d="M213.179,102.457c0-4.861,6.74-10.894,12.069-8.915,3.149,1.806,6.277,3.638,9.478,5.471-5.814-1.929-12.069,4.176-12.069,8.893"/>
  <path class="uuid-a4e92b25-764a-4d75-a5f9-75b84bdc8022" d="M222.657,118.164c2.539-2.443,4.813-4.25,6.888-5.471,2.152-1.195,4.007-1.785,5.766-1.785"/>
  <path class="uuid-a4e92b25-764a-4d75-a5f9-75b84bdc8022" d="M182.276,341.925c-.096-1.685-.096-3.492-.096-5.302"/>
  <line class="uuid-20148daa-eeae-49d5-b8c7-d9743c650761" x1="194.76" y1="329.32" x2="185.356" y2="323.848"/>
  <line class="uuid-20148daa-eeae-49d5-b8c7-d9743c650761" x1="179.2" y1="350.45" x2="188.678" y2="355.921"/>
  <line class="uuid-20148daa-eeae-49d5-b8c7-d9743c650761" x1="222.657" y1="315.544" x2="222.657" y2="252.715"/>
  <line class="uuid-20148daa-eeae-49d5-b8c7-d9743c650761" x1="213.179" y1="252.421" x2="213.179" y2="310.095"/>
  <line class="uuid-20148daa-eeae-49d5-b8c7-d9743c650761" x1="235.311" y1="252.542" x2="235.311" y2="308.288"/>
  <line class="uuid-20148daa-eeae-49d5-b8c7-d9743c650761" x1="182.18" y1="338.971" x2="182.18" y2="336.623"/>
  <path class="uuid-a4e92b25-764a-4d75-a5f9-75b84bdc8022" d="M182.18,336.623c4.177-2.443,8.405-4.86,12.58-7.303"/>
  <line class="uuid-20148daa-eeae-49d5-b8c7-d9743c650761" x1="194.76" y1="329.32" x2="194.76" y2="331.641"/>
  <line class="uuid-20148daa-eeae-49d5-b8c7-d9743c650761" x1="213.179" y1="103.115" x2="200.747" y2="100.746"/>
  <line class="uuid-20148daa-eeae-49d5-b8c7-d9743c650761" x1="217.26" y1="113.862" x2="114.513" y2="218.22"/>
  <line class="uuid-20148daa-eeae-49d5-b8c7-d9743c650761" x1="300.045" y1="239.598" x2="229.546" y2="112.693"/>
  <line class="uuid-20148daa-eeae-49d5-b8c7-d9743c650761" x1="213.179" y1="112.693" x2="213.179" y2="102.457"/>
  <line class="uuid-20148daa-eeae-49d5-b8c7-d9743c650761" x1="222.657" y1="107.906" x2="222.657" y2="118.164"/>
  <path class="uuid-a4e92b25-764a-4d75-a5f9-75b84bdc8022" d="M222.657,118.164c-3.101-3.227-6.229-5.324-9.478-5.471"/>
  <line class="uuid-20148daa-eeae-49d5-b8c7-d9743c650761" x1="235.311" y1="110.908" x2="235.311" y2="100.577"/>
  <line class="uuid-03be07c8-aead-42b7-ae81-72c5e247ea8e" x1="269.168" y1="105.852" x2="268.753" y2="105.632"/>
  <line class="uuid-03be07c8-aead-42b7-ae81-72c5e247ea8e" x1="183.84" y1="247.582" x2="121.011" y2="211.307"/>
  <line class="uuid-03be07c8-aead-42b7-ae81-72c5e247ea8e" x1="237.385" y1="252.421" x2="137.031" y2="194.475"/>
  <line class="uuid-03be07c8-aead-42b7-ae81-72c5e247ea8e" x1="275.371" y1="248.318" x2="153.636" y2="178.01"/>
  <line class="uuid-779527e2-b9cf-48de-b0f3-e0e40e9079ff" x1="298.36" y1="235.469" x2="169.969" y2="161.356"/>
  <line class="uuid-03be07c8-aead-42b7-ae81-72c5e247ea8e" x1="275.714" y1="196.332" x2="185.599" y2="144.302"/>
  <line class="uuid-03be07c8-aead-42b7-ae81-72c5e247ea8e" x1="253.07" y1="157.177" x2="203.238" y2="128.448"/>
  <line class="uuid-779527e2-b9cf-48de-b0f3-e0e40e9079ff" x1="232.576" y1="119.301" x2="227.691" y2="116.453"/>
  <line class="uuid-03be07c8-aead-42b7-ae81-72c5e247ea8e" x1="226.006" y1="334.743" x2="189.899" y2="355.604"/>
  <line class="uuid-03be07c8-aead-42b7-ae81-72c5e247ea8e" x1="233.552" y1="304.33" x2="224.442" y2="309.584"/>
  <line class="uuid-03be07c8-aead-42b7-ae81-72c5e247ea8e" x1="233.552" y1="278.242" x2="224.442" y2="283.519"/>
  <line class="uuid-03be07c8-aead-42b7-ae81-72c5e247ea8e" x1="229.255" y1="254.643" x2="224.611" y2="257.355"/>
  <line class="uuid-03be07c8-aead-42b7-ae81-72c5e247ea8e" x1="180.371" y1="339.923" x2="174.804" y2="336.7"/>
  <line class="uuid-03be07c8-aead-42b7-ae81-72c5e247ea8e" x1="187.799" y1="331.203" x2="182.108" y2="327.903"/>
  <line class="uuid-03be07c8-aead-42b7-ae81-72c5e247ea8e" x1="214.621" y1="331.861" x2="201.162" y2="339.677"/>
  <line class="uuid-03be07c8-aead-42b7-ae81-72c5e247ea8e" x1="220.898" y1="315.25" x2="213.227" y2="319.646"/>
  <line class="uuid-03be07c8-aead-42b7-ae81-72c5e247ea8e" x1="220.85" y1="302.232" x2="215.086" y2="305.551"/>
  <line class="uuid-03be07c8-aead-42b7-ae81-72c5e247ea8e" x1="220.85" y1="289.21" x2="215.086" y2="292.507"/>
  <line class="uuid-03be07c8-aead-42b7-ae81-72c5e247ea8e" x1="220.85" y1="276.189" x2="215.086" y2="279.486"/>
  <line class="uuid-03be07c8-aead-42b7-ae81-72c5e247ea8e" x1="220.85" y1="263.121" x2="215.086" y2="266.442"/>
</svg>