<?xml version="1.0" encoding="UTF-8"?>
<svg id="uuid-e665af3a-b1b0-4ac8-8ef8-833d8f168921" data-name="&amp;lt;Layer&amp;gt;" xmlns="http://www.w3.org/2000/svg" viewBox="0 0 451.11 451.11">
  <defs>
    <style>
      .uuid-51129d32-6dc0-430c-9310-7813be68f595, .uuid-ff314be3-faff-40b9-bc31-f79616ece0af, .uuid-bd026c4e-2dd2-4e85-be97-0ab3fcc5cc07 {
        fill: none;
        stroke: #000;
        stroke-linecap: round;
      }

      .uuid-51129d32-6dc0-430c-9310-7813be68f595, .uuid-bd026c4e-2dd2-4e85-be97-0ab3fcc5cc07 {
        stroke-linejoin: round;
        stroke-width: 4.117px;
      }

      .uuid-ff314be3-faff-40b9-bc31-f79616ece0af {
        stroke-miterlimit: 10;
        stroke-width: 1.163px;
      }

      .uuid-bd026c4e-2dd2-4e85-be97-0ab3fcc5cc07 {
        fill-rule: evenodd;
      }
    </style>
  </defs>
  <path class="uuid-bd026c4e-2dd2-4e85-be97-0ab3fcc5cc07" d="M166.439,219.782c8.01,1.051,15.611,3.373,21.816,6.961,9.989,5.744,14.412,13.535,13.142,21.008"/>
  <polyline class="uuid-bd026c4e-2dd2-4e85-be97-0ab3fcc5cc07" points="201.345 247.751 201.345 262.701 201.102 263.901"/>
  <path class="uuid-bd026c4e-2dd2-4e85-be97-0ab3fcc5cc07" d="M201.102,263.901c-.632,2.686-2.1,5.176-3.712,7.326-4.813,5.985-12.826,9.945-20.103,12.141-15.855,4.813-36.644,3.959-51.449-3.786-4.346-2.248-8.768-5.445-11.601-9.578-1.295-1.733-2.322-3.929-2.906-6.103"/>
  <polyline class="uuid-bd026c4e-2dd2-4e85-be97-0ab3fcc5cc07" points="111.33 263.901 111.087 262.701 111.087 247.751"/>
  <path class="uuid-bd026c4e-2dd2-4e85-be97-0ab3fcc5cc07" d="M111.087,247.751c.195.88.364,1.638.632,2.517.88,2.617,2.517,5.108,4.372,7.135,5.279,5.812,13.584,9.599,21.009,11.626,15.464,4.129,35.203,3.08,49.49-4.374,4.765-2.487,9.578-6.082,12.411-10.722.879-1.468,1.685-3.249,2.1-4.96"/>
  <path class="uuid-bd026c4e-2dd2-4e85-be97-0ab3fcc5cc07" d="M299.937,139.464c1.101-1.321,1.807-2.274,2.226-3.249.633-1.273.733-2.565.733-4.813"/>
  <path class="uuid-bd026c4e-2dd2-4e85-be97-0ab3fcc5cc07" d="M302.897,89.411c10.283,1.857,13.874,5.154,22.889,10.331-.343-.169-.758-.339-1.151-.511-1.708-.71-3.098-1.125-4.714-1.39-.536-.126-1.099-.174-1.759-.295-.438-.074-.901-.074-1.39-.122"/>
  <path class="uuid-bd026c4e-2dd2-4e85-be97-0ab3fcc5cc07" d="M316.771,140.928c0,.515,0,.928-.052,1.269.052.173.052.391-.048.563-.073.537-.243,1.001-.536,1.538-.221.341-.511.806-.854,1.273-.369.463-.832.975-1.295,1.611"/>
  <path class="uuid-bd026c4e-2dd2-4e85-be97-0ab3fcc5cc07" d="M297.446,166.919c-.341.537-.71.88-1.001,1.221-.173.173-.341.369-.514.537-.339.295-.633.463-1.049.637"/>
  <path class="uuid-bd026c4e-2dd2-4e85-be97-0ab3fcc5cc07" d="M274.68,169.071c-.122,0-.221,0-.343-.051-.122-.048-.291-.122-.463-.17-.07,0-.122-.051-.122-.051"/>
  <path class="uuid-bd026c4e-2dd2-4e85-be97-0ab3fcc5cc07" d="M271.018,359.781c.122.169.243.291.413.485.293.343.636.636.979.81"/>
  <polyline class="uuid-bd026c4e-2dd2-4e85-be97-0ab3fcc5cc07" points="255.748 346.906 255.748 206.885 249.545 203.293"/>
  <path class="uuid-bd026c4e-2dd2-4e85-be97-0ab3fcc5cc07" d="M249.545,203.293c-7.035-4.08-10.751-10.699-12.51-18.419-5.151-23.404,7.282-51.86,22.305-70.327"/>
  <path class="uuid-bd026c4e-2dd2-4e85-be97-0ab3fcc5cc07" d="M273.236,122.558c-1.169,1.394-2.27,2.81-3.318,4.254-1.734,2.318-3.375,4.687-4.887,7.204-.806,1.199-1.564,2.421-2.274,3.712-1.023,1.807-2.026,3.592-2.88,5.449-3.908,7.915-7.378,17.661-9.111,27.529-.073.052-.073.173-.073.295-.174.684-.295,1.438-.295,2.148-.048.1-.096.243-.048.343-.125.927-.221,1.931-.295,2.858-.121.928-.169,1.859-.243,2.712-.099,1.981-.173,3.834,0,5.766.074.976.195,1.955.243,2.907.463,5.397,1.931,10.505,4.717,14.975.217.511.586.975.928,1.438,0,.074.047.074.047.074.637.931,1.343,1.785,2.101,2.615,2.785,2.539,6.887,3.882,11.068,6.62"/>
  <path class="uuid-bd026c4e-2dd2-4e85-be97-0ab3fcc5cc07" d="M268.986,213.505c.122.121.295.221.343.415.122.169.173.389.173.684.295,1.343.074,3.371.074,4.765v115.911"/>
  <path class="uuid-bd026c4e-2dd2-4e85-be97-0ab3fcc5cc07" d="M308.831,295.558c.463.295.758.537.806.636.073,0,.073.074.073.074"/>
  <polyline class="uuid-bd026c4e-2dd2-4e85-be97-0ab3fcc5cc07" points="309.88 325.239 308.416 328.66 281.593 344.122"/>
  <polygon class="uuid-bd026c4e-2dd2-4e85-be97-0ab3fcc5cc07" points="152.786 250.025 146.041 246.14 146.041 155.853 152.834 159.737 152.786 250.025"/>
  <polygon class="uuid-bd026c4e-2dd2-4e85-be97-0ab3fcc5cc07" points="145.482 156.246 138.737 152.36 142.987 102.31 149.705 106.191 145.482 156.246"/>
  <polygon class="uuid-bd026c4e-2dd2-4e85-be97-0ab3fcc5cc07" points="149.705 106.191 142.987 102.31 162.775 90.853 169.566 94.76 149.705 106.191"/>
  <polygon class="uuid-bd026c4e-2dd2-4e85-be97-0ab3fcc5cc07" points="152.786 250.025 152.834 159.737 145.482 156.246 149.705 106.191 169.566 94.76 173.743 139.927 166.439 151.896 166.365 186.439 166.365 242.185 152.786 250.025"/>
  <path class="uuid-bd026c4e-2dd2-4e85-be97-0ab3fcc5cc07" d="M319.557,186.339c0-.879.363-1.979,1.001-2.854.636-.979,1.221-1.221,2.443-3.032,5.056-7.547,9.231-15.829,12.19-24.206,3.198-8.941,5.008-18.055,5.008-26.649,0-10.458-2.686-18.641-7.282-24.164-4.054-4.886-9.625-7.671-16.196-8.01"/>
  <path class="uuid-bd026c4e-2dd2-4e85-be97-0ab3fcc5cc07" d="M316.719,140.855c0,.636.052,1.515-.121,2.222-.17.732-.512,1.615-1.149,2.295"/>
  <path class="uuid-bd026c4e-2dd2-4e85-be97-0ab3fcc5cc07" d="M273.167,122.51c-6.498,7.94-12.069,17.197-16.15,26.771-8.768,20.671-9.625,41.117-2.321,53.428,3.253,5.445,8.014,9.061,13.778,10.577.343.048.633.269.854.633.295.511.247,1.321.247,2.148v138.78"/>
  <path class="uuid-bd026c4e-2dd2-4e85-be97-0ab3fcc5cc07" d="M269.576,354.848c0,3.027,1.049,5.176,2.785,6.229,1.733.975,4.128.853,6.792-.711"/>
  <path class="uuid-bd026c4e-2dd2-4e85-be97-0ab3fcc5cc07" d="M310.737,342.142c1.343-.757,2.565-1.757,3.664-2.906,1.149-1.221,2.198-2.611,3.128-4.301.953-1.559,1.634-3.197,2.101-4.808.463-1.59.684-3.08.684-4.666-.221-43.946-.441-87.967-.684-131.938,0-2.37,0-4.813-.074-7.183"/>
  <line class="uuid-51129d32-6dc0-430c-9310-7813be68f595" x1="196.217" y1="272.499" x2="196.217" y2="331.101"/>
  <path class="uuid-bd026c4e-2dd2-4e85-be97-0ab3fcc5cc07" d="M196.217,331.101c0,39.549-80.196,39.891-80.196.293"/>
  <line class="uuid-51129d32-6dc0-430c-9310-7813be68f595" x1="116.021" y1="331.394" x2="116.021" y2="272.326"/>
  <line class="uuid-51129d32-6dc0-430c-9310-7813be68f595" x1="273.236" y1="161.522" x2="277.074" y2="161.691"/>
  <path class="uuid-bd026c4e-2dd2-4e85-be97-0ab3fcc5cc07" d="M277.074,161.691c3.223.122,4.055.199,6.203-2.366"/>
  <line class="uuid-51129d32-6dc0-430c-9310-7813be68f595" x1="283.277" y1="159.325" x2="299.937" y2="139.464"/>
  <line class="uuid-51129d32-6dc0-430c-9310-7813be68f595" x1="302.897" y1="131.402" x2="302.897" y2="89.411"/>
  <line class="uuid-51129d32-6dc0-430c-9310-7813be68f595" x1="316.771" y1="97.423" x2="316.771" y2="140.928"/>
  <line class="uuid-51129d32-6dc0-430c-9310-7813be68f595" x1="313.986" y1="147.183" x2="312.886" y2="148.527"/>
  <path class="uuid-bd026c4e-2dd2-4e85-be97-0ab3fcc5cc07" d="M312.886,148.527c-4.007,4.982-10.627,12.727-14.339,17.123"/>
  <line class="uuid-51129d32-6dc0-430c-9310-7813be68f595" x1="298.547" y1="165.65" x2="297.446" y2="166.919"/>
  <line class="uuid-51129d32-6dc0-430c-9310-7813be68f595" x1="294.883" y1="169.315" x2="294.835" y2="169.315"/>
  <path class="uuid-bd026c4e-2dd2-4e85-be97-0ab3fcc5cc07" d="M294.835,169.315c-.71.169-1.564.289-2.837.221"/>
  <line class="uuid-51129d32-6dc0-430c-9310-7813be68f595" x1="291.997" y1="169.536" x2="274.68" y2="169.071"/>
  <line class="uuid-51129d32-6dc0-430c-9310-7813be68f595" x1="296.056" y1="302.423" x2="296.056" y2="317.273"/>
  <path class="uuid-bd026c4e-2dd2-4e85-be97-0ab3fcc5cc07" d="M296.056,317.273c-.173,1.689-.931,3.201-2.395,4.129"/>
  <line class="uuid-51129d32-6dc0-430c-9310-7813be68f595" x1="293.661" y1="321.402" x2="280.077" y2="329.246"/>
  <path class="uuid-bd026c4e-2dd2-4e85-be97-0ab3fcc5cc07" d="M269.576,337.55v17.366"/>
  <line class="uuid-51129d32-6dc0-430c-9310-7813be68f595" x1="269.576" y1="354.916" x2="269.745" y2="356.775"/>
  <path class="uuid-bd026c4e-2dd2-4e85-be97-0ab3fcc5cc07" d="M269.745,356.775c0,.173.052.341.122.515"/>
  <line class="uuid-51129d32-6dc0-430c-9310-7813be68f595" x1="269.867" y1="357.29" x2="271.018" y2="359.781"/>
  <line class="uuid-51129d32-6dc0-430c-9310-7813be68f595" x1="272.409" y1="361.077" x2="258.534" y2="353.063"/>
  <path class="uuid-bd026c4e-2dd2-4e85-be97-0ab3fcc5cc07" d="M258.534,353.063c-2.27-1.391-2.664-3.738-2.785-6.156"/>
  <line class="uuid-51129d32-6dc0-430c-9310-7813be68f595" x1="259.34" y1="114.548" x2="273.236" y2="122.558"/>
  <line class="uuid-51129d32-6dc0-430c-9310-7813be68f595" x1="268.918" y1="213.456" x2="268.986" y2="213.505"/>
  <path class="uuid-bd026c4e-2dd2-4e85-be97-0ab3fcc5cc07" d="M281.593,344.122c-.074.047-.122.047-.169.047"/>
  <line class="uuid-51129d32-6dc0-430c-9310-7813be68f595" x1="273.167" y1="167.335" x2="273.167" y2="122.51"/>
  <line class="uuid-51129d32-6dc0-430c-9310-7813be68f595" x1="279.154" y1="360.365" x2="310.737" y2="342.142"/>
  <path class="uuid-bd026c4e-2dd2-4e85-be97-0ab3fcc5cc07" d="M282.471,343.806c-1.342.754-2.395.143-2.395-1.395"/>
  <line class="uuid-51129d32-6dc0-430c-9310-7813be68f595" x1="280.077" y1="342.41" x2="280.077" y2="314.367"/>
  <path class="uuid-bd026c4e-2dd2-4e85-be97-0ab3fcc5cc07" d="M280.077,314.367c0-1.49,1.053-3.345,2.395-4.103"/>
  <line class="uuid-51129d32-6dc0-430c-9310-7813be68f595" x1="282.471" y1="310.264" x2="307.488" y2="295.778"/>
  <path class="uuid-bd026c4e-2dd2-4e85-be97-0ab3fcc5cc07" d="M307.488,295.778c1.269-.732,2.392-.099,2.392,1.391"/>
  <line class="uuid-51129d32-6dc0-430c-9310-7813be68f595" x1="309.88" y1="297.17" x2="309.88" y2="325.239"/>
  <path class="uuid-bd026c4e-2dd2-4e85-be97-0ab3fcc5cc07" d="M309.88,325.239c0,1.512-1.123,3.371-2.392,4.129"/>
  <path class="uuid-bd026c4e-2dd2-4e85-be97-0ab3fcc5cc07" d="M187.569,336.844v-57.826"/>
  <path class="uuid-bd026c4e-2dd2-4e85-be97-0ab3fcc5cc07" d="M163.654,353.232v-66.785"/>
  <line class="uuid-51129d32-6dc0-430c-9310-7813be68f595" x1="176.601" y1="347.077" x2="176.601" y2="283.956"/>
  <path class="uuid-bd026c4e-2dd2-4e85-be97-0ab3fcc5cc07" d="M124.619,336.844v-57.826"/>
  <path class="uuid-bd026c4e-2dd2-4e85-be97-0ab3fcc5cc07" d="M148.558,353.232v-66.785"/>
  <line class="uuid-51129d32-6dc0-430c-9310-7813be68f595" x1="135.61" y1="347.077" x2="135.61" y2="283.956"/>
  <line class="uuid-51129d32-6dc0-430c-9310-7813be68f595" x1="308.489" y1="327.388" x2="295.762" y2="320.011"/>
  <line class="uuid-51129d32-6dc0-430c-9310-7813be68f595" x1="316.208" y1="144.299" x2="302.163" y2="136.163"/>
  <line class="uuid-51129d32-6dc0-430c-9310-7813be68f595" x1="294.835" y1="169.263" x2="281.35" y2="161.47"/>
  <line class="uuid-51129d32-6dc0-430c-9310-7813be68f595" x1="316.719" y1="97.423" x2="303.555" y2="89.752"/>
  <path class="uuid-bd026c4e-2dd2-4e85-be97-0ab3fcc5cc07" d="M111.72,250.268c-2.712-8.257,1.395-17.123,12.506-23.525,6.207-3.588,13.802-5.91,21.816-6.961"/>
  <line class="uuid-ff314be3-faff-40b9-bc31-f79616ece0af" x1="267.839" y1="348.397" x2="257.434" y2="330.467"/>
  <line class="uuid-ff314be3-faff-40b9-bc31-f79616ece0af" x1="267.839" y1="325.876" x2="257.434" y2="307.869"/>
  <line class="uuid-ff314be3-faff-40b9-bc31-f79616ece0af" x1="267.839" y1="303.277" x2="257.434" y2="285.348"/>
  <line class="uuid-ff314be3-faff-40b9-bc31-f79616ece0af" x1="267.839" y1="280.755" x2="257.434" y2="262.752"/>
  <line class="uuid-ff314be3-faff-40b9-bc31-f79616ece0af" x1="267.839" y1="258.161" x2="257.434" y2="240.154"/>
  <line class="uuid-ff314be3-faff-40b9-bc31-f79616ece0af" x1="267.839" y1="235.561" x2="257.434" y2="217.584"/>
  <line class="uuid-ff314be3-faff-40b9-bc31-f79616ece0af" x1="251.789" y1="202.709" x2="237.745" y2="178.377"/>
  <line class="uuid-ff314be3-faff-40b9-bc31-f79616ece0af" x1="248.492" y1="174.418" x2="239.258" y2="158.468"/>
  <line class="uuid-ff314be3-faff-40b9-bc31-f79616ece0af" x1="252.036" y1="158.053" x2="243.901" y2="143.882"/>
  <line class="uuid-ff314be3-faff-40b9-bc31-f79616ece0af" x1="257.36" y1="144.64" x2="249.814" y2="131.572"/>
  <line class="uuid-ff314be3-faff-40b9-bc31-f79616ece0af" x1="263.711" y1="133.014" x2="256.628" y2="120.777"/>
  <line class="uuid-ff314be3-faff-40b9-bc31-f79616ece0af" x1="296.056" y1="166.018" x2="289.434" y2="154.509"/>
  <line class="uuid-ff314be3-faff-40b9-bc31-f79616ece0af" x1="303.775" y1="156.757" x2="297.153" y2="145.326"/>
  <line class="uuid-ff314be3-faff-40b9-bc31-f79616ece0af" x1="311.37" y1="147.353" x2="308.172" y2="141.907"/>
  <line class="uuid-ff314be3-faff-40b9-bc31-f79616ece0af" x1="304.656" y1="135.214" x2="304.656" y2="135.162"/>
  <line class="uuid-ff314be3-faff-40b9-bc31-f79616ece0af" x1="315.034" y1="130.644" x2="304.582" y2="112.568"/>
  <line class="uuid-ff314be3-faff-40b9-bc31-f79616ece0af" x1="314.986" y1="107.928" x2="306.73" y2="93.634"/>
  <line class="uuid-ff314be3-faff-40b9-bc31-f79616ece0af" x1="307.024" y1="324.481" x2="297.789" y2="308.457"/>
  <line class="uuid-ff314be3-faff-40b9-bc31-f79616ece0af" x1="307.73" y1="303.156" x2="305.46" y2="299.149"/>
  <line class="uuid-ff314be3-faff-40b9-bc31-f79616ece0af" x1="291.512" y1="336.377" x2="286.406" y2="327.509"/>
  <line class="uuid-ff314be3-faff-40b9-bc31-f79616ece0af" x1="301.281" y1="330.684" x2="296.616" y2="322.748"/>
  <line class="uuid-ff314be3-faff-40b9-bc31-f79616ece0af" x1="136.295" y1="281.904" x2="128.038" y2="267.639"/>
  <line class="uuid-ff314be3-faff-40b9-bc31-f79616ece0af" x1="150.806" y1="284.467" x2="143.671" y2="272.109"/>
  <line class="uuid-ff314be3-faff-40b9-bc31-f79616ece0af" x1="163.754" y1="284.299" x2="157.256" y2="273.036"/>
  <line class="uuid-ff314be3-faff-40b9-bc31-f79616ece0af" x1="175.502" y1="282.099" x2="169.64" y2="271.937"/>
  <line class="uuid-ff314be3-faff-40b9-bc31-f79616ece0af" x1="186.127" y1="277.897" x2="180.951" y2="268.956"/>
  <line class="uuid-ff314be3-faff-40b9-bc31-f79616ece0af" x1="195.19" y1="271.009" x2="191.187" y2="264.021"/>
  <line class="uuid-ff314be3-faff-40b9-bc31-f79616ece0af" x1="141.353" y1="268.15" x2="114.748" y2="252.811"/>
  <line class="uuid-ff314be3-faff-40b9-bc31-f79616ece0af" x1="181.757" y1="265.485" x2="155.103" y2="250.099"/>
  <line class="uuid-ff314be3-faff-40b9-bc31-f79616ece0af" x1="144.772" y1="244.113" x2="120.907" y2="230.359"/>
  <line class="uuid-ff314be3-faff-40b9-bc31-f79616ece0af" x1="199.955" y1="249.852" x2="167.366" y2="231.043"/>
  <line class="uuid-ff314be3-faff-40b9-bc31-f79616ece0af" x1="142.402" y1="152.117" x2="140.937" y2="149.626"/>
  <line class="uuid-ff314be3-faff-40b9-bc31-f79616ece0af" x1="145.357" y1="134.651" x2="142.576" y2="129.813"/>
  <line class="uuid-ff314be3-faff-40b9-bc31-f79616ece0af" x1="147.042" y1="114.963" x2="144.26" y2="110.125"/>
  <line class="uuid-ff314be3-faff-40b9-bc31-f79616ece0af" x1="157.329" y1="99.525" x2="155.935" y2="97.082"/>
  <line class="uuid-ff314be3-faff-40b9-bc31-f79616ece0af" x1="149.827" y1="246.018" x2="148.021" y2="242.891"/>
  <line class="uuid-ff314be3-faff-40b9-bc31-f79616ece0af" x1="150.879" y1="225.231" x2="148.021" y2="220.296"/>
  <line class="uuid-ff314be3-faff-40b9-bc31-f79616ece0af" x1="150.879" y1="202.657" x2="148.021" y2="197.723"/>
  <line class="uuid-ff314be3-faff-40b9-bc31-f79616ece0af" x1="150.879" y1="180.063" x2="148.021" y2="175.176"/>
  <line class="uuid-ff314be3-faff-40b9-bc31-f79616ece0af" x1="139.959" y1="356.775" x2="135.366" y2="348.886"/>
  <line class="uuid-ff314be3-faff-40b9-bc31-f79616ece0af" x1="133.804" y1="346.148" x2="126.426" y2="333.375"/>
  <line class="uuid-ff314be3-faff-40b9-bc31-f79616ece0af" x1="122.714" y1="326.924" x2="117.876" y2="318.546"/>
  <line class="uuid-ff314be3-faff-40b9-bc31-f79616ece0af" x1="154.298" y1="359.045" x2="150.537" y2="352.474"/>
  <line class="uuid-ff314be3-faff-40b9-bc31-f79616ece0af" x1="146.799" y1="346.076" x2="137.394" y2="329.757"/>
  <line class="uuid-ff314be3-faff-40b9-bc31-f79616ece0af" x1="133.804" y1="323.554" x2="126.426" y2="310.827"/>
  <line class="uuid-ff314be3-faff-40b9-bc31-f79616ece0af" x1="122.714" y1="304.329" x2="117.876" y2="296.025"/>
  <line class="uuid-ff314be3-faff-40b9-bc31-f79616ece0af" x1="166.734" y1="357.923" x2="164.875" y2="354.726"/>
  <line class="uuid-ff314be3-faff-40b9-bc31-f79616ece0af" x1="161.969" y1="349.74" x2="150.217" y2="329.463"/>
  <line class="uuid-ff314be3-faff-40b9-bc31-f79616ece0af" x1="146.799" y1="323.48" x2="137.394" y2="307.163"/>
  <line class="uuid-ff314be3-faff-40b9-bc31-f79616ece0af" x1="133.804" y1="300.955" x2="126.426" y2="288.232"/>
  <line class="uuid-ff314be3-faff-40b9-bc31-f79616ece0af" x1="122.593" y1="281.635" x2="121.198" y2="279.192"/>
  <line class="uuid-ff314be3-faff-40b9-bc31-f79616ece0af" x1="178.091" y1="355.09" x2="165.266" y2="332.91"/>
  <line class="uuid-ff314be3-faff-40b9-bc31-f79616ece0af" x1="161.969" y1="327.144" x2="150.217" y2="306.894"/>
  <line class="uuid-ff314be3-faff-40b9-bc31-f79616ece0af" x1="146.799" y1="300.908" x2="138.027" y2="285.763"/>
  <line class="uuid-ff314be3-faff-40b9-bc31-f79616ece0af" x1="187.349" y1="348.567" x2="178.334" y2="333.006"/>
  <line class="uuid-ff314be3-faff-40b9-bc31-f79616ece0af" x1="174.869" y1="326.924" x2="165.391" y2="310.485"/>
  <line class="uuid-ff314be3-faff-40b9-bc31-f79616ece0af" x1="161.895" y1="304.45" x2="152.196" y2="287.67"/>
  <line class="uuid-ff314be3-faff-40b9-bc31-f79616ece0af" x1="193.678" y1="336.913" x2="189.476" y2="329.709"/>
  <line class="uuid-ff314be3-faff-40b9-bc31-f79616ece0af" x1="185.786" y1="323.211" x2="178.408" y2="310.533"/>
  <line class="uuid-ff314be3-faff-40b9-bc31-f79616ece0af" x1="174.869" y1="304.329" x2="165.391" y2="287.963"/>
  <line class="uuid-ff314be3-faff-40b9-bc31-f79616ece0af" x1="194.31" y1="315.466" x2="189.476" y2="307.115"/>
  <line class="uuid-ff314be3-faff-40b9-bc31-f79616ece0af" x1="185.786" y1="300.665" x2="178.408" y2="287.963"/>
  <line class="uuid-ff314be3-faff-40b9-bc31-f79616ece0af" x1="194.31" y1="292.824" x2="189.476" y2="284.541"/>
</svg>