<?xml version="1.0" encoding="UTF-8"?>
<svg id="uuid-508aca99-a784-4d7a-a797-ac7c56c555e6" data-name="&amp;lt;Layer&amp;gt;" xmlns="http://www.w3.org/2000/svg" viewBox="0 0 451.11 451.11">
  <defs>
    <style>
      .uuid-4378b74b-72b4-4f05-aa89-1e413d2676c2, .uuid-dc88372f-2111-4362-88dd-80c11823d077, .uuid-c76c4d55-5bc6-4950-a2fd-2b545df9977e, .uuid-5ce8a0c6-ee23-4219-b4aa-c80cc96b46b7 {
        fill: none;
        stroke: #000;
        stroke-linecap: round;
      }

      .uuid-4378b74b-72b4-4f05-aa89-1e413d2676c2, .uuid-5ce8a0c6-ee23-4219-b4aa-c80cc96b46b7 {
        stroke-linejoin: round;
        stroke-width: 4.113px;
      }

      .uuid-dc88372f-2111-4362-88dd-80c11823d077 {
        stroke-miterlimit: 10;
      }

      .uuid-dc88372f-2111-4362-88dd-80c11823d077, .uuid-c76c4d55-5bc6-4950-a2fd-2b545df9977e {
        stroke-width: 1.163px;
      }

      .uuid-c76c4d55-5bc6-4950-a2fd-2b545df9977e {
        stroke-miterlimit: 22.926;
      }

      .uuid-c76c4d55-5bc6-4950-a2fd-2b545df9977e, .uuid-5ce8a0c6-ee23-4219-b4aa-c80cc96b46b7 {
        fill-rule: evenodd;
      }
    </style>
  </defs>
  <path class="uuid-5ce8a0c6-ee23-4219-b4aa-c80cc96b46b7" d="M338.657,254.291c0-25.745-31.757-35.101-53.741-36.981-1.957,3.786-3.911,7.599-5.866,11.211"/>
  <path class="uuid-5ce8a0c6-ee23-4219-b4aa-c80cc96b46b7" d="M278.561,229.695c5.619,13.654-14.654,33.636-35.417,41.478-15.39,5.742-32.003,3.492-46.904-2.318-15.876-6.159-25.649-14.88-23.938-22.768-11.237,14.265-26.381,24.965-38.597,38.203-10.258,11.483-18.076,21.962-21.006,37.426"/>
  <polyline class="uuid-5ce8a0c6-ee23-4219-b4aa-c80cc96b46b7" points="112.698 321.716 112.453 324.696 112.453 327.724"/>
  <path class="uuid-5ce8a0c6-ee23-4219-b4aa-c80cc96b46b7" d="M112.453,327.724v26.164c0,9.673,1.221,12.238,11.726,18.32,81.347,46.975,214.235-66.715,214.235-85.719"/>
  <path class="uuid-5ce8a0c6-ee23-4219-b4aa-c80cc96b46b7" d="M338.657,254.291c0-23.28-26.139-33.147-47.147-36.223,7.373,9.117,5.437,24.976,0,34.685-8.541,15.701-24.332,26.458-40.304,33.516"/>
  <path class="uuid-5ce8a0c6-ee23-4219-b4aa-c80cc96b46b7" d="M249.005,287.053c-4.64,1.759-9.283,2.928-13.924,3.638-5.132.732-10.014.953-14.901.685-4.886-.222-10.015-.954-14.901-2.027-5.13-1.175-10.262-2.763-15.148-4.666-5.13-1.953-9.526-4.18-13.677-6.57-4.154-2.418-7.571-5.06-10.748-7.845-2.932-2.928-5.375-6.081-7.328-9.378-8.062,7.792-17.102,15.096-24.675,23.4-10.258,11.483-18.076,21.962-21.006,37.426"/>
  <path class="uuid-5ce8a0c6-ee23-4219-b4aa-c80cc96b46b7" d="M185.734,228.083c-.975-.832-1.464-1.637-2.196-2.443v-.074c-.247-.048-.247-.173-.247-.221-.243.463-.243.927-.243,1.343-.489,4.228-.489,5.96-2.932,10.04-1.221,2.201-6.104,7.256-7.815,9.357-1.711,7.888,8.062,16.586,23.938,22.742,14.901,5.814,31.514,8.087,46.904,2.344,3.419-1.295,6.841-2.908,10.258-4.835,2.2-1.221,4.398-2.617,6.351-4.055.979-.71,1.957-1.468,2.932-2.226,1.954-1.564,3.907-3.124,5.618-4.809,6.84-6.622,11.238-14,11.238-20.545"/>
  <path class="uuid-5ce8a0c6-ee23-4219-b4aa-c80cc96b46b7" d="M279.297,231.918c-.247-.78-.489-1.516-.736-2.222-.243.463-.485.879-.732,1.269"/>
  <path class="uuid-5ce8a0c6-ee23-4219-b4aa-c80cc96b46b7" d="M266.106,247.256c7.476-7.34,13.96-20.107,19.99-32.451M290.703,204.627c6.328-16.925,5.964-35.351,6.181-50.514.732-13.311.489-28.751-1.464-41.404-9.721-67.878-132.708-58.021-139.32,22.157"/>
  <path class="uuid-5ce8a0c6-ee23-4219-b4aa-c80cc96b46b7" d="M183.291,225.614c16.369,18.345,39.819,30.925,58.631,30.899,8.305,0,18.077-3.392,24.184-9.257"/>
  <path class="uuid-5ce8a0c6-ee23-4219-b4aa-c80cc96b46b7" d="M183.049,226.762c.489-1.368,2.2-6.791,1.221-8.572-2.443-4.398-5.128-10.384-6.351-15.512-5.618-24.696,23.696-36.275,28.825.095,4.396-15.387,4.396-32.094,4.643-39.328.976-25.502-17.101-27.309-28.827-28.919-17.099-2.422-26.871-4.913-27.357,4.761-.736,27.728,2.198,71.059,27.846,87.476Z"/>
  <path class="uuid-5ce8a0c6-ee23-4219-b4aa-c80cc96b46b7" d="M296.884,154.113c.732-13.311.489-28.751-1.464-41.404-3.911-.636-2.932,30.02-1.711,31.316"/>
  <path class="uuid-5ce8a0c6-ee23-4219-b4aa-c80cc96b46b7" d="M260.731,183.479c0,3.296-1.221,6.935-3.176,10.184-1.953,3.249-4.396,6.082-7.328,7.719"/>
  <path class="uuid-5ce8a0c6-ee23-4219-b4aa-c80cc96b46b7" d="M274.896,187.165c-2.686,1.637-5.371,1.807-7.326.71-1.711-1.079-2.932-3.396-2.932-6.67"/>
  <path class="uuid-5ce8a0c6-ee23-4219-b4aa-c80cc96b46b7" d="M237.279,242.3c6.354-3.592,23.452-11.8,28.827-20.91,5.13,3.123,22.474-8.603,28.582-12.189-3.911-9.383-23.699-6.451-28.582,2.365-5.132-3.028-24.916,16.907-28.827,30.734Z"/>
  <line class="uuid-4378b74b-72b4-4f05-aa89-1e413d2676c2" x1="338.414" y1="286.489" x2="338.657" y2="254.291"/>
  <line class="uuid-4378b74b-72b4-4f05-aa89-1e413d2676c2" x1="251.205" y1="286.269" x2="249.005" y2="287.053"/>
  <line class="uuid-4378b74b-72b4-4f05-aa89-1e413d2676c2" x1="293.71" y1="144.025" x2="296.884" y2="154.113"/>
  <line class="uuid-4378b74b-72b4-4f05-aa89-1e413d2676c2" x1="260.731" y1="166.693" x2="260.731" y2="183.479"/>
  <line class="uuid-4378b74b-72b4-4f05-aa89-1e413d2676c2" x1="250.227" y1="201.382" x2="228.485" y2="213.962"/>
  <path class="uuid-5ce8a0c6-ee23-4219-b4aa-c80cc96b46b7" d="M228.485,213.962c-1.954,1.099-3.664,1.199-4.886.467"/>
  <path class="uuid-5ce8a0c6-ee23-4219-b4aa-c80cc96b46b7" d="M223.599,214.43c-1.223-.71-1.955-2.274-1.955-4.448"/>
  <line class="uuid-4378b74b-72b4-4f05-aa89-1e413d2676c2" x1="221.645" y1="209.981" x2="221.645" y2="193.026"/>
  <path class="uuid-5ce8a0c6-ee23-4219-b4aa-c80cc96b46b7" d="M221.645,193.026c0-3.318.732-4.224,3.176-5.64"/>
  <line class="uuid-4378b74b-72b4-4f05-aa89-1e413d2676c2" x1="224.821" y1="187.386" x2="227.996" y2="185.601"/>
  <path class="uuid-5ce8a0c6-ee23-4219-b4aa-c80cc96b46b7" d="M227.996,185.601c24.184-14.044,45.194-26.138,69.378-40.16"/>
  <line class="uuid-4378b74b-72b4-4f05-aa89-1e413d2676c2" x1="297.374" y1="145.441" x2="300.059" y2="144.003"/>
  <path class="uuid-5ce8a0c6-ee23-4219-b4aa-c80cc96b46b7" d="M300.059,144.003c2.2-1.347,3.176-1.811,3.666,1.685"/>
  <line class="uuid-4378b74b-72b4-4f05-aa89-1e413d2676c2" x1="303.725" y1="145.687" x2="303.725" y2="162.638"/>
  <path class="uuid-5ce8a0c6-ee23-4219-b4aa-c80cc96b46b7" d="M303.725,162.638c0,2.2-.979,4.618-2.198,6.792"/>
  <path class="uuid-5ce8a0c6-ee23-4219-b4aa-c80cc96b46b7" d="M301.527,169.43c-1.221,2.174-2.932,4.081-4.886,5.176"/>
  <line class="uuid-4378b74b-72b4-4f05-aa89-1e413d2676c2" x1="296.642" y1="174.607" x2="274.896" y2="187.165"/>
  <line class="uuid-4378b74b-72b4-4f05-aa89-1e413d2676c2" x1="264.638" y1="181.205" x2="264.638" y2="164.423"/>
  <line class="uuid-4378b74b-72b4-4f05-aa89-1e413d2676c2" x1="185.491" y1="180.447" x2="185.734" y2="178.493"/>
  <path class="uuid-5ce8a0c6-ee23-4219-b4aa-c80cc96b46b7" d="M185.734,178.493c.736-2.956,3.666-3.492,6.598-2.222"/>
  <line class="uuid-4378b74b-72b4-4f05-aa89-1e413d2676c2" x1="192.332" y1="176.271" x2="220.423" y2="188.95"/>
  <line class="uuid-dc88372f-2111-4362-88dd-80c11823d077" x1="181.827" y1="382.223" x2="112.453" y2="342.114"/>
  <line class="uuid-dc88372f-2111-4362-88dd-80c11823d077" x1="216.027" y1="375.946" x2="112.453" y2="316.12"/>
  <line class="uuid-dc88372f-2111-4362-88dd-80c11823d077" x1="240.939" y1="364.158" x2="124.426" y2="296.91"/>
  <line class="uuid-dc88372f-2111-4362-88dd-80c11823d077" x1="264.388" y1="351.636" x2="139.331" y2="279.602"/>
  <line class="uuid-dc88372f-2111-4362-88dd-80c11823d077" x1="287.358" y1="338.913" x2="202.104" y2="289.664"/>
  <line class="uuid-dc88372f-2111-4362-88dd-80c11823d077" x1="158.132" y1="264.358" x2="157.889" y2="264.21"/>
  <line class="uuid-dc88372f-2111-4362-88dd-80c11823d077" x1="306.168" y1="323.695" x2="245.34" y2="288.663"/>
  <line class="uuid-dc88372f-2111-4362-88dd-80c11823d077" x1="323.509" y1="307.693" x2="269.525" y2="276.474"/>
  <line class="uuid-dc88372f-2111-4362-88dd-80c11823d077" x1="337.678" y1="289.76" x2="286.622" y2="260.303"/>
  <line class="uuid-dc88372f-2111-4362-88dd-80c11823d077" x1="337.925" y1="263.869" x2="296.642" y2="240.074"/>
  <path class="uuid-c76c4d55-5bc6-4950-a2fd-2b545df9977e" d="M294.688,125.167c.243,2.028.243,4.007.485,6.083v10.527c-.485-3.517-.732-10.406-.485-16.609Z"/>
  <line class="uuid-dc88372f-2111-4362-88dd-80c11823d077" x1="178.163" y1="209.27" x2="168.148" y2="203.506"/>
  <line class="uuid-dc88372f-2111-4362-88dd-80c11823d077" x1="175.719" y1="194.836" x2="162.528" y2="187.213"/>
  <line class="uuid-dc88372f-2111-4362-88dd-80c11823d077" x1="179.874" y1="184.111" x2="159.111" y2="172.216"/>
  <line class="uuid-dc88372f-2111-4362-88dd-80c11823d077" x1="186.956" y1="175.218" x2="157.157" y2="158.072"/>
  <line class="uuid-dc88372f-2111-4362-88dd-80c11823d077" x1="210.654" y1="175.854" x2="155.935" y2="144.271"/>
  <line class="uuid-dc88372f-2111-4362-88dd-80c11823d077" x1="210.897" y1="163.031" x2="159.843" y2="133.571"/>
  <line class="uuid-dc88372f-2111-4362-88dd-80c11823d077" x1="206.744" y1="147.494" x2="188.91" y2="137.284"/>
  <path class="uuid-c76c4d55-5bc6-4950-a2fd-2b545df9977e" d="M291.999,208.391c-.243.173-.732.367-.732.541,0-.321,0-.637.243-.954.247.144.247.244.489.413Z"/>
  <line class="uuid-dc88372f-2111-4362-88dd-80c11823d077" x1="249.737" y1="233.091" x2="245.586" y2="230.6"/>
  <line class="uuid-dc88372f-2111-4362-88dd-80c11823d077" x1="259.999" y1="225.883" x2="252.669" y2="221.707"/>
  <line class="uuid-dc88372f-2111-4362-88dd-80c11823d077" x1="271.479" y1="219.558" x2="261.953" y2="214.009"/>
  <line class="uuid-dc88372f-2111-4362-88dd-80c11823d077" x1="283.937" y1="213.672" x2="273.189" y2="207.489"/>
</svg>