<?xml version="1.0" encoding="UTF-8"?>
<svg id="uuid-62f8027a-2863-4b50-a1fd-4bb06cadaa88" data-name="&amp;lt;Layer&amp;gt;" xmlns="http://www.w3.org/2000/svg" viewBox="0 0 451.11 451.11">
  <defs>
    <style>
      .uuid-0a718aad-94a0-4467-b99c-b6516a6f49e6, .uuid-1a07f8e5-ed0e-4972-8ef2-6405561bd4cf, .uuid-312007e2-2812-4935-97b9-fe48c88d9a71 {
        fill: none;
        stroke: #000;
        stroke-linecap: round;
      }

      .uuid-0a718aad-94a0-4467-b99c-b6516a6f49e6, .uuid-312007e2-2812-4935-97b9-fe48c88d9a71 {
        stroke-linejoin: round;
        stroke-width: 4.117px;
      }

      .uuid-1a07f8e5-ed0e-4972-8ef2-6405561bd4cf {
        stroke-miterlimit: 10;
        stroke-width: 1.163px;
      }

      .uuid-312007e2-2812-4935-97b9-fe48c88d9a71 {
        fill-rule: evenodd;
      }
    </style>
  </defs>
  <path class="uuid-312007e2-2812-4935-97b9-fe48c88d9a71" d="M105.874,330.195c-12.315-11.895-3.08-37.96,5.983-50.982,7.841-11.309,26.065-27.554,39.38-18.345"/>
  <path class="uuid-312007e2-2812-4935-97b9-fe48c88d9a71" d="M202.682,290.745c-15.222-11.483-35.542,8.915-43.508,22.668-7.183,12.48-14.291,35.69-1.907,46.732"/>
  <path class="uuid-312007e2-2812-4935-97b9-fe48c88d9a71" d="M272.13,177.007c1.001.559,1.979,1.269,2.958,2.027,1.097.758,2.146,1.56,3.198,2.491,1.173.928,2.273,1.855,3.37,2.907,1.101,1.001,2.2,2.052,3.201,3.127,1.101,1.049,2.076,2.149,3.006,3.323,1.001,1.049,1.855,2.1,2.613,3.149.806,1.027,1.637,2.079,2.443,3.176.806,1.099,1.564,2.148,2.274,3.322.095.1.217.221.217.343,8.014,12.36,13.363,26.823,16.491,41.113.879,3.834,1.586,7.793,2.098,11.896"/>
  <polyline class="uuid-312007e2-2812-4935-97b9-fe48c88d9a71" points="318.178 275.38 318.178 275.427 283.294 255.176"/>
  <polyline class="uuid-312007e2-2812-4935-97b9-fe48c88d9a71" points="153.312 252.953 153.312 252.907 150.99 249.532"/>
  <polyline class="uuid-312007e2-2812-4935-97b9-fe48c88d9a71" points="240.009 203.195 239.615 202.974 239.542 202.9 205.81 183.455 201.851 180.547"/>
  <path class="uuid-312007e2-2812-4935-97b9-fe48c88d9a71" d="M138.459,171.779c-4.887,1.175-9.648,2.665-14.339,4.398-11.211,4.202-20.057,7.376-23.426,19.592-1.221,4.592-.758,16.952-.637,21.3,0,1.979.347,4.077,1.638,5.641,1.516,1.979,45.462,26.701,51.618,30.243,1.733,1.221,4.176,1.343,7.035.074,11.604-5.471,22.694-8.305,32.856-8.845"/>
  <path class="uuid-312007e2-2812-4935-97b9-fe48c88d9a71" d="M193.204,244.183c3.666,6.987,6.034,14.632,7.547,23.184.88,4.765.832,11.604,2.86,14.217,1.563,1.979,45.289,26.601,51.618,30.267.048,0,.121,0,.121.047"/>
  <path class="uuid-312007e2-2812-4935-97b9-fe48c88d9a71" d="M253.711,310.164c-.1-.169-.221-.415-.269-.636-.121-.243-.195-.537-.295-.754-.243-.884-.415-2.031-.658-3.327,0-.095-.048-.217-.048-.269"/>
  <path class="uuid-312007e2-2812-4935-97b9-fe48c88d9a71" d="M249.826,289.766c-.17-.732-.339-1.438-.585-2.126-1.785-6.473-4.934-13.824-9.041-20.273-.317-.465-.658-.928-.927-1.395-.88-1.291-1.759-2.443-2.737-3.54-2.27-2.906-4.835-5.519-7.621-7.499-.048-.051-.121-.051-.169-.121"/>
  <path class="uuid-312007e2-2812-4935-97b9-fe48c88d9a71" d="M153.481,180.352c-5.908-3.418-50.224-28.434-51.736-30.267-1.342-1.585-1.689-3.738-1.737-5.714-.073-4.228-.536-16.734.685-21.23,3.101-11.479,10.868-14.58,20.151-18.834,37.864-17.341,83.522-25.086,121.312-3.275"/>
  <polyline class="uuid-312007e2-2812-4935-97b9-fe48c88d9a71" points="242.158 101.033 248.314 104.944 298.901 134.136"/>
  <path class="uuid-312007e2-2812-4935-97b9-fe48c88d9a71" d="M298.901,134.136c-15.976-10.041-29.972-15.39-49.075-16.928-29.557-2.37-62.024,7.278-87.915,20.883-6.325,3.323-11.263,11.726-11.385,18.934,0,3.297-.415,16.93.463,19.81"/>
  <path class="uuid-312007e2-2812-4935-97b9-fe48c88d9a71" d="M315.514,269.492c-5.056-93.22-71.672-131.67-154.898-89.409-5.619,2.885-10.089.026-10.089-6.546"/>
  <path class="uuid-312007e2-2812-4935-97b9-fe48c88d9a71" d="M150.527,157.025c0-3.516,1.149-7.23,3.371-10.946,2.274-3.712,4.934-6.398,8.014-7.988,101.962-52.324,183.625-5.154,189.317,109.319.17,3.444-.805,7.108-2.906,10.894-2.152,3.812-4.765,6.618-7.841,8.403"/>
  <path class="uuid-312007e2-2812-4935-97b9-fe48c88d9a71" d="M252.49,306.257c-4.566-53.693-43.361-76.119-92.216-53.256-5.497,2.565-9.747-.317-9.747-6.74"/>
  <path class="uuid-312007e2-2812-4935-97b9-fe48c88d9a71" d="M150.527,229.722c0-3.59,1.221-7.354,3.496-11.141,2.318-3.76,5.03-6.446,8.183-7.936,67.005-32.246,120.43-1.391,126.073,72.77.218,3.445-.71,7.183-2.858,11.064-2.079,3.864-4.739,6.77-7.892,8.577"/>
  <path class="uuid-312007e2-2812-4935-97b9-fe48c88d9a71" d="M179.961,291.477c16.271-9.378,29.388-1.785,29.388,16.977s-13.118,41.552-29.388,50.933c-16.244,9.379-29.435,1.785-29.435-16.976s13.19-41.552,29.435-50.934Z"/>
  <line class="uuid-0a718aad-94a0-4467-b99c-b6516a6f49e6" x1="157.267" y1="360.145" x2="105.874" y2="330.195"/>
  <line class="uuid-0a718aad-94a0-4467-b99c-b6516a6f49e6" x1="151.237" y1="260.869" x2="202.682" y2="290.745"/>
  <path class="uuid-312007e2-2812-4935-97b9-fe48c88d9a71" d="M239.372,164.182c12.386,15.196,19.519,34.416,23.059,53.888"/>
  <path class="uuid-312007e2-2812-4935-97b9-fe48c88d9a71" d="M201.851,180.547c-6.498-4.47-13.533-7.499-20.715-9.356"/>
  <line class="uuid-0a718aad-94a0-4467-b99c-b6516a6f49e6" x1="340.481" y1="266.707" x2="326.188" y2="274.938"/>
  <path class="uuid-312007e2-2812-4935-97b9-fe48c88d9a71" d="M326.188,274.938c-5.689,3.301-10.332.906-10.673-5.445"/>
  <line class="uuid-0a718aad-94a0-4467-b99c-b6516a6f49e6" x1="150.527" y1="246.261" x2="150.527" y2="229.722"/>
  <line class="uuid-0a718aad-94a0-4467-b99c-b6516a6f49e6" x1="277.528" y1="303.056" x2="263.237" y2="311.313"/>
  <path class="uuid-312007e2-2812-4935-97b9-fe48c88d9a71" d="M263.237,311.313c-5.567,3.201-10.162,1.027-10.747-5.056"/>
  <line class="uuid-1a07f8e5-ed0e-4972-8ef2-6405561bd4cf" x1="117.891" y1="158.173" x2="101.525" y2="129.739"/>
  <line class="uuid-1a07f8e5-ed0e-4972-8ef2-6405561bd4cf" x1="149.6" y1="167.894" x2="114.47" y2="107.07"/>
  <line class="uuid-1a07f8e5-ed0e-4972-8ef2-6405561bd4cf" x1="159.174" y1="139.265" x2="135.772" y2="98.789"/>
  <line class="uuid-1a07f8e5-ed0e-4972-8ef2-6405561bd4cf" x1="179.45" y1="129.298" x2="158.073" y2="92.265"/>
  <line class="uuid-1a07f8e5-ed0e-4972-8ef2-6405561bd4cf" x1="201.119" y1="121.678" x2="182.235" y2="88.92"/>
  <line class="uuid-1a07f8e5-ed0e-4972-8ef2-6405561bd4cf" x1="224.35" y1="116.74" x2="209.227" y2="90.58"/>
  <line class="uuid-1a07f8e5-ed0e-4972-8ef2-6405561bd4cf" x1="249.704" y1="115.522" x2="242.864" y2="103.6"/>
  <line class="uuid-1a07f8e5-ed0e-4972-8ef2-6405561bd4cf" x1="315.344" y1="271.468" x2="255.639" y2="168.016"/>
  <line class="uuid-1a07f8e5-ed0e-4972-8ef2-6405561bd4cf" x1="244.771" y1="304.789" x2="211.207" y2="246.604"/>
  <line class="uuid-1a07f8e5-ed0e-4972-8ef2-6405561bd4cf" x1="118.012" y1="230.991" x2="101.525" y2="202.34"/>
  <line class="uuid-1a07f8e5-ed0e-4972-8ef2-6405561bd4cf" x1="149.6" y1="240.495" x2="114.594" y2="179.815"/>
  <line class="uuid-1a07f8e5-ed0e-4972-8ef2-6405561bd4cf" x1="159.126" y1="211.84" x2="136.652" y2="172.902"/>
  <line class="uuid-1a07f8e5-ed0e-4972-8ef2-6405561bd4cf" x1="179.741" y1="202.34" x2="166.087" y2="178.741"/>
  <line class="uuid-1a07f8e5-ed0e-4972-8ef2-6405561bd4cf" x1="202.73" y1="197.086" x2="190.661" y2="176.129"/>
  <line class="uuid-1a07f8e5-ed0e-4972-8ef2-6405561bd4cf" x1="112.077" y1="331.807" x2="101.815" y2="314.05"/>
  <line class="uuid-1a07f8e5-ed0e-4972-8ef2-6405561bd4cf" x1="151.407" y1="354.82" x2="109.538" y2="282.289"/>
  <line class="uuid-1a07f8e5-ed0e-4972-8ef2-6405561bd4cf" x1="156.34" y1="318.2" x2="125.684" y2="265.096"/>
  <line class="uuid-1a07f8e5-ed0e-4972-8ef2-6405561bd4cf" x1="170.682" y1="297.854" x2="149.721" y2="261.553"/>
  <line class="uuid-1a07f8e5-ed0e-4972-8ef2-6405561bd4cf" x1="189.613" y1="285.564" x2="189.613" y2="285.464"/>
</svg>