<?xml version="1.0" encoding="UTF-8"?>
<svg id="uuid-d19fcddd-2d47-4cc3-8dfa-6c4bba888d9a" data-name="&amp;lt;Layer&amp;gt;" xmlns="http://www.w3.org/2000/svg" viewBox="0 0 451.11 451.11">
  <defs>
    <style>
      .uuid-a3fed766-83d1-4e22-b922-45b68a6cb6bd, .uuid-a79fa42f-5367-402d-b314-ccda541bcc67, .uuid-715eb65d-d914-439e-9c5c-71bc93ca3213 {
        fill: none;
        stroke: #000;
        stroke-linecap: round;
      }

      .uuid-a3fed766-83d1-4e22-b922-45b68a6cb6bd, .uuid-715eb65d-d914-439e-9c5c-71bc93ca3213 {
        stroke-linejoin: round;
        stroke-width: 4.113px;
      }

      .uuid-a79fa42f-5367-402d-b314-ccda541bcc67 {
        stroke-miterlimit: 10;
        stroke-width: 1.163px;
      }

      .uuid-715eb65d-d914-439e-9c5c-71bc93ca3213 {
        fill-rule: evenodd;
      }
    </style>
  </defs>
  <polyline class="uuid-715eb65d-d914-439e-9c5c-71bc93ca3213" points="299.94 267.974 299.94 287.368 283.327 277.672"/>
  <polygon class="uuid-715eb65d-d914-439e-9c5c-71bc93ca3213" points="299.94 100.128 280.641 88.913 280.641 105.136 299.94 116.348 299.94 100.128"/>
  <polyline class="uuid-715eb65d-d914-439e-9c5c-71bc93ca3213" points="165.095 171.872 280.641 105.161 299.94 116.348 170.47 191.145"/>
  <polygon class="uuid-715eb65d-d914-439e-9c5c-71bc93ca3213" points="342.932 75.359 323.635 64.145 280.641 88.913 299.94 100.128 342.932 75.359"/>
  <polygon class="uuid-715eb65d-d914-439e-9c5c-71bc93ca3213" points="170.47 362.191 170.47 342.82 299.94 267.996 299.94 287.368 342.932 262.576 342.932 75.359 299.94 100.128 299.94 116.348 170.47 191.171 170.47 174.952 127.476 199.722 127.476 386.965 170.47 362.191"/>
  <polygon class="uuid-715eb65d-d914-439e-9c5c-71bc93ca3213" points="174.134 203.972 295.296 133.96 295.296 255.758 174.134 325.744 174.134 203.972"/>
  <polygon class="uuid-715eb65d-d914-439e-9c5c-71bc93ca3213" points="204.18 204.582 279.663 203.972 204.18 290.422 204.18 204.582"/>
  <polyline class="uuid-715eb65d-d914-439e-9c5c-71bc93ca3213" points="310.198 255.052 310.198 255.052 310.198 243.763"/>
  <path class="uuid-715eb65d-d914-439e-9c5c-71bc93ca3213" d="M310.198,243.763c0-3.123,2.2-6.935,5.132-8.473,3.907-2.395,8.062-4.791,12.212-7.16,2.686-1.564,4.886-.291,4.886,2.833"/>
  <polyline class="uuid-715eb65d-d914-439e-9c5c-71bc93ca3213" points="332.428 230.964 332.428 230.942 332.428 242.251"/>
  <path class="uuid-715eb65d-d914-439e-9c5c-71bc93ca3213" d="M310.198,115.836c0-3.128,2.2-6.94,5.132-8.477,3.907-2.392,8.062-4.787,12.212-7.157,2.686-1.564,4.886-.319,4.886,2.807"/>
  <path class="uuid-715eb65d-d914-439e-9c5c-71bc93ca3213" d="M332.428,199.6c0,3.102-2.2,6.913-4.886,8.473-4.15,2.396-8.305,4.765-12.212,7.161-2.932,1.563-5.132.293-5.132-2.833h0v-11.289c0-3.123,2.2-6.935,5.132-8.473,3.907-2.395,8.062-4.765,12.212-7.16,2.686-1.564,4.886-.317,4.886,2.832"/>
  <path class="uuid-715eb65d-d914-439e-9c5c-71bc93ca3213" d="M332.428,156.949c0,3.124-2.2,6.935-4.886,8.499-4.15,2.369-8.305,4.765-12.212,7.134-2.932,1.564-5.132.291-5.132-2.81"/>
  <path class="uuid-715eb65d-d914-439e-9c5c-71bc93ca3213" d="M310.198,169.772v-11.311c0-3.102,2.2-6.913,5.132-8.473,3.907-2.374,8.062-4.765,12.212-7.16,2.686-1.564,4.886-.295,4.886,2.832"/>
  <polygon class="uuid-715eb65d-d914-439e-9c5c-71bc93ca3213" points="127.476 199.722 108.177 188.511 108.177 375.75 127.476 386.965 127.476 199.722"/>
  <polygon class="uuid-715eb65d-d914-439e-9c5c-71bc93ca3213" points="170.47 174.952 150.928 163.738 108.177 188.511 127.476 199.722 170.47 174.952"/>
  <path class="uuid-715eb65d-d914-439e-9c5c-71bc93ca3213" d="M137.738,215.429c0-3.128,2.196-6.914,4.883-8.478,4.154-2.396,8.307-4.765,12.458-7.157,2.686-1.563,4.886-.294,4.886,2.833"/>
  <path class="uuid-715eb65d-d914-439e-9c5c-71bc93ca3213" d="M137.738,343.36c0-3.105,2.196-6.939,4.883-8.48,4.154-2.392,8.307-4.787,12.458-7.157,2.686-1.56,4.886-.291,4.886,2.837"/>
  <path class="uuid-715eb65d-d914-439e-9c5c-71bc93ca3213" d="M159.965,299.193c0,3.102-2.2,6.936-4.886,8.477-4.151,2.392-8.305,4.787-12.458,7.157-2.687,1.563-4.883.295-4.883-2.811"/>
  <path class="uuid-715eb65d-d914-439e-9c5c-71bc93ca3213" d="M137.738,312.016v-11.307c0-3.127,2.196-6.913,4.883-8.481,4.154-2.391,8.307-4.761,12.458-7.156,2.686-1.56,4.886-.291,4.886,2.836"/>
  <path class="uuid-715eb65d-d914-439e-9c5c-71bc93ca3213" d="M159.965,256.542c0,3.128-2.2,6.935-4.886,8.499-4.151,2.37-8.305,4.765-12.458,7.16-2.687,1.538-4.883.291-4.883-2.836"/>
  <path class="uuid-715eb65d-d914-439e-9c5c-71bc93ca3213" d="M137.738,269.365v-11.307c0-3.105,2.196-6.913,4.883-8.477,4.154-2.37,8.307-4.765,12.458-7.16,2.686-1.538,4.886-.291,4.886,2.832h0v11.289"/>
  <path class="uuid-715eb65d-d914-439e-9c5c-71bc93ca3213" d="M332.428,242.251c0,3.102-2.2,6.914-4.886,8.477"/>
  <line class="uuid-a3fed766-83d1-4e22-b922-45b68a6cb6bd" x1="327.542" y1="250.728" x2="315.33" y2="257.885"/>
  <path class="uuid-715eb65d-d914-439e-9c5c-71bc93ca3213" d="M315.33,257.885c-2.932,1.538-5.132.295-5.132-2.833"/>
  <path class="uuid-715eb65d-d914-439e-9c5c-71bc93ca3213" d="M332.428,114.32c0,3.101-2.2,6.913-4.886,8.477"/>
  <line class="uuid-a3fed766-83d1-4e22-b922-45b68a6cb6bd" x1="327.542" y1="122.797" x2="315.33" y2="129.953"/>
  <path class="uuid-715eb65d-d914-439e-9c5c-71bc93ca3213" d="M315.33,129.953c-2.932,1.564-5.132.295-5.132-2.833"/>
  <line class="uuid-a3fed766-83d1-4e22-b922-45b68a6cb6bd" x1="310.198" y1="127.12" x2="310.198" y2="115.836"/>
  <line class="uuid-a3fed766-83d1-4e22-b922-45b68a6cb6bd" x1="332.428" y1="103.009" x2="332.428" y2="114.32"/>
  <path class="uuid-715eb65d-d914-439e-9c5c-71bc93ca3213" d="M332.428,188.311v11.289"/>
  <path class="uuid-715eb65d-d914-439e-9c5c-71bc93ca3213" d="M332.428,145.66v11.289"/>
  <path class="uuid-715eb65d-d914-439e-9c5c-71bc93ca3213" d="M159.965,213.913c0,3.105-2.2,6.913-4.886,8.477"/>
  <line class="uuid-a3fed766-83d1-4e22-b922-45b68a6cb6bd" x1="155.079" y1="222.39" x2="142.621" y2="229.55"/>
  <path class="uuid-715eb65d-d914-439e-9c5c-71bc93ca3213" d="M142.621,229.55c-2.687,1.56-4.883.291-4.883-2.836"/>
  <line class="uuid-a3fed766-83d1-4e22-b922-45b68a6cb6bd" x1="137.738" y1="226.714" x2="137.738" y2="215.429"/>
  <line class="uuid-a3fed766-83d1-4e22-b922-45b68a6cb6bd" x1="159.965" y1="202.628" x2="159.965" y2="213.913"/>
  <path class="uuid-715eb65d-d914-439e-9c5c-71bc93ca3213" d="M159.965,341.845c0,3.101-2.2,6.913-4.886,8.477"/>
  <line class="uuid-a3fed766-83d1-4e22-b922-45b68a6cb6bd" x1="155.079" y1="350.323" x2="142.621" y2="357.478"/>
  <path class="uuid-715eb65d-d914-439e-9c5c-71bc93ca3213" d="M142.621,357.478c-2.687,1.564-4.883.291-4.883-2.833"/>
  <line class="uuid-a3fed766-83d1-4e22-b922-45b68a6cb6bd" x1="137.738" y1="354.645" x2="137.738" y2="343.36"/>
  <line class="uuid-a3fed766-83d1-4e22-b922-45b68a6cb6bd" x1="159.965" y1="330.56" x2="159.965" y2="341.845"/>
  <path class="uuid-715eb65d-d914-439e-9c5c-71bc93ca3213" d="M159.965,287.908v11.285"/>
  <line class="uuid-a79fa42f-5367-402d-b314-ccda541bcc67" x1="151.903" y1="371.379" x2="128.944" y2="358.064"/>
  <line class="uuid-a79fa42f-5367-402d-b314-ccda541bcc67" x1="168.759" y1="355.01" x2="158.744" y2="349.27"/>
  <line class="uuid-a79fa42f-5367-402d-b314-ccda541bcc67" x1="137.981" y1="337.253" x2="129.43" y2="332.267"/>
  <line class="uuid-a79fa42f-5367-402d-b314-ccda541bcc67" x1="180.732" y1="335.884" x2="144.332" y2="314.875"/>
  <line class="uuid-a79fa42f-5367-402d-b314-ccda541bcc67" x1="136.027" y1="310.036" x2="129.43" y2="306.25"/>
  <line class="uuid-a79fa42f-5367-402d-b314-ccda541bcc67" x1="202.469" y1="322.326" x2="192.943" y2="316.902"/>
  <line class="uuid-a79fa42f-5367-402d-b314-ccda541bcc67" x1="172.423" y1="305.029" x2="161.676" y2="298.826"/>
  <line class="uuid-a79fa42f-5367-402d-b314-ccda541bcc67" x1="145.064" y1="289.153" x2="129.187" y2="280.016"/>
  <line class="uuid-a79fa42f-5367-402d-b314-ccda541bcc67" x1="224.947" y1="309.304" x2="215.663" y2="303.859"/>
  <line class="uuid-a79fa42f-5367-402d-b314-ccda541bcc67" x1="172.67" y1="279.138" x2="153.126" y2="267.805"/>
  <line class="uuid-a79fa42f-5367-402d-b314-ccda541bcc67" x1="136.027" y1="257.908" x2="129.43" y2="254.121"/>
  <line class="uuid-a79fa42f-5367-402d-b314-ccda541bcc67" x1="247.663" y1="296.235" x2="238.137" y2="290.789"/>
  <line class="uuid-a79fa42f-5367-402d-b314-ccda541bcc67" x1="172.423" y1="252.852" x2="161.676" y2="246.649"/>
  <line class="uuid-a79fa42f-5367-402d-b314-ccda541bcc67" x1="153.615" y1="241.91" x2="128.944" y2="227.667"/>
  <line class="uuid-a79fa42f-5367-402d-b314-ccda541bcc67" x1="270.137" y1="283.191" x2="260.853" y2="277.742"/>
  <line class="uuid-a79fa42f-5367-402d-b314-ccda541bcc67" x1="172.423" y1="226.835" x2="159.965" y2="219.531"/>
  <line class="uuid-a79fa42f-5367-402d-b314-ccda541bcc67" x1="139.202" y1="207.636" x2="129.43" y2="201.87"/>
  <line class="uuid-a79fa42f-5367-402d-b314-ccda541bcc67" x1="309.465" y1="279.821" x2="301.893" y2="275.399"/>
  <line class="uuid-a79fa42f-5367-402d-b314-ccda541bcc67" x1="292.853" y1="270.171" x2="283.327" y2="264.751"/>
  <line class="uuid-a79fa42f-5367-402d-b314-ccda541bcc67" x1="174.866" y1="202.117" x2="150.439" y2="187.996"/>
  <line class="uuid-a79fa42f-5367-402d-b314-ccda541bcc67" x1="332.182" y1="266.922" x2="317.527" y2="258.423"/>
  <line class="uuid-a79fa42f-5367-402d-b314-ccda541bcc67" x1="308.733" y1="253.319" x2="297.006" y2="246.601"/>
  <line class="uuid-a79fa42f-5367-402d-b314-ccda541bcc67" x1="197.097" y1="188.801" x2="187.568" y2="183.33"/>
  <line class="uuid-a79fa42f-5367-402d-b314-ccda541bcc67" x1="341.222" y1="245.965" x2="334.382" y2="242.104"/>
  <line class="uuid-a79fa42f-5367-402d-b314-ccda541bcc67" x1="317.527" y1="232.332" x2="296.764" y2="220.363"/>
  <line class="uuid-a79fa42f-5367-402d-b314-ccda541bcc67" x1="219.57" y1="175.78" x2="210.042" y2="170.309"/>
  <line class="uuid-a79fa42f-5367-402d-b314-ccda541bcc67" x1="341.464" y1="220.072" x2="325.588" y2="210.981"/>
  <line class="uuid-a79fa42f-5367-402d-b314-ccda541bcc67" x1="308.733" y1="201.186" x2="297.006" y2="194.472"/>
  <line class="uuid-a79fa42f-5367-402d-b314-ccda541bcc67" x1="242.044" y1="162.737" x2="232.518" y2="157.266"/>
  <line class="uuid-a79fa42f-5367-402d-b314-ccda541bcc67" x1="341.222" y1="193.762" x2="334.382" y2="189.923"/>
  <line class="uuid-a79fa42f-5367-402d-b314-ccda541bcc67" x1="326.078" y1="185.088" x2="296.517" y2="168.013"/>
  <line class="uuid-a79fa42f-5367-402d-b314-ccda541bcc67" x1="264.76" y1="149.693" x2="255.236" y2="144.222"/>
  <line class="uuid-a79fa42f-5367-402d-b314-ccda541bcc67" x1="341.222" y1="167.722" x2="332.672" y2="162.763"/>
  <line class="uuid-a79fa42f-5367-402d-b314-ccda541bcc67" x1="311.909" y1="150.841" x2="297.006" y2="142.217"/>
  <line class="uuid-a79fa42f-5367-402d-b314-ccda541bcc67" x1="287.235" y1="136.65" x2="277.956" y2="131.174"/>
  <line class="uuid-a79fa42f-5367-402d-b314-ccda541bcc67" x1="341.711" y1="141.948" x2="319.48" y2="129.123"/>
  <line class="uuid-a79fa42f-5367-402d-b314-ccda541bcc67" x1="308.49" y1="122.87" x2="300.429" y2="118.179"/>
  <line class="uuid-a79fa42f-5367-402d-b314-ccda541bcc67" x1="341.222" y1="115.59" x2="334.382" y2="111.729"/>
  <line class="uuid-a79fa42f-5367-402d-b314-ccda541bcc67" x1="319.237" y1="102.987" x2="308.975" y2="96.975"/>
  <line class="uuid-a79fa42f-5367-402d-b314-ccda541bcc67" x1="341.222" y1="89.602" x2="331.449" y2="83.983"/>
  <line class="uuid-a79fa42f-5367-402d-b314-ccda541bcc67" x1="151.903" y1="265.019" x2="139.445" y2="257.885"/>
  <line class="uuid-a79fa42f-5367-402d-b314-ccda541bcc67" x1="158.254" y1="255.736" x2="147.018" y2="249.114"/>
  <line class="uuid-a79fa42f-5367-402d-b314-ccda541bcc67" x1="151.903" y1="307.67" x2="139.445" y2="300.51"/>
  <line class="uuid-a79fa42f-5367-402d-b314-ccda541bcc67" x1="158.254" y1="298.362" x2="147.018" y2="291.765"/>
  <line class="uuid-a79fa42f-5367-402d-b314-ccda541bcc67" x1="151.903" y1="350.297" x2="139.445" y2="343.161"/>
  <line class="uuid-a79fa42f-5367-402d-b314-ccda541bcc67" x1="158.254" y1="340.987" x2="147.018" y2="334.393"/>
  <line class="uuid-a79fa42f-5367-402d-b314-ccda541bcc67" x1="151.903" y1="222.368" x2="139.445" y2="215.234"/>
  <line class="uuid-a79fa42f-5367-402d-b314-ccda541bcc67" x1="158.254" y1="213.085" x2="147.018" y2="206.463"/>
  <line class="uuid-a79fa42f-5367-402d-b314-ccda541bcc67" x1="157.279" y1="168.892" x2="147.018" y2="186.432"/>
  <line class="uuid-a79fa42f-5367-402d-b314-ccda541bcc67" x1="143.842" y1="169.772" x2="127.233" y2="198.084"/>
  <line class="uuid-a79fa42f-5367-402d-b314-ccda541bcc67" x1="123.812" y1="181.619" x2="117.703" y2="192.124"/>
  <line class="uuid-a79fa42f-5367-402d-b314-ccda541bcc67" x1="288.214" y1="111.218" x2="279.909" y2="125.972"/>
  <line class="uuid-a79fa42f-5367-402d-b314-ccda541bcc67" x1="276.488" y1="109.385" x2="260.121" y2="137.578"/>
  <line class="uuid-a79fa42f-5367-402d-b314-ccda541bcc67" x1="256.7" y1="120.744" x2="240.576" y2="148.961"/>
  <line class="uuid-a79fa42f-5367-402d-b314-ccda541bcc67" x1="237.401" y1="131.959" x2="221.036" y2="160.172"/>
  <line class="uuid-a79fa42f-5367-402d-b314-ccda541bcc67" x1="217.617" y1="143.292" x2="201.495" y2="171.509"/>
  <line class="uuid-a79fa42f-5367-402d-b314-ccda541bcc67" x1="198.073" y1="154.579" x2="181.706" y2="182.818"/>
  <line class="uuid-a79fa42f-5367-402d-b314-ccda541bcc67" x1="178.289" y1="166.427" x2="172.423" y2="176.659"/>
  <line class="uuid-a79fa42f-5367-402d-b314-ccda541bcc67" x1="329.495" y1="69.078" x2="318.995" y2="87.28"/>
  <line class="uuid-a79fa42f-5367-402d-b314-ccda541bcc67" x1="315.573" y1="70.498" x2="299.451" y2="98.539"/>
  <line class="uuid-a79fa42f-5367-402d-b314-ccda541bcc67" x1="295.785" y1="82.395" x2="289.925" y2="92.336"/>
  <line class="uuid-a79fa42f-5367-402d-b314-ccda541bcc67" x1="298.717" y1="109.19" x2="282.105" y2="99.76"/>
  <line class="uuid-a79fa42f-5367-402d-b314-ccda541bcc67" x1="298.228" y1="277.427" x2="292.853" y2="274.325"/>
  <line class="uuid-a79fa42f-5367-402d-b314-ccda541bcc67" x1="125.523" y1="381.416" x2="123.812" y2="382.443"/>
  <line class="uuid-a79fa42f-5367-402d-b314-ccda541bcc67" x1="126.012" y1="368.126" x2="112.086" y2="376.14"/>
  <line class="uuid-a79fa42f-5367-402d-b314-ccda541bcc67" x1="126.012" y1="355.062" x2="109.643" y2="364.514"/>
  <line class="uuid-a79fa42f-5367-402d-b314-ccda541bcc67" x1="126.012" y1="342.04" x2="109.643" y2="351.496"/>
  <line class="uuid-a79fa42f-5367-402d-b314-ccda541bcc67" x1="126.012" y1="328.996" x2="109.643" y2="338.422"/>
  <line class="uuid-a79fa42f-5367-402d-b314-ccda541bcc67" x1="126.012" y1="315.949" x2="109.643" y2="325.405"/>
  <line class="uuid-a79fa42f-5367-402d-b314-ccda541bcc67" x1="126.012" y1="302.931" x2="109.643" y2="312.385"/>
  <line class="uuid-a79fa42f-5367-402d-b314-ccda541bcc67" x1="126.012" y1="289.911" x2="109.643" y2="299.363"/>
  <line class="uuid-a79fa42f-5367-402d-b314-ccda541bcc67" x1="126.012" y1="276.867" x2="109.643" y2="286.319"/>
  <line class="uuid-a79fa42f-5367-402d-b314-ccda541bcc67" x1="126.012" y1="263.846" x2="109.643" y2="273.298"/>
  <line class="uuid-a79fa42f-5367-402d-b314-ccda541bcc67" x1="126.012" y1="250.798" x2="109.643" y2="260.254"/>
  <line class="uuid-a79fa42f-5367-402d-b314-ccda541bcc67" x1="126.012" y1="237.733" x2="109.643" y2="247.186"/>
  <line class="uuid-a79fa42f-5367-402d-b314-ccda541bcc67" x1="126.012" y1="224.712" x2="109.643" y2="234.165"/>
  <line class="uuid-a79fa42f-5367-402d-b314-ccda541bcc67" x1="126.012" y1="211.669" x2="109.643" y2="221.121"/>
  <line class="uuid-a79fa42f-5367-402d-b314-ccda541bcc67" x1="124.301" y1="199.648" x2="109.643" y2="208.073"/>
  <line class="uuid-a79fa42f-5367-402d-b314-ccda541bcc67" x1="112.575" y1="193.371" x2="110.132" y2="194.787"/>
  <line class="uuid-a79fa42f-5367-402d-b314-ccda541bcc67" x1="324.367" y1="165.374" x2="311.909" y2="158.17"/>
  <line class="uuid-a79fa42f-5367-402d-b314-ccda541bcc67" x1="330.717" y1="156.044" x2="319.48" y2="149.499"/>
  <line class="uuid-a79fa42f-5367-402d-b314-ccda541bcc67" x1="324.367" y1="208.025" x2="311.909" y2="200.821"/>
  <line class="uuid-a79fa42f-5367-402d-b314-ccda541bcc67" x1="330.717" y1="198.695" x2="319.48" y2="192.15"/>
  <line class="uuid-a79fa42f-5367-402d-b314-ccda541bcc67" x1="324.367" y1="122.749" x2="311.909" y2="115.52"/>
  <line class="uuid-a79fa42f-5367-402d-b314-ccda541bcc67" x1="330.717" y1="113.392" x2="319.48" y2="106.87"/>
  <line class="uuid-a79fa42f-5367-402d-b314-ccda541bcc67" x1="324.367" y1="250.678" x2="311.909" y2="243.448"/>
  <line class="uuid-a79fa42f-5367-402d-b314-ccda541bcc67" x1="330.717" y1="241.346" x2="319.48" y2="234.801"/>
</svg>