<?xml version="1.0" encoding="UTF-8"?>
<svg id="uuid-245de9f2-79af-499e-ae2c-245972f40a19" data-name="&amp;lt;Layer&amp;gt;" xmlns="http://www.w3.org/2000/svg" viewBox="0 0 451.11 451.11">
  <defs>
    <style>
      .uuid-097d24df-1baf-4672-88fb-9f0bd14ae09a, .uuid-cde4c239-dfa1-4c84-8010-a31c92a15738, .uuid-a7f30313-f1cc-47b7-bbb3-d2c74d2885a5 {
        fill: none;
        stroke: #000;
        stroke-linecap: round;
      }

      .uuid-097d24df-1baf-4672-88fb-9f0bd14ae09a, .uuid-a7f30313-f1cc-47b7-bbb3-d2c74d2885a5 {
        stroke-linejoin: round;
        stroke-width: 4.117px;
      }

      .uuid-cde4c239-dfa1-4c84-8010-a31c92a15738 {
        stroke-miterlimit: 10;
        stroke-width: 1.163px;
      }

      .uuid-a7f30313-f1cc-47b7-bbb3-d2c74d2885a5 {
        fill-rule: evenodd;
      }
    </style>
  </defs>
  <path class="uuid-a7f30313-f1cc-47b7-bbb3-d2c74d2885a5" d="M134.449,200.214c-6.693,4.003-11.215,9.404-15.17,16.02-.048.052-.048.125-.096.173-.489.88-.953,1.686-1.394,2.565-.828,1.685-1.586,3.371-2.27,5.108-.637,1.685-1.173,3.421-1.638,5.228-.221,1.047-.463,2.026-.584,3.123-.1.637-.221,1.343-.221,1.979-.174,1.053-.221,2.2-.221,3.323"/>
  <path class="uuid-a7f30313-f1cc-47b7-bbb3-d2c74d2885a5" d="M130.958,373.553c-.052-.048-.122-.122-.122-.173-.099-.07-.173-.122-.173-.17-.221-.243-.463-.464-.636-.754-.122-.125-.221-.247-.291-.419-.343-.411-.637-.802-.88-1.269-.221-.415-.463-.754-.562-1.173-.174-.339-.343-.633-.417-.975-.169-.291-.291-.585-.341-.88-.17-.511-.295-.975-.417-1.516,0-.047,0-.169-.047-.217-.122-.758-.244-1.516-.295-2.274-.122-.805-.122-1.733-.17-2.612"/>
  <path class="uuid-a7f30313-f1cc-47b7-bbb3-d2c74d2885a5" d="M126.487,245.625v-.125c.048-1.149.121-2.27.243-3.371.048-.754.169-1.516.269-2.196.195-.931.367-1.857.588-2.737.122-.463.17-.854.365-1.317.1-.489.221-.883.343-1.346.464-1.391.979-2.782,1.563-4.129.122-.291.221-.632.343-1.001"/>
  <path class="uuid-a7f30313-f1cc-47b7-bbb3-d2c74d2885a5" d="M130.248,229.355c.758-1.685,1.637-3.37,2.565-5.106,0,0,.047-.048.047-.122"/>
  <path class="uuid-a7f30313-f1cc-47b7-bbb3-d2c74d2885a5" d="M132.937,224.126c.243-.389.463-.805.68-1.147,1.053-1.807,2.274-3.543,3.618-5.176.806-1.053,1.611-1.979,2.491-2.911,1.173-1.269,2.443-2.443,3.712-3.466.71-.588,1.394-1.173,2.152-1.685.17-.173.413-.321.585-.415.636-.465,1.269-.858,1.927-1.221"/>
  <path class="uuid-a7f30313-f1cc-47b7-bbb3-d2c74d2885a5" d="M316.56,110.832c.684-.393,1.32-.758,1.953-.979.125-.122.247-.173.419-.173.585-.291,1.171-.537,1.733-.707.586-.221,1.175-.389,1.759-.512.585-.172,1.221-.293,1.807-.367,1.663-.221,3.418-.173,5.276.317"/>
  <polyline class="uuid-a7f30313-f1cc-47b7-bbb3-d2c74d2885a5" points="147.86 364.465 173.366 349.758 211.911 327.483 252.146 304.251 272.249 292.673"/>
  <polyline class="uuid-a7f30313-f1cc-47b7-bbb3-d2c74d2885a5" points="273.42 292.036 306.865 272.717 318.591 265.946"/>
  <path class="uuid-a7f30313-f1cc-47b7-bbb3-d2c74d2885a5" d="M331.314,128.051c0-8.135-5.814-11.431-12.849-7.377-97.956,56.573-72.745,41.945-170.726,98.518-7.087,4.055-12.827,14.022-12.827,22.157"/>
  <polyline class="uuid-a7f30313-f1cc-47b7-bbb3-d2c74d2885a5" points="207.098 151.723 206.683 157.927 207.198 158.222 214.354 162.35 214.745 156.242"/>
  <path class="uuid-a7f30313-f1cc-47b7-bbb3-d2c74d2885a5" d="M214.745,156.242v-.173c.073-.291.121-.634.173-.927.073-.343.195-.637.317-.976.095-.245.173-.514.267-.757.586-1.223,1.344-2.274,2.517-3.128,0,0,.048,0,.096-.074.247-.221.467-.415.758-.588.463-.217,1.001-.511,1.464-.802,2.2-1.151,4.35-2.495,6.502-3.838"/>
  <path class="uuid-a7f30313-f1cc-47b7-bbb3-d2c74d2885a5" d="M234.8,140.292c.854-.295,1.321-.489,1.98-.295.096-.073.17-.073.217.048.052.074.126.074.222.122.073-.048.121.047.121.047"/>
  <path class="uuid-a7f30313-f1cc-47b7-bbb3-d2c74d2885a5" d="M237.464,140.292c-.073,0-.073-.078-.125-.078,0,0-.048-.095-.121-.047-.048-.122-.096-.122-.222-.122"/>
  <polyline class="uuid-a7f30313-f1cc-47b7-bbb3-d2c74d2885a5" points="238.392 142.952 238.097 148.67 214.354 162.373"/>
  <path class="uuid-a7f30313-f1cc-47b7-bbb3-d2c74d2885a5" d="M215.966,145.617c.706-12.436,3.712-23.527,7.719-33.64,3.955-9.769,8.503-17.979,12.848-25.502"/>
  <polyline class="uuid-a7f30313-f1cc-47b7-bbb3-d2c74d2885a5" points="236.533 86.475 243.448 74.578 254.125 81.566 247.284 93.436"/>
  <path class="uuid-a7f30313-f1cc-47b7-bbb3-d2c74d2885a5" d="M247.284,93.436c-3.373,5.886-10.994,19.203-13.537,25.506-2.369,5.982-4.124,11.578-4.543,19.051"/>
  <polyline class="uuid-a7f30313-f1cc-47b7-bbb3-d2c74d2885a5" points="132.859 224.104 119.232 216.212 119.11 216.381"/>
  <line class="uuid-097d24df-1baf-4672-88fb-9f0bd14ae09a" x1="207.198" y1="158.222" x2="134.449" y2="200.214"/>
  <line class="uuid-097d24df-1baf-4672-88fb-9f0bd14ae09a" x1="112.856" y1="237.733" x2="112.954" y2="353.232"/>
  <path class="uuid-a7f30313-f1cc-47b7-bbb3-d2c74d2885a5" d="M112.954,353.232c.122,4.809.927,8.868,4.346,12.434"/>
  <line class="uuid-097d24df-1baf-4672-88fb-9f0bd14ae09a" x1="117.3" y1="365.665" x2="130.958" y2="373.553"/>
  <line class="uuid-097d24df-1baf-4672-88fb-9f0bd14ae09a" x1="126.608" y1="361.121" x2="126.487" y2="245.625"/>
  <line class="uuid-097d24df-1baf-4672-88fb-9f0bd14ae09a" x1="130.2" y1="229.403" x2="130.248" y2="229.355"/>
  <line class="uuid-097d24df-1baf-4672-88fb-9f0bd14ae09a" x1="132.859" y1="224.126" x2="132.937" y2="224.126"/>
  <line class="uuid-097d24df-1baf-4672-88fb-9f0bd14ae09a" x1="148.103" y1="208.104" x2="316.56" y2="110.832"/>
  <line class="uuid-097d24df-1baf-4672-88fb-9f0bd14ae09a" x1="329.508" y1="108.411" x2="315.854" y2="100.496"/>
  <path class="uuid-a7f30313-f1cc-47b7-bbb3-d2c74d2885a5" d="M315.854,100.496c-4.813-1.173-8.772.174-12.949,2.492"/>
  <line class="uuid-097d24df-1baf-4672-88fb-9f0bd14ae09a" x1="302.905" y1="102.988" x2="237.755" y2="140.557"/>
  <line class="uuid-097d24df-1baf-4672-88fb-9f0bd14ae09a" x1="148.277" y1="373.601" x2="316.733" y2="276.355"/>
  <path class="uuid-a7f30313-f1cc-47b7-bbb3-d2c74d2885a5" d="M316.733,276.355c11.895-6.891,21.667-23.743,21.595-37.475"/>
  <line class="uuid-097d24df-1baf-4672-88fb-9f0bd14ae09a" x1="338.327" y1="238.881" x2="338.205" y2="123.338"/>
  <path class="uuid-a7f30313-f1cc-47b7-bbb3-d2c74d2885a5" d="M338.205,123.338c0-13.706-9.747-19.347-21.646-12.484"/>
  <path class="uuid-a7f30313-f1cc-47b7-bbb3-d2c74d2885a5" d="M148.103,208.104c-11.917,6.865-21.667,23.742-21.667,37.495"/>
  <path class="uuid-a7f30313-f1cc-47b7-bbb3-d2c74d2885a5" d="M126.608,361.121c0,13.728,9.747,19.345,21.669,12.48"/>
  <path class="uuid-a7f30313-f1cc-47b7-bbb3-d2c74d2885a5" d="M318.591,265.946c7.082-4.055,12.822-14.044,12.822-22.153"/>
  <line class="uuid-097d24df-1baf-4672-88fb-9f0bd14ae09a" x1="331.413" y1="243.793" x2="331.314" y2="128.051"/>
  <line class="uuid-097d24df-1baf-4672-88fb-9f0bd14ae09a" x1="134.913" y1="241.349" x2="135.013" y2="357.066"/>
  <path class="uuid-a7f30313-f1cc-47b7-bbb3-d2c74d2885a5" d="M135.013,357.066c0,8.135,5.762,11.454,12.848,7.399"/>
  <line class="uuid-097d24df-1baf-4672-88fb-9f0bd14ae09a" x1="226.423" y1="260.869" x2="240.883" y2="252.513"/>
  <path class="uuid-a7f30313-f1cc-47b7-bbb3-d2c74d2885a5" d="M240.883,252.513c2.906-1.664,5.276-5.791,5.276-9.136"/>
  <line class="uuid-097d24df-1baf-4672-88fb-9f0bd14ae09a" x1="246.159" y1="243.377" x2="246.111" y2="226.691"/>
  <path class="uuid-a7f30313-f1cc-47b7-bbb3-d2c74d2885a5" d="M246.111,226.691c0-3.345-2.37-4.713-5.276-3.028"/>
  <line class="uuid-097d24df-1baf-4672-88fb-9f0bd14ae09a" x1="240.835" y1="223.663" x2="226.375" y2="231.993"/>
  <path class="uuid-a7f30313-f1cc-47b7-bbb3-d2c74d2885a5" d="M226.375,231.993c-2.91,1.685-5.228,5.787-5.228,9.161"/>
  <line class="uuid-097d24df-1baf-4672-88fb-9f0bd14ae09a" x1="221.147" y1="241.155" x2="221.147" y2="257.837"/>
  <path class="uuid-a7f30313-f1cc-47b7-bbb3-d2c74d2885a5" d="M221.147,257.837c0,3.349,2.369,4.717,5.276,3.032"/>
  <line class="uuid-097d24df-1baf-4672-88fb-9f0bd14ae09a" x1="169.702" y1="293.626" x2="155.238" y2="301.957"/>
  <path class="uuid-a7f30313-f1cc-47b7-bbb3-d2c74d2885a5" d="M155.238,301.957c-2.908,1.684-5.302.315-5.302-3.054"/>
  <line class="uuid-097d24df-1baf-4672-88fb-9f0bd14ae09a" x1="149.936" y1="298.903" x2="149.936" y2="282.243"/>
  <path class="uuid-a7f30313-f1cc-47b7-bbb3-d2c74d2885a5" d="M149.936,282.243c0-3.371,2.395-7.477,5.302-9.163"/>
  <line class="uuid-097d24df-1baf-4672-88fb-9f0bd14ae09a" x1="155.238" y1="273.08" x2="169.702" y2="264.751"/>
  <path class="uuid-a7f30313-f1cc-47b7-bbb3-d2c74d2885a5" d="M169.702,264.751c2.906-1.686,5.276-.317,5.276,3.028"/>
  <line class="uuid-097d24df-1baf-4672-88fb-9f0bd14ae09a" x1="174.978" y1="267.779" x2="174.978" y2="284.465"/>
  <path class="uuid-a7f30313-f1cc-47b7-bbb3-d2c74d2885a5" d="M174.978,284.465c0,3.37-2.37,7.476-5.276,9.161"/>
  <line class="uuid-097d24df-1baf-4672-88fb-9f0bd14ae09a" x1="169.628" y1="252.536" x2="155.238" y2="260.891"/>
  <path class="uuid-a7f30313-f1cc-47b7-bbb3-d2c74d2885a5" d="M155.238,260.891c-2.954,1.663-5.302.295-5.302-3.054"/>
  <line class="uuid-097d24df-1baf-4672-88fb-9f0bd14ae09a" x1="149.936" y1="257.837" x2="149.888" y2="241.155"/>
  <path class="uuid-a7f30313-f1cc-47b7-bbb3-d2c74d2885a5" d="M149.888,241.155c0-3.374,2.396-7.477,5.276-9.135"/>
  <line class="uuid-097d24df-1baf-4672-88fb-9f0bd14ae09a" x1="155.164" y1="232.019" x2="169.628" y2="223.663"/>
  <path class="uuid-a7f30313-f1cc-47b7-bbb3-d2c74d2885a5" d="M169.628,223.663c2.906-1.685,5.299-.317,5.299,3.054"/>
  <line class="uuid-097d24df-1baf-4672-88fb-9f0bd14ae09a" x1="174.926" y1="226.717" x2="174.926" y2="243.399"/>
  <path class="uuid-a7f30313-f1cc-47b7-bbb3-d2c74d2885a5" d="M174.926,243.399c0,3.349-2.392,7.451-5.299,9.137"/>
  <line class="uuid-097d24df-1baf-4672-88fb-9f0bd14ae09a" x1="190.828" y1="210.619" x2="205.292" y2="202.29"/>
  <path class="uuid-a7f30313-f1cc-47b7-bbb3-d2c74d2885a5" d="M205.292,202.29c2.907-1.685,5.276-.321,5.276,3.028"/>
  <line class="uuid-097d24df-1baf-4672-88fb-9f0bd14ae09a" x1="210.568" y1="205.318" x2="210.568" y2="222.004"/>
  <path class="uuid-a7f30313-f1cc-47b7-bbb3-d2c74d2885a5" d="M210.568,222.004c0,3.344-2.321,7.45-5.228,9.135"/>
  <line class="uuid-097d24df-1baf-4672-88fb-9f0bd14ae09a" x1="205.34" y1="231.139" x2="190.88" y2="239.492"/>
  <path class="uuid-a7f30313-f1cc-47b7-bbb3-d2c74d2885a5" d="M190.88,239.492c-2.958,1.685-5.281.319-5.281-3.054"/>
  <line class="uuid-097d24df-1baf-4672-88fb-9f0bd14ae09a" x1="185.6" y1="236.438" x2="185.552" y2="219.756"/>
  <path class="uuid-a7f30313-f1cc-47b7-bbb3-d2c74d2885a5" d="M185.552,219.756c0-3.349,2.37-7.451,5.277-9.137"/>
  <line class="uuid-097d24df-1baf-4672-88fb-9f0bd14ae09a" x1="226.423" y1="190.074" x2="240.883" y2="181.722"/>
  <path class="uuid-a7f30313-f1cc-47b7-bbb3-d2c74d2885a5" d="M240.883,181.722c2.906-1.689,5.276-.295,5.276,3.05"/>
  <line class="uuid-097d24df-1baf-4672-88fb-9f0bd14ae09a" x1="246.159" y1="184.772" x2="246.159" y2="201.458"/>
  <path class="uuid-a7f30313-f1cc-47b7-bbb3-d2c74d2885a5" d="M246.159,201.458c0,3.345-2.37,7.472-5.276,9.137"/>
  <line class="uuid-097d24df-1baf-4672-88fb-9f0bd14ae09a" x1="240.883" y1="210.595" x2="226.496" y2="218.95"/>
  <path class="uuid-a7f30313-f1cc-47b7-bbb3-d2c74d2885a5" d="M226.496,218.95c-2.98,1.684-5.301.291-5.301-3.054"/>
  <line class="uuid-097d24df-1baf-4672-88fb-9f0bd14ae09a" x1="221.195" y1="215.896" x2="221.147" y2="199.21"/>
  <path class="uuid-a7f30313-f1cc-47b7-bbb3-d2c74d2885a5" d="M221.147,199.21c0-3.345,2.369-7.45,5.276-9.135"/>
  <line class="uuid-097d24df-1baf-4672-88fb-9f0bd14ae09a" x1="169.702" y1="305.838" x2="155.238" y2="314.168"/>
  <path class="uuid-a7f30313-f1cc-47b7-bbb3-d2c74d2885a5" d="M155.238,314.168c-2.908,1.663-5.302,5.792-5.302,9.136"/>
  <line class="uuid-097d24df-1baf-4672-88fb-9f0bd14ae09a" x1="149.936" y1="323.304" x2="150.01" y2="339.99"/>
  <path class="uuid-a7f30313-f1cc-47b7-bbb3-d2c74d2885a5" d="M150.01,339.99c0,3.371,2.369,4.714,5.276,3.054"/>
  <line class="uuid-097d24df-1baf-4672-88fb-9f0bd14ae09a" x1="155.286" y1="343.044" x2="169.75" y2="334.689"/>
  <path class="uuid-a7f30313-f1cc-47b7-bbb3-d2c74d2885a5" d="M169.75,334.689c2.906-1.686,5.276-5.766,5.228-9.137"/>
  <line class="uuid-097d24df-1baf-4672-88fb-9f0bd14ae09a" x1="174.978" y1="325.552" x2="174.978" y2="308.87"/>
  <path class="uuid-a7f30313-f1cc-47b7-bbb3-d2c74d2885a5" d="M174.978,308.87c0-3.349-2.37-4.717-5.276-3.032"/>
  <line class="uuid-097d24df-1baf-4672-88fb-9f0bd14ae09a" x1="190.828" y1="281.411" x2="205.292" y2="273.08"/>
  <path class="uuid-a7f30313-f1cc-47b7-bbb3-d2c74d2885a5" d="M205.292,273.08c2.907-1.685,5.276-5.812,5.276-9.158"/>
  <line class="uuid-097d24df-1baf-4672-88fb-9f0bd14ae09a" x1="210.568" y1="263.923" x2="210.52" y2="247.237"/>
  <path class="uuid-a7f30313-f1cc-47b7-bbb3-d2c74d2885a5" d="M210.52,247.237c0-3.349-2.321-4.717-5.228-3.028"/>
  <line class="uuid-097d24df-1baf-4672-88fb-9f0bd14ae09a" x1="205.292" y1="244.209" x2="190.828" y2="252.536"/>
  <path class="uuid-a7f30313-f1cc-47b7-bbb3-d2c74d2885a5" d="M190.828,252.536c-2.907,1.689-5.277,5.79-5.277,9.161"/>
  <line class="uuid-097d24df-1baf-4672-88fb-9f0bd14ae09a" x1="185.552" y1="261.697" x2="185.552" y2="278.382"/>
  <path class="uuid-a7f30313-f1cc-47b7-bbb3-d2c74d2885a5" d="M185.552,278.382c0,3.349,2.37,4.713,5.277,3.028"/>
  <line class="uuid-097d24df-1baf-4672-88fb-9f0bd14ae09a" x1="297.63" y1="219.778" x2="312.09" y2="211.447"/>
  <path class="uuid-a7f30313-f1cc-47b7-bbb3-d2c74d2885a5" d="M312.09,211.447c2.906-1.685,5.203-5.814,5.203-9.157"/>
  <line class="uuid-097d24df-1baf-4672-88fb-9f0bd14ae09a" x1="317.292" y1="202.29" x2="317.292" y2="185.604"/>
  <path class="uuid-a7f30313-f1cc-47b7-bbb3-d2c74d2885a5" d="M317.292,185.604c0-3.349-2.367-4.715-5.273-3.054"/>
  <line class="uuid-097d24df-1baf-4672-88fb-9f0bd14ae09a" x1="312.02" y1="182.55" x2="297.556" y2="190.905"/>
  <path class="uuid-a7f30313-f1cc-47b7-bbb3-d2c74d2885a5" d="M297.556,190.905c-2.882,1.686-5.276,5.788-5.276,9.137"/>
  <line class="uuid-097d24df-1baf-4672-88fb-9f0bd14ae09a" x1="292.28" y1="200.042" x2="292.354" y2="216.724"/>
  <path class="uuid-a7f30313-f1cc-47b7-bbb3-d2c74d2885a5" d="M292.354,216.724c0,3.373,2.369,4.739,5.276,3.054"/>
  <line class="uuid-097d24df-1baf-4672-88fb-9f0bd14ae09a" x1="297.556" y1="178.69" x2="312.02" y2="170.36"/>
  <path class="uuid-a7f30313-f1cc-47b7-bbb3-d2c74d2885a5" d="M312.02,170.36c2.906-1.686,5.273-5.788,5.273-9.137"/>
  <line class="uuid-097d24df-1baf-4672-88fb-9f0bd14ae09a" x1="317.292" y1="161.224" x2="317.292" y2="144.516"/>
  <path class="uuid-a7f30313-f1cc-47b7-bbb3-d2c74d2885a5" d="M317.292,144.516c-.048-3.347-2.367-4.713-5.273-3.028"/>
  <line class="uuid-097d24df-1baf-4672-88fb-9f0bd14ae09a" x1="312.02" y1="141.488" x2="297.556" y2="149.818"/>
  <path class="uuid-a7f30313-f1cc-47b7-bbb3-d2c74d2885a5" d="M297.556,149.818c-2.882,1.685-5.276,5.788-5.276,9.135"/>
  <line class="uuid-097d24df-1baf-4672-88fb-9f0bd14ae09a" x1="292.28" y1="158.953" x2="292.28" y2="175.661"/>
  <path class="uuid-a7f30313-f1cc-47b7-bbb3-d2c74d2885a5" d="M292.28,175.661c0,3.349,2.395,4.714,5.276,3.028"/>
  <line class="uuid-097d24df-1baf-4672-88fb-9f0bd14ae09a" x1="262.039" y1="169.532" x2="276.473" y2="161.176"/>
  <path class="uuid-a7f30313-f1cc-47b7-bbb3-d2c74d2885a5" d="M276.473,161.176c2.908-1.685,5.302-.293,5.302,3.054"/>
  <line class="uuid-097d24df-1baf-4672-88fb-9f0bd14ae09a" x1="281.775" y1="164.23" x2="281.775" y2="180.912"/>
  <path class="uuid-a7f30313-f1cc-47b7-bbb3-d2c74d2885a5" d="M281.775,180.912c0,3.349-2.395,7.452-5.302,9.163"/>
  <line class="uuid-097d24df-1baf-4672-88fb-9f0bd14ae09a" x1="276.473" y1="190.074" x2="262.039" y2="198.404"/>
  <path class="uuid-a7f30313-f1cc-47b7-bbb3-d2c74d2885a5" d="M262.039,198.404c-2.906,1.686-5.302.294-5.302-3.053"/>
  <line class="uuid-097d24df-1baf-4672-88fb-9f0bd14ae09a" x1="256.736" y1="195.351" x2="256.736" y2="178.668"/>
  <path class="uuid-a7f30313-f1cc-47b7-bbb3-d2c74d2885a5" d="M256.736,178.668c0-3.348,2.396-7.451,5.302-9.136"/>
  <line class="uuid-097d24df-1baf-4672-88fb-9f0bd14ae09a" x1="297.63" y1="231.993" x2="312.09" y2="223.637"/>
  <path class="uuid-a7f30313-f1cc-47b7-bbb3-d2c74d2885a5" d="M312.09,223.637c2.906-1.685,5.279-.316,5.279,3.054"/>
  <line class="uuid-097d24df-1baf-4672-88fb-9f0bd14ae09a" x1="317.369" y1="226.691" x2="317.369" y2="243.377"/>
  <path class="uuid-a7f30313-f1cc-47b7-bbb3-d2c74d2885a5" d="M317.369,243.377c0,3.345-2.373,7.45-5.279,9.136"/>
  <line class="uuid-097d24df-1baf-4672-88fb-9f0bd14ae09a" x1="312.09" y1="252.513" x2="297.63" y2="260.869"/>
  <path class="uuid-a7f30313-f1cc-47b7-bbb3-d2c74d2885a5" d="M297.63,260.869c-2.907,1.66-5.276.291-5.276-3.054"/>
  <line class="uuid-097d24df-1baf-4672-88fb-9f0bd14ae09a" x1="292.354" y1="257.814" x2="292.354" y2="241.129"/>
  <path class="uuid-a7f30313-f1cc-47b7-bbb3-d2c74d2885a5" d="M292.354,241.129c0-3.37,2.369-7.476,5.276-9.135"/>
  <line class="uuid-097d24df-1baf-4672-88fb-9f0bd14ae09a" x1="262.039" y1="240.324" x2="276.473" y2="231.993"/>
  <path class="uuid-a7f30313-f1cc-47b7-bbb3-d2c74d2885a5" d="M276.473,231.993c2.908-1.711,5.302-5.814,5.302-9.161"/>
  <line class="uuid-097d24df-1baf-4672-88fb-9f0bd14ae09a" x1="281.775" y1="222.832" x2="281.701" y2="206.149"/>
  <path class="uuid-a7f30313-f1cc-47b7-bbb3-d2c74d2885a5" d="M281.701,206.149c0-3.347-2.369-4.713-5.275-3.031"/>
  <line class="uuid-097d24df-1baf-4672-88fb-9f0bd14ae09a" x1="276.426" y1="203.118" x2="261.965" y2="211.447"/>
  <path class="uuid-a7f30313-f1cc-47b7-bbb3-d2c74d2885a5" d="M261.965,211.447c-2.906,1.689-5.276,5.792-5.228,9.139"/>
  <line class="uuid-097d24df-1baf-4672-88fb-9f0bd14ae09a" x1="256.736" y1="220.587" x2="256.736" y2="237.296"/>
  <path class="uuid-a7f30313-f1cc-47b7-bbb3-d2c74d2885a5" d="M256.736,237.296c0,3.344,2.396,4.713,5.302,3.028"/>
  <line class="uuid-097d24df-1baf-4672-88fb-9f0bd14ae09a" x1="190.78" y1="323.304" x2="276.426" y2="273.86"/>
  <path class="uuid-a7f30313-f1cc-47b7-bbb3-d2c74d2885a5" d="M276.426,273.86c2.906-1.685,5.275-5.788,5.275-9.135"/>
  <line class="uuid-097d24df-1baf-4672-88fb-9f0bd14ae09a" x1="281.701" y1="264.725" x2="281.701" y2="248.043"/>
  <path class="uuid-a7f30313-f1cc-47b7-bbb3-d2c74d2885a5" d="M281.701,248.043c0-3.371-2.369-4.739-5.275-3.054"/>
  <line class="uuid-097d24df-1baf-4672-88fb-9f0bd14ae09a" x1="276.426" y1="244.989" x2="190.78" y2="294.432"/>
  <path class="uuid-a7f30313-f1cc-47b7-bbb3-d2c74d2885a5" d="M190.78,294.432c-2.906,1.685-5.301,5.788-5.301,9.135"/>
  <line class="uuid-097d24df-1baf-4672-88fb-9f0bd14ae09a" x1="185.479" y1="303.568" x2="185.479" y2="320.251"/>
  <path class="uuid-a7f30313-f1cc-47b7-bbb3-d2c74d2885a5" d="M185.479,320.251c0,3.374,2.395,4.739,5.301,3.053"/>
  <line class="uuid-097d24df-1baf-4672-88fb-9f0bd14ae09a" x1="216.209" y1="142.316" x2="211.569" y2="145.053"/>
  <path class="uuid-a7f30313-f1cc-47b7-bbb3-d2c74d2885a5" d="M211.569,145.053c-2.685,1.391-4.128,3.764-4.47,6.67"/>
  <line class="uuid-097d24df-1baf-4672-88fb-9f0bd14ae09a" x1="226.838" y1="144.979" x2="234.8" y2="140.292"/>
  <line class="uuid-097d24df-1baf-4672-88fb-9f0bd14ae09a" x1="236.996" y1="140.046" x2="229.745" y2="135.796"/>
  <path class="uuid-a7f30313-f1cc-47b7-bbb3-d2c74d2885a5" d="M234.8,140.292c2.076-1.247,3.712.122,3.592,2.66"/>
  <line class="uuid-097d24df-1baf-4672-88fb-9f0bd14ae09a" x1="229.205" y1="137.992" x2="215.966" y2="145.617"/>
  <path class="uuid-a7f30313-f1cc-47b7-bbb3-d2c74d2885a5" d="M119.11,216.381c-3.763,6.818-6.155,13.463-6.328,21.33"/>
  <path class="uuid-a7f30313-f1cc-47b7-bbb3-d2c74d2885a5" d="M126.435,245.599c.173-7.888,2.543-14.51,6.377-21.325"/>
  <line class="uuid-cde4c239-dfa1-4c84-8010-a31c92a15738" x1="336.373" y1="240.908" x2="333.272" y2="246.284"/>
  <line class="uuid-cde4c239-dfa1-4c84-8010-a31c92a15738" x1="321.788" y1="266.219" x2="317.491" y2="273.644"/>
  <line class="uuid-cde4c239-dfa1-4c84-8010-a31c92a15738" x1="336.421" y1="218.24" x2="333.392" y2="223.494"/>
  <line class="uuid-cde4c239-dfa1-4c84-8010-a31c92a15738" x1="302.1" y1="277.746" x2="297.851" y2="285.075"/>
  <line class="uuid-cde4c239-dfa1-4c84-8010-a31c92a15738" x1="336.421" y1="195.718" x2="333.392" y2="200.969"/>
  <line class="uuid-cde4c239-dfa1-4c84-8010-a31c92a15738" x1="282.533" y1="289.009" x2="278.283" y2="296.36"/>
  <line class="uuid-cde4c239-dfa1-4c84-8010-a31c92a15738" x1="336.373" y1="173.146" x2="333.392" y2="178.374"/>
  <line class="uuid-cde4c239-dfa1-4c84-8010-a31c92a15738" x1="263.062" y1="300.172" x2="258.716" y2="307.649"/>
  <line class="uuid-cde4c239-dfa1-4c84-8010-a31c92a15738" x1="336.373" y1="150.65" x2="333.344" y2="155.853"/>
  <line class="uuid-cde4c239-dfa1-4c84-8010-a31c92a15738" x1="243.494" y1="311.457" x2="239.198" y2="318.933"/>
  <line class="uuid-cde4c239-dfa1-4c84-8010-a31c92a15738" x1="336.373" y1="128.125" x2="333.344" y2="133.305"/>
  <line class="uuid-cde4c239-dfa1-4c84-8010-a31c92a15738" x1="223.932" y1="322.766" x2="219.631" y2="330.218"/>
  <line class="uuid-cde4c239-dfa1-4c84-8010-a31c92a15738" x1="332.536" y1="112.075" x2="328.872" y2="118.452"/>
  <line class="uuid-cde4c239-dfa1-4c84-8010-a31c92a15738" x1="204.413" y1="334.051" x2="200.063" y2="341.506"/>
  <line class="uuid-cde4c239-dfa1-4c84-8010-a31c92a15738" x1="320.03" y1="111.221" x2="314.459" y2="120.869"/>
  <line class="uuid-cde4c239-dfa1-4c84-8010-a31c92a15738" x1="184.845" y1="345.34" x2="180.544" y2="352.79"/>
  <line class="uuid-cde4c239-dfa1-4c84-8010-a31c92a15738" x1="300.635" y1="122.237" x2="294.892" y2="132.18"/>
  <line class="uuid-cde4c239-dfa1-4c84-8010-a31c92a15738" x1="165.279" y1="356.651" x2="160.978" y2="364.101"/>
  <line class="uuid-cde4c239-dfa1-4c84-8010-a31c92a15738" x1="281.069" y1="133.522" x2="275.329" y2="143.467"/>
  <line class="uuid-cde4c239-dfa1-4c84-8010-a31c92a15738" x1="146.055" y1="367.398" x2="142.12" y2="374.189"/>
  <line class="uuid-cde4c239-dfa1-4c84-8010-a31c92a15738" x1="261.498" y1="144.811" x2="255.81" y2="154.726"/>
  <line class="uuid-cde4c239-dfa1-4c84-8010-a31c92a15738" x1="134.965" y1="364.001" x2="131.126" y2="370.695"/>
  <line class="uuid-cde4c239-dfa1-4c84-8010-a31c92a15738" x1="241.935" y1="156.095" x2="236.242" y2="165.988"/>
  <line class="uuid-cde4c239-dfa1-4c84-8010-a31c92a15738" x1="133.18" y1="344.56" x2="128.588" y2="352.496"/>
  <line class="uuid-cde4c239-dfa1-4c84-8010-a31c92a15738" x1="222.368" y1="167.405" x2="216.724" y2="177.248"/>
  <line class="uuid-cde4c239-dfa1-4c84-8010-a31c92a15738" x1="133.18" y1="321.986" x2="128.515" y2="329.927"/>
  <line class="uuid-cde4c239-dfa1-4c84-8010-a31c92a15738" x1="202.849" y1="178.69" x2="197.157" y2="188.51"/>
  <line class="uuid-cde4c239-dfa1-4c84-8010-a31c92a15738" x1="133.106" y1="299.414" x2="128.515" y2="307.428"/>
  <line class="uuid-cde4c239-dfa1-4c84-8010-a31c92a15738" x1="183.329" y1="189.952" x2="177.638" y2="199.795"/>
  <line class="uuid-cde4c239-dfa1-4c84-8010-a31c92a15738" x1="133.106" y1="276.892" x2="128.515" y2="284.906"/>
  <line class="uuid-cde4c239-dfa1-4c84-8010-a31c92a15738" x1="163.715" y1="201.263" x2="158.07" y2="211.084"/>
  <line class="uuid-cde4c239-dfa1-4c84-8010-a31c92a15738" x1="133.106" y1="254.319" x2="128.463" y2="262.359"/>
  <line class="uuid-cde4c239-dfa1-4c84-8010-a31c92a15738" x1="143.438" y1="213.817" x2="129.221" y2="238.491"/>
  <line class="uuid-cde4c239-dfa1-4c84-8010-a31c92a15738" x1="228.693" y1="129.324" x2="219.045" y2="134.891"/>
  <line class="uuid-cde4c239-dfa1-4c84-8010-a31c92a15738" x1="234.606" y1="112.859" x2="222.831" y2="119.648"/>
  <line class="uuid-cde4c239-dfa1-4c84-8010-a31c92a15738" x1="245.132" y1="93.777" x2="229.841" y2="102.571"/>
  <line class="uuid-cde4c239-dfa1-4c84-8010-a31c92a15738" x1="247.501" y1="79.343" x2="240.662" y2="83.298"/>
  <line class="uuid-cde4c239-dfa1-4c84-8010-a31c92a15738" x1="124.923" y1="357.625" x2="114.687" y2="339.943"/>
  <line class="uuid-cde4c239-dfa1-4c84-8010-a31c92a15738" x1="124.923" y1="335.03" x2="114.687" y2="317.321"/>
  <line class="uuid-cde4c239-dfa1-4c84-8010-a31c92a15738" x1="124.849" y1="312.362" x2="114.639" y2="294.675"/>
  <line class="uuid-cde4c239-dfa1-4c84-8010-a31c92a15738" x1="124.849" y1="289.741" x2="114.639" y2="272.079"/>
  <line class="uuid-cde4c239-dfa1-4c84-8010-a31c92a15738" x1="124.803" y1="267.146" x2="114.639" y2="249.485"/>
  <line class="uuid-cde4c239-dfa1-4c84-8010-a31c92a15738" x1="124.849" y1="244.598" x2="115.81" y2="228.865"/>
  <line class="uuid-cde4c239-dfa1-4c84-8010-a31c92a15738" x1="128.636" y1="228.55" x2="124.508" y2="221.463"/>
  <line class="uuid-cde4c239-dfa1-4c84-8010-a31c92a15738" x1="141.804" y1="210.572" x2="136.355" y2="201.091"/>
  <line class="uuid-cde4c239-dfa1-4c84-8010-a31c92a15738" x1="161.052" y1="198.65" x2="155.922" y2="189.832"/>
  <line class="uuid-cde4c239-dfa1-4c84-8010-a31c92a15738" x1="180.544" y1="187.363" x2="175.489" y2="178.547"/>
  <line class="uuid-cde4c239-dfa1-4c84-8010-a31c92a15738" x1="200.111" y1="176.078" x2="195.008" y2="167.258"/>
  <line class="uuid-cde4c239-dfa1-4c84-8010-a31c92a15738" x1="219.583" y1="164.573" x2="218.287" y2="162.398"/>
  <line class="uuid-cde4c239-dfa1-4c84-8010-a31c92a15738" x1="239.098" y1="153.284" x2="237.877" y2="151.113"/>
  <line class="uuid-cde4c239-dfa1-4c84-8010-a31c92a15738" x1="258.764" y1="142.22" x2="253.661" y2="133.375"/>
  <line class="uuid-cde4c239-dfa1-4c84-8010-a31c92a15738" x1="278.357" y1="130.91" x2="273.224" y2="122.116"/>
  <line class="uuid-cde4c239-dfa1-4c84-8010-a31c92a15738" x1="297.921" y1="119.622" x2="292.791" y2="110.832"/>
  <line class="uuid-cde4c239-dfa1-4c84-8010-a31c92a15738" x1="317.439" y1="108.311" x2="313.775" y2="102.012"/>
  <line class="uuid-cde4c239-dfa1-4c84-8010-a31c92a15738" x1="329.728" y1="205.344" x2="318.638" y2="224.591"/>
  <line class="uuid-cde4c239-dfa1-4c84-8010-a31c92a15738" x1="296.529" y1="262.892" x2="284.438" y2="283.755"/>
  <line class="uuid-cde4c239-dfa1-4c84-8010-a31c92a15738" x1="329.728" y1="160.197" x2="317.292" y2="181.744"/>
  <line class="uuid-cde4c239-dfa1-4c84-8010-a31c92a15738" x1="294.307" y1="221.609" x2="281.36" y2="243.962"/>
  <line class="uuid-cde4c239-dfa1-4c84-8010-a31c92a15738" x1="256.225" y1="287.519" x2="245.478" y2="306.158"/>
  <line class="uuid-cde4c239-dfa1-4c84-8010-a31c92a15738" x1="326.427" y1="120.722" x2="315.559" y2="139.534"/>
  <line class="uuid-cde4c239-dfa1-4c84-8010-a31c92a15738" x1="292.522" y1="179.548" x2="279.968" y2="201.263"/>
  <line class="uuid-cde4c239-dfa1-4c84-8010-a31c92a15738" x1="256.858" y1="241.225" x2="245.548" y2="260.917"/>
  <line class="uuid-cde4c239-dfa1-4c84-8010-a31c92a15738" x1="217.14" y1="310.091" x2="206.392" y2="328.728"/>
  <line class="uuid-cde4c239-dfa1-4c84-8010-a31c92a15738" x1="289.667" y1="139.262" x2="278.283" y2="159.05"/>
  <line class="uuid-cde4c239-dfa1-4c84-8010-a31c92a15738" x1="255.932" y1="197.746" x2="242.104" y2="221.683"/>
  <line class="uuid-cde4c239-dfa1-4c84-8010-a31c92a15738" x1="220.094" y1="259.769" x2="206.34" y2="283.633"/>
  <line class="uuid-cde4c239-dfa1-4c84-8010-a31c92a15738" x1="184.43" y1="321.549" x2="167.037" y2="351.691"/>
  <line class="uuid-cde4c239-dfa1-4c84-8010-a31c92a15738" x1="250.581" y1="161.861" x2="239.834" y2="180.4"/>
  <line class="uuid-cde4c239-dfa1-4c84-8010-a31c92a15738" x1="219.679" y1="215.286" x2="203.36" y2="243.547"/>
  <line class="uuid-cde4c239-dfa1-4c84-8010-a31c92a15738" x1="184.087" y1="277.014" x2="167.77" y2="305.206"/>
  <line class="uuid-cde4c239-dfa1-4c84-8010-a31c92a15738" x1="148.376" y1="338.842" x2="136.819" y2="358.873"/>
  <line class="uuid-cde4c239-dfa1-4c84-8010-a31c92a15738" x1="211.496" y1="184.383" x2="200.749" y2="202.922"/>
  <line class="uuid-cde4c239-dfa1-4c84-8010-a31c92a15738" x1="183.793" y1="232.335" x2="176.832" y2="244.426"/>
  <line class="uuid-cde4c239-dfa1-4c84-8010-a31c92a15738" x1="171.555" y1="253.587" x2="164.594" y2="265.582"/>
  <line class="uuid-cde4c239-dfa1-4c84-8010-a31c92a15738" x1="148.324" y1="293.773" x2="136.723" y2="313.878"/>
  <line class="uuid-cde4c239-dfa1-4c84-8010-a31c92a15738" x1="172.435" y1="206.907" x2="160.93" y2="226.765"/>
  <line class="uuid-cde4c239-dfa1-4c84-8010-a31c92a15738" x1="148.324" y1="248.653" x2="136.723" y2="268.783"/>
  <line class="uuid-cde4c239-dfa1-4c84-8010-a31c92a15738" x1="214.917" y1="150.841" x2="210.52" y2="148.276"/>
  <line class="uuid-cde4c239-dfa1-4c84-8010-a31c92a15738" x1="225.076" y1="143.663" x2="224.273" y2="143.198"/>
  <line class="uuid-cde4c239-dfa1-4c84-8010-a31c92a15738" x1="232.456" y1="143.858" x2="227.424" y2="152.674"/>
</svg>