<?xml version="1.0" encoding="UTF-8"?>
<svg id="uuid-4c383aa6-bd54-48a4-89e0-20304af798ca" data-name="&amp;lt;Layer&amp;gt;" xmlns="http://www.w3.org/2000/svg" viewBox="0 0 451.11 451.11">
  <defs>
    <style>
      .uuid-37645715-17b1-434a-aab2-caeda22ef9f5, .uuid-6fc8d6c7-6e7f-42aa-8b88-612e8d30c6c0, .uuid-040dbeae-edfa-4dae-ad5f-516d3f0fa9d4, .uuid-8ee51c78-4987-448b-8b2f-46a2c3f40451 {
        stroke-linecap: round;
      }

      .uuid-37645715-17b1-434a-aab2-caeda22ef9f5, .uuid-6fc8d6c7-6e7f-42aa-8b88-612e8d30c6c0, .uuid-040dbeae-edfa-4dae-ad5f-516d3f0fa9d4, .uuid-8ee51c78-4987-448b-8b2f-46a2c3f40451, .uuid-35bc3fd7-6838-4fa7-944c-7cc4b905f793, .uuid-1a6b156a-f81a-4fa5-93d0-c444869b7d22, .uuid-ae5f23ca-1b4d-4d5f-8a14-4dee43ba4af4, .uuid-616a5db0-e363-494d-8bc2-8317954820ba, .uuid-666232df-e284-40f9-95f2-33a6d94d6712, .uuid-0d98fd53-8aeb-428f-ab6e-1627809c1c11, .uuid-73dcb03f-1b1e-4dcf-9e3b-2ab8f63b18b9 {
        fill: none;
        stroke: #000;
      }

      .uuid-37645715-17b1-434a-aab2-caeda22ef9f5, .uuid-8ee51c78-4987-448b-8b2f-46a2c3f40451, .uuid-35bc3fd7-6838-4fa7-944c-7cc4b905f793, .uuid-616a5db0-e363-494d-8bc2-8317954820ba, .uuid-666232df-e284-40f9-95f2-33a6d94d6712, .uuid-0d98fd53-8aeb-428f-ab6e-1627809c1c11, .uuid-73dcb03f-1b1e-4dcf-9e3b-2ab8f63b18b9 {
        stroke-width: 4.113px;
      }

      .uuid-37645715-17b1-434a-aab2-caeda22ef9f5, .uuid-8ee51c78-4987-448b-8b2f-46a2c3f40451, .uuid-666232df-e284-40f9-95f2-33a6d94d6712, .uuid-0d98fd53-8aeb-428f-ab6e-1627809c1c11 {
        stroke-linejoin: round;
      }

      .uuid-6fc8d6c7-6e7f-42aa-8b88-612e8d30c6c0 {
        stroke-width: 1.163px;
      }

      .uuid-6fc8d6c7-6e7f-42aa-8b88-612e8d30c6c0, .uuid-040dbeae-edfa-4dae-ad5f-516d3f0fa9d4 {
        stroke-miterlimit: 10;
      }

      .uuid-040dbeae-edfa-4dae-ad5f-516d3f0fa9d4 {
        stroke-width: 1.159px;
      }

      .uuid-8ee51c78-4987-448b-8b2f-46a2c3f40451, .uuid-35bc3fd7-6838-4fa7-944c-7cc4b905f793, .uuid-1a6b156a-f81a-4fa5-93d0-c444869b7d22, .uuid-ae5f23ca-1b4d-4d5f-8a14-4dee43ba4af4, .uuid-616a5db0-e363-494d-8bc2-8317954820ba, .uuid-666232df-e284-40f9-95f2-33a6d94d6712 {
        fill-rule: evenodd;
      }

      .uuid-35bc3fd7-6838-4fa7-944c-7cc4b905f793, .uuid-1a6b156a-f81a-4fa5-93d0-c444869b7d22, .uuid-73dcb03f-1b1e-4dcf-9e3b-2ab8f63b18b9 {
        stroke-miterlimit: 22.926;
      }

      .uuid-1a6b156a-f81a-4fa5-93d0-c444869b7d22, .uuid-ae5f23ca-1b4d-4d5f-8a14-4dee43ba4af4 {
        stroke-width: 4.117px;
      }

      .uuid-ae5f23ca-1b4d-4d5f-8a14-4dee43ba4af4, .uuid-616a5db0-e363-494d-8bc2-8317954820ba {
        stroke-linejoin: bevel;
      }
    </style>
  </defs>
  <path class="uuid-666232df-e284-40f9-95f2-33a6d94d6712" d="M102.323,232.688c-8.889,5.156-15.266,11.259-19.614,18.979-5.35,9.404-11.675,32.977,1.027,40.355"/>
  <polyline class="uuid-666232df-e284-40f9-95f2-33a6d94d6712" points="83.736 292.022 144.732 327.347 144.902 327.222"/>
  <path class="uuid-666232df-e284-40f9-95f2-33a6d94d6712" d="M144.902,327.222c-.17-.122-.339-.169-.511-.291-2.344-1.343-4.25-3.249-5.718-5.74-1.807-3.08-2.833-7.087-2.833-11.8,0-10.457,3.301-19.273,8.724-26.653,5.324-7.252,12.653-13.116,20.883-17.881,9.357-5.398,18.641-10.795,27.997-16.146"/>
  <path class="uuid-666232df-e284-40f9-95f2-33a6d94d6712" d="M262.843,139.935l1.097-.637,24.11-13.874c.858-.515,9.04-6.572,19.325-.636l56.795,32.756"/>
  <path class="uuid-666232df-e284-40f9-95f2-33a6d94d6712" d="M364.17,157.544c-.511-.169-1.027-.363-1.564-.489-.585-.169-1.171-.265-1.807-.337-.684-.1-1.442-.174-2.2-.174-3.54,0-7.33,1.101-11.09,3.253-3.786,2.22-14.217,8.184-18.003,10.402-2.443,1.394-4.934,2.836-7.377,4.228"/>
  <path class="uuid-35bc3fd7-6838-4fa7-944c-7cc4b905f793" d="M193.443,248.712c-9.356,5.35-18.639,10.747-27.997,16.146-8.231,4.765-15.559,10.629-20.883,17.881-5.423,7.38-8.724,16.196-8.724,26.653,0,4.713,1.027,8.72,2.833,11.8,1.468,2.491,3.374,4.396,5.718,5.74.173.122.341.169.511.291,2.152,1.101,4.595,1.689,7.134,1.689,3.496,0,7.33-1.125,11.09-3.253"/>
  <path class="uuid-1a6b156a-f81a-4fa5-93d0-c444869b7d22" d="M163.126,325.658l173-99.836,9.063-5.228c8.234-4.761,15.559-10.625,20.909-17.881,5.401-7.378,8.698-16.194,8.698-26.65,0-4.713-1.049-8.694-2.833-11.799-5.423-9.211-15.839-9.394-24.453-4.468-3.786,2.22-14.217,8.184-18.003,10.402-2.443,1.394-4.934,2.836-7.377,4.228"/>
  <path class="uuid-35bc3fd7-6838-4fa7-944c-7cc4b905f793" d="M323.936,191.38c7.892-4.518,15.78-9.115,23.695-13.632,1.099-.633,2.491-1.002,3.885-1.002,1.221,0,2.613.291,3.834.88,1.343.633,2.565,1.637,3.421,3.076.633,1.099,1.049,2.443,1.049,4.007,0,3.249-1.097,6.203-2.859,8.724-1.854,2.784-4.565,5.03-7.351,6.619l-9.404,5.445-4.081,2.322-173.122,99.888"/>
  <path class="uuid-616a5db0-e363-494d-8bc2-8317954820ba" d="M323.936,179.901c-.243.927-.754,1.733-1.512,2.612-.71.854-1.737,1.686-3.028,2.44"/>
  <path class="uuid-616a5db0-e363-494d-8bc2-8317954820ba" d="M224.636,239.697c-3.712,2.175-8.672,3.028-13.242,2.565-.463,0-.927-.048-1.464-.169-.121.048-.169,0-.221,0-.537-.048-1.121-.173-1.633-.369-.563-.095-1.153-.269-1.69-.437"/>
  <path class="uuid-ae5f23ca-1b4d-4d5f-8a14-4dee43ba4af4" d="M133.348,197.952v13.58c.221,1.005.563,1.807,1.221,2.491.636.88,1.564,1.59,2.613,2.222l56.261,32.467,10.332,5.986c2.027,1.101,4.422,1.781,6.865,2.076"/>
  <path class="uuid-1a6b156a-f81a-4fa5-93d0-c444869b7d22" d="M224.636,239.675c-5.938,3.393-15.218,3.64-20.667.487l-67.236-38.792c-5.487-3.128-5.07-8.477.842-11.895l94.707-54.768c5.934-3.419,15.218-3.64,20.689-.511l67.252,38.788c5.445,3.127,5.054,8.477-.854,11.935-31.576,18.264-63.179,36.5-94.733,54.756Z"/>
  <path class="uuid-35bc3fd7-6838-4fa7-944c-7cc4b905f793" d="M163.003,307.707c-1.099.633-2.491.975-3.885.975-1.221,0-2.613-.269-3.834-.853-1.317-.633-2.539-1.638-3.418-3.076-.637-1.101-1.053-2.443-1.053-4.085,0-3.175,1.123-6.151,2.858-8.646,1.859-2.785,4.57-5.056,7.378-6.62,16.539-9.577,33.026-19.103,49.59-28.629,4.809.537,9.989-.389,13.996-2.616l94.587-54.694c3.833-2.268,4.713-3.912,4.713-8.084v-11.48"/>
  <path class="uuid-35bc3fd7-6838-4fa7-944c-7cc4b905f793" d="M146.053,184.588c-1.663,1.516-.758,3.959,1.39,5.18,15.512,8.938,31.658,18.294,47.097,27.188,10.041,5.79,20.152,11.6,30.197,17.418,2.144,1.195,5.567,1.442,8.205.511"/>
  <path class="uuid-35bc3fd7-6838-4fa7-944c-7cc4b905f793" d="M313.773,188.131c1.686-1.49.758-3.933-1.39-5.154-25.554-14.754-51.102-29.509-76.656-44.193-2.101-1.291-6.402-1.686-9.063-.754"/>
  <path class="uuid-8ee51c78-4987-448b-8b2f-46a2c3f40451" d="M218.113,213.29c3.569-2.053,7.157-4.128,10.747-6.229.052-.048.126-.048.196-.096,3.642-2.1,7.306-4.18,10.968-6.328"/>
  <path class="uuid-8ee51c78-4987-448b-8b2f-46a2c3f40451" d="M180.543,191.623c4.374,2.491,8.772,5.06,13.116,7.551,1.347.754,3.447.754,4.765,0,1.979-1.149,4.007-2.322,6.056-3.496,1.321-.758,1.321-1.979,0-2.712-3.54-2.097-7.156-4.129-10.747-6.229-1.269-.755-1.269-1.977,0-2.709,2.027-1.173,4.055-2.395,6.082-3.544,1.295-.757,3.443-.757,4.765,0,4.007,2.37,8.086,4.688,12.141,7.009"/>
  <path class="uuid-8ee51c78-4987-448b-8b2f-46a2c3f40451" d="M247.501,196.266c-5.156-2.958-10.332-5.986-15.486-8.941,3.712-2.152,18.224-10.505,21.936-12.653,5.176,3.028,10.357,5.983,15.512,8.937-3.666,2.152-7.33,4.254-10.968,6.329-3.666,2.1-7.33,4.25-10.994,6.328Z"/>
  <line class="uuid-0d98fd53-8aeb-428f-ab6e-1627809c1c11" x1="134.57" y1="214.023" x2="102.323" y2="232.688"/>
  <line class="uuid-73dcb03f-1b1e-4dcf-9e3b-2ab8f63b18b9" x1="232.941" y1="234.885" x2="232.989" y2="234.885"/>
  <line class="uuid-73dcb03f-1b1e-4dcf-9e3b-2ab8f63b18b9" x1="226.664" y1="138.03" x2="226.616" y2="138.03"/>
  <path class="uuid-8ee51c78-4987-448b-8b2f-46a2c3f40451" d="M224.516,191.671c-3.716,2.152-7.428,4.302-11.09,6.45"/>
  <path class="uuid-8ee51c78-4987-448b-8b2f-46a2c3f40451" d="M228.86,207.013c-5.154-2.958-10.331-5.934-15.511-8.941"/>
  <path class="uuid-8ee51c78-4987-448b-8b2f-46a2c3f40451" d="M238.095,166.412c-7.302,4.18-14.58,8.429-21.888,12.679"/>
  <line class="uuid-37645715-17b1-434a-aab2-caeda22ef9f5" x1="238.095" y1="166.412" x2="232.65" y2="163.215"/>
  <line class="uuid-37645715-17b1-434a-aab2-caeda22ef9f5" x1="294.475" y1="184.831" x2="288.515" y2="181.413"/>
  <line class="uuid-37645715-17b1-434a-aab2-caeda22ef9f5" x1="282.579" y1="177.921" x2="276.593" y2="174.5"/>
  <line class="uuid-6fc8d6c7-6e7f-42aa-8b88-612e8d30c6c0" x1="85.03" y1="290.63" x2="78.46" y2="279.199"/>
  <line class="uuid-6fc8d6c7-6e7f-42aa-8b88-612e8d30c6c0" x1="125.26" y1="315.157" x2="85.615" y2="246.489"/>
  <line class="uuid-6fc8d6c7-6e7f-42aa-8b88-612e8d30c6c0" x1="138.576" y1="293.023" x2="103.203" y2="231.809"/>
  <line class="uuid-6fc8d6c7-6e7f-42aa-8b88-612e8d30c6c0" x1="153.209" y1="273.261" x2="122.943" y2="220.767"/>
  <line class="uuid-6fc8d6c7-6e7f-42aa-8b88-612e8d30c6c0" x1="171.775" y1="260.217" x2="152.378" y2="226.629"/>
  <line class="uuid-6fc8d6c7-6e7f-42aa-8b88-612e8d30c6c0" x1="306.396" y1="194.408" x2="297.456" y2="209.969"/>
  <line class="uuid-6fc8d6c7-6e7f-42aa-8b88-612e8d30c6c0" x1="267.311" y1="217.055" x2="258.321" y2="232.615"/>
  <line class="uuid-6fc8d6c7-6e7f-42aa-8b88-612e8d30c6c0" x1="228.18" y1="239.65" x2="219.703" y2="254.283"/>
  <line class="uuid-6fc8d6c7-6e7f-42aa-8b88-612e8d30c6c0" x1="201.453" y1="240.746" x2="196.862" y2="248.664"/>
  <line class="uuid-6fc8d6c7-6e7f-42aa-8b88-612e8d30c6c0" x1="181.887" y1="229.439" x2="177.294" y2="237.38"/>
  <line class="uuid-6fc8d6c7-6e7f-42aa-8b88-612e8d30c6c0" x1="162.371" y1="218.177" x2="157.775" y2="226.069"/>
  <line class="uuid-6fc8d6c7-6e7f-42aa-8b88-612e8d30c6c0" x1="142.8" y1="206.893" x2="138.208" y2="214.807"/>
  <line class="uuid-6fc8d6c7-6e7f-42aa-8b88-612e8d30c6c0" x1="164.568" y1="304.969" x2="156.458" y2="290.875"/>
  <line class="uuid-6fc8d6c7-6e7f-42aa-8b88-612e8d30c6c0" x1="174.388" y1="299.352" x2="165.741" y2="284.351"/>
  <line class="uuid-6fc8d6c7-6e7f-42aa-8b88-612e8d30c6c0" x1="184.16" y1="293.707" x2="175.51" y2="278.736"/>
  <line class="uuid-6fc8d6c7-6e7f-42aa-8b88-612e8d30c6c0" x1="193.976" y1="288.093" x2="185.308" y2="273.044"/>
  <line class="uuid-6fc8d6c7-6e7f-42aa-8b88-612e8d30c6c0" x1="203.723" y1="282.448" x2="195.077" y2="267.399"/>
  <line class="uuid-6fc8d6c7-6e7f-42aa-8b88-612e8d30c6c0" x1="213.474" y1="276.804" x2="204.824" y2="261.781"/>
  <line class="uuid-6fc8d6c7-6e7f-42aa-8b88-612e8d30c6c0" x1="223.242" y1="271.064" x2="215.913" y2="258.41"/>
  <line class="uuid-6fc8d6c7-6e7f-42aa-8b88-612e8d30c6c0" x1="232.989" y1="265.373" x2="226.834" y2="254.746"/>
  <line class="uuid-6fc8d6c7-6e7f-42aa-8b88-612e8d30c6c0" x1="242.736" y1="259.754" x2="236.605" y2="249.102"/>
  <line class="uuid-6fc8d6c7-6e7f-42aa-8b88-612e8d30c6c0" x1="252.556" y1="254.11" x2="246.4" y2="243.435"/>
  <line class="uuid-6fc8d6c7-6e7f-42aa-8b88-612e8d30c6c0" x1="262.328" y1="248.418" x2="256.173" y2="237.792"/>
  <line class="uuid-6fc8d6c7-6e7f-42aa-8b88-612e8d30c6c0" x1="272.126" y1="242.777" x2="265.919" y2="232.152"/>
  <line class="uuid-6fc8d6c7-6e7f-42aa-8b88-612e8d30c6c0" x1="281.895" y1="237.159" x2="275.74" y2="226.459"/>
  <line class="uuid-6fc8d6c7-6e7f-42aa-8b88-612e8d30c6c0" x1="291.642" y1="231.514" x2="285.487" y2="220.841"/>
  <line class="uuid-6fc8d6c7-6e7f-42aa-8b88-612e8d30c6c0" x1="301.463" y1="225.897" x2="295.233" y2="215.197"/>
  <line class="uuid-6fc8d6c7-6e7f-42aa-8b88-612e8d30c6c0" x1="311.209" y1="220.252" x2="305.053" y2="209.504"/>
  <line class="uuid-6fc8d6c7-6e7f-42aa-8b88-612e8d30c6c0" x1="320.956" y1="214.612" x2="314.799" y2="203.86"/>
  <line class="uuid-6fc8d6c7-6e7f-42aa-8b88-612e8d30c6c0" x1="330.775" y1="208.993" x2="324.057" y2="197.315"/>
  <line class="uuid-6fc8d6c7-6e7f-42aa-8b88-612e8d30c6c0" x1="340.596" y1="203.471" x2="331.95" y2="188.426"/>
  <line class="uuid-6fc8d6c7-6e7f-42aa-8b88-612e8d30c6c0" x1="350.368" y1="197.778" x2="341.769" y2="182.807"/>
  <line class="uuid-6fc8d6c7-6e7f-42aa-8b88-612e8d30c6c0" x1="357.598" y1="187.69" x2="352.322" y2="178.553"/>
  <line class="uuid-040dbeae-edfa-4dae-ad5f-516d3f0fa9d4" x1="279.393" y1="148.721" x2="272.248" y2="136.392"/>
  <line class="uuid-6fc8d6c7-6e7f-42aa-8b88-612e8d30c6c0" x1="317.902" y1="170.25" x2="291.178" y2="124.03"/>
  <line class="uuid-6fc8d6c7-6e7f-42aa-8b88-612e8d30c6c0" x1="339.716" y1="162.994" x2="324.325" y2="136.34"/>
</svg>