<?xml version="1.0" encoding="UTF-8"?>
<svg id="uuid-7b8faeca-2f94-401f-99da-fc6a817b38be" data-name="&amp;lt;Layer&amp;gt;" xmlns="http://www.w3.org/2000/svg" viewBox="0 0 451.11 451.11">
  <defs>
    <style>
      .uuid-35ba9281-a242-4377-97b6-ae1b729fc4fc, .uuid-c660313c-d392-4058-8c8a-045625ceb459, .uuid-660c473c-9c9a-4a01-8677-254b607f2af9 {
        fill: none;
        stroke: #000;
        stroke-linecap: round;
      }

      .uuid-35ba9281-a242-4377-97b6-ae1b729fc4fc, .uuid-660c473c-9c9a-4a01-8677-254b607f2af9 {
        stroke-linejoin: round;
        stroke-width: 4.113px;
      }

      .uuid-c660313c-d392-4058-8c8a-045625ceb459 {
        stroke-miterlimit: 10;
        stroke-width: 1.163px;
      }

      .uuid-660c473c-9c9a-4a01-8677-254b607f2af9 {
        fill-rule: evenodd;
      }
    </style>
  </defs>
  <path class="uuid-660c473c-9c9a-4a01-8677-254b607f2af9" d="M361.267,169.737c.169.122.291.243.389.415.317.343.489.854.489,1.514"/>
  <path class="uuid-660c473c-9c9a-4a01-8677-254b607f2af9" d="M362.145,241.971c0,.953-.341,1.979-.879,2.932-.122.217-.295.437-.515.682-.074.051-.074.125-.074.125"/>
  <polyline class="uuid-660c473c-9c9a-4a01-8677-254b607f2af9" points="319.516 268.989 319.396 268.941 313.755 265.618"/>
  <path class="uuid-660c473c-9c9a-4a01-8677-254b607f2af9" d="M313.755,265.618s-.051,0-.099-.051c-.074,0-.196-.074-.247-.122"/>
  <path class="uuid-660c473c-9c9a-4a01-8677-254b607f2af9" d="M306.448,262.369c-.417,0-.806.096-1.219.291-.419.122-.883.343-1.272.589"/>
  <polyline class="uuid-660c473c-9c9a-4a01-8677-254b607f2af9" points="281.652 278.441 271.026 296.859 270.905 297.032"/>
  <path class="uuid-660c473c-9c9a-4a01-8677-254b607f2af9" d="M270.905,297.032c-.291.511-.585.928-.927,1.269-.343.369-.707.71-1.175.954"/>
  <polyline class="uuid-660c473c-9c9a-4a01-8677-254b607f2af9" points="334.613 232.86 328.12 236.646 296.116 255.113 295.821 255.283 295.189 254.866 284.268 248.615 284.195 248.615"/>
  <polyline class="uuid-660c473c-9c9a-4a01-8677-254b607f2af9" points="310.628 127.06 292.157 137.737 284.659 142.035 284.659 142.109 284.611 142.109"/>
  <path class="uuid-660c473c-9c9a-4a01-8677-254b607f2af9" d="M167.062,273.874v24.38c.121,2.148.489,3.785,2.343,5.054"/>
  <path class="uuid-660c473c-9c9a-4a01-8677-254b607f2af9" d="M223.004,334.26c-1.859-1.269-2.222-2.858-2.322-5.054v-79.273c.169-2.954.927-5.104,2.322-7.645"/>
  <path class="uuid-660c473c-9c9a-4a01-8677-254b607f2af9" d="M169.405,211.263c-1.464,2.615-2.222,4.765-2.343,7.723v21.248"/>
  <polyline class="uuid-660c473c-9c9a-4a01-8677-254b607f2af9" points="313.409 265.445 313.287 265.397 308.769 262.782 308.769 262.782 308.696 262.712 308.696 262.712 308.648 262.66 308.6 262.66 302.662 259.242 302.662 259.242"/>
  <polyline class="uuid-660c473c-9c9a-4a01-8677-254b607f2af9" points="275.548 274.901 275.548 274.901 264.923 293.32 264.801 293.49"/>
  <polyline class="uuid-660c473c-9c9a-4a01-8677-254b607f2af9" points="262.722 295.712 228.28 315.573 228.28 248.884"/>
  <path class="uuid-660c473c-9c9a-4a01-8677-254b607f2af9" d="M228.28,248.884c0-.927.341-1.954.879-2.906.511-.858,1.269-1.663,2.075-2.128"/>
  <path class="uuid-660c473c-9c9a-4a01-8677-254b607f2af9" d="M167.941,274.508c-.295-.243-.562-.463-.879-.633-28.851-20.398-83.276-59.826-86.573-79.514"/>
  <path class="uuid-660c473c-9c9a-4a01-8677-254b607f2af9" d="M80.196,164.119v-.589c0-1.39.121-2.782.415-4.176,1.685-8.599,8.109-16.439,17.588-22.937,9.109-6.277,21.082-11.458,34.152-14.876,25.722-6.744,55.988-6.961,77.288,3.197,20.62,9.869,37.571,10.284,54.01,10.627,9.456.221,18.761.463,28.508,2.373"/>
  <path class="uuid-660c473c-9c9a-4a01-8677-254b607f2af9" d="M245.477,164.631c-2.396,1.049-4.081,1.611-4.935,1.516-33.466-4.254-55.697-30.439-115.91-9.869-10.362,3.54-26.432,11.09-33.983,20.789"/>
  <path class="uuid-660c473c-9c9a-4a01-8677-254b607f2af9" d="M87.695,181.997c3.837,4.717,10.283,10.799,18.176,17.54,2.563,2.274,5.276,4.57,8.135,6.841,1.217,1.003,2.418,2.052,3.712,3.079,2.149,1.759,4.346,3.544,6.62,5.35,2.2,1.807,4.518,3.543,6.839,5.349,2.101,1.612,4.177,3.249,6.277,4.861,1.516,1.173,3.032,2.274,4.522,3.444,2.101,1.616,4.25,3.179,6.399,4.739,3.296,2.517,6.618,4.96,9.867,7.33,2.101,1.516,4.179,3.028,6.108,4.47.927.71,1.857,1.342,2.711,1.979.317.221.658.463.879.636"/>
  <path class="uuid-660c473c-9c9a-4a01-8677-254b607f2af9" d="M110.853,135.243c1.685-.805,3.418-1.637,5.18-2.369,1.733-.754,3.544-1.516,5.397-2.149,1.053-.415,2.101-.805,3.202-1.173"/>
  <polyline class="uuid-660c473c-9c9a-4a01-8677-254b607f2af9" points="284.611 142.109 284.659 142.109 284.659 142.035"/>
  <path class="uuid-660c473c-9c9a-4a01-8677-254b607f2af9" d="M85.545,179.215c0,.048.048.048.048.122.636.806,1.343,1.659,2.101,2.615"/>
  <path class="uuid-660c473c-9c9a-4a01-8677-254b607f2af9" d="M87.695,181.953c-.758-.957-1.465-1.809-2.101-2.615,0-.074-.048-.074-.048-.122-.806-1.051-1.442-2.027-1.979-2.98-2.27-4.055-3.297-8.183-3.37-12.115v-.589c0-1.39.121-2.782.415-4.176,1.685-8.599,8.109-16.439,17.588-22.937,9.109-6.277,21.082-11.458,34.152-14.876,25.722-6.744,55.988-6.961,77.288,3.197,20.62,9.869,37.571,10.284,54.01,10.627,9.456.221,18.761.463,28.508,2.373"/>
  <path class="uuid-660c473c-9c9a-4a01-8677-254b607f2af9" d="M169.042,122.174c-11.822,0-23.964,1.685-35.3,4.643-3.153.828-6.155,1.759-9.109,2.734-1.101.369-2.149.758-3.202,1.173-1.853.633-3.664,1.395-5.397,2.149-1.763.732-3.496,1.564-5.18,2.369-3.466,1.737-6.668,3.666-9.574,5.645-4.986,3.422-8.989,7.13-11.678,11.137-.048.052-.048.122-.096.173-1.809,2.613-2.98,5.424-3.568,8.21-.343,1.832-.391,3.807-.096,5.835v.148c.291,2.369,1.147,4.812,2.491,7.23.511,1.005,1.343,2.174,2.318,3.447,4.886,6.151,14.684,15.096,26.822,25.133,14.706,12.215,32.71,25.796,49.591,38.034,1.637,1.221,3.201,2.395,4.834,3.544"/>
  <polygon class="uuid-660c473c-9c9a-4a01-8677-254b607f2af9" points="187.387 244.536 178.983 239.675 167.941 246.052 176.37 250.859 187.387 244.536"/>
  <polygon class="uuid-660c473c-9c9a-4a01-8677-254b607f2af9" points="176.37 250.859 167.941 246.052 167.941 281.594 176.37 286.403 176.37 250.859"/>
  <polygon class="uuid-660c473c-9c9a-4a01-8677-254b607f2af9" points="187.387 280.005 187.387 244.536 176.37 250.859 176.37 286.403 187.387 280.005"/>
  <path class="uuid-660c473c-9c9a-4a01-8677-254b607f2af9" d="M231.234,320.971c-.806.463-1.564.463-2.075.169-.537-.291-.879-1.001-.879-1.928"/>
  <polyline class="uuid-660c473c-9c9a-4a01-8677-254b607f2af9" points="231.234 243.85 337.572 182.464 356.038 171.839 356.038 171.787 356.207 171.717 359.287 169.98"/>
  <path class="uuid-660c473c-9c9a-4a01-8677-254b607f2af9" d="M359.287,169.98c.806-.463,1.464-.537,1.979-.243.169.122.291.243.389.415.317.343.489.854.489,1.514"/>
  <path class="uuid-660c473c-9c9a-4a01-8677-254b607f2af9" d="M368.593,249.127c-1.391,2.444-3.371,4.592-5.519,5.814-51.934,29.95-81.543,47.099-135.721,78.341-1.615.906-3.127,1.27-4.348.979-.417-.073-.806-.173-1.175-.415-.341-.221-.636-.463-.853-.732-.074,0-.074-.074-.074-.074"/>
  <polyline class="uuid-660c473c-9c9a-4a01-8677-254b607f2af9" points="244.256 285.012 228.28 294.248 228.28 315.573 262.722 295.712"/>
  <path class="uuid-660c473c-9c9a-4a01-8677-254b607f2af9" d="M275.159,275.607c.463-.806.853-1.563,1.39-2.321,1.027-1.343,2.322-2.613,3.812-3.492"/>
  <path class="uuid-660c473c-9c9a-4a01-8677-254b607f2af9" d="M353.084,243.487c.802-.467,1.563-1.273,2.074-2.152.537-.928.88-1.981.88-2.881"/>
  <path class="uuid-660c473c-9c9a-4a01-8677-254b607f2af9" d="M356.038,238.453v-66.667M337.572,182.343v45.41"/>
  <path class="uuid-660c473c-9c9a-4a01-8677-254b607f2af9" d="M203.9,265.909c-4.128-2.395-7.498-8.183-7.498-12.944s3.371-6.67,7.498-4.302c4.129,2.396,7.426,8.183,7.426,12.948s-3.297,6.668-7.426,4.298Z"/>
  <path class="uuid-660c473c-9c9a-4a01-8677-254b607f2af9" d="M203.9,292.904c-4.128-2.37-7.498-8.186-7.498-12.948s3.371-6.67,7.498-4.302c4.129,2.395,7.426,8.136,7.426,12.9s-3.297,6.74-7.426,4.35Z"/>
  <line class="uuid-35ba9281-a242-4377-97b6-ae1b729fc4fc" x1="362.145" y1="171.666" x2="362.145" y2="241.971"/>
  <line class="uuid-35ba9281-a242-4377-97b6-ae1b729fc4fc" x1="360.677" y1="245.709" x2="360.336" y2="246.098"/>
  <line class="uuid-35ba9281-a242-4377-97b6-ae1b729fc4fc" x1="359.235" y1="247.026" x2="321.592" y2="268.768"/>
  <path class="uuid-660c473c-9c9a-4a01-8677-254b607f2af9" d="M321.592,268.768c-.389.221-.802.389-1.097.389"/>
  <line class="uuid-35ba9281-a242-4377-97b6-ae1b729fc4fc" x1="303.957" y1="263.249" x2="286.468" y2="273.337"/>
  <path class="uuid-660c473c-9c9a-4a01-8677-254b607f2af9" d="M286.468,273.337c-.879.537-1.689,1.171-2.493,1.976"/>
  <line class="uuid-35ba9281-a242-4377-97b6-ae1b729fc4fc" x1="283.975" y1="275.313" x2="283.853" y2="275.435"/>
  <path class="uuid-660c473c-9c9a-4a01-8677-254b607f2af9" d="M283.853,275.435c-.806.88-1.564,1.859-2.2,3.006"/>
  <line class="uuid-35ba9281-a242-4377-97b6-ae1b729fc4fc" x1="268.804" y1="299.255" x2="231.234" y2="320.971"/>
  <path class="uuid-660c473c-9c9a-4a01-8677-254b607f2af9" d="M231.234,320.971c-.806.463-1.564.463-2.075.169"/>
  <path class="uuid-660c473c-9c9a-4a01-8677-254b607f2af9" d="M337.572,227.754c-.125,2.1-1.221,4.007-2.958,5.106"/>
  <path class="uuid-660c473c-9c9a-4a01-8677-254b607f2af9" d="M284.195,248.615c-.758-.489-1.564-.588-2.322-.415"/>
  <line class="uuid-35ba9281-a242-4377-97b6-ae1b729fc4fc" x1="281.873" y1="248.2" x2="281.825" y2="248.2"/>
  <line class="uuid-35ba9281-a242-4377-97b6-ae1b729fc4fc" x1="228.28" y1="294.248" x2="244.256" y2="285.012"/>
  <path class="uuid-660c473c-9c9a-4a01-8677-254b607f2af9" d="M244.256,285.012c1.099-.633,1.563-1.269,2.196-2.318"/>
  <line class="uuid-35ba9281-a242-4377-97b6-ae1b729fc4fc" x1="246.452" y1="282.694" x2="257.081" y2="264.276"/>
  <path class="uuid-660c473c-9c9a-4a01-8677-254b607f2af9" d="M257.081,264.276c1.292-2.153,2.686-3.812,4.809-5.108"/>
  <line class="uuid-35ba9281-a242-4377-97b6-ae1b729fc4fc" x1="368.593" y1="157.084" x2="368.643" y2="157.084"/>
  <line class="uuid-35ba9281-a242-4377-97b6-ae1b729fc4fc" x1="369.74" y1="157.474" x2="316.147" y2="126.549"/>
  <path class="uuid-660c473c-9c9a-4a01-8677-254b607f2af9" d="M316.147,126.549c-2.028-1.001-3.614-.467-5.519.511"/>
  <path class="uuid-660c473c-9c9a-4a01-8677-254b607f2af9" d="M284.611,142.109c-.585.341-1.394.853-2.395,1.442"/>
  <line class="uuid-35ba9281-a242-4377-97b6-ae1b729fc4fc" x1="282.216" y1="143.551" x2="246.33" y2="164.214"/>
  <path class="uuid-660c473c-9c9a-4a01-8677-254b607f2af9" d="M246.33,164.214c-.169.122-.341.199-.511.247"/>
  <line class="uuid-35ba9281-a242-4377-97b6-ae1b729fc4fc" x1="245.819" y1="164.461" x2="174.928" y2="205.449"/>
  <path class="uuid-660c473c-9c9a-4a01-8677-254b607f2af9" d="M174.928,205.449c-2.565,1.638-3.959,3.249-5.523,5.814"/>
  <line class="uuid-35ba9281-a242-4377-97b6-ae1b729fc4fc" x1="169.405" y1="211.263" x2="221.951" y2="241.628"/>
  <line class="uuid-35ba9281-a242-4377-97b6-ae1b729fc4fc" x1="169.405" y1="303.309" x2="220.902" y2="333.038"/>
  <path class="uuid-660c473c-9c9a-4a01-8677-254b607f2af9" d="M220.902,333.038s0,.074.074.074"/>
  <line class="uuid-35ba9281-a242-4377-97b6-ae1b729fc4fc" x1="220.976" y1="333.112" x2="223.004" y2="334.26"/>
  <path class="uuid-660c473c-9c9a-4a01-8677-254b607f2af9" d="M355.158,241.287c-.511.927-1.272,1.733-2.074,2.2"/>
  <line class="uuid-35ba9281-a242-4377-97b6-ae1b729fc4fc" x1="353.084" y1="243.487" x2="315.51" y2="265.224"/>
  <path class="uuid-660c473c-9c9a-4a01-8677-254b607f2af9" d="M302.662,259.242c-.633-.417-1.391-.537-2.198-.463"/>
  <line class="uuid-35ba9281-a242-4377-97b6-ae1b729fc4fc" x1="300.464" y1="258.779" x2="300.344" y2="258.779"/>
  <path class="uuid-660c473c-9c9a-4a01-8677-254b607f2af9" d="M300.344,258.779c-.81.095-1.615.389-2.495.901"/>
  <line class="uuid-35ba9281-a242-4377-97b6-ae1b729fc4fc" x1="297.849" y1="259.679" x2="280.361" y2="269.795"/>
  <path class="uuid-660c473c-9c9a-4a01-8677-254b607f2af9" d="M280.361,269.795c-.857.536-1.737,1.173-2.495,1.979"/>
  <line class="uuid-35ba9281-a242-4377-97b6-ae1b729fc4fc" x1="277.866" y1="271.774" x2="277.77" y2="271.895"/>
  <path class="uuid-660c473c-9c9a-4a01-8677-254b607f2af9" d="M277.77,271.895c-.831.88-1.589,1.855-2.222,3.006"/>
  <path class="uuid-660c473c-9c9a-4a01-8677-254b607f2af9" d="M264.801,293.49c-.295.536-.636.927-.931,1.269"/>
  <line class="uuid-35ba9281-a242-4377-97b6-ae1b729fc4fc" x1="80.49" y1="194.36" x2="80.196" y2="164.119"/>
  <line class="uuid-35ba9281-a242-4377-97b6-ae1b729fc4fc" x1="169.042" y1="122.174" x2="169.115" y2="122.174"/>
  <path class="uuid-660c473c-9c9a-4a01-8677-254b607f2af9" d="M169.115,122.174c.976,0,1.903,0,2.833.048"/>
  <line class="uuid-35ba9281-a242-4377-97b6-ae1b729fc4fc" x1="228.28" y1="319.212" x2="228.28" y2="248.958"/>
  <line class="uuid-35ba9281-a242-4377-97b6-ae1b729fc4fc" x1="221.951" y1="241.628" x2="223.004" y2="242.214"/>
  <path class="uuid-660c473c-9c9a-4a01-8677-254b607f2af9" d="M223.004,242.214c1.563-2.539,2.954-4.176,5.519-5.814"/>
  <line class="uuid-35ba9281-a242-4377-97b6-ae1b729fc4fc" x1="228.523" y1="236.4" x2="364.221" y2="158.059"/>
  <path class="uuid-660c473c-9c9a-4a01-8677-254b607f2af9" d="M364.221,158.059c1.516-.806,2.859-1.269,4.372-.975"/>
  <path class="uuid-660c473c-9c9a-4a01-8677-254b607f2af9" d="M368.643,157.084c1.391.879,2.27,2.612,2.27,5.056"/>
  <line class="uuid-35ba9281-a242-4377-97b6-ae1b729fc4fc" x1="370.913" y1="162.14" x2="370.913" y2="241.407"/>
  <path class="uuid-660c473c-9c9a-4a01-8677-254b607f2af9" d="M370.913,241.407c0,2.443-.879,5.228-2.27,7.671"/>
  <line class="uuid-35ba9281-a242-4377-97b6-ae1b729fc4fc" x1="368.643" y1="249.079" x2="368.593" y2="249.127"/>
  <line class="uuid-35ba9281-a242-4377-97b6-ae1b729fc4fc" x1="281.873" y1="248.126" x2="261.89" y2="259.116"/>
  <path class="uuid-660c473c-9c9a-4a01-8677-254b607f2af9" d="M297.849,259.679c1.442-.806,3.249-1.39,4.813-.438"/>
  <path class="uuid-660c473c-9c9a-4a01-8677-254b607f2af9" d="M211.326,131.482c5.808,2.525,12.597,4.831,18.76,6.156,6.554,1.206,12.44,2.244,19.152,2.612,11.612.81,23.794.132,35.373,1.859"/>
  <path class="uuid-660c473c-9c9a-4a01-8677-254b607f2af9" d="M211.326,131.482c-1.343-.537-2.665-1.173-4.007-1.805-10.111-4.887-22.474-7.209-35.37-7.454-.931-.048-1.857-.048-2.833-.048"/>
  <line class="uuid-c660313c-d392-4058-8c8a-045625ceb459" x1="249.605" y1="308.074" x2="247.383" y2="306.801"/>
  <line class="uuid-c660313c-d392-4058-8c8a-045625ceb459" x1="270.394" y1="294.026" x2="267.656" y2="292.441"/>
  <line class="uuid-c660313c-d392-4058-8c8a-045625ceb459" x1="281.947" y1="274.606" x2="279.334" y2="273.116"/>
  <line class="uuid-c660313c-d392-4058-8c8a-045625ceb459" x1="341.232" y1="255.113" x2="339.088" y2="253.892"/>
  <line class="uuid-c660313c-d392-4058-8c8a-045625ceb459" x1="360.093" y1="240.017" x2="357.944" y2="238.722"/>
  <line class="uuid-c660313c-d392-4058-8c8a-045625ceb459" x1="360.093" y1="213.926" x2="358.018" y2="212.705"/>
  <line class="uuid-c660313c-d392-4058-8c8a-045625ceb459" x1="360.093" y1="187.862" x2="358.018" y2="186.641"/>
  <line class="uuid-c660313c-d392-4058-8c8a-045625ceb459" x1="237.979" y1="286.822" x2="230.086" y2="273.116"/>
  <line class="uuid-c660313c-d392-4058-8c8a-045625ceb459" x1="246.915" y1="279.614" x2="229.795" y2="250.057"/>
  <line class="uuid-c660313c-d392-4058-8c8a-045625ceb459" x1="253.365" y1="268.231" x2="237.758" y2="241.239"/>
  <line class="uuid-c660313c-d392-4058-8c8a-045625ceb459" x1="260.746" y1="258.41" x2="247.625" y2="235.716"/>
  <line class="uuid-c660313c-d392-4058-8c8a-045625ceb459" x1="270.614" y1="252.965" x2="257.372" y2="230.076"/>
  <line class="uuid-c660313c-d392-4058-8c8a-045625ceb459" x1="280.483" y1="247.494" x2="267.193" y2="224.431"/>
  <line class="uuid-c660313c-d392-4058-8c8a-045625ceb459" x1="297.091" y1="253.645" x2="276.723" y2="218.397"/>
  <line class="uuid-c660313c-d392-4058-8c8a-045625ceb459" x1="306.864" y1="248.027" x2="286.468" y2="212.705"/>
  <line class="uuid-c660313c-d392-4058-8c8a-045625ceb459" x1="316.61" y1="242.386" x2="296.285" y2="207.087"/>
  <line class="uuid-c660313c-d392-4058-8c8a-045625ceb459" x1="326.431" y1="236.694" x2="306.032" y2="201.446"/>
  <line class="uuid-c660313c-d392-4058-8c8a-045625ceb459" x1="335.761" y1="230.365" x2="315.852" y2="195.828"/>
  <line class="uuid-c660313c-d392-4058-8c8a-045625ceb459" x1="335.835" y1="207.892" x2="325.966" y2="190.769"/>
  <line class="uuid-c660313c-d392-4058-8c8a-045625ceb459" x1="236.242" y1="309.049" x2="230.134" y2="298.423"/>
  <line class="uuid-c660313c-d392-4058-8c8a-045625ceb459" x1="246.113" y1="303.479" x2="238.39" y2="290.167"/>
  <line class="uuid-c660313c-d392-4058-8c8a-045625ceb459" x1="255.86" y1="297.86" x2="247.673" y2="283.621"/>
  <line class="uuid-c660313c-d392-4058-8c8a-045625ceb459" x1="264.75" y1="290.656" x2="254.123" y2="272.238"/>
  <line class="uuid-c660313c-d392-4058-8c8a-045625ceb459" x1="271.248" y1="279.319" x2="260.99" y2="261.49"/>
  <line class="uuid-c660313c-d392-4058-8c8a-045625ceb459" x1="278.456" y1="269.209" x2="270.783" y2="255.967"/>
  <line class="uuid-c660313c-d392-4058-8c8a-045625ceb459" x1="288.154" y1="263.466" x2="280.726" y2="250.569"/>
  <line class="uuid-c660313c-d392-4058-8c8a-045625ceb459" x1="297.728" y1="257.483" x2="297.338" y2="256.725"/>
  <line class="uuid-c660313c-d392-4058-8c8a-045625ceb459" x1="314.509" y1="263.933" x2="306.864" y2="250.643"/>
  <line class="uuid-c660313c-d392-4058-8c8a-045625ceb459" x1="324.329" y1="258.362" x2="316.61" y2="244.999"/>
  <line class="uuid-c660313c-d392-4058-8c8a-045625ceb459" x1="334.102" y1="252.718" x2="326.431" y2="239.354"/>
  <line class="uuid-c660313c-d392-4058-8c8a-045625ceb459" x1="343.849" y1="247.026" x2="336.13" y2="233.688"/>
  <line class="uuid-c660313c-d392-4058-8c8a-045625ceb459" x1="353.668" y1="241.407" x2="339.132" y2="216.248"/>
  <line class="uuid-c660313c-d392-4058-8c8a-045625ceb459" x1="354.474" y1="220.207" x2="339.088" y2="193.602"/>
  <line class="uuid-c660313c-d392-4058-8c8a-045625ceb459" x1="354.305" y1="197.314" x2="344.36" y2="180.143"/>
  <line class="uuid-c660313c-d392-4058-8c8a-045625ceb459" x1="269.804" y1="137.517" x2="269.05" y2="138.86"/>
  <line class="uuid-c660313c-d392-4058-8c8a-045625ceb459" x1="244.351" y1="136.417" x2="243.546" y2="137.737"/>
  <line class="uuid-c660313c-d392-4058-8c8a-045625ceb459" x1="221.072" y1="131.53" x2="220.387" y2="132.8"/>
  <line class="uuid-c660313c-d392-4058-8c8a-045625ceb459" x1="159.927" y1="237.526" x2="159.243" y2="238.722"/>
  <line class="uuid-c660313c-d392-4058-8c8a-045625ceb459" x1="199.893" y1="123.053" x2="199.183" y2="124.275"/>
  <line class="uuid-c660313c-d392-4058-8c8a-045625ceb459" x1="141.707" y1="223.868" x2="140.997" y2="225.137"/>
  <line class="uuid-c660313c-d392-4058-8c8a-045625ceb459" x1="176.246" y1="118.926" x2="175.44" y2="120.32"/>
  <line class="uuid-c660313c-d392-4058-8c8a-045625ceb459" x1="123.752" y1="209.871" x2="122.994" y2="211.141"/>
  <line class="uuid-c660313c-d392-4058-8c8a-045625ceb459" x1="149.475" y1="120.099" x2="148.548" y2="121.711"/>
  <line class="uuid-c660313c-d392-4058-8c8a-045625ceb459" x1="106.165" y1="195.165" x2="105.407" y2="196.46"/>
  <line class="uuid-c660313c-d392-4058-8c8a-045625ceb459" x1="118.866" y1="127.94" x2="117.766" y2="129.92"/>
  <line class="uuid-c660313c-d392-4058-8c8a-045625ceb459" x1="89.504" y1="178.848" x2="88.794" y2="180.069"/>
  <line class="uuid-c660313c-d392-4058-8c8a-045625ceb459" x1="201.968" y1="320.482" x2="181.131" y2="284.427"/>
  <line class="uuid-c660313c-d392-4058-8c8a-045625ceb459" x1="218.827" y1="304.53" x2="212.036" y2="292.732"/>
  <line class="uuid-c660313c-d392-4058-8c8a-045625ceb459" x1="200.747" y1="273.212" x2="189.097" y2="253.086"/>
  <line class="uuid-c660313c-d392-4058-8c8a-045625ceb459" x1="180.841" y1="238.796" x2="168.773" y2="217.834"/>
  <line class="uuid-c660313c-d392-4058-8c8a-045625ceb459" x1="219.095" y1="259.874" x2="203.362" y2="232.639"/>
  <line class="uuid-c660313c-d392-4058-8c8a-045625ceb459" x1="182.575" y1="244.951" x2="181.769" y2="243.608"/>
  <line class="uuid-c660313c-d392-4058-8c8a-045625ceb459" x1="174.439" y1="281.178" x2="169.848" y2="273.164"/>
  <line class="uuid-c660313c-d392-4058-8c8a-045625ceb459" x1="174.439" y1="258.532" x2="169.848" y2="250.569"/>
  <line class="uuid-c660313c-d392-4058-8c8a-045625ceb459" x1="94.707" y1="170.565" x2="88.036" y2="159.064"/>
  <line class="uuid-c660313c-d392-4058-8c8a-045625ceb459" x1="104.06" y1="164.167" x2="94.777" y2="148.096"/>
  <line class="uuid-c660313c-d392-4058-8c8a-045625ceb459" x1="114.101" y1="158.938" x2="103.671" y2="140.888"/>
  <line class="uuid-c660313c-d392-4058-8c8a-045625ceb459" x1="124.679" y1="154.762" x2="113.538" y2="135.417"/>
  <line class="uuid-c660313c-d392-4058-8c8a-045625ceb459" x1="135.843" y1="151.465" x2="124.043" y2="131.067"/>
  <line class="uuid-c660313c-d392-4058-8c8a-045625ceb459" x1="147.396" y1="148.898" x2="135.184" y2="127.77"/>
  <line class="uuid-c660313c-d392-4058-8c8a-045625ceb459" x1="159.586" y1="147.458" x2="146.811" y2="125.327"/>
  <line class="uuid-c660313c-d392-4058-8c8a-045625ceb459" x1="172.534" y1="147.312" x2="158.953" y2="123.811"/>
  <line class="uuid-c660313c-d392-4058-8c8a-045625ceb459" x1="186.654" y1="149.118" x2="171.776" y2="123.396"/>
  <line class="uuid-c660313c-d392-4058-8c8a-045625ceb459" x1="202.09" y1="153.298" x2="185.433" y2="124.495"/>
  <line class="uuid-c660313c-d392-4058-8c8a-045625ceb459" x1="218.459" y1="159.108" x2="200.699" y2="128.282"/>
  <line class="uuid-c660313c-d392-4058-8c8a-045625ceb459" x1="234.14" y1="163.703" x2="217.823" y2="135.485"/>
  <line class="uuid-c660313c-d392-4058-8c8a-045625ceb459" x1="246.577" y1="162.651" x2="233.334" y2="139.713"/>
  <line class="uuid-c660313c-d392-4058-8c8a-045625ceb459" x1="256.225" y1="156.742" x2="247.505" y2="141.693"/>
  <line class="uuid-c660313c-d392-4058-8c8a-045625ceb459" x1="265.849" y1="150.877" x2="261.036" y2="142.499"/>
  <line class="uuid-c660313c-d392-4058-8c8a-045625ceb459" x1="275.5" y1="145.015" x2="274.449" y2="143.136"/>
  <line class="uuid-c660313c-d392-4058-8c8a-045625ceb459" x1="101.985" y1="220.793" x2="81.759" y2="185.835"/>
  <line class="uuid-c660313c-d392-4058-8c8a-045625ceb459" x1="127.928" y1="243.192" x2="101.864" y2="198.072"/>
  <line class="uuid-c660313c-d392-4058-8c8a-045625ceb459" x1="151.061" y1="260.68" x2="126.78" y2="218.593"/>
  <line class="uuid-c660313c-d392-4058-8c8a-045625ceb459" x1="166.425" y1="264.639" x2="150.233" y2="236.574"/>
  <line class="uuid-c660313c-d392-4058-8c8a-045625ceb459" x1="205" y1="278.687" x2="200.356" y2="286.749"/>
  <line class="uuid-c660313c-d392-4058-8c8a-045625ceb459" x1="204.926" y1="251.692" x2="200.283" y2="259.631"/>
</svg>