<?xml version="1.0" encoding="UTF-8"?>
<svg id="uuid-cda6d2cd-28f9-4af2-94ab-a125c8b99d7c" data-name="&amp;lt;Layer&amp;gt;" xmlns="http://www.w3.org/2000/svg" viewBox="0 0 451.11 451.11">
  <defs>
    <style>
      .uuid-0e946eb5-7f2c-45cc-ac28-7e93bd34166d {
        stroke-width: 1.163px;
      }

      .uuid-0e946eb5-7f2c-45cc-ac28-7e93bd34166d, .uuid-0e49c22f-92bf-44a0-a546-1e7d3c36d6b1 {
        stroke-miterlimit: 10;
      }

      .uuid-0e946eb5-7f2c-45cc-ac28-7e93bd34166d, .uuid-0e49c22f-92bf-44a0-a546-1e7d3c36d6b1, .uuid-a05da80c-d9e2-4db6-a807-24dbc8519a4d {
        fill: none;
        stroke: #000;
        stroke-linecap: round;
      }

      .uuid-0e49c22f-92bf-44a0-a546-1e7d3c36d6b1 {
        stroke-width: 1.159px;
      }

      .uuid-a05da80c-d9e2-4db6-a807-24dbc8519a4d {
        fill-rule: evenodd;
        stroke-linejoin: round;
        stroke-width: 4.113px;
      }
    </style>
  </defs>
  <path class="uuid-a05da80c-d9e2-4db6-a807-24dbc8519a4d" d="M265.711,237.06c-8.572,4.934-15.555,16.976-15.555,26.896s6.983,13.924,15.555,8.963c8.551-4.96,15.516-17.001,15.516-26.896s-6.965-13.922-15.516-8.963h0ZM289.875,285.988c5.349-3.079,9.769-10.625,9.769-16.83M299.644,269.158l.051-128.344M270.598,106.1s-.048,0-.048-.073M266.495,101.387c.048.048.1.096.17.17M266.666,101.557l33.32,25.943M299.985,127.5c7.256,5.644,5.398,9.526-.291,13.315-1.32.976-2.906,1.855-4.569,2.782M295.125,143.596l-17.955,10.384M160.846,360.396l-11.509-6.619M149.337,353.778c-2.491-2.076-2.664-3.349-2.954-6.498M146.382,347.28l.122-192.178M146.504,155.102c.295-6.935,4.128-13.654,9.993-17.366M156.498,137.736l70.79-40.845M227.288,96.89c10.505-5.886,16.271-8.867,28.63-2.98,9.993,4.813,18.982,14.802,21.178,27.092M277.096,121.002v33.004l-12.286-7.109v-24.575M264.811,122.322c.221-11.237-12.432-25.432-29.85-16.612M234.961,105.71l-66.957,38.67M168.003,144.38c-5.888,3.712-9.773,10.431-10.063,17.367M157.94,161.747l-.052,192.151M157.888,353.898c.295,3.153.463,4.422,2.958,6.498M147.262,150.22l11.431,6.615M158.694,156.835c-.463,1.811-.633,3.032-.754,4.913M182.584,260.045l67.641-39.061M182.584,239.088l85.865-49.59M182.584,219.348l85.865-49.586M182.584,299.936l22.279-12.896M182.584,169.224l39.991-23.111M160.846,360.374l129.029-74.386"/>
  <path class="uuid-a05da80c-d9e2-4db6-a807-24dbc8519a4d" d="M265.711,244.047c-5.199,3.028-9.5,10.358-9.5,16.413s4.301,8.477,9.5,5.475c5.23-3.031,9.479-10.383,9.479-16.417s-4.25-8.503-9.479-5.471Z"/>
  <line class="uuid-0e49c22f-92bf-44a0-a546-1e7d3c36d6b1" x1="156.155" y1="342.661" x2="148.314" y2="347.206"/>
  <line class="uuid-0e49c22f-92bf-44a0-a546-1e7d3c36d6b1" x1="156.203" y1="329.618" x2="148.314" y2="334.184"/>
  <line class="uuid-0e49c22f-92bf-44a0-a546-1e7d3c36d6b1" x1="156.203" y1="316.598" x2="148.314" y2="321.141"/>
  <line class="uuid-0e49c22f-92bf-44a0-a546-1e7d3c36d6b1" x1="156.203" y1="303.554" x2="148.314" y2="308.098"/>
  <line class="uuid-0e49c22f-92bf-44a0-a546-1e7d3c36d6b1" x1="156.203" y1="290.507" x2="148.314" y2="295.051"/>
  <line class="uuid-0e49c22f-92bf-44a0-a546-1e7d3c36d6b1" x1="156.203" y1="277.489" x2="148.314" y2="282.033"/>
  <line class="uuid-0e49c22f-92bf-44a0-a546-1e7d3c36d6b1" x1="156.203" y1="264.441" x2="148.314" y2="269.012"/>
  <line class="uuid-0e49c22f-92bf-44a0-a546-1e7d3c36d6b1" x1="156.203" y1="251.399" x2="148.314" y2="255.968"/>
  <line class="uuid-0e49c22f-92bf-44a0-a546-1e7d3c36d6b1" x1="156.203" y1="238.378" x2="148.314" y2="242.922"/>
  <line class="uuid-0e49c22f-92bf-44a0-a546-1e7d3c36d6b1" x1="156.203" y1="225.334" x2="148.314" y2="229.904"/>
  <line class="uuid-0e49c22f-92bf-44a0-a546-1e7d3c36d6b1" x1="156.203" y1="212.29" x2="148.314" y2="216.835"/>
  <line class="uuid-0e49c22f-92bf-44a0-a546-1e7d3c36d6b1" x1="156.203" y1="199.269" x2="148.314" y2="203.813"/>
  <line class="uuid-0e49c22f-92bf-44a0-a546-1e7d3c36d6b1" x1="156.203" y1="186.226" x2="148.314" y2="190.769"/>
  <line class="uuid-0e49c22f-92bf-44a0-a546-1e7d3c36d6b1" x1="156.203" y1="173.179" x2="148.314" y2="177.723"/>
  <line class="uuid-0e49c22f-92bf-44a0-a546-1e7d3c36d6b1" x1="156.324" y1="160.087" x2="148.314" y2="164.706"/>
  <line class="uuid-0e49c22f-92bf-44a0-a546-1e7d3c36d6b1" x1="275.436" y1="131.601" x2="266.886" y2="146.356"/>
  <line class="uuid-0e49c22f-92bf-44a0-a546-1e7d3c36d6b1" x1="272.921" y1="113.257" x2="266.716" y2="124.078"/>
  <line class="uuid-0e49c22f-92bf-44a0-a546-1e7d3c36d6b1" x1="265.711" y1="103.193" x2="262.198" y2="109.4"/>
  <line class="uuid-0e49c22f-92bf-44a0-a546-1e7d3c36d6b1" x1="256.676" y1="96.328" x2="253.062" y2="102.509"/>
  <line class="uuid-0e49c22f-92bf-44a0-a546-1e7d3c36d6b1" x1="245.807" y1="92.516" x2="240.454" y2="101.777"/>
  <line class="uuid-0e49c22f-92bf-44a0-a546-1e7d3c36d6b1" x1="229.901" y1="97.502" x2="222.06" y2="111.107"/>
  <line class="uuid-0e49c22f-92bf-44a0-a546-1e7d3c36d6b1" x1="210.386" y1="108.764" x2="202.494" y2="122.418"/>
  <line class="uuid-0e49c22f-92bf-44a0-a546-1e7d3c36d6b1" x1="190.818" y1="120.023" x2="182.974" y2="133.681"/>
  <line class="uuid-0e946eb5-7f2c-45cc-ac28-7e93bd34166d" x1="171.299" y1="131.26" x2="160.876" y2="149.38"/>
  <line class="uuid-0e946eb5-7f2c-45cc-ac28-7e93bd34166d" x1="266.463" y1="264.391" x2="259.839" y2="252.933"/>
  <line class="uuid-0e946eb5-7f2c-45cc-ac28-7e93bd34166d" x1="273.633" y1="254.205" x2="267.817" y2="244.077"/>
</svg>