<?xml version="1.0" encoding="UTF-8"?>
<svg id="uuid-cbb8703e-767b-4825-9d84-564805269f1f" data-name="&amp;lt;Layer&amp;gt;" xmlns="http://www.w3.org/2000/svg" viewBox="0 0 451.11 451.11">
  <defs>
    <style>
      .uuid-5274a430-c974-45d8-87d0-b1075df72f1c {
        stroke-miterlimit: 10;
        stroke-width: 1.163px;
      }

      .uuid-5274a430-c974-45d8-87d0-b1075df72f1c, .uuid-19b5ec29-30ca-4c31-8588-c0e9754739bb {
        fill: none;
        stroke: #000;
        stroke-linecap: round;
      }

      .uuid-19b5ec29-30ca-4c31-8588-c0e9754739bb {
        fill-rule: evenodd;
        stroke-linejoin: round;
        stroke-width: 4.113px;
      }
    </style>
  </defs>
  <polyline class="uuid-19b5ec29-30ca-4c31-8588-c0e9754739bb" points="287.92 291.608 287.92 135.269 246.586 111.404 246.586 148.508"/>
  <polygon class="uuid-19b5ec29-30ca-4c31-8588-c0e9754739bb" points="287.872 135.294 246.512 111.404 288.163 87.367 329.497 111.232 287.872 135.294"/>
  <polyline class="uuid-19b5ec29-30ca-4c31-8588-c0e9754739bb" points="204.888 209.651 204.888 172.548 246.222 196.413 246.222 315.646"/>
  <polygon class="uuid-19b5ec29-30ca-4c31-8588-c0e9754739bb" points="287.92 172.375 246.586 196.239 246.222 196.413 204.888 172.548 246.586 148.508 287.92 172.375"/>
  <polyline class="uuid-19b5ec29-30ca-4c31-8588-c0e9754739bb" points="246.586 196.239 246.222 196.413 246.222 315.646 287.92 291.608"/>
  <polygon class="uuid-19b5ec29-30ca-4c31-8588-c0e9754739bb" points="329.57 111.232 329.57 267.55 287.92 291.608 287.92 135.269 329.57 111.232"/>
  <polygon class="uuid-19b5ec29-30ca-4c31-8588-c0e9754739bb" points="246.222 233.519 204.888 209.651 163.19 233.691 204.593 257.582 246.222 233.519"/>
  <polyline class="uuid-19b5ec29-30ca-4c31-8588-c0e9754739bb" points="204.593 339.683 204.593 257.582 163.262 233.691 163.262 270.821"/>
  <polygon class="uuid-19b5ec29-30ca-4c31-8588-c0e9754739bb" points="246.222 315.646 246.222 233.519 204.593 257.582 204.593 339.709 246.222 315.646"/>
  <polygon class="uuid-19b5ec29-30ca-4c31-8588-c0e9754739bb" points="204.593 294.684 163.262 270.795 121.54 294.857 162.899 318.726 204.593 294.684"/>
  <polygon class="uuid-19b5ec29-30ca-4c31-8588-c0e9754739bb" points="162.899 318.726 121.54 294.857 121.54 339.878 162.899 363.743 162.899 318.726"/>
  <polygon class="uuid-19b5ec29-30ca-4c31-8588-c0e9754739bb" points="204.593 339.709 204.593 294.684 162.899 318.726 162.899 363.743 204.593 339.709"/>
  <line class="uuid-5274a430-c974-45d8-87d0-b1075df72f1c" x1="146.53" y1="307.243" x2="135.612" y2="288.335"/>
  <line class="uuid-5274a430-c974-45d8-87d0-b1075df72f1c" x1="174.816" y1="311.029" x2="154.885" y2="276.538"/>
  <line class="uuid-5274a430-c974-45d8-87d0-b1075df72f1c" x1="193.92" y1="299.034" x2="186.59" y2="286.358"/>
  <line class="uuid-5274a430-c974-45d8-87d0-b1075df72f1c" x1="187.691" y1="245.83" x2="177.016" y2="227.312"/>
  <line class="uuid-5274a430-c974-45d8-87d0-b1075df72f1c" x1="216.199" y1="250.032" x2="196.289" y2="215.541"/>
  <line class="uuid-5274a430-c974-45d8-87d0-b1075df72f1c" x1="235.375" y1="238.037" x2="227.777" y2="224.921"/>
  <line class="uuid-5274a430-c974-45d8-87d0-b1075df72f1c" x1="229.51" y1="184.759" x2="218.762" y2="166.12"/>
  <line class="uuid-5274a430-c974-45d8-87d0-b1075df72f1c" x1="257.897" y1="188.814" x2="237.987" y2="154.324"/>
  <line class="uuid-5274a430-c974-45d8-87d0-b1075df72f1c" x1="277.074" y1="176.845" x2="269.575" y2="163.85"/>
  <line class="uuid-5274a430-c974-45d8-87d0-b1075df72f1c" x1="270.624" y1="123.274" x2="260.167" y2="105.149"/>
  <line class="uuid-5274a430-c974-45d8-87d0-b1075df72f1c" x1="299.375" y1="127.817" x2="279.395" y2="93.327"/>
  <line class="uuid-5274a430-c974-45d8-87d0-b1075df72f1c" x1="318.477" y1="115.849" x2="310.736" y2="102.411"/>
  <line class="uuid-5274a430-c974-45d8-87d0-b1075df72f1c" x1="136.757" y1="346.719" x2="123.224" y2="323.339"/>
  <line class="uuid-5274a430-c974-45d8-87d0-b1075df72f1c" x1="156.961" y1="359.177" x2="122.54" y2="299.571"/>
  <line class="uuid-5274a430-c974-45d8-87d0-b1075df72f1c" x1="161.626" y1="344.691" x2="139.836" y2="306.9"/>
  <line class="uuid-5274a430-c974-45d8-87d0-b1075df72f1c" x1="160.99" y1="320.922" x2="160.062" y2="319.358"/>
  <line class="uuid-5274a430-c974-45d8-87d0-b1075df72f1c" x1="263.761" y1="156.62" x2="248.15" y2="129.576"/>
  <line class="uuid-5274a430-c974-45d8-87d0-b1075df72f1c" x1="283.865" y1="168.736" x2="253.893" y2="116.849"/>
  <line class="uuid-5274a430-c974-45d8-87d0-b1075df72f1c" x1="286.309" y1="150.439" x2="273.997" y2="129.139"/>
  <line class="uuid-5274a430-c974-45d8-87d0-b1075df72f1c" x1="222.011" y1="217.712" x2="206.452" y2="190.794"/>
  <line class="uuid-5274a430-c974-45d8-87d0-b1075df72f1c" x1="242.042" y1="229.806" x2="212.096" y2="177.898"/>
  <line class="uuid-5274a430-c974-45d8-87d0-b1075df72f1c" x1="244.607" y1="211.755" x2="232.175" y2="190.158"/>
  <line class="uuid-5274a430-c974-45d8-87d0-b1075df72f1c" x1="180.218" y1="278.786" x2="164.875" y2="252.18"/>
  <line class="uuid-5274a430-c974-45d8-87d0-b1075df72f1c" x1="200.245" y1="290.898" x2="170.225" y2="238.942"/>
  <line class="uuid-5274a430-c974-45d8-87d0-b1075df72f1c" x1="202.959" y1="273.043" x2="190.376" y2="251.231"/>
</svg>