<?xml version="1.0" encoding="UTF-8"?>
<svg id="uuid-1d70f37d-3282-4b09-820a-8af543825e1f" data-name="&amp;lt;Layer&amp;gt;" xmlns="http://www.w3.org/2000/svg" viewBox="0 0 451.11 451.11">
  <defs>
    <style>
      .uuid-f6a1bec4-c66b-40c9-b4b7-2323ec054c1c, .uuid-374e24cd-7a6d-438d-ac21-09bc49cd217e, .uuid-ace2f9cb-e8e6-403b-bcad-6ad1510454ba, .uuid-538ff943-2bc4-4d32-a062-4a02ebc3441f, .uuid-14c5c480-18f0-4da0-8d02-d515e7855c2d, .uuid-bee37ba2-c43e-439c-bd06-de4a7c56e4d1 {
        fill: none;
        stroke: #000;
        stroke-linecap: round;
      }

      .uuid-f6a1bec4-c66b-40c9-b4b7-2323ec054c1c, .uuid-374e24cd-7a6d-438d-ac21-09bc49cd217e, .uuid-14c5c480-18f0-4da0-8d02-d515e7855c2d, .uuid-bee37ba2-c43e-439c-bd06-de4a7c56e4d1 {
        stroke-linejoin: round;
      }

      .uuid-f6a1bec4-c66b-40c9-b4b7-2323ec054c1c, .uuid-bee37ba2-c43e-439c-bd06-de4a7c56e4d1 {
        stroke-width: 4.113px;
      }

      .uuid-374e24cd-7a6d-438d-ac21-09bc49cd217e, .uuid-14c5c480-18f0-4da0-8d02-d515e7855c2d {
        stroke-width: 4.938px;
      }

      .uuid-ace2f9cb-e8e6-403b-bcad-6ad1510454ba {
        stroke-width: 1.163px;
      }

      .uuid-ace2f9cb-e8e6-403b-bcad-6ad1510454ba, .uuid-538ff943-2bc4-4d32-a062-4a02ebc3441f {
        stroke-miterlimit: 10;
      }

      .uuid-538ff943-2bc4-4d32-a062-4a02ebc3441f {
        stroke-width: 1.159px;
      }

      .uuid-14c5c480-18f0-4da0-8d02-d515e7855c2d, .uuid-bee37ba2-c43e-439c-bd06-de4a7c56e4d1 {
        fill-rule: evenodd;
      }
    </style>
  </defs>
  <path class="uuid-bee37ba2-c43e-439c-bd06-de4a7c56e4d1" d="M237.463,305.676c.566,11.752,4.474,25.41,15.559,31.466,9.626,5.567,22.938,4.761,37.619-3.716,14.706-8.473,27.997-23.059,37.621-39.719,9.648-16.686,15.586-35.495,15.586-52.446s-5.938-28.923-16.076-34.727c-2.513-1.651-7.296-2.818-10.184-3.137-41.835-3.76-82.937,63.494-80.126,102.278Z"/>
  <path class="uuid-bee37ba2-c43e-439c-bd06-de4a7c56e4d1" d="M316.147,216.466c7.888,4.47,12.822,14.166,12.822,27.993,0,27.411-19.225,60.802-42.968,74.508-12.017,6.913-22.889,7.476-30.656,2.832"/>
  <path class="uuid-bee37ba2-c43e-439c-bd06-de4a7c56e4d1" d="M333.101,258.507c-1.329,9.761-6.716,22.782-11.678,31.245-.295.533-.637,1.049-.978,1.56-.806,1.515-1.759,2.98-2.735,4.374-7.517,11.469-20.39,24.983-34.744,30.263-13.497,4.968-26.422,1.98-32.555-11.527-11.277-24.347,6.682-61.501,23.573-79.32,10.936-11.565,31.827-26.021,47.957-16.164,2.992,1.837,5.505,4.39,7.392,7.532,5.262,8.764,6.067,22.805,3.768,32.036Z"/>
  <line class="uuid-f6a1bec4-c66b-40c9-b4b7-2323ec054c1c" x1="130.956" y1="236.302" x2="130.956" y2="354.167"/>
  <path class="uuid-bee37ba2-c43e-439c-bd06-de4a7c56e4d1" d="M130.956,354.167c.048,3.101.637,5.912,3.249,7.866"/>
  <line class="uuid-f6a1bec4-c66b-40c9-b4b7-2323ec054c1c" x1="134.205" y1="362.033" x2="111.779" y2="349.111"/>
  <path class="uuid-bee37ba2-c43e-439c-bd06-de4a7c56e4d1" d="M111.779,349.111c-2.539-1.979-3.175-4.787-3.249-7.914"/>
  <line class="uuid-f6a1bec4-c66b-40c9-b4b7-2323ec054c1c" x1="108.53" y1="341.197" x2="107.261" y2="222.622"/>
  <line class="uuid-f6a1bec4-c66b-40c9-b4b7-2323ec054c1c" x1="279.798" y1="199.979" x2="281.189" y2="149.583"/>
  <line class="uuid-f6a1bec4-c66b-40c9-b4b7-2323ec054c1c" x1="225.442" y1="312.563" x2="142.219" y2="360.665"/>
  <path class="uuid-bee37ba2-c43e-439c-bd06-de4a7c56e4d1" d="M142.219,360.665c-3.127,1.785-5.912,2.148-8.135,1.221"/>
  <line class="uuid-f6a1bec4-c66b-40c9-b4b7-2323ec054c1c" x1="134.084" y1="361.886" x2="134.036" y2="361.886"/>
  <path class="uuid-bee37ba2-c43e-439c-bd06-de4a7c56e4d1" d="M143.61,176.258c60.801-35.104,106.385-61.412,124.903-72.112"/>
  <path class="uuid-bee37ba2-c43e-439c-bd06-de4a7c56e4d1" d="M277.451,103.266c2.274,1.317,3.738,4.151,3.738,8.158"/>
  <polyline class="uuid-bee37ba2-c43e-439c-bd06-de4a7c56e4d1" points="281.189 111.424 281.189 149.583 130.956 236.302"/>
  <path class="uuid-bee37ba2-c43e-439c-bd06-de4a7c56e4d1" d="M130.956,198.168c0-4.028,1.442-8.502,3.712-12.483,2.274-3.956,5.472-7.426,8.942-9.427"/>
  <path class="uuid-bee37ba2-c43e-439c-bd06-de4a7c56e4d1" d="M119.915,162.552c41.624-24.038,83.274-48.074,124.852-72.112,2.734-1.49,5.519-2.37,8.55-1.101"/>
  <line class="uuid-f6a1bec4-c66b-40c9-b4b7-2323ec054c1c" x1="253.317" y1="89.34" x2="277.012" y2="103.046"/>
  <path class="uuid-bee37ba2-c43e-439c-bd06-de4a7c56e4d1" d="M277.012,103.046c-3.028-1.269-5.766-.415-8.499,1.101"/>
  <polyline class="uuid-bee37ba2-c43e-439c-bd06-de4a7c56e4d1" points="268.513 104.146 266.655 105.195 264.702 106.342"/>
  <path class="uuid-bee37ba2-c43e-439c-bd06-de4a7c56e4d1" d="M264.702,106.342c-40.382,23.28-80.737,46.611-121.092,69.915-7.083,4.272-12.558,13.485-12.654,21.91"/>
  <polyline class="uuid-bee37ba2-c43e-439c-bd06-de4a7c56e4d1" points="130.956 198.168 130.956 236.302 107.261 222.622 107.261 184.463"/>
  <path class="uuid-bee37ba2-c43e-439c-bd06-de4a7c56e4d1" d="M107.261,184.463c.048-8.403,5.571-17.609,12.654-21.91"/>
  <line class="uuid-374e24cd-7a6d-438d-ac21-09bc49cd217e" x1="159.927" y1="250.86" x2="199.307" y2="228.118"/>
  <path class="uuid-14c5c480-18f0-4da0-8d02-d515e7855c2d" d="M199.307,228.118c1.27-.732,2.318-.147,2.318,1.317"/>
  <line class="uuid-374e24cd-7a6d-438d-ac21-09bc49cd217e" x1="201.626" y1="229.436" x2="201.626" y2="256.822"/>
  <path class="uuid-14c5c480-18f0-4da0-8d02-d515e7855c2d" d="M201.626,256.822c0,1.438-1.049,3.223-2.318,3.933"/>
  <line class="uuid-374e24cd-7a6d-438d-ac21-09bc49cd217e" x1="199.307" y1="260.755" x2="162.201" y2="282.176"/>
  <path class="uuid-14c5c480-18f0-4da0-8d02-d515e7855c2d" d="M162.201,282.176c-1.295.732-2.274,2.491-2.274,3.959"/>
  <line class="uuid-374e24cd-7a6d-438d-ac21-09bc49cd217e" x1="159.927" y1="286.135" x2="159.927" y2="313.347"/>
  <path class="uuid-14c5c480-18f0-4da0-8d02-d515e7855c2d" d="M159.927,313.347c0,1.439.979,2.05,2.274,1.317"/>
  <line class="uuid-374e24cd-7a6d-438d-ac21-09bc49cd217e" x1="162.201" y1="314.665" x2="201.626" y2="291.901"/>
  <line class="uuid-374e24cd-7a6d-438d-ac21-09bc49cd217e" x1="252.196" y1="221.327" x2="252.196" y2="200.196"/>
  <path class="uuid-14c5c480-18f0-4da0-8d02-d515e7855c2d" d="M252.196,200.196c0-1.438-1.053-2.027-2.252-1.269-12.432,7.135-24.792,14.291-37.176,21.422-1.221.71-2.274,2.495-2.274,3.959"/>
  <line class="uuid-374e24cd-7a6d-438d-ac21-09bc49cd217e" x1="210.493" y1="224.307" x2="210.493" y2="284.181"/>
  <path class="uuid-14c5c480-18f0-4da0-8d02-d515e7855c2d" d="M210.493,284.181c0,1.442,1.053,2.027,2.274,1.269,3.785-2.2,7.545-4.35,11.383-6.572"/>
  <line class="uuid-374e24cd-7a6d-438d-ac21-09bc49cd217e" x1="240.54" y1="236.839" x2="210.493" y2="254.205"/>
  <line class="uuid-f6a1bec4-c66b-40c9-b4b7-2323ec054c1c" x1="242.323" y1="160.816" x2="228.228" y2="168.951"/>
  <path class="uuid-bee37ba2-c43e-439c-bd06-de4a7c56e4d1" d="M228.228,168.951c-.413.245-.754.051-.754-.413"/>
  <line class="uuid-f6a1bec4-c66b-40c9-b4b7-2323ec054c1c" x1="227.474" y1="168.539" x2="227.474" y2="144.475"/>
  <path class="uuid-bee37ba2-c43e-439c-bd06-de4a7c56e4d1" d="M227.474,144.475c0-.463.341-1.047.754-1.294"/>
  <line class="uuid-f6a1bec4-c66b-40c9-b4b7-2323ec054c1c" x1="228.228" y1="143.181" x2="242.202" y2="135.119"/>
  <line class="uuid-f6a1bec4-c66b-40c9-b4b7-2323ec054c1c" x1="241.348" y1="147.824" x2="227.474" y2="155.834"/>
  <polyline class="uuid-bee37ba2-c43e-439c-bd06-de4a7c56e4d1" points="221.436 147.066 221.608 172.788 205.879 156.081 205.879 181.851"/>
  <line class="uuid-f6a1bec4-c66b-40c9-b4b7-2323ec054c1c" x1="182.99" y1="168.807" x2="182.99" y2="184.805"/>
  <path class="uuid-bee37ba2-c43e-439c-bd06-de4a7c56e4d1" d="M182.99,184.805c0,6.718,2.906,8.551,8.768,5.18,5.788-3.322,8.573-8.525,8.573-15.17"/>
  <line class="uuid-f6a1bec4-c66b-40c9-b4b7-2323ec054c1c" x1="200.331" y1="174.816" x2="200.331" y2="158.74"/>
  <path class="uuid-bee37ba2-c43e-439c-bd06-de4a7c56e4d1" d="M164.398,198.39c0,5.03,1.733,6.887,6.403,4.176,4.444-2.543,6.324-6.498,6.324-11.189"/>
  <line class="uuid-f6a1bec4-c66b-40c9-b4b7-2323ec054c1c" x1="177.124" y1="191.377" x2="177.124" y2="172.546"/>
  <line class="uuid-f6a1bec4-c66b-40c9-b4b7-2323ec054c1c" x1="135.769" y1="183.927" x2="112.074" y2="170.249"/>
  <path class="uuid-bee37ba2-c43e-439c-bd06-de4a7c56e4d1" d="M112.074,170.249c-2.786,4.103-4.813,9.205-4.813,14.213"/>
  <path class="uuid-bee37ba2-c43e-439c-bd06-de4a7c56e4d1" d="M130.956,198.168c.048-5.032,2.028-10.114,4.813-14.242"/>
  <path class="uuid-bee37ba2-c43e-439c-bd06-de4a7c56e4d1" d="M252.096,336.601c-3.495-2.024-13.78-7.645-16.487-9.673-4.886-3.738-8.135-8.72-10.166-14.365-3.664-10.258-3.249-22.764-1.291-33.684.706-3.933,1.634-7.645,2.686-11.016,3.249-10.747,8.231-21.545,14.634-31.539,3.249-5.056,6.839-9.869,10.726-14.339,6.909-7.962,14.875-14.802,23.643-19.983,1.269-.706,2.613-1.39,3.959-2.024,10.162-5.012,22.401-7.793,32.806-2.226"/>
  <line class="uuid-f6a1bec4-c66b-40c9-b4b7-2323ec054c1c" x1="312.603" y1="197.753" x2="327.284" y2="206.304"/>
  <polygon class="uuid-bee37ba2-c43e-439c-bd06-de4a7c56e4d1" points="294.943 270.502 291.104 278.684 263.697 270.865 267.534 262.683 294.943 270.502"/>
  <line class="uuid-f6a1bec4-c66b-40c9-b4b7-2323ec054c1c" x1="284.779" y1="283.961" x2="316.536" y2="228.898"/>
  <path class="uuid-bee37ba2-c43e-439c-bd06-de4a7c56e4d1" d="M118.351,352.898c-2.613-1.979-3.198-4.813-3.249-7.914"/>
  <line class="uuid-f6a1bec4-c66b-40c9-b4b7-2323ec054c1c" x1="115.102" y1="344.984" x2="115.102" y2="227.117"/>
  <path class="uuid-bee37ba2-c43e-439c-bd06-de4a7c56e4d1" d="M125.264,356.853c-2.613-1.953-3.249-4.787-3.323-7.888"/>
  <line class="uuid-f6a1bec4-c66b-40c9-b4b7-2323ec054c1c" x1="121.941" y1="348.965" x2="121.941" y2="231.096"/>
  <line class="uuid-538ff943-2bc4-4d32-a062-4a02ebc3441f" x1="280.732" y1="143.655" x2="275.831" y2="152.11"/>
  <line class="uuid-538ff943-2bc4-4d32-a062-4a02ebc3441f" x1="278.161" y1="102.925" x2="236.926" y2="174.304"/>
  <line class="uuid-538ff943-2bc4-4d32-a062-4a02ebc3441f" x1="242.202" y1="120.022" x2="197.745" y2="197.069"/>
  <line class="uuid-538ff943-2bc4-4d32-a062-4a02ebc3441f" x1="203.068" y1="142.622" x2="158.658" y2="219.641"/>
  <line class="uuid-538ff943-2bc4-4d32-a062-4a02ebc3441f" x1="163.593" y1="165.923" x2="132.057" y2="220.569"/>
  <line class="uuid-538ff943-2bc4-4d32-a062-4a02ebc3441f" x1="129.271" y1="222.449" x2="119.915" y2="227.875"/>
  <line class="uuid-538ff943-2bc4-4d32-a062-4a02ebc3441f" x1="129.614" y1="209.21" x2="108.652" y2="221.305"/>
  <line class="uuid-538ff943-2bc4-4d32-a062-4a02ebc3441f" x1="129.734" y1="196.142" x2="108.652" y2="208.258"/>
  <line class="uuid-538ff943-2bc4-4d32-a062-4a02ebc3441f" x1="130.713" y1="182.509" x2="108.652" y2="195.236"/>
  <line class="uuid-538ff943-2bc4-4d32-a062-4a02ebc3441f" x1="118.987" y1="176.232" x2="109.288" y2="181.851"/>
  <line class="uuid-538ff943-2bc4-4d32-a062-4a02ebc3441f" x1="265.729" y1="98.527" x2="261.379" y2="106.074"/>
  <line class="uuid-538ff943-2bc4-4d32-a062-4a02ebc3441f" x1="256.271" y1="92.298" x2="241.47" y2="117.948"/>
  <line class="uuid-538ff943-2bc4-4d32-a062-4a02ebc3441f" x1="242.692" y1="93.274" x2="221.708" y2="129.6"/>
  <line class="uuid-538ff943-2bc4-4d32-a062-4a02ebc3441f" x1="223.098" y1="104.562" x2="202.141" y2="140.885"/>
  <line class="uuid-538ff943-2bc4-4d32-a062-4a02ebc3441f" x1="203.605" y1="115.846" x2="182.621" y2="152.17"/>
  <line class="uuid-538ff943-2bc4-4d32-a062-4a02ebc3441f" x1="184.013" y1="127.131" x2="163.055" y2="163.457"/>
  <line class="uuid-538ff943-2bc4-4d32-a062-4a02ebc3441f" x1="164.446" y1="138.442" x2="143.488" y2="174.768"/>
  <line class="uuid-538ff943-2bc4-4d32-a062-4a02ebc3441f" x1="144.758" y1="149.972" x2="128.344" y2="178.454"/>
  <line class="uuid-538ff943-2bc4-4d32-a062-4a02ebc3441f" x1="124.899" y1="161.868" x2="118.939" y2="172.225"/>
  <line class="uuid-538ff943-2bc4-4d32-a062-4a02ebc3441f" x1="239.539" y1="324.047" x2="230.818" y2="319.039"/>
  <line class="uuid-538ff943-2bc4-4d32-a062-4a02ebc3441f" x1="235.947" y1="308.925" x2="224.909" y2="302.574"/>
  <line class="uuid-538ff943-2bc4-4d32-a062-4a02ebc3441f" x1="235.947" y1="295.93" x2="224.562" y2="289.332"/>
  <line class="uuid-538ff943-2bc4-4d32-a062-4a02ebc3441f" x1="237.927" y1="284.009" x2="226.201" y2="277.242"/>
  <line class="uuid-538ff943-2bc4-4d32-a062-4a02ebc3441f" x1="241.128" y1="272.823" x2="229.159" y2="265.909"/>
  <line class="uuid-538ff943-2bc4-4d32-a062-4a02ebc3441f" x1="245.303" y1="262.219" x2="233.214" y2="255.232"/>
  <line class="uuid-538ff943-2bc4-4d32-a062-4a02ebc3441f" x1="250.337" y1="252.057" x2="238.195" y2="245.048"/>
  <line class="uuid-538ff943-2bc4-4d32-a062-4a02ebc3441f" x1="256.103" y1="242.383" x2="244.009" y2="235.396"/>
  <line class="uuid-538ff943-2bc4-4d32-a062-4a02ebc3441f" x1="262.723" y1="233.148" x2="250.753" y2="226.235"/>
  <line class="uuid-538ff943-2bc4-4d32-a062-4a02ebc3441f" x1="270.32" y1="224.502" x2="258.469" y2="217.662"/>
  <line class="uuid-538ff943-2bc4-4d32-a062-4a02ebc3441f" x1="279.04" y1="216.514" x2="267.361" y2="209.774"/>
  <line class="uuid-538ff943-2bc4-4d32-a062-4a02ebc3441f" x1="289.324" y1="209.405" x2="277.94" y2="202.834"/>
  <line class="uuid-538ff943-2bc4-4d32-a062-4a02ebc3441f" x1="301.808" y1="203.567" x2="291.351" y2="197.558"/>
  <line class="uuid-ace2f9cb-e8e6-403b-bcad-6ad1510454ba" x1="339.912" y1="264.949" x2="309.258" y2="318.09"/>
  <line class="uuid-538ff943-2bc4-4d32-a062-4a02ebc3441f" x1="338.741" y1="221.911" x2="333.513" y2="230.926"/>
  <line class="uuid-538ff943-2bc4-4d32-a062-4a02ebc3441f" x1="276.549" y1="329.566" x2="271.368" y2="338.581"/>
  <line class="uuid-538ff943-2bc4-4d32-a062-4a02ebc3441f" x1="321.838" y1="206.009" x2="316.706" y2="214.855"/>
  <line class="uuid-538ff943-2bc4-4d32-a062-4a02ebc3441f" x1="254.245" y1="323.094" x2="249.115" y2="331.988"/>
  <line class="uuid-ace2f9cb-e8e6-403b-bcad-6ad1510454ba" x1="293.806" y1="209.421" x2="285.284" y2="224.097"/>
  <line class="uuid-538ff943-2bc4-4d32-a062-4a02ebc3441f" x1="288.445" y1="321.215" x2="287.274" y2="320.555"/>
  <line class="uuid-538ff943-2bc4-4d32-a062-4a02ebc3441f" x1="298.728" y1="314.128" x2="297.337" y2="313.322"/>
  <line class="uuid-538ff943-2bc4-4d32-a062-4a02ebc3441f" x1="307.205" y1="305.993" x2="305.69" y2="305.117"/>
  <line class="uuid-538ff943-2bc4-4d32-a062-4a02ebc3441f" x1="314.34" y1="297.055" x2="312.776" y2="296.172"/>
  <line class="uuid-538ff943-2bc4-4d32-a062-4a02ebc3441f" x1="320.37" y1="287.5" x2="318.81" y2="286.598"/>
  <line class="uuid-538ff943-2bc4-4d32-a062-4a02ebc3441f" x1="325.429" y1="277.415" x2="323.818" y2="276.462"/>
  <line class="uuid-538ff943-2bc4-4d32-a062-4a02ebc3441f" x1="329.263" y1="266.543" x2="327.699" y2="265.689"/>
  <line class="uuid-538ff943-2bc4-4d32-a062-4a02ebc3441f" x1="331.633" y1="254.889" x2="330.316" y2="254.131"/>
  <line class="uuid-538ff943-2bc4-4d32-a062-4a02ebc3441f" x1="331.927" y1="242.02" x2="330.948" y2="241.479"/>
  <line class="uuid-538ff943-2bc4-4d32-a062-4a02ebc3441f" x1="270.147" y1="265.372" x2="267.534" y2="269.961"/>
  <line class="uuid-ace2f9cb-e8e6-403b-bcad-6ad1510454ba" x1="113.173" y1="331.766" x2="109.24" y2="329.489"/>
  <line class="uuid-ace2f9cb-e8e6-403b-bcad-6ad1510454ba" x1="113.173" y1="305.702" x2="109.679" y2="303.711"/>
  <line class="uuid-ace2f9cb-e8e6-403b-bcad-6ad1510454ba" x1="113.173" y1="279.637" x2="109.896" y2="277.739"/>
  <line class="uuid-ace2f9cb-e8e6-403b-bcad-6ad1510454ba" x1="113.173" y1="253.547" x2="107.935" y2="250.511"/>
  <line class="uuid-ace2f9cb-e8e6-403b-bcad-6ad1510454ba" x1="130.258" y1="342.102" x2="123.921" y2="338.434"/>
  <line class="uuid-ace2f9cb-e8e6-403b-bcad-6ad1510454ba" x1="129.929" y1="315.85" x2="123.921" y2="312.369"/>
  <line class="uuid-ace2f9cb-e8e6-403b-bcad-6ad1510454ba" x1="130.258" y1="289.973" x2="123.921" y2="286.305"/>
  <line class="uuid-ace2f9cb-e8e6-403b-bcad-6ad1510454ba" x1="129.606" y1="263.507" x2="123.921" y2="260.214"/>
  <line class="uuid-538ff943-2bc4-4d32-a062-4a02ebc3441f" x1="120.036" y1="335.648" x2="117.056" y2="333.942"/>
  <line class="uuid-538ff943-2bc4-4d32-a062-4a02ebc3441f" x1="120.036" y1="309.561" x2="117.056" y2="307.876"/>
  <line class="uuid-538ff943-2bc4-4d32-a062-4a02ebc3441f" x1="120.036" y1="283.497" x2="117.056" y2="281.787"/>
  <line class="uuid-538ff943-2bc4-4d32-a062-4a02ebc3441f" x1="120.036" y1="257.432" x2="117.056" y2="255.721"/>
</svg>