<?xml version="1.0" encoding="UTF-8"?>
<svg id="uuid-f721070b-c84b-48a6-8d9a-9a52dc52e76d" data-name="&amp;lt;Layer&amp;gt;" xmlns="http://www.w3.org/2000/svg" viewBox="0 0 451.11 451.11">
  <defs>
    <style>
      .uuid-f8a8180a-283e-4ca0-b363-509733077972, .uuid-85a2e048-8f9e-4837-b541-b11045b82a39, .uuid-5302c910-0557-4ec1-a429-0ad993f6a96b {
        fill: none;
        stroke: #000;
        stroke-linecap: round;
      }

      .uuid-f8a8180a-283e-4ca0-b363-509733077972, .uuid-5302c910-0557-4ec1-a429-0ad993f6a96b {
        stroke-linejoin: round;
        stroke-width: 4.113px;
      }

      .uuid-85a2e048-8f9e-4837-b541-b11045b82a39 {
        stroke-miterlimit: 10;
        stroke-width: 1.163px;
      }

      .uuid-5302c910-0557-4ec1-a429-0ad993f6a96b {
        fill-rule: evenodd;
      }
    </style>
  </defs>
  <polyline class="uuid-5302c910-0557-4ec1-a429-0ad993f6a96b" points="93.03 208.645 200.173 270.543 200.758 269.642"/>
  <polygon class="uuid-5302c910-0557-4ec1-a429-0ad993f6a96b" points="339.611 232.509 353.78 224.4 353.78 208.008 339.611 216.192 339.611 232.509"/>
  <polygon class="uuid-5302c910-0557-4ec1-a429-0ad993f6a96b" points="319.211 244.309 333.378 236.175 333.378 219.808 319.211 227.991 319.211 244.309"/>
  <line class="uuid-f8a8180a-283e-4ca0-b363-509733077972" x1="358.077" y1="179.379" x2="250.934" y2="117.526"/>
  <path class="uuid-5302c910-0557-4ec1-a429-0ad993f6a96b" d="M250.934,117.526c-2.102-.975-3.666-.463-5.641.537"/>
  <line class="uuid-f8a8180a-283e-4ca0-b363-509733077972" x1="245.293" y1="118.063" x2="98.601" y2="202.733"/>
  <path class="uuid-5302c910-0557-4ec1-a429-0ad993f6a96b" d="M98.601,202.733c-2.539,1.685-4.007,3.37-5.571,5.913"/>
  <path class="uuid-5302c910-0557-4ec1-a429-0ad993f6a96b" d="M200.758,269.642c1.516-2.226,2.737-3.57,5.032-5.008"/>
  <line class="uuid-f8a8180a-283e-4ca0-b363-509733077972" x1="205.791" y1="264.634" x2="352.432" y2="179.917"/>
  <path class="uuid-5302c910-0557-4ec1-a429-0ad993f6a96b" d="M352.432,179.917c1.979-1.001,3.543-1.516,5.645-.537"/>
  <path class="uuid-5302c910-0557-4ec1-a429-0ad993f6a96b" d="M360.398,184.483c0-4.981-3.542-7.057-7.966-4.566"/>
  <path class="uuid-5302c910-0557-4ec1-a429-0ad993f6a96b" d="M205.791,264.634c-4.396,2.491-7.936,8.646-7.936,13.702"/>
  <line class="uuid-f8a8180a-283e-4ca0-b363-509733077972" x1="197.855" y1="278.336" x2="197.855" y2="328.464"/>
  <path class="uuid-5302c910-0557-4ec1-a429-0ad993f6a96b" d="M197.855,328.464c0,5.034,3.54,7.083,7.936,4.566"/>
  <line class="uuid-f8a8180a-283e-4ca0-b363-509733077972" x1="205.791" y1="333.03" x2="352.432" y2="248.364"/>
  <path class="uuid-5302c910-0557-4ec1-a429-0ad993f6a96b" d="M352.432,248.364c4.423-2.543,7.966-8.698,7.966-13.754"/>
  <line class="uuid-f8a8180a-283e-4ca0-b363-509733077972" x1="360.398" y1="234.61" x2="360.398" y2="184.483"/>
  <path class="uuid-5302c910-0557-4ec1-a429-0ad993f6a96b" d="M93.03,208.645c-1.464,2.734-2.222,4.761-2.318,7.841"/>
  <line class="uuid-f8a8180a-283e-4ca0-b363-509733077972" x1="90.711" y1="216.486" x2="90.711" y2="266.614"/>
  <path class="uuid-5302c910-0557-4ec1-a429-0ad993f6a96b" d="M90.711,266.614c.096,2.196.417,3.833,2.318,5.102"/>
  <line class="uuid-f8a8180a-283e-4ca0-b363-509733077972" x1="93.03" y1="271.716" x2="200.173" y2="333.567"/>
  <path class="uuid-5302c910-0557-4ec1-a429-0ad993f6a96b" d="M200.173,333.567c-1.855-1.292-2.222-2.908-2.318-5.104"/>
  <path class="uuid-5302c910-0557-4ec1-a429-0ad993f6a96b" d="M197.855,278.336c.096-3.076.876-5.104,2.318-7.793"/>
  <line class="uuid-f8a8180a-283e-4ca0-b363-509733077972" x1="212.19" y1="295.122" x2="300.524" y2="244.136"/>
  <line class="uuid-85a2e048-8f9e-4837-b541-b11045b82a39" x1="329.911" y1="236.175" x2="324.488" y2="226.891"/>
  <line class="uuid-85a2e048-8f9e-4837-b541-b11045b82a39" x1="349.99" y1="224.569" x2="344.643" y2="215.264"/>
  <line class="uuid-85a2e048-8f9e-4837-b541-b11045b82a39" x1="112.844" y1="281.537" x2="92.103" y2="245.653"/>
  <line class="uuid-85a2e048-8f9e-4837-b541-b11045b82a39" x1="133.047" y1="294.021" x2="91.397" y2="221.884"/>
  <line class="uuid-85a2e048-8f9e-4837-b541-b11045b82a39" x1="153.03" y1="305.964" x2="98.942" y2="212.432"/>
  <line class="uuid-85a2e048-8f9e-4837-b541-b11045b82a39" x1="172.523" y1="317.301" x2="118.509" y2="223.741"/>
  <line class="uuid-85a2e048-8f9e-4837-b541-b11045b82a39" x1="192.111" y1="328.56" x2="138.103" y2="235.026"/>
  <line class="uuid-85a2e048-8f9e-4837-b541-b11045b82a39" x1="197.097" y1="314.563" x2="158.132" y2="247.143"/>
  <line class="uuid-85a2e048-8f9e-4837-b541-b11045b82a39" x1="196.387" y1="290.894" x2="178.335" y2="259.575"/>
  <line class="uuid-85a2e048-8f9e-4837-b541-b11045b82a39" x1="122.759" y1="223.985" x2="108.079" y2="198.556"/>
  <line class="uuid-85a2e048-8f9e-4837-b541-b11045b82a39" x1="162.53" y1="247.727" x2="126.939" y2="186.046"/>
  <line class="uuid-85a2e048-8f9e-4837-b541-b11045b82a39" x1="201.689" y1="270.447" x2="145.822" y2="173.64"/>
  <line class="uuid-85a2e048-8f9e-4837-b541-b11045b82a39" x1="220.545" y1="257.89" x2="165.388" y2="162.377"/>
  <line class="uuid-85a2e048-8f9e-4837-b541-b11045b82a39" x1="240.065" y1="246.579" x2="184.955" y2="151.114"/>
  <line class="uuid-85a2e048-8f9e-4837-b541-b11045b82a39" x1="259.632" y1="235.32" x2="204.523" y2="139.831"/>
  <line class="uuid-85a2e048-8f9e-4837-b541-b11045b82a39" x1="279.151" y1="224.032" x2="224.041" y2="128.52"/>
  <line class="uuid-85a2e048-8f9e-4837-b541-b11045b82a39" x1="298.717" y1="212.722" x2="243.604" y2="117.257"/>
  <line class="uuid-85a2e048-8f9e-4837-b541-b11045b82a39" x1="317.695" y1="200.463" x2="280.078" y2="135.312"/>
  <line class="uuid-85a2e048-8f9e-4837-b541-b11045b82a39" x1="336.579" y1="187.979" x2="319.921" y2="159.128"/>
</svg>