<?xml version="1.0" encoding="UTF-8"?>
<svg id="uuid-68663b2b-4d69-40b0-a4ed-c69b53559da6" data-name="&amp;lt;Layer&amp;gt;" xmlns="http://www.w3.org/2000/svg" viewBox="0 0 451.11 451.11">
  <defs>
    <style>
      .uuid-96f0327d-c7bb-4842-a6fe-e814fbdfd8a4, .uuid-f03232d1-ec90-44c3-8949-d755444df59c, .uuid-f4076dd9-a9c1-4391-93e6-d8eeaf2b2768 {
        fill: none;
        stroke: #000;
        stroke-linecap: round;
      }

      .uuid-96f0327d-c7bb-4842-a6fe-e814fbdfd8a4, .uuid-f4076dd9-a9c1-4391-93e6-d8eeaf2b2768 {
        stroke-linejoin: round;
        stroke-width: 4.117px;
      }

      .uuid-f03232d1-ec90-44c3-8949-d755444df59c {
        stroke-miterlimit: 10;
        stroke-width: 1.163px;
      }

      .uuid-f4076dd9-a9c1-4391-93e6-d8eeaf2b2768 {
        fill-rule: evenodd;
      }
    </style>
  </defs>
  <g>
    <path class="uuid-f4076dd9-a9c1-4391-93e6-d8eeaf2b2768" d="M154.451,172.129c-2.244.681-5.81,2.561-7.597.048-3.014-2.597-6.778-11.13-7.719-14.632-1.34-5.346-.828-7.918-.196-13.238,2.98-13.022,14.706-24.112,28.191-31.125,21.643-11.285,51.198-15.096,75.31-12.041.295.073.636.125.979.315.169.052.343.1.463.221.17.052.291.221.369.343.169.169.221.415.221.658"/>
    <path class="uuid-f4076dd9-a9c1-4391-93e6-d8eeaf2b2768" d="M118.052,270.207c0,4.834-.243,19.518.221,23.426,3.444,26.138,32.93,42.603,55.526,49.759,40.944,12.949,98.544,10.115,134.256-14.606,12.849-8.868,24.332-22.183,25.038-38.501"/>
    <path class="uuid-f4076dd9-a9c1-4391-93e6-d8eeaf2b2768" d="M333.093,269.864c-.953,11.483-5.299,20.151-13.312,28.556-24.842,26.262-72.354,34.152-106.849,31.781-29.85-2.052-70.034-13.068-87.624-39.181-4.592-6.766-6.572-12.779-7.256-20.813"/>
    <path class="uuid-f4076dd9-a9c1-4391-93e6-d8eeaf2b2768" d="M138.377,232.268c-13.948,11.09-21.032,24.627-20.274,38.355v.269M333.023,270.548v-.341c.07-.122.07-.244.07-.365.441-10.968-4.175-22.109-14.412-32.345-1.855-1.855-3.834-3.592-5.914-5.23"/>
    <path class="uuid-f4076dd9-a9c1-4391-93e6-d8eeaf2b2768" d="M147.244,290.579c-.666-.688-1.276-1.512-1.905-2.248-1.362-1.877-3.455-5.328-4.25-7.451"/>
    <path class="uuid-f4076dd9-a9c1-4391-93e6-d8eeaf2b2768" d="M154.451,172.129l66.615-22.205c.342-.099.637-.221.88-.269"/>
    <polyline class="uuid-f4076dd9-a9c1-4391-93e6-d8eeaf2b2768" points="221.946 149.655 222.167 149.531 222.336 149.483 222.532 149.336 222.704 149.24 222.8 149.118 222.925 148.993 223.047 148.897 223.094 148.725 244.346 102.949"/>
    <path class="uuid-f4076dd9-a9c1-4391-93e6-d8eeaf2b2768" d="M149.86,291.506h-.269c-1.885,0-3.305-1.751-4.253-3.175-4.887-6.737-6.03-11.686-6.961-19.762v-115.448"/>
    <line class="uuid-96f0327d-c7bb-4842-a6fe-e814fbdfd8a4" x1="223.094" y1="216.027" x2="223.094" y2="148.725"/>
    <path class="uuid-f4076dd9-a9c1-4391-93e6-d8eeaf2b2768" d="M312.767,268.01c0,6.582-1.961,12.694-5.565,18.173-5.391,8.558-14.931,15.541-23.769,20.029-2.274,1.137-8.441,4.35-10.799,4.35h-.463"/>
    <path class="uuid-f4076dd9-a9c1-4391-93e6-d8eeaf2b2768" d="M272.17,310.562c-2.8-1.225-4.283-3.355-6.428-5.489"/>
    <line class="uuid-96f0327d-c7bb-4842-a6fe-e814fbdfd8a4" x1="272.17" y1="310.562" x2="272.17" y2="223.614"/>
    <polyline class="uuid-f4076dd9-a9c1-4391-93e6-d8eeaf2b2768" points="153.057 296.517 152.645 295.711 152.645 240.113"/>
    <path class="uuid-f4076dd9-a9c1-4391-93e6-d8eeaf2b2768" d="M152.645,240.113c.07,2.002,13.144,9.552,15.755,10.843,27.287,13.706,66.663,15.832,95.587,7.182.636-.217,1.342-.559,1.39-1.317"/>
    <path class="uuid-f4076dd9-a9c1-4391-93e6-d8eeaf2b2768" d="M265.257,312.836c-1.148,2.222-22.764,5.154-26.602,5.471-22.011,1.953-45.874-.927-66.2-9.821"/>
    <path class="uuid-f4076dd9-a9c1-4391-93e6-d8eeaf2b2768" d="M153.599,241.356c-1.005-.854-1.516-1.759.269-2.391"/>
    <polyline class="uuid-f4076dd9-a9c1-4391-93e6-d8eeaf2b2768" points="153.867 238.965 223.216 215.977 225.584 216.661"/>
    <path class="uuid-f4076dd9-a9c1-4391-93e6-d8eeaf2b2768" d="M271.169,223.379c2.344.975,6.349-1.295,9.062-2.591,19.055-8.819,38.865-26.844,30.682-49.417-7.673-21.325-36.129-33.54-57.211-37.375-.978-.195-2.665-.048-3.201.975"/>
    <line class="uuid-96f0327d-c7bb-4842-a6fe-e814fbdfd8a4" x1="333.093" y1="290.284" x2="333.093" y2="269.864"/>
    <line class="uuid-96f0327d-c7bb-4842-a6fe-e814fbdfd8a4" x1="244.472" y1="147.945" x2="244.472" y2="102.677"/>
    <line class="uuid-96f0327d-c7bb-4842-a6fe-e814fbdfd8a4" x1="312.767" y1="268.01" x2="312.767" y2="181.092"/>
    <line class="uuid-96f0327d-c7bb-4842-a6fe-e814fbdfd8a4" x1="229.128" y1="181.24" x2="229.128" y2="218.271"/>
    <path class="uuid-f4076dd9-a9c1-4391-93e6-d8eeaf2b2768" d="M172.455,308.486c-6.449-2.884-14.169-7.256-19.397-11.969"/>
    <line class="uuid-96f0327d-c7bb-4842-a6fe-e814fbdfd8a4" x1="265.377" y1="256.821" x2="265.257" y2="312.836"/>
    <line class="uuid-96f0327d-c7bb-4842-a6fe-e814fbdfd8a4" x1="147.613" y1="172.983" x2="147.613" y2="290.995"/>
    <line class="uuid-96f0327d-c7bb-4842-a6fe-e814fbdfd8a4" x1="225.584" y1="216.661" x2="265.377" y2="256.648"/>
    <line class="uuid-96f0327d-c7bb-4842-a6fe-e814fbdfd8a4" x1="229.497" y1="181.876" x2="271.169" y2="223.379"/>
    <line class="uuid-96f0327d-c7bb-4842-a6fe-e814fbdfd8a4" x1="250.502" y1="134.971" x2="229.202" y2="180.776"/>
  </g>
  <line class="uuid-f03232d1-ec90-44c3-8949-d755444df59c" x1="227.149" y1="202.075" x2="225.121" y2="203.274"/>
  <line class="uuid-f03232d1-ec90-44c3-8949-d755444df59c" x1="230.129" y1="174.325" x2="225.022" y2="177.259"/>
  <line class="uuid-f03232d1-ec90-44c3-8949-d755444df59c" x1="243.076" y1="140.785" x2="224.61" y2="151.436"/>
  <line class="uuid-f03232d1-ec90-44c3-8949-d755444df59c" x1="242.492" y1="115.04" x2="240.413" y2="116.262"/>
  <line class="uuid-f03232d1-ec90-44c3-8949-d755444df59c" x1="311.303" y1="180.997" x2="294.228" y2="210.552"/>
  <line class="uuid-f03232d1-ec90-44c3-8949-d755444df59c" x1="307.591" y1="164.8" x2="274.197" y2="222.621"/>
  <line class="uuid-f03232d1-ec90-44c3-8949-d755444df59c" x1="300.092" y1="155.226" x2="264.499" y2="216.903"/>
  <line class="uuid-f03232d1-ec90-44c3-8949-d755444df59c" x1="291.104" y1="148.187" x2="256.194" y2="208.625"/>
  <line class="uuid-f03232d1-ec90-44c3-8949-d755444df59c" x1="281.232" y1="142.742" x2="248.011" y2="200.294"/>
  <line class="uuid-f03232d1-ec90-44c3-8949-d755444df59c" x1="270.606" y1="138.541" x2="239.755" y2="191.939"/>
  <line class="uuid-f03232d1-ec90-44c3-8949-d755444df59c" x1="259.347" y1="135.486" x2="231.645" y2="183.514"/>
  <line class="uuid-f03232d1-ec90-44c3-8949-d755444df59c" x1="145.754" y1="266.81" x2="140.455" y2="269.912"/>
  <line class="uuid-f03232d1-ec90-44c3-8949-d755444df59c" x1="145.806" y1="240.746" x2="140.283" y2="243.925"/>
  <line class="uuid-f03232d1-ec90-44c3-8949-d755444df59c" x1="145.806" y1="214.681" x2="140.283" y2="217.856"/>
  <line class="uuid-f03232d1-ec90-44c3-8949-d755444df59c" x1="145.806" y1="188.616" x2="140.283" y2="191.792"/>
  <line class="uuid-f03232d1-ec90-44c3-8949-d755444df59c" x1="270.19" y1="295.149" x2="267.357" y2="296.808"/>
  <line class="uuid-f03232d1-ec90-44c3-8949-d755444df59c" x1="270.19" y1="282.08" x2="267.357" y2="283.739"/>
  <line class="uuid-f03232d1-ec90-44c3-8949-d755444df59c" x1="270.19" y1="269.058" x2="267.357" y2="270.696"/>
  <line class="uuid-f03232d1-ec90-44c3-8949-d755444df59c" x1="270.19" y1="256.037" x2="267.409" y2="257.653"/>
  <line class="uuid-f03232d1-ec90-44c3-8949-d755444df59c" x1="270.485" y1="242.846" x2="260.028" y2="248.881"/>
  <line class="uuid-f03232d1-ec90-44c3-8949-d755444df59c" x1="270.778" y1="229.656" x2="251.503" y2="240.746"/>
  <line class="uuid-f03232d1-ec90-44c3-8949-d755444df59c" x1="265.55" y1="219.615" x2="243.198" y2="232.536"/>
  <line class="uuid-f03232d1-ec90-44c3-8949-d755444df59c" x1="257.294" y1="211.358" x2="234.942" y2="224.258"/>
  <line class="uuid-f03232d1-ec90-44c3-8949-d755444df59c" x1="248.89" y1="203.176" x2="230.64" y2="213.728"/>
  <line class="uuid-f03232d1-ec90-44c3-8949-d755444df59c" x1="240.291" y1="195.066" x2="230.935" y2="200.49"/>
  <line class="uuid-f03232d1-ec90-44c3-8949-d755444df59c" x1="231.741" y1="186.979" x2="231.23" y2="187.299"/>
  <line class="uuid-f03232d1-ec90-44c3-8949-d755444df59c" x1="150.687" y1="271.086" x2="149.639" y2="269.301"/>
  <line class="uuid-f03232d1-ec90-44c3-8949-d755444df59c" x1="156.722" y1="236.375" x2="149.47" y2="223.794"/>
  <line class="uuid-f03232d1-ec90-44c3-8949-d755444df59c" x1="179.368" y1="230.436" x2="148.712" y2="177.285"/>
  <line class="uuid-f03232d1-ec90-44c3-8949-d755444df59c" x1="201.257" y1="223.254" x2="169.033" y2="167.338"/>
  <line class="uuid-f03232d1-ec90-44c3-8949-d755444df59c" x1="222.115" y1="214.118" x2="190.921" y2="160.108"/>
  <line class="uuid-f03232d1-ec90-44c3-8949-d755444df59c" x1="221.31" y1="167.633" x2="213.521" y2="154.126"/>
  <line class="uuid-f03232d1-ec90-44c3-8949-d755444df59c" x1="281.405" y1="305.432" x2="274.027" y2="292.633"/>
  <line class="uuid-f03232d1-ec90-44c3-8949-d755444df59c" x1="291.493" y1="300.374" x2="273.686" y2="269.449"/>
  <line class="uuid-f03232d1-ec90-44c3-8949-d755444df59c" x1="300.678" y1="293.659" x2="273.391" y2="246.364"/>
  <line class="uuid-f03232d1-ec90-44c3-8949-d755444df59c" x1="308.301" y1="284.228" x2="273.222" y2="223.453"/>
  <line class="uuid-f03232d1-ec90-44c3-8949-d755444df59c" x1="311.646" y1="267.494" x2="283.848" y2="219.346"/>
  <line class="uuid-f03232d1-ec90-44c3-8949-d755444df59c" x1="311.303" y1="244.315" x2="293.837" y2="214.048"/>
  <line class="uuid-f03232d1-ec90-44c3-8949-d755444df59c" x1="311.012" y1="221.231" x2="302.878" y2="207.135"/>
  <line class="uuid-f03232d1-ec90-44c3-8949-d755444df59c" x1="310.744" y1="198.194" x2="310.497" y2="197.779"/>
  <line class="uuid-f03232d1-ec90-44c3-8949-d755444df59c" x1="231.399" y1="100.407" x2="198.887" y2="156.713"/>
  <line class="uuid-f03232d1-ec90-44c3-8949-d755444df59c" x1="204.506" y1="101.824" x2="166.421" y2="167.805"/>
  <line class="uuid-f03232d1-ec90-44c3-8949-d755444df59c" x1="172.918" y1="111.401" x2="142.262" y2="164.432"/>
  <line class="uuid-f03232d1-ec90-44c3-8949-d755444df59c" x1="319.391" y1="296.566" x2="276.518" y2="321.309"/>
  <line class="uuid-f03232d1-ec90-44c3-8949-d755444df59c" x1="330.58" y1="277.072" x2="305.395" y2="291.632"/>
  <line class="uuid-f03232d1-ec90-44c3-8949-d755444df59c" x1="270.19" y1="311.93" x2="267.114" y2="313.715"/>
  <line class="uuid-f03232d1-ec90-44c3-8949-d755444df59c" x1="263.522" y1="315.79" x2="242.367" y2="327.98"/>
  <line class="uuid-f03232d1-ec90-44c3-8949-d755444df59c" x1="331.334" y1="263.587" x2="313.798" y2="273.699"/>
  <line class="uuid-f03232d1-ec90-44c3-8949-d755444df59c" x1="232.742" y1="320.529" x2="218.623" y2="328.664"/>
  <line class="uuid-f03232d1-ec90-44c3-8949-d755444df59c" x1="327.794" y1="252.593" x2="314.432" y2="260.312"/>
  <line class="uuid-f03232d1-ec90-44c3-8949-d755444df59c" x1="211.077" y1="319.992" x2="199.178" y2="326.858"/>
  <line class="uuid-f03232d1-ec90-44c3-8949-d755444df59c" x1="321.465" y1="243.215" x2="314.626" y2="247.17"/>
  <line class="uuid-f03232d1-ec90-44c3-8949-d755444df59c" x1="193.438" y1="317.134" x2="182.396" y2="323.509"/>
  <line class="uuid-f03232d1-ec90-44c3-8949-d755444df59c" x1="178.511" y1="312.736" x2="167.764" y2="318.939"/>
  <line class="uuid-f03232d1-ec90-44c3-8949-d755444df59c" x1="165.788" y1="307.07" x2="154.794" y2="313.373"/>
  <line class="uuid-f03232d1-ec90-44c3-8949-d755444df59c" x1="154.989" y1="300.23" x2="143.704" y2="306.75"/>
  <line class="uuid-f03232d1-ec90-44c3-8949-d755444df59c" x1="146.486" y1="292.095" x2="134.296" y2="299.13"/>
  <line class="uuid-f03232d1-ec90-44c3-8949-d755444df59c" x1="140.234" y1="282.69" x2="126.872" y2="290.41"/>
  <line class="uuid-f03232d1-ec90-44c3-8949-d755444df59c" x1="137.034" y1="271.501" x2="121.643" y2="280.395"/>
  <line class="uuid-f03232d1-ec90-44c3-8949-d755444df59c" x1="136.912" y1="258.506" x2="119.616" y2="268.521"/>
  <line class="uuid-f03232d1-ec90-44c3-8949-d755444df59c" x1="136.813" y1="245.558" x2="123.38" y2="253.303"/>
  <line class="uuid-f03232d1-ec90-44c3-8949-d755444df59c" x1="126.408" y1="309.782" x2="126.408" y2="295.443"/>
  <line class="uuid-f03232d1-ec90-44c3-8949-d755444df59c" x1="137.67" y1="322.457" x2="137.67" y2="306.459"/>
  <line class="uuid-f03232d1-ec90-44c3-8949-d755444df59c" x1="149.002" y1="330.545" x2="149.002" y2="313.957"/>
  <line class="uuid-f03232d1-ec90-44c3-8949-d755444df59c" x1="160.265" y1="336.505" x2="160.265" y2="319.477"/>
  <line class="uuid-f03232d1-ec90-44c3-8949-d755444df59c" x1="171.576" y1="341.023" x2="171.576" y2="323.804"/>
  <line class="uuid-f03232d1-ec90-44c3-8949-d755444df59c" x1="182.861" y1="344.346" x2="182.861" y2="327.001"/>
  <line class="uuid-f03232d1-ec90-44c3-8949-d755444df59c" x1="194.17" y1="346.741" x2="194.17" y2="329.349"/>
  <line class="uuid-f03232d1-ec90-44c3-8949-d755444df59c" x1="205.433" y1="348.327" x2="205.433" y2="330.982"/>
  <line class="uuid-f03232d1-ec90-44c3-8949-d755444df59c" x1="216.718" y1="349.232" x2="216.718" y2="331.888"/>
  <line class="uuid-f03232d1-ec90-44c3-8949-d755444df59c" x1="228.029" y1="349.453" x2="228.029" y2="332.035"/>
  <line class="uuid-f03232d1-ec90-44c3-8949-d755444df59c" x1="239.29" y1="349.011" x2="239.29" y2="331.523"/>
  <line class="uuid-f03232d1-ec90-44c3-8949-d755444df59c" x1="250.575" y1="347.842" x2="250.575" y2="330.35"/>
  <line class="uuid-f03232d1-ec90-44c3-8949-d755444df59c" x1="261.886" y1="345.957" x2="261.886" y2="328.469"/>
  <line class="uuid-f03232d1-ec90-44c3-8949-d755444df59c" x1="273.148" y1="343.172" x2="273.148" y2="325.806"/>
  <line class="uuid-f03232d1-ec90-44c3-8949-d755444df59c" x1="284.481" y1="339.387" x2="284.481" y2="322.214"/>
  <line class="uuid-f03232d1-ec90-44c3-8949-d755444df59c" x1="295.743" y1="334.357" x2="295.743" y2="317.475"/>
  <line class="uuid-f03232d1-ec90-44c3-8949-d755444df59c" x1="307.005" y1="327.59" x2="307.005" y2="311.099"/>
  <line class="uuid-f03232d1-ec90-44c3-8949-d755444df59c" x1="318.339" y1="317.964" x2="318.339" y2="302.327"/>
  <line class="uuid-f03232d1-ec90-44c3-8949-d755444df59c" x1="329.601" y1="299.203" x2="329.601" y2="288.504"/>
</svg>