<?xml version="1.0" encoding="UTF-8"?>
<svg id="uuid-fc0c3ebc-d190-4005-bdc6-fa9c8faafea4" data-name="&amp;lt;Layer&amp;gt;" xmlns="http://www.w3.org/2000/svg" viewBox="0 0 451.11 451.11">
  <defs>
    <style>
      .uuid-e00bee59-d487-4b4b-8c46-28cec3d25082, .uuid-a3724922-5c26-4ab1-9d7f-ef126781ce10, .uuid-5de9756d-bb70-4c3e-8c3d-a59721c4a4cb {
        fill: none;
        stroke: #000;
        stroke-linecap: round;
      }

      .uuid-e00bee59-d487-4b4b-8c46-28cec3d25082, .uuid-5de9756d-bb70-4c3e-8c3d-a59721c4a4cb {
        stroke-linejoin: round;
        stroke-width: 4.117px;
      }

      .uuid-a3724922-5c26-4ab1-9d7f-ef126781ce10 {
        stroke-miterlimit: 10;
        stroke-width: 1.163px;
      }

      .uuid-5de9756d-bb70-4c3e-8c3d-a59721c4a4cb {
        fill-rule: evenodd;
      }
    </style>
  </defs>
  <polyline class="uuid-5de9756d-bb70-4c3e-8c3d-a59721c4a4cb" points="310.108 120.398 316.921 124.353 318.022 124.99"/>
  <path class="uuid-5de9756d-bb70-4c3e-8c3d-a59721c4a4cb" d="M152.446,222.556c-.122.295-.291.585-.412.879-.222.559-.443,1.197-.685,1.781,0,.078-.048.126-.048.174-.293.584-.489,1.221-.662,1.927-.169.463-.269.979-.389,1.442-.122.417-.247.832-.247,1.295-.048.169-.122.343-.122.511-.095.467-.169.88-.169,1.273-.1.706-.17,1.464-.17,2.222"/>
  <path class="uuid-5de9756d-bb70-4c3e-8c3d-a59721c4a4cb" d="M151.398,362.747c.295.293.637.511,1.049.805.419.295.931.589,1.468.806.511.295,1.049.541,1.659.832M155.773,365.238c-17.614-.633-42.994-10.037-42.994-30.9"/>
  <path class="uuid-5de9756d-bb70-4c3e-8c3d-a59721c4a4cb" d="M113.243,221.629c0-1.737,0-3.375.12-4.887,0-.562,0-1.099.074-1.615.048-1.049.096-2.101.221-3.076.07-1.269.243-2.443.463-3.543.048-.632.17-1.269.343-1.928.121-.636.291-1.269.463-1.905.195-.637.415-1.269.633-1.933.125-.463.319-.853.489-1.269"/>
  <path class="uuid-5de9756d-bb70-4c3e-8c3d-a59721c4a4cb" d="M116.099,201.472c2.567-6.033,7.428-10.673,16.317-15.854,4.596-2.613,9.115-5.228,13.537-7.793"/>
  <path class="uuid-5de9756d-bb70-4c3e-8c3d-a59721c4a4cb" d="M322.201,227.369c-.077,7.619-.077,16.608-.077,27.823,0,8.942-6.325,19.81-13.972,24.28-38.349,22.11-106.801,61.851-145.077,83.912-2.712,1.564-5.279,2.149-7.428,1.807h-.074c-2.074-.291-3.76-1.391-4.86-3.275-.17-.169-.343-.389-.413-.633-.467-.931-.809-2.026-.979-3.248-.121-.806-.173-1.686-.243-2.737"/>
  <polyline class="uuid-5de9756d-bb70-4c3e-8c3d-a59721c4a4cb" points="267.431 196.001 322.713 164.05 322.713 160.117"/>
  <path class="uuid-5de9756d-bb70-4c3e-8c3d-a59721c4a4cb" d="M322.713,160.117c.88-.343,1.222-.221,2.028.147,2.98,1.686,5.886,3.397,8.842,5.082-1.171-.489-1.292-.441-2.444,0"/>
  <path class="uuid-5de9756d-bb70-4c3e-8c3d-a59721c4a4cb" d="M285.142,203.331c8.647-4.986,15.634-.953,15.634,9.037s-6.987,22.131-15.634,27.116c-8.646,5.008-15.685.953-15.685-9.041s7.039-22.105,15.685-27.113Z"/>
  <path class="uuid-5de9756d-bb70-4c3e-8c3d-a59721c4a4cb" d="M138.502,189.405c16.387-25.624,32.757-51.25,49.074-76.873,3.834-5.792,12.386-14.66,20.153-11.016"/>
  <path class="uuid-5de9756d-bb70-4c3e-8c3d-a59721c4a4cb" d="M215.521,106.034c-7.719-3.617-16.196,5.102-20.103,11.016-17.418,27.333-34.884,54.672-52.325,82.031"/>
  <polyline class="uuid-5de9756d-bb70-4c3e-8c3d-a59721c4a4cb" points="147.759 201.741 147.637 201.694 260.591 91.4"/>
  <polyline class="uuid-5de9756d-bb70-4c3e-8c3d-a59721c4a4cb" points="296.28 118.076 297.112 120.251 285.9 126.723 219.48 165.076 172.724 192.068 269.362 96.456"/>
  <polyline class="uuid-5de9756d-bb70-4c3e-8c3d-a59721c4a4cb" points="288.391 96.188 294.548 113.164 296.28 118.076"/>
  <path class="uuid-5de9756d-bb70-4c3e-8c3d-a59721c4a4cb" d="M297.112,120.225c4.812-2.613,8.819-2.196,12.996.173"/>
  <line class="uuid-e00bee59-d487-4b4b-8c46-28cec3d25082" x1="152.446" y1="222.508" x2="152.446" y2="222.556"/>
  <line class="uuid-e00bee59-d487-4b4b-8c46-28cec3d25082" x1="149.543" y1="234.061" x2="149.079" y2="355.297"/>
  <line class="uuid-e00bee59-d487-4b4b-8c46-28cec3d25082" x1="112.779" y1="334.338" x2="113.243" y2="221.629"/>
  <line class="uuid-e00bee59-d487-4b4b-8c46-28cec3d25082" x1="266.113" y1="255.997" x2="260.763" y2="252.943"/>
  <path class="uuid-5de9756d-bb70-4c3e-8c3d-a59721c4a4cb" d="M260.763,252.943c-10.92-9.893-6.06-48.244,6.668-56.942"/>
  <line class="uuid-e00bee59-d487-4b4b-8c46-28cec3d25082" x1="331.138" y1="165.345" x2="272.732" y2="199.055"/>
  <path class="uuid-5de9756d-bb70-4c3e-8c3d-a59721c4a4cb" d="M272.732,199.055c-12.264,8.425-18.076,46.61-6.618,56.942"/>
  <line class="uuid-e00bee59-d487-4b4b-8c46-28cec3d25082" x1="331.138" y1="222.188" x2="272.659" y2="255.945"/>
  <path class="uuid-5de9756d-bb70-4c3e-8c3d-a59721c4a4cb" d="M272.659,255.945c-16.609,9.604-16.609-47.242.073-56.89"/>
  <path class="uuid-5de9756d-bb70-4c3e-8c3d-a59721c4a4cb" d="M331.138,165.345c9.478-5.449,9.7,51.25,0,56.843"/>
  <line class="uuid-e00bee59-d487-4b4b-8c46-28cec3d25082" x1="143.093" y1="199.081" x2="139.256" y2="196.855"/>
  <path class="uuid-5de9756d-bb70-4c3e-8c3d-a59721c4a4cb" d="M139.256,196.855c-2.196-1.269-2.882-4.077-1.486-6.203"/>
  <line class="uuid-e00bee59-d487-4b4b-8c46-28cec3d25082" x1="137.77" y1="190.652" x2="138.502" y2="189.405"/>
  <line class="uuid-e00bee59-d487-4b4b-8c46-28cec3d25082" x1="207.729" y1="101.516" x2="216.622" y2="106.692"/>
  <line class="uuid-e00bee59-d487-4b4b-8c46-28cec3d25082" x1="160.364" y1="199.203" x2="158.311" y2="200.425"/>
  <path class="uuid-5de9756d-bb70-4c3e-8c3d-a59721c4a4cb" d="M158.311,200.425c-2.612,1.512-7.94,2.854-10.552,1.342"/>
  <line class="uuid-e00bee59-d487-4b4b-8c46-28cec3d25082" x1="147.759" y1="201.741" x2="143.093" y2="199.081"/>
  <line class="uuid-e00bee59-d487-4b4b-8c46-28cec3d25082" x1="216.622" y1="106.692" x2="232.473" y2="118.908"/>
  <line class="uuid-e00bee59-d487-4b4b-8c46-28cec3d25082" x1="172.724" y1="192.068" x2="158.264" y2="200.399"/>
  <path class="uuid-5de9756d-bb70-4c3e-8c3d-a59721c4a4cb" d="M260.591,91.4c4.179-3.568,9.334-7.013,15.023-4.96"/>
  <line class="uuid-e00bee59-d487-4b4b-8c46-28cec3d25082" x1="275.614" y1="86.441" x2="284.385" y2="91.497"/>
  <path class="uuid-5de9756d-bb70-4c3e-8c3d-a59721c4a4cb" d="M284.385,91.497c-5.693-2.049-10.847,1.394-15.023,4.96"/>
  <path class="uuid-5de9756d-bb70-4c3e-8c3d-a59721c4a4cb" d="M269.362,96.456c7.888-7.182,16.365-7.741,19.029-.269"/>
  <line class="uuid-e00bee59-d487-4b4b-8c46-28cec3d25082" x1="256.219" y1="134.051" x2="279.45" y2="111.357"/>
  <line class="uuid-e00bee59-d487-4b4b-8c46-28cec3d25082" x1="152.446" y1="222.53" x2="116.05" y2="201.498"/>
  <line class="uuid-e00bee59-d487-4b4b-8c46-28cec3d25082" x1="197.692" y1="152.839" x2="215.449" y2="125.648"/>
  <path class="uuid-5de9756d-bb70-4c3e-8c3d-a59721c4a4cb" d="M318.022,124.99c-1.416-.637-2.686-.928-3.882-.928-2.005,0-4.249.902-5.986,1.855-48.232,27.485-96.164,55.698-144.249,83.448-4.905,2.678-9.015,8.267-11.458,13.142"/>
  <path class="uuid-5de9756d-bb70-4c3e-8c3d-a59721c4a4cb" d="M316.921,124.353c3.544.931,5.914,4.177,5.914,9.405,0,10.505,0,19.055-.074,26.358,0,1.343,0,2.689-.048,3.955"/>
  <line class="uuid-a3724922-5c26-4ab1-9d7f-ef126781ce10" x1="320.513" y1="255.143" x2="307.322" y2="278.081"/>
  <line class="uuid-a3724922-5c26-4ab1-9d7f-ef126781ce10" x1="303.783" y1="239.017" x2="267.431" y2="302.019"/>
  <line class="uuid-a3724922-5c26-4ab1-9d7f-ef126781ce10" x1="267.724" y1="256.266" x2="228.128" y2="324.908"/>
  <line class="uuid-a3724922-5c26-4ab1-9d7f-ef126781ce10" x1="317.727" y1="124.549" x2="281.893" y2="186.645"/>
  <line class="uuid-a3724922-5c26-4ab1-9d7f-ef126781ce10" x1="255.071" y1="233.082" x2="188.114" y2="349.092"/>
  <line class="uuid-a3724922-5c26-4ab1-9d7f-ef126781ce10" x1="282.431" y1="140.491" x2="152.803" y2="365.062"/>
  <line class="uuid-a3724922-5c26-4ab1-9d7f-ef126781ce10" x1="244.151" y1="161.681" x2="148.149" y2="327.936"/>
  <line class="uuid-a3724922-5c26-4ab1-9d7f-ef126781ce10" x1="203.601" y1="186.766" x2="149.713" y2="280.083"/>
  <line class="uuid-a3724922-5c26-4ab1-9d7f-ef126781ce10" x1="162.782" y1="212.272" x2="151.592" y2="231.739"/>
  <line class="uuid-a3724922-5c26-4ab1-9d7f-ef126781ce10" x1="147.343" y1="355.518" x2="138.987" y2="360.351"/>
  <line class="uuid-a3724922-5c26-4ab1-9d7f-ef126781ce10" x1="147.807" y1="342.205" x2="126.044" y2="354.76"/>
  <line class="uuid-a3724922-5c26-4ab1-9d7f-ef126781ce10" x1="148.149" y1="328.989" x2="117.371" y2="346.75"/>
  <line class="uuid-a3724922-5c26-4ab1-9d7f-ef126781ce10" x1="148.321" y1="315.845" x2="113.78" y2="335.804"/>
  <line class="uuid-a3724922-5c26-4ab1-9d7f-ef126781ce10" x1="148.391" y1="302.777" x2="113.828" y2="322.734"/>
  <line class="uuid-a3724922-5c26-4ab1-9d7f-ef126781ce10" x1="148.443" y1="289.708" x2="113.901" y2="309.664"/>
  <line class="uuid-a3724922-5c26-4ab1-9d7f-ef126781ce10" x1="148.491" y1="276.638" x2="113.901" y2="296.596"/>
  <line class="uuid-a3724922-5c26-4ab1-9d7f-ef126781ce10" x1="148.564" y1="263.57" x2="113.949" y2="283.527"/>
  <line class="uuid-a3724922-5c26-4ab1-9d7f-ef126781ce10" x1="148.612" y1="250.5" x2="114.001" y2="270.483"/>
  <line class="uuid-a3724922-5c26-4ab1-9d7f-ef126781ce10" x1="148.612" y1="237.457" x2="114.071" y2="257.413"/>
  <line class="uuid-a3724922-5c26-4ab1-9d7f-ef126781ce10" x1="150.934" y1="223.093" x2="114.071" y2="244.393"/>
  <line class="uuid-a3724922-5c26-4ab1-9d7f-ef126781ce10" x1="139.671" y1="216.547" x2="114.464" y2="231.103"/>
  <line class="uuid-a3724922-5c26-4ab1-9d7f-ef126781ce10" x1="127.997" y1="210.244" x2="115.002" y2="217.769"/>
  <line class="uuid-a3724922-5c26-4ab1-9d7f-ef126781ce10" x1="141.773" y1="214.468" x2="127.655" y2="190.015"/>
  <line class="uuid-a3724922-5c26-4ab1-9d7f-ef126781ce10" x1="163.709" y1="207.36" x2="160.29" y2="201.4"/>
  <line class="uuid-a3724922-5c26-4ab1-9d7f-ef126781ce10" x1="183.275" y1="196.075" x2="179.806" y2="190.115"/>
  <line class="uuid-a3724922-5c26-4ab1-9d7f-ef126781ce10" x1="202.794" y1="184.764" x2="199.377" y2="178.826"/>
  <line class="uuid-a3724922-5c26-4ab1-9d7f-ef126781ce10" x1="222.314" y1="173.455" x2="218.94" y2="167.541"/>
  <line class="uuid-a3724922-5c26-4ab1-9d7f-ef126781ce10" x1="241.881" y1="162.118" x2="238.51" y2="156.236"/>
  <line class="uuid-a3724922-5c26-4ab1-9d7f-ef126781ce10" x1="261.4" y1="150.807" x2="258.026" y2="144.973"/>
  <line class="uuid-a3724922-5c26-4ab1-9d7f-ef126781ce10" x1="280.963" y1="139.498" x2="277.593" y2="133.688"/>
  <line class="uuid-a3724922-5c26-4ab1-9d7f-ef126781ce10" x1="300.482" y1="128.191" x2="297.159" y2="122.399"/>
  <line class="uuid-a3724922-5c26-4ab1-9d7f-ef126781ce10" x1="151.225" y1="182.833" x2="148.271" y2="177.705"/>
  <line class="uuid-a3724922-5c26-4ab1-9d7f-ef126781ce10" x1="164.93" y1="161.386" x2="161.976" y2="156.258"/>
  <line class="uuid-a3724922-5c26-4ab1-9d7f-ef126781ce10" x1="178.636" y1="139.961" x2="175.678" y2="134.832"/>
  <line class="uuid-a3724922-5c26-4ab1-9d7f-ef126781ce10" x1="192.342" y1="118.514" x2="189.384" y2="113.385"/>
  <line class="uuid-a3724922-5c26-4ab1-9d7f-ef126781ce10" x1="170.526" y1="191.262" x2="167.079" y2="185.35"/>
  <line class="uuid-a3724922-5c26-4ab1-9d7f-ef126781ce10" x1="187.235" y1="175.14" x2="183.74" y2="169.057"/>
  <line class="uuid-a3724922-5c26-4ab1-9d7f-ef126781ce10" x1="203.844" y1="158.723" x2="200.426" y2="152.762"/>
  <line class="uuid-a3724922-5c26-4ab1-9d7f-ef126781ce10" x1="220.456" y1="142.308" x2="217.085" y2="136.496"/>
  <line class="uuid-a3724922-5c26-4ab1-9d7f-ef126781ce10" x1="236.994" y1="125.895" x2="233.745" y2="120.225"/>
  <line class="uuid-a3724922-5c26-4ab1-9d7f-ef126781ce10" x1="253.607" y1="109.452" x2="250.431" y2="103.959"/>
  <line class="uuid-a3724922-5c26-4ab1-9d7f-ef126781ce10" x1="270.337" y1="93.307" x2="267.724" y2="88.785"/>
</svg>