<?xml version="1.0" encoding="UTF-8"?>
<svg id="uuid-af49a7d0-7de6-468a-8680-b5ea4d0ff4c4" data-name="&amp;lt;Layer&amp;gt;" xmlns="http://www.w3.org/2000/svg" viewBox="0 0 451.11 451.11">
  <defs>
    <style>
      .uuid-63e145d7-a0dd-4ac3-938d-1353cd1be493 {
        stroke-miterlimit: 10;
        stroke-width: 1.163px;
      }

      .uuid-63e145d7-a0dd-4ac3-938d-1353cd1be493, .uuid-db27b321-30cb-42f3-a281-e567ef1056c0 {
        fill: none;
        stroke: #000;
        stroke-linecap: round;
      }

      .uuid-db27b321-30cb-42f3-a281-e567ef1056c0 {
        fill-rule: evenodd;
        stroke-linejoin: round;
        stroke-width: 4.117px;
      }
    </style>
  </defs>
  <polyline class="uuid-db27b321-30cb-42f3-a281-e567ef1056c0" points="267.202 215.404 356.831 187.315 356.831 213.965 297.056 232.653"/>
  <polygon class="uuid-db27b321-30cb-42f3-a281-e567ef1056c0" points="342.661 259.011 342.661 285.64 306.361 306.597 306.361 279.969 342.661 259.011"/>
  <polygon class="uuid-db27b321-30cb-42f3-a281-e567ef1056c0" points="306.361 279.969 306.361 306.597 230.879 262.966 230.879 236.339 306.361 279.969"/>
  <polygon class="uuid-db27b321-30cb-42f3-a281-e567ef1056c0" points="230.879 236.339 230.879 262.966 182.193 314.68 182.193 288.057 230.879 236.339"/>
  <polygon class="uuid-db27b321-30cb-42f3-a281-e567ef1056c0" points="182.193 288.057 182.193 314.68 94.278 163.057 94.278 136.43 182.193 288.057"/>
  <polygon class="uuid-db27b321-30cb-42f3-a281-e567ef1056c0" points="94.278 136.43 356.757 187.337 267.154 215.382 342.661 259.011 306.361 279.969 230.879 236.339 182.193 288.057 94.278 136.43"/>
  <line class="uuid-63e145d7-a0dd-4ac3-938d-1353cd1be493" x1="298.177" y1="230.942" x2="286.503" y2="210.741"/>
  <line class="uuid-63e145d7-a0dd-4ac3-938d-1353cd1be493" x1="320.236" y1="224.028" x2="308.561" y2="203.828"/>
  <line class="uuid-63e145d7-a0dd-4ac3-938d-1353cd1be493" x1="342.294" y1="217.115" x2="330.642" y2="196.889"/>
  <line class="uuid-63e145d7-a0dd-4ac3-938d-1353cd1be493" x1="354.851" y1="193.714" x2="353.045" y2="190.538"/>
  <line class="uuid-63e145d7-a0dd-4ac3-938d-1353cd1be493" x1="326.565" y1="293.333" x2="316.449" y2="275.767"/>
  <line class="uuid-63e145d7-a0dd-4ac3-938d-1353cd1be493" x1="340.854" y1="272.861" x2="336.211" y2="264.825"/>
  <line class="uuid-63e145d7-a0dd-4ac3-938d-1353cd1be493" x1="304.675" y1="282.387" x2="295.393" y2="298.51"/>
  <line class="uuid-63e145d7-a0dd-4ac3-938d-1353cd1be493" x1="295.662" y1="275.352" x2="285.572" y2="292.916"/>
  <line class="uuid-63e145d7-a0dd-4ac3-938d-1353cd1be493" x1="285.915" y1="269.711" x2="275.752" y2="287.25"/>
  <line class="uuid-63e145d7-a0dd-4ac3-938d-1353cd1be493" x1="276.168" y1="264.067" x2="266.005" y2="281.607"/>
  <line class="uuid-63e145d7-a0dd-4ac3-938d-1353cd1be493" x1="266.348" y1="258.423" x2="256.233" y2="275.962"/>
  <line class="uuid-63e145d7-a0dd-4ac3-938d-1353cd1be493" x1="256.601" y1="252.782" x2="246.439" y2="270.322"/>
  <line class="uuid-63e145d7-a0dd-4ac3-938d-1353cd1be493" x1="246.828" y1="247.113" x2="236.67" y2="264.678"/>
  <line class="uuid-63e145d7-a0dd-4ac3-938d-1353cd1be493" x1="236.839" y1="241.836" x2="232.832" y2="248.727"/>
  <line class="uuid-63e145d7-a0dd-4ac3-938d-1353cd1be493" x1="197.463" y1="296.187" x2="189.644" y2="282.512"/>
  <line class="uuid-63e145d7-a0dd-4ac3-938d-1353cd1be493" x1="213.681" y1="279.016" x2="205.788" y2="265.337"/>
  <line class="uuid-63e145d7-a0dd-4ac3-938d-1353cd1be493" x1="229.12" y1="260.576" x2="221.986" y2="248.212"/>
  <line class="uuid-63e145d7-a0dd-4ac3-938d-1353cd1be493" x1="180.334" y1="291.596" x2="175.647" y2="299.705"/>
  <line class="uuid-63e145d7-a0dd-4ac3-938d-1353cd1be493" x1="174.815" y1="278.649" x2="169.076" y2="288.52"/>
  <line class="uuid-63e145d7-a0dd-4ac3-938d-1353cd1be493" x1="168.271" y1="267.39" x2="162.578" y2="277.257"/>
  <line class="uuid-63e145d7-a0dd-4ac3-938d-1353cd1be493" x1="161.773" y1="256.127" x2="156.007" y2="265.995"/>
  <line class="uuid-63e145d7-a0dd-4ac3-938d-1353cd1be493" x1="155.201" y1="244.842" x2="149.51" y2="254.736"/>
  <line class="uuid-63e145d7-a0dd-4ac3-938d-1353cd1be493" x1="148.678" y1="233.58" x2="142.938" y2="243.473"/>
  <line class="uuid-63e145d7-a0dd-4ac3-938d-1353cd1be493" x1="142.132" y1="222.321" x2="136.44" y2="232.212"/>
  <line class="uuid-63e145d7-a0dd-4ac3-938d-1353cd1be493" x1="135.634" y1="211.058" x2="129.89" y2="220.927"/>
  <line class="uuid-63e145d7-a0dd-4ac3-938d-1353cd1be493" x1="129.063" y1="199.795" x2="123.37" y2="209.664"/>
  <line class="uuid-63e145d7-a0dd-4ac3-938d-1353cd1be493" x1="122.566" y1="188.537" x2="116.8" y2="198.405"/>
  <line class="uuid-63e145d7-a0dd-4ac3-938d-1353cd1be493" x1="115.994" y1="177.275" x2="110.302" y2="187.142"/>
  <line class="uuid-63e145d7-a0dd-4ac3-938d-1353cd1be493" x1="109.496" y1="166.012" x2="103.757" y2="175.884"/>
  <line class="uuid-63e145d7-a0dd-4ac3-938d-1353cd1be493" x1="102.924" y1="154.728" x2="97.233" y2="164.621"/>
</svg>