<?xml version="1.0" encoding="UTF-8"?>
<svg id="uuid-aca6a6bf-e7c2-42a3-b57a-0657492667e2" data-name="&amp;lt;Layer&amp;gt;" xmlns="http://www.w3.org/2000/svg" viewBox="0 0 451.11 451.11">
  <defs>
    <style>
      .uuid-fcc09714-3118-4136-bcd5-0983ad62b3ad {
        fill: none;
        stroke-width: 1.163px;
      }

      .uuid-fcc09714-3118-4136-bcd5-0983ad62b3ad, .uuid-05a15ec0-02e9-4ce0-8e57-3c149f1e9af7 {
        stroke: #000;
        stroke-linecap: round;
        stroke-miterlimit: 10;
      }

      .uuid-05a15ec0-02e9-4ce0-8e57-3c149f1e9af7 {
        fill: #3d6680;
        fill-rule: evenodd;
        stroke-width: .09px;
      }
    </style>
  </defs>
  <g>
    <path class="uuid-05a15ec0-02e9-4ce0-8e57-3c149f1e9af7" d="M191.911,170.021c.066-1.133,1.041-1.998,2.174-1.931,1.135.066,1.999,1.041,1.933,2.175l-4.107-.244h0ZM194.181,186.193l-4.048-.736h0l.081-.467.086-.471.08-.475.077-.471.078-.474.074-.463.07-.475.073-.482.066-.471.067-.475.066-.475.06-.478.062-.485.062-.471.056-.481.058-.487.052-.47.051-.487.052-.481.044-.486.048-.493.048-.486.044-.481.04-.493.044-.485.032-.493.042-.501.036-.486.032-.493.034-.504.034-.497.029-.497,4.107.244-.03.511-.034.511-.032.504-.034.507-.036.516-.04.5-.04.509-.044.508-.04.493-.044.511-.048.5-.048.493-.052.501-.052.496-.051.501-.06.507-.058.486-.054.497-.064.5-.062.485-.066.493-.066.497-.066.489-.074.499-.073.483-.07.489-.082.5-.077.489-.084.487-.082.489-.084.485-.088.489h0ZM194.181,186.193c-.203,1.115-1.276,1.857-2.391,1.655-1.115-.202-1.859-1.276-1.656-2.391l4.048.736h0ZM168.069,278.512l-4.099-.353v-.016l.383-3.624.449-3.488.507-3.363.566-3.245.626-3.135.674-3.032.72-2.946.766-2.86.802-2.785.839-2.719.872-2.667.894-2.612.927-2.576.939-2.545.957-2.525.971-2.509.976-2.505.981-2.517.983-2.529.983-2.553.975-2.583.968-2.631.953-2.682.938-2.741.916-2.814.894-2.9.871-2.984.84-3.083.805-3.194.77-3.315.732-3.444.688-3.58,4.048.736-.703,3.66-.748,3.518-.782,3.389-.828,3.275-.862,3.156-.886,3.05-.916,2.958-.937,2.874-.954,2.792-.967,2.727-.982,2.667-.983,2.612-.989,2.577-.99,2.535-.983,2.517-.975,2.497-.965,2.495-.941,2.495-.931,2.509-.906,2.531-.878,2.561-.851,2.601-.816,2.653-.78,2.711-.744,2.779-.698,2.858-.659,2.944-.604,3.046-.552,3.149-.493,3.267-.441,3.401-.367,3.528v-.014h0ZM168.069,278.526c-.104,1.129-1.111,1.961-2.242,1.859-1.129-.104-1.96-1.111-1.858-2.242l4.099.383h0ZM167.318,295.996h-4.113v-.611l.004-.602.004-.604.008-.6.007-.589.008-.592.01-.593.012-.581.014-.584.016-.578.018-.578.018-.567.019-.57.022-.567.022-.562.026-.559.026-.552.026-.545.026-.552.032-.559.034-.533.029-.537.034-.544.036-.527.034-.526.036-.53.036-.527.04-.522.045-.511.041-.511.04-.515.044-.507,4.099.353-.044.5-.042.493-.04.511-.036.511-.04.508-.038.511-.036.509-.033.526-.038.526-.032.515-.03.537-.032.533-.026.523-.026.536-.026.545-.026.552-.026.545-.022.548-.022.552-.018.556-.018.567-.018.562-.015.563-.014.571-.01.574-.012.578-.008.578-.006.588-.007.585-.004.589-.004.596v.596h0ZM167.318,295.996c0,1.133-.923,2.057-2.056,2.057s-2.058-.924-2.058-2.057h4.113ZM184.041,318.929l-2.039,3.577-.007-.004-1.641-.961-1.542-.934-1.446-.916-1.357-.894-1.27-.875-1.185-.862-1.099-.846-1.027-.835-.95-.824-.871-.813-.81-.806-.744-.81-.676-.802-.616-.798-.555-.802-.5-.802-.445-.802-.391-.806-.335-.809-.291-.798-.245-.802-.202-.81-.166-.806-.132-.802-.096-.802-.073-.794-.056-.806-.036-.805-.018-.814-.012-.812-.004-.824v-.832h4.113v.824l.004.794.012.776.019.748.03.718.047.702.067.684.082.662.102.641.129.628.158.619.188.61.217.615.254.602.293.607.335.611.391.626.437.632.497.644.56.662.626.678.698.696.77.718.846.735.931.755,1.011.78,1.097.794,1.195.824,1.285.85,1.38.871,1.482.898,1.59.931-.008-.004h0ZM184.049,318.933c.982.567,1.324,1.829.757,2.811-.566.983-1.828,1.324-2.81.758l2.053-3.569h0ZM189.954,321.542l-1.405,3.871.03.008-.239-.082-.229-.084-.224-.077-.235-.088-.225-.086-.217-.081-.222-.084-.227-.088-.218-.084-.209-.086-.229-.091-.213-.092-.199-.086-.21-.084-.225-.099-.195-.088-.199-.088-.214-.096-.199-.092-.195-.092-.195-.092-.199-.095-.202-.1-.181-.092-.188-.092-.199-.103-.183-.096-.192-.099-.177-.1-.184-.099-.177-.1-.18-.099,2.039-3.577.151.086.162.091.155.086.162.084.154.084.169.088.155.08.173.086.18.091.158.078.17.081.179.086.18.084.184.084.169.081.192.082.195.088.166.07.195.084.199.084.191.078.184.076.203.078.202.084.191.073.206.078.21.08.209.078.199.074.217.077.214.078.209.073.03.008h0ZM189.924,321.534c1.071.372,1.642,1.546,1.269,2.617-.371,1.071-1.545,1.641-2.615,1.27l1.346-3.886h0ZM264.291,320.431l1.538,3.819h0l-1.976.754-2.06.703-2.146.654-2.218.604-2.286.563-2.354.511-2.407.459-2.461.419-2.505.372-2.551.327-2.587.283-2.608.228-2.639.191-2.649.148-2.663.099-2.664.052-2.665.012-2.663-.034-2.645-.081-2.627-.126-2.601-.165-2.571-.214-2.535-.257-2.492-.305-2.443-.343-2.391-.393-2.33-.439-2.258-.482-2.194-.522-2.114-.575-2.035-.618-1.943-.666,1.405-3.871,1.803.622,1.903.573,1.998.545,2.082.5,2.164.46,2.234.415,2.295.379,2.362.335,2.41.291,2.454.251,2.497.205,2.529.166,2.561.118,2.571.081,2.591.032,2.597-.01,2.597-.052,2.591-.099,2.583-.14,2.565-.184,2.535-.228,2.505-.267,2.469-.321,2.425-.357,2.373-.405,2.318-.445,2.252-.489,2.182-.534,2.108-.573,2.02-.618,1.929-.659,1.835-.702h0ZM275.532,313.903l2.436,3.319.004-.004-.35.254-.349.257-.357.258-.357.249-.349.244-.361.249-.365.251-.363.243-.357.239-.365.24-.375.243-.365.227-.363.236-.383.235-.379.228-.368.217-.382.229-.391.221-.375.21-.383.213-.389.214-.387.205-.405.21-.389.191-.387.195-.405.2-.403.187-.401.188-.405.177-.413.18-.408.173-.413.169-1.538-3.819.375-.154.373-.151.361-.158.367-.17.371-.165.361-.173.353-.17.373-.187.367-.184.345-.18.357-.191.361-.192.353-.199.361-.202.347-.199.353-.206.353-.209.349-.214.339-.205.349-.221.35-.221.337-.222.343-.223.349-.232.343-.228.335-.228.339-.235.341-.243.335-.235.327-.236.335-.243.335-.247.004-.004h0ZM275.528,313.907c.912-.674,2.204-.478,2.878.435.674.912.479,2.204-.434,2.876l-2.444-3.311h0ZM284.344,299.204l4.113.177v-.026l-.018.56-.032.548-.034.552-.055.557-.06.548-.073.551-.09.564-.106.552-.125.555-.144.556-.161.551-.18.556-.206.563-.232.559-.249.548-.276.559-.309.56-.331.552-.353.555-.391.556-.412.556-.445.556-.471.552-.504.553-.533.559-.571.558-.596.559-.636.567-.666.57-.707.574-.742.577-.78.586-2.436-3.319.722-.54.676-.527.633-.515.6-.511.563-.5.522-.493.489-.479.453-.47.423-.471.389-.457.365-.452.331-.439.301-.437.28-.431.257-.434.228-.419.21-.419.191-.423.173-.421.154-.407.136-.423.126-.427.106-.423.096-.437.084-.435.073-.438.06-.449.051-.467.042-.467.032-.478.026-.49.018-.493v-.026h0ZM284.344,299.23c.034-1.133.986-2.027,2.12-1.995,1.133.034,2.027.987,1.994,2.12l-4.113-.125h0ZM284.392,295.996h4.113v1.089l-.004.103v.413l-.004.098v.207l-.003.1v.102l-.004.1v.103l-.004.102v.1l-.004.14-.004.099-.004.104-.003.102-.004.099-.004.104-.004.103-.004.118-4.113-.177.004-.088.004-.104.004-.103.003-.099.004-.104.004-.102.004-.1.004-.066v-.098l.004-.104v-.102l.003-.1v-.103l.004-.099v-.206l.004-.1v-.412l.004-.104v-1.015h0ZM284.392,295.996c0-1.133.923-2.057,2.057-2.057s2.056.924,2.056,2.057h-4.113ZM284.392,291.11h4.113v4.886h-4.113v-4.886h0ZM284.392,291.11c0-1.133.923-2.057,2.057-2.057s2.056.924,2.056,2.057h-4.113ZM284.296,280.76l4.107-.309.004.095.006.325.012.327.007.335.008.327.008.328.007.337.004.329.008.323.004.339.004.327.003.327.004.328.004.327.004.327.004.328.004.337v.328l.003.327v.331l.004.327v.99l.004.327v2.661h-4.113v-2.639l-.004-.327v-.99l-.004-.327v-.331l-.004-.327v-.328l-.003-.315-.004-.328-.004-.327-.004-.327-.004-.328-.004-.327-.003-.327-.004-.317-.008-.323-.004-.328-.007-.309-.008-.327-.008-.327-.006-.313-.012-.327-.008-.325.004.096h0ZM284.292,280.664c-.029-1.133.866-2.086,1.999-2.116,1.133-.03,2.086.864,2.116,1.998l-4.115.118h0ZM284.123,277.187h4.113l-.014-.239.01.1.012.099.01.136.012.1.008.106.006.139.004.112.008.106.007.11.007.117.004.144.004.081.007.122.004.15.004.118.004.118.004.117.004.118.003.122.004.111.004.121.004.114.004.081.006.108.004.143.004.11v.062l.008.104.004.095.006.096.004.084.008.06-4.107.309-.006-.118-.004-.099-.008-.104-.004-.103-.006-.104-.008-.143-.004-.11-.004-.078-.007-.114-.004-.147-.004-.122-.004-.113-.004-.118-.004-.122-.002-.117-.004-.118-.004-.118-.004-.117-.004-.085-.006-.114-.004-.147-.004-.077-.008-.11v-.104l-.006-.106-.004-.103-.008-.06-.008-.092-.003-.084-.004-.048-.012-.077-.004-.062-.014-.24h0ZM284.138,277.427c-.129-1.127.678-2.153,1.803-2.282,1.127-.129,2.153.678,2.282,1.803l-4.085.479h0ZM284.053,276.462l4.107-.309-.06-.351h0l.038.156.004.024.007.03.026.158.004.03-.022-.132.01.051.026.162.018.162v.029l-.01-.11.018.166v.026l-.01-.106.018.161.004.166-.004-.11.004.028.003.162v.03l-.003-.11.003.03.004.161v.221h-4.113v-.221l.004.11-.004-.029-.004-.162v-.03l.004.11-.004-.029-.004-.162.004.107.011.11-.018-.165v-.026l.01.107-.018-.162v-.03l.01.111.019.103h-.004l-.03-.184-.004-.03.018.108-.006-.03-.004-.026.022.096-.014-.052-.06-.349h0ZM284.113,276.812c-.276-1.099.389-2.222,1.49-2.499,1.1-.275,2.222.391,2.497,1.49l-3.987,1.009h0ZM257.603,186.197l4.047-.744v.004l.592,3.032.652,2.976.714,2.924.766,2.885.816,2.84.857,2.804.906,2.768.935,2.744.963,2.715.994,2.697,1.011,2.679,1.031,2.672,1.041,2.66,1.045,2.657,1.049,2.652,1.045,2.661,1.038,2.667,1.023,2.679,1.003,2.696.979,2.713.956,2.74.913,2.767.884,2.8.835,2.833.784,2.878.732,2.916.67,2.966.607,3.018.533,3.073.46,3.131.383,3.193.295,3.261-4.107.309-.279-3.142-.368-3.076-.446-3.021-.518-2.968-.585-2.914-.648-2.871-.71-2.828-.762-2.797-.813-2.76-.862-2.734-.897-2.708-.935-2.689-.964-2.675-.989-2.66-1.016-2.649-1.031-2.653-1.037-2.646-1.049-2.653-1.051-2.664-1.042-2.675-1.037-2.685-1.027-2.709-1.009-2.741-.978-2.76-.957-2.796-.919-2.834-.88-2.87-.838-2.914-.788-2.965-.736-3.014-.672-3.072-.608-3.127v.004h0ZM257.603,186.193c-.202-1.115.541-2.19,1.656-2.392,1.114-.202,2.188.541,2.391,1.656l-4.047.736h0ZM255.763,170.386h4.113v-.096l.022.483.026.496.024.475.034.475.033.489.033.482.036.475.038.482.04.475.044.471.048.477.044.479.051.474.052.485.052.465.055.467.059.482.058.471.062.474.06.467.066.465.066.47.069.479.07.471.07.46.078.467.077.475.078.467.077.46.084.467.086.475.081.463-4.047.744-.088-.487-.084-.474-.084-.483-.086-.489-.077-.482-.078-.475-.077-.489-.078-.489-.07-.485-.07-.478-.073-.487-.066-.492-.066-.489-.062-.489-.06-.487-.058-.482-.062-.497-.052-.5-.052-.486-.051-.489-.052-.493-.048-.493-.044-.5-.04-.497-.044-.497-.036-.504-.034-.497-.034-.489-.032-.511-.026-.504-.026-.497-.029-.504v-.096h0ZM255.763,170.482c-.052-1.133.827-2.101,1.96-2.153,1.134-.051,2.101.828,2.153,1.961l-4.113.192h0ZM255.763,170.265h4.113v.003h0v.004h0v.008h0v.106h-4.113v-.106h0v-.008h0v-.004h0v-.003h0ZM255.763,170.265c0-1.134.923-2.057,2.056-2.057s2.057.923,2.057,2.057h-4.113Z"/>
    <path class="uuid-05a15ec0-02e9-4ce0-8e57-3c149f1e9af7" d="M269.59,151.242c.022-1.133.964-2.038,2.098-2.016,1.133.022,2.038.965,2.016,2.097l-4.113-.082h0ZM253.371,174.665l-1.567-3.805h0l.861-.365.853-.379.85-.397.846-.415.836-.431.825-.445.808-.46.798-.483.78-.492.766-.515.744-.527.728-.544.702-.56.677-.577.655-.589.625-.606.604-.626.567-.63.533-.655.511-.668.474-.685.439-.692.408-.714.369-.724.327-.74.295-.765.257-.776.214-.788.173-.814.132-.831.084-.85.044-.876,4.113.082-.051,1.096-.108,1.079-.169,1.053-.217,1.027-.273,1.007-.323.982-.369.949-.415.939-.463.902-.497.883-.541.854-.578.824-.606.802-.645.78-.676.754-.7.728-.728.702-.75.685-.78.658-.798.633-.818.618-.838.592-.846.567-.868.552-.879.526-.89.511-.906.49-.909.467-.913.445-.923.435-.928.408-.927.395h0ZM227.193,179.739l-.052-4.113h-.004l.798-.016.802-.026.802-.029.798-.04.802-.048.794-.06.8-.062.794-.077.798-.082.794-.088.788-.099.795-.114.788-.114.784-.129.791-.132.772-.14.78-.155.78-.162.77-.165.764-.184.77-.188.761-.195.756-.206.75-.213.75-.225.744-.232.732-.239.732-.253.728-.258.722-.273.717-.275.711-.287,1.567,3.805-.762.309-.768.297-.772.288-.78.279-.784.269-.792.261-.794.247-.795.239-.802.228-.806.221-.813.21-.806.195-.816.191-.828.18-.817.17-.824.161-.832.154-.828.14-.835.136-.832.122-.832.113-.846.108-.838.095-.835.088-.84.078-.842.07-.847.058-.838.048-.842.048-.846.03-.839.024-.844.016h-.003ZM210.452,178.212l.861-4.025-.026-.004.479.092.475.092.478.088.475.084.481.078.489.081.489.074.485.077.479.068.496.066.497.062.481.062.491.052.5.055.497.048.504.048.497.048.496.036.501.04.497.034.508.033.495.026.501.022.511.022.511.018.504.018.497.012.504.008.511.003.509.004.504-.004.511-.003.052,4.113-.533.004-.533.003-.537-.003-.527-.004-.533-.008-.54-.01-.533-.019-.527-.018-.526-.022-.53-.022-.541-.033-.523-.033-.526-.032-.53-.042-.526-.044-.527-.047-.518-.048-.527-.056-.515-.055-.526-.06-.526-.062-.511-.07-.511-.066-.523-.073-.515-.078-.512-.08-.504-.082-.511-.085-.511-.092-.508-.088-.505-.099-.5-.1-.026-.004h0ZM210.478,178.215c-1.111-.221-1.833-1.31-1.612-2.421.221-1.111,1.31-1.833,2.421-1.612l-.809,4.033h0ZM178.179,151.283h4.113l.048,1.199.14,1.155.228,1.117.313,1.083.389,1.053.475,1.023.548.997.618.963.692.938.758.917.824.883.88.858.939.828.985.798,1.041.769,1.079.74,1.111.706,1.151.678,1.177.644,1.199.614,1.223.582,1.232.551,1.24.523,1.241.485,1.247.457,1.232.426,1.229.395,1.207.367,1.185.331,1.166.306,1.129.271,1.093.247-.861,4.025-1.167-.261-1.203-.295-1.231-.319-1.266-.353-1.281-.391-1.302-.415-1.314-.457-1.321-.485-1.336-.522-1.328-.559-1.321-.589-1.317-.632-1.302-.666-1.28-.703-1.263-.742-1.236-.78-1.203-.828-1.167-.864-1.126-.909-1.079-.954-1.027-.997-.971-1.045-.905-1.093-.846-1.144-.766-1.199-.68-1.241-.6-1.295-.501-1.346-.401-1.39-.293-1.443-.177-1.486-.063-1.522ZM178.179,151.283c0-1.133.924-2.057,2.057-2.057s2.056.924,2.056,2.057h-4.113Z"/>
    <path class="uuid-05a15ec0-02e9-4ce0-8e57-3c149f1e9af7" d="M209.727,141.484c1.108.243,1.805,1.346,1.563,2.455-.243,1.107-1.346,1.806-2.453,1.563l.89-4.018h0ZM181.572,129.618l3.48-2.2.471.71.505.692.534.666.566.659.6.636.622.618.655.6.68.585.7.563.728.548.75.53.77.515.791.497.802.478.82.46.84.445.842.426.853.409.866.389.875.376.876.36.883.343.883.327.884.309.883.295.88.28.871.261.868.247.862.231.853.218.84.205.824.188-.89,4.018-.876-.202-.89-.213-.905-.232-.912-.245-.928-.262-.931-.283-.939-.295-.941-.317-.951-.331-.941-.349-.95-.365-.948-.389-.943-.405-.939-.427-.935-.445-.922-.471-.913-.481-.909-.511-.89-.53-.88-.555-.864-.574-.838-.597-.832-.622-.809-.65-.784-.674-.758-.702-.732-.722-.704-.754-.676-.776-.644-.806-.608-.838-.574-.858ZM181.572,129.618c-.608-.961-.321-2.233.64-2.84.961-.607,2.234-.32,2.84.64l-3.48,2.2Z"/>
    <path class="uuid-05a15ec0-02e9-4ce0-8e57-3c149f1e9af7" d="M263.074,106.001c-.81-.729-.82-1.933-.03-2.675.792-.744,2.098-.754,2.907-.026l-2.878,2.701h0ZM272.103,126.319l-3.797-1.465.257-.592.232-.596.199-.593.173-.6.148-.592.117-.6.096-.6.066-.596.041-.604.015-.596-.015-.597-.037-.603-.066-.596-.096-.6-.118-.6-.147-.596-.172-.6-.199-.593-.228-.596-.254-.596-.283-.588-.309-.593-.339-.588-.363-.589-.395-.585-.419-.578-.449-.57-.482-.574-.511-.571-.53-.562-.571-.556-.592-.556,2.878-2.701.68.63.652.644.626.65.584.659.563.67.53.68.501.688.467.696.437.7.405.706.375.71.343.722.313.728.279.728.251.74.209.74.184.743.148.748.117.746.082.758.05.75.016.751-.016.757-.055.752-.082.75-.117.747-.148.748-.183.746-.218.74-.249.74-.284.728-.309.726ZM272.103,126.319c-.437.959-1.651,1.412-2.697,1.011-1.045-.401-1.537-1.516-1.099-2.477l3.797,1.465Z"/>
    <path class="uuid-05a15ec0-02e9-4ce0-8e57-3c149f1e9af7" d="M228.742,147.191c-1.133.06-2.104-.743-2.168-1.783-.062-1.042.806-1.939,1.94-1.999l.228,3.782h0ZM260.042,134.163l2.546,2.972-.913.641-.931.614-.95.589-.967.562-.983.537-.997.515-1.017.493-1.029.471-1.038.445-1.051.423-1.067.404-1.067.379-1.075.364-1.089.343-1.089.323-1.101.305-1.099.284-1.111.271-1.105.247-1.103.232-1.111.217-1.111.202-1.109.18-1.103.169-1.099.154-1.101.136-1.085.126-1.085.114-1.083.095-1.07.084-1.056.07-1.053.062-.228-3.782,1-.055,1.013-.07,1.019-.077,1.023-.096,1.034-.106,1.041-.118,1.041-.128,1.041-.148,1.053-.161,1.049-.174,1.045-.187,1.045-.202,1.045-.225,1.045-.232,1.037-.249,1.034-.269,1.019-.284,1.023-.301,1.008-.321,1.001-.335.993-.357.979-.367.964-.393.957-.409.935-.427.919-.449.909-.47.893-.487.866-.504.853-.53.836-.548.809-.567ZM260.042,134.163c.894-.644,2.189-.504,2.892.317.704.82.549,2.012-.345,2.656l-2.546-2.972Z"/>
    <path class="uuid-05a15ec0-02e9-4ce0-8e57-3c149f1e9af7" d="M269.568,120.935c0-1.047.924-1.901,2.057-1.901s2.056.854,2.056,1.901h-4.113ZM269.568,151.68v-30.746h4.113v30.746h-4.113ZM273.681,151.68c0,1.049-.923,1.901-2.056,1.901s-2.057-.852-2.057-1.901h4.113Z"/>
    <path class="uuid-05a15ec0-02e9-4ce0-8e57-3c149f1e9af7" d="M292.358,298.513c0-1.133.924-2.057,2.057-2.057s2.056.924,2.056,2.057h-4.113ZM272.6,350.267l-1.905-3.65h.003l2.322-1.255,2.146-1.246,1.979-1.251,1.821-1.251,1.671-1.251,1.516-1.251,1.384-1.254,1.25-1.259,1.123-1.265,1.009-1.273.897-1.276.792-1.291.702-1.314.614-1.328.53-1.351.456-1.384.386-1.408.323-1.446.265-1.48.21-1.523.158-1.56.118-1.604.077-1.645.048-1.689.018-1.733-.004-1.785-.022-1.829-.029-1.881-.034-1.928-.032-1.979-.022-2.028-.012-2.086h4.113l.012,2.05.022,2.005.032,1.971.034,1.928.029,1.888.022,1.858.004,1.829-.018,1.799-.048,1.763-.084,1.741-.125,1.715-.174,1.692-.231,1.669-.295,1.648-.361,1.63-.445,1.608-.522,1.589-.619,1.572-.717,1.549-.814,1.52-.923,1.505-1.038,1.484-1.155,1.456-1.276,1.435-1.406,1.413-1.53,1.395-1.671,1.376-1.811,1.354-1.953,1.346-2.112,1.332-2.27,1.321-2.432,1.314h.004ZM272.596,350.267c-1.005.523-2.252.129-2.774-.876-.523-1.003-.128-2.251.875-2.774l1.899,3.65h0ZM154.484,318.929l4.113-.088.258,3.062.626,2.94.975,2.828,1.317,2.727,1.645,2.615,1.967,2.513,2.266,2.396,2.561,2.281,2.83,2.156,3.084,2.021,3.325,1.883,3.547,1.747,3.745,1.594,3.926,1.438,4.087,1.284,4.235,1.119,4.356.957,4.467.788,4.548.614,4.617.439,4.666.257,4.691.074,4.706-.114,4.694-.299,4.662-.493,4.621-.688,4.556-.883,4.467-1.089,4.364-1.288,4.242-1.494,4.103-1.7,3.941-1.909,1.905,3.65-4.161,2.013-4.316,1.788-4.448,1.568-4.562,1.346-4.658,1.133-4.731.92-4.799.718-4.838.507-4.864.313-4.869.114-4.853-.074-4.827-.265-4.779-.453-4.709-.636-4.629-.816-4.526-.994-4.412-1.169-4.272-1.336-4.117-1.512-3.943-1.682-3.754-1.843-3.546-2.008-3.319-2.175-3.072-2.34-2.804-2.501-2.525-2.667-2.211-2.83-1.88-2.992-1.523-3.153-1.137-3.301-.728-3.44-.303-3.569ZM154.484,318.929c-.022-1.133.88-2.078,2.013-2.1,1.133-.022,2.078.879,2.1,2.012l-4.113.088Z"/>
    <path class="uuid-05a15ec0-02e9-4ce0-8e57-3c149f1e9af7" d="M178.179,132.279c0-1.133.924-2.057,2.057-2.057s2.056.924,2.056,2.057h-4.113ZM178.179,151.283v-19.004h4.113v19.004h-4.113ZM182.293,151.283c0,1.133-.923,2.056-2.056,2.056s-2.057-.923-2.057-2.056h4.113Z"/>
    <path class="uuid-05a15ec0-02e9-4ce0-8e57-3c149f1e9af7" d="M185.064,142.195c.592.964.291,2.236-.674,2.83-.964.592-2.236.291-2.83-.674l3.503-2.156h0ZM178.179,133.795h4.113l.004.279.012.279.014.276.022.269.03.283.029.265.042.265.047.273.052.273.052.265.058.251.067.257.074.265.081.269.082.258.084.249.096.269.091.251.108.257.11.269.106.25.118.258.117.253.129.258.13.257.132.251.143.269.14.257.14.243.155.268.154.259.155.257-3.503,2.156-.183-.295-.17-.293-.169-.284-.176-.309-.162-.301-.158-.291-.162-.309-.15-.302-.151-.309-.147-.313-.14-.309-.144-.323-.125-.313-.129-.317-.122-.331-.118-.321-.113-.339-.104-.331-.095-.327-.096-.338-.088-.345-.082-.353-.073-.347-.066-.345-.056-.346-.055-.361-.044-.368-.038-.349-.029-.372-.022-.371-.012-.367-.004-.375ZM178.179,133.795c0-1.134.924-2.057,2.057-2.057s2.056.923,2.056,2.057h-4.113Z"/>
    <path class="uuid-05a15ec0-02e9-4ce0-8e57-3c149f1e9af7" d="M181.256,128.519c0-1.133.924-2.057,2.057-2.057s2.056.924,2.056,2.057h-4.113ZM181.256,143.273v-14.754h4.113v14.754h-4.113ZM185.369,143.273c0,1.133-.923,2.056-2.056,2.056s-2.057-.923-2.057-2.056h4.113Z"/>
    <path class="uuid-05a15ec0-02e9-4ce0-8e57-3c149f1e9af7" d="M272.261,140.462c0,1.133-.923,2.056-2.056,2.056s-2.058-.923-2.058-2.056h4.113ZM272.261,125.611v14.851h-4.113v-14.851h4.113ZM268.148,125.611c0-1.133.924-2.056,2.058-2.056s2.056.923,2.056,2.056h-4.113Z"/>
    <path class="uuid-05a15ec0-02e9-4ce0-8e57-3c149f1e9af7" d="M259.259,135.649c0-1.133.923-2.056,2.056-2.056s2.057.923,2.057,2.056h-4.113ZM259.259,150.525v-14.876h4.113v14.876h-4.113ZM263.372,150.525c0,1.133-.924,2.056-2.057,2.056s-2.056-.923-2.056-2.056h4.113Z"/>
    <path class="uuid-05a15ec0-02e9-4ce0-8e57-3c149f1e9af7" d="M230.685,160.102c0,1.133-.924,2.057-2.057,2.057s-2.056-.924-2.056-2.057h4.113ZM230.685,145.299v14.802h-4.113v-14.802h4.113ZM226.571,145.299c0-1.133.923-2.056,2.056-2.056s2.057.923,2.057,2.056h-4.113Z"/>
    <path class="uuid-05a15ec0-02e9-4ce0-8e57-3c149f1e9af7" d="M212.174,161.03c-1.118-.196-1.867-1.267-1.67-2.385.195-1.119,1.266-1.865,2.383-1.671l-.713,4.055h0ZM228.543,158.046l.169,4.113-.526.018-.511.014-.523.015-.526.006-.522.004h-1.03l-.523-.008-.518-.006-.523-.016-.519-.014-.518-.022-.515-.022-.519-.03-.518-.029-.519-.033-.519-.036-.519-.044-.512-.044-.514-.044-.519-.056-.516-.051-.519-.064-.507-.058-.515-.062-.514-.07-.519-.07-.511-.076-.505-.078-.518-.081-.511-.088-.508-.084.713-4.055.487.084.481.081.482.074.497.078.482.069.483.07.485.062.486.064.493.058.489.056.485.051.49.048.485.044.497.044.489.036.489.038.489.033.489.03.489.022.493.022.489.022.489.015.493.016.489.007.493.008h.985l.493-.004.482-.007.493-.016.497-.014.489-.018ZM228.543,158.046c1.133-.044,2.098.838,2.142,1.972.044,1.133-.84,2.098-1.973,2.142l-.169-4.113Z"/>
    <path class="uuid-05a15ec0-02e9-4ce0-8e57-3c149f1e9af7" d="M210.474,158.954c0-1.133.923-2.057,2.057-2.057s2.056.924,2.056,2.057h-4.113ZM210.474,159.002v-.048h4.113v.048h-4.113ZM214.587,159.002c0,1.133-.923,2.056-2.056,2.056s-2.057-.923-2.057-2.056h4.113Z"/>
    <path class="uuid-05a15ec0-02e9-4ce0-8e57-3c149f1e9af7" d="M208.839,160.367c-1.099-.269-1.777-1.386-1.508-2.487.269-1.099,1.388-1.777,2.487-1.508l-.979,3.995h0ZM210.219,156.452l-.846,4.025-.125-.029.088.022-.018-.004-.07-.014-.014-.004-.016-.004-.081-.022-.012-.004.299.058h-.014l-.328-.066-.011-.003.261.055h-.01.022l-.052-.004-.287-.062.299.059-.052-.003-.012-.004.022.004-.261-.048-.081-.022.265.055.022.004-.206-.036-.018-.004-.07-.015.04.008-.018-.004-.014-.004.022.004-.104-.022.979-3.995-.066-.014.06.01.014.004.018.004.07.014-.04-.008.018.004-.177-.028.052.002.287.064-.052-.016-.231-.04.051.004.011.004-.022-.004.327.066-.265-.056-.022-.003.052.006h.01l.291.062.012.004-.299-.058h.014l.328.066.01.004-.052-.015.016.004.014.004-.04-.008.018.004.118.03-.126-.03h0ZM210.345,156.482c1.093.301,1.737,1.438,1.434,2.531-.301,1.093-1.438,1.737-2.531,1.435l1.097-3.966h0ZM212.798,156.913l-.536,4.084-.082-.01-.125-.019-.088-.014-.048-.004-.122-.018-.132-.022-.047-.008-.086-.011-.128-.022-.084-.016-.084-.014-.084-.014-.086-.016-.084-.014-.084-.014-.078-.016-.129-.022-.092-.018-.044-.007-.125-.022-.084-.019-.084-.014-.13-.03-.04-.007-.084-.016-.118-.025-.048-.012-.091-.014-.118-.026-.088-.018-.084-.018-.086-.02.846-4.025.092.018.084.019.089.018.052.01.078.016.128.025.052.012.084.014.129.03.04.008.084.014.086.018.044.008.125.022.077.018.048.008.092.014.084.014.086.015.084.014.084.014.084.016.084.014.042.008.085.01.12.022.044.008.048.004.122.018.088.014.044.004.094.012ZM212.798,156.913c1.127.147,1.921,1.184,1.775,2.31-.148,1.125-1.185,1.92-2.31,1.773l.536-4.084Z"/>
    <path class="uuid-05a15ec0-02e9-4ce0-8e57-3c149f1e9af7" d="M207.225,143.494c0-1.133.923-2.057,2.057-2.057s2.056.924,2.056,2.057h-4.113ZM207.225,158.369v-14.875h4.113v14.875l-2.056,2.057-2.057-2.057h0ZM211.338,158.369c0,1.133-.923,2.057-2.056,2.057s-2.057-.924-2.057-2.057h4.113ZM209.329,160.426h-.047v-4.113h.047v4.113h0ZM209.329,156.313c1.133,0,2.057.923,2.057,2.056s-.924,2.057-2.057,2.057v-4.113Z"/>
    <path class="uuid-05a15ec0-02e9-4ce0-8e57-3c149f1e9af7" d="M268.166,140.634c-.147-1.121.648-2.16,1.77-2.307,1.121-.148,2.16.648,2.307,1.769l-4.077.537h0ZM269.608,151.552l-1.442-10.918,4.077-.537,1.442,10.917-4.077.537h0ZM273.685,151.015c.148,1.122-.648,2.16-1.769,2.307-1.123.147-2.16-.648-2.308-1.769l4.077-.537Z"/>
    <path class="uuid-05a15ec0-02e9-4ce0-8e57-3c149f1e9af7" d="M254.781,110.464c-1.063.397-2.252-.144-2.649-1.207-.397-1.063.143-2.252,1.207-2.649l1.442,3.857h0ZM265.16,106.579l-10.379,3.885-1.442-3.857,10.379-3.885,1.442,3.856h0ZM263.718,102.722c1.063-.397,2.252.143,2.649,1.207.397,1.063-.143,2.251-1.207,2.649l-1.442-3.856Z"/>
    <path class="uuid-05a15ec0-02e9-4ce0-8e57-3c149f1e9af7" d="M250.854,132.989c-1.023-.486-1.46-1.719-.975-2.741.485-1.023,1.719-1.46,2.741-.975l-1.767,3.716h0ZM260.432,137.534l-9.578-4.544,1.767-3.716,9.577,4.544-1.765,3.716h0ZM262.198,133.817c1.023.485,1.461,1.717.976,2.74-.487,1.023-1.719,1.461-2.741.976l1.765-3.716Z"/>
    <path class="uuid-05a15ec0-02e9-4ce0-8e57-3c149f1e9af7" d="M227.988,140.201c-1.133.032-2.09-.858-2.124-1.991-.032-1.133.858-2.09,1.991-2.123l.132,4.115h0ZM250.549,129.45l2.377,3.363-.614.419-.626.408-.64.398-.66.385-.67.373-.68.359-.7.347-.702.331-.718.327-.732.309-.74.302-.758.291-.761.271-.774.266-.783.249-.792.24-.802.223-.81.218-.82.199-.82.191-.831.176-.836.166-.85.151-.853.14-.85.125-.864.114-.868.1-.868.088-.872.076-.879.059-.88.052-.886.034-.132-4.115.82-.032.82-.044.814-.058.813-.07.81-.082.802-.091.798-.108.798-.117.787-.126.778-.143.776-.152.764-.161.762-.176.754-.184.736-.195.736-.21.724-.217.71-.228.707-.243.694-.251.678-.253.666-.273.659-.279.644-.291.636-.302.618-.309.6-.317.589-.327.57-.335.56-.345.545-.357.526-.361ZM250.549,129.45c.927-.655,2.214-.435,2.87.493.656.927.434,2.214-.493,2.87l-2.377-3.363Z"/>
    <path class="uuid-05a15ec0-02e9-4ce0-8e57-3c149f1e9af7" d="M230.677,145.072c.11,1.129-.718,2.141-1.847,2.252-1.129.11-2.142-.718-2.252-1.847l4.099-.405h0ZM229.971,137.941l.706,7.131-4.099.405-.706-7.131,4.099-.405h0ZM225.872,138.346c-.11-1.129.718-2.142,1.847-2.252,1.129-.11,2.142.718,2.252,1.847l-4.099.405Z"/>
    <path class="uuid-05a15ec0-02e9-4ce0-8e57-3c149f1e9af7" d="M268.148,125.611c0-1.133.924-2.056,2.058-2.056s2.056.923,2.056,2.056h-4.113ZM268.148,140.366v-14.754h4.113v14.754h-4.113ZM272.261,140.366c0,1.133-.923,2.057-2.056,2.057s-2.058-.924-2.058-2.057h4.113Z"/>
    <path class="uuid-05a15ec0-02e9-4ce0-8e57-3c149f1e9af7" d="M270.506,138.427c1.123.166,1.899,1.215,1.733,2.336-.165,1.123-1.214,1.899-2.336,1.733l.604-4.069h0ZM261.617,137.11l8.889,1.316-.604,4.069-8.889-1.316.604-4.069h0ZM261.014,141.18c-1.123-.166-1.899-1.215-1.733-2.336.165-1.123,1.214-1.899,2.336-1.733l-.604,4.069Z"/>
    <path class="uuid-05a15ec0-02e9-4ce0-8e57-3c149f1e9af7" d="M260.292,134.207c0,1.133-.923,2.057-2.056,2.057s-2.057-.924-2.057-2.057h4.113ZM260.292,123.754v10.453h-4.113v-10.453h4.113ZM256.179,123.754c0-1.133.923-2.057,2.057-2.057s2.056.924,2.056,2.057h-4.113Z"/>
    <path class="uuid-05a15ec0-02e9-4ce0-8e57-3c149f1e9af7" d="M256.116,123.411c0,1.133-.924,2.057-2.057,2.057s-2.056-.924-2.056-2.057h4.113ZM256.116,108.536v14.875h-4.113v-14.875h4.113ZM252.003,108.536c0-1.133.923-2.057,2.056-2.057s2.057.924,2.057,2.057h-4.113Z"/>
    <path class="uuid-05a15ec0-02e9-4ce0-8e57-3c149f1e9af7" d="M260.134,128.188c.439,1.045-.058,2.255-1.103,2.692-1.045.439-2.256-.058-2.693-1.103l3.797-1.588h0ZM252.669,124.927l2.781-3.032.183.166.18.176.176.165.177.174.17.173.176.173.18.188.162.176.157.169.17.185.169.191.17.199.147.18.14.17.165.199.154.203.148.191.15.21.143.199.134.195.135.203.132.206.137.213.132.217.118.206.125.221.118.221.114.221.11.225.106.221.1.225.102.236-3.797,1.588-.066-.154-.078-.166-.077-.169-.074-.151-.084-.162-.082-.155-.088-.155-.094-.162-.089-.151-.092-.147-.104-.154-.106-.158-.11-.158-.106-.155-.106-.144-.118-.154-.11-.143-.114-.141-.139-.169-.134-.158-.117-.14-.126-.14-.132-.147-.143-.155-.148-.154-.128-.136-.14-.144-.155-.151-.147-.143-.154-.152-.151-.139-.154-.144ZM252.669,124.927c-.836-.766-.891-2.072-.126-2.906.766-.836,2.072-.89,2.908-.126l-2.781,3.032Z"/>
    <path class="uuid-05a15ec0-02e9-4ce0-8e57-3c149f1e9af7" d="M211.695,136.848c0-1.133.924-2.056,2.057-2.056s2.056.923,2.056,2.056h-4.113ZM211.695,151.773v-14.924h4.113v14.924l-.345,1.144-3.768-1.144h0ZM215.808,151.773c0,1.133-.923,2.056-2.056,2.056s-2.057-.923-2.057-2.056h4.113ZM207.57,157.298l4.472-6.67,3.421,2.288-4.47,6.67-3.768-1.144.345-1.145h0ZM210.993,159.587c-.63.942-1.913,1.197-2.856.567-.942-.629-1.195-1.913-.567-2.856l3.423,2.288h0ZM211.338,143.516v14.927h-4.113v-14.927h4.113ZM207.225,143.516c0-1.133.923-2.058,2.057-2.058s2.056.924,2.056,2.058h-4.113Z"/>
    <path class="uuid-05a15ec0-02e9-4ce0-8e57-3c149f1e9af7" d="M219.389,99.407c.467,1.033.004,2.256-1.03,2.723-1.034.467-2.256.003-2.723-1.031l3.753-1.693h0ZM216.265,92.494l3.123,6.913-3.753,1.693-3.124-6.913,3.754-1.693h0ZM212.511,94.187c-.467-1.034-.002-2.256,1.031-2.723,1.034-.467,2.256-.004,2.723,1.031l-3.754,1.693Z"/>
    <path class="uuid-05a15ec0-02e9-4ce0-8e57-3c149f1e9af7" d="M244.659,100.743c1.063.393,1.607,1.578,1.214,2.641-.393,1.063-1.578,1.608-2.641,1.215l1.428-3.856h0ZM217.822,102.288l-.618-4.069.887-.128.897-.114.895-.098.894-.084.886-.074.902-.06.893-.044.898-.032.898-.014.887-.004.894.006.89.022.89.038.879.051.88.06.875.077.876.088.872.104.857.114.858.124.853.14.846.151.84.165.838.178.82.191.82.199.814.217.802.225.787.239.792.251.772.265.762.276-1.428,3.856-.696-.247-.706-.243-.71-.229-.729-.216-.735-.21-.74-.195-.754-.184-.762-.177-.766-.162-.78-.151-.78-.144-.787-.125-.798-.118-.806-.106-.806-.095-.81-.082-.816-.07-.813-.058-.828-.044-.824-.036-.824-.022-.828-.008-.835.004-.832.014-.832.034-.835.036-.828.059-.835.066-.836.078-.827.092-.824.106-.828.121ZM217.822,102.288c-1.123.17-2.175-.602-2.344-1.725-.169-1.123.604-2.174,1.726-2.344l.618,4.069Z"/>
    <path class="uuid-05a15ec0-02e9-4ce0-8e57-3c149f1e9af7" d="M249.24,95.132c.842-.758,2.148-.688,2.906.155.758.842.688,2.149-.154,2.906l-2.752-3.061h0ZM242.569,101.14l6.67-6.008,2.752,3.061-6.67,6.008-2.752-3.061h0ZM245.321,104.201c-.842.758-2.149.689-2.906-.154-.758-.842-.69-2.148.154-2.906l2.752,3.061Z"/>
    <path class="uuid-05a15ec0-02e9-4ce0-8e57-3c149f1e9af7" d="M214.697,95.374c-1.121.17-2.174-.603-2.344-1.725-.169-1.123.603-2.176,1.726-2.344l.618,4.069h0ZM251.329,94.735l-1.428,3.856-.964-.343-.975-.335-.989-.317-1.012-.301-1.015-.291-1.031-.269-1.045-.257-1.057-.244-1.063-.223-1.081-.21-1.089-.199-1.093-.177-1.103-.166-1.112-.147-1.114-.129-1.127-.114-1.129-.096-1.137-.084-1.137-.062-1.144-.048-1.149-.03-1.151-.014-1.149.004-1.151.022-1.155.041-1.151.055-1.147.078-1.156.092-1.151.106-1.141.128-1.14.148-1.145.165-.618-4.069,1.203-.173,1.207-.154,1.214-.136,1.211-.114,1.214-.1,1.215-.077,1.218-.062,1.214-.04,1.218-.022,1.215-.004,1.204.014,1.207.03,1.209.048,1.203.069,1.196.086,1.189.102,1.185.122,1.181.135,1.177.155,1.162.174,1.159.191,1.149.206,1.141.224,1.129.239,1.121.257,1.111.273,1.097.291,1.089.305,1.071.324,1.063.339,1.049.357,1.031.371ZM251.329,94.735c1.063.393,1.608,1.578,1.214,2.641-.393,1.063-1.578,1.608-2.641,1.215l1.428-3.856Z"/>
    <path class="uuid-05a15ec0-02e9-4ce0-8e57-3c149f1e9af7" d="M192.691,115.71c1.133.038,2.023.994,1.987,2.127-.038,1.133-.994,2.024-2.127,1.986l.14-4.113h0ZM180.307,115.295l12.384.415-.14,4.113-12.384-.415.14-4.113h0ZM180.167,119.408c-1.133-.036-2.024-.993-1.987-2.126.038-1.133.994-2.024,2.127-1.987l-.14,4.113Z"/>
    <path class="uuid-05a15ec0-02e9-4ce0-8e57-3c149f1e9af7" d="M203.884,102.155c1.027-.481,2.26-.044,2.741.983.481,1.027.044,2.26-.982,2.741l-1.759-3.724h0ZM194.67,117.962l-4.099-.389.07-.604.104-.6.125-.589.151-.582.177-.578.202-.574.225-.563.254-.562.275-.559.299-.533.317-.534.345-.533.365-.519.383-.504.404-.501.423-.493.445-.485.463-.471.475-.459.501-.46.522-.449.537-.439.548-.419.567-.419.588-.412.608-.401.615-.383.636-.379.652-.371.666-.357.674-.343.698-.343,1.759,3.724-.618.299-.608.312-.585.313-.57.319-.556.335-.541.339-.518.342-.501.345-.485.361-.475.367-.449.365-.426.367-.413.379-.401.387-.375.383-.357.389-.343.391-.315.397-.303.401-.283.401-.257.393-.244.409-.223.408-.202.398-.18.408-.166.409-.143.405-.126.415-.106.411-.088.413-.066.409-.048.411ZM194.67,117.962c-.106,1.129-1.115,1.961-2.244,1.855-1.129-.108-1.961-1.115-1.855-2.244l4.099.389Z"/>
    <path class="uuid-05a15ec0-02e9-4ce0-8e57-3c149f1e9af7" d="M195.731,100.151c-.928-.655-1.149-1.943-.493-2.871.654-.927,1.942-1.148,2.87-.492l-2.377,3.363h0ZM203.575,105.699l-7.844-5.547,2.377-3.363,7.844,5.548-2.377,3.363h0ZM205.951,102.336c.928.655,1.149,1.943.493,2.87-.656.928-1.943,1.149-2.87.493l2.377-3.363Z"/>
    <path class="uuid-05a15ec0-02e9-4ce0-8e57-3c149f1e9af7" d="M182.282,117.561c-.114,1.129-1.125,1.95-2.256,1.837-1.129-.114-1.95-1.127-1.835-2.256l4.091.419h0ZM196.036,96.611l1.765,3.716-.857.419-.842.434-.817.441-.8.457-.772.46-.751.475-.728.485-.71.497-.682.496-.654.512-.633.519-.611.526-.584.533-.559.541-.53.545-.511.552-.479.555-.452.56-.431.574-.409.574-.371.571-.347.577-.319.581-.299.589-.269.589-.239.588-.213.585-.18.596-.158.6-.132.6-.104.6-.077.603-4.091-.419.099-.788.132-.783.17-.778.202-.768.239-.766.273-.761.305-.744.335-.736.365-.728.393-.714.427-.71.46-.703.481-.684.511-.676.541-.67.567-.651.592-.648.618-.634.648-.622.665-.606.692-.6.714-.585.744-.578.768-.563.784-.548.809-.537.832-.526.854-.511.872-.501.897-.485.916-.471.938-.455ZM196.036,96.611c1.023-.487,2.255-.048,2.741.975.485,1.023.047,2.255-.976,2.742l-1.765-3.716Z"/>
    <path class="uuid-05a15ec0-02e9-4ce0-8e57-3c149f1e9af7" d="M212.044,135.705c.63-.942,1.911-1.193,2.852-.563.942.63,1.193,1.909.563,2.851l-3.415-2.288h0ZM207.574,142.371l4.47-6.667,3.415,2.288-4.47,6.667-3.415-2.288h0ZM210.989,144.66c-.63.942-1.909,1.193-2.852.563-.942-.629-1.192-1.909-.563-2.851l3.415,2.288Z"/>
    <path class="uuid-05a15ec0-02e9-4ce0-8e57-3c149f1e9af7" d="M193.122,127.087c-.637-.939-.397-2.222.54-2.86.938-.636,2.223-.397,2.859.541l-3.4,2.318h0ZM214.2,134.84l-.897,4.017-.85-.199-.839-.206-.828-.225-.814-.235-.809-.247-.792-.265-.772-.269-.762-.28-.75-.29-.736-.306-.724-.313-.714-.331-.692-.339-.681-.345-.666-.361-.644-.363-.64-.379-.618-.391-.603-.397-.582-.409-.574-.415-.556-.431-.53-.43-.523-.449-.507-.459-.478-.465-.461-.467-.452-.486-.427-.497-.401-.496-.386-.505-.372-.521,3.4-2.318.283.397.306.401.327.401.339.394.357.382.386.395.397.382.413.379.434.369.457.371.467.365.485.357.508.349.523.347.537.338.552.328.578.327.584.317.608.309.618.301.626.287.651.284.662.275.677.261.696.258.706.247.718.235.728.225.746.214.754.201.774.192.782.184ZM214.2,134.84c1.109.245,1.807,1.35,1.56,2.457s-1.35,1.807-2.457,1.56l.897-4.017Z"/>
    <path class="uuid-05a15ec0-02e9-4ce0-8e57-3c149f1e9af7" d="M183.769,130.546c-1.103.249-2.212-.445-2.461-1.55-.251-1.103.445-2.21,1.548-2.461l.913,4.011h0ZM195.278,127.933l-11.509,2.613-.913-4.011,11.509-2.613.913,4.011h0ZM194.365,123.922c1.103-.25,2.212.445,2.461,1.55.251,1.103-.445,2.21-1.548,2.461l-.913-4.011Z"/>
    <path class="uuid-05a15ec0-02e9-4ce0-8e57-3c149f1e9af7" d="M260.108,124.629c-.467,1.034-1.688,1.49-2.722,1.023-1.034-.467-1.49-1.689-1.023-2.722l3.745,1.699h0ZM252.683,110.041l2.752-3.061.511.478.489.479.471.492.449.501.419.5.405.515.379.523.353.522.335.533.313.541.287.548.265.556.236.553.213.562.191.563.166.57.144.578.113.582.088.571.066.584.042.585.01.586-.01.585-.042.58-.066.581-.088.578-.113.581-.144.571-.166.574-.191.563-.213.558-.24.556-3.745-1.699.173-.401.154-.413.14-.401.114-.404.099-.401.078-.399.066-.408.044-.405.025-.397.012-.401-.012-.401-.025-.401-.044-.401-.066-.409-.078-.405-.099-.4-.114-.401-.14-.409-.154-.409-.176-.405-.192-.408-.213-.401-.232-.409-.253-.401-.28-.412-.291-.405-.315-.397-.339-.405-.353-.397-.383-.397-.401-.397-.423-.391ZM252.683,110.041c-.842-.758-.913-2.064-.154-2.906.758-.842,2.064-.913,2.906-.155l-2.752,3.061Z"/>
    <path class="uuid-05a15ec0-02e9-4ce0-8e57-3c149f1e9af7" d="M270.51,123.551c1.121.165,1.895,1.217,1.729,2.34-.165,1.121-1.218,1.895-2.34,1.729l.611-4.069h0ZM258.541,121.745l11.969,1.807-.611,4.069-11.969-1.807.611-4.069h0ZM257.93,125.814c-1.121-.165-1.895-1.218-1.729-2.34.166-1.122,1.218-1.895,2.34-1.729l-.611,4.069Z"/>
    <path class="uuid-05a15ec0-02e9-4ce0-8e57-3c149f1e9af7" d="M190.565,117.768c0-1.133.923-2.057,2.056-2.057s2.057.924,2.057,2.057h-4.113ZM190.565,126.417v-8.65h4.113v8.65h-4.113ZM194.678,126.417c0,1.133-.924,2.057-2.057,2.057s-2.056-.924-2.056-2.057h4.113Z"/>
    <path class="uuid-05a15ec0-02e9-4ce0-8e57-3c149f1e9af7" d="M183.397,130.344c1.133.044,2.016,1.007,1.972,2.14-.044,1.133-1.008,2.017-2.142,1.973l.17-4.113h0ZM180.443,130.222l2.954.122-.17,4.113-2.954-.122.085-4.113h.085ZM180.273,134.335c-1.133-.044-2.016-1.007-1.972-2.142.044-1.133,1.009-2.016,2.142-1.972l-.17,4.113h0ZM180.237,130.222h.121v4.113h-.121l-2.057-2.056,2.057-2.057h0ZM180.237,134.335c-1.133,0-2.057-.923-2.057-2.056s.924-2.057,2.057-2.057v4.113h0ZM182.293,117.351v14.928h-4.113v-14.928l2.12-2.056,1.994,2.056h0ZM178.179,117.351c0-1.133.924-2.056,2.057-2.056s2.056.923,2.056,2.056h-4.113ZM189.773,119.703l-9.599-.295.125-4.113,9.6.294h.025l-.151,4.114h0ZM189.899,115.589c1.133.033,2.027.985,1.994,2.119-.034,1.135-.986,2.028-2.12,1.995l.126-4.114h0ZM192.533,119.824l-2.786-.121.177-4.114,2.785.121-.176,4.113h0ZM192.709,115.71c1.133.048,2.017,1.012,1.969,2.146-.048,1.133-1.012,2.016-2.145,1.968l.176-4.113Z"/>
    <path class="uuid-05a15ec0-02e9-4ce0-8e57-3c149f1e9af7" d="M203.865,117.068c1.019-.493,2.256-.066,2.748.953.493,1.02.066,2.256-.953,2.749l-1.795-3.702h0ZM196.849,127.599l-3.37-2.362.249-.345.262-.347.265-.331.269-.327.283-.325.283-.309.294-.313.299-.301.305-.299.309-.287.312-.283.317-.276.327-.272.317-.262.331-.261.345-.261.335-.247.338-.243.349-.24.338-.231.343-.225.357-.228.357-.217.341-.206.357-.209.361-.206.365-.202.353-.191.353-.188.357-.18.353-.181.361-.176,1.795,3.702-.316.154-.324.165-.321.166-.323.173-.323.17-.313.173-.31.176-.311.188-.321.19-.305.187-.299.192-.305.203-.309.202-.291.202-.294.213-.291.21-.273.209-.279.224-.28.225-.269.228-.265.231-.261.232-.25.235-.247.24-.239.243-.235.247-.225.249-.217.251-.218.261-.213.265-.195.258-.192.265ZM196.849,127.599c-.65.927-1.939,1.155-2.866.503-.927-.65-1.155-1.939-.504-2.866l3.37,2.362Z"/>
    <path class="uuid-05a15ec0-02e9-4ce0-8e57-3c149f1e9af7" d="M202.706,104.018c0-1.133.925-2.058,2.057-2.058s2.056.924,2.056,2.058h-4.113ZM202.706,118.919v-14.901h4.113v14.901h-4.113ZM206.82,118.919c0,1.133-.923,2.057-2.056,2.057s-2.057-.924-2.057-2.057h4.113Z"/>
    <path class="uuid-05a15ec0-02e9-4ce0-8e57-3c149f1e9af7" d="M194.678,118.404c0,1.133-.924,2.057-2.057,2.057s-2.056-.924-2.056-2.057h4.113ZM194.678,117.768v.636h-4.113v-.636h4.113ZM190.565,117.768c0-1.133.923-2.057,2.056-2.057s2.057.924,2.057,2.057h-4.113Z"/>
    <path class="uuid-05a15ec0-02e9-4ce0-8e57-3c149f1e9af7" d="M194.63,126.465c0,1.133-.924,2.056-2.057,2.056s-2.056-.923-2.056-2.056h4.113ZM190.565,118.353l4.113.103-.004.176-.004.195-.004.202-.004.207-.003.213-.004.221-.004.225-.004.214v.235l-.004.243v.243l-.004.251v.254l-.003.253v.523l-.004.265v1.081l-.004.277v2.734h-4.113v-2.764l.004-.276v-1.081l.004-.265v-.523l.003-.253v-.254l.004-.249v-.244l.004-.243v-.235l.004-.251.004-.225.004-.221.002-.221.004-.206.004-.203.004-.201.004-.199ZM190.565,118.353c.026-1.134.975-2.031,2.108-2.005,1.133.025,2.031.975,2.005,2.108l-4.113-.103Z"/>
    <path class="uuid-05a15ec0-02e9-4ce0-8e57-3c149f1e9af7" d="M219.389,114.33c.467,1.035.004,2.256-1.03,2.723-1.034.467-2.256.004-2.723-1.031l3.753-1.693h0ZM216.265,107.421l3.123,6.909-3.753,1.693-3.124-6.909-.18-.846,3.934-.846h0ZM212.511,109.114c-.467-1.034-.002-2.256,1.031-2.723,1.034-.467,2.256-.004,2.723,1.031l-3.754,1.693h0ZM216.446,93.341v14.927h-4.115v-14.927l3.934-.846.181.846h0ZM212.331,93.341c0-1.133.924-2.057,2.057-2.057s2.057.924,2.057,2.057h-4.115ZM215.636,101.1l-3.124-6.913,3.754-1.693,3.123,6.913-3.753,1.693h0ZM219.389,99.407c.467,1.033.004,2.256-1.03,2.723-1.034.467-2.256.003-2.723-1.031l3.753-1.693Z"/>
    <path class="uuid-05a15ec0-02e9-4ce0-8e57-3c149f1e9af7" d="M219.569,115.177c0,1.133-.923,2.057-2.056,2.057s-2.057-.924-2.057-2.057h4.113ZM219.569,100.254v14.923h-4.113v-14.923h4.113ZM215.456,100.254c0-1.133.924-2.058,2.057-2.058s2.056.924,2.056,2.058h-4.113Z"/>
    <path class="uuid-05a15ec0-02e9-4ce0-8e57-3c149f1e9af7" d="M244.637,115.634c1.071.379,1.626,1.56,1.247,2.63-.379,1.071-1.56,1.627-2.631,1.248l1.384-3.877h0ZM217.806,117.212l-.588-4.069.861-.118.861-.11.866-.096.864-.085.864-.074.864-.054.861-.052.868-.033.862-.022.871-.012.862.004.868.014.861.03.861.04.868.052.865.07.861.081.857.096.858.106.857.118.862.132.857.151.85.158.857.177.846.191.85.202.85.221.838.233.839.243.844.261.835.276.832.291-1.384,3.877-.772-.269-.77-.253-.768-.239-.78-.228-.78-.217-.776-.199-.784-.188-.788-.176-.784-.162-.79-.151-.79-.136-.788-.125-.798-.11-.798-.1-.798-.088-.796-.074-.798-.062-.802-.051-.802-.034-.809-.03-.802-.014-.802-.004-.806.012-.81.022-.802.032-.809.044-.806.056-.806.066-.806.077-.805.088-.81.104-.81.11ZM217.806,117.212c-1.121.161-2.166-.618-2.329-1.74-.162-1.123.618-2.168,1.741-2.329l.588,4.069Z"/>
    <path class="uuid-05a15ec0-02e9-4ce0-8e57-3c149f1e9af7" d="M241.888,102.671c0-1.133.924-2.056,2.057-2.056s2.056.923,2.056,2.056h-4.113ZM241.888,117.573v-14.902h4.113v14.902h-4.113ZM246.001,117.573c0,1.133-.923,2.056-2.056,2.056s-2.057-.923-2.057-2.056h4.113Z"/>
    <path class="uuid-05a15ec0-02e9-4ce0-8e57-3c149f1e9af7" d="M272.077,141.216c-.467,1.034-1.689,1.49-2.722,1.023-1.035-.467-1.49-1.689-1.023-2.723l3.745,1.7h0ZM269.59,133.795h4.113v.223l-.003.244-.008.243-.014.225-.012.223-.018.24-.018.247-.026.227-.022.221-.034.244-.032.243-.038.225-.036.239-.044.225-.041.225-.056.257-.051.221-.052.225-.062.239-.062.24-.064.223-.066.224-.077.254-.074.213-.073.229-.092.254-.082.213-.084.221-.092.239-.092.218-.095.231-.108.228-3.745-1.7.077-.176.074-.173.078-.187.069-.166.07-.191.074-.192.055-.151.06-.184.066-.199.048-.151.051-.188.056-.187.048-.173.04-.174.044-.187.044-.192.032-.154.034-.187.037-.188.03-.173.03-.188.026-.169.018-.169.022-.192.018-.184.018-.173.012-.173.01-.188.008-.187.006-.17.004-.169v-.187ZM269.59,133.795c0-1.134.924-2.057,2.057-2.057s2.056.923,2.056,2.057h-4.113Z"/>
    <path class="uuid-05a15ec0-02e9-4ce0-8e57-3c149f1e9af7" d="M270.131,142.518c-1.133,0-2.057-.923-2.057-2.056s.925-2.057,2.057-2.057v4.113h0ZM270.205,142.518h-.074v-4.113h.074l2.056,2.057-2.056,2.056h0ZM270.205,138.404c1.133,0,2.056.924,2.056,2.057s-.923,2.056-2.056,2.056v-4.113h0ZM272.261,140.366v.096h-4.113v-.096h4.113ZM268.148,140.366c0-1.133.924-2.056,2.058-2.056s2.056.923,2.056,2.056h-4.113Z"/>
    <path class="uuid-05a15ec0-02e9-4ce0-8e57-3c149f1e9af7" d="M262.621,152.136c-.927.652-2.214.431-2.866-.496-.652-.928-.43-2.216.497-2.867l2.369,3.363h0ZM268.144,139.928l3.974,1.067-.13.431-.157.43-.18.417-.202.415-.221.401-.228.393-.254.409-.265.393-.273.393-.293.399-.302.385-.309.387-.323.386-.328.383-.337.373-.335.367-.35.375-.349.357-.345.347-.357.357-.357.334-.343.328-.357.327-.349.309-.343.299-.339.291-.331.275-.323.262-.313.249-.313.24-.299.221-.291.209-2.369-3.363.231-.165.247-.184.254-.195.276-.221.287-.232.293-.247.302-.253.305-.269.313-.28.305-.283.328-.305.319-.307.313-.305.316-.323.313-.321.305-.323.306-.331.293-.335.284-.324.272-.327.264-.327.251-.329.236-.315.221-.313.205-.307.18-.29.17-.291.147-.275.122-.247.099-.232.078-.202.054-.187ZM268.144,139.928c.295-1.097,1.424-1.748,2.521-1.454,1.097.295,1.747,1.424,1.454,2.521l-3.974-1.067Z"/>
    <path class="uuid-05a15ec0-02e9-4ce0-8e57-3c149f1e9af7" d="M262.342,152.309c-.983.567-2.244.225-2.811-.757-.566-.983-.225-2.246.758-2.812l2.053,3.569h0ZM262.464,152.24l-.122.069-2.053-3.569.122-.07,2.053,3.569h0ZM260.41,148.67c.983-.567,2.244-.225,2.81.758.567.983.225,2.245-.757,2.812l-2.053-3.569Z"/>
    <path class="uuid-05a15ec0-02e9-4ce0-8e57-3c149f1e9af7" d="M209.282,160.426c-1.134,0-2.057-.924-2.057-2.057s.923-2.056,2.057-2.056v4.113h0ZM209.329,160.426h-.047v-4.113h.047v4.113h0ZM209.329,156.313c1.133,0,2.057.923,2.057,2.056s-.924,2.057-2.057,2.057v-4.113Z"/>
    <path class="uuid-05a15ec0-02e9-4ce0-8e57-3c149f1e9af7" d="M255.032,111.192c1.001.533,1.376,1.785.842,2.785-.533,1.001-1.785,1.376-2.785.842l1.943-3.628h0ZM249.928,113.478l1.376-3.878.103.036.122.04.132.052.102.036.11.041.11.04.148.055.106.044.074.026.147.056.136.055.1.04.12.048.106.044.111.044.107.044.135.056.118.052.107.044.136.062.106.048.132.058.108.052.106.047.106.052.118.056.158.077.106.056.077.036.132.066.141.074.104.055-1.943,3.628-.104-.055-.066-.038-.08-.036-.129-.066-.106-.056-.048-.025-.096-.041-.106-.051-.106-.048-.108-.052-.081-.036-.106-.048-.078-.032-.106-.044-.096-.044-.084-.034-.106-.044-.11-.044-.106-.044-.1-.04-.121-.048-.078-.034-.073-.025-.148-.056-.106-.044-.074-.026-.11-.04-.11-.04-.118-.044-.081-.03-.099-.032-.118-.044ZM249.928,113.478c-1.071-.379-1.63-1.556-1.251-2.627.379-1.071,1.556-1.63,2.627-1.251l-1.376,3.878Z"/>
    <path class="uuid-05a15ec0-02e9-4ce0-8e57-3c149f1e9af7" d="M214.102,106.204c1.121-.158,2.168.628,2.325,1.751.159,1.122-.628,2.166-1.751,2.325l-.574-4.076h0ZM205.385,112.351l-1.244-3.923.297-.095.298-.092.309-.092.309-.088.291-.084.309-.088.317-.088.297-.078.313-.084.306-.078.298-.077.316-.078.305-.077.313-.074.316-.073.313-.068.301-.066.317-.069.321-.066.313-.064.317-.062.305-.058.317-.062.319-.056.321-.058.319-.056.311-.051.315-.052.321-.052.323-.048.321-.047.313-.044.574,4.076-.305.044-.299.04-.295.048-.297.044-.295.052-.309.052-.291.048-.298.051-.29.056-.295.054-.306.06-.287.054-.297.062-.291.06-.287.062-.302.066-.291.066-.286.066-.283.066-.291.07-.287.07-.291.077-.291.07-.283.078-.291.076-.273.074-.279.081-.291.084-.28.082-.271.084-.276.084-.283.088ZM205.385,112.351c-1.083.343-2.242-.257-2.583-1.34-.343-1.082.257-2.24,1.34-2.583l1.244,3.923Z"/>
    <path class="uuid-05a15ec0-02e9-4ce0-8e57-3c149f1e9af7" d="M191.907,170.095c0-1.133.924-2.056,2.057-2.056s2.056.923,2.056,2.056h-4.113ZM191.907,170.143v-.048h4.113v.048h-4.113ZM196.02,170.143c0,1.133-.923,2.057-2.056,2.057s-2.057-.924-2.057-2.057h4.113Z"/>
    <path class="uuid-05a15ec0-02e9-4ce0-8e57-3c149f1e9af7" d="M284.845,281.256c-.774-.827-.73-2.136.099-2.91.828-.772,2.138-.728,2.91.1l-3.009,2.81h0ZM296.471,298.561h-4.113l-.008-.552-.018-.553-.036-.548-.052-.552-.066-.556-.077-.549-.092-.548-.11-.552-.118-.552-.14-.553-.151-.552-.162-.54-.183-.553-.196-.551-.209-.54-.221-.545-.243-.541-.254-.544-.273-.549-.283-.54-.299-.533-.319-.545-.328-.533-.346-.53-.361-.538-.379-.529-.393-.53-.405-.523-.427-.526-.434-.519-.461-.515-.47-.515,3.009-2.81.523.574.511.582.493.585.478.584.463.596.439.597.43.604.413.602.397.611.379.622.357.611.349.622.328.628.309.622.297.626.28.637.265.64.247.644.225.64.213.64.199.652.173.648.162.648.147.655.126.646.114.66.092.658.073.652.06.656.044.658.025.662.007.655h0ZM296.471,298.561c0,1.133-.923,2.056-2.056,2.056s-2.057-.923-2.057-2.056h4.113ZM275.241,328.433l-2.06-3.562-.008.004.92-.544.912-.567.909-.586.905-.61.898-.621.883-.648.88-.666.857-.684.842-.704.828-.72.81-.74.787-.762.762-.772.74-.796.714-.808.684-.824.656-.838.622-.858.588-.876.556-.89.519-.897.481-.92.441-.935.405-.945.357-.957.316-.979.273-.986.229-1.005.176-1.023.132-1.033.073-1.049.03-1.071h4.113l-.03,1.27-.094,1.254-.155,1.241-.214,1.214-.265,1.195-.323,1.177-.375,1.149-.423,1.133-.471,1.107-.515,1.081-.555,1.061-.592,1.037-.637,1.016-.67.985-.702.975-.736.943-.766.926-.794.898-.813.876-.844.853-.861.828-.883.814-.902.787-.916.762-.93.736-.939.718-.956.698-.963.674-.964.648-.975.629-.978.604-.979.58-.007.004h0ZM275.249,328.429c-.979.571-2.244.24-2.815-.739-.57-.979-.239-2.244.74-2.815l2.076,3.554h0ZM175.656,328.429l2.074-3.554.004.004,2.539,1.416,2.635,1.318,2.726,1.217,2.811,1.131,2.881,1.033,2.951.938,3.017.842,3.068.75,3.124.656,3.161.563,3.193.472,3.227.378,3.249.284,3.268.195,3.271.106,3.274.016,3.268-.074,3.259-.162,3.235-.251,3.211-.335,3.179-.423,3.142-.511,3.098-.592,3.039-.678,2.984-.757,2.914-.844,2.841-.919,2.763-1.001,2.678-1.083,2.579-1.155,2.484-1.231,2.377-1.307,2.06,3.562-2.531,1.395-2.631,1.306-2.726,1.221-2.819,1.133-2.895,1.053-2.973.963-3.047.88-3.102.788-3.163.706-3.216.614-3.253.527-3.296.437-3.323.349-3.352.259-3.37.169-3.377.074-3.385-.016-3.389-.106-3.377-.202-3.367-.297-3.344-.395-3.319-.486-3.287-.585-3.249-.684-3.201-.78-3.149-.879-3.091-.983-3.028-1.085-2.958-1.189-2.873-1.292-2.796-1.398-2.701-1.504.004.003h0ZM175.652,328.426c-.979-.575-1.306-1.837-.732-2.815.574-.979,1.835-1.306,2.814-.732l-2.082,3.548h0ZM154.484,298.561h4.113l.03,1.071.074,1.045.132,1.033.18,1.023.221,1.001.271.986.313.979.361.956.401.949.438.932.479.911.519.906.555.886.584.876.619.853.654.842.681.828.71.806.736.791.764.777.784.757.806.744.82.722.842.702.861.684.872.666.886.652.895.626.902.607.909.592.913.563.919.548-2.074,3.554-.979-.584-.978-.607-.975-.63-.968-.65-.961-.677-.953-.696-.939-.718-.927-.742-.916-.762-.902-.788-.879-.809-.857-.832-.84-.85-.816-.879-.79-.902-.762-.923-.729-.939-.706-.971-.666-.994-.63-1.011-.592-1.037-.559-1.061-.511-1.085-.467-1.103-.419-1.135-.371-1.147-.324-1.169-.265-1.199-.209-1.207-.154-1.233-.096-1.258-.03-1.27h0ZM154.484,298.561c0-1.133.924-2.057,2.057-2.057s2.056.924,2.056,2.057h-4.113ZM164.578,276.867l2.884,2.936-.555.552-.53.563-.527.57-.5.563-.475.566-.467.574-.445.575-.423.578-.408.582-.398.584-.367.578-.353.585-.335.589-.321.588-.301.589-.283.588-.266.596-.245.589-.232.589-.21.6-.199.596-.176.6-.161.588-.144.597-.129.602-.11.593-.088.596-.078.596-.058.6-.044.597-.022.6-.012.596h-4.113l.012-.714.029-.71.052-.714.066-.71.093-.714.11-.706.132-.718.15-.7.166-.706.191-.706.214-.703.227-.692.247-.694.269-.7.291-.692.309-.684.329-.684.345-.677.365-.676.385-.67.405-.674.427-.666.441-.659.46-.654.483-.652.504-.648.511-.64.542-.64.559-.629.57-.622.595-.622.615-.618ZM164.578,276.867c.809-.796,2.116-.784,2.91.026.794.809.784,2.114-.026,2.91l-2.884-2.936Z"/>
    <path class="uuid-05a15ec0-02e9-4ce0-8e57-3c149f1e9af7" d="M158.598,318.885c0,1.133-.923,2.057-2.056,2.057s-2.057-.924-2.057-2.057h4.113ZM158.598,298.513v20.372h-4.113v-20.372h4.113ZM154.484,298.513c0-1.133.924-2.057,2.057-2.057s2.056.924,2.056,2.057h-4.113Z"/>
    <path class="uuid-05a15ec0-02e9-4ce0-8e57-3c149f1e9af7" d="M248.558,96.662c0-1.133.924-2.056,2.057-2.056s2.057.923,2.057,2.056h-4.115ZM250.616,96.662h2.057-2.057ZM248.558,111.564v-14.902h4.115v14.902l-.681,1.53-3.433-1.53h0ZM252.673,111.564c0,1.133-.924,2.056-2.057,2.056s-2.057-.923-2.057-2.056h4.115ZM242.569,116.041l6.67-6.008,2.752,3.062-6.67,6.008-2.752-3.062h0ZM245.321,119.103c-.842.758-2.149.688-2.906-.155-.758-.842-.69-2.149.154-2.907l2.752,3.062Z"/>
    <path class="uuid-05a15ec0-02e9-4ce0-8e57-3c149f1e9af7" d="M230.677,159.999c.11,1.129-.718,2.142-1.847,2.252-1.129.11-2.142-.718-2.252-1.847l4.099-.405h0ZM229.971,152.864l.706,7.135-4.099.405-.706-7.135-.008-.202,4.107-.203h0ZM225.872,153.269c-.11-1.129.718-2.141,1.847-2.252,1.129-.11,2.142.718,2.252,1.847l-4.099.405h0ZM229.977,138.144v14.923h-4.113v-14.923h4.113ZM225.864,138.144c0-1.133.924-2.057,2.057-2.057s2.056.924,2.056,2.057h-4.113Z"/>
  </g>
  <line class="uuid-fcc09714-3118-4136-bcd5-0983ad62b3ad" x1="193.89" y1="110.195" x2="187.908" y2="106.751"/>
  <line class="uuid-fcc09714-3118-4136-bcd5-0983ad62b3ad" x1="215.098" y1="157.998" x2="212.946" y2="156.758"/>
  <line class="uuid-fcc09714-3118-4136-bcd5-0983ad62b3ad" x1="226.237" y1="151.408" x2="215.558" y2="145.227"/>
  <line class="uuid-fcc09714-3118-4136-bcd5-0983ad62b3ad" x1="226.773" y1="138.677" x2="199.999" y2="123.191"/>
  <line class="uuid-fcc09714-3118-4136-bcd5-0983ad62b3ad" x1="242.333" y1="134.626" x2="205.69" y2="113.47"/>
  <line class="uuid-fcc09714-3118-4136-bcd5-0983ad62b3ad" x1="257.013" y1="130.031" x2="234.246" y2="116.913"/>
  <line class="uuid-fcc09714-3118-4136-bcd5-0983ad62b3ad" x1="224.672" y1="97.737" x2="219.444" y2="94.709"/>
  <line class="uuid-fcc09714-3118-4136-bcd5-0983ad62b3ad" x1="269.962" y1="117.72" x2="258.942" y2="111.368"/>
  <line class="uuid-fcc09714-3118-4136-bcd5-0983ad62b3ad" x1="228.8" y1="112.933" x2="228.8" y2="101.379"/>
  <line class="uuid-fcc09714-3118-4136-bcd5-0983ad62b3ad" x1="240.059" y1="114.591" x2="240.059" y2="103.26"/>
  <line class="uuid-fcc09714-3118-4136-bcd5-0983ad62b3ad" x1="242.796" y1="141.44" x2="238.253" y2="138.823"/>
  <line class="uuid-fcc09714-3118-4136-bcd5-0983ad62b3ad" x1="256.598" y1="136.359" x2="251.664" y2="133.501"/>
  <line class="uuid-fcc09714-3118-4136-bcd5-0983ad62b3ad" x1="203.759" y1="139.924" x2="187.614" y2="130.593"/>
  <line class="uuid-fcc09714-3118-4136-bcd5-0983ad62b3ad" x1="200.757" y1="119.136" x2="200.757" y2="108.484"/>
  <line class="uuid-fcc09714-3118-4136-bcd5-0983ad62b3ad" x1="188.541" y1="164.572" x2="188.541" y2="135.723"/>
  <line class="uuid-fcc09714-3118-4136-bcd5-0983ad62b3ad" x1="199.877" y1="171.607" x2="199.877" y2="141.808"/>
  <line class="uuid-fcc09714-3118-4136-bcd5-0983ad62b3ad" x1="211.139" y1="174.588" x2="211.139" y2="160.37"/>
  <line class="uuid-fcc09714-3118-4136-bcd5-0983ad62b3ad" x1="222.398" y1="175.957" x2="222.398" y2="161.644"/>
  <line class="uuid-fcc09714-3118-4136-bcd5-0983ad62b3ad" x1="233.735" y1="176.178" x2="233.735" y2="146.007"/>
  <line class="uuid-fcc09714-3118-4136-bcd5-0983ad62b3ad" x1="244.997" y1="174.146" x2="244.997" y2="144.078"/>
  <line class="uuid-fcc09714-3118-4136-bcd5-0983ad62b3ad" x1="256.255" y1="169.8" x2="256.255" y2="140.024"/>
  <line class="uuid-fcc09714-3118-4136-bcd5-0983ad62b3ad" x1="267.592" y1="159.075" x2="267.592" y2="147.523"/>
  <line class="uuid-fcc09714-3118-4136-bcd5-0983ad62b3ad" x1="166.361" y1="337.084" x2="166.361" y2="321.622"/>
  <line class="uuid-fcc09714-3118-4136-bcd5-0983ad62b3ad" x1="177.694" y1="345.804" x2="177.694" y2="329.195"/>
  <line class="uuid-fcc09714-3118-4136-bcd5-0983ad62b3ad" x1="188.957" y1="350.984" x2="188.957" y2="333.886"/>
  <line class="uuid-fcc09714-3118-4136-bcd5-0983ad62b3ad" x1="200.219" y1="354.306" x2="200.219" y2="337.01"/>
  <line class="uuid-fcc09714-3118-4136-bcd5-0983ad62b3ad" x1="211.552" y1="356.235" x2="211.552" y2="338.964"/>
  <line class="uuid-fcc09714-3118-4136-bcd5-0983ad62b3ad" x1="222.814" y1="357.043" x2="222.814" y2="339.774"/>
  <line class="uuid-fcc09714-3118-4136-bcd5-0983ad62b3ad" x1="234.124" y1="356.772" x2="234.124" y2="339.479"/>
  <line class="uuid-fcc09714-3118-4136-bcd5-0983ad62b3ad" x1="245.409" y1="355.403" x2="245.409" y2="338.085"/>
  <line class="uuid-fcc09714-3118-4136-bcd5-0983ad62b3ad" x1="256.72" y1="352.769" x2="256.72" y2="335.641"/>
  <line class="uuid-fcc09714-3118-4136-bcd5-0983ad62b3ad" x1="267.981" y1="348.541" x2="267.981" y2="331.76"/>
  <line class="uuid-fcc09714-3118-4136-bcd5-0983ad62b3ad" x1="279.266" y1="341.97" x2="279.266" y2="325.629"/>
  <line class="uuid-fcc09714-3118-4136-bcd5-0983ad62b3ad" x1="290.577" y1="327.827" x2="290.577" y2="314.878"/>
  <line class="uuid-fcc09714-3118-4136-bcd5-0983ad62b3ad" x1="216.953" y1="335.861" x2="204.981" y2="328.948"/>
  <line class="uuid-fcc09714-3118-4136-bcd5-0983ad62b3ad" x1="164.456" y1="305.57" x2="158.985" y2="302.394"/>
  <line class="uuid-fcc09714-3118-4136-bcd5-0983ad62b3ad" x1="238.789" y1="335.446" x2="230.192" y2="330.464"/>
  <line class="uuid-fcc09714-3118-4136-bcd5-0983ad62b3ad" x1="163.407" y1="291.915" x2="160.28" y2="290.084"/>
  <line class="uuid-fcc09714-3118-4136-bcd5-0983ad62b3ad" x1="255.866" y1="332.249" x2="249.711" y2="328.706"/>
  <line class="uuid-fcc09714-3118-4136-bcd5-0983ad62b3ad" x1="269.377" y1="327.043" x2="265.149" y2="324.578"/>
  <line class="uuid-fcc09714-3118-4136-bcd5-0983ad62b3ad" x1="280.245" y1="320.254" x2="276.533" y2="318.127"/>
  <line class="uuid-fcc09714-3118-4136-bcd5-0983ad62b3ad" x1="288.209" y1="311.825" x2="285.227" y2="310.114"/>
  <line class="uuid-fcc09714-3118-4136-bcd5-0983ad62b3ad" x1="292.019" y1="300.978" x2="288.429" y2="298.902"/>
  <line class="uuid-fcc09714-3118-4136-bcd5-0983ad62b3ad" x1="285.595" y1="300.661" x2="241.212" y2="326.311"/>
  <line class="uuid-fcc09714-3118-4136-bcd5-0983ad62b3ad" x1="286.743" y1="286.981" x2="216.537" y2="327.506"/>
  <line class="uuid-fcc09714-3118-4136-bcd5-0983ad62b3ad" x1="286.986" y1="273.817" x2="196.919" y2="325.821"/>
  <line class="uuid-fcc09714-3118-4136-bcd5-0983ad62b3ad" x1="285.764" y1="261.48" x2="181.823" y2="321.476"/>
  <line class="uuid-fcc09714-3118-4136-bcd5-0983ad62b3ad" x1="283.273" y1="249.901" x2="170.953" y2="314.731"/>
  <line class="uuid-fcc09714-3118-4136-bcd5-0983ad62b3ad" x1="279.782" y1="238.885" x2="164.161" y2="305.596"/>
  <line class="uuid-fcc09714-3118-4136-bcd5-0983ad62b3ad" x1="275.602" y1="228.233" x2="163.82" y2="292.795"/>
  <line class="uuid-fcc09714-3118-4136-bcd5-0983ad62b3ad" x1="271.252" y1="217.728" x2="164.798" y2="279.163"/>
  <line class="uuid-fcc09714-3118-4136-bcd5-0983ad62b3ad" x1="267.077" y1="207.102" x2="167.167" y2="264.776"/>
  <line class="uuid-fcc09714-3118-4136-bcd5-0983ad62b3ad" x1="263.339" y1="196.208" x2="171.465" y2="249.242"/>
  <line class="uuid-fcc09714-3118-4136-bcd5-0983ad62b3ad" x1="260.432" y1="184.872" x2="177.816" y2="232.556"/>
  <line class="uuid-fcc09714-3118-4136-bcd5-0983ad62b3ad" x1="258.577" y1="172.903" x2="184.364" y2="215.726"/>
  <line class="uuid-fcc09714-3118-4136-bcd5-0983ad62b3ad" x1="225.356" y1="179.032" x2="190.399" y2="199.211"/>
  <line class="uuid-fcc09714-3118-4136-bcd5-0983ad62b3ad" x1="206.497" y1="176.884" x2="194.233" y2="183.971"/>
</svg>