<?xml version="1.0" encoding="UTF-8"?>
<svg id="uuid-a62b6cd8-aabc-49f3-8a77-4d18531afe08" data-name="&amp;lt;Layer&amp;gt;" xmlns="http://www.w3.org/2000/svg" viewBox="0 0 451.11 451.11">
  <defs>
    <style>
      .uuid-6990495e-0f35-47f7-ac94-d1efc8922b78, .uuid-612c6356-a20d-4916-b1b6-e5d376229b85, .uuid-4a311b9d-b05d-4640-92d6-791d2db79651 {
        fill: none;
        stroke: #000;
        stroke-linecap: round;
      }

      .uuid-6990495e-0f35-47f7-ac94-d1efc8922b78, .uuid-4a311b9d-b05d-4640-92d6-791d2db79651 {
        stroke-linejoin: round;
        stroke-width: 4.113px;
      }

      .uuid-612c6356-a20d-4916-b1b6-e5d376229b85 {
        stroke-miterlimit: 10;
        stroke-width: 1.163px;
      }

      .uuid-4a311b9d-b05d-4640-92d6-791d2db79651 {
        fill-rule: evenodd;
      }
    </style>
  </defs>
  <path class="uuid-4a311b9d-b05d-4640-92d6-791d2db79651" d="M87.163,212.472c-.132.074-.262.151-.354.261-.129.074-.231.132-.315.221-.225.17-.431.387-.563.559-.118.162-.217.317-.265.479-.082.084-.158.224-.155.361-.03.11-.07.209-.114.371-.03.114-.048.221.014.321"/>
  <path class="uuid-4a311b9d-b05d-4640-92d6-791d2db79651" d="M222.327,290.489c-2.27,1.31-5.794,1.376-7.896.203-42.541-24.571-85.041-49.112-127.582-73.687"/>
  <path class="uuid-4a311b9d-b05d-4640-92d6-791d2db79651" d="M86.78,216.95c-.88-.493-1.329-1.195-1.369-1.905-.062-.1-.044-.206-.014-.321.014-.144.032-.287.114-.371-.004-.136.073-.276.155-.361.048-.162.147-.317.265-.479.132-.173.339-.389.563-.559.084-.088.187-.147.315-.221.092-.11.222-.187.354-.261"/>
  <line class="uuid-6990495e-0f35-47f7-ac94-d1efc8922b78" x1="117.962" y1="194.689" x2="87.163" y2="212.472"/>
  <path class="uuid-4a311b9d-b05d-4640-92d6-791d2db79651" d="M85.41,215.044l-9.015,20.222c-2.321,5.217-2.05,6.644,3.018,10.224"/>
  <line class="uuid-6990495e-0f35-47f7-ac94-d1efc8922b78" x1="79.414" y1="245.49" x2="205.898" y2="318.522"/>
  <path class="uuid-4a311b9d-b05d-4640-92d6-791d2db79651" d="M205.898,318.522c6.914,3.595,15.612,3.58,22.548-.018"/>
  <line class="uuid-6990495e-0f35-47f7-ac94-d1efc8922b78" x1="228.446" y1="318.504" x2="289.248" y2="283.4"/>
  <path class="uuid-4a311b9d-b05d-4640-92d6-791d2db79651" d="M289.248,283.4c4.926-3.463,5.445-4.853,3.024-9.961l-5.571-11.73"/>
  <line class="uuid-6990495e-0f35-47f7-ac94-d1efc8922b78" x1="252.915" y1="272.829" x2="222.327" y2="290.489"/>
  <path class="uuid-4a311b9d-b05d-4640-92d6-791d2db79651" d="M214.714,321.075c4.934.409,9.327-.261,13.732-2.571"/>
  <line class="uuid-6990495e-0f35-47f7-ac94-d1efc8922b78" x1="218.258" y1="292.557" x2="214.714" y2="321.075"/>
  <line class="uuid-612c6356-a20d-4916-b1b6-e5d376229b85" x1="93.013" y1="209.094" x2="140.95" y2="209.098"/>
  <line class="uuid-612c6356-a20d-4916-b1b6-e5d376229b85" x1="100.202" y1="224.515" x2="167.67" y2="224.525"/>
  <line class="uuid-612c6356-a20d-4916-b1b6-e5d376229b85" x1="128.529" y1="239.931" x2="194.481" y2="240.005"/>
  <line class="uuid-612c6356-a20d-4916-b1b6-e5d376229b85" x1="152.606" y1="255.359" x2="221.08" y2="255.363"/>
  <line class="uuid-612c6356-a20d-4916-b1b6-e5d376229b85" x1="180.264" y1="270.779" x2="247.767" y2="270.768"/>
  <line class="uuid-612c6356-a20d-4916-b1b6-e5d376229b85" x1="208.832" y1="286.203" x2="227.501" y2="286.173"/>
  <line class="uuid-612c6356-a20d-4916-b1b6-e5d376229b85" x1="280.572" y1="265.248" x2="292.883" y2="272.384"/>
  <line class="uuid-612c6356-a20d-4916-b1b6-e5d376229b85" x1="263.709" y1="273.318" x2="284.379" y2="285.247"/>
  <line class="uuid-612c6356-a20d-4916-b1b6-e5d376229b85" x1="242.659" y1="278.962" x2="268.957" y2="294.154"/>
  <line class="uuid-612c6356-a20d-4916-b1b6-e5d376229b85" x1="227.501" y1="288.006" x2="253.543" y2="303.05"/>
  <line class="uuid-612c6356-a20d-4916-b1b6-e5d376229b85" x1="217.342" y1="299.949" x2="238.241" y2="312.017"/>
  <line class="uuid-612c6356-a20d-4916-b1b6-e5d376229b85" x1="215.944" y1="316.936" x2="220.609" y2="319.641"/>
  <line class="uuid-612c6356-a20d-4916-b1b6-e5d376229b85" x1="217.526" y1="292.06" x2="203.578" y2="316.296"/>
  <line class="uuid-612c6356-a20d-4916-b1b6-e5d376229b85" x1="204.159" y1="284.419" x2="190.243" y2="308.547"/>
  <line class="uuid-612c6356-a20d-4916-b1b6-e5d376229b85" x1="190.383" y1="277.435" x2="176.891" y2="300.828"/>
  <line class="uuid-612c6356-a20d-4916-b1b6-e5d376229b85" x1="177.035" y1="269.708" x2="163.52" y2="293.12"/>
  <line class="uuid-612c6356-a20d-4916-b1b6-e5d376229b85" x1="163.719" y1="261.981" x2="150.179" y2="285.434"/>
  <line class="uuid-612c6356-a20d-4916-b1b6-e5d376229b85" x1="149.73" y1="255.363" x2="136.827" y2="277.714"/>
  <line class="uuid-612c6356-a20d-4916-b1b6-e5d376229b85" x1="136.877" y1="246.774" x2="123.474" y2="269.995"/>
  <line class="uuid-612c6356-a20d-4916-b1b6-e5d376229b85" x1="123.673" y1="238.758" x2="110.103" y2="262.286"/>
  <line class="uuid-612c6356-a20d-4916-b1b6-e5d376229b85" x1="110.625" y1="230.615" x2="96.769" y2="254.597"/>
  <line class="uuid-612c6356-a20d-4916-b1b6-e5d376229b85" x1="97.421" y1="222.594" x2="83.413" y2="246.878"/>
  <path class="uuid-4a311b9d-b05d-4640-92d6-791d2db79651" d="M365.407,206.916c.03-.052.044-.158,0-.232.018-.239-.026-.445-.074-.629.008-.157-.07-.287-.15-.43-.235-.405-.662-.814-1.214-1.133-42.526-24.583-85.042-49.112-127.583-73.687-.666-.287-1.302-.518-1.99-.676-.372-.114-.806-.132-1.211-.132-.419-.026-.835-.016-1.258.055-.449.026-.865.074-1.269.173-.088.012-.184.008-.243.044-.251.066-.479.14-.696.228-.1-.004-.173.038-.228.074-.349.125-.68.257-.997.441"/>
  <path class="uuid-4a311b9d-b05d-4640-92d6-791d2db79651" d="M228.494,131.011c.317-.184.648-.317.997-.441.056-.036.129-.078.228-.074.199-.118.445-.162.696-.228.058-.036.155-.032.243-.044.405-.099.82-.147,1.269-.173.423-.07.838-.081,1.258-.055.405,0,.838.018,1.211.132.762.114,1.456.349,1.99.676,42.541,24.575,85.057,49.105,127.583,73.687.552.319.979.728,1.214,1.133.199.345.257.718.225,1.059.044.074.03.18,0,.232-.118.666-.582,1.298-1.362,1.847-.114.102-.243.18-.386.261"/>
  <line class="uuid-6990495e-0f35-47f7-ac94-d1efc8922b78" x1="228.494" y1="131.011" x2="212.581" y2="140.198"/>
  <path class="uuid-4a311b9d-b05d-4640-92d6-791d2db79651" d="M291.838,272.526c6.197,2.031,13.238,1.53,19.048-1.482"/>
  <line class="uuid-6990495e-0f35-47f7-ac94-d1efc8922b78" x1="310.886" y1="271.044" x2="371.684" y2="235.938"/>
  <path class="uuid-4a311b9d-b05d-4640-92d6-791d2db79651" d="M371.684,235.938c4.926-3.462,5.449-4.852,3.024-9.956l-9.313-19.615"/>
  <line class="uuid-6990495e-0f35-47f7-ac94-d1efc8922b78" x1="363.66" y1="209.024" x2="334.482" y2="225.868"/>
  <path class="uuid-4a311b9d-b05d-4640-92d6-791d2db79651" d="M297.15,273.615c4.935.409,9.327-.261,13.735-2.571"/>
  <line class="uuid-6990495e-0f35-47f7-ac94-d1efc8922b78" x1="299.553" y1="254.284" x2="297.15" y2="273.615"/>
  <line class="uuid-612c6356-a20d-4916-b1b6-e5d376229b85" x1="215.999" y1="138.543" x2="247.903" y2="138.509"/>
  <line class="uuid-612c6356-a20d-4916-b1b6-e5d376229b85" x1="236.368" y1="153.933" x2="276.466" y2="153.929"/>
  <line class="uuid-612c6356-a20d-4916-b1b6-e5d376229b85" x1="263.081" y1="169.357" x2="305.036" y2="169.35"/>
  <line class="uuid-612c6356-a20d-4916-b1b6-e5d376229b85" x1="289.762" y1="184.766" x2="330.17" y2="184.766"/>
  <line class="uuid-612c6356-a20d-4916-b1b6-e5d376229b85" x1="316.465" y1="200.194" x2="356.533" y2="200.198"/>
  <line class="uuid-612c6356-a20d-4916-b1b6-e5d376229b85" x1="329.615" y1="215.618" x2="352.809" y2="215.618"/>
  <line class="uuid-612c6356-a20d-4916-b1b6-e5d376229b85" x1="333.267" y1="223.304" x2="338.525" y2="223.304"/>
  <line class="uuid-612c6356-a20d-4916-b1b6-e5d376229b85" x1="356.341" y1="213.922" x2="375.322" y2="224.923"/>
  <line class="uuid-612c6356-a20d-4916-b1b6-e5d376229b85" x1="340.972" y1="222.87" x2="366.819" y2="237.785"/>
  <line class="uuid-612c6356-a20d-4916-b1b6-e5d376229b85" x1="331.995" y1="235.487" x2="351.389" y2="246.697"/>
  <line class="uuid-612c6356-a20d-4916-b1b6-e5d376229b85" x1="316.644" y1="244.419" x2="335.976" y2="255.594"/>
  <line class="uuid-612c6356-a20d-4916-b1b6-e5d376229b85" x1="301.221" y1="253.324" x2="320.677" y2="264.56"/>
  <line class="uuid-612c6356-a20d-4916-b1b6-e5d376229b85" x1="298.384" y1="269.48" x2="303.046" y2="272.181"/>
  <line class="uuid-612c6356-a20d-4916-b1b6-e5d376229b85" x1="291.82" y1="258.755" x2="288.247" y2="264.962"/>
  <path class="uuid-4a311b9d-b05d-4640-92d6-791d2db79651" d="M325.195,206.835c.03-.054.044-.161,0-.231.018-.239-.026-.449-.074-.633.008-.155-.069-.287-.155-.43-.231-.405-.658-.814-1.21-1.131-42.526-24.581-85.041-49.115-127.579-73.686-.67-.291-1.302-.523-1.994-.68-.371-.114-.806-.134-1.211-.13-.419-.029-.835-.018-1.258.052-.449.026-.861.074-1.269.173-.088.015-.184.012-.243.044-.251.07-.479.144-.696.228-.099,0-.169.04-.228.074-.349.128-.68.261-.997.441"/>
  <path class="uuid-4a311b9d-b05d-4640-92d6-791d2db79651" d="M129.387,164.931c-.128.073-.257.151-.349.261-.13.074-.232.132-.317.221-.228.169-.435.383-.563.555-.118.166-.221.321-.265.479-.084.088-.158.227-.158.36-.029.114-.066.214-.11.372-.032.113-.048.221.012.323"/>
  <path class="uuid-4a311b9d-b05d-4640-92d6-791d2db79651" d="M188.282,130.926c.317-.18.648-.313.997-.441.06-.034.13-.074.228-.074.202-.114.445-.158.696-.228.058-.032.154-.029.243-.044.409-.099.82-.147,1.269-.173.423-.07.838-.08,1.258-.052.405-.004.84.016,1.211.13.764.117,1.456.353,1.994.68,42.538,24.571,85.053,49.105,127.579,73.686.552.317.979.726,1.21,1.131.203.345.262.716.229,1.063.044.07.03.177,0,.231-.118.666-.578,1.299-1.362,1.844-.114.106-.243.179-.386.265"/>
  <path class="uuid-4a311b9d-b05d-4640-92d6-791d2db79651" d="M264.551,242.945c-2.269,1.31-5.79,1.38-7.896.205-42.537-24.574-85.041-49.115-127.578-73.686"/>
  <path class="uuid-4a311b9d-b05d-4640-92d6-791d2db79651" d="M129.004,169.408c-.879-.492-1.324-1.199-1.368-1.905-.06-.103-.044-.21-.012-.323.014-.14.026-.284.11-.372,0-.132.074-.271.158-.36.044-.158.147-.313.265-.479.129-.173.335-.387.563-.555.084-.088.187-.147.317-.221.092-.11.221-.188.349-.261"/>
  <line class="uuid-6990495e-0f35-47f7-ac94-d1efc8922b78" x1="188.282" y1="130.926" x2="129.387" y2="164.931"/>
  <path class="uuid-4a311b9d-b05d-4640-92d6-791d2db79651" d="M127.636,167.503l-9.011,20.222c-2.326,5.218-2.053,6.646,3.013,10.222"/>
  <line class="uuid-6990495e-0f35-47f7-ac94-d1efc8922b78" x1="121.637" y1="197.95" x2="248.128" y2="270.978"/>
  <path class="uuid-4a311b9d-b05d-4640-92d6-791d2db79651" d="M248.128,270.978c6.909,3.598,15.607,3.584,22.544-.015"/>
  <line class="uuid-6990495e-0f35-47f7-ac94-d1efc8922b78" x1="270.671" y1="270.962" x2="331.476" y2="235.858"/>
  <path class="uuid-4a311b9d-b05d-4640-92d6-791d2db79651" d="M331.476,235.858c4.926-3.466,5.445-4.853,3.021-9.96l-9.312-19.611"/>
  <line class="uuid-6990495e-0f35-47f7-ac94-d1efc8922b78" x1="323.448" y1="208.944" x2="264.551" y2="242.945"/>
  <path class="uuid-4a311b9d-b05d-4640-92d6-791d2db79651" d="M256.942,273.535c4.935.405,9.324-.261,13.729-2.573"/>
  <line class="uuid-6990495e-0f35-47f7-ac94-d1efc8922b78" x1="260.486" y1="245.016" x2="256.94" y2="273.535"/>
  <line class="uuid-612c6356-a20d-4916-b1b6-e5d376229b85" x1="175.787" y1="138.457" x2="207.691" y2="138.425"/>
  <line class="uuid-612c6356-a20d-4916-b1b6-e5d376229b85" x1="149.534" y1="153.855" x2="236.257" y2="153.849"/>
  <line class="uuid-612c6356-a20d-4916-b1b6-e5d376229b85" x1="127.804" y1="169.295" x2="264.824" y2="169.269"/>
  <line class="uuid-612c6356-a20d-4916-b1b6-e5d376229b85" x1="156.26" y1="184.682" x2="289.958" y2="184.685"/>
  <line class="uuid-612c6356-a20d-4916-b1b6-e5d376229b85" x1="183.513" y1="200.106" x2="316.325" y2="200.113"/>
  <line class="uuid-612c6356-a20d-4916-b1b6-e5d376229b85" x1="208.217" y1="215.53" x2="312.597" y2="215.534"/>
  <line class="uuid-612c6356-a20d-4916-b1b6-e5d376229b85" x1="236.755" y1="230.932" x2="284.022" y2="230.932"/>
  <line class="uuid-612c6356-a20d-4916-b1b6-e5d376229b85" x1="316.13" y1="213.841" x2="335.11" y2="224.842"/>
  <line class="uuid-612c6356-a20d-4916-b1b6-e5d376229b85" x1="300.76" y1="222.788" x2="326.609" y2="237.705"/>
  <line class="uuid-612c6356-a20d-4916-b1b6-e5d376229b85" x1="284.888" y1="231.417" x2="311.181" y2="246.613"/>
  <line class="uuid-612c6356-a20d-4916-b1b6-e5d376229b85" x1="269.729" y1="240.464" x2="295.768" y2="255.51"/>
  <line class="uuid-612c6356-a20d-4916-b1b6-e5d376229b85" x1="259.567" y1="252.407" x2="280.465" y2="264.476"/>
  <line class="uuid-612c6356-a20d-4916-b1b6-e5d376229b85" x1="258.172" y1="269.396" x2="262.834" y2="272.097"/>
  <line class="uuid-612c6356-a20d-4916-b1b6-e5d376229b85" x1="259.754" y1="244.519" x2="245.802" y2="268.756"/>
  <line class="uuid-612c6356-a20d-4916-b1b6-e5d376229b85" x1="246.383" y1="236.877" x2="232.467" y2="261.007"/>
  <line class="uuid-612c6356-a20d-4916-b1b6-e5d376229b85" x1="232.607" y1="229.89" x2="219.115" y2="253.287"/>
  <line class="uuid-612c6356-a20d-4916-b1b6-e5d376229b85" x1="219.263" y1="222.167" x2="205.744" y2="245.579"/>
  <line class="uuid-612c6356-a20d-4916-b1b6-e5d376229b85" x1="205.946" y1="214.441" x2="192.411" y2="237.889"/>
  <line class="uuid-612c6356-a20d-4916-b1b6-e5d376229b85" x1="191.958" y1="207.817" x2="179.055" y2="230.174"/>
  <line class="uuid-612c6356-a20d-4916-b1b6-e5d376229b85" x1="179.106" y1="199.233" x2="165.698" y2="222.453"/>
  <line class="uuid-612c6356-a20d-4916-b1b6-e5d376229b85" x1="165.901" y1="191.216" x2="152.331" y2="214.742"/>
  <line class="uuid-612c6356-a20d-4916-b1b6-e5d376229b85" x1="152.849" y1="183.073" x2="138.993" y2="207.055"/>
  <line class="uuid-612c6356-a20d-4916-b1b6-e5d376229b85" x1="139.649" y1="175.049" x2="125.637" y2="199.336"/>
</svg>