<?xml version="1.0" encoding="UTF-8"?>
<svg id="uuid-6f0d789e-67bd-4563-a6b6-4b7abae3f6c9" data-name="&amp;lt;Layer&amp;gt;" xmlns="http://www.w3.org/2000/svg" viewBox="0 0 451.11 451.11">
  <defs>
    <style>
      .uuid-ab7a037c-dd3b-4914-ba43-574127cc9a7e, .uuid-3c7ad551-a8b6-46a6-976d-c4d2cbc7fcad, .uuid-0425cc7a-c008-408f-a39b-35cf68065456 {
        fill: none;
        stroke: #000;
        stroke-linecap: round;
      }

      .uuid-ab7a037c-dd3b-4914-ba43-574127cc9a7e, .uuid-0425cc7a-c008-408f-a39b-35cf68065456 {
        stroke-linejoin: round;
        stroke-width: 4.117px;
      }

      .uuid-3c7ad551-a8b6-46a6-976d-c4d2cbc7fcad {
        stroke-miterlimit: 10;
        stroke-width: 1.163px;
      }

      .uuid-0425cc7a-c008-408f-a39b-35cf68065456 {
        fill-rule: evenodd;
      }
    </style>
  </defs>
  <path class="uuid-0425cc7a-c008-408f-a39b-35cf68065456" d="M206.436,219.559c-20.277,14.875-36.3,36.253-44.093,56.794-1.684-1.979-3.006-4.47-3.933-7.962-6.62-26.822,15.022-68.277,48.026-92.389"/>
  <path class="uuid-0425cc7a-c008-408f-a39b-35cf68065456" d="M260.788,126.073c-5.302-1.857-9.821-2.737-15.464-2.785-25.355-.415-51.03,17.371-68.227,34.542-31.073,31.072-56.037,80.537-56.037,124.973,0,17.367,4.007,36.716,16.951,49.249"/>
  <polyline class="uuid-0425cc7a-c008-408f-a39b-35cf68065456" points="138.01 332.052 139.232 333.197 110.434 316.54"/>
  <path class="uuid-0425cc7a-c008-408f-a39b-35cf68065456" d="M110.434,316.54c-.637-.463-3.006-2.958-3.665-3.664-16.075-18.224-16.439-47.611-12.362-70.255,5.74-32.344,23.11-67.372,46.805-94.025,20.837-23.328,57.479-50.86,90.7-39.207"/>
  <path class="uuid-0425cc7a-c008-408f-a39b-35cf68065456" d="M152.937,293.478c28.287-.758,57.896-35.08,70.328-59.507,10.162-20.151,19.813-55.109,8.257-76.777"/>
  <path class="uuid-0425cc7a-c008-408f-a39b-35cf68065456" d="M206.436,134.89c23.57-13.581,44.947-14.85,60.386-5.983,15.439,8.941,25.039,28.069,25.039,55.278,0,15.759-3.201,32.467-8.893,48.954,1.737.295,3.373.832,4.864,1.712"/>
  <path class="uuid-0425cc7a-c008-408f-a39b-35cf68065456" d="M248.354,303.25c-1.516-.88-2.785-1.979-3.885-3.371-11.458,13.164-24.333,24.379-38.034,32.22-23.599,13.654-44.899,14.927-60.337,5.983-15.512-8.889-25.039-28.044-25.039-55.279s9.526-57.383,25.039-84.155c15.438-26.748,36.738-50.102,60.337-63.759"/>
  <path class="uuid-0425cc7a-c008-408f-a39b-35cf68065456" d="M248.304,161.079c-10.7-6.207-25.502-5.276-41.868,4.128-16.317,9.405-31.146,25.623-41.823,44.142-10.697,18.565-17.319,39.476-17.319,58.284s6.622,32.195,17.319,38.355c10.677,6.155,25.506,5.273,41.823-4.133,16.367-9.478,31.168-25.674,41.868-44.189,10.673-18.541,17.296-39.45,17.296-58.31s-6.622-32.122-17.296-38.277Z"/>
  <line class="uuid-ab7a037c-dd3b-4914-ba43-574127cc9a7e" x1="206.436" y1="176.003" x2="206.436" y2="219.559"/>
  <line class="uuid-ab7a037c-dd3b-4914-ba43-574127cc9a7e" x1="231.911" y1="109.388" x2="260.788" y2="126.073"/>
  <line class="uuid-ab7a037c-dd3b-4914-ba43-574127cc9a7e" x1="287.831" y1="234.851" x2="350.729" y2="271.129"/>
  <path class="uuid-0425cc7a-c008-408f-a39b-35cf68065456" d="M350.729,271.129c10.873,6.273,10.873,26.845,0,45.581"/>
  <line class="uuid-ab7a037c-dd3b-4914-ba43-574127cc9a7e" x1="350.729" y1="316.71" x2="350.729" y2="316.782"/>
  <path class="uuid-0425cc7a-c008-408f-a39b-35cf68065456" d="M350.729,316.782c-10.846,18.809-28.629,29.023-39.545,22.742"/>
  <line class="uuid-ab7a037c-dd3b-4914-ba43-574127cc9a7e" x1="311.184" y1="339.525" x2="248.354" y2="303.25"/>
  <line class="uuid-3c7ad551-a8b6-46a6-976d-c4d2cbc7fcad" x1="139.232" y1="333.201" x2="124.433" y2="307.493"/>
  <line class="uuid-3c7ad551-a8b6-46a6-976d-c4d2cbc7fcad" x1="171.868" y1="344.484" x2="123.087" y2="260.036"/>
  <line class="uuid-3c7ad551-a8b6-46a6-976d-c4d2cbc7fcad" x1="193.705" y1="337.23" x2="178.66" y2="311.139"/>
  <line class="uuid-3c7ad551-a8b6-46a6-976d-c4d2cbc7fcad" x1="146.562" y1="255.518" x2="132.318" y2="230.943"/>
  <line class="uuid-3c7ad551-a8b6-46a6-976d-c4d2cbc7fcad" x1="213.397" y1="326.188" x2="201.598" y2="305.742"/>
  <line class="uuid-3c7ad551-a8b6-46a6-976d-c4d2cbc7fcad" x1="155.039" y1="225.082" x2="143.828" y2="205.636"/>
  <line class="uuid-3c7ad551-a8b6-46a6-976d-c4d2cbc7fcad" x1="231.157" y1="311.728" x2="220.602" y2="293.43"/>
  <line class="uuid-3c7ad551-a8b6-46a6-976d-c4d2cbc7fcad" x1="167.571" y1="201.63" x2="157.235" y2="183.722"/>
  <line class="uuid-3c7ad551-a8b6-46a6-976d-c4d2cbc7fcad" x1="252.825" y1="304.177" x2="236.75" y2="276.305"/>
  <line class="uuid-3c7ad551-a8b6-46a6-976d-c4d2cbc7fcad" x1="182.616" y1="182.526" x2="172.406" y2="164.792"/>
  <line class="uuid-3c7ad551-a8b6-46a6-976d-c4d2cbc7fcad" x1="292.834" y1="328.288" x2="249.867" y2="253.88"/>
  <line class="uuid-3c7ad551-a8b6-46a6-976d-c4d2cbc7fcad" x1="200.034" y1="167.577" x2="189.118" y2="148.643"/>
  <line class="uuid-3c7ad551-a8b6-46a6-976d-c4d2cbc7fcad" x1="326.817" y1="341.921" x2="260.251" y2="226.715"/>
  <line class="uuid-3c7ad551-a8b6-46a6-976d-c4d2cbc7fcad" x1="220.48" y1="157.779" x2="207.657" y2="135.6"/>
  <line class="uuid-3c7ad551-a8b6-46a6-976d-c4d2cbc7fcad" x1="344.453" y1="327.335" x2="293.081" y2="238.321"/>
  <line class="uuid-3c7ad551-a8b6-46a6-976d-c4d2cbc7fcad" x1="284.578" y1="223.687" x2="266.77" y2="192.858"/>
  <line class="uuid-3c7ad551-a8b6-46a6-976d-c4d2cbc7fcad" x1="247.255" y1="159" x2="228.42" y2="126.416"/>
  <line class="uuid-3c7ad551-a8b6-46a6-976d-c4d2cbc7fcad" x1="355.837" y1="301.981" x2="333.142" y2="262.553"/>
  <line class="uuid-3c7ad551-a8b6-46a6-976d-c4d2cbc7fcad" x1="290.859" y1="189.367" x2="253.289" y2="124.263"/>
  <line class="uuid-3c7ad551-a8b6-46a6-976d-c4d2cbc7fcad" x1="126.115" y1="318.468" x2="121.814" y2="320.959"/>
  <line class="uuid-3c7ad551-a8b6-46a6-976d-c4d2cbc7fcad" x1="122.403" y1="307.599" x2="110.434" y2="314.461"/>
  <line class="uuid-3c7ad551-a8b6-46a6-976d-c4d2cbc7fcad" x1="120.25" y1="295.752" x2="103.053" y2="305.693"/>
  <line class="uuid-3c7ad551-a8b6-46a6-976d-c4d2cbc7fcad" x1="119.618" y1="283.098" x2="97.998" y2="295.578"/>
  <line class="uuid-3c7ad551-a8b6-46a6-976d-c4d2cbc7fcad" x1="120.472" y1="269.562" x2="94.87" y2="284.367"/>
  <line class="uuid-3c7ad551-a8b6-46a6-976d-c4d2cbc7fcad" x1="122.744" y1="255.223" x2="93.358" y2="272.178"/>
  <line class="uuid-3c7ad551-a8b6-46a6-976d-c4d2cbc7fcad" x1="126.631" y1="239.958" x2="93.358" y2="259.182"/>
  <line class="uuid-3c7ad551-a8b6-46a6-976d-c4d2cbc7fcad" x1="132.565" y1="223.518" x2="94.822" y2="245.282"/>
  <line class="uuid-3c7ad551-a8b6-46a6-976d-c4d2cbc7fcad" x1="140.87" y1="205.684" x2="97.902" y2="230.48"/>
  <line class="uuid-3c7ad551-a8b6-46a6-976d-c4d2cbc7fcad" x1="152.522" y1="185.875" x2="102.836" y2="214.578"/>
  <line class="uuid-3c7ad551-a8b6-46a6-976d-c4d2cbc7fcad" x1="245.154" y1="119.381" x2="237.24" y2="123.958"/>
  <line class="uuid-3c7ad551-a8b6-46a6-976d-c4d2cbc7fcad" x1="171.014" y1="162.176" x2="109.919" y2="197.427"/>
  <line class="uuid-3c7ad551-a8b6-46a6-976d-c4d2cbc7fcad" x1="235.824" y1="111.754" x2="118.495" y2="179.446"/>
  <line class="uuid-3c7ad551-a8b6-46a6-976d-c4d2cbc7fcad" x1="221.116" y1="107.192" x2="135.568" y2="156.557"/>
  <line class="uuid-3c7ad551-a8b6-46a6-976d-c4d2cbc7fcad" x1="237.31" y1="272.005" x2="173.553" y2="308.816"/>
  <line class="uuid-3c7ad551-a8b6-46a6-976d-c4d2cbc7fcad" x1="251.846" y1="250.583" x2="159.509" y2="303.886"/>
  <line class="uuid-3c7ad551-a8b6-46a6-976d-c4d2cbc7fcad" x1="258.514" y1="233.677" x2="202.134" y2="266.243"/>
  <line class="uuid-3c7ad551-a8b6-46a6-976d-c4d2cbc7fcad" x1="262.642" y1="218.29" x2="219.31" y2="243.254"/>
  <line class="uuid-3c7ad551-a8b6-46a6-976d-c4d2cbc7fcad" x1="264.452" y1="204.168" x2="228.542" y2="224.909"/>
  <line class="uuid-3c7ad551-a8b6-46a6-976d-c4d2cbc7fcad" x1="264.037" y1="191.346" x2="234.013" y2="208.712"/>
  <line class="uuid-3c7ad551-a8b6-46a6-976d-c4d2cbc7fcad" x1="261.42" y1="179.913" x2="237.092" y2="193.885"/>
  <line class="uuid-3c7ad551-a8b6-46a6-976d-c4d2cbc7fcad" x1="256.023" y1="169.968" x2="238.14" y2="180.304"/>
  <line class="uuid-3c7ad551-a8b6-46a6-976d-c4d2cbc7fcad" x1="246.718" y1="162.249" x2="236.971" y2="167.894"/>
</svg>