<?xml version="1.0" encoding="UTF-8"?>
<svg id="uuid-afa2b3fe-0b56-4052-a35b-7ebc90db8ab2" data-name="&amp;lt;Layer&amp;gt;" xmlns="http://www.w3.org/2000/svg" viewBox="0 0 451.11 451.11">
  <defs>
    <style>
      .uuid-6bcfcf2e-9e3c-4bb1-9dca-723a38506943, .uuid-139244ea-7a2b-464d-afa9-b8f123194d2d, .uuid-3eea9939-c681-4a37-98df-34703a61edbf, .uuid-23b3b602-1c2a-4077-ba74-083149a787e6, .uuid-f3809f1e-3da5-47f8-8693-f7d098ecc445 {
        fill: none;
        stroke: #000;
        stroke-linecap: round;
      }

      .uuid-6bcfcf2e-9e3c-4bb1-9dca-723a38506943, .uuid-139244ea-7a2b-464d-afa9-b8f123194d2d, .uuid-23b3b602-1c2a-4077-ba74-083149a787e6, .uuid-f3809f1e-3da5-47f8-8693-f7d098ecc445 {
        stroke-linejoin: round;
      }

      .uuid-6bcfcf2e-9e3c-4bb1-9dca-723a38506943, .uuid-f3809f1e-3da5-47f8-8693-f7d098ecc445 {
        stroke-width: 4.117px;
      }

      .uuid-139244ea-7a2b-464d-afa9-b8f123194d2d, .uuid-23b3b602-1c2a-4077-ba74-083149a787e6 {
        stroke-width: 4.113px;
      }

      .uuid-3eea9939-c681-4a37-98df-34703a61edbf {
        stroke-miterlimit: 10;
        stroke-width: 1.163px;
      }

      .uuid-23b3b602-1c2a-4077-ba74-083149a787e6, .uuid-f3809f1e-3da5-47f8-8693-f7d098ecc445 {
        fill-rule: evenodd;
      }
    </style>
  </defs>
  <path class="uuid-f3809f1e-3da5-47f8-8693-f7d098ecc445" d="M227.072,193.193v.052"/>
  <line class="uuid-6bcfcf2e-9e3c-4bb1-9dca-723a38506943" x1="226.778" y1="222.459" x2="226.778" y2="213.518"/>
  <path class="uuid-f3809f1e-3da5-47f8-8693-f7d098ecc445" d="M226.778,213.665v-.389"/>
  <path class="uuid-f3809f1e-3da5-47f8-8693-f7d098ecc445" d="M276.369,146.146s.073,0,.073-.074"/>
  <path class="uuid-f3809f1e-3da5-47f8-8693-f7d098ecc445" d="M291.123,181.519c7.45-4.35,14.997-8.599,24.036-13.507,2.565-1.347,2.517-3.349.074-4.791-3.323-1.928-7.377-4.324-11.505-6.719-1.611-.953-5.744-1.416-8.26.026-6.666,3.859-14.091,7.719-19.905,11.09-2.495,1.442-5.818,1.442-8.234.025-3.323-1.928-6.572-3.833-10.699-6.229-2.443-1.442-2.539-3.564.074-4.812,7.376-3.566,14.927-7.719,22.4-12.043"/>
  <line class="uuid-6bcfcf2e-9e3c-4bb1-9dca-723a38506943" x1="226.778" y1="165.006" x2="226.778" y2="213.518"/>
  <path class="uuid-f3809f1e-3da5-47f8-8693-f7d098ecc445" d="M345.085,229.983c0,18.761,2.66,30.461-19.567,42.14-5.766,2.954-12.021,5.104-18.592,6.572"/>
  <path class="uuid-f3809f1e-3da5-47f8-8693-f7d098ecc445" d="M345.132,162.978c0,5.519.247,10.405,0,14.802"/>
  <line class="uuid-6bcfcf2e-9e3c-4bb1-9dca-723a38506943" x1="345.132" y1="177.781" x2="345.132" y2="177.854"/>
  <path class="uuid-f3809f1e-3da5-47f8-8693-f7d098ecc445" d="M345.132,177.854c-.415,7.671-2.148,13.996-8.694,19.983-2.737,2.491-6.281,4.86-10.92,7.302-.589.295-1.173.585-1.811.88-5.445,2.663-11.502,4.643-17.757,5.912-6.865,1.464-14,2.102-21.082,1.976-6.741-.121-13.485-.802-19.762-2.196-6.45-1.343-12.484-3.323-17.76-5.934-4.761-2.248-8.893-5.034-12.189-8.186-4.372-4.177-7.204-9.059-8.084-14.556"/>
  <line class="uuid-6bcfcf2e-9e3c-4bb1-9dca-723a38506943" x1="227.072" y1="183.035" x2="227.072" y2="182.961"/>
  <path class="uuid-f3809f1e-3da5-47f8-8693-f7d098ecc445" d="M227.072,182.961c-.173-1.053-.295-2.079-.295-3.201"/>
  <line class="uuid-6bcfcf2e-9e3c-4bb1-9dca-723a38506943" x1="226.778" y1="179.76" x2="226.778" y2="165.006"/>
  <line class="uuid-6bcfcf2e-9e3c-4bb1-9dca-723a38506943" x1="336.364" y1="264.721" x2="336.364" y2="181.25"/>
  <line class="uuid-6bcfcf2e-9e3c-4bb1-9dca-723a38506943" x1="305.95" y1="242.147" x2="305.95" y2="195.736"/>
  <line class="uuid-6bcfcf2e-9e3c-4bb1-9dca-723a38506943" x1="285.041" y1="226.197" x2="284.672" y2="197.226"/>
  <line class="uuid-6bcfcf2e-9e3c-4bb1-9dca-723a38506943" x1="265.106" y1="222.242" x2="265.106" y2="195.419"/>
  <line class="uuid-6bcfcf2e-9e3c-4bb1-9dca-723a38506943" x1="247.346" y1="231.448" x2="247.346" y2="190.143"/>
  <line class="uuid-6bcfcf2e-9e3c-4bb1-9dca-723a38506943" x1="235.156" y1="228.835" x2="235.156" y2="181.25"/>
  <line class="uuid-6bcfcf2e-9e3c-4bb1-9dca-723a38506943" x1="210.29" y1="314.433" x2="210.29" y2="299.288"/>
  <line class="uuid-6bcfcf2e-9e3c-4bb1-9dca-723a38506943" x1="192.53" y1="320.197" x2="192.53" y2="304.049"/>
  <line class="uuid-6bcfcf2e-9e3c-4bb1-9dca-723a38506943" x1="171.62" y1="322.178" x2="171.279" y2="305.539"/>
  <line class="uuid-6bcfcf2e-9e3c-4bb1-9dca-723a38506943" x1="151.712" y1="320.024" x2="151.712" y2="303.559"/>
  <line class="uuid-6bcfcf2e-9e3c-4bb1-9dca-723a38506943" x1="133.925" y1="314.09" x2="133.925" y2="298.309"/>
  <line class="uuid-6bcfcf2e-9e3c-4bb1-9dca-723a38506943" x1="121.736" y1="305.222" x2="121.736" y2="289.563"/>
  <line class="uuid-6bcfcf2e-9e3c-4bb1-9dca-723a38506943" x1="204.183" y1="295.182" x2="204.183" y2="279.036"/>
  <line class="uuid-6bcfcf2e-9e3c-4bb1-9dca-723a38506943" x1="183.296" y1="297.136" x2="183.1" y2="280.358"/>
  <line class="uuid-6bcfcf2e-9e3c-4bb1-9dca-723a38506943" x1="163.534" y1="295.012" x2="163.534" y2="278.547"/>
  <line class="uuid-6bcfcf2e-9e3c-4bb1-9dca-723a38506943" x1="145.773" y1="289.074" x2="145.773" y2="273.27"/>
  <line class="uuid-6bcfcf2e-9e3c-4bb1-9dca-723a38506943" x1="133.756" y1="280.185" x2="133.756" y2="264.378"/>
  <path class="uuid-f3809f1e-3da5-47f8-8693-f7d098ecc445" d="M237.942,336c-16.318-9.404-27.651-12.848-26.651-38.033,1.785-40.988,44.237-87.746,71.402-72.94"/>
  <line class="uuid-6bcfcf2e-9e3c-4bb1-9dca-723a38506943" x1="282.693" y1="225.028" x2="297.178" y2="233.427"/>
  <path class="uuid-f3809f1e-3da5-47f8-8693-f7d098ecc445" d="M297.178,233.427c-24.868-12.996-54.13,21.256-64.341,44.289-7.282,16.807-13.485,46.437,5.104,58.284"/>
  <path class="uuid-f3809f1e-3da5-47f8-8693-f7d098ecc445" d="M225.729,308.84c0-26.675,18.761-59.116,41.82-72.432,23.232-13.337,41.82-2.465,41.82,24.184s-18.589,59.094-41.82,72.428c-23.059,13.342-41.82,2.469-41.82-24.181Z"/>
  <line class="uuid-6bcfcf2e-9e3c-4bb1-9dca-723a38506943" x1="212.097" y1="311.136" x2="225.899" y2="319.05"/>
  <line class="uuid-6bcfcf2e-9e3c-4bb1-9dca-723a38506943" x1="211.461" y1="295.818" x2="224.457" y2="303.391"/>
  <line class="uuid-6bcfcf2e-9e3c-4bb1-9dca-723a38506943" x1="215.225" y1="277.546" x2="229.222" y2="285.63"/>
  <line class="uuid-6bcfcf2e-9e3c-4bb1-9dca-723a38506943" x1="223.945" y1="258.469" x2="238.578" y2="266.7"/>
  <line class="uuid-6bcfcf2e-9e3c-4bb1-9dca-723a38506943" x1="235.792" y1="242.32" x2="249.961" y2="250.55"/>
  <line class="uuid-6bcfcf2e-9e3c-4bb1-9dca-723a38506943" x1="249.788" y1="229.983" x2="263.421" y2="237.729"/>
  <line class="uuid-6bcfcf2e-9e3c-4bb1-9dca-723a38506943" x1="263.59" y1="223.901" x2="277.127" y2="231.62"/>
  <path class="uuid-f3809f1e-3da5-47f8-8693-f7d098ecc445" d="M254.359,313.943c6.788-4.446,14.364-8.721,21.91-13.018,2.322-1.321,4.643-4.276,4.643-6.914v-13.168c0-1.637-2.321-2.954-4.643-1.807-6.744,3.956-12.848,7.404-18.076,10.87-2.322,1.295-3.834.319-3.834-2.322v-12.996c0-1.807,1.512-5.102,3.834-6.593,6.107-3.786,12.851-7.721,20.398-11.995"/>
  <path class="uuid-f3809f1e-3da5-47f8-8693-f7d098ecc445" d="M267.254,252.872v63.686"/>
  <line class="uuid-6bcfcf2e-9e3c-4bb1-9dca-723a38506943" x1="323.707" y1="273.098" x2="323.707" y2="189.312"/>
  <path class="uuid-f3809f1e-3da5-47f8-8693-f7d098ecc445" d="M327.666,187.185c-23.062,13.338-60.58,13.338-83.643,0-23.232-13.337-23.232-35.078,0-48.391,23.063-13.338,60.581-13.338,83.643,0,23.206,13.312,23.206,35.054,0,48.391Z"/>
  <path class="uuid-f3809f1e-3da5-47f8-8693-f7d098ecc445" d="M257.508,146.513c18.934,10.553,36.887,21.569,55.794,32.614"/>
  <path class="uuid-f3809f1e-3da5-47f8-8693-f7d098ecc445" d="M345.085,177.806c0,18.93,2.66,30.608-19.567,42.14-10.067,5.273-21.914,8.058-33.931,8.72"/>
  <path class="uuid-f3809f1e-3da5-47f8-8693-f7d098ecc445" d="M259.024,225.028c-18.298-5.254-32.124-15.954-32.294-30.439"/>
  <line class="uuid-6bcfcf2e-9e3c-4bb1-9dca-723a38506943" x1="226.729" y1="194.588" x2="226.729" y2="177.806"/>
  <path class="uuid-f3809f1e-3da5-47f8-8693-f7d098ecc445" d="M345.085,196.737c0,18.934,2.66,30.608-19.567,42.114-5.597,2.98-11.678,5.108-17.955,6.428"/>
  <path class="uuid-f3809f1e-3da5-47f8-8693-f7d098ecc445" d="M229.858,224.707c-.173-.489-1.442-2.786-1.615-3.128-1.001-2.612-1.513-5.275-1.513-8.061"/>
  <line class="uuid-6bcfcf2e-9e3c-4bb1-9dca-723a38506943" x1="226.729" y1="213.518" x2="226.729" y2="196.737"/>
  <path class="uuid-f3809f1e-3da5-47f8-8693-f7d098ecc445" d="M345.085,212.032c0,18.93,2.66,30.63-19.567,42.136-4.787,2.638-9.893,4.444-15.17,5.934"/>
  <path class="uuid-f3809f1e-3da5-47f8-8693-f7d098ecc445" d="M211.56,293.349c-36.348,11.042-85.891-2.782-86.571-30.289"/>
  <line class="uuid-6bcfcf2e-9e3c-4bb1-9dca-723a38506943" x1="124.988" y1="263.06" x2="124.988" y2="246.279"/>
  <path class="uuid-f3809f1e-3da5-47f8-8693-f7d098ecc445" d="M215.861,275.077c-22.867,8.405-53.476,6.915-73.411-4.591-23.206-13.507-23.206-35.08,0-48.418,23.063-13.311,60.584-13.311,83.643,0,7.087,4.129,11.848,8.894,14.632,13.996"/>
  <path class="uuid-f3809f1e-3da5-47f8-8693-f7d098ecc445" d="M189.377,264.721c7.55-4.276,15.001-8.573,24.162-13.507,2.513-1.321,2.513-3.301,0-4.765-3.249-1.979-7.377-4.302-11.508-6.766-1.612-.975-5.741-1.464-8.232,0-6.57,3.955-14.117,7.745-19.909,11.211-2.443,1.321-5.766,1.321-8.183,0-3.323-1.976-6.644-3.955-10.747-6.277-2.443-1.464-2.443-3.612,0-4.765,7.425-3.612,14.975-7.741,22.4-12.164"/>
  <path class="uuid-f3809f1e-3da5-47f8-8693-f7d098ecc445" d="M155.939,229.667c18.93,10.527,36.886,21.547,55.791,32.588"/>
  <path class="uuid-f3809f1e-3da5-47f8-8693-f7d098ecc445" d="M212.097,313.454c-36.348,18.908-98.249,5.423-98.787-25.355"/>
  <line class="uuid-6bcfcf2e-9e3c-4bb1-9dca-723a38506943" x1="113.31" y1="288.099" x2="113.31" y2="271.291"/>
  <path class="uuid-f3809f1e-3da5-47f8-8693-f7d098ecc445" d="M211.096,297.136c-23.404,11.704-58.41,11.042-80.468-1.634-21.277-12.362-23.058-31.609-5.128-44.951"/>
  <path class="uuid-f3809f1e-3da5-47f8-8693-f7d098ecc445" d="M345.085,244.958l.047-67.104M345.132,177.781l-.047-14.802"/>
  <line class="uuid-3eea9939-c681-4a37-98df-34703a61edbf" x1="237.942" y1="235.09" x2="235.546" y2="239.241"/>
  <path class="uuid-23b3b602-1c2a-4077-ba74-083149a787e6" d="M101.731,131.799l57.122-32.974M194.002,78.519l57.122-32.974"/>
  <path class="uuid-23b3b602-1c2a-4077-ba74-083149a787e6" d="M251.124,45.544c7.352-4.268,19.302-4.232,26.653.01"/>
  <line class="uuid-139244ea-7a2b-464d-afa9-b8f123194d2d" x1="277.777" y1="45.555" x2="349.622" y2="87.036"/>
  <path class="uuid-23b3b602-1c2a-4077-ba74-083149a787e6" d="M349.622,87.036c7.332,4.231,7.358,11.108.006,15.38"/>
  <path class="uuid-23b3b602-1c2a-4077-ba74-083149a787e6" d="M349.628,102.416l-46.772,26.976M226.196,173.663l-25.984,14.997"/>
  <path class="uuid-23b3b602-1c2a-4077-ba74-083149a787e6" d="M200.213,188.66c-7.328,4.235-19.301,4.231-26.631,0"/>
  <line class="uuid-139244ea-7a2b-464d-afa9-b8f123194d2d" x1="173.582" y1="188.66" x2="101.735" y2="147.179"/>
  <path class="uuid-23b3b602-1c2a-4077-ba74-083149a787e6" d="M101.735,147.179c-7.348-4.242-7.356-11.156-.003-15.38"/>
  <path class="uuid-23b3b602-1c2a-4077-ba74-083149a787e6" d="M228.129,138.776c-9.251-.652-18.711-3.249-26.43-7.709-7.701-4.444-12.182-9.897-13.315-15.24"/>
  <path class="uuid-23b3b602-1c2a-4077-ba74-083149a787e6" d="M277.863,126.935c1.077-9.177-6.038-19.728-20.384-28.011-14.405-8.316-32.633-12.396-48.502-11.76"/>
  <path class="uuid-23b3b602-1c2a-4077-ba74-083149a787e6" d="M285.32,128.612c19.272-11.111,36.297-20.946,55.551-32.064,2.457-1.395,2.274-3.849-.412-5.398-23.176-13.381-46.374-26.775-69.569-40.168-2.686-1.549-6.866-1.615-9.323-.225-19.255,11.124-38.552,22.271-57.825,33.383"/>
  <path class="uuid-23b3b602-1c2a-4077-ba74-083149a787e6" d="M263.292,118.524c-1.133-5.346-5.614-10.796-13.371-15.274-7.645-4.414-17.123-7.023-26.372-7.675"/>
  <path class="uuid-23b3b602-1c2a-4077-ba74-083149a787e6" d="M173.814,107.416c-1.06,9.187,6.055,19.736,20.402,28.019,11.313,6.534,25.045,10.453,38.147,11.516"/>
  <path class="uuid-23b3b602-1c2a-4077-ba74-083149a787e6" d="M168.63,104.425c-19.255,11.119-38.553,22.267-57.826,33.378-2.443,1.406-2.273,3.849.412,5.398,23.176,13.381,46.371,26.775,69.569,40.164,2.645,1.53,6.863,1.619,9.324.225,11.984-6.921,23.986-13.853,35.988-20.781"/>
  <path class="uuid-23b3b602-1c2a-4077-ba74-083149a787e6" d="M297.334,84.144c4.135-2.373,4.202-6.211.169-8.54-4.037-2.33-10.677-2.288-14.795.099-4.125,2.355-4.191,6.193-.136,8.533,4.033,2.329,10.655,2.277,14.762-.092Z"/>
  <path class="uuid-23b3b602-1c2a-4077-ba74-083149a787e6" d="M168.564,158.49c-4.125,2.358-10.747,2.41-14.78.081-4.037-2.329-3.97-6.167.136-8.536,4.139-2.377,10.758-2.425,14.813-.084,4.033,2.329,3.951,6.151-.169,8.54Z"/>
  <polyline class="uuid-23b3b602-1c2a-4077-ba74-083149a787e6" points="236.783 143.82 158.853 98.828 165.45 95.01 194.002 78.519 281.255 128.893"/>
  <line class="uuid-139244ea-7a2b-464d-afa9-b8f123194d2d" x1="165.45" y1="95.01" x2="242.669" y2="139.592"/>
  <line class="uuid-139244ea-7a2b-464d-afa9-b8f123194d2d" x1="187.405" y1="82.337" x2="269.9" y2="129.963"/>
  <path class="uuid-23b3b602-1c2a-4077-ba74-083149a787e6" d="M355.041,146.439c-.478,3.006-2.936,5.17-5.391,6.638"/>
  <line class="uuid-139244ea-7a2b-464d-afa9-b8f123194d2d" x1="349.65" y1="153.077" x2="344.249" y2="156.197"/>
  <path class="uuid-23b3b602-1c2a-4077-ba74-083149a787e6" d="M142.064,221.286c-19.706-11.344-41.378-23.919-42.731-25.138-1.837-1.603-3.006-3.514-3.116-5.971"/>
  <line class="uuid-139244ea-7a2b-464d-afa9-b8f123194d2d" x1="96.216" y1="190.176" x2="96.23" y2="139.486"/>
  <path class="uuid-23b3b602-1c2a-4077-ba74-083149a787e6" d="M96.23,139.486c.284,3.742,2.326,5.81,5.505,7.693"/>
  <path class="uuid-23b3b602-1c2a-4077-ba74-083149a787e6" d="M349.628,102.416c3.161-1.929,5.188-3.989,5.501-7.735"/>
  <line class="uuid-139244ea-7a2b-464d-afa9-b8f123194d2d" x1="355.129" y1="94.681" x2="355.041" y2="146.439"/>
  <line class="uuid-139244ea-7a2b-464d-afa9-b8f123194d2d" x1="143.094" y1="221.757" x2="101.739" y2="197.881"/>
  <path class="uuid-23b3b602-1c2a-4077-ba74-083149a787e6" d="M101.739,197.881c-2.91-1.803-5.368-4.085-5.523-7.705"/>
  <path class="uuid-23b3b602-1c2a-4077-ba74-083149a787e6" d="M173.582,188.66c4.352,2.465,9.179,3.253,14.155,3.187"/>
  <line class="uuid-139244ea-7a2b-464d-afa9-b8f123194d2d" x1="187.737" y1="191.847" x2="187.737" y2="212.201"/>
  <polyline class="uuid-23b3b602-1c2a-4077-ba74-083149a787e6" points="355.173 125.857 355.107 126.362 355.067 126.857"/>
  <path class="uuid-23b3b602-1c2a-4077-ba74-083149a787e6" d="M355.055,131.141c-.478,3.054-2.932,5.166-5.389,6.685"/>
  <line class="uuid-139244ea-7a2b-464d-afa9-b8f123194d2d" x1="349.666" y1="137.825" x2="337.046" y2="145.123"/>
  <line class="uuid-139244ea-7a2b-464d-afa9-b8f123194d2d" x1="226.3" y1="209.032" x2="213.934" y2="216.174"/>
  <line class="uuid-139244ea-7a2b-464d-afa9-b8f123194d2d" x1="157.889" y1="215.041" x2="101.713" y2="182.608"/>
  <path class="uuid-23b3b602-1c2a-4077-ba74-083149a787e6" d="M101.713,182.608c-3.109-1.921-5.162-3.967-5.483-7.687"/>
  <line class="uuid-139244ea-7a2b-464d-afa9-b8f123194d2d" x1="355.143" y1="105.771" x2="355.111" y2="105.83"/>
  <path class="uuid-23b3b602-1c2a-4077-ba74-083149a787e6" d="M355.115,109.771c-.298,3.676-2.326,5.74-5.467,7.627"/>
  <line class="uuid-139244ea-7a2b-464d-afa9-b8f123194d2d" x1="349.647" y1="117.398" x2="319.954" y2="134.53"/>
  <line class="uuid-139244ea-7a2b-464d-afa9-b8f123194d2d" x1="226.727" y1="188.373" x2="200.202" y2="203.698"/>
  <path class="uuid-23b3b602-1c2a-4077-ba74-083149a787e6" d="M200.202,203.698c-.703.409-1.41.692-2.131,1.041-1.994.802-3.716,1.263-5.768,1.656-1.219.184-2.366.339-3.569.409-.327.055-.68.025-.979.025-1.199.074-2.344.004-3.584-.069-3.819-.401-7.16-1.197-10.589-3.08"/>
  <line class="uuid-139244ea-7a2b-464d-afa9-b8f123194d2d" x1="173.582" y1="203.68" x2="101.753" y2="162.212"/>
  <line class="uuid-139244ea-7a2b-464d-afa9-b8f123194d2d" x1="183.847" y1="176.521" x2="201.924" y2="166.076"/>
  <line class="uuid-139244ea-7a2b-464d-afa9-b8f123194d2d" x1="122.74" y1="141.241" x2="140.817" y2="130.794"/>
  <line class="uuid-139244ea-7a2b-464d-afa9-b8f123194d2d" x1="249.435" y1="68.094" x2="267.513" y2="57.645"/>
  <line class="uuid-139244ea-7a2b-464d-afa9-b8f123194d2d" x1="310.524" y1="103.365" x2="328.62" y2="92.926"/>
  <line class="uuid-3eea9939-c681-4a37-98df-34703a61edbf" x1="147.315" y1="174.384" x2="105.9" y2="198.285"/>
  <line class="uuid-3eea9939-c681-4a37-98df-34703a61edbf" x1="158.017" y1="179.594" x2="115.745" y2="203.97"/>
  <line class="uuid-3eea9939-c681-4a37-98df-34703a61edbf" x1="167.695" y1="185.422" x2="125.632" y2="209.676"/>
  <line class="uuid-3eea9939-c681-4a37-98df-34703a61edbf" x1="176.856" y1="191.526" x2="135.5" y2="215.372"/>
  <line class="uuid-3eea9939-c681-4a37-98df-34703a61edbf" x1="186.471" y1="197.392" x2="145.383" y2="221.079"/>
  <line class="uuid-3eea9939-c681-4a37-98df-34703a61edbf" x1="202.24" y1="187.387" x2="202.152" y2="213.679"/>
  <line class="uuid-3eea9939-c681-4a37-98df-34703a61edbf" x1="222.013" y1="175.97" x2="221.906" y2="219.872"/>
  <line class="uuid-3eea9939-c681-4a37-98df-34703a61edbf" x1="326.169" y1="115.827" x2="326.103" y2="138.349"/>
  <line class="uuid-3eea9939-c681-4a37-98df-34703a61edbf" x1="345.942" y1="104.41" x2="345.842" y2="153.35"/>
  <line class="uuid-3eea9939-c681-4a37-98df-34703a61edbf" x1="214.11" y1="79.983" x2="217.355" y2="85.608"/>
  <line class="uuid-3eea9939-c681-4a37-98df-34703a61edbf" x1="230.91" y1="69.614" x2="243.35" y2="91.113"/>
  <line class="uuid-3eea9939-c681-4a37-98df-34703a61edbf" x1="247.095" y1="58.127" x2="287.61" y2="128.267"/>
  <line class="uuid-3eea9939-c681-4a37-98df-34703a61edbf" x1="265.632" y1="50.688" x2="280.43" y2="76.311"/>
  <line class="uuid-3eea9939-c681-4a37-98df-34703a61edbf" x1="286.255" y1="86.488" x2="303.964" y2="117.122"/>
  <line class="uuid-3eea9939-c681-4a37-98df-34703a61edbf" x1="298.508" y1="68.09" x2="321.242" y2="107.5"/>
  <line class="uuid-3eea9939-c681-4a37-98df-34703a61edbf" x1="333.295" y1="88.891" x2="337.747" y2="96.617"/>
  <line class="uuid-3eea9939-c681-4a37-98df-34703a61edbf" x1="116.879" y1="135.784" x2="124.576" y2="149.088"/>
  <line class="uuid-3eea9939-c681-4a37-98df-34703a61edbf" x1="133.686" y1="125.445" x2="149.868" y2="153.424"/>
  <line class="uuid-3eea9939-c681-4a37-98df-34703a61edbf" x1="153.894" y1="160.387" x2="158.681" y2="168.682"/>
  <line class="uuid-3eea9939-c681-4a37-98df-34703a61edbf" x1="150.719" y1="115.308" x2="170.465" y2="149.593"/>
  <line class="uuid-3eea9939-c681-4a37-98df-34703a61edbf" x1="172.942" y1="153.857" x2="189.752" y2="182.965"/>
  <line class="uuid-3eea9939-c681-4a37-98df-34703a61edbf" x1="168.313" y1="106.339" x2="172.713" y2="113.94"/>
  <line class="uuid-3eea9939-c681-4a37-98df-34703a61edbf" x1="179.201" y1="125.187" x2="207.24" y2="173.711"/>
  <line class="uuid-3eea9939-c681-4a37-98df-34703a61edbf" x1="213.356" y1="144.784" x2="223.783" y2="162.85"/>
  <line class="uuid-3eea9939-c681-4a37-98df-34703a61edbf" x1="196.747" y1="87.997" x2="176.754" y2="99.534"/>
  <line class="uuid-3eea9939-c681-4a37-98df-34703a61edbf" x1="216.497" y1="99.402" x2="196.522" y2="110.948"/>
  <line class="uuid-3eea9939-c681-4a37-98df-34703a61edbf" x1="236.253" y1="110.805" x2="216.273" y2="122.351"/>
  <line class="uuid-3eea9939-c681-4a37-98df-34703a61edbf" x1="256.003" y1="122.211" x2="236.028" y2="133.756"/>
  <line class="uuid-3eea9939-c681-4a37-98df-34703a61edbf" x1="107.824" y1="151.587" x2="95.937" y2="158.442"/>
  <line class="uuid-3eea9939-c681-4a37-98df-34703a61edbf" x1="118.531" y1="156.793" x2="96.216" y2="169.649"/>
  <line class="uuid-3eea9939-c681-4a37-98df-34703a61edbf" x1="128.207" y1="162.625" x2="96.212" y2="181.066"/>
  <line class="uuid-3eea9939-c681-4a37-98df-34703a61edbf" x1="137.366" y1="168.726" x2="96.013" y2="192.575"/>
  <path class="uuid-23b3b602-1c2a-4077-ba74-083149a787e6" d="M101.753,162.21c-3.109-1.917-5.162-3.967-5.485-7.683"/>
</svg>