<?xml version="1.0" encoding="UTF-8"?>
<svg id="uuid-87ce31f5-83ff-4311-8651-c529070584b6" data-name="&amp;lt;Layer&amp;gt;" xmlns="http://www.w3.org/2000/svg" viewBox="0 0 451.11 451.11">
  <defs>
    <style>
      .uuid-d592de1d-b2c9-4c87-9e77-d0efdf525b34, .uuid-4f9c2a4b-cf92-4162-b76b-335f1d626194, .uuid-e6b0be00-99cb-4283-ba5f-f64f6772b273 {
        fill: none;
        stroke: #000;
        stroke-linecap: round;
      }

      .uuid-d592de1d-b2c9-4c87-9e77-d0efdf525b34, .uuid-e6b0be00-99cb-4283-ba5f-f64f6772b273 {
        stroke-linejoin: round;
        stroke-width: 4.113px;
      }

      .uuid-4f9c2a4b-cf92-4162-b76b-335f1d626194 {
        stroke-miterlimit: 10;
        stroke-width: 1.163px;
      }

      .uuid-e6b0be00-99cb-4283-ba5f-f64f6772b273 {
        fill-rule: evenodd;
      }
    </style>
  </defs>
  <path class="uuid-e6b0be00-99cb-4283-ba5f-f64f6772b273" d="M241.847,162.486c6.082,4.839,14.46,10.605,26.017,17.245,28.338,16.37,51.566,93.732,53.182,122.899,1.049,18.298-13.168,32.346-27.923,40.87-18.641,10.77-43.09,16.146-67.542,16.146M183.318,179.732c9.795-5.666,17.341-10.647,23.111-14.997"/>
  <path class="uuid-e6b0be00-99cb-4283-ba5f-f64f6772b273" d="M216.124,172.281c-4.934,3.569-11.457,7.649-19.81,12.484-27.922,16.124-28.338,87.551-29.95,116.302-1.051,18.028,12.996,31.904,27.507,40.259,14.582,8.427,32.758,13.507,51.688,15.266-1.221.1-2.369.979-3.59,2.248-5.42.563-10.917.806-16.388.806-24.453,0-48.88-5.376-67.594-16.146-14.68-8.524-28.971-22.572-27.923-40.87,1.689-29.166,24.916-106.528,53.254-122.899"/>
  <path class="uuid-e6b0be00-99cb-4283-ba5f-f64f6772b273" d="M224.307,156.943c6.156-.026,12.827-1.564,16.076-6.814.537-1.027.295-1.321,1.125-2.322,7.304-9.161,12.823-29.435,13.286-37.497.295-5.934-4.298-10.479-9.063-13.238-6.033-3.495-13.996-5.228-21.888-5.228-7.962,0-15.854,1.733-21.888,5.228-4.835,2.76-9.427,7.304-9.063,13.238.463,8.209,6.155,29.145,13.706,38.008,0-.048.243.417.295.515"/>
  <path class="uuid-e6b0be00-99cb-4283-ba5f-f64f6772b273" d="M245.511,96.704c-12.138-6.987-31.778-6.987-43.898,0-12.09,7.009-12.09,18.345,0,25.354,12.121,6.987,31.761,6.987,43.898,0,12.143-7.009,12.143-18.345,0-25.354Z"/>
  <path class="uuid-e6b0be00-99cb-4283-ba5f-f64f6772b273" d="M239.919,99.927c-9.041-5.202-23.695-5.228-32.736,0-9.015,5.228-9.015,13.68,0,18.908,9.041,5.228,23.695,5.228,32.736,0,9.061-5.228,9.061-13.68,0-18.908Z"/>
  <path class="uuid-e6b0be00-99cb-4283-ba5f-f64f6772b273" d="M227.387,261.642c5.74.221,10.457.732,14.121,1.612,3.588.831,6.546,2.664,8.768,5.371,2.244,2.763,3.371,6.792,3.371,12.169,0,5.449-.832,9.769-2.443,12.848-1.564,3.102-4.129,5.324-7.55,6.693-3.444,1.369-8.084,2.175-13.944,2.444"/>
  <polyline class="uuid-e6b0be00-99cb-4283-ba5f-f64f6772b273" points="229.709 302.778 227.387 302.778 227.387 310.107 219.788 310.107 219.788 302.778"/>
  <path class="uuid-e6b0be00-99cb-4283-ba5f-f64f6772b273" d="M219.788,302.778c-4.007,0-7.571-.317-10.747-.928-3.153-.61-5.864-1.663-8.183-3.175-2.274-1.516-4.08-3.616-5.349-6.329-1.269-2.711-1.933-6.055-1.933-10.088"/>
  <polyline class="uuid-e6b0be00-99cb-4283-ba5f-f64f6772b273" points="193.577 282.258 193.482 279.741 205.545 279.741"/>
  <path class="uuid-e6b0be00-99cb-4283-ba5f-f64f6772b273" d="M205.545,279.741c0,3.054.247,5.375.758,7.013.465,1.633,1.295,2.808,2.37,3.59,1.053.732,2.347,1.221,3.738,1.417,1.321.195,3.812.389,7.377.61"/>
  <path class="uuid-e6b0be00-99cb-4283-ba5f-f64f6772b273" d="M219.788,271.657c-4.713-.295-8.377-.684-11.115-1.173-2.785-.463-5.202-1.318-7.425-2.638-2.201-1.295-3.956-3.249-5.107-5.814-1.222-2.613-1.807-6.082-1.807-10.384,0-5.349,1.049-9.452,3.15-12.31,2.078-2.86,4.986-4.813,8.65-5.792,3.664-1.001,8.183-1.512,13.654-1.512"/>
  <polyline class="uuid-e6b0be00-99cb-4283-ba5f-f64f6772b273" points="219.788 232.035 219.788 225.563 227.387 225.563 227.387 232.035"/>
  <path class="uuid-e6b0be00-99cb-4283-ba5f-f64f6772b273" d="M227.387,232.035c6.034.269,10.747.879,14.121,1.833,3.367.953,5.91,2.858,7.717,5.764,1.735,2.882,2.663,7.231,2.663,13.022"/>
  <path class="uuid-e6b0be00-99cb-4283-ba5f-f64f6772b273" d="M240.114,252.653c-.074-.393-.125-.831-.125-1.394,0-3.395-.755-5.666-2.223-6.866-1.438-1.169-3.929-1.78-7.425-1.78"/>
  <polyline class="uuid-e6b0be00-99cb-4283-ba5f-f64f6772b273" points="227.387 271.657 227.387 292.372 229.709 292.372"/>
  <path class="uuid-e6b0be00-99cb-4283-ba5f-f64f6772b273" d="M229.709,292.372c4.006,0,6.983-.732,8.889-2.174,1.906-1.442,2.91-4.128,2.91-8.04,0-3.05-.588-5.298-1.688-6.74-1.049-1.416-2.443-2.318-4.176-2.711-1.759-.389-4.544-.732-8.257-1.049"/>
  <path class="uuid-e6b0be00-99cb-4283-ba5f-f64f6772b273" d="M217.931,242.613c-2.686.047-4.835.217-6.399.584-1.563.343-2.858,1.127-3.76,2.37-.879,1.269-1.394,3.201-1.394,5.864,0,3.808,1.148,6.424,3.349,7.841,2.222,1.416,5.519,2.1,10.062,2.1"/>
  <path class="uuid-e6b0be00-99cb-4283-ba5f-f64f6772b273" d="M206.598,148.317c3.54,6.891,10.505,8.676,17.709,8.625,6.965-.026,14.634-2.002,17.201-9.111"/>
  <path class="uuid-e6b0be00-99cb-4283-ba5f-f64f6772b273" d="M241.508,163.244c-.125,1.465-.588,2.591-1.468,3.786-1.318,1.733-3.006,2.833-4.982,3.786-2.395,1.101-4.717,1.685-7.282,2.027-1.953.247-3.807.269-5.838.147-3.198-.243-5.983-.853-8.89-2.174-3.153-1.512-6.207-3.859-6.45-7.573"/>
  <line class="uuid-d592de1d-b2c9-4c87-9e77-d0efdf525b34" x1="227.387" y1="242.613" x2="227.387" y2="261.642"/>
  <line class="uuid-d592de1d-b2c9-4c87-9e77-d0efdf525b34" x1="219.788" y1="292.372" x2="219.788" y2="271.657"/>
  <line class="uuid-d592de1d-b2c9-4c87-9e77-d0efdf525b34" x1="251.888" y1="252.653" x2="240.114" y2="252.653"/>
  <line class="uuid-d592de1d-b2c9-4c87-9e77-d0efdf525b34" x1="230.341" y1="242.613" x2="227.387" y2="242.613"/>
  <line class="uuid-d592de1d-b2c9-4c87-9e77-d0efdf525b34" x1="219.788" y1="242.613" x2="217.931" y2="242.613"/>
  <line class="uuid-d592de1d-b2c9-4c87-9e77-d0efdf525b34" x1="219.788" y1="261.373" x2="219.788" y2="242.613"/>
  <path class="uuid-e6b0be00-99cb-4283-ba5f-f64f6772b273" d="M224.77,155.721c-3.955-10.895-11.137-12.263-10.453-29.24"/>
  <line class="uuid-d592de1d-b2c9-4c87-9e77-d0efdf525b34" x1="206.598" y1="163.244" x2="206.598" y2="148.317"/>
  <line class="uuid-d592de1d-b2c9-4c87-9e77-d0efdf525b34" x1="241.508" y1="147.832" x2="241.508" y2="163.244"/>
  <line class="uuid-4f9c2a4b-cf92-4162-b76b-335f1d626194" x1="251.961" y1="282.379" x2="242.483" y2="287.828"/>
  <line class="uuid-4f9c2a4b-cf92-4162-b76b-335f1d626194" x1="231.514" y1="294.179" x2="219.788" y2="300.945"/>
  <line class="uuid-4f9c2a4b-cf92-4162-b76b-335f1d626194" x1="249.64" y1="270.657" x2="241.847" y2="275.149"/>
  <line class="uuid-4f9c2a4b-cf92-4162-b76b-335f1d626194" x1="225.481" y1="284.601" x2="221.743" y2="286.754"/>
  <line class="uuid-4f9c2a4b-cf92-4162-b76b-335f1d626194" x1="210.557" y1="293.226" x2="202.834" y2="297.697"/>
  <line class="uuid-4f9c2a4b-cf92-4162-b76b-335f1d626194" x1="237.94" y1="264.376" x2="228.436" y2="269.873"/>
  <line class="uuid-4f9c2a4b-cf92-4162-b76b-335f1d626194" x1="225.481" y1="271.585" x2="221.743" y2="273.733"/>
  <line class="uuid-4f9c2a4b-cf92-4162-b76b-335f1d626194" x1="204.034" y1="283.969" x2="196.093" y2="288.561"/>
  <line class="uuid-4f9c2a4b-cf92-4162-b76b-335f1d626194" x1="249.397" y1="244.761" x2="241.726" y2="249.158"/>
  <line class="uuid-4f9c2a4b-cf92-4162-b76b-335f1d626194" x1="225.481" y1="258.537" x2="221.743" y2="260.689"/>
  <line class="uuid-4f9c2a4b-cf92-4162-b76b-335f1d626194" x1="217.445" y1="263.18" x2="208.236" y2="268.53"/>
  <line class="uuid-4f9c2a4b-cf92-4162-b76b-335f1d626194" x1="242.093" y1="235.92" x2="233.421" y2="240.927"/>
  <line class="uuid-4f9c2a4b-cf92-4162-b76b-335f1d626194" x1="225.481" y1="245.494" x2="221.743" y2="247.646"/>
  <line class="uuid-4f9c2a4b-cf92-4162-b76b-335f1d626194" x1="205.671" y1="256.951" x2="197.878" y2="261.443"/>
  <line class="uuid-4f9c2a4b-cf92-4162-b76b-335f1d626194" x1="225.993" y1="232.181" x2="208.993" y2="242.002"/>
  <line class="uuid-4f9c2a4b-cf92-4162-b76b-335f1d626194" x1="208.283" y1="242.391" x2="196.142" y2="249.401"/>
  <line class="uuid-4f9c2a4b-cf92-4162-b76b-335f1d626194" x1="242.141" y1="103.176" x2="232.321" y2="120.13"/>
  <line class="uuid-4f9c2a4b-cf92-4162-b76b-335f1d626194" x1="231.979" y1="98.146" x2="218.663" y2="121.179"/>
  <line class="uuid-4f9c2a4b-cf92-4162-b76b-335f1d626194" x1="219.204" y1="97.705" x2="207.772" y2="117.587"/>
  <line class="uuid-4f9c2a4b-cf92-4162-b76b-335f1d626194" x1="205.719" y1="348.997" x2="195.335" y2="354.981"/>
  <line class="uuid-4f9c2a4b-cf92-4162-b76b-335f1d626194" x1="183.318" y1="335.855" x2="165.949" y2="345.87"/>
  <line class="uuid-4f9c2a4b-cf92-4162-b76b-335f1d626194" x1="168.907" y1="318.117" x2="144.648" y2="332.139"/>
  <line class="uuid-4f9c2a4b-cf92-4162-b76b-335f1d626194" x1="165.78" y1="293.836" x2="132.092" y2="313.283"/>
  <line class="uuid-4f9c2a4b-cf92-4162-b76b-335f1d626194" x1="167.292" y1="266.892" x2="133.486" y2="286.412"/>
  <line class="uuid-4f9c2a4b-cf92-4162-b76b-335f1d626194" x1="170.176" y1="239.142" x2="141.499" y2="255.704"/>
  <line class="uuid-4f9c2a4b-cf92-4162-b76b-335f1d626194" x1="177.332" y1="208.972" x2="154.222" y2="222.288"/>
  <line class="uuid-4f9c2a4b-cf92-4162-b76b-335f1d626194" x1="217.614" y1="170.67" x2="217.614" y2="157.918"/>
  <line class="uuid-4f9c2a4b-cf92-4162-b76b-335f1d626194" x1="228.951" y1="170.99" x2="228.951" y2="158.285"/>
  <line class="uuid-4f9c2a4b-cf92-4162-b76b-335f1d626194" x1="212.68" y1="130.83" x2="202.422" y2="136.764"/>
</svg>