<?xml version="1.0" encoding="UTF-8"?>
<svg id="uuid-f08992b2-de0f-4870-896f-631baddf182b" data-name="&amp;lt;Layer&amp;gt;" xmlns="http://www.w3.org/2000/svg" viewBox="0 0 451.11 451.11">
  <defs>
    <style>
      .uuid-fc957cca-6f48-47ba-a8a8-5d98278b0459, .uuid-121ee607-53fc-4ab7-b0a1-452bece46fb3, .uuid-c6b2da6c-f88f-44d2-b9c7-cf97ed5c75f8 {
        fill: none;
        stroke: #000;
        stroke-linecap: round;
      }

      .uuid-fc957cca-6f48-47ba-a8a8-5d98278b0459, .uuid-c6b2da6c-f88f-44d2-b9c7-cf97ed5c75f8 {
        stroke-linejoin: round;
        stroke-width: 4.117px;
      }

      .uuid-121ee607-53fc-4ab7-b0a1-452bece46fb3 {
        stroke-miterlimit: 10;
        stroke-width: 1.163px;
      }

      .uuid-c6b2da6c-f88f-44d2-b9c7-cf97ed5c75f8 {
        fill-rule: evenodd;
      }
    </style>
  </defs>
  <path class="uuid-c6b2da6c-f88f-44d2-b9c7-cf97ed5c75f8" d="M242.466,123.523c-53.472,30.881-96.855,105.995-96.855,167.75s43.383,86.793,96.855,55.915c53.498-30.899,96.886-105.995,96.886-167.75s-43.387-86.788-96.886-55.915Z"/>
  <path class="uuid-c6b2da6c-f88f-44d2-b9c7-cf97ed5c75f8" d="M311.013,116.76c-37.765-21.815-58.017-40.87-107.214-9.625-80.151,50.93-124.609,190.536-63.54,227.546"/>
  <path class="uuid-c6b2da6c-f88f-44d2-b9c7-cf97ed5c75f8" d="M173.948,354.102c-54.866-34.785-20.203-133.257,14.339-180.183,25.038-33.979,77.484-80.832,122.726-57.159"/>
  <path class="uuid-c6b2da6c-f88f-44d2-b9c7-cf97ed5c75f8" d="M242.466,331.139c22.89-13.216,43.63-35.886,58.606-61.877,15.048-25.969,24.283-55.256,24.283-81.688s-9.235-44.995-24.283-53.668c-14.976-8.646-35.716-7.399-58.606,5.814-22.863,13.216-43.604,35.91-58.575,61.876-15.001,25.969-24.284,55.257-24.284,81.69s9.283,44.995,24.284,53.667c14.971,8.647,35.712,7.404,58.575-5.812Z"/>
  <path class="uuid-c6b2da6c-f88f-44d2-b9c7-cf97ed5c75f8" d="M292.984,130.436c.489.247,1.001.489,1.468.758,14.975,8.673,24.28,27.261,24.28,53.671s-9.305,55.695-24.28,81.712c-14.975,25.965-35.716,48.659-58.605,61.85-19.026,11.02-36.643,13.706-50.639,9.283"/>
  <polyline class="uuid-c6b2da6c-f88f-44d2-b9c7-cf97ed5c75f8" points="251.532 223.485 251.532 239.876 224.368 255.557"/>
  <path class="uuid-c6b2da6c-f88f-44d2-b9c7-cf97ed5c75f8" d="M224.368,255.557c0,4.691.047,8.114.095,10.236,0,4.029-.511,7.524-1.56,10.409-.979,2.881-2.884,6.277-5.742,10.185"/>
  <polyline class="uuid-c6b2da6c-f88f-44d2-b9c7-cf97ed5c75f8" points="217.16 286.387 277.718 251.429 277.718 269.41 195.786 316.701 195.786 299.213"/>
  <path class="uuid-c6b2da6c-f88f-44d2-b9c7-cf97ed5c75f8" d="M195.786,299.213c4.007-2.958,6.572-6.476,7.719-10.529,1.173-4.081,1.759-8.916,1.759-14.486"/>
  <polyline class="uuid-c6b2da6c-f88f-44d2-b9c7-cf97ed5c75f8" points="205.264 274.198 205.264 266.577 192.831 273.759 192.831 257.368 205.264 250.186 205.264 233.304"/>
  <path class="uuid-c6b2da6c-f88f-44d2-b9c7-cf97ed5c75f8" d="M205.264,233.304c0-10.894,1.101-19.887,3.249-26.848,2.2-6.983,5.787-13.066,10.92-18.22,4.982-5.156,12.187-10.409,21.543-15.829,7.135-4.128,12.947-6.965,17.345-8.551,4.423-1.563,8.014-1.831,10.751-.684,2.686,1.075,4.713,3.738,5.935,8.014,1.221,4.298,1.785,10.549,1.785,18.831"/>
  <path class="uuid-c6b2da6c-f88f-44d2-b9c7-cf97ed5c75f8" d="M258.151,200.79c0-5.008-.415-8.621-1.147-10.895-.832-2.244-2.274-3.37-4.47-3.37-2.152-.026-5.35,1.195-9.526,3.612"/>
  <path class="uuid-c6b2da6c-f88f-44d2-b9c7-cf97ed5c75f8" d="M240.976,191.312c-4.639,2.689-8.135,5.228-10.527,7.597-2.249,2.344-3.881,5.13-4.765,8.356-.853,3.175-1.316,7.498-1.316,12.87"/>
  <polyline class="uuid-c6b2da6c-f88f-44d2-b9c7-cf97ed5c75f8" points="224.368 220.136 224.368 239.17 251.532 223.485"/>
  <line class="uuid-fc957cca-6f48-47ba-a8a8-5d98278b0459" x1="140.26" y1="334.682" x2="173.948" y2="354.102"/>
  <line class="uuid-fc957cca-6f48-47ba-a8a8-5d98278b0459" x1="276.791" y1="190.017" x2="258.151" y2="200.79"/>
  <line class="uuid-fc957cca-6f48-47ba-a8a8-5d98278b0459" x1="249.21" y1="90.96" x2="282.774" y2="110.359"/>
  <line class="uuid-fc957cca-6f48-47ba-a8a8-5d98278b0459" x1="226.148" y1="95.556" x2="260.005" y2="115.072"/>
  <line class="uuid-fc957cca-6f48-47ba-a8a8-5d98278b0459" x1="207.927" y1="106.447" x2="240.023" y2="124.965"/>
  <line class="uuid-fc957cca-6f48-47ba-a8a8-5d98278b0459" x1="189.874" y1="118.104" x2="222.804" y2="137.108"/>
  <line class="uuid-fc957cca-6f48-47ba-a8a8-5d98278b0459" x1="174.07" y1="132.074" x2="207.413" y2="151.299"/>
  <line class="uuid-fc957cca-6f48-47ba-a8a8-5d98278b0459" x1="161.881" y1="146.121" x2="195.028" y2="165.247"/>
  <line class="uuid-fc957cca-6f48-47ba-a8a8-5d98278b0459" x1="150.718" y1="160.803" x2="183.985" y2="180.002"/>
  <line class="uuid-fc957cca-6f48-47ba-a8a8-5d98278b0459" x1="140.625" y1="176.093" x2="173.948" y2="195.855"/>
  <line class="uuid-fc957cca-6f48-47ba-a8a8-5d98278b0459" x1="132.151" y1="192.291" x2="165.641" y2="211.637"/>
  <line class="uuid-fc957cca-6f48-47ba-a8a8-5d98278b0459" x1="124.821" y1="209.194" x2="158.337" y2="228.539"/>
  <line class="uuid-fc957cca-6f48-47ba-a8a8-5d98278b0459" x1="118.618" y1="227.76" x2="152.108" y2="247.084"/>
  <line class="uuid-fc957cca-6f48-47ba-a8a8-5d98278b0459" x1="114.196" y1="246.642" x2="147.806" y2="266.036"/>
  <line class="uuid-fc957cca-6f48-47ba-a8a8-5d98278b0459" x1="111.874" y1="266.968" x2="145.684" y2="286.46"/>
  <line class="uuid-fc957cca-6f48-47ba-a8a8-5d98278b0459" x1="112.804" y1="288.415" x2="146.417" y2="307.834"/>
  <line class="uuid-fc957cca-6f48-47ba-a8a8-5d98278b0459" x1="119.719" y1="311.815" x2="152.06" y2="330.502"/>
  <line class="uuid-121ee607-53fc-4ab7-b0a1-452bece46fb3" x1="335.271" y1="205.58" x2="319.538" y2="232.767"/>
  <line class="uuid-121ee607-53fc-4ab7-b0a1-452bece46fb3" x1="278.767" y1="303.415" x2="263.086" y2="330.554"/>
  <line class="uuid-121ee607-53fc-4ab7-b0a1-452bece46fb3" x1="335.977" y1="159.165" x2="326.451" y2="175.63"/>
  <line class="uuid-121ee607-53fc-4ab7-b0a1-452bece46fb3" x1="232.719" y1="337.979" x2="223.241" y2="354.345"/>
  <line class="uuid-121ee607-53fc-4ab7-b0a1-452bece46fb3" x1="325.451" y1="132.247" x2="316.873" y2="147.049"/>
  <line class="uuid-121ee607-53fc-4ab7-b0a1-452bece46fb3" x1="203.163" y1="343.987" x2="194.686" y2="358.671"/>
  <line class="uuid-121ee607-53fc-4ab7-b0a1-452bece46fb3" x1="308.153" y1="117.025" x2="299.802" y2="131.463"/>
  <line class="uuid-121ee607-53fc-4ab7-b0a1-452bece46fb3" x1="181.153" y1="337.004" x2="172.849" y2="351.39"/>
  <line class="uuid-121ee607-53fc-4ab7-b0a1-452bece46fb3" x1="285.048" y1="111.875" x2="276.397" y2="126.872"/>
  <line class="uuid-121ee607-53fc-4ab7-b0a1-452bece46fb3" x1="165.471" y1="319.023" x2="156.873" y2="333.899"/>
  <line class="uuid-121ee607-53fc-4ab7-b0a1-452bece46fb3" x1="254.781" y1="119.177" x2="244.74" y2="136.519"/>
  <line class="uuid-121ee607-53fc-4ab7-b0a1-452bece46fb3" x1="157.972" y1="286.776" x2="148.053" y2="304"/>
  <line class="uuid-121ee607-53fc-4ab7-b0a1-452bece46fb3" x1="211.42" y1="149.149" x2="153.233" y2="249.939"/>
  <line class="uuid-121ee607-53fc-4ab7-b0a1-452bece46fb3" x1="270.341" y1="257.658" x2="258.104" y2="278.837"/>
  <line class="uuid-121ee607-53fc-4ab7-b0a1-452bece46fb3" x1="250.774" y1="268.947" x2="238.537" y2="290.147"/>
  <line class="uuid-121ee607-53fc-4ab7-b0a1-452bece46fb3" x1="231.255" y1="280.231" x2="219.017" y2="301.41"/>
  <line class="uuid-121ee607-53fc-4ab7-b0a1-452bece46fb3" x1="274.834" y1="182.224" x2="268.898" y2="192.46"/>
  <line class="uuid-121ee607-53fc-4ab7-b0a1-452bece46fb3" x1="248.989" y1="226.954" x2="238.19" y2="245.642"/>
  <line class="uuid-121ee607-53fc-4ab7-b0a1-452bece46fb3" x1="221.923" y1="273.781" x2="199.157" y2="313.283"/>
  <line class="uuid-121ee607-53fc-4ab7-b0a1-452bece46fb3" x1="271.098" y1="166.053" x2="257.982" y2="188.674"/>
  <line class="uuid-121ee607-53fc-4ab7-b0a1-452bece46fb3" x1="229.813" y1="237.529" x2="206.585" y2="277.715"/>
  <line class="uuid-121ee607-53fc-4ab7-b0a1-452bece46fb3" x1="258.393" y1="165.494" x2="246.083" y2="186.742"/>
  <line class="uuid-121ee607-53fc-4ab7-b0a1-452bece46fb3" x1="223.146" y1="226.491" x2="198.645" y2="269.02"/>
  <line class="uuid-121ee607-53fc-4ab7-b0a1-452bece46fb3" x1="240.564" y1="173.799" x2="206.29" y2="233.131"/>
  <line class="uuid-121ee607-53fc-4ab7-b0a1-452bece46fb3" x1="323.423" y1="190.116" x2="320.248" y2="195.661"/>
  <line class="uuid-121ee607-53fc-4ab7-b0a1-452bece46fb3" x1="245.913" y1="324.395" x2="243.761" y2="328.085"/>
  <line class="uuid-121ee607-53fc-4ab7-b0a1-452bece46fb3" x1="317.341" y1="155.575" x2="316.583" y2="156.891"/>
</svg>