<?xml version="1.0" encoding="UTF-8"?>
<svg id="uuid-0a1b569e-a9a4-4423-a978-12cecd0a7dfa" data-name="&amp;lt;Layer&amp;gt;" xmlns="http://www.w3.org/2000/svg" viewBox="0 0 451.11 451.11">
  <defs>
    <style>
      .uuid-a70a7bce-efe9-4cc3-880c-7323fe14effb {
        stroke-miterlimit: 10;
        stroke-width: 1.163px;
      }

      .uuid-a70a7bce-efe9-4cc3-880c-7323fe14effb, .uuid-1d98d6a3-f8f5-4ded-a65f-f437f8e60397 {
        fill: none;
        stroke: #000;
        stroke-linecap: round;
      }

      .uuid-1d98d6a3-f8f5-4ded-a65f-f437f8e60397 {
        fill-rule: evenodd;
        stroke-linejoin: round;
        stroke-width: 4.117px;
      }
    </style>
  </defs>
  <path class="uuid-1d98d6a3-f8f5-4ded-a65f-f437f8e60397" d="M199.2,202.413c2.048-3.64.073-7.426-.465-8.989,1.686,2.495,2.98,6.081,7.109,7.208-2.274,0-4.206.221-6.229,1.781-.173.147-.343.319-.589.515l-.047.073c-.174.17-.343.343-.585.537v.048-.048c.169-.147.243-.343.341-.489v-.026l.07-.022c.174-.221.295-.389.395-.588h0ZM236.011,199.411c-3.006,2.612-6.376,3.59-6.546,9.282-.073-.243-.073-.463-.073-.71-.391-2.76.658-4.444-2.833-5.276-.173-.047-.389-.073-.589-.095-.342,0-.754-.074-1.148-.122,7.304-.54,8.357-1.589,11.189-3.079h0ZM324.415,335.546c27.066-15.633,49.006-53.641,49.006-84.933,0-16.587-6.159-27.946-16.028-32.637l-.048-.026c-8.72-4.102-20.276-3.006-32.93,4.324-27.113,15.637-49.075,53.693-49.075,84.987,0,14.143,4.47,24.453,11.895,30.097.247.195.537.391.832.585,8.941,6.251,21.888,5.934,36.348-2.396h0ZM90.37,231.214c-6.328-4.739-8.989-9.867-11.137-17.414-2.737-12.069-1.564-22.574,1.39-34.494,4.472-15.56,10.869-27.993,20.668-40.892,9.231-11.48,19.177-20.594,32.878-26.529,8.941-3.301,16.539-4.47,25.48-.636M159.65,111.249l18.419,10.625v.048M123.545,246.263c-5.571.048-10.505-1.442-14.582-4.35-7.892-5.471-12.705-16.022-12.705-30.656,0-31.246,21.936-69.352,49.053-84.961,12.602-7.256,24.06-8.429,32.758-4.374,7.378,3.37,12.775,10.531,15.045,20.789M122.201,227.454l-4.861-2.786M117.34,224.669c-3.664-2.737-5.349-5.18-7.034-9.356-2.908-8.014-2.565-15.318-1.053-23.647,3.076-14.265,9.478-26.408,18.93-37.446,6.913-7.601,14.169-13.584,24.112-16.736,5.032-1.197,8.698-1.439,13.631.199M165.927,137.682l1.296.511,6.546,3.837M173.768,142.03c.927.463,1.857.854,2.663,1.343M165.463,211.648c-.048.073-.048.121-.1.173M164.705,293.948v-.074M153.052,271.89v-.489M252.697,255.031l8.942,13.874M261.639,268.906c0,.052-.052.174-.052.247-2.734,8.305-4.202,15.781-4.765,24.453M256.822,293.605v1.318M256.822,294.923c-.07,5.108.273,10.115,1.494,14.828M258.316,309.751l-.052.051v.17M258.264,309.972c.294,2.565-7.719,11.726-16.782,9.187-1.27,1.902-.463,6.373-10.796,6.031M230.686,325.19v.052M230.686,325.242c.413,1.901-2.152,3.712-6.693,3.664M223.994,328.906l-21.645-2.906M202.349,326c-1.512-.174-2.734-.688-3.955-1.69M198.394,324.31l-18.813-14.875M180.17,309.434l-3.249-8.283-1.295-8.598M175.625,292.554c-.415-2.687-1.685-4.887-3.764-6.62-3.149-2.491-4.713-3.712-8.135-3.834M163.727,282.1l.345-10.283M164.072,271.817c.122-3.128-1.442-7.135-3.959-9.115M160.113,262.703l-2.958-2.343M157.155,260.36c-1.266-.98-2.318-1.491-3.66-2.175M153.494,258.184l.243-8.257M153.737,249.928c.121-3.249-1.101-6.107-3.544-8.183M150.194,241.745l-2.954-2.613-2.737-1.221v-4.474l-.122-1.342M144.38,232.094c-.169-2.028-.806-3.786-2.075-5.398-1.468-1.979-2.515-2.958-4.47-3.833M137.834,222.863l-2.27-1.053M135.564,221.81c-1.737-.806-3.837-1.049-5.765-.854-2.201.17-3.716.559-4.692,1.686-.978-1.343-1.809-2.811-2.443-4.424v-.073c-.463-1.101-.854-2.248-1.221-3.544-2.322-10.332-.463-20.031,3.028-29.825,3.422-8.941,7.502-15.976,13.459-23.4,6.866-8.014,16.1-12.974,26.484-15.759,3.834-1.023,7.914-1.781,12.017-2.244,5.423-.589,11.042-.758,16.682-.662,19.155.588,38.674,5.058,53.013,9.651,5.176,1.637,9.015,5.008,11.259,9.869M257.385,162.231l7.16,15.39M264.545,177.621c.927,2.1,1.512,4.176,1.685,6.328M266.23,183.949l-22.474-19.739M243.756,164.21c-.758-.685-1.689-1.223-2.737-1.101M241.019,163.11l-46.684,7.256M194.335,170.365c-.632.121-1.221.295-1.807.537-2.027.78-3.664,2.369-4.886,4.276M187.642,175.178l-8.941,14.117-.048.052-4.081,6.398M174.061,195.673c-.632-.048-1.099.247-1.563.71-4.298,4.47-6.914,9.452-9.283,14.801M163.215,211.184l2.148.417M165.363,211.6c-.074.048-.074.121,0,.221,0,.169.052.415.173.636.343,1.001,1.049,1.634,2.027,1.976M167.563,214.433l3.934,1.223,6.57,1.979M178.068,217.635c4.47,1.39,8.941-.589,11.969-4.177M190.037,213.458l8.768-10.457M205.844,200.632h.048l18.93,1.857M229.465,208.693l.343,10.579M229.808,219.271c.365,8.868,3.592,16.413,9.869,22.694M239.677,241.966l13.02,13.066M140.962,249.001l-.858-1.637M266.23,183.949l5.689,5.056M271.919,189.005c21.545,18.93,15.148,20.958,29.854,25.16M241.482,319.159c-9.478-.321-18.687-2.641-26.601-9.161-6.84-5.645-19.151-19.277-22.231-22.89M258.216,309.998c-8.598-.126-17.539,0-25.454-6.914-7.134-6.229-25.773-23.304-29.533-27.407M219.425,263.755c2.906,3.76,18.565,17.881,26.771,24.916,3.175,2.782,6.791,4.761,10.625,6.251M230.686,325.242c-8.893-.906-20.324-2.715-27.191-8.772-5.786-5.082-15.681-14.387-18.856-17.929M357.345,217.95c-.073-.022-.121-.047-.121-.073M357.225,217.877l-18.419-10.649M338.806,207.229c-6.546-2.786-11.433-2.836-18.398-1.564-7.204,1.807-13.068,4.662-18.635,8.501-2.812,1.832-5.475,3.933-8.209,6.254-1.442,1.223-3.249,2.956-4.64,4.298-6.085,6.108-11.604,13.242-16.271,20.911-4.521,7.429-8.281,15.342-11.015,23.278M258.316,309.751c1.707,6.718,5.007,12.826,11.211,17.466M269.526,327.217l18.541,10.751v-.026M132.022,255.667c-.122-4.224-.465-7.767-.243-10.505M179.58,309.434l-13.776-.389M165.805,309.045c-2.2-.122-4.054-.88-5.692-2.322M160.113,306.723l-2.248-2.028M157.865,304.695c-1.927-1.759-2.906-3.959-2.906-6.572M154.959,298.124v-5.349M154.959,292.775v-.291M153.737,292.141c-1.855-.515-3.297-1.442-4.518-2.958M149.219,289.183l-4.007-4.886M145.212,284.297c-1.295-1.564-1.931-3.249-1.979-5.276M143.232,279.021l-.122-3.886-1.442-.533M141.668,274.601c-2.222-.809-3.834-2.152-5.056-4.106M136.613,270.496l-2.491-4.202M134.122,266.294c-1.711-2.785-2.395-5.571-2.222-8.82M131.9,257.474l.122-1.807M132.022,255.667c-3.959-1.858-7.083-5.154-8.477-9.404-.586-1.612-.88-3.371-.806-5.276M122.738,240.987l.096-4.348.463-8.551.076-.633M123.374,227.454c.221-2.369.754-3.837,1.733-4.812M125.155,226.623l6.229,4.812-.706,10.747M130.678,242.182c0,.269-.343.343-.636.343-.243.026-.806-.511-.976-.684M129.066,241.841l-2.568-2.565M126.499,239.276c-.758-.78-1.634-1.685-1.634-2.808M124.864,236.469l.291-9.845M133.754,243.183l7.208,4.791-.048,9.257M140.914,257.231c0,.221-.078.441-.247.585-.169.147-.343.247-.563.247M139.225,258.038c-1.464-.022-2.685-.585-3.661-1.663M135.564,256.375l-.636-.755M134.928,255.619c-.806-.931-1.222-1.979-1.173-3.223M133.754,252.396v-9.213M145.848,263.24l7.131,5.471-.048,8.577M152.931,277.288c0,.221-.074.411-.243.584-.172.148-.343.221-.585.221M151.246,278.093c-1.465-.025-2.687-.584-3.592-1.663M147.655,276.43l-.71-.754M146.945,275.676c-.828-.931-1.169-2.005-1.169-3.227M145.775,272.449l.073-9.209M157.696,286.472l7.13,5.18-.632,7.425M164.194,299.076c0,.417-.343.733-.81.733M162.461,299.81c-1.468,0-2.689-.585-3.617-1.66M158.843,298.15l-.048-.048M158.795,298.102c-.809-.931-1.099-3.448-1.099-4.643M157.696,293.459v-6.987M132.022,255.667c-.122-4.224-.465-7.767-.243-10.505.289-2.954,1.169-5.128,3.833-6.276,1.929-.806,4.761-1.149,8.89-.976M170.102,212.579l-4.639-.931-.1-.048-2.148-.417M174.061,195.673l.511.073,5.13.585M179.702,196.331c.515.052.931.295,1.221.736,1.663,2.733-8.89,13.36-10.821,15.512M143.11,275.135c-.341-8.716-2.737-17.539,10.384-16.951M154.885,292.775c-.169-8.283,2.812-10.699,8.599-10.675-8.014.511-8.062,3.908-8.599,10.675h0ZM108.963,241.914v.052l-11.778-6.839-6.814-3.912"/>
  <line class="uuid-a70a7bce-efe9-4cc3-880c-7323fe14effb" x1="98.969" y1="232.704" x2="87.759" y2="226.255"/>
  <line class="uuid-a70a7bce-efe9-4cc3-880c-7323fe14effb" x1="94.963" y1="217.388" x2="79.939" y2="208.715"/>
  <line class="uuid-a70a7bce-efe9-4cc3-880c-7323fe14effb" x1="95.087" y1="204.418" x2="79.476" y2="195.382"/>
  <line class="uuid-a70a7bce-efe9-4cc3-880c-7323fe14effb" x1="97.112" y1="192.544" x2="81.257" y2="183.387"/>
  <line class="uuid-a70a7bce-efe9-4cc3-880c-7323fe14effb" x1="100.433" y1="181.456" x2="84.458" y2="172.22"/>
  <line class="uuid-a70a7bce-efe9-4cc3-880c-7323fe14effb" x1="104.834" y1="170.929" x2="88.759" y2="161.645"/>
  <line class="uuid-a70a7bce-efe9-4cc3-880c-7323fe14effb" x1="110.132" y1="160.961" x2="94.108" y2="151.678"/>
  <line class="uuid-a70a7bce-efe9-4cc3-880c-7323fe14effb" x1="116.337" y1="151.53" x2="100.313" y2="142.248"/>
  <line class="uuid-a70a7bce-efe9-4cc3-880c-7323fe14effb" x1="123.47" y1="142.616" x2="107.569" y2="133.406"/>
  <line class="uuid-a70a7bce-efe9-4cc3-880c-7323fe14effb" x1="131.779" y1="134.333" x2="115.872" y2="125.172"/>
  <line class="uuid-a70a7bce-efe9-4cc3-880c-7323fe14effb" x1="141.426" y1="126.882" x2="125.865" y2="117.92"/>
  <line class="uuid-a70a7bce-efe9-4cc3-880c-7323fe14effb" x1="153.321" y1="120.727" x2="138.519" y2="112.176"/>
  <line class="uuid-a70a7bce-efe9-4cc3-880c-7323fe14effb" x1="117.093" y1="244.405" x2="97.7" y2="210.768"/>
  <line class="uuid-a70a7bce-efe9-4cc3-880c-7323fe14effb" x1="109.033" y1="185.194" x2="105.078" y2="178.427"/>
  <line class="uuid-a70a7bce-efe9-4cc3-880c-7323fe14effb" x1="120.858" y1="160.593" x2="117.731" y2="155.196"/>
  <line class="uuid-a70a7bce-efe9-4cc3-880c-7323fe14effb" x1="137.003" y1="143.47" x2="133.464" y2="137.24"/>
  <line class="uuid-a70a7bce-efe9-4cc3-880c-7323fe14effb" x1="158.159" y1="134.822" x2="152.295" y2="124.682"/>
  <line class="uuid-a70a7bce-efe9-4cc3-880c-7323fe14effb" x1="187.937" y1="141.272" x2="177.727" y2="123.608"/>
  <line class="uuid-a70a7bce-efe9-4cc3-880c-7323fe14effb" x1="285.918" y1="225.523" x2="246.758" y2="248.121"/>
  <line class="uuid-a70a7bce-efe9-4cc3-880c-7323fe14effb" x1="283.77" y1="200.68" x2="232.251" y2="230.434"/>
  <line class="uuid-a70a7bce-efe9-4cc3-880c-7323fe14effb" x1="265.935" y1="184.899" x2="234.274" y2="203.196"/>
  <line class="uuid-a70a7bce-efe9-4cc3-880c-7323fe14effb" x1="248.569" y1="168.875" x2="200.884" y2="196.383"/>
  <line class="uuid-a70a7bce-efe9-4cc3-880c-7323fe14effb" x1="198.905" y1="197.53" x2="172.254" y2="212.896"/>
  <line class="uuid-a70a7bce-efe9-4cc3-880c-7323fe14effb" x1="198.636" y1="171.635" x2="188.474" y2="177.499"/>
  <line class="uuid-a70a7bce-efe9-4cc3-880c-7323fe14effb" x1="278.004" y1="328.563" x2="266.741" y2="322.063"/>
  <line class="uuid-a70a7bce-efe9-4cc3-880c-7323fe14effb" x1="274.071" y1="313.269" x2="258.974" y2="304.549"/>
  <line class="uuid-a70a7bce-efe9-4cc3-880c-7323fe14effb" x1="274.24" y1="300.299" x2="258.558" y2="291.262"/>
  <line class="uuid-a70a7bce-efe9-4cc3-880c-7323fe14effb" x1="276.267" y1="288.425" x2="260.365" y2="279.264"/>
  <line class="uuid-a70a7bce-efe9-4cc3-880c-7323fe14effb" x1="279.59" y1="277.336" x2="263.492" y2="268.053"/>
  <line class="uuid-a70a7bce-efe9-4cc3-880c-7323fe14effb" x1="283.986" y1="266.832" x2="267.914" y2="257.526"/>
  <line class="uuid-a70a7bce-efe9-4cc3-880c-7323fe14effb" x1="289.337" y1="256.864" x2="273.191" y2="247.559"/>
  <line class="uuid-a70a7bce-efe9-4cc3-880c-7323fe14effb" x1="295.544" y1="247.437" x2="279.395" y2="238.129"/>
  <line class="uuid-a70a7bce-efe9-4cc3-880c-7323fe14effb" x1="302.699" y1="238.522" x2="286.676" y2="229.261"/>
  <line class="uuid-a70a7bce-efe9-4cc3-880c-7323fe14effb" x1="310.93" y1="230.262" x2="295.076" y2="221.104"/>
  <line class="uuid-a70a7bce-efe9-4cc3-880c-7323fe14effb" x1="320.629" y1="222.815" x2="305.07" y2="213.822"/>
  <line class="uuid-a70a7bce-efe9-4cc3-880c-7323fe14effb" x1="332.551" y1="216.656" x2="317.723" y2="208.109"/>
  <line class="uuid-a70a7bce-efe9-4cc3-880c-7323fe14effb" x1="296.25" y1="340.359" x2="276.782" y2="306.697"/>
  <line class="uuid-a70a7bce-efe9-4cc3-880c-7323fe14effb" x1="320.923" y1="337.894" x2="283.134" y2="272.449"/>
  <line class="uuid-a70a7bce-efe9-4cc3-880c-7323fe14effb" x1="339.563" y1="325.094" x2="295.544" y2="248.854"/>
  <line class="uuid-a70a7bce-efe9-4cc3-880c-7323fe14effb" x1="354.95" y1="306.55" x2="311.273" y2="230.921"/>
  <line class="uuid-a70a7bce-efe9-4cc3-880c-7323fe14effb" x1="366.92" y1="282.122" x2="330.449" y2="218.878"/>
  <line class="uuid-a70a7bce-efe9-4cc3-880c-7323fe14effb" x1="371.562" y1="245.016" x2="356.687" y2="219.294"/>
  <line class="uuid-a70a7bce-efe9-4cc3-880c-7323fe14effb" x1="169.422" y1="286.398" x2="164.705" y2="289.157"/>
  <line class="uuid-a70a7bce-efe9-4cc3-880c-7323fe14effb" x1="159.892" y1="265.073" x2="154.788" y2="268.031"/>
  <line class="uuid-a70a7bce-efe9-4cc3-880c-7323fe14effb" x1="151.415" y1="246.189" x2="142.769" y2="251.175"/>
</svg>