<?xml version="1.0" encoding="UTF-8"?>
<svg id="uuid-598940bc-7f07-463f-adcf-db56385e5dbc" data-name="&amp;lt;Layer&amp;gt;" xmlns="http://www.w3.org/2000/svg" viewBox="0 0 451.11 451.11">
  <defs>
    <style>
      .uuid-14bbdd34-e26a-4a44-9a55-1a21061c6fab, .uuid-54494342-9f0d-45ab-8aff-385a07531ad4, .uuid-5eeea030-240b-46b9-98c0-28ba206ffac1 {
        fill: none;
        stroke: #000;
        stroke-linecap: round;
      }

      .uuid-14bbdd34-e26a-4a44-9a55-1a21061c6fab, .uuid-5eeea030-240b-46b9-98c0-28ba206ffac1 {
        stroke-linejoin: round;
        stroke-width: 4.113px;
      }

      .uuid-54494342-9f0d-45ab-8aff-385a07531ad4 {
        stroke-miterlimit: 10;
        stroke-width: 1.163px;
      }

      .uuid-5eeea030-240b-46b9-98c0-28ba206ffac1 {
        fill-rule: evenodd;
      }
    </style>
  </defs>
  <polyline class="uuid-5eeea030-240b-46b9-98c0-28ba206ffac1" points="289.891 285.96 160.84 360.394 160.84 360.342"/>
  <path class="uuid-5eeea030-240b-46b9-98c0-28ba206ffac1" d="M160.84,360.342c-.269-.217-.588-.511-.809-.754-1.733-1.686-1.903-2.954-2.149-5.692"/>
  <polyline class="uuid-5eeea030-240b-46b9-98c0-28ba206ffac1" points="264.805 122.316 264.805 146.869 277.116 154.025 277.164 121.047"/>
  <path class="uuid-5eeea030-240b-46b9-98c0-28ba206ffac1" d="M277.164,121.047c-.391-2.348-1.097-4.544-1.977-6.692-.221-.684-.588-1.395-.931-2.076-.291-.71-.632-1.346-1.049-2.053-.684-1.272-1.49-2.542-2.369-3.764-.173-.243-.295-.412-.415-.584"/>
  <polyline class="uuid-5eeea030-240b-46b9-98c0-28ba206ffac1" points="277.164 121.047 277.116 154.025 295.12 143.616"/>
  <path class="uuid-5eeea030-240b-46b9-98c0-28ba206ffac1" d="M295.12,143.616c1.663-.928,3.249-1.855,4.569-2.785,5.693-3.834,7.573-7.669.291-13.286"/>
  <path class="uuid-5eeea030-240b-46b9-98c0-28ba206ffac1" d="M227.282,96.888c10.457-5.888,16.27-8.868,28.63-2.958,9.993,4.79,18.982,14.805,21.204,27.065"/>
  <path class="uuid-5eeea030-240b-46b9-98c0-28ba206ffac1" d="M238.156,173.956c2.587-4.47,4.176-9.5,4.176-14.044,0-4.569-1.589-7.745-4.176-9.235-2.565-1.49-6.181-1.27-10.067,1.001-3.929,2.274-7.547,6.16-10.088,10.653-2.565,4.444-4.177,9.504-4.177,14.047s1.612,7.741,4.177,9.233c5.57,3.201,14.558-2.003,20.155-11.653Z"/>
  <path class="uuid-5eeea030-240b-46b9-98c0-28ba206ffac1" d="M246.801,185.439c-10.332-5.934-27.065,3.712-37.401,21.595-4.346,7.571-7.204,16.048-7.667,23.89"/>
  <line class="uuid-14bbdd34-e26a-4a44-9a55-1a21061c6fab" x1="299.689" y1="140.831" x2="299.638" y2="269.104"/>
  <path class="uuid-5eeea030-240b-46b9-98c0-28ba206ffac1" d="M299.638,269.104c0,6.229-4.42,13.776-9.747,16.856"/>
  <line class="uuid-14bbdd34-e26a-4a44-9a55-1a21061c6fab" x1="157.882" y1="353.896" x2="158.004" y2="161.744"/>
  <path class="uuid-5eeea030-240b-46b9-98c0-28ba206ffac1" d="M158.004,161.744c.295-6.961,4.128-13.654,9.993-17.37"/>
  <line class="uuid-14bbdd34-e26a-4a44-9a55-1a21061c6fab" x1="167.997" y1="144.374" x2="234.955" y2="105.707"/>
  <path class="uuid-5eeea030-240b-46b9-98c0-28ba206ffac1" d="M234.955,105.707c17.414-8.819,30.119,5.398,29.85,16.609"/>
  <line class="uuid-14bbdd34-e26a-4a44-9a55-1a21061c6fab" x1="299.979" y1="127.544" x2="266.663" y2="101.575"/>
  <line class="uuid-14bbdd34-e26a-4a44-9a55-1a21061c6fab" x1="160.84" y1="360.394" x2="149.357" y2="353.77"/>
  <path class="uuid-5eeea030-240b-46b9-98c0-28ba206ffac1" d="M149.357,353.77c-2.491-2.075-2.66-3.345-2.98-6.494"/>
  <line class="uuid-14bbdd34-e26a-4a44-9a55-1a21061c6fab" x1="146.377" y1="347.276" x2="146.451" y2="155.1"/>
  <path class="uuid-5eeea030-240b-46b9-98c0-28ba206ffac1" d="M146.451,155.1c.343-6.94,4.176-13.633,10.041-17.367"/>
  <line class="uuid-14bbdd34-e26a-4a44-9a55-1a21061c6fab" x1="156.492" y1="137.732" x2="227.282" y2="96.888"/>
  <line class="uuid-14bbdd34-e26a-4a44-9a55-1a21061c6fab" x1="277.411" y1="216.265" x2="180.065" y2="272.453"/>
  <line class="uuid-14bbdd34-e26a-4a44-9a55-1a21061c6fab" x1="266.663" y1="264.391" x2="190.886" y2="308.165"/>
  <line class="uuid-14bbdd34-e26a-4a44-9a55-1a21061c6fab" x1="277.411" y1="236.615" x2="180.065" y2="292.799"/>
  <line class="uuid-14bbdd34-e26a-4a44-9a55-1a21061c6fab" x1="201.734" y1="230.924" x2="254.473" y2="200.488"/>
  <path class="uuid-5eeea030-240b-46b9-98c0-28ba206ffac1" d="M254.473,200.488c-.463-7.33-3.325-12.51-7.671-15.049"/>
  <line class="uuid-54494342-9f0d-45ab-8aff-385a07531ad4" x1="249.172" y1="189.199" x2="238.372" y2="207.839"/>
  <line class="uuid-54494342-9f0d-45ab-8aff-385a07531ad4" x1="238.667" y1="184.781" x2="218.514" y2="219.661"/>
  <line class="uuid-54494342-9f0d-45ab-8aff-385a07531ad4" x1="217.194" y1="199.387" x2="206.667" y2="217.659"/>
  <line class="uuid-54494342-9f0d-45ab-8aff-385a07531ad4" x1="156.149" y1="334.329" x2="148.257" y2="329.784"/>
  <line class="uuid-54494342-9f0d-45ab-8aff-385a07531ad4" x1="156.149" y1="308.286" x2="148.309" y2="303.745"/>
  <line class="uuid-54494342-9f0d-45ab-8aff-385a07531ad4" x1="156.149" y1="282.2" x2="148.309" y2="277.655"/>
  <line class="uuid-54494342-9f0d-45ab-8aff-385a07531ad4" x1="156.197" y1="256.157" x2="148.309" y2="251.616"/>
  <line class="uuid-54494342-9f0d-45ab-8aff-385a07531ad4" x1="156.197" y1="230.069" x2="148.309" y2="225.526"/>
  <line class="uuid-54494342-9f0d-45ab-8aff-385a07531ad4" x1="156.197" y1="204.006" x2="148.309" y2="199.435"/>
  <line class="uuid-54494342-9f0d-45ab-8aff-385a07531ad4" x1="156.197" y1="177.94" x2="148.309" y2="173.396"/>
  <line class="uuid-54494342-9f0d-45ab-8aff-385a07531ad4" x1="158.345" y1="153.12" x2="149.92" y2="148.233"/>
  <line class="uuid-54494342-9f0d-45ab-8aff-385a07531ad4" x1="176.401" y1="137.46" x2="168.509" y2="132.917"/>
  <line class="uuid-54494342-9f0d-45ab-8aff-385a07531ad4" x1="198.996" y1="124.417" x2="191.103" y2="119.873"/>
  <line class="uuid-54494342-9f0d-45ab-8aff-385a07531ad4" x1="275.431" y1="142.493" x2="266.612" y2="137.412"/>
  <line class="uuid-54494342-9f0d-45ab-8aff-385a07531ad4" x1="221.542" y1="111.396" x2="213.702" y2="106.83"/>
  <line class="uuid-54494342-9f0d-45ab-8aff-385a07531ad4" x1="273.793" y1="115.476" x2="261.261" y2="108.22"/>
  <line class="uuid-54494342-9f0d-45ab-8aff-385a07531ad4" x1="249.513" y1="101.431" x2="236.639" y2="94.003"/>
</svg>