<?xml version="1.0" encoding="UTF-8"?>
<svg id="uuid-aed5b148-67bf-438f-af68-6363a6e478e7" data-name="&amp;lt;Layer&amp;gt;" xmlns="http://www.w3.org/2000/svg" viewBox="0 0 451.11 451.11">
  <defs>
    <style>
      .uuid-dbb864aa-4171-4e1b-86f7-03535f4f26fc, .uuid-4e9c50f2-1508-4175-8423-4987092603b0, .uuid-cd5bedba-66c3-42d1-bc67-99ced0349105 {
        fill: none;
        stroke: #000;
        stroke-linecap: round;
      }

      .uuid-dbb864aa-4171-4e1b-86f7-03535f4f26fc, .uuid-cd5bedba-66c3-42d1-bc67-99ced0349105 {
        stroke-linejoin: round;
        stroke-width: 4.117px;
      }

      .uuid-4e9c50f2-1508-4175-8423-4987092603b0 {
        stroke-miterlimit: 10;
        stroke-width: 1.163px;
      }

      .uuid-cd5bedba-66c3-42d1-bc67-99ced0349105 {
        fill-rule: evenodd;
      }
    </style>
  </defs>
  <polyline class="uuid-cd5bedba-66c3-42d1-bc67-99ced0349105" points="266.705 92.738 273.372 88.903 274.889 86.265 291.669 95.964"/>
  <path class="uuid-cd5bedba-66c3-42d1-bc67-99ced0349105" d="M162.884,152.586l6.718-3.808,6.74-11.458M245.795,104.805l7.546-4.37,6.693-11.457,16.834,9.699M224.834,116.9l7.624-4.376,6.667-11.457M203.95,128.989l7.524-4.37,6.741-11.458M183.04,141.08l7.547-4.372,6.67-11.48"/>
  <polyline class="uuid-cd5bedba-66c3-42d1-bc67-99ced0349105" points="291.669 295.882 290.179 295.028 283.535 298.863 276.868 310.32 270.196 306.556 262.577 310.954 255.907 322.411 249.214 318.651 241.668 323.047 234.996 334.504 228.329 330.74 220.706 335.116 214.038 346.569 207.346 342.831 199.795 347.205 193.129 358.664 186.458 354.926 179.666 358.931 176.248 364.845"/>
  <path class="uuid-cd5bedba-66c3-42d1-bc67-99ced0349105" d="M176.248,160.357l3.418,1.927,6.793-3.808,6.67-11.457,6.666,3.76,7.551-4.37,6.692-11.483,6.668,3.763,7.623-4.374,6.667-11.457,6.672,3.738,7.547-4.372,6.693-11.458M255.907,110.744l6.67,3.76,7.619-4.37,6.672-11.457,6.667,3.76,6.645-3.834,1.49-2.638"/>
  <line class="uuid-dbb864aa-4171-4e1b-86f7-03535f4f26fc" x1="176.248" y1="364.845" x2="159.441" y2="355.147"/>
  <path class="uuid-cd5bedba-66c3-42d1-bc67-99ced0349105" d="M159.441,355.147v-204.488"/>
  <path class="uuid-cd5bedba-66c3-42d1-bc67-99ced0349105" d="M176.248,160.357v204.488"/>
  <path class="uuid-cd5bedba-66c3-42d1-bc67-99ced0349105" d="M291.669,95.964v199.918"/>
  <line class="uuid-dbb864aa-4171-4e1b-86f7-03535f4f26fc" x1="268.638" y1="148.8" x2="277.089" y2="143.892"/>
  <line class="uuid-dbb864aa-4171-4e1b-86f7-03535f4f26fc" x1="190.223" y1="255.991" x2="277.673" y2="205.525"/>
  <line class="uuid-dbb864aa-4171-4e1b-86f7-03535f4f26fc" x1="190.223" y1="235.912" x2="271.08" y2="189.254"/>
  <line class="uuid-dbb864aa-4171-4e1b-86f7-03535f4f26fc" x1="190.223" y1="277.316" x2="259.107" y2="237.572"/>
  <line class="uuid-dbb864aa-4171-4e1b-86f7-03535f4f26fc" x1="190.223" y1="325.148" x2="224.665" y2="305.286"/>
  <line class="uuid-dbb864aa-4171-4e1b-86f7-03535f4f26fc" x1="260.086" y1="284.84" x2="277.089" y2="275.021"/>
  <line class="uuid-dbb864aa-4171-4e1b-86f7-03535f4f26fc" x1="190.223" y1="175.843" x2="216.651" y2="160.6"/>
  <line class="uuid-dbb864aa-4171-4e1b-86f7-03535f4f26fc" x1="190.223" y1="194.041" x2="239.297" y2="165.706"/>
  <line class="uuid-dbb864aa-4171-4e1b-86f7-03535f4f26fc" x1="248.017" y1="142.474" x2="277.089" y2="125.693"/>
  <line class="uuid-dbb864aa-4171-4e1b-86f7-03535f4f26fc" x1="176.248" y1="160.357" x2="159.441" y2="150.658"/>
  <line class="uuid-dbb864aa-4171-4e1b-86f7-03535f4f26fc" x1="239.125" y1="101.067" x2="255.907" y2="110.744"/>
  <line class="uuid-dbb864aa-4171-4e1b-86f7-03535f4f26fc" x1="218.215" y1="113.162" x2="234.996" y2="122.856"/>
  <line class="uuid-dbb864aa-4171-4e1b-86f7-03535f4f26fc" x1="197.256" y1="125.229" x2="214.038" y2="134.925"/>
  <line class="uuid-dbb864aa-4171-4e1b-86f7-03535f4f26fc" x1="176.343" y1="137.32" x2="193.129" y2="147.019"/>
  <line class="uuid-4e9c50f2-1508-4175-8423-4987092603b0" x1="174.269" y1="360.838" x2="173.852" y2="361.059"/>
  <line class="uuid-4e9c50f2-1508-4175-8423-4987092603b0" x1="174.658" y1="347.574" x2="162.178" y2="354.778"/>
  <line class="uuid-4e9c50f2-1508-4175-8423-4987092603b0" x1="174.658" y1="334.504" x2="161.125" y2="342.346"/>
  <line class="uuid-4e9c50f2-1508-4175-8423-4987092603b0" x1="174.658" y1="321.483" x2="161.125" y2="329.324"/>
  <line class="uuid-4e9c50f2-1508-4175-8423-4987092603b0" x1="174.658" y1="308.441" x2="161.125" y2="316.281"/>
  <line class="uuid-4e9c50f2-1508-4175-8423-4987092603b0" x1="174.658" y1="295.419" x2="161.125" y2="303.234"/>
  <line class="uuid-4e9c50f2-1508-4175-8423-4987092603b0" x1="174.658" y1="282.375" x2="161.125" y2="290.191"/>
  <line class="uuid-4e9c50f2-1508-4175-8423-4987092603b0" x1="174.658" y1="269.328" x2="161.125" y2="277.169"/>
  <line class="uuid-4e9c50f2-1508-4175-8423-4987092603b0" x1="174.658" y1="256.31" x2="161.125" y2="264.126"/>
  <line class="uuid-4e9c50f2-1508-4175-8423-4987092603b0" x1="174.658" y1="243.264" x2="161.125" y2="251.104"/>
  <line class="uuid-4e9c50f2-1508-4175-8423-4987092603b0" x1="174.658" y1="230.221" x2="161.125" y2="238.062"/>
  <line class="uuid-4e9c50f2-1508-4175-8423-4987092603b0" x1="174.658" y1="217.177" x2="161.125" y2="225.018"/>
  <line class="uuid-4e9c50f2-1508-4175-8423-4987092603b0" x1="174.658" y1="204.155" x2="161.125" y2="211.997"/>
  <line class="uuid-4e9c50f2-1508-4175-8423-4987092603b0" x1="174.658" y1="191.134" x2="161.125" y2="198.953"/>
  <line class="uuid-4e9c50f2-1508-4175-8423-4987092603b0" x1="174.658" y1="178.092" x2="161.125" y2="185.905"/>
  <line class="uuid-4e9c50f2-1508-4175-8423-4987092603b0" x1="174.658" y1="165.048" x2="161.125" y2="172.863"/>
  <line class="uuid-4e9c50f2-1508-4175-8423-4987092603b0" x1="166.354" y1="156.813" x2="161.42" y2="159.672"/>
  <line class="uuid-4e9c50f2-1508-4175-8423-4987092603b0" x1="179.255" y1="159.916" x2="172.215" y2="147.751"/>
  <line class="uuid-4e9c50f2-1508-4175-8423-4987092603b0" x1="187.974" y1="152.439" x2="182.572" y2="143.06"/>
  <line class="uuid-4e9c50f2-1508-4175-8423-4987092603b0" x1="199.454" y1="148.435" x2="192.614" y2="136.588"/>
  <line class="uuid-4e9c50f2-1508-4175-8423-4987092603b0" x1="208.395" y1="141.327" x2="201.849" y2="129.968"/>
  <line class="uuid-4e9c50f2-1508-4175-8423-4987092603b0" x1="220.486" y1="136.393" x2="213.575" y2="124.471"/>
  <line class="uuid-4e9c50f2-1508-4175-8423-4987092603b0" x1="229.378" y1="129.236" x2="222.806" y2="117.901"/>
  <line class="uuid-4e9c50f2-1508-4175-8423-4987092603b0" x1="241.399" y1="124.299" x2="234.484" y2="112.378"/>
  <line class="uuid-4e9c50f2-1508-4175-8423-4987092603b0" x1="250.266" y1="117.169" x2="243.768" y2="105.806"/>
  <line class="uuid-4e9c50f2-1508-4175-8423-4987092603b0" x1="262.308" y1="112.231" x2="255.443" y2="100.309"/>
  <line class="uuid-4e9c50f2-1508-4175-8423-4987092603b0" x1="271.249" y1="105.074" x2="264.679" y2="93.738"/>
  <line class="uuid-4e9c50f2-1508-4175-8423-4987092603b0" x1="283.781" y1="100.387" x2="277.869" y2="90.099"/>
</svg>