<?xml version="1.0" encoding="UTF-8"?>
<svg id="uuid-ed795819-7996-415c-baed-f962222e525e" data-name="&amp;lt;Layer&amp;gt;" xmlns="http://www.w3.org/2000/svg" viewBox="0 0 451.11 451.11">
  <defs>
    <style>
      .uuid-e54a4a7f-1afb-4cc9-85bb-357b8923e3fe, .uuid-71c8d38c-a4ca-4387-bf33-69bd22282866, .uuid-366cead1-fe4b-4519-a6b4-c65ae1604f61 {
        fill: none;
        stroke: #000;
        stroke-linecap: round;
      }

      .uuid-e54a4a7f-1afb-4cc9-85bb-357b8923e3fe, .uuid-366cead1-fe4b-4519-a6b4-c65ae1604f61 {
        stroke-linejoin: round;
        stroke-width: 4.113px;
      }

      .uuid-71c8d38c-a4ca-4387-bf33-69bd22282866 {
        stroke-miterlimit: 10;
        stroke-width: 1.163px;
      }

      .uuid-366cead1-fe4b-4519-a6b4-c65ae1604f61 {
        fill-rule: evenodd;
      }
    </style>
  </defs>
  <polyline class="uuid-366cead1-fe4b-4519-a6b4-c65ae1604f61" points="306.535 258.843 317.039 264.95 166.317 351.986 134.071 333.347 144.576 327.312"/>
  <polygon class="uuid-366cead1-fe4b-4519-a6b4-c65ae1604f61" points="166.317 351.986 134.071 333.347 134.071 350.032 166.317 368.668 166.317 351.986"/>
  <polygon class="uuid-366cead1-fe4b-4519-a6b4-c65ae1604f61" points="317.039 264.924 166.317 351.986 166.317 368.668 317.039 281.633 317.039 264.924"/>
  <polyline class="uuid-366cead1-fe4b-4519-a6b4-c65ae1604f61" points="306.535 230.04 317.039 236.122 166.317 323.183 134.071 304.548 144.576 298.51"/>
  <polygon class="uuid-366cead1-fe4b-4519-a6b4-c65ae1604f61" points="166.317 323.161 134.071 304.522 134.071 321.229 166.317 339.869 166.317 323.161"/>
  <polygon class="uuid-366cead1-fe4b-4519-a6b4-c65ae1604f61" points="317.039 236.096 166.317 323.161 166.317 339.869 317.039 252.808 317.039 236.096"/>
  <polyline class="uuid-366cead1-fe4b-4519-a6b4-c65ae1604f61" points="144.576 269.711 134.071 275.745 166.317 294.312 292.118 221.685 292.118 221.685 317.039 207.272 303.844 199.601"/>
  <polygon class="uuid-366cead1-fe4b-4519-a6b4-c65ae1604f61" points="166.317 294.36 134.071 275.719 134.071 292.405 166.317 311.042 166.317 294.36"/>
  <polygon class="uuid-366cead1-fe4b-4519-a6b4-c65ae1604f61" points="317.039 207.298 166.317 294.36 166.317 311.042 317.039 223.981 317.039 207.298"/>
  <polyline class="uuid-366cead1-fe4b-4519-a6b4-c65ae1604f61" points="234.959 208.737 242.532 213.086 247.171 215.702 289.433 191.249 289.433 191.249 317.039 175.273 306.535 169.165"/>
  <polyline class="uuid-366cead1-fe4b-4519-a6b4-c65ae1604f61" points="234.959 225.397 247.171 232.358 247.171 215.702 242.532 213.086 234.959 208.737"/>
  <polygon class="uuid-366cead1-fe4b-4519-a6b4-c65ae1604f61" points="317.039 175.273 247.171 215.676 247.171 232.358 317.039 191.955 317.039 175.273"/>
  <polyline class="uuid-366cead1-fe4b-4519-a6b4-c65ae1604f61" points="306.535 140.362 317.039 146.471 292.118 160.883 247.171 186.826 239.843 182.65 239.843 182.65 235.202 179.864"/>
  <polyline class="uuid-366cead1-fe4b-4519-a6b4-c65ae1604f61" points="235.202 179.864 239.843 182.65 239.843 182.65 247.171 186.826 247.171 203.56 235.202 196.598"/>
  <polygon class="uuid-366cead1-fe4b-4519-a6b4-c65ae1604f61" points="317.039 146.449 247.171 186.852 247.171 203.534 317.039 163.157 317.039 146.449"/>
  <polygon class="uuid-366cead1-fe4b-4519-a6b4-c65ae1604f61" points="317.039 117.62 284.794 98.981 214.929 139.388 247.171 158.024 317.039 117.62"/>
  <polyline class="uuid-366cead1-fe4b-4519-a6b4-c65ae1604f61" points="214.929 153.336 214.929 139.388 247.171 158.024 247.171 174.71 235.202 167.775"/>
  <polygon class="uuid-366cead1-fe4b-4519-a6b4-c65ae1604f61" points="317.039 117.62 247.171 158.024 247.171 174.71 317.039 134.307 317.039 117.62"/>
  <polygon class="uuid-366cead1-fe4b-4519-a6b4-c65ae1604f61" points="235.202 165.012 202.713 146.371 134.071 186.046 166.317 204.682 235.202 165.012"/>
  <polygon class="uuid-366cead1-fe4b-4519-a6b4-c65ae1604f61" points="166.317 204.682 134.071 186.046 134.071 263.582 166.317 282.217 166.317 204.682"/>
  <polygon class="uuid-366cead1-fe4b-4519-a6b4-c65ae1604f61" points="235.202 165.012 166.317 204.682 166.317 282.217 234.959 242.546 235.202 165.012"/>
  <polyline class="uuid-366cead1-fe4b-4519-a6b4-c65ae1604f61" points="173.401 264.825 173.401 238.981 173.89 238.176"/>
  <path class="uuid-366cead1-fe4b-4519-a6b4-c65ae1604f61" d="M212.239,190.806c4.887-2.806,9.04-.511,9.04,5.13,0,5.695-4.154,12.583-9.04,15.416-4.886,2.811-8.794.511-8.794-5.154s3.908-12.558,8.794-15.392Z"/>
  <line class="uuid-e54a4a7f-1afb-4cc9-85bb-357b8923e3fe" x1="228.12" y1="221.39" x2="228.12" y2="221.442"/>
  <line class="uuid-e54a4a7f-1afb-4cc9-85bb-357b8923e3fe" x1="220.301" y1="216.85" x2="220.058" y2="216.85"/>
  <line class="uuid-e54a4a7f-1afb-4cc9-85bb-357b8923e3fe" x1="228.12" y1="218.825" x2="228.12" y2="233.263"/>
  <path class="uuid-366cead1-fe4b-4519-a6b4-c65ae1604f61" d="M228.12,233.263c0,1.101-.979,2.444-1.955,3.006"/>
  <line class="uuid-e54a4a7f-1afb-4cc9-85bb-357b8923e3fe" x1="226.166" y1="236.269" x2="175.111" y2="265.826"/>
  <path class="uuid-366cead1-fe4b-4519-a6b4-c65ae1604f61" d="M175.111,265.826c-.979.537-1.711.1-1.711-1.001"/>
  <path class="uuid-366cead1-fe4b-4519-a6b4-c65ae1604f61" d="M173.89,238.176c1.953-2.617,4.396-4.055,6.35-3.518"/>
  <line class="uuid-e54a4a7f-1afb-4cc9-85bb-357b8923e3fe" x1="180.24" y1="234.658" x2="197.338" y2="239.618"/>
  <path class="uuid-366cead1-fe4b-4519-a6b4-c65ae1604f61" d="M197.338,239.618c1.711.485,4.154-.758,5.864-3.175"/>
  <line class="uuid-e54a4a7f-1afb-4cc9-85bb-357b8923e3fe" x1="203.203" y1="236.443" x2="216.151" y2="219.878"/>
  <path class="uuid-366cead1-fe4b-4519-a6b4-c65ae1604f61" d="M216.151,219.878c1.954-2.491,4.396-3.738,6.107-3.128"/>
  <line class="uuid-e54a4a7f-1afb-4cc9-85bb-357b8923e3fe" x1="222.259" y1="216.75" x2="228.12" y2="218.825"/>
  <line class="uuid-71c8d38c-a4ca-4387-bf33-69bd22282866" x1="216.884" y1="204.366" x2="207.111" y2="198.821"/>
  <line class="uuid-71c8d38c-a4ca-4387-bf33-69bd22282866" x1="259.144" y1="177.811" x2="255.722" y2="171.877"/>
  <line class="uuid-71c8d38c-a4ca-4387-bf33-69bd22282866" x1="278.685" y1="166.528" x2="275.268" y2="160.614"/>
  <line class="uuid-71c8d38c-a4ca-4387-bf33-69bd22282866" x1="298.227" y1="155.265" x2="294.809" y2="149.377"/>
  <line class="uuid-71c8d38c-a4ca-4387-bf33-69bd22282866" x1="259.144" y1="206.662" x2="255.722" y2="200.752"/>
  <line class="uuid-71c8d38c-a4ca-4387-bf33-69bd22282866" x1="278.685" y1="195.377" x2="275.268" y2="189.442"/>
  <line class="uuid-71c8d38c-a4ca-4387-bf33-69bd22282866" x1="298.227" y1="184.092" x2="294.809" y2="178.206"/>
  <line class="uuid-71c8d38c-a4ca-4387-bf33-69bd22282866" x1="162.896" y1="290.132" x2="156.055" y2="278.483"/>
  <line class="uuid-71c8d38c-a4ca-4387-bf33-69bd22282866" x1="184.148" y1="281.948" x2="180.729" y2="276.062"/>
  <line class="uuid-71c8d38c-a4ca-4387-bf33-69bd22282866" x1="203.692" y1="270.639" x2="200.27" y2="264.751"/>
  <line class="uuid-71c8d38c-a4ca-4387-bf33-69bd22282866" x1="223.233" y1="259.306" x2="220.058" y2="253.442"/>
  <line class="uuid-71c8d38c-a4ca-4387-bf33-69bd22282866" x1="243.021" y1="248.165" x2="236.913" y2="237.955"/>
  <line class="uuid-71c8d38c-a4ca-4387-bf33-69bd22282866" x1="262.32" y1="236.832" x2="257.433" y2="228.403"/>
  <line class="uuid-71c8d38c-a4ca-4387-bf33-69bd22282866" x1="281.86" y1="225.522" x2="277.221" y2="217.092"/>
  <line class="uuid-71c8d38c-a4ca-4387-bf33-69bd22282866" x1="301.648" y1="214.259" x2="296.762" y2="205.808"/>
  <line class="uuid-71c8d38c-a4ca-4387-bf33-69bd22282866" x1="162.653" y1="318.911" x2="156.055" y2="307.233"/>
  <line class="uuid-71c8d38c-a4ca-4387-bf33-69bd22282866" x1="184.148" y1="310.799" x2="180.729" y2="304.865"/>
  <line class="uuid-71c8d38c-a4ca-4387-bf33-69bd22282866" x1="203.692" y1="299.514" x2="200.27" y2="293.602"/>
  <line class="uuid-71c8d38c-a4ca-4387-bf33-69bd22282866" x1="223.233" y1="288.251" x2="219.816" y2="282.339"/>
  <line class="uuid-71c8d38c-a4ca-4387-bf33-69bd22282866" x1="242.775" y1="276.941" x2="239.357" y2="271.032"/>
  <line class="uuid-71c8d38c-a4ca-4387-bf33-69bd22282866" x1="262.32" y1="265.605" x2="258.897" y2="259.721"/>
  <line class="uuid-71c8d38c-a4ca-4387-bf33-69bd22282866" x1="281.86" y1="254.346" x2="278.442" y2="248.459"/>
  <line class="uuid-71c8d38c-a4ca-4387-bf33-69bd22282866" x1="301.402" y1="243.01" x2="298.227" y2="237.149"/>
  <line class="uuid-71c8d38c-a4ca-4387-bf33-69bd22282866" x1="163.142" y1="347.931" x2="156.298" y2="336.231"/>
  <line class="uuid-71c8d38c-a4ca-4387-bf33-69bd22282866" x1="184.395" y1="339.502" x2="180.972" y2="333.589"/>
  <line class="uuid-71c8d38c-a4ca-4387-bf33-69bd22282866" x1="203.935" y1="328.239" x2="200.513" y2="322.33"/>
  <line class="uuid-71c8d38c-a4ca-4387-bf33-69bd22282866" x1="223.48" y1="316.954" x2="220.058" y2="311.068"/>
  <line class="uuid-71c8d38c-a4ca-4387-bf33-69bd22282866" x1="243.021" y1="305.645" x2="239.6" y2="299.757"/>
  <line class="uuid-71c8d38c-a4ca-4387-bf33-69bd22282866" x1="262.563" y1="294.312" x2="259.144" y2="288.446"/>
  <line class="uuid-71c8d38c-a4ca-4387-bf33-69bd22282866" x1="282.104" y1="283.075" x2="278.685" y2="277.185"/>
  <line class="uuid-71c8d38c-a4ca-4387-bf33-69bd22282866" x1="301.648" y1="271.786" x2="298.227" y2="265.926"/>
  <line class="uuid-71c8d38c-a4ca-4387-bf33-69bd22282866" x1="140.18" y1="351.302" x2="136.025" y2="344.094"/>
  <line class="uuid-71c8d38c-a4ca-4387-bf33-69bd22282866" x1="159.964" y1="362.976" x2="148.727" y2="343.777"/>
  <line class="uuid-71c8d38c-a4ca-4387-bf33-69bd22282866" x1="140.18" y1="322.499" x2="136.025" y2="315.269"/>
  <line class="uuid-71c8d38c-a4ca-4387-bf33-69bd22282866" x1="159.964" y1="334.177" x2="148.727" y2="314.975"/>
  <line class="uuid-71c8d38c-a4ca-4387-bf33-69bd22282866" x1="140.18" y1="293.7" x2="136.025" y2="286.397"/>
  <line class="uuid-71c8d38c-a4ca-4387-bf33-69bd22282866" x1="159.964" y1="305.376" x2="148.727" y2="286.103"/>
  <line class="uuid-71c8d38c-a4ca-4387-bf33-69bd22282866" x1="139.933" y1="264.703" x2="136.025" y2="258.011"/>
  <line class="uuid-71c8d38c-a4ca-4387-bf33-69bd22282866" x1="159.964" y1="277.115" x2="135.293" y2="234.289"/>
  <line class="uuid-71c8d38c-a4ca-4387-bf33-69bd22282866" x1="165.339" y1="263.582" x2="135.05" y2="211.521"/>
  <line class="uuid-71c8d38c-a4ca-4387-bf33-69bd22282866" x1="165.339" y1="241.13" x2="135.05" y2="188.853"/>
  <line class="uuid-71c8d38c-a4ca-4387-bf33-69bd22282866" x1="164.607" y1="217.239" x2="154.591" y2="199.895"/>
  <line class="uuid-71c8d38c-a4ca-4387-bf33-69bd22282866" x1="163.628" y1="201.19" x2="150.195" y2="178.106"/>
  <line class="uuid-71c8d38c-a4ca-4387-bf33-69bd22282866" x1="184.88" y1="192.812" x2="169.735" y2="166.722"/>
  <line class="uuid-71c8d38c-a4ca-4387-bf33-69bd22282866" x1="204.424" y1="181.549" x2="189.276" y2="155.437"/>
  <line class="uuid-71c8d38c-a4ca-4387-bf33-69bd22282866" x1="223.723" y1="169.871" x2="215.418" y2="155.632"/>
  <line class="uuid-71c8d38c-a4ca-4387-bf33-69bd22282866" x1="245.218" y1="223.763" x2="239.111" y2="213.16"/>
  <line class="uuid-71c8d38c-a4ca-4387-bf33-69bd22282866" x1="245.218" y1="195.694" x2="238.625" y2="184.04"/>
  <line class="uuid-71c8d38c-a4ca-4387-bf33-69bd22282866" x1="218.348" y1="152.921" x2="216.884" y2="150.552"/>
  <line class="uuid-71c8d38c-a4ca-4387-bf33-69bd22282866" x1="240.332" y1="168.848" x2="229.584" y2="149.794"/>
  <line class="uuid-71c8d38c-a4ca-4387-bf33-69bd22282866" x1="243.996" y1="154.238" x2="230.806" y2="131.522"/>
  <line class="uuid-71c8d38c-a4ca-4387-bf33-69bd22282866" x1="265.495" y1="146.302" x2="250.347" y2="120.163"/>
  <line class="uuid-71c8d38c-a4ca-4387-bf33-69bd22282866" x1="285.036" y1="135.013" x2="269.891" y2="108.9"/>
  <line class="uuid-71c8d38c-a4ca-4387-bf33-69bd22282866" x1="304.334" y1="123.412" x2="294.562" y2="106.63"/>
  <line class="uuid-71c8d38c-a4ca-4387-bf33-69bd22282866" x1="185.127" y1="258.107" x2="175.111" y2="252.367"/>
  <line class="uuid-71c8d38c-a4ca-4387-bf33-69bd22282866" x1="196.849" y1="251.782" x2="174.869" y2="239.129"/>
  <line class="uuid-71c8d38c-a4ca-4387-bf33-69bd22282866" x1="207.6" y1="244.989" x2="200.76" y2="240.982"/>
  <line class="uuid-71c8d38c-a4ca-4387-bf33-69bd22282866" x1="219.084" y1="238.539" x2="208.575" y2="232.531"/>
  <line class="uuid-71c8d38c-a4ca-4387-bf33-69bd22282866" x1="226.408" y1="229.723" x2="215.418" y2="223.516"/>
</svg>