<?xml version="1.0" encoding="UTF-8"?>
<svg id="uuid-4c3f95b3-2a79-41ad-a8c5-380ff3b214cc" data-name="&amp;lt;Layer&amp;gt;" xmlns="http://www.w3.org/2000/svg" viewBox="0 0 451.11 451.11">
  <defs>
    <style>
      .uuid-7da8cb44-d65f-4e76-8e67-c5fd43835676, .uuid-49112bd0-63f9-46fa-b124-6a88a27868f0, .uuid-1968c22d-e995-47a8-a8de-6c7cd84a5803 {
        fill: none;
        stroke: #000;
        stroke-linecap: round;
      }

      .uuid-7da8cb44-d65f-4e76-8e67-c5fd43835676, .uuid-1968c22d-e995-47a8-a8de-6c7cd84a5803 {
        stroke-linejoin: round;
        stroke-width: 4.113px;
      }

      .uuid-49112bd0-63f9-46fa-b124-6a88a27868f0 {
        stroke-miterlimit: 10;
        stroke-width: 1.163px;
      }

      .uuid-1968c22d-e995-47a8-a8de-6c7cd84a5803 {
        fill-rule: evenodd;
      }
    </style>
  </defs>
  <polyline class="uuid-1968c22d-e995-47a8-a8de-6c7cd84a5803" points="306.659 250.569 317.16 256.676 166.196 343.712 133.95 325.076 144.454 319.041"/>
  <polygon class="uuid-1968c22d-e995-47a8-a8de-6c7cd84a5803" points="166.196 343.712 133.95 325.076 133.95 341.758 166.196 360.398 166.196 343.712"/>
  <polygon class="uuid-1968c22d-e995-47a8-a8de-6c7cd84a5803" points="317.16 256.65 166.196 343.712 166.196 360.398 317.16 273.358 317.16 256.65"/>
  <polyline class="uuid-1968c22d-e995-47a8-a8de-6c7cd84a5803" points="306.659 221.77 317.16 227.852 166.196 314.91 133.95 296.273 144.454 290.24"/>
  <polygon class="uuid-1968c22d-e995-47a8-a8de-6c7cd84a5803" points="166.196 314.888 133.95 296.248 133.95 312.956 166.196 331.596 166.196 314.888"/>
  <polygon class="uuid-1968c22d-e995-47a8-a8de-6c7cd84a5803" points="317.16 227.827 166.196 314.888 166.196 331.596 317.16 244.535 317.16 227.827"/>
  <polyline class="uuid-1968c22d-e995-47a8-a8de-6c7cd84a5803" points="147.387 259.731 147.387 259.731 133.95 267.472 158.866 281.861 166.196 286.037 292.001 213.414 317.16 199.002 303.727 191.331"/>
  <polygon class="uuid-1968c22d-e995-47a8-a8de-6c7cd84a5803" points="166.196 286.089 133.95 267.45 133.95 284.132 166.196 302.771 166.196 286.089"/>
  <polygon class="uuid-1968c22d-e995-47a8-a8de-6c7cd84a5803" points="317.16 199.024 166.196 286.089 166.196 302.771 317.16 215.71 317.16 199.024"/>
  <polyline class="uuid-1968c22d-e995-47a8-a8de-6c7cd84a5803" points="306.659 160.892 317.16 166.999 247.054 207.428 214.807 188.788 225.312 182.754"/>
  <polyline class="uuid-1968c22d-e995-47a8-a8de-6c7cd84a5803" points="214.807 189.424 214.807 188.788 247.054 207.428 247.054 224.089 227.998 213.119 223.359 210.504"/>
  <polygon class="uuid-1968c22d-e995-47a8-a8de-6c7cd84a5803" points="317.16 166.999 247.054 207.406 247.054 224.089 317.16 183.685 317.16 166.999"/>
  <polyline class="uuid-1968c22d-e995-47a8-a8de-6c7cd84a5803" points="306.659 132.093 317.16 138.2 292.243 152.613 292.001 152.613 247.054 178.556 239.724 174.377 214.807 159.917 225.312 153.882"/>
  <polygon class="uuid-1968c22d-e995-47a8-a8de-6c7cd84a5803" points="247.054 178.578 214.807 159.939 214.807 176.649 247.054 195.264 247.054 178.578"/>
  <polygon class="uuid-1968c22d-e995-47a8-a8de-6c7cd84a5803" points="317.16 138.175 247.054 178.578 247.054 195.264 317.16 154.883 317.16 138.175"/>
  <polygon class="uuid-1968c22d-e995-47a8-a8de-6c7cd84a5803" points="317.16 109.351 284.672 90.711 214.807 131.114 247.054 149.754 317.16 109.351"/>
  <polygon class="uuid-1968c22d-e995-47a8-a8de-6c7cd84a5803" points="247.054 149.754 214.807 131.114 214.807 147.8 247.054 166.439 247.054 149.754"/>
  <polygon class="uuid-1968c22d-e995-47a8-a8de-6c7cd84a5803" points="317.16 109.351 247.054 149.754 247.054 166.439 317.16 126.033 317.16 109.351"/>
  <path class="uuid-1968c22d-e995-47a8-a8de-6c7cd84a5803" d="M206.013,172.179c0-.073.244-.121.489-.173.244-.121.489-.121.733,0q0-.074,0,0"/>
  <polyline class="uuid-1968c22d-e995-47a8-a8de-6c7cd84a5803" points="136.882 253.817 147.387 259.731 147.387 259.731 168.882 272.237"/>
  <polyline class="uuid-1968c22d-e995-47a8-a8de-6c7cd84a5803" points="168.396 269.915 176.211 243.019 176.211 243.019 183.54 218.006"/>
  <path class="uuid-1968c22d-e995-47a8-a8de-6c7cd84a5803" d="M232.638,232.739c0,.243.247.533.247.875,0,1.269-.979,2.911-2.2,3.543"/>
  <path class="uuid-1968c22d-e995-47a8-a8de-6c7cd84a5803" d="M221.648,242.385c-.489.343-.979.391-1.464.122,0,0,0-.074-.247-.074"/>
  <polyline class="uuid-1968c22d-e995-47a8-a8de-6c7cd84a5803" points="219.937 242.433 219.937 242.337 201.37 231.638"/>
  <path class="uuid-1968c22d-e995-47a8-a8de-6c7cd84a5803" d="M219.694,241.97c0,.048,0,.121.243.173v.195"/>
  <polyline class="uuid-1968c22d-e995-47a8-a8de-6c7cd84a5803" points="203.081 199.05 203.081 199.171 209.19 214.22"/>
  <polyline class="uuid-1968c22d-e995-47a8-a8de-6c7cd84a5803" points="170.35 272.067 170.35 272.067 180.118 266.445"/>
  <polyline class="uuid-1968c22d-e995-47a8-a8de-6c7cd84a5803" points="181.829 263.663 188.912 238.721 213.097 224.699 219.694 241.944"/>
  <path class="uuid-1968c22d-e995-47a8-a8de-6c7cd84a5803" d="M193.066,223.503c2.687-9.967,5.619-20.009,8.062-29.928.732,1.831,1.221,3.664,1.953,5.475"/>
  <line class="uuid-7da8cb44-d65f-4e76-8e67-c5fd43835676" x1="192.334" y1="188.376" x2="194.777" y2="180.315"/>
  <path class="uuid-1968c22d-e995-47a8-a8de-6c7cd84a5803" d="M194.777,180.315c0-1.053.976-2.149,1.708-2.689"/>
  <line class="uuid-7da8cb44-d65f-4e76-8e67-c5fd43835676" x1="196.485" y1="177.626" x2="206.013" y2="172.179"/>
  <line class="uuid-7da8cb44-d65f-4e76-8e67-c5fd43835676" x1="214.807" y1="189.424" x2="207.968" y2="172.644"/>
  <line class="uuid-7da8cb44-d65f-4e76-8e67-c5fd43835676" x1="207.236" y1="172.006" x2="175.479" y2="153.662"/>
  <path class="uuid-1968c22d-e995-47a8-a8de-6c7cd84a5803" d="M175.479,153.662c-.489-.243-.732-.122-1.464.173"/>
  <line class="uuid-7da8cb44-d65f-4e76-8e67-c5fd43835676" x1="174.015" y1="153.834" x2="164.732" y2="159.232"/>
  <path class="uuid-1968c22d-e995-47a8-a8de-6c7cd84a5803" d="M164.732,159.232c-.979.685-1.468,1.49-1.953,2.711"/>
  <line class="uuid-7da8cb44-d65f-4e76-8e67-c5fd43835676" x1="162.778" y1="161.943" x2="136.635" y2="251.496"/>
  <path class="uuid-1968c22d-e995-47a8-a8de-6c7cd84a5803" d="M136.635,251.496c-.243.879-.485,1.685.247,2.321"/>
  <line class="uuid-7da8cb44-d65f-4e76-8e67-c5fd43835676" x1="225.312" y1="214.805" x2="232.638" y2="232.739"/>
  <line class="uuid-7da8cb44-d65f-4e76-8e67-c5fd43835676" x1="230.684" y1="237.157" x2="221.648" y2="242.385"/>
  <line class="uuid-7da8cb44-d65f-4e76-8e67-c5fd43835676" x1="232.638" y1="232.739" x2="207.968" y2="172.618"/>
  <line class="uuid-7da8cb44-d65f-4e76-8e67-c5fd43835676" x1="194.531" y1="180.315" x2="168.396" y2="269.893"/>
  <path class="uuid-1968c22d-e995-47a8-a8de-6c7cd84a5803" d="M180.118,266.445c.732-.537,1.711-1.685,1.711-2.782"/>
  <line class="uuid-7da8cb44-d65f-4e76-8e67-c5fd43835676" x1="209.19" y1="214.246" x2="193.066" y2="223.503"/>
  <line class="uuid-49112bd0-63f9-46fa-b124-6a88a27868f0" x1="163.021" y1="339.73" x2="156.181" y2="327.883"/>
  <line class="uuid-49112bd0-63f9-46fa-b124-6a88a27868f0" x1="184.273" y1="331.253" x2="180.608" y2="325.318"/>
  <line class="uuid-49112bd0-63f9-46fa-b124-6a88a27868f0" x1="203.813" y1="319.943" x2="200.396" y2="314.008"/>
  <line class="uuid-49112bd0-63f9-46fa-b124-6a88a27868f0" x1="223.359" y1="308.637" x2="219.937" y2="302.698"/>
  <line class="uuid-49112bd0-63f9-46fa-b124-6a88a27868f0" x1="242.9" y1="297.396" x2="239.478" y2="291.435"/>
  <line class="uuid-49112bd0-63f9-46fa-b124-6a88a27868f0" x1="262.444" y1="286.137" x2="259.022" y2="280.177"/>
  <line class="uuid-49112bd0-63f9-46fa-b124-6a88a27868f0" x1="281.985" y1="274.826" x2="278.564" y2="268.866"/>
  <line class="uuid-49112bd0-63f9-46fa-b124-6a88a27868f0" x1="301.527" y1="263.517" x2="298.109" y2="257.555"/>
  <line class="uuid-49112bd0-63f9-46fa-b124-6a88a27868f0" x1="139.811" y1="314.108" x2="135.903" y2="307.289"/>
  <line class="uuid-49112bd0-63f9-46fa-b124-6a88a27868f0" x1="159.845" y1="325.904" x2="148.851" y2="306.727"/>
  <line class="uuid-49112bd0-63f9-46fa-b124-6a88a27868f0" x1="162.778" y1="310.734" x2="155.691" y2="298.864"/>
  <line class="uuid-49112bd0-63f9-46fa-b124-6a88a27868f0" x1="184.027" y1="302.478" x2="180.608" y2="296.568"/>
  <line class="uuid-49112bd0-63f9-46fa-b124-6a88a27868f0" x1="203.571" y1="291.241" x2="200.149" y2="285.305"/>
  <line class="uuid-49112bd0-63f9-46fa-b124-6a88a27868f0" x1="223.112" y1="279.93" x2="219.694" y2="273.97"/>
  <line class="uuid-49112bd0-63f9-46fa-b124-6a88a27868f0" x1="242.657" y1="268.671" x2="239.234" y2="262.711"/>
  <line class="uuid-49112bd0-63f9-46fa-b124-6a88a27868f0" x1="262.197" y1="257.36" x2="258.78" y2="251.4"/>
  <line class="uuid-49112bd0-63f9-46fa-b124-6a88a27868f0" x1="281.739" y1="246.051" x2="278.321" y2="240.111"/>
  <line class="uuid-49112bd0-63f9-46fa-b124-6a88a27868f0" x1="301.284" y1="234.788" x2="297.862" y2="228.852"/>
  <line class="uuid-49112bd0-63f9-46fa-b124-6a88a27868f0" x1="139.811" y1="285.305" x2="135.903" y2="278.418"/>
  <line class="uuid-49112bd0-63f9-46fa-b124-6a88a27868f0" x1="159.845" y1="297.079" x2="148.851" y2="277.877"/>
  <line class="uuid-49112bd0-63f9-46fa-b124-6a88a27868f0" x1="148.361" y1="258.214" x2="140.301" y2="244.461"/>
  <line class="uuid-49112bd0-63f9-46fa-b124-6a88a27868f0" x1="167.417" y1="269.282" x2="144.208" y2="228.78"/>
  <line class="uuid-49112bd0-63f9-46fa-b124-6a88a27868f0" x1="172.058" y1="254.185" x2="148.608" y2="213.731"/>
  <line class="uuid-49112bd0-63f9-46fa-b124-6a88a27868f0" x1="176.454" y1="239.284" x2="153.006" y2="198.66"/>
  <line class="uuid-49112bd0-63f9-46fa-b124-6a88a27868f0" x1="180.85" y1="224.456" x2="157.402" y2="183.881"/>
  <line class="uuid-49112bd0-63f9-46fa-b124-6a88a27868f0" x1="185.248" y1="209.381" x2="161.8" y2="168.832"/>
  <line class="uuid-49112bd0-63f9-46fa-b124-6a88a27868f0" x1="189.644" y1="194.311" x2="168.396" y2="157.911"/>
  <line class="uuid-49112bd0-63f9-46fa-b124-6a88a27868f0" x1="193.555" y1="178.92" x2="182.561" y2="159.548"/>
  <line class="uuid-49112bd0-63f9-46fa-b124-6a88a27868f0" x1="202.592" y1="171.786" x2="202.592" y2="171.495"/>
  <line class="uuid-49112bd0-63f9-46fa-b124-6a88a27868f0" x1="243.632" y1="203.278" x2="236.792" y2="191.404"/>
  <line class="uuid-49112bd0-63f9-46fa-b124-6a88a27868f0" x1="264.884" y1="195.043" x2="261.465" y2="189.109"/>
  <line class="uuid-49112bd0-63f9-46fa-b124-6a88a27868f0" x1="284.428" y1="183.807" x2="281.007" y2="177.82"/>
  <line class="uuid-49112bd0-63f9-46fa-b124-6a88a27868f0" x1="303.97" y1="172.544" x2="300.305" y2="166.561"/>
  <line class="uuid-49112bd0-63f9-46fa-b124-6a88a27868f0" x1="220.669" y1="177.724" x2="216.761" y2="171.054"/>
  <line class="uuid-49112bd0-63f9-46fa-b124-6a88a27868f0" x1="240.457" y1="189.424" x2="229.22" y2="170.2"/>
  <line class="uuid-49112bd0-63f9-46fa-b124-6a88a27868f0" x1="243.632" y1="174.427" x2="236.792" y2="162.58"/>
  <line class="uuid-49112bd0-63f9-46fa-b124-6a88a27868f0" x1="264.884" y1="166.219" x2="261.465" y2="160.258"/>
  <line class="uuid-49112bd0-63f9-46fa-b124-6a88a27868f0" x1="284.428" y1="154.956" x2="281.007" y2="148.996"/>
  <line class="uuid-49112bd0-63f9-46fa-b124-6a88a27868f0" x1="303.97" y1="143.697" x2="300.305" y2="137.737"/>
  <line class="uuid-49112bd0-63f9-46fa-b124-6a88a27868f0" x1="220.669" y1="148.947" x2="216.761" y2="142.207"/>
  <line class="uuid-49112bd0-63f9-46fa-b124-6a88a27868f0" x1="240.457" y1="160.601" x2="229.22" y2="141.398"/>
  <line class="uuid-49112bd0-63f9-46fa-b124-6a88a27868f0" x1="243.879" y1="146.015" x2="230.684" y2="123.299"/>
  <line class="uuid-49112bd0-63f9-46fa-b124-6a88a27868f0" x1="265.374" y1="138.053" x2="250.228" y2="111.916"/>
  <line class="uuid-49112bd0-63f9-46fa-b124-6a88a27868f0" x1="284.915" y1="126.743" x2="269.77" y2="100.627"/>
  <line class="uuid-49112bd0-63f9-46fa-b124-6a88a27868f0" x1="304.216" y1="115.164" x2="294.444" y2="98.261"/>
  <line class="uuid-49112bd0-63f9-46fa-b124-6a88a27868f0" x1="243.143" y1="219.861" x2="232.153" y2="200.661"/>
  <line class="uuid-49112bd0-63f9-46fa-b124-6a88a27868f0" x1="181.829" y1="257.334" x2="176.701" y2="248.273"/>
  <line class="uuid-49112bd0-63f9-46fa-b124-6a88a27868f0" x1="194.531" y1="233.882" x2="185.248" y2="218.201"/>
  <line class="uuid-49112bd0-63f9-46fa-b124-6a88a27868f0" x1="223.848" y1="239.379" x2="215.786" y2="225.603"/>
  <line class="uuid-49112bd0-63f9-46fa-b124-6a88a27868f0" x1="214.318" y1="223.135" x2="210.168" y2="215.784"/>
  <line class="uuid-49112bd0-63f9-46fa-b124-6a88a27868f0" x1="198.685" y1="196.169" x2="194.287" y2="188.472"/>
  <line class="uuid-49112bd0-63f9-46fa-b124-6a88a27868f0" x1="162.778" y1="282.082" x2="153.006" y2="265.055"/>
  <line class="uuid-49112bd0-63f9-46fa-b124-6a88a27868f0" x1="184.027" y1="273.605" x2="180.85" y2="268.082"/>
  <line class="uuid-49112bd0-63f9-46fa-b124-6a88a27868f0" x1="204.06" y1="262.931" x2="190.38" y2="239.306"/>
  <line class="uuid-49112bd0-63f9-46fa-b124-6a88a27868f0" x1="223.112" y1="251.131" x2="218.962" y2="244.071"/>
  <line class="uuid-49112bd0-63f9-46fa-b124-6a88a27868f0" x1="243.143" y1="240.406" x2="228.487" y2="215.199"/>
  <line class="uuid-49112bd0-63f9-46fa-b124-6a88a27868f0" x1="262.444" y1="228.559" x2="257.558" y2="220.129"/>
  <line class="uuid-49112bd0-63f9-46fa-b124-6a88a27868f0" x1="281.985" y1="217.296" x2="277.1" y2="208.87"/>
  <line class="uuid-49112bd0-63f9-46fa-b124-6a88a27868f0" x1="301.284" y1="206.037" x2="296.641" y2="197.582"/>
  <line class="uuid-49112bd0-63f9-46fa-b124-6a88a27868f0" x1="139.811" y1="342.906" x2="135.903" y2="336.114"/>
  <line class="uuid-49112bd0-63f9-46fa-b124-6a88a27868f0" x1="159.845" y1="354.705" x2="148.608" y2="335.503"/>
  <line class="uuid-49112bd0-63f9-46fa-b124-6a88a27868f0" x1="205.035" y1="214.709" x2="199.906" y2="205.986"/>
</svg>