<?xml version="1.0" encoding="UTF-8"?>
<svg id="uuid-3e36a5b2-de37-4365-b7cf-aa2fa4fae656" data-name="&amp;lt;Layer&amp;gt;" xmlns="http://www.w3.org/2000/svg" viewBox="0 0 451.11 451.11">
  <defs>
    <style>
      .uuid-418e4c00-6b25-4f76-854e-c9d423a00ee7, .uuid-2713cc89-3b40-4663-b0f0-1a95c2cfb26c, .uuid-6c66ca74-050f-4497-bd0a-f5e4e4e59d22, .uuid-786dfbe0-fb3d-4527-b961-fadfef8e4e5f, .uuid-e042d3c1-2b6c-4b9f-b640-b7951a704c51, .uuid-d4360838-4909-4a13-9f83-2ad8228a602a {
        fill: none;
        stroke: #000;
        stroke-linecap: round;
      }

      .uuid-418e4c00-6b25-4f76-854e-c9d423a00ee7, .uuid-d4360838-4909-4a13-9f83-2ad8228a602a {
        stroke-linejoin: round;
        stroke-width: 4.117px;
      }

      .uuid-2713cc89-3b40-4663-b0f0-1a95c2cfb26c {
        stroke-width: 1.163px;
      }

      .uuid-2713cc89-3b40-4663-b0f0-1a95c2cfb26c, .uuid-6c66ca74-050f-4497-bd0a-f5e4e4e59d22, .uuid-786dfbe0-fb3d-4527-b961-fadfef8e4e5f, .uuid-e042d3c1-2b6c-4b9f-b640-b7951a704c51 {
        stroke-miterlimit: 10;
      }

      .uuid-6c66ca74-050f-4497-bd0a-f5e4e4e59d22 {
        stroke-width: 1.167px;
      }

      .uuid-786dfbe0-fb3d-4527-b961-fadfef8e4e5f {
        stroke-width: 1.155px;
      }

      .uuid-e042d3c1-2b6c-4b9f-b640-b7951a704c51 {
        stroke-width: 1.159px;
      }

      .uuid-d4360838-4909-4a13-9f83-2ad8228a602a {
        fill-rule: evenodd;
      }
    </style>
  </defs>
  <polygon class="uuid-d4360838-4909-4a13-9f83-2ad8228a602a" points="213.707 155.51 214.855 154.846 217.419 153.356 226.654 148.033 226.728 148.007 249.643 134.769 249.643 171.239 214.855 191.269 213.707 191.954 213.707 155.51"/>
  <polygon class="uuid-d4360838-4909-4a13-9f83-2ad8228a602a" points="213.416 108.972 233.399 97.441 233.399 134.548 223.163 140.435 217.762 143.587 214.685 145.32 213.416 146.078 213.416 108.972"/>
  <path class="uuid-d4360838-4909-4a13-9f83-2ad8228a602a" d="M213.075,62.583h.121c1.318-.048,2.37-1.173,2.37-2.517,0-1.391-1.101-2.517-2.491-2.517s-2.495,1.125-2.495,2.517,1.099,2.517,2.495,2.517h0Z"/>
  <polyline class="uuid-d4360838-4909-4a13-9f83-2ad8228a602a" points="214.123 224.052 214.049 230.892 214.049 230.892 269.796 198.694 269.869 191.88"/>
  <polyline class="uuid-d4360838-4909-4a13-9f83-2ad8228a602a" points="214.123 242.887 214.049 249.702 214.049 249.702 215.517 248.87 269.796 217.506 269.869 210.667"/>
  <polyline class="uuid-d4360838-4909-4a13-9f83-2ad8228a602a" points="214.123 261.695 214.049 268.51 214.049 268.51 215.517 267.681 269.796 236.315 269.869 229.501"/>
  <polyline class="uuid-d4360838-4909-4a13-9f83-2ad8228a602a" points="214.049 287.345 214.049 287.345 215.517 286.513 269.796 255.151 269.869 248.31"/>
  <path class="uuid-d4360838-4909-4a13-9f83-2ad8228a602a" d="M253.72,313.583c.221,2.27-.585,5.471-2.27,6.446-1.612.931-2.565-1.269-2.369-3.76.047-1.979.805-4.081,2.369-4.956,1.391-.81,2.148.459,2.27,2.27h0Z"/>
  <polygon class="uuid-d4360838-4909-4a13-9f83-2ad8228a602a" points="229.098 385.742 229.098 385.742 293.027 348.956 322.583 331.927 322.583 331.901 322.583 339.72 229.951 393.045 229.098 393.56 229.098 385.742"/>
  <polyline class="uuid-d4360838-4909-4a13-9f83-2ad8228a602a" points="156.279 311.261 128.453 327.626 229.098 385.742"/>
  <line class="uuid-418e4c00-6b25-4f76-854e-c9d423a00ee7" x1="322.583" y1="331.927" x2="296.276" y2="316.71"/>
  <line class="uuid-418e4c00-6b25-4f76-854e-c9d423a00ee7" x1="322.657" y1="331.927" x2="322.583" y2="331.927"/>
  <polyline class="uuid-d4360838-4909-4a13-9f83-2ad8228a602a" points="156.327 178.737 154.175 177.516 154.226 165.547"/>
  <polyline class="uuid-d4360838-4909-4a13-9f83-2ad8228a602a" points="214.049 212.105 214.049 200.114 214.123 200.114"/>
  <polyline class="uuid-d4360838-4909-4a13-9f83-2ad8228a602a" points="271.944 166.793 271.896 178.788 269.917 179.933"/>
  <polyline class="uuid-d4360838-4909-4a13-9f83-2ad8228a602a" points="249.643 161.296 263.467 169.211 264.397 169.749"/>
  <polyline class="uuid-d4360838-4909-4a13-9f83-2ad8228a602a" points="161.846 168.574 162.725 168.063 176.479 160.149"/>
  <polyline class="uuid-d4360838-4909-4a13-9f83-2ad8228a602a" points="176.531 152.724 154.226 165.572 214.123 200.114 260.807 173.218 271.944 166.793 249.717 153.894"/>
  <polyline class="uuid-d4360838-4909-4a13-9f83-2ad8228a602a" points="213.707 191.954 176.479 170.481 176.479 134.037"/>
  <line class="uuid-418e4c00-6b25-4f76-854e-c9d423a00ee7" x1="233.447" y1="125.438" x2="249.717" y2="134.795"/>
  <polyline class="uuid-d4360838-4909-4a13-9f83-2ad8228a602a" points="213.707 155.51 176.531 134.037 192.749 124.437"/>
  <polyline class="uuid-d4360838-4909-4a13-9f83-2ad8228a602a" points="217.762 143.587 217.493 143.732 213.416 146.1 192.749 134.157"/>
  <polyline class="uuid-d4360838-4909-4a13-9f83-2ad8228a602a" points="233.447 134.548 224.797 139.556 223.163 140.435"/>
  <polyline class="uuid-d4360838-4909-4a13-9f83-2ad8228a602a" points="213.416 146.078 192.749 134.132 192.749 97.026"/>
  <polyline class="uuid-d4360838-4909-4a13-9f83-2ad8228a602a" points="213.416 108.972 192.749 97.026 212.485 85.373 233.399 97.441"/>
  <line class="uuid-418e4c00-6b25-4f76-854e-c9d423a00ee7" x1="213.123" y1="98.03" x2="213.123" y2="62.583"/>
  <line class="uuid-418e4c00-6b25-4f76-854e-c9d423a00ee7" x1="156.327" y1="197.549" x2="156.279" y2="190.71"/>
  <polyline class="uuid-d4360838-4909-4a13-9f83-2ad8228a602a" points="156.279 190.71 156.327 178.737 214.049 212.105"/>
  <polyline class="uuid-d4360838-4909-4a13-9f83-2ad8228a602a" points="214.123 224.052 214.049 212.105 269.917 179.933 269.869 191.88"/>
  <polyline class="uuid-d4360838-4909-4a13-9f83-2ad8228a602a" points="156.279 209.518 156.327 197.549 214.049 230.892"/>
  <line class="uuid-418e4c00-6b25-4f76-854e-c9d423a00ee7" x1="214.123" y1="242.887" x2="214.049" y2="230.892"/>
  <line class="uuid-418e4c00-6b25-4f76-854e-c9d423a00ee7" x1="269.796" y1="198.694" x2="269.869" y2="210.667"/>
  <line class="uuid-418e4c00-6b25-4f76-854e-c9d423a00ee7" x1="156.279" y1="228.327" x2="156.327" y2="216.333"/>
  <line class="uuid-418e4c00-6b25-4f76-854e-c9d423a00ee7" x1="214.123" y1="261.695" x2="214.049" y2="249.702"/>
  <line class="uuid-418e4c00-6b25-4f76-854e-c9d423a00ee7" x1="269.796" y1="217.506" x2="269.869" y2="229.501"/>
  <line class="uuid-418e4c00-6b25-4f76-854e-c9d423a00ee7" x1="156.279" y1="247.137" x2="156.327" y2="235.168"/>
  <line class="uuid-418e4c00-6b25-4f76-854e-c9d423a00ee7" x1="214.123" y1="287.345" x2="214.049" y2="268.51"/>
  <line class="uuid-418e4c00-6b25-4f76-854e-c9d423a00ee7" x1="269.796" y1="236.315" x2="269.869" y2="248.31"/>
  <line class="uuid-418e4c00-6b25-4f76-854e-c9d423a00ee7" x1="156.279" y1="272.785" x2="156.327" y2="253.976"/>
  <line class="uuid-418e4c00-6b25-4f76-854e-c9d423a00ee7" x1="214.001" y1="304.347" x2="214.049" y2="287.345"/>
  <line class="uuid-418e4c00-6b25-4f76-854e-c9d423a00ee7" x1="269.796" y1="255.151" x2="269.869" y2="273.981"/>
  <line class="uuid-418e4c00-6b25-4f76-854e-c9d423a00ee7" x1="156.279" y1="315.047" x2="156.327" y2="291.598"/>
  <polyline class="uuid-d4360838-4909-4a13-9f83-2ad8228a602a" points="269.869 316.194 269.869 316.268 259.121 322.471 256.215 324.087 254.942 324.844 254.699 324.966 247.395 329.216"/>
  <line class="uuid-418e4c00-6b25-4f76-854e-c9d423a00ee7" x1="214.174" y1="348.414" x2="214.049" y2="324.966"/>
  <line class="uuid-418e4c00-6b25-4f76-854e-c9d423a00ee7" x1="241.751" y1="309.06" x2="241.751" y2="308.99"/>
  <line class="uuid-418e4c00-6b25-4f76-854e-c9d423a00ee7" x1="241.825" y1="332.465" x2="241.825" y2="332.391"/>
  <line class="uuid-418e4c00-6b25-4f76-854e-c9d423a00ee7" x1="156.327" y1="272.785" x2="156.279" y2="291.598"/>
  <line class="uuid-418e4c00-6b25-4f76-854e-c9d423a00ee7" x1="234.201" y1="163.692" x2="229.319" y2="162.15"/>
  <line class="uuid-418e4c00-6b25-4f76-854e-c9d423a00ee7" x1="232.689" y1="164.914" x2="237.281" y2="155.825"/>
  <line class="uuid-418e4c00-6b25-4f76-854e-c9d423a00ee7" x1="214.001" y1="324.966" x2="214.049" y2="311.433"/>
  <polyline class="uuid-d4360838-4909-4a13-9f83-2ad8228a602a" points="215.517 305.226 246.053 287.686 246.1 287.686"/>
  <polyline class="uuid-d4360838-4909-4a13-9f83-2ad8228a602a" points="214.049 249.702 156.327 216.333 156.279 209.518"/>
  <polyline class="uuid-d4360838-4909-4a13-9f83-2ad8228a602a" points="214.049 268.51 156.327 235.168 156.279 228.327"/>
  <polyline class="uuid-d4360838-4909-4a13-9f83-2ad8228a602a" points="214.049 287.345 156.327 253.976 156.279 247.137"/>
  <line class="uuid-418e4c00-6b25-4f76-854e-c9d423a00ee7" x1="215.613" y1="305.274" x2="156.327" y2="272.785"/>
  <line class="uuid-418e4c00-6b25-4f76-854e-c9d423a00ee7" x1="214.123" y1="306.153" x2="214.123" y2="304.42"/>
  <polyline class="uuid-d4360838-4909-4a13-9f83-2ad8228a602a" points="215.613 305.274 225.896 311.212 226.018 311.261 231.931 314.678 241.825 320.371"/>
  <path class="uuid-d4360838-4909-4a13-9f83-2ad8228a602a" d="M215.517,305.226c18.124-10.413,36.241-20.803,54.351-31.246l15.439,8.945"/>
  <polyline class="uuid-d4360838-4909-4a13-9f83-2ad8228a602a" points="214.049 355.255 156.327 321.886 156.279 315.047 214.001 348.414"/>
  <polyline class="uuid-d4360838-4909-4a13-9f83-2ad8228a602a" points="269.869 316.32 269.869 323.061 247.395 336.004"/>
  <polyline class="uuid-d4360838-4909-4a13-9f83-2ad8228a602a" points="236.06 342.554 214.123 355.229 214.174 348.414 233.105 337.446 236.06 335.762"/>
  <polyline class="uuid-d4360838-4909-4a13-9f83-2ad8228a602a" points="241.825 371.257 236.06 367.934 236.06 324.503 225.676 318.344 225.676 318.296 225.607 318.296 219.789 314.877 219.693 314.804 214.049 311.433 214.049 304.347"/>
  <polyline class="uuid-d4360838-4909-4a13-9f83-2ad8228a602a" points="290.705 343.334 284.966 340.011 284.966 307.717"/>
  <line class="uuid-418e4c00-6b25-4f76-854e-c9d423a00ee7" x1="290.705" y1="304.42" x2="284.966" y2="307.717"/>
  <polyline class="uuid-d4360838-4909-4a13-9f83-2ad8228a602a" points="290.705 304.42 290.705 343.334 296.276 340.132 296.276 316.71"/>
  <path class="uuid-d4360838-4909-4a13-9f83-2ad8228a602a" d="M296.276,316.71c0-9.161,0-18.687-.052-27.459.052-4.422,0-8.646,0-12.605"/>
  <polyline class="uuid-d4360838-4909-4a13-9f83-2ad8228a602a" points="296.224 276.645 285.307 282.925 269.869 291.693 261.391 296.58 241.751 307.769 241.751 309.06 241.825 320.371 241.825 371.257 247.395 368.056 247.395 329.142 254.699 324.966 254.942 324.844 256.215 324.087 259.121 322.471 269.869 316.32 282.813 308.938 284.966 307.717"/>
  <polyline class="uuid-d4360838-4909-4a13-9f83-2ad8228a602a" points="287.504 290.399 283.792 292.551 283.792 301.245 287.577 299.045"/>
  <path class="uuid-d4360838-4909-4a13-9f83-2ad8228a602a" d="M279.858,295.822c-.341-.391-1.001-.417-1.806.048-2.859,1.711-2.691,9.504-.074,8.844,1.416-.319,1.759-1.564,2.1-2.637"/>
  <line class="uuid-418e4c00-6b25-4f76-854e-c9d423a00ee7" x1="271.944" y1="299.39" x2="271.944" y2="308.086"/>
  <polyline class="uuid-d4360838-4909-4a13-9f83-2ad8228a602a" points="260.854 305.763 257.384 307.817 257.384 316.511"/>
  <line class="uuid-418e4c00-6b25-4f76-854e-c9d423a00ee7" x1="260.001" y1="310.576" x2="257.384" y2="312.067"/>
  <line class="uuid-418e4c00-6b25-4f76-854e-c9d423a00ee7" x1="286.408" y1="295.405" x2="283.792" y2="296.897"/>
  <polyline class="uuid-d4360838-4909-4a13-9f83-2ad8228a602a" points="268.306 301.514 264.762 303.541 264.762 312.235"/>
  <line class="uuid-418e4c00-6b25-4f76-854e-c9d423a00ee7" x1="267.378" y1="306.301" x2="264.762" y2="307.817"/>
  <polyline class="uuid-d4360838-4909-4a13-9f83-2ad8228a602a" points="229.098 393.56 128.453 335.445 128.453 327.626"/>
  <path class="uuid-d4360838-4909-4a13-9f83-2ad8228a602a" d="M225.607,158.512c1.927-3.297,4.539-6.182,7.45-7.867,2.88-1.659,5.493-1.829,7.425-.732,1.905,1.101,3.076,3.47,3.076,6.818s-1.171,7.057-3.076,10.357c-1.931,3.297-4.544,6.178-7.425,7.863-2.911,1.663-5.523,1.833-7.45.732-1.907-1.101-3.08-3.466-3.08-6.815s1.173-7.06,3.08-10.357Z"/>
  <line class="uuid-2713cc89-3b40-4663-b0f0-1a95c2cfb26c" x1="225.727" y1="386.036" x2="222.891" y2="387.674"/>
  <line class="uuid-2713cc89-3b40-4663-b0f0-1a95c2cfb26c" x1="214.392" y1="379.513" x2="211.607" y2="381.15"/>
  <line class="uuid-2713cc89-3b40-4663-b0f0-1a95c2cfb26c" x1="203.129" y1="373.015" x2="200.296" y2="374.652"/>
  <line class="uuid-2713cc89-3b40-4663-b0f0-1a95c2cfb26c" x1="191.87" y1="366.492" x2="189.037" y2="368.106"/>
  <line class="uuid-2713cc89-3b40-4663-b0f0-1a95c2cfb26c" x1="180.534" y1="359.972" x2="177.748" y2="361.609"/>
  <line class="uuid-2713cc89-3b40-4663-b0f0-1a95c2cfb26c" x1="169.271" y1="353.448" x2="166.439" y2="355.085"/>
  <line class="uuid-2713cc89-3b40-4663-b0f0-1a95c2cfb26c" x1="157.961" y1="346.924" x2="155.18" y2="348.562"/>
  <line class="uuid-2713cc89-3b40-4663-b0f0-1a95c2cfb26c" x1="146.677" y1="340.427" x2="143.891" y2="342.039"/>
  <line class="uuid-2713cc89-3b40-4663-b0f0-1a95c2cfb26c" x1="135.44" y1="333.903" x2="132.58" y2="335.519"/>
  <line class="uuid-2713cc89-3b40-4663-b0f0-1a95c2cfb26c" x1="303.064" y1="322.619" x2="298.204" y2="331.023"/>
  <line class="uuid-2713cc89-3b40-4663-b0f0-1a95c2cfb26c" x1="290.116" y1="345.019" x2="287.236" y2="350.053"/>
  <line class="uuid-2713cc89-3b40-4663-b0f0-1a95c2cfb26c" x1="284.134" y1="310.282" x2="247.102" y2="374.432"/>
  <line class="uuid-2713cc89-3b40-4663-b0f0-1a95c2cfb26c" x1="234.543" y1="350.979" x2="218.714" y2="378.512"/>
  <line class="uuid-2713cc89-3b40-4663-b0f0-1a95c2cfb26c" x1="207.335" y1="353.059" x2="199.369" y2="366.76"/>
  <line class="uuid-2713cc89-3b40-4663-b0f0-1a95c2cfb26c" x1="187.741" y1="341.774" x2="179.85" y2="355.502"/>
  <line class="uuid-2713cc89-3b40-4663-b0f0-1a95c2cfb26c" x1="168.176" y1="330.485" x2="160.282" y2="344.191"/>
  <line class="uuid-2713cc89-3b40-4663-b0f0-1a95c2cfb26c" x1="149.829" y1="317.1" x2="140.642" y2="332.976"/>
  <line class="uuid-2713cc89-3b40-4663-b0f0-1a95c2cfb26c" x1="210.632" y1="212.205" x2="195.84" y2="220.763"/>
  <line class="uuid-e042d3c1-2b6c-4b9f-b640-b7951a704c51" x1="199.369" y1="205.681" x2="185.932" y2="213.374"/>
  <line class="uuid-6c66ca74-050f-4497-bd0a-f5e4e4e59d22" x1="188.032" y1="199.161" x2="172.977" y2="207.877"/>
  <line class="uuid-2713cc89-3b40-4663-b0f0-1a95c2cfb26c" x1="176.773" y1="192.638" x2="162.741" y2="200.67"/>
  <line class="uuid-2713cc89-3b40-4663-b0f0-1a95c2cfb26c" x1="165.438" y1="186.114" x2="156.301" y2="191.404"/>
  <line class="uuid-2713cc89-3b40-4663-b0f0-1a95c2cfb26c" x1="212.365" y1="334.197" x2="202.665" y2="339.794"/>
  <line class="uuid-e042d3c1-2b6c-4b9f-b640-b7951a704c51" x1="213.387" y1="320.572" x2="191.112" y2="333.417"/>
  <line class="uuid-2713cc89-3b40-4663-b0f0-1a95c2cfb26c" x1="214.001" y1="307.117" x2="179.85" y2="326.894"/>
  <line class="uuid-2713cc89-3b40-4663-b0f0-1a95c2cfb26c" x1="204.505" y1="299.604" x2="168.539" y2="320.371"/>
  <line class="uuid-2713cc89-3b40-4663-b0f0-1a95c2cfb26c" x1="191.937" y1="293.791" x2="157.839" y2="313.535"/>
  <line class="uuid-786dfbe0-fb3d-4527-b961-fadfef8e4e5f" x1="181.42" y1="286.958" x2="158.255" y2="300.244"/>
  <line class="uuid-2713cc89-3b40-4663-b0f0-1a95c2cfb26c" x1="212.485" y1="162.202" x2="188.622" y2="175.956"/>
  <line class="uuid-2713cc89-3b40-4663-b0f0-1a95c2cfb26c" x1="194.825" y1="146.321" x2="178.043" y2="155.995"/>
  <line class="uuid-2713cc89-3b40-4663-b0f0-1a95c2cfb26c" x1="212.022" y1="116.836" x2="194.261" y2="127.096"/>
  <line class="uuid-2713cc89-3b40-4663-b0f0-1a95c2cfb26c" x1="194.945" y1="100.642" x2="194.825" y2="100.69"/>
  <line class="uuid-2713cc89-3b40-4663-b0f0-1a95c2cfb26c" x1="226.313" y1="345.902" x2="224.454" y2="344.802"/>
  <line class="uuid-2713cc89-3b40-4663-b0f0-1a95c2cfb26c" x1="239.846" y1="355.281" x2="238.087" y2="356.282"/>
  <line class="uuid-2713cc89-3b40-4663-b0f0-1a95c2cfb26c" x1="239.846" y1="342.285" x2="238.087" y2="343.26"/>
  <line class="uuid-2713cc89-3b40-4663-b0f0-1a95c2cfb26c" x1="239.772" y1="329.242" x2="238.087" y2="330.194"/>
  <line class="uuid-2713cc89-3b40-4663-b0f0-1a95c2cfb26c" x1="235.253" y1="318.833" x2="232.811" y2="320.249"/>
  <line class="uuid-2713cc89-3b40-4663-b0f0-1a95c2cfb26c" x1="223.921" y1="312.335" x2="221.669" y2="313.605"/>
  <line class="uuid-2713cc89-3b40-4663-b0f0-1a95c2cfb26c" x1="259.364" y1="326.799" x2="257.484" y2="325.698"/>
  <line class="uuid-2713cc89-3b40-4663-b0f0-1a95c2cfb26c" x1="288.726" y1="328.826" x2="286.993" y2="329.827"/>
  <line class="uuid-2713cc89-3b40-4663-b0f0-1a95c2cfb26c" x1="288.726" y1="315.805" x2="286.993" y2="316.806"/>
  <line class="uuid-2713cc89-3b40-4663-b0f0-1a95c2cfb26c" x1="247.274" y1="380.829" x2="244.489" y2="379.219"/>
  <line class="uuid-2713cc89-3b40-4663-b0f0-1a95c2cfb26c" x1="269.869" y1="367.838" x2="267.083" y2="366.223"/>
  <line class="uuid-2713cc89-3b40-4663-b0f0-1a95c2cfb26c" x1="292.512" y1="354.792" x2="289.679" y2="353.205"/>
  <line class="uuid-2713cc89-3b40-4663-b0f0-1a95c2cfb26c" x1="315.106" y1="341.796" x2="312.325" y2="340.184"/>
  <line class="uuid-2713cc89-3b40-4663-b0f0-1a95c2cfb26c" x1="210.632" y1="230.16" x2="195.84" y2="238.718"/>
  <line class="uuid-e042d3c1-2b6c-4b9f-b640-b7951a704c51" x1="199.369" y1="223.636" x2="185.932" y2="231.33"/>
  <line class="uuid-6c66ca74-050f-4497-bd0a-f5e4e4e59d22" x1="188.032" y1="217.113" x2="172.977" y2="225.829"/>
  <line class="uuid-2713cc89-3b40-4663-b0f0-1a95c2cfb26c" x1="176.773" y1="210.593" x2="162.741" y2="218.625"/>
  <line class="uuid-2713cc89-3b40-4663-b0f0-1a95c2cfb26c" x1="165.438" y1="204.069" x2="156.301" y2="209.36"/>
  <line class="uuid-2713cc89-3b40-4663-b0f0-1a95c2cfb26c" x1="210.632" y1="248.663" x2="195.84" y2="257.218"/>
  <line class="uuid-e042d3c1-2b6c-4b9f-b640-b7951a704c51" x1="199.369" y1="242.139" x2="185.932" y2="249.83"/>
  <line class="uuid-6c66ca74-050f-4497-bd0a-f5e4e4e59d22" x1="188.032" y1="235.617" x2="172.977" y2="244.333"/>
  <line class="uuid-2713cc89-3b40-4663-b0f0-1a95c2cfb26c" x1="176.773" y1="229.093" x2="162.741" y2="237.129"/>
  <line class="uuid-2713cc89-3b40-4663-b0f0-1a95c2cfb26c" x1="165.438" y1="222.573" x2="156.301" y2="227.86"/>
  <line class="uuid-2713cc89-3b40-4663-b0f0-1a95c2cfb26c" x1="210.632" y1="267.424" x2="195.84" y2="275.982"/>
  <line class="uuid-e042d3c1-2b6c-4b9f-b640-b7951a704c51" x1="199.369" y1="260.901" x2="185.932" y2="268.594"/>
  <line class="uuid-6c66ca74-050f-4497-bd0a-f5e4e4e59d22" x1="188.032" y1="254.381" x2="172.977" y2="263.097"/>
  <line class="uuid-2713cc89-3b40-4663-b0f0-1a95c2cfb26c" x1="176.773" y1="247.857" x2="162.741" y2="255.893"/>
  <line class="uuid-2713cc89-3b40-4663-b0f0-1a95c2cfb26c" x1="165.438" y1="241.337" x2="156.301" y2="246.625"/>
  <line class="uuid-2713cc89-3b40-4663-b0f0-1a95c2cfb26c" x1="210.632" y1="287.172" x2="195.84" y2="295.73"/>
  <line class="uuid-e042d3c1-2b6c-4b9f-b640-b7951a704c51" x1="199.369" y1="280.648" x2="185.932" y2="288.342"/>
  <line class="uuid-6c66ca74-050f-4497-bd0a-f5e4e4e59d22" x1="188.032" y1="274.129" x2="172.977" y2="282.845"/>
  <line class="uuid-2713cc89-3b40-4663-b0f0-1a95c2cfb26c" x1="176.773" y1="267.605" x2="162.741" y2="275.641"/>
  <line class="uuid-2713cc89-3b40-4663-b0f0-1a95c2cfb26c" x1="165.438" y1="261.085" x2="156.301" y2="266.372"/>
  <line class="uuid-6c66ca74-050f-4497-bd0a-f5e4e4e59d22" x1="171.144" y1="279.861" x2="156.287" y2="288.386"/>
</svg>