<?xml version="1.0" encoding="UTF-8"?>
<svg id="uuid-da6eda79-a4de-45cc-be50-12b73d087c55" data-name="&amp;lt;Layer&amp;gt;" xmlns="http://www.w3.org/2000/svg" viewBox="0 0 451.11 451.11">
  <defs>
    <style>
      .uuid-40fd8aeb-92d9-4880-a061-3fe7aa41f281, .uuid-3d86e374-2ad4-42b4-aca0-715599d4a892, .uuid-77f4b715-4f5c-453f-8a0b-400af23df594 {
        fill: none;
        stroke: #000;
        stroke-linecap: round;
      }

      .uuid-40fd8aeb-92d9-4880-a061-3fe7aa41f281, .uuid-77f4b715-4f5c-453f-8a0b-400af23df594 {
        stroke-linejoin: round;
        stroke-width: 4.117px;
      }

      .uuid-3d86e374-2ad4-42b4-aca0-715599d4a892 {
        stroke-miterlimit: 10;
        stroke-width: 1.163px;
      }

      .uuid-77f4b715-4f5c-453f-8a0b-400af23df594 {
        fill-rule: evenodd;
      }
    </style>
  </defs>
  <polyline class="uuid-77f4b715-4f5c-453f-8a0b-400af23df594" points="152.15 341.568 152.198 284.357 157.717 277.616 157.717 266.428 152.198 263.227 152.198 248.424 172.008 219.6 172.008 162.926"/>
  <path class="uuid-77f4b715-4f5c-453f-8a0b-400af23df594" d="M172.008,162.926c.173-3.127.588-5.106,1.637-8.061,2.958-7.378,6.424-11.605,13.29-15.564"/>
  <path class="uuid-77f4b715-4f5c-453f-8a0b-400af23df594" d="M203.717,148.926c-6.914,4.007-10.336,8.261-13.364,15.638-.975,2.954-1.39,4.934-1.564,8.061"/>
  <polyline class="uuid-77f4b715-4f5c-453f-8a0b-400af23df594" points="188.788 172.625 188.788 229.32 168.98 258.123 168.98 268.845 174.499 272.045 174.451 287.311 168.932 294.008 168.932 351.266"/>
  <polyline class="uuid-77f4b715-4f5c-453f-8a0b-400af23df594" points="168.932 351.266 168.932 294.008 174.451 287.311 174.451 272.045 168.98 272.925 168.98 258.123 188.788 229.32 188.788 172.625"/>
  <path class="uuid-77f4b715-4f5c-453f-8a0b-400af23df594" d="M284.964,102.078c7.009-4.059,12.775-.684,12.775,7.425,0,55.82-.074,111.684-.074,167.478,0,8.135-5.74,18.124-12.825,22.183"/>
  <polyline class="uuid-77f4b715-4f5c-453f-8a0b-400af23df594" points="280.199 175.069 263.222 184.885 263.222 134.172 280.078 124.499"/>
  <polygon class="uuid-77f4b715-4f5c-453f-8a0b-400af23df594" points="233.446 202.061 233.446 151.37 251.791 140.818 251.743 191.508 233.446 202.061"/>
  <polygon class="uuid-77f4b715-4f5c-453f-8a0b-400af23df594" points="222.013 157.993 222.013 208.628 203.643 219.206 203.717 168.52 222.013 157.993"/>
  <line class="uuid-40fd8aeb-92d9-4880-a061-3fe7aa41f281" x1="172.692" y1="359.501" x2="155.936" y2="349.876"/>
  <path class="uuid-77f4b715-4f5c-453f-8a0b-400af23df594" d="M155.936,349.876c-3.201-2.617-3.375-4.302-3.786-8.308"/>
  <line class="uuid-40fd8aeb-92d9-4880-a061-3fe7aa41f281" x1="186.935" y1="139.302" x2="268.157" y2="92.452"/>
  <path class="uuid-77f4b715-4f5c-453f-8a0b-400af23df594" d="M268.157,92.452c3.664-1.711,5.18-2.395,9.087-.883"/>
  <line class="uuid-40fd8aeb-92d9-4880-a061-3fe7aa41f281" x1="277.244" y1="91.569" x2="293.952" y2="101.195"/>
  <line class="uuid-40fd8aeb-92d9-4880-a061-3fe7aa41f281" x1="284.964" y1="102.078" x2="203.717" y2="148.926"/>
  <path class="uuid-77f4b715-4f5c-453f-8a0b-400af23df594" d="M168.932,351.266c.341,4.007.585,5.619,3.76,8.235"/>
  <line class="uuid-40fd8aeb-92d9-4880-a061-3fe7aa41f281" x1="284.839" y1="299.163" x2="181.706" y2="358.644"/>
  <path class="uuid-77f4b715-4f5c-453f-8a0b-400af23df594" d="M181.706,358.644c-7.035,4.054-12.775.757-12.775-7.378"/>
  <line class="uuid-40fd8aeb-92d9-4880-a061-3fe7aa41f281" x1="281.594" y1="124.378" x2="281.52" y2="172.747"/>
  <path class="uuid-77f4b715-4f5c-453f-8a0b-400af23df594" d="M281.52,172.747c0,.879-.589,1.927-1.321,2.322"/>
  <path class="uuid-77f4b715-4f5c-453f-8a0b-400af23df594" d="M280.078,124.499c.585-.363,1.099-.363,1.516-.121"/>
  <line class="uuid-40fd8aeb-92d9-4880-a061-3fe7aa41f281" x1="173.693" y1="154.692" x2="190.478" y2="164.318"/>
  <path class="uuid-77f4b715-4f5c-453f-8a0b-400af23df594" d="M190.478,164.318c2.902-7.256,6.446-11.479,13.238-15.392"/>
  <path class="uuid-77f4b715-4f5c-453f-8a0b-400af23df594" d="M186.935,139.302c-6.744,3.885-10.284,8.135-13.242,15.39"/>
  <line class="uuid-40fd8aeb-92d9-4880-a061-3fe7aa41f281" x1="168.98" y1="272.925" x2="152.198" y2="263.227"/>
  <line class="uuid-40fd8aeb-92d9-4880-a061-3fe7aa41f281" x1="168.98" y1="258.123" x2="152.198" y2="248.424"/>
  <line class="uuid-40fd8aeb-92d9-4880-a061-3fe7aa41f281" x1="188.788" y1="229.32" x2="172.008" y2="219.6"/>
  <line class="uuid-40fd8aeb-92d9-4880-a061-3fe7aa41f281" x1="168.932" y1="294.008" x2="152.198" y2="284.357"/>
  <line class="uuid-40fd8aeb-92d9-4880-a061-3fe7aa41f281" x1="174.451" y1="287.311" x2="157.717" y2="277.616"/>
  <line class="uuid-3d86e374-2ad4-42b4-aca0-715599d4a892" x1="296.174" y1="270.946" x2="278.905" y2="300.844"/>
  <line class="uuid-3d86e374-2ad4-42b4-aca0-715599d4a892" x1="297.57" y1="223.386" x2="238.452" y2="325.764"/>
  <line class="uuid-3d86e374-2ad4-42b4-aca0-715599d4a892" x1="298.96" y1="175.823" x2="198.024" y2="350.681"/>
  <line class="uuid-3d86e374-2ad4-42b4-aca0-715599d4a892" x1="296.106" y1="135.641" x2="283.154" y2="157.993"/>
  <line class="uuid-3d86e374-2ad4-42b4-aca0-715599d4a892" x1="271.184" y1="178.73" x2="167.71" y2="358.059"/>
  <line class="uuid-3d86e374-2ad4-42b4-aca0-715599d4a892" x1="289.534" y1="101.905" x2="276.292" y2="124.768"/>
  <line class="uuid-3d86e374-2ad4-42b4-aca0-715599d4a892" x1="261.437" y1="150.49" x2="253.597" y2="164.148"/>
  <line class="uuid-3d86e374-2ad4-42b4-aca0-715599d4a892" x1="233.567" y1="198.834" x2="168.88" y2="310.789"/>
  <line class="uuid-3d86e374-2ad4-42b4-aca0-715599d4a892" x1="250.937" y1="123.572" x2="237.158" y2="147.363"/>
  <line class="uuid-3d86e374-2ad4-42b4-aca0-715599d4a892" x1="231.709" y1="156.892" x2="223.794" y2="170.547"/>
  <line class="uuid-3d86e374-2ad4-42b4-aca0-715599d4a892" x1="202.03" y1="208.29" x2="190.478" y2="228.273"/>
  <line class="uuid-3d86e374-2ad4-42b4-aca0-715599d4a892" x1="183.049" y1="241.143" x2="170.616" y2="262.641"/>
  <line class="uuid-3d86e374-2ad4-42b4-aca0-715599d4a892" x1="212.142" y1="145.631" x2="190.136" y2="183.715"/>
  <line class="uuid-3d86e374-2ad4-42b4-aca0-715599d4a892" x1="168.122" y1="291.318" x2="163.36" y2="283.088"/>
  <line class="uuid-3d86e374-2ad4-42b4-aca0-715599d4a892" x1="165.973" y1="254.238" x2="158.769" y2="241.805"/>
  <line class="uuid-3d86e374-2ad4-42b4-aca0-715599d4a892" x1="174.792" y1="246.96" x2="165.779" y2="231.348"/>
  <line class="uuid-3d86e374-2ad4-42b4-aca0-715599d4a892" x1="181.827" y1="236.576" x2="173.817" y2="222.75"/>
  <line class="uuid-3d86e374-2ad4-42b4-aca0-715599d4a892" x1="196.681" y1="152.032" x2="189.546" y2="139.596"/>
  <line class="uuid-3d86e374-2ad4-42b4-aca0-715599d4a892" x1="215.858" y1="140.06" x2="209.114" y2="128.333"/>
  <line class="uuid-3d86e374-2ad4-42b4-aca0-715599d4a892" x1="235.425" y1="128.775" x2="228.681" y2="117.049"/>
  <line class="uuid-3d86e374-2ad4-42b4-aca0-715599d4a892" x1="254.988" y1="117.512" x2="248.199" y2="105.79"/>
  <line class="uuid-3d86e374-2ad4-42b4-aca0-715599d4a892" x1="274.559" y1="106.203" x2="267.766" y2="94.475"/>
  <line class="uuid-3d86e374-2ad4-42b4-aca0-715599d4a892" x1="186.813" y1="226.294" x2="173.645" y2="203.477"/>
  <line class="uuid-3d86e374-2ad4-42b4-aca0-715599d4a892" x1="187.152" y1="204.283" x2="173.645" y2="180.882"/>
  <line class="uuid-3d86e374-2ad4-42b4-aca0-715599d4a892" x1="187.152" y1="181.736" x2="174.034" y2="158.92"/>
  <line class="uuid-3d86e374-2ad4-42b4-aca0-715599d4a892" x1="171.717" y1="283.551" x2="165.731" y2="273.146"/>
  <line class="uuid-3d86e374-2ad4-42b4-aca0-715599d4a892" x1="165.731" y1="269.017" x2="156.447" y2="252.895"/>
  <line class="uuid-3d86e374-2ad4-42b4-aca0-715599d4a892" x1="166.779" y1="354.272" x2="153.834" y2="331.795"/>
  <line class="uuid-3d86e374-2ad4-42b4-aca0-715599d4a892" x1="167.367" y1="332.627" x2="153.834" y2="309.153"/>
  <line class="uuid-3d86e374-2ad4-42b4-aca0-715599d4a892" x1="167.293" y1="310.031" x2="154.298" y2="287.389"/>
</svg>