<?xml version="1.0" encoding="UTF-8"?>
<svg id="uuid-bde540e1-38a8-466e-89f6-d3082afd8cf6" data-name="&amp;lt;Layer&amp;gt;" xmlns="http://www.w3.org/2000/svg" viewBox="0 0 451.11 451.11">
  <defs>
    <style>
      .uuid-be50c752-b32b-4893-929c-1bcf91f5d91c, .uuid-3ab33c4d-8aa4-4a1e-909c-2c8783eca810, .uuid-9ccc6e35-63df-42be-9b61-b9e2592c7e14 {
        fill: none;
        stroke: #000;
        stroke-linecap: round;
      }

      .uuid-be50c752-b32b-4893-929c-1bcf91f5d91c, .uuid-9ccc6e35-63df-42be-9b61-b9e2592c7e14 {
        stroke-linejoin: round;
        stroke-width: 4.113px;
      }

      .uuid-3ab33c4d-8aa4-4a1e-909c-2c8783eca810 {
        stroke-miterlimit: 10;
        stroke-width: 1.159px;
      }

      .uuid-9ccc6e35-63df-42be-9b61-b9e2592c7e14 {
        fill-rule: evenodd;
      }
    </style>
  </defs>
  <path class="uuid-9ccc6e35-63df-42be-9b61-b9e2592c7e14" d="M336.946,258.964q-.243-.048-.487-.048c-.245-.121-.736-.195-1.221-.048-.247,0-.489.048-.736.174-.486.095-.732.267-1.218.511"/>
  <path class="uuid-9ccc6e35-63df-42be-9b61-b9e2592c7e14" d="M338.657,262.706c0-1.737-.489-2.984-1.464-3.543-.979-.563-2.444-.489-3.908.391"/>
  <path class="uuid-9ccc6e35-63df-42be-9b61-b9e2592c7e14" d="M226.042,362.542c0,1.759.489,2.98,1.711,3.54.979.589,2.2.515,3.664-.365"/>
  <polygon class="uuid-9ccc6e35-63df-42be-9b61-b9e2592c7e14" points="322.779 296.976 332.548 291.309 332.548 280 322.779 285.64 322.779 296.976"/>
  <polygon class="uuid-9ccc6e35-63df-42be-9b61-b9e2592c7e14" points="306.41 306.38 316.183 300.74 316.183 289.404 306.41 295.069 306.41 306.38"/>
  <path class="uuid-9ccc6e35-63df-42be-9b61-b9e2592c7e14" d="M337.192,205.761c-.247-.096-.489-.169-.733-.269-.979-.169-1.957.052-3.175.684"/>
  <polyline class="uuid-9ccc6e35-63df-42be-9b61-b9e2592c7e14" points="333.284 206.176 289.312 231.557 231.66 264.877"/>
  <polyline class="uuid-9ccc6e35-63df-42be-9b61-b9e2592c7e14" points="227.753 269.032 158.864 229.187 114.164 203.464"/>
  <path class="uuid-9ccc6e35-63df-42be-9b61-b9e2592c7e14" d="M338.657,209.352c0-1.759-.489-2.98-1.464-3.566-.979-.564-2.444-.489-3.908.389"/>
  <path class="uuid-9ccc6e35-63df-42be-9b61-b9e2592c7e14" d="M226.042,309.166c0,1.733.489,2.98,1.711,3.566.979.562,2.2.489,3.664-.391"/>
  <polygon class="uuid-9ccc6e35-63df-42be-9b61-b9e2592c7e14" points="322.779 243.625 332.548 237.959 332.548 226.622 322.779 232.289 322.779 243.625"/>
  <polygon class="uuid-9ccc6e35-63df-42be-9b61-b9e2592c7e14" points="306.41 253.03 316.183 247.363 316.183 236.027 306.41 241.693 306.41 253.03"/>
  <path class="uuid-9ccc6e35-63df-42be-9b61-b9e2592c7e14" d="M338.657,154.905c0-1.737-.489-2.984-1.464-3.543-.979-.585-2.444-.515-3.908.367"/>
  <path class="uuid-9ccc6e35-63df-42be-9b61-b9e2592c7e14" d="M226.042,254.715c0,1.759.489,3.006,1.711,3.569.979.584,2.2.486,3.664-.395"/>
  <polygon class="uuid-9ccc6e35-63df-42be-9b61-b9e2592c7e14" points="322.779 189.173 332.548 183.507 332.548 172.172 322.779 177.864 322.779 189.173"/>
  <polygon class="uuid-9ccc6e35-63df-42be-9b61-b9e2592c7e14" points="306.41 198.579 316.183 192.912 316.183 181.58 306.41 187.246 306.41 198.579"/>
  <line class="uuid-be50c752-b32b-4893-929c-1bcf91f5d91c" x1="336.946" y1="258.964" x2="330.352" y2="255.252"/>
  <line class="uuid-be50c752-b32b-4893-929c-1bcf91f5d91c" x1="337.192" y1="259.137" x2="336.946" y2="258.964"/>
  <line class="uuid-be50c752-b32b-4893-929c-1bcf91f5d91c" x1="333.284" y1="259.554" x2="231.66" y2="318.253"/>
  <path class="uuid-9ccc6e35-63df-42be-9b61-b9e2592c7e14" d="M231.66,318.253c-1.707.88-2.928,2.392-3.907,4.129"/>
  <line class="uuid-be50c752-b32b-4893-929c-1bcf91f5d91c" x1="227.753" y1="322.382" x2="114.164" y2="256.816"/>
  <path class="uuid-9ccc6e35-63df-42be-9b61-b9e2592c7e14" d="M114.164,256.816c.975-1.781,2.196-2.956,3.907-4.129"/>
  <line class="uuid-be50c752-b32b-4893-929c-1bcf91f5d91c" x1="118.071" y1="252.687" x2="121.003" y2="251.076"/>
  <path class="uuid-9ccc6e35-63df-42be-9b61-b9e2592c7e14" d="M227.753,322.382c-1.221,1.711-1.711,3.664-1.711,5.397"/>
  <line class="uuid-be50c752-b32b-4893-929c-1bcf91f5d91c" x1="226.042" y1="327.779" x2="226.042" y2="362.542"/>
  <line class="uuid-be50c752-b32b-4893-929c-1bcf91f5d91c" x1="231.417" y1="365.717" x2="333.284" y2="306.992"/>
  <path class="uuid-9ccc6e35-63df-42be-9b61-b9e2592c7e14" d="M333.284,306.992c2.93-1.759,5.372-6.034,5.372-9.526"/>
  <line class="uuid-be50c752-b32b-4893-929c-1bcf91f5d91c" x1="338.657" y1="297.466" x2="338.657" y2="262.706"/>
  <path class="uuid-9ccc6e35-63df-42be-9b61-b9e2592c7e14" d="M114.164,256.816c-.979,1.857-1.468,3.273-1.71,5.401"/>
  <line class="uuid-be50c752-b32b-4893-929c-1bcf91f5d91c" x1="112.453" y1="262.217" x2="112.453" y2="296.976"/>
  <path class="uuid-9ccc6e35-63df-42be-9b61-b9e2592c7e14" d="M112.453,296.976c.242,1.541.489,2.637,1.71,3.564"/>
  <line class="uuid-be50c752-b32b-4893-929c-1bcf91f5d91c" x1="114.164" y1="300.541" x2="227.753" y2="366.082"/>
  <line class="uuid-be50c752-b32b-4893-929c-1bcf91f5d91c" x1="329.373" y1="201.364" x2="337.192" y2="205.761"/>
  <path class="uuid-9ccc6e35-63df-42be-9b61-b9e2592c7e14" d="M231.66,264.877c-1.707.88-2.928,2.396-3.907,4.155"/>
  <path class="uuid-9ccc6e35-63df-42be-9b61-b9e2592c7e14" d="M114.164,203.464c.975-1.807,2.196-2.98,3.907-4.128"/>
  <line class="uuid-be50c752-b32b-4893-929c-1bcf91f5d91c" x1="118.071" y1="199.337" x2="121.735" y2="197.115"/>
  <line class="uuid-be50c752-b32b-4893-929c-1bcf91f5d91c" x1="227.753" y1="268.98" x2="227.753" y2="269.006"/>
  <path class="uuid-9ccc6e35-63df-42be-9b61-b9e2592c7e14" d="M227.753,269.006c-1.221,1.711-1.711,3.664-1.711,5.423"/>
  <line class="uuid-be50c752-b32b-4893-929c-1bcf91f5d91c" x1="226.042" y1="274.429" x2="226.042" y2="309.166"/>
  <line class="uuid-be50c752-b32b-4893-929c-1bcf91f5d91c" x1="231.417" y1="312.341" x2="333.284" y2="253.614"/>
  <path class="uuid-9ccc6e35-63df-42be-9b61-b9e2592c7e14" d="M333.284,253.614c1.464-.875,2.93-2.391,3.908-4.076"/>
  <line class="uuid-be50c752-b32b-4893-929c-1bcf91f5d91c" x1="337.192" y1="249.538" x2="337.192" y2="249.512"/>
  <path class="uuid-9ccc6e35-63df-42be-9b61-b9e2592c7e14" d="M337.192,249.512c.975-1.733,1.464-3.665,1.464-5.423"/>
  <line class="uuid-be50c752-b32b-4893-929c-1bcf91f5d91c" x1="338.657" y1="244.089" x2="338.657" y2="209.352"/>
  <path class="uuid-9ccc6e35-63df-42be-9b61-b9e2592c7e14" d="M114.164,203.438c-.979,1.859-1.468,3.301-1.71,5.427"/>
  <line class="uuid-be50c752-b32b-4893-929c-1bcf91f5d91c" x1="112.453" y1="208.865" x2="112.453" y2="243.6"/>
  <path class="uuid-9ccc6e35-63df-42be-9b61-b9e2592c7e14" d="M112.453,243.6c.242,1.541.489,2.663,1.71,3.568"/>
  <line class="uuid-be50c752-b32b-4893-929c-1bcf91f5d91c" x1="114.164" y1="247.168" x2="227.753" y2="312.731"/>
  <path class="uuid-9ccc6e35-63df-42be-9b61-b9e2592c7e14" d="M227.753,312.731c-1.464-.902-1.711-2.049-1.711-3.566"/>
  <line class="uuid-be50c752-b32b-4893-929c-1bcf91f5d91c" x1="337.192" y1="151.361" x2="223.599" y2="85.794"/>
  <path class="uuid-9ccc6e35-63df-42be-9b61-b9e2592c7e14" d="M223.599,85.794c-1.465-.684-2.444-.315-3.908.395"/>
  <line class="uuid-be50c752-b32b-4893-929c-1bcf91f5d91c" x1="219.691" y1="86.189" x2="118.071" y2="144.886"/>
  <path class="uuid-9ccc6e35-63df-42be-9b61-b9e2592c7e14" d="M118.071,144.886c-1.953,1.147-2.932,2.321-3.907,4.106"/>
  <line class="uuid-be50c752-b32b-4893-929c-1bcf91f5d91c" x1="114.164" y1="148.991" x2="227.753" y2="214.555"/>
  <path class="uuid-9ccc6e35-63df-42be-9b61-b9e2592c7e14" d="M227.753,214.555c.979-1.807,1.953-2.954,3.664-4.103"/>
  <line class="uuid-be50c752-b32b-4893-929c-1bcf91f5d91c" x1="231.417" y1="210.452" x2="333.284" y2="151.729"/>
  <path class="uuid-9ccc6e35-63df-42be-9b61-b9e2592c7e14" d="M227.753,214.555c-1.221,1.737-1.711,3.664-1.711,5.423"/>
  <line class="uuid-be50c752-b32b-4893-929c-1bcf91f5d91c" x1="226.042" y1="219.978" x2="226.042" y2="254.715"/>
  <line class="uuid-be50c752-b32b-4893-929c-1bcf91f5d91c" x1="231.417" y1="257.89" x2="333.284" y2="199.189"/>
  <path class="uuid-9ccc6e35-63df-42be-9b61-b9e2592c7e14" d="M333.284,199.189c1.464-.879,2.93-2.391,3.908-4.102"/>
  <path class="uuid-9ccc6e35-63df-42be-9b61-b9e2592c7e14" d="M337.192,195.087c.975-1.737,1.464-3.666,1.464-5.424"/>
  <line class="uuid-be50c752-b32b-4893-929c-1bcf91f5d91c" x1="338.657" y1="189.663" x2="338.657" y2="154.905"/>
  <path class="uuid-9ccc6e35-63df-42be-9b61-b9e2592c7e14" d="M114.164,149.013c-.979,1.859-1.468,3.275-1.71,5.424"/>
  <line class="uuid-be50c752-b32b-4893-929c-1bcf91f5d91c" x1="112.453" y1="154.438" x2="112.453" y2="189.173"/>
  <path class="uuid-9ccc6e35-63df-42be-9b61-b9e2592c7e14" d="M112.453,189.173c.242,1.516.489,2.639,1.71,3.569"/>
  <line class="uuid-be50c752-b32b-4893-929c-1bcf91f5d91c" x1="114.164" y1="192.743" x2="227.753" y2="258.284"/>
  <path class="uuid-9ccc6e35-63df-42be-9b61-b9e2592c7e14" d="M227.753,258.284c-1.464-.906-1.711-2.028-1.711-3.569"/>
  <line class="uuid-be50c752-b32b-4893-929c-1bcf91f5d91c" x1="236.057" y1="231.608" x2="297.127" y2="196.257"/>
  <line class="uuid-be50c752-b32b-4893-929c-1bcf91f5d91c" x1="236.057" y1="286.055" x2="297.127" y2="250.708"/>
  <line class="uuid-be50c752-b32b-4893-929c-1bcf91f5d91c" x1="236.057" y1="339.433" x2="297.127" y2="304.084"/>
  <line class="uuid-3ab33c4d-8aa4-4a1e-909c-2c8783eca810" x1="313.007" y1="267.662" x2="312.028" y2="269.521"/>
  <line class="uuid-3ab33c4d-8aa4-4a1e-909c-2c8783eca810" x1="293.709" y1="278.851" x2="292.731" y2="280.732"/>
  <line class="uuid-3ab33c4d-8aa4-4a1e-909c-2c8783eca810" x1="273.921" y1="290.184" x2="272.943" y2="292.089"/>
  <line class="uuid-3ab33c4d-8aa4-4a1e-909c-2c8783eca810" x1="254.623" y1="301.351" x2="253.644" y2="303.253"/>
  <line class="uuid-3ab33c4d-8aa4-4a1e-909c-2c8783eca810" x1="235.081" y1="312.709" x2="233.86" y2="314.637"/>
  <line class="uuid-3ab33c4d-8aa4-4a1e-909c-2c8783eca810" x1="222.377" y1="311.903" x2="220.18" y2="315.784"/>
  <line class="uuid-3ab33c4d-8aa4-4a1e-909c-2c8783eca810" x1="212.608" y1="306.259" x2="210.408" y2="310.14"/>
  <line class="uuid-3ab33c4d-8aa4-4a1e-909c-2c8783eca810" x1="202.836" y1="300.567" x2="200.639" y2="304.475"/>
  <line class="uuid-3ab33c4d-8aa4-4a1e-909c-2c8783eca810" x1="193.068" y1="294.949" x2="190.866" y2="298.856"/>
  <line class="uuid-3ab33c4d-8aa4-4a1e-909c-2c8783eca810" x1="183.295" y1="289.304" x2="181.095" y2="293.212"/>
  <line class="uuid-3ab33c4d-8aa4-4a1e-909c-2c8783eca810" x1="173.522" y1="283.612" x2="171.322" y2="287.549"/>
  <line class="uuid-3ab33c4d-8aa4-4a1e-909c-2c8783eca810" x1="163.75" y1="278.02" x2="161.554" y2="281.979"/>
  <line class="uuid-3ab33c4d-8aa4-4a1e-909c-2c8783eca810" x1="153.981" y1="272.327" x2="151.781" y2="276.309"/>
  <line class="uuid-3ab33c4d-8aa4-4a1e-909c-2c8783eca810" x1="144.208" y1="266.636" x2="141.766" y2="270.62"/>
  <line class="uuid-3ab33c4d-8aa4-4a1e-909c-2c8783eca810" x1="134.437" y1="261.044" x2="132.24" y2="265.025"/>
  <line class="uuid-3ab33c4d-8aa4-4a1e-909c-2c8783eca810" x1="124.664" y1="255.377" x2="122.467" y2="259.332"/>
  <line class="uuid-3ab33c4d-8aa4-4a1e-909c-2c8783eca810" x1="115.138" y1="245.289" x2="114.649" y2="244.531"/>
  <line class="uuid-3ab33c4d-8aa4-4a1e-909c-2c8783eca810" x1="135.416" y1="257.819" x2="113.917" y2="220.567"/>
  <line class="uuid-3ab33c4d-8aa4-4a1e-909c-2c8783eca810" x1="155.445" y1="269.932" x2="119.292" y2="207.423"/>
  <line class="uuid-3ab33c4d-8aa4-4a1e-909c-2c8783eca810" x1="174.987" y1="281.316" x2="138.833" y2="218.782"/>
  <line class="uuid-3ab33c4d-8aa4-4a1e-909c-2c8783eca810" x1="194.532" y1="292.557" x2="158.621" y2="230.115"/>
  <line class="uuid-3ab33c4d-8aa4-4a1e-909c-2c8783eca810" x1="214.073" y1="303.889" x2="177.919" y2="241.354"/>
  <line class="uuid-3ab33c4d-8aa4-4a1e-909c-2c8783eca810" x1="224.821" y1="300.077" x2="197.707" y2="253.103"/>
  <line class="uuid-3ab33c4d-8aa4-4a1e-909c-2c8783eca810" x1="224.089" y1="276.213" x2="217.98" y2="265.587"/>
  <line class="uuid-3ab33c4d-8aa4-4a1e-909c-2c8783eca810" x1="331.573" y1="204.786" x2="331.327" y2="204.981"/>
  <line class="uuid-3ab33c4d-8aa4-4a1e-909c-2c8783eca810" x1="313.983" y1="212.601" x2="312.028" y2="216.239"/>
  <line class="uuid-3ab33c4d-8aa4-4a1e-909c-2c8783eca810" x1="294.441" y1="223.962" x2="292.244" y2="227.55"/>
  <line class="uuid-3ab33c4d-8aa4-4a1e-909c-2c8783eca810" x1="274.9" y1="235.147" x2="272.943" y2="238.739"/>
  <line class="uuid-3ab33c4d-8aa4-4a1e-909c-2c8783eca810" x1="255.355" y1="246.51" x2="253.159" y2="250.096"/>
  <line class="uuid-3ab33c4d-8aa4-4a1e-909c-2c8783eca810" x1="235.571" y1="257.868" x2="233.617" y2="261.485"/>
  <line class="uuid-3ab33c4d-8aa4-4a1e-909c-2c8783eca810" x1="222.866" y1="257.599" x2="220.18" y2="262.386"/>
  <line class="uuid-3ab33c4d-8aa4-4a1e-909c-2c8783eca810" x1="213.095" y1="251.929" x2="210.408" y2="256.72"/>
  <line class="uuid-3ab33c4d-8aa4-4a1e-909c-2c8783eca810" x1="203.326" y1="246.241" x2="200.393" y2="251.05"/>
  <line class="uuid-3ab33c4d-8aa4-4a1e-909c-2c8783eca810" x1="193.553" y1="240.67" x2="190.866" y2="245.457"/>
  <line class="uuid-3ab33c4d-8aa4-4a1e-909c-2c8783eca810" x1="183.781" y1="234.979" x2="180.852" y2="239.792"/>
  <line class="uuid-3ab33c4d-8aa4-4a1e-909c-2c8783eca810" x1="174.012" y1="229.335" x2="171.08" y2="234.147"/>
  <line class="uuid-3ab33c4d-8aa4-4a1e-909c-2c8783eca810" x1="164.239" y1="223.742" x2="161.307" y2="228.529"/>
  <line class="uuid-3ab33c4d-8aa4-4a1e-909c-2c8783eca810" x1="154.224" y1="218.05" x2="151.538" y2="222.862"/>
  <line class="uuid-3ab33c4d-8aa4-4a1e-909c-2c8783eca810" x1="144.698" y1="212.479" x2="142.008" y2="217.27"/>
  <line class="uuid-3ab33c4d-8aa4-4a1e-909c-2c8783eca810" x1="134.926" y1="206.787" x2="131.993" y2="211.6"/>
  <line class="uuid-3ab33c4d-8aa4-4a1e-909c-2c8783eca810" x1="124.911" y1="201.121" x2="122.222" y2="205.907"/>
  <line class="uuid-3ab33c4d-8aa4-4a1e-909c-2c8783eca810" x1="135.416" y1="203.416" x2="113.917" y2="166.285"/>
  <line class="uuid-3ab33c4d-8aa4-4a1e-909c-2c8783eca810" x1="155.445" y1="215.507" x2="119.045" y2="152.9"/>
  <line class="uuid-3ab33c4d-8aa4-4a1e-909c-2c8783eca810" x1="174.744" y1="226.77" x2="138.833" y2="164.235"/>
  <line class="uuid-3ab33c4d-8aa4-4a1e-909c-2c8783eca810" x1="194.532" y1="238.105" x2="158.379" y2="175.568"/>
  <line class="uuid-3ab33c4d-8aa4-4a1e-909c-2c8783eca810" x1="214.073" y1="249.416" x2="177.919" y2="186.804"/>
  <line class="uuid-3ab33c4d-8aa4-4a1e-909c-2c8783eca810" x1="224.821" y1="245.726" x2="197.707" y2="198.579"/>
  <line class="uuid-3ab33c4d-8aa4-4a1e-909c-2c8783eca810" x1="224.089" y1="221.788" x2="217.98" y2="211.111"/>
  <line class="uuid-3ab33c4d-8aa4-4a1e-909c-2c8783eca810" x1="319.847" y1="142.664" x2="306.9" y2="165.185"/>
  <line class="uuid-3ab33c4d-8aa4-4a1e-909c-2c8783eca810" x1="301.038" y1="130.205" x2="267.081" y2="188.883"/>
  <line class="uuid-3ab33c4d-8aa4-4a1e-909c-2c8783eca810" x1="282.23" y1="117.746" x2="227.264" y2="213.016"/>
  <line class="uuid-3ab33c4d-8aa4-4a1e-909c-2c8783eca810" x1="262.685" y1="106.414" x2="206.254" y2="203.954"/>
  <line class="uuid-3ab33c4d-8aa4-4a1e-909c-2c8783eca810" x1="242.897" y1="95.078" x2="186.713" y2="192.669"/>
  <line class="uuid-3ab33c4d-8aa4-4a1e-909c-2c8783eca810" x1="222.866" y1="84.647" x2="167.171" y2="181.382"/>
  <line class="uuid-3ab33c4d-8aa4-4a1e-909c-2c8783eca810" x1="183.295" y1="108.268" x2="148.363" y2="168.948"/>
  <line class="uuid-3ab33c4d-8aa4-4a1e-909c-2c8783eca810" x1="143.476" y1="132.037" x2="129.307" y2="156.442"/>
  <line class="uuid-3ab33c4d-8aa4-4a1e-909c-2c8783eca810" x1="135.169" y1="311.071" x2="113.917" y2="274.16"/>
  <line class="uuid-3ab33c4d-8aa4-4a1e-909c-2c8783eca810" x1="155.202" y1="323.214" x2="119.045" y2="260.675"/>
  <line class="uuid-3ab33c4d-8aa4-4a1e-909c-2c8783eca810" x1="174.744" y1="334.473" x2="138.833" y2="272.012"/>
  <line class="uuid-3ab33c4d-8aa4-4a1e-909c-2c8783eca810" x1="194.285" y1="345.83" x2="158.379" y2="283.343"/>
  <line class="uuid-3ab33c4d-8aa4-4a1e-909c-2c8783eca810" x1="214.073" y1="357.193" x2="177.919" y2="294.606"/>
  <line class="uuid-3ab33c4d-8aa4-4a1e-909c-2c8783eca810" x1="224.821" y1="353.576" x2="197.707" y2="306.38"/>
  <line class="uuid-3ab33c4d-8aa4-4a1e-909c-2c8783eca810" x1="224.089" y1="329.66" x2="217.98" y2="318.938"/>
</svg>