<?xml version="1.0" encoding="UTF-8"?>
<svg id="uuid-1bc22316-245b-4f97-afb2-a9b1c49948e9" data-name="&amp;lt;Layer&amp;gt;" xmlns="http://www.w3.org/2000/svg" viewBox="0 0 451.11 451.11">
  <defs>
    <style>
      .uuid-a2810c00-3793-4d08-8991-6a5daece2f4c, .uuid-b31f7fdf-25b5-4cf7-9d68-4f1921496158, .uuid-3c6815dd-b37a-4a5d-9827-a8327ff22474 {
        fill: none;
        stroke: #000;
        stroke-linecap: round;
      }

      .uuid-a2810c00-3793-4d08-8991-6a5daece2f4c, .uuid-3c6815dd-b37a-4a5d-9827-a8327ff22474 {
        stroke-linejoin: round;
        stroke-width: 4.117px;
      }

      .uuid-b31f7fdf-25b5-4cf7-9d68-4f1921496158 {
        stroke-miterlimit: 10;
        stroke-width: 1.163px;
      }

      .uuid-3c6815dd-b37a-4a5d-9827-a8327ff22474 {
        fill-rule: evenodd;
      }
    </style>
  </defs>
  <path class="uuid-3c6815dd-b37a-4a5d-9827-a8327ff22474" d="M151.241,211.63c3.249,106.359-13.754,171.241,86.303,141.265,99.988-85.424,83.033-130.686,86.407-240.884,1.049-35.226-173.762,65.588-172.709,99.619Z"/>
  <polyline class="uuid-3c6815dd-b37a-4a5d-9827-a8327ff22474" points="237.543 241.676 237.475 352.895 237.543 352.895"/>
  <polyline class="uuid-3c6815dd-b37a-4a5d-9827-a8327ff22474" points="152.293 290.873 237.543 241.676 237.595 135.874"/>
  <path class="uuid-3c6815dd-b37a-4a5d-9827-a8327ff22474" d="M127.155,193.965c.391-1.707.928-3.64,1.564-5.714,8.058-16.83,45.922-44.925,84.203-66.616"/>
  <polyline class="uuid-3c6815dd-b37a-4a5d-9827-a8327ff22474" points="212.922 121.635 227.481 130.062 237.595 135.874"/>
  <path class="uuid-3c6815dd-b37a-4a5d-9827-a8327ff22474" d="M129.134,296.807c.733,39.869,14.902,40.844,44.702,58.016-16.561-11.527-19.273-30.679-20.863-50.367"/>
  <path class="uuid-3c6815dd-b37a-4a5d-9827-a8327ff22474" d="M152.974,304.456l-.68-13.584M152.241,290.383l.515-5.593"/>
  <polyline class="uuid-3c6815dd-b37a-4a5d-9827-a8327ff22474" points="128.719 277.093 152.293 290.899 152.293 290.873 152.241 290.383"/>
  <polyline class="uuid-3c6815dd-b37a-4a5d-9827-a8327ff22474" points="152.757 284.79 151.656 208.234 127.155 194.09 128.719 277.093"/>
  <line class="uuid-a2810c00-3793-4d08-8991-6a5daece2f4c" x1="319.892" y1="105.535" x2="295.365" y2="91.37"/>
  <path class="uuid-3c6815dd-b37a-4a5d-9827-a8327ff22474" d="M295.365,91.37c-14.114-3.371-49.112,11.221-83.555,30.862"/>
  <line class="uuid-a2810c00-3793-4d08-8991-6a5daece2f4c" x1="127.155" y1="194.09" x2="151.656" y2="208.234"/>
  <path class="uuid-3c6815dd-b37a-4a5d-9827-a8327ff22474" d="M237.543,352.895c71.65-61.218,83.276-101.789,85.307-160.416"/>
  <line class="uuid-a2810c00-3793-4d08-8991-6a5daece2f4c" x1="322.851" y1="192.479" x2="237.543" y2="241.676"/>
  <line class="uuid-a2810c00-3793-4d08-8991-6a5daece2f4c" x1="128.719" y1="277.093" x2="129.134" y2="296.807"/>
  <line class="uuid-b31f7fdf-25b5-4cf7-9d68-4f1921496158" x1="157.349" y1="335.65" x2="134.802" y2="322.629"/>
  <line class="uuid-b31f7fdf-25b5-4cf7-9d68-4f1921496158" x1="151.83" y1="306.385" x2="130.526" y2="294.047"/>
  <line class="uuid-b31f7fdf-25b5-4cf7-9d68-4f1921496158" x1="240.16" y1="132.894" x2="218.198" y2="120.219"/>
  <line class="uuid-b31f7fdf-25b5-4cf7-9d68-4f1921496158" x1="263.609" y1="120.366" x2="242.136" y2="107.956"/>
  <line class="uuid-b31f7fdf-25b5-4cf7-9d68-4f1921496158" x1="289.162" y1="109.057" x2="268.494" y2="97.11"/>
  <line class="uuid-b31f7fdf-25b5-4cf7-9d68-4f1921496158" x1="163.261" y1="282.862" x2="154.317" y2="267.424"/>
  <line class="uuid-b31f7fdf-25b5-4cf7-9d68-4f1921496158" x1="183.535" y1="272.795" x2="152.974" y2="219.886"/>
  <line class="uuid-b31f7fdf-25b5-4cf7-9d68-4f1921496158" x1="203.47" y1="262.122" x2="162.331" y2="190.985"/>
  <line class="uuid-b31f7fdf-25b5-4cf7-9d68-4f1921496158" x1="223.084" y1="251.006" x2="179.115" y2="174.887"/>
  <line class="uuid-b31f7fdf-25b5-4cf7-9d68-4f1921496158" x1="236.837" y1="229.681" x2="197.289" y2="161.208"/>
  <line class="uuid-b31f7fdf-25b5-4cf7-9d68-4f1921496158" x1="236.201" y1="183.412" x2="216.682" y2="149.58"/>
  <line class="uuid-b31f7fdf-25b5-4cf7-9d68-4f1921496158" x1="154.737" y1="199.362" x2="131.431" y2="185.907"/>
  <line class="uuid-b31f7fdf-25b5-4cf7-9d68-4f1921496158" x1="161.819" y1="190.374" x2="138.588" y2="176.989"/>
  <line class="uuid-b31f7fdf-25b5-4cf7-9d68-4f1921496158" x1="169.88" y1="182.022" x2="147.013" y2="168.806"/>
  <line class="uuid-b31f7fdf-25b5-4cf7-9d68-4f1921496158" x1="178.722" y1="174.107" x2="156.174" y2="161.063"/>
  <line class="uuid-b31f7fdf-25b5-4cf7-9d68-4f1921496158" x1="188.226" y1="166.558" x2="165.826" y2="153.613"/>
  <line class="uuid-b31f7fdf-25b5-4cf7-9d68-4f1921496158" x1="198.215" y1="159.28" x2="175.862" y2="146.379"/>
  <line class="uuid-b31f7fdf-25b5-4cf7-9d68-4f1921496158" x1="208.624" y1="152.245" x2="186.32" y2="139.37"/>
  <line class="uuid-b31f7fdf-25b5-4cf7-9d68-4f1921496158" x1="219.297" y1="145.378" x2="197.068" y2="132.557"/>
  <line class="uuid-b31f7fdf-25b5-4cf7-9d68-4f1921496158" x1="230.291" y1="138.66" x2="208.157" y2="125.907"/>
  <line class="uuid-b31f7fdf-25b5-4cf7-9d68-4f1921496158" x1="150.266" y1="276.924" x2="141.031" y2="282.251"/>
  <line class="uuid-b31f7fdf-25b5-4cf7-9d68-4f1921496158" x1="150.531" y1="263.733" x2="130.161" y2="275.507"/>
  <line class="uuid-b31f7fdf-25b5-4cf7-9d68-4f1921496158" x1="150.483" y1="250.737" x2="129.868" y2="262.633"/>
  <line class="uuid-b31f7fdf-25b5-4cf7-9d68-4f1921496158" x1="150.435" y1="237.742" x2="129.646" y2="249.736"/>
  <line class="uuid-b31f7fdf-25b5-4cf7-9d68-4f1921496158" x1="150.266" y1="224.772" x2="129.403" y2="236.837"/>
  <line class="uuid-b31f7fdf-25b5-4cf7-9d68-4f1921496158" x1="149.971" y1="211.92" x2="129.182" y2="223.941"/>
  <line class="uuid-b31f7fdf-25b5-4cf7-9d68-4f1921496158" x1="141.079" y1="204.006" x2="129.182" y2="210.894"/>
  <line class="uuid-b31f7fdf-25b5-4cf7-9d68-4f1921496158" x1="129.403" y1="197.729" x2="129.353" y2="197.777"/>
  <line class="uuid-b31f7fdf-25b5-4cf7-9d68-4f1921496158" x1="246.901" y1="342.611" x2="239.402" y2="329.641"/>
  <line class="uuid-b31f7fdf-25b5-4cf7-9d68-4f1921496158" x1="264.319" y1="327.611" x2="238.817" y2="283.472"/>
  <line class="uuid-b31f7fdf-25b5-4cf7-9d68-4f1921496158" x1="280.81" y1="311.028" x2="239.697" y2="239.791"/>
  <line class="uuid-b31f7fdf-25b5-4cf7-9d68-4f1921496158" x1="295.317" y1="290.993" x2="259.385" y2="228.801"/>
  <line class="uuid-b31f7fdf-25b5-4cf7-9d68-4f1921496158" x1="307.677" y1="267.298" x2="279.173" y2="217.933"/>
  <line class="uuid-b31f7fdf-25b5-4cf7-9d68-4f1921496158" x1="316.57" y1="237.569" x2="299.104" y2="207.255"/>
  <line class="uuid-b31f7fdf-25b5-4cf7-9d68-4f1921496158" x1="320.576" y1="199.34" x2="319.185" y2="196.875"/>
</svg>