<?xml version="1.0" encoding="UTF-8"?>
<svg id="uuid-d005e42c-3cc6-47ae-89d4-242cbaf6a97d" data-name="&amp;lt;Layer&amp;gt;" xmlns="http://www.w3.org/2000/svg" viewBox="0 0 451.11 451.11">
  <defs>
    <style>
      .uuid-91b12ccf-4577-4a05-ae20-f189a27b1e49, .uuid-31e8f2a5-0045-4f88-bdb0-32ae46fb67b5, .uuid-aa5339ea-f013-4680-8231-0088d65be57d {
        fill: none;
        stroke: #000;
        stroke-linecap: round;
      }

      .uuid-91b12ccf-4577-4a05-ae20-f189a27b1e49, .uuid-aa5339ea-f013-4680-8231-0088d65be57d {
        stroke-linejoin: round;
        stroke-width: 4.113px;
      }

      .uuid-31e8f2a5-0045-4f88-bdb0-32ae46fb67b5 {
        stroke-miterlimit: 10;
        stroke-width: 1.163px;
      }

      .uuid-aa5339ea-f013-4680-8231-0088d65be57d {
        fill-rule: evenodd;
      }
    </style>
  </defs>
  <path class="uuid-aa5339ea-f013-4680-8231-0088d65be57d" d="M298.548,256.488c-7.334,6.939-14.096,16.704-18.007,25.965-2.804,6.343-5.056,13.97-5.618,20.913,0,.169-.07.338-.07.511-.21,2.848-.228,10.394,1.001,13.459.57,2.366,1.31,3.495,2.1,5.545"/>
  <path class="uuid-aa5339ea-f013-4680-8231-0088d65be57d" d="M104.123,231.692c0-.926.073-1.807.173-2.613.121-.809.243-1.516.415-2.2.291-1.269.754-2.491,1.343-3.616,1.611-3.297,4.224-5.96,7.667-8.11"/>
  <polyline class="uuid-aa5339ea-f013-4680-8231-0088d65be57d" points="149.363 372.52 149.317 372.472 105.465 346.966 104.538 346.161 103.78 345.112 103.78 337.977"/>
  <polyline class="uuid-aa5339ea-f013-4680-8231-0088d65be57d" points="148.437 305.025 148.437 295.573 148.485 274.369"/>
  <path class="uuid-aa5339ea-f013-4680-8231-0088d65be57d" d="M152.322,246.276q-.051-.073,0-.073c.585-.684,1.123-1.321,1.708-1.907.269-.415.562-.71.905-.927.365-.295.658-.588,1.001-.879.684-.637,1.394-1.1,2.075-1.49"/>
  <path class="uuid-aa5339ea-f013-4680-8231-0088d65be57d" d="M299.596,159.334c.247-.122.415-.217.658-.291.269-.172.563-.294.858-.39.341-.195.706-.293.975-.415,1.685-.636,2.98-.636,5.302.221"/>
  <path class="uuid-aa5339ea-f013-4680-8231-0088d65be57d" d="M148.385,369.955c0,.806.174,1.516.515,1.98q0,.048.074.122c.096.169.217.295.343.415"/>
  <path class="uuid-aa5339ea-f013-4680-8231-0088d65be57d" d="M148.385,253.407c.515-1.512,1.221-3.002,2.08-4.47.537-.927,1.169-1.855,1.857-2.661q-.051-.073,0-.073c.585-.684,1.123-1.321,1.708-1.907.269-.415.562-.71.905-.927.365-.295.658-.588,1.001-.879.684-.637,1.394-1.1,2.075-1.49"/>
  <path class="uuid-aa5339ea-f013-4680-8231-0088d65be57d" d="M299.596,159.334c.247-.122.415-.217.658-.291.269-.172.563-.294.858-.39.341-.195.706-.293.975-.415,4.717-1.468,8.257,1.442,8.257,7.304"/>
  <path class="uuid-aa5339ea-f013-4680-8231-0088d65be57d" d="M165.756,218.281c-.537,2.152-1.686,3.418-3.445,4.691-6.622,4.544-19.445,4.665-25.306-1.442-.931-1.053-1.395-1.907-1.688-3.249"/>
  <path class="uuid-aa5339ea-f013-4680-8231-0088d65be57d" d="M135.317,211.783c.124.511.293,1.099.588,1.611.1.294.291.589.464.832.758,1.027,1.858,2.027,3.345,2.88"/>
  <path class="uuid-aa5339ea-f013-4680-8231-0088d65be57d" d="M139.791,217.106c.511.369,1.095.637,1.685.884.048,0,.121.07.169.07.585.221,1.221.441,1.807.636.1.048.173.096.221.048.71.221,1.468.389,2.222.537.685.099,1.395.221,2.079.269.876.125,1.733.173,2.686.173.926,0,1.784-.048,2.711-.173.758-.048,1.516-.17,2.27-.339.343-.078.758-.173,1.101-.247.71-.173,1.342-.391,1.979-.637.927-.337,1.807-.757,2.612-1.221,1.859-1.025,3.128-2.317,3.764-3.712.122-.221.291-.511.365-.806.173-.293.221-.584.295-.879"/>
  <path class="uuid-aa5339ea-f013-4680-8231-0088d65be57d" d="M139.713,217.106c-1.486-.853-2.587-1.854-3.345-2.88-.173-.243-.363-.538-.464-.832-.295-.511-.463-1.099-.588-1.611-.413-2.565,1.051-5.182,4.396-7.083,5.938-3.496,15.637-3.496,21.619,0,3.714,2.148,5.108,5.104,4.129,7.888"/>
  <polyline class="uuid-aa5339ea-f013-4680-8231-0088d65be57d" points="231.197 150.444 231.127 175.777 220.791 169.79 220.791 144.362"/>
  <polyline class="uuid-aa5339ea-f013-4680-8231-0088d65be57d" points="231.197 150.444 231.127 175.777 274.121 150.981 274.121 134.616"/>
  <polyline class="uuid-aa5339ea-f013-4680-8231-0088d65be57d" points="238.916 129.608 238.916 129.656 238.967 129.656 267.597 113.117 272.358 110.383 272.41 110.383 273.19 109.919 273.363 109.794 273.411 109.794 274.121 109.379 274.121 109.331 275.731 108.404 289.948 100.22"/>
  <polyline class="uuid-aa5339ea-f013-4680-8231-0088d65be57d" points="238.916 129.608 238.916 129.656 238.967 129.656 238.967 135.178 238.916 142.894 238.916 154.94 231.197 150.444 228.584 148.954 228.536 148.954 220.791 144.409 215.272 141.208 215.272 116.027"/>
  <polygon class="uuid-aa5339ea-f013-4680-8231-0088d65be57d" points="238.916 120.888 215.221 107.255 266.275 77.821 289.948 91.45 238.916 120.888"/>
  <polygon class="uuid-aa5339ea-f013-4680-8231-0088d65be57d" points="289.948 100.22 289.948 125.479 274.121 134.616 270.114 136.911 238.916 154.94 238.916 142.894 238.967 135.178 238.967 129.656 267.597 113.117 272.358 110.383 272.41 110.383 273.19 109.919 273.363 109.794 273.411 109.794 274.121 109.379 274.121 109.331 275.731 108.404 289.948 100.22"/>
  <polyline class="uuid-aa5339ea-f013-4680-8231-0088d65be57d" points="238.916 127.749 238.967 122.988 238.967 120.957 289.948 91.496 289.948 100.22 275.731 108.404 274.121 109.331 274.121 109.379 273.411 109.794 273.363 109.794 273.19 109.919 272.41 110.383 272.358 110.383 267.597 113.117"/>
  <polyline class="uuid-aa5339ea-f013-4680-8231-0088d65be57d" points="220.791 144.362 215.272 141.16 215.272 107.255 222.818 111.653 222.893 111.653 225.847 113.412 238.331 120.593 238.967 120.957 238.967 122.988 238.916 127.749 238.916 129.656"/>
  <polyline class="uuid-aa5339ea-f013-4680-8231-0088d65be57d" points="150.538 248.985 150.464 248.937 106.054 223.263"/>
  <path class="uuid-aa5339ea-f013-4680-8231-0088d65be57d" d="M106.054,223.263c-.589,1.125-1.053,2.347-1.343,3.616-.173.684-.295,1.391-.415,2.2-.1.806-.173,1.686-.173,2.613"/>
  <polyline class="uuid-aa5339ea-f013-4680-8231-0088d65be57d" points="148.437 295.573 148.437 305.025 148.385 363.042"/>
  <path class="uuid-aa5339ea-f013-4680-8231-0088d65be57d" d="M148.485,274.369s-.048-.052,0-.1c0-.293.121-.632.317-.953.048-.221.173-.437.269-.684.367-.633.758-1.049,1.342-1.343.052-.047.172-.095.247-.169"/>
  <polyline class="uuid-aa5339ea-f013-4680-8231-0088d65be57d" points="150.659 271.12 157.742 267.065 158.084 266.892 158.963 266.355"/>
  <path class="uuid-aa5339ea-f013-4680-8231-0088d65be57d" d="M158.963,266.355c.463-.221.854-.389,1.321-.585.879-.389,1.733-.732,2.612-.979.122-.046.247-.098.343-.098.758-.195,1.464-.365,2.148-.486.832-.1,1.638-.17,2.396-.17.511,0,1.025.07,1.563.122.417,0,.806.121,1.221.169.465.17,1.001.294,1.439.463.54.247,1.051.465,1.589.71,4.055,2.245,6.598,7.253,6.598,14.339"/>
  <path class="uuid-aa5339ea-f013-4680-8231-0088d65be57d" d="M180.193,321.244c-.052,7.087-2.543,15.027-6.67,22.058-4.055,6.965-9.747,13.12-15.951,16.738"/>
  <polyline class="uuid-aa5339ea-f013-4680-8231-0088d65be57d" points="157.572 360.039 150.412 364.167 150.364 364.215"/>
  <path class="uuid-aa5339ea-f013-4680-8231-0088d65be57d" d="M150.364,364.215c-.536.291-1.047.291-1.39.122-.125-.122-.247-.17-.295-.369-.074,0-.121-.048-.074-.095"/>
  <path class="uuid-aa5339ea-f013-4680-8231-0088d65be57d" d="M158.963,266.355c.463-.221.854-.389,1.321-.585.879-.389,1.733-.732,2.612-.979.122-.046.247-.098.343-.098.706-.243,1.464-.413,2.148-.486.832-.17,1.59-.221,2.396-.17.584-.051,1.025,0,1.563.122.417,0,.806.121,1.221.169.465.17,1.001.294,1.439.463.54.247,1.051.465,1.589.71"/>
  <path class="uuid-aa5339ea-f013-4680-8231-0088d65be57d" d="M164.364,259.931c-1.468-.758-2.615-1.123-4.254-1.343-4.054-.367-6.961.585-10.573,2.37"/>
  <polyline class="uuid-aa5339ea-f013-4680-8231-0088d65be57d" points="149.537 260.958 148.385 261.594 104.123 235.993 104.123 232.745 98.552 235.942"/>
  <path class="uuid-aa5339ea-f013-4680-8231-0088d65be57d" d="M98.552,235.942c-2.366,1.321-5.398,2.443-6.203,4.813-.17.463-.242.758-.294,1.221"/>
  <polyline class="uuid-aa5339ea-f013-4680-8231-0088d65be57d" points="92.642 331.506 103.78 337.977 104.416 338.32 148.142 363.531"/>
  <polyline class="uuid-aa5339ea-f013-4680-8231-0088d65be57d" points="92.349 240.755 99.847 245.103 148.385 273.096 148.801 273.316"/>
  <path class="uuid-aa5339ea-f013-4680-8231-0088d65be57d" d="M317.088,210.682c.463.1.927.221,1.316.393.417.07.711.243,1.175.343"/>
  <polyline class="uuid-aa5339ea-f013-4680-8231-0088d65be57d" points="319.579 211.418 310.344 206.138 283.693 190.92"/>
  <path class="uuid-aa5339ea-f013-4680-8231-0088d65be57d" d="M283.693,190.92c-19.271-6.325-41.187,10.873-53.034,24.696-19.567,22.868-38.888,70.306-18.514,93.438,2.443,2.837,15.512,10.262,25.891,16.076,3.496,1.928,6.624,3.712,9.015,4.982,0,0,0,.074.052.074"/>
  <path class="uuid-aa5339ea-f013-4680-8231-0088d65be57d" d="M253.549,334.776c-2.369-1.169-4.591-2.685-6.446-4.591-.052,0-.052-.074-.052-.074-2.027-2.027-3.786-4.398-5.176-7.182-2.785-5.593-4.35-12.602-4.35-20.959,0-31.609,22.18-69.984,49.54-85.791,8.429-4.861,16.365-6.961,23.28-6.667,2.369.048,4.643.463,6.745,1.169.463.1.927.221,1.316.393,3.786,1.392,7.109,3.662,9.725,6.815"/>
  <path class="uuid-aa5339ea-f013-4680-8231-0088d65be57d" d="M319.531,244.467c.732,2.785,1.147,5.938,1.147,9.404,0,21.841-15.316,48.443-34.248,59.363-3.716,2.149-7.28,3.492-10.577,4.103"/>
  <path class="uuid-aa5339ea-f013-4680-8231-0088d65be57d" d="M255.065,336.219c-.247-.169-1.001-.879-1.516-1.442-.243-.291-.463-.537-.585-.658-3.373-3.886-5.57-8.573-6.887-13.633-2.443-9.304-1.759-19.857,0-28.577,5.202-26.36,23.448-55.672,46.606-69.743"/>
  <path class="uuid-aa5339ea-f013-4680-8231-0088d65be57d" d="M293.951,221.408c4.717-2.663,9.357-4.739,14.708-5.912.536-.122,1.099-.243,1.685-.291,4.643-.81,9.577-.758,14.121.806"/>
  <polyline class="uuid-aa5339ea-f013-4680-8231-0088d65be57d" points="324.465 216.011 325.392 216.302 328.129 217.89 328.177 217.938 342.103 225.952"/>
  <path class="uuid-aa5339ea-f013-4680-8231-0088d65be57d" d="M342.103,225.952c-.393-.122-.809-.295-1.199-.343-.363-.125-.71-.247-1.051-.367"/>
  <path class="uuid-aa5339ea-f013-4680-8231-0088d65be57d" d="M323.464,243.955c-9.257.361-18.165,6.221-24.674,12.358-.074.052-.122.122-.169.174"/>
  <path class="uuid-aa5339ea-f013-4680-8231-0088d65be57d" d="M277.954,322.93c0,.05.048.05.048.121,3.533,6.557,10.097,9.901,17.418,9.283,19.465-.581,37.298-26.286,43.557-42.382,3.863-11.299,7.286-27.728.122-37.982-3.405-5.118-8.279-8.014-14.754-8.014"/>
  <path class="uuid-aa5339ea-f013-4680-8231-0088d65be57d" d="M287.407,331.285c.173.048.293.122.464.17.247.125.463.199.684.245.074,0,.199.048.247.048.291.122.585.174.876.247,1.272.269,2.615.391,4.007.391.588,0,1.151,0,1.735-.052"/>
  <path class="uuid-aa5339ea-f013-4680-8231-0088d65be57d" d="M284.279,329.843c.269.172.563.343.858.467.121.048.243.12.363.169.221.17.515.295.81.391"/>
  <path class="uuid-aa5339ea-f013-4680-8231-0088d65be57d" d="M340.904,225.609c-.363-.125-.71-.247-1.051-.367-2.392-.806-4.931-1.222-7.62-1.222-6.546-.17-14.048,1.858-21.962,6.28-.216.122-.437.291-.68.413-.122.052-.295.173-.395.221-26.038,15.269-47.217,50.885-49.027,81.421-.048.585-.048,1.221-.048,1.807-.074.758-.074,1.516-.074,2.248,0,8.303,1.516,15.291,4.302,20.809,1.39,2.886,3.149,5.328,5.176,7.378,0,0,0,.052.048.052,8.945,9.061,23.526,9.867,39.965.389,27.359-15.733,49.517-54.108,49.517-85.696,0-17.903-7.083-29.725-18.151-33.732Z"/>
  <path class="uuid-aa5339ea-f013-4680-8231-0088d65be57d" d="M293.684,332.386c-1.391,0-2.735-.122-4.007-.391-.291-.073-.585-.125-.876-.247-.048,0-.173-.048-.247-.048-.221-.047-.437-.121-.684-.245-.17-.048-.291-.122-.464-.17"/>
  <line class="uuid-91b12ccf-4577-4a05-ae20-f189a27b1e49" x1="104.123" y1="235.993" x2="104.123" y2="231.692"/>
  <line class="uuid-91b12ccf-4577-4a05-ae20-f189a27b1e49" x1="113.722" y1="215.153" x2="220.791" y2="153.398"/>
  <line class="uuid-91b12ccf-4577-4a05-ae20-f189a27b1e49" x1="149.658" y1="372.692" x2="149.537" y2="372.641"/>
  <line class="uuid-91b12ccf-4577-4a05-ae20-f189a27b1e49" x1="158.011" y1="241.001" x2="299.596" y2="159.334"/>
  <line class="uuid-91b12ccf-4577-4a05-ae20-f189a27b1e49" x1="307.39" y1="158.457" x2="274.121" y2="139.229"/>
  <line class="uuid-91b12ccf-4577-4a05-ae20-f189a27b1e49" x1="148.385" y1="363.042" x2="148.385" y2="369.955"/>
  <path class="uuid-aa5339ea-f013-4680-8231-0088d65be57d" d="M150.412,373.105c1.979.588,5.007-.291,7.55-1.807"/>
  <line class="uuid-91b12ccf-4577-4a05-ae20-f189a27b1e49" x1="157.963" y1="371.298" x2="238.036" y2="325.13"/>
  <line class="uuid-91b12ccf-4577-4a05-ae20-f189a27b1e49" x1="148.385" y1="261.594" x2="148.385" y2="253.407"/>
  <line class="uuid-91b12ccf-4577-4a05-ae20-f189a27b1e49" x1="310.344" y1="165.541" x2="310.344" y2="206.138"/>
  <line class="uuid-91b12ccf-4577-4a05-ae20-f189a27b1e49" x1="165.756" y1="211.709" x2="165.756" y2="218.281"/>
  <line class="uuid-91b12ccf-4577-4a05-ae20-f189a27b1e49" x1="135.317" y1="218.281" x2="135.317" y2="211.783"/>
  <line class="uuid-91b12ccf-4577-4a05-ae20-f189a27b1e49" x1="180.193" y1="279.84" x2="180.193" y2="321.244"/>
  <line class="uuid-91b12ccf-4577-4a05-ae20-f189a27b1e49" x1="173.596" y1="265.501" x2="164.364" y2="259.931"/>
  <line class="uuid-91b12ccf-4577-4a05-ae20-f189a27b1e49" x1="92.054" y1="241.976" x2="92.054" y2="330.232"/>
  <path class="uuid-aa5339ea-f013-4680-8231-0088d65be57d" d="M92.054,330.232c0,.589.124,1.005.588,1.273"/>
  <path class="uuid-aa5339ea-f013-4680-8231-0088d65be57d" d="M92.054,241.976c.052-.463.124-.758.294-1.221"/>
  <path class="uuid-aa5339ea-f013-4680-8231-0088d65be57d" d="M269.572,344.649c-.048,0-.048-.052-.048-.052"/>
  <line class="uuid-91b12ccf-4577-4a05-ae20-f189a27b1e49" x1="269.524" y1="344.597" x2="255.065" y2="336.219"/>
  <line class="uuid-31e8f2a5-0045-4f88-bdb0-32ae46fb67b5" x1="280.96" y1="349.803" x2="261.442" y2="316.015"/>
  <line class="uuid-31e8f2a5-0045-4f88-bdb0-32ae46fb67b5" x1="304.703" y1="345.745" x2="297.742" y2="333.727"/>
  <line class="uuid-31e8f2a5-0045-4f88-bdb0-32ae46fb67b5" x1="274.753" y1="293.836" x2="268.77" y2="283.552"/>
  <line class="uuid-31e8f2a5-0045-4f88-bdb0-32ae46fb67b5" x1="323.169" y1="332.628" x2="317.846" y2="323.397"/>
  <line class="uuid-31e8f2a5-0045-4f88-bdb0-32ae46fb67b5" x1="286.137" y1="268.504" x2="281.423" y2="260.273"/>
  <line class="uuid-31e8f2a5-0045-4f88-bdb0-32ae46fb67b5" x1="338.631" y1="314.21" x2="333.405" y2="305.147"/>
  <line class="uuid-31e8f2a5-0045-4f88-bdb0-32ae46fb67b5" x1="302.161" y1="251.085" x2="297.058" y2="242.149"/>
  <line class="uuid-31e8f2a5-0045-4f88-bdb0-32ae46fb67b5" x1="351.067" y1="290.587" x2="344.032" y2="278.372"/>
  <line class="uuid-31e8f2a5-0045-4f88-bdb0-32ae46fb67b5" x1="323.169" y1="242.317" x2="315.693" y2="229.297"/>
  <line class="uuid-31e8f2a5-0045-4f88-bdb0-32ae46fb67b5" x1="357.443" y1="256.488" x2="340.32" y2="226.831"/>
  <line class="uuid-31e8f2a5-0045-4f88-bdb0-32ae46fb67b5" x1="282.351" y1="325.714" x2="278.392" y2="318.8"/>
  <line class="uuid-31e8f2a5-0045-4f88-bdb0-32ae46fb67b5" x1="298.157" y1="330.527" x2="288.386" y2="313.624"/>
  <line class="uuid-31e8f2a5-0045-4f88-bdb0-32ae46fb67b5" x1="308.78" y1="326.351" x2="297.399" y2="306.611"/>
  <line class="uuid-31e8f2a5-0045-4f88-bdb0-32ae46fb67b5" x1="317.846" y1="319.438" x2="305.362" y2="297.795"/>
  <line class="uuid-31e8f2a5-0045-4f88-bdb0-32ae46fb67b5" x1="325.856" y1="310.791" x2="312.249" y2="287.218"/>
  <line class="uuid-31e8f2a5-0045-4f88-bdb0-32ae46fb67b5" x1="332.817" y1="300.213" x2="318.063" y2="274.66"/>
  <line class="uuid-31e8f2a5-0045-4f88-bdb0-32ae46fb67b5" x1="338.461" y1="287.438" x2="321.849" y2="258.636"/>
  <line class="uuid-31e8f2a5-0045-4f88-bdb0-32ae46fb67b5" x1="341.589" y1="270.263" x2="327.298" y2="245.52"/>
  <line class="uuid-31e8f2a5-0045-4f88-bdb0-32ae46fb67b5" x1="291.586" y1="308.127" x2="279.908" y2="287.85"/>
  <line class="uuid-31e8f2a5-0045-4f88-bdb0-32ae46fb67b5" x1="307.488" y1="290.467" x2="292.561" y2="264.692"/>
  <line class="uuid-31e8f2a5-0045-4f88-bdb0-32ae46fb67b5" x1="318.015" y1="263.521" x2="310.053" y2="249.769"/>
  <line class="uuid-31e8f2a5-0045-4f88-bdb0-32ae46fb67b5" x1="258.436" y1="319.779" x2="246.415" y2="312.892"/>
  <line class="uuid-31e8f2a5-0045-4f88-bdb0-32ae46fb67b5" x1="261.342" y1="295.4" x2="248.567" y2="288.023"/>
  <line class="uuid-31e8f2a5-0045-4f88-bdb0-32ae46fb67b5" x1="269.452" y1="273.976" x2="256.408" y2="266.477"/>
  <line class="uuid-31e8f2a5-0045-4f88-bdb0-32ae46fb67b5" x1="281.251" y1="254.751" x2="268.182" y2="247.204"/>
  <line class="uuid-31e8f2a5-0045-4f88-bdb0-32ae46fb67b5" x1="296.936" y1="237.726" x2="284.036" y2="230.3"/>
  <line class="uuid-31e8f2a5-0045-4f88-bdb0-32ae46fb67b5" x1="319.042" y1="224.436" x2="307.216" y2="217.571"/>
  <line class="uuid-31e8f2a5-0045-4f88-bdb0-32ae46fb67b5" x1="161.26" y1="367.243" x2="158.131" y2="361.772"/>
  <line class="uuid-31e8f2a5-0045-4f88-bdb0-32ae46fb67b5" x1="180.9" y1="356.153" x2="174.45" y2="344.939"/>
  <line class="uuid-31e8f2a5-0045-4f88-bdb0-32ae46fb67b5" x1="200.882" y1="345.576" x2="181.584" y2="312.182"/>
  <line class="uuid-31e8f2a5-0045-4f88-bdb0-32ae46fb67b5" x1="150.464" y1="258.22" x2="150.412" y2="258.12"/>
  <line class="uuid-31e8f2a5-0045-4f88-bdb0-32ae46fb67b5" x1="221.719" y1="336.513" x2="163.534" y2="235.699"/>
  <line class="uuid-31e8f2a5-0045-4f88-bdb0-32ae46fb67b5" x1="205.184" y1="262.717" x2="184.321" y2="226.584"/>
  <line class="uuid-31e8f2a5-0045-4f88-bdb0-32ae46fb67b5" x1="215.589" y1="235.478" x2="204.179" y2="215.79"/>
  <line class="uuid-31e8f2a5-0045-4f88-bdb0-32ae46fb67b5" x1="229.39" y1="214.324" x2="223.945" y2="204.869"/>
  <line class="uuid-31e8f2a5-0045-4f88-bdb0-32ae46fb67b5" x1="246.345" y1="198.471" x2="243.633" y2="193.706"/>
  <line class="uuid-31e8f2a5-0045-4f88-bdb0-32ae46fb67b5" x1="266.739" y1="188.724" x2="263.127" y2="182.395"/>
  <line class="uuid-31e8f2a5-0045-4f88-bdb0-32ae46fb67b5" x1="297.742" y1="197.15" x2="282.303" y2="170.5"/>
  <line class="uuid-31e8f2a5-0045-4f88-bdb0-32ae46fb67b5" x1="308.489" y1="170.599" x2="302.26" y2="159.922"/>
  <line class="uuid-31e8f2a5-0045-4f88-bdb0-32ae46fb67b5" x1="124.226" y1="355.617" x2="121.15" y2="350.215"/>
  <line class="uuid-31e8f2a5-0045-4f88-bdb0-32ae46fb67b5" x1="143.866" y1="367.001" x2="140.666" y2="361.43"/>
  <line class="uuid-31e8f2a5-0045-4f88-bdb0-32ae46fb67b5" x1="157.915" y1="357.934" x2="150.195" y2="344.523"/>
  <line class="uuid-31e8f2a5-0045-4f88-bdb0-32ae46fb67b5" x1="174.06" y1="340.763" x2="149.658" y2="298.527"/>
  <line class="uuid-31e8f2a5-0045-4f88-bdb0-32ae46fb67b5" x1="178.8" y1="303.804" x2="157.963" y2="267.698"/>
  <line class="uuid-31e8f2a5-0045-4f88-bdb0-32ae46fb67b5" x1="106.175" y1="337.393" x2="93.865" y2="316.067"/>
  <line class="uuid-31e8f2a5-0045-4f88-bdb0-32ae46fb67b5" x1="126.378" y1="349.803" x2="93.107" y2="292.199"/>
  <line class="uuid-31e8f2a5-0045-4f88-bdb0-32ae46fb67b5" x1="146.579" y1="362.236" x2="92.349" y2="268.334"/>
  <line class="uuid-31e8f2a5-0045-4f88-bdb0-32ae46fb67b5" x1="148.142" y1="342.375" x2="92.227" y2="245.566"/>
  <line class="uuid-31e8f2a5-0045-4f88-bdb0-32ae46fb67b5" x1="147.627" y1="318.852" x2="108.373" y2="250.869"/>
  <line class="uuid-31e8f2a5-0045-4f88-bdb0-32ae46fb67b5" x1="146.995" y1="295.18" x2="128.576" y2="263.349"/>
  <line class="uuid-31e8f2a5-0045-4f88-bdb0-32ae46fb67b5" x1="107.908" y1="247.546" x2="101.289" y2="236.162"/>
  <line class="uuid-31e8f2a5-0045-4f88-bdb0-32ae46fb67b5" x1="127.427" y1="258.808" x2="121.15" y2="247.962"/>
  <line class="uuid-31e8f2a5-0045-4f88-bdb0-32ae46fb67b5" x1="146.921" y1="270.093" x2="140.717" y2="259.272"/>
  <line class="uuid-31e8f2a5-0045-4f88-bdb0-32ae46fb67b5" x1="157.157" y1="265.134" x2="154.666" y2="260.836"/>
  <line class="uuid-31e8f2a5-0045-4f88-bdb0-32ae46fb67b5" x1="124.862" y1="245.861" x2="116.385" y2="231.276"/>
  <line class="uuid-31e8f2a5-0045-4f88-bdb0-32ae46fb67b5" x1="144.382" y1="257.194" x2="135.953" y2="242.612"/>
  <line class="uuid-31e8f2a5-0045-4f88-bdb0-32ae46fb67b5" x1="127.184" y1="233.499" x2="116.507" y2="215.032"/>
  <line class="uuid-31e8f2a5-0045-4f88-bdb0-32ae46fb67b5" x1="147.043" y1="245.346" x2="125.963" y2="208.803"/>
  <line class="uuid-31e8f2a5-0045-4f88-bdb0-32ae46fb67b5" x1="156.862" y1="239.778" x2="150.023" y2="227.858"/>
  <line class="uuid-31e8f2a5-0045-4f88-bdb0-32ae46fb67b5" x1="136.49" y1="204.527" x2="136.416" y2="204.357"/>
  <line class="uuid-31e8f2a5-0045-4f88-bdb0-32ae46fb67b5" x1="166.561" y1="234.014" x2="161.627" y2="225.363"/>
  <line class="uuid-31e8f2a5-0045-4f88-bdb0-32ae46fb67b5" x1="147.093" y1="200.278" x2="146.163" y2="198.714"/>
  <line class="uuid-31e8f2a5-0045-4f88-bdb0-32ae46fb67b5" x1="176.503" y1="228.615" x2="167.489" y2="213.005"/>
  <line class="uuid-31e8f2a5-0045-4f88-bdb0-32ae46fb67b5" x1="161.506" y1="202.599" x2="155.813" y2="192.779"/>
  <line class="uuid-31e8f2a5-0045-4f88-bdb0-32ae46fb67b5" x1="186.665" y1="223.678" x2="165.046" y2="186.229"/>
  <line class="uuid-31e8f2a5-0045-4f88-bdb0-32ae46fb67b5" x1="196.46" y1="218.06" x2="174.865" y2="180.589"/>
  <line class="uuid-31e8f2a5-0045-4f88-bdb0-32ae46fb67b5" x1="206.233" y1="212.345" x2="184.616" y2="174.945"/>
  <line class="uuid-31e8f2a5-0045-4f88-bdb0-32ae46fb67b5" x1="216.03" y1="206.727" x2="194.432" y2="169.327"/>
  <line class="uuid-31e8f2a5-0045-4f88-bdb0-32ae46fb67b5" x1="225.799" y1="201.084" x2="204.179" y2="163.686"/>
  <line class="uuid-31e8f2a5-0045-4f88-bdb0-32ae46fb67b5" x1="235.325" y1="195.001" x2="222.381" y2="172.528"/>
  <line class="uuid-31e8f2a5-0045-4f88-bdb0-32ae46fb67b5" x1="218.885" y1="166.541" x2="214.536" y2="159.043"/>
  <line class="uuid-31e8f2a5-0045-4f88-bdb0-32ae46fb67b5" x1="244.903" y1="189.063" x2="236.425" y2="174.385"/>
  <line class="uuid-31e8f2a5-0045-4f88-bdb0-32ae46fb67b5" x1="254.697" y1="183.444" x2="246.245" y2="168.742"/>
  <line class="uuid-31e8f2a5-0045-4f88-bdb0-32ae46fb67b5" x1="264.469" y1="177.804" x2="255.992" y2="163.122"/>
  <line class="uuid-31e8f2a5-0045-4f88-bdb0-32ae46fb67b5" x1="274.289" y1="172.159" x2="265.812" y2="157.479"/>
  <line class="uuid-31e8f2a5-0045-4f88-bdb0-32ae46fb67b5" x1="284.036" y1="166.541" x2="275.437" y2="151.665"/>
  <line class="uuid-31e8f2a5-0045-4f88-bdb0-32ae46fb67b5" x1="293.735" y1="160.776" x2="286.722" y2="148.586"/>
  <line class="uuid-31e8f2a5-0045-4f88-bdb0-32ae46fb67b5" x1="229.268" y1="168.569" x2="222.602" y2="157.015"/>
  <line class="uuid-31e8f2a5-0045-4f88-bdb0-32ae46fb67b5" x1="228.754" y1="112.826" x2="223.823" y2="104.297"/>
  <line class="uuid-31e8f2a5-0045-4f88-bdb0-32ae46fb67b5" x1="243.902" y1="116.416" x2="233.471" y2="98.315"/>
  <line class="uuid-31e8f2a5-0045-4f88-bdb0-32ae46fb67b5" x1="253.674" y1="110.799" x2="243.218" y2="92.671"/>
  <line class="uuid-31e8f2a5-0045-4f88-bdb0-32ae46fb67b5" x1="263.421" y1="105.155" x2="252.963" y2="87.03"/>
  <line class="uuid-31e8f2a5-0045-4f88-bdb0-32ae46fb67b5" x1="273.237" y1="99.536" x2="262.784" y2="81.412"/>
  <line class="uuid-31e8f2a5-0045-4f88-bdb0-32ae46fb67b5" x1="282.767" y1="93.476" x2="279.397" y2="87.615"/>
  <line class="uuid-31e8f2a5-0045-4f88-bdb0-32ae46fb67b5" x1="242.338" y1="167.398" x2="235.034" y2="154.745"/>
  <line class="uuid-31e8f2a5-0045-4f88-bdb0-32ae46fb67b5" x1="252.033" y1="161.654" x2="246.687" y2="152.372"/>
  <line class="uuid-31e8f2a5-0045-4f88-bdb0-32ae46fb67b5" x1="261.857" y1="156.015" x2="256.456" y2="146.731"/>
  <line class="uuid-31e8f2a5-0045-4f88-bdb0-32ae46fb67b5" x1="271.604" y1="150.396" x2="266.275" y2="141.114"/>
  <line class="uuid-31e8f2a5-0045-4f88-bdb0-32ae46fb67b5" x1="260.415" y1="115.022" x2="258.534" y2="111.821"/>
  <line class="uuid-31e8f2a5-0045-4f88-bdb0-32ae46fb67b5" x1="279.908" y1="103.712" x2="278.124" y2="100.563"/>
  <line class="uuid-31e8f2a5-0045-4f88-bdb0-32ae46fb67b5" x1="219.57" y1="141.334" x2="217.251" y2="137.327"/>
  <line class="uuid-31e8f2a5-0045-4f88-bdb0-32ae46fb67b5" x1="237.525" y1="149.882" x2="216.615" y2="113.632"/>
  <line class="uuid-31e8f2a5-0045-4f88-bdb0-32ae46fb67b5" x1="236.987" y1="126.285" x2="233.297" y2="119.909"/>
  <line class="uuid-31e8f2a5-0045-4f88-bdb0-32ae46fb67b5" x1="215.809" y1="309.691" x2="206.405" y2="293.469"/>
  <line class="uuid-31e8f2a5-0045-4f88-bdb0-32ae46fb67b5" x1="236.524" y1="323.102" x2="205.401" y2="269.214"/>
  <line class="uuid-31e8f2a5-0045-4f88-bdb0-32ae46fb67b5" x1="236.351" y1="300.213" x2="209.65" y2="253.945"/>
  <line class="uuid-31e8f2a5-0045-4f88-bdb0-32ae46fb67b5" x1="239.089" y1="282.331" x2="215.173" y2="240.927"/>
  <line class="uuid-31e8f2a5-0045-4f88-bdb0-32ae46fb67b5" x1="243.802" y1="267.919" x2="221.549" y2="229.444"/>
  <line class="uuid-31e8f2a5-0045-4f88-bdb0-32ae46fb67b5" x1="249.668" y1="255.556" x2="228.706" y2="219.212"/>
  <line class="uuid-31e8f2a5-0045-4f88-bdb0-32ae46fb67b5" x1="256.408" y1="244.588" x2="236.598" y2="210.318"/>
  <line class="uuid-31e8f2a5-0045-4f88-bdb0-32ae46fb67b5" x1="263.833" y1="234.841" x2="245.292" y2="202.769"/>
  <line class="uuid-31e8f2a5-0045-4f88-bdb0-32ae46fb67b5" x1="271.895" y1="226.294" x2="254.697" y2="196.514"/>
  <line class="uuid-31e8f2a5-0045-4f88-bdb0-32ae46fb67b5" x1="280.739" y1="218.965" x2="265.176" y2="192.094"/>
  <line class="uuid-31e8f2a5-0045-4f88-bdb0-32ae46fb67b5" x1="290.313" y1="213.005" x2="277.586" y2="190.92"/>
  <line class="uuid-31e8f2a5-0045-4f88-bdb0-32ae46fb67b5" x1="300.866" y1="208.755" x2="295.836" y2="199.983"/>
</svg>