<?xml version="1.0" encoding="UTF-8"?>
<svg id="uuid-fb0360c8-dbb5-4f75-81d3-7a77735e08cb" data-name="&amp;lt;Layer&amp;gt;" xmlns="http://www.w3.org/2000/svg" viewBox="0 0 451.11 451.11">
  <defs>
    <style>
      .uuid-e539e47b-b285-452b-8e74-75a2e3c79c81 {
        stroke-miterlimit: 10;
        stroke-width: 1.163px;
      }

      .uuid-e539e47b-b285-452b-8e74-75a2e3c79c81, .uuid-d5f4d6ea-6032-42fc-b06a-e825d09e99eb {
        fill: none;
        stroke: #000;
        stroke-linecap: round;
      }

      .uuid-d5f4d6ea-6032-42fc-b06a-e825d09e99eb {
        fill-rule: evenodd;
        stroke-linejoin: round;
        stroke-width: 4.117px;
      }
    </style>
  </defs>
  <path class="uuid-d5f4d6ea-6032-42fc-b06a-e825d09e99eb" d="M260.636,121.135l-.662.343-84.303,48.733M175.671,170.211c-7.325,4.322-12.358,14.386-12.432,22.742M163.239,192.953l.074,194.13M163.313,387.083c.048,3.275.632,6.351,3.249,8.599M166.562,395.682l15.39,8.893M181.952,404.575c-2.637-2.248-3.201-5.327-3.275-8.598M178.678,395.977v-2.37M178.63,201.846c.048-8.357,5.108-18.445,12.434-22.768M191.063,179.077l84.327-48.733M275.39,130.344c2.369-1.342,4.691-2.028,7.425-1.173M282.815,129.171l-15.39-8.893M191.111,404.38l84.327-48.737M275.438,355.643c6.839-3.955,12.432-14.169,12.432-22.764M287.871,332.879v-2.321M287.797,138.748c0-8.577-5.57-12.338-12.406-8.405M178.678,395.977c0,8.572,5.593,12.358,12.434,8.403M287.871,330.558l-.074-191.809M178.63,201.846l.048,191.761,109.193-63.049M166.145,181.229c-1.805,3.688-2.832,7.621-2.906,11.724M178.63,201.846c.048-4.324,1.101-7.841,2.908-11.726M181.537,190.119l-15.392-8.89M171.205,264.77v-19.493M171.205,232.454v-19.518M227.533,374.478l16.88-9.769M271.678,141.533c-1.221.707-2.226,2.539-2.226,4.055M269.452,145.588c0,1.538,1.005,2.198,2.226,1.512M271.678,147.1c1.196-.706,2.196-2.539,2.196-4.077M273.874,143.023c0-1.515-1.001-2.2-2.196-1.49M205.527,330.921c4.761-2.734,10.625-6.129,16.535-9.526M205.527,355.084c4.761-2.712,10.625-6.107,16.535-9.529M250.522,305.052c4.717-2.709,10.626-6.105,16.56-9.526M250.522,329.24c4.717-2.737,10.626-6.134,16.56-9.53M214.879,213.425l15.27-8.82M230.148,204.605c.463-.269.88-.048.88.515M231.029,205.12v10.626M231.029,215.746c0,.559-.417,1.219-.88,1.512M230.148,217.258l-14.412,8.308M215.737,225.566c-.463.269-.858.949-.858,1.512M214.879,227.079v10.553M214.879,237.631c0,.562.395.806.858.515M215.737,238.147l15.292-8.82M239.211,224.588c-.463.295-.88.074-.88-.515M238.331,224.072v-23.18M238.331,200.893c0-.563.416-1.247.88-1.516,4.813-2.782,9.577-5.545,14.386-8.305.467-.295.88-.048.88.515M254.477,191.587v23.18M254.477,214.767c0,.563-.413,1.243-.88,1.516-4.809,2.782-9.573,5.545-14.386,8.305M192.674,194.762c1.395-.783,3.154-1.785,4.887-2.785M202.447,189.193c1.394-.806,3.128-1.811,4.887-2.811M212.193,183.574c1.394-.809,3.128-1.811,4.886-2.785M205.527,306.741c4.761-2.712,10.625-6.133,16.535-9.53M250.522,280.894c4.717-2.735,10.626-6.131,16.56-9.526M230.148,255.906c.463-.293.88-.051.88.511M231.029,256.417v10.601M231.029,267.018c0,.563-.417,1.247-.88,1.542M230.148,268.56l-14.412,8.279M214.879,252.069l15.27-8.82M230.148,243.249c.463-.269.88-.048.88.515M231.029,243.764v10.601M230.148,255.906l-14.412,8.305M238.331,239.537l15.266-8.82M253.597,230.717c.467-.265.88-.047.88.515M254.477,231.232v10.601M254.477,241.833c0,.563-.413,1.273-.88,1.542M253.597,243.375l-14.386,8.279M239.211,251.654c-.463.293-.88.979-.88,1.537M238.331,253.191v10.557M238.331,263.747c0,.559.416.78.88.511M239.211,264.259l15.266-8.82M267.424,120.278c-2.028-.88-4.934-.144-6.789.857"/>
  <line class="uuid-e539e47b-b285-452b-8e74-75a2e3c79c81" x1="269.061" y1="343.383" x2="256.798" y2="364.511"/>
  <line class="uuid-e539e47b-b285-452b-8e74-75a2e3c79c81" x1="229.906" y1="365.953" x2="217.716" y2="387.109"/>
  <line class="uuid-e539e47b-b285-452b-8e74-75a2e3c79c81" x1="190.646" y1="388.82" x2="182.516" y2="402.886"/>
  <line class="uuid-e539e47b-b285-452b-8e74-75a2e3c79c81" x1="177.019" y1="387.669" x2="166.857" y2="393.559"/>
  <line class="uuid-e539e47b-b285-452b-8e74-75a2e3c79c81" x1="177.067" y1="374.625" x2="165.046" y2="381.56"/>
  <line class="uuid-e539e47b-b285-452b-8e74-75a2e3c79c81" x1="177.067" y1="361.577" x2="165.046" y2="368.518"/>
  <line class="uuid-e539e47b-b285-452b-8e74-75a2e3c79c81" x1="177.067" y1="348.535" x2="164.976" y2="355.496"/>
  <line class="uuid-e539e47b-b285-452b-8e74-75a2e3c79c81" x1="177.067" y1="335.514" x2="164.976" y2="342.479"/>
  <line class="uuid-e539e47b-b285-452b-8e74-75a2e3c79c81" x1="177.067" y1="322.47" x2="164.976" y2="329.431"/>
  <line class="uuid-e539e47b-b285-452b-8e74-75a2e3c79c81" x1="177.067" y1="309.448" x2="164.976" y2="316.414"/>
  <line class="uuid-e539e47b-b285-452b-8e74-75a2e3c79c81" x1="177.067" y1="296.431" x2="164.976" y2="303.392"/>
  <line class="uuid-e539e47b-b285-452b-8e74-75a2e3c79c81" x1="177.067" y1="283.385" x2="164.976" y2="290.35"/>
  <line class="uuid-e539e47b-b285-452b-8e74-75a2e3c79c81" x1="177.019" y1="270.341" x2="164.976" y2="277.302"/>
  <line class="uuid-e539e47b-b285-452b-8e74-75a2e3c79c81" x1="177.019" y1="257.319" x2="164.976" y2="264.285"/>
  <line class="uuid-e539e47b-b285-452b-8e74-75a2e3c79c81" x1="177.019" y1="244.276" x2="164.976" y2="251.237"/>
  <line class="uuid-e539e47b-b285-452b-8e74-75a2e3c79c81" x1="177.019" y1="231.254" x2="164.976" y2="238.219"/>
  <line class="uuid-e539e47b-b285-452b-8e74-75a2e3c79c81" x1="177.019" y1="218.211" x2="164.924" y2="225.173"/>
  <line class="uuid-e539e47b-b285-452b-8e74-75a2e3c79c81" x1="177.019" y1="205.19" x2="164.924" y2="212.156"/>
  <line class="uuid-e539e47b-b285-452b-8e74-75a2e3c79c81" x1="179.462" y1="190.731" x2="164.877" y2="199.16"/>
  <line class="uuid-e539e47b-b285-452b-8e74-75a2e3c79c81" x1="167.758" y1="184.454" x2="166.903" y2="184.965"/>
  <line class="uuid-e539e47b-b285-452b-8e74-75a2e3c79c81" x1="186.593" y1="180.541" x2="174.111" y2="173.338"/>
  <line class="uuid-e539e47b-b285-452b-8e74-75a2e3c79c81" x1="208.481" y1="167.108" x2="196.412" y2="160.147"/>
  <line class="uuid-e539e47b-b285-452b-8e74-75a2e3c79c81" x1="231.075" y1="154.065" x2="218.986" y2="147.1"/>
  <line class="uuid-e539e47b-b285-452b-8e74-75a2e3c79c81" x1="253.597" y1="141.019" x2="241.533" y2="134.056"/>
  <line class="uuid-e539e47b-b285-452b-8e74-75a2e3c79c81" x1="276.244" y1="128.001" x2="265.397" y2="121.746"/>
</svg>