<?xml version="1.0" encoding="UTF-8"?>
<svg id="uuid-5654fe91-9532-432d-ad12-8f35c3e9352e" data-name="&amp;lt;Layer&amp;gt;" xmlns="http://www.w3.org/2000/svg" viewBox="0 0 451.11 451.11">
  <defs>
    <style>
      .uuid-dd38adc3-e02d-4891-a675-8b875366f555, .uuid-a21307f0-4a0d-4753-8809-d93ebc05351f, .uuid-5b6a2efe-1112-454d-a8d2-b44e901b995c, .uuid-95a1bd52-0af3-4fc9-8e39-12add8ff30cd, .uuid-a844813a-d111-4ff2-84f8-bf4f48977550 {
        fill: none;
        stroke: #000;
        stroke-linecap: round;
      }

      .uuid-dd38adc3-e02d-4891-a675-8b875366f555, .uuid-95a1bd52-0af3-4fc9-8e39-12add8ff30cd, .uuid-a844813a-d111-4ff2-84f8-bf4f48977550 {
        stroke-linejoin: round;
      }

      .uuid-dd38adc3-e02d-4891-a675-8b875366f555, .uuid-a844813a-d111-4ff2-84f8-bf4f48977550 {
        stroke-width: 4.117px;
      }

      .uuid-a21307f0-4a0d-4753-8809-d93ebc05351f {
        stroke-width: 1.163px;
      }

      .uuid-a21307f0-4a0d-4753-8809-d93ebc05351f, .uuid-5b6a2efe-1112-454d-a8d2-b44e901b995c {
        stroke-miterlimit: 10;
      }

      .uuid-5b6a2efe-1112-454d-a8d2-b44e901b995c {
        stroke-width: 1.159px;
      }

      .uuid-95a1bd52-0af3-4fc9-8e39-12add8ff30cd {
        stroke-width: 4.113px;
      }

      .uuid-95a1bd52-0af3-4fc9-8e39-12add8ff30cd, .uuid-a844813a-d111-4ff2-84f8-bf4f48977550 {
        fill-rule: evenodd;
      }
    </style>
  </defs>
  <path class="uuid-a844813a-d111-4ff2-84f8-bf4f48977550" d="M228.349,183.169q.243,0,.486-.048c.736-.173,2.443-.857,4.398-1.783"/>
  <path class="uuid-a844813a-d111-4ff2-84f8-bf4f48977550" d="M269.874,160.011c1.464-.806,2.443-1.733,3.422-2.66,3.419-3.496,4.151-7.551,5.862-11.848.247-.295.247-.636.489-.931.979-2.149,2.2-4.372,4.154-6.572.489-.341.732-.632.975-.975.489-.295.732-.658.979-.931q.243-.07.243-.122c.979-.879,2.2-1.807,3.666-2.66.489-.295.979-.662,1.464-.953,7.086-4.57,20.031-12.143,31.514-15.564,6.596-1.976,12.948-2.539,17.344-.437"/>
  <path class="uuid-a844813a-d111-4ff2-84f8-bf4f48977550" d="M216.133,176.623c-.489.048-.732.17-.979.343-.243.122-.489.243-.732.365-.243.048-.489.173-.732.269-5.13,2.152-12.701,6.913-20.52,12.509-1.221.806-2.443,1.612-3.664,2.418-9.283,7.035-18.32,14.923-22.963,20.862-3.908,5.156-6.841,11.553-9.283,18.515"/>
  <path class="uuid-a844813a-d111-4ff2-84f8-bf4f48977550" d="M289.905,87.436c-7.815-4.203-18.32.269-25.893,3.638-44.215,19.862-31.023,25.797-40.064,36.522-3.664,4.08-41.036,24.916-42.747,25.748-10.015-5.693-10.751-8.382-18.567-4.376-15.633,8.136-35.421,21.035-47.147,36.889-.975,1.44-1.953,2.907-2.928,4.42-.489.853-.979,1.785-1.468,2.711-.485.832-.975,1.685-1.464,2.565-.489.805-.733,1.685-.979,2.541-7.083,17.367-10.502,67.958-13.924,91.19-2.196,12.996-8.06,31.242.979,41.452.243.421.732.758,1.221,1.101.243.247.489.489.732.662,7.083,5.276,28.578,17.219,42.015,24.722,1.468,1.001,3.176,1.929,4.887,2.782,1.953,1.101,3.664,2.027,4.643,2.664"/>
  <path class="uuid-a844813a-d111-4ff2-84f8-bf4f48977550" d="M148.955,362.446s0-.047-.243-.047v-.17c-.732-.415-1.221-.953-1.711-1.468-.243-.217-.489-.463-.732-.684"/>
  <path class="uuid-a844813a-d111-4ff2-84f8-bf4f48977550" d="M221.995,145.11c5.618,0,10.261,2.638,10.261,5.912s-4.643,5.912-10.261,5.912-10.258-2.638-10.258-5.912,4.639-5.912,10.258-5.912Z"/>
  <path class="uuid-a844813a-d111-4ff2-84f8-bf4f48977550" d="M133.079,183.339c3.418-6.447,6.839-10.428,12.458-15.167,4.886-4.25,16.119-11.63,21.738-14.584,1.711-.832,3.911-1.785,5.618-.953"/>
  <path class="uuid-a844813a-d111-4ff2-84f8-bf4f48977550" d="M194.392,163.776c-2.443-.931-4.886.389-6.594,1.464-11.239,6.399-25.652,15.534-32.245,26.97"/>
  <polyline class="uuid-a844813a-d111-4ff2-84f8-bf4f48977550" points="155.553 192.21 154.331 194.48 133.079 183.339"/>
  <path class="uuid-a844813a-d111-4ff2-84f8-bf4f48977550" d="M154.574,194.358c4.643-9.919,13.922-17.807,33.224-29.118,5.619-3.323,7.815-1.685,8.305.537"/>
  <polyline class="uuid-a844813a-d111-4ff2-84f8-bf4f48977550" points="196.102 165.777 196.834 169.832 154.574 194.358"/>
  <path class="uuid-a844813a-d111-4ff2-84f8-bf4f48977550" d="M248.622,115.748c.732-6.255,3.664-10.625,9.037-13.826,6.354-3.688,21.745-12.654,29.317-11.457"/>
  <polyline class="uuid-a844813a-d111-4ff2-84f8-bf4f48977550" points="286.975 90.465 289.905 91.49 311.157 102.606"/>
  <path class="uuid-a844813a-d111-4ff2-84f8-bf4f48977550" d="M311.157,102.606c-1.465-.78-2.687-1.149-4.398-1.149-7.571.048-21.252,7.915-27.602,11.602-6.351,3.764-8.305,8.088-9.526,15.564"/>
  <path class="uuid-a844813a-d111-4ff2-84f8-bf4f48977550" d="M270.117,124.98c.489-3.955,2.2-8.01,9.041-11.921,19.787-11.579,28.823-14.117,33.468-9.231"/>
  <polyline class="uuid-a844813a-d111-4ff2-84f8-bf4f48977550" points="312.625 103.828 270.606 128.034 269.631 128.623 270.117 124.98"/>
  <path class="uuid-a844813a-d111-4ff2-84f8-bf4f48977550" d="M165.568,214.757c-3.666,5.301-6.841,9.747-8.309,17.171-.243,1.49-17.341,110.024-15.877,117.865.979,5.449,3.176,9.725,7.819,12.874"/>
  <path class="uuid-a844813a-d111-4ff2-84f8-bf4f48977550" d="M148.712,362.424c-15.148-8.672-38.353-19.983-51.788-30.586-.489-.343-.979-.68-1.221-1.075-9.283-10.236-3.175-28.456-.979-41.456,3.422-23.278,6.84-73.819,13.68-91.212,1.955-4.228,4.155-8.307,7.083-12.215"/>
  <path class="uuid-a844813a-d111-4ff2-84f8-bf4f48977550" d="M339.984,116.36c1.221.732,2.443,1.733,3.418,3.002.247.345.489.688.733,1.1.489.758.979,1.564,1.221,2.495.247.413.489.88.732,1.343.489,1.39.979,2.906,1.468,4.592,0,.511.243,1.047.243,1.637,1.711,6.935,2.686,16.122,3.907,27.213,0,1.295.247,2.565.247,3.907,0,.465.243.976.243,1.516.247,2.123.489,4.346.732,6.668,1.468,11.774,3.423,25.211,6.84,40.06,1.957,9.53-.732,21.304-7.326,33.616-6.596,12.384-15.39,22.035-25.648,27.995"/>
  <path class="uuid-a844813a-d111-4ff2-84f8-bf4f48977550" d="M326.305,271.794c-7.087,4.081-13.437,5.571-18.813,4.813-.732-.096-1.464-.221-1.953-.389-.485-.122-.975-.295-1.464-.465-.489-.121-.979-.293-1.221-.536-.489-.174-.979-.395-1.464-.736"/>
  <path class="uuid-a844813a-d111-4ff2-84f8-bf4f48977550" d="M157.996,229.291v-.343c1.464-4.081,3.418-7.841,5.618-11.506,0-.048.243-.169.243-.221.489-.828.976-1.637,1.712-2.443.243-.463.485-.928.975-1.391,5.375-6.913,12.458-13.533,22.963-20.862,1.221-.806,2.443-1.612,3.664-2.418,5.375-3.568,11.237-7.28,18.077-11.287.489-.221.979-.463,1.464-.681,0-.073.247-.125.247-.173.243-.195.485-.291.732-.367.243-.096.489-.221.732-.269.243-.196.489-.317.732-.365.247-.173.489-.295.979-.343,7.573-2.564,7.573,4.298,10.505,6.156,0,0,0,.048.243,0,.489.221.732.389,1.468.389q.243,0,.486-.048c.979-.047,2.2-.463,3.666-1.342"/>
  <polyline class="uuid-a844813a-d111-4ff2-84f8-bf4f48977550" points="232.5 181.779 233.232 181.338 233.968 180.921 268.653 160.769 269.874 160.011"/>
  <path class="uuid-95a1bd52-0af3-4fc9-8e39-12add8ff30cd" d="M301.388,274.411c-6.77-2.701-9.125-16.992-9.526-23.28-.489-5.228-1.468-11.093-3.176-14.295-.979-1.269-2.2-2.196-3.421-2.712-.243,0-.243-.07-.243-.07-2.689-.931-6.354-.341-10.262,1.903"/>
  <polyline class="uuid-a844813a-d111-4ff2-84f8-bf4f48977550" points="274.76 235.957 254.73 247.588 226.881 263.906"/>
  <path class="uuid-a844813a-d111-4ff2-84f8-bf4f48977550" d="M174.361,360.25c-10.261,5.986-19.055,6.666-25.648,2.149v-.17c-.732-.467-1.221-.953-1.711-1.468-.243-.217-.489-.463-.732-.684"/>
  <polygon class="uuid-a844813a-d111-4ff2-84f8-bf4f48977550" points="243.003 235.52 264.989 222.693 264.989 229.606 243.003 242.407 243.003 235.52"/>
  <polyline class="uuid-a844813a-d111-4ff2-84f8-bf4f48977550" points="204.896 222.013 204.896 230.976 212.712 226.479"/>
  <polyline class="uuid-a844813a-d111-4ff2-84f8-bf4f48977550" points="212.469 245.851 204.896 250.347 204.896 259.336"/>
  <polyline class="uuid-a844813a-d111-4ff2-84f8-bf4f48977550" points="188.042 269.082 188.042 260.12 180.223 264.612"/>
  <polyline class="uuid-a844813a-d111-4ff2-84f8-bf4f48977550" points="180.469 245.241 188.042 240.722 188.285 231.76"/>
  <path class="uuid-a844813a-d111-4ff2-84f8-bf4f48977550" d="M326.058,170.053c5.622-3.223,10.262-11.09,10.262-17.54s-4.64-9.089-10.262-5.862c-5.619,3.224-10.015,11.09-10.015,17.562s4.396,9.063,10.015,5.84Z"/>
  <path class="uuid-a844813a-d111-4ff2-84f8-bf4f48977550" d="M303.831,206.938c5.615-3.249,10.015-11.09,10.015-17.562s-4.4-9.087-10.015-5.838c-5.619,3.223-10.015,11.089-10.015,17.562s4.396,9.061,10.015,5.838Z"/>
  <line class="uuid-dd38adc3-e02d-4891-a675-8b875366f555" x1="233.232" y1="181.338" x2="233.478" y2="181.095"/>
  <path class="uuid-a844813a-d111-4ff2-84f8-bf4f48977550" d="M233.478,181.095c9.771-4.813,29.066-16.613,35.175-20.325"/>
  <line class="uuid-dd38adc3-e02d-4891-a675-8b875366f555" x1="268.653" y1="160.769" x2="269.874" y2="160.011"/>
  <path class="uuid-a844813a-d111-4ff2-84f8-bf4f48977550" d="M340.227,116.408c-.243,0-.243-.048-.243-.048"/>
  <line class="uuid-dd38adc3-e02d-4891-a675-8b875366f555" x1="339.984" y1="116.36" x2="289.905" y2="87.436"/>
  <line class="uuid-dd38adc3-e02d-4891-a675-8b875366f555" x1="149.202" y1="362.667" x2="148.955" y2="362.446"/>
  <line class="uuid-dd38adc3-e02d-4891-a675-8b875366f555" x1="146.27" y1="360.077" x2="146.027" y2="360.003"/>
  <line class="uuid-dd38adc3-e02d-4891-a675-8b875366f555" x1="172.893" y1="152.635" x2="194.392" y2="163.776"/>
  <line class="uuid-dd38adc3-e02d-4891-a675-8b875366f555" x1="269.631" y1="128.623" x2="248.622" y2="115.748"/>
  <line class="uuid-dd38adc3-e02d-4891-a675-8b875366f555" x1="115.487" y1="185.881" x2="165.568" y2="214.757"/>
  <line class="uuid-dd38adc3-e02d-4891-a675-8b875366f555" x1="301.388" y1="274.481" x2="301.388" y2="274.411"/>
  <path class="uuid-a844813a-d111-4ff2-84f8-bf4f48977550" d="M301.388,274.411c-6.598-3.764-33.468-18.519-46.658-26.823"/>
  <path class="uuid-a844813a-d111-4ff2-84f8-bf4f48977550" d="M226.881,263.906c-7.819,4.518-14.412,14.291-15.633,23.228"/>
  <line class="uuid-dd38adc3-e02d-4891-a675-8b875366f555" x1="211.247" y1="287.134" x2="207.829" y2="310.66"/>
  <path class="uuid-a844813a-d111-4ff2-84f8-bf4f48977550" d="M207.829,310.66c-2.689,18.982-16.612,39.649-32.978,49.295"/>
  <line class="uuid-dd38adc3-e02d-4891-a675-8b875366f555" x1="174.85" y1="359.955" x2="174.361" y2="360.25"/>
  <line class="uuid-dd38adc3-e02d-4891-a675-8b875366f555" x1="194.392" y1="221.181" x2="198.789" y2="218.518"/>
  <path class="uuid-a844813a-d111-4ff2-84f8-bf4f48977550" d="M198.789,218.518c3.421-1.953,6.107-.391,6.107,3.495"/>
  <path class="uuid-a844813a-d111-4ff2-84f8-bf4f48977550" d="M212.712,226.479c3.175-1.953,6.107-.391,5.864,3.495"/>
  <line class="uuid-dd38adc3-e02d-4891-a675-8b875366f555" x1="218.576" y1="229.975" x2="218.576" y2="235.251"/>
  <path class="uuid-a844813a-d111-4ff2-84f8-bf4f48977550" d="M218.576,235.251c0,3.881-2.689,8.646-6.107,10.6"/>
  <path class="uuid-a844813a-d111-4ff2-84f8-bf4f48977550" d="M204.896,259.336c-.243,3.886-2.932,8.625-6.351,10.579"/>
  <line class="uuid-dd38adc3-e02d-4891-a675-8b875366f555" x1="198.545" y1="269.914" x2="194.149" y2="272.578"/>
  <path class="uuid-a844813a-d111-4ff2-84f8-bf4f48977550" d="M194.149,272.578c-3.422,1.953-6.107.365-6.107-3.496"/>
  <path class="uuid-a844813a-d111-4ff2-84f8-bf4f48977550" d="M180.223,264.612c-3.175,1.954-6.108.369-6.108-3.492"/>
  <line class="uuid-dd38adc3-e02d-4891-a675-8b875366f555" x1="174.114" y1="261.12" x2="174.361" y2="255.818"/>
  <path class="uuid-a844813a-d111-4ff2-84f8-bf4f48977550" d="M174.361,255.818c0-3.885,2.687-8.646,6.108-10.577"/>
  <path class="uuid-a844813a-d111-4ff2-84f8-bf4f48977550" d="M188.285,231.76c0-3.86,2.689-8.625,6.107-10.579"/>
  <line class="uuid-a21307f0-4a0d-4753-8809-d93ebc05351f" x1="357.815" y1="201.614" x2="314.579" y2="276.312"/>
  <line class="uuid-a21307f0-4a0d-4753-8809-d93ebc05351f" x1="352.685" y1="165.214" x2="294.059" y2="266.592"/>
  <line class="uuid-a21307f0-4a0d-4753-8809-d93ebc05351f" x1="346.336" y1="131.088" x2="336.809" y2="147.605"/>
  <line class="uuid-a21307f0-4a0d-4753-8809-d93ebc05351f" x1="322.151" y1="173.081" x2="315.068" y2="185.271"/>
  <line class="uuid-a21307f0-4a0d-4753-8809-d93ebc05351f" x1="301.142" y1="209.503" x2="286.975" y2="233.809"/>
  <line class="uuid-a21307f0-4a0d-4753-8809-d93ebc05351f" x1="330.212" y1="113.891" x2="264.989" y2="226.921"/>
  <line class="uuid-a21307f0-4a0d-4753-8809-d93ebc05351f" x1="260.838" y1="234.203" x2="253.997" y2="245.999"/>
  <line class="uuid-a21307f0-4a0d-4753-8809-d93ebc05351f" x1="295.067" y1="129.612" x2="158.908" y2="365.38"/>
  <line class="uuid-a21307f0-4a0d-4753-8809-d93ebc05351f" x1="240.56" y1="178.6" x2="213.933" y2="225.136"/>
  <line class="uuid-a21307f0-4a0d-4753-8809-d93ebc05351f" x1="188.042" y1="269.646" x2="141.872" y2="349.819"/>
  <line class="uuid-a21307f0-4a0d-4753-8809-d93ebc05351f" x1="216.133" y1="175.987" x2="148.712" y2="292.877"/>
  <line class="uuid-a21307f0-4a0d-4753-8809-d93ebc05351f" x1="139.429" y1="344.15" x2="129.656" y2="349.697"/>
  <line class="uuid-a21307f0-4a0d-4753-8809-d93ebc05351f" x1="141.383" y1="330.005" x2="117.93" y2="343.468"/>
  <line class="uuid-a21307f0-4a0d-4753-8809-d93ebc05351f" x1="144.069" y1="315.399" x2="106.451" y2="337.14"/>
  <line class="uuid-a21307f0-4a0d-4753-8809-d93ebc05351f" x1="146.512" y1="300.986" x2="95.703" y2="330.348"/>
  <line class="uuid-a21307f0-4a0d-4753-8809-d93ebc05351f" x1="148.712" y1="286.648" x2="91.06" y2="319.847"/>
  <line class="uuid-a21307f0-4a0d-4753-8809-d93ebc05351f" x1="150.909" y1="272.357" x2="91.793" y2="306.41"/>
  <line class="uuid-a21307f0-4a0d-4753-8809-d93ebc05351f" x1="152.863" y1="258.092" x2="94.725" y2="291.777"/>
  <line class="uuid-a21307f0-4a0d-4753-8809-d93ebc05351f" x1="155.306" y1="243.777" x2="96.435" y2="277.66"/>
  <line class="uuid-a21307f0-4a0d-4753-8809-d93ebc05351f" x1="157.506" y1="229.364" x2="98.146" y2="263.711"/>
  <line class="uuid-a21307f0-4a0d-4753-8809-d93ebc05351f" x1="162.877" y1="213.215" x2="99.612" y2="249.858"/>
  <line class="uuid-a21307f0-4a0d-4753-8809-d93ebc05351f" x1="151.155" y1="206.964" x2="101.812" y2="235.567"/>
  <line class="uuid-a21307f0-4a0d-4753-8809-d93ebc05351f" x1="139.429" y1="200.709" x2="104.251" y2="221.059"/>
  <line class="uuid-a21307f0-4a0d-4753-8809-d93ebc05351f" x1="127.703" y1="194.48" x2="107.672" y2="206.011"/>
  <line class="uuid-a21307f0-4a0d-4753-8809-d93ebc05351f" x1="134.301" y1="194.675" x2="124.528" y2="177.772"/>
  <line class="uuid-a21307f0-4a0d-4753-8809-d93ebc05351f" x1="168.497" y1="208.797" x2="159.46" y2="193.184"/>
  <line class="uuid-a21307f0-4a0d-4753-8809-d93ebc05351f" x1="144.316" y1="166.756" x2="142.361" y2="163.507"/>
  <line class="uuid-a21307f0-4a0d-4753-8809-d93ebc05351f" x1="185.598" y1="193.383" x2="179.001" y2="182.022"/>
  <line class="uuid-a21307f0-4a0d-4753-8809-d93ebc05351f" x1="162.877" y1="153.882" x2="161.656" y2="151.755"/>
  <line class="uuid-a21307f0-4a0d-4753-8809-d93ebc05351f" x1="204.407" y1="180.652" x2="198.545" y2="170.59"/>
  <line class="uuid-a21307f0-4a0d-4753-8809-d93ebc05351f" x1="193.17" y1="160.964" x2="187.552" y2="151.681"/>
  <line class="uuid-a21307f0-4a0d-4753-8809-d93ebc05351f" x1="230.791" y1="181.142" x2="217.108" y2="157.715"/>
  <line class="uuid-a21307f0-4a0d-4753-8809-d93ebc05351f" x1="211.247" y1="147.505" x2="207.339" y2="140.566"/>
  <line class="uuid-a21307f0-4a0d-4753-8809-d93ebc05351f" x1="250.822" y1="170.663" x2="225.416" y2="126.596"/>
  <line class="uuid-a21307f0-4a0d-4753-8809-d93ebc05351f" x1="270.364" y1="159.647" x2="238.853" y2="104.806"/>
  <line class="uuid-a21307f0-4a0d-4753-8809-d93ebc05351f" x1="283.068" y1="136.39" x2="277.204" y2="126.179"/>
  <line class="uuid-a21307f0-4a0d-4753-8809-d93ebc05351f" x1="260.838" y1="97.867" x2="259.37" y2="95.398"/>
  <line class="uuid-a21307f0-4a0d-4753-8809-d93ebc05351f" x1="301.874" y1="123.931" x2="296.744" y2="114.942"/>
  <line class="uuid-a21307f0-4a0d-4753-8809-d93ebc05351f" x1="281.847" y1="88.827" x2="280.199" y2="86.638"/>
  <line class="uuid-a21307f0-4a0d-4753-8809-d93ebc05351f" x1="322.883" y1="114.942" x2="316.348" y2="103.327"/>
  <line class="uuid-a21307f0-4a0d-4753-8809-d93ebc05351f" x1="306.856" y1="202.747" x2="295.619" y2="196.271"/>
  <line class="uuid-5b6a2efe-1112-454d-a8d2-b44e901b995c" x1="313.231" y1="193.497" x2="300.972" y2="186.4"/>
  <line class="uuid-5b6a2efe-1112-454d-a8d2-b44e901b995c" x1="291.939" y1="252.29" x2="277.652" y2="260.557"/>
  <line class="uuid-a21307f0-4a0d-4753-8809-d93ebc05351f" x1="289.574" y1="240.596" x2="265.926" y2="254.28"/>
  <line class="uuid-a21307f0-4a0d-4753-8809-d93ebc05351f" x1="229.57" y1="153.024" x2="219.308" y2="147.163"/>
</svg>