<?xml version="1.0" encoding="UTF-8"?>
<svg id="uuid-97bbd073-8c50-446f-b420-6bf5b6d0b3db" data-name="&amp;lt;Layer&amp;gt;" xmlns="http://www.w3.org/2000/svg" viewBox="0 0 451.11 451.11">
  <defs>
    <style>
      .uuid-9416dd36-901a-4fa6-9dc1-3a073db27946, .uuid-27016260-51eb-4f67-a0f3-fa9d218b65dc, .uuid-5953f4d2-5dab-48e3-ae5d-be94de2b2b0a {
        fill: none;
        stroke: #000;
        stroke-linecap: round;
      }

      .uuid-9416dd36-901a-4fa6-9dc1-3a073db27946, .uuid-5953f4d2-5dab-48e3-ae5d-be94de2b2b0a {
        stroke-linejoin: round;
        stroke-width: 4.113px;
      }

      .uuid-27016260-51eb-4f67-a0f3-fa9d218b65dc {
        stroke-miterlimit: 10;
        stroke-width: 1.163px;
      }

      .uuid-5953f4d2-5dab-48e3-ae5d-be94de2b2b0a {
        fill-rule: evenodd;
      }
    </style>
  </defs>
  <polyline class="uuid-5953f4d2-5dab-48e3-ae5d-be94de2b2b0a" points="299.939 267.972 299.939 287.369 283.327 277.671"/>
  <polygon class="uuid-5953f4d2-5dab-48e3-ae5d-be94de2b2b0a" points="299.939 100.13 280.64 88.916 280.64 105.138 299.939 116.349 299.939 100.13"/>
  <polyline class="uuid-5953f4d2-5dab-48e3-ae5d-be94de2b2b0a" points="165.093 171.875 280.64 105.16 299.939 116.349 170.47 191.147"/>
  <polygon class="uuid-5953f4d2-5dab-48e3-ae5d-be94de2b2b0a" points="342.932 75.357 323.634 64.146 280.64 88.916 299.939 100.13 342.932 75.357"/>
  <polygon class="uuid-5953f4d2-5dab-48e3-ae5d-be94de2b2b0a" points="170.47 362.194 170.47 342.821 299.939 267.998 299.939 287.369 342.932 262.575 342.932 75.357 299.939 100.13 299.939 116.349 170.47 191.173 170.47 174.955 127.476 199.723 127.476 386.964 170.47 362.194"/>
  <polygon class="uuid-5953f4d2-5dab-48e3-ae5d-be94de2b2b0a" points="174.134 203.973 295.296 133.963 295.296 255.761 174.134 325.746 174.134 203.973"/>
  <polygon class="uuid-5953f4d2-5dab-48e3-ae5d-be94de2b2b0a" points="204.18 204.584 279.661 203.973 204.18 290.424 204.18 204.584"/>
  <polyline class="uuid-5953f4d2-5dab-48e3-ae5d-be94de2b2b0a" points="310.197 255.051 310.197 255.051 310.197 243.766"/>
  <path class="uuid-5953f4d2-5dab-48e3-ae5d-be94de2b2b0a" d="M310.197,243.766c0-3.127,2.2-6.935,5.13-8.477,3.911-2.391,8.061-4.787,12.215-7.156,2.686-1.564,4.886-.295,4.886,2.832"/>
  <polyline class="uuid-5953f4d2-5dab-48e3-ae5d-be94de2b2b0a" points="332.428 230.965 332.428 230.939 332.428 242.25"/>
  <path class="uuid-5953f4d2-5dab-48e3-ae5d-be94de2b2b0a" d="M310.197,115.838c0-3.127,2.2-6.939,5.13-8.477,3.911-2.395,8.061-4.787,12.215-7.16,2.686-1.564,4.886-.317,4.886,2.811"/>
  <path class="uuid-5953f4d2-5dab-48e3-ae5d-be94de2b2b0a" d="M332.428,199.599c0,3.105-2.2,6.913-4.886,8.477-4.155,2.395-8.305,4.765-12.215,7.156-2.93,1.564-5.13.295-5.13-2.832h0v-11.285c0-3.128,2.2-6.935,5.13-8.477,3.911-2.396,8.061-4.761,12.215-7.157,2.686-1.563,4.886-.315,4.886,2.833"/>
  <path class="uuid-5953f4d2-5dab-48e3-ae5d-be94de2b2b0a" d="M332.428,156.948c0,3.127-2.2,6.939-4.886,8.503-4.155,2.369-8.305,4.764-12.215,7.13-2.93,1.564-5.13.295-5.13-2.807"/>
  <path class="uuid-5953f4d2-5dab-48e3-ae5d-be94de2b2b0a" d="M310.197,169.773v-11.309c0-3.102,2.2-6.914,5.13-8.477,3.911-2.37,8.061-4.761,12.215-7.157,2.686-1.563,4.886-.295,4.886,2.833"/>
  <polygon class="uuid-5953f4d2-5dab-48e3-ae5d-be94de2b2b0a" points="127.476 199.723 108.177 188.509 108.177 375.752 127.476 386.964 127.476 199.723"/>
  <polygon class="uuid-5953f4d2-5dab-48e3-ae5d-be94de2b2b0a" points="170.47 174.955 150.924 163.74 108.177 188.509 127.476 199.723 170.47 174.955"/>
  <path class="uuid-5953f4d2-5dab-48e3-ae5d-be94de2b2b0a" d="M137.734,215.43c0-3.127,2.2-6.913,4.886-8.477,4.155-2.395,8.305-4.764,12.458-7.156,2.687-1.564,4.887-.295,4.887,2.833"/>
  <path class="uuid-5953f4d2-5dab-48e3-ae5d-be94de2b2b0a" d="M137.734,343.359c0-3.101,2.2-6.939,4.886-8.477,4.155-2.391,8.305-4.787,12.458-7.156,2.687-1.564,4.887-.295,4.887,2.834"/>
  <path class="uuid-5953f4d2-5dab-48e3-ae5d-be94de2b2b0a" d="M159.965,299.196c0,3.102-2.2,6.935-4.887,8.473-4.154,2.396-8.303,4.791-12.458,7.16-2.685,1.564-4.886.291-4.886-2.81"/>
  <path class="uuid-5953f4d2-5dab-48e3-ae5d-be94de2b2b0a" d="M137.734,312.019v-11.311c0-3.127,2.2-6.913,4.886-8.477,4.155-2.392,8.305-4.761,12.458-7.156,2.687-1.564,4.887-.295,4.887,2.832"/>
  <path class="uuid-5953f4d2-5dab-48e3-ae5d-be94de2b2b0a" d="M159.965,256.541c0,3.127-2.2,6.939-4.887,8.503-4.154,2.369-8.303,4.761-12.458,7.156-2.685,1.542-4.886.295-4.886-2.832"/>
  <path class="uuid-5953f4d2-5dab-48e3-ae5d-be94de2b2b0a" d="M137.734,269.368v-11.311c0-3.102,2.2-6.913,4.886-8.477,4.155-2.37,8.305-4.765,12.458-7.157,2.687-1.537,4.887-.293,4.887,2.833h0v11.285"/>
  <path class="uuid-5953f4d2-5dab-48e3-ae5d-be94de2b2b0a" d="M332.428,242.25c0,3.106-2.2,6.913-4.886,8.477"/>
  <line class="uuid-9416dd36-901a-4fa6-9dc1-3a073db27946" x1="327.542" y1="250.727" x2="315.326" y2="257.887"/>
  <path class="uuid-5953f4d2-5dab-48e3-ae5d-be94de2b2b0a" d="M315.326,257.887c-2.93,1.538-5.13.291-5.13-2.836"/>
  <path class="uuid-5953f4d2-5dab-48e3-ae5d-be94de2b2b0a" d="M332.428,114.321c0,3.102-2.2,6.914-4.886,8.477"/>
  <line class="uuid-9416dd36-901a-4fa6-9dc1-3a073db27946" x1="327.542" y1="122.799" x2="315.326" y2="129.956"/>
  <path class="uuid-5953f4d2-5dab-48e3-ae5d-be94de2b2b0a" d="M315.326,129.956c-2.93,1.564-5.13.295-5.13-2.833"/>
  <line class="uuid-9416dd36-901a-4fa6-9dc1-3a073db27946" x1="310.197" y1="127.122" x2="310.197" y2="115.838"/>
  <line class="uuid-9416dd36-901a-4fa6-9dc1-3a073db27946" x1="332.428" y1="103.012" x2="332.428" y2="114.321"/>
  <path class="uuid-5953f4d2-5dab-48e3-ae5d-be94de2b2b0a" d="M332.428,188.314v11.285"/>
  <path class="uuid-5953f4d2-5dab-48e3-ae5d-be94de2b2b0a" d="M332.428,145.663v11.285"/>
  <path class="uuid-5953f4d2-5dab-48e3-ae5d-be94de2b2b0a" d="M159.965,213.916c0,3.101-2.2,6.913-4.887,8.477"/>
  <line class="uuid-9416dd36-901a-4fa6-9dc1-3a073db27946" x1="155.078" y1="222.393" x2="142.62" y2="229.549"/>
  <path class="uuid-5953f4d2-5dab-48e3-ae5d-be94de2b2b0a" d="M142.62,229.549c-2.685,1.564-4.886.295-4.886-2.834"/>
  <line class="uuid-9416dd36-901a-4fa6-9dc1-3a073db27946" x1="137.734" y1="226.715" x2="137.734" y2="215.43"/>
  <line class="uuid-9416dd36-901a-4fa6-9dc1-3a073db27946" x1="159.965" y1="202.631" x2="159.965" y2="213.916"/>
  <path class="uuid-5953f4d2-5dab-48e3-ae5d-be94de2b2b0a" d="M159.965,341.847c0,3.102-2.2,6.91-4.887,8.473"/>
  <line class="uuid-9416dd36-901a-4fa6-9dc1-3a073db27946" x1="155.078" y1="350.32" x2="142.62" y2="357.481"/>
  <path class="uuid-5953f4d2-5dab-48e3-ae5d-be94de2b2b0a" d="M142.62,357.481c-2.685,1.563-4.886.291-4.886-2.834"/>
  <line class="uuid-9416dd36-901a-4fa6-9dc1-3a073db27946" x1="137.734" y1="354.647" x2="137.734" y2="343.359"/>
  <line class="uuid-9416dd36-901a-4fa6-9dc1-3a073db27946" x1="159.965" y1="330.559" x2="159.965" y2="341.847"/>
  <path class="uuid-5953f4d2-5dab-48e3-ae5d-be94de2b2b0a" d="M159.965,287.907v11.289"/>
  <line class="uuid-27016260-51eb-4f67-a0f3-fa9d218b65dc" x1="151.903" y1="371.377" x2="128.94" y2="358.065"/>
  <line class="uuid-27016260-51eb-4f67-a0f3-fa9d218b65dc" x1="168.759" y1="355.012" x2="158.743" y2="349.272"/>
  <line class="uuid-27016260-51eb-4f67-a0f3-fa9d218b65dc" x1="137.981" y1="337.252" x2="129.429" y2="332.27"/>
  <line class="uuid-27016260-51eb-4f67-a0f3-fa9d218b65dc" x1="180.728" y1="335.886" x2="144.33" y2="314.877"/>
  <line class="uuid-27016260-51eb-4f67-a0f3-fa9d218b65dc" x1="136.027" y1="310.039" x2="129.429" y2="306.253"/>
  <line class="uuid-27016260-51eb-4f67-a0f3-fa9d218b65dc" x1="202.469" y1="322.327" x2="192.943" y2="316.904"/>
  <line class="uuid-27016260-51eb-4f67-a0f3-fa9d218b65dc" x1="172.423" y1="305.031" x2="161.676" y2="298.828"/>
  <line class="uuid-27016260-51eb-4f67-a0f3-fa9d218b65dc" x1="145.063" y1="289.154" x2="129.187" y2="280.015"/>
  <line class="uuid-27016260-51eb-4f67-a0f3-fa9d218b65dc" x1="224.943" y1="309.307" x2="215.663" y2="303.861"/>
  <line class="uuid-27016260-51eb-4f67-a0f3-fa9d218b65dc" x1="172.67" y1="279.139" x2="153.124" y2="267.803"/>
  <line class="uuid-27016260-51eb-4f67-a0f3-fa9d218b65dc" x1="136.027" y1="257.909" x2="129.429" y2="254.124"/>
  <line class="uuid-27016260-51eb-4f67-a0f3-fa9d218b65dc" x1="247.662" y1="296.237" x2="238.133" y2="290.792"/>
  <line class="uuid-27016260-51eb-4f67-a0f3-fa9d218b65dc" x1="172.423" y1="252.854" x2="161.676" y2="246.647"/>
  <line class="uuid-27016260-51eb-4f67-a0f3-fa9d218b65dc" x1="153.614" y1="241.908" x2="128.94" y2="227.668"/>
  <line class="uuid-27016260-51eb-4f67-a0f3-fa9d218b65dc" x1="270.137" y1="283.194" x2="260.853" y2="277.745"/>
  <line class="uuid-27016260-51eb-4f67-a0f3-fa9d218b65dc" x1="172.423" y1="226.837" x2="159.965" y2="219.533"/>
  <line class="uuid-27016260-51eb-4f67-a0f3-fa9d218b65dc" x1="139.202" y1="207.639" x2="129.429" y2="201.873"/>
  <line class="uuid-27016260-51eb-4f67-a0f3-fa9d218b65dc" x1="309.465" y1="279.824" x2="301.892" y2="275.401"/>
  <line class="uuid-27016260-51eb-4f67-a0f3-fa9d218b65dc" x1="292.853" y1="270.172" x2="283.327" y2="264.749"/>
  <line class="uuid-27016260-51eb-4f67-a0f3-fa9d218b65dc" x1="174.866" y1="202.116" x2="150.439" y2="187.997"/>
  <line class="uuid-27016260-51eb-4f67-a0f3-fa9d218b65dc" x1="332.181" y1="266.923" x2="317.526" y2="258.424"/>
  <line class="uuid-27016260-51eb-4f67-a0f3-fa9d218b65dc" x1="308.733" y1="253.318" x2="297.006" y2="246.599"/>
  <line class="uuid-27016260-51eb-4f67-a0f3-fa9d218b65dc" x1="197.093" y1="188.803" x2="187.567" y2="183.332"/>
  <line class="uuid-27016260-51eb-4f67-a0f3-fa9d218b65dc" x1="341.221" y1="245.966" x2="334.381" y2="242.107"/>
  <line class="uuid-27016260-51eb-4f67-a0f3-fa9d218b65dc" x1="317.526" y1="232.334" x2="296.764" y2="220.365"/>
  <line class="uuid-27016260-51eb-4f67-a0f3-fa9d218b65dc" x1="219.57" y1="175.782" x2="210.04" y2="170.311"/>
  <line class="uuid-27016260-51eb-4f67-a0f3-fa9d218b65dc" x1="341.464" y1="220.071" x2="325.587" y2="210.982"/>
  <line class="uuid-27016260-51eb-4f67-a0f3-fa9d218b65dc" x1="308.733" y1="201.189" x2="297.006" y2="194.469"/>
  <line class="uuid-27016260-51eb-4f67-a0f3-fa9d218b65dc" x1="242.044" y1="162.738" x2="232.514" y2="157.267"/>
  <line class="uuid-27016260-51eb-4f67-a0f3-fa9d218b65dc" x1="341.221" y1="193.759" x2="334.381" y2="189.926"/>
  <line class="uuid-27016260-51eb-4f67-a0f3-fa9d218b65dc" x1="326.076" y1="185.091" x2="296.517" y2="168.015"/>
  <line class="uuid-27016260-51eb-4f67-a0f3-fa9d218b65dc" x1="264.76" y1="149.692" x2="255.234" y2="144.221"/>
  <line class="uuid-27016260-51eb-4f67-a0f3-fa9d218b65dc" x1="341.221" y1="167.721" x2="332.67" y2="162.764"/>
  <line class="uuid-27016260-51eb-4f67-a0f3-fa9d218b65dc" x1="311.907" y1="150.843" x2="297.006" y2="142.219"/>
  <line class="uuid-27016260-51eb-4f67-a0f3-fa9d218b65dc" x1="287.234" y1="136.648" x2="277.95" y2="131.177"/>
  <line class="uuid-27016260-51eb-4f67-a0f3-fa9d218b65dc" x1="341.711" y1="141.951" x2="319.48" y2="129.124"/>
  <line class="uuid-27016260-51eb-4f67-a0f3-fa9d218b65dc" x1="308.49" y1="122.869" x2="300.428" y2="118.182"/>
  <line class="uuid-27016260-51eb-4f67-a0f3-fa9d218b65dc" x1="341.221" y1="115.591" x2="334.381" y2="111.732"/>
  <line class="uuid-27016260-51eb-4f67-a0f3-fa9d218b65dc" x1="319.237" y1="102.986" x2="308.975" y2="96.978"/>
  <line class="uuid-27016260-51eb-4f67-a0f3-fa9d218b65dc" x1="341.221" y1="89.6" x2="331.449" y2="83.982"/>
  <line class="uuid-27016260-51eb-4f67-a0f3-fa9d218b65dc" x1="151.903" y1="265.018" x2="139.445" y2="257.887"/>
  <line class="uuid-27016260-51eb-4f67-a0f3-fa9d218b65dc" x1="158.254" y1="255.735" x2="147.017" y2="249.116"/>
  <line class="uuid-27016260-51eb-4f67-a0f3-fa9d218b65dc" x1="151.903" y1="307.669" x2="139.445" y2="300.513"/>
  <line class="uuid-27016260-51eb-4f67-a0f3-fa9d218b65dc" x1="158.254" y1="298.364" x2="147.017" y2="291.767"/>
  <line class="uuid-27016260-51eb-4f67-a0f3-fa9d218b65dc" x1="151.903" y1="350.298" x2="139.445" y2="343.164"/>
  <line class="uuid-27016260-51eb-4f67-a0f3-fa9d218b65dc" x1="158.254" y1="340.99" x2="147.017" y2="334.396"/>
  <line class="uuid-27016260-51eb-4f67-a0f3-fa9d218b65dc" x1="151.903" y1="222.367" x2="139.445" y2="215.232"/>
  <line class="uuid-27016260-51eb-4f67-a0f3-fa9d218b65dc" x1="158.254" y1="213.084" x2="147.017" y2="206.464"/>
  <line class="uuid-27016260-51eb-4f67-a0f3-fa9d218b65dc" x1="157.278" y1="168.895" x2="147.017" y2="186.434"/>
  <line class="uuid-27016260-51eb-4f67-a0f3-fa9d218b65dc" x1="143.841" y1="169.773" x2="127.233" y2="198.087"/>
  <line class="uuid-27016260-51eb-4f67-a0f3-fa9d218b65dc" x1="123.81" y1="181.621" x2="117.703" y2="192.126"/>
  <line class="uuid-27016260-51eb-4f67-a0f3-fa9d218b65dc" x1="288.212" y1="111.221" x2="279.904" y2="125.975"/>
  <line class="uuid-27016260-51eb-4f67-a0f3-fa9d218b65dc" x1="276.486" y1="109.388" x2="260.121" y2="137.575"/>
  <line class="uuid-27016260-51eb-4f67-a0f3-fa9d218b65dc" x1="256.698" y1="120.747" x2="240.576" y2="148.96"/>
  <line class="uuid-27016260-51eb-4f67-a0f3-fa9d218b65dc" x1="237.401" y1="131.961" x2="221.034" y2="160.175"/>
  <line class="uuid-27016260-51eb-4f67-a0f3-fa9d218b65dc" x1="217.617" y1="143.293" x2="201.493" y2="171.506"/>
  <line class="uuid-27016260-51eb-4f67-a0f3-fa9d218b65dc" x1="198.072" y1="154.578" x2="181.706" y2="182.817"/>
  <line class="uuid-27016260-51eb-4f67-a0f3-fa9d218b65dc" x1="178.284" y1="166.43" x2="172.423" y2="176.662"/>
  <line class="uuid-27016260-51eb-4f67-a0f3-fa9d218b65dc" x1="329.495" y1="69.081" x2="318.991" y2="87.279"/>
  <line class="uuid-27016260-51eb-4f67-a0f3-fa9d218b65dc" x1="315.573" y1="70.497" x2="299.449" y2="98.542"/>
  <line class="uuid-27016260-51eb-4f67-a0f3-fa9d218b65dc" x1="295.785" y1="82.396" x2="289.919" y2="92.337"/>
  <line class="uuid-27016260-51eb-4f67-a0f3-fa9d218b65dc" x1="298.717" y1="109.193" x2="282.105" y2="99.763"/>
  <line class="uuid-27016260-51eb-4f67-a0f3-fa9d218b65dc" x1="298.228" y1="277.428" x2="292.853" y2="274.327"/>
  <line class="uuid-27016260-51eb-4f67-a0f3-fa9d218b65dc" x1="125.522" y1="381.419" x2="123.81" y2="382.445"/>
  <line class="uuid-27016260-51eb-4f67-a0f3-fa9d218b65dc" x1="126.012" y1="368.128" x2="112.084" y2="376.142"/>
  <line class="uuid-27016260-51eb-4f67-a0f3-fa9d218b65dc" x1="126.012" y1="355.059" x2="109.641" y2="364.515"/>
  <line class="uuid-27016260-51eb-4f67-a0f3-fa9d218b65dc" x1="126.012" y1="342.041" x2="109.641" y2="351.495"/>
  <line class="uuid-27016260-51eb-4f67-a0f3-fa9d218b65dc" x1="126.012" y1="328.995" x2="109.641" y2="338.425"/>
  <line class="uuid-27016260-51eb-4f67-a0f3-fa9d218b65dc" x1="126.012" y1="315.951" x2="109.641" y2="325.403"/>
  <line class="uuid-27016260-51eb-4f67-a0f3-fa9d218b65dc" x1="126.012" y1="302.93" x2="109.641" y2="312.386"/>
  <line class="uuid-27016260-51eb-4f67-a0f3-fa9d218b65dc" x1="126.012" y1="289.912" x2="109.641" y2="299.364"/>
  <line class="uuid-27016260-51eb-4f67-a0f3-fa9d218b65dc" x1="126.012" y1="276.866" x2="109.641" y2="286.322"/>
  <line class="uuid-27016260-51eb-4f67-a0f3-fa9d218b65dc" x1="126.012" y1="263.848" x2="109.641" y2="273.3"/>
  <line class="uuid-27016260-51eb-4f67-a0f3-fa9d218b65dc" x1="126.012" y1="250.801" x2="109.641" y2="260.257"/>
  <line class="uuid-27016260-51eb-4f67-a0f3-fa9d218b65dc" x1="126.012" y1="237.731" x2="109.641" y2="247.187"/>
  <line class="uuid-27016260-51eb-4f67-a0f3-fa9d218b65dc" x1="126.012" y1="224.71" x2="109.641" y2="234.166"/>
  <line class="uuid-27016260-51eb-4f67-a0f3-fa9d218b65dc" x1="126.012" y1="211.668" x2="109.641" y2="221.123"/>
  <line class="uuid-27016260-51eb-4f67-a0f3-fa9d218b65dc" x1="124.3" y1="199.651" x2="109.641" y2="208.076"/>
  <line class="uuid-27016260-51eb-4f67-a0f3-fa9d218b65dc" x1="112.574" y1="193.37" x2="110.131" y2="194.79"/>
  <line class="uuid-27016260-51eb-4f67-a0f3-fa9d218b65dc" x1="324.366" y1="165.377" x2="311.907" y2="158.169"/>
  <line class="uuid-27016260-51eb-4f67-a0f3-fa9d218b65dc" x1="330.717" y1="156.046" x2="319.48" y2="149.5"/>
  <line class="uuid-27016260-51eb-4f67-a0f3-fa9d218b65dc" x1="324.366" y1="208.028" x2="311.907" y2="200.82"/>
  <line class="uuid-27016260-51eb-4f67-a0f3-fa9d218b65dc" x1="330.717" y1="198.697" x2="319.48" y2="192.148"/>
  <line class="uuid-27016260-51eb-4f67-a0f3-fa9d218b65dc" x1="324.366" y1="122.748" x2="311.907" y2="115.518"/>
  <line class="uuid-27016260-51eb-4f67-a0f3-fa9d218b65dc" x1="330.717" y1="113.395" x2="319.48" y2="106.871"/>
  <line class="uuid-27016260-51eb-4f67-a0f3-fa9d218b65dc" x1="324.366" y1="250.679" x2="311.907" y2="243.449"/>
  <line class="uuid-27016260-51eb-4f67-a0f3-fa9d218b65dc" x1="330.717" y1="241.349" x2="319.48" y2="234.799"/>
</svg>