<?xml version="1.0" encoding="UTF-8"?>
<svg id="uuid-f6f1b3ce-fc98-4218-91c9-1f74f6dced48" data-name="&amp;lt;Layer&amp;gt;" xmlns="http://www.w3.org/2000/svg" viewBox="0 0 451.11 451.11">
  <defs>
    <style>
      .uuid-13052d14-bcc9-4a83-b6c2-73a970f8265d, .uuid-5980760c-366d-40e4-ad51-7f741a12842a, .uuid-348876ff-d877-473f-b66d-da6353423230, .uuid-6cb35ebd-80d9-4957-a9e5-5a84d82a89cf {
        fill: none;
        stroke: #000;
        stroke-linecap: round;
      }

      .uuid-13052d14-bcc9-4a83-b6c2-73a970f8265d, .uuid-348876ff-d877-473f-b66d-da6353423230, .uuid-6cb35ebd-80d9-4957-a9e5-5a84d82a89cf {
        stroke-linejoin: round;
      }

      .uuid-13052d14-bcc9-4a83-b6c2-73a970f8265d, .uuid-6cb35ebd-80d9-4957-a9e5-5a84d82a89cf {
        stroke-width: 4.117px;
      }

      .uuid-5980760c-366d-40e4-ad51-7f741a12842a {
        stroke-miterlimit: 10;
        stroke-width: 1.163px;
      }

      .uuid-348876ff-d877-473f-b66d-da6353423230 {
        stroke-width: 4.113px;
      }

      .uuid-348876ff-d877-473f-b66d-da6353423230, .uuid-6cb35ebd-80d9-4957-a9e5-5a84d82a89cf {
        fill-rule: evenodd;
      }
    </style>
  </defs>
  <path class="uuid-6cb35ebd-80d9-4957-a9e5-5a84d82a89cf" d="M346.448,123.446l-20.347-11.726c-.857-.343-2.541-.218-3.542.073-.928.221-1.734.637-2.543,1.101l-40.429,23.328"/>
  <path class="uuid-348876ff-d877-473f-b66d-da6353423230" d="M340.293,252.72c5.618-3.249,10.261-11.189,10.261-17.76v-104.406c0-1.696-.359-3.793-1.761-5.555-2.867-2.425-5.673-2.101-8.452-.379-20.272,11.674-40.524,23.4-60.801,35.076"/>
  <path class="uuid-348876ff-d877-473f-b66d-da6353423230" d="M125.763,319.529l-16.623-9.529c-2.785-1.527-6.461-2.892-7.877-6.262-.464-1.232-.634-2.627-.706-3.923l.073-110.513"/>
  <path class="uuid-348876ff-d877-473f-b66d-da6353423230" d="M279.491,223.602c.048-27.238.048-84.376.048-111.589,0-6.891-4.883-9.721-10.795-6.28-44.951,25.921-89.898,51.864-134.846,77.781-9.581,5.515-10.593,14.618-10.795,24.501l-.072,104.185"/>
  <line class="uuid-13052d14-bcc9-4a83-b6c2-73a970f8265d" x1="149.216" y1="268.305" x2="216.221" y2="229.657"/>
  <line class="uuid-13052d14-bcc9-4a83-b6c2-73a970f8265d" x1="149.216" y1="238.966" x2="253.353" y2="178.922"/>
  <line class="uuid-13052d14-bcc9-4a83-b6c2-73a970f8265d" x1="149.216" y1="211.338" x2="240.331" y2="158.819"/>
  <path class="uuid-6cb35ebd-80d9-4957-a9e5-5a84d82a89cf" d="M131.87,359.789c4.35-7.45,8.651-14.879,12.947-22.355,27.335-47.755,81.054-71.744,123.51-94.902,3.076-1.634,5.691-4.372,7.888-8.062,2.149-3.712,3.275-7.352,3.275-10.868"/>
  <path class="uuid-6cb35ebd-80d9-4957-a9e5-5a84d82a89cf" d="M123.03,312.811c0,6.892,4.811,9.699,10.798,6.255"/>
  <line class="uuid-13052d14-bcc9-4a83-b6c2-73a970f8265d" x1="227.388" y1="278.248" x2="325.755" y2="221.5"/>
  <line class="uuid-13052d14-bcc9-4a83-b6c2-73a970f8265d" x1="318.331" y1="198.074" x2="279.954" y2="220.227"/>
  <line class="uuid-13052d14-bcc9-4a83-b6c2-73a970f8265d" x1="325.755" y1="167.685" x2="280.006" y2="194.115"/>
  <line class="uuid-13052d14-bcc9-4a83-b6c2-73a970f8265d" x1="104.451" y1="178.058" x2="126.135" y2="190.571"/>
  <line class="uuid-13052d14-bcc9-4a83-b6c2-73a970f8265d" x1="134.119" y1="320.167" x2="134.362" y2="318.749"/>
  <path class="uuid-6cb35ebd-80d9-4957-a9e5-5a84d82a89cf" d="M242.09,95.232c3.054-1.811,6.965-4.765,10.677-3.714,1.318.391,20.372,11.602,23.232,13.312"/>
  <line class="uuid-13052d14-bcc9-4a83-b6c2-73a970f8265d" x1="115.652" y1="168.124" x2="242.09" y2="95.232"/>
  <path class="uuid-6cb35ebd-80d9-4957-a9e5-5a84d82a89cf" d="M104.268,177.921c3.028-5.154,6.107-6.718,11.383-9.797"/>
  <path class="uuid-6cb35ebd-80d9-4957-a9e5-5a84d82a89cf" d="M100.629,189.302c.06-4.147,1.476-7.745,3.54-11.259"/>
  <path class="uuid-6cb35ebd-80d9-4957-a9e5-5a84d82a89cf" d="M109.449,346.864c-.294-11.034-.475-25.237,1.56-35.834"/>
  <line class="uuid-13052d14-bcc9-4a83-b6c2-73a970f8265d" x1="131.87" y1="359.811" x2="109.449" y2="346.864"/>
  <path class="uuid-6cb35ebd-80d9-4957-a9e5-5a84d82a89cf" d="M134.414,318.749c-2.882,12.338-2.73,28.446-2.543,41.062"/>
  <path class="uuid-348876ff-d877-473f-b66d-da6353423230" d="M202.64,279.616v41.82c0,5.405,5.883,8.871,10.577,6.155l79.1-45.657c24.622-12.727,34.196-1.637,49.807,7.134.195-12.948.463-25.015-2.321-36.057"/>
  <line class="uuid-13052d14-bcc9-4a83-b6c2-73a970f8265d" x1="184.342" y1="314.696" x2="204.667" y2="326.418"/>
  <path class="uuid-6cb35ebd-80d9-4957-a9e5-5a84d82a89cf" d="M182.315,309.684c0,1.931.71,3.664,2.028,5.012"/>
  <line class="uuid-13052d14-bcc9-4a83-b6c2-73a970f8265d" x1="182.315" y1="294.54" x2="182.315" y2="309.684"/>
  <line class="uuid-13052d14-bcc9-4a83-b6c2-73a970f8265d" x1="194.578" y1="185.247" x2="191.967" y2="186.763"/>
  <path class="uuid-6cb35ebd-80d9-4957-a9e5-5a84d82a89cf" d="M196.606,184.078c-.511.339-1.269.758-2.027,1.169"/>
  <line class="uuid-13052d14-bcc9-4a83-b6c2-73a970f8265d" x1="240.405" y1="158.819" x2="196.606" y2="184.078"/>
  <line class="uuid-5980760c-366d-40e4-ad51-7f741a12842a" x1="201.028" y1="308.757" x2="189.181" y2="315.574"/>
  <line class="uuid-5980760c-366d-40e4-ad51-7f741a12842a" x1="201.2" y1="295.592" x2="183.831" y2="305.629"/>
  <line class="uuid-5980760c-366d-40e4-ad51-7f741a12842a" x1="121.171" y1="308.488" x2="115.822" y2="311.567"/>
  <line class="uuid-5980760c-366d-40e4-ad51-7f741a12842a" x1="121.466" y1="295.272" x2="104.169" y2="305.288"/>
  <line class="uuid-5980760c-366d-40e4-ad51-7f741a12842a" x1="121.466" y1="282.251" x2="102.656" y2="293.097"/>
  <line class="uuid-5980760c-366d-40e4-ad51-7f741a12842a" x1="121.392" y1="269.233" x2="102.582" y2="280.105"/>
  <line class="uuid-5980760c-366d-40e4-ad51-7f741a12842a" x1="121.344" y1="256.237" x2="102.536" y2="267.106"/>
  <line class="uuid-5980760c-366d-40e4-ad51-7f741a12842a" x1="121.344" y1="243.194" x2="102.462" y2="254.136"/>
  <line class="uuid-5980760c-366d-40e4-ad51-7f741a12842a" x1="121.392" y1="230.146" x2="102.362" y2="241.14"/>
  <line class="uuid-5980760c-366d-40e4-ad51-7f741a12842a" x1="121.514" y1="217.03" x2="102.289" y2="228.145"/>
  <line class="uuid-5980760c-366d-40e4-ad51-7f741a12842a" x1="121.708" y1="203.91" x2="102.241" y2="215.149"/>
  <line class="uuid-5980760c-366d-40e4-ad51-7f741a12842a" x1="122.783" y1="190.207" x2="102.119" y2="202.176"/>
  <line class="uuid-5980760c-366d-40e4-ad51-7f741a12842a" x1="111.13" y1="183.93" x2="102.778" y2="188.743"/>
  <line class="uuid-5980760c-366d-40e4-ad51-7f741a12842a" x1="130.164" y1="344.425" x2="119.438" y2="350.628"/>
  <line class="uuid-5980760c-366d-40e4-ad51-7f741a12842a" x1="131.212" y1="330.792" x2="110.839" y2="342.566"/>
  <line class="uuid-5980760c-366d-40e4-ad51-7f741a12842a" x1="125.399" y1="321.115" x2="111.13" y2="329.35"/>
  <line class="uuid-5980760c-366d-40e4-ad51-7f741a12842a" x1="113.672" y1="314.864" x2="112.525" y2="315.498"/>
  <line class="uuid-5980760c-366d-40e4-ad51-7f741a12842a" x1="267.179" y1="101.825" x2="265.031" y2="105.563"/>
  <line class="uuid-5980760c-366d-40e4-ad51-7f741a12842a" x1="257.749" y1="95.596" x2="245.144" y2="117.437"/>
  <line class="uuid-5980760c-366d-40e4-ad51-7f741a12842a" x1="244.926" y1="95.206" x2="225.356" y2="129.111"/>
  <line class="uuid-5980760c-366d-40e4-ad51-7f741a12842a" x1="225.356" y1="106.494" x2="205.789" y2="140.422"/>
  <line class="uuid-5980760c-366d-40e4-ad51-7f741a12842a" x1="205.841" y1="117.753" x2="186.273" y2="151.709"/>
  <line class="uuid-5980760c-366d-40e4-ad51-7f741a12842a" x1="186.273" y1="129.041" x2="166.708" y2="162.994"/>
  <line class="uuid-5980760c-366d-40e4-ad51-7f741a12842a" x1="166.755" y1="140.278" x2="147.188" y2="174.257"/>
  <line class="uuid-5980760c-366d-40e4-ad51-7f741a12842a" x1="147.309" y1="151.416" x2="125.473" y2="189.206"/>
  <line class="uuid-5980760c-366d-40e4-ad51-7f741a12842a" x1="127.448" y1="163.263" x2="115.947" y2="183.147"/>
  <line class="uuid-5980760c-366d-40e4-ad51-7f741a12842a" x1="335.869" y1="119.343" x2="330.984" y2="127.842"/>
  <line class="uuid-5980760c-366d-40e4-ad51-7f741a12842a" x1="326.466" y1="113.114" x2="311.079" y2="139.715"/>
  <line class="uuid-5980760c-366d-40e4-ad51-7f741a12842a" x1="308.805" y1="121.101" x2="291.508" y2="151.099"/>
  <line class="uuid-5980760c-366d-40e4-ad51-7f741a12842a" x1="288.895" y1="132.95" x2="281.396" y2="145.945"/>
</svg>