<?xml version="1.0" encoding="UTF-8"?>
<svg id="uuid-6f35696c-35df-47ee-882e-a72bdb09a757" data-name="&amp;lt;Layer&amp;gt;" xmlns="http://www.w3.org/2000/svg" viewBox="0 0 451.11 451.11">
  <defs>
    <style>
      .uuid-ea87fafb-6775-4e3b-b67b-81986f0e997e {
        stroke-miterlimit: 10;
        stroke-width: 1.163px;
      }

      .uuid-ea87fafb-6775-4e3b-b67b-81986f0e997e, .uuid-0c3532b8-4b2a-40f7-ae9a-a9f24a777987 {
        fill: none;
        stroke: #000;
        stroke-linecap: round;
      }

      .uuid-0c3532b8-4b2a-40f7-ae9a-a9f24a777987 {
        fill-rule: evenodd;
        stroke-linejoin: round;
        stroke-width: 4.113px;
      }
    </style>
  </defs>
  <path class="uuid-0c3532b8-4b2a-40f7-ae9a-a9f24a777987" d="M263.548,278.898c.832-.489,1.516-.1,1.516.853,0,.979-.684,2.153-1.516,2.643-.854.486-1.512.095-1.512-.884,0-.949.658-2.122,1.512-2.612h0ZM263.548,261.337c.832-.489,1.516-.1,1.516.854,0,.975-.684,2.148-1.516,2.638-.854.489-1.512.074-1.512-.879,0-.979.658-2.149,1.512-2.613h0ZM271.636,142.004l-6.987,4.029v16.123l6.987-4.029v-16.122h0ZM153.281,347.735c-3.202-3.54-2.149-11.847-2.149-17.219M151.132,330.516v-150.721M151.132,179.795c0-9.04.633-15.49,7.669-22.963,4.228-4.544,24.968-15.56,31.539-19.373M190.339,137.459l81.002-46.489M271.341,90.97c2.2-.732,4.302-.78,6.328.295M277.669,91.265l18.809,10.847M296.478,102.112c-5.276-2.491-10.088,1.589-15.681,4.787M280.797,106.899l-98.372,56.82M182.425,163.719c-7.013,4.154-12.484,13.559-12.532,21.693M287.611,102.969c6.887-3.985,12.532-.736,12.532,7.252v166.308c0,7.962-5.645,17.735-12.532,21.716-36.544,21.105-68.668,39.624-105.186,60.728-6.913,3.981-12.532.732-12.532-7.23M243.274,305.405l40.551-23.406M283.825,281.999c1.099-.61,1.979-2.122,1.979-3.344M285.804,278.656v-40.286M285.804,238.37c0-1.221-.88-1.733-1.979-1.121M283.825,237.248l-40.551,23.426M243.274,260.675c-1.027.61-1.905,2.1-1.905,3.322M241.369,263.996v40.282M241.369,304.278c0,1.221.879,1.737,1.905,1.127M186.675,338.089l40.525-23.402M227.2,314.687c1.099-.636,1.979-2.126,1.979-3.348M229.179,311.339v-40.282M229.179,271.057c0-1.221-.88-1.737-1.979-1.125M227.2,269.932l-40.525,23.404M186.675,293.336c-1.053.61-1.931,2.123-1.931,3.345M184.744,296.681v40.285M184.744,336.966c0,1.243.878,1.733,1.931,1.123M283.825,180.012l-40.551,23.43M243.274,203.442c-1.027.61-1.905,2.1-1.905,3.345M241.369,206.787v40.281M241.369,247.068c0,1.221.879,1.737,1.905,1.101M243.274,248.168l40.551-23.402M283.825,224.767c1.099-.61,1.979-2.104,1.979-3.348M285.804,221.419v-40.282M285.804,181.137c0-1.222-.88-1.737-1.979-1.125M227.2,212.725l-40.525,23.4M186.675,236.125c-1.053.611-1.931,2.102-1.931,3.345M184.744,239.47v40.281M184.744,279.751c0,1.223.878,1.737,1.931,1.101M186.675,280.852l40.525-23.4M227.2,257.452c1.099-.611,1.979-2.102,1.979-3.349M229.179,254.103v-40.282M229.179,213.821c0-1.221-.88-1.733-1.979-1.095M186.432,217.316l97.15-56.114M283.582,161.202c1.049-.61,1.928-2.1,1.928-3.345M285.51,157.857v-31.44M285.51,126.417c0-1.221-.879-1.711-1.928-1.099M283.582,125.318l-97.15,56.088M186.432,181.406c-1.026.611-1.909,2.124-1.909,3.345M184.523,184.751v31.44M184.523,216.191c0,1.222.883,1.737,1.909,1.125M173.948,172.365l-18.761-10.842M155.187,161.523c-2.417,4.102-4.007,8.253-4.055,13.068v166.305c.122,3.47.633,6.033,3.666,8.112M154.797,349.009l18.735,10.821M169.893,351.742v-166.33c.096-4.791,1.612-8.967,4.055-13.048M253.801,277.481l19.571-11.283M253.801,219.756l19.571-11.307M197.18,252.466l19.566-11.311M206.948,235.489v22.62M200.086,316.347l13.701-23.795M200.086,300.492l13.753,7.94"/>
  <line class="uuid-ea87fafb-6775-4e3b-b67b-81986f0e997e" x1="280.454" y1="94.488" x2="271.219" y2="110.417"/>
  <line class="uuid-ea87fafb-6775-4e3b-b67b-81986f0e997e" x1="266.921" y1="95.298" x2="251.483" y2="122.069"/>
  <line class="uuid-ea87fafb-6775-4e3b-b67b-81986f0e997e" x1="247.476" y1="106.46" x2="231.965" y2="133.332"/>
  <line class="uuid-ea87fafb-6775-4e3b-b67b-81986f0e997e" x1="227.958" y1="117.671" x2="212.397" y2="144.641"/>
  <line class="uuid-ea87fafb-6775-4e3b-b67b-81986f0e997e" x1="208.442" y1="128.886" x2="192.83" y2="155.926"/>
  <line class="uuid-ea87fafb-6775-4e3b-b67b-81986f0e997e" x1="189.044" y1="139.924" x2="171.7" y2="169.922"/>
  <line class="uuid-ea87fafb-6775-4e3b-b67b-81986f0e997e" x1="169.257" y1="151.702" x2="162.27" y2="163.693"/>
  <line class="uuid-ea87fafb-6775-4e3b-b67b-81986f0e997e" x1="198.449" y1="348.397" x2="171.115" y2="332.592"/>
  <line class="uuid-ea87fafb-6775-4e3b-b67b-81986f0e997e" x1="220.532" y1="335.108" x2="207.853" y2="327.779"/>
  <line class="uuid-ea87fafb-6775-4e3b-b67b-81986f0e997e" x1="183.131" y1="313.488" x2="171.626" y2="306.869"/>
  <line class="uuid-ea87fafb-6775-4e3b-b67b-81986f0e997e" x1="243.18" y1="322.061" x2="229.767" y2="314.346"/>
  <line class="uuid-ea87fafb-6775-4e3b-b67b-81986f0e997e" x1="188.58" y1="290.551" x2="171.457" y2="280.657"/>
  <line class="uuid-ea87fafb-6775-4e3b-b67b-81986f0e997e" x1="265.7" y1="309.043" x2="252.995" y2="301.713"/>
  <line class="uuid-ea87fafb-6775-4e3b-b67b-81986f0e997e" x1="239.636" y1="293.994" x2="230.989" y2="289.012"/>
  <line class="uuid-ea87fafb-6775-4e3b-b67b-81986f0e997e" x1="210.834" y1="277.334" x2="203.625" y2="273.207"/>
  <line class="uuid-ea87fafb-6775-4e3b-b67b-81986f0e997e" x1="183.131" y1="261.359" x2="171.626" y2="254.714"/>
  <line class="uuid-ea87fafb-6775-4e3b-b67b-81986f0e997e" x1="288.247" y1="295.949" x2="275.643" y2="288.667"/>
  <line class="uuid-ea87fafb-6775-4e3b-b67b-81986f0e997e" x1="239.805" y1="268.003" x2="226.051" y2="260.037"/>
  <line class="uuid-ea87fafb-6775-4e3b-b67b-81986f0e997e" x1="184.523" y1="236.074" x2="171.578" y2="228.601"/>
  <line class="uuid-ea87fafb-6775-4e3b-b67b-81986f0e997e" x1="298.505" y1="275.822" x2="287.537" y2="269.493"/>
  <line class="uuid-ea87fafb-6775-4e3b-b67b-81986f0e997e" x1="255.953" y1="251.269" x2="248.819" y2="247.142"/>
  <line class="uuid-ea87fafb-6775-4e3b-b67b-81986f0e997e" x1="239.636" y1="241.865" x2="230.989" y2="236.858"/>
  <line class="uuid-ea87fafb-6775-4e3b-b67b-81986f0e997e" x1="206.584" y1="222.763" x2="193.415" y2="215.164"/>
  <line class="uuid-ea87fafb-6775-4e3b-b67b-81986f0e997e" x1="182.841" y1="209.06" x2="171.626" y2="202.584"/>
  <line class="uuid-ea87fafb-6775-4e3b-b67b-81986f0e997e" x1="298.505" y1="249.757" x2="287.537" y2="243.403"/>
  <line class="uuid-ea87fafb-6775-4e3b-b67b-81986f0e997e" x1="278.523" y1="238.227" x2="271.393" y2="234.094"/>
  <line class="uuid-ea87fafb-6775-4e3b-b67b-81986f0e997e" x1="240.147" y1="216.069" x2="215.646" y2="201.9"/>
  <line class="uuid-ea87fafb-6775-4e3b-b67b-81986f0e997e" x1="183.131" y1="183.139" x2="173.363" y2="177.521"/>
  <line class="uuid-ea87fafb-6775-4e3b-b67b-81986f0e997e" x1="298.505" y1="223.667" x2="287.537" y2="217.338"/>
  <line class="uuid-ea87fafb-6775-4e3b-b67b-81986f0e997e" x1="251.773" y1="196.697" x2="238.583" y2="189.077"/>
  <line class="uuid-ea87fafb-6775-4e3b-b67b-81986f0e997e" x1="204.335" y1="169.29" x2="190.144" y2="161.128"/>
  <line class="uuid-ea87fafb-6775-4e3b-b67b-81986f0e997e" x1="298.505" y1="197.602" x2="287.537" y2="191.274"/>
  <line class="uuid-ea87fafb-6775-4e3b-b67b-81986f0e997e" x1="274.347" y1="183.654" x2="261.181" y2="176.057"/>
  <line class="uuid-ea87fafb-6775-4e3b-b67b-81986f0e997e" x1="226.861" y1="156.243" x2="212.74" y2="148.086"/>
  <line class="uuid-ea87fafb-6775-4e3b-b67b-81986f0e997e" x1="298.627" y1="171.633" x2="283.703" y2="162.987"/>
  <line class="uuid-ea87fafb-6775-4e3b-b67b-81986f0e997e" x1="249.431" y1="143.225" x2="235.286" y2="135.042"/>
  <line class="uuid-ea87fafb-6775-4e3b-b67b-81986f0e997e" x1="298.505" y1="145.473" x2="287.247" y2="138.997"/>
  <line class="uuid-ea87fafb-6775-4e3b-b67b-81986f0e997e" x1="272.025" y1="130.203" x2="257.856" y2="122.021"/>
  <line class="uuid-ea87fafb-6775-4e3b-b67b-81986f0e997e" x1="298.752" y1="119.53" x2="280.333" y2="108.903"/>
  <line class="uuid-ea87fafb-6775-4e3b-b67b-81986f0e997e" x1="168.036" y1="353.206" x2="166.398" y2="354.137"/>
  <line class="uuid-ea87fafb-6775-4e3b-b67b-81986f0e997e" x1="168.134" y1="340.09" x2="155.724" y2="347.246"/>
  <line class="uuid-ea87fafb-6775-4e3b-b67b-81986f0e997e" x1="168.256" y1="326.998" x2="152.77" y2="335.961"/>
  <line class="uuid-ea87fafb-6775-4e3b-b67b-81986f0e997e" x1="168.329" y1="313.929" x2="152.77" y2="322.918"/>
  <line class="uuid-ea87fafb-6775-4e3b-b67b-81986f0e997e" x1="168.377" y1="300.857" x2="152.696" y2="309.897"/>
  <line class="uuid-ea87fafb-6775-4e3b-b67b-81986f0e997e" x1="168.377" y1="287.813" x2="152.696" y2="296.854"/>
  <line class="uuid-ea87fafb-6775-4e3b-b67b-81986f0e997e" x1="168.377" y1="274.77" x2="152.696" y2="283.832"/>
  <line class="uuid-ea87fafb-6775-4e3b-b67b-81986f0e997e" x1="168.377" y1="261.749" x2="152.696" y2="270.789"/>
  <line class="uuid-ea87fafb-6775-4e3b-b67b-81986f0e997e" x1="168.377" y1="248.706" x2="152.696" y2="257.742"/>
  <line class="uuid-ea87fafb-6775-4e3b-b67b-81986f0e997e" x1="168.377" y1="235.684" x2="152.696" y2="244.725"/>
  <line class="uuid-ea87fafb-6775-4e3b-b67b-81986f0e997e" x1="168.377" y1="222.641" x2="152.696" y2="231.677"/>
  <line class="uuid-ea87fafb-6775-4e3b-b67b-81986f0e997e" x1="168.377" y1="209.593" x2="152.696" y2="218.634"/>
  <line class="uuid-ea87fafb-6775-4e3b-b67b-81986f0e997e" x1="168.377" y1="196.575" x2="152.696" y2="205.612"/>
  <line class="uuid-ea87fafb-6775-4e3b-b67b-81986f0e997e" x1="168.503" y1="183.459" x2="152.696" y2="192.568"/>
  <line class="uuid-ea87fafb-6775-4e3b-b67b-81986f0e997e" x1="168.036" y1="170.68" x2="152.77" y2="179.522"/>
</svg>