<?xml version="1.0" encoding="UTF-8"?>
<svg id="uuid-a58de36e-8ec8-4d72-88fa-39ba65c1d2e7" data-name="&amp;lt;Layer&amp;gt;" xmlns="http://www.w3.org/2000/svg" viewBox="0 0 451.11 451.11">
  <defs>
    <style>
      .uuid-b019f1e1-a41c-4f74-a9fd-d4d8792dff63, .uuid-0660b7e3-3103-4b15-9ac3-7ed6cce2d6e5, .uuid-56416af7-c1fc-4dfe-92fc-e4e2b4515f5a {
        stroke-linecap: round;
      }

      .uuid-b019f1e1-a41c-4f74-a9fd-d4d8792dff63, .uuid-0660b7e3-3103-4b15-9ac3-7ed6cce2d6e5, .uuid-56416af7-c1fc-4dfe-92fc-e4e2b4515f5a, .uuid-97cf2752-97c0-4e7e-80fd-74262919924c {
        fill: none;
        stroke: #000;
      }

      .uuid-b019f1e1-a41c-4f74-a9fd-d4d8792dff63, .uuid-56416af7-c1fc-4dfe-92fc-e4e2b4515f5a, .uuid-97cf2752-97c0-4e7e-80fd-74262919924c {
        stroke-linejoin: round;
        stroke-width: 4.117px;
      }

      .uuid-0660b7e3-3103-4b15-9ac3-7ed6cce2d6e5 {
        stroke-miterlimit: 10;
        stroke-width: 1.163px;
      }

      .uuid-56416af7-c1fc-4dfe-92fc-e4e2b4515f5a, .uuid-97cf2752-97c0-4e7e-80fd-74262919924c {
        fill-rule: evenodd;
      }
    </style>
  </defs>
  <polyline class="uuid-56416af7-c1fc-4dfe-92fc-e4e2b4515f5a" points="203.812 139.851 201.369 141.293 189.643 148.155 169.855 159.539"/>
  <path class="uuid-56416af7-c1fc-4dfe-92fc-e4e2b4515f5a" d="M169.855,159.539c-1.953,1.075-3.662,2.711-5.13,4.691-.485.71-.975,1.442-1.464,2.2-.489.754-.732,1.512-1.221,2.27-.243.684-.489,1.391-.732,2.149v.121c0,.393-.243.858-.243,1.273-.247.291-.247.511-.247.806v.121c0,.806-.243,1.564-.243,2.37"/>
  <path class="uuid-56416af7-c1fc-4dfe-92fc-e4e2b4515f5a" d="M160.576,363.075c0,1.273.243,2.369.489,3.347.243.243.243.489.486.71.247.585.732,1.171,1.468,1.634,0,.1.243.173.243.269"/>
  <path class="uuid-56416af7-c1fc-4dfe-92fc-e4e2b4515f5a" d="M149.828,169.286c0-.806,0-1.56.243-2.392,0-.511.243-1.027.243-1.563.247-.465.247-.928.489-1.343.489-1.321.979-2.615,1.711-3.812,1.464-2.737,3.908-5.128,6.594-6.865"/>
  <polyline class="uuid-56416af7-c1fc-4dfe-92fc-e4e2b4515f5a" points="159.108 153.31 178.649 141.879 190.622 135.09 249.738 100.985 259.996 95.003 281.248 82.761"/>
  <path class="uuid-56416af7-c1fc-4dfe-92fc-e4e2b4515f5a" d="M298.592,88.332c-.243-.074-.243-.122-.485-.122-.979-.511-2.2-.636-3.422-.293q-.243.073-.489.173c-.732.169-1.464.463-2.196.879"/>
  <polyline class="uuid-56416af7-c1fc-4dfe-92fc-e4e2b4515f5a" points="291.999 88.968 270.743 101.28 261.949 106.336"/>
  <path class="uuid-56416af7-c1fc-4dfe-92fc-e4e2b4515f5a" d="M291.999,88.968c.732-.415,1.464-.71,2.196-.879q.247-.1.489-.173c1.221-.343,2.443-.218,3.422.293,1.953.832,3.175,2.956,3.175,6.108"/>
  <path class="uuid-56416af7-c1fc-4dfe-92fc-e4e2b4515f5a" d="M169.855,368.402c-2.686,1.564-5.13,1.564-6.837.365-.736-.463-1.221-1.049-1.468-1.634-.243-.221-.243-.467-.486-.71-.247-.979-.489-2.074-.489-3.347"/>
  <polyline class="uuid-56416af7-c1fc-4dfe-92fc-e4e2b4515f5a" points="288.577 108.536 288.577 287.107 177.428 351.327 177.428 172.756"/>
  <polygon class="uuid-56416af7-c1fc-4dfe-92fc-e4e2b4515f5a" points="263.171 137.238 263.171 107.02 210.408 137.581 210.408 167.774 263.171 137.238"/>
  <path class="uuid-56416af7-c1fc-4dfe-92fc-e4e2b4515f5a" d="M216.27,158.369v-18.297c13.68-7.889,27.359-15.733,41.04-23.648v18.372c-13.681,7.84-27.361,15.659-41.04,23.573Z"/>
  <polygon class="uuid-56416af7-c1fc-4dfe-92fc-e4e2b4515f5a" points="210.408 137.581 263.171 107.02 256.088 102.844 251.691 100.353 198.682 130.885 210.408 137.581"/>
  <polygon class="uuid-56416af7-c1fc-4dfe-92fc-e4e2b4515f5a" points="198.682 136.871 203.812 139.851 203.812 164.062 210.408 167.774 210.408 137.581 198.682 130.885 198.682 136.871"/>
  <polygon class="uuid-56416af7-c1fc-4dfe-92fc-e4e2b4515f5a" points="250.713 120.162 250.713 130.446 257.31 134.796 257.31 116.424 250.713 120.162"/>
  <polygon class="uuid-56416af7-c1fc-4dfe-92fc-e4e2b4515f5a" points="216.27 150.282 250.713 130.446 257.31 134.796 216.27 158.369 216.27 150.282"/>
  <path class="uuid-97cf2752-97c0-4e7e-80fd-74262919924c" d="M259.507,156.268c-4.64,2.734-8.547,9.356-8.547,14.754,0,5.471,3.907,7.671,8.547,4.934,4.886-2.737,8.551-9.356,8.551-14.754,0-5.449-3.666-7.645-8.551-4.934Z"/>
  <path class="uuid-56416af7-c1fc-4dfe-92fc-e4e2b4515f5a" d="M205.523,297.044c-4.64,2.737-8.551,9.357-8.551,14.754,0,5.449,3.911,7.646,8.551,4.938,4.886-2.738,8.547-9.356,8.547-14.754,0-5.471-3.662-7.671-8.547-4.937Z"/>
  <line class="uuid-b019f1e1-a41c-4f74-a9fd-d4d8792dff63" x1="160.576" y1="175.541" x2="160.576" y2="363.075"/>
  <line class="uuid-b019f1e1-a41c-4f74-a9fd-d4d8792dff63" x1="163.261" y1="369.035" x2="152.514" y2="362.784"/>
  <path class="uuid-56416af7-c1fc-4dfe-92fc-e4e2b4515f5a" d="M152.514,362.784c-2.2-1.516-2.686-3.421-2.686-5.986"/>
  <line class="uuid-b019f1e1-a41c-4f74-a9fd-d4d8792dff63" x1="149.828" y1="356.798" x2="149.828" y2="169.286"/>
  <path class="uuid-56416af7-c1fc-4dfe-92fc-e4e2b4515f5a" d="M281.248,82.761c2.2-1.221,4.154-1.807,6.596-.658"/>
  <line class="uuid-b019f1e1-a41c-4f74-a9fd-d4d8792dff63" x1="287.845" y1="82.103" x2="298.592" y2="88.332"/>
  <line class="uuid-b019f1e1-a41c-4f74-a9fd-d4d8792dff63" x1="301.281" y1="94.319" x2="301.281" y2="281.827"/>
  <path class="uuid-56416af7-c1fc-4dfe-92fc-e4e2b4515f5a" d="M301.281,281.827c0,5.866-4.154,13.07-9.282,16.028"/>
  <line class="uuid-b019f1e1-a41c-4f74-a9fd-d4d8792dff63" x1="291.999" y1="297.854" x2="169.855" y2="368.402"/>
  <path class="uuid-56416af7-c1fc-4dfe-92fc-e4e2b4515f5a" d="M250.713,130.446c-11.48,6.62-22.716,13.216-34.2,19.836"/>
  <path class="uuid-56416af7-c1fc-4dfe-92fc-e4e2b4515f5a" d="M263.171,123.242c8.551-4.886,17.102-9.821,25.406-14.706"/>
  <path class="uuid-56416af7-c1fc-4dfe-92fc-e4e2b4515f5a" d="M177.428,172.756c8.797-5.03,17.59-10.162,26.384-15.266"/>
  <path class="uuid-56416af7-c1fc-4dfe-92fc-e4e2b4515f5a" d="M149.828,169.286c0-3.201.975-6.399,2.686-9.183"/>
  <line class="uuid-b019f1e1-a41c-4f74-a9fd-d4d8792dff63" x1="152.514" y1="160.103" x2="163.261" y2="166.43"/>
  <path class="uuid-56416af7-c1fc-4dfe-92fc-e4e2b4515f5a" d="M163.261,166.43c-1.711,3.076-2.443,5.519-2.685,9.063"/>
  <path class="uuid-56416af7-c1fc-4dfe-92fc-e4e2b4515f5a" d="M207.476,290.767c-.489-55.867,51.055-59.455,52.766-107.945"/>
  <line class="uuid-b019f1e1-a41c-4f74-a9fd-d4d8792dff63" x1="260.243" y1="182.822" x2="265.86" y2="193.37"/>
  <line class="uuid-b019f1e1-a41c-4f74-a9fd-d4d8792dff63" x1="260.243" y1="182.822" x2="252.67" y2="194.96"/>
  <line class="uuid-b019f1e1-a41c-4f74-a9fd-d4d8792dff63" x1="221.399" y1="187.584" x2="206.987" y2="212.551"/>
  <line class="uuid-b019f1e1-a41c-4f74-a9fd-d4d8792dff63" x1="221.645" y1="204.416" x2="207.234" y2="196.061"/>
  <line class="uuid-b019f1e1-a41c-4f74-a9fd-d4d8792dff63" x1="246.316" y1="268.003" x2="232.146" y2="292.578"/>
  <line class="uuid-b019f1e1-a41c-4f74-a9fd-d4d8792dff63" x1="246.563" y1="284.538" x2="232.393" y2="276.355"/>
  <line class="uuid-b019f1e1-a41c-4f74-a9fd-d4d8792dff63" x1="270.99" y1="225.205" x2="261.464" y2="241.987"/>
  <line class="uuid-b019f1e1-a41c-4f74-a9fd-d4d8792dff63" x1="271.233" y1="236.512" x2="261.464" y2="230.893"/>
  <line class="uuid-b019f1e1-a41c-4f74-a9fd-d4d8792dff63" x1="208.94" y1="235.658" x2="199.172" y2="252.492"/>
  <line class="uuid-b019f1e1-a41c-4f74-a9fd-d4d8792dff63" x1="208.94" y1="246.995" x2="199.414" y2="241.398"/>
  <line class="uuid-0660b7e3-3103-4b15-9ac3-7ed6cce2d6e5" x1="175.719" y1="153.946" x2="172.298" y2="147.743"/>
  <line class="uuid-0660b7e3-3103-4b15-9ac3-7ed6cce2d6e5" x1="195.261" y1="142.636" x2="191.843" y2="136.48"/>
  <line class="uuid-0660b7e3-3103-4b15-9ac3-7ed6cce2d6e5" x1="276.118" y1="96.004" x2="272.697" y2="89.774"/>
  <line class="uuid-0660b7e3-3103-4b15-9ac3-7ed6cce2d6e5" x1="187.199" y1="356.26" x2="179.87" y2="352.037"/>
  <line class="uuid-0660b7e3-3103-4b15-9ac3-7ed6cce2d6e5" x1="175.962" y1="349.837" x2="162.04" y2="341.871"/>
  <line class="uuid-0660b7e3-3103-4b15-9ac3-7ed6cce2d6e5" x1="209.672" y1="343.213" x2="202.348" y2="338.963"/>
  <line class="uuid-0660b7e3-3103-4b15-9ac3-7ed6cce2d6e5" x1="175.962" y1="323.697" x2="162.04" y2="315.736"/>
  <line class="uuid-0660b7e3-3103-4b15-9ac3-7ed6cce2d6e5" x1="232.146" y1="330.195" x2="224.821" y2="325.946"/>
  <line class="uuid-0660b7e3-3103-4b15-9ac3-7ed6cce2d6e5" x1="175.962" y1="297.682" x2="162.04" y2="289.718"/>
  <line class="uuid-0660b7e3-3103-4b15-9ac3-7ed6cce2d6e5" x1="254.866" y1="317.2" x2="247.538" y2="312.95"/>
  <line class="uuid-0660b7e3-3103-4b15-9ac3-7ed6cce2d6e5" x1="175.962" y1="271.591" x2="162.04" y2="263.655"/>
  <line class="uuid-0660b7e3-3103-4b15-9ac3-7ed6cce2d6e5" x1="277.34" y1="304.131" x2="270.011" y2="299.882"/>
  <line class="uuid-0660b7e3-3103-4b15-9ac3-7ed6cce2d6e5" x1="175.962" y1="245.527" x2="162.04" y2="237.563"/>
  <line class="uuid-0660b7e3-3103-4b15-9ac3-7ed6cce2d6e5" x1="297.371" y1="289.498" x2="290.531" y2="285.543"/>
  <line class="uuid-0660b7e3-3103-4b15-9ac3-7ed6cce2d6e5" x1="175.962" y1="219.462" x2="162.04" y2="211.5"/>
  <line class="uuid-0660b7e3-3103-4b15-9ac3-7ed6cce2d6e5" x1="299.571" y1="264.802" x2="290.289" y2="259.475"/>
  <line class="uuid-0660b7e3-3103-4b15-9ac3-7ed6cce2d6e5" x1="175.962" y1="193.37" x2="162.04" y2="185.483"/>
  <line class="uuid-0660b7e3-3103-4b15-9ac3-7ed6cce2d6e5" x1="299.571" y1="238.738" x2="290.289" y2="233.388"/>
  <line class="uuid-0660b7e3-3103-4b15-9ac3-7ed6cce2d6e5" x1="179.628" y1="169.507" x2="168.148" y2="162.84"/>
  <line class="uuid-0660b7e3-3103-4b15-9ac3-7ed6cce2d6e5" x1="299.571" y1="212.673" x2="290.289" y2="207.323"/>
  <line class="uuid-0660b7e3-3103-4b15-9ac3-7ed6cce2d6e5" x1="202.101" y1="156.389" x2="190.379" y2="149.55"/>
  <line class="uuid-0660b7e3-3103-4b15-9ac3-7ed6cce2d6e5" x1="299.571" y1="186.582" x2="290.289" y2="181.259"/>
  <line class="uuid-0660b7e3-3103-4b15-9ac3-7ed6cce2d6e5" x1="299.571" y1="160.518" x2="290.289" y2="155.168"/>
  <line class="uuid-0660b7e3-3103-4b15-9ac3-7ed6cce2d6e5" x1="299.571" y1="134.453" x2="290.289" y2="129.104"/>
  <line class="uuid-0660b7e3-3103-4b15-9ac3-7ed6cce2d6e5" x1="269.769" y1="117.182" x2="265.124" y2="114.518"/>
  <line class="uuid-0660b7e3-3103-4b15-9ac3-7ed6cce2d6e5" x1="300.06" y1="108.536" x2="280.516" y2="97.273"/>
  <line class="uuid-0660b7e3-3103-4b15-9ac3-7ed6cce2d6e5" x1="158.865" y1="356.382" x2="151.535" y2="343.728"/>
  <line class="uuid-0660b7e3-3103-4b15-9ac3-7ed6cce2d6e5" x1="158.865" y1="333.739" x2="151.535" y2="321.086"/>
  <line class="uuid-0660b7e3-3103-4b15-9ac3-7ed6cce2d6e5" x1="158.865" y1="311.261" x2="151.535" y2="298.608"/>
  <line class="uuid-0660b7e3-3103-4b15-9ac3-7ed6cce2d6e5" x1="158.865" y1="288.667" x2="151.535" y2="276.013"/>
  <line class="uuid-0660b7e3-3103-4b15-9ac3-7ed6cce2d6e5" x1="158.865" y1="265.973" x2="151.535" y2="253.319"/>
  <line class="uuid-0660b7e3-3103-4b15-9ac3-7ed6cce2d6e5" x1="158.865" y1="243.451" x2="151.535" y2="230.724"/>
  <line class="uuid-0660b7e3-3103-4b15-9ac3-7ed6cce2d6e5" x1="158.865" y1="220.904" x2="151.535" y2="208.251"/>
  <line class="uuid-0660b7e3-3103-4b15-9ac3-7ed6cce2d6e5" x1="158.865" y1="198.257" x2="151.535" y2="185.603"/>
  <line class="uuid-0660b7e3-3103-4b15-9ac3-7ed6cce2d6e5" x1="158.865" y1="175.834" x2="152.514" y2="164.742"/>
  <line class="uuid-0660b7e3-3103-4b15-9ac3-7ed6cce2d6e5" x1="230.682" y1="133.964" x2="225.554" y2="142.806"/>
</svg>