<?xml version="1.0" encoding="UTF-8"?>
<svg id="uuid-06f99094-4b9d-4f7d-9b9d-4a957447a17e" data-name="&amp;lt;Layer&amp;gt;" xmlns="http://www.w3.org/2000/svg" viewBox="0 0 451.11 451.11">
  <defs>
    <style>
      .uuid-fbb360bd-bc90-4fd6-a367-d6844a45b16c, .uuid-4fb98707-e038-4917-9913-1a218ac7b1f4, .uuid-c8ff5e4d-bfc1-4d1d-bed3-bc0d08d36cb9, .uuid-aa9c0c2b-f2be-4155-b75c-2c3c0a3360ab {
        fill: none;
        stroke: #000;
        stroke-linecap: round;
      }

      .uuid-fbb360bd-bc90-4fd6-a367-d6844a45b16c, .uuid-c8ff5e4d-bfc1-4d1d-bed3-bc0d08d36cb9 {
        stroke-width: 4.113px;
      }

      .uuid-fbb360bd-bc90-4fd6-a367-d6844a45b16c, .uuid-c8ff5e4d-bfc1-4d1d-bed3-bc0d08d36cb9, .uuid-aa9c0c2b-f2be-4155-b75c-2c3c0a3360ab {
        stroke-linejoin: round;
      }

      .uuid-4fb98707-e038-4917-9913-1a218ac7b1f4 {
        stroke-miterlimit: 10;
        stroke-width: 1.163px;
      }

      .uuid-c8ff5e4d-bfc1-4d1d-bed3-bc0d08d36cb9, .uuid-aa9c0c2b-f2be-4155-b75c-2c3c0a3360ab {
        fill-rule: evenodd;
      }

      .uuid-aa9c0c2b-f2be-4155-b75c-2c3c0a3360ab {
        stroke-width: 4.117px;
      }
    </style>
  </defs>
  <path class="uuid-c8ff5e4d-bfc1-4d1d-bed3-bc0d08d36cb9" d="M270.748,124.661c-11.402-6.554-22.801-13.147-34.2-19.74l11.947-6.983c11.455,6.564,22.842,13.19,34.27,19.758"/>
  <polyline class="uuid-c8ff5e4d-bfc1-4d1d-bed3-bc0d08d36cb9" points="273.486 110.785 280.495 106.705 275.852 104.041"/>
  <line class="uuid-fbb360bd-bc90-4fd6-a367-d6844a45b16c" x1="285.675" y1="103.75" x2="280.495" y2="106.705"/>
  <path class="uuid-aa9c0c2b-f2be-4155-b75c-2c3c0a3360ab" d="M195.02,168.386l20.203-11.679,55.525-32.046,12.017-6.965,12.484-7.205c2.543-1.468,1.847-4.242,0-5.397l-2.369-1.394c-2.216-1.291-4.916-1.289-7.123,0"/>
  <path class="uuid-c8ff5e4d-bfc1-4d1d-bed3-bc0d08d36cb9" d="M250.84,113.155c-22.131,12.775-47.291,27.239-69.302,40.012l-8.646,5.041c-6.744,3.929-2.369,8.227,3.046,7.693,1.847-.18,3.676-.868,5.258-1.765"/>
  <polyline class="uuid-c8ff5e4d-bfc1-4d1d-bed3-bc0d08d36cb9" points="260.123 118.552 201.934 152.116 186.937 160.836 184.516 162.23 181.197 164.137"/>
  <line class="uuid-fbb360bd-bc90-4fd6-a367-d6844a45b16c" x1="275.852" y1="103.992" x2="275.852" y2="97.3"/>
  <path class="uuid-c8ff5e4d-bfc1-4d1d-bed3-bc0d08d36cb9" d="M184.516,357.922c-2.687.758-5.471,1.125-8.305,1.125-1.001,0-1.931-.074-2.856-.122-.758-.051-1.442-.125-2.2-.245"/>
  <line class="uuid-fbb360bd-bc90-4fd6-a367-d6844a45b16c" x1="184.516" y1="173.32" x2="184.516" y2="357.922"/>
  <polyline class="uuid-c8ff5e4d-bfc1-4d1d-bed3-bc0d08d36cb9" points="271.043 124.829 271.043 313.316 283.06 306.403 283.06 117.868"/>
  <path class="uuid-aa9c0c2b-f2be-4155-b75c-2c3c0a3360ab" d="M240.14,106.995c-21.326,12.389-42.504,24.627-63.808,36.937-5.746,3.36-22.712,11.73-22.113,19.461.501,6.45,10.99,9.938,16.583,10.711,10.089,1.398,15.81-.846,24.218-5.718"/>
  <line class="uuid-fbb360bd-bc90-4fd6-a367-d6844a45b16c" x1="154.253" y1="346.025" x2="154.253" y2="163.738"/>
  <path class="uuid-c8ff5e4d-bfc1-4d1d-bed3-bc0d08d36cb9" d="M171.104,358.68c-.534-.048-1.001-.17-1.464-.218-.979-.173-2.028-.415-3.028-.71-.684-.173-1.39-.341-2.078-.632-.07,0-.07-.052-.122-.052-.048,0-.121,0-.169-.074-.243,0-.416-.095-.637-.169-.121-.048-.293-.125-.415-.221-1.023-.463-2.076-1.001-3.002-1.564-.415-.243-.832-.537-1.173-.828-.221-.099-.417-.293-.633-.393-.419-.365-.758-.658-1.099-1.049-.417-.367-.758-.758-1.053-1.221-.122-.173-.221-.367-.343-.537-.243-.272-.412-.563-.537-.905-.095-.243-.221-.489-.341-.71,0-.048-.048-.122-.048-.17-.173-.341-.295-.758-.343-1.173-.195-.632-.363-1.318-.363-2.028"/>
  <line class="uuid-fbb360bd-bc90-4fd6-a367-d6844a45b16c" x1="171.155" y1="358.68" x2="171.104" y2="358.68"/>
  <path class="uuid-c8ff5e4d-bfc1-4d1d-bed3-bc0d08d36cb9" d="M199.078,350.618c-4.348,2.543-8.355,5.228-13.12,6.913-.463.126-.975.295-1.442.343"/>
  <line class="uuid-fbb360bd-bc90-4fd6-a367-d6844a45b16c" x1="271.043" y1="309.092" x2="199.078" y2="350.618"/>
  <line class="uuid-fbb360bd-bc90-4fd6-a367-d6844a45b16c" x1="295.249" y1="295.092" x2="283.06" y2="302.127"/>
  <path class="uuid-c8ff5e4d-bfc1-4d1d-bed3-bc0d08d36cb9" d="M296.814,292.358c-.122,1.295-.463,1.979-1.564,2.734"/>
  <line class="uuid-fbb360bd-bc90-4fd6-a367-d6844a45b16c" x1="296.814" y1="108.868" x2="296.814" y2="292.358"/>
  <path class="uuid-c8ff5e4d-bfc1-4d1d-bed3-bc0d08d36cb9" d="M252.161,100.034c4.176-2.365,8.425-4.809,12.601-7.252,3.632-2.122,6.285-.548,9.578,1.391,1.935,1.118,2.134,4.326,0,5.397-3.838,2.2-7.671,4.422-11.506,6.624"/>
  <line class="uuid-4fb98707-e038-4917-9913-1a218ac7b1f4" x1="287.188" y1="299.831" x2="287.188" y2="115.109"/>
  <line class="uuid-4fb98707-e038-4917-9913-1a218ac7b1f4" x1="281.128" y1="296.145" x2="272.997" y2="300.81"/>
  <line class="uuid-4fb98707-e038-4917-9913-1a218ac7b1f4" x1="281.128" y1="283.101" x2="272.997" y2="287.788"/>
  <line class="uuid-4fb98707-e038-4917-9913-1a218ac7b1f4" x1="281.128" y1="270.079" x2="272.997" y2="274.77"/>
  <line class="uuid-4fb98707-e038-4917-9913-1a218ac7b1f4" x1="281.128" y1="257.036" x2="272.997" y2="261.724"/>
  <line class="uuid-4fb98707-e038-4917-9913-1a218ac7b1f4" x1="281.128" y1="243.99" x2="272.997" y2="248.681"/>
  <line class="uuid-4fb98707-e038-4917-9913-1a218ac7b1f4" x1="281.128" y1="230.972" x2="272.997" y2="235.637"/>
  <line class="uuid-4fb98707-e038-4917-9913-1a218ac7b1f4" x1="281.128" y1="217.924" x2="272.997" y2="222.615"/>
  <line class="uuid-4fb98707-e038-4917-9913-1a218ac7b1f4" x1="281.128" y1="204.881" x2="272.997" y2="209.573"/>
  <line class="uuid-4fb98707-e038-4917-9913-1a218ac7b1f4" x1="281.128" y1="191.861" x2="272.997" y2="196.552"/>
  <line class="uuid-4fb98707-e038-4917-9913-1a218ac7b1f4" x1="281.128" y1="178.817" x2="272.997" y2="183.508"/>
  <line class="uuid-4fb98707-e038-4917-9913-1a218ac7b1f4" x1="281.128" y1="165.795" x2="272.997" y2="170.46"/>
  <line class="uuid-4fb98707-e038-4917-9913-1a218ac7b1f4" x1="281.128" y1="152.752" x2="272.997" y2="157.443"/>
  <line class="uuid-4fb98707-e038-4917-9913-1a218ac7b1f4" x1="281.128" y1="139.73" x2="272.997" y2="144.397"/>
  <line class="uuid-4fb98707-e038-4917-9913-1a218ac7b1f4" x1="281.128" y1="126.687" x2="272.997" y2="131.379"/>
  <line class="uuid-4fb98707-e038-4917-9913-1a218ac7b1f4" x1="197.221" y1="351.791" x2="197.221" y2="167.065"/>
  <line class="uuid-4fb98707-e038-4917-9913-1a218ac7b1f4" x1="219.815" y1="338.722" x2="219.815" y2="154.021"/>
  <line class="uuid-4fb98707-e038-4917-9913-1a218ac7b1f4" x1="242.41" y1="325.704" x2="242.41" y2="140.978"/>
  <line class="uuid-4fb98707-e038-4917-9913-1a218ac7b1f4" x1="265.009" y1="312.684" x2="265.009" y2="127.909"/>
  <line class="uuid-4fb98707-e038-4917-9913-1a218ac7b1f4" x1="165.169" y1="357.579" x2="165.169" y2="172.466"/>
  <line class="uuid-4fb98707-e038-4917-9913-1a218ac7b1f4" x1="176.432" y1="359.342" x2="176.432" y2="173.978"/>
  <line class="uuid-4fb98707-e038-4917-9913-1a218ac7b1f4" x1="181.829" y1="171.878" x2="179.165" y2="167.212"/>
  <line class="uuid-4fb98707-e038-4917-9913-1a218ac7b1f4" x1="172.72" y1="156.027" x2="169.349" y2="150.261"/>
  <line class="uuid-4fb98707-e038-4917-9913-1a218ac7b1f4" x1="202.228" y1="161.987" x2="198.857" y2="156.195"/>
  <line class="uuid-4fb98707-e038-4917-9913-1a218ac7b1f4" x1="192.239" y1="144.69" x2="188.912" y2="138.95"/>
  <line class="uuid-4fb98707-e038-4917-9913-1a218ac7b1f4" x1="221.794" y1="150.698" x2="218.425" y2="144.911"/>
  <line class="uuid-4fb98707-e038-4917-9913-1a218ac7b1f4" x1="211.801" y1="133.406" x2="208.483" y2="127.641"/>
  <line class="uuid-4fb98707-e038-4917-9913-1a218ac7b1f4" x1="241.314" y1="139.415" x2="237.988" y2="133.623"/>
  <line class="uuid-4fb98707-e038-4917-9913-1a218ac7b1f4" x1="231.32" y1="122.118" x2="227.999" y2="116.33"/>
  <line class="uuid-4fb98707-e038-4917-9913-1a218ac7b1f4" x1="260.877" y1="128.104" x2="257.558" y2="122.338"/>
  <line class="uuid-4fb98707-e038-4917-9913-1a218ac7b1f4" x1="274.631" y1="115.255" x2="266.495" y2="119.922"/>
  <line class="uuid-4fb98707-e038-4917-9913-1a218ac7b1f4" x1="263.32" y1="108.707" x2="255.189" y2="113.398"/>
  <line class="uuid-4fb98707-e038-4917-9913-1a218ac7b1f4" x1="251.987" y1="102.209" x2="243.904" y2="106.874"/>
</svg>