<?xml version="1.0" encoding="UTF-8"?>
<svg id="uuid-0bfcfb5a-3efd-4ba5-aba3-0280ab1e7f3e" data-name="&amp;lt;Layer&amp;gt;" xmlns="http://www.w3.org/2000/svg" viewBox="0 0 451.11 451.11">
  <defs>
    <style>
      .uuid-0c692aef-2bb6-4ebe-97c6-48168639edf7, .uuid-9a09054b-b0b0-409e-a538-05c34c6e5015, .uuid-f65332ed-0dbd-456b-9ae3-ee8ee9be97cd, .uuid-2960037f-9266-4bf6-8399-9afbb922fa52 {
        fill: none;
        stroke: #000;
        stroke-linecap: round;
      }

      .uuid-0c692aef-2bb6-4ebe-97c6-48168639edf7, .uuid-2960037f-9266-4bf6-8399-9afbb922fa52 {
        stroke-linejoin: round;
        stroke-width: 4.113px;
      }

      .uuid-9a09054b-b0b0-409e-a538-05c34c6e5015 {
        stroke-miterlimit: 10;
      }

      .uuid-9a09054b-b0b0-409e-a538-05c34c6e5015, .uuid-f65332ed-0dbd-456b-9ae3-ee8ee9be97cd {
        stroke-width: 1.163px;
      }

      .uuid-f65332ed-0dbd-456b-9ae3-ee8ee9be97cd {
        stroke-miterlimit: 22.926;
      }

      .uuid-f65332ed-0dbd-456b-9ae3-ee8ee9be97cd, .uuid-2960037f-9266-4bf6-8399-9afbb922fa52 {
        fill-rule: evenodd;
      }
    </style>
  </defs>
  <g>
    <line class="uuid-0c692aef-2bb6-4ebe-97c6-48168639edf7" x1="148.592" y1="323.43" x2="148.592" y2="163.621"/>
    <path class="uuid-2960037f-9266-4bf6-8399-9afbb922fa52" d="M149.35,161.302c.341-.684.927-1.222,1.49-1.563"/>
    <path class="uuid-2960037f-9266-4bf6-8399-9afbb922fa52" d="M161.175,154.511c-.051,0-.099-.052-.173-.052,0,0-.048-.07-.1-.07"/>
    <line class="uuid-0c692aef-2bb6-4ebe-97c6-48168639edf7" x1="160.902" y1="154.389" x2="137.211" y2="140.636"/>
    <path class="uuid-2960037f-9266-4bf6-8399-9afbb922fa52" d="M137.211,140.636c-.71-.247-.931-.121-1.589.17-2.713,1.563-5.497,3.201-8.235,4.765-1.686.975-2.613,2.196-2.782,4.176"/>
    <line class="uuid-0c692aef-2bb6-4ebe-97c6-48168639edf7" x1="124.606" y1="149.746" x2="124.606" y2="344.977"/>
    <path class="uuid-2960037f-9266-4bf6-8399-9afbb922fa52" d="M124.606,344.977c.048,1.807.341,3.201,1.979,4.298"/>
    <line class="uuid-0c692aef-2bb6-4ebe-97c6-48168639edf7" x1="126.586" y1="349.275" x2="150.571" y2="363.101"/>
    <path class="uuid-2960037f-9266-4bf6-8399-9afbb922fa52" d="M150.571,363.101c-.659-.341-1.123-.926-1.464-1.685-.174-.291-.295-.636-.343-1.049-.122-.463-.173-.979-.173-1.563"/>
    <line class="uuid-0c692aef-2bb6-4ebe-97c6-48168639edf7" x1="148.592" y1="358.804" x2="148.592" y2="335.864"/>
    <line class="uuid-0c692aef-2bb6-4ebe-97c6-48168639edf7" x1="161.881" y1="343.535" x2="324.303" y2="249.73"/>
    <path class="uuid-2960037f-9266-4bf6-8399-9afbb922fa52" d="M324.303,249.73c.173-.096.369-.218.537-.218.173-.051.343-.121.463-.121.1,0,.221.07.393.121"/>
    <line class="uuid-0c692aef-2bb6-4ebe-97c6-48168639edf7" x1="325.651" y1="249.461" x2="301.904" y2="235.758"/>
    <path class="uuid-2960037f-9266-4bf6-8399-9afbb922fa52" d="M301.904,235.758c-.706-.293-.928-.195-1.638.096"/>
    <line class="uuid-0c692aef-2bb6-4ebe-97c6-48168639edf7" x1="300.266" y1="235.854" x2="294.526" y2="239.181"/>
    <path class="uuid-2960037f-9266-4bf6-8399-9afbb922fa52" d="M155.214,362.638c-1.857,1.075-3.496,1.175-4.717.463-1.221-.684-1.905-2.174-1.905-4.274"/>
    <line class="uuid-0c692aef-2bb6-4ebe-97c6-48168639edf7" x1="148.592" y1="358.827" x2="148.592" y2="163.598"/>
    <path class="uuid-2960037f-9266-4bf6-8399-9afbb922fa52" d="M148.592,163.598c0-1.416.979-3.153,2.2-3.859,2.954-1.685,5.86-3.397,8.82-5.082,1.221-.71,2.222-.125,2.222,1.295"/>
    <path class="uuid-2960037f-9266-4bf6-8399-9afbb922fa52" d="M161.834,155.953l.047,32.878M161.881,331.103l-.047,12.406,162.421-93.779"/>
    <path class="uuid-2960037f-9266-4bf6-8399-9afbb922fa52" d="M324.255,249.73c1.221-.707,2.248-.144,2.248,1.294v10.137c0,1.42-1.027,3.153-2.248,3.885"/>
    <line class="uuid-0c692aef-2bb6-4ebe-97c6-48168639edf7" x1="324.255" y1="265.046" x2="155.214" y2="362.638"/>
    <path class="uuid-2960037f-9266-4bf6-8399-9afbb922fa52" d="M272.69,124.83l-.052.051"/>
    <polyline class="uuid-2960037f-9266-4bf6-8399-9afbb922fa52" points="294.526 167.627 294.526 254.494 161.881 331.103 161.881 188.831 245.963 140.294"/>
    <line class="uuid-0c692aef-2bb6-4ebe-97c6-48168639edf7" x1="251.897" y1="166.237" x2="243.129" y2="161.178"/>
    <path class="uuid-2960037f-9266-4bf6-8399-9afbb922fa52" d="M243.129,161.178c-.537-.415-.706-.559-1.049-1.122"/>
    <line class="uuid-0c692aef-2bb6-4ebe-97c6-48168639edf7" x1="242.08" y1="160.056" x2="239.517" y2="155.534"/>
    <path class="uuid-2960037f-9266-4bf6-8399-9afbb922fa52" d="M239.517,155.534c-.98-2.024-.685-3.908-.052-6.008,1.1-3.176,2.274-4.398,4.422-6.914,3.664-4.15,7.256-8.277,10.894-12.432,6.742-7.693,13.434-15.387,20.153-23.084,5.718-6.498,11.457-13.018,17.149-19.541"/>
    <line class="uuid-0c692aef-2bb6-4ebe-97c6-48168639edf7" x1="292.083" y1="87.554" x2="300.851" y2="92.636"/>
    <path class="uuid-2960037f-9266-4bf6-8399-9afbb922fa52" d="M300.851,92.636c-4.176,4.739-8.305,9.452-12.432,14.191-7.767,8.893-15.56,17.761-23.328,26.649-3.616,4.154-7.208,8.283-10.872,12.436-2.443,2.808-4.298,4.47-5.766,7.889-.732,2.295-1.218,4.518-.17,6.817"/>
    <line class="uuid-0c692aef-2bb6-4ebe-97c6-48168639edf7" x1="248.284" y1="160.618" x2="250.848" y2="165.111"/>
    <path class="uuid-2960037f-9266-4bf6-8399-9afbb922fa52" d="M250.848,165.111c.343.563.515.736,1.049,1.127"/>
    <line class="uuid-0c692aef-2bb6-4ebe-97c6-48168639edf7" x1="279.772" y1="166.358" x2="286.734" y2="170.365"/>
    <path class="uuid-2960037f-9266-4bf6-8399-9afbb922fa52" d="M286.734,170.365c-.17-.121-.291-.247-.417-.295-.684-.463-1.148-1.221-1.39-2.321-.048-.17-.048-.339-.1-.585-.074-.173-.074-.389-.074-.636"/>
    <line class="uuid-0c692aef-2bb6-4ebe-97c6-48168639edf7" x1="284.753" y1="166.528" x2="284.364" y2="154.389"/>
    <path class="uuid-2960037f-9266-4bf6-8399-9afbb922fa52" d="M252.876,166.601h-.048"/>
    <polyline class="uuid-2960037f-9266-4bf6-8399-9afbb922fa52" points="252.828 166.601 244.767 187.831 209.787 208.104"/>
    <path class="uuid-2960037f-9266-4bf6-8399-9afbb922fa52" d="M209.787,208.104c-3.301,2.027-5.45,4.813-7.209,8.257"/>
    <line class="uuid-0c692aef-2bb6-4ebe-97c6-48168639edf7" x1="202.578" y1="216.361" x2="169.601" y2="284.64"/>
    <path class="uuid-2960037f-9266-4bf6-8399-9afbb922fa52" d="M169.601,284.64c-1.149,2.686-2.444,7.204.658,9.183"/>
    <line class="uuid-0c692aef-2bb6-4ebe-97c6-48168639edf7" x1="170.259" y1="293.823" x2="179.031" y2="298.883"/>
    <path class="uuid-2960037f-9266-4bf6-8399-9afbb922fa52" d="M179.031,298.883c-.148-.074-.195-.122-.317-.247-.221-.122-.393-.291-.563-.511-.121-.052-.173-.122-.121-.196-.221-.221-.343-.441-.467-.684-.291-.71-.463-1.516-.463-2.443,0-1.321.341-2.712.809-3.933.122-.417.291-.758.463-1.175"/>
    <line class="uuid-0c692aef-2bb6-4ebe-97c6-48168639edf7" x1="178.372" y1="289.694" x2="211.35" y2="221.395"/>
    <path class="uuid-2960037f-9266-4bf6-8399-9afbb922fa52" d="M211.35,221.395c.417-.806.88-1.612,1.391-2.417.537-.832,1.049-1.516,1.637-2.224,1.173-1.394,2.491-2.542,4.177-3.594"/>
    <polyline class="uuid-2960037f-9266-4bf6-8399-9afbb922fa52" points="218.555 213.16 253.538 192.887 269.024 152.237"/>
    <polyline class="uuid-2960037f-9266-4bf6-8399-9afbb922fa52" points="218.555 213.186 253.538 192.887 269.024 152.237 259.105 163.598"/>
    <path class="uuid-2960037f-9266-4bf6-8399-9afbb922fa52" d="M259.105,163.598c-3.101,3.492-6.789,4.151-8.257,1.512"/>
    <path class="uuid-2960037f-9266-4bf6-8399-9afbb922fa52" d="M248.284,160.618c-1.49-2.664-.221-7.671,2.811-11.167,16.587-18.93,33.147-37.886,49.756-56.816.636,20.909,1.273,41.819,1.909,62.728.195,3.86-2.495,8.698-5.912,10.799"/>
    <line class="uuid-0c692aef-2bb6-4ebe-97c6-48168639edf7" x1="296.848" y1="166.163" x2="291.082" y2="169.729"/>
    <path class="uuid-2960037f-9266-4bf6-8399-9afbb922fa52" d="M291.082,169.729c-3.347,2.078-6.203.658-6.329-3.175"/>
    <polyline class="uuid-2960037f-9266-4bf6-8399-9afbb922fa52" points="284.753 166.554 284.364 154.389 266.166 201.658"/>
    <path class="uuid-2960037f-9266-4bf6-8399-9afbb922fa52" d="M266.166,201.658c-.732,1.833-1.785,3.614-3.054,5.176-1.343,1.663-2.906,3.028-4.422,3.908"/>
    <polyline class="uuid-2960037f-9266-4bf6-8399-9afbb922fa52" points="258.69 210.743 222.904 231.509 192.663 294.216"/>
    <path class="uuid-2960037f-9266-4bf6-8399-9afbb922fa52" d="M192.663,294.216c-2.078,4.298-5.912,7.109-8.65,6.277"/>
    <line class="uuid-0c692aef-2bb6-4ebe-97c6-48168639edf7" x1="184.013" y1="300.493" x2="179.473" y2="299.051"/>
  </g>
  <line class="uuid-9a09054b-b0b0-409e-a538-05c34c6e5015" x1="164.104" y1="356.214" x2="150.207" y2="332.224"/>
  <line class="uuid-9a09054b-b0b0-409e-a538-05c34c6e5015" x1="183.38" y1="344.414" x2="178.494" y2="335.962"/>
  <line class="uuid-9a09054b-b0b0-409e-a538-05c34c6e5015" x1="160.148" y1="304.232" x2="150.377" y2="287.277"/>
  <line class="uuid-9a09054b-b0b0-409e-a538-05c34c6e5015" x1="202.873" y1="333.129" x2="198.013" y2="324.678"/>
  <line class="uuid-9a09054b-b0b0-409e-a538-05c34c6e5015" x1="160.148" y1="259.064" x2="150.377" y2="242.109"/>
  <line class="uuid-9a09054b-b0b0-409e-a538-05c34c6e5015" x1="222.466" y1="321.842" x2="217.579" y2="313.39"/>
  <line class="uuid-9a09054b-b0b0-409e-a538-05c34c6e5015" x1="160.148" y1="213.918" x2="150.377" y2="196.967"/>
  <line class="uuid-9a09054b-b0b0-409e-a538-05c34c6e5015" x1="242.03" y1="310.535" x2="237.143" y2="302.105"/>
  <line class="uuid-9a09054b-b0b0-409e-a538-05c34c6e5015" x1="160.023" y1="168.508" x2="154.799" y2="159.445"/>
  <line class="uuid-9a09054b-b0b0-409e-a538-05c34c6e5015" x1="261.523" y1="299.272" x2="256.662" y2="290.821"/>
  <line class="uuid-9a09054b-b0b0-409e-a538-05c34c6e5015" x1="281.093" y1="287.983" x2="276.229" y2="279.51"/>
  <line class="uuid-9a09054b-b0b0-409e-a538-05c34c6e5015" x1="300.682" y1="276.698" x2="295.796" y2="268.221"/>
  <line class="uuid-9a09054b-b0b0-409e-a538-05c34c6e5015" x1="320.249" y1="265.389" x2="315.363" y2="256.937"/>
  <line class="uuid-9a09054b-b0b0-409e-a538-05c34c6e5015" x1="146.906" y1="347.295" x2="136.796" y2="353.112"/>
  <line class="uuid-9a09054b-b0b0-409e-a538-05c34c6e5015" x1="147.248" y1="334.031" x2="126.044" y2="346.273"/>
  <line class="uuid-9a09054b-b0b0-409e-a538-05c34c6e5015" x1="147.248" y1="321.013" x2="125.996" y2="333.299"/>
  <line class="uuid-9a09054b-b0b0-409e-a538-05c34c6e5015" x1="147.248" y1="307.966" x2="125.996" y2="320.229"/>
  <line class="uuid-9a09054b-b0b0-409e-a538-05c34c6e5015" x1="147.248" y1="294.922" x2="125.996" y2="307.208"/>
  <line class="uuid-9a09054b-b0b0-409e-a538-05c34c6e5015" x1="147.248" y1="281.902" x2="125.996" y2="294.19"/>
  <line class="uuid-9a09054b-b0b0-409e-a538-05c34c6e5015" x1="147.248" y1="268.858" x2="125.996" y2="281.144"/>
  <line class="uuid-9a09054b-b0b0-409e-a538-05c34c6e5015" x1="147.248" y1="255.815" x2="125.996" y2="268.1"/>
  <line class="uuid-9a09054b-b0b0-409e-a538-05c34c6e5015" x1="147.248" y1="242.793" x2="125.996" y2="255.057"/>
  <line class="uuid-9a09054b-b0b0-409e-a538-05c34c6e5015" x1="147.248" y1="229.75" x2="125.996" y2="242.035"/>
  <line class="uuid-9a09054b-b0b0-409e-a538-05c34c6e5015" x1="147.248" y1="216.73" x2="125.996" y2="228.991"/>
  <line class="uuid-9a09054b-b0b0-409e-a538-05c34c6e5015" x1="147.248" y1="203.686" x2="125.996" y2="215.946"/>
  <line class="uuid-9a09054b-b0b0-409e-a538-05c34c6e5015" x1="147.248" y1="190.638" x2="125.996" y2="202.928"/>
  <line class="uuid-9a09054b-b0b0-409e-a538-05c34c6e5015" x1="147.248" y1="177.621" x2="125.996" y2="189.88"/>
  <line class="uuid-9a09054b-b0b0-409e-a538-05c34c6e5015" x1="147.248" y1="164.573" x2="125.996" y2="176.837"/>
  <line class="uuid-9a09054b-b0b0-409e-a538-05c34c6e5015" x1="150.377" y1="149.724" x2="125.876" y2="163.889"/>
  <line class="uuid-9a09054b-b0b0-409e-a538-05c34c6e5015" x1="138.775" y1="143.421" x2="126.291" y2="150.625"/>
  <line class="uuid-9a09054b-b0b0-409e-a538-05c34c6e5015" x1="164.788" y1="339.502" x2="163.908" y2="338.991"/>
  <line class="uuid-9a09054b-b0b0-409e-a538-05c34c6e5015" x1="176.294" y1="333.104" x2="169.211" y2="329.001"/>
  <line class="uuid-9a09054b-b0b0-409e-a538-05c34c6e5015" x1="187.556" y1="326.581" x2="180.473" y2="322.504"/>
  <line class="uuid-9a09054b-b0b0-409e-a538-05c34c6e5015" x1="198.818" y1="320.061" x2="191.732" y2="315.98"/>
  <line class="uuid-9a09054b-b0b0-409e-a538-05c34c6e5015" x1="210.151" y1="313.537" x2="203.043" y2="309.46"/>
  <line class="uuid-9a09054b-b0b0-409e-a538-05c34c6e5015" x1="221.414" y1="307.017" x2="214.33" y2="302.936"/>
  <line class="uuid-9a09054b-b0b0-409e-a538-05c34c6e5015" x1="232.676" y1="300.515" x2="225.589" y2="296.414"/>
  <line class="uuid-9a09054b-b0b0-409e-a538-05c34c6e5015" x1="243.983" y1="293.995" x2="236.9" y2="289.916"/>
  <line class="uuid-9a09054b-b0b0-409e-a538-05c34c6e5015" x1="255.271" y1="287.472" x2="248.189" y2="283.37"/>
  <line class="uuid-9a09054b-b0b0-409e-a538-05c34c6e5015" x1="266.581" y1="280.952" x2="259.498" y2="276.872"/>
  <line class="uuid-9a09054b-b0b0-409e-a538-05c34c6e5015" x1="277.866" y1="274.452" x2="270.757" y2="270.349"/>
  <line class="uuid-9a09054b-b0b0-409e-a538-05c34c6e5015" x1="289.129" y1="267.931" x2="282.046" y2="263.825"/>
  <line class="uuid-9a09054b-b0b0-409e-a538-05c34c6e5015" x1="300.44" y1="261.408" x2="293.357" y2="257.305"/>
  <line class="uuid-9a09054b-b0b0-409e-a538-05c34c6e5015" x1="311.992" y1="255.057" x2="296.09" y2="245.848"/>
  <line class="uuid-9a09054b-b0b0-409e-a538-05c34c6e5015" x1="246.426" y1="154.242" x2="242.493" y2="147.402"/>
  <line class="uuid-9a09054b-b0b0-409e-a538-05c34c6e5015" x1="253.538" y1="143.932" x2="250.264" y2="138.241"/>
  <line class="uuid-9a09054b-b0b0-409e-a538-05c34c6e5015" x1="261.353" y1="134.966" x2="258.104" y2="129.278"/>
  <line class="uuid-9a09054b-b0b0-409e-a538-05c34c6e5015" x1="269.267" y1="125.977" x2="265.945" y2="120.286"/>
  <line class="uuid-9a09054b-b0b0-409e-a538-05c34c6e5015" x1="277.086" y1="116.989" x2="273.859" y2="111.319"/>
  <line class="uuid-9a09054b-b0b0-409e-a538-05c34c6e5015" x1="284.927" y1="108.022" x2="281.678" y2="102.33"/>
  <line class="uuid-9a09054b-b0b0-409e-a538-05c34c6e5015" x1="292.793" y1="99.059" x2="289.518" y2="93.368"/>
  <line class="uuid-9a09054b-b0b0-409e-a538-05c34c6e5015" x1="174.314" y1="293.922" x2="170.602" y2="287.472"/>
  <line class="uuid-9a09054b-b0b0-409e-a538-05c34c6e5015" x1="180.275" y1="281.611" x2="176.392" y2="274.915"/>
  <line class="uuid-9a09054b-b0b0-409e-a538-05c34c6e5015" x1="186.213" y1="269.322" x2="182.328" y2="262.629"/>
  <line class="uuid-9a09054b-b0b0-409e-a538-05c34c6e5015" x1="192.148" y1="257.01" x2="188.241" y2="250.318"/>
  <line class="uuid-9a09054b-b0b0-409e-a538-05c34c6e5015" x1="198.061" y1="244.722" x2="194.227" y2="238.028"/>
  <line class="uuid-9a09054b-b0b0-409e-a538-05c34c6e5015" x1="203.974" y1="232.437" x2="200.161" y2="225.743"/>
  <line class="uuid-9a09054b-b0b0-409e-a538-05c34c6e5015" x1="209.956" y1="220.125" x2="206.316" y2="213.822"/>
  <line class="uuid-9a09054b-b0b0-409e-a538-05c34c6e5015" x1="217.918" y1="211.353" x2="215.427" y2="207.029"/>
  <line class="uuid-9a09054b-b0b0-409e-a538-05c34c6e5015" x1="227.665" y1="205.687" x2="225.174" y2="201.39"/>
  <line class="uuid-9a09054b-b0b0-409e-a538-05c34c6e5015" x1="237.437" y1="200.042" x2="234.947" y2="195.72"/>
  <line class="uuid-9a09054b-b0b0-409e-a538-05c34c6e5015" x1="247.184" y1="194.377" x2="244.693" y2="190.053"/>
  <line class="uuid-9a09054b-b0b0-409e-a538-05c34c6e5015" x1="254.683" y1="184.73" x2="250.606" y2="177.691"/>
  <line class="uuid-9a09054b-b0b0-409e-a538-05c34c6e5015" x1="259.789" y1="171.049" x2="257.715" y2="167.333"/>
  <polygon class="uuid-f65332ed-0dbd-456b-9ae3-ee8ee9be97cd" points="282.679 164.695 282.727 165.748 282.385 165.527 282.679 164.695"/>
  <line class="uuid-9a09054b-b0b0-409e-a538-05c34c6e5015" x1="187.898" y1="297.782" x2="181.669" y2="286.96"/>
  <line class="uuid-9a09054b-b0b0-409e-a538-05c34c6e5015" x1="200.43" y1="274.356" x2="193.539" y2="262.335"/>
  <line class="uuid-9a09054b-b0b0-409e-a538-05c34c6e5015" x1="212.351" y1="249.755" x2="205.364" y2="237.738"/>
  <line class="uuid-9a09054b-b0b0-409e-a538-05c34c6e5015" x1="225.884" y1="228.013" x2="218.459" y2="215.191"/>
  <line class="uuid-9a09054b-b0b0-409e-a538-05c34c6e5015" x1="245.403" y1="216.681" x2="237.901" y2="203.781"/>
  <line class="uuid-9a09054b-b0b0-409e-a538-05c34c6e5015" x1="263.697" y1="203.223" x2="256.319" y2="190.444"/>
  <line class="uuid-9a09054b-b0b0-409e-a538-05c34c6e5015" x1="274.202" y1="176.325" x2="266.655" y2="163.257"/>
  <line class="uuid-9a09054b-b0b0-409e-a538-05c34c6e5015" x1="262.917" y1="156.755" x2="256.588" y2="145.813"/>
  <line class="uuid-9a09054b-b0b0-409e-a538-05c34c6e5015" x1="294.795" y1="166.821" x2="271.759" y2="126.904"/>
  <line class="uuid-9a09054b-b0b0-409e-a538-05c34c6e5015" x1="300.44" y1="131.474" x2="287.786" y2="109.564"/>
</svg>