<?xml version="1.0" encoding="UTF-8"?>
<svg id="uuid-0d71ad81-8c75-4d53-a4c8-7d882c7fb7ec" data-name="&amp;lt;Layer&amp;gt;" xmlns="http://www.w3.org/2000/svg" viewBox="0 0 451.11 451.11">
  <defs>
    <style>
      .uuid-6518a946-64d8-4703-8b54-e6794c3aa879, .uuid-4c6fb7f2-bcd1-4f0c-8e17-3a3771c1954d, .uuid-f0e20117-9888-45c3-9081-84dffa5a7ad2 {
        fill: none;
        stroke: #000;
        stroke-linecap: round;
      }

      .uuid-6518a946-64d8-4703-8b54-e6794c3aa879, .uuid-f0e20117-9888-45c3-9081-84dffa5a7ad2 {
        stroke-linejoin: round;
        stroke-width: 4.117px;
      }

      .uuid-4c6fb7f2-bcd1-4f0c-8e17-3a3771c1954d {
        stroke-miterlimit: 10;
        stroke-width: 1.163px;
      }

      .uuid-f0e20117-9888-45c3-9081-84dffa5a7ad2 {
        fill-rule: evenodd;
      }
    </style>
  </defs>
  <path class="uuid-f0e20117-9888-45c3-9081-84dffa5a7ad2" d="M296.386,134.529c-7.498-4.296-16.387-6.107-26.26-5.128-9.526.979-19.957,4.47-30.877,10.795-10.99,6.328-21.447,14.853-30.973,24.894-9.847,10.431-18.761,22.496-26.164,35.417-7.499,12.925-13.481,26.653-17.54,40.429-3.955,13.268-6.155,26.58-6.155,39.233s2.2,23.426,6.155,32.147c4.059,9.039,10.041,15.854,17.54,20.155,7.402,4.298,16.317,6.107,26.164,5.128,9.526-.953,19.983-4.47,30.973-10.798,10.92-6.325,21.351-14.85,30.877-24.918,9.873-10.405,18.761-22.474,26.26-35.395,7.428-12.896,13.415-26.649,17.54-40.429,3.933-13.238,6.085-26.554,6.085-39.207s-2.152-23.448-6.085-32.172c-4.125-9.037-10.111-15.851-17.54-20.153Z"/>
  <line class="uuid-6518a946-64d8-4703-8b54-e6794c3aa879" x1="223.325" y1="303.206" x2="223.274" y2="303.206"/>
  <line class="uuid-6518a946-64d8-4703-8b54-e6794c3aa879" x1="291.452" y1="155.881" x2="291.452" y2="155.929"/>
  <path class="uuid-f0e20117-9888-45c3-9081-84dffa5a7ad2" d="M286.519,130.501q.051,0,.099.069c14.634,8.234,23.769,26.238,23.769,51.912,0,50.883-35.716,112.71-79.809,138.138-22.227,12.853-42.31,13.952-56.795,5.35-.096,0-.096-.044-.096-.122"/>
  <path class="uuid-f0e20117-9888-45c3-9081-84dffa5a7ad2" d="M167.748,353.43c-6.546-3.786-25.6-14.239-30.608-18.051-31.462-23.747-26.308-76.582-16.318-109.56,14.415-47.759,47.564-96.492,90.947-122.166,20.103-11.311,46.293-19.567,68.131-7.841l27.459,15.829"/>
  <path class="uuid-f0e20117-9888-45c3-9081-84dffa5a7ad2" d="M169.386,193.183c17.881-30.929,42.555-57.969,69.864-73.702,27.216-15.729,51.912-17.219,69.789-6.914,17.883,10.31,28.927,32.445,28.927,63.929s-11.045,66.373-28.927,97.324c-17.877,30.951-42.573,57.967-69.789,73.698-27.309,15.733-51.982,17.223-69.864,6.913-17.831-10.31-28.925-32.437-28.925-63.929s11.094-66.368,28.925-97.319Z"/>
  <line class="uuid-6518a946-64d8-4703-8b54-e6794c3aa879" x1="219.319" y1="318.277" x2="245.577" y2="217.584"/>
  <polyline class="uuid-f0e20117-9888-45c3-9081-84dffa5a7ad2" points="234.414 240.693 193.081 228.894 200.215 213.749 242.55 225.818"/>
  <polygon class="uuid-f0e20117-9888-45c3-9081-84dffa5a7ad2" points="233.193 258.528 227.038 254.958 285.981 152.778 290.231 155.221 292.21 156.344 233.193 258.528"/>
  <line class="uuid-4c6fb7f2-bcd1-4f0c-8e17-3a3771c1954d" x1="209.792" y1="335.452" x2="204.807" y2="332.593"/>
  <line class="uuid-4c6fb7f2-bcd1-4f0c-8e17-3a3771c1954d" x1="225.352" y1="331.397" x2="219.66" y2="328.123"/>
  <line class="uuid-4c6fb7f2-bcd1-4f0c-8e17-3a3771c1954d" x1="237.737" y1="325.507" x2="231.799" y2="322.088"/>
  <line class="uuid-4c6fb7f2-bcd1-4f0c-8e17-3a3771c1954d" x1="248.411" y1="318.645" x2="242.376" y2="315.149"/>
  <line class="uuid-4c6fb7f2-bcd1-4f0c-8e17-3a3771c1954d" x1="257.937" y1="311.094" x2="251.781" y2="307.555"/>
  <line class="uuid-4c6fb7f2-bcd1-4f0c-8e17-3a3771c1954d" x1="266.466" y1="303.012" x2="260.331" y2="299.468"/>
  <line class="uuid-4c6fb7f2-bcd1-4f0c-8e17-3a3771c1954d" x1="274.328" y1="294.508" x2="268.173" y2="290.943"/>
  <line class="uuid-4c6fb7f2-bcd1-4f0c-8e17-3a3771c1954d" x1="281.463" y1="285.592" x2="275.306" y2="282.028"/>
  <line class="uuid-4c6fb7f2-bcd1-4f0c-8e17-3a3771c1954d" x1="288.033" y1="276.336" x2="281.878" y2="272.767"/>
  <line class="uuid-4c6fb7f2-bcd1-4f0c-8e17-3a3771c1954d" x1="293.995" y1="266.758" x2="287.839" y2="263.215"/>
  <line class="uuid-4c6fb7f2-bcd1-4f0c-8e17-3a3771c1954d" x1="299.466" y1="256.865" x2="293.31" y2="253.299"/>
  <line class="uuid-4c6fb7f2-bcd1-4f0c-8e17-3a3771c1954d" x1="304.4" y1="246.68" x2="298.197" y2="243.089"/>
  <line class="uuid-4c6fb7f2-bcd1-4f0c-8e17-3a3771c1954d" x1="308.627" y1="236.102" x2="302.472" y2="232.537"/>
  <line class="uuid-4c6fb7f2-bcd1-4f0c-8e17-3a3771c1954d" x1="312.292" y1="225.207" x2="306.137" y2="221.617"/>
  <line class="uuid-4c6fb7f2-bcd1-4f0c-8e17-3a3771c1954d" x1="315.199" y1="213.797" x2="309.039" y2="210.28"/>
  <line class="uuid-4c6fb7f2-bcd1-4f0c-8e17-3a3771c1954d" x1="317.127" y1="201.88" x2="311.192" y2="198.458"/>
  <line class="uuid-4c6fb7f2-bcd1-4f0c-8e17-3a3771c1954d" x1="318.031" y1="189.396" x2="312.241" y2="186.025"/>
  <line class="uuid-4c6fb7f2-bcd1-4f0c-8e17-3a3771c1954d" x1="317.59" y1="176.084" x2="311.824" y2="172.783"/>
  <line class="uuid-4c6fb7f2-bcd1-4f0c-8e17-3a3771c1954d" x1="314.441" y1="161.23" x2="309.091" y2="158.151"/>
  <line class="uuid-4c6fb7f2-bcd1-4f0c-8e17-3a3771c1954d" x1="148.475" y1="334.768" x2="143.832" y2="337.428"/>
  <line class="uuid-4c6fb7f2-bcd1-4f0c-8e17-3a3771c1954d" x1="144.053" y1="324.238" x2="133.721" y2="330.198"/>
  <line class="uuid-4c6fb7f2-bcd1-4f0c-8e17-3a3771c1954d" x1="141.098" y1="312.927" x2="126.344" y2="321.478"/>
  <line class="uuid-4c6fb7f2-bcd1-4f0c-8e17-3a3771c1954d" x1="139.534" y1="300.811" x2="120.994" y2="311.537"/>
  <line class="uuid-4c6fb7f2-bcd1-4f0c-8e17-3a3771c1954d" x1="139.193" y1="287.937" x2="117.356" y2="300.569"/>
  <line class="uuid-4c6fb7f2-bcd1-4f0c-8e17-3a3771c1954d" x1="140.172" y1="274.356" x2="115.203" y2="288.769"/>
  <line class="uuid-4c6fb7f2-bcd1-4f0c-8e17-3a3771c1954d" x1="142.442" y1="260.018" x2="114.397" y2="276.214"/>
  <line class="uuid-4c6fb7f2-bcd1-4f0c-8e17-3a3771c1954d" x1="146.154" y1="244.822" x2="114.839" y2="262.898"/>
  <line class="uuid-4c6fb7f2-bcd1-4f0c-8e17-3a3771c1954d" x1="151.431" y1="228.772" x2="116.545" y2="248.877"/>
  <line class="uuid-4c6fb7f2-bcd1-4f0c-8e17-3a3771c1954d" x1="158.516" y1="211.627" x2="119.6" y2="234.101"/>
  <line class="uuid-4c6fb7f2-bcd1-4f0c-8e17-3a3771c1954d" x1="168.164" y1="193.035" x2="124.317" y2="218.346"/>
  <line class="uuid-4c6fb7f2-bcd1-4f0c-8e17-3a3771c1954d" x1="181.527" y1="172.272" x2="130.766" y2="201.56"/>
  <line class="uuid-4c6fb7f2-bcd1-4f0c-8e17-3a3771c1954d" x1="283.906" y1="100.134" x2="276.455" y2="104.41"/>
  <line class="uuid-4c6fb7f2-bcd1-4f0c-8e17-3a3771c1954d" x1="202.069" y1="147.377" x2="139.414" y2="183.535"/>
  <line class="uuid-4c6fb7f2-bcd1-4f0c-8e17-3a3771c1954d" x1="273.96" y1="92.824" x2="149.918" y2="164.428"/>
  <line class="uuid-4c6fb7f2-bcd1-4f0c-8e17-3a3771c1954d" x1="255.203" y1="90.63" x2="170.728" y2="139.441"/>
  <line class="uuid-4c6fb7f2-bcd1-4f0c-8e17-3a3771c1954d" x1="334.667" y1="205.298" x2="262.533" y2="330.176"/>
  <line class="uuid-4c6fb7f2-bcd1-4f0c-8e17-3a3771c1954d" x1="335.303" y1="159.056" x2="321.523" y2="182.847"/>
  <line class="uuid-4c6fb7f2-bcd1-4f0c-8e17-3a3771c1954d" x1="236.516" y1="330.054" x2="222.81" y2="353.845"/>
  <line class="uuid-4c6fb7f2-bcd1-4f0c-8e17-3a3771c1954d" x1="325.53" y1="130.696" x2="313.804" y2="151.116"/>
  <line class="uuid-4c6fb7f2-bcd1-4f0c-8e17-3a3771c1954d" x1="205.148" y1="339.239" x2="193.422" y2="359.611"/>
  <line class="uuid-4c6fb7f2-bcd1-4f0c-8e17-3a3771c1954d" x1="309.091" y1="114.06" x2="297.707" y2="133.75"/>
  <line class="uuid-4c6fb7f2-bcd1-4f0c-8e17-3a3771c1954d" x1="182.163" y1="333.962" x2="170.78" y2="353.65"/>
  <line class="uuid-4c6fb7f2-bcd1-4f0c-8e17-3a3771c1954d" x1="286.86" y1="107.49" x2="275.134" y2="127.763"/>
  <line class="uuid-4c6fb7f2-bcd1-4f0c-8e17-3a3771c1954d" x1="165.672" y1="317.397" x2="153.924" y2="337.649"/>
  <line class="uuid-4c6fb7f2-bcd1-4f0c-8e17-3a3771c1954d" x1="258.011" y1="112.324" x2="244.53" y2="135.603"/>
  <line class="uuid-4c6fb7f2-bcd1-4f0c-8e17-3a3771c1954d" x1="157.122" y1="287.01" x2="143.71" y2="310.167"/>
  <line class="uuid-4c6fb7f2-bcd1-4f0c-8e17-3a3771c1954d" x1="217.923" y1="136.508" x2="190.689" y2="183.729"/>
  <line class="uuid-4c6fb7f2-bcd1-4f0c-8e17-3a3771c1954d" x1="171.877" y1="216.218" x2="144.52" y2="263.682"/>
  <line class="uuid-4c6fb7f2-bcd1-4f0c-8e17-3a3771c1954d" x1="230.463" y1="224.085" x2="223.675" y2="235.954"/>
  <line class="uuid-4c6fb7f2-bcd1-4f0c-8e17-3a3771c1954d" x1="207.99" y1="217.929" x2="201.135" y2="229.711"/>
  <line class="uuid-4c6fb7f2-bcd1-4f0c-8e17-3a3771c1954d" x1="247.727" y1="229.604" x2="244.919" y2="228.014"/>
  <line class="uuid-4c6fb7f2-bcd1-4f0c-8e17-3a3771c1954d" x1="253.344" y1="219.832" x2="250.56" y2="218.22"/>
  <line class="uuid-4c6fb7f2-bcd1-4f0c-8e17-3a3771c1954d" x1="258.989" y1="210.063" x2="256.204" y2="208.447"/>
  <line class="uuid-4c6fb7f2-bcd1-4f0c-8e17-3a3771c1954d" x1="264.607" y1="200.29" x2="261.822" y2="198.678"/>
  <line class="uuid-4c6fb7f2-bcd1-4f0c-8e17-3a3771c1954d" x1="270.321" y1="190.496" x2="267.467" y2="188.885"/>
  <line class="uuid-4c6fb7f2-bcd1-4f0c-8e17-3a3771c1954d" x1="275.944" y1="180.723" x2="273.158" y2="179.112"/>
  <line class="uuid-4c6fb7f2-bcd1-4f0c-8e17-3a3771c1954d" x1="281.562" y1="170.952" x2="278.776" y2="169.34"/>
  <line class="uuid-4c6fb7f2-bcd1-4f0c-8e17-3a3771c1954d" x1="287.203" y1="161.183" x2="284.417" y2="159.545"/>
  <line class="uuid-4c6fb7f2-bcd1-4f0c-8e17-3a3771c1954d" x1="235.978" y1="246.581" x2="234.657" y2="245.823"/>
</svg>