<?xml version="1.0" encoding="UTF-8"?>
<svg id="uuid-91d87c3b-7c36-4323-844b-92e9c695c403" data-name="&amp;lt;Layer&amp;gt;" xmlns="http://www.w3.org/2000/svg" viewBox="0 0 451.11 451.11">
  <defs>
    <style>
      .uuid-ab5e7b33-00f9-4bc0-87f0-7a38bea6584d, .uuid-c30686e8-6293-4a0c-8731-c3e2b8430f2c, .uuid-29d23940-70ca-4e18-90cf-d48b54d5d7d1 {
        fill: none;
        stroke: #000;
        stroke-linecap: round;
      }

      .uuid-ab5e7b33-00f9-4bc0-87f0-7a38bea6584d, .uuid-29d23940-70ca-4e18-90cf-d48b54d5d7d1 {
        stroke-linejoin: round;
        stroke-width: 4.113px;
      }

      .uuid-c30686e8-6293-4a0c-8731-c3e2b8430f2c {
        stroke-miterlimit: 10;
        stroke-width: 1.163px;
      }

      .uuid-29d23940-70ca-4e18-90cf-d48b54d5d7d1 {
        fill-rule: evenodd;
      }
    </style>
  </defs>
  <path class="uuid-29d23940-70ca-4e18-90cf-d48b54d5d7d1" d="M159.344,99.055c36.592-21.131,95.829-21.131,132.425,0,36.518,21.082,36.566,55.282,0,76.435-36.548,21.082-95.881,21.082-132.425,0-36.569-21.153-36.522-55.353,0-76.435Z"/>
  <path class="uuid-29d23940-70ca-4e18-90cf-d48b54d5d7d1" d="M142.511,307.061c.121,5.228,2.733,8.598,5.692,13.068,8.305,11.042,18.587,16.904,31.245,21.96,16.781,6.107,31.826,8.134,49.66,7.844,15.023-.586,27.407-2.69,41.698-7.844,10.162-4.051,17.709-8.184,25.774-15.609,5.934-6.155,11.037-10.99,11.137-19.419"/>
  <path class="uuid-29d23940-70ca-4e18-90cf-d48b54d5d7d1" d="M312.262,322.11c-1.001,4.812-2.102,7.545-4.47,11.895-5.766,8.772-11.848,13.606-20.741,19.004-33.052,18.128-75.556,18.982-110.098,6.498-7.499-3.028-13.118-5.862-19.81-10.332-4.592-3.492-7.719-6.203-11.479-10.626-4.254-5.645-6.281-9.526-7.745-16.439"/>
  <path class="uuid-29d23940-70ca-4e18-90cf-d48b54d5d7d1" d="M142.511,289.838c-3.249,5.57-4.813,11.361-4.592,17.223-.048.074-.048.121,0,.243.463,12.484,9.015,24.842,25.502,34.372,34.1,19.64,89.309,19.64,123.34,0,16.487-9.576,24.964-21.936,25.502-34.372.048-.074.048-.122,0-.243.221-5.814-1.269-11.605-4.544-17.124"/>
  <path class="uuid-29d23940-70ca-4e18-90cf-d48b54d5d7d1" d="M318.76,142.438c0,19.151,2.321,29.561-14.975,44.704-47.39,41.481-158.71,26.848-170.852-21.936"/>
  <path class="uuid-29d23940-70ca-4e18-90cf-d48b54d5d7d1" d="M163.884,98.592c34.079-19.641,89.262-19.689,123.34,0,34.101,19.688,34.101,51.566.07,71.254-34.101,19.692-89.379,19.692-123.458,0-34.1-19.688-34.052-51.566.048-71.254Z"/>
  <path class="uuid-29d23940-70ca-4e18-90cf-d48b54d5d7d1" d="M210.273,110.854c8.429-4.886,22.135-4.886,30.561,0,8.425,4.861,8.477,12.775,0,17.64-8.427,4.882-22.132,4.882-30.561,0-8.403-4.865-8.403-12.779,0-17.64Z"/>
  <polyline class="uuid-29d23940-70ca-4e18-90cf-d48b54d5d7d1" points="247.112 120.891 247.112 130.517 246.916 131.105"/>
  <path class="uuid-29d23940-70ca-4e18-90cf-d48b54d5d7d1" d="M246.916,131.105c-.221,1.001-.757,2.027-1.316,2.907-2.274,3.197-6.329,5.228-9.993,6.325-7.33,2.222-16.734,1.932-23.695-1.317-1.979-.953-4.007-2.274-5.446-3.909-.758-.808-1.468-1.857-1.883-2.832-.169-.295-.343-.81-.389-1.175"/>
  <polyline class="uuid-29d23940-70ca-4e18-90cf-d48b54d5d7d1" points="204.192 131.105 204.07 130.517 204.07 120.891"/>
  <path class="uuid-29d23940-70ca-4e18-90cf-d48b54d5d7d1" d="M204.07,120.891c.048.421.122.758.295,1.175.389,1.269,1.147,2.421,2.1,3.422,2.246,2.539,5.788,4.228,9.037,5.228,7.551,2.318,17.492,1.905,24.501-1.759,2.102-1.101,4.202-2.664,5.597-4.596.56-.853,1.096-1.906,1.316-2.88"/>
  <line class="uuid-ab5e7b33-00f9-4bc0-87f0-7a38bea6584d" x1="172.777" y1="307.061" x2="172.777" y2="315.953"/>
  <path class="uuid-29d23940-70ca-4e18-90cf-d48b54d5d7d1" d="M172.777,315.953c0,6.446-6.619,6.789-6.619.706"/>
  <line class="uuid-ab5e7b33-00f9-4bc0-87f0-7a38bea6584d" x1="166.158" y1="316.659" x2="166.158" y2="307.061"/>
  <line class="uuid-ab5e7b33-00f9-4bc0-87f0-7a38bea6584d" x1="209.347" y1="307.061" x2="209.347" y2="329.434"/>
  <path class="uuid-29d23940-70ca-4e18-90cf-d48b54d5d7d1" d="M209.347,329.434c0,9.677-8.525,9.677-8.525,0"/>
  <line class="uuid-ab5e7b33-00f9-4bc0-87f0-7a38bea6584d" x1="200.821" y1="329.434" x2="200.821" y2="307.061"/>
  <line class="uuid-ab5e7b33-00f9-4bc0-87f0-7a38bea6584d" x1="248.382" y1="307.061" x2="248.382" y2="329.434"/>
  <path class="uuid-29d23940-70ca-4e18-90cf-d48b54d5d7d1" d="M248.382,329.434c0,9.677-8.548,9.677-8.548,0"/>
  <line class="uuid-ab5e7b33-00f9-4bc0-87f0-7a38bea6584d" x1="239.834" y1="329.434" x2="239.834" y2="307.061"/>
  <line class="uuid-ab5e7b33-00f9-4bc0-87f0-7a38bea6584d" x1="283.508" y1="307.061" x2="283.508" y2="315.953"/>
  <path class="uuid-29d23940-70ca-4e18-90cf-d48b54d5d7d1" d="M283.508,315.953c0,6.446-6.619,6.789-6.619.706"/>
  <line class="uuid-ab5e7b33-00f9-4bc0-87f0-7a38bea6584d" x1="276.889" y1="316.659" x2="276.889" y2="307.061"/>
  <path class="uuid-29d23940-70ca-4e18-90cf-d48b54d5d7d1" d="M312.262,307.061c.048.121.048.169,0,.243"/>
  <line class="uuid-ab5e7b33-00f9-4bc0-87f0-7a38bea6584d" x1="312.262" y1="307.303" x2="312.262" y2="322.11"/>
  <line class="uuid-ab5e7b33-00f9-4bc0-87f0-7a38bea6584d" x1="137.919" y1="322.11" x2="137.919" y2="307.303"/>
  <path class="uuid-29d23940-70ca-4e18-90cf-d48b54d5d7d1" d="M137.919,307.303c-.048-.122-.048-.169,0-.243"/>
  <line class="uuid-ab5e7b33-00f9-4bc0-87f0-7a38bea6584d" x1="239.834" y1="329.434" x2="239.834" y2="256.495"/>
  <line class="uuid-ab5e7b33-00f9-4bc0-87f0-7a38bea6584d" x1="209.347" y1="329.434" x2="209.347" y2="256.543"/>
  <line class="uuid-ab5e7b33-00f9-4bc0-87f0-7a38bea6584d" x1="142.511" y1="182.624" x2="142.511" y2="306.67"/>
  <line class="uuid-ab5e7b33-00f9-4bc0-87f0-7a38bea6584d" x1="307.718" y1="306.718" x2="307.718" y2="183.43"/>
  <line class="uuid-ab5e7b33-00f9-4bc0-87f0-7a38bea6584d" x1="132.933" y1="165.206" x2="132.4" y2="142.438"/>
  <path class="uuid-29d23940-70ca-4e18-90cf-d48b54d5d7d1" d="M299.315,300.172v-101.23"/>
  <path class="uuid-29d23940-70ca-4e18-90cf-d48b54d5d7d1" d="M151.867,300.172v-101.23"/>
  <line class="uuid-ab5e7b33-00f9-4bc0-87f0-7a38bea6584d" x1="283.508" y1="213.575" x2="283.508" y2="315.953"/>
  <line class="uuid-ab5e7b33-00f9-4bc0-87f0-7a38bea6584d" x1="276.889" y1="316.659" x2="276.889" y2="212.891"/>
  <path class="uuid-29d23940-70ca-4e18-90cf-d48b54d5d7d1" d="M276.889,212.891c0-6.108,6.619-5.766,6.619.684"/>
  <line class="uuid-ab5e7b33-00f9-4bc0-87f0-7a38bea6584d" x1="248.382" y1="227.108" x2="248.382" y2="329.434"/>
  <line class="uuid-ab5e7b33-00f9-4bc0-87f0-7a38bea6584d" x1="239.834" y1="329.434" x2="239.834" y2="227.108"/>
  <path class="uuid-29d23940-70ca-4e18-90cf-d48b54d5d7d1" d="M239.834,227.108c0-9.699,8.548-9.699,8.548,0"/>
  <line class="uuid-ab5e7b33-00f9-4bc0-87f0-7a38bea6584d" x1="209.347" y1="227.108" x2="209.347" y2="329.434"/>
  <line class="uuid-ab5e7b33-00f9-4bc0-87f0-7a38bea6584d" x1="200.821" y1="329.434" x2="200.821" y2="227.108"/>
  <path class="uuid-29d23940-70ca-4e18-90cf-d48b54d5d7d1" d="M200.821,227.108c0-9.699,8.525-9.699,8.525,0"/>
  <line class="uuid-ab5e7b33-00f9-4bc0-87f0-7a38bea6584d" x1="172.777" y1="213.575" x2="172.777" y2="315.953"/>
  <line class="uuid-ab5e7b33-00f9-4bc0-87f0-7a38bea6584d" x1="166.158" y1="316.659" x2="166.158" y2="212.891"/>
  <path class="uuid-29d23940-70ca-4e18-90cf-d48b54d5d7d1" d="M166.158,212.891c0-6.108,6.619-5.766,6.619.684"/>
  <line class="uuid-c30686e8-6293-4a0c-8731-c3e2b8430f2c" x1="170.725" y1="302.248" x2="168.064" y2="300.684"/>
  <line class="uuid-c30686e8-6293-4a0c-8731-c3e2b8430f2c" x1="170.725" y1="276.183" x2="168.064" y2="274.594"/>
  <line class="uuid-c30686e8-6293-4a0c-8731-c3e2b8430f2c" x1="170.725" y1="250.093" x2="168.064" y2="248.607"/>
  <line class="uuid-c30686e8-6293-4a0c-8731-c3e2b8430f2c" x1="170.725" y1="224.028" x2="168.064" y2="222.515"/>
  <line class="uuid-c30686e8-6293-4a0c-8731-c3e2b8430f2c" x1="207.441" y1="319.03" x2="202.68" y2="316.296"/>
  <line class="uuid-c30686e8-6293-4a0c-8731-c3e2b8430f2c" x1="207.441" y1="292.964" x2="202.68" y2="290.231"/>
  <line class="uuid-c30686e8-6293-4a0c-8731-c3e2b8430f2c" x1="207.441" y1="266.949" x2="202.68" y2="264.167"/>
  <line class="uuid-c30686e8-6293-4a0c-8731-c3e2b8430f2c" x1="207.441" y1="240.861" x2="202.68" y2="238.124"/>
  <line class="uuid-c30686e8-6293-4a0c-8731-c3e2b8430f2c" x1="246.452" y1="319.15" x2="241.713" y2="316.416"/>
  <line class="uuid-c30686e8-6293-4a0c-8731-c3e2b8430f2c" x1="246.452" y1="293.064" x2="241.713" y2="290.353"/>
  <line class="uuid-c30686e8-6293-4a0c-8731-c3e2b8430f2c" x1="246.452" y1="266.999" x2="241.713" y2="264.262"/>
  <line class="uuid-c30686e8-6293-4a0c-8731-c3e2b8430f2c" x1="246.452" y1="240.935" x2="241.713" y2="238.198"/>
  <line class="uuid-c30686e8-6293-4a0c-8731-c3e2b8430f2c" x1="281.532" y1="302.2" x2="278.821" y2="300.684"/>
  <line class="uuid-c30686e8-6293-4a0c-8731-c3e2b8430f2c" x1="281.532" y1="276.183" x2="278.821" y2="274.594"/>
  <line class="uuid-c30686e8-6293-4a0c-8731-c3e2b8430f2c" x1="281.532" y1="250.093" x2="278.821" y2="248.529"/>
  <line class="uuid-c30686e8-6293-4a0c-8731-c3e2b8430f2c" x1="281.532" y1="224.028" x2="278.821" y2="222.465"/>
  <line class="uuid-c30686e8-6293-4a0c-8731-c3e2b8430f2c" x1="218.873" y1="129.884" x2="209.247" y2="113.224"/>
  <line class="uuid-c30686e8-6293-4a0c-8731-c3e2b8430f2c" x1="232.063" y1="130.248" x2="219.8" y2="108.922"/>
  <line class="uuid-c30686e8-6293-4a0c-8731-c3e2b8430f2c" x1="242.446" y1="125.535" x2="233.21" y2="109.632"/>
  <line class="uuid-c30686e8-6293-4a0c-8731-c3e2b8430f2c" x1="237.217" y1="132.106" x2="233.21" y2="139.068"/>
  <line class="uuid-c30686e8-6293-4a0c-8731-c3e2b8430f2c" x1="223.122" y1="133.965" x2="219.925" y2="139.484"/>
  <line class="uuid-c30686e8-6293-4a0c-8731-c3e2b8430f2c" x1="211.617" y1="131.275" x2="209.347" y2="135.186"/>
  <line class="uuid-c30686e8-6293-4a0c-8731-c3e2b8430f2c" x1="304.543" y1="168.702" x2="289.031" y2="195.521"/>
  <line class="uuid-c30686e8-6293-4a0c-8731-c3e2b8430f2c" x1="284.318" y1="181.06" x2="271.664" y2="202.997"/>
  <line class="uuid-c30686e8-6293-4a0c-8731-c3e2b8430f2c" x1="267.877" y1="187.044" x2="256.321" y2="207.003"/>
  <line class="uuid-c30686e8-6293-4a0c-8731-c3e2b8430f2c" x1="252.778" y1="190.513" x2="242.104" y2="209.031"/>
  <line class="uuid-c30686e8-6293-4a0c-8731-c3e2b8430f2c" x1="238.781" y1="192.202" x2="228.619" y2="209.741"/>
  <line class="uuid-c30686e8-6293-4a0c-8731-c3e2b8430f2c" x1="225.444" y1="192.735" x2="215.796" y2="209.443"/>
  <line class="uuid-c30686e8-6293-4a0c-8731-c3e2b8430f2c" x1="212.716" y1="192.202" x2="203.482" y2="208.178"/>
  <line class="uuid-c30686e8-6293-4a0c-8731-c3e2b8430f2c" x1="200.527" y1="190.759" x2="191.711" y2="206.076"/>
  <line class="uuid-c30686e8-6293-4a0c-8731-c3e2b8430f2c" x1="188.804" y1="188.438" x2="180.375" y2="203.07"/>
  <line class="uuid-c30686e8-6293-4a0c-8731-c3e2b8430f2c" x1="177.638" y1="185.237" x2="169.624" y2="199.063"/>
  <line class="uuid-c30686e8-6293-4a0c-8731-c3e2b8430f2c" x1="166.964" y1="181.108" x2="159.538" y2="194.007"/>
  <line class="uuid-c30686e8-6293-4a0c-8731-c3e2b8430f2c" x1="156.923" y1="175.932" x2="150.182" y2="187.632"/>
  <line class="uuid-c30686e8-6293-4a0c-8731-c3e2b8430f2c" x1="147.618" y1="169.508" x2="141.926" y2="179.301"/>
  <line class="uuid-c30686e8-6293-4a0c-8731-c3e2b8430f2c" x1="139.383" y1="161.251" x2="135.597" y2="167.821"/>
  <line class="uuid-c30686e8-6293-4a0c-8731-c3e2b8430f2c" x1="169.624" y1="342.725" x2="167.306" y2="338.718"/>
  <line class="uuid-c30686e8-6293-4a0c-8731-c3e2b8430f2c" x1="186.362" y1="349.1" x2="184.503" y2="345.851"/>
  <line class="uuid-c30686e8-6293-4a0c-8731-c3e2b8430f2c" x1="201.333" y1="352.471" x2="199.772" y2="349.686"/>
  <line class="uuid-c30686e8-6293-4a0c-8731-c3e2b8430f2c" x1="215.333" y1="354.035" x2="213.839" y2="351.445"/>
  <line class="uuid-c30686e8-6293-4a0c-8731-c3e2b8430f2c" x1="228.523" y1="354.355" x2="227.059" y2="351.912"/>
  <line class="uuid-c30686e8-6293-4a0c-8731-c3e2b8430f2c" x1="241.055" y1="353.524" x2="239.734" y2="351.154"/>
  <line class="uuid-c30686e8-6293-4a0c-8731-c3e2b8430f2c" x1="253.098" y1="351.713" x2="251.755" y2="349.417"/>
  <line class="uuid-c30686e8-6293-4a0c-8731-c3e2b8430f2c" x1="264.456" y1="348.879" x2="263.186" y2="346.609"/>
  <line class="uuid-c30686e8-6293-4a0c-8731-c3e2b8430f2c" x1="275.251" y1="345.047" x2="273.982" y2="342.847"/>
  <line class="uuid-c30686e8-6293-4a0c-8731-c3e2b8430f2c" x1="285.487" y1="340.112" x2="284.218" y2="337.911"/>
  <line class="uuid-c30686e8-6293-4a0c-8731-c3e2b8430f2c" x1="294.844" y1="333.71" x2="293.549" y2="331.562"/>
  <line class="uuid-c30686e8-6293-4a0c-8731-c3e2b8430f2c" x1="303.079" y1="325.431" x2="302.026" y2="323.622"/>
  <line class="uuid-c30686e8-6293-4a0c-8731-c3e2b8430f2c" x1="309.182" y1="313.459" x2="308.891" y2="312.874"/>
  <line class="uuid-c30686e8-6293-4a0c-8731-c3e2b8430f2c" x1="288.393" y1="342.847" x2="282.286" y2="353.35"/>
  <line class="uuid-c30686e8-6293-4a0c-8731-c3e2b8430f2c" x1="270.685" y1="350.859" x2="265.336" y2="360.142"/>
  <line class="uuid-c30686e8-6293-4a0c-8731-c3e2b8430f2c" x1="255.22" y1="355.087" x2="250.165" y2="363.855"/>
  <line class="uuid-c30686e8-6293-4a0c-8731-c3e2b8430f2c" x1="240.955" y1="357.31" x2="236.07" y2="365.665"/>
  <line class="uuid-c30686e8-6293-4a0c-8731-c3e2b8430f2c" x1="227.424" y1="358.042" x2="222.831" y2="366.078"/>
  <line class="uuid-c30686e8-6293-4a0c-8731-c3e2b8430f2c" x1="214.575" y1="357.774" x2="210.225" y2="365.246"/>
  <line class="uuid-c30686e8-6293-4a0c-8731-c3e2b8430f2c" x1="202.337" y1="356.43" x2="198.256" y2="363.465"/>
  <line class="uuid-c30686e8-6293-4a0c-8731-c3e2b8430f2c" x1="190.659" y1="354.108" x2="186.825" y2="360.728"/>
  <line class="uuid-c30686e8-6293-4a0c-8731-c3e2b8430f2c" x1="179.448" y1="350.859" x2="175.905" y2="357.064"/>
  <line class="uuid-c30686e8-6293-4a0c-8731-c3e2b8430f2c" x1="168.87" y1="346.563" x2="165.621" y2="352.202"/>
  <line class="uuid-c30686e8-6293-4a0c-8731-c3e2b8430f2c" x1="158.998" y1="341.16" x2="156.165" y2="346.047"/>
  <line class="uuid-c30686e8-6293-4a0c-8731-c3e2b8430f2c" x1="149.94" y1="334.251" x2="147.74" y2="338.037"/>
  <line class="uuid-c30686e8-6293-4a0c-8731-c3e2b8430f2c" x1="142.047" y1="325.359" x2="141.242" y2="326.823"/>
  <line class="uuid-c30686e8-6293-4a0c-8731-c3e2b8430f2c" x1="225.665" y1="189.122" x2="220.973" y2="186.458"/>
  <line class="uuid-c30686e8-6293-4a0c-8731-c3e2b8430f2c" x1="136.527" y1="137.677" x2="133.912" y2="136.161"/>
  <line class="uuid-c30686e8-6293-4a0c-8731-c3e2b8430f2c" x1="263.136" y1="184.7" x2="259.522" y2="182.624"/>
  <line class="uuid-c30686e8-6293-4a0c-8731-c3e2b8430f2c" x1="290.08" y1="174.195" x2="286.809" y2="172.34"/>
  <line class="uuid-c30686e8-6293-4a0c-8731-c3e2b8430f2c" x1="308.841" y1="158.929" x2="305.813" y2="157.192"/>
  <line class="uuid-c30686e8-6293-4a0c-8731-c3e2b8430f2c" x1="317.196" y1="137.725" x2="314.705" y2="136.283"/>
</svg>