<?xml version="1.0" encoding="UTF-8"?>
<svg id="uuid-001e4644-c6e2-4748-abfc-ae0d2b00e358" data-name="&amp;lt;Layer&amp;gt;" xmlns="http://www.w3.org/2000/svg" viewBox="0 0 451.11 451.11">
  <defs>
    <style>
      .uuid-992a02cc-308b-4d35-9f6b-785cc66b73b7, .uuid-361cd4a1-79da-4012-b325-cda2ad6a1378, .uuid-666a0fa2-2930-486c-9636-b9c07b0aa4c4, .uuid-695674e4-2f66-4270-8ae0-20c3532eb63a {
        fill: none;
        stroke: #000;
        stroke-linecap: round;
      }

      .uuid-992a02cc-308b-4d35-9f6b-785cc66b73b7, .uuid-666a0fa2-2930-486c-9636-b9c07b0aa4c4, .uuid-695674e4-2f66-4270-8ae0-20c3532eb63a {
        stroke-linejoin: round;
      }

      .uuid-992a02cc-308b-4d35-9f6b-785cc66b73b7, .uuid-695674e4-2f66-4270-8ae0-20c3532eb63a {
        stroke-width: 4.117px;
      }

      .uuid-361cd4a1-79da-4012-b325-cda2ad6a1378 {
        stroke-miterlimit: 10;
        stroke-width: 1.159px;
      }

      .uuid-666a0fa2-2930-486c-9636-b9c07b0aa4c4 {
        stroke-width: 4.113px;
      }

      .uuid-666a0fa2-2930-486c-9636-b9c07b0aa4c4, .uuid-695674e4-2f66-4270-8ae0-20c3532eb63a {
        fill-rule: evenodd;
      }
    </style>
  </defs>
  <path class="uuid-695674e4-2f66-4270-8ae0-20c3532eb63a" d="M346.447,123.442l-20.35-11.722c-.854-.341-2.539-.221-3.54.074-.928.217-1.733.632-2.543,1.099l-40.429,23.328"/>
  <path class="uuid-666a0fa2-2930-486c-9636-b9c07b0aa4c4" d="M340.292,252.717c5.618-3.249,10.262-11.186,10.262-17.757v-104.406c0-1.7-.361-3.798-1.763-5.559-2.866-2.422-5.674-2.097-8.451-.379-20.273,11.678-40.525,23.404-60.802,35.078"/>
  <path class="uuid-666a0fa2-2930-486c-9636-b9c07b0aa4c4" d="M125.763,319.531l-16.624-9.53c-2.785-1.526-6.461-2.892-7.877-6.266-.463-1.233-.633-2.623-.706-3.919l.073-110.514"/>
  <path class="uuid-666a0fa2-2930-486c-9636-b9c07b0aa4c4" d="M279.49,223.598c.048-27.235.048-84.371.048-111.588,0-6.887-4.883-9.721-10.799-6.277-44.947,25.917-89.894,51.862-134.841,77.779-9.58,5.519-10.593,14.618-10.795,24.501l-.073,104.188"/>
  <line class="uuid-992a02cc-308b-4d35-9f6b-785cc66b73b7" x1="149.215" y1="268.303" x2="216.22" y2="229.659"/>
  <line class="uuid-992a02cc-308b-4d35-9f6b-785cc66b73b7" x1="149.215" y1="238.964" x2="253.352" y2="178.92"/>
  <line class="uuid-992a02cc-308b-4d35-9f6b-785cc66b73b7" x1="149.215" y1="211.339" x2="240.331" y2="158.816"/>
  <path class="uuid-695674e4-2f66-4270-8ae0-20c3532eb63a" d="M131.87,359.787c4.35-7.451,8.651-14.88,12.948-22.353,27.335-47.755,81.054-71.743,123.51-94.902,3.076-1.637,5.692-4.374,7.888-8.06,2.15-3.714,3.275-7.356,3.275-10.873"/>
  <path class="uuid-695674e4-2f66-4270-8ae0-20c3532eb63a" d="M123.029,312.812c0,6.887,4.812,9.695,10.798,6.251"/>
  <line class="uuid-992a02cc-308b-4d35-9f6b-785cc66b73b7" x1="227.387" y1="278.244" x2="325.755" y2="221.498"/>
  <line class="uuid-992a02cc-308b-4d35-9f6b-785cc66b73b7" x1="318.33" y1="198.07" x2="279.953" y2="220.229"/>
  <line class="uuid-992a02cc-308b-4d35-9f6b-785cc66b73b7" x1="325.755" y1="167.683" x2="280.005" y2="194.115"/>
  <line class="uuid-992a02cc-308b-4d35-9f6b-785cc66b73b7" x1="104.452" y1="178.055" x2="126.134" y2="190.569"/>
  <line class="uuid-992a02cc-308b-4d35-9f6b-785cc66b73b7" x1="134.118" y1="320.163" x2="134.361" y2="318.747"/>
  <path class="uuid-695674e4-2f66-4270-8ae0-20c3532eb63a" d="M242.089,95.229c3.054-1.807,6.965-4.761,10.677-3.712,1.317.391,20.373,11.605,23.232,13.312"/>
  <line class="uuid-992a02cc-308b-4d35-9f6b-785cc66b73b7" x1="115.651" y1="168.124" x2="242.089" y2="95.229"/>
  <path class="uuid-695674e4-2f66-4270-8ae0-20c3532eb63a" d="M104.268,177.919c3.028-5.154,6.107-6.718,11.383-9.795"/>
  <path class="uuid-695674e4-2f66-4270-8ae0-20c3532eb63a" d="M100.628,189.302c.06-4.15,1.476-7.744,3.54-11.261"/>
  <path class="uuid-695674e4-2f66-4270-8ae0-20c3532eb63a" d="M109.448,346.865c-.295-11.038-.475-25.241,1.56-35.838"/>
  <line class="uuid-992a02cc-308b-4d35-9f6b-785cc66b73b7" x1="131.87" y1="359.813" x2="109.448" y2="346.865"/>
  <path class="uuid-695674e4-2f66-4270-8ae0-20c3532eb63a" d="M134.412,318.747c-2.88,12.337-2.73,28.446-2.543,41.066"/>
  <path class="uuid-666a0fa2-2930-486c-9636-b9c07b0aa4c4" d="M202.639,279.613v41.819c0,5.409,5.88,8.872,10.579,6.156l79.099-45.653c24.622-12.728,34.196-1.638,49.807,7.134.196-12.948.465-25.016-2.321-36.058"/>
  <line class="uuid-992a02cc-308b-4d35-9f6b-785cc66b73b7" x1="184.341" y1="314.692" x2="204.667" y2="326.418"/>
  <path class="uuid-695674e4-2f66-4270-8ae0-20c3532eb63a" d="M182.314,309.684c0,1.929.71,3.665,2.027,5.008"/>
  <line class="uuid-992a02cc-308b-4d35-9f6b-785cc66b73b7" x1="182.314" y1="294.54" x2="182.314" y2="309.684"/>
  <line class="uuid-992a02cc-308b-4d35-9f6b-785cc66b73b7" x1="194.577" y1="185.249" x2="191.966" y2="186.761"/>
  <path class="uuid-695674e4-2f66-4270-8ae0-20c3532eb63a" d="M196.605,184.074c-.511.343-1.269.758-2.027,1.175"/>
  <line class="uuid-992a02cc-308b-4d35-9f6b-785cc66b73b7" x1="240.405" y1="158.816" x2="196.605" y2="184.074"/>
  <line class="uuid-361cd4a1-79da-4012-b325-cda2ad6a1378" x1="201.027" y1="308.757" x2="189.18" y2="315.572"/>
  <line class="uuid-361cd4a1-79da-4012-b325-cda2ad6a1378" x1="201.197" y1="295.589" x2="183.83" y2="305.63"/>
  <line class="uuid-361cd4a1-79da-4012-b325-cda2ad6a1378" x1="121.17" y1="308.485" x2="115.821" y2="311.565"/>
  <line class="uuid-361cd4a1-79da-4012-b325-cda2ad6a1378" x1="121.465" y1="295.272" x2="104.168" y2="305.288"/>
  <line class="uuid-361cd4a1-79da-4012-b325-cda2ad6a1378" x1="121.465" y1="282.251" x2="102.656" y2="293.098"/>
  <line class="uuid-361cd4a1-79da-4012-b325-cda2ad6a1378" x1="121.391" y1="269.229" x2="102.583" y2="280.103"/>
  <line class="uuid-361cd4a1-79da-4012-b325-cda2ad6a1378" x1="121.343" y1="256.235" x2="102.535" y2="267.107"/>
  <line class="uuid-361cd4a1-79da-4012-b325-cda2ad6a1378" x1="121.343" y1="243.191" x2="102.457" y2="254.134"/>
  <line class="uuid-361cd4a1-79da-4012-b325-cda2ad6a1378" x1="121.391" y1="230.148" x2="102.361" y2="241.138"/>
  <line class="uuid-361cd4a1-79da-4012-b325-cda2ad6a1378" x1="121.513" y1="217.028" x2="102.288" y2="228.142"/>
  <line class="uuid-361cd4a1-79da-4012-b325-cda2ad6a1378" x1="121.708" y1="203.91" x2="102.24" y2="215.147"/>
  <line class="uuid-361cd4a1-79da-4012-b325-cda2ad6a1378" x1="122.782" y1="190.205" x2="102.118" y2="202.177"/>
  <line class="uuid-361cd4a1-79da-4012-b325-cda2ad6a1378" x1="111.129" y1="183.927" x2="102.778" y2="188.74"/>
  <line class="uuid-361cd4a1-79da-4012-b325-cda2ad6a1378" x1="130.163" y1="344.421" x2="119.437" y2="350.626"/>
  <line class="uuid-361cd4a1-79da-4012-b325-cda2ad6a1378" x1="131.212" y1="330.79" x2="110.839" y2="342.564"/>
  <line class="uuid-361cd4a1-79da-4012-b325-cda2ad6a1378" x1="125.398" y1="321.117" x2="111.129" y2="329.348"/>
  <line class="uuid-361cd4a1-79da-4012-b325-cda2ad6a1378" x1="113.672" y1="314.862" x2="112.524" y2="315.498"/>
  <line class="uuid-361cd4a1-79da-4012-b325-cda2ad6a1378" x1="267.178" y1="101.826" x2="265.03" y2="105.565"/>
  <line class="uuid-361cd4a1-79da-4012-b325-cda2ad6a1378" x1="257.748" y1="95.597" x2="245.144" y2="117.433"/>
  <line class="uuid-361cd4a1-79da-4012-b325-cda2ad6a1378" x1="244.927" y1="95.206" x2="225.356" y2="129.113"/>
  <line class="uuid-361cd4a1-79da-4012-b325-cda2ad6a1378" x1="225.356" y1="106.491" x2="205.788" y2="140.422"/>
  <line class="uuid-361cd4a1-79da-4012-b325-cda2ad6a1378" x1="205.84" y1="117.754" x2="186.273" y2="151.707"/>
  <line class="uuid-361cd4a1-79da-4012-b325-cda2ad6a1378" x1="186.273" y1="129.039" x2="166.707" y2="162.996"/>
  <line class="uuid-361cd4a1-79da-4012-b325-cda2ad6a1378" x1="166.755" y1="140.276" x2="147.187" y2="174.255"/>
  <line class="uuid-361cd4a1-79da-4012-b325-cda2ad6a1378" x1="147.309" y1="151.416" x2="125.472" y2="189.204"/>
  <line class="uuid-361cd4a1-79da-4012-b325-cda2ad6a1378" x1="127.447" y1="163.261" x2="115.946" y2="183.147"/>
  <line class="uuid-361cd4a1-79da-4012-b325-cda2ad6a1378" x1="335.869" y1="119.34" x2="330.983" y2="127.84"/>
  <line class="uuid-361cd4a1-79da-4012-b325-cda2ad6a1378" x1="326.465" y1="113.111" x2="311.078" y2="139.712"/>
  <line class="uuid-361cd4a1-79da-4012-b325-cda2ad6a1378" x1="308.804" y1="121.099" x2="291.507" y2="151.097"/>
  <line class="uuid-361cd4a1-79da-4012-b325-cda2ad6a1378" x1="288.895" y1="132.946" x2="281.397" y2="145.941"/>
</svg>