<?xml version="1.0" encoding="UTF-8"?>
<svg id="uuid-195c53d1-8414-4960-a555-7a23ca5fbf27" data-name="&amp;lt;Layer&amp;gt;" xmlns="http://www.w3.org/2000/svg" viewBox="0 0 451.11 451.11">
  <defs>
    <style>
      .uuid-2a933074-617c-46bf-8a93-0a0b3d727af3, .uuid-12bd478c-d83c-458e-a43a-5917891cb93f, .uuid-853a21ab-4bd3-4c29-a87a-8cf5e6eb2b63 {
        fill: none;
        stroke: #000;
        stroke-linecap: round;
      }

      .uuid-2a933074-617c-46bf-8a93-0a0b3d727af3, .uuid-853a21ab-4bd3-4c29-a87a-8cf5e6eb2b63 {
        stroke-linejoin: round;
        stroke-width: 3.871px;
      }

      .uuid-12bd478c-d83c-458e-a43a-5917891cb93f {
        stroke-miterlimit: 10;
        stroke-width: 1.093px;
      }

      .uuid-853a21ab-4bd3-4c29-a87a-8cf5e6eb2b63 {
        fill-rule: evenodd;
      }
    </style>
  </defs>
  <polyline class="uuid-853a21ab-4bd3-4c29-a87a-8cf5e6eb2b63" points="185.112 306.838 186.952 310.329 187.183 310.377 209.922 349.15 220.717 367.227"/>
  <path class="uuid-853a21ab-4bd3-4c29-a87a-8cf5e6eb2b63" d="M220.717,367.227c1.151,1.817,2.756,2.782,4.823,2.782s3.908-.964,4.823-2.782"/>
  <polyline class="uuid-853a21ab-4bd3-4c29-a87a-8cf5e6eb2b63" points="230.364 367.227 241.392 348.554 241.624 348.554 264.362 309.896"/>
  <polyline class="uuid-853a21ab-4bd3-4c29-a87a-8cf5e6eb2b63" points="264.59 309.781 243.459 320.874 228.757 317.541"/>
  <path class="uuid-853a21ab-4bd3-4c29-a87a-8cf5e6eb2b63" d="M183.276,138.695c.227,2.848.919,4.433,2.068,6.935,2.756,4.639,5.971,7.212,10.567,9.945,4.823,2.619,8.955,4.043,14.471,5.353,6.199,1.31,11.714,1.748,18.146,1.586,9.187-.504,17.456-2.182,25.726-6.383,6.891-3.885,12.863-8.959,13.555-17.253"/>
  <polyline class="uuid-853a21ab-4bd3-4c29-a87a-8cf5e6eb2b63" points="264.59 309.781 243.459 320.874 243.459 160.262"/>
  <path class="uuid-853a21ab-4bd3-4c29-a87a-8cf5e6eb2b63" d="M243.459,160.262c2.756-.71,5.056-1.585,7.579-2.619,4.825-2.296,8.499-4.408,12.175-8.359,2.756-3.379,4.135-6.064,4.596-10.406"/>
  <path class="uuid-853a21ab-4bd3-4c29-a87a-8cf5e6eb2b63" d="M183.044,130.515c.459,5.677,2.988,9.398,7.583,13.323,4.364,3.54,8.268,5.446,13.78,7.374,6.203,1.953,11.487,2.826,17.919,3.216,6.432.209,11.715-.206,18.146-1.468,6.892-1.586,12.404-3.606,18.147-7.602,2.76-2.072,4.595-3.702,6.432-6.48,1.839-2.918,2.76-4.823,2.987-8.201"/>
  <path class="uuid-853a21ab-4bd3-4c29-a87a-8cf5e6eb2b63" d="M183.044,130.563c.232,1.905.692,3.399,1.151,4.797.228.714.688,1.428,1.149,2.138,0,.324.228.714.459,1.034.229.393.46.758.688,1.147"/>
  <path class="uuid-853a21ab-4bd3-4c29-a87a-8cf5e6eb2b63" d="M186.724,139.728c.459.71,1.147,1.424,1.835,2.09,2.068,2.23,4.364,3.975,6.892,5.467,3.215,1.907,6.891,3.265,10.794,4.526"/>
  <path class="uuid-853a21ab-4bd3-4c29-a87a-8cf5e6eb2b63" d="M208.313,152.363c.229.044.461.088.689.158,2.756.644,5.515,1.151,8.039,1.472,4.368.482,8.499.596,13.095.321h.46c3.216-.276,5.972-.597,8.728-1.149.92-.161,1.839-.389,2.527-.596.92-.162,1.608-.389,2.296-.596.459-.118.92-.21,1.147-.324,1.608-.437,2.988-.941,4.596-1.538.92-.367,1.835-.827,2.984-1.31.92-.482,1.839-.985,2.76-1.516,2.296-1.38,4.591-3.009,6.432-4.915.688-.389,1.147-.871,1.376-1.424.692-.507.92-1.033,1.38-1.655.459-.758,1.147-1.516,1.608-2.388v-.162c.459-1.147.919-2.409,1.147-3.767.232-.229.232-.461.232-.666,0-.549.227-1.105.227-1.63"/>
  <path class="uuid-853a21ab-4bd3-4c29-a87a-8cf5e6eb2b63" d="M205.786,123.624c-18.834-6.269-25.266-20.259-14.471-31.124,11.028-10.91,35.146-14.634,53.98-8.338,18.839,6.271,25.499,20.237,14.471,31.103-11.023,10.934-35.145,14.703-53.98,8.359Z"/>
  <polyline class="uuid-853a21ab-4bd3-4c29-a87a-8cf5e6eb2b63" points="220.717 367.227 209.922 349.15 187.183 310.377 186.952 310.329"/>
  <polyline class="uuid-853a21ab-4bd3-4c29-a87a-8cf5e6eb2b63" points="221.868 348.989 209.462 323.104 187.183 310.377"/>
  <polyline class="uuid-853a21ab-4bd3-4c29-a87a-8cf5e6eb2b63" points="220.717 367.227 209.922 349.15 218.19 352.09 228.3 343.157 241.392 348.554"/>
  <line class="uuid-2a933074-617c-46bf-8a93-0a0b3d727af3" x1="267.81" y1="138.878" x2="267.81" y2="300.891"/>
  <path class="uuid-853a21ab-4bd3-4c29-a87a-8cf5e6eb2b63" d="M267.81,300.891c-.232,3.327-.461,7.418-3.22,8.89"/>
  <path class="uuid-853a21ab-4bd3-4c29-a87a-8cf5e6eb2b63" d="M228.757,317.541c-1.149.485-17.919,6.225-19.295,5.515"/>
  <line class="uuid-2a933074-617c-46bf-8a93-0a0b3d727af3" x1="209.462" y1="323.056" x2="186.952" y2="310.329"/>
  <path class="uuid-853a21ab-4bd3-4c29-a87a-8cf5e6eb2b63" d="M186.952,310.329c-2.069-2.778-3.216-6.016-3.676-9.599"/>
  <line class="uuid-2a933074-617c-46bf-8a93-0a0b3d727af3" x1="183.276" y1="300.731" x2="183.276" y2="138.695"/>
  <line class="uuid-2a933074-617c-46bf-8a93-0a0b3d727af3" x1="268.037" y1="130.677" x2="268.037" y2="138.695"/>
  <line class="uuid-2a933074-617c-46bf-8a93-0a0b3d727af3" x1="183.044" y1="138.58" x2="183.044" y2="130.515"/>
  <path class="uuid-853a21ab-4bd3-4c29-a87a-8cf5e6eb2b63" d="M186.491,100.859c-2.296,3.263-3.447,6.663-3.447,9.993"/>
  <line class="uuid-2a933074-617c-46bf-8a93-0a0b3d727af3" x1="183.044" y1="110.853" x2="183.044" y2="130.563"/>
  <line class="uuid-2a933074-617c-46bf-8a93-0a0b3d727af3" x1="186.491" y1="139.68" x2="186.724" y2="139.728"/>
  <line class="uuid-2a933074-617c-46bf-8a93-0a0b3d727af3" x1="206.246" y1="151.811" x2="208.313" y2="152.363"/>
  <line class="uuid-2a933074-617c-46bf-8a93-0a0b3d727af3" x1="268.037" y1="130.677" x2="268.037" y2="111.015"/>
  <path class="uuid-853a21ab-4bd3-4c29-a87a-8cf5e6eb2b63" d="M268.037,111.015c.228-3.449-.919-6.822-3.215-9.993"/>
  <line class="uuid-2a933074-617c-46bf-8a93-0a0b3d727af3" x1="264.822" y1="101.022" x2="264.822" y2="100.977"/>
  <line class="uuid-2a933074-617c-46bf-8a93-0a0b3d727af3" x1="243.459" y1="320.874" x2="228.757" y2="317.541"/>
  <line class="uuid-2a933074-617c-46bf-8a93-0a0b3d727af3" x1="209.462" y1="323.056" x2="209.462" y2="160.701"/>
  <path class="uuid-853a21ab-4bd3-4c29-a87a-8cf5e6eb2b63" d="M209.462,160.701c11.027,2.686,23.202,2.409,33.997-.439"/>
  <line class="uuid-2a933074-617c-46bf-8a93-0a0b3d727af3" x1="243.459" y1="160.262" x2="243.459" y2="320.874"/>
  <line class="uuid-2a933074-617c-46bf-8a93-0a0b3d727af3" x1="243.459" y1="320.874" x2="234.501" y2="345.658"/>
  <line class="uuid-2a933074-617c-46bf-8a93-0a0b3d727af3" x1="241.392" y1="348.554" x2="230.364" y2="367.227"/>
  <line class="uuid-12bd478c-d83c-458e-a43a-5917891cb93f" x1="217.041" y1="124.657" x2="187.871" y2="107.843"/>
  <line class="uuid-12bd478c-d83c-458e-a43a-5917891cb93f" x1="238.404" y1="124.771" x2="188.559" y2="95.944"/>
  <line class="uuid-12bd478c-d83c-458e-a43a-5917891cb93f" x1="252.187" y1="120.525" x2="196.599" y2="88.411"/>
  <line class="uuid-12bd478c-d83c-458e-a43a-5917891cb93f" x1="261.378" y1="113.472" x2="209.462" y2="83.61"/>
  <line class="uuid-12bd478c-d83c-458e-a43a-5917891cb93f" x1="264.134" y1="102.883" x2="228.757" y2="82.507"/>
  <line class="uuid-12bd478c-d83c-458e-a43a-5917891cb93f" x1="250.119" y1="330.705" x2="245.068" y2="321.909"/>
  <line class="uuid-12bd478c-d83c-458e-a43a-5917891cb93f" x1="225.773" y1="317.541" x2="210.838" y2="291.7"/>
  <line class="uuid-12bd478c-d83c-458e-a43a-5917891cb93f" x1="242.539" y1="304.06" x2="210.383" y2="248.354"/>
  <line class="uuid-12bd478c-d83c-458e-a43a-5917891cb93f" x1="242.539" y1="261.678" x2="210.383" y2="205.975"/>
  <line class="uuid-12bd478c-d83c-458e-a43a-5917891cb93f" x1="242.539" y1="219.067" x2="210.383" y2="163.272"/>
  <line class="uuid-12bd478c-d83c-458e-a43a-5917891cb93f" x1="241.624" y1="175.171" x2="234.96" y2="163.479"/>
  <line class="uuid-12bd478c-d83c-458e-a43a-5917891cb93f" x1="252.875" y1="314.212" x2="245.068" y2="300.66"/>
  <line class="uuid-12bd478c-d83c-458e-a43a-5917891cb93f" x1="262.754" y1="309.848" x2="244.835" y2="278.768"/>
  <line class="uuid-12bd478c-d83c-458e-a43a-5917891cb93f" x1="266.43" y1="295.101" x2="244.607" y2="257.314"/>
  <line class="uuid-12bd478c-d83c-458e-a43a-5917891cb93f" x1="266.43" y1="273.966" x2="244.607" y2="236.113"/>
  <line class="uuid-12bd478c-d83c-458e-a43a-5917891cb93f" x1="266.43" y1="252.766" x2="244.607" y2="214.934"/>
  <line class="uuid-12bd478c-d83c-458e-a43a-5917891cb93f" x1="266.43" y1="231.587" x2="244.607" y2="193.686"/>
  <line class="uuid-12bd478c-d83c-458e-a43a-5917891cb93f" x1="266.43" y1="210.247" x2="244.607" y2="172.345"/>
  <line class="uuid-12bd478c-d83c-458e-a43a-5917891cb93f" x1="266.43" y1="188.836" x2="249.203" y2="159.185"/>
  <line class="uuid-12bd478c-d83c-458e-a43a-5917891cb93f" x1="265.969" y1="166.996" x2="259.078" y2="154.821"/>
  <line class="uuid-12bd478c-d83c-458e-a43a-5917891cb93f" x1="190.627" y1="141.428" x2="185.112" y2="131.824"/>
  <line class="uuid-12bd478c-d83c-458e-a43a-5917891cb93f" x1="208.542" y1="151.58" x2="184.195" y2="109.152"/>
  <line class="uuid-12bd478c-d83c-458e-a43a-5917891cb93f" x1="221.868" y1="153.327" x2="205.558" y2="124.819"/>
  <line class="uuid-12bd478c-d83c-458e-a43a-5917891cb93f" x1="234.04" y1="152.89" x2="219.341" y2="127.553"/>
  <line class="uuid-12bd478c-d83c-458e-a43a-5917891cb93f" x1="244.835" y1="150.664" x2="231.513" y2="127.553"/>
  <line class="uuid-12bd478c-d83c-458e-a43a-5917891cb93f" x1="254.714" y1="146.344" x2="242.771" y2="125.603"/>
  <line class="uuid-12bd478c-d83c-458e-a43a-5917891cb93f" x1="262.985" y1="139.453" x2="252.875" y2="121.835"/>
  <line class="uuid-12bd478c-d83c-458e-a43a-5917891cb93f" x1="266.198" y1="123.855" x2="261.605" y2="115.768"/>
  <line class="uuid-12bd478c-d83c-458e-a43a-5917891cb93f" x1="226.232" y1="368.423" x2="217.502" y2="353.47"/>
  <line class="uuid-12bd478c-d83c-458e-a43a-5917891cb93f" x1="233.121" y1="359.301" x2="226.001" y2="347.016"/>
</svg>