<?xml version="1.0" encoding="UTF-8"?>
<svg id="uuid-158b8dfa-560e-473d-b896-599a3d463f02" data-name="&amp;lt;Layer&amp;gt;" xmlns="http://www.w3.org/2000/svg" viewBox="0 0 451.11 451.11">
  <defs>
    <style>
      .uuid-a778d09d-dcae-4825-9f95-e5bd934f4876, .uuid-20a69316-555a-4eb5-b24c-273975a566c9, .uuid-43d9c8e2-8c8d-4bfd-adb5-964ebc0016df {
        fill: none;
        stroke: #000;
        stroke-linecap: round;
      }

      .uuid-a778d09d-dcae-4825-9f95-e5bd934f4876, .uuid-43d9c8e2-8c8d-4bfd-adb5-964ebc0016df {
        stroke-linejoin: round;
        stroke-width: 4.117px;
      }

      .uuid-20a69316-555a-4eb5-b24c-273975a566c9 {
        stroke-miterlimit: 10;
        stroke-width: 1.163px;
      }

      .uuid-43d9c8e2-8c8d-4bfd-adb5-964ebc0016df {
        fill-rule: evenodd;
      }
    </style>
  </defs>
  <path class="uuid-43d9c8e2-8c8d-4bfd-adb5-964ebc0016df" d="M336.946,258.966q-.243-.051-.489-.051c-.243-.122-.732-.192-1.219-.048-.247,0-.489.048-.736.173-.485.096-.732.269-1.221.511"/>
  <path class="uuid-43d9c8e2-8c8d-4bfd-adb5-964ebc0016df" d="M338.657,262.704c0-1.737-.489-2.98-1.464-3.542-.979-.563-2.444-.489-3.912.389"/>
  <path class="uuid-43d9c8e2-8c8d-4bfd-adb5-964ebc0016df" d="M226.042,362.541c0,1.759.489,2.98,1.711,3.542.979.585,2.2.511,3.664-.367"/>
  <polygon class="uuid-43d9c8e2-8c8d-4bfd-adb5-964ebc0016df" points="322.78 296.974 332.548 291.308 332.548 279.997 322.78 285.642 322.78 296.974"/>
  <polygon class="uuid-43d9c8e2-8c8d-4bfd-adb5-964ebc0016df" points="306.41 306.379 316.183 300.738 316.183 289.403 306.41 295.068 306.41 306.379"/>
  <path class="uuid-43d9c8e2-8c8d-4bfd-adb5-964ebc0016df" d="M337.193,205.762c-.247-.099-.489-.173-.736-.269-.976-.173-1.955.048-3.176.681"/>
  <polyline class="uuid-43d9c8e2-8c8d-4bfd-adb5-964ebc0016df" points="333.28 206.175 289.312 231.559 231.66 264.876"/>
  <polyline class="uuid-43d9c8e2-8c8d-4bfd-adb5-964ebc0016df" points="227.753 269.029 158.864 229.186 114.164 203.463"/>
  <path class="uuid-43d9c8e2-8c8d-4bfd-adb5-964ebc0016df" d="M338.657,209.354c0-1.763-.489-2.984-1.464-3.569-.979-.558-2.444-.489-3.912.391"/>
  <path class="uuid-43d9c8e2-8c8d-4bfd-adb5-964ebc0016df" d="M226.042,309.163c0,1.737.489,2.98,1.711,3.569.979.563,2.2.485,3.664-.393"/>
  <polygon class="uuid-43d9c8e2-8c8d-4bfd-adb5-964ebc0016df" points="322.78 243.624 332.548 237.958 332.548 226.621 322.78 232.291 322.78 243.624"/>
  <polygon class="uuid-43d9c8e2-8c8d-4bfd-adb5-964ebc0016df" points="306.41 253.028 316.183 247.362 316.183 236.029 306.41 241.696 306.41 253.028"/>
  <path class="uuid-43d9c8e2-8c8d-4bfd-adb5-964ebc0016df" d="M338.657,154.903c0-1.737-.489-2.98-1.464-3.544-.979-.584-2.444-.515-3.912.369"/>
  <path class="uuid-43d9c8e2-8c8d-4bfd-adb5-964ebc0016df" d="M226.042,254.716c0,1.755.489,3.002,1.711,3.566.979.585,2.2.485,3.664-.389"/>
  <polygon class="uuid-43d9c8e2-8c8d-4bfd-adb5-964ebc0016df" points="322.78 189.176 332.548 183.507 332.548 172.17 322.78 177.866 322.78 189.176"/>
  <polygon class="uuid-43d9c8e2-8c8d-4bfd-adb5-964ebc0016df" points="306.41 198.58 316.183 192.911 316.183 181.578 306.41 187.245 306.41 198.58"/>
  <line class="uuid-a778d09d-dcae-4825-9f95-e5bd934f4876" x1="336.946" y1="258.966" x2="330.352" y2="255.25"/>
  <line class="uuid-a778d09d-dcae-4825-9f95-e5bd934f4876" x1="337.193" y1="259.136" x2="336.946" y2="258.966"/>
  <line class="uuid-a778d09d-dcae-4825-9f95-e5bd934f4876" x1="333.28" y1="259.551" x2="231.66" y2="318.252"/>
  <path class="uuid-43d9c8e2-8c8d-4bfd-adb5-964ebc0016df" d="M231.66,318.252c-1.707.879-2.928,2.395-3.907,4.128"/>
  <line class="uuid-a778d09d-dcae-4825-9f95-e5bd934f4876" x1="227.753" y1="322.38" x2="114.164" y2="256.814"/>
  <path class="uuid-43d9c8e2-8c8d-4bfd-adb5-964ebc0016df" d="M114.164,256.814c.975-1.781,2.196-2.954,3.907-4.128"/>
  <line class="uuid-a778d09d-dcae-4825-9f95-e5bd934f4876" x1="118.071" y1="252.686" x2="120.999" y2="251.074"/>
  <path class="uuid-43d9c8e2-8c8d-4bfd-adb5-964ebc0016df" d="M227.753,322.38c-1.221,1.712-1.711,3.666-1.711,5.402"/>
  <line class="uuid-a778d09d-dcae-4825-9f95-e5bd934f4876" x1="226.042" y1="327.782" x2="226.042" y2="362.541"/>
  <line class="uuid-a778d09d-dcae-4825-9f95-e5bd934f4876" x1="231.417" y1="365.716" x2="333.28" y2="306.989"/>
  <path class="uuid-43d9c8e2-8c8d-4bfd-adb5-964ebc0016df" d="M333.28,306.989c2.933-1.755,5.376-6.03,5.376-9.526"/>
  <line class="uuid-a778d09d-dcae-4825-9f95-e5bd934f4876" x1="338.657" y1="297.463" x2="338.657" y2="262.704"/>
  <path class="uuid-43d9c8e2-8c8d-4bfd-adb5-964ebc0016df" d="M114.164,256.814c-.979,1.859-1.468,3.275-1.711,5.401"/>
  <line class="uuid-a778d09d-dcae-4825-9f95-e5bd934f4876" x1="112.453" y1="262.215" x2="112.453" y2="296.974"/>
  <path class="uuid-43d9c8e2-8c8d-4bfd-adb5-964ebc0016df" d="M112.453,296.974c.243,1.542.489,2.639,1.711,3.569"/>
  <line class="uuid-a778d09d-dcae-4825-9f95-e5bd934f4876" x1="114.164" y1="300.543" x2="227.753" y2="366.083"/>
  <line class="uuid-a778d09d-dcae-4825-9f95-e5bd934f4876" x1="329.373" y1="201.366" x2="337.193" y2="205.762"/>
  <path class="uuid-43d9c8e2-8c8d-4bfd-adb5-964ebc0016df" d="M231.66,264.876c-1.707.879-2.928,2.395-3.907,4.154"/>
  <path class="uuid-43d9c8e2-8c8d-4bfd-adb5-964ebc0016df" d="M114.164,203.463c.975-1.807,2.196-2.978,3.907-4.129"/>
  <line class="uuid-a778d09d-dcae-4825-9f95-e5bd934f4876" x1="118.071" y1="199.334" x2="121.735" y2="197.112"/>
  <line class="uuid-a778d09d-dcae-4825-9f95-e5bd934f4876" x1="227.753" y1="268.981" x2="227.753" y2="269.003"/>
  <path class="uuid-43d9c8e2-8c8d-4bfd-adb5-964ebc0016df" d="M227.753,269.003c-1.221,1.711-1.711,3.666-1.711,5.427"/>
  <line class="uuid-a778d09d-dcae-4825-9f95-e5bd934f4876" x1="226.042" y1="274.43" x2="226.042" y2="309.163"/>
  <line class="uuid-a778d09d-dcae-4825-9f95-e5bd934f4876" x1="231.417" y1="312.34" x2="333.28" y2="253.617"/>
  <path class="uuid-43d9c8e2-8c8d-4bfd-adb5-964ebc0016df" d="M333.28,253.617c1.468-.88,2.933-2.396,3.912-4.081"/>
  <line class="uuid-a778d09d-dcae-4825-9f95-e5bd934f4876" x1="337.193" y1="249.536" x2="337.193" y2="249.51"/>
  <path class="uuid-43d9c8e2-8c8d-4bfd-adb5-964ebc0016df" d="M337.193,249.51c.975-1.733,1.464-3.664,1.464-5.419"/>
  <line class="uuid-a778d09d-dcae-4825-9f95-e5bd934f4876" x1="338.657" y1="244.091" x2="338.657" y2="209.354"/>
  <path class="uuid-43d9c8e2-8c8d-4bfd-adb5-964ebc0016df" d="M114.164,203.441c-.979,1.853-1.468,3.297-1.711,5.423"/>
  <line class="uuid-a778d09d-dcae-4825-9f95-e5bd934f4876" x1="112.453" y1="208.864" x2="112.453" y2="243.601"/>
  <path class="uuid-43d9c8e2-8c8d-4bfd-adb5-964ebc0016df" d="M112.453,243.601c.243,1.538.489,2.66,1.711,3.566"/>
  <line class="uuid-a778d09d-dcae-4825-9f95-e5bd934f4876" x1="114.164" y1="247.167" x2="227.753" y2="312.733"/>
  <path class="uuid-43d9c8e2-8c8d-4bfd-adb5-964ebc0016df" d="M227.753,312.733c-1.464-.905-1.711-2.053-1.711-3.569"/>
  <line class="uuid-a778d09d-dcae-4825-9f95-e5bd934f4876" x1="337.193" y1="151.359" x2="223.599" y2="85.793"/>
  <path class="uuid-43d9c8e2-8c8d-4bfd-adb5-964ebc0016df" d="M223.599,85.793c-1.465-.68-2.444-.317-3.908.393"/>
  <line class="uuid-a778d09d-dcae-4825-9f95-e5bd934f4876" x1="219.691" y1="86.187" x2="118.071" y2="144.883"/>
  <path class="uuid-43d9c8e2-8c8d-4bfd-adb5-964ebc0016df" d="M118.071,144.883c-1.953,1.153-2.932,2.322-3.907,4.107"/>
  <line class="uuid-a778d09d-dcae-4825-9f95-e5bd934f4876" x1="114.164" y1="148.99" x2="227.753" y2="214.552"/>
  <path class="uuid-43d9c8e2-8c8d-4bfd-adb5-964ebc0016df" d="M227.753,214.552c.979-1.806,1.953-2.954,3.664-4.102"/>
  <line class="uuid-a778d09d-dcae-4825-9f95-e5bd934f4876" x1="231.417" y1="210.451" x2="333.28" y2="151.728"/>
  <path class="uuid-43d9c8e2-8c8d-4bfd-adb5-964ebc0016df" d="M227.753,214.552c-1.221,1.737-1.711,3.666-1.711,5.427"/>
  <line class="uuid-a778d09d-dcae-4825-9f95-e5bd934f4876" x1="226.042" y1="219.979" x2="226.042" y2="254.716"/>
  <line class="uuid-a778d09d-dcae-4825-9f95-e5bd934f4876" x1="231.417" y1="257.892" x2="333.28" y2="199.192"/>
  <path class="uuid-43d9c8e2-8c8d-4bfd-adb5-964ebc0016df" d="M333.28,199.192c1.468-.88,2.933-2.396,3.912-4.107"/>
  <path class="uuid-43d9c8e2-8c8d-4bfd-adb5-964ebc0016df" d="M337.193,195.085c.975-1.733,1.464-3.664,1.464-5.423"/>
  <line class="uuid-a778d09d-dcae-4825-9f95-e5bd934f4876" x1="338.657" y1="189.662" x2="338.657" y2="154.903"/>
  <path class="uuid-43d9c8e2-8c8d-4bfd-adb5-964ebc0016df" d="M114.164,149.016c-.979,1.854-1.468,3.271-1.711,5.423"/>
  <line class="uuid-a778d09d-dcae-4825-9f95-e5bd934f4876" x1="112.453" y1="154.439" x2="112.453" y2="189.176"/>
  <path class="uuid-43d9c8e2-8c8d-4bfd-adb5-964ebc0016df" d="M112.453,189.176c.243,1.512.489,2.637,1.711,3.566"/>
  <line class="uuid-a778d09d-dcae-4825-9f95-e5bd934f4876" x1="114.164" y1="192.742" x2="227.753" y2="258.282"/>
  <path class="uuid-43d9c8e2-8c8d-4bfd-adb5-964ebc0016df" d="M227.753,258.282c-1.464-.905-1.711-2.028-1.711-3.566"/>
  <line class="uuid-a778d09d-dcae-4825-9f95-e5bd934f4876" x1="236.058" y1="231.607" x2="297.127" y2="196.258"/>
  <line class="uuid-a778d09d-dcae-4825-9f95-e5bd934f4876" x1="236.058" y1="286.054" x2="297.127" y2="250.709"/>
  <line class="uuid-a778d09d-dcae-4825-9f95-e5bd934f4876" x1="236.058" y1="339.43" x2="297.127" y2="304.083"/>
  <line class="uuid-20a69316-555a-4eb5-b24c-273975a566c9" x1="313.007" y1="267.661" x2="312.028" y2="269.519"/>
  <line class="uuid-20a69316-555a-4eb5-b24c-273975a566c9" x1="293.71" y1="278.85" x2="292.731" y2="280.729"/>
  <line class="uuid-20a69316-555a-4eb5-b24c-273975a566c9" x1="273.922" y1="290.185" x2="272.943" y2="292.092"/>
  <line class="uuid-20a69316-555a-4eb5-b24c-273975a566c9" x1="254.623" y1="301.349" x2="253.644" y2="303.251"/>
  <line class="uuid-20a69316-555a-4eb5-b24c-273975a566c9" x1="235.083" y1="312.707" x2="233.86" y2="314.638"/>
  <line class="uuid-20a69316-555a-4eb5-b24c-273975a566c9" x1="222.377" y1="311.901" x2="220.18" y2="315.783"/>
  <line class="uuid-20a69316-555a-4eb5-b24c-273975a566c9" x1="212.605" y1="306.257" x2="210.408" y2="310.142"/>
  <line class="uuid-20a69316-555a-4eb5-b24c-273975a566c9" x1="202.837" y1="300.565" x2="200.636" y2="304.472"/>
  <line class="uuid-20a69316-555a-4eb5-b24c-273975a566c9" x1="193.064" y1="294.946" x2="190.868" y2="298.855"/>
  <line class="uuid-20a69316-555a-4eb5-b24c-273975a566c9" x1="183.295" y1="289.307" x2="181.095" y2="293.214"/>
  <line class="uuid-20a69316-555a-4eb5-b24c-273975a566c9" x1="173.523" y1="283.615" x2="171.322" y2="287.548"/>
  <line class="uuid-20a69316-555a-4eb5-b24c-273975a566c9" x1="163.75" y1="278.018" x2="161.554" y2="281.977"/>
  <line class="uuid-20a69316-555a-4eb5-b24c-273975a566c9" x1="153.981" y1="272.326" x2="151.781" y2="276.307"/>
  <line class="uuid-20a69316-555a-4eb5-b24c-273975a566c9" x1="144.208" y1="266.638" x2="141.766" y2="270.619"/>
  <line class="uuid-20a69316-555a-4eb5-b24c-273975a566c9" x1="134.437" y1="261.041" x2="132.24" y2="265.022"/>
  <line class="uuid-20a69316-555a-4eb5-b24c-273975a566c9" x1="124.665" y1="255.376" x2="122.468" y2="259.331"/>
  <line class="uuid-20a69316-555a-4eb5-b24c-273975a566c9" x1="115.138" y1="245.286" x2="114.649" y2="244.528"/>
  <line class="uuid-20a69316-555a-4eb5-b24c-273975a566c9" x1="135.416" y1="257.818" x2="113.917" y2="220.565"/>
  <line class="uuid-20a69316-555a-4eb5-b24c-273975a566c9" x1="155.445" y1="269.934" x2="119.292" y2="207.422"/>
  <line class="uuid-20a69316-555a-4eb5-b24c-273975a566c9" x1="174.987" y1="281.315" x2="138.833" y2="218.78"/>
  <line class="uuid-20a69316-555a-4eb5-b24c-273975a566c9" x1="194.532" y1="292.556" x2="158.621" y2="230.117"/>
  <line class="uuid-20a69316-555a-4eb5-b24c-273975a566c9" x1="214.073" y1="303.888" x2="177.919" y2="241.353"/>
  <line class="uuid-20a69316-555a-4eb5-b24c-273975a566c9" x1="224.821" y1="300.076" x2="197.707" y2="253.102"/>
  <line class="uuid-20a69316-555a-4eb5-b24c-273975a566c9" x1="224.089" y1="276.211" x2="217.98" y2="265.586"/>
  <line class="uuid-20a69316-555a-4eb5-b24c-273975a566c9" x1="331.573" y1="204.783" x2="331.327" y2="204.979"/>
  <line class="uuid-20a69316-555a-4eb5-b24c-273975a566c9" x1="313.983" y1="212.599" x2="312.028" y2="216.241"/>
  <line class="uuid-20a69316-555a-4eb5-b24c-273975a566c9" x1="294.442" y1="223.961" x2="292.241" y2="227.552"/>
  <line class="uuid-20a69316-555a-4eb5-b24c-273975a566c9" x1="274.9" y1="235.146" x2="272.943" y2="238.74"/>
  <line class="uuid-20a69316-555a-4eb5-b24c-273975a566c9" x1="255.355" y1="246.508" x2="253.159" y2="250.099"/>
  <line class="uuid-20a69316-555a-4eb5-b24c-273975a566c9" x1="235.572" y1="257.866" x2="233.617" y2="261.483"/>
  <line class="uuid-20a69316-555a-4eb5-b24c-273975a566c9" x1="222.866" y1="257.598" x2="220.18" y2="262.385"/>
  <line class="uuid-20a69316-555a-4eb5-b24c-273975a566c9" x1="213.095" y1="251.932" x2="210.408" y2="256.718"/>
  <line class="uuid-20a69316-555a-4eb5-b24c-273975a566c9" x1="203.326" y1="246.239" x2="200.392" y2="251.052"/>
  <line class="uuid-20a69316-555a-4eb5-b24c-273975a566c9" x1="193.553" y1="240.669" x2="190.868" y2="245.456"/>
  <line class="uuid-20a69316-555a-4eb5-b24c-273975a566c9" x1="183.781" y1="234.976" x2="180.852" y2="239.789"/>
  <line class="uuid-20a69316-555a-4eb5-b24c-273975a566c9" x1="174.012" y1="229.333" x2="171.08" y2="234.146"/>
  <line class="uuid-20a69316-555a-4eb5-b24c-273975a566c9" x1="164.239" y1="223.739" x2="161.307" y2="228.526"/>
  <line class="uuid-20a69316-555a-4eb5-b24c-273975a566c9" x1="154.224" y1="218.048" x2="151.538" y2="222.861"/>
  <line class="uuid-20a69316-555a-4eb5-b24c-273975a566c9" x1="144.698" y1="212.478" x2="142.008" y2="217.268"/>
  <line class="uuid-20a69316-555a-4eb5-b24c-273975a566c9" x1="134.926" y1="206.785" x2="131.993" y2="211.598"/>
  <line class="uuid-20a69316-555a-4eb5-b24c-273975a566c9" x1="124.911" y1="201.119" x2="122.222" y2="205.906"/>
  <line class="uuid-20a69316-555a-4eb5-b24c-273975a566c9" x1="135.416" y1="203.415" x2="113.917" y2="166.286"/>
  <line class="uuid-20a69316-555a-4eb5-b24c-273975a566c9" x1="155.445" y1="215.509" x2="119.045" y2="152.897"/>
  <line class="uuid-20a69316-555a-4eb5-b24c-273975a566c9" x1="174.744" y1="226.768" x2="138.833" y2="164.234"/>
  <line class="uuid-20a69316-555a-4eb5-b24c-273975a566c9" x1="194.532" y1="238.104" x2="158.379" y2="175.565"/>
  <line class="uuid-20a69316-555a-4eb5-b24c-273975a566c9" x1="214.073" y1="249.415" x2="177.919" y2="186.802"/>
  <line class="uuid-20a69316-555a-4eb5-b24c-273975a566c9" x1="224.821" y1="245.724" x2="197.707" y2="198.58"/>
  <line class="uuid-20a69316-555a-4eb5-b24c-273975a566c9" x1="224.089" y1="221.786" x2="217.98" y2="211.113"/>
  <line class="uuid-20a69316-555a-4eb5-b24c-273975a566c9" x1="319.847" y1="142.661" x2="306.9" y2="165.187"/>
  <line class="uuid-20a69316-555a-4eb5-b24c-273975a566c9" x1="301.035" y1="130.207" x2="267.081" y2="188.882"/>
  <line class="uuid-20a69316-555a-4eb5-b24c-273975a566c9" x1="282.23" y1="117.749" x2="227.264" y2="213.014"/>
  <line class="uuid-20a69316-555a-4eb5-b24c-273975a566c9" x1="262.685" y1="106.412" x2="206.254" y2="203.953"/>
  <line class="uuid-20a69316-555a-4eb5-b24c-273975a566c9" x1="242.897" y1="95.077" x2="186.713" y2="192.668"/>
  <line class="uuid-20a69316-555a-4eb5-b24c-273975a566c9" x1="222.866" y1="84.648" x2="167.171" y2="181.383"/>
  <line class="uuid-20a69316-555a-4eb5-b24c-273975a566c9" x1="183.295" y1="108.271" x2="148.363" y2="168.947"/>
  <line class="uuid-20a69316-555a-4eb5-b24c-273975a566c9" x1="143.476" y1="132.04" x2="129.307" y2="156.441"/>
  <line class="uuid-20a69316-555a-4eb5-b24c-273975a566c9" x1="135.169" y1="311.07" x2="113.917" y2="274.159"/>
  <line class="uuid-20a69316-555a-4eb5-b24c-273975a566c9" x1="155.203" y1="323.212" x2="119.045" y2="260.677"/>
  <line class="uuid-20a69316-555a-4eb5-b24c-273975a566c9" x1="174.744" y1="334.474" x2="138.833" y2="272.009"/>
  <line class="uuid-20a69316-555a-4eb5-b24c-273975a566c9" x1="194.285" y1="345.832" x2="158.379" y2="283.346"/>
  <line class="uuid-20a69316-555a-4eb5-b24c-273975a566c9" x1="214.073" y1="357.191" x2="177.919" y2="294.605"/>
  <line class="uuid-20a69316-555a-4eb5-b24c-273975a566c9" x1="224.821" y1="353.575" x2="197.707" y2="306.379"/>
  <line class="uuid-20a69316-555a-4eb5-b24c-273975a566c9" x1="224.089" y1="329.661" x2="217.98" y2="318.936"/>
</svg>