<?xml version="1.0" encoding="UTF-8"?>
<svg id="uuid-c55adcdf-8d19-4953-9b8e-8b1209206596" data-name="&amp;lt;Layer&amp;gt;" xmlns="http://www.w3.org/2000/svg" viewBox="0 0 451.11 451.11">
  <defs>
    <style>
      .uuid-ee1a025a-b127-42bf-b5ba-c1815a7bbc07 {
        stroke-miterlimit: 10;
        stroke-width: 1.163px;
      }

      .uuid-ee1a025a-b127-42bf-b5ba-c1815a7bbc07, .uuid-6c461b2f-1a48-4e82-95a6-1a94b5adddfa {
        fill: none;
        stroke: #000;
        stroke-linecap: round;
      }

      .uuid-6c461b2f-1a48-4e82-95a6-1a94b5adddfa {
        fill-rule: evenodd;
        stroke-linejoin: round;
        stroke-width: 4.117px;
      }
    </style>
  </defs>
  <path class="uuid-6c461b2f-1a48-4e82-95a6-1a94b5adddfa" d="M341.479,108.783c.122.047.247.125.417.221,1.979,1.147,3.322,3.564,3.421,6.987M345.317,131.06v109.171M341.895,251.221c-2.149,3.738-5.104,6.987-8.404,8.872M333.491,260.093l-178.298,102.937M146.446,363.615l-37.643-21.716M105.723,335.133v-124.263M117.571,191.034l178.276-102.942M295.847,88.093c2.565-1.416,5.18-2.248,8.014-1.025M105.723,210.87v15.096M117.571,191.034c-6.572,3.882-11.385,12.26-11.848,19.836M105.723,210.87l37.623,21.738M146.837,221.618c2.026-3.544,4.812-6.77,8.355-8.868M155.192,212.75l178.298-102.942M333.491,109.808c2.248-1.269,5.034-2.148,7.55-1.221M341.041,108.587l.437.196M143.345,247.682l-37.623-21.741M105.723,225.94v109.193c.174,2.711.806,5.056,3.08,6.766M341.895,251.221c1.979-3.492,3.322-7.399,3.421-10.99M282.852,221.761l-29.387,42.556M244.328,273.158c-3.201,1.859-6.376,2.495-9.109,1.689M143.345,356.849c.169,3.421,1.464,5.84,3.492,6.987,2.148,1.247,5.102,1.075,8.355-.806M333.491,260.093c3.301-1.885,6.255-5.134,8.404-8.872M143.345,247.682v94.122-.025,15.07l62.556-90.674-8.646-2.565-53.91-15.927h0ZM345.387,131.036l-53.962,78.193-8.573,12.532,62.465,18.47M143.345,232.608v15.074M143.345,247.682c91.236,26.966,2.513.754,91.874,27.165,2.734.806,5.908.17,9.109-1.689,3.201-1.831,6.399-4.882,9.137-8.841M345.317,115.991c-.1-3.423-1.442-5.84-3.421-6.987-2.149-1.247-5.104-1.075-8.404.805M345.317,131.06v-15.07l-94.932,137.726M250.385,253.716c-1.807,2.639-3.907,4.64-6.056,5.862-2.075,1.195-4.176,1.637-6.034,1.099M238.294,260.677l-94.949-28.069v15.074M145.957,223.203l-37.621-21.716M108.336,201.487c-1.512,3.028-2.392,6.009-2.613,9.383M143.345,232.608c.243-3.397,1.121-6.373,2.612-9.406M303.861,87.067l37.617,21.715"/>
  <line class="uuid-ee1a025a-b127-42bf-b5ba-c1815a7bbc07" x1="132.961" y1="213.777" x2="119.892" y2="191.105"/>
  <line class="uuid-ee1a025a-b127-42bf-b5ba-c1815a7bbc07" x1="157.22" y1="210.598" x2="139.287" y2="179.525"/>
  <line class="uuid-ee1a025a-b127-42bf-b5ba-c1815a7bbc07" x1="176.787" y1="199.291" x2="158.856" y2="168.24"/>
  <line class="uuid-ee1a025a-b127-42bf-b5ba-c1815a7bbc07" x1="196.302" y1="188.028" x2="178.372" y2="156.931"/>
  <line class="uuid-ee1a025a-b127-42bf-b5ba-c1815a7bbc07" x1="215.869" y1="176.74" x2="197.939" y2="145.668"/>
  <line class="uuid-ee1a025a-b127-42bf-b5ba-c1815a7bbc07" x1="235.462" y1="165.456" x2="217.507" y2="134.383"/>
  <line class="uuid-ee1a025a-b127-42bf-b5ba-c1815a7bbc07" x1="254.955" y1="154.145" x2="237.025" y2="123.098"/>
  <line class="uuid-ee1a025a-b127-42bf-b5ba-c1815a7bbc07" x1="274.547" y1="142.86" x2="256.592" y2="111.788"/>
  <line class="uuid-ee1a025a-b127-42bf-b5ba-c1815a7bbc07" x1="294.115" y1="131.576" x2="276.159" y2="100.504"/>
  <line class="uuid-ee1a025a-b127-42bf-b5ba-c1815a7bbc07" x1="313.608" y1="120.288" x2="295.725" y2="89.215"/>
  <line class="uuid-ee1a025a-b127-42bf-b5ba-c1815a7bbc07" x1="332.663" y1="108.097" x2="330.805" y2="104.9"/>
  <line class="uuid-ee1a025a-b127-42bf-b5ba-c1815a7bbc07" x1="141.659" y1="348.423" x2="132.667" y2="353.6"/>
  <line class="uuid-ee1a025a-b127-42bf-b5ba-c1815a7bbc07" x1="142.024" y1="335.133" x2="120.993" y2="347.301"/>
  <line class="uuid-ee1a025a-b127-42bf-b5ba-c1815a7bbc07" x1="142.413" y1="321.895" x2="109.266" y2="341.021"/>
  <line class="uuid-ee1a025a-b127-42bf-b5ba-c1815a7bbc07" x1="142.539" y1="308.801" x2="106.702" y2="329.49"/>
  <line class="uuid-ee1a025a-b127-42bf-b5ba-c1815a7bbc07" x1="142.539" y1="295.757" x2="106.651" y2="316.446"/>
  <line class="uuid-ee1a025a-b127-42bf-b5ba-c1815a7bbc07" x1="142.539" y1="282.736" x2="106.651" y2="303.424"/>
  <line class="uuid-ee1a025a-b127-42bf-b5ba-c1815a7bbc07" x1="142.539" y1="269.692" x2="106.651" y2="290.381"/>
  <line class="uuid-ee1a025a-b127-42bf-b5ba-c1815a7bbc07" x1="142.539" y1="256.67" x2="106.651" y2="277.361"/>
  <line class="uuid-ee1a025a-b127-42bf-b5ba-c1815a7bbc07" x1="138.407" y1="245.971" x2="106.824" y2="264.243"/>
  <line class="uuid-ee1a025a-b127-42bf-b5ba-c1815a7bbc07" x1="126.732" y1="239.69" x2="107.165" y2="250.979"/>
  <line class="uuid-ee1a025a-b127-42bf-b5ba-c1815a7bbc07" x1="115.08" y1="233.417" x2="107.582" y2="237.736"/>
  <line class="uuid-ee1a025a-b127-42bf-b5ba-c1815a7bbc07" x1="139.07" y1="221.323" x2="133.352" y2="224.62"/>
  <line class="uuid-ee1a025a-b127-42bf-b5ba-c1815a7bbc07" x1="127.733" y1="214.8" x2="122.041" y2="218.074"/>
  <line class="uuid-ee1a025a-b127-42bf-b5ba-c1815a7bbc07" x1="116.47" y1="208.28" x2="110.779" y2="211.577"/>
  <line class="uuid-ee1a025a-b127-42bf-b5ba-c1815a7bbc07" x1="113.101" y1="228.188" x2="113.101" y2="217.122"/>
  <line class="uuid-ee1a025a-b127-42bf-b5ba-c1815a7bbc07" x1="124.41" y1="234.708" x2="124.41" y2="223.645"/>
  <line class="uuid-ee1a025a-b127-42bf-b5ba-c1815a7bbc07" x1="135.699" y1="241.21" x2="135.699" y2="230.165"/>
  <line class="uuid-ee1a025a-b127-42bf-b5ba-c1815a7bbc07" x1="164.887" y1="252.248" x2="164.887" y2="240.695"/>
  <line class="uuid-ee1a025a-b127-42bf-b5ba-c1815a7bbc07" x1="187.435" y1="258.919" x2="187.435" y2="247.388"/>
  <line class="uuid-ee1a025a-b127-42bf-b5ba-c1815a7bbc07" x1="210.008" y1="265.612" x2="210.008" y2="254.055"/>
  <line class="uuid-ee1a025a-b127-42bf-b5ba-c1815a7bbc07" x1="232.602" y1="272.283" x2="232.602" y2="260.725"/>
  <line class="uuid-ee1a025a-b127-42bf-b5ba-c1815a7bbc07" x1="255.202" y1="258.577" x2="255.202" y2="250.173"/>
  <line class="uuid-ee1a025a-b127-42bf-b5ba-c1815a7bbc07" x1="277.77" y1="225.794" x2="277.77" y2="217.415"/>
  <line class="uuid-ee1a025a-b127-42bf-b5ba-c1815a7bbc07" x1="300.318" y1="193.058" x2="300.318" y2="184.681"/>
  <line class="uuid-ee1a025a-b127-42bf-b5ba-c1815a7bbc07" x1="322.916" y1="160.3" x2="322.916" y2="151.923"/>
</svg>