<?xml version="1.0" encoding="UTF-8"?>
<svg id="uuid-6d6da6f6-ea13-4ddc-805b-ea75e481f778" data-name="&amp;lt;Layer&amp;gt;" xmlns="http://www.w3.org/2000/svg" viewBox="0 0 451.11 451.11">
  <defs>
    <style>
      .uuid-822b08bd-1dfd-4c99-bb5c-6e812acde203, .uuid-7ac2bfdb-af6f-4faf-80ac-38531d30321d, .uuid-593f5f5b-9748-4198-8ae8-96b82c987cd3, .uuid-3bb5689d-2191-428d-9738-0b0c40d48894 {
        fill: none;
        stroke: #000;
        stroke-linecap: round;
      }

      .uuid-822b08bd-1dfd-4c99-bb5c-6e812acde203, .uuid-3bb5689d-2191-428d-9738-0b0c40d48894 {
        stroke-linejoin: round;
        stroke-width: 4.117px;
      }

      .uuid-7ac2bfdb-af6f-4faf-80ac-38531d30321d {
        stroke-width: 1.163px;
      }

      .uuid-7ac2bfdb-af6f-4faf-80ac-38531d30321d, .uuid-593f5f5b-9748-4198-8ae8-96b82c987cd3 {
        stroke-miterlimit: 10;
      }

      .uuid-593f5f5b-9748-4198-8ae8-96b82c987cd3 {
        stroke-width: 1.159px;
      }

      .uuid-3bb5689d-2191-428d-9738-0b0c40d48894 {
        fill-rule: evenodd;
      }
    </style>
  </defs>
  <path class="uuid-3bb5689d-2191-428d-9738-0b0c40d48894" d="M163.326,368.993c-2.27-1.549-2.641-4.032-2.641-5.975"/>
  <line class="uuid-822b08bd-1dfd-4c99-bb5c-6e812acde203" x1="160.684" y1="363.018" x2="160.636" y2="359.424"/>
  <line class="uuid-822b08bd-1dfd-4c99-bb5c-6e812acde203" x1="160.684" y1="177.143" x2="160.684" y2="175.506"/>
  <path class="uuid-3bb5689d-2191-428d-9738-0b0c40d48894" d="M203.997,139.864l-2.543,1.442-11.795,6.792-19.74,11.431c-2.565,1.464-4.887,3.955-6.572,6.851-.975,1.7-1.733,3.58-2.196,5.533-.589,2.565-.515,4.761-.515,7.352v180.157"/>
  <path class="uuid-3bb5689d-2191-428d-9738-0b0c40d48894" d="M163.348,369c1.685,1.001,4.007.88,6.572-.632"/>
  <line class="uuid-822b08bd-1dfd-4c99-bb5c-6e812acde203" x1="169.919" y1="368.368" x2="292.107" y2="297.819"/>
  <path class="uuid-3bb5689d-2191-428d-9738-0b0c40d48894" d="M292.107,297.819c5.108-2.958,9.213-10.114,9.213-15.98"/>
  <line class="uuid-822b08bd-1dfd-4c99-bb5c-6e812acde203" x1="301.32" y1="281.84" x2="301.32" y2="94.258"/>
  <path class="uuid-3bb5689d-2191-428d-9738-0b0c40d48894" d="M298.314,88.177c-2.023-.934-4.388-.321-6.207.805"/>
  <line class="uuid-822b08bd-1dfd-4c99-bb5c-6e812acde203" x1="292.107" y1="88.982" x2="261.613" y2="106.566"/>
  <path class="uuid-3bb5689d-2191-428d-9738-0b0c40d48894" d="M298.314,88.177c.048,0,.17.047.222.095,1.755.953,2.784,3.028,2.784,5.986"/>
  <line class="uuid-822b08bd-1dfd-4c99-bb5c-6e812acde203" x1="163.127" y1="368.832" x2="152.552" y2="362.797"/>
  <path class="uuid-3bb5689d-2191-428d-9738-0b0c40d48894" d="M149.815,353.562v-179.277c0-8.838,1.141-15.795,9.235-21.01l39.793-22.375M251.73,100.34l29.557-17.636"/>
  <path class="uuid-3bb5689d-2191-428d-9738-0b0c40d48894" d="M281.287,82.704c2.274-1.151,4.128-1.784,6.524-.636"/>
  <line class="uuid-822b08bd-1dfd-4c99-bb5c-6e812acde203" x1="287.81" y1="82.068" x2="298.314" y2="88.177"/>
  <line class="uuid-822b08bd-1dfd-4c99-bb5c-6e812acde203" x1="250.876" y1="130.459" x2="216.477" y2="150.321"/>
  <path class="uuid-3bb5689d-2191-428d-9738-0b0c40d48894" d="M263.356,123.255c8.477-4.938,16.956-9.821,25.433-14.706"/>
  <polyline class="uuid-3bb5689d-2191-428d-9738-0b0c40d48894" points="288.789 108.549 288.789 287.068 177.591 351.292 177.591 172.769"/>
  <path class="uuid-3bb5689d-2191-428d-9738-0b0c40d48894" d="M177.591,172.769c8.816-5.108,17.587-10.159,26.407-15.266"/>
  <polyline class="uuid-3bb5689d-2191-428d-9738-0b0c40d48894" points="210.396 167.787 263.356 137.226 263.356 107.033"/>
  <path class="uuid-3bb5689d-2191-428d-9738-0b0c40d48894" d="M216.429,158.357v-18.294c13.659-7.867,27.238-15.733,40.894-23.6v18.298c-13.655,7.867-27.235,15.729-40.894,23.596Z"/>
  <polyline class="uuid-3bb5689d-2191-428d-9738-0b0c40d48894" points="210.396 137.594 263.356 107.033 256.101 102.857 251.73 100.34 198.843 130.9"/>
  <path class="uuid-3bb5689d-2191-428d-9738-0b0c40d48894" d="M194.762,206.678c-2.196,1.243-3.955,4.346-3.955,6.863"/>
  <path class="uuid-3bb5689d-2191-428d-9738-0b0c40d48894" d="M190.807,213.54c0,2.517,1.759,3.542,3.955,2.273"/>
  <path class="uuid-3bb5689d-2191-428d-9738-0b0c40d48894" d="M194.762,215.813c2.152-1.246,3.959-4.326,3.959-6.843"/>
  <path class="uuid-3bb5689d-2191-428d-9738-0b0c40d48894" d="M198.721,208.97c0-2.513-1.807-3.566-3.959-2.292"/>
  <path class="uuid-3bb5689d-2191-428d-9738-0b0c40d48894" d="M194.762,231.275c-2.196,1.272-3.955,4.37-3.955,6.887"/>
  <path class="uuid-3bb5689d-2191-428d-9738-0b0c40d48894" d="M190.807,238.162c0,2.517,1.759,3.544,3.955,2.274"/>
  <path class="uuid-3bb5689d-2191-428d-9738-0b0c40d48894" d="M194.762,240.436c2.152-1.247,3.959-4.35,3.959-6.866"/>
  <path class="uuid-3bb5689d-2191-428d-9738-0b0c40d48894" d="M198.721,233.57c0-2.513-1.807-3.542-3.959-2.295"/>
  <path class="uuid-3bb5689d-2191-428d-9738-0b0c40d48894" d="M194.762,257.439c-2.196,1.27-3.955,4.348-3.955,6.861"/>
  <path class="uuid-3bb5689d-2191-428d-9738-0b0c40d48894" d="M190.807,264.3c0,2.517,1.759,3.543,3.955,2.296"/>
  <path class="uuid-3bb5689d-2191-428d-9738-0b0c40d48894" d="M194.762,266.596c2.152-1.269,3.959-4.344,3.959-6.861"/>
  <path class="uuid-3bb5689d-2191-428d-9738-0b0c40d48894" d="M198.721,259.735c0-2.517-1.807-3.566-3.959-2.296"/>
  <path class="uuid-3bb5689d-2191-428d-9738-0b0c40d48894" d="M152.552,362.771c-3.215-2.196-2.737-5.774-2.737-9.235"/>
  <line class="uuid-822b08bd-1dfd-4c99-bb5c-6e812acde203" x1="152.552" y1="160.14" x2="163.348" y2="166.37"/>
  <polygon class="uuid-3bb5689d-2191-428d-9738-0b0c40d48894" points="198.843 136.862 203.945 139.842 203.945 164.097 210.396 167.787 210.396 137.594 198.843 130.9 198.843 136.862"/>
  <line class="uuid-822b08bd-1dfd-4c99-bb5c-6e812acde203" x1="210.226" y1="203.623" x2="274.667" y2="166.418"/>
  <line class="uuid-822b08bd-1dfd-4c99-bb5c-6e812acde203" x1="210.226" y1="229.763" x2="274.667" y2="192.557"/>
  <line class="uuid-822b08bd-1dfd-4c99-bb5c-6e812acde203" x1="210.226" y1="254.384" x2="256.152" y2="227.856"/>
  <polyline class="uuid-3bb5689d-2191-428d-9738-0b0c40d48894" points="257.323 134.761 257.323 116.463 250.876 120.176 250.876 130.411"/>
  <polygon class="uuid-3bb5689d-2191-428d-9738-0b0c40d48894" points="216.429 150.295 250.876 130.411 257.323 134.761 216.429 158.357 216.429 150.295"/>
  <line class="uuid-7ac2bfdb-af6f-4faf-80ac-38531d30321d" x1="189.07" y1="138.058" x2="181.866" y2="150.564"/>
  <line class="uuid-7ac2bfdb-af6f-4faf-80ac-38531d30321d" x1="169.577" y1="149.294" x2="161.372" y2="163.411"/>
  <line class="uuid-7ac2bfdb-af6f-4faf-80ac-38531d30321d" x1="289.836" y1="85.439" x2="286.599" y2="91.182"/>
  <line class="uuid-593f5f5b-9748-4198-8ae8-96b82c987cd3" x1="275.13" y1="88.394" x2="266.47" y2="103.361"/>
  <line class="uuid-7ac2bfdb-af6f-4faf-80ac-38531d30321d" x1="208.467" y1="156.476" x2="206.051" y2="155.034"/>
  <line class="uuid-7ac2bfdb-af6f-4faf-80ac-38531d30321d" x1="208.467" y1="143.429" x2="206.051" y2="142.017"/>
  <line class="uuid-7ac2bfdb-af6f-4faf-80ac-38531d30321d" x1="187.215" y1="356.273" x2="179.96" y2="352.05"/>
  <line class="uuid-7ac2bfdb-af6f-4faf-80ac-38531d30321d" x1="176.001" y1="349.802" x2="162.299" y2="341.884"/>
  <line class="uuid-7ac2bfdb-af6f-4faf-80ac-38531d30321d" x1="209.811" y1="343.23" x2="202.507" y2="339.028"/>
  <line class="uuid-7ac2bfdb-af6f-4faf-80ac-38531d30321d" x1="176.001" y1="323.711" x2="162.299" y2="315.819"/>
  <line class="uuid-7ac2bfdb-af6f-4faf-80ac-38531d30321d" x1="232.405" y1="330.208" x2="225.081" y2="325.981"/>
  <line class="uuid-7ac2bfdb-af6f-4faf-80ac-38531d30321d" x1="176.001" y1="297.647" x2="162.299" y2="289.732"/>
  <line class="uuid-7ac2bfdb-af6f-4faf-80ac-38531d30321d" x1="254.979" y1="317.166" x2="247.675" y2="312.938"/>
  <line class="uuid-7ac2bfdb-af6f-4faf-80ac-38531d30321d" x1="176.001" y1="271.582" x2="162.299" y2="263.668"/>
  <line class="uuid-7ac2bfdb-af6f-4faf-80ac-38531d30321d" x1="277.574" y1="304.119" x2="270.27" y2="299.895"/>
  <line class="uuid-7ac2bfdb-af6f-4faf-80ac-38531d30321d" x1="176.001" y1="245.492" x2="162.299" y2="237.603"/>
  <line class="uuid-7ac2bfdb-af6f-4faf-80ac-38531d30321d" x1="297.383" y1="289.511" x2="290.643" y2="285.63"/>
  <line class="uuid-7ac2bfdb-af6f-4faf-80ac-38531d30321d" x1="176.001" y1="219.427" x2="162.299" y2="211.539"/>
  <line class="uuid-7ac2bfdb-af6f-4faf-80ac-38531d30321d" x1="299.583" y1="264.716" x2="290.594" y2="259.514"/>
  <line class="uuid-7ac2bfdb-af6f-4faf-80ac-38531d30321d" x1="176.001" y1="193.362" x2="162.299" y2="185.448"/>
  <line class="uuid-7ac2bfdb-af6f-4faf-80ac-38531d30321d" x1="299.583" y1="238.651" x2="290.594" y2="233.449"/>
  <line class="uuid-7ac2bfdb-af6f-4faf-80ac-38531d30321d" x1="179.913" y1="169.52" x2="168.281" y2="162.827"/>
  <line class="uuid-7ac2bfdb-af6f-4faf-80ac-38531d30321d" x1="299.583" y1="212.564" x2="290.594" y2="207.358"/>
  <line class="uuid-7ac2bfdb-af6f-4faf-80ac-38531d30321d" x1="202.386" y1="156.428" x2="190.534" y2="149.589"/>
  <line class="uuid-7ac2bfdb-af6f-4faf-80ac-38531d30321d" x1="299.583" y1="186.5" x2="290.594" y2="181.294"/>
  <line class="uuid-7ac2bfdb-af6f-4faf-80ac-38531d30321d" x1="299.583" y1="160.435" x2="290.594" y2="155.207"/>
  <line class="uuid-7ac2bfdb-af6f-4faf-80ac-38531d30321d" x1="299.583" y1="134.345" x2="290.594" y2="129.143"/>
  <line class="uuid-7ac2bfdb-af6f-4faf-80ac-38531d30321d" x1="269.976" y1="117.243" x2="265.263" y2="114.531"/>
  <line class="uuid-7ac2bfdb-af6f-4faf-80ac-38531d30321d" x1="299.926" y1="108.475" x2="280.555" y2="97.286"/>
  <line class="uuid-7ac2bfdb-af6f-4faf-80ac-38531d30321d" x1="158.877" y1="352.367" x2="151.696" y2="356.494"/>
  <line class="uuid-7ac2bfdb-af6f-4faf-80ac-38531d30321d" x1="158.877" y1="339.319" x2="151.696" y2="343.473"/>
  <line class="uuid-7ac2bfdb-af6f-4faf-80ac-38531d30321d" x1="158.877" y1="326.275" x2="151.696" y2="330.429"/>
  <line class="uuid-7ac2bfdb-af6f-4faf-80ac-38531d30321d" x1="158.877" y1="313.254" x2="151.696" y2="317.409"/>
  <line class="uuid-7ac2bfdb-af6f-4faf-80ac-38531d30321d" x1="158.877" y1="300.236" x2="151.696" y2="304.387"/>
  <line class="uuid-7ac2bfdb-af6f-4faf-80ac-38531d30321d" x1="158.877" y1="287.19" x2="151.696" y2="291.344"/>
  <line class="uuid-7ac2bfdb-af6f-4faf-80ac-38531d30321d" x1="158.877" y1="274.146" x2="151.696" y2="278.3"/>
  <line class="uuid-7ac2bfdb-af6f-4faf-80ac-38531d30321d" x1="158.877" y1="261.125" x2="151.696" y2="265.254"/>
  <line class="uuid-7ac2bfdb-af6f-4faf-80ac-38531d30321d" x1="158.877" y1="248.081" x2="151.696" y2="252.236"/>
  <line class="uuid-7ac2bfdb-af6f-4faf-80ac-38531d30321d" x1="158.877" y1="235.035" x2="151.696" y2="239.189"/>
  <line class="uuid-7ac2bfdb-af6f-4faf-80ac-38531d30321d" x1="158.877" y1="222.017" x2="151.696" y2="226.171"/>
  <line class="uuid-7ac2bfdb-af6f-4faf-80ac-38531d30321d" x1="158.877" y1="208.97" x2="151.696" y2="213.124"/>
  <line class="uuid-7ac2bfdb-af6f-4faf-80ac-38531d30321d" x1="158.877" y1="195.952" x2="151.696" y2="200.081"/>
  <line class="uuid-7ac2bfdb-af6f-4faf-80ac-38531d30321d" x1="158.877" y1="182.905" x2="151.696" y2="187.06"/>
  <line class="uuid-7ac2bfdb-af6f-4faf-80ac-38531d30321d" x1="160.099" y1="169.129" x2="151.625" y2="174.042"/>
  <line class="uuid-7ac2bfdb-af6f-4faf-80ac-38531d30321d" x1="239.661" y1="134.735" x2="234.607" y2="131.803"/>
</svg>