<?xml version="1.0" encoding="UTF-8"?>
<svg id="uuid-b46b2cb7-9ff5-4962-8207-84d09270e054" data-name="&amp;lt;Layer&amp;gt;" xmlns="http://www.w3.org/2000/svg" viewBox="0 0 451.11 451.11">
  <defs>
    <style>
      .uuid-9cc9f911-4c14-4237-ac80-e065087b44a9 {
        stroke-miterlimit: 10;
        stroke-width: 1.163px;
      }

      .uuid-9cc9f911-4c14-4237-ac80-e065087b44a9, .uuid-684e7400-b6f3-4a7d-8abc-c75f5d1a2d18 {
        fill: none;
        stroke: #000;
        stroke-linecap: round;
      }

      .uuid-684e7400-b6f3-4a7d-8abc-c75f5d1a2d18 {
        fill-rule: evenodd;
        stroke-linejoin: round;
        stroke-width: 4.117px;
      }
    </style>
  </defs>
  <path class="uuid-684e7400-b6f3-4a7d-8abc-c75f5d1a2d18" d="M341.481,108.781c.121.051.243.125.411.221,1.979,1.147,3.323,3.566,3.422,6.987M345.314,131.06v109.17M341.893,251.224c-2.148,3.734-5.102,6.987-8.403,8.868M333.489,260.092l-178.299,102.938M146.445,363.618l-37.643-21.716M105.721,335.132v-124.263M117.572,191.033l178.274-102.94M295.846,88.093c2.564-1.417,5.18-2.248,8.014-1.027M105.721,210.869v15.096M117.572,191.033c-6.57,3.882-11.387,12.263-11.851,19.836M105.721,210.869l37.621,21.741M146.834,221.617c2.027-3.544,4.813-6.766,8.356-8.868M155.191,212.749l178.299-102.938M333.489,109.811c2.248-1.272,5.034-2.152,7.551-1.221M341.04,108.589l.441.192M143.343,247.68l-37.621-21.74M105.721,225.94v109.192c.173,2.715.81,5.06,3.08,6.77M341.893,251.224c1.979-3.492,3.323-7.402,3.422-10.994M282.85,221.763l-29.388,42.552M244.327,273.16c-3.197,1.859-6.373,2.491-9.111,1.686M143.343,356.851c.17,3.419,1.464,5.84,3.492,6.987,2.153,1.244,5.108,1.075,8.356-.809M333.489,260.092c3.301-1.881,6.255-5.134,8.403-8.868M143.343,247.68v94.123-.026,15.074l62.561-90.678-8.647-2.563-53.914-15.929h0ZM345.388,131.038l-53.962,78.193-8.576,12.532,62.464,18.467M143.343,232.611v15.07M143.343,247.68c91.238,26.97,2.517.758,91.874,27.166,2.738.805,5.914.173,9.111-1.686,3.201-1.831,6.402-4.886,9.135-8.845M345.314,115.989c-.099-3.421-1.442-5.84-3.422-6.987-2.148-1.243-5.102-1.075-8.403.809M345.314,131.06v-15.071l-94.927,137.726M250.387,253.715c-1.811,2.639-3.908,4.64-6.06,5.862-2.076,1.199-4.176,1.637-6.031,1.099M238.297,260.676l-94.954-28.065v15.07M145.956,223.205l-37.619-21.719M108.337,201.486c-1.515,3.032-2.395,6.012-2.615,9.383M143.343,232.611c.243-3.397,1.123-6.377,2.613-9.405M303.86,87.066l37.621,21.715"/>
  <line class="uuid-9cc9f911-4c14-4237-ac80-e065087b44a9" x1="132.96" y1="213.775" x2="119.89" y2="191.107"/>
  <line class="uuid-9cc9f911-4c14-4237-ac80-e065087b44a9" x1="157.218" y1="210.601" x2="139.288" y2="179.528"/>
  <line class="uuid-9cc9f911-4c14-4237-ac80-e065087b44a9" x1="176.784" y1="199.29" x2="158.855" y2="168.24"/>
  <line class="uuid-9cc9f911-4c14-4237-ac80-e065087b44a9" x1="196.304" y1="188.027" x2="178.374" y2="156.93"/>
  <line class="uuid-9cc9f911-4c14-4237-ac80-e065087b44a9" x1="215.871" y1="176.743" x2="197.938" y2="145.671"/>
  <line class="uuid-9cc9f911-4c14-4237-ac80-e065087b44a9" x1="235.459" y1="165.459" x2="217.504" y2="134.382"/>
  <line class="uuid-9cc9f911-4c14-4237-ac80-e065087b44a9" x1="254.953" y1="154.148" x2="237.023" y2="123.097"/>
  <line class="uuid-9cc9f911-4c14-4237-ac80-e065087b44a9" x1="274.546" y1="142.859" x2="256.591" y2="111.788"/>
  <line class="uuid-9cc9f911-4c14-4237-ac80-e065087b44a9" x1="294.113" y1="131.574" x2="276.157" y2="100.503"/>
  <line class="uuid-9cc9f911-4c14-4237-ac80-e065087b44a9" x1="313.605" y1="120.291" x2="295.724" y2="89.218"/>
  <line class="uuid-9cc9f911-4c14-4237-ac80-e065087b44a9" x1="332.661" y1="108.1" x2="330.804" y2="104.899"/>
  <line class="uuid-9cc9f911-4c14-4237-ac80-e065087b44a9" x1="141.658" y1="348.422" x2="132.669" y2="353.602"/>
  <line class="uuid-9cc9f911-4c14-4237-ac80-e065087b44a9" x1="142.023" y1="335.132" x2="120.991" y2="347.301"/>
  <line class="uuid-9cc9f911-4c14-4237-ac80-e065087b44a9" x1="142.416" y1="321.894" x2="109.265" y2="341.024"/>
  <line class="uuid-9cc9f911-4c14-4237-ac80-e065087b44a9" x1="142.537" y1="308.799" x2="106.7" y2="329.492"/>
  <line class="uuid-9cc9f911-4c14-4237-ac80-e065087b44a9" x1="142.537" y1="295.756" x2="106.652" y2="316.449"/>
  <line class="uuid-9cc9f911-4c14-4237-ac80-e065087b44a9" x1="142.537" y1="282.734" x2="106.652" y2="303.427"/>
  <line class="uuid-9cc9f911-4c14-4237-ac80-e065087b44a9" x1="142.537" y1="269.691" x2="106.652" y2="290.381"/>
  <line class="uuid-9cc9f911-4c14-4237-ac80-e065087b44a9" x1="142.537" y1="256.67" x2="106.652" y2="277.363"/>
  <line class="uuid-9cc9f911-4c14-4237-ac80-e065087b44a9" x1="138.409" y1="245.97" x2="106.822" y2="264.242"/>
  <line class="uuid-9cc9f911-4c14-4237-ac80-e065087b44a9" x1="126.731" y1="239.693" x2="107.164" y2="250.977"/>
  <line class="uuid-9cc9f911-4c14-4237-ac80-e065087b44a9" x1="115.079" y1="233.417" x2="107.58" y2="237.739"/>
  <line class="uuid-9cc9f911-4c14-4237-ac80-e065087b44a9" x1="139.067" y1="221.322" x2="133.349" y2="224.623"/>
  <line class="uuid-9cc9f911-4c14-4237-ac80-e065087b44a9" x1="127.732" y1="214.802" x2="122.04" y2="218.073"/>
  <line class="uuid-9cc9f911-4c14-4237-ac80-e065087b44a9" x1="116.473" y1="208.278" x2="110.781" y2="211.575"/>
  <line class="uuid-9cc9f911-4c14-4237-ac80-e065087b44a9" x1="113.102" y1="228.188" x2="113.102" y2="217.124"/>
  <line class="uuid-9cc9f911-4c14-4237-ac80-e065087b44a9" x1="124.413" y1="234.711" x2="124.413" y2="223.644"/>
  <line class="uuid-9cc9f911-4c14-4237-ac80-e065087b44a9" x1="135.698" y1="241.209" x2="135.698" y2="230.168"/>
  <line class="uuid-9cc9f911-4c14-4237-ac80-e065087b44a9" x1="164.89" y1="252.251" x2="164.89" y2="240.693"/>
  <line class="uuid-9cc9f911-4c14-4237-ac80-e065087b44a9" x1="187.433" y1="258.917" x2="187.433" y2="247.387"/>
  <line class="uuid-9cc9f911-4c14-4237-ac80-e065087b44a9" x1="210.005" y1="265.611" x2="210.005" y2="254.058"/>
  <line class="uuid-9cc9f911-4c14-4237-ac80-e065087b44a9" x1="232.605" y1="272.281" x2="232.605" y2="260.728"/>
  <line class="uuid-9cc9f911-4c14-4237-ac80-e065087b44a9" x1="255.199" y1="258.576" x2="255.199" y2="250.173"/>
  <line class="uuid-9cc9f911-4c14-4237-ac80-e065087b44a9" x1="277.773" y1="225.796" x2="277.773" y2="217.415"/>
  <line class="uuid-9cc9f911-4c14-4237-ac80-e065087b44a9" x1="300.32" y1="193.061" x2="300.32" y2="184.679"/>
  <line class="uuid-9cc9f911-4c14-4237-ac80-e065087b44a9" x1="322.915" y1="160.303" x2="322.915" y2="151.922"/>
</svg>