<?xml version="1.0" encoding="UTF-8"?>
<svg id="uuid-9eb070f2-ad7d-482f-a04f-30d847f3b128" data-name="&amp;lt;Layer&amp;gt;" xmlns="http://www.w3.org/2000/svg" viewBox="0 0 451.11 451.11">
  <defs>
    <style>
      .uuid-85ad5753-c2d2-4596-98c9-f7b51a05e264, .uuid-a5e0087b-02e6-4a89-9444-f3561ff2782e, .uuid-8381aee4-e80b-47e8-8b1d-278944326928 {
        fill: none;
        stroke: #000;
        stroke-linecap: round;
      }

      .uuid-85ad5753-c2d2-4596-98c9-f7b51a05e264, .uuid-8381aee4-e80b-47e8-8b1d-278944326928 {
        stroke-linejoin: round;
        stroke-width: 4.113px;
      }

      .uuid-a5e0087b-02e6-4a89-9444-f3561ff2782e {
        stroke-miterlimit: 10;
        stroke-width: 1.163px;
      }

      .uuid-8381aee4-e80b-47e8-8b1d-278944326928 {
        fill-rule: evenodd;
      }
    </style>
  </defs>
  <path class="uuid-8381aee4-e80b-47e8-8b1d-278944326928" d="M157.386,160.922c.048-4.08,1.027-7.45,2.735-11.163,2.615-5.276,6.037-9.799,11.141-12.9"/>
  <path class="uuid-8381aee4-e80b-47e8-8b1d-278944326928" d="M185.774,145.289c-5.06,3.076-8.525,7.619-11.09,12.896-1.689,3.716-2.664,7.035-2.786,11.142"/>
  <path class="uuid-8381aee4-e80b-47e8-8b1d-278944326928" d="M232.821,264.397c14.46-8.305,26.139-1.512,26.139,15.148s-11.726,36.933-26.139,45.242c-14.464,8.379-26.138,1.564-26.138-15.096s11.674-36.937,26.138-45.294Z"/>
  <polygon class="uuid-8381aee4-e80b-47e8-8b1d-278944326928" points="242.91 288.655 236.07 297.207 229.205 305.684 229.205 287.434 236.07 288.022 242.91 288.655"/>
  <path class="uuid-8381aee4-e80b-47e8-8b1d-278944326928" d="M262.161,92.67c-1.295-.732-1.295-1.907,0-2.665,1.243-.758,3.344-.758,4.639,0,1.27.758,1.27,1.933,0,2.665-1.295.758-3.396.758-4.639,0Z"/>
  <line class="uuid-85ad5753-c2d2-4596-98c9-f7b51a05e264" x1="175.905" y1="369.439" x2="161.343" y2="361.088"/>
  <path class="uuid-8381aee4-e80b-47e8-8b1d-278944326928" d="M161.343,361.088c-3.271-2.322-3.908-5.156-4.077-8.993"/>
  <line class="uuid-85ad5753-c2d2-4596-98c9-f7b51a05e264" x1="157.266" y1="352.095" x2="157.386" y2="160.922"/>
  <line class="uuid-85ad5753-c2d2-4596-98c9-f7b51a05e264" x1="171.262" y1="136.859" x2="265.384" y2="82.581"/>
  <path class="uuid-8381aee4-e80b-47e8-8b1d-278944326928" d="M265.384,82.581c3.444-1.759,6.155-2.685,9.821-.927"/>
  <line class="uuid-85ad5753-c2d2-4596-98c9-f7b51a05e264" x1="275.205" y1="81.654" x2="289.713" y2="90.006"/>
  <path class="uuid-8381aee4-e80b-47e8-8b1d-278944326928" d="M289.713,90.006c-3.588-1.685-6.373-.805-9.747.979"/>
  <line class="uuid-85ad5753-c2d2-4596-98c9-f7b51a05e264" x1="279.966" y1="90.984" x2="185.774" y2="145.289"/>
  <line class="uuid-85ad5753-c2d2-4596-98c9-f7b51a05e264" x1="171.898" y1="169.326" x2="171.85" y2="360.498"/>
  <path class="uuid-8381aee4-e80b-47e8-8b1d-278944326928" d="M171.85,360.498c.17,3.834.755,6.692,4.055,8.941"/>
  <line class="uuid-85ad5753-c2d2-4596-98c9-f7b51a05e264" x1="279.87" y1="314.231" x2="185.726" y2="368.512"/>
  <path class="uuid-8381aee4-e80b-47e8-8b1d-278944326928" d="M185.726,368.512c-7.671,4.418-13.876.806-13.876-8.014"/>
  <path class="uuid-8381aee4-e80b-47e8-8b1d-278944326928" d="M279.966,90.984c7.623-4.397,13.878-.805,13.878,8.01"/>
  <line class="uuid-85ad5753-c2d2-4596-98c9-f7b51a05e264" x1="293.844" y1="98.994" x2="293.719" y2="290.171"/>
  <path class="uuid-8381aee4-e80b-47e8-8b1d-278944326928" d="M293.719,290.171c0,8.816-6.204,19.64-13.85,24.059"/>
  <line class="uuid-85ad5753-c2d2-4596-98c9-f7b51a05e264" x1="191.123" y1="165.952" x2="277.768" y2="116.023"/>
  <path class="uuid-8381aee4-e80b-47e8-8b1d-278944326928" d="M277.768,116.023c3.419-1.98,6.204-.341,6.204,3.617"/>
  <line class="uuid-85ad5753-c2d2-4596-98c9-f7b51a05e264" x1="283.973" y1="119.64" x2="283.925" y2="214.468"/>
  <path class="uuid-8381aee4-e80b-47e8-8b1d-278944326928" d="M283.925,214.468c0,4.007-2.785,8.82-6.204,10.799"/>
  <line class="uuid-85ad5753-c2d2-4596-98c9-f7b51a05e264" x1="277.72" y1="225.268" x2="191.123" y2="275.244"/>
  <path class="uuid-8381aee4-e80b-47e8-8b1d-278944326928" d="M191.123,275.244c-3.469,1.979-6.28.367-6.28-3.592"/>
  <line class="uuid-85ad5753-c2d2-4596-98c9-f7b51a05e264" x1="184.843" y1="271.653" x2="184.916" y2="176.777"/>
  <path class="uuid-8381aee4-e80b-47e8-8b1d-278944326928" d="M184.916,176.777c0-3.959,2.785-8.772,6.207-10.825"/>
  <path class="uuid-8381aee4-e80b-47e8-8b1d-278944326928" d="M203.435,190.699c1.221-.758,2.27-.169,2.27,1.344"/>
  <path class="uuid-8381aee4-e80b-47e8-8b1d-278944326928" d="M205.705,192.043c0,1.442-1.049,3.249-2.27,3.933"/>
  <path class="uuid-8381aee4-e80b-47e8-8b1d-278944326928" d="M203.435,195.976c-1.27.758-2.322.195-2.322-1.317"/>
  <path class="uuid-8381aee4-e80b-47e8-8b1d-278944326928" d="M201.112,194.658c0-1.468,1.053-3.249,2.322-3.959"/>
  <path class="uuid-8381aee4-e80b-47e8-8b1d-278944326928" d="M203.435,209.924c1.221-.758,2.27-.169,2.27,1.27"/>
  <path class="uuid-8381aee4-e80b-47e8-8b1d-278944326928" d="M205.705,211.193c0,1.516-1.049,3.323-2.27,4.007"/>
  <path class="uuid-8381aee4-e80b-47e8-8b1d-278944326928" d="M203.435,215.2c-1.27.758-2.322.173-2.322-1.318"/>
  <path class="uuid-8381aee4-e80b-47e8-8b1d-278944326928" d="M201.112,213.882c0-1.468,1.053-3.249,2.322-3.959"/>
  <path class="uuid-8381aee4-e80b-47e8-8b1d-278944326928" d="M203.435,230.297c1.221-.733,2.27-.1,2.27,1.342"/>
  <path class="uuid-8381aee4-e80b-47e8-8b1d-278944326928" d="M205.705,231.639c0,1.442-1.049,3.249-2.27,4.007"/>
  <path class="uuid-8381aee4-e80b-47e8-8b1d-278944326928" d="M203.435,235.646c-1.27.71-2.322.122-2.322-1.342"/>
  <path class="uuid-8381aee4-e80b-47e8-8b1d-278944326928" d="M201.112,234.304c0-1.443,1.053-3.249,2.322-4.007"/>
  <line class="uuid-85ad5753-c2d2-4596-98c9-f7b51a05e264" x1="218.409" y1="225.948" x2="259.644" y2="202.131"/>
  <line class="uuid-85ad5753-c2d2-4596-98c9-f7b51a05e264" x1="218.409" y1="186.277" x2="268.754" y2="157.184"/>
  <line class="uuid-85ad5753-c2d2-4596-98c9-f7b51a05e264" x1="174.684" y1="158.184" x2="160.121" y2="149.759"/>
  <path class="uuid-8381aee4-e80b-47e8-8b1d-278944326928" d="M160.121,149.759c-1.708,3.712-2.687,7.083-2.735,11.163"/>
  <path class="uuid-8381aee4-e80b-47e8-8b1d-278944326928" d="M171.898,169.326c.122-4.107,1.049-7.426,2.786-11.142"/>
  <line class="uuid-85ad5753-c2d2-4596-98c9-f7b51a05e264" x1="218.409" y1="205.502" x2="268.754" y2="176.408"/>
  <line class="uuid-a5e0087b-02e6-4a89-9444-f3561ff2782e" x1="189.313" y1="365.263" x2="173.338" y2="337.609"/>
  <line class="uuid-a5e0087b-02e6-4a89-9444-f3561ff2782e" x1="209.589" y1="355.149" x2="172.73" y2="291.271"/>
  <line class="uuid-a5e0087b-02e6-4a89-9444-f3561ff2782e" x1="228.178" y1="342.154" x2="221.143" y2="330.015"/>
  <line class="uuid-a5e0087b-02e6-4a89-9444-f3561ff2782e" x1="205.756" y1="303.362" x2="190.365" y2="276.709"/>
  <line class="uuid-a5e0087b-02e6-4a89-9444-f3561ff2782e" x1="183.109" y1="264.154" x2="173.631" y2="247.737"/>
  <line class="uuid-a5e0087b-02e6-4a89-9444-f3561ff2782e" x1="247.671" y1="330.843" x2="241.589" y2="320.268"/>
  <line class="uuid-a5e0087b-02e6-4a89-9444-f3561ff2782e" x1="216.747" y1="277.224" x2="210.275" y2="266.012"/>
  <line class="uuid-a5e0087b-02e6-4a89-9444-f3561ff2782e" x1="183.109" y1="219.038" x2="173.631" y2="202.595"/>
  <line class="uuid-a5e0087b-02e6-4a89-9444-f3561ff2782e" x1="267.433" y1="319.849" x2="255.758" y2="299.575"/>
  <line class="uuid-a5e0087b-02e6-4a89-9444-f3561ff2782e" x1="233.918" y1="261.784" x2="229.915" y2="254.919"/>
  <line class="uuid-a5e0087b-02e6-4a89-9444-f3561ff2782e" x1="183.452" y1="174.381" x2="175.438" y2="160.554"/>
  <line class="uuid-a5e0087b-02e6-4a89-9444-f3561ff2782e" x1="286.879" y1="308.343" x2="248.381" y2="241.681"/>
  <line class="uuid-a5e0087b-02e6-4a89-9444-f3561ff2782e" x1="200.528" y1="158.894" x2="191.708" y2="143.552"/>
  <line class="uuid-a5e0087b-02e6-4a89-9444-f3561ff2782e" x1="292.497" y1="272.999" x2="268.364" y2="231.176"/>
  <line class="uuid-a5e0087b-02e6-4a89-9444-f3561ff2782e" x1="220.094" y1="147.559" x2="211.276" y2="132.267"/>
  <line class="uuid-a5e0087b-02e6-4a89-9444-f3561ff2782e" x1="291.938" y1="226.83" x2="285.661" y2="215.958"/>
  <line class="uuid-a5e0087b-02e6-4a89-9444-f3561ff2782e" x1="239.662" y1="136.3" x2="230.842" y2="121.03"/>
  <line class="uuid-a5e0087b-02e6-4a89-9444-f3561ff2782e" x1="291.938" y1="181.711" x2="285.83" y2="171.132"/>
  <line class="uuid-a5e0087b-02e6-4a89-9444-f3561ff2782e" x1="259.181" y1="125.037" x2="250.361" y2="109.746"/>
  <line class="uuid-a5e0087b-02e6-4a89-9444-f3561ff2782e" x1="291.938" y1="136.591" x2="285.83" y2="125.964"/>
  <line class="uuid-a5e0087b-02e6-4a89-9444-f3561ff2782e" x1="278.869" y1="113.922" x2="269.928" y2="98.436"/>
  <line class="uuid-a5e0087b-02e6-4a89-9444-f3561ff2782e" x1="170.113" y1="351.68" x2="160.172" y2="357.422"/>
  <line class="uuid-a5e0087b-02e6-4a89-9444-f3561ff2782e" x1="170.161" y1="338.662" x2="158.999" y2="345.06"/>
  <line class="uuid-a5e0087b-02e6-4a89-9444-f3561ff2782e" x1="170.161" y1="325.614" x2="158.999" y2="332.038"/>
  <line class="uuid-a5e0087b-02e6-4a89-9444-f3561ff2782e" x1="170.161" y1="312.523" x2="158.999" y2="318.97"/>
  <line class="uuid-a5e0087b-02e6-4a89-9444-f3561ff2782e" x1="170.161" y1="299.527" x2="158.999" y2="305.975"/>
  <line class="uuid-a5e0087b-02e6-4a89-9444-f3561ff2782e" x1="170.161" y1="286.455" x2="158.999" y2="292.905"/>
  <line class="uuid-a5e0087b-02e6-4a89-9444-f3561ff2782e" x1="170.161" y1="273.464" x2="158.999" y2="279.883"/>
  <line class="uuid-a5e0087b-02e6-4a89-9444-f3561ff2782e" x1="170.161" y1="260.39" x2="158.999" y2="266.84"/>
  <line class="uuid-a5e0087b-02e6-4a89-9444-f3561ff2782e" x1="170.209" y1="247.372" x2="158.999" y2="253.818"/>
  <line class="uuid-a5e0087b-02e6-4a89-9444-f3561ff2782e" x1="170.209" y1="234.304" x2="158.999" y2="240.754"/>
  <line class="uuid-a5e0087b-02e6-4a89-9444-f3561ff2782e" x1="170.209" y1="221.309" x2="158.999" y2="227.754"/>
  <line class="uuid-a5e0087b-02e6-4a89-9444-f3561ff2782e" x1="170.209" y1="208.239" x2="159.073" y2="214.689"/>
  <line class="uuid-a5e0087b-02e6-4a89-9444-f3561ff2782e" x1="170.209" y1="195.217" x2="159.073" y2="201.689"/>
  <line class="uuid-a5e0087b-02e6-4a89-9444-f3561ff2782e" x1="170.209" y1="182.174" x2="159.073" y2="188.623"/>
  <line class="uuid-a5e0087b-02e6-4a89-9444-f3561ff2782e" x1="170.209" y1="169.152" x2="159.073" y2="175.603"/>
  <line class="uuid-a5e0087b-02e6-4a89-9444-f3561ff2782e" x1="168.944" y1="156.842" x2="159.073" y2="162.534"/>
  <line class="uuid-a5e0087b-02e6-4a89-9444-f3561ff2782e" x1="174.806" y1="154.299" x2="174.806" y2="136.638"/>
  <line class="uuid-a5e0087b-02e6-4a89-9444-f3561ff2782e" x1="197.4" y1="136.638" x2="197.4" y2="123.742"/>
  <line class="uuid-a5e0087b-02e6-4a89-9444-f3561ff2782e" x1="219.973" y1="123.647" x2="219.973" y2="110.72"/>
  <line class="uuid-a5e0087b-02e6-4a89-9444-f3561ff2782e" x1="242.568" y1="110.552" x2="242.568" y2="97.678"/>
  <line class="uuid-a5e0087b-02e6-4a89-9444-f3561ff2782e" x1="265.116" y1="97.556" x2="265.116" y2="84.656"/>
</svg>