<?xml version="1.0" encoding="UTF-8"?>
<svg id="uuid-cc5b4f3b-be1d-431d-bbbb-397a4823a60e" data-name="&amp;lt;Layer&amp;gt;" xmlns="http://www.w3.org/2000/svg" viewBox="0 0 451.11 451.11">
  <defs>
    <style>
      .uuid-38f369ff-9250-4569-a9bd-e61bdfbcaca1, .uuid-7a0e4027-2e01-476d-afa6-c9462375dcf3, .uuid-ad3bd74f-2d38-481c-9e6a-283566b64e88, .uuid-9bf6cbaf-506d-4087-8103-bb09a9d506e5 {
        fill: none;
        stroke: #000;
        stroke-linecap: round;
      }

      .uuid-38f369ff-9250-4569-a9bd-e61bdfbcaca1, .uuid-ad3bd74f-2d38-481c-9e6a-283566b64e88 {
        stroke-width: 4.113px;
      }

      .uuid-38f369ff-9250-4569-a9bd-e61bdfbcaca1, .uuid-ad3bd74f-2d38-481c-9e6a-283566b64e88, .uuid-9bf6cbaf-506d-4087-8103-bb09a9d506e5 {
        stroke-linejoin: round;
      }

      .uuid-7a0e4027-2e01-476d-afa6-c9462375dcf3 {
        stroke-miterlimit: 10;
        stroke-width: 1.163px;
      }

      .uuid-ad3bd74f-2d38-481c-9e6a-283566b64e88, .uuid-9bf6cbaf-506d-4087-8103-bb09a9d506e5 {
        fill-rule: evenodd;
      }

      .uuid-9bf6cbaf-506d-4087-8103-bb09a9d506e5 {
        stroke-width: 4.117px;
      }
    </style>
  </defs>
  <line class="uuid-38f369ff-9250-4569-a9bd-e61bdfbcaca1" x1="241.96" y1="365.919" x2="239.589" y2="370.534"/>
  <line class="uuid-38f369ff-9250-4569-a9bd-e61bdfbcaca1" x1="326.578" y1="222.476" x2="375.285" y2="222.476"/>
  <line class="uuid-38f369ff-9250-4569-a9bd-e61bdfbcaca1" x1="299.806" y1="148.604" x2="334.639" y2="113.82"/>
  <line class="uuid-38f369ff-9250-4569-a9bd-e61bdfbcaca1" x1="124.606" y1="222.476" x2="75.825" y2="222.476"/>
  <line class="uuid-38f369ff-9250-4569-a9bd-e61bdfbcaca1" x1="151.355" y1="148.604" x2="116.522" y2="113.82"/>
  <line class="uuid-38f369ff-9250-4569-a9bd-e61bdfbcaca1" x1="225.52" y1="123.956" x2="225.52" y2="74.296"/>
  <line class="uuid-38f369ff-9250-4569-a9bd-e61bdfbcaca1" x1="245.967" y1="210.822" x2="244.866" y2="217.737"/>
  <path class="uuid-ad3bd74f-2d38-481c-9e6a-283566b64e88" d="M238.295,214.877c.463-2.98,2.638-6.303,4.713-7.425,2.152-1.123,3.495.389,2.958,3.37"/>
  <line class="uuid-38f369ff-9250-4569-a9bd-e61bdfbcaca1" x1="237.147" y1="221.766" x2="238.295" y2="214.877"/>
  <path class="uuid-ad3bd74f-2d38-481c-9e6a-283566b64e88" d="M244.866,217.737c-.515,2.98-2.615,6.302-4.765,7.424-2.1,1.099-3.418-.413-2.954-3.395"/>
  <line class="uuid-38f369ff-9250-4569-a9bd-e61bdfbcaca1" x1="237.147" y1="221.766" x2="236.805" y2="223.866"/>
  <line class="uuid-38f369ff-9250-4569-a9bd-e61bdfbcaca1" x1="238.663" y1="212.707" x2="238.295" y2="214.877"/>
  <path class="uuid-ad3bd74f-2d38-481c-9e6a-283566b64e88" d="M230.94,216.783c.515-2.98,2.617-6.302,4.739-7.424,2.101-1.125,3.447.391,2.984,3.349"/>
  <line class="uuid-38f369ff-9250-4569-a9bd-e61bdfbcaca1" x1="229.133" y1="227.925" x2="230.94" y2="216.783"/>
  <path class="uuid-ad3bd74f-2d38-481c-9e6a-283566b64e88" d="M236.805,223.866c-.465,2.984-2.565,6.329-4.714,7.429-2.078,1.123-3.421-.393-2.958-3.37"/>
  <line class="uuid-38f369ff-9250-4569-a9bd-e61bdfbcaca1" x1="229.133" y1="227.925" x2="228.595" y2="231.026"/>
  <path class="uuid-ad3bd74f-2d38-481c-9e6a-283566b64e88" d="M223.441,219.69c.515-2.98,2.617-6.277,4.765-7.425,2.076-1.101,3.421.389,2.954,3.37"/>
  <line class="uuid-38f369ff-9250-4569-a9bd-e61bdfbcaca1" x1="220.95" y1="235.081" x2="223.441" y2="219.69"/>
  <path class="uuid-ad3bd74f-2d38-481c-9e6a-283566b64e88" d="M228.595,231.026c-.463,2.956-2.586,6.303-4.691,7.426-2.148,1.099-3.444-.417-2.954-3.371"/>
  <line class="uuid-38f369ff-9250-4569-a9bd-e61bdfbcaca1" x1="223.026" y1="222.376" x2="221.171" y2="233.543"/>
  <path class="uuid-ad3bd74f-2d38-481c-9e6a-283566b64e88" d="M215.31,226.435c.533-2.98,2.612-6.303,4.761-7.429,2.1-1.123,3.422.415,2.954,3.37"/>
  <line class="uuid-38f369ff-9250-4569-a9bd-e61bdfbcaca1" x1="213.5" y1="237.572" x2="215.31" y2="226.435"/>
  <path class="uuid-ad3bd74f-2d38-481c-9e6a-283566b64e88" d="M221.171,233.543c-.463,2.976-2.612,6.303-4.691,7.4-2.174,1.125-3.443-.391-2.98-3.371"/>
  <line class="uuid-38f369ff-9250-4569-a9bd-e61bdfbcaca1" x1="214.843" y1="229.242" x2="213.742" y2="236.182"/>
  <path class="uuid-ad3bd74f-2d38-481c-9e6a-283566b64e88" d="M207.171,233.296c.467-2.98,2.617-6.277,4.717-7.425,2.149-1.101,3.47.389,2.956,3.371"/>
  <line class="uuid-38f369ff-9250-4569-a9bd-e61bdfbcaca1" x1="206.075" y1="240.21" x2="207.171" y2="233.296"/>
  <path class="uuid-ad3bd74f-2d38-481c-9e6a-283566b64e88" d="M213.742,236.182c-.463,2.954-2.613,6.277-4.713,7.399-2.149,1.127-3.492-.389-2.954-3.37"/>
  <path class="uuid-ad3bd74f-2d38-481c-9e6a-283566b64e88" d="M244.402,219.153c-.121.389-.243.758-.343,1.147-5.816,21.278-11.556,48.491-12.557,69.059-.048.931-.096,1.809-.096,2.663-.074,1.123-.074,2.174-.074,3.197"/>
  <path class="uuid-ad3bd74f-2d38-481c-9e6a-283566b64e88" d="M206.075,239.82c0,.048.047.048.047.122.537,1.269,1.049,2.615,1.516,3.959,5.35,14.095,8.842,30.361,10.163,45.533.337,3.37.536,6.67.536,9.919.096,1.173.096,2.27.096,3.37"/>
  <path class="uuid-ad3bd74f-2d38-481c-9e6a-283566b64e88" d="M230.623,292.217c.247-.121.489-.195.784-.195.437-.048.975,0,1.391.195"/>
  <polyline class="uuid-ad3bd74f-2d38-481c-9e6a-283566b64e88" points="211.472 303.308 218.337 299.353 230.623 292.217"/>
  <line class="uuid-38f369ff-9250-4569-a9bd-e61bdfbcaca1" x1="218.68" y1="307.487" x2="237.831" y2="296.394"/>
  <path class="uuid-ad3bd74f-2d38-481c-9e6a-283566b64e88" d="M216.528,307.487c.051.048.125.048.221.096"/>
  <polyline class="uuid-ad3bd74f-2d38-481c-9e6a-283566b64e88" points="211.472 304.529 215.016 306.608 216.406 307.411 216.528 307.487"/>
  <path class="uuid-9bf6cbaf-506d-4087-8103-bb09a9d506e5" d="M193.174,322.338c8.651,7.653,22.098,10.391,33.192,10.118,11.127-.276,33.526-4.952,36.087-19.644"/>
  <path class="uuid-ad3bd74f-2d38-481c-9e6a-283566b64e88" d="M187.435,311.759c0,.126.048.321.048.415.68,4.25,2.601,7.242,5.692,10.163"/>
  <polyline class="uuid-ad3bd74f-2d38-481c-9e6a-283566b64e88" points="187.557 325.881 187.435 324.854 187.435 311.759"/>
  <path class="uuid-ad3bd74f-2d38-481c-9e6a-283566b64e88" d="M262.574,324.854c-.121,1.737-.684,3.542-1.563,5.154,0,0,.051.074,0,.074-.343.684-.754,1.316-1.145,1.905-.71.927-1.468,1.855-2.274,2.66-.758.832-1.589,1.516-2.443,2.224-5.593,4.228-13.142,6.67-19.471,7.77-12.286,2.102-27.871.585-38.596-6.255-.754-.489-1.512-1.001-2.222-1.585-.876-.684-1.686-1.395-2.444-2.153-1.39-1.39-2.539-2.906-3.418-4.565-.585-1.111-1.063-2.292-1.328-3.558-.041-.214-.082-.427-.114-.644"/>
  <line class="uuid-38f369ff-9250-4569-a9bd-e61bdfbcaca1" x1="262.574" y1="311.759" x2="262.574" y2="324.854"/>
  <polyline class="uuid-ad3bd74f-2d38-481c-9e6a-283566b64e88" points="238.295 295.857 238.295 307.241 238.243 307.315 238.243 307.411 238.122 307.535 238.073 307.657 237.953 307.704 237.831 307.778 224.42 315.497 218.68 318.798 218.559 318.868 218.433 318.919 218.337 318.967 218.217 319.041 218.044 319.041 217.922 319.089 217.337 319.089 217.164 319.041 217.043 319.041 216.873 318.967 216.749 318.919 216.653 318.868 216.406 318.746 215.016 317.94 211.472 315.912 211.35 315.84 211.252 315.792 211.178 315.67 211.083 315.545 211.083 315.423"/>
  <path class="uuid-ad3bd74f-2d38-481c-9e6a-283566b64e88" d="M217.801,289.433c4.543-.487,9.183-.537,13.702-.074"/>
  <line class="uuid-38f369ff-9250-4569-a9bd-e61bdfbcaca1" x1="211.083" y1="315.545" x2="211.009" y2="303.992"/>
  <path class="uuid-ad3bd74f-2d38-481c-9e6a-283566b64e88" d="M189.167,341.051c-1.733-3.618-1.733-7.378-.169-10.968"/>
  <path class="uuid-ad3bd74f-2d38-481c-9e6a-283566b64e88" d="M261.012,330.083c1.637,3.59,1.563,7.425-.17,11.016-1.637,3.492-4.765,6.791-9.526,9.526-14.51,8.355-38.085,8.355-52.57,0-4.761-2.735-7.94-6.034-9.578-9.526"/>
  <path class="uuid-ad3bd74f-2d38-481c-9e6a-283566b64e88" d="M217.801,289.433c-7.087.578-13.88,2.648-19.398,5.96-7.767,4.543-11.432,10.529-10.968,16.391"/>
  <line class="uuid-38f369ff-9250-4569-a9bd-e61bdfbcaca1" x1="211.472" y1="303.308" x2="218.337" y2="299.353"/>
  <path class="uuid-ad3bd74f-2d38-481c-9e6a-283566b64e88" d="M211.009,303.992c0-.221.121-.511.463-.684"/>
  <polyline class="uuid-ad3bd74f-2d38-481c-9e6a-283566b64e88" points="238.295 295.857 238.295 307.241 238.243 307.315 238.243 307.411 238.122 307.535 238.073 307.657 237.953 307.704 237.831 307.778 224.42 315.497 218.68 318.798 218.559 318.868 218.433 318.919 218.337 318.967 218.217 319.041 218.044 319.041 217.922 319.089 217.337 319.089 217.164 319.041 217.043 319.041 216.873 318.967 216.749 318.919 216.653 318.868 216.406 318.746 215.016 317.94 211.472 315.912 211.35 315.84 211.252 315.792 211.178 315.67 211.083 315.545 211.083 315.423 211.009 315.376 211.009 303.992"/>
  <path class="uuid-ad3bd74f-2d38-481c-9e6a-283566b64e88" d="M237.831,295.176c.369.17.465.465.465.681"/>
  <line class="uuid-38f369ff-9250-4569-a9bd-e61bdfbcaca1" x1="232.798" y1="292.217" x2="237.831" y2="295.176"/>
  <path class="uuid-ad3bd74f-2d38-481c-9e6a-283566b64e88" d="M262.574,311.785c.467-5.862-3.197-11.848-10.968-16.391-5.692-3.297-12.727-5.276-20.103-6.034"/>
  <path class="uuid-ad3bd74f-2d38-481c-9e6a-283566b64e88" d="M257.276,322.061c2.428-.471,4.055-2.447,5.298-3.73,6.866-7.131,6.034-13.922,8.477-22.644,4.129-14.584,9.405-16.365,16.904-29.144,11.851-20.324,23.282-42.92,12.777-76.019-10.747-34.031-43.261-51.055-75.728-51.055s-64.93,17.024-75.725,51.055c-10.505,33.099.927,55.695,12.775,76.019,7.499,12.779,12.775,14.56,16.903,29.144,2.443,8.721,2.149,15.049,8.477,22.644,1.516,1.809,3.544,3.355,5.74,4.007"/>
  <line class="uuid-38f369ff-9250-4569-a9bd-e61bdfbcaca1" x1="189.167" y1="341.099" x2="189.167" y2="341.051"/>
  <path class="uuid-9bf6cbaf-506d-4087-8103-bb09a9d506e5" d="M260.842,341.099c3.422,7.208.221,15.266-9.526,20.909-2.858,1.637-5.986,2.906-9.356,3.9-6.223,1.85-13.154,2.615-20.233,2.281-4.588-.389-9.272-.832-13.676-2.296-3.367-.979-6.494-2.248-9.305-3.885-9.795-5.644-12.996-13.702-9.578-20.909"/>
  <polyline class="uuid-ad3bd74f-2d38-481c-9e6a-283566b64e88" points="241.96 365.893 241.96 365.967 241.908 365.967"/>
  <line class="uuid-38f369ff-9250-4569-a9bd-e61bdfbcaca1" x1="210.372" y1="370.534" x2="207.981" y2="365.919"/>
  <path class="uuid-ad3bd74f-2d38-481c-9e6a-283566b64e88" d="M239.589,370.534c-2.027,3.638-6.398,5.18-10.283,5.912-3.716.589-7.035.489-10.747-.441-3.202-.927-6.502-2.443-8.188-5.471"/>
  <line class="uuid-7a0e4027-2e01-476d-afa6-c9462375dcf3" x1="256.541" y1="338.239" x2="250.216" y2="349.137"/>
  <line class="uuid-7a0e4027-2e01-476d-afa6-c9462375dcf3" x1="246.967" y1="354.753" x2="241.569" y2="364.134"/>
  <line class="uuid-7a0e4027-2e01-476d-afa6-c9462375dcf3" x1="248.115" y1="330.177" x2="241.617" y2="341.44"/>
  <line class="uuid-7a0e4027-2e01-476d-afa6-c9462375dcf3" x1="239.126" y1="345.79" x2="234.115" y2="354.436"/>
  <line class="uuid-7a0e4027-2e01-476d-afa6-c9462375dcf3" x1="231.844" y1="358.322" x2="227.279" y2="366.357"/>
  <line class="uuid-7a0e4027-2e01-476d-afa6-c9462375dcf3" x1="225.005" y1="370.195" x2="222.392" y2="374.761"/>
  <line class="uuid-7a0e4027-2e01-476d-afa6-c9462375dcf3" x1="232.676" y1="334.405" x2="227.279" y2="343.71"/>
  <line class="uuid-7a0e4027-2e01-476d-afa6-c9462375dcf3" x1="225.178" y1="347.306" x2="220.781" y2="354.973"/>
  <line class="uuid-7a0e4027-2e01-476d-afa6-c9462375dcf3" x1="218.802" y1="358.369" x2="214.673" y2="365.578"/>
  <line class="uuid-7a0e4027-2e01-476d-afa6-c9462375dcf3" x1="212.646" y1="369.094" x2="212.278" y2="369.654"/>
  <line class="uuid-7a0e4027-2e01-476d-afa6-c9462375dcf3" x1="219.36" y1="334.844" x2="214.721" y2="342.882"/>
  <line class="uuid-7a0e4027-2e01-476d-afa6-c9462375dcf3" x1="212.816" y1="346.205" x2="208.907" y2="352.898"/>
  <line class="uuid-7a0e4027-2e01-476d-afa6-c9462375dcf3" x1="207.076" y1="356.121" x2="203.51" y2="362.329"/>
  <line class="uuid-7a0e4027-2e01-476d-afa6-c9462375dcf3" x1="207.517" y1="332.768" x2="203.51" y2="339.681"/>
  <line class="uuid-7a0e4027-2e01-476d-afa6-c9462375dcf3" x1="201.652" y1="342.882" x2="198.525" y2="348.329"/>
  <line class="uuid-7a0e4027-2e01-476d-afa6-c9462375dcf3" x1="196.67" y1="351.556" x2="194.055" y2="356.099"/>
  <line class="uuid-7a0e4027-2e01-476d-afa6-c9462375dcf3" x1="196.961" y1="328.445" x2="194.055" y2="333.552"/>
  <line class="uuid-7a0e4027-2e01-476d-afa6-c9462375dcf3" x1="192.075" y1="336.97" x2="190.635" y2="339.413"/>
  <line class="uuid-7a0e4027-2e01-476d-afa6-c9462375dcf3" x1="223.026" y1="330.936" x2="188.365" y2="310.931"/>
  <line class="uuid-7a0e4027-2e01-476d-afa6-c9462375dcf3" x1="241.665" y1="328.641" x2="223.146" y2="317.94"/>
  <line class="uuid-7a0e4027-2e01-476d-afa6-c9462375dcf3" x1="209.493" y1="310.074" x2="193.591" y2="300.891"/>
  <line class="uuid-7a0e4027-2e01-476d-afa6-c9462375dcf3" x1="254.149" y1="322.801" x2="234.413" y2="311.417"/>
  <line class="uuid-7a0e4027-2e01-476d-afa6-c9462375dcf3" x1="214.21" y1="299.716" x2="204.852" y2="294.319"/>
  <line class="uuid-7a0e4027-2e01-476d-afa6-c9462375dcf3" x1="260.938" y1="313.716" x2="239.711" y2="301.427"/>
  <line class="uuid-7a0e4027-2e01-476d-afa6-c9462375dcf3" x1="225.347" y1="301.354" x2="222.051" y2="299.473"/>
  <line class="uuid-7a0e4027-2e01-476d-afa6-c9462375dcf3" x1="221.293" y1="315.18" x2="221.293" y2="308.121"/>
  <line class="uuid-7a0e4027-2e01-476d-afa6-c9462375dcf3" x1="232.554" y1="308.683" x2="232.554" y2="301.601"/>
</svg>