<?xml version="1.0" encoding="UTF-8"?>
<svg id="uuid-676b167a-9b68-482f-9748-238d0e4cd46a" data-name="&amp;lt;Layer&amp;gt;" xmlns="http://www.w3.org/2000/svg" viewBox="0 0 451.11 451.11">
  <defs>
    <style>
      .uuid-2d1ceca0-7121-4780-bed6-1dd57486df31, .uuid-860dfed2-c3f2-49fb-a0fc-05a642710790, .uuid-107f2e71-fd6b-4bb7-9719-66b1789d6f9f {
        fill: none;
        stroke: #000;
        stroke-linecap: round;
      }

      .uuid-2d1ceca0-7121-4780-bed6-1dd57486df31, .uuid-107f2e71-fd6b-4bb7-9719-66b1789d6f9f {
        stroke-linejoin: round;
        stroke-width: 4.113px;
      }

      .uuid-860dfed2-c3f2-49fb-a0fc-05a642710790 {
        stroke-miterlimit: 10;
        stroke-width: 1.163px;
      }

      .uuid-107f2e71-fd6b-4bb7-9719-66b1789d6f9f {
        fill-rule: evenodd;
      }
    </style>
  </defs>
  <path class="uuid-107f2e71-fd6b-4bb7-9719-66b1789d6f9f" d="M308.109,228.292l30.413,17.613M112.635,300.598l31.755-18.346"/>
  <polyline class="uuid-107f2e71-fd6b-4bb7-9719-66b1789d6f9f" points="178.149 359.397 112.587 321.507 112.587 300.624 178.149 338.484"/>
  <polygon class="uuid-107f2e71-fd6b-4bb7-9719-66b1789d6f9f" points="178.149 338.484 338.522 245.926 338.522 266.814 178.149 359.397 178.149 338.484"/>
  <line class="uuid-2d1ceca0-7121-4780-bed6-1dd57486df31" x1="186.969" y1="116.287" x2="186.969" y2="204.084"/>
  <polyline class="uuid-107f2e71-fd6b-4bb7-9719-66b1789d6f9f" points="222.976 137.076 186.969 116.313 229.546 91.712 265.531 112.501"/>
  <polyline class="uuid-107f2e71-fd6b-4bb7-9719-66b1789d6f9f" points="222.976 224.847 186.969 204.059 144.391 228.633"/>
  <polyline class="uuid-107f2e71-fd6b-4bb7-9719-66b1789d6f9f" points="180.397 249.422 144.391 228.633 144.391 300.135 180.397 320.945"/>
  <line class="uuid-2d1ceca0-7121-4780-bed6-1dd57486df31" x1="265.531" y1="271.795" x2="265.531" y2="167.953"/>
  <polyline class="uuid-107f2e71-fd6b-4bb7-9719-66b1789d6f9f" points="265.531 126.403 272.102 122.616 308.109 143.404"/>
  <polyline class="uuid-107f2e71-fd6b-4bb7-9719-66b1789d6f9f" points="265.531 167.979 308.109 143.404 308.109 247.2 265.531 271.771"/>
  <polyline class="uuid-107f2e71-fd6b-4bb7-9719-66b1789d6f9f" points="222.976 224.847 180.397 249.422 180.397 320.945 222.976 296.348"/>
  <polygon class="uuid-107f2e71-fd6b-4bb7-9719-66b1789d6f9f" points="222.976 296.348 222.976 137.076 265.531 112.501 265.531 271.771 222.976 296.348"/>
  <line class="uuid-860dfed2-c3f2-49fb-a0fc-05a642710790" x1="123.897" y1="304.826" x2="120.134" y2="298.376"/>
  <line class="uuid-860dfed2-c3f2-49fb-a0fc-05a642710790" x1="143.755" y1="316.72" x2="129.59" y2="292.121"/>
  <line class="uuid-860dfed2-c3f2-49fb-a0fc-05a642710790" x1="163.274" y1="327.933" x2="150.253" y2="305.363"/>
  <line class="uuid-860dfed2-c3f2-49fb-a0fc-05a642710790" x1="142.485" y1="291.878" x2="139.7" y2="287.139"/>
  <line class="uuid-860dfed2-c3f2-49fb-a0fc-05a642710790" x1="180.692" y1="335.482" x2="169.893" y2="316.794"/>
  <line class="uuid-860dfed2-c3f2-49fb-a0fc-05a642710790" x1="190.292" y1="329.521" x2="184.942" y2="320.286"/>
  <line class="uuid-860dfed2-c3f2-49fb-a0fc-05a642710790" x1="200.039" y1="323.878" x2="194.736" y2="314.668"/>
  <line class="uuid-860dfed2-c3f2-49fb-a0fc-05a642710790" x1="209.832" y1="318.237" x2="204.509" y2="309.023"/>
  <line class="uuid-860dfed2-c3f2-49fb-a0fc-05a642710790" x1="219.605" y1="312.593" x2="214.256" y2="303.358"/>
  <line class="uuid-860dfed2-c3f2-49fb-a0fc-05a642710790" x1="229.425" y1="306.949" x2="224.075" y2="297.739"/>
  <line class="uuid-860dfed2-c3f2-49fb-a0fc-05a642710790" x1="239.172" y1="301.308" x2="233.822" y2="292.073"/>
  <line class="uuid-860dfed2-c3f2-49fb-a0fc-05a642710790" x1="248.919" y1="295.664" x2="243.642" y2="286.429"/>
  <line class="uuid-860dfed2-c3f2-49fb-a0fc-05a642710790" x1="258.738" y1="290.019" x2="253.415" y2="280.784"/>
  <line class="uuid-860dfed2-c3f2-49fb-a0fc-05a642710790" x1="268.511" y1="284.379" x2="263.162" y2="275.144"/>
  <line class="uuid-860dfed2-c3f2-49fb-a0fc-05a642710790" x1="278.258" y1="278.736" x2="272.908" y2="269.478"/>
  <line class="uuid-860dfed2-c3f2-49fb-a0fc-05a642710790" x1="288.078" y1="273.091" x2="282.728" y2="263.833"/>
  <line class="uuid-860dfed2-c3f2-49fb-a0fc-05a642710790" x1="297.825" y1="267.451" x2="292.475" y2="258.216"/>
  <line class="uuid-860dfed2-c3f2-49fb-a0fc-05a642710790" x1="307.598" y1="261.78" x2="302.295" y2="252.549"/>
  <line class="uuid-860dfed2-c3f2-49fb-a0fc-05a642710790" x1="317.439" y1="256.262" x2="309.962" y2="243.313"/>
  <line class="uuid-860dfed2-c3f2-49fb-a0fc-05a642710790" x1="327.26" y1="250.665" x2="319.25" y2="236.791"/>
  <line class="uuid-860dfed2-c3f2-49fb-a0fc-05a642710790" x1="181.865" y1="354.975" x2="180.229" y2="354.048"/>
  <line class="uuid-860dfed2-c3f2-49fb-a0fc-05a642710790" x1="193.515" y1="348.698" x2="179.812" y2="340.784"/>
  <line class="uuid-860dfed2-c3f2-49fb-a0fc-05a642710790" x1="204.85" y1="342.198" x2="189.927" y2="333.55"/>
  <line class="uuid-860dfed2-c3f2-49fb-a0fc-05a642710790" x1="216.187" y1="335.678" x2="201.186" y2="327.053"/>
  <line class="uuid-860dfed2-c3f2-49fb-a0fc-05a642710790" x1="227.446" y1="329.154" x2="212.522" y2="320.533"/>
  <line class="uuid-860dfed2-c3f2-49fb-a0fc-05a642710790" x1="238.755" y1="322.634" x2="223.784" y2="314.009"/>
  <line class="uuid-860dfed2-c3f2-49fb-a0fc-05a642710790" x1="250.044" y1="316.11" x2="235.043" y2="307.485"/>
  <line class="uuid-860dfed2-c3f2-49fb-a0fc-05a642710790" x1="261.303" y1="309.613" x2="246.38" y2="300.965"/>
  <line class="uuid-860dfed2-c3f2-49fb-a0fc-05a642710790" x1="272.614" y1="303.089" x2="257.643" y2="294.443"/>
  <line class="uuid-860dfed2-c3f2-49fb-a0fc-05a642710790" x1="283.899" y1="296.569" x2="268.902" y2="287.919"/>
  <line class="uuid-860dfed2-c3f2-49fb-a0fc-05a642710790" x1="295.161" y1="290.045" x2="280.233" y2="281.421"/>
  <line class="uuid-860dfed2-c3f2-49fb-a0fc-05a642710790" x1="306.471" y1="283.547" x2="291.5" y2="274.901"/>
  <line class="uuid-860dfed2-c3f2-49fb-a0fc-05a642710790" x1="317.756" y1="276.999" x2="302.833" y2="268.378"/>
  <line class="uuid-860dfed2-c3f2-49fb-a0fc-05a642710790" x1="329.066" y1="270.504" x2="314.091" y2="261.854"/>
  <line class="uuid-860dfed2-c3f2-49fb-a0fc-05a642710790" x1="336.86" y1="261.98" x2="325.479" y2="255.408"/>
  <line class="uuid-860dfed2-c3f2-49fb-a0fc-05a642710790" x1="176.464" y1="345.766" x2="167.281" y2="351.042"/>
  <line class="uuid-860dfed2-c3f2-49fb-a0fc-05a642710790" x1="170.777" y1="335.993" x2="155.848" y2="344.64"/>
  <line class="uuid-860dfed2-c3f2-49fb-a0fc-05a642710790" x1="159.488" y1="329.495" x2="144.513" y2="338.121"/>
  <line class="uuid-860dfed2-c3f2-49fb-a0fc-05a642710790" x1="148.251" y1="322.976" x2="133.254" y2="331.597"/>
  <line class="uuid-860dfed2-c3f2-49fb-a0fc-05a642710790" x1="136.918" y1="316.452" x2="121.991" y2="325.077"/>
  <line class="uuid-860dfed2-c3f2-49fb-a0fc-05a642710790" x1="125.531" y1="310.002" x2="114.32" y2="316.452"/>
  <line class="uuid-860dfed2-c3f2-49fb-a0fc-05a642710790" x1="252.072" y1="106.272" x2="241.615" y2="124.371"/>
  <line class="uuid-860dfed2-c3f2-49fb-a0fc-05a642710790" x1="232.843" y1="94.425" x2="212.276" y2="130.041"/>
  <line class="uuid-860dfed2-c3f2-49fb-a0fc-05a642710790" x1="195.741" y1="113.55" x2="193.297" y2="117.703"/>
  <line class="uuid-860dfed2-c3f2-49fb-a0fc-05a642710790" x1="276.404" y1="160.013" x2="267.337" y2="144.332"/>
  <line class="uuid-860dfed2-c3f2-49fb-a0fc-05a642710790" x1="286.44" y1="154.837" x2="269.365" y2="125.28"/>
  <line class="uuid-860dfed2-c3f2-49fb-a0fc-05a642710790" x1="295.966" y1="148.728" x2="286.953" y2="133.194"/>
  <line class="uuid-860dfed2-c3f2-49fb-a0fc-05a642710790" x1="277.622" y1="262.833" x2="267.289" y2="256.894"/>
  <line class="uuid-860dfed2-c3f2-49fb-a0fc-05a642710790" x1="289.3" y1="256.552" x2="266.922" y2="243.656"/>
  <line class="uuid-860dfed2-c3f2-49fb-a0fc-05a642710790" x1="300.952" y1="250.276" x2="266.531" y2="230.392"/>
  <line class="uuid-860dfed2-c3f2-49fb-a0fc-05a642710790" x1="307.476" y1="240.993" x2="266.289" y2="217.224"/>
  <line class="uuid-860dfed2-c3f2-49fb-a0fc-05a642710790" x1="307.476" y1="227.949" x2="266.289" y2="204.18"/>
  <line class="uuid-860dfed2-c3f2-49fb-a0fc-05a642710790" x1="307.476" y1="214.905" x2="266.289" y2="191.158"/>
  <line class="uuid-860dfed2-c3f2-49fb-a0fc-05a642710790" x1="307.476" y1="201.884" x2="266.289" y2="178.115"/>
  <line class="uuid-860dfed2-c3f2-49fb-a0fc-05a642710790" x1="307.351" y1="188.768" x2="269.243" y2="166.779"/>
  <line class="uuid-860dfed2-c3f2-49fb-a0fc-05a642710790" x1="306.934" y1="175.503" x2="280.922" y2="160.48"/>
  <line class="uuid-860dfed2-c3f2-49fb-a0fc-05a642710790" x1="306.545" y1="162.235" x2="292.597" y2="154.199"/>
  <line class="uuid-860dfed2-c3f2-49fb-a0fc-05a642710790" x1="306.13" y1="148.997" x2="304.275" y2="147.922"/>
  <line class="uuid-860dfed2-c3f2-49fb-a0fc-05a642710790" x1="243.69" y1="282.763" x2="224.418" y2="271.649"/>
  <line class="uuid-860dfed2-c3f2-49fb-a0fc-05a642710790" x1="264.847" y1="268.915" x2="223.734" y2="245.172"/>
  <line class="uuid-860dfed2-c3f2-49fb-a0fc-05a642710790" x1="264.847" y1="242.85" x2="223.734" y2="219.107"/>
  <line class="uuid-860dfed2-c3f2-49fb-a0fc-05a642710790" x1="264.847" y1="216.786" x2="223.734" y2="193.043"/>
  <line class="uuid-860dfed2-c3f2-49fb-a0fc-05a642710790" x1="264.847" y1="190.721" x2="223.734" y2="166.952"/>
  <line class="uuid-860dfed2-c3f2-49fb-a0fc-05a642710790" x1="264.895" y1="164.656" x2="223.734" y2="140.888"/>
  <line class="uuid-860dfed2-c3f2-49fb-a0fc-05a642710790" x1="264.213" y1="138.175" x2="244.058" y2="126.549"/>
  <line class="uuid-860dfed2-c3f2-49fb-a0fc-05a642710790" x1="221.706" y1="196.483" x2="199.111" y2="209.53"/>
  <line class="uuid-860dfed2-c3f2-49fb-a0fc-05a642710790" x1="222.048" y1="170.201" x2="187.948" y2="189.911"/>
  <line class="uuid-860dfed2-c3f2-49fb-a0fc-05a642710790" x1="222.048" y1="144.137" x2="187.948" y2="163.847"/>
  <line class="uuid-860dfed2-c3f2-49fb-a0fc-05a642710790" x1="204.556" y1="128.183" x2="188.533" y2="137.417"/>
</svg>