<?xml version="1.0" encoding="UTF-8"?>
<svg id="uuid-0c13bff3-9886-4308-9220-5f2652d9a171" data-name="&amp;lt;Layer&amp;gt;" xmlns="http://www.w3.org/2000/svg" viewBox="0 0 451.11 451.11">
  <defs>
    <style>
      .uuid-139398b9-3a2c-41c8-bf37-7046224b46e7 {
        stroke-miterlimit: 10;
        stroke-width: 1.163px;
      }

      .uuid-139398b9-3a2c-41c8-bf37-7046224b46e7, .uuid-f5879124-dcd9-437f-a4fd-dccbd605288a {
        fill: none;
        stroke: #000;
        stroke-linecap: round;
      }

      .uuid-f5879124-dcd9-437f-a4fd-dccbd605288a {
        fill-rule: evenodd;
        stroke-linejoin: round;
        stroke-width: 4.113px;
      }
    </style>
  </defs>
  <path class="uuid-f5879124-dcd9-437f-a4fd-dccbd605288a" d="M263.547,278.898c.832-.489,1.516-.1,1.516.853,0,.976-.684,2.15-1.516,2.639-.853.489-1.512.099-1.512-.88,0-.953.659-2.126,1.512-2.612h0ZM263.547,261.333c.832-.489,1.516-.099,1.516.854,0,.979-.684,2.152-1.516,2.637-.853.489-1.512.074-1.512-.875,0-.979.659-2.153,1.512-2.617h0ZM271.635,142.004l-6.987,4.029v16.122l6.987-4.032v-16.12h0ZM153.281,347.735c-3.201-3.544-2.149-11.847-2.149-17.223M151.132,330.512v-150.721M151.132,179.791c0-9.037.633-15.486,7.668-22.963,4.228-4.544,24.965-15.56,31.536-19.373M190.337,137.455l81.004-46.485M271.341,90.97c2.2-.732,4.302-.78,6.329.295M277.67,91.265l18.808,10.843M296.478,102.108c-5.275-2.487-10.088,1.589-15.681,4.791M280.797,106.899l-98.376,56.82M182.421,163.719c-7.009,4.151-12.48,13.555-12.532,21.69M287.611,102.965c6.887-3.981,12.532-.732,12.532,7.256v166.308c0,7.962-5.645,17.735-12.532,21.716-36.544,21.105-68.668,39.624-105.19,60.728-6.909,3.981-12.532.732-12.532-7.23M243.274,305.401l40.551-23.402M283.825,281.999c1.101-.61,1.98-2.126,1.98-3.348M285.804,278.652v-40.282M285.804,238.37c0-1.221-.879-1.733-1.98-1.121M283.825,237.248l-40.551,23.426M243.274,260.675c-1.025.61-1.906,2.1-1.906,3.319M241.369,263.994v40.285M241.369,304.278c0,1.221.88,1.733,1.906,1.123M186.675,338.085l40.525-23.4M227.2,314.684c1.099-.637,1.979-2.124,1.979-3.345M229.179,311.339v-40.286M229.179,271.053c0-1.221-.88-1.733-1.979-1.121M227.2,269.932l-40.525,23.4M186.675,293.332c-1.053.611-1.931,2.127-1.931,3.349M184.743,296.681v40.281M184.743,336.962c0,1.243.879,1.733,1.931,1.123M283.825,180.012l-40.551,23.426M243.274,203.438c-1.025.611-1.906,2.101-1.906,3.349M241.369,206.787v40.277M241.369,247.064c0,1.223.88,1.737,1.906,1.101M243.274,248.164l40.551-23.4M283.825,224.764c1.101-.611,1.98-2.101,1.98-3.345M285.804,221.419v-40.286M285.804,181.133c0-1.217-.879-1.733-1.98-1.121M227.2,212.721l-40.525,23.4M186.675,236.122c-1.053.611-1.931,2.101-1.931,3.349M184.743,239.47v40.281M184.743,279.751c0,1.223.879,1.737,1.931,1.101M186.675,280.852l40.525-23.404M227.2,257.448c1.099-.611,1.979-2.101,1.979-3.345M229.179,254.103v-40.285M229.179,213.818c0-1.219-.88-1.734-1.979-1.097M186.428,217.312l97.154-56.11M283.582,161.202c1.049-.61,1.927-2.1,1.927-3.348M285.51,157.855v-31.437M285.51,126.417c0-1.221-.879-1.711-1.927-1.099M283.582,125.318l-97.154,56.084M186.428,181.402c-1.023.611-1.906,2.127-1.906,3.349M184.523,184.751v31.44M184.523,216.191c0,1.221.883,1.733,1.906,1.121M173.948,172.365l-18.761-10.846M155.187,161.519c-2.417,4.106-4.007,8.257-4.055,13.07v166.307c.122,3.47.633,6.033,3.662,8.109M154.793,349.005l18.739,10.821M169.889,351.742v-166.333c.1-4.787,1.616-8.963,4.059-13.044M253.801,277.481l19.567-11.287M253.801,219.756l19.567-11.311M197.176,252.466l19.571-11.311M206.948,235.489v22.62M200.083,316.347l13.706-23.795M200.083,300.492l13.752,7.937"/>
  <line class="uuid-139398b9-3a2c-41c8-bf37-7046224b46e7" x1="280.455" y1="94.488" x2="271.22" y2="110.417"/>
  <line class="uuid-139398b9-3a2c-41c8-bf37-7046224b46e7" x1="266.922" y1="95.294" x2="251.48" y2="122.069"/>
  <line class="uuid-139398b9-3a2c-41c8-bf37-7046224b46e7" x1="247.473" y1="106.457" x2="231.965" y2="133.332"/>
  <line class="uuid-139398b9-3a2c-41c8-bf37-7046224b46e7" x1="227.958" y1="117.671" x2="212.397" y2="144.639"/>
  <line class="uuid-139398b9-3a2c-41c8-bf37-7046224b46e7" x1="208.438" y1="128.883" x2="192.83" y2="155.926"/>
  <line class="uuid-139398b9-3a2c-41c8-bf37-7046224b46e7" x1="189.045" y1="139.924" x2="171.7" y2="169.922"/>
  <line class="uuid-139398b9-3a2c-41c8-bf37-7046224b46e7" x1="169.257" y1="151.698" x2="162.27" y2="163.693"/>
  <line class="uuid-139398b9-3a2c-41c8-bf37-7046224b46e7" x1="198.449" y1="348.395" x2="171.112" y2="332.588"/>
  <line class="uuid-139398b9-3a2c-41c8-bf37-7046224b46e7" x1="220.533" y1="335.104" x2="207.853" y2="327.779"/>
  <line class="uuid-139398b9-3a2c-41c8-bf37-7046224b46e7" x1="183.131" y1="313.488" x2="171.626" y2="306.865"/>
  <line class="uuid-139398b9-3a2c-41c8-bf37-7046224b46e7" x1="243.175" y1="322.061" x2="229.764" y2="314.342"/>
  <line class="uuid-139398b9-3a2c-41c8-bf37-7046224b46e7" x1="188.58" y1="290.547" x2="171.453" y2="280.657"/>
  <line class="uuid-139398b9-3a2c-41c8-bf37-7046224b46e7" x1="265.701" y1="309.039" x2="252.996" y2="301.713"/>
  <line class="uuid-139398b9-3a2c-41c8-bf37-7046224b46e7" x1="239.636" y1="293.99" x2="230.986" y2="289.009"/>
  <line class="uuid-139398b9-3a2c-41c8-bf37-7046224b46e7" x1="210.833" y1="277.334" x2="203.625" y2="273.207"/>
  <line class="uuid-139398b9-3a2c-41c8-bf37-7046224b46e7" x1="183.131" y1="261.359" x2="171.626" y2="254.714"/>
  <line class="uuid-139398b9-3a2c-41c8-bf37-7046224b46e7" x1="288.247" y1="295.949" x2="275.642" y2="288.667"/>
  <line class="uuid-139398b9-3a2c-41c8-bf37-7046224b46e7" x1="239.804" y1="268" x2="226.052" y2="260.037"/>
  <line class="uuid-139398b9-3a2c-41c8-bf37-7046224b46e7" x1="184.523" y1="236.074" x2="171.579" y2="228.597"/>
  <line class="uuid-139398b9-3a2c-41c8-bf37-7046224b46e7" x1="298.505" y1="275.818" x2="287.537" y2="269.491"/>
  <line class="uuid-139398b9-3a2c-41c8-bf37-7046224b46e7" x1="255.954" y1="251.269" x2="248.819" y2="247.142"/>
  <line class="uuid-139398b9-3a2c-41c8-bf37-7046224b46e7" x1="239.636" y1="241.861" x2="230.986" y2="236.854"/>
  <line class="uuid-139398b9-3a2c-41c8-bf37-7046224b46e7" x1="206.583" y1="222.763" x2="193.415" y2="215.164"/>
  <line class="uuid-139398b9-3a2c-41c8-bf37-7046224b46e7" x1="182.84" y1="209.057" x2="171.626" y2="202.584"/>
  <line class="uuid-139398b9-3a2c-41c8-bf37-7046224b46e7" x1="298.505" y1="249.754" x2="287.537" y2="243.403"/>
  <line class="uuid-139398b9-3a2c-41c8-bf37-7046224b46e7" x1="278.523" y1="238.223" x2="271.393" y2="234.094"/>
  <line class="uuid-139398b9-3a2c-41c8-bf37-7046224b46e7" x1="240.147" y1="216.069" x2="215.646" y2="201.9"/>
  <line class="uuid-139398b9-3a2c-41c8-bf37-7046224b46e7" x1="183.131" y1="183.139" x2="173.36" y2="177.521"/>
  <line class="uuid-139398b9-3a2c-41c8-bf37-7046224b46e7" x1="298.505" y1="223.663" x2="287.537" y2="217.338"/>
  <line class="uuid-139398b9-3a2c-41c8-bf37-7046224b46e7" x1="251.775" y1="196.697" x2="238.583" y2="189.074"/>
  <line class="uuid-139398b9-3a2c-41c8-bf37-7046224b46e7" x1="204.335" y1="169.29" x2="190.144" y2="161.128"/>
  <line class="uuid-139398b9-3a2c-41c8-bf37-7046224b46e7" x1="298.505" y1="197.598" x2="287.537" y2="191.274"/>
  <line class="uuid-139398b9-3a2c-41c8-bf37-7046224b46e7" x1="274.347" y1="183.65" x2="261.179" y2="176.053"/>
  <line class="uuid-139398b9-3a2c-41c8-bf37-7046224b46e7" x1="226.857" y1="156.243" x2="212.74" y2="148.086"/>
  <line class="uuid-139398b9-3a2c-41c8-bf37-7046224b46e7" x1="298.627" y1="171.633" x2="283.704" y2="162.987"/>
  <line class="uuid-139398b9-3a2c-41c8-bf37-7046224b46e7" x1="249.43" y1="143.225" x2="235.286" y2="135.039"/>
  <line class="uuid-139398b9-3a2c-41c8-bf37-7046224b46e7" x1="298.505" y1="145.469" x2="287.246" y2="138.997"/>
  <line class="uuid-139398b9-3a2c-41c8-bf37-7046224b46e7" x1="272.025" y1="130.204" x2="257.856" y2="122.021"/>
  <line class="uuid-139398b9-3a2c-41c8-bf37-7046224b46e7" x1="298.748" y1="119.526" x2="280.329" y2="108.901"/>
  <line class="uuid-139398b9-3a2c-41c8-bf37-7046224b46e7" x1="168.035" y1="353.206" x2="166.397" y2="354.137"/>
  <line class="uuid-139398b9-3a2c-41c8-bf37-7046224b46e7" x1="168.134" y1="340.09" x2="155.724" y2="347.246"/>
  <line class="uuid-139398b9-3a2c-41c8-bf37-7046224b46e7" x1="168.256" y1="326.995" x2="152.77" y2="335.961"/>
  <line class="uuid-139398b9-3a2c-41c8-bf37-7046224b46e7" x1="168.33" y1="313.926" x2="152.77" y2="322.918"/>
  <line class="uuid-139398b9-3a2c-41c8-bf37-7046224b46e7" x1="168.377" y1="300.857" x2="152.692" y2="309.897"/>
  <line class="uuid-139398b9-3a2c-41c8-bf37-7046224b46e7" x1="168.377" y1="287.813" x2="152.692" y2="296.85"/>
  <line class="uuid-139398b9-3a2c-41c8-bf37-7046224b46e7" x1="168.377" y1="274.77" x2="152.692" y2="283.832"/>
  <line class="uuid-139398b9-3a2c-41c8-bf37-7046224b46e7" x1="168.377" y1="261.748" x2="152.692" y2="270.785"/>
  <line class="uuid-139398b9-3a2c-41c8-bf37-7046224b46e7" x1="168.377" y1="248.706" x2="152.692" y2="257.742"/>
  <line class="uuid-139398b9-3a2c-41c8-bf37-7046224b46e7" x1="168.377" y1="235.684" x2="152.692" y2="244.721"/>
  <line class="uuid-139398b9-3a2c-41c8-bf37-7046224b46e7" x1="168.377" y1="222.641" x2="152.692" y2="231.677"/>
  <line class="uuid-139398b9-3a2c-41c8-bf37-7046224b46e7" x1="168.377" y1="209.593" x2="152.692" y2="218.634"/>
  <line class="uuid-139398b9-3a2c-41c8-bf37-7046224b46e7" x1="168.377" y1="196.575" x2="152.692" y2="205.612"/>
  <line class="uuid-139398b9-3a2c-41c8-bf37-7046224b46e7" x1="168.499" y1="183.455" x2="152.692" y2="192.569"/>
  <line class="uuid-139398b9-3a2c-41c8-bf37-7046224b46e7" x1="168.035" y1="170.68" x2="152.77" y2="179.522"/>
</svg>