<?xml version="1.0" encoding="UTF-8"?>
<svg id="uuid-afdb80b5-e0f5-4efc-915e-63e9e2ee9a5b" data-name="&amp;lt;Layer&amp;gt;" xmlns="http://www.w3.org/2000/svg" viewBox="0 0 451.11 451.11">
  <defs>
    <style>
      .uuid-f43cad5c-2e0a-478c-b4da-896e87fb29b3, .uuid-ec31bd47-42b4-4118-9131-918fa2d22ca6, .uuid-264787bb-2ce8-497e-9b87-30e52fbf7efc, .uuid-25c6a755-1b9f-414d-8f41-5f1e93a1ad63 {
        fill: none;
        stroke: #000;
        stroke-linecap: round;
      }

      .uuid-f43cad5c-2e0a-478c-b4da-896e87fb29b3, .uuid-264787bb-2ce8-497e-9b87-30e52fbf7efc, .uuid-25c6a755-1b9f-414d-8f41-5f1e93a1ad63 {
        stroke-linejoin: round;
      }

      .uuid-f43cad5c-2e0a-478c-b4da-896e87fb29b3, .uuid-25c6a755-1b9f-414d-8f41-5f1e93a1ad63 {
        stroke-width: 4.117px;
      }

      .uuid-ec31bd47-42b4-4118-9131-918fa2d22ca6 {
        stroke-miterlimit: 10;
        stroke-width: 1.163px;
      }

      .uuid-264787bb-2ce8-497e-9b87-30e52fbf7efc {
        stroke-width: 4.113px;
      }

      .uuid-264787bb-2ce8-497e-9b87-30e52fbf7efc, .uuid-25c6a755-1b9f-414d-8f41-5f1e93a1ad63 {
        fill-rule: evenodd;
      }
    </style>
  </defs>
  <g>
    <path class="uuid-25c6a755-1b9f-414d-8f41-5f1e93a1ad63" d="M119.006,301.221c-22.572-75.14,47.169-194.058,120.798-213.868,30.019-8.061,42.625,3.054,67.541,17.418"/>
    <path class="uuid-25c6a755-1b9f-414d-8f41-5f1e93a1ad63" d="M166.981,185.799c9.115-15.807,20.083-30.656,32.22-43.483,24.284-25.6,51.862-41.478,75.898-43.824,12.143-1.197,23.111,1.005,32.246,6.28,9.111,5.276,16.487,13.655,21.547,24.792,10.088,22.183,9.99,54.134,0,87.624-5.06,16.954-12.436,33.832-21.547,49.664-9.135,15.829-20.103,30.657-32.246,43.505-24.257,25.628-51.86,41.456-75.898,43.8-12.138,1.199-23.106-.975-32.22-6.277-28.46-16.413-36.885-60.827-21.545-112.394,5.058-16.951,12.41-33.831,21.545-49.686Z"/>
    <path class="uuid-25c6a755-1b9f-414d-8f41-5f1e93a1ad63" d="M291.712,168.748c-7.834-17.789-25.259-22.127-43.02-15.954-17.65,6.227-33.346,20.913-44.311,35.738-13.02,17.566-22.057,38.355-25.163,57.899-2.248,14.46-1.099,27.676,3.371,37.471,1.468,3.297,3.323,6.181,5.475,8.625,8.694,10.015,22.227,12.701,37.569,7.325,11.385-3.955,23.328-12.212,34.153-23.547,14.227-15.218,26.126-35.326,31.926-55.379,4.801-16.263,7.093-36.186,0-52.177Z"/>
    <path class="uuid-25c6a755-1b9f-414d-8f41-5f1e93a1ad63" d="M166.981,347.879c-24.331-14.048-39.428-19.177-47.975-46.658"/>
    <path class="uuid-25c6a755-1b9f-414d-8f41-5f1e93a1ad63" d="M265.695,150.209c.585.805,1.101,1.685,1.637,2.564"/>
    <path class="uuid-264787bb-2ce8-497e-9b87-30e52fbf7efc" d="M267.332,152.821c.559,1.053,1.101,2.149,1.49,3.249,6.77,14.622,4.026,34.657-.044,49.72-8.528,31.573-28.941,61.846-58.45,77.332-7.527,3.636-16.403,6.77-24.88,5.936"/>
    <polyline class="uuid-25c6a755-1b9f-414d-8f41-5f1e93a1ad63" points="145.534 235.096 181.103 228.476 183.763 227.987"/>
    <polyline class="uuid-25c6a755-1b9f-414d-8f41-5f1e93a1ad63" points="183.468 285.687 180.514 288.542 150.127 317.955 145.265 322.694"/>
    <polyline class="uuid-25c6a755-1b9f-414d-8f41-5f1e93a1ad63" points="199.201 354.156 198.907 354.182 200.471 347.979 211.465 304.326 211.855 302.564"/>
    <polyline class="uuid-25c6a755-1b9f-414d-8f41-5f1e93a1ad63" points="262.031 275.108 272.951 306.107 274.636 310.82"/>
    <polyline class="uuid-25c6a755-1b9f-414d-8f41-5f1e93a1ad63" points="329.061 216.555 324.175 217.482 294.376 223.027 290.858 223.663"/>
    <line class="uuid-f43cad5c-2e0a-478c-b4da-896e87fb29b3" x1="290.539" y1="166.328" x2="328.892" y2="129.563"/>
    <line class="uuid-f43cad5c-2e0a-478c-b4da-896e87fb29b3" x1="251.183" y1="85.205" x2="274.367" y2="98.568"/>
    <line class="uuid-f43cad5c-2e0a-478c-b4da-896e87fb29b3" x1="199.201" y1="142.316" x2="176.044" y2="128.931"/>
    <line class="uuid-f43cad5c-2e0a-478c-b4da-896e87fb29b3" x1="238.24" y1="261.55" x2="261.052" y2="274.865"/>
    <line class="uuid-f43cad5c-2e0a-478c-b4da-896e87fb29b3" x1="211.976" y1="302.542" x2="188.819" y2="289.178"/>
    <line class="uuid-f43cad5c-2e0a-478c-b4da-896e87fb29b3" x1="267.851" y1="153.123" x2="290.539" y2="166.328"/>
    <line class="uuid-f43cad5c-2e0a-478c-b4da-896e87fb29b3" x1="290.539" y1="224.664" x2="266.843" y2="212.843"/>
    <line class="uuid-f43cad5c-2e0a-478c-b4da-896e87fb29b3" x1="145.534" y1="235.096" x2="145.435" y2="235.485"/>
    <line class="uuid-f43cad5c-2e0a-478c-b4da-896e87fb29b3" x1="144.898" y1="321.962" x2="121.739" y2="308.525"/>
    <line class="uuid-f43cad5c-2e0a-478c-b4da-896e87fb29b3" x1="122.376" y1="221.709" x2="145.534" y2="235.096"/>
    <polyline class="uuid-25c6a755-1b9f-414d-8f41-5f1e93a1ad63" points="274.124 98.612 274.172 98.59 274.22 98.59 274.294 98.59 274.294 98.59 274.367 98.568 274.367 98.568 274.463 98.568 274.463 98.568 274.54 98.568 274.54 98.568 274.636 98.542 261.64 150.135"/>
    <line class="uuid-f43cad5c-2e0a-478c-b4da-896e87fb29b3" x1="211.855" y1="179.301" x2="199.201" y2="142.316"/>
  </g>
  <line class="uuid-ec31bd47-42b4-4118-9131-918fa2d22ca6" x1="221.333" y1="168.576" x2="204.257" y2="138.994"/>
  <line class="uuid-ec31bd47-42b4-4118-9131-918fa2d22ca6" x1="239.973" y1="155.654" x2="221.384" y2="123.533"/>
  <line class="uuid-ec31bd47-42b4-4118-9131-918fa2d22ca6" x1="261.273" y1="147.398" x2="240.141" y2="110.854"/>
  <line class="uuid-ec31bd47-42b4-4118-9131-918fa2d22ca6" x1="268.723" y1="115.177" x2="261.64" y2="102.866"/>
  <line class="uuid-ec31bd47-42b4-4118-9131-918fa2d22ca6" x1="249.551" y1="269.416" x2="235.745" y2="293.358"/>
  <line class="uuid-ec31bd47-42b4-4118-9131-918fa2d22ca6" x1="240.021" y1="263.287" x2="218.426" y2="300.784"/>
  <line class="uuid-ec31bd47-42b4-4118-9131-918fa2d22ca6" x1="216.226" y1="281.948" x2="206.994" y2="297.95"/>
  <line class="uuid-ec31bd47-42b4-4118-9131-918fa2d22ca6" x1="198.738" y1="289.668" x2="197.468" y2="291.868"/>
  <line class="uuid-ec31bd47-42b4-4118-9131-918fa2d22ca6" x1="294.618" y1="191.685" x2="279.449" y2="217.899"/>
  <line class="uuid-ec31bd47-42b4-4118-9131-918fa2d22ca6" x1="292.422" y1="172.925" x2="269.066" y2="213.306"/>
  <line class="uuid-ec31bd47-42b4-4118-9131-918fa2d22ca6" x1="284.334" y1="164.326" x2="274.758" y2="180.891"/>
  <line class="uuid-ec31bd47-42b4-4118-9131-918fa2d22ca6" x1="274.294" y1="159.102" x2="272.903" y2="161.541"/>
  <line class="uuid-ec31bd47-42b4-4118-9131-918fa2d22ca6" x1="152.569" y1="313.874" x2="139.963" y2="292.06"/>
  <line class="uuid-ec31bd47-42b4-4118-9131-918fa2d22ca6" x1="169.766" y1="298.51" x2="142.407" y2="251.097"/>
  <line class="uuid-ec31bd47-42b4-4118-9131-918fa2d22ca6" x1="176.85" y1="265.557" x2="158.431" y2="233.63"/>
  <line class="uuid-ec31bd47-42b4-4118-9131-918fa2d22ca6" x1="222.481" y1="346.9" x2="208.388" y2="322.425"/>
  <line class="uuid-ec31bd47-42b4-4118-9131-918fa2d22ca6" x1="242.636" y1="336.616" x2="222.481" y2="301.662"/>
  <line class="uuid-ec31bd47-42b4-4118-9131-918fa2d22ca6" x1="260.713" y1="322.72" x2="242.927" y2="291.916"/>
  <line class="uuid-ec31bd47-42b4-4118-9131-918fa2d22ca6" x1="307.566" y1="219.094" x2="297.404" y2="201.506"/>
  <line class="uuid-ec31bd47-42b4-4118-9131-918fa2d22ca6" x1="329.698" y1="212.155" x2="298.747" y2="158.634"/>
  <line class="uuid-ec31bd47-42b4-4118-9131-918fa2d22ca6" x1="334.852" y1="176.026" x2="315.919" y2="143.196"/>
  <line class="uuid-ec31bd47-42b4-4118-9131-918fa2d22ca6" x1="267.038" y1="96.637" x2="266.453" y2="97.638"/>
  <line class="uuid-ec31bd47-42b4-4118-9131-918fa2d22ca6" x1="257.512" y1="90.628" x2="250.305" y2="103.061"/>
  <line class="uuid-ec31bd47-42b4-4118-9131-918fa2d22ca6" x1="246.422" y1="87.233" x2="231.201" y2="113.539"/>
  <line class="uuid-ec31bd47-42b4-4118-9131-918fa2d22ca6" x1="230.91" y1="91.482" x2="207.63" y2="131.837"/>
  <line class="uuid-ec31bd47-42b4-4118-9131-918fa2d22ca6" x1="212.395" y1="100.986" x2="191.604" y2="137.066"/>
  <line class="uuid-ec31bd47-42b4-4118-9131-918fa2d22ca6" x1="188.65" y1="119.626" x2="182.325" y2="130.594"/>
  <line class="uuid-ec31bd47-42b4-4118-9131-918fa2d22ca6" x1="138.521" y1="307.719" x2="134.857" y2="314.022"/>
  <line class="uuid-ec31bd47-42b4-4118-9131-918fa2d22ca6" x1="136.251" y1="289.104" x2="124.868" y2="308.794"/>
  <line class="uuid-ec31bd47-42b4-4118-9131-918fa2d22ca6" x1="137.131" y1="264.92" x2="119.054" y2="296.239"/>
  <line class="uuid-ec31bd47-42b4-4118-9131-918fa2d22ca6" x1="142.237" y1="233.558" x2="116.268" y2="278.505"/>
  <line class="uuid-ec31bd47-42b4-4118-9131-918fa2d22ca6" x1="132.071" y1="228.55" x2="117.439" y2="253.856"/>
</svg>