<?xml version="1.0" encoding="UTF-8"?>
<svg id="uuid-ab973d61-70b2-4fb9-9893-cd23b9cc70c7" data-name="&amp;lt;Layer&amp;gt;" xmlns="http://www.w3.org/2000/svg" viewBox="0 0 451.11 451.11">
  <defs>
    <style>
      .uuid-4c6e9aa1-757b-48a6-bd38-f7bc1bc89522 {
        stroke-miterlimit: 10;
        stroke-width: 1.163px;
      }

      .uuid-4c6e9aa1-757b-48a6-bd38-f7bc1bc89522, .uuid-cbc86bc4-d9d8-48c0-b6e0-00c873ed90b2 {
        fill: none;
        stroke: #000;
        stroke-linecap: round;
      }

      .uuid-cbc86bc4-d9d8-48c0-b6e0-00c873ed90b2 {
        fill-rule: evenodd;
        stroke-linejoin: round;
        stroke-width: 4.113px;
      }
    </style>
  </defs>
  <path class="uuid-cbc86bc4-d9d8-48c0-b6e0-00c873ed90b2" d="M341.479,123.572c.121.051.243.125.415.221,1.979,1.147,3.323,3.566,3.421,6.987M345.316,145.85v109.17M341.895,266.014c-2.148,3.734-5.104,6.983-8.403,8.868M333.491,274.882l-178.299,102.938M146.447,378.404l-37.645-21.716M105.723,349.922v-124.263M117.57,205.823l178.276-102.941M295.847,102.883c2.565-1.417,5.178-2.248,8.014-1.027M105.723,225.659v15.096M117.57,205.823c-6.57,3.882-11.383,12.26-11.847,19.836M105.723,225.659l37.621,21.742M146.836,236.407c2.027-3.544,4.813-6.767,8.356-8.868M155.193,227.539l178.299-102.94M333.491,124.598c2.248-1.269,5.032-2.149,7.549-1.221M341.04,123.377l.439.195M143.344,262.471l-37.621-21.74M105.723,240.73v109.192c.169,2.712.806,5.056,3.079,6.766M341.895,266.014c1.979-3.496,3.323-7.403,3.421-10.994M282.851,236.553l-29.387,42.552M244.329,287.95c-3.201,1.855-6.377,2.491-9.111,1.686M143.344,371.641c.169,3.419,1.464,5.836,3.492,6.983,2.15,1.247,5.104,1.075,8.356-.805M333.491,274.882c3.3-1.885,6.255-5.134,8.403-8.868M143.344,262.471v94.123-.026,15.074l62.557-90.678-8.647-2.564-53.91-15.929h0ZM345.386,145.828l-53.962,78.193-8.573,12.532,62.465,18.467M143.344,247.401v15.07M143.344,262.471c91.238,26.967,2.513.758,91.874,27.166,2.734.805,5.91.169,9.111-1.686,3.201-1.832,6.398-4.886,9.135-8.845M345.316,130.779c-.098-3.422-1.442-5.84-3.421-6.987-2.148-1.247-5.104-1.075-8.403.806M345.316,145.85v-15.071l-94.93,137.726M250.386,268.505c-1.807,2.639-3.909,4.64-6.057,5.862-2.075,1.195-4.177,1.637-6.034,1.099M238.294,275.466l-94.95-28.065v15.07M145.957,237.995l-37.622-21.718M108.335,216.277c-1.512,3.027-2.391,6.011-2.611,9.382M143.344,247.401c.243-3.397,1.123-6.377,2.613-9.405M303.86,101.856l37.619,21.715"/>
  <line class="uuid-4c6e9aa1-757b-48a6-bd38-f7bc1bc89522" x1="132.962" y1="228.566" x2="119.892" y2="205.893"/>
  <line class="uuid-4c6e9aa1-757b-48a6-bd38-f7bc1bc89522" x1="157.219" y1="225.387" x2="139.286" y2="194.315"/>
  <line class="uuid-4c6e9aa1-757b-48a6-bd38-f7bc1bc89522" x1="176.782" y1="214.08" x2="158.853" y2="183.03"/>
  <line class="uuid-4c6e9aa1-757b-48a6-bd38-f7bc1bc89522" x1="196.302" y1="202.817" x2="178.372" y2="171.72"/>
  <line class="uuid-4c6e9aa1-757b-48a6-bd38-f7bc1bc89522" x1="215.869" y1="191.53" x2="197.938" y2="160.457"/>
  <line class="uuid-4c6e9aa1-757b-48a6-bd38-f7bc1bc89522" x1="235.461" y1="180.249" x2="217.506" y2="149.172"/>
  <line class="uuid-4c6e9aa1-757b-48a6-bd38-f7bc1bc89522" x1="254.954" y1="168.934" x2="237.025" y2="137.887"/>
  <line class="uuid-4c6e9aa1-757b-48a6-bd38-f7bc1bc89522" x1="274.548" y1="157.649" x2="256.592" y2="126.578"/>
  <line class="uuid-4c6e9aa1-757b-48a6-bd38-f7bc1bc89522" x1="294.11" y1="146.364" x2="276.158" y2="115.293"/>
  <line class="uuid-4c6e9aa1-757b-48a6-bd38-f7bc1bc89522" x1="313.607" y1="135.077" x2="295.726" y2="104.004"/>
  <line class="uuid-4c6e9aa1-757b-48a6-bd38-f7bc1bc89522" x1="332.659" y1="122.89" x2="330.804" y2="119.689"/>
  <line class="uuid-4c6e9aa1-757b-48a6-bd38-f7bc1bc89522" x1="141.656" y1="363.212" x2="132.667" y2="368.389"/>
  <line class="uuid-4c6e9aa1-757b-48a6-bd38-f7bc1bc89522" x1="142.023" y1="349.922" x2="120.989" y2="362.091"/>
  <line class="uuid-4c6e9aa1-757b-48a6-bd38-f7bc1bc89522" x1="142.414" y1="336.684" x2="109.267" y2="355.81"/>
  <line class="uuid-4c6e9aa1-757b-48a6-bd38-f7bc1bc89522" x1="142.535" y1="323.589" x2="106.702" y2="344.278"/>
  <line class="uuid-4c6e9aa1-757b-48a6-bd38-f7bc1bc89522" x1="142.535" y1="310.546" x2="106.65" y2="331.235"/>
  <line class="uuid-4c6e9aa1-757b-48a6-bd38-f7bc1bc89522" x1="142.535" y1="297.524" x2="106.65" y2="318.213"/>
  <line class="uuid-4c6e9aa1-757b-48a6-bd38-f7bc1bc89522" x1="142.535" y1="284.481" x2="106.65" y2="305.171"/>
  <line class="uuid-4c6e9aa1-757b-48a6-bd38-f7bc1bc89522" x1="142.535" y1="271.461" x2="106.65" y2="292.149"/>
  <line class="uuid-4c6e9aa1-757b-48a6-bd38-f7bc1bc89522" x1="138.407" y1="260.76" x2="106.823" y2="279.032"/>
  <line class="uuid-4c6e9aa1-757b-48a6-bd38-f7bc1bc89522" x1="126.733" y1="254.483" x2="107.165" y2="265.767"/>
  <line class="uuid-4c6e9aa1-757b-48a6-bd38-f7bc1bc89522" x1="115.079" y1="248.207" x2="107.581" y2="252.529"/>
  <line class="uuid-4c6e9aa1-757b-48a6-bd38-f7bc1bc89522" x1="139.069" y1="236.112" x2="133.351" y2="239.409"/>
  <line class="uuid-4c6e9aa1-757b-48a6-bd38-f7bc1bc89522" x1="127.733" y1="229.592" x2="122.04" y2="232.863"/>
  <line class="uuid-4c6e9aa1-757b-48a6-bd38-f7bc1bc89522" x1="116.471" y1="223.068" x2="110.779" y2="226.365"/>
  <line class="uuid-4c6e9aa1-757b-48a6-bd38-f7bc1bc89522" x1="113.1" y1="242.979" x2="113.1" y2="231.91"/>
  <line class="uuid-4c6e9aa1-757b-48a6-bd38-f7bc1bc89522" x1="124.411" y1="249.498" x2="124.411" y2="238.434"/>
  <line class="uuid-4c6e9aa1-757b-48a6-bd38-f7bc1bc89522" x1="135.695" y1="255.999" x2="135.695" y2="244.958"/>
  <line class="uuid-4c6e9aa1-757b-48a6-bd38-f7bc1bc89522" x1="164.887" y1="267.037" x2="164.887" y2="255.483"/>
  <line class="uuid-4c6e9aa1-757b-48a6-bd38-f7bc1bc89522" x1="187.435" y1="273.707" x2="187.435" y2="262.177"/>
  <line class="uuid-4c6e9aa1-757b-48a6-bd38-f7bc1bc89522" x1="210.007" y1="280.401" x2="210.007" y2="268.848"/>
  <line class="uuid-4c6e9aa1-757b-48a6-bd38-f7bc1bc89522" x1="232.603" y1="287.072" x2="232.603" y2="275.514"/>
  <line class="uuid-4c6e9aa1-757b-48a6-bd38-f7bc1bc89522" x1="255.197" y1="273.366" x2="255.197" y2="264.963"/>
  <line class="uuid-4c6e9aa1-757b-48a6-bd38-f7bc1bc89522" x1="277.771" y1="240.582" x2="277.771" y2="232.205"/>
  <line class="uuid-4c6e9aa1-757b-48a6-bd38-f7bc1bc89522" x1="300.318" y1="207.847" x2="300.318" y2="199.47"/>
  <line class="uuid-4c6e9aa1-757b-48a6-bd38-f7bc1bc89522" x1="322.912" y1="175.089" x2="322.912" y2="166.712"/>
</svg>