<?xml version="1.0" encoding="UTF-8"?>
<svg id="uuid-75580650-b278-4261-a0fa-e6610dfa36b2" data-name="&amp;lt;Layer&amp;gt;" xmlns="http://www.w3.org/2000/svg" viewBox="0 0 451.11 451.11">
  <defs>
    <style>
      .uuid-aad1ddaa-df2c-4828-a3aa-bb1fe3f7b6a5, .uuid-2a14a552-bda2-4dcb-95b9-c5a4cfb70681, .uuid-760e3d72-c473-48cc-8bfb-da09eda93400 {
        fill: none;
        stroke: #000;
        stroke-linecap: round;
      }

      .uuid-aad1ddaa-df2c-4828-a3aa-bb1fe3f7b6a5, .uuid-760e3d72-c473-48cc-8bfb-da09eda93400 {
        stroke-linejoin: round;
        stroke-width: 4.117px;
      }

      .uuid-2a14a552-bda2-4dcb-95b9-c5a4cfb70681 {
        stroke-miterlimit: 10;
        stroke-width: 1.163px;
      }

      .uuid-760e3d72-c473-48cc-8bfb-da09eda93400 {
        fill-rule: evenodd;
      }
    </style>
  </defs>
  <path class="uuid-760e3d72-c473-48cc-8bfb-da09eda93400" d="M87.086,213.952c0,3.959,3.89,6.127,6.859,7.837,38.505,22.253,59.411,34.314,96.739,55.923,6.807,3.779,9.717,6.277,17.834,6.277"/>
  <path class="uuid-760e3d72-c473-48cc-8bfb-da09eda93400" d="M364.025,194.216c0-2.517-1.611-4.934-4.886-6.792-42.452-24.501-62.361-36.007-104.817-60.506-6.425-3.786-17.002-3.786-23.452,0-17.588,10.162-36.47,21.008-54.647,31.513"/>
  <path class="uuid-760e3d72-c473-48cc-8bfb-da09eda93400" d="M212.45,283.695c-.389.052-.853.121-1.316.173-.295,0-.637,0-1.005.048-.391,0-.854.074-1.318.074h-.294"/>
  <path class="uuid-760e3d72-c473-48cc-8bfb-da09eda93400" d="M129.296,185.496c-15.902,9.183-29.14,16.854-37.401,21.595-3.245,1.88-4.86,4.418-4.809,6.861"/>
  <path class="uuid-760e3d72-c473-48cc-8bfb-da09eda93400" d="M89.82,271.263c28.508,20.226,75.192,43.725,106.949,62.022"/>
  <path class="uuid-760e3d72-c473-48cc-8bfb-da09eda93400" d="M197.99,333.918c3.319,1.468,6.983,2.152,10.527,2.152,1.684-.048,3.175-.173,4.643-.389,1.392-.247,2.856-.589,4.177-1.127q.073,0,.121-.048c.979-.341,1.907-.758,2.785-1.221"/>
  <path class="uuid-760e3d72-c473-48cc-8bfb-da09eda93400" d="M249.384,140.475c7.38,4.224,9.699,5.567,17.027,9.821.979.585.979,1.512,0,2.076"/>
  <path class="uuid-760e3d72-c473-48cc-8bfb-da09eda93400" d="M359.139,253.089c-46.265,26.723-92.606,53.472-138.896,80.196-4.007,2.101-7.256,2.685-11.726,2.808"/>
  <path class="uuid-760e3d72-c473-48cc-8bfb-da09eda93400" d="M208.517,283.964c4.47-.096,7.719-.682,11.726-2.785,46.291-26.723,92.632-53.473,138.896-80.222,3.032-2.122,4.253-3.028,4.886-6.766"/>
  <polyline class="uuid-760e3d72-c473-48cc-8bfb-da09eda93400" points="119.306 214.295 119.306 220.744 134.477 229.49"/>
  <polyline class="uuid-760e3d72-c473-48cc-8bfb-da09eda93400" points="134.477 223.019 134.477 229.49 185.8 199.86 185.8 193.384"/>
  <polyline class="uuid-760e3d72-c473-48cc-8bfb-da09eda93400" points="176.223 187.887 185.8 193.41 134.477 223.019 119.38 214.295 129.296 208.555"/>
  <polygon class="uuid-760e3d72-c473-48cc-8bfb-da09eda93400" points="256.301 151.661 250.263 155.155 240.737 149.684 246.845 146.167 256.301 151.661"/>
  <polyline class="uuid-760e3d72-c473-48cc-8bfb-da09eda93400" points="129.249 141.159 130.639 141.939 133.425 140.402 136.162 135.736 138.822 137.274 141.902 135.489 144.635 130.85 147.347 132.366 150.453 130.581 153.117 125.916 155.85 127.453 158.904 125.67 161.642 121.004 164.375 122.542 167.456 120.761 170.115 116.096 172.853 117.634 175.587 116.07 176.176 115.017"/>
  <line class="uuid-aad1ddaa-df2c-4828-a3aa-bb1fe3f7b6a5" x1="266.411" y1="152.371" x2="208.689" y2="185.691"/>
  <path class="uuid-760e3d72-c473-48cc-8bfb-da09eda93400" d="M208.689,185.691c-1.001.559-2.615.585-3.616,0"/>
  <line class="uuid-aad1ddaa-df2c-4828-a3aa-bb1fe3f7b6a5" x1="205.073" y1="185.691" x2="188.07" y2="175.871"/>
  <path class="uuid-760e3d72-c473-48cc-8bfb-da09eda93400" d="M188.07,175.871c-.975-.563-.975-1.516,0-2.076"/>
  <line class="uuid-aad1ddaa-df2c-4828-a3aa-bb1fe3f7b6a5" x1="188.07" y1="173.796" x2="245.796" y2="140.475"/>
  <path class="uuid-760e3d72-c473-48cc-8bfb-da09eda93400" d="M245.796,140.475c.975-.588,2.612-.588,3.588,0"/>
  <line class="uuid-aad1ddaa-df2c-4828-a3aa-bb1fe3f7b6a5" x1="208.517" y1="336.092" x2="208.517" y2="283.964"/>
  <line class="uuid-aad1ddaa-df2c-4828-a3aa-bb1fe3f7b6a5" x1="364.025" y1="194.19" x2="364.025" y2="246.297"/>
  <path class="uuid-760e3d72-c473-48cc-8bfb-da09eda93400" d="M364.025,246.297c-.632,3.738-1.854,4.64-4.886,6.792"/>
  <line class="uuid-aad1ddaa-df2c-4828-a3aa-bb1fe3f7b6a5" x1="245.965" y1="203.79" x2="255.955" y2="209.556"/>
  <path class="uuid-760e3d72-c473-48cc-8bfb-da09eda93400" d="M255.955,209.556c.637.393,1.737.393,2.443,0"/>
  <line class="uuid-aad1ddaa-df2c-4828-a3aa-bb1fe3f7b6a5" x1="258.397" y1="209.556" x2="267.755" y2="204.157"/>
  <path class="uuid-760e3d72-c473-48cc-8bfb-da09eda93400" d="M267.755,204.157c.636-.389.636-1.027,0-1.416"/>
  <line class="uuid-aad1ddaa-df2c-4828-a3aa-bb1fe3f7b6a5" x1="267.755" y1="202.741" x2="257.691" y2="196.975"/>
  <path class="uuid-760e3d72-c473-48cc-8bfb-da09eda93400" d="M257.691,196.975c-.636-.389-1.737-.389-2.369,0"/>
  <line class="uuid-aad1ddaa-df2c-4828-a3aa-bb1fe3f7b6a5" x1="255.323" y1="196.975" x2="245.965" y2="202.398"/>
  <path class="uuid-760e3d72-c473-48cc-8bfb-da09eda93400" d="M245.965,202.398c-.684.369-.684,1.001,0,1.391"/>
  <line class="uuid-aad1ddaa-df2c-4828-a3aa-bb1fe3f7b6a5" x1="266.632" y1="215.711" x2="276.621" y2="221.476"/>
  <path class="uuid-760e3d72-c473-48cc-8bfb-da09eda93400" d="M276.621,221.476c.638.393,1.759.393,2.396,0"/>
  <line class="uuid-aad1ddaa-df2c-4828-a3aa-bb1fe3f7b6a5" x1="279.017" y1="221.476" x2="288.347" y2="216.079"/>
  <path class="uuid-760e3d72-c473-48cc-8bfb-da09eda93400" d="M288.347,216.079c.711-.391.711-1.001,0-1.391"/>
  <line class="uuid-aad1ddaa-df2c-4828-a3aa-bb1fe3f7b6a5" x1="288.347" y1="214.688" x2="278.38" y2="208.922"/>
  <path class="uuid-760e3d72-c473-48cc-8bfb-da09eda93400" d="M278.38,208.922c-.632-.393-1.759-.393-2.395,0"/>
  <line class="uuid-aad1ddaa-df2c-4828-a3aa-bb1fe3f7b6a5" x1="275.985" y1="208.922" x2="266.581" y2="214.321"/>
  <path class="uuid-760e3d72-c473-48cc-8bfb-da09eda93400" d="M266.581,214.321c-.633.367-.633,1.001.051,1.39"/>
  <line class="uuid-aad1ddaa-df2c-4828-a3aa-bb1fe3f7b6a5" x1="245.333" y1="180.29" x2="255.323" y2="186.081"/>
  <path class="uuid-760e3d72-c473-48cc-8bfb-da09eda93400" d="M255.323,186.081c.632.367,1.733.367,2.369,0"/>
  <line class="uuid-aad1ddaa-df2c-4828-a3aa-bb1fe3f7b6a5" x1="257.691" y1="186.081" x2="267.049" y2="180.657"/>
  <path class="uuid-760e3d72-c473-48cc-8bfb-da09eda93400" d="M267.049,180.657c.706-.367.706-1.001,0-1.39"/>
  <line class="uuid-aad1ddaa-df2c-4828-a3aa-bb1fe3f7b6a5" x1="267.049" y1="179.267" x2="257.055" y2="173.501"/>
  <path class="uuid-760e3d72-c473-48cc-8bfb-da09eda93400" d="M257.055,173.501c-.633-.393-1.733-.393-2.37,0"/>
  <line class="uuid-aad1ddaa-df2c-4828-a3aa-bb1fe3f7b6a5" x1="254.685" y1="173.501" x2="245.281" y2="178.898"/>
  <path class="uuid-760e3d72-c473-48cc-8bfb-da09eda93400" d="M245.281,178.898c-.658.391-.658,1.027.052,1.391"/>
  <line class="uuid-aad1ddaa-df2c-4828-a3aa-bb1fe3f7b6a5" x1="265.948" y1="192.236" x2="275.937" y2="198.002"/>
  <path class="uuid-760e3d72-c473-48cc-8bfb-da09eda93400" d="M275.937,198.002c.684.389,1.811.389,2.443,0"/>
  <line class="uuid-aad1ddaa-df2c-4828-a3aa-bb1fe3f7b6a5" x1="278.38" y1="198.002" x2="287.715" y2="192.605"/>
  <path class="uuid-760e3d72-c473-48cc-8bfb-da09eda93400" d="M287.715,192.605c.706-.395.706-1.027,0-1.395"/>
  <line class="uuid-aad1ddaa-df2c-4828-a3aa-bb1fe3f7b6a5" x1="287.715" y1="191.21" x2="277.748" y2="185.422"/>
  <path class="uuid-760e3d72-c473-48cc-8bfb-da09eda93400" d="M277.748,185.422c-.662-.367-1.763-.367-2.443,0"/>
  <line class="uuid-aad1ddaa-df2c-4828-a3aa-bb1fe3f7b6a5" x1="275.305" y1="185.422" x2="265.948" y2="190.82"/>
  <path class="uuid-760e3d72-c473-48cc-8bfb-da09eda93400" d="M265.948,190.82c-.636.389-.636,1.027,0,1.416"/>
  <line class="uuid-aad1ddaa-df2c-4828-a3aa-bb1fe3f7b6a5" x1="286.615" y1="204.157" x2="296.604" y2="209.923"/>
  <path class="uuid-760e3d72-c473-48cc-8bfb-da09eda93400" d="M296.604,209.923c.71.391,1.737.391,2.444,0"/>
  <line class="uuid-aad1ddaa-df2c-4828-a3aa-bb1fe3f7b6a5" x1="299.048" y1="209.923" x2="308.404" y2="204.526"/>
  <path class="uuid-760e3d72-c473-48cc-8bfb-da09eda93400" d="M308.404,204.526c.637-.391.637-1.001,0-1.395"/>
  <line class="uuid-aad1ddaa-df2c-4828-a3aa-bb1fe3f7b6a5" x1="308.404" y1="203.131" x2="298.411" y2="197.366"/>
  <path class="uuid-760e3d72-c473-48cc-8bfb-da09eda93400" d="M298.411,197.366c-.706-.391-1.733-.391-2.443,0"/>
  <line class="uuid-aad1ddaa-df2c-4828-a3aa-bb1fe3f7b6a5" x1="295.968" y1="197.366" x2="286.615" y2="202.767"/>
  <path class="uuid-760e3d72-c473-48cc-8bfb-da09eda93400" d="M286.615,202.767c-.684.389-.636,1.001,0,1.39"/>
  <line class="uuid-aad1ddaa-df2c-4828-a3aa-bb1fe3f7b6a5" x1="265.312" y1="168.762" x2="275.305" y2="174.528"/>
  <path class="uuid-760e3d72-c473-48cc-8bfb-da09eda93400" d="M275.305,174.528c.68.389,1.733.389,2.443,0"/>
  <line class="uuid-aad1ddaa-df2c-4828-a3aa-bb1fe3f7b6a5" x1="277.748" y1="174.528" x2="287.079" y2="169.129"/>
  <path class="uuid-760e3d72-c473-48cc-8bfb-da09eda93400" d="M287.079,169.129c.636-.393.636-1.025,0-1.42"/>
  <line class="uuid-aad1ddaa-df2c-4828-a3aa-bb1fe3f7b6a5" x1="287.079" y1="167.709" x2="277.086" y2="161.948"/>
  <path class="uuid-760e3d72-c473-48cc-8bfb-da09eda93400" d="M277.086,161.948c-.681-.393-1.734-.393-2.444,0"/>
  <line class="uuid-aad1ddaa-df2c-4828-a3aa-bb1fe3f7b6a5" x1="274.642" y1="161.948" x2="265.312" y2="167.346"/>
  <path class="uuid-760e3d72-c473-48cc-8bfb-da09eda93400" d="M265.312,167.346c-.659.389-.659,1.023,0,1.416"/>
  <line class="uuid-aad1ddaa-df2c-4828-a3aa-bb1fe3f7b6a5" x1="285.979" y1="180.683" x2="295.968" y2="186.449"/>
  <path class="uuid-760e3d72-c473-48cc-8bfb-da09eda93400" d="M295.968,186.449c.636.391,1.737.391,2.443,0"/>
  <line class="uuid-aad1ddaa-df2c-4828-a3aa-bb1fe3f7b6a5" x1="298.411" y1="186.449" x2="307.742" y2="181.048"/>
  <path class="uuid-760e3d72-c473-48cc-8bfb-da09eda93400" d="M307.742,181.048c.662-.391.662-1.023,0-1.391"/>
  <line class="uuid-aad1ddaa-df2c-4828-a3aa-bb1fe3f7b6a5" x1="307.742" y1="179.656" x2="297.753" y2="173.866"/>
  <path class="uuid-760e3d72-c473-48cc-8bfb-da09eda93400" d="M297.753,173.866c-.684-.365-1.785-.365-2.418,0"/>
  <line class="uuid-aad1ddaa-df2c-4828-a3aa-bb1fe3f7b6a5" x1="295.335" y1="173.866" x2="285.979" y2="179.267"/>
  <path class="uuid-760e3d72-c473-48cc-8bfb-da09eda93400" d="M285.979,179.267c-.684.389-.684,1.023,0,1.416"/>
  <line class="uuid-aad1ddaa-df2c-4828-a3aa-bb1fe3f7b6a5" x1="306.646" y1="192.605" x2="316.635" y2="198.369"/>
  <path class="uuid-760e3d72-c473-48cc-8bfb-da09eda93400" d="M316.635,198.369c.637.391,1.759.391,2.396,0"/>
  <line class="uuid-aad1ddaa-df2c-4828-a3aa-bb1fe3f7b6a5" x1="319.031" y1="198.369" x2="328.361" y2="192.969"/>
  <path class="uuid-760e3d72-c473-48cc-8bfb-da09eda93400" d="M328.361,192.969c.706-.389.706-1.001,0-1.39"/>
  <line class="uuid-aad1ddaa-df2c-4828-a3aa-bb1fe3f7b6a5" x1="328.361" y1="191.578" x2="318.394" y2="185.813"/>
  <path class="uuid-760e3d72-c473-48cc-8bfb-da09eda93400" d="M318.394,185.813c-.658-.391-1.759-.391-2.391,0"/>
  <line class="uuid-aad1ddaa-df2c-4828-a3aa-bb1fe3f7b6a5" x1="316.003" y1="185.813" x2="306.646" y2="191.21"/>
  <path class="uuid-760e3d72-c473-48cc-8bfb-da09eda93400" d="M306.646,191.21c-.684.391-.684,1.001,0,1.395"/>
  <line class="uuid-aad1ddaa-df2c-4828-a3aa-bb1fe3f7b6a5" x1="225.298" y1="191.847" x2="235.288" y2="197.634"/>
  <path class="uuid-760e3d72-c473-48cc-8bfb-da09eda93400" d="M235.288,197.634c.688.369,1.737.395,2.443,0"/>
  <line class="uuid-aad1ddaa-df2c-4828-a3aa-bb1fe3f7b6a5" x1="237.731" y1="197.634" x2="247.066" y2="192.236"/>
  <path class="uuid-760e3d72-c473-48cc-8bfb-da09eda93400" d="M247.066,192.236c.632-.389.632-1.027,0-1.416"/>
  <line class="uuid-aad1ddaa-df2c-4828-a3aa-bb1fe3f7b6a5" x1="247.066" y1="190.82" x2="237.073" y2="185.055"/>
  <path class="uuid-760e3d72-c473-48cc-8bfb-da09eda93400" d="M237.073,185.055c-.684-.369-1.733-.369-2.44,0"/>
  <line class="uuid-aad1ddaa-df2c-4828-a3aa-bb1fe3f7b6a5" x1="234.633" y1="185.055" x2="225.298" y2="190.456"/>
  <path class="uuid-760e3d72-c473-48cc-8bfb-da09eda93400" d="M225.298,190.456c-.633.391-.633,1.023,0,1.392"/>
  <line class="uuid-aad1ddaa-df2c-4828-a3aa-bb1fe3f7b6a5" x1="176.176" y1="189.503" x2="129.249" y2="217.521"/>
  <path class="uuid-760e3d72-c473-48cc-8bfb-da09eda93400" d="M129.249,217.521v-76.363"/>
  <path class="uuid-760e3d72-c473-48cc-8bfb-da09eda93400" d="M176.176,115.017v74.486"/>
  <line class="uuid-aad1ddaa-df2c-4828-a3aa-bb1fe3f7b6a5" x1="137.384" y1="177.604" x2="165.77" y2="161.19"/>
  <line class="uuid-aad1ddaa-df2c-4828-a3aa-bb1fe3f7b6a5" x1="137.384" y1="185.861" x2="161.59" y2="171.889"/>
  <line class="uuid-aad1ddaa-df2c-4828-a3aa-bb1fe3f7b6a5" x1="137.384" y1="202.667" x2="149.452" y2="195.68"/>
  <line class="uuid-aad1ddaa-df2c-4828-a3aa-bb1fe3f7b6a5" x1="161.933" y1="188.498" x2="167.871" y2="185.055"/>
  <line class="uuid-aad1ddaa-df2c-4828-a3aa-bb1fe3f7b6a5" x1="137.384" y1="150.171" x2="146.667" y2="144.821"/>
  <line class="uuid-aad1ddaa-df2c-4828-a3aa-bb1fe3f7b6a5" x1="157.635" y1="138.447" x2="167.871" y2="132.557"/>
  <line class="uuid-aad1ddaa-df2c-4828-a3aa-bb1fe3f7b6a5" x1="137.384" y1="160.116" x2="154.629" y2="150.149"/>
  <line class="uuid-aad1ddaa-df2c-4828-a3aa-bb1fe3f7b6a5" x1="164.887" y1="144.209" x2="167.871" y2="142.476"/>
  <line class="uuid-2a14a552-bda2-4dcb-95b9-c5a4cfb70681" x1="110.778" y1="229.637" x2="96.903" y2="205.575"/>
  <line class="uuid-2a14a552-bda2-4dcb-95b9-c5a4cfb70681" x1="149.864" y1="252.185" x2="136.798" y2="229.564"/>
  <line class="uuid-2a14a552-bda2-4dcb-95b9-c5a4cfb70681" x1="125.072" y1="209.287" x2="116.595" y2="194.585"/>
  <line class="uuid-2a14a552-bda2-4dcb-95b9-c5a4cfb70681" x1="189.707" y1="276.002" x2="155.655" y2="217.08"/>
  <line class="uuid-2a14a552-bda2-4dcb-95b9-c5a4cfb70681" x1="219.485" y1="282.473" x2="174.88" y2="205.184"/>
  <line class="uuid-2a14a552-bda2-4dcb-95b9-c5a4cfb70681" x1="239.71" y1="272.362" x2="176.223" y2="162.411"/>
  <line class="uuid-2a14a552-bda2-4dcb-95b9-c5a4cfb70681" x1="258.692" y1="260.05" x2="213.572" y2="181.88"/>
  <line class="uuid-2a14a552-bda2-4dcb-95b9-c5a4cfb70681" x1="202.923" y1="163.486" x2="194.863" y2="149.463"/>
  <line class="uuid-2a14a552-bda2-4dcb-95b9-c5a4cfb70681" x1="277.428" y1="247.394" x2="256.249" y2="210.681"/>
  <line class="uuid-2a14a552-bda2-4dcb-95b9-c5a4cfb70681" x1="249.166" y1="198.369" x2="246.944" y2="194.533"/>
  <line class="uuid-2a14a552-bda2-4dcb-95b9-c5a4cfb70681" x1="241.789" y1="185.64" x2="234.365" y2="172.717"/>
  <line class="uuid-2a14a552-bda2-4dcb-95b9-c5a4cfb70681" x1="222.513" y1="152.175" x2="214.382" y2="138.179"/>
  <line class="uuid-2a14a552-bda2-4dcb-95b9-c5a4cfb70681" x1="296.604" y1="235.451" x2="286.905" y2="218.621"/>
  <line class="uuid-2a14a552-bda2-4dcb-95b9-c5a4cfb70681" x1="280.802" y1="208.066" x2="276.11" y2="199.982"/>
  <line class="uuid-2a14a552-bda2-4dcb-95b9-c5a4cfb70681" x1="268.659" y1="187.082" x2="266.46" y2="183.248"/>
  <line class="uuid-2a14a552-bda2-4dcb-95b9-c5a4cfb70681" x1="260.892" y1="173.549" x2="253.927" y2="161.484"/>
  <line class="uuid-2a14a552-bda2-4dcb-95b9-c5a4cfb70681" x1="242.006" y1="140.891" x2="234.07" y2="127.086"/>
  <line class="uuid-2a14a552-bda2-4dcb-95b9-c5a4cfb70681" x1="316.171" y1="224.162" x2="306.473" y2="207.311"/>
  <line class="uuid-2a14a552-bda2-4dcb-95b9-c5a4cfb70681" x1="299.927" y1="195.997" x2="295.457" y2="188.255"/>
  <line class="uuid-2a14a552-bda2-4dcb-95b9-c5a4cfb70681" x1="288.249" y1="175.797" x2="286.027" y2="171.963"/>
  <line class="uuid-2a14a552-bda2-4dcb-95b9-c5a4cfb70681" x1="280.287" y1="161.97" x2="264.384" y2="134.44"/>
  <line class="uuid-2a14a552-bda2-4dcb-95b9-c5a4cfb70681" x1="335.739" y1="212.855" x2="325.992" y2="196.023"/>
  <line class="uuid-2a14a552-bda2-4dcb-95b9-c5a4cfb70681" x1="319.42" y1="184.638" x2="303.47" y2="157.01"/>
  <line class="uuid-2a14a552-bda2-4dcb-95b9-c5a4cfb70681" x1="355.379" y1="201.74" x2="342.726" y2="179.778"/>
  <line class="uuid-2a14a552-bda2-4dcb-95b9-c5a4cfb70681" x1="143.635" y1="221.892" x2="143.635" y2="220.038"/>
  <line class="uuid-2a14a552-bda2-4dcb-95b9-c5a4cfb70681" x1="154.971" y1="215.346" x2="154.971" y2="213.515"/>
  <line class="uuid-2a14a552-bda2-4dcb-95b9-c5a4cfb70681" x1="166.233" y1="208.848" x2="166.233" y2="207.017"/>
  <line class="uuid-2a14a552-bda2-4dcb-95b9-c5a4cfb70681" x1="177.566" y1="202.326" x2="177.566" y2="200.493"/>
  <line class="uuid-2a14a552-bda2-4dcb-95b9-c5a4cfb70681" x1="363.393" y1="200.324" x2="320.473" y2="274.68"/>
  <line class="uuid-2a14a552-bda2-4dcb-95b9-c5a4cfb70681" x1="325.282" y1="221.282" x2="281.387" y2="297.304"/>
  <line class="uuid-2a14a552-bda2-4dcb-95b9-c5a4cfb70681" x1="286.151" y1="243.876" x2="242.253" y2="319.896"/>
  <line class="uuid-2a14a552-bda2-4dcb-95b9-c5a4cfb70681" x1="246.845" y1="266.839" x2="209.397" y2="331.674"/>
  <line class="uuid-2a14a552-bda2-4dcb-95b9-c5a4cfb70681" x1="206.832" y1="324.591" x2="196.032" y2="330.864"/>
  <line class="uuid-2a14a552-bda2-4dcb-95b9-c5a4cfb70681" x1="207.247" y1="311.323" x2="184.188" y2="324.639"/>
  <line class="uuid-2a14a552-bda2-4dcb-95b9-c5a4cfb70681" x1="207.638" y1="298.058" x2="172.217" y2="318.505"/>
  <line class="uuid-2a14a552-bda2-4dcb-95b9-c5a4cfb70681" x1="207.688" y1="285.015" x2="160.247" y2="312.375"/>
  <line class="uuid-2a14a552-bda2-4dcb-95b9-c5a4cfb70681" x1="193.642" y1="280.055" x2="148.742" y2="305.974"/>
  <line class="uuid-2a14a552-bda2-4dcb-95b9-c5a4cfb70681" x1="182.209" y1="273.631" x2="137.262" y2="299.575"/>
  <line class="uuid-2a14a552-bda2-4dcb-95b9-c5a4cfb70681" x1="170.705" y1="267.256" x2="125.878" y2="293.125"/>
  <line class="uuid-2a14a552-bda2-4dcb-95b9-c5a4cfb70681" x1="159.099" y1="260.927" x2="114.663" y2="286.553"/>
  <line class="uuid-2a14a552-bda2-4dcb-95b9-c5a4cfb70681" x1="147.546" y1="254.553" x2="103.747" y2="279.835"/>
  <line class="uuid-2a14a552-bda2-4dcb-95b9-c5a4cfb70681" x1="135.967" y1="248.178" x2="93.168" y2="272.899"/>
  <line class="uuid-2a14a552-bda2-4dcb-95b9-c5a4cfb70681" x1="124.41" y1="241.827" x2="88.014" y2="262.884"/>
  <line class="uuid-2a14a552-bda2-4dcb-95b9-c5a4cfb70681" x1="112.857" y1="235.451" x2="88.355" y2="249.594"/>
  <line class="uuid-2a14a552-bda2-4dcb-95b9-c5a4cfb70681" x1="101.594" y1="228.927" x2="88.772" y2="236.352"/>
</svg>