<?xml version="1.0" encoding="UTF-8"?>
<svg id="uuid-96e676ce-ab85-4da5-a146-d9ead694f94e" data-name="&amp;lt;Layer&amp;gt;" xmlns="http://www.w3.org/2000/svg" viewBox="0 0 451.11 451.11">
  <defs>
    <style>
      .uuid-bc6c8de6-7e0f-4684-b533-199883ca53ee, .uuid-62c8fcdd-1e13-4d50-b2b3-9721a78c31ce, .uuid-e126b8be-6194-4305-b2cf-e3031a7e71e7, .uuid-dada8f7b-fb3d-45ee-ab10-6dd931fa7f87 {
        fill: none;
        stroke: #000;
        stroke-linecap: round;
      }

      .uuid-bc6c8de6-7e0f-4684-b533-199883ca53ee, .uuid-dada8f7b-fb3d-45ee-ab10-6dd931fa7f87 {
        stroke-linejoin: round;
        stroke-width: 4.117px;
      }

      .uuid-62c8fcdd-1e13-4d50-b2b3-9721a78c31ce {
        stroke-miterlimit: 10;
      }

      .uuid-62c8fcdd-1e13-4d50-b2b3-9721a78c31ce, .uuid-e126b8be-6194-4305-b2cf-e3031a7e71e7 {
        stroke-width: 1.163px;
      }

      .uuid-e126b8be-6194-4305-b2cf-e3031a7e71e7 {
        stroke-miterlimit: 22.926;
      }

      .uuid-e126b8be-6194-4305-b2cf-e3031a7e71e7, .uuid-dada8f7b-fb3d-45ee-ab10-6dd931fa7f87 {
        fill-rule: evenodd;
      }
    </style>
  </defs>
  <path class="uuid-dada8f7b-fb3d-45ee-ab10-6dd931fa7f87" d="M301.284,128.315c.485.537.732,1.049.732,1.712v.732c-.489,1.685-1.953,4.007-4.644,7.914-1.464,2.148-2.686,4.18-4.15,6.034-6.351,9.015-12.701,14.632-21.01,17.661-.732.221-1.221.391-1.711.563-.975.291-1.953.537-2.928.78-5.134,1.32-10.751,1.832-17.592,1.663"/>
  <path class="uuid-dada8f7b-fb3d-45ee-ab10-6dd931fa7f87" d="M253.157,156.775c6.841-1.563,14.417-4.569,20.035-9.967,2.196-2.174,11.237-13.606,14.901-20.519"/>
  <path class="uuid-dada8f7b-fb3d-45ee-ab10-6dd931fa7f87" d="M168.392,205.387c3.664.243,7.329-.806,11.726-3.543,3.422-2.028,21.009-17.245,26.627-25.38"/>
  <path class="uuid-dada8f7b-fb3d-45ee-ab10-6dd931fa7f87" d="M168.15,208.073v.048c7.082,3.664,12.705,5.401,18.808,3.664.736-.195,1.223-.415,1.959-.706,7.814-3.006,16.851-11.605,31.264-28.508"/>
  <path class="uuid-dada8f7b-fb3d-45ee-ab10-6dd931fa7f87" d="M317.649,129.537c0,26.307-11.237,54.134-33.953,67.325-30.539,17.661-33.714,5.276-48.611,13.922-14.905,8.599-18.081,24.575-48.613,42.162-.736.417-1.468.832-2.2,1.175-1.464.758-2.686,1.316-4.154,1.858-.485.217-1.221.459-1.707.633"/>
  <path class="uuid-dada8f7b-fb3d-45ee-ab10-6dd931fa7f87" d="M178.412,256.66c-.489.173-.979.293-1.711.415,0,0,0,.074-.247.074"/>
  <path class="uuid-dada8f7b-fb3d-45ee-ab10-6dd931fa7f87" d="M176.454,257.196c-.487.126-1.223.221-1.708.343-1.957.343-3.911.419-5.622.122-.732-.07-1.464-.244-2.196-.465-.732-.195-1.466-.411-1.955-.706v-.052"/>
  <path class="uuid-dada8f7b-fb3d-45ee-ab10-6dd931fa7f87" d="M164.728,256.438c0-.069,0-.121-.244-.121-.243-.17-.732-.391-.975-.585,0-.048-.247-.121-.247-.169"/>
  <path class="uuid-dada8f7b-fb3d-45ee-ab10-6dd931fa7f87" d="M163.263,255.515c-.243,0-.243-.078-.243-.173-2.932-2.27-4.886-4.935-6.35-7.915-.247-.463-.489-.979-.732-1.49-.247-.658-.736-1.294-.736-1.979"/>
  <path class="uuid-dada8f7b-fb3d-45ee-ab10-6dd931fa7f87" d="M155.202,251.093c2.2,1.269,4.886,2.612,7.818,4.25,0,.095,0,.173.243.173"/>
  <path class="uuid-dada8f7b-fb3d-45ee-ab10-6dd931fa7f87" d="M164.973,256.438v.052c.489.295,1.223.511,1.955.706.732.221,1.464.343,2.196.465,1.711.297,3.664.221,5.622-.122.485-.122,1.221-.217,1.708-.389.489-.148,1.221-.317,1.957-.537.485-.174,1.221-.417,1.707-.633,1.468-.541,2.689-1.099,4.154-1.858.732-.343,1.464-.758,2.2-1.175,30.532-17.587,33.708-33.562,48.613-42.162,14.897-8.646,18.072,3.738,48.611-13.922,22.716-13.19,33.953-41.018,33.953-67.325"/>
  <path class="uuid-dada8f7b-fb3d-45ee-ab10-6dd931fa7f87" d="M301.527,128.489c-13.924-10.579-37.376,9.867-52.03,33.536-.489.733-.489,1.542-.489,2.248s.489,1.101.975,1.075c27.606-.463,35.668-6.718,51.545-33.758.489-.61.489-1.221.489-1.809,0-.611,0-1.049-.489-1.291Z"/>
  <path class="uuid-dada8f7b-fb3d-45ee-ab10-6dd931fa7f87" d="M168.392,205.409c14.169-26.845,37.375-33.343,52.033-26.577.489.195.733.78.733,1.564-.244.806-.489,1.586-.979,2.196-27.846,31.54-35.908,34.641-51.788,25.8-.243-.199-.485-.589-.485-1.175s.243-1.199.485-1.809Z"/>
  <path class="uuid-dada8f7b-fb3d-45ee-ab10-6dd931fa7f87" d="M154.959,172.704c0,3.564-4.64,5.297-7.573,5.812-2.932.485-6.108.291-8.794-.684-1.711-.658-3.664-1.663-4.643-3.373-.243-.585-.489-1.097-.489-1.755"/>
  <path class="uuid-dada8f7b-fb3d-45ee-ab10-6dd931fa7f87" d="M144.212,178.785c2.932,0,5.618-.61,7.814-1.832,1.955-1.223,2.933-2.811,2.933-4.398s-.979-3.175-2.933-4.396c-2.196-1.221-4.882-1.833-7.814-1.833-2.687,0-5.376.611-7.573,1.833-2.2,1.221-3.179,2.808-3.179,4.396s.979,3.175,3.179,4.398c2.196,1.221,4.886,1.832,7.573,1.832Z"/>
  <path class="uuid-dada8f7b-fb3d-45ee-ab10-6dd931fa7f87" d="M141.278,178.49h-.243c0-.047-.247-.047-.489-.099,0-.07-.243-.07-.243-.07q-.247-.052-.247-.099h0"/>
  <path class="uuid-dada8f7b-fb3d-45ee-ab10-6dd931fa7f87" d="M139.814,178.223c-.247-.122-.732-.247-1.221-.417-.247-.048-.489-.121-.489-.243q-.243-.052-.243-.099s0-.074-.247-.074"/>
  <path class="uuid-dada8f7b-fb3d-45ee-ab10-6dd931fa7f87" d="M137.614,177.391c0-.048-.243-.096-.243-.096q-.247-.073-.247-.121l-.243-.074q0-.052-.243-.1v-.073c-.247-.096-.489-.218-.489-.391-.247-.125-.489-.295-.732-.463,0-.074,0-.121-.247-.195"/>
  <path class="uuid-dada8f7b-fb3d-45ee-ab10-6dd931fa7f87" d="M134.682,175.191c-.243-.122-.243-.291-.485-.461v-.245c-.247-.269-.489-.511-.489-.758,0-.343-.247-.633-.247-1.023"/>
  <path class="uuid-dada8f7b-fb3d-45ee-ab10-6dd931fa7f87" d="M154.715,171.066c35.665-30.536,124.095-78.267,143.393-80.2"/>
  <path class="uuid-dada8f7b-fb3d-45ee-ab10-6dd931fa7f87" d="M317.649,129.537v-27.581c0-2.992-2.479-3.57-4.658-4.735l-11.953-6.402-2.93.047"/>
  <line class="uuid-bc6c8de6-7e0f-4684-b533-199883ca53ee" x1="155.202" y1="243.957" x2="155.202" y2="243.885"/>
  <path class="uuid-dada8f7b-fb3d-45ee-ab10-6dd931fa7f87" d="M154.959,354.059c0,8.338-21.499,8.206-21.499.217"/>
  <line class="uuid-bc6c8de6-7e0f-4684-b533-199883ca53ee" x1="133.46" y1="354.276" x2="133.46" y2="354.225"/>
  <line class="uuid-bc6c8de6-7e0f-4684-b533-199883ca53ee" x1="154.959" y1="354.299" x2="154.959" y2="172.704"/>
  <line class="uuid-bc6c8de6-7e0f-4684-b533-199883ca53ee" x1="133.46" y1="172.704" x2="133.46" y2="354.299"/>
  <path class="uuid-dada8f7b-fb3d-45ee-ab10-6dd931fa7f87" d="M154.959,191.096c0-.1,0-.173.243-.269,6.107-8.72,23.942-22.426,45.683-36.765,2.443-1.637,4.882-3.275,7.571-4.838,17.345-11.016,36.154-22.058,53.494-30.951.979-.465,1.957-.976,2.932-1.512.979-.443,1.955-.979,2.691-1.443.975-.511,1.953-.975,2.928-1.442,2.2-1.173,4.643-2.27,6.84-3.37v-.074c1.221-.563,2.443-1.097,3.422-1.564,1.221-.511,2.2-1.049,3.422-1.512,10.501-4.812,19.541-8.064,25.402-8.989.489-.125.979-.173,1.712-.221.975-.121,2.782-.132,3.516-.01"/>
  <line class="uuid-62c8fcdd-1e13-4d50-b2b3-9721a78c31ce" x1="266.106" y1="162.077" x2="257.801" y2="157.338"/>
  <line class="uuid-62c8fcdd-1e13-4d50-b2b3-9721a78c31ce" x1="279.3" y1="156.676" x2="270.259" y2="151.448"/>
  <line class="uuid-62c8fcdd-1e13-4d50-b2b3-9721a78c31ce" x1="288.093" y1="148.688" x2="278.564" y2="143.169"/>
  <line class="uuid-62c8fcdd-1e13-4d50-b2b3-9721a78c31ce" x1="294.933" y1="139.457" x2="285.403" y2="134.032"/>
  <line class="uuid-62c8fcdd-1e13-4d50-b2b3-9721a78c31ce" x1="186.715" y1="209.858" x2="178.165" y2="204.997"/>
  <line class="uuid-62c8fcdd-1e13-4d50-b2b3-9721a78c31ce" x1="197.709" y1="203.187" x2="188.18" y2="197.69"/>
  <line class="uuid-62c8fcdd-1e13-4d50-b2b3-9721a78c31ce" x1="206.256" y1="195.103" x2="196.973" y2="189.727"/>
  <line class="uuid-62c8fcdd-1e13-4d50-b2b3-9721a78c31ce" x1="214.318" y1="186.648" x2="205.035" y2="181.372"/>
  <line class="uuid-62c8fcdd-1e13-4d50-b2b3-9721a78c31ce" x1="166.196" y1="176.779" x2="156.913" y2="171.456"/>
  <line class="uuid-62c8fcdd-1e13-4d50-b2b3-9721a78c31ce" x1="185.736" y1="161.93" x2="176.701" y2="156.65"/>
  <line class="uuid-62c8fcdd-1e13-4d50-b2b3-9721a78c31ce" x1="206.988" y1="148.103" x2="197.709" y2="142.776"/>
  <line class="uuid-62c8fcdd-1e13-4d50-b2b3-9721a78c31ce" x1="228.73" y1="134.666" x2="219.693" y2="129.489"/>
  <line class="uuid-62c8fcdd-1e13-4d50-b2b3-9721a78c31ce" x1="251.45" y1="121.77" x2="242.899" y2="116.689"/>
  <line class="uuid-62c8fcdd-1e13-4d50-b2b3-9721a78c31ce" x1="275.388" y1="109.481" x2="266.838" y2="104.499"/>
  <line class="uuid-62c8fcdd-1e13-4d50-b2b3-9721a78c31ce" x1="301.527" y1="98.417" x2="293.465" y2="93.726"/>
  <path class="uuid-e126b8be-6194-4305-b2cf-e3031a7e71e7" d="M315.696,100.933c.243,0,.243.022.243.022-.243-.022-.243-.048-.243-.048v.026Z"/>
  <line class="uuid-62c8fcdd-1e13-4d50-b2b3-9721a78c31ce" x1="153.247" y1="343.602" x2="144.455" y2="358.794"/>
  <line class="uuid-62c8fcdd-1e13-4d50-b2b3-9721a78c31ce" x1="153.737" y1="297.967" x2="135.171" y2="330.019"/>
  <line class="uuid-62c8fcdd-1e13-4d50-b2b3-9721a78c31ce" x1="153.737" y1="252.729" x2="135.171" y2="284.729"/>
  <line class="uuid-62c8fcdd-1e13-4d50-b2b3-9721a78c31ce" x1="153.737" y1="207.73" x2="135.171" y2="239.708"/>
  <line class="uuid-62c8fcdd-1e13-4d50-b2b3-9721a78c31ce" x1="143.233" y1="180.275" x2="135.418" y2="193.808"/>
</svg>