<?xml version="1.0" encoding="UTF-8"?>
<svg id="uuid-1d196922-2876-4d93-bb63-9b1eacad2336" data-name="&amp;lt;Layer&amp;gt;" xmlns="http://www.w3.org/2000/svg" viewBox="0 0 451.11 451.11">
  <defs>
    <style>
      .uuid-6d8ffca3-019f-4172-bee8-787b09ca7242, .uuid-9bf4d70b-2ecf-48f7-9739-ecf56b2ea014, .uuid-03790a47-8d3b-4816-9b0f-3c8404533332 {
        fill: none;
        stroke: #000;
        stroke-linecap: round;
      }

      .uuid-6d8ffca3-019f-4172-bee8-787b09ca7242, .uuid-03790a47-8d3b-4816-9b0f-3c8404533332 {
        stroke-linejoin: round;
        stroke-width: 4.113px;
      }

      .uuid-9bf4d70b-2ecf-48f7-9739-ecf56b2ea014 {
        stroke-miterlimit: 10;
        stroke-width: 1.163px;
      }

      .uuid-03790a47-8d3b-4816-9b0f-3c8404533332 {
        fill-rule: evenodd;
      }
    </style>
  </defs>
  <path class="uuid-03790a47-8d3b-4816-9b0f-3c8404533332" d="M165.343,352.773l65.271-37.691M270.8,291.899l65.272-37.691"/>
  <path class="uuid-03790a47-8d3b-4816-9b0f-3c8404533332" d="M336.073,254.207c8.425-4.839,15.218-16.683,15.218-26.382"/>
  <line class="uuid-6d8ffca3-019f-4172-bee8-787b09ca7242" x1="351.29" y1="227.825" x2="351.29" y2="133.019"/>
  <path class="uuid-03790a47-8d3b-4816-9b0f-3c8404533332" d="M351.29,133.019c0-9.673-6.792-13.633-15.218-8.794"/>
  <path class="uuid-03790a47-8d3b-4816-9b0f-3c8404533332" d="M336.073,124.226l-65.272,37.717M230.614,185.123l-65.271,37.695"/>
  <path class="uuid-03790a47-8d3b-4816-9b0f-3c8404533332" d="M165.343,222.818c-8.379,4.835-15.218,16.682-15.218,26.356"/>
  <line class="uuid-6d8ffca3-019f-4172-bee8-787b09ca7242" x1="150.125" y1="249.174" x2="150.125" y2="343.98"/>
  <path class="uuid-03790a47-8d3b-4816-9b0f-3c8404533332" d="M150.125,343.98c0,9.699,6.839,13.658,15.218,8.794"/>
  <path class="uuid-03790a47-8d3b-4816-9b0f-3c8404533332" d="M230.662,223.694c-4.639,9.53-7.473,20.376-7.473,30.56s2.834,17.712,7.473,21.889"/>
  <path class="uuid-03790a47-8d3b-4816-9b0f-3c8404533332" d="M270.8,181.241c9.696,4.176,16.072,17.245,16.072,36.179s-6.376,39.376-16.072,54.716"/>
  <path class="uuid-03790a47-8d3b-4816-9b0f-3c8404533332" d="M270.8,174.401c22.01-12.727,44.068-25.454,66.078-38.159,2.785-1.634,5.104-.048,5.104,3.496v91.8c0,3.544-2.318,7.719-5.104,9.357-22.01,12.701-44.068,25.428-66.078,38.155"/>
  <path class="uuid-03790a47-8d3b-4816-9b0f-3c8404533332" d="M270.8,200.466c4.64,4.176,7.474,11.726,7.474,21.962,0,10.084-2.834,20.958-7.474,30.483"/>
  <path class="uuid-03790a47-8d3b-4816-9b0f-3c8404533332" d="M230.662,295.368c-9.695-4.202-16.07-17.271-16.07-36.201s6.376-39.307,16.07-54.698"/>
  <path class="uuid-03790a47-8d3b-4816-9b0f-3c8404533332" d="M230.662,302.207c-22.006,12.702-44.067,25.429-66.073,38.159-2.786,1.612-5.108.048-5.108-3.494v-91.801c0-3.492,2.322-7.719,5.108-9.356,22.006-12.702,44.067-25.429,66.073-38.156"/>
  <path class="uuid-03790a47-8d3b-4816-9b0f-3c8404533332" d="M324.273,186.418c4.714-2.734,8.551-.611,8.551,4.717s-3.837,11.87-8.551,14.582c-4.691,2.737-8.524.61-8.524-4.739s3.833-11.848,8.524-14.56Z"/>
  <path class="uuid-03790a47-8d3b-4816-9b0f-3c8404533332" d="M177.121,271.378c-4.692,2.738-8.529,9.261-8.529,14.584s3.837,7.452,8.529,4.739c4.713-2.734,8.546-9.257,8.546-14.606s-3.833-7.428-8.546-4.717Z"/>
  <polyline class="uuid-03790a47-8d3b-4816-9b0f-3c8404533332" points="238.164 180.778 230.614 185.123 230.614 315.082 238.164 310.733 270.8 291.899 270.8 161.943 263.251 166.292"/>
  <line class="uuid-6d8ffca3-019f-4172-bee8-787b09ca7242" x1="238.164" y1="310.733" x2="238.164" y2="180.778"/>
  <line class="uuid-6d8ffca3-019f-4172-bee8-787b09ca7242" x1="263.251" y1="296.247" x2="263.251" y2="166.292"/>
  <path class="uuid-03790a47-8d3b-4816-9b0f-3c8404533332" d="M295.592,93.712c-3.245-1.244-6.789-.048-9.647,1.542"/>
  <path class="uuid-03790a47-8d3b-4816-9b0f-3c8404533332" d="M285.945,95.254l-72.866,42.063M187.989,151.803l-72.822,42.04M204.94,142.056l-8.768,5.032"/>
  <path class="uuid-03790a47-8d3b-4816-9b0f-3c8404533332" d="M115.167,193.842c-8.473,5.034-15.097,16.465-15.218,26.386-.048,10.525-.413,94.607.341,98.151.537,2.737,1.759,4.982,4.129,6.498"/>
  <line class="uuid-6d8ffca3-019f-4172-bee8-787b09ca7242" x1="104.42" y1="324.877" x2="154.595" y2="353.826"/>
  <path class="uuid-03790a47-8d3b-4816-9b0f-3c8404533332" d="M154.595,353.826c-3.54-2.422-4.422-5.623-4.47-9.847"/>
  <path class="uuid-03790a47-8d3b-4816-9b0f-3c8404533332" d="M336.073,124.226c3.712-2.028,6.91-2.86,10.795-1.027"/>
  <line class="uuid-6d8ffca3-019f-4172-bee8-787b09ca7242" x1="346.868" y1="123.199" x2="295.592" y2="93.712"/>
  <path class="uuid-03790a47-8d3b-4816-9b0f-3c8404533332" d="M104.935,204.399c-2.885,4.835-4.938,10.136-4.986,15.829"/>
  <line class="uuid-6d8ffca3-019f-4172-bee8-787b09ca7242" x1="99.95" y1="220.228" x2="99.95" y2="315.008"/>
  <path class="uuid-03790a47-8d3b-4816-9b0f-3c8404533332" d="M99.95,315.008c.121,3.907.979,7.645,4.47,9.869"/>
  <path class="uuid-03790a47-8d3b-4816-9b0f-3c8404533332" d="M150.125,249.174c.048-5.714,2.028-10.943,4.934-15.829"/>
  <line class="uuid-6d8ffca3-019f-4172-bee8-787b09ca7242" x1="155.059" y1="233.345" x2="104.935" y2="204.399"/>
  <polyline class="uuid-03790a47-8d3b-4816-9b0f-3c8404533332" points="316.042 105.344 315.505 105.123 314.991 104.879"/>
  <path class="uuid-03790a47-8d3b-4816-9b0f-3c8404533332" d="M313.264,103.898c-3.297-1.273-6.789-.052-9.695,1.512"/>
  <line class="uuid-6d8ffca3-019f-4172-bee8-787b09ca7242" x1="303.569" y1="105.41" x2="238.172" y2="143.152"/>
  <line class="uuid-6d8ffca3-019f-4172-bee8-787b09ca7242" x1="195.963" y1="167.554" x2="132.84" y2="204.002"/>
  <path class="uuid-03790a47-8d3b-4816-9b0f-3c8404533332" d="M132.84,204.002c-4.081,2.347-7.599,6.229-10.284,10.577-3.08,4.935-4.934,10.575-4.986,15.803"/>
  <line class="uuid-6d8ffca3-019f-4172-bee8-787b09ca7242" x1="117.57" y1="230.382" x2="117.57" y2="325.214"/>
  <path class="uuid-03790a47-8d3b-4816-9b0f-3c8404533332" d="M117.57,325.214c.125,4.177.979,7.378,4.474,9.821"/>
  <line class="uuid-6d8ffca3-019f-4172-bee8-787b09ca7242" x1="335.9" y1="116.849" x2="335.826" y2="116.849"/>
  <path class="uuid-03790a47-8d3b-4816-9b0f-3c8404533332" d="M328.626,112.688c-3.812-1.811-7.009-.979-10.675,1.047"/>
  <line class="uuid-6d8ffca3-019f-4172-bee8-787b09ca7242" x1="317.951" y1="113.735" x2="252.632" y2="151.478"/>
  <line class="uuid-6d8ffca3-019f-4172-bee8-787b09ca7242" x1="210.344" y1="175.859" x2="147.151" y2="212.329"/>
  <path class="uuid-03790a47-8d3b-4816-9b0f-3c8404533332" d="M147.151,212.329c-.805.463-1.49,1.001-2.248,1.515-1.931,1.513-3.37,2.956-4.934,4.761-.879,1.101-1.685,2.149-2.443,3.301-.243.291-.415.659-.585.953-.758,1.149-1.346,2.318-1.98,3.592-1.785,4.007-2.906,7.767-3.006,12.237"/>
  <line class="uuid-6d8ffca3-019f-4172-bee8-787b09ca7242" x1="131.956" y1="238.687" x2="131.956" y2="333.467"/>
  <line class="uuid-6d8ffca3-019f-4172-bee8-787b09ca7242" x1="270.8" y1="161.943" x2="220.625" y2="132.971"/>
  <path class="uuid-03790a47-8d3b-4816-9b0f-3c8404533332" d="M220.625,132.971c-23.278,13.433-18.982,10.968-42.282,24.401"/>
  <line class="uuid-6d8ffca3-019f-4172-bee8-787b09ca7242" x1="178.342" y1="157.373" x2="228.514" y2="186.344"/>
  <path class="uuid-03790a47-8d3b-4816-9b0f-3c8404533332" d="M228.514,186.344c23.283-13.433,19.008-10.968,42.286-24.401"/>
  <line class="uuid-6d8ffca3-019f-4172-bee8-787b09ca7242" x1="168.006" y1="245.951" x2="188.673" y2="234.029"/>
  <line class="uuid-6d8ffca3-019f-4172-bee8-787b09ca7242" x1="168.006" y1="326.588" x2="188.673" y2="314.665"/>
  <line class="uuid-6d8ffca3-019f-4172-bee8-787b09ca7242" x1="312.789" y1="242.995" x2="333.457" y2="231.074"/>
  <line class="uuid-6d8ffca3-019f-4172-bee8-787b09ca7242" x1="312.789" y1="162.38" x2="333.457" y2="150.437"/>
  <line class="uuid-6d8ffca3-019f-4172-bee8-787b09ca7242" x1="187.989" y1="151.803" x2="238.164" y2="180.778"/>
  <line class="uuid-6d8ffca3-019f-4172-bee8-787b09ca7242" x1="213.079" y1="137.317" x2="263.251" y2="166.292"/>
  <line class="uuid-9bf4d70b-2ecf-48f7-9739-ecf56b2ea014" x1="149.245" y1="283.329" x2="101.929" y2="310.659"/>
  <line class="uuid-9bf4d70b-2ecf-48f7-9739-ecf56b2ea014" x1="150.206" y1="269.76" x2="101.929" y2="297.664"/>
  <line class="uuid-9bf4d70b-2ecf-48f7-9739-ecf56b2ea014" x1="149.967" y1="256.849" x2="101.929" y2="284.621"/>
  <line class="uuid-9bf4d70b-2ecf-48f7-9739-ecf56b2ea014" x1="149.161" y1="244.298" x2="101.929" y2="271.599"/>
  <line class="uuid-9bf4d70b-2ecf-48f7-9739-ecf56b2ea014" x1="148.848" y1="231.431" x2="101.929" y2="258.556"/>
  <line class="uuid-9bf4d70b-2ecf-48f7-9739-ecf56b2ea014" x1="137.699" y1="224.849" x2="101.929" y2="245.508"/>
  <line class="uuid-9bf4d70b-2ecf-48f7-9739-ecf56b2ea014" x1="126.893" y1="218.042" x2="101.929" y2="232.49"/>
  <line class="uuid-9bf4d70b-2ecf-48f7-9739-ecf56b2ea014" x1="116.186" y1="211.198" x2="101.881" y2="219.47"/>
  <line class="uuid-9bf4d70b-2ecf-48f7-9739-ecf56b2ea014" x1="167.76" y1="221.542" x2="119.295" y2="193.674"/>
  <line class="uuid-9bf4d70b-2ecf-48f7-9739-ecf56b2ea014" x1="190.359" y1="208.494" x2="141.868" y2="180.652"/>
  <line class="uuid-9bf4d70b-2ecf-48f7-9739-ecf56b2ea014" x1="212.931" y1="195.451" x2="164.467" y2="167.609"/>
  <line class="uuid-9bf4d70b-2ecf-48f7-9739-ecf56b2ea014" x1="286.802" y1="152.8" x2="238.335" y2="124.932"/>
  <line class="uuid-9bf4d70b-2ecf-48f7-9739-ecf56b2ea014" x1="309.397" y1="139.778" x2="260.933" y2="111.888"/>
  <line class="uuid-9bf4d70b-2ecf-48f7-9739-ecf56b2ea014" x1="331.992" y1="126.735" x2="283.502" y2="98.868"/>
  <line class="uuid-9bf4d70b-2ecf-48f7-9739-ecf56b2ea014" x1="280.838" y1="271.162" x2="277.125" y2="264.733"/>
  <line class="uuid-9bf4d70b-2ecf-48f7-9739-ecf56b2ea014" x1="300.7" y1="260.461" x2="286.533" y2="235.861"/>
  <line class="uuid-9bf4d70b-2ecf-48f7-9739-ecf56b2ea014" x1="321.318" y1="251.005" x2="275.05" y2="170.832"/>
  <line class="uuid-9bf4d70b-2ecf-48f7-9739-ecf56b2ea014" x1="339.274" y1="236.914" x2="322.367" y2="207.622"/>
  <line class="uuid-9bf4d70b-2ecf-48f7-9739-ecf56b2ea014" x1="315.627" y1="196.043" x2="295.423" y2="161.016"/>
  <line class="uuid-9bf4d70b-2ecf-48f7-9739-ecf56b2ea014" x1="340.834" y1="194.432" x2="314.82" y2="149.411"/>
  <line class="uuid-9bf4d70b-2ecf-48f7-9739-ecf56b2ea014" x1="340.128" y1="148.115" x2="335.02" y2="139.297"/>
  <line class="uuid-9bf4d70b-2ecf-48f7-9739-ecf56b2ea014" x1="170.06" y1="335.502" x2="161.288" y2="320.285"/>
  <line class="uuid-9bf4d70b-2ecf-48f7-9739-ecf56b2ea014" x1="189.894" y1="324.781" x2="171.45" y2="292.777"/>
  <line class="uuid-9bf4d70b-2ecf-48f7-9739-ecf56b2ea014" x1="166.859" y1="284.815" x2="161.388" y2="275.337"/>
  <line class="uuid-9bf4d70b-2ecf-48f7-9739-ecf56b2ea014" x1="209.657" y1="313.713" x2="187.01" y2="274.579"/>
  <line class="uuid-9bf4d70b-2ecf-48f7-9739-ecf56b2ea014" x1="184.203" y1="269.694" x2="165" y2="236.425"/>
  <line class="uuid-9bf4d70b-2ecf-48f7-9739-ecf56b2ea014" x1="228.588" y1="301.425" x2="223.58" y2="292.729"/>
  <line class="uuid-9bf4d70b-2ecf-48f7-9739-ecf56b2ea014" x1="216.154" y1="279.882" x2="184.152" y2="224.404"/>
  <line class="uuid-9bf4d70b-2ecf-48f7-9739-ecf56b2ea014" x1="216.276" y1="234.883" x2="204.355" y2="214.242"/>
  <line class="uuid-9bf4d70b-2ecf-48f7-9739-ecf56b2ea014" x1="226.611" y1="207.648" x2="224.216" y2="203.494"/>
  <line class="uuid-9bf4d70b-2ecf-48f7-9739-ecf56b2ea014" x1="221.84" y1="173.492" x2="215.905" y2="176.91"/>
  <line class="uuid-9bf4d70b-2ecf-48f7-9739-ecf56b2ea014" x1="199.292" y1="160.471" x2="193.383" y2="163.889"/>
  <line class="uuid-9bf4d70b-2ecf-48f7-9739-ecf56b2ea014" x1="262.986" y1="283.767" x2="240.144" y2="296.961"/>
  <line class="uuid-9bf4d70b-2ecf-48f7-9739-ecf56b2ea014" x1="262.986" y1="257.701" x2="240.144" y2="270.874"/>
  <line class="uuid-9bf4d70b-2ecf-48f7-9739-ecf56b2ea014" x1="262.986" y1="231.638" x2="240.144" y2="244.81"/>
  <line class="uuid-9bf4d70b-2ecf-48f7-9739-ecf56b2ea014" x1="262.986" y1="205.572" x2="240.144" y2="218.745"/>
  <line class="uuid-9bf4d70b-2ecf-48f7-9739-ecf56b2ea014" x1="262.986" y1="179.487" x2="240.144" y2="192.681"/>
  <line class="uuid-9bf4d70b-2ecf-48f7-9739-ecf56b2ea014" x1="248.651" y1="157.858" x2="224.926" y2="171.531"/>
  <line class="uuid-9bf4d70b-2ecf-48f7-9739-ecf56b2ea014" x1="226.055" y1="144.816" x2="202.379" y2="158.514"/>
  <line class="uuid-9bf4d70b-2ecf-48f7-9739-ecf56b2ea014" x1="254.236" y1="154.565" x2="250.594" y2="156.666"/>
  <line class="uuid-9bf4d70b-2ecf-48f7-9739-ecf56b2ea014" x1="231.663" y1="141.519" x2="227.999" y2="143.645"/>
  <line class="uuid-9bf4d70b-2ecf-48f7-9739-ecf56b2ea014" x1="149.245" y1="335.436" x2="135.668" y2="343.288"/>
  <line class="uuid-9bf4d70b-2ecf-48f7-9739-ecf56b2ea014" x1="150.206" y1="321.867" x2="124.734" y2="336.606"/>
  <line class="uuid-9bf4d70b-2ecf-48f7-9739-ecf56b2ea014" x1="149.967" y1="308.956" x2="113.435" y2="330.086"/>
  <line class="uuid-9bf4d70b-2ecf-48f7-9739-ecf56b2ea014" x1="149.161" y1="296.405" x2="101.929" y2="323.706"/>
  <path class="uuid-03790a47-8d3b-4816-9b0f-3c8404533332" d="M131.956,333.467c.126,4.177.979,7.378,4.474,9.821"/>
</svg>