<?xml version="1.0" encoding="UTF-8"?>
<svg id="uuid-c958f9d7-e8bb-4546-aa71-9f0760875b87" data-name="&amp;lt;Layer&amp;gt;" xmlns="http://www.w3.org/2000/svg" viewBox="0 0 451.11 451.11">
  <defs>
    <style>
      .uuid-4623685b-8731-4fcd-bb9a-14f8d14c0a3d, .uuid-81e0cd7c-f430-4f91-afd7-f2d243cc07c2, .uuid-d7c7d2fd-aaca-41cb-b26c-e50e4574a767 {
        fill: none;
        stroke: #000;
        stroke-linecap: round;
      }

      .uuid-4623685b-8731-4fcd-bb9a-14f8d14c0a3d, .uuid-d7c7d2fd-aaca-41cb-b26c-e50e4574a767 {
        stroke-linejoin: round;
        stroke-width: 4.113px;
      }

      .uuid-81e0cd7c-f430-4f91-afd7-f2d243cc07c2 {
        stroke-miterlimit: 10;
        stroke-width: 1.163px;
      }

      .uuid-d7c7d2fd-aaca-41cb-b26c-e50e4574a767 {
        fill-rule: evenodd;
      }
    </style>
  </defs>
  <path class="uuid-d7c7d2fd-aaca-41cb-b26c-e50e4574a767" d="M206.436,219.561c-20.277,14.876-36.301,36.249-44.094,56.795-1.685-1.979-3.006-4.47-3.933-7.962-6.62-26.823,15.023-68.279,48.027-92.389"/>
  <path class="uuid-d7c7d2fd-aaca-41cb-b26c-e50e4574a767" d="M260.788,126.072c-5.302-1.855-9.821-2.734-15.464-2.782-25.355-.419-51.03,17.366-68.227,34.539-31.072,31.071-56.037,80.541-56.037,124.973,0,17.371,4.007,36.716,16.952,49.249"/>
  <polyline class="uuid-d7c7d2fd-aaca-41cb-b26c-e50e4574a767" points="138.011 332.05 139.232 333.198 110.434 316.538"/>
  <path class="uuid-d7c7d2fd-aaca-41cb-b26c-e50e4574a767" d="M110.434,316.538c-.636-.463-3.006-2.954-3.664-3.664-16.076-18.224-16.439-47.608-12.363-70.254,5.74-32.341,23.111-67.373,46.806-94.022,20.836-23.332,57.479-50.861,90.7-39.207"/>
  <path class="uuid-d7c7d2fd-aaca-41cb-b26c-e50e4574a767" d="M152.938,293.479c28.287-.757,57.895-35.078,70.327-59.505,10.163-20.153,19.814-55.11,8.257-76.778"/>
  <path class="uuid-d7c7d2fd-aaca-41cb-b26c-e50e4574a767" d="M206.436,134.892c23.569-13.581,44.947-14.85,60.386-5.984,15.438,8.938,25.038,28.067,25.038,55.279,0,15.755-3.202,32.467-8.894,48.954,1.737.295,3.375.832,4.865,1.711"/>
  <path class="uuid-d7c7d2fd-aaca-41cb-b26c-e50e4574a767" d="M248.355,303.252c-1.516-.879-2.786-1.979-3.886-3.373-11.457,13.168-24.331,24.379-38.033,32.224-23.6,13.654-44.9,14.923-60.339,5.982-15.512-8.89-25.038-28.045-25.038-55.283s9.526-57.379,25.038-84.154c15.438-26.745,36.739-50.101,60.339-63.755"/>
  <path class="uuid-d7c7d2fd-aaca-41cb-b26c-e50e4574a767" d="M248.303,161.082c-10.699-6.207-25.502-5.28-41.867,4.128-16.318,9.404-31.147,25.624-41.824,44.137-10.696,18.567-17.318,39.476-17.318,58.289s6.622,32.194,17.318,38.349c10.677,6.156,25.506,5.276,41.824-4.128,16.365-9.478,31.168-25.674,41.867-44.189,10.677-18.541,17.297-39.45,17.297-58.311s-6.62-32.124-17.297-38.275Z"/>
  <line class="uuid-4623685b-8731-4fcd-bb9a-14f8d14c0a3d" x1="206.436" y1="176.005" x2="206.436" y2="219.561"/>
  <line class="uuid-4623685b-8731-4fcd-bb9a-14f8d14c0a3d" x1="231.912" y1="109.39" x2="260.788" y2="126.072"/>
  <line class="uuid-4623685b-8731-4fcd-bb9a-14f8d14c0a3d" x1="287.831" y1="234.852" x2="350.73" y2="271.128"/>
  <path class="uuid-d7c7d2fd-aaca-41cb-b26c-e50e4574a767" d="M350.73,271.128c10.872,6.277,10.872,26.848,0,45.583"/>
  <line class="uuid-4623685b-8731-4fcd-bb9a-14f8d14c0a3d" x1="350.73" y1="316.711" x2="350.73" y2="316.785"/>
  <path class="uuid-d7c7d2fd-aaca-41cb-b26c-e50e4574a767" d="M350.73,316.785c-10.847,18.809-28.629,29.019-39.546,22.742"/>
  <line class="uuid-4623685b-8731-4fcd-bb9a-14f8d14c0a3d" x1="311.184" y1="339.527" x2="248.355" y2="303.252"/>
  <line class="uuid-81e0cd7c-f430-4f91-afd7-f2d243cc07c2" x1="139.232" y1="333.202" x2="124.434" y2="307.495"/>
  <line class="uuid-81e0cd7c-f430-4f91-afd7-f2d243cc07c2" x1="171.868" y1="344.483" x2="123.087" y2="260.037"/>
  <line class="uuid-81e0cd7c-f430-4f91-afd7-f2d243cc07c2" x1="193.706" y1="337.231" x2="178.66" y2="311.141"/>
  <line class="uuid-81e0cd7c-f430-4f91-afd7-f2d243cc07c2" x1="146.561" y1="255.516" x2="132.319" y2="230.941"/>
  <line class="uuid-81e0cd7c-f430-4f91-afd7-f2d243cc07c2" x1="213.398" y1="326.189" x2="201.597" y2="305.743"/>
  <line class="uuid-81e0cd7c-f430-4f91-afd7-f2d243cc07c2" x1="155.038" y1="225.08" x2="143.827" y2="205.634"/>
  <line class="uuid-81e0cd7c-f430-4f91-afd7-f2d243cc07c2" x1="231.158" y1="311.725" x2="220.601" y2="293.428"/>
  <line class="uuid-81e0cd7c-f430-4f91-afd7-f2d243cc07c2" x1="167.57" y1="201.631" x2="157.236" y2="183.724"/>
  <line class="uuid-81e0cd7c-f430-4f91-afd7-f2d243cc07c2" x1="252.826" y1="304.18" x2="236.75" y2="276.308"/>
  <line class="uuid-81e0cd7c-f430-4f91-afd7-f2d243cc07c2" x1="182.615" y1="182.529" x2="172.405" y2="164.79"/>
  <line class="uuid-81e0cd7c-f430-4f91-afd7-f2d243cc07c2" x1="292.839" y1="328.29" x2="249.867" y2="253.882"/>
  <line class="uuid-81e0cd7c-f430-4f91-afd7-f2d243cc07c2" x1="200.033" y1="167.576" x2="189.117" y2="148.644"/>
  <line class="uuid-81e0cd7c-f430-4f91-afd7-f2d243cc07c2" x1="326.818" y1="341.919" x2="260.25" y2="226.718"/>
  <line class="uuid-81e0cd7c-f430-4f91-afd7-f2d243cc07c2" x1="220.479" y1="157.781" x2="207.658" y2="135.602"/>
  <line class="uuid-81e0cd7c-f430-4f91-afd7-f2d243cc07c2" x1="344.453" y1="327.337" x2="293.082" y2="238.322"/>
  <line class="uuid-81e0cd7c-f430-4f91-afd7-f2d243cc07c2" x1="284.579" y1="223.69" x2="266.77" y2="192.859"/>
  <line class="uuid-81e0cd7c-f430-4f91-afd7-f2d243cc07c2" x1="247.255" y1="159.002" x2="228.421" y2="126.415"/>
  <line class="uuid-81e0cd7c-f430-4f91-afd7-f2d243cc07c2" x1="355.836" y1="301.978" x2="333.142" y2="262.554"/>
  <line class="uuid-81e0cd7c-f430-4f91-afd7-f2d243cc07c2" x1="290.86" y1="189.368" x2="253.289" y2="124.265"/>
  <line class="uuid-81e0cd7c-f430-4f91-afd7-f2d243cc07c2" x1="126.115" y1="318.469" x2="121.815" y2="320.96"/>
  <line class="uuid-81e0cd7c-f430-4f91-afd7-f2d243cc07c2" x1="122.403" y1="307.597" x2="110.434" y2="314.463"/>
  <line class="uuid-81e0cd7c-f430-4f91-afd7-f2d243cc07c2" x1="120.25" y1="295.749" x2="103.053" y2="305.695"/>
  <line class="uuid-81e0cd7c-f430-4f91-afd7-f2d243cc07c2" x1="119.617" y1="283.096" x2="97.998" y2="295.581"/>
  <line class="uuid-81e0cd7c-f430-4f91-afd7-f2d243cc07c2" x1="120.471" y1="269.563" x2="94.869" y2="284.37"/>
  <line class="uuid-81e0cd7c-f430-4f91-afd7-f2d243cc07c2" x1="122.745" y1="255.226" x2="93.357" y2="272.18"/>
  <line class="uuid-81e0cd7c-f430-4f91-afd7-f2d243cc07c2" x1="126.63" y1="239.956" x2="93.357" y2="259.181"/>
  <line class="uuid-81e0cd7c-f430-4f91-afd7-f2d243cc07c2" x1="132.565" y1="223.517" x2="94.823" y2="245.283"/>
  <line class="uuid-81e0cd7c-f430-4f91-afd7-f2d243cc07c2" x1="140.869" y1="205.686" x2="97.902" y2="230.478"/>
  <line class="uuid-81e0cd7c-f430-4f91-afd7-f2d243cc07c2" x1="152.523" y1="185.872" x2="102.835" y2="214.575"/>
  <line class="uuid-81e0cd7c-f430-4f91-afd7-f2d243cc07c2" x1="245.154" y1="119.38" x2="237.239" y2="123.956"/>
  <line class="uuid-81e0cd7c-f430-4f91-afd7-f2d243cc07c2" x1="171.014" y1="162.177" x2="109.918" y2="197.426"/>
  <line class="uuid-81e0cd7c-f430-4f91-afd7-f2d243cc07c2" x1="235.823" y1="111.751" x2="118.496" y2="179.448"/>
  <line class="uuid-81e0cd7c-f430-4f91-afd7-f2d243cc07c2" x1="221.117" y1="107.19" x2="135.568" y2="156.56"/>
  <line class="uuid-81e0cd7c-f430-4f91-afd7-f2d243cc07c2" x1="237.309" y1="272.006" x2="173.553" y2="308.819"/>
  <line class="uuid-81e0cd7c-f430-4f91-afd7-f2d243cc07c2" x1="251.847" y1="250.581" x2="159.51" y2="303.885"/>
  <line class="uuid-81e0cd7c-f430-4f91-afd7-f2d243cc07c2" x1="258.513" y1="233.679" x2="202.135" y2="266.242"/>
  <line class="uuid-81e0cd7c-f430-4f91-afd7-f2d243cc07c2" x1="262.642" y1="218.289" x2="219.31" y2="243.253"/>
  <line class="uuid-81e0cd7c-f430-4f91-afd7-f2d243cc07c2" x1="264.452" y1="204.17" x2="228.541" y2="224.911"/>
  <line class="uuid-81e0cd7c-f430-4f91-afd7-f2d243cc07c2" x1="264.036" y1="191.345" x2="234.012" y2="208.715"/>
  <line class="uuid-81e0cd7c-f430-4f91-afd7-f2d243cc07c2" x1="261.421" y1="179.912" x2="237.093" y2="193.886"/>
  <line class="uuid-81e0cd7c-f430-4f91-afd7-f2d243cc07c2" x1="256.023" y1="169.971" x2="238.141" y2="180.303"/>
  <line class="uuid-81e0cd7c-f430-4f91-afd7-f2d243cc07c2" x1="246.717" y1="162.251" x2="236.971" y2="167.895"/>
</svg>