<?xml version="1.0" encoding="UTF-8"?>
<svg id="uuid-1dda36b9-6ede-4027-8c7f-c8265555bf4d" data-name="&amp;lt;Layer&amp;gt;" xmlns="http://www.w3.org/2000/svg" viewBox="0 0 451.11 451.11">
  <defs>
    <style>
      .uuid-70cbc05d-751a-4b06-8c1c-486c84013bea {
        fill: #1986c6;
        stroke-width: .317px;
      }

      .uuid-70cbc05d-751a-4b06-8c1c-486c84013bea, .uuid-c8428738-c777-4c36-97b2-d58bbcabe561, .uuid-69569e62-70aa-48a7-9ddf-c2d009df661f, .uuid-f7f1fdce-76d0-4999-8587-31ec9842a9dd {
        stroke: #000;
        stroke-linecap: round;
      }

      .uuid-70cbc05d-751a-4b06-8c1c-486c84013bea, .uuid-f7f1fdce-76d0-4999-8587-31ec9842a9dd {
        fill-rule: evenodd;
        stroke-linejoin: round;
      }

      .uuid-c8428738-c777-4c36-97b2-d58bbcabe561 {
        stroke-width: 1.163px;
      }

      .uuid-c8428738-c777-4c36-97b2-d58bbcabe561, .uuid-69569e62-70aa-48a7-9ddf-c2d009df661f {
        stroke-miterlimit: 10;
      }

      .uuid-c8428738-c777-4c36-97b2-d58bbcabe561, .uuid-69569e62-70aa-48a7-9ddf-c2d009df661f, .uuid-f7f1fdce-76d0-4999-8587-31ec9842a9dd {
        fill: none;
      }

      .uuid-69569e62-70aa-48a7-9ddf-c2d009df661f {
        stroke-width: 1.159px;
      }

      .uuid-f7f1fdce-76d0-4999-8587-31ec9842a9dd {
        stroke-width: 4.117px;
      }
    </style>
  </defs>
  <path class="uuid-f7f1fdce-76d0-4999-8587-31ec9842a9dd" d="M223.953,282.762c20.173-18.467,40.914-36.293,61.386-54.425l4.935,22.62-71.381,63.293-.289.295h-.052l1.053-6.008,4.348-25.774h0ZM282.602,102.095c-1.269,3.344-4.982,16.022-10.162,25.817-2.954,5.597-4.883,8.794-7.667,11.479v.052c-1.858,1.781-4.007,3.323-6.965,5.176l-.17.122h0c-2.563,1.542-5.64,3.325-9.647,5.618l-.122.052-.173.122v.026c-.173.047-.295.047-.463,0h-.052c-.169-.074-.291-.148-.463-.269-3.297-2.348-11.038-17.393-12.896-20.035-.465-.339-.563-.828-.395-1.464v-.048c2.613-9.133,41.139-27.691,45.22-28.825.636-.195,1.269-.317,1.807-.415.6-.084,1.398-.166,1.979.048.048.026.169.074.217.121.361.148.467.489.467.854,0,.393-.173.905-.515,1.568h0ZM229.3,250.957h.052l.805-.732,50.175-44.534-4.934-22.618-39.549,35.028-1.149,1.075h0l-5.401,31.781h0ZM160.734,299.356l-6.012-3.498c-1.147-.88-.636-2.444-.121-3.518l11.163-21.256c.221-.437.391-.732.758-1.097M166.522,269.987l5.982,3.492c.295-.389.684-.754,1.321-1.512,2.637-3.079,6.155-7.723,10.527-13.535,2.028-2.711,4.18-5.619,6.45-8.816.732-1.053,1.564-2.152,2.322-3.249,3.841-5.417,7.73-10.81,11.432-16.318,2.663-3.837,5.397-7.84,8.062-11.847,1.342-1.979,2.686-3.959,3.959-5.914.875-1.342,1.733-2.686,2.612-4.029,1.807-2.663,3.492-5.327,5.156-7.94.879-1.394,1.759-2.737,2.612-4.08M172.505,273.479c-.632.732-1.049,1.638-1.512,2.517M170.992,275.996l-10.409,19.81c-1.169,2.517-.195,4.721,1.979,3.175l14.07-9.938c.221-.221.515-.467.809-.81,20.957-25.306,30.411-37.691,43.896-58.601M230.062,177.945c-7.382,12.554-15.344,24.696-23.43,36.761-5.398,7.966-10.795,15.806-16.244,23.647-4.007,5.571-8.014,11.09-12.091,16.66-3.76,5.056-7.598,10.163-11.774,14.975M198.106,239.331c4.937-6.953,9.791-14.033,14.512-21.13,1.342-1.979,2.686-3.959,3.959-5.914.875-1.342,1.733-2.686,2.612-4.029,1.807-2.663,3.492-5.327,5.156-7.94M246.718,150.291v.022c-.07.047-.121.173-.121.247-.048,0,0,.047,0,.047-.17.221-.295.465-.343.685-.122.291-.17.536-.243.831M218.604,314.545l-2.322,13.628M229.352,250.957l-.052.343-9.695,57.237M246.012,152.122l-.585,3.466c-3.572,21.216-7.222,42.388-10.725,63.588M216.282,328.173c-.052.247-.052.489-.052.663,0,.463.126.905.567,1.316M216.798,330.152l7.741,6.16,6.839,5.471,9.233,7.303v.07l13.706,10.921M234.334,152.634l-5.446,32.099M212.861,279.782l-5.35,31.809M223.611,216.199l-2.273,13.433-3.15,18.687M205.778,322.091c-.122.732-.122,1.394.463,1.979M220.117,335.16l16.026,12.801M254.316,360.077c.463.389,1.047.341,1.737,0,.706-.417,1.294-1.123,1.755-1.929M257.808,358.149l23.573-45.292M240.563,349.134l13.705,10.968.173.1-10.509-6.086-.169-.121-7.621-6.034,4.42,1.147M246.012,152.122l-.585,3.466-11.093-2.954,1.125-6.618M234.701,219.176l-11.09-2.976,5.276-31.466,11.09,2.958M223.953,282.762l-11.093-2.98,5.327-31.462,11.042,2.954M220.117,335.16l-13.876-11.115M205.73,322.091l1.781-10.501,11.042,2.954-2.27,13.628M216.746,330.152l7.793,6.182-4.422-1.175M270.461,160.405l4.938,22.668M290.275,250.957l4.934,22.644M280.332,205.691l5.008,22.646M297.015,281.541c.173.758,0,1.637-.537,2.615M281.455,312.856l-23.647,45.292M266.115,140.492l4.346,19.913-30.41,27.014c1.777-10.625,3.586-21.204,5.375-31.831l12.212-10.846M240.563,349.134l40.892-36.278,15.023-28.725M296.945,281.541l-1.737-7.94-70.67,62.734,16.024,12.8M282.434,99.552l-14.754-8.525M267.679,91.027c-3.08-1.391-11.626,3.006-14.46,4.348M253.219,95.375l-2.443,1.269M247.696,150.559h.463c-.048-.074-.12-.148-.12-.2h-.048M250.777,96.644c-7.723,4.007-24.896,13.607-31.588,21.717-.636,1.051-1.221,1.757-.684,2.736,0,.122.1.295.221.417.927,1.342,1.903,2.612,2.833,3.881,2.858,3.716,5.596,7.452,8.209,11.337,1.853,2.712,3.59,6.133,5.86,8.646,0,.192,1.179,1.263,1.395,1.443,2.443,2.273,5.567,3.538,9.574,3.738h.584M233.357,129.013l-15.096-8.036"/>
  <polygon class="uuid-70cbc05d-751a-4b06-8c1c-486c84013bea" points="162.1 297.859 162.1 297.811 162.1 297.811 162.1 297.811 162.1 297.859"/>
  <polygon class="uuid-70cbc05d-751a-4b06-8c1c-486c84013bea" points="162.174 297.837 162.174 297.811 162.174 297.811 162.174 297.811 162.174 297.837"/>
  <line class="uuid-c8428738-c777-4c36-97b2-d58bbcabe561" x1="182.532" y1="281.043" x2="162.114" y2="292.862"/>
  <line class="uuid-c8428738-c777-4c36-97b2-d58bbcabe561" x1="199.258" y1="258.383" x2="173.407" y2="273.298"/>
  <line class="uuid-c8428738-c777-4c36-97b2-d58bbcabe561" x1="215.013" y1="236.251" x2="193.687" y2="248.536"/>
  <line class="uuid-c8428738-c777-4c36-97b2-d58bbcabe561" x1="221.386" y1="219.543" x2="205.738" y2="228.547"/>
  <line class="uuid-c8428738-c777-4c36-97b2-d58bbcabe561" x1="165.79" y1="285.349" x2="155.628" y2="291.195"/>
  <line class="uuid-c8428738-c777-4c36-97b2-d58bbcabe561" x1="186.752" y1="254.847" x2="172.675" y2="262.993"/>
  <line class="uuid-69569e62-70aa-48a7-9ddf-c2d009df661f" x1="201.52" y1="233.304" x2="190.299" y2="239.762"/>
  <line class="uuid-69569e62-70aa-48a7-9ddf-c2d009df661f" x1="216.9" y1="211.375" x2="204.402" y2="218.572"/>
  <line class="uuid-c8428738-c777-4c36-97b2-d58bbcabe561" x1="227.662" y1="192.124" x2="219.365" y2="196.882"/>
  <line class="uuid-69569e62-70aa-48a7-9ddf-c2d009df661f" x1="239.921" y1="143.318" x2="233.119" y2="139.403"/>
  <line class="uuid-69569e62-70aa-48a7-9ddf-c2d009df661f" x1="269.486" y1="93.933" x2="262.304" y2="106.359"/>
  <line class="uuid-c8428738-c777-4c36-97b2-d58bbcabe561" x1="255.147" y1="96.255" x2="242.932" y2="117.335"/>
  <line class="uuid-c8428738-c777-4c36-97b2-d58bbcabe561" x1="236.839" y1="105.412" x2="226.324" y2="123.564"/>
  <line class="uuid-c8428738-c777-4c36-97b2-d58bbcabe561" x1="270.17" y1="129.013" x2="243.473" y2="144.425"/>
  <line class="uuid-c8428738-c777-4c36-97b2-d58bbcabe561" x1="278.427" y1="111.23" x2="237.24" y2="134.973"/>
  <line class="uuid-c8428738-c777-4c36-97b2-d58bbcabe561" x1="232.206" y1="223.135" x2="223.49" y2="228.142"/>
  <line class="uuid-c8428738-c777-4c36-97b2-d58bbcabe561" x1="243.006" y1="159.573" x2="234.164" y2="164.654"/>
  <line class="uuid-c8428738-c777-4c36-97b2-d58bbcabe561" x1="256.538" y1="356.317" x2="254.389" y2="357.539"/>
  <line class="uuid-c8428738-c777-4c36-97b2-d58bbcabe561" x1="266.921" y1="337.261" x2="244.227" y2="350.377"/>
  <line class="uuid-c8428738-c777-4c36-97b2-d58bbcabe561" x1="215.356" y1="315.572" x2="208.026" y2="319.773"/>
  <line class="uuid-c8428738-c777-4c36-97b2-d58bbcabe561" x1="224.417" y1="269.251" x2="215.719" y2="274.311"/>
  <line class="uuid-c8428738-c777-4c36-97b2-d58bbcabe561" x1="226.86" y1="254.817" x2="218.089" y2="259.873"/>
  <line class="uuid-c8428738-c777-4c36-97b2-d58bbcabe561" x1="235.092" y1="205.815" x2="226.396" y2="210.871"/>
  <line class="uuid-c8428738-c777-4c36-97b2-d58bbcabe561" x1="237.607" y1="191.378" x2="228.84" y2="196.407"/>
  <line class="uuid-c8428738-c777-4c36-97b2-d58bbcabe561" x1="264.946" y1="299.544" x2="217.331" y2="327.051"/>
  <line class="uuid-c8428738-c777-4c36-97b2-d58bbcabe561" x1="294.671" y1="269.351" x2="229.521" y2="306.972"/>
  <line class="uuid-c8428738-c777-4c36-97b2-d58bbcabe561" x1="290.568" y1="258.702" x2="268.146" y2="271.632"/>
  <line class="uuid-c8428738-c777-4c36-97b2-d58bbcabe561" x1="250.681" y1="257.986" x2="227.445" y2="271.405"/>
  <line class="uuid-c8428738-c777-4c36-97b2-d58bbcabe561" x1="284.682" y1="225.309" x2="228.667" y2="257.677"/>
  <line class="uuid-c8428738-c777-4c36-97b2-d58bbcabe561" x1="281.04" y1="214.415" x2="254.806" y2="229.53"/>
  <line class="uuid-c8428738-c777-4c36-97b2-d58bbcabe561" x1="257.602" y1="197.394" x2="238.119" y2="208.623"/>
  <line class="uuid-c8428738-c777-4c36-97b2-d58bbcabe561" x1="272.904" y1="175.524" x2="240.051" y2="194.506"/>
  <line class="uuid-c8428738-c777-4c36-97b2-d58bbcabe561" x1="221.511" y1="286.574" x2="212.739" y2="291.608"/>
</svg>