<?xml version="1.0" encoding="UTF-8"?>
<svg id="uuid-2035f732-caa6-4f51-9393-172efdbfc610" data-name="&amp;lt;Layer&amp;gt;" xmlns="http://www.w3.org/2000/svg" viewBox="0 0 451.11 451.11">
  <defs>
    <style>
      .uuid-3924c476-0297-4495-8f25-614d29a19c20, .uuid-b86996e0-afc6-4b9f-8610-e02309af2d70, .uuid-9f3b3f1d-8504-4160-a0e3-9de3a021fada, .uuid-7164750d-1ebc-4b8b-bb6a-93f2c80e2077 {
        fill: none;
      }

      .uuid-3924c476-0297-4495-8f25-614d29a19c20, .uuid-b86996e0-afc6-4b9f-8610-e02309af2d70, .uuid-9f3b3f1d-8504-4160-a0e3-9de3a021fada, .uuid-7164750d-1ebc-4b8b-bb6a-93f2c80e2077, .uuid-018d427d-73b1-462c-a631-41be361e3aa9, .uuid-7759ff68-e5b3-4f8e-9df5-e20cf458a00e {
        stroke: #000;
        stroke-linecap: round;
      }

      .uuid-3924c476-0297-4495-8f25-614d29a19c20, .uuid-7164750d-1ebc-4b8b-bb6a-93f2c80e2077 {
        stroke-width: 4.117px;
      }

      .uuid-3924c476-0297-4495-8f25-614d29a19c20, .uuid-7164750d-1ebc-4b8b-bb6a-93f2c80e2077, .uuid-7759ff68-e5b3-4f8e-9df5-e20cf458a00e {
        stroke-linejoin: round;
      }

      .uuid-b86996e0-afc6-4b9f-8610-e02309af2d70 {
        stroke-miterlimit: 10;
      }

      .uuid-b86996e0-afc6-4b9f-8610-e02309af2d70, .uuid-9f3b3f1d-8504-4160-a0e3-9de3a021fada {
        stroke-width: 1.163px;
      }

      .uuid-9f3b3f1d-8504-4160-a0e3-9de3a021fada, .uuid-7164750d-1ebc-4b8b-bb6a-93f2c80e2077, .uuid-018d427d-73b1-462c-a631-41be361e3aa9, .uuid-7759ff68-e5b3-4f8e-9df5-e20cf458a00e {
        fill-rule: evenodd;
      }

      .uuid-9f3b3f1d-8504-4160-a0e3-9de3a021fada, .uuid-018d427d-73b1-462c-a631-41be361e3aa9 {
        stroke-miterlimit: 22.926;
      }

      .uuid-018d427d-73b1-462c-a631-41be361e3aa9, .uuid-7759ff68-e5b3-4f8e-9df5-e20cf458a00e {
        fill: #1986c6;
        stroke-width: 3.293px;
      }
    </style>
  </defs>
  <path class="uuid-7164750d-1ebc-4b8b-bb6a-93f2c80e2077" d="M156.619,118.945c-.685-.706-1.512-1.291-2.37-1.759-.585-.343-1.221-.684-1.879-.927-.563-.221-1.075-.465-1.664-.559-.706-.247-1.39-.369-2.1-.489-.217-.052-.511-.1-.806-.1-1.049-.121-2.101-.121-3.201-.074-10.575.711-28.556,3.666-39.083,9.943-.341.172-.584.389-.931.636"/>
  <path class="uuid-7164750d-1ebc-4b8b-bb6a-93f2c80e2077" d="M104.537,125.616c-7.035,4.713-12.264,13.706-13.359,21.888-1.859,13.485,5.445,27.066,11.379,39.157,1.101,2.248,3.422,5.912,7.428,8.183,1.929,1.101,4.25,1.857,7.035,1.979"/>
  <path class="uuid-7164750d-1ebc-4b8b-bb6a-93f2c80e2077" d="M109.986,194.843c-4.007-2.27-6.328-5.934-7.428-8.183-5.934-12.091-13.238-25.672-11.379-39.157,1.095-8.182,6.324-17.175,13.359-21.888"/>
  <path class="uuid-7164750d-1ebc-4b8b-bb6a-93f2c80e2077" d="M104.585,125.616c.347-.247.589-.464.931-.636,10.527-6.277,28.508-9.231,39.083-9.943,1.099-.047,2.152-.047,3.201.074.295,0,.589.048.806.1.71.121,1.394.243,2.1.489.589.095,1.101.339,1.664.559.658.243,1.294.584,1.879.927"/>
  <path class="uuid-7164750d-1ebc-4b8b-bb6a-93f2c80e2077" d="M162.016,123.758c-1.438-2.098-3.249-3.714-5.397-4.813-.928-.537-1.907-.949-2.956-1.171-5.275-1.563-11.847-.463-18.934,3.592-5.055,2.98-9.867,7.156-14.169,12.091-10.332,11.969-17.414,28.386-17.414,42.677,0,8.547,2.539,14.975,6.839,18.709"/>
  <path class="uuid-7164750d-1ebc-4b8b-bb6a-93f2c80e2077" d="M156.96,125.69h-.048c-3.201-1.711-6.376-2.101-9.529-1.638-3.371.417-6.668,1.807-9.917,3.544-4.3,2.613-7.671,5.398-10.868,8.82-1.153,1.265-2.322,2.611-3.496,4.077-6.156,8.135-10.21,16.369-12.36,26.406-.758,4.128-1.051,7.45-.758,11.63.707,5.688,2.222,10.453,6.74,13.802"/>
  <path class="uuid-7164750d-1ebc-4b8b-bb6a-93f2c80e2077" d="M135.415,267.007c1.637,12.801,2.906,13.19,7.966,15.707,6.203,3.124,8.253,3.588,17.535-1.296,1.053-.515,2.201-1.099,3.423-1.809,7.451-4.055,7.619-8.475,7.035-15.266"/>
  <path class="uuid-7164750d-1ebc-4b8b-bb6a-93f2c80e2077" d="M171.373,264.343c.584,6.791.415,11.211-7.035,15.266-1.221.757-2.37,1.42-3.423,1.809-6.667,3.128-10.158.88-11.089-6.961"/>
  <path class="uuid-7164750d-1ebc-4b8b-bb6a-93f2c80e2077" d="M165.217,238.23c.048,2.491-1.053,5.276-2.737,6.888-1.023.927-2.076,1.294-2.954,1.001"/>
  <polyline class="uuid-7164750d-1ebc-4b8b-bb6a-93f2c80e2077" points="159.694 233.392 160.331 233.392 160.504 233.465 162.774 234.149 163.069 234.271 163.117 234.271"/>
  <polyline class="uuid-7164750d-1ebc-4b8b-bb6a-93f2c80e2077" points="200.539 213.41 200.539 213.362 200.587 213.314"/>
  <path class="uuid-7164750d-1ebc-4b8b-bb6a-93f2c80e2077" d="M211.433,143.619h-.169q-.052-.169-.122-.169c-.051-.052-.099-.126-.173-.126-.048-.048-.096-.12-.217-.169"/>
  <path class="uuid-7164750d-1ebc-4b8b-bb6a-93f2c80e2077" d="M209.991,142.566c-.459-.291-1.001-.584-1.464-.802-.048,0-.096,0-.096-.077-.121-.048-.247-.096-.343-.17-.415-.221-.879-.389-1.342-.562"/>
  <polyline class="uuid-7164750d-1ebc-4b8b-bb6a-93f2c80e2077" points="125.035 213.362 128.869 215.562 143.67 224.157 154.933 230.679"/>
  <path class="uuid-7164750d-1ebc-4b8b-bb6a-93f2c80e2077" d="M154.933,230.679c1.466,1.149,3.028,2.08,4.714,2.713h.047"/>
  <path class="uuid-7164750d-1ebc-4b8b-bb6a-93f2c80e2077" d="M176.822,123.684c-1.149-.391-2.248-.681-3.349-.854-.121,0-.195-.073-.295-.073-1.169-.17-2.391-.269-3.492-.269-.853,0-1.807.047-2.664.173-.415.048-.828.096-1.295.169-.217.052-.463.052-.754.122-.343.099-.684.173-1.099.295-.563.099-1.197.269-1.859.511-.122,0-.169,0-.217.047-.343.078-.662.174-.931.295-.074,0-.17.048-.243.126-.511.121-1.053.29-1.612.511-.71.291-1.394.632-2.053.953h-.048c-4.007,1.953-7.208,4.055-10.92,6.961-5.106,4.348-8.941,8.477-12.996,13.801"/>
  <path class="uuid-7164750d-1ebc-4b8b-bb6a-93f2c80e2077" d="M159.694,233.392h-.047c-1.686-.633-3.249-1.564-4.714-2.713-4.765-3.959-7.767-10.651-8.231-19.588-.125-.81-.125-1.689-.125-2.617,0-14.754,6.498-31.462,16.318-44.751,5.864-7.915,12.899-14.586,20.446-18.931,9.529-5.523,18.176-6.328,24.746-3.275.096.074.222.122.343.17,0,.077.048.077.096.077.463.218,1.005.511,1.464.802"/>
  <path class="uuid-7164750d-1ebc-4b8b-bb6a-93f2c80e2077" d="M163.069,234.271c-1.175-2.101-2.322-3.907-3.496-5.397-3.419-4.35-5.324-10.627-5.324-18.592,0-22.839,15.976-50.587,35.764-61.972,6.572-3.837,12.775-5.324,18.076-4.813.902.122,1.955.122,3.176.122h.169c17.835-.415,60.511-13.29,79.099-14.927.174-.048.343-.048.465-.048h.173c.195,0,.415-.074.584-.074.295-.048.585-.048.88-.048-.537.048-1.049.122-1.516.17"/>
  <polyline class="uuid-7164750d-1ebc-4b8b-bb6a-93f2c80e2077" points="215.051 186.591 215.051 186.661 214.977 186.661"/>
  <path class="uuid-7164750d-1ebc-4b8b-bb6a-93f2c80e2077" d="M214.977,186.661c-4.945,7.748-9.736,15.954-13.411,24.431-.343.754-.685,1.512-.979,2.222"/>
  <path class="uuid-7164750d-1ebc-4b8b-bb6a-93f2c80e2077" d="M200.539,213.41c-4.938,12.855-8.588,22.113-11.116,35.958-2.078,13.01-2.862,25.103-.048,38.155,1.911,8.775,4.055,13.246,8.724,20.619.048.048.096.1.17.173"/>
  <path class="uuid-7164750d-1ebc-4b8b-bb6a-93f2c80e2077" d="M198.49,308.705c-.122-.1-.173-.269-.221-.391-.074-.073-.122-.125-.17-.173-.662-.879-1.221-1.733-1.711-2.612-.221-.247-.341-.467-.441-.71-.243-.391-.463-.758-.758-1.223"/>
  <path class="uuid-7164750d-1ebc-4b8b-bb6a-93f2c80e2077" d="M195.189,303.551c-.121-.244-.243-.417-.363-.589-8.772-15.097-17.713-39.376-25.774-56.916v-.048c-1.344-2.785-2.565-5.397-3.834-7.767"/>
  <path class="uuid-7164750d-1ebc-4b8b-bb6a-93f2c80e2077" d="M314.058,131.941c-6.034-2.565-11.8-3.587-17.492-3.587-1.32,0-2.59.048-3.933.169-.295,0-.585,0-.88.048-.169,0-.389.074-.584.074"/>
  <path class="uuid-7164750d-1ebc-4b8b-bb6a-93f2c80e2077" d="M195.189,303.597c.173.417.395.758.758,1.223.1.243.221.463.441.71.489.879,1.049,1.733,1.711,2.612.048.048.096.1.17.173,2.27,3.128,5.102,5.91,8.941,8.768"/>
  <polyline class="uuid-7164750d-1ebc-4b8b-bb6a-93f2c80e2077" points="207.21 317.082 217.592 323.117 228.51 329.442 228.582 329.32"/>
  <path class="uuid-7164750d-1ebc-4b8b-bb6a-93f2c80e2077" d="M215.051,186.591c.698-1.089,1.711-2.645,2.541-3.595,16.746-23.124,43.421-51.592,74.161-54.425,7.256-.758,14.586.122,22.305,3.371"/>
  <path class="uuid-7164750d-1ebc-4b8b-bb6a-93f2c80e2077" d="M284.62,325.756c41.75-24.138,75.607-82.764,75.607-131.034s-33.857-67.836-75.607-43.7c-41.819,24.112-75.677,82.812-75.677,131.081s33.858,67.785,75.677,43.653Z"/>
  <path class="uuid-7164750d-1ebc-4b8b-bb6a-93f2c80e2077" d="M284.62,306.752c33.442-19.277,60.559-66.225,60.559-104.847s-27.118-54.278-60.559-34.98c-33.464,19.297-60.58,66.272-60.58,104.891s27.117,54.255,60.58,34.936Z"/>
  <path class="uuid-7164750d-1ebc-4b8b-bb6a-93f2c80e2077" d="M314.74,158.789c-8.868-.758-19.152,1.807-30.12,8.136-33.464,19.297-60.58,66.272-60.58,104.891,0,12.362,2.784,22.378,7.671,29.607,8.893.784,19.177-1.781,30.145-8.131,33.442-19.302,60.556-66.225,60.556-104.848,0-12.384-2.785-22.377-7.671-29.655Z"/>
  <path class="uuid-7164750d-1ebc-4b8b-bb6a-93f2c80e2077" d="M273.752,248.172c-8.357,4.835-15.219.906-15.219-8.794s6.862-21.497,15.219-26.358c8.429-4.86,15.218-.905,15.218,8.794s-6.788,21.495-15.218,26.358Z"/>
  <polygon class="uuid-7759ff68-e5b3-4f8e-9df5-e20cf458a00e" points="195.237 299.201 195.237 299.175 195.189 299.153 195.189 299.127 195.237 299.201"/>
  <polygon class="uuid-018d427d-73b1-462c-a631-41be361e3aa9" points="195.237 299.079 195.237 299.032 195.189 299.006 195.237 299.079"/>
  <line class="uuid-3924c476-0297-4495-8f25-614d29a19c20" x1="128.869" y1="215.562" x2="135.415" y2="267.007"/>
  <line class="uuid-3924c476-0297-4495-8f25-614d29a19c20" x1="171.373" y1="264.343" x2="169.051" y2="246.045"/>
  <line class="uuid-3924c476-0297-4495-8f25-614d29a19c20" x1="149.826" y1="274.457" x2="143.67" y2="224.157"/>
  <line class="uuid-3924c476-0297-4495-8f25-614d29a19c20" x1="206.746" y1="140.955" x2="176.822" y2="123.684"/>
  <path class="uuid-7164750d-1ebc-4b8b-bb6a-93f2c80e2077" d="M165.217,238.156c-.706-1.342-1.394-2.615-2.028-3.763"/>
  <line class="uuid-3924c476-0297-4495-8f25-614d29a19c20" x1="335.189" y1="144.204" x2="314.058" y2="131.941"/>
  <line class="uuid-3924c476-0297-4495-8f25-614d29a19c20" x1="263.004" y1="249.22" x2="231.416" y2="234.223"/>
  <path class="uuid-7164750d-1ebc-4b8b-bb6a-93f2c80e2077" d="M159.525,246.119l-.295-.122-2.318-.706-.173-.052c-.835-.339-1.133-.92-1.512-1.685l-.052-.221c-.606-2.05-.291-4.169.515-6.108.754-1.358,2.116-3.833,3.956-3.833"/>
  <line class="uuid-3924c476-0297-4495-8f25-614d29a19c20" x1="254.816" y1="193.162" x2="284.499" y2="211.966"/>
  <path class="uuid-7164750d-1ebc-4b8b-bb6a-93f2c80e2077" d="M176.822,123.684c-36.412-10.814-78.423,65.706-51.788,89.677"/>
  <line class="uuid-b86996e0-afc6-4b9f-8610-e02309af2d70" x1="239.308" y1="333.718" x2="210.164" y2="283.225"/>
  <line class="uuid-b86996e0-afc6-4b9f-8610-e02309af2d70" x1="252.963" y1="334.792" x2="239.478" y2="311.491"/>
  <line class="uuid-b86996e0-afc6-4b9f-8610-e02309af2d70" x1="223.281" y1="283.446" x2="212.095" y2="264.027"/>
  <line class="uuid-b86996e0-afc6-4b9f-8610-e02309af2d70" x1="264.737" y1="332.669" x2="255.454" y2="316.546"/>
  <line class="uuid-b86996e0-afc6-4b9f-8610-e02309af2d70" x1="223.063" y1="260.509" x2="215.809" y2="247.856"/>
  <line class="uuid-b86996e0-afc6-4b9f-8610-e02309af2d70" x1="275.484" y1="328.684" x2="267.838" y2="315.398"/>
  <line class="uuid-b86996e0-afc6-4b9f-8610-e02309af2d70" x1="226.482" y1="243.797" x2="220.548" y2="233.613"/>
  <line class="uuid-b86996e0-afc6-4b9f-8610-e02309af2d70" x1="285.478" y1="323.385" x2="278.685" y2="311.659"/>
  <line class="uuid-b86996e0-afc6-4b9f-8610-e02309af2d70" x1="231.368" y1="229.727" x2="226.188" y2="220.712"/>
  <line class="uuid-b86996e0-afc6-4b9f-8610-e02309af2d70" x1="294.834" y1="317.009" x2="288.627" y2="306.31"/>
  <line class="uuid-b86996e0-afc6-4b9f-8610-e02309af2d70" x1="237.182" y1="217.173" x2="232.417" y2="208.916"/>
  <line class="uuid-b86996e0-afc6-4b9f-8610-e02309af2d70" x1="303.65" y1="309.754" x2="297.862" y2="299.69"/>
  <line class="uuid-b86996e0-afc6-4b9f-8610-e02309af2d70" x1="243.68" y1="205.837" x2="239.135" y2="198.022"/>
  <line class="uuid-b86996e0-afc6-4b9f-8610-e02309af2d70" x1="312.031" y1="301.618" x2="306.461" y2="291.971"/>
  <line class="uuid-b86996e0-afc6-4b9f-8610-e02309af2d70" x1="250.813" y1="195.627" x2="246.391" y2="187.981"/>
  <line class="uuid-b86996e0-afc6-4b9f-8610-e02309af2d70" x1="319.872" y1="292.703" x2="314.401" y2="283.251"/>
  <line class="uuid-b86996e0-afc6-4b9f-8610-e02309af2d70" x1="258.482" y1="186.344" x2="254.062" y2="178.72"/>
  <line class="uuid-b86996e0-afc6-4b9f-8610-e02309af2d70" x1="327.297" y1="282.983" x2="321.852" y2="273.526"/>
  <line class="uuid-b86996e0-afc6-4b9f-8610-e02309af2d70" x1="266.716" y1="178.061" x2="262.271" y2="170.272"/>
  <line class="uuid-b86996e0-afc6-4b9f-8610-e02309af2d70" x1="334.258" y1="272.426" x2="328.691" y2="262.827"/>
  <line class="uuid-b86996e0-afc6-4b9f-8610-e02309af2d70" x1="275.609" y1="170.783" x2="270.892" y2="162.649"/>
  <line class="uuid-b86996e0-afc6-4b9f-8610-e02309af2d70" x1="340.708" y1="261.02" x2="334.895" y2="251.005"/>
  <line class="uuid-b86996e0-afc6-4b9f-8610-e02309af2d70" x1="285.087" y1="164.702" x2="280.027" y2="155.908"/>
  <line class="uuid-b86996e0-afc6-4b9f-8610-e02309af2d70" x1="346.569" y1="248.588" x2="340.292" y2="237.789"/>
  <line class="uuid-b86996e0-afc6-4b9f-8610-e02309af2d70" x1="295.419" y1="160.036" x2="289.727" y2="150.143"/>
  <line class="uuid-b86996e0-afc6-4b9f-8610-e02309af2d70" x1="351.677" y1="234.907" x2="344.59" y2="222.645"/>
  <line class="uuid-b86996e0-afc6-4b9f-8610-e02309af2d70" x1="306.925" y1="157.347" x2="300.132" y2="145.598"/>
  <line class="uuid-b86996e0-afc6-4b9f-8610-e02309af2d70" x1="355.879" y1="219.591" x2="346.937" y2="204.078"/>
  <line class="uuid-b86996e0-afc6-4b9f-8610-e02309af2d70" x1="320.384" y1="158.131" x2="311.494" y2="142.666"/>
  <line class="uuid-b86996e0-afc6-4b9f-8610-e02309af2d70" x1="359.222" y1="202.809" x2="323.632" y2="141.176"/>
  <line class="uuid-b86996e0-afc6-4b9f-8610-e02309af2d70" x1="356.342" y1="175.181" x2="342.173" y2="150.632"/>
  <line class="uuid-b86996e0-afc6-4b9f-8610-e02309af2d70" x1="257.554" y1="313.344" x2="239.43" y2="302.865"/>
  <line class="uuid-b86996e0-afc6-4b9f-8610-e02309af2d70" x1="274.508" y1="310.071" x2="254.574" y2="298.59"/>
  <line class="uuid-b86996e0-afc6-4b9f-8610-e02309af2d70" x1="286.525" y1="304.014" x2="266.205" y2="292.262"/>
  <line class="uuid-b86996e0-afc6-4b9f-8610-e02309af2d70" x1="296.567" y1="296.809" x2="276.072" y2="284.936"/>
  <line class="uuid-b86996e0-afc6-4b9f-8610-e02309af2d70" x1="305.335" y1="288.796" x2="284.672" y2="276.849"/>
  <line class="uuid-b86996e0-afc6-4b9f-8610-e02309af2d70" x1="313.08" y1="280.219" x2="292.339" y2="268.25"/>
  <line class="uuid-b86996e0-afc6-4b9f-8610-e02309af2d70" x1="319.92" y1="271.134" x2="299.179" y2="259.162"/>
  <line class="uuid-b86996e0-afc6-4b9f-8610-e02309af2d70" x1="326.027" y1="261.606" x2="305.238" y2="249.636"/>
  <line class="uuid-b86996e0-afc6-4b9f-8610-e02309af2d70" x1="331.304" y1="251.641" x2="310.563" y2="239.694"/>
  <line class="uuid-b86996e0-afc6-4b9f-8610-e02309af2d70" x1="335.822" y1="241.232" x2="315.207" y2="229.312"/>
  <line class="uuid-b86996e0-afc6-4b9f-8610-e02309af2d70" x1="339.56" y1="230.338" x2="318.992" y2="218.464"/>
  <line class="uuid-b86996e0-afc6-4b9f-8610-e02309af2d70" x1="342.272" y1="218.859" x2="321.9" y2="207.085"/>
  <line class="uuid-b86996e0-afc6-4b9f-8610-e02309af2d70" x1="343.736" y1="206.643" x2="323.584" y2="195.038"/>
  <line class="uuid-b86996e0-afc6-4b9f-8610-e02309af2d70" x1="343.272" y1="193.379" x2="323.632" y2="182.042"/>
  <line class="uuid-b86996e0-afc6-4b9f-8610-e02309af2d70" x1="338.802" y1="177.745" x2="320.678" y2="167.266"/>
  <line class="uuid-b86996e0-afc6-4b9f-8610-e02309af2d70" x1="242.336" y1="299.812" x2="225.676" y2="270.914"/>
  <line class="uuid-b86996e0-afc6-4b9f-8610-e02309af2d70" x1="263.931" y1="292.14" x2="231.416" y2="235.761"/>
  <line class="uuid-b86996e0-afc6-4b9f-8610-e02309af2d70" x1="281.25" y1="276.922" x2="266.543" y2="251.468"/>
  <line class="uuid-b86996e0-afc6-4b9f-8610-e02309af2d70" x1="296.567" y1="258.335" x2="285.209" y2="238.595"/>
  <line class="uuid-b86996e0-afc6-4b9f-8610-e02309af2d70" x1="259.118" y1="193.427" x2="258.36" y2="192.158"/>
  <line class="uuid-b86996e0-afc6-4b9f-8610-e02309af2d70" x1="310.394" y1="237.057" x2="273.92" y2="173.886"/>
  <line class="uuid-b86996e0-afc6-4b9f-8610-e02309af2d70" x1="319.457" y1="207.644" x2="293.66" y2="162.99"/>
  <line class="uuid-b86996e0-afc6-4b9f-8610-e02309af2d70" x1="240.531" y1="236.445" x2="235.838" y2="228.263"/>
  <line class="uuid-b86996e0-afc6-4b9f-8610-e02309af2d70" x1="257.311" y1="242.943" x2="241.409" y2="215.363"/>
  <line class="uuid-b86996e0-afc6-4b9f-8610-e02309af2d70" x1="260.634" y1="226.063" x2="248.198" y2="204.52"/>
  <line class="uuid-b86996e0-afc6-4b9f-8610-e02309af2d70" x1="267.89" y1="216.025" x2="256.332" y2="196.091"/>
  <line class="uuid-b86996e0-afc6-4b9f-8610-e02309af2d70" x1="280.027" y1="241.063" x2="268.012" y2="220.15"/>
  <line class="uuid-b86996e0-afc6-4b9f-8610-e02309af2d70" x1="103.901" y1="160.916" x2="93.741" y2="143.376"/>
  <line class="uuid-b86996e0-afc6-4b9f-8610-e02309af2d70" x1="115.921" y1="136.632" x2="109.129" y2="124.858"/>
  <line class="uuid-b86996e0-afc6-4b9f-8610-e02309af2d70" x1="132.581" y1="120.361" x2="131.654" y2="118.654"/>
  <line class="uuid-b86996e0-afc6-4b9f-8610-e02309af2d70" x1="135.708" y1="217.784" x2="118.29" y2="187.565"/>
  <line class="uuid-b86996e0-afc6-4b9f-8610-e02309af2d70" x1="147.556" y1="193.162" x2="127.062" y2="157.641"/>
  <line class="uuid-b86996e0-afc6-4b9f-8610-e02309af2d70" x1="158.94" y1="167.657" x2="141.764" y2="137.901"/>
  <line class="uuid-b86996e0-afc6-4b9f-8610-e02309af2d70" x1="174.574" y1="149.579" x2="160.626" y2="125.447"/>
  <line class="uuid-b86996e0-afc6-4b9f-8610-e02309af2d70" x1="194.188" y1="138.465" x2="192.04" y2="134.704"/>
  <polygon class="uuid-9f3b3f1d-8504-4160-a0e3-9de3a021fada" points="195.237 299.079 195.237 299.032 195.189 299.006 195.237 299.079"/>
  <line class="uuid-b86996e0-afc6-4b9f-8610-e02309af2d70" x1="207.504" y1="282.957" x2="190.307" y2="253.179"/>
  <line class="uuid-b86996e0-afc6-4b9f-8610-e02309af2d70" x1="212.827" y1="247.046" x2="198.438" y2="222.108"/>
  <line class="uuid-b86996e0-afc6-4b9f-8610-e02309af2d70" x1="223.185" y1="219.837" x2="210.116" y2="197.212"/>
  <line class="uuid-b86996e0-afc6-4b9f-8610-e02309af2d70" x1="236.133" y1="197.017" x2="224.286" y2="176.545"/>
  <line class="uuid-b86996e0-afc6-4b9f-8610-e02309af2d70" x1="250.935" y1="177.598" x2="239.845" y2="158.373"/>
  <line class="uuid-b86996e0-afc6-4b9f-8610-e02309af2d70" x1="267.595" y1="161.28" x2="257.554" y2="143.914"/>
  <line class="uuid-b86996e0-afc6-4b9f-8610-e02309af2d70" x1="286.232" y1="148.406" x2="277.637" y2="133.578"/>
  <line class="uuid-b86996e0-afc6-4b9f-8610-e02309af2d70" x1="307.487" y1="140.149" x2="301.917" y2="130.455"/>
  <line class="uuid-b86996e0-afc6-4b9f-8610-e02309af2d70" x1="168.881" y1="255.744" x2="150.29" y2="266.469"/>
  <line class="uuid-b86996e0-afc6-4b9f-8610-e02309af2d70" x1="153.248" y1="238.694" x2="147.751" y2="241.87"/>
  <line class="uuid-b86996e0-afc6-4b9f-8610-e02309af2d70" x1="152.564" y1="205.3" x2="149.315" y2="199.608"/>
  <line class="uuid-b86996e0-afc6-4b9f-8610-e02309af2d70" x1="156.228" y1="189.055" x2="153.591" y2="184.463"/>
  <line class="uuid-b86996e0-afc6-4b9f-8610-e02309af2d70" x1="161.894" y1="176.232" x2="159.573" y2="172.248"/>
  <line class="uuid-b86996e0-afc6-4b9f-8610-e02309af2d70" x1="168.708" y1="165.507" x2="166.659" y2="162.012"/>
  <line class="uuid-b86996e0-afc6-4b9f-8610-e02309af2d70" x1="176.479" y1="156.42" x2="174.791" y2="153.466"/>
  <line class="uuid-b86996e0-afc6-4b9f-8610-e02309af2d70" x1="185.247" y1="149.016" x2="183.904" y2="146.746"/>
  <line class="uuid-b86996e0-afc6-4b9f-8610-e02309af2d70" x1="195.189" y1="143.619" x2="194.483" y2="142.423"/>
  <line class="uuid-b86996e0-afc6-4b9f-8610-e02309af2d70" x1="147.923" y1="273.089" x2="139.664" y2="277.828"/>
  <line class="uuid-b86996e0-afc6-4b9f-8610-e02309af2d70" x1="146.455" y1="260.872" x2="137.099" y2="266.275"/>
  <line class="uuid-b86996e0-afc6-4b9f-8610-e02309af2d70" x1="144.939" y1="248.683" x2="135.535" y2="254.132"/>
  <line class="uuid-b86996e0-afc6-4b9f-8610-e02309af2d70" x1="143.501" y1="236.519" x2="134.023" y2="241.99"/>
  <line class="uuid-b86996e0-afc6-4b9f-8610-e02309af2d70" x1="141.227" y1="224.767" x2="132.459" y2="229.827"/>
  <line class="uuid-b86996e0-afc6-4b9f-8610-e02309af2d70" x1="113.186" y1="194.306" x2="105.343" y2="180.725"/>
  <line class="uuid-b86996e0-afc6-4b9f-8610-e02309af2d70" x1="109.228" y1="164.871" x2="107.322" y2="161.648"/>
  <line class="uuid-b86996e0-afc6-4b9f-8610-e02309af2d70" x1="114.235" y1="151.021" x2="112.719" y2="148.432"/>
  <line class="uuid-b86996e0-afc6-4b9f-8610-e02309af2d70" x1="120.976" y1="140.101" x2="119.634" y2="137.757"/>
  <line class="uuid-b86996e0-afc6-4b9f-8610-e02309af2d70" x1="128.99" y1="131.381" x2="127.647" y2="129.085"/>
  <line class="uuid-b86996e0-afc6-4b9f-8610-e02309af2d70" x1="138.321" y1="124.957" x2="136.879" y2="122.463"/>
  <line class="uuid-b86996e0-afc6-4b9f-8610-e02309af2d70" x1="149.584" y1="121.903" x2="147.923" y2="119.07"/>
</svg>