<?xml version="1.0" encoding="UTF-8"?>
<svg id="uuid-8989f715-2dd6-4ea7-be62-fbc0abb3803a" data-name="&amp;lt;Layer&amp;gt;" xmlns="http://www.w3.org/2000/svg" viewBox="0 0 451.11 451.11">
  <defs>
    <style>
      .uuid-b4dbfe84-b9d0-45bc-85fa-611d05dd20b1, .uuid-d72548d8-0197-4f5d-a952-8d1f52e48709, .uuid-04aceeb5-b51c-459b-a00a-af3ce462f09b {
        fill: none;
        stroke: #000;
        stroke-linecap: round;
      }

      .uuid-b4dbfe84-b9d0-45bc-85fa-611d05dd20b1, .uuid-04aceeb5-b51c-459b-a00a-af3ce462f09b {
        stroke-linejoin: round;
        stroke-width: 4.113px;
      }

      .uuid-d72548d8-0197-4f5d-a952-8d1f52e48709 {
        stroke-miterlimit: 10;
        stroke-width: 1.163px;
      }

      .uuid-04aceeb5-b51c-459b-a00a-af3ce462f09b {
        fill-rule: evenodd;
      }
    </style>
  </defs>
  <path class="uuid-04aceeb5-b51c-459b-a00a-af3ce462f09b" d="M336.95,258.966q-.247-.052-.489-.052c-.247-.121-.732-.191-1.221-.044-.247,0-.489.044-.732.17-.489.095-.736.267-1.221.511"/>
  <path class="uuid-04aceeb5-b51c-459b-a00a-af3ce462f09b" d="M338.657,262.704c0-1.737-.485-2.98-1.464-3.543-.979-.563-2.443-.489-3.907.391"/>
  <path class="uuid-04aceeb5-b51c-459b-a00a-af3ce462f09b" d="M226.042,362.54c0,1.759.489,2.98,1.711,3.543.979.585,2.201.511,3.666-.369"/>
  <polygon class="uuid-04aceeb5-b51c-459b-a00a-af3ce462f09b" points="322.781 296.978 332.55 291.307 332.55 279.997 322.781 285.641 322.781 296.978"/>
  <polygon class="uuid-04aceeb5-b51c-459b-a00a-af3ce462f09b" points="306.414 306.382 316.183 300.738 316.183 289.401 306.414 295.071 306.414 306.382"/>
  <path class="uuid-04aceeb5-b51c-459b-a00a-af3ce462f09b" d="M337.193,205.762c-.243-.1-.489-.173-.732-.269-.979-.172-1.954.048-3.175.68"/>
  <polyline class="uuid-04aceeb5-b51c-459b-a00a-af3ce462f09b" points="333.286 206.174 289.313 231.559 231.661 264.878"/>
  <polyline class="uuid-04aceeb5-b51c-459b-a00a-af3ce462f09b" points="227.753 269.029 158.868 229.189 114.164 203.466"/>
  <path class="uuid-04aceeb5-b51c-459b-a00a-af3ce462f09b" d="M338.657,209.352c0-1.757-.485-2.98-1.464-3.568-.979-.559-2.443-.486-3.907.389"/>
  <path class="uuid-04aceeb5-b51c-459b-a00a-af3ce462f09b" d="M226.042,309.167c0,1.733.489,2.976,1.711,3.566.979.562,2.201.489,3.666-.391"/>
  <polygon class="uuid-04aceeb5-b51c-459b-a00a-af3ce462f09b" points="322.781 243.626 332.55 237.956 332.55 226.624 322.781 232.291 322.781 243.626"/>
  <polygon class="uuid-04aceeb5-b51c-459b-a00a-af3ce462f09b" points="306.414 253.031 316.183 247.361 316.183 236.029 306.414 241.694 306.414 253.031"/>
  <path class="uuid-04aceeb5-b51c-459b-a00a-af3ce462f09b" d="M338.657,154.903c0-1.737-.485-2.981-1.464-3.543-.979-.585-2.443-.512-3.907.367"/>
  <path class="uuid-04aceeb5-b51c-459b-a00a-af3ce462f09b" d="M226.042,254.716c0,1.759.489,3.002,1.711,3.566.979.588,2.201.489,3.666-.391"/>
  <polygon class="uuid-04aceeb5-b51c-459b-a00a-af3ce462f09b" points="322.781 189.175 332.55 183.505 332.55 172.173 322.781 177.866 322.781 189.175"/>
  <polygon class="uuid-04aceeb5-b51c-459b-a00a-af3ce462f09b" points="306.414 198.58 316.183 192.909 316.183 181.578 306.414 187.243 306.414 198.58"/>
  <line class="uuid-b4dbfe84-b9d0-45bc-85fa-611d05dd20b1" x1="336.95" y1="258.966" x2="330.353" y2="255.254"/>
  <line class="uuid-b4dbfe84-b9d0-45bc-85fa-611d05dd20b1" x1="337.193" y1="259.135" x2="336.95" y2="258.966"/>
  <line class="uuid-b4dbfe84-b9d0-45bc-85fa-611d05dd20b1" x1="333.286" y1="259.551" x2="231.661" y2="318.251"/>
  <path class="uuid-04aceeb5-b51c-459b-a00a-af3ce462f09b" d="M231.661,318.251c-1.707.88-2.93,2.396-3.908,4.129"/>
  <line class="uuid-b4dbfe84-b9d0-45bc-85fa-611d05dd20b1" x1="227.753" y1="322.38" x2="114.164" y2="256.816"/>
  <path class="uuid-04aceeb5-b51c-459b-a00a-af3ce462f09b" d="M114.164,256.816c.979-1.783,2.2-2.954,3.908-4.128"/>
  <line class="uuid-b4dbfe84-b9d0-45bc-85fa-611d05dd20b1" x1="118.072" y1="252.689" x2="121.004" y2="251.077"/>
  <path class="uuid-04aceeb5-b51c-459b-a00a-af3ce462f09b" d="M227.753,322.38c-1.221,1.711-1.711,3.664-1.711,5.401"/>
  <line class="uuid-b4dbfe84-b9d0-45bc-85fa-611d05dd20b1" x1="226.042" y1="327.781" x2="226.042" y2="362.54"/>
  <line class="uuid-b4dbfe84-b9d0-45bc-85fa-611d05dd20b1" x1="231.419" y1="365.715" x2="333.286" y2="306.992"/>
  <path class="uuid-04aceeb5-b51c-459b-a00a-af3ce462f09b" d="M333.286,306.992c2.928-1.759,5.371-6.033,5.371-9.529"/>
  <line class="uuid-b4dbfe84-b9d0-45bc-85fa-611d05dd20b1" x1="338.657" y1="297.463" x2="338.657" y2="262.704"/>
  <path class="uuid-04aceeb5-b51c-459b-a00a-af3ce462f09b" d="M114.164,256.816c-.975,1.855-1.464,3.271-1.711,5.399"/>
  <line class="uuid-b4dbfe84-b9d0-45bc-85fa-611d05dd20b1" x1="112.453" y1="262.215" x2="112.453" y2="296.978"/>
  <path class="uuid-04aceeb5-b51c-459b-a00a-af3ce462f09b" d="M112.453,296.978c.247,1.537.489,2.633,1.711,3.564"/>
  <line class="uuid-b4dbfe84-b9d0-45bc-85fa-611d05dd20b1" x1="114.164" y1="300.542" x2="227.753" y2="366.083"/>
  <line class="uuid-b4dbfe84-b9d0-45bc-85fa-611d05dd20b1" x1="329.375" y1="201.365" x2="337.193" y2="205.762"/>
  <path class="uuid-04aceeb5-b51c-459b-a00a-af3ce462f09b" d="M231.661,264.878c-1.707.876-2.93,2.392-3.908,4.151"/>
  <path class="uuid-04aceeb5-b51c-459b-a00a-af3ce462f09b" d="M114.164,203.466c.979-1.811,2.2-2.98,3.908-4.128"/>
  <line class="uuid-b4dbfe84-b9d0-45bc-85fa-611d05dd20b1" x1="118.072" y1="199.338" x2="121.736" y2="197.115"/>
  <line class="uuid-b4dbfe84-b9d0-45bc-85fa-611d05dd20b1" x1="227.753" y1="268.981" x2="227.753" y2="269.007"/>
  <path class="uuid-04aceeb5-b51c-459b-a00a-af3ce462f09b" d="M227.753,269.007c-1.221,1.707-1.711,3.66-1.711,5.423"/>
  <line class="uuid-b4dbfe84-b9d0-45bc-85fa-611d05dd20b1" x1="226.042" y1="274.43" x2="226.042" y2="309.167"/>
  <line class="uuid-b4dbfe84-b9d0-45bc-85fa-611d05dd20b1" x1="231.419" y1="312.342" x2="333.286" y2="253.616"/>
  <path class="uuid-04aceeb5-b51c-459b-a00a-af3ce462f09b" d="M333.286,253.616c1.464-.879,2.928-2.395,3.907-4.08"/>
  <line class="uuid-b4dbfe84-b9d0-45bc-85fa-611d05dd20b1" x1="337.193" y1="249.536" x2="337.193" y2="249.514"/>
  <path class="uuid-04aceeb5-b51c-459b-a00a-af3ce462f09b" d="M337.193,249.514c.979-1.737,1.464-3.666,1.464-5.424"/>
  <line class="uuid-b4dbfe84-b9d0-45bc-85fa-611d05dd20b1" x1="338.657" y1="244.09" x2="338.657" y2="209.352"/>
  <path class="uuid-04aceeb5-b51c-459b-a00a-af3ce462f09b" d="M114.164,203.44c-.975,1.859-1.464,3.297-1.711,5.423"/>
  <line class="uuid-b4dbfe84-b9d0-45bc-85fa-611d05dd20b1" x1="112.453" y1="208.863" x2="112.453" y2="243.6"/>
  <path class="uuid-04aceeb5-b51c-459b-a00a-af3ce462f09b" d="M112.453,243.6c.247,1.538.489,2.661,1.711,3.566"/>
  <line class="uuid-b4dbfe84-b9d0-45bc-85fa-611d05dd20b1" x1="114.164" y1="247.166" x2="227.753" y2="312.733"/>
  <path class="uuid-04aceeb5-b51c-459b-a00a-af3ce462f09b" d="M227.753,312.733c-1.464-.906-1.711-2.053-1.711-3.566"/>
  <line class="uuid-b4dbfe84-b9d0-45bc-85fa-611d05dd20b1" x1="337.193" y1="151.359" x2="223.603" y2="85.796"/>
  <path class="uuid-04aceeb5-b51c-459b-a00a-af3ce462f09b" d="M223.603,85.796c-1.468-.684-2.443-.319-3.911.391"/>
  <line class="uuid-b4dbfe84-b9d0-45bc-85fa-611d05dd20b1" x1="219.692" y1="86.187" x2="118.072" y2="144.887"/>
  <path class="uuid-04aceeb5-b51c-459b-a00a-af3ce462f09b" d="M118.072,144.887c-1.955,1.148-2.93,2.317-3.908,4.102"/>
  <line class="uuid-b4dbfe84-b9d0-45bc-85fa-611d05dd20b1" x1="114.164" y1="148.989" x2="227.753" y2="214.556"/>
  <path class="uuid-04aceeb5-b51c-459b-a00a-af3ce462f09b" d="M227.753,214.556c.979-1.811,1.955-2.956,3.666-4.107"/>
  <line class="uuid-b4dbfe84-b9d0-45bc-85fa-611d05dd20b1" x1="231.419" y1="210.449" x2="333.286" y2="151.726"/>
  <path class="uuid-04aceeb5-b51c-459b-a00a-af3ce462f09b" d="M227.753,214.556c-1.221,1.733-1.711,3.664-1.711,5.423"/>
  <line class="uuid-b4dbfe84-b9d0-45bc-85fa-611d05dd20b1" x1="226.042" y1="219.979" x2="226.042" y2="254.716"/>
  <line class="uuid-b4dbfe84-b9d0-45bc-85fa-611d05dd20b1" x1="231.419" y1="257.891" x2="333.286" y2="199.19"/>
  <path class="uuid-04aceeb5-b51c-459b-a00a-af3ce462f09b" d="M333.286,199.19c1.464-.879,2.928-2.395,3.907-4.106"/>
  <path class="uuid-04aceeb5-b51c-459b-a00a-af3ce462f09b" d="M337.193,195.085c.979-1.733,1.464-3.666,1.464-5.42"/>
  <line class="uuid-b4dbfe84-b9d0-45bc-85fa-611d05dd20b1" x1="338.657" y1="189.664" x2="338.657" y2="154.903"/>
  <path class="uuid-04aceeb5-b51c-459b-a00a-af3ce462f09b" d="M114.164,149.015c-.975,1.855-1.464,3.275-1.711,5.423"/>
  <line class="uuid-b4dbfe84-b9d0-45bc-85fa-611d05dd20b1" x1="112.453" y1="154.438" x2="112.453" y2="189.175"/>
  <path class="uuid-04aceeb5-b51c-459b-a00a-af3ce462f09b" d="M112.453,189.175c.247,1.512.489,2.639,1.711,3.566"/>
  <line class="uuid-b4dbfe84-b9d0-45bc-85fa-611d05dd20b1" x1="114.164" y1="192.741" x2="227.753" y2="258.282"/>
  <path class="uuid-04aceeb5-b51c-459b-a00a-af3ce462f09b" d="M227.753,258.282c-1.464-.906-1.711-2.028-1.711-3.566"/>
  <line class="uuid-b4dbfe84-b9d0-45bc-85fa-611d05dd20b1" x1="236.058" y1="231.605" x2="297.132" y2="196.258"/>
  <line class="uuid-b4dbfe84-b9d0-45bc-85fa-611d05dd20b1" x1="236.058" y1="286.056" x2="297.132" y2="250.709"/>
  <line class="uuid-b4dbfe84-b9d0-45bc-85fa-611d05dd20b1" x1="236.058" y1="339.43" x2="297.132" y2="304.086"/>
  <line class="uuid-d72548d8-0197-4f5d-a952-8d1f52e48709" x1="313.008" y1="267.66" x2="312.03" y2="269.519"/>
  <line class="uuid-d72548d8-0197-4f5d-a952-8d1f52e48709" x1="293.71" y1="278.849" x2="292.735" y2="280.729"/>
  <line class="uuid-d72548d8-0197-4f5d-a952-8d1f52e48709" x1="273.923" y1="290.185" x2="272.947" y2="292.091"/>
  <line class="uuid-d72548d8-0197-4f5d-a952-8d1f52e48709" x1="254.628" y1="301.348" x2="253.649" y2="303.254"/>
  <line class="uuid-d72548d8-0197-4f5d-a952-8d1f52e48709" x1="235.083" y1="312.707" x2="233.861" y2="314.638"/>
  <line class="uuid-d72548d8-0197-4f5d-a952-8d1f52e48709" x1="222.382" y1="311.901" x2="220.182" y2="315.786"/>
  <line class="uuid-d72548d8-0197-4f5d-a952-8d1f52e48709" x1="212.609" y1="306.26" x2="210.413" y2="310.142"/>
  <line class="uuid-d72548d8-0197-4f5d-a952-8d1f52e48709" x1="202.837" y1="300.564" x2="200.64" y2="304.476"/>
  <line class="uuid-d72548d8-0197-4f5d-a952-8d1f52e48709" x1="193.068" y1="294.946" x2="190.868" y2="298.857"/>
  <line class="uuid-d72548d8-0197-4f5d-a952-8d1f52e48709" x1="183.295" y1="289.305" x2="181.095" y2="293.214"/>
  <line class="uuid-d72548d8-0197-4f5d-a952-8d1f52e48709" x1="173.524" y1="283.614" x2="171.326" y2="287.547"/>
  <line class="uuid-d72548d8-0197-4f5d-a952-8d1f52e48709" x1="163.755" y1="278.021" x2="161.555" y2="281.977"/>
  <line class="uuid-d72548d8-0197-4f5d-a952-8d1f52e48709" x1="153.982" y1="272.325" x2="151.782" y2="276.31"/>
  <line class="uuid-d72548d8-0197-4f5d-a952-8d1f52e48709" x1="144.21" y1="266.637" x2="141.767" y2="270.618"/>
  <line class="uuid-d72548d8-0197-4f5d-a952-8d1f52e48709" x1="134.437" y1="261.041" x2="132.241" y2="265.022"/>
  <line class="uuid-d72548d8-0197-4f5d-a952-8d1f52e48709" x1="124.668" y1="255.374" x2="122.468" y2="259.333"/>
  <line class="uuid-d72548d8-0197-4f5d-a952-8d1f52e48709" x1="115.142" y1="245.286" x2="114.653" y2="244.528"/>
  <line class="uuid-d72548d8-0197-4f5d-a952-8d1f52e48709" x1="135.416" y1="257.817" x2="113.921" y2="220.565"/>
  <line class="uuid-d72548d8-0197-4f5d-a952-8d1f52e48709" x1="155.447" y1="269.934" x2="119.293" y2="207.421"/>
  <line class="uuid-d72548d8-0197-4f5d-a952-8d1f52e48709" x1="174.992" y1="281.317" x2="138.835" y2="218.784"/>
  <line class="uuid-d72548d8-0197-4f5d-a952-8d1f52e48709" x1="194.532" y1="292.554" x2="158.625" y2="230.115"/>
  <line class="uuid-d72548d8-0197-4f5d-a952-8d1f52e48709" x1="214.073" y1="303.887" x2="177.92" y2="241.352"/>
  <line class="uuid-d72548d8-0197-4f5d-a952-8d1f52e48709" x1="224.821" y1="300.079" x2="197.708" y2="253.1"/>
  <line class="uuid-d72548d8-0197-4f5d-a952-8d1f52e48709" x1="224.089" y1="276.211" x2="217.984" y2="265.584"/>
  <line class="uuid-d72548d8-0197-4f5d-a952-8d1f52e48709" x1="331.575" y1="204.784" x2="331.328" y2="204.978"/>
  <line class="uuid-d72548d8-0197-4f5d-a952-8d1f52e48709" x1="313.987" y1="212.601" x2="312.03" y2="216.241"/>
  <line class="uuid-d72548d8-0197-4f5d-a952-8d1f52e48709" x1="294.442" y1="223.96" x2="292.245" y2="227.552"/>
  <line class="uuid-d72548d8-0197-4f5d-a952-8d1f52e48709" x1="274.902" y1="235.149" x2="272.947" y2="238.74"/>
  <line class="uuid-d72548d8-0197-4f5d-a952-8d1f52e48709" x1="255.36" y1="246.508" x2="253.16" y2="250.098"/>
  <line class="uuid-d72548d8-0197-4f5d-a952-8d1f52e48709" x1="235.572" y1="257.865" x2="233.619" y2="261.483"/>
  <line class="uuid-d72548d8-0197-4f5d-a952-8d1f52e48709" x1="222.867" y1="257.597" x2="220.182" y2="262.387"/>
  <line class="uuid-d72548d8-0197-4f5d-a952-8d1f52e48709" x1="213.099" y1="251.931" x2="210.413" y2="256.718"/>
  <line class="uuid-d72548d8-0197-4f5d-a952-8d1f52e48709" x1="203.326" y1="246.239" x2="200.394" y2="251.052"/>
  <line class="uuid-d72548d8-0197-4f5d-a952-8d1f52e48709" x1="193.553" y1="240.668" x2="190.868" y2="245.459"/>
  <line class="uuid-d72548d8-0197-4f5d-a952-8d1f52e48709" x1="183.782" y1="234.976" x2="180.852" y2="239.789"/>
  <line class="uuid-d72548d8-0197-4f5d-a952-8d1f52e48709" x1="174.013" y1="229.333" x2="171.08" y2="234.148"/>
  <line class="uuid-d72548d8-0197-4f5d-a952-8d1f52e48709" x1="164.241" y1="223.739" x2="161.311" y2="228.53"/>
  <line class="uuid-d72548d8-0197-4f5d-a952-8d1f52e48709" x1="154.225" y1="218.048" x2="151.54" y2="222.859"/>
  <line class="uuid-d72548d8-0197-4f5d-a952-8d1f52e48709" x1="144.699" y1="212.481" x2="142.01" y2="217.268"/>
  <line class="uuid-d72548d8-0197-4f5d-a952-8d1f52e48709" x1="134.926" y1="206.785" x2="131.994" y2="211.601"/>
  <line class="uuid-d72548d8-0197-4f5d-a952-8d1f52e48709" x1="124.911" y1="201.119" x2="122.226" y2="205.909"/>
  <line class="uuid-d72548d8-0197-4f5d-a952-8d1f52e48709" x1="135.416" y1="203.414" x2="113.921" y2="166.286"/>
  <line class="uuid-d72548d8-0197-4f5d-a952-8d1f52e48709" x1="155.447" y1="215.509" x2="119.051" y2="152.9"/>
  <line class="uuid-d72548d8-0197-4f5d-a952-8d1f52e48709" x1="174.745" y1="226.767" x2="138.835" y2="164.233"/>
  <line class="uuid-d72548d8-0197-4f5d-a952-8d1f52e48709" x1="194.532" y1="238.103" x2="158.379" y2="175.569"/>
  <line class="uuid-d72548d8-0197-4f5d-a952-8d1f52e48709" x1="214.073" y1="249.414" x2="177.92" y2="186.806"/>
  <line class="uuid-d72548d8-0197-4f5d-a952-8d1f52e48709" x1="224.821" y1="245.728" x2="197.708" y2="198.58"/>
  <line class="uuid-d72548d8-0197-4f5d-a952-8d1f52e48709" x1="224.089" y1="221.786" x2="217.984" y2="211.111"/>
  <line class="uuid-d72548d8-0197-4f5d-a952-8d1f52e48709" x1="319.849" y1="142.665" x2="306.901" y2="165.185"/>
  <line class="uuid-d72548d8-0197-4f5d-a952-8d1f52e48709" x1="301.039" y1="130.206" x2="267.082" y2="188.88"/>
  <line class="uuid-d72548d8-0197-4f5d-a952-8d1f52e48709" x1="282.23" y1="117.747" x2="227.264" y2="213.014"/>
  <line class="uuid-d72548d8-0197-4f5d-a952-8d1f52e48709" x1="262.686" y1="106.412" x2="206.258" y2="203.951"/>
  <line class="uuid-d72548d8-0197-4f5d-a952-8d1f52e48709" x1="242.902" y1="95.075" x2="186.714" y2="192.667"/>
  <line class="uuid-d72548d8-0197-4f5d-a952-8d1f52e48709" x1="222.867" y1="84.648" x2="167.173" y2="181.382"/>
  <line class="uuid-d72548d8-0197-4f5d-a952-8d1f52e48709" x1="183.295" y1="108.269" x2="148.363" y2="168.95"/>
  <line class="uuid-d72548d8-0197-4f5d-a952-8d1f52e48709" x1="143.478" y1="132.038" x2="129.309" y2="156.439"/>
  <line class="uuid-d72548d8-0197-4f5d-a952-8d1f52e48709" x1="135.173" y1="311.069" x2="113.921" y2="274.157"/>
  <line class="uuid-d72548d8-0197-4f5d-a952-8d1f52e48709" x1="155.204" y1="323.212" x2="119.051" y2="260.677"/>
  <line class="uuid-d72548d8-0197-4f5d-a952-8d1f52e48709" x1="174.745" y1="334.473" x2="138.835" y2="272.01"/>
  <line class="uuid-d72548d8-0197-4f5d-a952-8d1f52e48709" x1="194.289" y1="345.832" x2="158.379" y2="283.345"/>
  <line class="uuid-d72548d8-0197-4f5d-a952-8d1f52e48709" x1="214.073" y1="357.191" x2="177.92" y2="294.604"/>
  <line class="uuid-d72548d8-0197-4f5d-a952-8d1f52e48709" x1="224.821" y1="353.573" x2="197.708" y2="306.382"/>
  <line class="uuid-d72548d8-0197-4f5d-a952-8d1f52e48709" x1="224.089" y1="329.661" x2="217.984" y2="318.936"/>
</svg>