<?xml version="1.0" encoding="UTF-8"?>
<svg id="uuid-165527c0-19b7-4835-9ebb-e20b0349c874" data-name="&amp;lt;Layer&amp;gt;" xmlns="http://www.w3.org/2000/svg" viewBox="0 0 451.11 451.11">
  <defs>
    <style>
      .uuid-c2d02965-9213-4a1e-ac39-10d0897673ec, .uuid-dd8e360f-5061-4230-9726-8ad05ff32004, .uuid-63604d78-7d9c-490e-89a3-15aea92a849a {
        fill: none;
        stroke: #000;
        stroke-linecap: round;
      }

      .uuid-c2d02965-9213-4a1e-ac39-10d0897673ec, .uuid-63604d78-7d9c-490e-89a3-15aea92a849a {
        stroke-linejoin: round;
        stroke-width: 4.113px;
      }

      .uuid-dd8e360f-5061-4230-9726-8ad05ff32004 {
        stroke-miterlimit: 10;
        stroke-width: 1.163px;
      }

      .uuid-63604d78-7d9c-490e-89a3-15aea92a849a {
        fill-rule: evenodd;
      }
    </style>
  </defs>
  <path class="uuid-63604d78-7d9c-490e-89a3-15aea92a849a" d="M219.346,285.036c-7.069-4.202-8.82-12.113-9.821-19.567-.048-1.025-.1-2.074-.1-3.201"/>
  <path class="uuid-63604d78-7d9c-490e-89a3-15aea92a849a" d="M126.15,161.77c.048-.88.099-1.733.269-2.613.121-.831.367-1.685.588-2.517.413-1.49,1.049-2.954,1.807-4.298.221-.441.537-.979.88-1.442.221-.389.463-.805.805-1.221.465-.684,1.049-1.342,1.638-1.98,1.221-1.269,2.539-2.369,4.007-3.297"/>
  <polyline class="uuid-63604d78-7d9c-490e-89a3-15aea92a849a" points="232.951 122.346 232.951 146.894 245.237 153.977 245.311 121.003"/>
  <path class="uuid-63604d78-7d9c-490e-89a3-15aea92a849a" d="M245.311,121.003c-.243-1.394-.585-2.738-1.049-4.081-.343-1.221-.806-2.443-1.321-3.59-.485-1.053-1.001-2.076-1.538-3.08-.684-1.269-1.49-2.565-2.369-3.76-.173-.195-.343-.415-.463-.585"/>
  <path class="uuid-63604d78-7d9c-490e-89a3-15aea92a849a" d="M267.835,197.07c-.636-.291-1.342-.511-2.1-.632-.684-.173-1.442-.346-2.2-.415-.685-.1-1.44-.174-2.198-.1-.293-.074-.636-.074-.931-.074"/>
  <path class="uuid-63604d78-7d9c-490e-89a3-15aea92a849a" d="M259.895,195.848c-1.516.074-3.028.243-4.665.637-.637.195-1.321.363-1.953.537-1.347.389-2.737.879-4.081,1.49-1.394.632-2.786,1.342-4.228,2.174-9.817,5.666-18.709,15.438-25.159,26.577-1.053,1.809-2.028,3.664-2.908,5.57,0,0-.048,0-.048.074"/>
  <path class="uuid-63604d78-7d9c-490e-89a3-15aea92a849a" d="M198.557,243.412c.341-1.221.758-2.37,1.221-3.592.537-1.589,1.173-3.153,1.855-4.717.463-1.221,1.051-2.491,1.637-3.712,1.564-3.616,3.422-7.156,5.397-10.579.858-1.512,1.737-2.954,2.713-4.396.54-.876,1.125-1.759,1.685-2.613.831-1.294,1.685-2.564,2.69-3.785,2.613-3.76,5.523-7.304,8.598-10.553.976-1.127,1.955-2.152,3.006-3.201,2.024-2.028,4.077-3.959,6.229-5.693,1.487-1.27,3.05-2.491,4.64-3.664,2.196-1.611,4.47-3.076,6.741-4.422,3.054-1.781,6.159-3.175,9.041-4.298,1.001-.389,1.979-.684,2.98-.979.927-.291,1.905-.585,2.832-.754,2.738-.636,5.472-.931,8.014-.979"/>
  <polyline class="uuid-63604d78-7d9c-490e-89a3-15aea92a849a" points="245.311 121.003 245.237 153.977 263.266 143.572"/>
  <path class="uuid-63604d78-7d9c-490e-89a3-15aea92a849a" d="M263.266,143.572c1.663-.902,3.227-1.785,4.569-2.709,5.693-3.837,7.547-7.671.291-13.289"/>
  <path class="uuid-63604d78-7d9c-490e-89a3-15aea92a849a" d="M195.429,96.892c10.505-5.914,16.245-8.868,28.63-2.959,9.993,4.791,18.982,14.806,21.178,27.07"/>
  <path class="uuid-63604d78-7d9c-490e-89a3-15aea92a849a" d="M227.601,247.002h.048c.048-.047.122-.099.174-.099"/>
  <polyline class="uuid-63604d78-7d9c-490e-89a3-15aea92a849a" points="195.771 286.964 195.771 287.016 195.723 287.016"/>
  <polyline class="uuid-63604d78-7d9c-490e-89a3-15aea92a849a" points="216.901 232.833 244.968 216.637 245.579 216.294"/>
  <path class="uuid-63604d78-7d9c-490e-89a3-15aea92a849a" d="M206.276,173.96c2.612-4.466,4.202-9.5,4.202-14.044s-1.59-7.745-4.202-9.235c-2.539-1.49-6.155-1.27-10.041,1.005-3.955,2.27-7.499,6.177-10.088,10.649-2.565,4.448-4.203,9.503-4.203,14.047s1.638,7.741,4.203,9.231c2.59,1.49,6.133,1.273,10.088-1.001"/>
  <path class="uuid-63604d78-7d9c-490e-89a3-15aea92a849a" d="M169.927,230.928c.417-7.841,3.249-16.318,7.669-23.916,4.765-8.257,11.384-15.462,18.639-19.689"/>
  <path class="uuid-63604d78-7d9c-490e-89a3-15aea92a849a" d="M209.425,262.268c0-23.055,16.322-50.488,35.543-61.581"/>
  <path class="uuid-63604d78-7d9c-490e-89a3-15aea92a849a" d="M277.656,177.161c-.758-.243-1.516-.537-2.322-.706-.463-.122-.879-.247-1.342-.295-.758-.221-1.564-.389-2.444-.463-1.051-.1-2.078-.221-3.248-.221"/>
  <path class="uuid-63604d78-7d9c-490e-89a3-15aea92a849a" d="M193.792,266.518c0,.174-.048.417,0,.589-.122,1.442-.169,2.906-.169,4.298,0,1.221.047,2.395.121,3.59,0,.758.048,1.59.169,2.322.052.88.174,1.685.295,2.565.173,1.464.463,2.906.806,4.25.122.736.343,1.49.511,2.2.078.221.125.463.247.632"/>
  <polyline class="uuid-63604d78-7d9c-490e-89a3-15aea92a849a" points="204.591 301.671 187.463 291.777 187.22 291.682"/>
  <path class="uuid-63604d78-7d9c-490e-89a3-15aea92a849a" d="M187.22,291.682c-.341-.295-1.781-1.807-2.122-2.224-3.496-3.885-5.766-8.698-7.035-13.874-1.689-6.207-2.031-12.996-1.564-19.445.217-3.08.563-6.034,1.097-8.894,1.516-8.355,4.302-17.027,8.135-25.432,6.255-13.996,15.438-27.285,26.312-37.565,4.47-4.253,9.279-7.966,14.265-10.994"/>
  <path class="uuid-63604d78-7d9c-490e-89a3-15aea92a849a" d="M227.649,172.448c5.228-2.954,10.531-5.276,16.44-6.402,5.058-.902,10.335-.854,15.268.783"/>
  <polyline class="uuid-63604d78-7d9c-490e-89a3-15aea92a849a" points="259.358 166.829 260.286 167.171 267.835 171.517 277.656 177.161"/>
  <path class="uuid-63604d78-7d9c-490e-89a3-15aea92a849a" d="M219.346,285.036c.121.122.289.195.463.317.345.202.983.526,1.626.813,2.116.95,3.819,1.229,5.857,1.421,1.867.176,3.447.132,5.148-.136,2.351-.372,4.033-.744,6.251-1.656"/>
  <path class="uuid-63604d78-7d9c-490e-89a3-15aea92a849a" d="M212.726,277.608c1.097,0,2.27-.169,3.492-.339,7.841-1.637,14.339-5.744,20.325-10.846,7.84-7.035,13.754-15.049,18.515-24.406,3.785-7.473,6.328-14.853,7.623-23.23.806-6.204.806-11.944-.806-18.051-.537-1.759-1.173-3.371-1.931-4.813"/>
  <path class="uuid-63604d78-7d9c-490e-89a3-15aea92a849a" d="M259.895,195.848c-1.516.074-3.028.243-4.665.637,1.637-.343,3.201-.563,4.713-.563.173,0,.343,0,.463-.074"/>
  <path class="uuid-63604d78-7d9c-490e-89a3-15aea92a849a" d="M198.557,243.412c-.343.879-.637,1.733-.858,2.611-1.17,3.786-2.096,7.624-2.734,11.385-.295,1.269-.463,2.565-.636,3.881-.17,1.299-.365,2.617-.417,3.912-.047.389-.121.853-.121,1.269"/>
  <path class="uuid-63604d78-7d9c-490e-89a3-15aea92a849a" d="M195.771,287.016c1.807,6.229,4.813,11.163,8.82,14.656,1.221,1.147,2.612,2.126,4.076,2.954,3.375,1.979,7.183,3.079,11.311,3.3,7.38.537,15.928-1.685,24.99-6.913,8.234-4.691,16.028-11.431,22.867-19.321.633.802,1.443,1.487,2.318,2.025"/>
  <path class="uuid-63604d78-7d9c-490e-89a3-15aea92a849a" d="M307.97,305.482c1.27.758,2.784,1.123,4.348,1.123,6.277,0,14.166-5.766,19.395-14.828,6.498-11.307,6.498-23.621,0-27.407"/>
  <path class="uuid-63604d78-7d9c-490e-89a3-15aea92a849a" d="M293.922,242.532c-.88-.515-1.881-.805-2.928-.979,3.37-9.941,5.371-19.983,5.371-29.435,0-16.391-5.762-27.871-15.045-33.221-1.173-.71-2.395-1.273-3.664-1.737-.758-.243-1.516-.537-2.322-.706-.463-.122-.879-.247-1.342-.295-.758-.221-1.564-.389-2.444-.463-1.051-.1-2.078-.221-3.175-.221"/>
  <path class="uuid-63604d78-7d9c-490e-89a3-15aea92a849a" d="M267.835,197.07c-.636-.291-1.342-.511-2.1-.632.758.169,1.416.412,2.1.68.048,0,.122.074.17.074.073.052.121.052.173.052"/>
  <line class="uuid-c2d02965-9213-4a1e-ac39-10d0897673ec" x1="219.978" y1="307.925" x2="128.983" y2="360.372"/>
  <path class="uuid-63604d78-7d9c-490e-89a3-15aea92a849a" d="M128.983,360.372c-2.491-2.05-2.66-3.297-2.954-6.447"/>
  <line class="uuid-c2d02965-9213-4a1e-ac39-10d0897673ec" x1="126.028" y1="353.925" x2="126.15" y2="161.77"/>
  <line class="uuid-c2d02965-9213-4a1e-ac39-10d0897673ec" x1="136.144" y1="144.403" x2="203.148" y2="105.707"/>
  <path class="uuid-63604d78-7d9c-490e-89a3-15aea92a849a" d="M203.148,105.707c17.371-8.815,30.072,5.35,29.803,16.639"/>
  <line class="uuid-c2d02965-9213-4a1e-ac39-10d0897673ec" x1="267.835" y1="171.517" x2="267.835" y2="140.864"/>
  <line class="uuid-c2d02965-9213-4a1e-ac39-10d0897673ec" x1="268.126" y1="127.575" x2="235.027" y2="101.778"/>
  <line class="uuid-c2d02965-9213-4a1e-ac39-10d0897673ec" x1="128.983" y1="360.397" x2="117.478" y2="353.778"/>
  <path class="uuid-63604d78-7d9c-490e-89a3-15aea92a849a" d="M117.478,353.778c-2.492-2.053-2.661-3.349-2.956-6.502"/>
  <line class="uuid-c2d02965-9213-4a1e-ac39-10d0897673ec" x1="114.523" y1="347.277" x2="114.597" y2="155.103"/>
  <path class="uuid-63604d78-7d9c-490e-89a3-15aea92a849a" d="M114.597,155.103c.343-6.913,4.176-13.628,10.041-17.37"/>
  <line class="uuid-c2d02965-9213-4a1e-ac39-10d0897673ec" x1="124.638" y1="137.733" x2="195.429" y2="96.892"/>
  <line class="uuid-c2d02965-9213-4a1e-ac39-10d0897673ec" x1="178.063" y1="275.584" x2="148.281" y2="292.781"/>
  <line class="uuid-c2d02965-9213-4a1e-ac39-10d0897673ec" x1="209.646" y1="257.36" x2="227.601" y2="247.002"/>
  <line class="uuid-c2d02965-9213-4a1e-ac39-10d0897673ec" x1="227.823" y1="246.904" x2="245.579" y2="236.62"/>
  <line class="uuid-c2d02965-9213-4a1e-ac39-10d0897673ec" x1="187.463" y1="291.777" x2="159.081" y2="308.169"/>
  <line class="uuid-c2d02965-9213-4a1e-ac39-10d0897673ec" x1="176.499" y1="256.139" x2="148.281" y2="272.456"/>
  <path class="uuid-63604d78-7d9c-490e-89a3-15aea92a849a" d="M196.235,184.589c3.959-2.273,7.502-6.159,10.041-10.629"/>
  <line class="uuid-c2d02965-9213-4a1e-ac39-10d0897673ec" x1="185.73" y1="221.813" x2="169.927" y2="230.928"/>
  <path class="uuid-63604d78-7d9c-490e-89a3-15aea92a849a" d="M196.309,187.323c5.838-3.444,11.383-4.296,15.733-3.075"/>
  <line class="uuid-c2d02965-9213-4a1e-ac39-10d0897673ec" x1="270.153" y1="283.716" x2="307.97" y2="305.482"/>
  <line class="uuid-c2d02965-9213-4a1e-ac39-10d0897673ec" x1="331.713" y1="264.37" x2="293.922" y2="242.532"/>
  <path class="uuid-63604d78-7d9c-490e-89a3-15aea92a849a" d="M268.884,197.486c.221.095.395.221.637.415.243.1.463.221.632.343.662.341,1.221.732,1.811,1.221.169.095.341.221.463.341.122.048.169.17.291.291.393.269.758.637,1.099,1.027,0,0,.048-.048.048.074.247.121.369.295.541.511.048,0,.048.077.048.077.173.17.295.291.363.465.343.341.685.758.906,1.147.658.828,1.173,1.733,1.637,2.686.048.048.122.174.122.221.173.291.295.585.389.88.122.169.173.341.247.463.243.585.463,1.221.633,1.855.125.293.247.515.295.809.221.754.463,1.512.588,2.27.048.096.048.295.122.463.095.515.217,1.101.269,1.686.121.341.195.732.195,1.147q.048.074.048.126c0,.169.047.412.047.632"/>
  <path class="uuid-63604d78-7d9c-490e-89a3-15aea92a849a" d="M267.835,175.476c-2.541.048-5.276.343-8.014.979-.979.169-1.905.412-2.832.754-1.001.221-1.98.589-2.98.979-2.882,1.123-5.986,2.517-9.041,4.298-2.27,1.346-4.544,2.811-6.741,4.422-1.59,1.173-3.153,2.395-4.64,3.664-2.152,1.734-4.206,3.665-6.229,5.693-1.051,1.027-2.03,2.074-3.006,3.201-3.075,3.249-5.985,6.792-8.598,10.553-.927,1.221-1.807,2.491-2.69,3.785-.559.854-1.145,1.737-1.685,2.613-.976,1.442-1.855,2.884-2.713,4.396-1.976,3.423-3.833,6.962-5.397,10.579-.585,1.221-1.173,2.491-1.637,3.712-.681,1.564-1.317,3.128-1.855,4.717-.463,1.221-.927,2.443-1.269,3.662-.295.857-.589,1.663-.81,2.541-1.17,3.786-2.096,7.624-2.734,11.385-.295,1.269-.463,2.565-.636,3.881-.17,1.299-.365,2.617-.417,3.912-.047.389-.121.853-.121,1.269"/>
  <path class="uuid-63604d78-7d9c-490e-89a3-15aea92a849a" d="M238.691,285.794c1.101-.393,2.2-.857,3.249-1.394,1.101-.511,2.149-1.097,3.128-1.66.121,0,.169-.073.293-.173.365-.143.633-.365.976-.585,2.81-1.685,5.544-3.785,8.086-6.107.633-.511,1.27-1.101,1.855-1.759,1.733-1.612,3.373-3.297,4.886-5.154.637-.758,1.221-1.512,1.859-2.27,1.733-2.076,3.296-4.276,4.761-6.624.099-.048.099-.095.099-.169.537-.684,1.001-1.512,1.395-2.248.191-.122.243-.291.315-.485.463-.685.854-1.442,1.27-2.2.463-.758.854-1.49,1.221-2.322.391-.758.758-1.512,1.149-2.322.415-.802.806-1.611,1.095-2.443.247-.511.489-1.049.663-1.512.511-1.147.979-2.318,1.39-3.47.467-1.169.81-2.27,1.149-3.444.173-.511.341-1.101.514-1.612.074-.243.122-.463.196-.71.293-.975.511-1.953.758-2.954.169-.684.269-1.343.389-2.053.195-.684.295-1.317.369-2.002.169-.879.341-1.737.341-2.565.339-2.491.463-5.054.391-7.671q.073-.048,0-.096v-.662c0-.048,0-.096-.052-.169"/>
  <path class="uuid-63604d78-7d9c-490e-89a3-15aea92a849a" d="M280.437,218.616c.052-.121.052-.243,0-.343,0-.293,0-.536-.048-.831,0-.096,0-.269-.074-.391,0-.291-.047-.636-.095-1.001q.048,0,.048-.047t-.048-.126c0-.415-.074-.806-.195-1.147-.052-.585-.174-1.171-.269-1.686-.074-.169-.074-.367-.122-.463-.125-.758-.367-1.516-.588-2.27-.048-.293-.17-.515-.295-.809-.17-.633-.391-1.269-.633-1.855-.074-.122-.125-.295-.247-.463-.095-.317-.217-.589-.389-.88,0-.047-.074-.173-.122-.221-.463-.953-.979-1.858-1.637-2.686-.221-.389-.563-.806-.906-1.147-.069-.174-.191-.295-.363-.465,0,0,0-.077-.048-.077-.173-.217-.295-.391-.541-.511,0,0,0-.074-.048-.074-.341-.389-.706-.758-1.099-1.027-.122-.121-.169-.243-.291-.291-.122-.121-.295-.247-.463-.341-.589-.489-1.149-.88-1.811-1.221-.169-.122-.389-.243-.632-.343"/>
  <line class="uuid-dd8e360f-5061-4230-9726-8ad05ff32004" x1="333.814" y1="267.328" x2="311.635" y2="305.777"/>
  <line class="uuid-dd8e360f-5061-4230-9726-8ad05ff32004" x1="324.506" y1="260.83" x2="301.351" y2="301.012"/>
  <line class="uuid-dd8e360f-5061-4230-9726-8ad05ff32004" x1="314.759" y1="255.186" x2="291.53" y2="295.394"/>
  <line class="uuid-dd8e360f-5061-4230-9726-8ad05ff32004" x1="305.012" y1="249.541" x2="281.783" y2="289.749"/>
  <line class="uuid-dd8e360f-5061-4230-9726-8ad05ff32004" x1="295.195" y1="243.901" x2="271.964" y2="284.11"/>
  <line class="uuid-dd8e360f-5061-4230-9726-8ad05ff32004" x1="294.606" y1="222.403" x2="253.103" y2="294.346"/>
  <line class="uuid-dd8e360f-5061-4230-9726-8ad05ff32004" x1="293.848" y1="201.15" x2="282.248" y2="221.181"/>
  <line class="uuid-dd8e360f-5061-4230-9726-8ad05ff32004" x1="245.825" y1="284.278" x2="234.343" y2="304.235"/>
  <line class="uuid-dd8e360f-5061-4230-9726-8ad05ff32004" x1="288.572" y1="187.643" x2="278.582" y2="205.011"/>
  <line class="uuid-dd8e360f-5061-4230-9726-8ad05ff32004" x1="229.971" y1="289.187" x2="219.978" y2="306.435"/>
  <line class="uuid-dd8e360f-5061-4230-9726-8ad05ff32004" x1="280.098" y1="179.8" x2="270.326" y2="196.68"/>
  <line class="uuid-dd8e360f-5061-4230-9726-8ad05ff32004" x1="218.66" y1="286.258" x2="208.888" y2="303.088"/>
  <line class="uuid-dd8e360f-5061-4230-9726-8ad05ff32004" x1="268.715" y1="176.94" x2="258.6" y2="194.406"/>
  <line class="uuid-dd8e360f-5061-4230-9726-8ad05ff32004" x1="210.868" y1="277.122" x2="200.705" y2="294.684"/>
  <line class="uuid-dd8e360f-5061-4230-9726-8ad05ff32004" x1="253.909" y1="179.946" x2="242.062" y2="200.466"/>
  <line class="uuid-dd8e360f-5061-4230-9726-8ad05ff32004" x1="207.865" y1="259.777" x2="195.944" y2="280.419"/>
  <line class="uuid-dd8e360f-5061-4230-9726-8ad05ff32004" x1="234.052" y1="191.819" x2="196.309" y2="257.188"/>
  <line class="uuid-dd8e360f-5061-4230-9726-8ad05ff32004" x1="248.265" y1="278.807" x2="233.93" y2="270.525"/>
  <line class="uuid-dd8e360f-5061-4230-9726-8ad05ff32004" x1="264.66" y1="262.173" x2="249.906" y2="253.67"/>
  <line class="uuid-dd8e360f-5061-4230-9726-8ad05ff32004" x1="275.087" y1="242.139" x2="260.406" y2="233.665"/>
  <line class="uuid-dd8e360f-5061-4230-9726-8ad05ff32004" x1="278.877" y1="218.249" x2="264.829" y2="210.139"/>
  <line class="uuid-dd8e360f-5061-4230-9726-8ad05ff32004" x1="124.27" y1="334.259" x2="116.452" y2="329.715"/>
  <line class="uuid-dd8e360f-5061-4230-9726-8ad05ff32004" x1="124.344" y1="308.169" x2="116.452" y2="303.625"/>
  <line class="uuid-dd8e360f-5061-4230-9726-8ad05ff32004" x1="124.344" y1="282.104" x2="116.452" y2="277.56"/>
  <line class="uuid-dd8e360f-5061-4230-9726-8ad05ff32004" x1="124.344" y1="256.039" x2="116.452" y2="251.496"/>
  <line class="uuid-dd8e360f-5061-4230-9726-8ad05ff32004" x1="124.344" y1="229.975" x2="116.452" y2="225.409"/>
  <line class="uuid-dd8e360f-5061-4230-9726-8ad05ff32004" x1="124.344" y1="203.91" x2="116.452" y2="199.366"/>
  <line class="uuid-dd8e360f-5061-4230-9726-8ad05ff32004" x1="124.344" y1="177.871" x2="116.452" y2="173.302"/>
  <line class="uuid-dd8e360f-5061-4230-9726-8ad05ff32004" x1="126.54" y1="153.028" x2="118.066" y2="148.167"/>
  <line class="uuid-dd8e360f-5061-4230-9726-8ad05ff32004" x1="144.669" y1="137.416" x2="136.776" y2="132.851"/>
  <line class="uuid-dd8e360f-5061-4230-9726-8ad05ff32004" x1="167.215" y1="124.398" x2="159.301" y2="119.829"/>
  <line class="uuid-dd8e360f-5061-4230-9726-8ad05ff32004" x1="243.552" y1="142.376" x2="234.81" y2="137.295"/>
  <line class="uuid-dd8e360f-5061-4230-9726-8ad05ff32004" x1="189.785" y1="111.352" x2="181.897" y2="106.786"/>
  <line class="uuid-dd8e360f-5061-4230-9726-8ad05ff32004" x1="241.892" y1="115.359" x2="229.287" y2="108.081"/>
  <line class="uuid-dd8e360f-5061-4230-9726-8ad05ff32004" x1="217.781" y1="101.435" x2="204.834" y2="93.985"/>
  <line class="uuid-dd8e360f-5061-4230-9726-8ad05ff32004" x1="190.152" y1="193.969" x2="172.614" y2="224.404"/>
  <line class="uuid-dd8e360f-5061-4230-9726-8ad05ff32004" x1="192.28" y1="277.243" x2="178.526" y2="269.303"/>
  <line class="uuid-dd8e360f-5061-4230-9726-8ad05ff32004" x1="194.428" y1="252.427" x2="179.843" y2="244.022"/>
  <line class="uuid-dd8e360f-5061-4230-9726-8ad05ff32004" x1="201.974" y1="230.707" x2="187.22" y2="222.208"/>
  <line class="uuid-dd8e360f-5061-4230-9726-8ad05ff32004" x1="213.137" y1="211.118" x2="198.387" y2="202.567"/>
  <line class="uuid-dd8e360f-5061-4230-9726-8ad05ff32004" x1="227.943" y1="193.578" x2="213.359" y2="185.123"/>
  <line class="uuid-dd8e360f-5061-4230-9726-8ad05ff32004" x1="247.974" y1="179.042" x2="234.052" y2="171.006"/>
</svg>