<?xml version="1.0" encoding="UTF-8"?>
<svg id="uuid-842b20d6-89bd-4ee0-8d0a-c532361a3bf9" data-name="&amp;lt;Layer&amp;gt;" xmlns="http://www.w3.org/2000/svg" viewBox="0 0 451.11 451.11">
  <defs>
    <style>
      .uuid-cb875034-f671-4479-9439-38e34cf8dd53, .uuid-66d73bd8-c9a3-40ad-8411-281c6e00f0b4, .uuid-99339793-19d2-4290-ba88-d6f0af26e92b, .uuid-a61ece73-e6ad-41c5-a265-a6df633c418a {
        fill: none;
        stroke: #000;
        stroke-linecap: round;
      }

      .uuid-cb875034-f671-4479-9439-38e34cf8dd53, .uuid-a61ece73-e6ad-41c5-a265-a6df633c418a {
        stroke-linejoin: round;
        stroke-width: 4.117px;
      }

      .uuid-66d73bd8-c9a3-40ad-8411-281c6e00f0b4 {
        stroke-width: 1.163px;
      }

      .uuid-66d73bd8-c9a3-40ad-8411-281c6e00f0b4, .uuid-99339793-19d2-4290-ba88-d6f0af26e92b {
        stroke-miterlimit: 10;
      }

      .uuid-99339793-19d2-4290-ba88-d6f0af26e92b {
        stroke-width: 1.159px;
      }

      .uuid-a61ece73-e6ad-41c5-a265-a6df633c418a {
        fill-rule: evenodd;
      }
    </style>
  </defs>
  <path class="uuid-a61ece73-e6ad-41c5-a265-a6df633c418a" d="M339.023,288.16c0,18.982-133.135,132.693-214.478,85.719-10.505-6.108-11.726-8.647-11.726-18.298v-26.186"/>
  <path class="uuid-a61ece73-e6ad-41c5-a265-a6df633c418a" d="M113.794,320.454c3.422-14.169,10.751-23.747,20.276-34.494,1.955-2.098,3.908-4.077,6.108-6.034,1.953-1.976,4.15-3.907,6.107-5.81,2.198-1.979,4.151-3.837,6.351-5.744,2.196-1.928,4.151-3.833,6.108-5.812,5.128-4.666,9.769-9.478,13.922-14.828-1.464,7.914,8.062,16.634,23.938,22.768,15.148,5.814,31.514,8.084,46.905,2.318,9.769-3.588,19.299-9.843,26.138-16.878.733-.585,1.465-1.295,1.955-1.979.489-.585.975-1.173,1.464-1.807.489-.684,1.221-1.442,1.711-2.274.489-.758.979-1.611,1.711-2.491,0-.221.243-.463.485-.684"/>
  <path class="uuid-a61ece73-e6ad-41c5-a265-a6df633c418a" d="M339.023,255.966c0-23.283-25.893-33.151-47.147-36.231,1.954,2.443,3.175,5.645,3.911,9.067,1.221,5.15,1.221,10.868.243,14.923-.732,3.618-2.2,7.23-4.154,10.699-1.955,3.591-4.398,7.061-7.33,10.384-3.907,4.639-9.037,9.061-14.654,12.97-10.258,7.328-21.984,12.705-34.444,14.584-4.886.732-10.014.953-14.901.707-4.886-.244-10.015-.976-14.658-2.05-5.372-1.175-10.505-2.76-15.388-4.67-4.886-1.953-9.529-4.15-13.68-6.544-4.154-2.444-7.571-5.078-10.505-7.863-3.175-2.932-5.618-6.06-7.571-9.382-8.062,7.818-16.856,15.096-24.675,23.4-9.525,10.725-16.855,20.35-20.276,34.516"/>
  <path class="uuid-a61ece73-e6ad-41c5-a265-a6df633c418a" d="M276.974,246.704c-.243.221-.485.463-.485.684-.247.465-.732.88-.732,1.295-.489.391-.736.806-.979,1.195-.489.832-1.221,1.59-1.711,2.274-.489.633-.975,1.221-1.464,1.807-.489.684-1.221,1.394-1.955,1.979-6.839,7.035-16.369,13.29-26.138,16.878-15.39,5.766-31.757,3.496-46.905-2.318-15.876-6.134-25.402-14.854-23.938-22.768,1.711-2.075,6.596-7.061,7.819-9.331,2.443-4.007,2.443-5.812,2.928-9.941v-1.442c.247.121.247.169.489.295.732.853,1.464,1.685,2.2,2.491"/>
  <path class="uuid-a61ece73-e6ad-41c5-a265-a6df633c418a" d="M217.862,252.396c-11.241-4.934-22.477-12.848-31.757-22.594-.736-.806-1.468-1.638-2.2-2.491.732-2.149,1.711-6.06.732-7.454-2.196-4.398-5.13-10.38-6.351-15.486-.243-.88-.243-1.733-.489-2.565-.243-3.76,0-8.183,1.468-11.943.243-.589.489-1.175.976-1.759,1.711-3.764,4.643-6.572,9.282-6.744.489-.048.979-.048,1.223-.048h.732c.247,0,.247.048.247.048"/>
  <path class="uuid-a61ece73-e6ad-41c5-a265-a6df633c418a" d="M191.724,181.359c.732.074,1.464.173,2.196.415.489.173,1.221.463,1.954.806.732.367,1.221.758,1.953,1.221.247.243.489.537.979.758.243.295.489.585.732.927.732.637,1.221,1.273,1.711,2.101.489.343.733.684.733,1.053,1.221,1.783,2.2,4.007,3.175,6.544.243.637.489,1.296.489,1.907.489,1.001.732,2.1.975,3.201v.879"/>
  <path class="uuid-a61ece73-e6ad-41c5-a265-a6df633c418a" d="M206.621,201.246c.247,1.027.489,2.124.736,3.223,0-.341,0-.684.243-1.027.489-1.857.979-3.612,1.221-5.228.243-.805.489-1.56.732-2.317.489-3.202.979-5.94,1.221-8.431.732-5.054.489-8.893.489-12.775-.243-7.671-.489-11.971,5.866-17.37,4.15-3.418,9.037-4.761,14.654-6.277,5.862-1.564,12.212-3.249,18.809-7.208,6.839-3.881,13.19-9.452,19.055-14.508,8.305-7.476,15.634-13.874,20.031-9.699,2.93,2.613,2.93,7.719,3.176,13.264,0,4.228.243,8.624,1.221,12.826"/>
  <polyline class="uuid-a61ece73-e6ad-41c5-a265-a6df633c418a" points="294.076 145.72 294.808 147.918 297.251 155.809"/>
  <path class="uuid-a61ece73-e6ad-41c5-a265-a6df633c418a" d="M296.762,175.108c-.243,4.86-.732,9.915-1.464,14.923v.806c-.979,4.691-1.953,9.356-3.666,13.926-.245.585-.489,1.097-.732,1.685"/>
  <path class="uuid-a61ece73-e6ad-41c5-a265-a6df633c418a" d="M289.189,210.529c-.247.632-.489,1.221-.732,1.855-.732,1.611-1.711,3.296-2.443,4.934-.247.585-.489,1.1-.732,1.637"/>
  <path class="uuid-a61ece73-e6ad-41c5-a265-a6df633c418a" d="M163.142,109.836c-14.901,27.383-5.619,102.353,20.274,118.597.489-1.368,2.2-6.791,1.221-8.55-2.196-4.424-5.13-10.406-6.351-15.534-5.618-24.7,23.696-36.301,29.071.121,4.396-15.39,3.907-22.522,3.907-29.751-.243-7.671-.489-12.019,5.866-17.37,4.15-3.444,9.037-4.787,14.654-6.303"/>
  <path class="uuid-a61ece73-e6ad-41c5-a265-a6df633c418a" d="M231.784,151.044c5.862-1.564,12.212-3.249,18.809-7.182,6.839-3.933,13.19-9.452,18.809-14.56,8.55-7.473,15.88-13.848,20.276-9.673,2.93,2.591,2.93,7.719,3.176,13.238,0,4.228,0,8.65,1.221,12.827"/>
  <path class="uuid-a61ece73-e6ad-41c5-a265-a6df633c418a" d="M297.251,155.809c.975-13.338.489-28.781-1.464-41.433-3.421-24.475-14.416-25.402-44.704-41.33-4.643-2.565-10.994-6.766-20.277-7.083-22.716-.684-56.427,25.77-67.663,43.872"/>
  <path class="uuid-a61ece73-e6ad-41c5-a265-a6df633c418a" d="M238.867,239.523c5.86-3.349,21.988-11.016,26.874-19.515,4.64,2.928,20.763-8.04,26.625-11.361-3.423-8.794-21.984-6.031-26.625,2.2-4.886-2.833-23.209,15.78-26.874,28.677Z"/>
  <path class="uuid-a61ece73-e6ad-41c5-a265-a6df633c418a" d="M206.621,201.246c.247.048.247.096.247.169v.1c.243.633.489,1.291.732,1.927,21.742,55.869,58.627,34.958,60.827,29.192,3.666,4.029,10.747-3.005,16.856-13.68.243-.537.485-1.051.732-1.637,1.221-2.196,2.443-4.518,3.418-6.911"/>
  <path class="uuid-a61ece73-e6ad-41c5-a265-a6df633c418a" d="M291.143,206.57c0-.585.244-1.149.489-1.807,1.712-4.691,2.934-9.456,3.666-13.926v-.806c0,17.422-12.057,51.706-23.695,63.929-3.562,4.978-10.873,8.469-16.856,9.037-10.019,1.053-25.648-1.148-36.885-10.601-10.994-9.109-17.592-24.99-11.241-51.15"/>
  <path class="uuid-a61ece73-e6ad-41c5-a265-a6df633c418a" d="M258.655,185.465c0,3.297-.976,6.961-2.934,10.185-1.954,3.249-4.396,6.081-7.329,7.719"/>
  <path class="uuid-a61ece73-e6ad-41c5-a265-a6df633c418a" d="M273.067,189.152c-2.93,1.663-5.372,1.806-7.326.71-1.957-1.079-2.932-3.397-2.932-6.672"/>
  <line class="uuid-cb875034-f671-4479-9439-38e34cf8dd53" x1="339.023" y1="255.988" x2="339.023" y2="288.16"/>
  <path class="uuid-a61ece73-e6ad-41c5-a265-a6df633c418a" d="M112.82,329.395c0-3.407.43-5.63.975-8.941"/>
  <path class="uuid-a61ece73-e6ad-41c5-a265-a6df633c418a" d="M297.251,155.809c-.243,5.982,0,12.506-.489,19.225"/>
  <line class="uuid-cb875034-f671-4479-9439-38e34cf8dd53" x1="296.762" y1="175.034" x2="296.762" y2="175.108"/>
  <line class="uuid-cb875034-f671-4479-9439-38e34cf8dd53" x1="258.655" y1="168.705" x2="258.655" y2="185.465"/>
  <line class="uuid-cb875034-f671-4479-9439-38e34cf8dd53" x1="248.393" y1="203.369" x2="226.655" y2="215.948"/>
  <path class="uuid-a61ece73-e6ad-41c5-a265-a6df633c418a" d="M226.655,215.948c-1.955,1.101-3.666,1.199-4.887.467"/>
  <path class="uuid-a61ece73-e6ad-41c5-a265-a6df633c418a" d="M221.769,216.416c-1.221-.71-1.953-2.273-1.953-4.448"/>
  <line class="uuid-cb875034-f671-4479-9439-38e34cf8dd53" x1="219.815" y1="211.967" x2="219.815" y2="195.013"/>
  <path class="uuid-a61ece73-e6ad-41c5-a265-a6df633c418a" d="M219.815,195.013c0-3.319.732-4.198,3.175-5.64"/>
  <line class="uuid-cb875034-f671-4479-9439-38e34cf8dd53" x1="222.99" y1="189.373" x2="225.923" y2="187.588"/>
  <path class="uuid-a61ece73-e6ad-41c5-a265-a6df633c418a" d="M225.923,187.588c11.722-6.718,21.984-12.653,32.732-18.883"/>
  <path class="uuid-a61ece73-e6ad-41c5-a265-a6df633c418a" d="M262.809,166.41c10.99-6.472,20.763-12.017,32.732-18.978"/>
  <line class="uuid-cb875034-f671-4479-9439-38e34cf8dd53" x1="295.54" y1="147.432" x2="297.983" y2="145.989"/>
  <path class="uuid-a61ece73-e6ad-41c5-a265-a6df633c418a" d="M297.983,145.989c2.443-1.342,3.422-1.784,3.664,1.686"/>
  <line class="uuid-cb875034-f671-4479-9439-38e34cf8dd53" x1="301.647" y1="147.675" x2="301.647" y2="164.629"/>
  <path class="uuid-a61ece73-e6ad-41c5-a265-a6df633c418a" d="M301.647,164.629c0,2.196-.732,4.613-1.954,6.789"/>
  <path class="uuid-a61ece73-e6ad-41c5-a265-a6df633c418a" d="M299.694,171.418c-1.221,2.174-2.932,4.08-4.886,5.18"/>
  <line class="uuid-cb875034-f671-4479-9439-38e34cf8dd53" x1="294.808" y1="176.598" x2="273.067" y2="189.152"/>
  <line class="uuid-cb875034-f671-4479-9439-38e34cf8dd53" x1="262.809" y1="183.191" x2="262.809" y2="166.41"/>
  <line class="uuid-cb875034-f671-4479-9439-38e34cf8dd53" x1="183.415" y1="182.434" x2="183.905" y2="180.479"/>
  <path class="uuid-a61ece73-e6ad-41c5-a265-a6df633c418a" d="M183.905,180.479c.732-2.954,3.664-3.492,6.596-2.222"/>
  <line class="uuid-cb875034-f671-4479-9439-38e34cf8dd53" x1="190.501" y1="178.257" x2="218.594" y2="190.936"/>
  <line class="uuid-cb875034-f671-4479-9439-38e34cf8dd53" x1="258.655" y1="168.705" x2="262.809" y2="166.41"/>
  <line class="uuid-66d73bd8-c9a3-40ad-8411-281c6e00f0b4" x1="179.998" y1="214.337" x2="170.225" y2="208.624"/>
  <line class="uuid-66d73bd8-c9a3-40ad-8411-281c6e00f0b4" x1="179.018" y1="187.614" x2="160.21" y2="176.815"/>
  <line class="uuid-66d73bd8-c9a3-40ad-8411-281c6e00f0b4" x1="211.021" y1="180.116" x2="156.301" y2="148.554"/>
  <line class="uuid-66d73bd8-c9a3-40ad-8411-281c6e00f0b4" x1="217.129" y1="157.516" x2="158.256" y2="123.611"/>
  <line class="uuid-66d73bd8-c9a3-40ad-8411-281c6e00f0b4" x1="244.485" y1="147.232" x2="167.291" y2="102.75"/>
  <line class="uuid-66d73bd8-c9a3-40ad-8411-281c6e00f0b4" x1="265.984" y1="133.601" x2="183.905" y2="86.287"/>
  <line class="uuid-66d73bd8-c9a3-40ad-8411-281c6e00f0b4" x1="295.051" y1="124.295" x2="294.076" y2="123.832"/>
  <line class="uuid-66d73bd8-c9a3-40ad-8411-281c6e00f0b4" x1="285.036" y1="118.581" x2="205.399" y2="72.582"/>
  <line class="uuid-66d73bd8-c9a3-40ad-8411-281c6e00f0b4" x1="278.685" y1="184.071" x2="264.273" y2="175.792"/>
  <line class="uuid-66d73bd8-c9a3-40ad-8411-281c6e00f0b4" x1="290.164" y1="177.72" x2="267.937" y2="164.872"/>
  <line class="uuid-66d73bd8-c9a3-40ad-8411-281c6e00f0b4" x1="295.54" y1="167.726" x2="279.417" y2="158.495"/>
  <line class="uuid-66d73bd8-c9a3-40ad-8411-281c6e00f0b4" x1="294.808" y1="154.195" x2="291.143" y2="152.218"/>
  <line class="uuid-66d73bd8-c9a3-40ad-8411-281c6e00f0b4" x1="234.227" y1="209.697" x2="221.526" y2="202.295"/>
  <line class="uuid-66d73bd8-c9a3-40ad-8411-281c6e00f0b4" x1="245.95" y1="203.347" x2="223.722" y2="190.52"/>
  <line class="uuid-66d73bd8-c9a3-40ad-8411-281c6e00f0b4" x1="254.5" y1="195.308" x2="234.959" y2="184.071"/>
  <line class="uuid-66d73bd8-c9a3-40ad-8411-281c6e00f0b4" x1="257.19" y1="183.776" x2="246.685" y2="177.72"/>
  <line class="uuid-66d73bd8-c9a3-40ad-8411-281c6e00f0b4" x1="260.855" y1="223.23" x2="254.257" y2="219.444"/>
  <line class="uuid-66d73bd8-c9a3-40ad-8411-281c6e00f0b4" x1="285.036" y1="211.115" x2="275.999" y2="205.911"/>
  <line class="uuid-66d73bd8-c9a3-40ad-8411-281c6e00f0b4" x1="239.114" y1="260.384" x2="213.708" y2="245.73"/>
  <line class="uuid-66d73bd8-c9a3-40ad-8411-281c6e00f0b4" x1="270.871" y1="252.617" x2="253.279" y2="242.407"/>
  <line class="uuid-66d73bd8-c9a3-40ad-8411-281c6e00f0b4" x1="212.975" y1="219.201" x2="206.135" y2="215.29"/>
  <line class="uuid-66d73bd8-c9a3-40ad-8411-281c6e00f0b4" x1="281.861" y1="232.929" x2="278.931" y2="231.17"/>
  <line class="uuid-66d73bd8-c9a3-40ad-8411-281c6e00f0b4" x1="158.499" y1="383.209" x2="113.552" y2="357.193"/>
  <line class="uuid-66d73bd8-c9a3-40ad-8411-281c6e00f0b4" x1="182.194" y1="383.868" x2="112.573" y2="343.66"/>
  <line class="uuid-66d73bd8-c9a3-40ad-8411-281c6e00f0b4" x1="200.516" y1="381.429" x2="112.086" y2="330.274"/>
  <line class="uuid-66d73bd8-c9a3-40ad-8411-281c6e00f0b4" x1="215.02" y1="376.774" x2="114.192" y2="318.463"/>
  <line class="uuid-66d73bd8-c9a3-40ad-8411-281c6e00f0b4" x1="229.937" y1="372.252" x2="117.352" y2="307.274"/>
  <line class="uuid-66d73bd8-c9a3-40ad-8411-281c6e00f0b4" x1="242.568" y1="366.505" x2="123.529" y2="297.778"/>
  <line class="uuid-99339793-19d2-4290-ba88-d6f0af26e92b" x1="253.187" y1="359.672" x2="131.966" y2="289.662"/>
  <line class="uuid-66d73bd8-c9a3-40ad-8411-281c6e00f0b4" x1="265.653" y1="353.774" x2="139.042" y2="280.731"/>
  <line class="uuid-99339793-19d2-4290-ba88-d6f0af26e92b" x1="276.54" y1="347.045" x2="147.696" y2="272.685"/>
  <line class="uuid-66d73bd8-c9a3-40ad-8411-281c6e00f0b4" x1="287.725" y1="340.532" x2="202.96" y2="291.483"/>
  <line class="uuid-66d73bd8-c9a3-40ad-8411-281c6e00f0b4" x1="158.499" y1="265.881" x2="158.499" y2="265.833"/>
  <line class="uuid-66d73bd8-c9a3-40ad-8411-281c6e00f0b4" x1="297.251" y1="332.938" x2="229.098" y2="293.631"/>
  <line class="uuid-66d73bd8-c9a3-40ad-8411-281c6e00f0b4" x1="306.534" y1="325.292" x2="245.95" y2="290.309"/>
  <line class="uuid-66d73bd8-c9a3-40ad-8411-281c6e00f0b4" x1="315.575" y1="317.4" x2="259.144" y2="284.812"/>
  <line class="uuid-66d73bd8-c9a3-40ad-8411-281c6e00f0b4" x1="324.121" y1="309.265" x2="269.892" y2="278.093"/>
  <line class="uuid-66d73bd8-c9a3-40ad-8411-281c6e00f0b4" x1="331.694" y1="300.74" x2="279.417" y2="270.473"/>
  <line class="uuid-66d73bd8-c9a3-40ad-8411-281c6e00f0b4" x1="338.045" y1="291.335" x2="287.236" y2="261.948"/>
  <line class="uuid-66d73bd8-c9a3-40ad-8411-281c6e00f0b4" x1="338.534" y1="278.487" x2="293.344" y2="252.47"/>
  <line class="uuid-66d73bd8-c9a3-40ad-8411-281c6e00f0b4" x1="338.291" y1="265.418" x2="297.008" y2="241.623"/>
  <line class="uuid-66d73bd8-c9a3-40ad-8411-281c6e00f0b4" x1="338.045" y1="252.153" x2="296.762" y2="228.407"/>
</svg>