<?xml version="1.0" encoding="UTF-8"?>
<svg id="uuid-918e7c06-ee47-4a26-9ad2-819877b02e63" data-name="&amp;lt;Layer&amp;gt;" xmlns="http://www.w3.org/2000/svg" viewBox="0 0 451.11 451.11">
  <defs>
    <style>
      .uuid-3e44bd19-e7e3-458a-b182-0416009ed29c, .uuid-48800949-8113-4df3-8db2-5721d16f5d4b, .uuid-b68eab5c-75bb-47f8-9612-6195fe8d6f55 {
        fill: none;
        stroke: #000;
        stroke-linecap: round;
      }

      .uuid-3e44bd19-e7e3-458a-b182-0416009ed29c, .uuid-b68eab5c-75bb-47f8-9612-6195fe8d6f55 {
        stroke-linejoin: round;
        stroke-width: 4.113px;
      }

      .uuid-48800949-8113-4df3-8db2-5721d16f5d4b {
        stroke-miterlimit: 10;
        stroke-width: 1.163px;
      }

      .uuid-b68eab5c-75bb-47f8-9612-6195fe8d6f55 {
        fill-rule: evenodd;
      }
    </style>
  </defs>
  <path class="uuid-b68eab5c-75bb-47f8-9612-6195fe8d6f55" d="M139.645,343.291c-5.522-6.251-9.699-14.339-12.19-22.253-7.282-22.622-4.544-50.103,1.49-72.697,12.091-45.047,42.626-93,81.2-119.75,13.754-9.547,30.752-17.803,47.611-19.293,6.616-.589,13.946-.074,20.274,1.733"/>
  <polyline class="uuid-b68eab5c-75bb-47f8-9612-6195fe8d6f55" points="281.742 112.252 251.549 94.835 247.885 93.613"/>
  <path class="uuid-b68eab5c-75bb-47f8-9612-6195fe8d6f55" d="M349.674,301.008c1.299.758,1.737,2.395.979,3.738"/>
  <polyline class="uuid-b68eab5c-75bb-47f8-9612-6195fe8d6f55" points="222.799 227.675 236.281 235.466 250.791 243.871 263.787 251.37 277.54 259.331 292.026 267.687 296.203 270.131 348.115 300.081 349.674 301.008"/>
  <path class="uuid-b68eab5c-75bb-47f8-9612-6195fe8d6f55" d="M219.082,228.675c.758-1.295,2.444-1.759,3.716-1.001"/>
  <line class="uuid-3e44bd19-e7e3-458a-b182-0416009ed29c" x1="218.204" y1="230.238" x2="219.082" y2="228.675"/>
  <path class="uuid-b68eab5c-75bb-47f8-9612-6195fe8d6f55" d="M219.182,233.952c-1.269-.756-1.733-2.44-.979-3.714"/>
  <polyline class="uuid-b68eab5c-75bb-47f8-9612-6195fe8d6f55" points="346.088 307.237 344.572 306.358 292.71 276.386 288.534 273.942 274.023 265.587 260.245 257.697 247.47 250.269 232.836 241.844 219.182 233.952"/>
  <path class="uuid-b68eab5c-75bb-47f8-9612-6195fe8d6f55" d="M349.8,306.236c-.758,1.295-2.443,1.759-3.712,1.001"/>
  <line class="uuid-3e44bd19-e7e3-458a-b182-0416009ed29c" x1="350.653" y1="304.746" x2="349.8" y2="306.236"/>
  <line class="uuid-3e44bd19-e7e3-458a-b182-0416009ed29c" x1="294.444" y1="291.139" x2="292.71" y2="276.386"/>
  <path class="uuid-b68eab5c-75bb-47f8-9612-6195fe8d6f55" d="M295.86,292.482c-.585-.295-1.291-.515-1.416-1.344"/>
  <line class="uuid-3e44bd19-e7e3-458a-b182-0416009ed29c" x1="340.101" y1="318.205" x2="295.86" y2="292.482"/>
  <path class="uuid-b68eab5c-75bb-47f8-9612-6195fe8d6f55" d="M344.692,309.896c.052,2.031.637,7.039-.463,8.014-1.049,1.001-2.737,1.101-4.128.295"/>
  <line class="uuid-3e44bd19-e7e3-458a-b182-0416009ed29c" x1="344.572" y1="306.358" x2="344.692" y2="309.896"/>
  <path class="uuid-b68eab5c-75bb-47f8-9612-6195fe8d6f55" d="M356.298,290.16c1.39.806,2.148,2.322,1.807,3.716"/>
  <line class="uuid-3e44bd19-e7e3-458a-b182-0416009ed29c" x1="311.936" y1="264.66" x2="356.298" y2="290.16"/>
  <path class="uuid-b68eab5c-75bb-47f8-9612-6195fe8d6f55" d="M310.077,264.148c.758-.369,1.273.169,1.859.511"/>
  <line class="uuid-3e44bd19-e7e3-458a-b182-0416009ed29c" x1="296.203" y1="270.131" x2="310.077" y2="264.148"/>
  <line class="uuid-3e44bd19-e7e3-458a-b182-0416009ed29c" x1="350.973" y1="298.591" x2="348.115" y2="300.081"/>
  <path class="uuid-b68eab5c-75bb-47f8-9612-6195fe8d6f55" d="M358.105,293.876c-.295,1.44-5.35,3.71-7.131,4.714"/>
  <path class="uuid-b68eab5c-75bb-47f8-9612-6195fe8d6f55" d="M236.281,235.466c2.078-4.834,3.299-9.819,3.299-14.46,0-12.436-8.772-17.492-19.519-11.215-10.794,6.207-19.493,21.3-19.493,33.736s8.699,17.466,19.493,11.263c4.887-2.833,9.357-7.551,12.775-12.948"/>
  <path class="uuid-b68eab5c-75bb-47f8-9612-6195fe8d6f55" d="M250.791,243.871c5.108-10.505,8.136-21.716,8.136-32.051,0-24.792-17.444-34.832-38.866-22.4-21.473,12.362-38.913,42.482-38.913,67.299s17.44,34.837,38.913,22.474c10.627-6.229,20.399-16.807,27.409-28.923"/>
  <path class="uuid-b68eab5c-75bb-47f8-9612-6195fe8d6f55" d="M263.787,251.37c9.063-17.025,14.538-35.712,14.538-52.74,0-37.106-26.09-52.129-58.263-33.612-32.172,18.589-58.236,63.756-58.236,100.864s26.064,52.228,58.236,33.636c15.634-9.015,29.803-24.28,40.184-41.82"/>
  <path class="uuid-b68eab5c-75bb-47f8-9612-6195fe8d6f55" d="M277.54,259.331c12.433-23.18,20.105-48.682,20.105-71.839,0-49.544-34.711-69.574-77.584-44.826-42.846,24.718-77.583,84.887-77.583,134.426s34.737,69.525,77.583,44.777c20.959-12.094,39.965-32.688,53.962-56.283"/>
  <path class="uuid-b68eab5c-75bb-47f8-9612-6195fe8d6f55" d="M288.534,273.942c-17.54,30.315-41.75,56.795-68.473,72.256-30.071,17.418-57.015,17.076-74.797,2.494-2.149-1.736-4.129-3.664-5.986-5.814M281.742,112.227c21.547,8.134,35.248,31.293,35.248,66.077,0,28.829-9.478,60.582-24.964,89.383"/>
  <line class="uuid-3e44bd19-e7e3-458a-b182-0416009ed29c" x1="278.03" y1="111.031" x2="281.742" y2="112.252"/>
  <polyline class="uuid-b68eab5c-75bb-47f8-9612-6195fe8d6f55" points="112.163 328.684 115.019 331.248 145.216 348.666"/>
  <path class="uuid-b68eab5c-75bb-47f8-9612-6195fe8d6f55" d="M247.885,93.613c-7.841-2.248-16.66-2.444-24.696-1.197-22.937,3.54-45.511,18.541-62.122,34.127-35.421,33.121-63.66,85.986-67.639,134.551-1.42,16.708-.077,35.539,7.057,50.908,2.785,6.008,6.915,12.091,11.678,16.682"/>
  <line class="uuid-48800949-8113-4df3-8db2-5721d16f5d4b" x1="129.288" y1="330.49" x2="123.376" y2="333.912"/>
  <line class="uuid-48800949-8113-4df3-8db2-5721d16f5d4b" x1="125.402" y1="319.721" x2="112.797" y2="326.999"/>
  <line class="uuid-48800949-8113-4df3-8db2-5721d16f5d4b" x1="123.033" y1="308.065" x2="105.541" y2="318.157"/>
  <line class="uuid-48800949-8113-4df3-8db2-5721d16f5d4b" x1="121.932" y1="295.657" x2="100.265" y2="308.141"/>
  <line class="uuid-48800949-8113-4df3-8db2-5721d16f5d4b" x1="122.106" y1="282.541" x2="96.725" y2="297.173"/>
  <line class="uuid-48800949-8113-4df3-8db2-5721d16f5d4b" x1="123.622" y1="268.641" x2="94.625" y2="285.327"/>
  <line class="uuid-48800949-8113-4df3-8db2-5721d16f5d4b" x1="126.403" y1="253.981" x2="93.94" y2="272.694"/>
  <line class="uuid-48800949-8113-4df3-8db2-5721d16f5d4b" x1="130.752" y1="238.422" x2="94.573" y2="259.309"/>
  <line class="uuid-48800949-8113-4df3-8db2-5721d16f5d4b" x1="136.861" y1="221.861" x2="96.552" y2="245.166"/>
  <line class="uuid-48800949-8113-4df3-8db2-5721d16f5d4b" x1="145.164" y1="204.026" x2="99.923" y2="230.143"/>
  <line class="uuid-48800949-8113-4df3-8db2-5721d16f5d4b" x1="156.475" y1="184.46" x2="104.908" y2="214.238"/>
  <line class="uuid-48800949-8113-4df3-8db2-5721d16f5d4b" x1="268.331" y1="106.829" x2="267.695" y2="107.193"/>
  <line class="uuid-48800949-8113-4df3-8db2-5721d16f5d4b" x1="172.55" y1="162.133" x2="111.822" y2="197.213"/>
  <line class="uuid-48800949-8113-4df3-8db2-5721d16f5d4b" x1="257.756" y1="99.915" x2="231.652" y2="114.956"/>
  <line class="uuid-48800949-8113-4df3-8db2-5721d16f5d4b" x1="204.917" y1="130.424" x2="120.811" y2="178.963"/>
  <line class="uuid-48800949-8113-4df3-8db2-5721d16f5d4b" x1="247.837" y1="92.611" x2="133.706" y2="158.495"/>
  <line class="uuid-48800949-8113-4df3-8db2-5721d16f5d4b" x1="223.605" y1="93.565" x2="158.281" y2="131.282"/>
  <line class="uuid-48800949-8113-4df3-8db2-5721d16f5d4b" x1="313.378" y1="203.832" x2="280.348" y2="261.042"/>
  <line class="uuid-48800949-8113-4df3-8db2-5721d16f5d4b" x1="276.978" y1="266.882" x2="240.218" y2="330.516"/>
  <line class="uuid-48800949-8113-4df3-8db2-5721d16f5d4b" x1="313.793" y1="157.932" x2="299.161" y2="183.289"/>
  <line class="uuid-48800949-8113-4df3-8db2-5721d16f5d4b" x1="217.277" y1="325.093" x2="200.79" y2="353.722"/>
  <line class="uuid-48800949-8113-4df3-8db2-5721d16f5d4b" x1="303.289" y1="130.988" x2="291.073" y2="152.07"/>
  <line class="uuid-48800949-8113-4df3-8db2-5721d16f5d4b" x1="186.204" y1="333.739" x2="172.156" y2="358.05"/>
  <line class="uuid-48800949-8113-4df3-8db2-5721d16f5d4b" x1="286.092" y1="115.575" x2="274.586" y2="135.51"/>
  <line class="uuid-48800949-8113-4df3-8db2-5721d16f5d4b" x1="163.608" y1="327.731" x2="150.271" y2="350.84"/>
  <line class="uuid-48800949-8113-4df3-8db2-5721d16f5d4b" x1="262.982" y1="110.468" x2="251.306" y2="130.693"/>
  <line class="uuid-48800949-8113-4df3-8db2-5721d16f5d4b" x1="147.829" y1="309.948" x2="134.296" y2="333.375"/>
  <line class="uuid-48800949-8113-4df3-8db2-5721d16f5d4b" x1="232.788" y1="117.577" x2="219.082" y2="141.419"/>
  <line class="uuid-48800949-8113-4df3-8db2-5721d16f5d4b" x1="140.962" y1="276.629" x2="125.355" y2="303.693"/>
  <line class="uuid-48800949-8113-4df3-8db2-5721d16f5d4b" x1="189.868" y1="146.769" x2="129.067" y2="252.102"/>
  <line class="uuid-48800949-8113-4df3-8db2-5721d16f5d4b" x1="275.635" y1="185.387" x2="260.49" y2="211.625"/>
  <line class="uuid-48800949-8113-4df3-8db2-5721d16f5d4b" x1="220.646" y1="280.708" x2="207.36" y2="303.693"/>
  <line class="uuid-48800949-8113-4df3-8db2-5721d16f5d4b" x1="262.471" y1="163.086" x2="249.106" y2="186.219"/>
  <line class="uuid-48800949-8113-4df3-8db2-5721d16f5d4b" x1="192.948" y1="283.519" x2="181.439" y2="303.45"/>
  <line class="uuid-48800949-8113-4df3-8db2-5721d16f5d4b" x1="238.702" y1="159.105" x2="223.089" y2="186.197"/>
  <line class="uuid-48800949-8113-4df3-8db2-5721d16f5d4b" x1="179.828" y1="261.042" x2="166.053" y2="284.863"/>
  <line class="uuid-48800949-8113-4df3-8db2-5721d16f5d4b" x1="196.657" y1="186.708" x2="168.907" y2="234.782"/>
  <line class="uuid-48800949-8113-4df3-8db2-5721d16f5d4b" x1="237.38" y1="216.147" x2="229.466" y2="229.749"/>
  <line class="uuid-48800949-8113-4df3-8db2-5721d16f5d4b" x1="224.411" y1="238.569" x2="214.738" y2="255.351"/>
  <line class="uuid-48800949-8113-4df3-8db2-5721d16f5d4b" x1="354.318" y1="291.014" x2="345.157" y2="296.317"/>
  <line class="uuid-48800949-8113-4df3-8db2-5721d16f5d4b" x1="343.008" y1="284.494" x2="333.824" y2="289.793"/>
  <line class="uuid-48800949-8113-4df3-8db2-5721d16f5d4b" x1="331.675" y1="277.997" x2="322.561" y2="283.273"/>
  <line class="uuid-48800949-8113-4df3-8db2-5721d16f5d4b" x1="320.365" y1="271.499" x2="311.299" y2="276.749"/>
  <line class="uuid-48800949-8113-4df3-8db2-5721d16f5d4b" x1="342.25" y1="307.016" x2="333.309" y2="312.196"/>
  <line class="uuid-48800949-8113-4df3-8db2-5721d16f5d4b" x1="330.991" y1="300.518" x2="322.05" y2="305.647"/>
  <line class="uuid-48800949-8113-4df3-8db2-5721d16f5d4b" x1="319.655" y1="293.998" x2="310.835" y2="299.102"/>
  <line class="uuid-48800949-8113-4df3-8db2-5721d16f5d4b" x1="308.393" y1="287.475" x2="299.577" y2="292.578"/>
  <line class="uuid-48800949-8113-4df3-8db2-5721d16f5d4b" x1="296.887" y1="281.099" x2="295.445" y2="281.93"/>
</svg>