<?xml version="1.0" encoding="UTF-8"?>
<svg id="uuid-6b35f114-63fd-4409-a363-e35efe4f788e" data-name="&amp;lt;Layer&amp;gt;" xmlns="http://www.w3.org/2000/svg" viewBox="0 0 451.11 451.11">
  <defs>
    <style>
      .uuid-60f4579a-235a-4eb7-9d86-c338237530bb, .uuid-32ab22a8-3dcd-466d-b41c-9b96b02ad350, .uuid-85291885-0e33-4832-8346-a8d5179f9c4a {
        fill: none;
        stroke: #000;
        stroke-linecap: round;
      }

      .uuid-60f4579a-235a-4eb7-9d86-c338237530bb, .uuid-85291885-0e33-4832-8346-a8d5179f9c4a {
        stroke-linejoin: round;
        stroke-width: 4.113px;
      }

      .uuid-32ab22a8-3dcd-466d-b41c-9b96b02ad350 {
        stroke-miterlimit: 10;
        stroke-width: 1.159px;
      }

      .uuid-85291885-0e33-4832-8346-a8d5179f9c4a {
        fill-rule: evenodd;
      }
    </style>
  </defs>
  <path class="uuid-85291885-0e33-4832-8346-a8d5179f9c4a" d="M308.109,265.653l30.413,17.614M112.635,337.96l31.757-18.346"/>
  <polyline class="uuid-85291885-0e33-4832-8346-a8d5179f9c4a" points="178.153 396.76 112.587 358.87 112.587 337.986 178.153 375.846"/>
  <polygon class="uuid-85291885-0e33-4832-8346-a8d5179f9c4a" points="178.153 375.846 338.522 283.289 338.522 304.176 178.153 396.76 178.153 375.846"/>
  <line class="uuid-60f4579a-235a-4eb7-9d86-c338237530bb" x1="186.969" y1="153.649" x2="186.969" y2="241.446"/>
  <polyline class="uuid-85291885-0e33-4832-8346-a8d5179f9c4a" points="222.98 174.438 186.969 153.675 229.55 129.074 265.531 149.863"/>
  <polyline class="uuid-85291885-0e33-4832-8346-a8d5179f9c4a" points="222.98 262.209 186.969 241.42 144.392 265.995"/>
  <polyline class="uuid-85291885-0e33-4832-8346-a8d5179f9c4a" points="180.397 286.784 144.392 265.995 144.392 337.497 180.397 358.31"/>
  <line class="uuid-60f4579a-235a-4eb7-9d86-c338237530bb" x1="265.531" y1="309.158" x2="265.531" y2="205.315"/>
  <polyline class="uuid-85291885-0e33-4832-8346-a8d5179f9c4a" points="265.531 163.764 272.102 159.979 308.109 180.766"/>
  <polyline class="uuid-85291885-0e33-4832-8346-a8d5179f9c4a" points="265.531 205.341 308.109 180.766 308.109 284.562 265.531 309.136"/>
  <polyline class="uuid-85291885-0e33-4832-8346-a8d5179f9c4a" points="222.98 262.209 180.397 286.784 180.397 358.31 222.98 333.711"/>
  <polygon class="uuid-85291885-0e33-4832-8346-a8d5179f9c4a" points="222.98 333.711 222.98 174.438 265.531 149.863 265.531 309.136 222.98 333.711"/>
  <line class="uuid-32ab22a8-3dcd-466d-b41c-9b96b02ad350" x1="123.898" y1="342.188" x2="120.138" y2="335.738"/>
  <line class="uuid-32ab22a8-3dcd-466d-b41c-9b96b02ad350" x1="143.759" y1="354.083" x2="129.59" y2="329.483"/>
  <line class="uuid-32ab22a8-3dcd-466d-b41c-9b96b02ad350" x1="163.278" y1="365.294" x2="150.257" y2="342.725"/>
  <line class="uuid-32ab22a8-3dcd-466d-b41c-9b96b02ad350" x1="142.485" y1="329.24" x2="139.7" y2="324.501"/>
  <line class="uuid-32ab22a8-3dcd-466d-b41c-9b96b02ad350" x1="180.692" y1="372.844" x2="169.893" y2="354.157"/>
  <line class="uuid-32ab22a8-3dcd-466d-b41c-9b96b02ad350" x1="190.296" y1="366.884" x2="184.946" y2="357.648"/>
  <line class="uuid-32ab22a8-3dcd-466d-b41c-9b96b02ad350" x1="200.043" y1="361.24" x2="194.74" y2="352.031"/>
  <line class="uuid-32ab22a8-3dcd-466d-b41c-9b96b02ad350" x1="209.836" y1="355.599" x2="204.509" y2="346.386"/>
  <line class="uuid-32ab22a8-3dcd-466d-b41c-9b96b02ad350" x1="219.605" y1="349.955" x2="214.256" y2="340.72"/>
  <line class="uuid-32ab22a8-3dcd-466d-b41c-9b96b02ad350" x1="229.425" y1="344.31" x2="224.075" y2="335.101"/>
  <line class="uuid-32ab22a8-3dcd-466d-b41c-9b96b02ad350" x1="239.176" y1="338.67" x2="233.822" y2="329.435"/>
  <line class="uuid-32ab22a8-3dcd-466d-b41c-9b96b02ad350" x1="248.923" y1="333.027" x2="243.646" y2="323.791"/>
  <line class="uuid-32ab22a8-3dcd-466d-b41c-9b96b02ad350" x1="258.739" y1="327.382" x2="253.415" y2="318.146"/>
  <line class="uuid-32ab22a8-3dcd-466d-b41c-9b96b02ad350" x1="268.511" y1="321.742" x2="263.162" y2="312.507"/>
  <line class="uuid-32ab22a8-3dcd-466d-b41c-9b96b02ad350" x1="278.258" y1="316.097" x2="272.908" y2="306.839"/>
  <line class="uuid-32ab22a8-3dcd-466d-b41c-9b96b02ad350" x1="288.078" y1="310.453" x2="282.729" y2="301.196"/>
  <line class="uuid-32ab22a8-3dcd-466d-b41c-9b96b02ad350" x1="297.825" y1="304.813" x2="292.476" y2="295.578"/>
  <line class="uuid-32ab22a8-3dcd-466d-b41c-9b96b02ad350" x1="307.598" y1="299.142" x2="302.295" y2="289.911"/>
  <line class="uuid-32ab22a8-3dcd-466d-b41c-9b96b02ad350" x1="317.44" y1="293.623" x2="309.966" y2="280.676"/>
  <line class="uuid-32ab22a8-3dcd-466d-b41c-9b96b02ad350" x1="327.26" y1="288.028" x2="319.25" y2="274.152"/>
  <line class="uuid-32ab22a8-3dcd-466d-b41c-9b96b02ad350" x1="181.865" y1="392.337" x2="180.229" y2="391.411"/>
  <line class="uuid-32ab22a8-3dcd-466d-b41c-9b96b02ad350" x1="193.519" y1="386.06" x2="179.813" y2="378.146"/>
  <line class="uuid-32ab22a8-3dcd-466d-b41c-9b96b02ad350" x1="204.85" y1="379.559" x2="189.927" y2="370.913"/>
  <line class="uuid-32ab22a8-3dcd-466d-b41c-9b96b02ad350" x1="216.187" y1="373.039" x2="201.186" y2="364.415"/>
  <line class="uuid-32ab22a8-3dcd-466d-b41c-9b96b02ad350" x1="227.45" y1="366.516" x2="212.523" y2="357.895"/>
  <line class="uuid-32ab22a8-3dcd-466d-b41c-9b96b02ad350" x1="238.761" y1="359.996" x2="223.786" y2="351.371"/>
  <line class="uuid-32ab22a8-3dcd-466d-b41c-9b96b02ad350" x1="250.044" y1="353.473" x2="235.045" y2="344.847"/>
  <line class="uuid-32ab22a8-3dcd-466d-b41c-9b96b02ad350" x1="261.307" y1="346.975" x2="246.38" y2="338.328"/>
  <line class="uuid-32ab22a8-3dcd-466d-b41c-9b96b02ad350" x1="272.614" y1="340.451" x2="257.643" y2="331.804"/>
  <line class="uuid-32ab22a8-3dcd-466d-b41c-9b96b02ad350" x1="283.903" y1="333.931" x2="268.902" y2="325.281"/>
  <line class="uuid-32ab22a8-3dcd-466d-b41c-9b96b02ad350" x1="295.165" y1="327.408" x2="280.237" y2="318.784"/>
  <line class="uuid-32ab22a8-3dcd-466d-b41c-9b96b02ad350" x1="306.472" y1="320.91" x2="291.5" y2="312.264"/>
  <line class="uuid-32ab22a8-3dcd-466d-b41c-9b96b02ad350" x1="317.76" y1="314.36" x2="302.833" y2="305.74"/>
  <line class="uuid-32ab22a8-3dcd-466d-b41c-9b96b02ad350" x1="329.07" y1="307.866" x2="314.095" y2="299.216"/>
  <line class="uuid-32ab22a8-3dcd-466d-b41c-9b96b02ad350" x1="336.864" y1="299.341" x2="325.479" y2="292.77"/>
  <line class="uuid-32ab22a8-3dcd-466d-b41c-9b96b02ad350" x1="176.464" y1="383.128" x2="167.281" y2="388.404"/>
  <line class="uuid-32ab22a8-3dcd-466d-b41c-9b96b02ad350" x1="170.777" y1="373.355" x2="155.85" y2="382.003"/>
  <line class="uuid-32ab22a8-3dcd-466d-b41c-9b96b02ad350" x1="159.492" y1="366.858" x2="144.517" y2="375.483"/>
  <line class="uuid-32ab22a8-3dcd-466d-b41c-9b96b02ad350" x1="148.251" y1="360.338" x2="133.254" y2="368.959"/>
  <line class="uuid-32ab22a8-3dcd-466d-b41c-9b96b02ad350" x1="136.918" y1="353.814" x2="121.991" y2="362.439"/>
  <line class="uuid-32ab22a8-3dcd-466d-b41c-9b96b02ad350" x1="125.535" y1="347.364" x2="114.32" y2="353.814"/>
  <line class="uuid-32ab22a8-3dcd-466d-b41c-9b96b02ad350" x1="252.072" y1="143.634" x2="241.615" y2="161.737"/>
  <line class="uuid-32ab22a8-3dcd-466d-b41c-9b96b02ad350" x1="232.847" y1="131.786" x2="212.28" y2="167.403"/>
  <line class="uuid-32ab22a8-3dcd-466d-b41c-9b96b02ad350" x1="195.741" y1="150.912" x2="193.298" y2="155.066"/>
  <line class="uuid-32ab22a8-3dcd-466d-b41c-9b96b02ad350" x1="276.404" y1="197.375" x2="267.337" y2="181.694"/>
  <line class="uuid-32ab22a8-3dcd-466d-b41c-9b96b02ad350" x1="286.441" y1="192.199" x2="269.369" y2="162.642"/>
  <line class="uuid-32ab22a8-3dcd-466d-b41c-9b96b02ad350" x1="295.968" y1="186.09" x2="286.957" y2="170.556"/>
  <line class="uuid-32ab22a8-3dcd-466d-b41c-9b96b02ad350" x1="277.625" y1="300.195" x2="267.289" y2="294.257"/>
  <line class="uuid-32ab22a8-3dcd-466d-b41c-9b96b02ad350" x1="289.3" y1="293.914" x2="266.926" y2="281.018"/>
  <line class="uuid-32ab22a8-3dcd-466d-b41c-9b96b02ad350" x1="300.953" y1="287.637" x2="266.531" y2="267.754"/>
  <line class="uuid-32ab22a8-3dcd-466d-b41c-9b96b02ad350" x1="307.475" y1="278.355" x2="266.289" y2="254.586"/>
  <line class="uuid-32ab22a8-3dcd-466d-b41c-9b96b02ad350" x1="307.475" y1="265.311" x2="266.289" y2="241.542"/>
  <line class="uuid-32ab22a8-3dcd-466d-b41c-9b96b02ad350" x1="307.475" y1="252.268" x2="266.289" y2="228.521"/>
  <line class="uuid-32ab22a8-3dcd-466d-b41c-9b96b02ad350" x1="307.475" y1="239.246" x2="266.289" y2="215.477"/>
  <line class="uuid-32ab22a8-3dcd-466d-b41c-9b96b02ad350" x1="307.355" y1="226.13" x2="269.247" y2="204.142"/>
  <line class="uuid-32ab22a8-3dcd-466d-b41c-9b96b02ad350" x1="306.936" y1="212.866" x2="280.922" y2="197.843"/>
  <line class="uuid-32ab22a8-3dcd-466d-b41c-9b96b02ad350" x1="306.545" y1="199.597" x2="292.597" y2="191.561"/>
  <line class="uuid-32ab22a8-3dcd-466d-b41c-9b96b02ad350" x1="306.133" y1="186.359" x2="304.275" y2="185.284"/>
  <line class="uuid-32ab22a8-3dcd-466d-b41c-9b96b02ad350" x1="243.694" y1="320.126" x2="224.422" y2="309.011"/>
  <line class="uuid-32ab22a8-3dcd-466d-b41c-9b96b02ad350" x1="264.847" y1="306.277" x2="223.734" y2="282.534"/>
  <line class="uuid-32ab22a8-3dcd-466d-b41c-9b96b02ad350" x1="264.847" y1="280.212" x2="223.734" y2="256.469"/>
  <line class="uuid-32ab22a8-3dcd-466d-b41c-9b96b02ad350" x1="264.847" y1="254.147" x2="223.734" y2="230.404"/>
  <line class="uuid-32ab22a8-3dcd-466d-b41c-9b96b02ad350" x1="264.847" y1="228.083" x2="223.734" y2="204.314"/>
  <line class="uuid-32ab22a8-3dcd-466d-b41c-9b96b02ad350" x1="264.895" y1="202.018" x2="223.734" y2="178.249"/>
  <line class="uuid-32ab22a8-3dcd-466d-b41c-9b96b02ad350" x1="264.214" y1="175.538" x2="244.058" y2="163.911"/>
  <line class="uuid-32ab22a8-3dcd-466d-b41c-9b96b02ad350" x1="221.706" y1="233.849" x2="199.111" y2="246.893"/>
  <line class="uuid-32ab22a8-3dcd-466d-b41c-9b96b02ad350" x1="222.049" y1="207.563" x2="187.948" y2="227.277"/>
  <line class="uuid-32ab22a8-3dcd-466d-b41c-9b96b02ad350" x1="222.049" y1="181.498" x2="187.948" y2="201.21"/>
  <line class="uuid-32ab22a8-3dcd-466d-b41c-9b96b02ad350" x1="204.561" y1="165.544" x2="188.533" y2="174.78"/>
</svg>